<svg xmlns="http://www.w3.org/2000/svg" viewBox="0 0 144 144"><defs><style>.cls-1{fill:#fff;}.cls-2{fill:#2130AD;}.cls-3{fill:none;stroke:#2130AD;stroke-linejoin:round;stroke-width:2px;}</style></defs><title>adhesive-backing</title><g id="Machine_Solutions" data-name="Machine Solutions"><g id="Adhesive_Backing" data-name="Adhesive Backing"><rect class="cls-1" x="7.33" y="7.33" width="129.33" height="129.33"/><path class="cls-2" d="M134.67,9.33V134.67H9.33V9.33H134.67m4-4H5.33V138.67H138.67V5.33Z"/><path class="cls-1" d="M8.33,135.67V8.33H26.84c41.82,0,46.72,63.24,46.76,63.87L73.8,75h2.8a92.24,92.24,0,0,1,30.07,6c19.24,7.69,29,21.23,29,40.26v14.4Z"/><path class="cls-2" d="M26.84,11.33c16,0,28.15,9.88,36.16,29.36a116.54,116.54,0,0,1,7.61,31.72L71,78h5.59a89.15,89.15,0,0,1,29.11,5.85c17.89,7.2,27,19.79,27,37.42v11.4H11.33V11.33H26.84m0-6H5.33V138.67H138.67v-17.4C138.67,72,76.6,72,76.6,72S72,5.33,26.84,5.33Z"/><path class="cls-3" d="M28.62,7.22s42.49,3.37,74,33.07,33.44,69.45,33.44,69.45"/></g></g></svg>