<svg xmlns="http://www.w3.org/2000/svg" xmlns:xlink="http://www.w3.org/1999/xlink" viewBox="0 0 144 144"><defs><style>.cls-1,.cls-4,.cls-7{fill:none;}.cls-2,.cls-6{fill:#fff;}.cls-3{fill:#2130AD;}.cls-4,.cls-6,.cls-7{stroke:#2130AD;stroke-linejoin:round;}.cls-4{stroke-linecap:round;}.cls-4,.cls-7{stroke-width:3px;}.cls-5{clip-path:url(#clip-path);}.cls-6{stroke-width:6px;}</style><clipPath id="clip-path"><path class="cls-1" d="M-19.58,33.4l129.3,129.3,51.87-51.87L32.28-18.47Zm143.19,90.75a9.67,9.67,0,1,1,0-13.69A9.68,9.68,0,0,1,123.61,124.15Z"/></clipPath></defs><title>assembly</title><g id="Assembly"><path class="cls-2" d="M53.71,96.33a2,2,0,0,1-1.41-.59l-3.53-3.53a2,2,0,0,1,0-2.83l63.65-63.2,4.78-8.29a10.91,10.91,0,0,1,3.42-3.44l8.76-4.83a2,2,0,0,1,2.38.34l2.8,2.8a2,2,0,0,1,.34,2.38l-4.78,8.66-.06.11a11.06,11.06,0,0,1-3.36,3.36l-8.36,4.83L55.13,95.74a2,2,0,0,1-1.42.59Z"/><path class="cls-3" d="M130.34,11.37l2.8,2.8-4.78,8.66a9,9,0,0,1-2.75,2.75l-8.52,4.92L53.71,94.33,50.17,90.8,114,27.41l4.92-8.52a8.83,8.83,0,0,1,2.75-2.75l8.66-4.78m0-4a4,4,0,0,0-1.93.5l-8.66,4.78-.2.12a12.86,12.86,0,0,0-4,4l-.08.13L110.81,25,47.35,88a4,4,0,0,0,0,5.67l3.53,3.53a4,4,0,0,0,2.83,1.17h0a4,4,0,0,0,2.83-1.18l63-63.46L127.61,29l.15-.09a13.07,13.07,0,0,0,4-4l.13-.22,4.78-8.66a4,4,0,0,0-.67-4.76l-2.8-2.8a4,4,0,0,0-2.83-1.17Z"/><path class="cls-2" d="M20.1,140a7.88,7.88,0,0,1-5.61-2.32L6.86,130a7.94,7.94,0,0,1,0-11.22L40,85.62a7.93,7.93,0,0,1,11.22,0l7.64,7.64a7.93,7.93,0,0,1,0,11.22L25.71,137.64A7.88,7.88,0,0,1,20.1,140Z"/><path class="cls-3" d="M45.63,86.3a4.92,4.92,0,0,1,3.49,1.44l7.64,7.64a4.93,4.93,0,0,1,0,7L23.59,135.52a4.93,4.93,0,0,1-7,0L9,127.88a4.93,4.93,0,0,1,0-7L42.14,87.75a4.92,4.92,0,0,1,3.49-1.44m0-6a10.86,10.86,0,0,0-7.73,3.2L4.74,116.66a10.93,10.93,0,0,0,0,15.46l7.64,7.64a10.93,10.93,0,0,0,15.46,0L61,106.6a10.93,10.93,0,0,0,0-15.46L53.36,83.5a10.86,10.86,0,0,0-7.73-3.2Z"/><line class="cls-4" x1="45.51" y1="93.57" x2="14.6" y2="124.48"/><line class="cls-4" x1="50.93" y1="98.99" x2="20.02" y2="129.9"/><g class="cls-5"><path class="cls-6" d="M131.42,102.65a20.72,20.72,0,1,1-35.06,11.13l-51-55A26.81,26.81,0,0,1,10.7,21.29a4.8,4.8,0,0,0,.61.73L29.12,39.83a5.34,5.34,0,0,0,7.55,0l2.62-2.62a5.34,5.34,0,0,0,0-7.55L21.48,11.84a4.76,4.76,0,0,0-.72-.6A26.81,26.81,0,0,1,58.29,45.93l55,51A20.66,20.66,0,0,1,131.42,102.65Z"/></g><circle class="cls-7" cx="116.77" cy="117.31" r="9.68" transform="translate(-48.75 116.93) rotate(-45)"/></g></svg>