<svg id="Form_Solutions" data-name="Form Solutions" xmlns="http://www.w3.org/2000/svg" viewBox="0 0 144 144"><defs><style>.cls-1{fill:#2130AD;}</style></defs><title>c-channels</title><g id="C_Channels" data-name="C Channels"><path class="cls-1" d="M116.42,131.56,6.25,98.62,118,125.76a3,3,0,0,1-1.42,5.83Z"/><path class="cls-1" d="M6.25,54.37,107.58,30.08,105.19,33h0a26.7,26.7,0,0,1,2.89-12.3A20.1,20.1,0,0,1,112,15.4a15.32,15.32,0,0,1,6-3.6,13.29,13.29,0,0,1,7.21-.22,14.89,14.89,0,0,1,6.18,3.31,22,22,0,0,1,6.51,11.16,27.83,27.83,0,0,1,.85,6.27v79.35a27.83,27.83,0,0,1-.85,6.27,22,22,0,0,1-6.51,11.16,14.89,14.89,0,0,1-6.18,3.31,13.29,13.29,0,0,1-7.21-.22,15.32,15.32,0,0,1-6-3.6,20.11,20.11,0,0,1-3.93-5.31,26.7,26.7,0,0,1-2.89-12.3h0l2.38,2.94L6.25,89.63,108.81,108a2.89,2.89,0,0,1,2.37,2.68V111h0a20.73,20.73,0,0,0,2.21,9.53c1.45,2.85,3.77,5.16,6.37,6a7.82,7.82,0,0,0,7.64-1.89,16.13,16.13,0,0,0,4.65-8.14,21.84,21.84,0,0,0,.67-4.92V32.47a21.84,21.84,0,0,0-.67-4.92,16.13,16.13,0,0,0-4.65-8.14,7.82,7.82,0,0,0-7.64-1.89c-2.6.8-4.92,3.12-6.37,6A20.73,20.73,0,0,0,111.19,33h0v.25A2.89,2.89,0,0,1,108.81,36Z"/><path class="cls-1" d="M118,18.24,6.25,45.38,116.42,12.44a3,3,0,1,1,1.72,5.75Z"/></g></svg>