<svg id="Form_Solutions" data-name="Form Solutions" xmlns="http://www.w3.org/2000/svg" viewBox="0 0 144 144"><defs><style>.cls-1{fill:#2130AD;}</style></defs><title>card-holders</title><g id="Card_Holders" data-name="Card Holders"><path class="cls-1" d="M120.43,104l1.09-63.33,2.29,2.16-23,.27a1.08,1.08,0,0,1-.13-2.16l22.83-2.43a2.07,2.07,0,0,1,2.27,1.84q0,.1,0,.2v.13l.59,63.34a3,3,0,0,1-6,.06S120.43,104,120.43,104Z"/><path class="cls-1" d="M98.7,49.15a12,12,0,0,1,4.29-1.6,16.18,16.18,0,0,1,4.17-.18,15.89,15.89,0,0,1,4.08.89,11.89,11.89,0,0,1,4,2.32,11.89,11.89,0,0,1-4.29,1.6,15.89,15.89,0,0,1-4.17.17,16.17,16.17,0,0,1-4.08-.89A12,12,0,0,1,98.7,49.15Z"/><path class="cls-1" d="M98.7,73.4a12,12,0,0,1,4-2.13,16.09,16.09,0,0,1,4.1-.71,15.8,15.8,0,0,1,4.15.36,11.84,11.84,0,0,1,4.21,1.79,11.84,11.84,0,0,1-4,2.14,15.8,15.8,0,0,1-4.1.71,16.09,16.09,0,0,1-4.15-.37A12,12,0,0,1,98.7,73.4Z"/><path class="cls-1" d="M98.7,97.65A12.19,12.19,0,0,1,102.49,95a16.52,16.52,0,0,1,4-1.24,16.22,16.22,0,0,1,4.22-.18,12.07,12.07,0,0,1,4.46,1.23,12.07,12.07,0,0,1-3.79,2.64,16.22,16.22,0,0,1-4,1.23,16.52,16.52,0,0,1-4.22.17A12.19,12.19,0,0,1,98.7,97.65Z"/><path class="cls-1" d="M112,61.28a8.9,8.9,0,0,1,3.5-1.58,10.35,10.35,0,0,1,3.34-.17,10.2,10.2,0,0,1,3.22.9,8.81,8.81,0,0,1,3.06,2.32,8.81,8.81,0,0,1-3.5,1.58,10.2,10.2,0,0,1-3.34.16,10.35,10.35,0,0,1-3.22-.91A8.9,8.9,0,0,1,112,61.28Z"/><path class="cls-1" d="M112,85a8.86,8.86,0,0,1,3.13-2.2,10.28,10.28,0,0,1,3.24-.79,10.13,10.13,0,0,1,3.32.28A8.77,8.77,0,0,1,125.08,84a8.77,8.77,0,0,1-3.13,2.21,10.13,10.13,0,0,1-3.24.78,10.28,10.28,0,0,1-3.32-.29A8.86,8.86,0,0,1,112,85Z"/><path class="cls-1" d="M96.68,111l1.21-77.8,3.3,3L27.9,42.13l1.29-1.43V98.84a1.44,1.44,0,0,1-1.13,1.41L4.42,105.44v-2.81l73.45,14.23-1.52.07,62.76-18.11.26,3.5-15.91-2.76a1.44,1.44,0,0,1,.43-2.85l16,2a1.79,1.79,0,0,1,.33,3.48l-.07,0-62.05,20.4h0a2.81,2.81,0,0,1-1.51.06L3.81,105.44h0a1.44,1.44,0,0,1,0-2.81l23.64-5.19-1.13,1.41V40.7a1.44,1.44,0,0,1,1.26-1.43h0l73-9a2.94,2.94,0,0,1,3.28,2.56,3,3,0,0,1,0,.33v.1l.71,77.81a4,4,0,0,1-7.92.07S96.68,111.07,96.68,111Z"/><path class="cls-1" d="M31.48,99.58c4.64.33,9.26.85,13.86,1.44s9.19,1.28,13.77,2,9.15,1.53,13.7,2.43,9.1,1.83,13.61,3c-4.64-.33-9.26-.85-13.86-1.44s-9.19-1.28-13.77-2-9.15-1.54-13.7-2.43S36,100.73,31.48,99.58Z"/></g></svg>