<svg id="Form_Solutions" data-name="Form Solutions" xmlns="http://www.w3.org/2000/svg" viewBox="0 0 144 144"><defs><style>.cls-1{fill:#2130AD;}.cls-2{fill:none;stroke:#2130AD;stroke-linecap:round;stroke-linejoin:round;stroke-width:2px;}</style></defs><title>display-strips</title><g id="Display_Strips" data-name="Display Strips"><path class="cls-1" d="M57.24,135.57l-3-80.87,3.16,3h0l-19.48,1a3,3,0,0,1-3.15-2.84s0-.11,0-.16V24.91a3,3,0,0,1,2.53-3l19.48-3.1-2.53,3V19c0-.42,0-1.09,0-1.62s.11-1.13.2-1.68a19.11,19.11,0,0,1,2.24-6.3A18.69,18.69,0,0,1,61,4.21,15.76,15.76,0,0,1,67.16,1a13,13,0,0,1,7.26.19,12.41,12.41,0,0,1,6,4.29A14.44,14.44,0,0,1,83.12,12a17,17,0,0,1,.18,1.72c0,.29,0,.57,0,.85v3.56l-3.47-3,25.91-4.12a3,3,0,0,1,3.43,2.49,3.25,3.25,0,0,1,0,.47V52.14a3,3,0,0,1-2.84,3L80.49,56.49h0l2.84-3-3,86.92-3-86.92a2.89,2.89,0,0,1,2.63-3l.21,0h0l25.91-1.36-2.84,3V14l3.47,3L80.8,21.1a3,3,0,0,1-3.43-2.49,3.26,3.26,0,0,1,0-.47V14.62l0-.56A11,11,0,0,0,77.2,13a8.45,8.45,0,0,0-1.57-3.83,6.43,6.43,0,0,0-7-2.3,11.26,11.26,0,0,0-6.7,5.5,13.12,13.12,0,0,0-1.54,4.32c-.06.37-.11.75-.13,1.13s0,.69,0,1.21v2.83a3,3,0,0,1-2.53,3l-19.48,3.1,2.53-3V55.73l-3.16-3,19.48-1h.22a2.89,2.89,0,0,1,2.94,2.85s0,.1,0,.15Z"/><path class="cls-2" d="M71.76,15.45a4.39,4.39,0,0,1-3.39,4.33,2.93,2.93,0,0,1-3.32-3.18,4.42,4.42,0,0,1,3.32-4.32C70.23,11.94,71.76,13.36,71.76,15.45Z"/><path class="cls-2" d="M71.76,60.29a3.68,3.68,0,0,1-3.39,3.84,3.46,3.46,0,0,1-3.32-3.66,3.69,3.69,0,0,1,3.32-3.84A3.45,3.45,0,0,1,71.76,60.29Z"/><path class="cls-1" d="M64.25,88.86c-.29-2.87-.44-5.73-.54-8.6l-.07-2.15c0-.38,0-.65,0-1.19a5.56,5.56,0,0,1,.28-1.43,5,5,0,0,1,1.75-2.42,4.53,4.53,0,0,1,3-.88,4.7,4.7,0,0,1,2.82,1.25A5.32,5.32,0,0,1,73,76a5.85,5.85,0,0,1,.18,1.43l0,1.1-.07,2.15c-.1,2.87-.25,5.73-.54,8.6a.81.81,0,0,1-1.61,0c-.29-2.87-.44-5.73-.54-8.6l-.07-2.15,0-1a3,3,0,0,0-.12-.69,2.07,2.07,0,0,0-1.74-1.56,1.81,1.81,0,0,0-1.79,1.29,4.12,4.12,0,0,0-.2,1.63l-.07,2.15c-.1,2.87-.25,5.73-.54,8.6a.81.81,0,0,1-1.61,0Z"/><path class="cls-1" d="M64.25,123.55c-.29-2.87-.44-5.74-.54-8.61l-.07-2.15c0-.38,0-.65,0-1.19a5.42,5.42,0,0,1,.3-1.45,4.49,4.49,0,0,1,2-2.38,4.36,4.36,0,0,1,3.16-.41,5.59,5.59,0,0,1,3.9,4,6,6,0,0,1,.18,1.42l0,1.11-.07,2.15c-.1,2.87-.25,5.74-.54,8.61a.81.81,0,0,1-1.61,0c-.29-2.87-.44-5.74-.54-8.61l-.07-2.15,0-1a3.15,3.15,0,0,0-.13-.71,2.7,2.7,0,0,0-1.8-1.89,1.41,1.41,0,0,0-1.73.93,3.87,3.87,0,0,0-.2,1.6l-.07,2.15c-.1,2.87-.25,5.74-.54,8.61a.81.81,0,0,1-1.61,0Z"/></g></svg>