<svg xmlns="http://www.w3.org/2000/svg" viewBox="0 0 144 144"><defs><style>.cls-1{fill:#2130AD;}.cls-2{fill:#fff;}.cls-3{fill:none;stroke:#2130AD;stroke-linecap:round;stroke-miterlimit:10;stroke-width:3px;}</style></defs><title>drilling</title><g id="Machine_Solutions" data-name="Machine Solutions"><g id="Drilling"><rect class="cls-1" x="4.33" y="86.05" width="135.33" height="53.29"/><path class="cls-1" d="M72,117.84a7,7,0,0,1-5.49-2.65l-.1-.13L55.16,97.19A9.53,9.53,0,0,1,53.7,92.1V4H90.3V92.1a9.53,9.53,0,0,1-1.47,5.09L77.59,115.06l-.1.13A7,7,0,0,1,72,117.84Z"/><path class="cls-2" d="M87.3,7V92.1a6.55,6.55,0,0,1-1,3.49L75.14,113.33a4,4,0,0,1-6.27,0L57.7,95.59a6.55,6.55,0,0,1-1-3.49V7H87.3m6-6H50.7V92.1a12.53,12.53,0,0,0,1.93,6.69l11.16,17.73.17.27.2.25a10,10,0,0,0,15.68,0l.2-.25.17-.27L91.38,98.79A12.53,12.53,0,0,0,93.3,92.1V1Z"/><polygon class="cls-2" points="88.9 22.2 55.1 13.07 55.1 22.2 88.9 31.33 88.9 22.2"/><line class="cls-3" x1="88.9" y1="31.33" x2="55.1" y2="22.2"/><line class="cls-3" x1="55.1" y1="13.07" x2="88.9" y2="22.2"/><polygon class="cls-2" points="88.9 41.96 55.1 32.83 55.1 41.96 88.9 51.09 88.9 41.96"/><line class="cls-3" x1="88.9" y1="51.09" x2="55.1" y2="41.96"/><line class="cls-3" x1="55.1" y1="32.83" x2="88.9" y2="41.96"/><polygon class="cls-2" points="88.9 61.72 55.1 52.59 55.1 61.72 88.9 70.85 88.9 61.72"/><line class="cls-3" x1="88.9" y1="70.85" x2="55.1" y2="61.72"/><line class="cls-3" x1="55.1" y1="52.59" x2="88.9" y2="61.72"/><polygon class="cls-2" points="88.9 81.48 55.1 72.35 55.1 81.48 88.9 90.61 88.9 81.48"/><line class="cls-3" x1="88.9" y1="90.61" x2="55.1" y2="81.48"/><line class="cls-3" x1="55.1" y1="72.35" x2="88.9" y2="81.48"/></g></g></svg>