<svg xmlns="http://www.w3.org/2000/svg" viewBox="0 0 144 144"><defs><style>.cls-1{fill:#2130AD;}.cls-2{fill:#fff;}</style></defs><title>finishing</title><g id="Machine_Solutions" data-name="Machine Solutions"><g id="Finishing"><path class="cls-1" d="M3.3,118.24l32.82-13.1v28L3.35,121.36A1.67,1.67,0,0,1,3.3,118.24Z"/><path class="cls-1" d="M142.82,30.3v45a3.21,3.21,0,0,1-1.65,2.81l-100,55.54V32.12a5,5,0,0,1,5-5h93.42A3.21,3.21,0,0,1,142.82,30.3Z"/><path class="cls-2" d="M44.72,88.37C51.2,80,59.33,74.32,68.14,69.8q4.4-2.26,9.07-4.1C100,58,122,50,141,34,127,58,98,66,77.06,82q-3.62,2.78-7.1,5.68A144.36,144.36,0,0,0,45,114c0-7,0-15-.19-21.63C44.75,90,44.72,88.37,44.72,88.37Z"/></g></g></svg>