<svg id="Form_Solutions" data-name="Form Solutions" xmlns="http://www.w3.org/2000/svg" viewBox="0 0 144 144"><defs><style>.cls-1{fill:#2130AD;}</style></defs><title>h-channels</title><g id="H_Channels" data-name="H Channels"><path class="cls-1" d="M6.53,54.21,108,31.3a3.37,3.37,0,0,1,4.11,3.27v.12L112,72l-3.34-3.34,27.67.11L133.11,72l.23-55.51L137,19.42,4.87,47.19,135.65,13.57a3,3,0,0,1,3.68,2.83v.09L139.56,72a3.21,3.21,0,0,1-3.2,3.23h0l-27.67.11A3.33,3.33,0,0,1,105.33,72h0v0l-.12-37.3,4.1,3.39Z"/><path class="cls-1" d="M4.87,89.31l104.45,16.6-4.11,3.39.12-37.3v0a3.33,3.33,0,0,1,3.34-3.32h0l27.67.11h0a3.21,3.21,0,0,1,3.2,3.23l-.23,55.51v.08a3,3,0,0,1-3,2.94,3.07,3.07,0,0,1-.72-.09L4.87,96.81,137,124.58l-3.68,2.92L133.11,72l3.23,3.23-27.67.11L112,72l.12,37.3v.1a3.37,3.37,0,0,1-3.36,3.38,3.54,3.54,0,0,1-.75-.08Z"/></g></svg>