<svg id="Form_Solutions" data-name="Form Solutions" xmlns="http://www.w3.org/2000/svg" viewBox="0 0 144 144"><defs><style>.cls-1{fill:#2130AD;}</style></defs><title>j-channels</title><g id="J_Channels" data-name="J Channels"><path class="cls-1" d="M7.38,59.86l129-12.2-2.79,3L133.49,15V12.17c0-.19,0-.4,0-.46a3.13,3.13,0,0,0-.07-.56,1.81,1.81,0,0,0-1-1.33,2.52,2.52,0,0,0-2,.06,4.78,4.78,0,0,0-2,1.69,5.06,5.06,0,0,0-.61,1.23,4.14,4.14,0,0,0-.22,1.19l.23,4.4.47,8.86v.07a2.93,2.93,0,0,1-2.45,3L7.42,49.38,124.74,24.47l-2.45,3.11-.47-9-.23-4.51a10.52,10.52,0,0,1,1.88-5.94,10.75,10.75,0,0,1,4.77-3.86,9.12,9.12,0,0,1,3.25-.65,8,8,0,0,1,3.47.74,7.84,7.84,0,0,1,4.29,5.46,9.11,9.11,0,0,1,.2,1.65c0,.31,0,.47,0,.65v2.79l.13,35.69v.07a2.93,2.93,0,0,1-2.79,2.93Z"/><polygon class="cls-1" points="131.35 9.63 7.38 41.44 129.72 3.86 131.35 9.63"/><path class="cls-1" d="M7.38,84l129.45,6.21a2.93,2.93,0,0,1,2.79,2.93v.08l-.13,35.69v2.79c0,.19,0,.35,0,.65a9.11,9.11,0,0,1-.2,1.65,7.84,7.84,0,0,1-4.29,5.46,8,8,0,0,1-3.47.74,9.12,9.12,0,0,1-3.25-.65,10.75,10.75,0,0,1-4.77-3.86,10.52,10.52,0,0,1-1.88-5.94l.23-4.51.47-9,2.45,3.11L7.42,94.48l118.42,19a2.92,2.92,0,0,1,2.45,3v.09l-.47,8.86-.23,4.4a4.14,4.14,0,0,0,.22,1.19,5.06,5.06,0,0,0,.61,1.23,4.78,4.78,0,0,0,2,1.69,2.52,2.52,0,0,0,2,.06,1.81,1.81,0,0,0,1-1.33,3.13,3.13,0,0,0,.07-.56c0-.06,0-.27,0-.46V128.9l.13-35.7,2.79,3Z"/><polygon class="cls-1" points="129.72 140 7.38 102.42 131.35 134.22 129.72 140"/></g></svg>