<svg xmlns="http://www.w3.org/2000/svg" viewBox="0 0 144 144"><defs><style>.cls-1,.cls-2,.cls-3{fill:#fff;}.cls-1,.cls-2,.cls-3,.cls-4{stroke:#2130AD;}.cls-1,.cls-2,.cls-4{stroke-miterlimit:10;}.cls-1,.cls-3,.cls-4{stroke-width:6px;}.cls-2{stroke-width:5px;}.cls-3{stroke-linejoin:bevel;}.cls-4{fill:none;}</style></defs><title>kit-packaging</title><g id="Machine_Solutions" data-name="Machine Solutions"><g id="Kit_Packaging" data-name="Kit Packaging"><polygon class="cls-1" points="114.87 47.42 114.87 109.77 71.79 132.78 28.67 109.75 28.67 47.4 114.87 47.42"/><polygon class="cls-2" points="71.75 24.38 28.67 47.4 4.79 34.63 47.86 11.62 71.75 24.38"/><polygon class="cls-2" points="139.52 34.25 114.87 47.42 71.75 24.38 96.4 11.22 139.52 34.25"/><polygon class="cls-2" points="71.79 70.43 47.59 83.36 4.48 60.33 28.67 47.4 71.79 70.43"/><polygon class="cls-3" points="114.87 47.42 71.79 70.43 28.67 47.4 71.75 24.38 114.87 47.42"/><polygon class="cls-2" points="138.98 60.3 95.9 83.32 71.79 70.43 114.87 47.42 138.98 60.3"/><line class="cls-4" x1="71.79" y1="70.43" x2="71.79" y2="132.78"/></g></g></svg>