<svg id="Form_Solutions" data-name="Form Solutions" xmlns="http://www.w3.org/2000/svg" viewBox="0 0 144 144"><defs><style>.cls-1{fill:#2130AD;}</style></defs><title>price-tag-channels</title><g id="Price_Tag_Channels" data-name="Price Tag Channels"><path class="cls-1" d="M7.38,33.25,136.1,7.41a2.95,2.95,0,0,1,3.52,2.87v.08l-.07,61,0,30.5,0,15.25v11.47a8.37,8.37,0,0,1-2,5.45,7.74,7.74,0,0,1-5.46,2.6,9.36,9.36,0,0,1-5.35-1.46A11,11,0,0,1,123,131.4a10.44,10.44,0,0,1-1.43-5.11l.09-15.29.19-30.5.37-61,3.46,3L7.38,37.86,124.78,16.57a2.94,2.94,0,0,1,3.46,2.89v.09l-.37,61-.19,30.5-.09,15.21a4.82,4.82,0,0,0,2.23,3.83,3.4,3.4,0,0,0,1.88.55,1.7,1.7,0,0,0,1.24-.57,2.38,2.38,0,0,0,.52-1.56V117.1l0-15.25,0-30.5.07-61,3.52,3Z"/><polygon class="cls-1" points="130.1 136.5 7.38 115.55 130.97 130.56 130.1 136.5"/><path class="cls-1" d="M109.75,33.89c.4,28.86.74,58,.83,87v1.77l-1.73-.26-85.64-13-.55-.08v-.55l-.5-64.15V44l.58-.07C51.49,40.43,80.63,37,109.75,33.89Zm-2,2.26c-28.17,3.24-56.32,6.21-84.86,9.08l.58-.65.5,64.15-.56-.64,85.88,11.29-1.72,1.5C107.44,92.64,107.56,64.53,107.74,36.15Z"/><path class="cls-1" d="M59.46,107.65v-6A20.42,20.42,0,0,1,53,98.78a13.46,13.46,0,0,1-4-4.94A18.86,18.86,0,0,1,47,86.26L52,85.43a17.08,17.08,0,0,0,2.1,7,8.72,8.72,0,0,0,5.39,4.05V77.3a20.54,20.54,0,0,1-6.67-2.78,9.67,9.67,0,0,1-3.67-4.15,13.74,13.74,0,0,1-1.25-6A15,15,0,0,1,51.58,54.1c1.71-2,4.31-3.4,7.88-4.34V46.88l3.29-.55v2.94a12.59,12.59,0,0,1,8.23,2c2.75,2,4.45,5.06,5,9.17L69.48,62a10.06,10.06,0,0,0-2.23-5.51,6.82,6.82,0,0,0-4.49-2.05V72.18a43.83,43.83,0,0,1,5.88,1.71A15.12,15.12,0,0,1,73.36,77a13.37,13.37,0,0,1,2.93,4.62,16.13,16.13,0,0,1,1,5.84c0,4.59-1.45,8.29-4.29,11A12.66,12.66,0,0,1,62.75,102v6.21Zm0-52.85a8.93,8.93,0,0,0-6.65,8.74,7.84,7.84,0,0,0,1.47,4.9,9.82,9.82,0,0,0,5.17,3.06Zm3.29,42.07a7.63,7.63,0,0,0,5.66-2.6,9.56,9.56,0,0,0,2.33-6.67,9.05,9.05,0,0,0-1.66-5.65c-1.09-1.42-3.22-2.69-6.33-3.79Z"/></g></svg>