<svg xmlns="http://www.w3.org/2000/svg" viewBox="0 0 144 144"><defs><style>.cls-1,.cls-2{fill:#fff;stroke:#2130AD;stroke-linejoin:round;}.cls-1{stroke-width:6px;}.cls-2{stroke-width:4px;}</style></defs><title>punching</title><g id="Machine_Solutions" data-name="Machine Solutions"><g id="Punching"><path class="cls-1" d="M113,120.09c0,11.24-18.36,20.35-41,20.35s-41-9.12-41-20.35S49.36,99.76,72,99.76,113,108.88,113,120.09Z"/><path class="cls-2" d="M94.42,119c0,6.14-10,11.13-22.41,11.13s-22.42-5-22.42-11.13,10-11.11,22.42-11.11S94.42,112.87,94.42,119Z"/><path class="cls-1" d="M92.41,30.42c0,5.59-9.14,10.13-20.4,10.13S51.59,36,51.59,30.42,60.73,20.3,72,20.3,92.41,24.84,92.41,30.42Z"/><path class="cls-1" d="M92.41,66.56a3.76,3.76,0,0,1-.06.76c0,.53.06,1.06.06,1.6a20.41,20.41,0,0,1-40.82,0c0-.53,0-1.07.06-1.59a5.15,5.15,0,0,1-.06-.77V30.42C51.59,36,60.73,40.55,72,40.55S92.41,36,92.41,30.42Z"/><ellipse class="cls-2" cx="72" cy="8.74" rx="10.45" ry="5.18"/><path class="cls-2" d="M82.45,8.74V27.24a2.52,2.52,0,0,1-.08.63c-.63,2.57-5,4.55-10.37,4.55s-9.74-2-10.38-4.55a2.52,2.52,0,0,1-.08-.63V8.74c0,2.86,4.68,5.19,10.45,5.19S82.45,11.6,82.45,8.74Z"/></g></g></svg>