<svg xmlns="http://www.w3.org/2000/svg" viewBox="0 0 144 144"><defs><style>.cls-1{fill:#2130AD;}.cls-2,.cls-3,.cls-4,.cls-5{fill:#fff;}.cls-3,.cls-4,.cls-5{stroke:#2130AD;stroke-miterlimit:10;}.cls-3{stroke-width:2px;}.cls-4{stroke-width:4px;}.cls-5{stroke-width:6px;}</style></defs><title>routing</title><g id="Machine_Solutions" data-name="Machine Solutions"><g id="Routing"><path class="cls-1" d="M139.75,80.08v58.59H6.25V80.08H24v24.3a10.5,10.5,0,1,0,21,0V80.08H62.5v24.3a10.5,10.5,0,1,0,21,0V80.08Z"/><path class="cls-2" d="M101,63.77h13a0,0,0,0,1,0,0v33a5.6,5.6,0,0,1-5.6,5.6H106.6a5.6,5.6,0,0,1-5.6-5.6v-33A0,0,0,0,1,101,63.77Z"/><path class="cls-3" d="M106,57.45H109a1.81,1.81,0,0,1,1.81,1.81V95.39A2.75,2.75,0,0,1,108,98.14H107a2.75,2.75,0,0,1-2.75-2.75V59.27A1.81,1.81,0,0,1,106,57.45Z"/><rect class="cls-4" x="89.42" y="29.23" width="36.17" height="31.93" rx="5" ry="5"/><rect class="cls-5" x="79.48" y="5.33" width="56.04" height="31.93" rx="5" ry="5"/></g></g></svg>