<svg xmlns="http://www.w3.org/2000/svg" viewBox="0 0 144 144"><defs><style>.cls-1,.cls-2{fill:#2130AD;}.cls-2{stroke:#fff;stroke-miterlimit:10;stroke-width:6px;}</style></defs><title>slitting</title><g id="Machine_Solutions" data-name="Machine Solutions"><g id="Slitting"><path class="cls-1" d="M120.59,67.27h10.89A51.69,51.69,0,0,0,118.2,52.34L128.56,49A49.47,49.47,0,0,0,111.34,38.9l8.76-6.39a51.71,51.71,0,0,0-9.82-3.23,48.71,48.71,0,0,0-9.64-1.06L107,19.43a48.79,48.79,0,0,0-19.82,1.92L90.57,11a52.22,52.22,0,0,0-18.31,8V8.06A52.24,52.24,0,0,0,57.33,21.36L54,11A49.6,49.6,0,0,0,43.91,28.22l-6.39-8.78a50.26,50.26,0,0,0-3.24,9.84,51.48,51.48,0,0,0-1.06,9.62L24.44,32.5a48.9,48.9,0,0,0,1.9,19.84L16,49a52.25,52.25,0,0,0,8,18.29H13.07A51.7,51.7,0,0,0,26.35,82.21L16,85.56A49.12,49.12,0,0,0,33.21,95.63L24.44,102a50.52,50.52,0,0,0,9.82,3.24,50.16,50.16,0,0,0,9.64,1.06l-6.39,8.78a49.12,49.12,0,0,0,19.82-1.92L54,123.56a51.61,51.61,0,0,0,18.29-8v10.91a52.07,52.07,0,0,0,15-13.29l3.36,10.37a49.7,49.7,0,0,0,10.07-17.23l6.39,8.78a48.19,48.19,0,0,0,4.31-19.48L120.1,102a48.8,48.8,0,0,0-1.9-19.82l10.37,3.36A52.1,52.1,0,0,0,120.59,67.27Zm-48.33,11a11,11,0,1,1,11-11A11,11,0,0,1,72.26,78.23Z"/><path class="cls-2" d="M9.3,135.94H134.7c4.92,0,8.07-4.44,5.77-8.14l-14.29-23a6.76,6.76,0,0,0-5.77-3H22A6.7,6.7,0,0,0,16.12,105L3.39,128C1.36,131.71,4.52,135.94,9.3,135.94Z"/></g></g></svg>