<svg xmlns="http://www.w3.org/2000/svg" viewBox="0 0 144 144"><defs><style>.cls-1{fill:#2130AD;}.cls-2{fill:#fff;}.cls-3,.cls-4{fill:none;stroke-miterlimit:10;}.cls-3{stroke:#2130AD;stroke-width:6px;}.cls-4{stroke:#fff;stroke-linecap:round;}</style></defs><title>solvent-welding</title><g id="Machine_Solutions" data-name="Machine Solutions"><g id="Solvent_Welding" data-name="Solvent Welding"><circle class="cls-1" cx="72.02" cy="29.45" r="19.21"/><path class="cls-2" d="M72,16.28a17.06,17.06,0,0,0-6.46,3.07,14.16,14.16,0,0,0-4.13,5.21,12.85,12.85,0,0,0-1,3.15,14.33,14.33,0,0,0-.28,3.36A17,17,0,0,0,62,38a11,11,0,0,1-4.19-6.59,12.88,12.88,0,0,1,6.49-14,12,12,0,0,1,3.82-1.26A10.61,10.61,0,0,1,72,16.28Z"/><line class="cls-3" x1="72.03" y1="20.54" x2="72.03" y2="89.13"/><line class="cls-3" x1="131.41" y1="123.46" x2="72.03" y2="89.13"/><line class="cls-3" x1="12.59" y1="123.36" x2="72.03" y2="89.13"/><line class="cls-4" x1="70.43" y1="51.22" x2="70.43" y2="84.56"/><line class="cls-4" x1="102.19" y1="104.56" x2="77.13" y2="89.99"/><line class="cls-4" x1="42.31" y1="104.3" x2="66.84" y2="90.34"/><circle class="cls-1" cx="121.12" cy="114.55" r="19.21" transform="translate(-38.67 162.08) rotate(-59.97)"/><path class="cls-2" d="M121.12,101a17.06,17.06,0,0,0-6.46,3.07,14.16,14.16,0,0,0-4.13,5.21,12.85,12.85,0,0,0-1,3.15,14.33,14.33,0,0,0-.28,3.36,17,17,0,0,0,1.85,6.9,11,11,0,0,1-4.19-6.59,12.88,12.88,0,0,1,6.49-14,12,12,0,0,1,3.82-1.26A10.61,10.61,0,0,1,121.12,101Z"/><circle class="cls-1" cx="72.02" cy="86.16" r="19.21"/><path class="cls-2" d="M72,73.19a17.06,17.06,0,0,0-6.46,3.07,14.17,14.17,0,0,0-4.13,5.21,12.85,12.85,0,0,0-1,3.15A14.33,14.33,0,0,0,60.14,88,17,17,0,0,0,62,94.9a11,11,0,0,1-4.19-6.59,12.88,12.88,0,0,1,6.49-14A12,12,0,0,1,68.12,73,10.61,10.61,0,0,1,72,73.19Z"/><circle class="cls-1" cx="22.88" cy="114.47" r="19.21" transform="translate(-54.07 26.69) rotate(-29.94)"/><path class="cls-2" d="M22.88,101a17.06,17.06,0,0,0-6.46,3.07,14.16,14.16,0,0,0-4.13,5.21,12.85,12.85,0,0,0-1,3.15,14.33,14.33,0,0,0-.28,3.36,17,17,0,0,0,1.85,6.9,11,11,0,0,1-4.19-6.59,12.88,12.88,0,0,1,6.49-14A12,12,0,0,1,19,100.84,10.61,10.61,0,0,1,22.88,101Z"/></g></g></svg>