<svg xmlns="http://www.w3.org/2000/svg" viewBox="0 0 144 144"><defs><style>.cls-1{fill:none;stroke:#2130AD;stroke-linecap:round;stroke-miterlimit:10;stroke-width:6px;}</style></defs><title>sonic-welding</title><g id="Machine_Solutions" data-name="Machine Solutions"><g id="Sonic_Welding" data-name="Sonic Welding"><path class="cls-1" d="M135,54.95c-1.23-2.49-2.6-3.54-3.22-1.34-1,10.93-2.1,24.57-3.23,40.62-1.25,8.43-6.42,15.84-8.07,7.36-1.32-18.71-2.68-39.49-4.07-62-1.59-11.34-7.77-16.63-9.65-5.26-1.53,24.45-3.09,50.33-4.67,77.34-1.84,13.28-8.7,16.46-10.71,3.16-1.67-28.16-3.35-57.11-5-86.55-2-14.26-9.2-15.34-11.25-1.07C73.39,57,71.67,87,70,116.85c-2.05,14.28-9.27,13.26-11.27-1C57,86.35,55.3,57.34,53.63,29.1c-2-13.34-8.91-10.23-10.76,3.09-1.59,27.12-3.16,53.13-4.7,77.74-1.89,11.45-8.13,6.25-9.74-5.17C27,82,25.65,61,24.31,42.07c-1.67-8.61-6.91-1.32-8.18,7.24C15,65.64,13.88,79.61,12.84,90.93c-.73,2.67-2.47.91-3.86-2.3"/></g></g></svg>