<svg xmlns="http://www.w3.org/2000/svg" viewBox="0 0 144 144"><defs><style>.cls-1{fill:#2130AD;}.cls-2,.cls-3{fill:none;stroke:#2130AD;stroke-miterlimit:10;stroke-width:6px;}.cls-2{stroke-linecap:round;}</style></defs><title>stamping</title><g id="Machine_Solutions" data-name="Machine Solutions"><g id="Stamping"><rect class="cls-1" x="12.03" y="24.31" width="119.95" height="14.5" rx="1.98" ry="1.98"/><line class="cls-2" x1="25.94" y1="8.33" x2="25.94" y2="26.98"/><line class="cls-2" x1="118.06" y1="8.33" x2="118.06" y2="26.98"/><rect class="cls-1" x="12.03" y="105.19" width="119.95" height="14.5" rx="1.98" ry="1.98"/><line class="cls-3" x1="25.94" y1="135.67" x2="25.94" y2="117.02"/><line class="cls-3" x1="118.06" y1="135.67" x2="118.06" y2="117.02"/><line class="cls-3" x1="72" y1="135.67" x2="72" y2="117.02"/><line class="cls-3" x1="48.97" y1="135.67" x2="48.97" y2="117.02"/><line class="cls-3" x1="95.03" y1="135.67" x2="95.03" y2="117.02"/><line class="cls-2" x1="26.08" y1="49.71" x2="117.92" y2="49.71"/><line class="cls-2" x1="26.08" y1="60.85" x2="117.92" y2="60.85"/><line class="cls-2" x1="26.08" y1="72" x2="117.92" y2="72"/><line class="cls-2" x1="26.08" y1="83.15" x2="117.92" y2="83.15"/><line class="cls-2" x1="26.08" y1="94.29" x2="117.92" y2="94.29"/></g></g></svg>