<?xml version="1.0" encoding="utf-8"?>
<!-- Generator: Adobe Illustrator 21.1.0, SVG Export Plug-In . SVG Version: 6.00 Build 0)  -->
<svg version="1.1" id="Layer_1" xmlns="http://www.w3.org/2000/svg" xmlns:xlink="http://www.w3.org/1999/xlink" x="0px" y="0px"
	 width="108px" height="108px" viewBox="0 0 108 108" style="enable-background:new 0 0 108 108;" xml:space="preserve">
<style type="text/css">
	.st0{fill:#999999;stroke:#000000;stroke-width:0.75;stroke-linecap:round;stroke-linejoin:round;stroke-miterlimit:10;}
	.st1{fill:#CCCCCC;stroke:#000000;stroke-width:0.75;stroke-linecap:round;stroke-linejoin:round;stroke-miterlimit:10;}
	.st2{fill:#FFFFFF;stroke:#000000;stroke-width:0.75;stroke-linecap:round;stroke-linejoin:round;stroke-miterlimit:10;}
	.st3{fill:#808080;stroke:#000000;stroke-width:0.75;stroke-linecap:round;stroke-linejoin:round;stroke-miterlimit:10;}
	.st4{fill:#F2F2F2;stroke:#000000;stroke-width:0.75;stroke-linecap:round;stroke-linejoin:round;stroke-miterlimit:10;}
	.st5{fill:#E6E6E6;stroke:#000000;stroke-width:0.5;stroke-linecap:round;stroke-linejoin:round;stroke-miterlimit:10;}
	.st6{fill:none;stroke:#000000;stroke-width:0.5;stroke-linecap:round;stroke-linejoin:round;stroke-miterlimit:10;}
</style>
<g>
	<path class="st0" d="M6.8,55.2l0,5.8l-3.4-1.1c0-0.2,0-0.4,0.1-0.7l1.6-3.2l-1-0.6L6.8,55.2z"/>
	<path class="st1" d="M12.7,99c0,1.2-1.4,1.5-2.2,1.6c-0.3,0-0.6,0-0.6,0s-2.7,0-2.7-4V82.5c0-9.3,0-19.6,0-19.6l-3.5-1.3l-0.3-0.1
		c0,0.1,0.3,0.5,0.6,1.3c0,0,0,0,0,0c0.8,1.8,2.1,5.4,2.1,9.8c0,6.2-3,10.5-3.3,10.8c0,0,0,0,0,0l-1.2-0.8c0,0,3-3.9,3-10.3
		c0-6.5-3-11.1-3-11.1l-0.1-1.7L4,55.5l1,0.6l-1.6,3.2l-0.3,0.6l0.2,0.1L6.8,61l0-5.8l0.1-19.5l0.5,0.1L8.2,36
		c0,0,0.3,57.9,0.3,60.4c0,2.5,1.3,3,1.3,3s2.1-0.3,1-0.8c-1.1-0.5-1.2-1.4-1.2-3.4c0-1.9-0.1-27.8-0.1-27.8l0.3,0.1l-0.2,0.6
		l1.1-0.3L11.1,97C11.1,97,12.7,97.4,12.7,99z"/>
	<path class="st0" d="M7.3,62.9c0,0,0,10.3,0,19.6L3,83.3c0,0,0,0,0,0c0.2-0.3,3.3-4.6,3.3-10.8c0-4.4-1.3-8-2.1-9.8c0,0,0,0,0,0
		c-0.1-0.4-0.3-0.8-0.4-1.2L7.3,62.9z"/>
	<path class="st2" d="M114.3,10L11.4,33.8h-0.1l-0.8-0.2L10.7,62c1.6,0.5,1.6,1.3,1.6,2.1c0,0.8-0.7,1.1-1.3,1.3v0l103.3-23.6"/>
	<path class="st2" d="M114.3,44.1L10.9,67.9L11.1,97c0,0,1.6,0.4,1.6,2c0,1.2-1.4,1.5-2.2,1.6c0.1,0,0.1,0,0.1,0l103.7-23.8"/>
	<path class="st1" d="M12.2,64.2c0,0.8-0.7,1.1-1.3,1.3c-0.5,0.1-0.9,0.1-0.9,0.1l0.1-1.1c0,0,1.1-0.2,0.2-0.9
		c-0.8-0.7-1.2-1.1-1.2-1.1L8.9,35.6l0-2.4H7.7l-0.3-1.2c0,0,0.5-0.4,1.5-0.4c0.1,0,0.2,0,0.3,0c2.8,0,2.1,1,2.1,1v1.1l-0.8-0.2
		L10.7,62C12.2,62.5,12.2,63.4,12.2,64.2z"/>
	<path class="st3" d="M9.8,99.4c0,0-1.3-0.5-1.3-3C8.5,93.9,8.2,36,8.2,36l-0.9-0.2c0-0.1,0-0.1,0-0.1l1.6-0.1l0.3,26.9
		c0,0,0.3,0.4,1.2,1.1c0.8,0.7-0.2,0.9-0.2,0.9L10,65.5c0,0,0.5,0,0.9-0.1v0l-0.2,0L10,67.5l-0.3-0.1c0,0,0.1,25.9,0.1,27.8
		c0,1.9,0.1,2.9,1.2,3.4C11.9,99.1,9.8,99.4,9.8,99.4z"/>
	<polygon class="st2" points="10.9,67.8 10.9,67.9 9.8,68.1 10,67.5 	"/>
	<path class="st4" d="M114.3,7.3L9.2,31.7v0c2.8,0,2.1,1,2.1,1v1.1h0.1L114.3,10"/>
	<polyline class="st5" points="114.3,41.8 11,65.4 10.7,65.5 10,67.5 10.9,67.8 10.9,67.9 114.3,44.1 	"/>
	<polygon class="st2" points="10.9,67.8 10.9,67.9 9.8,68.1 10,67.5 	"/>
	<polygon class="st2" points="10.9,67.8 10.9,67.9 9.8,68.1 10,67.5 	"/>
	<g>
		<line class="st6" x1="13.7" y1="35.8" x2="114.3" y2="12.5"/>
		<line class="st6" x1="17.9" y1="61.4" x2="114.3" y2="38.9"/>
		<line class="st6" x1="114.3" y1="73.1" x2="15.7" y2="96.1"/>
	</g>
</g>
</svg>
