<?xml version="1.0" encoding="utf-8"?>
<!-- Generator: Adobe Illustrator 21.1.0, SVG Export Plug-In . SVG Version: 6.00 Build 0)  -->
<svg version="1.1" id="Layer_1" xmlns="http://www.w3.org/2000/svg" xmlns:xlink="http://www.w3.org/1999/xlink" x="0px" y="0px"
	 width="108px" height="108px" viewBox="0 0 108 108" style="enable-background:new 0 0 108 108;" xml:space="preserve">
<style type="text/css">
	.st0{fill:none;stroke:#000000;stroke-width:0.75;stroke-linecap:round;stroke-linejoin:round;stroke-miterlimit:10;}
	.st1{fill:#F2F2F2;stroke:#000000;stroke-width:0.75;stroke-linecap:round;stroke-linejoin:round;stroke-miterlimit:10;}
	.st2{fill:#808080;stroke:#000000;stroke-width:0.75;stroke-linecap:round;stroke-linejoin:round;stroke-miterlimit:10;}
	.st3{fill:#CCCCCC;stroke:#000000;stroke-width:0.75;stroke-linecap:round;stroke-linejoin:round;stroke-miterlimit:10;}
	.st4{fill:#FFFFFF;stroke:#000000;stroke-width:0.75;stroke-linecap:round;stroke-linejoin:round;stroke-miterlimit:10;}
	.st5{fill:#FFFFFF;}
	.st6{fill:#E6E6E6;}
	.st7{fill:#E6E6E6;stroke:#000000;stroke-width:0.75;stroke-linecap:round;stroke-linejoin:round;stroke-miterlimit:10;}
	.st8{fill:#999999;stroke:#000000;stroke-width:0.75;stroke-linecap:round;stroke-linejoin:round;stroke-miterlimit:10;}
	.st9{fill:none;stroke:#000000;stroke-width:0.5;stroke-linecap:round;stroke-linejoin:round;stroke-miterlimit:10;}
</style>
<g>
	<line class="st0" x1="15.4" y1="35.9" x2="9.8" y2="34"/>
	<polyline class="st1" points="112.1,9.5 2.5,24.9 3.8,25 5.1,38 13.5,36.8 13.5,36.1 9.8,34.8 9.6,33.3 9.7,33.3 9.7,33.2 
		112.1,18 	"/>
	<path class="st2" d="M16.7,97c-0.3,0-0.8,0-1.2-0.1c-0.3-0.1-0.7-0.2-1.1-0.3h0c-1.1-0.4-2.1-1-2.3-1.8v0c0-0.1,0-0.2,0-0.2V38.6
		l1.4-0.3v53.9c0,2.2,0.9,2.9,2.1,3.7l0.3,0.2c0.1,0,0.1,0.1,0.2,0.1C16.5,96.5,16.7,96.8,16.7,97z"/>
	<polygon class="st3" points="13.5,36.8 13.5,38.3 12.1,38.6 12.1,38.4 10.7,38.4 10.7,40.1 5.1,38 	"/>
	<polyline class="st4" points="112.1,18 9.7,33.2 9.7,33.3 15.6,35.2 15.7,35.1 112.1,20.8 	"/>
	<path class="st5" d="M15,39.4v52.7c0,0.5,0.1,0.9,0.2,1.2c32.3-4.9,64.6-10.6,96.9-15.8V25.3C79.7,28.9,47.4,36,15,39.4z"/>
	<path class="st6" d="M15.7,36.8L15.7,36.8L15,36.6v2.8c32.4-3.4,64.7-10.5,97.1-14.1v-2.8L15.7,36.8z"/>
	<path class="st6" d="M15.2,93.4c0.2,0.5,0.6,0.8,1.3,1.3l0.3,0.2c2,1.4,1.6,2.6,1.3,3.1c0,0.1-0.1,0.2-0.2,0.3l94.3-15.7v-4.9
		C79.8,82.8,47.5,88.4,15.2,93.4z"/>
	<path class="st0" d="M112.1,22.5L15.7,36.8h0L15,36.6v55.6c0,1.5,0.4,1.7,1.4,2.5l0.3,0.2c2,1.4,1.6,2.6,1.3,3.1
		c0,0.1-0.1,0.2-0.2,0.3l94.3-15.7"/>
	<path class="st7" d="M18,97.9c0,0.1-0.1,0.2-0.2,0.3c0,0,0,0,0,0c-0.5,0.4-1.3,0.5-2.5,0.2c-0.4,0-2-0.4-2.1-0.6
		c-1.2-0.6-2.3-1.7-2.4-2.9c0-0.1,0-0.2,0-0.3V41.7l-5.4-2l4.4,42.7l0,0.3v0l-0.8,0.1l-0.7,0.1L2.5,25.2l0-0.3h0.1L3.8,25l1.3,13
		l5.6,2.1v-1.8h1.5v56.1c0,0.1,0,0.2,0,0.2v0c0.2,0.8,1.2,1.4,2.3,1.8h0c0.4,0.1,0.7,0.2,1.1,0.3c0.4,0.1,0.9,0.1,1.2,0.1
		c0-0.2-0.2-0.5-0.7-0.8c0,0-0.1-0.1-0.2-0.1l-0.3-0.2c-1.2-0.8-2.1-1.5-2.1-3.7V36.1l-3.7-1.3l-0.2-1.5l0,0l5.9,1.9l0.1,1.6h0
		L15,36.6v55.6c0,1.5,0.4,1.7,1.4,2.5l0.3,0.2C18.7,96.2,18.3,97.4,18,97.9z"/>
	<polygon class="st8" points="10.7,41.7 10.7,82.5 9.7,82.7 9.7,82.3 5.3,39.7 	"/>
	<polyline class="st1" points="112.1,20.8 15.7,35.1 15.6,35.2 15.7,36.8 112.1,22.5 	"/>
	<line class="st0" x1="15.7" y1="36.8" x2="15.6" y2="36.9"/>
	<g>
		<line class="st9" x1="17.8" y1="39" x2="112.4" y2="25"/>
		<line class="st9" x1="21" y1="94.4" x2="112.1" y2="79.2"/>
	</g>
</g>
</svg>
