<?xml version="1.0" encoding="utf-8"?>
<!-- Generator: Adobe Illustrator 21.1.0, SVG Export Plug-In . SVG Version: 6.00 Build 0)  -->
<svg version="1.1" id="Layer_1" xmlns="http://www.w3.org/2000/svg" xmlns:xlink="http://www.w3.org/1999/xlink" x="0px" y="0px"
	 width="108px" height="108px" viewBox="0 0 108 108" style="enable-background:new 0 0 108 108;" xml:space="preserve">
<style type="text/css">
	.st0{fill:#F2F2F2;stroke:#000000;stroke-width:0.75;stroke-linecap:round;stroke-linejoin:round;stroke-miterlimit:10;}
	.st1{fill:#FFFFFF;stroke:#000000;stroke-width:0.75;stroke-linecap:round;stroke-linejoin:round;stroke-miterlimit:10;}
	.st2{fill:#E6E6E6;}
	.st3{fill:#CCCCCC;}
	.st4{fill:#B3B3B3;}
	.st5{fill:none;stroke:#000000;stroke-width:0.75;stroke-linecap:round;stroke-linejoin:round;stroke-miterlimit:10;}
	.st6{fill:#FFFFFF;}
	.st7{fill:#E6E6E6;stroke:#000000;stroke-width:0.75;stroke-linecap:round;stroke-linejoin:round;stroke-miterlimit:10;}
	.st8{fill:#CCCCCC;stroke:#000000;stroke-width:0.75;stroke-linecap:round;stroke-linejoin:round;stroke-miterlimit:10;}
</style>
<g>
	<polygon class="st0" points="5.4,42.2 5.4,42.2 2.4,40.4 2.4,40.4 129.4,4.1 129.5,5.9 	"/>
	<polygon class="st1" points="5.4,45.3 5.3,42.3 5.4,42.2 	"/>
	<path class="st1" d="M19.9,81.1l-1.2,0.4c0,0,0,0,0,0L19.9,81.1z"/>
	<path class="st2" d="M11.3,55.4c-0.2-0.3-0.3-0.5-0.3-0.5l2.3-1.2c0,0,0,0,0,0.1l117.2-34.2l-0.3-4.8L5.7,51.2l-0.2,0.4
		c0,0,0,0,0,0.1c0,0.1,0.1,0.1,0.1,0.2c0.1,0.1,2.1,3.9,4.6,8.7c0.9-0.7,1.9-1.4,2.8-2C12.3,57.1,11.6,56,11.3,55.4z"/>
	<path class="st3" d="M13.1,58.5c-1,0.7-1.9,1.3-2.8,2c2.4,4.5,5.2,9.8,7.3,13.7c1.4-0.5,2.8-1,4.2-1.4
		C18.4,67.3,15.2,61.9,13.1,58.5z"/>
	<path class="st4" d="M21.7,72.8c-1.4,0.5-2.8,0.9-4.2,1.4c1.4,2.6,2.5,4.6,2.8,5.3c0.2,0.3,0.3,0.6,0.5,0.9c0,0.1,1,1.9,1.6,3
		c0.2,0.4,0.4,0.8,0.6,1.1c0.2,0.3,0.3,0.6,0.5,0.9c1.8,3.4,3.3,6,3.9,7.2c0.1,0.2,0.2,0.3,0.2,0.4c0.2,0.3,0.4,0.5,0.6,0.8
		c0.1,0.1,0.1,0.1,0.2,0.1c2.7,2.4,5.4-1.5,4-3.7C30.9,87.9,26.3,80.3,21.7,72.8z"/>
	<path class="st5" d="M32.4,90.1c1.5,2.2-1.2,6.1-4,3.7c-0.1,0-0.1-0.1-0.2-0.1c-0.2-0.2-0.4-0.5-0.6-0.8c-0.1-0.1-0.1-0.2-0.2-0.4
		c-0.6-1.1-2.1-3.8-3.9-7.2c-0.2-0.3-0.3-0.6-0.5-0.9c-0.2-0.4-0.4-0.8-0.6-1.1c-0.6-1.1-1.6-2.9-1.6-3c-0.1-0.2-0.3-0.5-0.5-0.9
		C19,76.9,5.8,52.1,5.7,51.8c0-0.1-0.1-0.1-0.1-0.2c0-0.1,0-0.1,0-0.1l-0.1-6.2l0.3,5.8l124.4-36.5l0.3,4.8L13.3,53.7
		c0-0.1,0-0.1,0-0.1l-2.3,1.2c0,0,0.1,0.2,0.3,0.5C13.7,59.5,29.4,85.6,32.4,90.1z"/>
	<path class="st1" d="M6.3,53.1c0.2,0.3,0.3,0.6,0.5,1C6.7,53.7,6.5,53.4,6.3,53.1z"/>
	<path class="st1" d="M8.1,56.5c0.4,0.7,0.8,1.5,1.2,2.2C8.9,58,8.5,57.2,8.1,56.5z"/>
	<path class="st1" d="M9.7,59.4c1.2,2.3,2.6,4.9,4,7.4c-0.1-0.1-0.2-0.3-0.2-0.4C12.1,63.9,10.8,61.5,9.7,59.4z"/>
	<path class="st1" d="M13.6,66.8c2.7,5.1,5.4,10.1,6.7,12.6c-0.4-0.7-0.8-1.4-1.2-2.2C19.1,77.1,19,77,19,76.9
		c-1.5-2.8-3.1-5.8-4.6-8.6C14.1,67.8,13.9,67.3,13.6,66.8z"/>
	<path class="st1" d="M20.8,80.3c0,0.1,0.1,0.1,0.1,0.2h0C20.9,80.5,20.8,80.4,20.8,80.3z"/>
	<path class="st1" d="M28.3,93.7c-0.2-0.2-0.4-0.4-0.6-0.8C27.9,93.2,28.1,93.5,28.3,93.7z"/>
	<path class="st6" d="M130.5,19.5L13.3,53.7c0.9,1.6,14.2,25.2,19.9,32.4c1,1.3,1.6,2.5,1.9,3.7c31.7-12.5,65.2-21.7,98.2-31.7
		L130.5,19.5z"/>
	<path class="st2" d="M35,89.9c0.7,3.1-0.8,5.6-2.4,6.8c-0.7,0.5-1.6,0.7-2.5,0.6c0.5,0.4,0.7,0.3,0.7,0.3l102.9-32.8l-0.5-6.7
		C100.2,68.2,66.8,77.3,35,89.9z"/>
	<path class="st5" d="M133.7,64.9L30.8,97.7c0,0-0.2,0-0.7-0.3c0.9,0.1,1.8-0.1,2.5-0.6c2.2-1.7,4.2-5.9,0.5-10.6
		c-5.7-7.2-18.9-30.8-19.9-32.4l117.2-34.2L133.7,64.9z"/>
	<polygon class="st1" points="130.4,14.6 130.1,14.7 5.7,51.2 5.4,45.3 5.4,42.2 129.5,5.9 129.9,5.7 	"/>
	<polygon class="st1" points="5.4,45.3 5.3,42.3 5.4,42.2 	"/>
	<path class="st7" d="M6.2,86v-0.3l-0.3-29c0,0,7.2,13.9,12.8,24.8c0,0,0,0,0,0L6.2,86z"/>
	<path class="st8" d="M32.6,96.7c-0.7,0.5-1.6,0.7-2.5,0.6c-1.9-0.2-3.9-1.7-5-3.5c-0.5-1-6.1-11.7-6.4-12.3c0,0,0,0,0,0
		C13.1,70.7,5.9,56.7,5.9,56.7L6.2,86v0.2L3,85.4L2.4,40.4h0l3,1.7v0.1l-0.1,0l0.2,9.3c0,0,0,0,0,0.1c0,0.1,0.1,0.1,0.1,0.2
		c0.1,0.3,16.1,30.3,16.7,31.5c1.6,2.9,4.2,7.8,5,9.2c0.1,0.2,0.2,0.3,0.2,0.4c0.2,0.3,0.4,0.5,0.6,0.8c0.1,0.1,0.1,0.1,0.2,0.1
		c2.7,2.4,5.4-1.5,4-3.7c-3-4.5-18.7-30.6-21.1-34.7c-0.2-0.3,2-1.8,2-1.8s0,0,0,0.1c0.9,1.6,14.2,25.2,19.9,32.4
		C36.8,90.8,34.9,95,32.6,96.7z"/>
	<polygon class="st1" points="5.4,45.3 5.3,42.3 5.4,42.2 	"/>
	<line class="st5" x1="131.4" y1="19.2" x2="130.5" y2="19.5"/>
</g>
</svg>
