<?xml version="1.0" encoding="utf-8"?>
<!-- Generator: Adobe Illustrator 22.1.0, SVG Export Plug-In . SVG Version: 6.00 Build 0)  -->
<svg version="1.1" id="Layer_1" xmlns="http://www.w3.org/2000/svg" xmlns:xlink="http://www.w3.org/1999/xlink" x="0px" y="0px"
	 width="108px" height="108px" viewBox="0 0 108 108" style="enable-background:new 0 0 108 108;" xml:space="preserve">
<style type="text/css">
	.st0{fill:#F2F2F2;stroke:#000000;stroke-width:0.25;stroke-linecap:round;stroke-linejoin:round;stroke-miterlimit:10;}
	.st1{fill:none;stroke:#000000;stroke-width:0.5;stroke-linecap:round;stroke-linejoin:round;stroke-miterlimit:10;}
	.st2{fill:#F2F2F2;}
	.st3{fill:#FFFFFF;}
	.st4{fill:#B3B3B3;stroke:#000000;stroke-width:0.5;stroke-linecap:round;stroke-linejoin:round;stroke-miterlimit:10;}
	.st5{fill:#999999;stroke:#000000;stroke-width:0.5;stroke-linecap:round;stroke-linejoin:round;stroke-miterlimit:10;}
	.st6{fill:#FFFFFF;stroke:#000000;stroke-width:0.5;stroke-linecap:round;stroke-linejoin:round;stroke-miterlimit:10;}
	.st7{fill:#E6E6E6;stroke:#000000;stroke-width:0.5;stroke-linecap:round;stroke-linejoin:round;stroke-miterlimit:10;}
</style>
<path class="st0" d="M17,52.2c-1.7-3,1.8-4.5,1.8-4.5l-2.8-0.9C15.9,46.8,12.7,50.7,17,52.2z"/>
<path class="st1" d="M13,44.3"/>
<path class="st2" d="M39.8,84c0,0,2,1.9-0.4,3.1c2.4-0.4,72-15.6,72-15.6v-3.3c-24.1,4.2-47.7,9.9-71.6,15.3
	C39.8,83.8,39.8,84,39.8,84z"/>
<path class="st3" d="M39.8,55.1c0,1,0,24.6,0,28.4c23.9-5.4,47.5-11.1,71.6-15.3V41.8L39.8,55.1z"/>
<path class="st1" d="M111.4,41.8v29.8c0,0-69.6,15.3-72,15.6c2.4-1.2,0.4-3.1,0.4-3.1s0-27.8,0-28.9L111.4,41.8z"/>
<path class="st4" d="M111.4,37.3V41L38.9,54.6v2.1H38c0,0-1.7-0.3-2.4-1.2s0.6-4.1,0.6-4.1L111.4,37.3z"/>
<path class="st5" d="M38.9,85.4c-0.4,0.7-0.9,0-0.9,0V56.7h0.9v28C38.9,84.7,39.3,84.8,38.9,85.4z"/>
<polygon class="st6" points="111.4,27.5 111.4,37.3 36.2,51.4 13,44.3 "/>
<path class="st1" d="M39.8,55.1"/>
<path class="st1" d="M38,52.8"/>
<g>
	<path class="st7" d="M39.4,87.1c-2.4,0.4-2.5-0.9-2.5-0.9V57.8c0,0-1.3,0-2.3-1s-0.5-4.4-0.5-4.4L13,45.9v-1.6l23.2,7.1
		c0,0-1.3,3.2-0.6,4.1s2.4,1.2,2.4,1.2v28.8c0,0,0.5,0.7,0.9,0c0.4-0.7,0-0.8,0-0.8V54.6l0.9,0.5c0,1.1,0,28.9,0,28.9
		S41.8,85.9,39.4,87.1z"/>
</g>
<line class="st1" x1="41.8" y1="84.3" x2="109" y2="69.7"/>
<polygon class="st6" points="111.4,41 111.4,41.8 39.8,55.1 38.9,54.6 "/>
</svg>
