<?xml version="1.0" encoding="utf-8"?>
<!-- Generator: Adobe Illustrator 21.1.0, SVG Export Plug-In . SVG Version: 6.00 Build 0)  -->
<svg version="1.1" id="Layer_1" xmlns="http://www.w3.org/2000/svg" xmlns:xlink="http://www.w3.org/1999/xlink" x="0px" y="0px"
	 width="108px" height="108px" viewBox="0 0 108 108" style="enable-background:new 0 0 108 108;" xml:space="preserve">
<style type="text/css">
	.st0{fill:#FFFFFF;}
	.st1{fill:#E6E6E6;}
	.st2{fill:none;stroke:#000000;stroke-width:0.75;stroke-linecap:round;stroke-linejoin:round;stroke-miterlimit:10;}
	.st3{fill:#FFFFFF;stroke:#000000;stroke-width:0.75;stroke-linecap:round;stroke-linejoin:round;stroke-miterlimit:10;}
	.st4{fill:#FFFFFF;stroke:#000000;stroke-width:0.5;stroke-linecap:round;stroke-linejoin:round;stroke-miterlimit:10;}
	.st5{fill:#E6E6E6;stroke:#000000;stroke-width:0.5;stroke-linecap:round;stroke-linejoin:round;stroke-miterlimit:10;}
	.st6{fill:#CCCCCC;stroke:#000000;stroke-width:0.75;stroke-linecap:round;stroke-linejoin:round;stroke-miterlimit:10;}
	.st7{fill:#808080;stroke:#000000;stroke-width:0.75;stroke-linecap:round;stroke-linejoin:round;stroke-miterlimit:10;}
	.st8{fill:none;stroke:#000000;stroke-width:0.5;stroke-linecap:round;stroke-linejoin:round;stroke-miterlimit:10;}
</style>
<g>
	<path class="st0" d="M8.2,35.5L8.2,35.5l0.3,0.1c0,0,0,55.2,0,58c0,0.6,0.1,1.1,0.2,1.5c35.3-6.7,70-16.4,104.6-25.5V10.8L8.2,35.5
		z"/>
	<path class="st1" d="M8.7,95.1c0.3,1.5,1.1,2.1,1.1,3.2c0,1.6-0.8,2.5-2,2.6c0,0,0.1,0,0.1,0l105.4-25.7v-5.6
		C78.6,78.8,44,88.4,8.7,95.1z"/>
	<path class="st2" d="M113.3,10.8L8.2,35.5l0,0l0.3,0c0,0,0,55.2,0,58s1.3,3.4,1.3,4.7c0,1.6-0.8,2.5-2,2.6c0,0,0.1,0,0.1,0
		l105.4-25.7"/>
	<path class="st3" d="M113.3,7L7,32.3c0.6,0,1.2,0.2,1.6,0.4c0.1,0.9-0.1,1.2-0.1,1.2l0.2,0v0L113.3,9.2"/>
	<path class="st3" d="M8.4,34C8.4,34,8.3,34,8.4,34c-1.7-0.8-2.1-0.2-2.1,0.7v-0.3c0-1.1,0.6-2,0.6-2l0.2,0c0.6,0,1.2,0.2,1.6,0.4
		C8.7,33.7,8.5,33.9,8.4,34z"/>
	<path class="st3" d="M9.8,98.3c0,1.6-0.8,2.5-2,2.6c0,0,0,0,0,0c-0.2-0.1-0.7-0.3-1.1-1.7c0.1,0.1,0.3,0.2,0.5,0.2
		c1,0,1.3-1,0.6-2.1c-0.6-1-0.9-1.8-0.9-3.6C7,92,7.1,35.3,7.1,35.3l1.2,0.2l0.3,0c0,0,0,55.2,0,58S9.8,97,9.8,98.3z"/>
	<path class="st4" d="M4.4,47.1c0,0-0.4-4-1.5-5.9C1.7,39.4,1,38.6,1,38.6l3.7-0.9L4.4,47.1z"/>
	<polygon class="st5" points="5.4,50.8 4,50.5 4,36.9 5.8,36.5 	"/>
	<path class="st6" d="M9.8,98.3c0,1.6-0.8,2.5-2,2.6c0,0,0,0,0,0c-0.3,0-0.6,0-1,0c-1.8-0.3-1.9-1.7-1.9-5c0-2.1,0.1-27.5,0.1-45.2
		c0-5.9,0-11,0-14c0-1.8,0-2.8,0-3c0-1,0.9-1.3,1.8-1.3c0.6,0,1.2,0.2,1.6,0.4c0.1,0.9-0.1,1.2-0.1,1.2c0,0,0,0,0,0
		c-1.6-0.8-2.1-0.2-2.1,0.7v61.3c0,1.1,0,2.7,0.5,3.3c0.1,0.1,0.3,0.2,0.5,0.2c1,0,1.3-1,0.6-2.1c-0.6-1-0.9-1.8-0.9-3.6
		C7,92,7.1,35.3,7.1,35.3l1.2,0.2l0.3,0c0,0,0,55.2,0,58S9.8,97,9.8,98.3z"/>
	<path class="st7" d="M113.3,9.2L8.6,34v0l-0.2,0c0,0,0,0,0,0c-1.6-0.8-2.1-0.2-2.1,0.7v61.3c0,1.1,0,2.7,0.5,3.3
		c0.1,0.1,0.3,0.2,0.5,0.2c1,0,1.3-1,0.6-2.1c-0.6-1-0.9-1.8-0.9-3.6C7,92,7.1,35.3,7.1,35.3l1.2,0.2l0,0l105.1-24.7"/>
	<path class="st8" d="M113.3,69.9"/>
	<line class="st8" x1="12" y1="94.6" x2="113.3" y2="69.9"/>
</g>
</svg>
