<?xml version="1.0" encoding="utf-8"?>
<!-- Generator: Adobe Illustrator 21.1.0, SVG Export Plug-In . SVG Version: 6.00 Build 0)  -->
<svg version="1.1" id="Layer_1" xmlns="http://www.w3.org/2000/svg" xmlns:xlink="http://www.w3.org/1999/xlink" x="0px" y="0px"
	 width="108px" height="108px" viewBox="0 0 108 108" style="enable-background:new 0 0 108 108;" xml:space="preserve">
<style type="text/css">
	.st0{fill:#FFFFFF;}
	.st1{fill:#E6E6E6;}
	.st2{fill:none;stroke:#000000;stroke-width:0.75;stroke-linecap:round;stroke-linejoin:round;stroke-miterlimit:10;}
	.st3{fill:#FFFFFF;stroke:#000000;stroke-width:0.75;stroke-linecap:round;stroke-linejoin:round;stroke-miterlimit:10;}
	.st4{fill:#808080;stroke:#000000;stroke-width:0.75;stroke-linecap:round;stroke-linejoin:round;stroke-miterlimit:10;}
	.st5{fill:#FFFFFF;stroke:#000000;stroke-width:0.5;stroke-linecap:round;stroke-linejoin:round;stroke-miterlimit:10;}
	.st6{fill:#E6E6E6;stroke:#000000;stroke-width:0.5;stroke-linecap:round;stroke-linejoin:round;stroke-miterlimit:10;}
	.st7{fill:#CCCCCC;stroke:#000000;stroke-width:0.75;stroke-linecap:round;stroke-linejoin:round;stroke-miterlimit:10;}
	.st8{fill:none;stroke:#000000;stroke-width:0.5;stroke-linecap:round;stroke-linejoin:round;stroke-miterlimit:10;}
</style>
<g>
	<path class="st0" d="M13.2,38.1l0.4,0.1c0,0,0,47.5,0,50.6c0,1.1,0.1,2.1,0.4,3c6.8-1.1,13.1-2.9,19.4-5.2
		c27.5-9.2,55.9-13.3,82.8-22.4v-52L13.2,38.1z"/>
	<path class="st1" d="M33.3,86.6C27.1,89,20.8,90.7,14,91.8c0.4,1.6,1.1,2.9,1.7,3.9c0.8,1.3,0.7,4.2-1.4,4.5l0,0.1l101.7-27.7v-8.4
		C89.2,73.3,60.9,77.4,33.3,86.6z"/>
	<path class="st2" d="M116.1,12.2L13.2,38.1l0.4,0.1c0,0,0,47.5,0,50.6c0,3.1,1.1,5.3,2.1,6.9c0.8,1.3,0.7,4.2-1.4,4.5l0,0.1
		l101.7-27.7"/>
	<path class="st3" d="M116.1,7.7L11.2,32.9c0,0,0,0.1-0.1,0.2c0.9,0,2,0.3,3.3,1c-0.2,1.3-0.3,1.6-0.4,1.7l0.1,0l0,0l102.1-25.4"/>
	<path class="st4" d="M12.1,37.7c0,0,0,48,0,51.3c0,3.3,0.9,5.6,1.8,6.8c0.9,1.2,0.7,2.7-1.1,2.2v1.6l-0.7,0.2l-0.2-0.2l0.2-1.4
		l-1.3-0.7c0,0,0-58.5,0-61.4s3.1-0.4,3.1-0.4s0,0,0.1,0l0.1,0l0,0l102.1-25.4v1.8L13.2,38.1L12.1,37.7z"/>
	<path class="st3" d="M10.7,97.6l1.3,0.7l-0.2,1.4l-1.6-1.6c0,0-0.2-57.1-0.2-59.9c0-2.3,0.8-4.4,1-5c0.9,0,2,0.3,3.3,1
		c-0.2,1.3-0.3,1.6-0.4,1.7c0,0-0.1,0-0.1,0s-3.1-2.5-3.1,0.4S10.7,97.6,10.7,97.6z"/>
	<path class="st3" d="M14.3,100.2L14,99.5l-1.2,0.3v-1.6c1.8,0.5,2-1,1.1-2.2s-1.8-3.5-1.8-6.8c0-3.4,0-51.3,0-51.3l1,0.3l0.4,0.1
		c0,0,0,47.5,0,50.6c0,3.1,1.1,5.3,2.1,6.9C16.5,97,16.4,99.9,14.3,100.2z"/>
	<path class="st5" d="M7.4,57.6c0,0-0.5-6.2-2.2-9.1c-1.7-2.9-2.7-4.2-2.7-4.2l5.2-1.4L7.4,57.6z"/>
	<polygon class="st6" points="8.9,63.2 6.9,62.8 6.9,41.7 9.4,41.2 	"/>
	<path class="st3" d="M1.1,94.3l8.9-2.2c0,1-0.2,3.6-0.3,4.3c-0.7,2.9-2.6,1.5-4.9,0.4C2,95.4,1.1,94.3,1.1,94.3z"/>
	<path class="st7" d="M14.3,100.2c-0.4,0.1-0.9,0-1.5-0.1c0,0-4.3-0.6-7.2-2C3.3,97,1,94.4,1,94.4s5.5,2.4,7.9,2.3V35.4
		c0-1.4,0.8-2.2,2.1-2.3c0.9,0,2,0.3,3.3,1c-0.2,1.3-0.3,1.6-0.4,1.7c0,0-0.1,0-0.1,0s-3.1-2.5-3.1,0.4s0,61.4,0,61.4l2.1,0.6
		c1.8,0.5,2-1,1.1-2.2c-0.9-1.2-1.8-3.5-1.8-6.8c0-3.4,0-51.3,0-51.3l1,0.3l0.4,0.1c0,0,0,47.5,0,50.6c0,3.1,1.1,5.3,2.1,6.9
		C16.5,97,16.4,99.9,14.3,100.2z"/>
	<line class="st8" x1="15.8" y1="91" x2="116" y2="64"/>
</g>
</svg>
