<?xml version="1.0" encoding="utf-8"?>
<!-- Generator: Adobe Illustrator 21.1.0, SVG Export Plug-In . SVG Version: 6.00 Build 0)  -->
<svg version="1.1" id="Layer_1" xmlns="http://www.w3.org/2000/svg" xmlns:xlink="http://www.w3.org/1999/xlink" x="0px" y="0px"
	 width="108px" height="108px" viewBox="0 0 108 108" style="enable-background:new 0 0 108 108;" xml:space="preserve">
<style type="text/css">
	.st0{fill:#808080;stroke:#000000;stroke-width:0.75;stroke-linecap:round;stroke-linejoin:round;stroke-miterlimit:10;}
	.st1{fill:#F2F2F2;stroke:#000000;stroke-width:0.75;stroke-linecap:round;stroke-linejoin:round;stroke-miterlimit:10;}
	.st2{fill:#FFFFFF;stroke:#000000;stroke-width:0.75;stroke-linecap:round;stroke-linejoin:round;stroke-miterlimit:10;}
	.st3{fill:#CCCCCC;stroke:#000000;stroke-width:0.75;stroke-linecap:round;stroke-linejoin:round;stroke-miterlimit:10;}
	.st4{fill:#FFFFFF;stroke:#000000;stroke-width:0.5;stroke-linecap:round;stroke-linejoin:round;stroke-miterlimit:10;}
	.st5{fill:#E6E6E6;stroke:#000000;stroke-width:0.5;stroke-linecap:round;stroke-linejoin:round;stroke-miterlimit:10;}
	.st6{fill:none;stroke:#000000;stroke-width:0.5;stroke-linecap:round;stroke-linejoin:round;stroke-miterlimit:10;}
	.st7{fill:#E6E6E6;stroke:#000000;stroke-width:0.75;stroke-linecap:round;stroke-linejoin:round;stroke-miterlimit:10;}
</style>
<g>
	<path class="st0" d="M10.5,99.6c-0.6-0.2-0.8-0.2-0.9-0.3l0,0c-0.2-0.1-2.2-0.6-2.2-2.2c0-15.5,0-15.5,0-58.7l-0.9-0.7
		c0-0.3,0-0.5,0-0.5l1.2,0V93c0,2.1,1.1,3.9,2.5,4.5C11.5,98.2,11.9,100,10.5,99.6z"/>
	<path class="st1" d="M111.7,9.3L11.1,34.7l-0.2,0l0-0.1c0,0-1.8-1-3.4-1.5c-1.2-0.4-2.4-0.4-3-0.4L111.7,7"/>
	<path class="st2" d="M111.2,72.5L11.2,101c0,0-0.1,0-0.4-0.1c1,0,2.1-0.2,2.1-1.3c0-1.1-0.5-2-1.5-2.9c-0.9-0.8-2.2-1.5-2.2-3.2
		c0-3.6-0.1-58-0.1-58l1.5,0.6l0.3-1.5l0.2,0L11,36.3l100.8-25.1"/>
	<path class="st3" d="M13,99.6c0,1.1-1.1,1.3-2.1,1.3h0c-0.7,0-1.3-0.2-1.3-0.2s-3.7-0.5-3.7-3.9V46.2c0-5.3,0-8.9,0-8.9l0.6,0.5
		l0.9,0.7c0,43.3,0,43.3,0,58.7c0,1.6,1.9,2.2,2.2,2.2l0,0c0.1,0,0.4,0.1,0.9,0.3c1.4,0.4,1-1.5-0.4-2.1c-1.4-0.6-2.5-2.4-2.5-4.5
		V37.3c0-1.5,0-2.4,0-2.4l-3.3-1.1l-0.3-1.1c0,0,0.1,0,0.4,0c0.6,0,1.9,0,3,0.4c1.6,0.5,3.4,1.5,3.4,1.5l0,0.1l-0.3,1.5l-1.5-0.6
		c0,0,0.1,54.4,0.1,58c0,1.7,1.3,2.4,2.2,3.2C12.4,97.7,13,98.6,13,99.6z"/>
	<path class="st4" d="M4.5,47.7v8.9c-0.3-1.5-0.7-3.2-1.3-4.3C1.8,49.9,1,48.7,1,48.7L4.5,47.7z"/>
	<polygon class="st5" points="5.9,46.2 5.9,65 4.5,64.7 4.5,46.5 	"/>
	<g>
		<line class="st6" x1="111.6" y1="69.3" x2="15.9" y2="96.7"/>
		<line class="st6" x1="111.9" y1="13.9" x2="11.5" y2="38.7"/>
	</g>
	<polyline class="st7" points="111.7,11.2 11,36.3 11.1,34.7 111.7,9.3 	"/>
</g>
</svg>
