<?xml version="1.0" encoding="utf-8"?>
<!-- Generator: Adobe Illustrator 21.1.0, SVG Export Plug-In . SVG Version: 6.00 Build 0)  -->
<svg version="1.1" id="Layer_1" xmlns="http://www.w3.org/2000/svg" xmlns:xlink="http://www.w3.org/1999/xlink" x="0px" y="0px"
	 width="108px" height="108px" viewBox="0 0 108 108" style="enable-background:new 0 0 108 108;" xml:space="preserve">
<style type="text/css">
	.st0{fill:#E6E6E6;}
	.st1{fill:#FFFFFF;}
	.st2{fill:none;stroke:#000000;stroke-width:0.75;stroke-linecap:round;stroke-linejoin:round;stroke-miterlimit:10;}
	.st3{fill:#F2F2F2;stroke:#000000;stroke-width:0.75;stroke-linecap:round;stroke-linejoin:round;stroke-miterlimit:10;}
	.st4{fill:#E6E6E6;stroke:#000000;stroke-width:0.5;stroke-linecap:round;stroke-linejoin:round;stroke-miterlimit:10;}
	.st5{fill:#FFFFFF;stroke:#000000;stroke-width:0.5;stroke-linecap:round;stroke-linejoin:round;stroke-miterlimit:10;}
	.st6{fill:#FFFFFF;stroke:#000000;stroke-width:0.75;stroke-linecap:round;stroke-linejoin:round;stroke-miterlimit:10;}
	.st7{fill:#CCCCCC;stroke:#000000;stroke-width:0.75;stroke-linecap:round;stroke-linejoin:round;stroke-miterlimit:10;}
	.st8{fill:#808080;stroke:#000000;stroke-width:0.75;stroke-linecap:round;stroke-linejoin:round;stroke-miterlimit:10;}
</style>
<g>
	<path class="st0" d="M11.3,90.2c0.5,2.4,2,4.9,2,7.3c0,1.9-0.7,2.8-1.8,3.2c6.8-1.5,73.5-19.3,99.9-26.4v-9.8
		C78.3,72.8,44.4,81.9,11.3,90.2z"/>
	<path class="st1" d="M111.3,13.4L9.8,38.3l-0.1,0.2l1.3,0.3c0,0,0,47.1,0,49.9c0,0.5,0.1,0.9,0.2,1.4c33.1-8.4,67-17.5,100-25.7
		V13.4z"/>
	<path class="st2" d="M111.3,13.4L9.8,38.3l-0.1,0.2l1.3,0.3c0,0,0,47.1,0,49.9c0,2.9,2.2,5.8,2.2,8.7c0,1.9-0.7,2.8-1.8,3.2
		c6.8-1.5,73.5-19.3,99.9-26.4"/>
	<path class="st3" d="M111.3,8L8.7,33.4c0.4,0,0.9,0.1,1.3,0.2c1.5,0.3,2.5,1.6,2.5,1.6L11.5,36l0.1,0.1l99.8-25"/>
	<polygon class="st4" points="6.3,41.8 6.3,55.5 6.2,64.4 4.5,64 4.5,42.3 	"/>
	<path class="st5" d="M4.5,43.7v10.6c-0.3-1.8-0.7-3.8-1.3-5.1C1.8,46.3,1,45,1,45L4.5,43.7z"/>
	<polygon class="st6" points="6.6,41.7 6.3,55.5 6.3,41.8 	"/>
	<path class="st7" d="M13.3,97.5c0,1.9-0.7,2.8-1.8,3.2c-0.5,0.2-1.2,0.3-1.9,0.3c-2,0-3.3-2.4-3.3-6.1V41.8v-6.4c0-1.6,1.2-2,2.4-2
		c0.4,0,0.9,0.1,1.3,0.2c1.5,0.3,2.5,1.6,2.5,1.6L11.5,36l-0.3,0.3c0,0-2.6-2.3-2.6,0.5v59.2c0,1.4,0.6,2.6,1.8,2.6
		c0.6,0,1.2-1.3,0.7-2.6c-1-2.8-1.6-4.2-1.6-7.3c0-3.2,0-50.1,0-50.1l0.4,0.1l1.3,0.3c0,0,0,47.1,0,49.9
		C11.1,91.7,13.3,94.6,13.3,97.5z"/>
	<line class="st5" x1="14.1" y1="89.8" x2="111.3" y2="64.1"/>
	<path class="st8" d="M111.3,11.1l-99.8,25L11.5,36l-0.3,0.3c0,0-2.6-2.3-2.6,0.5v59.2c0,1.4,0.6,2.6,1.8,2.6c0.6,0,1.2-1.3,0.7-2.6
		c-1-2.8-1.6-4.2-1.6-7.3c0-3.2,0-50.1,0-50.1l0.4,0.1l0.1-0.2l101.5-24.9"/>
</g>
</svg>
