<?xml version="1.0" encoding="utf-8"?>
<!-- Generator: Adobe Illustrator 21.1.0, SVG Export Plug-In . SVG Version: 6.00 Build 0)  -->
<svg version="1.1" id="Layer_1" xmlns="http://www.w3.org/2000/svg" xmlns:xlink="http://www.w3.org/1999/xlink" x="0px" y="0px"
	 width="108px" height="108px" viewBox="0 0 108 108" style="enable-background:new 0 0 108 108;" xml:space="preserve">
<style type="text/css">
	.st0{fill:#E6E6E6;}
	.st1{fill:#FFFFFF;}
	.st2{fill:none;stroke:#000000;stroke-width:0.75;stroke-linecap:round;stroke-linejoin:round;stroke-miterlimit:10;}
	.st3{fill:#CCCCCC;stroke:#000000;stroke-width:0.75;stroke-linecap:round;stroke-linejoin:round;stroke-miterlimit:10;}
	.st4{fill:#808080;stroke:#000000;stroke-width:0.75;stroke-linecap:round;stroke-linejoin:round;stroke-miterlimit:10;}
	.st5{fill:#FFFFFF;stroke:#000000;stroke-width:0.75;stroke-linecap:round;stroke-linejoin:round;stroke-miterlimit:10;}
	.st6{fill:#999999;stroke:#000000;stroke-width:0.5;stroke-linecap:round;stroke-linejoin:round;stroke-miterlimit:10;}
	.st7{fill:#808080;stroke:#000000;stroke-width:0.5;stroke-linecap:round;stroke-linejoin:round;stroke-miterlimit:10;}
	.st8{fill:none;stroke:#000000;stroke-width:0.5;stroke-linecap:round;stroke-linejoin:round;stroke-miterlimit:10;}
	.st9{fill:#F2F2F2;stroke:#000000;stroke-width:0.75;stroke-linecap:round;stroke-linejoin:round;stroke-miterlimit:10;}
</style>
<g>
	<path class="st0" d="M23.3,94.4c0,0.1,0,0.1,0.1,0.2c0.8,1.8,0.3,3.8-1.1,4.3c0.1,0,0.2,0,0.2,0l89.4-24.4v-4.8
		C78.7,79.5,56.4,84.3,23.3,94.4z"/>
	<path class="st1" d="M111.8,26.2L22.6,50.5l0.1,0c0,0,0,33.5,0,36.7c0,3.1-0.1,5.2,0.7,7.3c33.1-10.1,55.4-14.9,88.5-24.7V26.2z"/>
	<path class="st2" d="M111.8,26.2L22.6,50.5l0.1,0c0,0,0,33.5,0,36.7c0,3.2-0.2,5.4,0.8,7.5c0.8,1.8,0.3,3.8-1.1,4.3
		c0.1,0,0.2,0,0.2,0l89.4-24.4"/>
	<polyline class="st3" points="111.8,24.9 20.5,49.9 22.6,50.5 111.8,26.2 	"/>
	<path class="st4" d="M111.8,22.5L22.5,46.9v0l-2.1,1.3c0,0.1-0.2,0.5-0.2,0.6c0,0,0.1,45,0.1,46.7c0,1.7,1.5,1.5,1.5,1
		c0-0.6-1.3-1.5-1.3-3.2c0-1.7,0-43.4,0-43.4l91.3-25"/>
	<path class="st5" d="M111.8,11.7L9.9,38.2c0.6,0,1.3,0.1,1.9,0.3c3.9,0.9,6.5,3.9,7.7,7.5l2.7-0.8l0.3,0.6l0.1-0.8l89.2-24.3"/>
	<path class="st6" d="M18,60.8c0,4.7,0,9,0,9s-2.1,4.4-5.9,3.5c-3.8-0.9-6.3-5.6-7-6.4c-0.8-1-1.8-1.5-2.7-1.6c0,0-0.1-0.1-0.1-0.1
		L18,60.8z"/>
	<path class="st7" d="M17,45L6.1,47.8c-0.2-0.3-0.3-0.7-0.4-1C5.8,46,6,44.9,6,43.8c0-1.9,1.9-4.2,5.7-3.2
		C13.9,41.2,15.9,43.1,17,45z"/>
	<line class="st8" x1="26.2" y1="93.5" x2="111.8" y2="70.3"/>
	<path class="st3" d="M22.3,98.9L22.3,98.9C22,99,21.8,99,21.5,99c-2.1-0.1-3.3-1.1-3.3-3.8s0-21.5,0-21.5s-2.6,2.9-6.3,2.2
		c-3.6-0.7-6.5-3.8-7.8-6.2c-1.2-2.4-3.1-2.5-3.1-2.5L1,65c0,0,0.7-0.1,1.5,0.1c0.9,0.2,1.9,0.6,2.7,1.6c0.7,0.9,3.2,5.5,7,6.4
		c3.8,0.9,5.9-3.5,5.9-3.5s0-4.2,0-9V48.3c0-0.9-0.4-2.1-1.1-3.3c-1.1-1.9-3-3.8-5.4-4.4c-3.7-1-5.7,1.2-5.7,3.2
		c0,1.1-0.1,2.3-0.2,3.1c-0.1,0.7-0.2,1.1-0.2,1.1l-2-0.6c0,0-0.2-1.5-0.2-2.3c0-4.3,2.7-7,6.6-6.8c0.6,0,1.3,0.1,1.9,0.3
		c3.9,0.9,6.5,3.9,7.7,7.5l2.7-0.8l0.3,0.6v0l0.4,0.7l-0.5,0.3l-2.1,1.3c0,0.1-0.2,0.5-0.2,0.6c0,0,0.1,45,0.1,46.7
		c0,1.7,1.5,1.5,1.5,1c0-0.6-1.3-1.5-1.3-3.2c0-1.7,0-43.4,0-43.4l2,0.6l0.1,0c0,0,0,33.5,0,36.7c0,3.2-0.2,5.4,0.8,7.5
		C24.2,96.4,23.8,98.4,22.3,98.9z"/>
	<polyline class="st9" points="111.8,20.6 22.6,44.9 22.6,45.8 22.6,45.8 23,46.5 22.5,46.8 22.5,46.9 111.8,22.5 	"/>
</g>
</svg>
