<?xml version="1.0" encoding="utf-8"?>
<!-- Generator: Adobe Illustrator 21.1.0, SVG Export Plug-In . SVG Version: 6.00 Build 0)  -->
<svg version="1.1" id="Layer_1" xmlns="http://www.w3.org/2000/svg" xmlns:xlink="http://www.w3.org/1999/xlink" x="0px" y="0px"
	 width="108px" height="108px" viewBox="0 0 108 108" style="enable-background:new 0 0 108 108;" xml:space="preserve">
<style type="text/css">
	.st0{fill:#FFFFFF;stroke:#000000;stroke-width:0.75;stroke-linecap:round;stroke-linejoin:round;stroke-miterlimit:10;}
	.st1{fill:#808080;stroke:#000000;stroke-width:0.75;stroke-linecap:round;stroke-linejoin:round;stroke-miterlimit:10;}
	.st2{fill:#999999;stroke:#000000;stroke-width:0.75;stroke-linecap:round;stroke-linejoin:round;stroke-miterlimit:10;}
	.st3{fill:none;stroke:#000000;stroke-width:0.5;stroke-linecap:round;stroke-linejoin:round;stroke-miterlimit:10;}
	.st4{fill:#F2F2F2;stroke:#000000;stroke-width:0.75;stroke-linecap:round;stroke-linejoin:round;stroke-miterlimit:10;}
	.st5{fill:#B3B3B3;stroke:#000000;stroke-width:0.75;stroke-linecap:round;stroke-linejoin:round;stroke-miterlimit:10;}
	.st6{fill:#CCCCCC;stroke:#000000;stroke-width:0.75;stroke-linecap:round;stroke-linejoin:round;stroke-miterlimit:10;}
</style>
<g>
	<path class="st0" d="M110.1,51.8L22.4,12.9l0.3,18l0.5,30.6c0,1.4-1.6,3-2.8,3c-0.3,0-0.7-0.1-1-0.3c0.1,0.1,0.1,0.1,0.2,0.2
		c2.5,1.4,76.3,33.2,90.5,39.2"/>
	<path class="st0" d="M110.1,47.2L16.3,4.9v0c0.5,0.3,0.9,0.7,1.2,1.1c1,1.6,2.3,4.3,2.5,5c0,0.1,0,0.5,0,1.3h0.2c0-0.5,0-0.8,0-0.8
		l1.9-0.5l0-0.3l0.4,0.2l87.7,38.9"/>
	<path class="st0" d="M16.3,4.9L16.3,4.9C16.3,4.9,16.3,4.9,16.3,4.9L16.3,4.9z"/>
	<path class="st1" d="M21.1,61.5c0,1.1-1.4,1.6-1.5-0.2c-0.1-0.8,0-12.1,0.1-23.7c0.1-10.6,0.2-21.5,0.2-25.3h0.2
		C20.2,18.6,21.1,60.4,21.1,61.5z"/>
	<path class="st0" d="M22.4,12.9l-0.3-0.1L22,11.1l0-0.3l0.4,0.2C22.4,11,22.4,11.7,22.4,12.9z"/>
	<path class="st1" d="M17.9,11.6c0,0.3,0,4.8-0.1,11.1L12,20l-0.3,0.9l-0.3-1.5L17.9,11.6z"/>
	<path class="st1" d="M17.8,26.4L17.8,26.4c0,1.4,0,2.9,0,4.4l-9.5-4l-0.4-0.1l-1.1-0.3c0,0,0,0,0,0c0.1-0.4,1.3-3.8,2.7-7.6
		l0.2,0.1c-0.1,0.4-0.1,0.8,0,1.3c0.3,0.9,0.9,3.1,0.9,3.1l0.5-0.3l-0.2,0.5L17.8,26.4z"/>
	<path class="st1" d="M17,9.6c0,0-6.3,7.8-6.8,8.4c-0.2,0.3-0.4,0.6-0.5,0.9l-0.2-0.1c1.8-5,3.8-10.7,3.9-11.1
		c0.3-0.9,1.3-1.9,2.3-0.3C16.8,9,17,9.6,17,9.6z"/>
	<path class="st2" d="M17.7,33.6c0,1.6,0,3.1,0,4.7l-16-7.7l0,0L7.3,29L17.7,33.6z"/>
	<path class="st0" d="M17.8,30.8c0,0.9,0,1.9,0,2.8L7.3,29l0-0.1l1-2.1L17.8,30.8z"/>
	<line class="st3" x1="25.4" y1="30.9" x2="110.1" y2="68"/>
	<path class="st4" d="M110.1,49.9L22.4,11c0,0,0,0.7,0,1.9l87.7,38.9"/>
	<path class="st0" d="M22.4,12.9l-0.3-0.1L22,11.1l0-0.3l0.4,0.2C22.4,11,22.4,11.7,22.4,12.9z"/>
	<path class="st5" d="M17.8,30.8c0,0.9,0,1.9,0,2.8L7.3,29l0-0.1l1-2.1L17.8,30.8z"/>
	<path class="st5" d="M17.8,22.7c0,1.2,0,2.4,0,3.7l-6.9-3l0.2-0.5h0l0.9-0.7l-0.3-1.3L12,20L17.8,22.7z"/>
	<path class="st6" d="M23.2,61.5c0,1.4-1.6,3-2.8,3c-0.3,0-0.7-0.1-1-0.3c-1-0.5-1.8-1.6-1.8-2.5c-0.1-1.1,0-12.1,0.1-23.5
		c0-1.6,0-3.2,0-4.7c0-0.9,0-1.9,0-2.8c0-1.5,0-2.9,0-4.3v0c0-1.3,0-2.5,0-3.7c0-6.3,0.1-10.9,0.1-11.1l-6.5,7.9l0.3,1.5l0.3,1.3
		l-0.9,0.7h0l-0.5,0.3c0,0-0.6-2.2-0.9-3.1c-0.2-0.5-0.2-1,0-1.3c0.1-0.3,0.3-0.6,0.5-0.9c0.5-0.6,6.8-8.4,6.8-8.4S16.8,9,15.8,7.3
		c-1-1.7-2-0.6-2.3,0.3c-0.2,0.5-2.2,6.2-3.9,11.1c-1.3,3.8-2.5,7.1-2.7,7.6c0,0,0,0,0,0l1.1,0.3l0.4,0.1l-1,2.1l0,0.1l-5.6,1.7l0,0
		l-0.1,0L1,28.8l3.1-1c0,0,7-18.9,8.1-21.7c0.8-2,2.7-2,4-1.1l0,0c0,0,0,0,0,0c0.5,0.3,0.9,0.7,1.2,1.1c1,1.6,2.3,4.3,2.5,5
		c0,0.1,0,0.5,0,1.3c0,3.7-0.1,14.7-0.2,25.3c-0.1,11.6-0.2,22.8-0.1,23.7c0.2,1.8,1.6,1.4,1.5,0.2c0-1-0.9-42.9-1-49.2
		c0-0.5,0-0.8,0-0.8l1.9-0.5l0.2,1.7l0.3,0.1l0.3,18L23.2,61.5z"/>
	<polygon class="st0" points="22.4,12.9 22.2,12.8 22,11.1 	"/>
	<path class="st0" d="M16.3,4.9L16.3,4.9C16.3,4.9,16.3,4.9,16.3,4.9L16.3,4.9z"/>
	<path class="st0" d="M22.4,12.9l-0.3-0.1L22,11.1l0.4-0.1C22.4,11,22.4,11.7,22.4,12.9z"/>
</g>
</svg>
