<?xml version="1.0" encoding="utf-8"?>
<!-- Generator: Adobe Illustrator 21.1.0, SVG Export Plug-In . SVG Version: 6.00 Build 0)  -->
<svg version="1.1" id="Layer_1" xmlns="http://www.w3.org/2000/svg" xmlns:xlink="http://www.w3.org/1999/xlink" x="0px" y="0px"
	 width="108px" height="108px" viewBox="0 0 108 108" style="enable-background:new 0 0 108 108;" xml:space="preserve">
<style type="text/css">
	.st0{fill:#B3B3B3;stroke:#000000;stroke-width:0.75;stroke-linecap:round;stroke-linejoin:round;stroke-miterlimit:10;}
	.st1{fill:#FFFFFF;}
	.st2{fill:#E6E6E6;}
	.st3{fill:#CCCCCC;}
	.st4{fill:none;stroke:#000000;stroke-width:0.75;stroke-linecap:round;stroke-linejoin:round;stroke-miterlimit:10;}
	.st5{fill:#FFFFFF;stroke:#000000;stroke-width:0.75;stroke-linecap:round;stroke-linejoin:round;stroke-miterlimit:10;}
	.st6{fill:#808080;stroke:#000000;stroke-width:0.75;stroke-linecap:round;stroke-linejoin:round;stroke-miterlimit:10;}
	.st7{fill:#CCCCCC;stroke:#000000;stroke-width:0.75;stroke-linecap:round;stroke-linejoin:round;stroke-miterlimit:10;}
	.st8{fill:#F2F2F2;stroke:#000000;stroke-width:0.75;stroke-linecap:round;stroke-linejoin:round;stroke-miterlimit:10;}
	.st9{fill:none;stroke:#000000;stroke-width:0.5;stroke-linecap:round;stroke-linejoin:round;stroke-miterlimit:10;}
	.st10{fill:#999999;stroke:#000000;stroke-width:0.5;stroke-linecap:round;stroke-linejoin:round;stroke-miterlimit:10;}
</style>
<g>
	<polyline class="st0" points="114.8,26.4 27.8,50.8 27.8,51 27.4,50.9 23,51.7 27.1,53.3 27.5,53.3 114.8,28.5 	"/>
	<path class="st1" d="M27.5,53.3h-0.4c0,0,0,33.6,0,36.4c0,0.3,0,0.5,0.1,0.7L114.8,65V28.5L27.5,53.3z"/>
	<path class="st2" d="M27.2,90.4c0.4,2,2.2,2.4,2.5,3.9l85.1-24.7V65L27.2,90.4z"/>
	<path class="st3" d="M29.7,94.4c0,0.2,0.1,0.3,0.1,0.5c0,1.9-2.7,2.8-3.3,3v0l88.4-25.6v-2.6L29.7,94.4z"/>
	<path class="st4" d="M114.8,28.5L27.5,53.3h-0.4c0,0,0,33.6,0,36.4c0,2.9,2.6,3,2.6,5.2c0,1.9-2.7,2.8-3.3,3v0l88.4-25.6"/>
	<path class="st5" d="M25.1,57.2c0,0,0,0.2,0,0.6C25.1,57.6,25.1,57.4,25.1,57.2L25.1,57.2z"/>
	<path class="st5" d="M27.9,94.9c0,0.9-1.4,1.6-1.4,1.6s-1.3-0.2-1.3-1.5v-0.1c0-0.2,0-0.6,0-1.2c0-2.2,0-7,0-12.3c0-1,0-2.1,0-3.1
		c0-8.3,0-17.2,0-20.1c0,0.2,0,0.3,0,0.5c0,0.4,0,0.7,0,1.1c0,0.3,0,0.5,0,0.8c0,0.4,0,0.8,0,1.2c0,0.7,0,1.4,0,2.1c0,0.5,0,1,0,1.6
		c0,1.1,0,2.3,0.1,3.5c0,0.2,0,0.4,0,0.7c0.1,9.5,0.3,20.2,0.3,21.1C25.6,92.4,27.9,94,27.9,94.9z"/>
	<path class="st6" d="M25.1,54.6c0,0,0,1,0,2.6L21,55.3l-0.1-2.8l0.2-4l4.5,1.6l1.9,0.7L23,51.7l-0.3-0.1l-0.1,1.5L25.1,54.6z"/>
	<polygon class="st5" points="27.8,50.8 27.8,51 27.4,50.9 	"/>
	<polyline class="st5" points="114.8,10.1 1.5,38.7 28,48.8 114.8,24.6 	"/>
	<path class="st6" d="M27.9,94.9c0,0.9-1.4,1.6-1.4,1.6s-1.3-0.2-1.3-1.5v-0.1c0-0.2,0-0.6,0-1.2c0-2.2,0-7,0-12.3c0-1,0-2.1,0-3.1
		c0-8.3,0-17.2,0-20.1c0,0.2,0,0.3,0,0.5c0,0.4,0,0.7,0,1.1c0,0.3,0,0.5,0,0.8c0,0.4,0,0.8,0,1.2c0,0.7,0,1.4,0,2.1c0,0.5,0,1,0,1.6
		c0,1.1,0,2.3,0.1,3.5c0,0.2,0,0.4,0,0.7c0.1,9.5,0.3,20.2,0.3,21.1C25.6,92.4,27.9,94,27.9,94.9z"/>
	<path class="st5" d="M25.1,57.2c0,0,0,0.2,0,0.6C25.1,57.6,25.1,57.4,25.1,57.2L25.1,57.2z"/>
	<path class="st7" d="M27.1,89.7c0-2.9,0-36.4,0-36.4L23,51.7l-0.3-0.1l-0.1,1.5l2.5,1.4c0,0,0,1,0,2.6h0c0,0,0,0.2,0,0.6
		c0-0.2,0-0.4,0-0.6L21,55.3l-0.2-0.1l0.1-2.7l0.2-4l4.5,1.6l1.9,0.7l0.4-0.1l0.2-2L1.5,38.7l0,0v2.3l16.9,6.5l0,1.4l0.1,12.2l0,3.7
		l-5.2-2.8l-3-12.1c0,0-4.2,0.6-6,1c-1.8,0.4-1,2.5,0.9,2.2c1.9-0.3,3.9-0.7,3.9-0.7s1.5,8,1.8,9.3c0.4,1.3,1.5,2.2,1.5,2.2
		s4.1,2.1,6,3.2c1.9,1.1,2.4,0.2,2.4-1.9c0-2-0.2-8.1-0.2-8.1l2.9,1.4c0,0,0,33.5,0,36.4c0,2.9,2.8,3,2.8,3v-0.1
		c0.6-0.2,3.3-1,3.3-3C29.8,92.7,27.1,92.6,27.1,89.7z M26.5,96.5c0,0-1.3-0.2-1.3-1.5v-0.1c0-0.2,0-0.6,0-1.2c0-2.2,0-7,0-12.3
		c0-1,0-2.1,0-3.1c0-8.3,0-17.2,0-20.1c0,0.2,0,0.3,0,0.5c0,0.4,0,0.7,0,1.1c0,0.3,0,0.5,0,0.8c0,0.4,0,0.8,0,1.2c0,0.7,0,1.4,0,2.1
		c0,0.5,0,1,0,1.6c0,1.1,0,2.3,0.1,3.5c0,0.2,0,0.4,0,0.7c0.1,9.5,0.3,20.2,0.3,21.1c0,1.6,2.3,3.2,2.3,4.2S26.5,96.5,26.5,96.5z"/>
	<polyline class="st8" points="114.8,24.6 28,48.8 27.8,50.8 114.8,26.4 	"/>
	<path class="st4" d="M114.8,41.1"/>
	<line class="st9" x1="30.2" y1="66.1" x2="114.8" y2="41.1"/>
	<polygon class="st10" points="18.5,61.2 13.3,62.1 10.3,50 18.4,47.6 	"/>
	<polygon class="st10" points="18.6,64.9 13.3,62.1 18.5,61.2 	"/>
	<path class="st5" d="M25.1,57.2c0,0,0,0.2,0,0.6C25.1,57.6,25.1,57.4,25.1,57.2L25.1,57.2z"/>
	<path class="st5" d="M27.4,50.9l0.4,0.1l0-0.2L27.4,50.9z"/>
</g>
</svg>
