<?xml version="1.0" encoding="utf-8"?>
<!-- Generator: Adobe Illustrator 21.1.0, SVG Export Plug-In . SVG Version: 6.00 Build 0)  -->
<svg version="1.1" id="Layer_1" xmlns="http://www.w3.org/2000/svg" xmlns:xlink="http://www.w3.org/1999/xlink" x="0px" y="0px"
	 width="108px" height="108px" viewBox="0 0 108 108" style="enable-background:new 0 0 108 108;" xml:space="preserve">
<style type="text/css">
	.st0{fill:#FFFFFF;stroke:#000000;stroke-width:0.75;stroke-linecap:round;stroke-linejoin:round;stroke-miterlimit:10;}
	.st1{fill:#F2F2F2;stroke:#000000;stroke-width:0.75;stroke-linecap:round;stroke-linejoin:round;stroke-miterlimit:10;}
	.st2{fill:#666666;stroke:#000000;stroke-width:0.5;stroke-linecap:round;stroke-linejoin:round;stroke-miterlimit:10;}
	.st3{fill:#CCCCCC;stroke:#000000;stroke-width:0.75;stroke-linecap:round;stroke-linejoin:round;stroke-miterlimit:10;}
	.st4{fill:#E6E6E6;stroke:#000000;stroke-width:0.75;stroke-linecap:round;stroke-linejoin:round;stroke-miterlimit:10;}
	.st5{fill:none;stroke:#000000;stroke-width:0.5;stroke-linecap:round;stroke-linejoin:round;stroke-miterlimit:10;}
	.st6{fill:#FFFFFF;stroke:#000000;stroke-width:0.5;stroke-linecap:round;stroke-linejoin:round;stroke-miterlimit:10;}
	.st7{fill:#E6E6E6;stroke:#000000;stroke-width:0.5;stroke-linecap:round;stroke-linejoin:round;stroke-miterlimit:10;}
	.st8{fill:#F2F2F2;stroke:#000000;stroke-width:0.5;stroke-linecap:round;stroke-linejoin:round;stroke-miterlimit:10;}
	.st9{fill:none;stroke:#000000;stroke-width:0.75;stroke-linecap:round;stroke-linejoin:round;}
</style>
<g>
	<path class="st0" d="M29.3,84L2.5,74l-0.1,0L2,73.8l27.2-6.9v15.9C29.2,83.2,29.2,83.6,29.3,84z"/>
	<path class="st1" d="M114.5,60.2L32.7,88l0,0c1-0.4,1.7-1.7,1.7-3.4v-4.1l80.1-26.5"/>
	<g>
		<ellipse class="st2" cx="19.6" cy="73.7" rx="3.5" ry="1.6"/>
	</g>
	<path class="st3" d="M32.8,52v-1.5c0-0.7-0.2-1.4-0.6-1.7c-0.1-0.1-0.4-0.2-0.6-0.2c0,0-0.1,0-0.1,0c-0.2,0-0.4,0.4-0.4,1v33.2
		c0,1.8,0.5,2.6,0.9,2.6c0.2,0,0.5-0.2,0.5-0.8v-5.4l1.9,1.2v4.1c0,1.7-0.7,3-1.7,3.4c-0.2,0.1-0.4,0.1-0.7,0.1
		c-0.8,0-1.8-0.7-2.3-2L2,75.3l0-1.5L2.4,74l0.1,0l26.8,10c0-0.4-0.1-0.8-0.1-1.2V48.9c0-0.5,0.1-2,1.2-2.8l0.3-0.2
		c0.2-0.1,0.4-0.1,0.6-0.1c1,0,2,0.7,2.6,1.8c0.4,0.7,0.7,1.7,0.7,2.7v2.7L32.8,52z"/>
	<path class="st1" d="M114.5,52.2l-82,27v5.4c0,0.6-0.3,0.8-0.5,0.8c-0.5,0-0.9-0.8-0.9-2.6V49.6c0-0.7,0.2-1,0.4-1c0,0,0.1,0,0.1,0
		c0.2,0,0.5,0.1,0.6,0.2c0.4,0.3,0.6,1.1,0.6,1.7V52l1.9,1.1l79.8-24.9"/>
	<path class="st0" d="M114.5,28.2L34.7,53.1v-2.7c0-1-0.3-2-0.7-2.7c-0.7-1.1-1.7-1.8-2.6-1.8c-0.2,0-0.4,0-0.6,0.1l83.8-26.1"/>
	<polyline class="st4" points="114.5,53.9 34.4,80.4 32.5,79.2 114.5,52.2 	"/>
	<line class="st5" x1="35.8" y1="48" x2="114.5" y2="22.7"/>
	<g>
		<path class="st6" d="M12.6,33.9h5.2h8.9c0,0-2.3-3.3-7-3.3C15.1,30.6,12.6,33.9,12.6,33.9z"/>
		<path class="st7" d="M17.8,34.1v2.1h-0.3l0.9,1.6h-0.8l0.6,1.3h-0.7l0.7,1.4h-0.8l0.8,1.4h-0.8l0.8,1.2h-0.8l0.8,1.4h-0.8l0.8,1.3
			h-0.8l0.9,1.8c0,0,0.3,1.6,0.4,1.8c0.1,0.2,0.3,0.9,1.1,0.9c0.8,0,0.8-0.7,0.9-1c0.1-0.3,0.5-1.7,0.5-1.7l0.9-1.7h-0.7l0.7-1.4
			h-0.7l0.8-1.3h-0.8l0.8-1.3h-0.8l0.8-1.3h-0.6l0.6-1.4h-0.7l0.7-1.4h-0.8l0.8-1.7h-0.3l0-2.2"/>
		
			<rect x="13" y="40.3" transform="matrix(1.557759e-02 -0.9999 0.9999 1.557759e-02 -21.3131 59.9665)" class="st8" width="13.6" height="0.9"/>
		<line class="st6" x1="18.2" y1="45.9" x2="19.2" y2="45.9"/>
		<line class="st6" x1="18.2" y1="44.6" x2="19.2" y2="44.6"/>
		<line class="st6" x1="18.2" y1="43.2" x2="19.2" y2="43.2"/>
		<line class="st6" x1="18.2" y1="42" x2="19.2" y2="42"/>
		<line class="st6" x1="18.2" y1="40.5" x2="19.3" y2="40.5"/>
		<line class="st6" x1="18.2" y1="39.2" x2="19.2" y2="39.2"/>
		<line class="st6" x1="18.2" y1="37.8" x2="19.2" y2="37.8"/>
		<line class="st5" x1="20.3" y1="37.9" x2="21.5" y2="37.9"/>
		<line class="st5" x1="20.3" y1="39.3" x2="21.6" y2="39.3"/>
		<line class="st5" x1="20.4" y1="40.7" x2="21.7" y2="40.7"/>
		<line class="st5" x1="20.3" y1="42" x2="21.6" y2="42"/>
		<line class="st5" x1="20.3" y1="43.2" x2="21.6" y2="43.2"/>
		<line class="st5" x1="20.4" y1="44.6" x2="21.4" y2="44.6"/>
		<line class="st5" x1="20.3" y1="46" x2="21.5" y2="46"/>
	</g>
	<g>
		<g>
			<line class="st9" x1="19.6" y1="53.1" x2="19.6" y2="63.1"/>
			<g>
				<path d="M19.6,66.3c-0.6-1.5-1.5-3.3-2.5-4.5l2.5,0.9l2.5-0.9C21.1,63,20.2,64.8,19.6,66.3z"/>
			</g>
		</g>
	</g>
</g>
</svg>
