<?xml version="1.0" encoding="utf-8"?>
<!-- Generator: Adobe Illustrator 21.1.0, SVG Export Plug-In . SVG Version: 6.00 Build 0)  -->
<svg version="1.1" id="Layer_1" xmlns="http://www.w3.org/2000/svg" xmlns:xlink="http://www.w3.org/1999/xlink" x="0px" y="0px"
	 width="108px" height="108px" viewBox="0 0 108 108" style="enable-background:new 0 0 108 108;" xml:space="preserve">
<style type="text/css">
	.st0{fill:#999999;stroke:#000000;stroke-width:0.75;stroke-linecap:round;stroke-linejoin:round;stroke-miterlimit:10;}
	.st1{fill:#E6E6E6;stroke:#000000;stroke-width:0.75;stroke-linecap:round;stroke-linejoin:round;stroke-miterlimit:10;}
	.st2{fill:#FFFFFF;stroke:#000000;stroke-width:0.75;stroke-linecap:round;stroke-linejoin:round;stroke-miterlimit:10;}
	.st3{fill:#CCCCCC;stroke:#000000;stroke-width:0.75;stroke-linecap:round;stroke-linejoin:round;stroke-miterlimit:10;}
	.st4{fill:#FFFFFF;stroke:#000000;stroke-width:0.5;stroke-linecap:round;stroke-linejoin:round;stroke-miterlimit:10;}
</style>
<g>
	<path class="st0" d="M19.7,56l2.9-1c0,0-0.9-6.4-2.7-6C18.1,49.5,19.7,56,19.7,56z"/>
	<path class="st1" d="M21,67.4v15c0,0.6-0.2,0.9-0.4,0.9c0,0-0.1,0-0.2,0l-0.6-0.4c-0.3-0.4-0.4-0.9-0.4-1.4V78l-1.7-1.3v4.5
		c0,0.4,0,0.7,0.1,1.1L1.1,73.5L21,67.4z"/>
	<path class="st2" d="M19.5,81.4c0,0.5,0.1,1,0.4,1.4l-3.1,0.9l0,0L1.1,73.5l16.9,8.8c-0.1-0.3-0.1-0.7-0.1-1.1v-4.5l1.7,1.3V81.4z"
		/>
	<path class="st2" d="M175.2,41.9L21.7,85.4l-1,0.3l-0.3-2.5c0.1,0,0.1,0,0.2,0c0.2,0,0.4-0.3,0.4-0.9v-15l0.2-1.3l-0.1-15.6l-1-2.2
		v-0.1L174.5,3.7L175.2,41.9z"/>
	<polyline class="st1" points="22.2,76.7 19.5,78 17.8,76.8 21.7,74.9 	"/>
	<g>
		<g>
			<path class="st3" d="M22.6,53.2v30.1c0,0.4-0.1,1.6-0.9,2.2c-0.1,0-0.1,0.1-0.2,0.1l-0.2,0.1c-0.2,0-0.4,0.1-0.5,0
				c-0.3,0-0.7-0.2-1-0.4l-3-1.6l0,0L1,75.4l0.1-1.9l16.9,8.8c-0.1-0.3-0.1-0.7-0.1-1.1v-4.5l1.7,1.3v3.4c0,0.5,0.1,1,0.4,1.4
				c0.1,0.1,0.1,0.2,0.2,0.2c0.1,0.1,0.3,0.2,0.4,0.2c0.1,0,0.1,0,0.2,0c0.2,0,0.4-0.3,0.4-0.9V53c0-1.6-0.4-2.3-0.8-2.4
				c-0.2,0-0.4,0.2-0.4,0.7V56L18,54.7v-3.7c0-1.8,0.9-3.1,2.1-2.9c1.1,0.1,2.2,1.4,2.4,4C22.6,52.4,22.6,52.8,22.6,53.2z"/>
		</g>
		<g>
			<path class="st3" d="M22.6,53.2v30.1c0,0.4-0.1,1.6-0.9,2.2c-0.1,0-0.1,0.1-0.2,0.1l-0.2,0.1c-0.2,0-0.4,0.1-0.5,0
				c-0.3,0-0.7-0.2-1-0.4l-3-1.6l0,0L1,75.4l0.1-1.9l16.9,8.8c-0.1-0.3-0.1-0.7-0.1-1.1v-4.5l1.7,1.3v3.4c0,0.5,0.1,1,0.4,1.4
				c0.1,0.1,0.1,0.2,0.2,0.2c0.1,0.1,0.3,0.2,0.4,0.2c0.1,0,0.1,0,0.2,0c0.2,0,0.4-0.3,0.4-0.9V53c0-1.6-0.4-2.3-0.8-2.4
				c-0.2,0-0.4,0.2-0.4,0.7V56L18,54.7v-3.7c0-1.8,0.9-3.1,2.1-2.9c1.1,0.1,2.2,1.4,2.4,4C22.6,52.4,22.6,52.8,22.6,53.2z"/>
		</g>
	</g>
	<line class="st4" x1="23.6" y1="52" x2="174.5" y2="8.5"/>
	<line class="st4" x1="25.2" y1="78.7" x2="173.6" y2="35.9"/>
	<line class="st4" x1="25" y1="74.2" x2="173.4" y2="31.4"/>
	<line class="st4" x1="25.2" y1="56.1" x2="173.6" y2="13.3"/>
	<line class="st4" x1="25" y1="63.9" x2="173.4" y2="21.1"/>
	<path class="st4" d="M138,35.6c0,0,1.8-0.3,2.1-1.5c0.2-1.2-0.8-1.5-1.7-1"/>
	<path class="st4" d="M136.6,33.6c0,0-1.9,0.2-2.2,1.3c-0.3,1.2,0.7,1.5,1.6,1.1"/>
	<path class="st4" d="M77.4,53c0,0,1.8-0.3,2.1-1.5c0.2-1.2-0.8-1.5-1.7-1"/>
	<path class="st4" d="M76.1,51c0,0-1.9,0.2-2.2,1.3c-0.3,1.2,0.7,1.5,1.6,1.1"/>
	<polyline class="st4" points="129.4,34.2 131.8,36.8 83.7,50.1 81.8,48 	"/>
</g>
</svg>
