<?xml version="1.0" encoding="utf-8"?>
<!-- Generator: Adobe Illustrator 22.1.0, SVG Export Plug-In . SVG Version: 6.00 Build 0)  -->
<svg version="1.1" id="Layer_1" xmlns="http://www.w3.org/2000/svg" xmlns:xlink="http://www.w3.org/1999/xlink" x="0px" y="0px"
	 width="108px" height="108px" viewBox="0 0 108 108" style="enable-background:new 0 0 108 108;" xml:space="preserve">
<style type="text/css">
	.st0{fill:#FFFFFF;stroke:#000000;stroke-width:0.75;stroke-linecap:round;stroke-linejoin:round;stroke-miterlimit:10;}
	.st1{fill:#F2F2F2;stroke:#000000;stroke-width:0.75;stroke-linecap:round;stroke-linejoin:round;stroke-miterlimit:10;}
	.st2{fill:#666666;stroke:#000000;stroke-width:0.5;stroke-linecap:round;stroke-linejoin:round;stroke-miterlimit:10;}
	.st3{fill:#E6E6E6;stroke:#000000;stroke-width:0.75;stroke-linecap:round;stroke-linejoin:round;stroke-miterlimit:10;}
	.st4{fill:#FFFFFF;stroke:#000000;stroke-width:0.5;stroke-linecap:round;stroke-linejoin:round;stroke-miterlimit:10;}
	.st5{fill:#E6E6E6;stroke:#000000;stroke-width:0.5;stroke-linecap:round;stroke-linejoin:round;stroke-miterlimit:10;}
	.st6{fill:#F2F2F2;stroke:#000000;stroke-width:0.5;stroke-linecap:round;stroke-linejoin:round;stroke-miterlimit:10;}
	.st7{fill:none;stroke:#000000;stroke-width:0.5;stroke-linecap:round;stroke-linejoin:round;stroke-miterlimit:10;}
	.st8{fill:none;stroke:#000000;stroke-width:0.75;stroke-linecap:round;stroke-linejoin:round;}
</style>
<g>
	<path class="st0" d="M29.3,84L2.5,74H2.4L2,73.8l27.2-6.9v15.9C29.2,83.2,29.2,83.6,29.3,84z"/>
	<path class="st1" d="M114.5,54"/>
	<path class="st0" d="M114.6,19.9L112.8,59L31,86.8h-0.3V51.5c0-1.2,0.3-2.4,0.9-3.5c0.9-1.7,2.5-3,4.4-3.6L114.6,19.9z"/>
	<g>
		<ellipse class="st2" cx="19.6" cy="73.7" rx="3.5" ry="1.6"/>
	</g>
	<path class="st3" d="M114.5,52.2"/>
	<path class="st3" d="M114.5,53.9"/>
	<g>
		<path class="st4" d="M12.6,33.9h5.2h8.9c0,0-2.3-3.3-7-3.3C15.1,30.6,12.6,33.9,12.6,33.9z"/>
		<path class="st5" d="M17.8,34.1v2.1h-0.3l0.9,1.6h-0.8l0.6,1.3h-0.7l0.7,1.4h-0.8l0.8,1.4h-0.8l0.8,1.2h-0.8l0.8,1.4h-0.8l0.8,1.3
			h-0.8l0.9,1.8c0,0,0.3,1.6,0.4,1.8s0.3,0.9,1.1,0.9c0.8,0,0.8-0.7,0.9-1s0.5-1.7,0.5-1.7l0.9-1.7h-0.7l0.7-1.4h-0.7l0.8-1.3h-0.8
			l0.8-1.3h-0.8l0.8-1.3h-0.6l0.6-1.4h-0.7l0.7-1.4h-0.8l0.8-1.7h-0.3v-2.2"/>
		
			<rect x="12.9" y="40.4" transform="matrix(1.557726e-02 -0.9999 0.9999 1.557726e-02 -21.3646 59.9065)" class="st6" width="13.6" height="0.9"/>
		<line class="st7" x1="18.2" y1="45.9" x2="19.2" y2="45.9"/>
		<line class="st7" x1="18.2" y1="44.6" x2="19.2" y2="44.6"/>
		<line class="st7" x1="18.2" y1="43.2" x2="19.2" y2="43.2"/>
		<line class="st7" x1="18.2" y1="42" x2="19.2" y2="42"/>
		<line class="st7" x1="18.2" y1="40.5" x2="19.3" y2="40.5"/>
		<line class="st7" x1="18.2" y1="39.2" x2="19.2" y2="39.2"/>
		<line class="st7" x1="18.2" y1="37.8" x2="19.2" y2="37.8"/>
		<line class="st7" x1="20.3" y1="37.9" x2="21.5" y2="37.9"/>
		<line class="st7" x1="20.3" y1="39.3" x2="21.6" y2="39.3"/>
		<line class="st7" x1="20.4" y1="40.7" x2="21.7" y2="40.7"/>
		<line class="st7" x1="20.3" y1="42" x2="21.6" y2="42"/>
		<line class="st7" x1="20.3" y1="43.2" x2="21.6" y2="43.2"/>
		<line class="st7" x1="20.4" y1="44.6" x2="21.4" y2="44.6"/>
		<line class="st7" x1="20.3" y1="46" x2="21.5" y2="46"/>
	</g>
	<g>
		<g>
			<line class="st8" x1="19.6" y1="53.1" x2="19.6" y2="63.1"/>
			<g>
				<path d="M19.6,66.3c-0.6-1.5-1.5-3.3-2.5-4.5l2.5,0.9l2.5-0.9C21.1,63,20.2,64.8,19.6,66.3z"/>
			</g>
		</g>
	</g>
	<path class="st3" d="M114.6,19.9L36,44.4c-1.9,0.6-3.4,1.9-4.4,3.6c-0.6,1.1-0.9,2.3-0.9,3.5v35.3L2,75.5v-1.7L29.3,84V50.8
		c0-1.1,0.3-2.2,0.8-3.3c0.9-1.8,2.5-3.1,4.3-3.7l78.8-24.6L114.6,19.9z"/>
</g>
</svg>
