<?xml version="1.0" encoding="utf-8"?>
<!-- Generator: Adobe Illustrator 21.1.0, SVG Export Plug-In . SVG Version: 6.00 Build 0)  -->
<svg version="1.1" id="Layer_1" xmlns="http://www.w3.org/2000/svg" xmlns:xlink="http://www.w3.org/1999/xlink" x="0px" y="0px"
	 width="108px" height="108px" viewBox="0 0 108 108" style="enable-background:new 0 0 108 108;" xml:space="preserve">
<style type="text/css">
	.st0{fill:#E6E6E6;stroke:#000000;stroke-width:0.75;stroke-linecap:round;stroke-linejoin:round;stroke-miterlimit:10;}
	.st1{fill:#F2F2F2;stroke:#000000;stroke-width:0.75;stroke-linecap:round;stroke-linejoin:round;stroke-miterlimit:10;}
	.st2{fill:#FFFFFF;stroke:#000000;stroke-width:0.75;stroke-linecap:round;stroke-linejoin:round;stroke-miterlimit:10;}
	.st3{fill:#CCCCCC;stroke:#000000;stroke-width:0.75;stroke-linecap:round;stroke-linejoin:round;stroke-miterlimit:10;}
	.st4{fill:#FFFFFF;stroke:#000000;stroke-width:0.5;stroke-linecap:round;stroke-linejoin:round;stroke-miterlimit:10;}
	.st5{fill:none;stroke:#000000;stroke-width:0.5;stroke-linecap:round;stroke-linejoin:round;stroke-miterlimit:10;}
</style>
<g>
	<path class="st0" d="M16.5,82.3l-5-2.5l-8.5-4.7l13.4-4.4v10.5C16.5,81.6,16.5,82,16.5,82.3z"/>
	<path class="st1" d="M171.4,9.6l-0.3,22.2L19.4,78.4v4.8c0,0.6-0.2,0.7-0.4,0.7c-0.4,0-0.8-0.8-0.8-2.4V52c0-0.6,0.2-0.9,0.4-0.9
		c0.2,0,0.4,0.1,0.6,0.3c0.4,0.3,0.5,1,0.5,1.6v1.3l1.7,1.2L171.4,9.6z"/>
	<path class="st1" d="M171.1,33.6l-0.1,5.5L19.7,86.2c0.8-0.3,1.3-1.4,1.3-2.8v-3.7L171.1,33.6z"/>
	<path class="st2" d="M19.7,54.3V53c0-0.6-0.2-1.3-0.5-1.6c-0.1-0.1-0.4-0.3-0.6-0.3c-0.2,0-0.4,0.3-0.4,0.9v29.4
		c0,1.6,0.4,2.4,0.8,2.4c0.2,0,0.4-0.1,0.4-0.7v-4.8l1.7,1.3v3.7c0,1.4-0.5,2.5-1.3,2.8c-0.1,0-0.1,0-0.2,0.1L17,82.8l-5.4-3l5,2.5
		c0-0.3,0-0.7,0-1.1V70.8l0.7-0.2l-0.1-20.2l2.2,0.3l0.4,0.1l0.9-0.3c0.4,0.7,0.7,1.7,0.7,2.6v2.4L19.7,54.3z"/>
	<path class="st2" d="M171.9,1.6l-0.1,7.9l-0.4,0.1L21.3,55.5v-2.4c0-1-0.3-1.9-0.7-2.6c-0.6-1-1.5-1.7-2.3-1.8c-0.2,0-0.4,0-0.5,0
		L171.9,1.6z"/>
	<path class="st2" d="M21.3,53.1v2.4l-1.1-3.6l-0.9-1.2l-1.5-1.9c0.2,0,0.4-0.1,0.5,0c0.8,0.1,1.7,0.8,2.3,1.8
		C21,51.2,21.3,52.1,21.3,53.1z"/>
	<g>
		<g>
			<path class="st3" d="M19.7,54.3V53c0-0.6-0.2-1.3-0.5-1.6c-0.1-0.1-0.4-0.3-0.6-0.3c-0.2,0-0.4,0.3-0.4,0.9v29.4
				c0,1.6,0.4,2.4,0.8,2.4c0.2,0,0.4-0.1,0.4-0.7v-4.8l1.7,1.3v3.7c0,1.4-0.5,2.5-1.3,2.8c-0.1,0-0.1,0-0.2,0.1
				c-0.2,0.1-0.4,0.1-0.6,0c-0.8-0.1-1.5-0.8-2-2.1l-13.7-7v-1.5l8.3,4.2l5,2.5c0-0.3,0-0.7,0-1.1V51.2c0-0.4,0.1-1.8,1.1-2.3
				l0.2-0.1c0.2,0,0.4-0.1,0.5,0c0.8,0.1,1.7,0.8,2.3,1.8c0.4,0.7,0.7,1.7,0.7,2.6v2.4L19.7,54.3z"/>
		</g>
		<g>
			<path class="st3" d="M19.7,54.3V53c0-0.6-0.2-1.3-0.5-1.6c-0.1-0.1-0.4-0.3-0.6-0.3c-0.2,0-0.4,0.3-0.4,0.9v29.4
				c0,1.6,0.4,2.4,0.8,2.4c0.2,0,0.4-0.1,0.4-0.7v-4.8l1.7,1.3v3.7c0,1.4-0.5,2.5-1.3,2.8c-0.1,0-0.1,0-0.2,0.1
				c-0.2,0.1-0.4,0.1-0.6,0c-0.8-0.1-1.5-0.8-2-2.1l-13.7-7v-1.5l8.3,4.2l5,2.5c0-0.3,0-0.7,0-1.1V51.2c0-0.4,0.1-1.8,1.1-2.3
				l0.2-0.1c0.2,0,0.4-0.1,0.5,0c0.8,0.1,1.7,0.8,2.3,1.8c0.4,0.7,0.7,1.7,0.7,2.6v2.4L19.7,54.3z"/>
		</g>
	</g>
	<polygon class="st0" points="171.2,31.8 171.1,33.6 21.1,79.7 19.4,78.4 	"/>
	<polygon class="st2" points="171.6,31.7 171.5,33.5 171.1,33.6 171.2,31.8 	"/>
	<line class="st4" x1="22.3" y1="51.1" x2="171.2" y2="5"/>
	<g>
		<line class="st5" x1="20.6" y1="66" x2="169.6" y2="20"/>
		<path class="st5" d="M161.8,26.9c0,0,1.8-0.3,2.1-1.5c0.2-1.2-0.8-1.5-1.7-1"/>
		<path class="st5" d="M160.5,24.9c0,0-1.9,0.2-2.2,1.3c-0.3,1.2,0.7,1.5,1.6,1.1"/>
		<path class="st5" d="M131.7,36.1c0,0,1.8-0.3,2.1-1.5c0.2-1.2-0.8-1.5-1.7-1"/>
		<path class="st5" d="M130.4,34.1c0,0-1.9,0.2-2.2,1.3c-0.3,1.2,0.7,1.5,1.6,1.1"/>
		<path class="st5" d="M102.4,45.6c0,0,1.8-0.3,2.1-1.5c0.2-1.2-0.8-1.5-1.7-1"/>
		<path class="st5" d="M101.1,43.6c0,0-1.9,0.2-2.2,1.3c-0.3,1.2,0.7,1.5,1.6,1.1"/>
		<path class="st5" d="M72.7,54.6c0,0,1.8-0.3,2.1-1.5c0.2-1.2-0.8-1.5-1.7-1"/>
		<path class="st5" d="M71.4,52.6c0,0-1.9,0.2-2.2,1.3C69,55.1,70,55.4,70.9,55"/>
		<path class="st5" d="M43.5,64.1c0,0,1.8-0.3,2.1-1.5c0.2-1.2-0.8-1.5-1.7-1"/>
		<path class="st5" d="M42.2,62.1c0,0-1.9,0.2-2.2,1.3c-0.3,1.2,0.7,1.5,1.6,1.1"/>
	</g>
</g>
</svg>
