<?xml version="1.0" encoding="utf-8"?>
<!-- Generator: Adobe Illustrator 21.1.0, SVG Export Plug-In . SVG Version: 6.00 Build 0)  -->
<svg version="1.1" id="Layer_1" xmlns="http://www.w3.org/2000/svg" xmlns:xlink="http://www.w3.org/1999/xlink" x="0px" y="0px"
	 width="108px" height="108px" viewBox="0 0 108 108" style="enable-background:new 0 0 108 108;" xml:space="preserve">
<style type="text/css">
	.st0{fill:#F2F2F2;stroke:#000000;stroke-width:0.75;stroke-linecap:round;stroke-linejoin:round;stroke-miterlimit:10;}
	.st1{fill:#FFFFFF;stroke:#000000;stroke-width:0.75;stroke-linecap:round;stroke-linejoin:round;stroke-miterlimit:10;}
	.st2{fill:#CCCCCC;stroke:#000000;stroke-width:0.75;stroke-linecap:round;stroke-linejoin:round;stroke-miterlimit:10;}
</style>
<g>
	<polyline class="st0" points="25.1,59.3 13.9,63.7 1,56.3 1.8,55 19.5,48.6 	"/>
	<polyline class="st1" points="112.2,66.6 24.2,97.3 22.5,95.6 23.1,63.5 21.2,58.2 13.8,49.2 12.5,47.6 113.3,14.2 	"/>
	<polyline class="st0" points="112.3,46.6 25.9,74.9 25.1,71.2 25.6,67.2 112.6,39.3 	"/>
	<g>
		<g>
			<path class="st2" d="M25.5,71.7c0,0,0.8-3.9,0.8-4.5c0-0.5-1.3,0.5-1.3,0.5l-0.4,2.4l-0.3,0.4c-0.2-0.1-0.5-0.2-0.7-0.2
				c-0.1,0,1.8-11.9-9.8-21v-1.3l-1.4-0.5l-0.1,13.6c0,0-8.3-4.7-9.9-5.8c-1.6-1.1-1.6,1-1.6,1l12.9,7.4V51.3l1.4,1.2l0.3,0.4
				c1,1.1,7.7,6.8,6.6,19.4v21.7c0,2.3,1,3.4,1.9,3.4c0.9,0,1.6-1,1.6-2.3v-2.6l-1.2-0.8v3.4c0,0.4-0.2,0.5-0.3,0.5
				c-0.3,0-0.6-0.5-0.6-1.7V72.7c0-0.4,0.1-0.6,0.3-0.7c0.2,0,0.3,0.1,0.4,0.1c0.3,0.2,0.4,0.7,0.4,1.1v0.9l1.2,0.7v-1.7
				C25.9,72.7,25.8,72.1,25.5,71.7L25.5,71.7z"/>
		</g>
		<g>
			<path class="st2" d="M25.5,71.7c0,0,0.8-3.9,0.8-4.5c0-0.5-1.3,0.5-1.3,0.5l-0.4,2.4l-0.3,0.4c-0.2-0.1-0.5-0.2-0.7-0.2
				c-0.1,0,1.8-11.9-9.8-21v-1.3l-1.4-0.5l-0.1,13.6c0,0-8.3-4.7-9.9-5.8c-1.6-1.1-1.6,1-1.6,1l12.9,7.4V51.3l1.4,1.2l0.3,0.4
				c1,1.1,7.7,6.8,6.6,19.4v21.7c0,2.3,1,3.4,1.9,3.4c0.9,0,1.6-1,1.6-2.3v-2.6l-1.2-0.8v3.4c0,0.4-0.2,0.5-0.3,0.5
				c-0.3,0-0.6-0.5-0.6-1.7V72.7c0-0.4,0.1-0.6,0.3-0.7c0.2,0,0.3,0.1,0.4,0.1c0.3,0.2,0.4,0.7,0.4,1.1v0.9l1.2,0.7v-1.7
				C25.9,72.7,25.8,72.1,25.5,71.7L25.5,71.7z"/>
		</g>
	</g>
	<polyline class="st1" points="112.4,62.6 25.7,92.4 24.5,91.6 112.4,60.8 	"/>
	<line class="st1" x1="27" y1="67.8" x2="112.5" y2="40.6"/>
	<polyline class="st1" points="113.4,15.9 13.9,48.1 13.9,49.4 113.4,17 	"/>
</g>
</svg>
