<?xml version="1.0" encoding="utf-8"?>
<!-- Generator: Adobe Illustrator 21.1.0, SVG Export Plug-In . SVG Version: 6.00 Build 0)  -->
<svg version="1.1" id="Layer_1" xmlns="http://www.w3.org/2000/svg" xmlns:xlink="http://www.w3.org/1999/xlink" x="0px" y="0px"
	 width="108px" height="108px" viewBox="0 0 108 108" style="enable-background:new 0 0 108 108;" xml:space="preserve">
<style type="text/css">
	.st0{fill:#E6E6E6;stroke:#000000;stroke-width:0.75;stroke-linecap:round;stroke-linejoin:round;stroke-miterlimit:10;}
	.st1{fill:#FFFFFF;stroke:#000000;stroke-width:0.75;stroke-linecap:round;stroke-linejoin:round;stroke-miterlimit:10;}
	.st2{fill:#CCCCCC;stroke:#000000;stroke-width:0.75;stroke-linecap:round;stroke-linejoin:round;stroke-miterlimit:10;}
	.st3{fill:none;stroke:#000000;stroke-width:0.75;stroke-linecap:round;stroke-linejoin:round;stroke-miterlimit:10;}
	.st4{fill:#666666;stroke:#000000;stroke-width:0.5;stroke-linecap:round;stroke-linejoin:round;stroke-miterlimit:10;}
	.st5{fill:#F2F2F2;stroke:#000000;stroke-width:0.75;stroke-linecap:round;stroke-linejoin:round;stroke-miterlimit:10;}
	.st6{fill:#FFFFFF;stroke:#000000;stroke-width:0.5;stroke-linecap:round;stroke-linejoin:round;stroke-miterlimit:10;}
	.st7{fill:#E6E6E6;stroke:#000000;stroke-width:0.5;stroke-linecap:round;stroke-linejoin:round;stroke-miterlimit:10;}
	.st8{fill:#F2F2F2;stroke:#000000;stroke-width:0.5;stroke-linecap:round;stroke-linejoin:round;stroke-miterlimit:10;}
	.st9{fill:none;stroke:#000000;stroke-width:0.5;stroke-linecap:round;stroke-linejoin:round;stroke-miterlimit:10;}
	.st10{fill:none;stroke:#000000;stroke-width:0.75;stroke-linecap:round;stroke-linejoin:round;}
</style>
<g>
	<path class="st0" d="M110.3,65.9l-69,31.2c0.6-0.5,1-1.2,1-2v-3l0,0l68-31.1"/>
	<path class="st1" d="M110.3,12.5L2,52.9l29.9,11.5l0.1-0.2l78.3-33 M62.7,45c-0.4,0.6-1.6,1-3,1c-1.4,0-2.6-0.4-3-1
		c-0.1-0.1-0.2-0.3-0.2-0.4c0-0.8,1.4-1.4,3.1-1.4s3.1,0.6,3.1,1.4C62.8,44.7,62.8,44.8,62.7,45z"/>
	<path class="st1" d="M40.3,69.3l-0.4-0.5C40,69,40.2,69.1,40.3,69.3z"/>
	<path class="st2" d="M40.4,71.1V70c0-0.2,0-0.5-0.2-0.7l0,0c0,0,0,0,0,0c-0.1-0.2-0.2-0.4-0.4-0.5c0,0,0,0,0,0c0,0-0.1,0-0.1-0.1
		c-0.2-0.1-0.5-0.2-0.8-0.1c-0.3,0-0.5,0.3-0.5,0.8v24.4c0,1.3,0.6,1.9,1.1,1.9c0.3,0,0.6-0.2,0.6-0.6v-4l2.1,0.9v3
		c0,0.8-0.4,1.6-1,2c0,0,0,0,0,0l-1.1,0.5c0,0,0,0,0,0c0,0,0,0-0.1,0c-0.2,0-0.3,0-0.5,0c-1.5,0-3.2-1.2-3.2-3.9V68.9
		c0-0.4,0.1-0.6,0.2-0.9L2.3,54.7L2,52.9l29.9,11.5l6,2.3l0.2,0.1c0.2-0.1,0.4-0.1,0.7-0.1c1.8,0,3.9,1.4,3.9,3.3v2L40.4,71.1z"/>
	<path class="st1" d="M41.3,97.2c-0.3,0.3-0.7,0.4-1.1,0.5L41.3,97.2z"/>
	<line class="st3" x1="110.4" y1="31" x2="110.3" y2="31.1"/>
	<g>
		<path class="st4" d="M62.8,44.5c0,0.1-0.1,0.3-0.2,0.4c-0.4-0.5-1.6-1-3-1c-1.4,0-2.6,0.4-3,1c-0.1-0.1-0.2-0.3-0.2-0.4
			c0-0.8,1.4-1.4,3.1-1.4S62.8,43.8,62.8,44.5z"/>
	</g>
	<path class="st5" d="M110.3,34.8C110.3,34.8,110.2,34.8,110.3,34.8L37.7,66.5l0.2,0.2l-6-2.3l0.1-0.2l78.3-33"/>
	<path class="st1" d="M110.3,41.4L42.6,71.9v-2c0-1.9-2-3.3-3.9-3.3c-0.3,0-0.5,0-0.7,0.1l-0.2-0.1l-0.2-0.2l72.5-31.7
		c0,0,0.1,0,0.1,0.1"/>
	<path class="st0" d="M110.3,59.2l-70,31.9l2,0.9v0l-2.1-0.9v4c0,0.5-0.3,0.6-0.6,0.6c-0.5,0-1.1-0.6-1.1-1.9V69.4
		c0-0.5,0.2-0.7,0.5-0.8c0.3,0,0.6,0.1,0.8,0.1c0,0,0.1,0,0.1,0.1c0,0,0,0,0,0l0.4,0.5c0,0,0,0,0,0l0,0c0.1,0.2,0.2,0.5,0.2,0.7v1.1
		l2.1,0.8l67.7-30.5"/>
	<polyline class="st2" points="110.3,61 42.3,92.1 42.3,92 40.3,91.1 110.3,59.2 	"/>
	<g>
		<g>
			<path class="st6" d="M52.1,11h5.6h9.6c0,0-2.5-3.5-7.5-3.5C54.8,7.4,52.1,11,52.1,11z"/>
			<path class="st7" d="M57.7,11.2v2.2h-0.3l1,1.7h-0.9l0.7,1.4h-0.7l0.7,1.5h-0.8l0.9,1.5h-0.9l0.8,1.3h-0.8l0.8,1.5h-0.8l0.8,1.4
				h-0.9l1,1.9c0,0,0.4,1.7,0.4,2c0.1,0.2,0.3,1,1.1,0.9c0.8,0,0.9-0.7,1-1c0.1-0.4,0.5-1.9,0.5-1.9l1-1.8h-0.8l0.8-1.5h-0.8
				l0.9-1.4h-0.8l0.8-1.3h-0.8l0.8-1.4h-0.7l0.7-1.5h-0.8l0.8-1.5h-0.8l0.8-1.8h-0.4l0-2.4"/>
			
				<rect x="52.6" y="17.8" transform="matrix(1.557759e-02 -0.9999 0.9999 1.557759e-02 40.5795 77.9125)" class="st8" width="14.6" height="1"/>
			<line class="st9" x1="58.1" y1="23.8" x2="59.2" y2="23.8"/>
			<line class="st9" x1="58.1" y1="22.4" x2="59.2" y2="22.4"/>
			<line class="st9" x1="58.1" y1="20.9" x2="59.2" y2="20.9"/>
			<line class="st9" x1="58.1" y1="19.6" x2="59.2" y2="19.6"/>
			<line class="st9" x1="58.2" y1="18" x2="59.3" y2="18"/>
			<line class="st9" x1="58.2" y1="16.6" x2="59.3" y2="16.6"/>
			<line class="st9" x1="58.2" y1="15.1" x2="59.3" y2="15.1"/>
			<line class="st9" x1="60.4" y1="15.3" x2="61.7" y2="15.3"/>
			<line class="st9" x1="60.4" y1="16.7" x2="61.8" y2="16.7"/>
			<line class="st9" x1="60.5" y1="18.2" x2="61.9" y2="18.2"/>
			<line class="st9" x1="60.4" y1="19.6" x2="61.8" y2="19.6"/>
			<line class="st9" x1="60.4" y1="21" x2="61.8" y2="21"/>
			<line class="st9" x1="60.5" y1="22.4" x2="61.6" y2="22.4"/>
			<line class="st9" x1="60.4" y1="23.9" x2="61.7" y2="23.9"/>
		</g>
		<g>
			<g>
				<line class="st10" x1="59.7" y1="30.5" x2="59.7" y2="36.7"/>
				<g>
					<path d="M59.7,39.9c-0.6-1.5-1.5-3.3-2.5-4.5l2.5,0.9l2.5-0.9C61.2,36.5,60.2,38.4,59.7,39.9z"/>
				</g>
			</g>
		</g>
	</g>
</g>
</svg>
