<?xml version="1.0" encoding="utf-8"?>
<!-- Generator: Adobe Illustrator 21.1.0, SVG Export Plug-In . SVG Version: 6.00 Build 0)  -->
<svg version="1.1" id="Layer_1" xmlns="http://www.w3.org/2000/svg" xmlns:xlink="http://www.w3.org/1999/xlink" x="0px" y="0px"
	 width="108px" height="108px" viewBox="0 0 108 108" style="enable-background:new 0 0 108 108;" xml:space="preserve">
<style type="text/css">
	.st0{fill:#F2F2F2;stroke:#000000;stroke-width:0.5;stroke-linecap:round;stroke-linejoin:round;stroke-miterlimit:10;}
	.st1{fill:#E6E6E6;stroke:#000000;stroke-width:0.5;stroke-linecap:round;stroke-linejoin:round;stroke-miterlimit:10;}
	.st2{fill:#FFFFFF;stroke:#000000;stroke-width:0.5;stroke-linecap:round;stroke-linejoin:round;stroke-miterlimit:10;}
	.st3{fill:#B3B3B3;stroke:#000000;stroke-width:0.25;stroke-linecap:round;stroke-linejoin:round;stroke-miterlimit:10;}
	.st4{fill:none;stroke:#000000;stroke-width:0.5;stroke-linecap:round;stroke-linejoin:round;stroke-miterlimit:10;}
	.st5{fill:none;stroke:#000000;stroke-width:0.75;stroke-linecap:round;stroke-linejoin:round;}
</style>
<g>
	<path class="st0" d="M116.5,22.4l-0.2,0.1l-102,37.4l-0.6-0.1c0.1,0.2,0.1,0.3,0.1,0.5l0,1.6l-0.8-0.3l0-1.3c0-0.1,0-0.1,0-0.2
		c0,0,0-0.1,0-0.1c-0.1-0.2-0.3-0.1-0.4-0.1c0,0,0,0.1,0,0.1l-0.1,43.6c0,0.3,0.1,0.6,0.1,0.8c0,0,0,0,0,0l0.4,0.3l0.3-0.1l0,0
		c0.1-0.1,0.1-0.2,0.1-0.3v-2L116,58.8 M47.2,38.8c-0.6,0-1.1,0.1-1.5,0.2c-0.7,0.2-1.2,0.6-1.2,1c0,0.1,0.1,0.2,0.1,0.4
		c0.3-0.5,1.4-0.8,2.6-0.8c1.2,0,2.2,0.3,2.6,0.8c0.1-0.1,0.1-0.2,0.1-0.4C49.9,39.4,48.7,38.8,47.2,38.8z M101.5,19.6
		c-0.6,0-1.1,0.1-1.5,0.2c-0.1,0-0.2,0.1-0.3,0.1c-0.6,0.2-0.9,0.5-0.9,0.9c0,0.1,0.1,0.2,0.1,0.4c0.3-0.5,1.4-0.8,2.6-0.8
		c1.2,0,2.2,0.3,2.6,0.8c0.1-0.1,0.1-0.2,0.1-0.4C104.2,20.1,103,19.6,101.5,19.6z"/>
	<path class="st1" d="M116.2,20.9L12.5,59c-0.2,0-0.4,0.1-0.5,0.2l0-0.8l-2.3-1.2l1.8,0.8v-0.8l38-13.9l54.1-19.8l0.3-0.1l12.5-4.6"
		/>
	<polygon class="st2" points="11.7,57.2 11.7,58 9.8,57.2 2,53.7 2,52.9 	"/>
	<path class="st2" d="M116.7,12.2l-17.2,6.1l-0.4,0.1L45.2,37.6L2,52.9l9.7,4.3l38-13.9l54.1-19.8l0.3-0.1l12.5-4.6 M49.8,40.4
		c-0.2,0.2-0.5,0.4-1,0.6c-0.4,0.1-1,0.2-1.6,0.2c-1.2,0-2.2-0.3-2.6-0.8c-0.1-0.1-0.1-0.2-0.1-0.4c0-0.4,0.5-0.8,1.2-1
		c0.4-0.1,1-0.2,1.5-0.2c1.5,0,2.7,0.5,2.7,1.2C49.9,40.1,49.9,40.3,49.8,40.4z M104.1,21.1c-0.1,0.2-0.4,0.3-0.7,0.5
		c-0.1,0-0.2,0.1-0.3,0.1c-0.4,0.2-1,0.2-1.6,0.2c-1.2,0-2.2-0.4-2.6-0.8c-0.1-0.1-0.1-0.2-0.1-0.4c0-0.4,0.4-0.7,0.9-0.9
		c0.1,0,0.2-0.1,0.3-0.1c0.4-0.1,1-0.2,1.5-0.2c1.5,0,2.7,0.5,2.7,1.2C104.2,20.9,104.2,21,104.1,21.1z"/>
	<path class="st2" d="M116.4,24l-102.5,38l0-1.6c0-0.2,0-0.4-0.1-0.5l0.6,0.1l102-37.4"/>
	<path class="st1" d="M116,61.6L14,105.3c0.2-0.2,0.4-0.5,0.4-0.9v-1.6L116,60.2"/>
	<polygon class="st2" points="14.4,104.3 14.4,104.4 14.4,104.3 	"/>
	<polyline class="st2" points="116,60.2 14.4,102.8 13.5,102.5 116,58.8 	"/>
	<path class="st2" d="M14.4,104.3L14.4,104.3v0.1c0,0.3-0.1,0.7-0.4,0.9c-0.2,0.2-0.6,0.4-0.9,0.4c-0.7,0-1.4-0.5-1.4-2l0.1-43.6
		l0.2-0.7c0-0.1,0.1-0.1,0.1-0.1c0.1-0.1,0.3-0.2,0.5-0.2c0.4,0,1,0.3,1.2,0.8c0.1,0.2,0.1,0.3,0.1,0.5l0,1.6l-0.8-0.3l0-1.3
		c0-0.1,0-0.1,0-0.2c0,0,0-0.1,0-0.1c-0.1-0.2-0.3-0.1-0.4-0.1c0,0,0,0.1,0,0.1l-0.1,43.6c0,0.3,0.1,0.6,0.1,0.8c0,0,0,0,0,0
		c0.1,0.2,0.2,0.3,0.4,0.3c0.1,0,0.2,0,0.3-0.1l0,0c0.1-0.1,0.1-0.2,0.1-0.3v-2l0.9,0.4V104.3z"/>
	<polygon class="st2" points="14.4,104.3 14.4,104.4 14.4,104.3 	"/>
	<path class="st0" d="M116.3,22.5l-102,37.4l-0.6-0.1C13.5,59.3,13,59,12.5,59l103.7-38.2"/>
	<g>
		<g>
			<path class="st3" d="M49.9,40c0,0.1-0.1,0.2-0.1,0.4c-0.3-0.5-1.4-0.8-2.6-0.8c-1.2,0-2.2,0.3-2.6,0.8c-0.1-0.1-0.1-0.2-0.1-0.4
				c0-0.4,0.5-0.8,1.2-1c0.4-0.1,1-0.2,1.5-0.2C48.7,38.8,49.9,39.4,49.9,40z"/>
		</g>
	</g>
	<g>
		<g>
			<path class="st3" d="M104.2,20.7c0,0.1-0.1,0.2-0.1,0.4c-0.3-0.5-1.4-0.8-2.6-0.8c-1.2,0-2.2,0.3-2.6,0.8
				c-0.1-0.1-0.1-0.2-0.1-0.4c0-0.4,0.4-0.7,0.9-0.9c0.1,0,0.2-0.1,0.3-0.1c0.4-0.1,1-0.2,1.5-0.2C103,19.6,104.2,20.1,104.2,20.7z"
				/>
		</g>
	</g>
	<g>
		<path class="st2" d="M39.6,5.8h5.6h9.6c0,0-2.5-3.5-7.5-3.5C42.3,2.2,39.6,5.8,39.6,5.8z"/>
		<path class="st1" d="M45.2,6v2.2h-0.3l1,1.7H45l0.7,1.4H45l0.7,1.5h-0.8l0.9,1.5h-0.9l0.8,1.3h-0.8l0.8,1.5h-0.8l0.8,1.4h-0.9
			l1,1.9c0,0,0.4,1.7,0.4,2c0.1,0.2,0.3,1,1.1,0.9c0.8,0,0.9-0.7,1-1c0.1-0.4,0.5-1.9,0.5-1.9l1-1.8h-0.8l0.8-1.5h-0.8l0.9-1.4h-0.8
			l0.8-1.3h-0.8L50,13h-0.7l0.7-1.5h-0.8L50,10h-0.8L50,8.2h-0.4l0-2.4"/>
		
			<rect x="40.1" y="12.6" transform="matrix(1.557759e-02 -0.9999 0.9999 1.557759e-02 33.5046 60.3354)" class="st0" width="14.6" height="1"/>
		<line class="st4" x1="45.7" y1="18.6" x2="46.8" y2="18.6"/>
		<line class="st4" x1="45.6" y1="17.2" x2="46.7" y2="17.2"/>
		<line class="st4" x1="45.6" y1="15.7" x2="46.7" y2="15.7"/>
		<line class="st4" x1="45.7" y1="14.4" x2="46.8" y2="14.4"/>
		<line class="st4" x1="45.7" y1="12.8" x2="46.8" y2="12.8"/>
		<line class="st4" x1="45.7" y1="11.4" x2="46.8" y2="11.4"/>
		<line class="st4" x1="45.7" y1="9.9" x2="46.8" y2="9.9"/>
		<line class="st4" x1="47.9" y1="10.1" x2="49.3" y2="10.1"/>
		<line class="st4" x1="48" y1="11.5" x2="49.4" y2="11.5"/>
		<line class="st4" x1="48" y1="13" x2="49.5" y2="13"/>
		<line class="st4" x1="48" y1="14.4" x2="49.3" y2="14.4"/>
		<line class="st4" x1="47.9" y1="15.8" x2="49.3" y2="15.8"/>
		<line class="st4" x1="48" y1="17.2" x2="49.1" y2="17.2"/>
		<line class="st4" x1="47.9" y1="18.7" x2="49.2" y2="18.7"/>
	</g>
	<g>
		<g>
			<line class="st5" x1="47.2" y1="25.3" x2="47.2" y2="31.5"/>
			<g>
				<path d="M47.2,34.7c-0.6-1.5-1.5-3.3-2.5-4.5l2.5,0.9l2.5-0.9C48.7,31.3,47.8,33.2,47.2,34.7z"/>
			</g>
		</g>
	</g>
</g>
</svg>
