<?xml version="1.0" encoding="utf-8"?>
<!-- Generator: Adobe Illustrator 21.1.0, SVG Export Plug-In . SVG Version: 6.00 Build 0)  -->
<svg version="1.1" id="Layer_1" xmlns="http://www.w3.org/2000/svg" xmlns:xlink="http://www.w3.org/1999/xlink" x="0px" y="0px"
	 width="108px" height="108px" viewBox="0 0 108 108" style="enable-background:new 0 0 108 108;" xml:space="preserve">
<style type="text/css">
	.st0{fill:#FFFFFF;}
	.st1{fill:#B3B3B3;}
	.st2{fill:none;stroke:#000000;stroke-width:0.75;stroke-linecap:round;stroke-linejoin:round;stroke-miterlimit:10;}
	.st3{fill:#F2F2F2;stroke:#000000;stroke-width:0.75;stroke-linecap:round;stroke-linejoin:round;stroke-miterlimit:10;}
	.st4{fill:#FFFFFF;stroke:#000000;stroke-width:0.5;stroke-linecap:round;stroke-linejoin:round;stroke-miterlimit:10;}
	.st5{fill:#E6E6E6;stroke:#000000;stroke-width:0.5;stroke-linecap:round;stroke-linejoin:round;stroke-miterlimit:10;}
	.st6{fill:#F2F2F2;stroke:#000000;stroke-width:0.5;stroke-linecap:round;stroke-linejoin:round;stroke-miterlimit:10;}
	.st7{fill:none;stroke:#000000;stroke-width:0.5;stroke-linecap:round;stroke-linejoin:round;stroke-miterlimit:10;}
	.st8{fill:none;stroke:#000000;stroke-width:0.75;stroke-linecap:round;stroke-linejoin:round;}
</style>
<g>
	<g>
		<path class="st0" d="M5.8,47.1l22.2,8.2l84.8-32.7V8.9L5.8,47.1z M30.4,46.6c-2.1,0-3.8-0.8-3.8-1.7c0-0.9,1.7-1.7,3.8-1.7
			s3.7,0.8,3.7,1.7C34.2,45.9,32.5,46.6,30.4,46.6z"/>
		<polygon class="st1" points="112.8,71.9 27.9,104.6 27.9,55.2 112.8,22.5 		"/>
		<path class="st2" d="M112.8,8.9L5.8,47.1l22.2,8.2v48c0,0.8,0.6,1.2,1.4,1l83.4-32.4 M30.4,46.6c-2.1,0-3.8-0.8-3.8-1.7
			c0-0.9,1.7-1.7,3.8-1.7s3.7,0.8,3.7,1.7C34.2,45.9,32.5,46.6,30.4,46.6z"/>
		<path class="st3" d="M112.8,71.9L29,104.4l0,0c0.5-0.5,0.8-1.1,0.8-1.8V54.8l82.9-32.2"/>
	</g>
	<g>
		<g>
			<path class="st4" d="M22.9,6.9h5.6H38c0,0-2.5-3.5-7.5-3.5C25.5,3.3,22.9,6.9,22.9,6.9z"/>
			<path class="st5" d="M28.4,7.1v2.2h-0.3l1,1.7h-0.9l0.7,1.4h-0.7l0.7,1.5h-0.8l0.9,1.5h-0.9l0.8,1.3h-0.8l0.8,1.5h-0.8l0.8,1.4
				H28l1,1.9c0,0,0.4,1.7,0.4,2c0.1,0.2,0.3,1,1.1,0.9c0.8,0,0.9-0.7,1-1c0.1-0.4,0.5-1.9,0.5-1.9l1-1.8h-0.8l0.8-1.5h-0.8l0.9-1.4
				h-0.8l0.8-1.3h-0.8l0.8-1.4h-0.7l0.7-1.5h-0.8l0.8-1.5h-0.8l0.8-1.8h-0.4l0-2.4"/>
			
				<rect x="23.3" y="13.8" transform="matrix(1.557759e-02 -0.9999 0.9999 1.557759e-02 15.8898 44.6594)" class="st6" width="14.6" height="1"/>
			<line class="st7" x1="28.9" y1="19.7" x2="30" y2="19.7"/>
			<line class="st7" x1="28.9" y1="18.3" x2="30" y2="18.3"/>
			<line class="st7" x1="28.9" y1="16.8" x2="30" y2="16.8"/>
			<line class="st7" x1="28.9" y1="15.5" x2="30" y2="15.5"/>
			<line class="st7" x1="28.9" y1="14" x2="30" y2="14"/>
			<line class="st7" x1="28.9" y1="12.5" x2="30" y2="12.5"/>
			<line class="st7" x1="28.9" y1="11" x2="30" y2="11"/>
			<line class="st7" x1="31.2" y1="11.2" x2="32.5" y2="11.2"/>
			<line class="st7" x1="31.2" y1="12.7" x2="32.6" y2="12.7"/>
			<line class="st7" x1="31.2" y1="14.1" x2="32.7" y2="14.1"/>
			<line class="st7" x1="31.2" y1="15.5" x2="32.5" y2="15.5"/>
			<line class="st7" x1="31.2" y1="16.9" x2="32.5" y2="16.9"/>
			<line class="st7" x1="31.2" y1="18.3" x2="32.3" y2="18.3"/>
			<line class="st7" x1="31.2" y1="19.8" x2="32.5" y2="19.8"/>
		</g>
		<g>
			<g>
				<line class="st8" x1="30.4" y1="26.4" x2="30.4" y2="32.6"/>
				<g>
					<path d="M30.4,35.8c-0.6-1.5-1.5-3.3-2.5-4.5l2.5,0.9l2.5-0.9C31.9,32.5,31,34.3,30.4,35.8z"/>
				</g>
			</g>
		</g>
	</g>
</g>
</svg>
