<?xml version="1.0" encoding="utf-8"?>
<!-- Generator: Adobe Illustrator 21.1.0, SVG Export Plug-In . SVG Version: 6.00 Build 0)  -->
<svg version="1.1" id="Layer_1" xmlns="http://www.w3.org/2000/svg" xmlns:xlink="http://www.w3.org/1999/xlink" x="0px" y="0px"
	 width="108px" height="108px" viewBox="0 0 108 108" style="enable-background:new 0 0 108 108;" xml:space="preserve">
<style type="text/css">
	.st0{fill:#999999;stroke:#000000;stroke-width:0.75;stroke-linecap:round;stroke-linejoin:round;stroke-miterlimit:10;}
	.st1{fill:#CCCCCC;stroke:#000000;stroke-width:0.75;stroke-linecap:round;stroke-linejoin:round;stroke-miterlimit:10;}
	.st2{fill:#FFFFFF;stroke:#000000;stroke-width:0.75;stroke-linecap:round;stroke-linejoin:round;stroke-miterlimit:10;}
	.st3{fill:#F2F2F2;stroke:#000000;stroke-width:0.75;stroke-linecap:round;stroke-linejoin:round;stroke-miterlimit:10;}
	.st4{fill:#B3B3B3;stroke:#000000;stroke-width:0.75;stroke-linecap:round;stroke-linejoin:round;stroke-miterlimit:10;}
	.st5{fill:#808080;stroke:#000000;stroke-width:0.75;stroke-linecap:round;stroke-linejoin:round;stroke-miterlimit:10;}
	.st6{fill:#E6E6E6;stroke:#000000;stroke-width:0.75;stroke-linecap:round;stroke-linejoin:round;stroke-miterlimit:10;}
</style>
<g>
	<path class="st0" d="M14.5,73.1c-0.1,1.1-0.2,2.2-0.4,3.4c-1.9,1.3-4,2.7-4.5,2.8c-0.2-0.2-0.7-2.2-1-3.7l-0.1,0c0,0,0,0,0,0
		L14.5,73.1z"/>
	<path class="st1" d="M110.3,38.5l-81.1,32l-0.1,0.1l-9,3.9l0,0.1h0l-0.2,0.5c0,0,0,0-0.1,0h0c-0.5,0.2-0.9,0.5-1.4,0.7
		c0.4,0.1,0.8,0.2,1,0.2c0,0,0,0,0,0c0,0,0,0,0,0l0.1,0l90.7-36.2"/>
	<path class="st2" d="M19.9,75.1l0.2-0.6h0L19.9,75.1C19.9,75.1,19.9,75.1,19.9,75.1z"/>
	<path class="st2" d="M18.5,75.8c-0.2,0.1-0.4,0.2-0.6,0.3c0-0.1,0-0.3,0.1-0.4C18.1,75.7,18.3,75.7,18.5,75.8z"/>
	<path class="st3" d="M110.3,8.5L3.8,50.1c0,0,0,0,0,0.1l0.6-0.1l1.9,0.8l0-0.1l104-40.6"/>
	<polygon class="st2" points="6.3,50.9 6.3,51.4 6.3,50.9 	"/>
	<path class="st4" d="M22.2,99.5l0.8-1.4c-0.7-0.4-1.7-1.2-1.7-1.8c0-0.1,0-0.2,0.3-0.5l2.6-2c0.4,0.5,0.6,0.9,0.6,0.9l0.2-0.2l0,0
		l1.1-0.5l4.7-2c0.2,1.3,0.3,2.5,0.3,3.5L22.2,99.5z"/>
	<path class="st5" d="M30.9,92.1l-4.7,2l-1.1,0.5l1-0.8c-0.1-0.1-7.3-10.8-10.3-16.2c2.1,0.2,8.3,1.3,11.5,5.9
		C29.5,86.8,30.5,89.7,30.9,92.1z"/>
	<path class="st2" d="M30.9,92.1C30.9,92.1,30.9,92.1,30.9,92.1l-4.7,2L30.9,92.1z"/>
	<path class="st2" d="M19.9,75.1l0.2-0.6h0L19.9,75.1C19.9,75.1,19.9,75.1,19.9,75.1z"/>
	<path class="st2" d="M110.3,11.4L6.4,52l-0.1-0.6v0.8c0,0-1.3-0.4-1.9-0.7c-0.2,0.2-0.2,0.3-0.5,0.6c1.7,0.7,5.7,2.8,8.5,7
		c2.5,3.7,3.6,7,3.6,11.4c0,0.7,0,1.3-0.1,2c-0.1,1.1-0.2,2.2-0.4,3.4c0.2,0,0.5,0,0.9,0.1l0.2-1.8l0.3-0.3l0.1,0c0-0.1,0-0.1,0-0.1
		l93.3-37.3"/>
	<path class="st2" d="M17.9,75.6c0.2,0,0.3,0.1,0.5,0.1c-0.2,0.1-0.4,0.2-0.6,0.3C17.9,75.9,17.9,75.8,17.9,75.6z"/>
	<path class="st2" d="M19.5,76C19.5,76,19.5,76,19.5,76L19.5,76L19.5,76z"/>
	<path class="st2" d="M19.5,76L19.5,76L19.5,76C19.6,76,19.5,76,19.5,76z"/>
	<polygon class="st2" points="60.9,82.9 58.1,84.1 58.4,84 59,83.7 	"/>
	<polyline class="st2" points="110.3,62.8 35.1,95.2 34,94.5 36.5,93.3 36.6,93.3 58.1,84.1 60.9,82.9 110.3,61.8 	"/>
	<path class="st2" d="M30.9,92.1C30.9,92.1,30.9,92.1,30.9,92.1l-4.7,2L30.9,92.1z"/>
	<path class="st2" d="M34,94.5"/>
	<path class="st2" d="M19.9,75.1l0.2-0.6h0L19.9,75.1C19.9,75.1,19.9,75.1,19.9,75.1z"/>
	<path class="st3" d="M110.3,36.5L17,73.8c0,0,0,0,0,0.1l3.1,0.6l0-0.1l9-3.9l0.1-0.1l81.1-32"/>
	<path class="st3" d="M110.3,61.8L34,94.5c0,1.5-0.5,2.7-0.6,2.8l-0.2,0.1c-0.3,0.1-0.5,0.1-0.5-1.2c0-0.4,0-0.7,0-1.2
		c0-1-0.1-2.2-0.3-3.5c0,0,0,0,0,0c-0.4-2.5-1.5-5.6-3.9-9.1c-2.8-4-7.6-5.6-10.6-6.1c0-0.1,0-0.1,0-0.2v0c0.2-0.1,0.4-0.2,0.6-0.3
		c0.4,0.1,0.8,0.2,1,0.2l0,0l0.1,0c0,0,0,0,0,0c0,0,0,0,0,0l0,0l90.7-36.2"/>
	<path class="st2" d="M17.9,75.6c0.2,0,0.3,0.1,0.5,0.1c-0.2,0.1-0.4,0.2-0.6,0.3C17.9,75.9,17.9,75.8,17.9,75.6z"/>
	<path class="st2" d="M19.5,76C19.5,76,19.5,76,19.5,76L19.5,76L19.5,76z"/>
	<path class="st2" d="M19.5,76L19.5,76L19.5,76C19.6,76,19.5,76,19.5,76z"/>
	<path class="st6" d="M110.3,65.8L34.2,98.4c0.8-0.8,0.8-2.1,0.8-3.2l75.2-32.4"/>
	<path class="st2" d="M19.5,76L19.5,76L19.5,76C19.5,76,19.5,76,19.5,76z"/>
	<path class="st2" d="M20.1,74.5l-0.2,0.5c0,0,0,0-0.1,0L20.1,74.5L20.1,74.5z"/>
	<polyline class="st2" points="110.3,10.1 6.3,50.7 6.3,50.9 6.3,50.9 6.3,51.4 6.4,52 110.3,11.4 	"/>
	<polygon class="st2" points="6.3,50.9 6.3,51.4 6.3,50.9 	"/>
	<path class="st1" d="M35.1,95.2c0,1.1,0,2.5-0.8,3.2h0l0,0h0l-1,0.5c-2,0.4-2-1.6-2-2.4c0-0.3,0-0.5,0-0.8c0-1-0.1-2.2-0.3-3.5
		c0,0,0,0,0,0c-0.4-2.4-1.4-5.3-3.7-8.6c-3.2-4.6-9.3-5.7-11.5-5.9c3,5.4,10.2,16.1,10.3,16.2l-1,0.8l0,0l-0.2,0.2
		c0,0-0.2-0.3-0.6-0.9l-2.6,2c-0.3,0.3-0.3,0.4-0.3,0.5c0,0.6,1,1.4,1.7,1.8l-0.8,1.4l0,0c-0.4-0.2-2.3-0.9-2.3-2.9
		c0-0.5,0.2-1.2,1-1.8l2.6-2c-2.3-3.5-7.1-10.7-9.2-14.7c-1.5,1.1-3.8,2.6-4.7,2.8c-1.4,0.3-2-2.5-2.3-4.6l1.3-0.6l0.1,0
		c0.3,1.5,0.7,3.5,1,3.7c0.5-0.1,2.6-1.4,4.5-2.8c0.2-1.2,0.3-2.4,0.4-3.4c0.4-5.4-0.5-8.8-3.3-13c-3.3-5-8.8-6.9-8.9-6.9L2,52.7
		l1.5-2.5l0.2,0l0.6-0.1l1.9,0.8l0,0.5v0.8c0,0-1.3-0.4-1.9-0.7c-0.2,0.2-0.2,0.3-0.5,0.6c1.7,0.7,5.7,2.8,8.5,7
		c2.5,3.7,3.6,7,3.6,11.4c0,0.7,0,1.3-0.1,2c-0.1,1.1-0.2,2.2-0.4,3.4c0.2,0,0.5,0,0.9,0.1l0.2-1.8l0.3-0.3l0.1,0l3.1,0.6l-0.2,0.6
		h0c-0.5,0.2-0.9,0.5-1.4,0.7c-0.2,0-0.4-0.1-0.5-0.1c0,0.2,0,0.3-0.1,0.4v0c0,0.1,0,0.1,0,0.2c3,0.6,7.8,2.1,10.6,6.1
		c2.4,3.5,3.5,6.6,3.9,9.1c0,0,0,0,0,0c0.2,1.3,0.3,2.5,0.3,3.5c0,0.4,0,0.8,0,1.2c0,1.3,0.2,1.3,0.5,1.2l0.2-0.1
		c0.1-0.1,0.6-1.3,0.6-2.8L35.1,95.2z"/>
	<polygon class="st2" points="6.3,50.9 6.3,51.4 6.3,50.9 	"/>
	<path class="st2" d="M19.6,76L19.6,76C19.6,76,19.5,76,19.6,76L19.6,76z"/>
	<path class="st2" d="M20.1,74.5l-0.2,0.5c0,0,0,0-0.1,0L20.1,74.5L20.1,74.5z"/>
	<path class="st2" d="M34.2,98.4c-0.2,0.2-0.6,0.4-1,0.5L34.2,98.4z"/>
</g>
</svg>
