<?xml version="1.0" encoding="utf-8"?>
<!-- Generator: Adobe Illustrator 21.1.0, SVG Export Plug-In . SVG Version: 6.00 Build 0)  -->
<svg version="1.1" id="Layer_1" xmlns="http://www.w3.org/2000/svg" xmlns:xlink="http://www.w3.org/1999/xlink" x="0px" y="0px"
	 width="108px" height="108px" viewBox="0 0 108 108" style="enable-background:new 0 0 108 108;" xml:space="preserve">
<style type="text/css">
	.st0{fill:#FFFFFF;stroke:#000000;stroke-width:0.5;stroke-linecap:round;stroke-linejoin:round;stroke-miterlimit:10;}
	.st1{fill:#E6E6E6;stroke:#000000;stroke-width:0.5;stroke-linecap:round;stroke-linejoin:round;stroke-miterlimit:10;}
	.st2{fill:#E6E6E6;stroke:#000000;stroke-width:0.75;stroke-linecap:round;stroke-linejoin:round;stroke-miterlimit:10;}
	.st3{fill:#FFFFFF;stroke:#000000;stroke-width:0.75;stroke-linecap:round;stroke-linejoin:round;stroke-miterlimit:10;}
	.st4{fill:#F2F2F2;stroke:#000000;stroke-width:0.75;stroke-linecap:round;stroke-linejoin:round;stroke-miterlimit:10;}
	.st5{fill:#CCCCCC;stroke:#000000;stroke-width:0.75;stroke-linecap:round;stroke-linejoin:round;stroke-miterlimit:10;}
	.st6{fill:none;stroke:#000000;stroke-width:0.75;stroke-linecap:round;stroke-linejoin:round;stroke-miterlimit:10;}
</style>
<g>
	<polygon class="st0" points="4.1,60.2 4.1,65.8 2,61.5 	"/>
	<polygon class="st1" points="5.7,58.3 5.7,59.5 5.7,60.2 5.6,83.1 4,82.7 4.1,65.8 4.1,65.8 4.1,60.2 4.1,59.2 4.3,59.3 4.1,59.1 	
		"/>
	<path class="st2" d="M116.7,17.4L12.4,57.9l-2.3-1.1l0-1.8c0-0.8-0.2-1.7-0.8-2.1c-0.2-0.1-0.5-0.2-0.8-0.2C8.3,52.8,8,53.2,8,54
		L8,66.7l0,1.6l0.3,0l0-1.6L116.7,25"/>
	<polyline class="st3" points="116.7,26.6 8.2,68.3 8,68.4 7.9,84 7.9,85.6 8.2,85.6 8.2,84 116.6,42.2 116.7,42.2 	"/>
	<path class="st3" d="M116.7,25"/>
	<path class="st4" d="M116.6,43.8L8.2,85.6l-0.3,0l-0.1,9.2C7.8,97,8.4,98,9,97.9c0.3,0,0.6-0.3,0.6-1.1l0-6.6l107-40"/>
	<path class="st4" d="M116.7,52.8L11.9,91.6l0,5.1c0,2.1-0.9,3.8-2.1,4.4l0,0l106.9-38.8"/>
	<path class="st3" d="M116.7,6.7L7.9,49.4c0.1,0,0.2-0.1,0.4-0.1c1.2-0.1,2.4,0.6,3.2,1.9c0.1,0.2,0.3,0.5,0.4,0.7
		c0.4,0.8,0.5,1.7,0.5,2.7l0,3.3l104.3-40.5"/>
	<g>
		<g>
			<path class="st5" d="M10.1,56.8l0-1.8c0-0.8-0.2-1.7-0.8-2.1c-0.2-0.1-0.5-0.2-0.8-0.2C8.3,52.8,8,53.2,8,54L8,66.7l0,1.6L7.9,84
				l0,1.6l-0.1,9.2C7.8,97,8.4,98,9,97.9c0.3,0,0.6-0.3,0.6-1.1l0-6.6l2.3,1.3l0,5.1c0,2.1-0.9,3.8-2.1,4.4
				c-0.2,0.1-0.5,0.2-0.8,0.2c-1.5,0.1-3.1-1.4-3.4-4.8C5.6,96,5.5,95.5,5.5,95l0.1-11.9l0.1-22.9l0-0.7l0-1.2l0-5
				c0-0.6,0.2-2.5,1.5-3.5l0.3-0.2c0.1-0.1,0.3-0.1,0.4-0.2c0.1,0,0.2-0.1,0.4-0.1c1.2-0.1,2.4,0.6,3.2,1.9c0.1,0.2,0.3,0.5,0.4,0.7
				c0.4,0.8,0.5,1.7,0.5,2.7l0,3.3L10.1,56.8z"/>
		</g>
	</g>
	<polyline class="st3" points="116.7,50.2 9.6,90.2 11.9,91.6 116.7,52.8 	"/>
	<line class="st6" x1="13.8" y1="51.6" x2="116.2" y2="12.1"/>
	<polyline class="st3" points="116.7,25 8.2,66.7 8.2,68.3 116.7,26.6 	"/>
	<polyline class="st3" points="116.6,42.2 8.2,84 8.2,85.6 116.6,43.8 	"/>
</g>
</svg>
