<?xml version="1.0" encoding="utf-8"?>
<!-- Generator: Adobe Illustrator 21.1.0, SVG Export Plug-In . SVG Version: 6.00 Build 0)  -->
<svg version="1.1" id="Layer_1" xmlns="http://www.w3.org/2000/svg" xmlns:xlink="http://www.w3.org/1999/xlink" x="0px" y="0px"
	 width="108px" height="108px" viewBox="0 0 108 108" style="enable-background:new 0 0 108 108;" xml:space="preserve">
<style type="text/css">
	.st0{fill:#FFFFFF;stroke:#000000;stroke-width:0.75;stroke-linecap:round;stroke-linejoin:round;stroke-miterlimit:10;}
	.st1{fill:#FFFFFF;stroke:#000000;stroke-width:0.5;stroke-linecap:round;stroke-linejoin:round;stroke-miterlimit:10;}
	.st2{fill:#E6E6E6;stroke:#000000;stroke-width:0.5;stroke-linecap:round;stroke-linejoin:round;stroke-miterlimit:10;}
	.st3{fill:#E6E6E6;stroke:#000000;stroke-width:0.75;stroke-linecap:round;stroke-linejoin:round;stroke-miterlimit:10;}
	.st4{fill:#F2F2F2;stroke:#000000;stroke-width:0.75;stroke-linecap:round;stroke-linejoin:round;stroke-miterlimit:10;}
	.st5{fill:#CCCCCC;stroke:#000000;stroke-width:0.75;stroke-linecap:round;stroke-linejoin:round;stroke-miterlimit:10;}
	.st6{fill:none;stroke:#000000;stroke-width:0.5;stroke-linecap:round;stroke-linejoin:round;stroke-miterlimit:10;}
	.st7{fill:none;stroke:#000000;stroke-width:0.75;stroke-linecap:round;stroke-linejoin:round;stroke-miterlimit:10;}
</style>
<g>
	<polygon class="st0" points="5.8,85 5.7,86.6 5.7,85.1 	"/>
	<polyline class="st1" points="3.7,91.5 2,88 3.9,86.8 	"/>
	<polygon class="st2" points="5.7,85.1 5.6,96.8 3.6,96.6 3.7,86.2 3.8,86.2 3.7,86.1 	"/>
	<polygon class="st0" points="6,52.5 5.9,52.5 5.9,51.5 6,51.5 	"/>
	<polyline class="st1" points="4.1,56.7 2.5,53.2 4.4,52 	"/>
	<polygon class="st2" points="5.9,50.4 5.8,61.9 4.1,61.8 4.1,51.4 4.2,51.3 	"/>
	<polygon class="st0" points="6,61.9 5.8,61.9 5.9,52.5 5.9,51.5 6,51.5 6,52.5 	"/>
	<path class="st3" d="M115.3,18.6L8.1,59.7v1.2H7.7v-1.2l0-11.9c0-1,0.2-1.5,0.4-1.6c0,0,0.1,0,0.1,0c0.2,0,0.4,0.1,0.6,0.3
		C9,46.7,9.1,47,9.2,47.4l0,0l2,0.2c0-0.1,0-0.1,0-0.2L115.5,7.3"/>
	<path class="st0" d="M114.8,45.1 M114.6,56.4 M115.3,19.8L8.1,60.9H7.7L7.6,86.2l0,2.6l0,8.1c0,2.6,0.5,3.8,0.9,3.8c0,0,0,0,0,0
		c0.2,0,0.5-0.4,0.5-1.3v-2.1l1.9,0.4l0.3,0l103.3-40.3h0.2 M114.7,45.1L8,86.2V85l106.6-41.1"/>
	<path class="st4" d="M114.5,62.9L9.2,104.4c0.4-0.3,0.7-0.7,1-1.4c0.4-1,0.7-2.3,0.7-3.8l0-1.6l0.3,0l103.3-40.3h0.2"/>
	<path class="st0" d="M115.5,7.3L11.2,47.4c-0.1-1.3-0.5-2.5-1-3.3c-0.6-1.2-1.5-1.9-2.3-1.8L115.9,1.3"/>
	<path class="st5" d="M9,97.2l1.9,0.4l0,1.6c0,1.5-0.3,2.8-0.7,3.8c-0.3,0.6-0.6,1.1-1,1.4l-0.7,0.3c-1.3,0.1-2.8-2.2-2.8-7.6
		l0.2-50.1c0-0.7,0.1-2.8,1.2-4.3l0.2-0.2c0.2-0.1,0.4-0.2,0.6-0.2c0.8-0.1,1.6,0.6,2.3,1.8c0.5,0.9,0.8,2,1,3.3c0,0.1,0,0.1,0,0.2
		l-2-0.2l0,0C9.1,47,9,46.7,8.8,46.5c-0.1-0.1-0.4-0.3-0.6-0.3c0,0-0.1,0-0.1,0c-0.2,0.1-0.4,0.6-0.4,1.6l0,11.9v1.2L7.6,86.2l0,2.6
		l0,8.1c0,2.6,0.5,3.8,0.9,3.8c0,0,0,0,0,0c0.2,0,0.5-0.4,0.5-1.3V97.2z"/>
	<line class="st6" x1="11.9" y1="43.6" x2="114.8" y2="3.6"/>
	<polyline class="st0" points="115.3,19.8 115.3,19.8 8.1,60.9 8.1,59.7 115.3,18.6 	"/>
	<polyline class="st0" points="114.7,45.1 8,86.2 8,85 114.7,43.9 	"/>
	<line class="st7" x1="8.9" y1="97.2" x2="114.5" y2="56.4"/>
</g>
</svg>
