<?xml version="1.0" encoding="utf-8"?>
<!-- Generator: Adobe Illustrator 21.1.0, SVG Export Plug-In . SVG Version: 6.00 Build 0)  -->
<svg version="1.1" id="Layer_1" xmlns="http://www.w3.org/2000/svg" xmlns:xlink="http://www.w3.org/1999/xlink" x="0px" y="0px"
	 width="108px" height="108px" viewBox="0 0 108 108" style="enable-background:new 0 0 108 108;" xml:space="preserve">
<style type="text/css">
	.st0{fill:#FFFFFF;stroke:#231F20;stroke-width:0.75;stroke-linecap:round;stroke-linejoin:round;}
	.st1{fill:#E6E6E6;stroke:#231F20;stroke-width:0.75;stroke-linecap:round;stroke-linejoin:round;}
	.st2{fill:#CCCCCC;stroke:#231F20;stroke-width:0.75;stroke-linecap:round;stroke-linejoin:round;}
	.st3{fill:none;stroke:#231F20;stroke-width:0.75;stroke-linecap:round;stroke-linejoin:round;}
	.st4{fill:#999999;stroke:#231F20;stroke-width:0.75;stroke-linecap:round;stroke-linejoin:round;}
</style>
<g>
	<path class="st0" d="M91.1,27.9c-0.9-0.1-1.8,0-2.7,0.2c-5.4,1.3-8.8,5-8.9,9l-0.2,0.1l0-0.1L11.5,16.2c0,0,2.3-5,6.9-7.2
		c2.2-1.1,4.5-1.4,9.6-0.2L91.1,27.9z"/>
	<polygon class="st1" points="79.3,37.1 74.3,38.5 74.3,38.5 7.4,17 11.5,16.2 79.3,37 	"/>
	<polygon class="st0" points="74.3,38.5 74.1,45.5 11.5,25.3 11.5,25 7.3,23.9 7.4,17 74.3,38.5 	"/>
	<polygon class="st0" points="79.1,94.7 76.8,96 76.8,90 76.8,89.9 76.7,89.9 11.4,67.3 11.5,25.3 74.1,45.5 76.7,44.8 76.8,40.7 
		79,40.2 	"/>
	<polygon class="st2" points="74.1,91.7 74.1,91.9 74,91.9 7.9,68.5 11.4,67.3 76.7,89.9 	"/>
	<polygon class="st0" points="74.3,100 74.3,100 74.3,100 7.6,76 7.9,68.5 74,91.9 74.1,91.9 	"/>
	<path class="st0" d="M92.3,28.2c0,0-1.5,0-3.4,0.5c0,0,0,0-0.1,0c-1.1,0.3-2.3,0.8-3.5,1.6c0,0,0,0,0,0c-2.5,1.7-4.8,4.9-4.8,10.6
		c0,4.9-0.1,13.8-0.2,23c0,0.3,0,0.5,0,0.8c-0.2,14.9-0.5,30.3-0.5,30.3l-5.5,4.9l-0.3-8.1l0-0.2l2.6-1.8l0.1-0.1V90l0,6l2.3-1.3
		l0-54.5l-2.3,0.5l-0.1,4.2l-2.6,0.7l0.3-7l5-1.4l0.2-0.1c0.2-4,3.5-7.6,8.9-9c1-0.2,1.9-0.3,2.7-0.2c0,0,0,0,0,0L92.3,28.2z"/>
	<polyline class="st3" points="76.7,89.9 76.8,90 76.8,90 	"/>
	<line class="st3" x1="11.5" y1="25.3" x2="7.3" y2="23.9"/>
	<path class="st4" d="M100.6,59.1L81,52.3c0,0-0.6,10.4-0.6,12.5c0,2.1,3.3,7.3,8.6,4.7C94.3,66.8,94.9,61.2,100.6,59.1z"/>
	<path class="st4" d="M95.4,39.5l-13.6-4.3c0,0,3.8-9.2,10.6-5.7C99.2,33,95.4,39.5,95.4,39.5z"/>
	<path class="st2" d="M100.7,59.1l-0.7,2.4c0,0-1.9-0.4-3.3,3.2c-1.4,3.7-6,6.8-9.8,7c-2.2,0.1-4.2-1.1-5.5-2.2c0,7,0,15.7,0,26.7
		l-7.1,4v0l-0.3-8.1l0-0.2l2.6-1.8l0.1-0.1V90l0,6l2.3-1.3l0-54.5l-2.3,0.5l-0.1,4.2l-2.6,0.7l0.3-7l5-1.4l0.2-0.1
		c0.2-4,3.5-7.6,8.9-9c1-0.2,1.9-0.3,2.7-0.2c0,0,0,0,0,0c4,0.4,6.6,3.9,6.6,6.7c0,2.2,0,1.8,0,4.3l-2.5,0.7c0,0,0,0,0-0.1v-4.3
		c0-1.9-2.5-5.2-6.6-4.3c-2,0.5-4.6,2.4-6,4.6c-0.6,1-1,2-1,3c0,2-0.1,2.9-0.2,13.9c0,3.4,0,7.7-0.1,13.2c1.3,1.4,3.3,3,5.4,3
		c3.7,0,7.3-4.2,8.6-7.3c1.1-2.7,4.3-2.4,5.1-2.3h0C100.6,59.1,100.7,59.1,100.7,59.1z"/>
</g>
</svg>
