<?xml version="1.0" encoding="utf-8"?>
<!-- Generator: Adobe Illustrator 21.1.0, SVG Export Plug-In . SVG Version: 6.00 Build 0)  -->
<svg version="1.1" id="Layer_1" xmlns="http://www.w3.org/2000/svg" xmlns:xlink="http://www.w3.org/1999/xlink" x="0px" y="0px"
	 width="108px" height="108px" viewBox="0 0 108 108" style="enable-background:new 0 0 108 108;" xml:space="preserve">
<style type="text/css">
	.st0{fill:#B3B3B3;stroke:#231F20;stroke-width:0.75;stroke-linecap:round;stroke-linejoin:round;}
	.st1{fill:#F2F2F2;stroke:#231F20;stroke-width:0.75;stroke-linecap:round;stroke-linejoin:round;}
	.st2{fill:#FFFFFF;stroke:#231F20;stroke-width:0.75;stroke-linecap:round;stroke-linejoin:round;}
	.st3{fill:#E6E6E6;stroke:#231F20;stroke-width:0.75;stroke-linecap:round;stroke-linejoin:round;}
</style>
<g>
	<polygon class="st0" points="27,68.6 4.1,76.3 8.6,68.1 12.2,48.5 27.1,43.9 	"/>
	<polygon class="st0" points="26.9,64.1 14.3,69.5 13.1,64.6 19.9,59 26.8,56.2 	"/>
	<polyline class="st1" points="112.4,58 30.3,89 30.2,89.2 30.2,89.1 30.2,94.5 28,93.5 28.1,42.6 29.7,43 30,47.3 32,47.8 32,47.7 
		113.3,19.2 	"/>
	<polyline class="st2" points="113.3,12.6 31.7,41.1 31.7,41.2 26.1,39.4 113.4,8.9 	"/>
	<path class="st2" d="M113.3,19.2"/>
	<polyline class="st2" points="112.4,67.1 32.1,97.5 32.3,90.1 30.2,89.2 30.3,89 112.4,58 	"/>
	<polygon class="st2" points="32.3,90.1 32.1,97.5 27.3,94.6 26.7,68.7 26.6,64.2 26.4,56.4 26.2,44.2 26.1,39.4 26.1,39.4 
		31.7,41.2 31.8,41.2 32,47.7 32,47.8 30,47.3 29.7,43 28.1,42.6 28,93.5 30.2,94.5 30.2,89.1 30.2,89.2 	"/>
	<polyline class="st2" points="113.3,19.2 32,47.7 31.8,41.2 31.7,41.2 31.7,41.1 113.3,12.6 	"/>
	<polygon class="st2" points="32,47.7 31.8,47.8 31.7,41.2 31.8,41.2 	"/>
	<polygon class="st3" points="32.3,90.1 32.1,97.5 26.1,95.3 26.1,62.3 22.4,63.8 19.4,61.3 13.9,64.7 15.8,68.8 14.3,69.5 
		11.6,63.8 19.9,59 22.7,61.8 26.1,60.3 26.1,54.2 13.3,50.6 10.7,63.6 8.9,72.3 4.2,76.2 3.7,76.6 3,74.6 6.6,71.5 12.2,48.5 
		26.1,52 26.1,39.4 26.1,39.4 31.7,41.2 31.8,41.2 32,47.7 32,47.8 30,47.3 29.7,43 28.1,42.6 28,93.5 30.2,94.5 30.2,89.1 
		30.2,89.2 	"/>
</g>
</svg>
