<?xml version="1.0" encoding="utf-8"?>
<!-- Generator: Adobe Illustrator 21.1.0, SVG Export Plug-In . SVG Version: 6.00 Build 0)  -->
<svg version="1.1" id="Layer_1" xmlns="http://www.w3.org/2000/svg" xmlns:xlink="http://www.w3.org/1999/xlink" x="0px" y="0px"
	 width="108px" height="108px" viewBox="0 0 108 108" style="enable-background:new 0 0 108 108;" xml:space="preserve">
<style type="text/css">
	.st0{fill:#999999;stroke:#231F20;stroke-width:0.75;stroke-linecap:round;stroke-linejoin:round;}
	.st1{fill:#F2F2F2;stroke:#231F20;stroke-width:0.75;stroke-linecap:round;stroke-linejoin:round;}
	.st2{fill:#E6E6E6;stroke:#231F20;stroke-width:0.75;stroke-linecap:round;stroke-linejoin:round;}
	.st3{fill:#FFFFFF;stroke:#231F20;stroke-width:0.75;stroke-linecap:round;stroke-linejoin:round;}
	.st4{fill:#CCCCCC;stroke:#231F20;stroke-width:0.75;stroke-linecap:round;stroke-linejoin:round;}
</style>
<g>
	<path class="st0" d="M11.4,44.8l9.1-2.6c0,0-4-4.2-7-3.3S11.4,44.8,11.4,44.8z"/>
	<path class="st0" d="M11.4,88.8l18.1-5.4c0,0-4.6,13.1-11.3,14.1S11.4,88.8,11.4,88.8z"/>
	<path class="st1" d="M111.4,4.1L13.1,36.5c0,0-2.8,1.2,0.7,1.3C17.4,38,26.1,45,29.7,65.2C33.3,85.4,20,97.6,20,97.6l9.8,4.5
		l81.6-31.9"/>
	<polyline class="st2" points="111.4,63.2 24.1,97 28.9,99.3 111.4,67 	"/>
	<polyline class="st3" points="111.4,10.5 28.5,40.8 30.7,49.8 111.4,20.3 	"/>
	<path class="st4" d="M32.8,47.9l-2.2,2l-3.6-6l-3.4-0.8c0,0,9,15.8,9,29C32.6,87.5,24,97,24,97l4.2,1.4l3.9-4.2l2.2,2.9l-4.5,4.9
		l-9.6-2.8c0,0-3.4,2-6.6-0.5c-3.2-2.5-4.2-8.2-4.2-8.2l2-1.8c0,0,1.9,5.6,5.1,7.4C19.7,98,29,87.5,29,72.6
		c0-14.9-8.3-30.3-13.4-32.1c-4.3-1.6-4.1,4.3-4.1,4.3l-2.7-1.5c0,0,0.3-7.4,6-6.8c4.3,0.5,5.7,2.4,5.7,2.4l8.1,2L32.8,47.9z"/>
</g>
</svg>
