<?xml version="1.0" encoding="utf-8"?>
<!-- Generator: Adobe Illustrator 21.1.0, SVG Export Plug-In . SVG Version: 6.00 Build 0)  -->
<svg version="1.1" id="Layer_1" xmlns="http://www.w3.org/2000/svg" xmlns:xlink="http://www.w3.org/1999/xlink" x="0px" y="0px"
	 width="108px" height="108px" viewBox="0 0 108 108" style="enable-background:new 0 0 108 108;" xml:space="preserve">
<style type="text/css">
	.st0{fill:#FFFFFF;stroke:#231F20;stroke-width:0.5;stroke-linecap:round;stroke-linejoin:round;}
	.st1{fill:#F2F2F2;stroke:#231F20;stroke-width:0.5;stroke-linecap:round;stroke-linejoin:round;}
	.st2{fill:#F2F2F2;stroke:#231F20;stroke-width:0.75;stroke-linecap:round;stroke-linejoin:round;}
	.st3{fill:#FFFFFF;stroke:#231F20;stroke-width:0.75;stroke-linecap:round;stroke-linejoin:round;}
	.st4{fill:#E6E6E6;stroke:#231F20;stroke-width:0.75;stroke-linecap:round;stroke-linejoin:round;}
	.st5{fill:#CCCCCC;stroke:#000000;stroke-width:0.75;stroke-linecap:round;stroke-linejoin:round;stroke-miterlimit:10;}
	.st6{fill:none;stroke:#231F20;stroke-width:0.5;stroke-linecap:round;stroke-linejoin:round;}
</style>
<g>
	<g>
		<path class="st0" d="M6.1,87C5.5,80.8,2,77.8,2,77.8l4.4-1.9L6.1,87z"/>
		<polyline class="st1" points="8.5,97.6 5.4,97 5.8,74.8 8.8,75.6 		"/>
		<path class="st2" d="M112.3,48.7l-102,24.9L10,73.7c0,0,0,6.7,0,12.8v9.6c0,1.8,1.3,2.4,2.1,2.2c0.4-0.1,0.7-0.5,0.7-1
			c0-1.6,0.1-8.1,0.1-8.1l0.2,0.1l99.2-24.1"/>
		<polyline class="st3" points="112.3,47.3 7.6,72.8 7.6,72.9 10,73.7 10.2,73.6 112.3,48.7 		"/>
		<path class="st3" d="M10,73.7c0,0,0,6.7,0,12.8l-1.3-7.1v0l-0.7-4l-0.4-2.5L10,73.7z"/>
		<path class="st4" d="M112.3,66.6L15.5,90.2c0,0,0,0,0,0l-2.4-1l-0.2-0.1c0,0-0.1,6.5-0.1,8.1c0,0.5-0.3,0.9-0.7,1l0.6,3.3v0
			l99.5-24.2"/>
		<path class="st3" d="M112.3,65.1L13.1,89.2l2.4,1c0,0,0,0,0,0l96.7-23.6"/>
		<path class="st2" d="M13.1,89.2l2.4,1c0,0,0,0,0,0l-0.2,0L13.1,89.2L13.1,89.2z"/>
		<path class="st5" d="M15.5,90.2C15.5,90.2,15.5,90.2,15.5,90.2v6.9c0,1.9-1,4.1-2.8,4.4c-0.6,0.1-1.3,0.1-2-0.3
			c-2.2-1.1-3-2.4-3.2-3.8c-0.1-0.7-0.1-1.5-0.1-2.3c0-1.8,0-14.5,0.1-19.9c0-1.5,0-2.4,0-2.4l0.1,0l2.4,0.8c0,0,0,6.7,0,12.8v9.6
			c0,1.8,1.3,2.4,2.1,2.2c0.4-0.1,0.7-0.5,0.7-1c0-1.6,0.1-8.1,0.1-8.1l0.2,0.1L15.5,90.2z"/>
	</g>
	<g>
		<path class="st3" d="M112.3,6.4L9.6,29.3c0.3,0,0.7,0,1.1,0.1c1.8,0.4,3.8,2,3.8,3.8c0,3.6,0.2,7.6,0.2,7.6l97.5-21.4"/>
		<path class="st2" d="M112.3,19.4L14.7,40.8l-2.3-0.2c0,0,0-5.5,0-6.7c0-1.2-3.2-3.2-3.2-0.8s0,26.6,0,26.6l103-26.2"/>
		<path class="st3" d="M12.4,40.7c0,0,0-5.5,0-6.7c0-1.2-3.2-3.2-3.2-0.8s0,26.6,0,26.6L8.8,37.4v-0.1l-0.1-3.6l-0.1-4c0,0,0,0,0,0
			h0l1-0.2c0.3,0,0.7,0,1.1,0.1c1.8,0.4,3.8,2,3.8,3.8c0,3.6,0.2,7.6,0.2,7.6L12.4,40.7z"/>
		<path class="st0" d="M6.1,45C5.5,38.8,2,35.8,2,35.8l4.4-1.9L6.1,45z"/>
		<polyline class="st1" points="8.5,55.7 5.6,55 5.6,32.9 8.8,33.6 		"/>
		<line class="st0" x1="17.3" y1="30.5" x2="108.3" y2="10.7"/>
		<line class="st6" x1="5.6" y1="32.9" x2="7.9" y2="32.1"/>
		<path class="st5" d="M12.4,40.7c0,0,0-5.5,0-6.7c0-1.2-3.2-3.2-3.2-0.8s0,26.6,0,26.6l-2.1-0.9c0,0,0-1.4,0-3.5V32
			c0-1.2,0.6-2.1,1.4-2.4c0,0,0,0,0,0h0c0.3-0.1,0.6-0.2,1-0.2c0.3,0,0.7,0,1.1,0.1c1.8,0.4,3.8,2,3.8,3.8c0,3.6,0.2,7.6,0.2,7.6
			L12.4,40.7z"/>
	</g>
</g>
</svg>
