<?xml version="1.0" encoding="utf-8"?>
<!-- Generator: Adobe Illustrator 21.1.0, SVG Export Plug-In . SVG Version: 6.00 Build 0)  -->
<svg version="1.1" id="Layer_1" xmlns="http://www.w3.org/2000/svg" xmlns:xlink="http://www.w3.org/1999/xlink" x="0px" y="0px"
	 width="108px" height="108px" viewBox="0 0 108 108" style="enable-background:new 0 0 108 108;" xml:space="preserve">
<style type="text/css">
	.st0{fill:#F2F2F2;stroke:#231F20;stroke-width:0.5;stroke-linecap:round;stroke-linejoin:round;}
	.st1{fill:#FFFFFF;stroke:#231F20;stroke-width:0.5;stroke-linecap:round;stroke-linejoin:round;}
	.st2{fill:#F2F2F2;stroke:#000000;stroke-width:0.75;stroke-linecap:round;stroke-linejoin:round;stroke-miterlimit:10;}
	.st3{fill:#E6E6E6;stroke:#231F20;stroke-width:0.75;stroke-linecap:round;stroke-linejoin:round;}
	.st4{fill:#FFFFFF;stroke:#000000;stroke-width:0.75;stroke-linecap:round;stroke-linejoin:round;stroke-miterlimit:10;}
	.st5{fill:#CCCCCC;stroke:#000000;stroke-width:0.75;stroke-linecap:round;stroke-linejoin:round;stroke-miterlimit:10;}
	.st6{fill:#E6E6E6;stroke:#000000;stroke-width:0.75;stroke-linecap:round;stroke-linejoin:round;stroke-miterlimit:10;}
</style>
<g>
	<path class="st0" d="M12,54.1c-1.6-0.6-2-0.3-2-2V35.2c0.6,0.3,1.2,0.5,1.7,0.8C11.8,42,11.9,48,12,54.1z"/>
	<path class="st0" d="M12.5,89.6L12.5,89.6c-1.8-0.7-2-0.4-2-2.2V72.5c0-0.9,0-1.3,0.2-1.6l1.5,0.7L12.5,89.6z"/>
	<path class="st1" d="M10.5,72.5v13c-0.7-4.7-3.6-8.7-7.9-10.7C5.2,73.9,7.8,73.1,10.5,72.5z"/>
	<path class="st2" d="M112.3,80.3c-17.6,5.2-89.3,21.9-90.3,21.8h0V90.7l90.3-22"/>
	<path class="st0" d="M12.2,71.6l-1.5-0.7c0.2-0.3,0.6-0.4,1.5-0.7L12.2,71.6z"/>
	<path class="st3" d="M22,90.7v11.4c-1.2-0.1-2.9-1.2-4-1.6c-1.8-0.7-3.5-1.4-5.3-2.1l-0.1-8.7l-0.3-18l0-1.4l0-2.6
		c0-1.2,0.5-2.4,1.3-3.3c0,0.1,0.3,0.5,0.6,0.9c0.2,0.3,0.4,0.5,0.5,0.7c0.2,0.6,0.3,1.2,0.3,1.8c0.1,5.9,0.3,11.8,0.4,17.7
		c0.1,3.3,0.2,6.5,0.2,9.8c0,0.3-0.1,1.4,0,1.6c0.5,0.8,2.9,1.4,3.8,1.8v-8.4c0.2-0.5,0.6-0.8,1.1-0.9C21.2,89.1,22.1,89.7,22,90.7z
		"/>
	<path class="st0" d="M11.7,36c-0.6-0.3-1.2-0.5-1.7-0.8c0.6-0.2,1.2-0.4,1.7-0.6C11.7,35.1,11.7,35.6,11.7,36z"/>
	<path class="st1" d="M9.9,36.9V50C9.3,45.3,6.3,41.2,2,39.2C4.6,38.3,7.2,37.6,9.9,36.9z"/>
	<path class="st4" d="M112.3,16.1l-83.2,20c-5.9-2.7-11.7-5.3-17.6-8L112.3,2.8"/>
	<path class="st2" d="M112.3,34.2L29,53.5c0-5.8,0.1-11.6,0.1-17.4l83.2-20"/>
	<path class="st5" d="M112.3,39.3L14,63.6l-0.1-0.1c0.2-0.3,0.4-0.6,0.5-0.7c0.2-0.6,0.3-1.2,0.3-1.8L14,31.7
		c1.9,0.9,3.8,1.8,5.7,2.7c1.3,0.6,2.7,1.3,4.1,1.9c0.5,0.2,2.1,0.6,2.4,1.1c0.7,1,0.1,4.3,0.1,5.5v6.8c-1.6-0.8-3.3-1.5-4.9-2.3v10
		c0,1.4,1.6,1.7,2.4,1l0,0l88.6-21.4"/>
	<path class="st2" d="M112.3,66.4l-92,22.8l0,0c-0.5,0.1-0.9,0.3-1.1,0.9v8.4c-0.9-0.4-3.3-1-3.8-1.8c-0.2-0.3,0-1.3,0-1.6
		c-0.1-3.3-0.2-6.5-0.2-9.8c-0.1-5.9-0.3-11.8-0.4-17.7c0-0.6-0.1-1.2-0.3-1.8c-0.1-0.1-0.3-0.4-0.5-0.7c-0.3-0.3-0.6-0.7-0.6-0.9
		c0-0.1,0.2-0.4,0.4-0.7l0.1,0.1l98.4-24.3"/>
	<path class="st4" d="M112.3,68.7L22,90.7c0.1-1-0.8-1.5-1.6-1.4l0,0l92-22.8"/>
	<path class="st3" d="M29,53.5c-1.6-0.7-3.3-1.4-4.9-2.1l0,6c0,0.4-0.2,0.8-0.4,1c-0.8,0.7-2.3,0.4-2.4-1v-10
		c1.6,0.8,3.3,1.5,4.9,2.3v-6.8c0-1.2,0.6-4.5-0.1-5.5c-0.3-0.5-1.9-0.9-2.4-1.1c-1.4-0.6-2.7-1.3-4.1-1.9c-1.9-0.9-3.8-1.8-5.7-2.7
		L14.7,61c0,0.6-0.1,1.3-0.3,1.8c-0.1,0.2-0.3,0.5-0.5,0.7c-0.2,0.3-0.4,0.5-0.4,0.7c-0.8-0.9-1.3-2-1.4-3.2c0-2.3-0.1-4.6-0.1-6.9
		c-0.1-6-0.2-12-0.3-18c0-0.5,0-1,0-1.4c0-2.2-0.1-4.3-0.1-6.5c5.9,2.7,11.7,5.3,17.6,8C29.1,41.9,29,47.7,29,53.5z"/>
	<path class="st6" d="M112.3,36.9L23.7,58.4l0,0c0.3-0.2,0.4-0.6,0.4-1l0-6c1.6,0.7,3.3,1.4,4.9,2.1l83.3-19.3"/>
</g>
</svg>
