<?xml version="1.0" encoding="utf-8"?>
<!-- Generator: Adobe Illustrator 21.1.0, SVG Export Plug-In . SVG Version: 6.00 Build 0)  -->
<svg version="1.1" id="Layer_1" xmlns="http://www.w3.org/2000/svg" xmlns:xlink="http://www.w3.org/1999/xlink" x="0px" y="0px"
	 width="108px" height="108px" viewBox="0 0 108 108" style="enable-background:new 0 0 108 108;" xml:space="preserve">
<style type="text/css">
	.st0{fill:#999999;stroke:#231F20;stroke-width:0.75;stroke-linecap:round;stroke-linejoin:round;}
	.st1{fill:#FFFFFF;stroke:#231F20;stroke-width:0.5;stroke-linecap:round;stroke-linejoin:round;}
	.st2{fill:#F2F2F2;stroke:#231F20;stroke-width:0.5;stroke-linecap:round;stroke-linejoin:round;}
	.st3{fill:#FFFFFF;stroke:#231F20;stroke-width:0.75;stroke-linecap:round;stroke-linejoin:round;}
	.st4{fill:#CCCCCC;stroke:#231F20;stroke-width:0.75;stroke-linecap:round;stroke-linejoin:round;}
</style>
<g>
	<path class="st0" d="M10.1,45.4l-3.3,0.7c0,0-1.4-17.3,0.5-17.2c1.9,0.2,2.1,3.9,2.1,6.7S10.1,45.4,10.1,45.4z"/>
	<path class="st1" d="M3.8,37.9C3.6,35.1,2,33.8,2,33.8L3.9,33L3.8,37.9z"/>
	<polyline class="st2" points="4.9,44.2 4,44 3.7,32.5 5,32.8 	"/>
	<path class="st0" d="M5.2,87.3l4.3-1l0,15.7c0,0-0.1,2.2-1.6,1.7c-1.5-0.4-1.8-0.7-1.8-3.7S5.2,87.3,5.2,87.3z"/>
	<path class="st1" d="M4.4,95.4c-0.3-2.8-1.8-4.1-1.8-4.1l1.9-0.8L4.4,95.4z"/>
	<polyline class="st2" points="5.5,101.7 4.2,101.4 4.3,90 5.6,90.3 	"/>
	<path class="st3" d="M115.7,4.9c0,0-108.1,23.1-109.3,24c-1.2,0.9,2.1,1.4,2.1,3.3c0,1.7,0.7,59.7,0.7,70c0,1-0.9,3.1-0.9,3.1
		l108.4-25.2"/>
	<line class="st1" x1="12.2" y1="32.4" x2="115.7" y2="10.3"/>
	<line class="st1" x1="12.2" y1="42.5" x2="115.7" y2="20.4"/>
	<line class="st1" x1="12.2" y1="46" x2="115.7" y2="23.9"/>
	<line class="st1" x1="12.2" y1="86.2" x2="115.7" y2="64.1"/>
	<line class="st1" x1="12.2" y1="88.5" x2="115.7" y2="66.4"/>
	<line class="st1" x1="12.2" y1="98.1" x2="115.7" y2="76"/>
	<path class="st4" d="M4.9,45.5c0,0-0.2-12.8-0.2-13.8c0-1.6,1.3-3.4,3.3-2.5c2.4,1.1,2.3,2.3,2.3,3.7c0,1.4,0.1,69.4,0.1,70.6
		c0,1.3-1.1,1.9-2.4,1.6c-1.3-0.3-2.6-1.2-2.6-2.3c0-2.2-0.1-15.5-0.1-15.5l2,0.2c0,0,0,13.6,0,14.3c0,0.7,1.4,2,1.4,0.5
		C8.6,101,8,34,8,32.4c0-1.6-1.3-1.3-1.3-0.3c0,1,0.4,14,0.4,14L4.9,45.5z"/>
</g>
</svg>
