<?xml version="1.0" encoding="utf-8"?>
<!-- Generator: Adobe Illustrator 21.1.0, SVG Export Plug-In . SVG Version: 6.00 Build 0)  -->
<svg version="1.1" id="Layer_1" xmlns="http://www.w3.org/2000/svg" xmlns:xlink="http://www.w3.org/1999/xlink" x="0px" y="0px"
	 width="108px" height="108px" viewBox="0 0 108 108" style="enable-background:new 0 0 108 108;" xml:space="preserve">
<style type="text/css">
	.st0{fill:#FFFFFF;stroke:#000000;stroke-width:0.75;stroke-linecap:round;stroke-linejoin:round;stroke-miterlimit:10;}
	.st1{fill:none;stroke:#000000;stroke-width:0.5;stroke-linecap:round;stroke-linejoin:round;}
</style>
<g>
	<polyline class="st0" points="114.3,2.3 3.8,28.7 2,31.1 2,100.4 4.2,101.4 114.7,71.2 	"/>
	<g>
		<line class="st1" x1="3" y1="101.2" x2="3" y2="98.1"/>
		<line class="st1" x1="3" y1="88" x2="3" y2="84.9"/>
		<line class="st1" x1="3" y1="73.8" x2="3" y2="70.7"/>
		<line class="st1" x1="3" y1="60.1" x2="3" y2="57"/>
		<line class="st1" x1="3" y1="46.4" x2="3" y2="43.3"/>
		<line class="st1" x1="3" y1="32.8" x2="3" y2="29.7"/>
		<line class="st1" x1="114.7" y1="68.8" x2="3.8" y2="98.8"/>
		<line class="st1" x1="114.7" y1="63.8" x2="3.8" y2="93.6"/>
		<line class="st1" x1="114.7" y1="58.9" x2="3.8" y2="88.4"/>
		<line class="st1" x1="114.7" y1="55.5" x2="3.8" y2="84.9"/>
		<line class="st1" x1="114.7" y1="50.9" x2="3.8" y2="80"/>
		<line class="st1" x1="114.7" y1="45.2" x2="3.8" y2="74"/>
		<line class="st1" x1="114.7" y1="41.7" x2="3.8" y2="70.4"/>
		<line class="st1" x1="114.7" y1="36.5" x2="3.8" y2="64.9"/>
		<line class="st1" x1="114.7" y1="32" x2="3.8" y2="60.2"/>
		<line class="st1" x1="114.7" y1="28.8" x2="3.8" y2="56.7"/>
		<line class="st1" x1="114.7" y1="23.9" x2="3.8" y2="51.6"/>
		<line class="st1" x1="114.7" y1="19" x2="3.8" y2="46.4"/>
		<line class="st1" x1="114.7" y1="15.5" x2="3.8" y2="42.7"/>
		<line class="st1" x1="114.7" y1="9.8" x2="3.8" y2="36.8"/>
		<line class="st1" x1="114.7" y1="6.3" x2="3.8" y2="33.1"/>
		<line class="st1" x1="114.7" y1="3.7" x2="3.8" y2="30.4"/>
	</g>
</g>
</svg>
