<?xml version="1.0" encoding="utf-8"?>
<!-- Generator: Adobe Illustrator 21.1.0, SVG Export Plug-In . SVG Version: 6.00 Build 0)  -->
<svg version="1.1" id="Layer_1" xmlns="http://www.w3.org/2000/svg" xmlns:xlink="http://www.w3.org/1999/xlink" x="0px" y="0px"
	 width="108px" height="108px" viewBox="0 0 108 108" style="enable-background:new 0 0 108 108;" xml:space="preserve">
<style type="text/css">
	.st0{fill:#CCCCCC;stroke:#231F20;stroke-width:0.75;stroke-linecap:round;stroke-linejoin:round;}
	.st1{fill:#FFFFFF;stroke:#231F20;stroke-width:0.5;stroke-linecap:round;stroke-linejoin:round;}
	.st2{fill:#F2F2F2;stroke:#231F20;stroke-width:0.75;stroke-linecap:round;stroke-linejoin:round;}
	.st3{fill:#FFFFFF;stroke:#231F20;stroke-width:0.75;stroke-linecap:round;stroke-linejoin:round;}
	.st4{fill:#B3B3B3;stroke:#231F20;stroke-width:0.5;stroke-linecap:round;stroke-linejoin:round;}
	.st5{fill:none;stroke:#231F20;stroke-width:0.75;stroke-linecap:round;stroke-linejoin:round;}
	.st6{fill:#E6E6E6;stroke:#231F20;stroke-width:0.75;stroke-linecap:round;stroke-linejoin:round;}
</style>
<g>
	<polyline class="st0" points="112.6,58.6 20.9,80.2 17.7,79.7 17.7,66.8 12.3,65.9 12.2,84.2 112.6,60.8 	"/>
	<path class="st1" d="M7.2,63C6.5,55.1,2,51.4,2,51.4l5.6-2.4L7.2,63z"/>
	<polygon class="st2" points="10.4,81.1 6.5,80.2 6.9,47.6 10.7,48.5 	"/>
	<polyline class="st3" points="112.6,18.7 8.7,43 12.4,43.5 12.4,43.7 112.6,20.3 	"/>
	<polyline class="st2" points="112.6,20.3 12.4,43.7 12.3,61.9 17.7,60.9 17.7,48.4 17.5,48.4 17.7,48.4 17.7,48.3 17.8,48.3 
		17.8,48.3 112.6,28.1 	"/>
	<polygon class="st4" points="17.7,60.9 17.7,63 12.3,62.2 12.3,61.9 	"/>
	<polyline class="st3" points="112.6,29.8 21,49.4 19.2,48.9 21,49.5 20.9,60.9 20.9,80.2 112.6,58.6 	"/>
	<line class="st5" x1="18.2" y1="60.8" x2="17.7" y2="60.9"/>
	<line class="st5" x1="12.3" y1="61.9" x2="12.2" y2="62"/>
	<line class="st5" x1="12.4" y1="43.7" x2="12.3" y2="43.7"/>
	<polyline class="st3" points="112.6,28.1 17.8,48.3 17.8,48.3 17.7,48.4 17.5,48.4 17.7,48.4 19.2,48.8 19.2,48.9 21,49.4 
		112.6,29.8 	"/>
	<polygon class="st6" points="21,49.5 20.9,60.9 20.9,80.2 17.7,79.7 17.7,66.8 13.2,66.1 12.3,65.9 12.2,84.2 8.7,83.4 8.7,43 
		12.4,43.5 12.4,43.7 12.3,61.9 12.3,62.2 17.7,63 17.7,48.3 17.8,48.3 17.8,48.3 19.2,48.8 19.2,48.9 	"/>
</g>
</svg>
