<?xml version="1.0" encoding="utf-8"?>
<!-- Generator: Adobe Illustrator 21.1.0, SVG Export Plug-In . SVG Version: 6.00 Build 0)  -->
<svg version="1.1" id="Layer_1" xmlns="http://www.w3.org/2000/svg" xmlns:xlink="http://www.w3.org/1999/xlink" x="0px" y="0px"
	 width="108px" height="108px" viewBox="0 0 108 108" style="enable-background:new 0 0 108 108;" xml:space="preserve">
<style type="text/css">
	.st0{fill:#FFFFFF;stroke:#000000;stroke-width:0.75;stroke-linecap:round;stroke-linejoin:round;stroke-miterlimit:10;}
	.st1{fill:#B3B3B3;stroke:#000000;stroke-width:0.75;stroke-linecap:round;stroke-linejoin:round;stroke-miterlimit:10;}
	.st2{fill:#E6E6E6;stroke:#000000;stroke-width:0.75;stroke-linecap:round;stroke-linejoin:round;stroke-miterlimit:10;}
	.st3{fill:#808080;stroke:#000000;stroke-width:0.5;stroke-linecap:round;stroke-linejoin:round;stroke-miterlimit:10;}
	.st4{fill:#F2F2F2;stroke:#000000;stroke-width:0.75;stroke-linecap:round;stroke-linejoin:round;stroke-miterlimit:10;}
	.st5{fill:none;stroke:#000000;stroke-width:0.75;stroke-linecap:round;stroke-linejoin:round;stroke-miterlimit:10;}
	.st6{fill:none;stroke:#000000;stroke-width:0.5;stroke-linecap:round;stroke-linejoin:round;stroke-miterlimit:10;}
	.st7{fill:#B3B3B3;stroke:#000000;stroke-width:0.5;stroke-linecap:round;stroke-linejoin:round;stroke-miterlimit:10;}
</style>
<g>
	<path class="st0" d="M25.9,36.2L25.9,36.2l-1,48l-2.4,2.1c0,0-1.3,0.1-3,0.2C20,69,21.6,33.6,21.7,31.6c0,0.4,0.1,1,0.4,1.5
		C22.9,34.5,24.8,36,25.9,36.2z"/>
	<path class="st1" d="M19.8,14.3c-0.2,0.1-0.2,0.3-0.1,0.6l-0.5,0.4l-2.8,71.5c-0.9,0.1-1.5,0.1-1.9,0.1c-0.5,0-1.1-0.2-1.6-0.6
		l0.9-71.7h0l6.3-0.5l0,0.1C19.9,14.3,19.8,14.3,19.8,14.3z"/>
	<path class="st2" d="M13.6,14.7l-0.9,71.7c-1.7-1.1-3.3-3.8-3.7-5.1c-0.8-2.7,0.9-70,0.9-70c0.1,0.3,0.2,0.7,0.4,1
		C11,13.7,12.5,14.8,13.6,14.7z"/>
	<path class="st1" d="M28.5,13.4L28.2,30L26,30.2l0.1-9.6c0,0,0.1,0,0.1,0c0.7-0.3-0.1-1.8-1.7-3.5c-1.5-1.5-3.6-2.8-4.5-2.8l0-0.1
		L28.5,13.4z"/>
	<path class="st0" d="M24.4,17.1c1.6,1.6,2.4,3.2,1.7,3.5c0,0-0.1,0-0.1,0c-0.8,0.1-2.5-0.9-4-2.5c-1.2-1.2-2.2-2.4-2.4-3.2
		c-0.1-0.3-0.1-0.5,0.1-0.6c0.1,0,0.1,0,0.2,0C20.9,14.3,23,15.6,24.4,17.1z"/>
	<path class="st1" d="M49.6,25.7v3.1l7.7-0.4l-9.5-16.6l-18.7,1.6l0,0.2c0.9,0,3,1.3,4.5,2.8c1.6,1.6,2.4,3.2,1.7,3.5v9.9l0.6,0
		l2.4-0.1l0.1-5.4h0.1c0-0.3,0-0.6,0.1-0.9c0.3-1.5,1.5-2.3,2.3-1.4c0.5,0.5,0.8,1.6,0.9,2.7c0,0.3,0,0.5,0,0.8v3.9l4.8-0.3l0-6h0
		c0-0.3,0-0.6,0.1-0.8c0.3-1.5,1.1-2.6,2-1.7c0.5,0.5,0.9,1.6,1.1,2.7c0.2,0.8,0.2,1.6,0.1,2.2C49.7,25.5,49.7,25.6,49.6,25.7z"/>
	<path class="st3" d="M35.3,19.8v9.9l-1.6,0.1l0-3.6c0-1.3-0.3-2.6-0.9-3.3c-0.9-0.9-2-0.2-2.3,1.4c0,0.2,0,0.3-0.1,0.5
		c0,0.5,0,1.1,0.1,1.6v0l0.3,3.6L28.2,30l0.3-16.6l0.6,0l0,0.2c-0.1,0-0.1,0-0.2,0c-0.7,0.3,0.6,2.2,2.3,3.8
		C32.8,19,34.7,20.1,35.3,19.8z"/>
	<path class="st0" d="M30.5,26.3c-0.1-0.5-0.1-1-0.1-1.6L30.5,26.3z"/>
	<path class="st3" d="M33.7,29.7l-2.9,0.2l-0.3-3.6c0.2,0.9,0.5,1.7,1,2.2c0.9,0.9,1.8,0.3,2.1-1.2c0.1-0.4,0.1-0.8,0.1-1.2
		L33.7,29.7z"/>
	<path class="st0" d="M35.3,19.8c-0.7,0.3-2.5-0.8-4.1-2.4c-1.6-1.6-2.9-3.5-2.3-3.8c0.1,0,0.1,0,0.2,0c0.9,0,3,1.3,4.5,2.8
		C35.2,18,36,19.5,35.3,19.8z"/>
	<path class="st3" d="M41.8,25.4v3.9l-3.4,0.2l0.1-5.4h0.1c0,1.3,0.4,2.7,1.2,3.5c0.9,0.9,1.8,0.3,2-1.2
		C41.7,26,41.7,25.7,41.8,25.4z"/>
	<path class="st3" d="M49.6,25.7v3.1L46.5,29l0-6h0c0,1.3,0.4,2.8,1.1,3.5C48.5,27.3,49.3,27,49.6,25.7z"/>
	<path class="st0" d="M49.7,25.3c0,0.1-0.1,0.3-0.1,0.4c-0.3,1.2-1.2,1.6-2,0.8c-0.7-0.7-1.1-2.1-1.1-3.5c0-0.3,0-0.6,0.1-0.8
		c0.3-1.5,1.1-2.6,2-1.7c0.5,0.5,0.9,1.6,1.1,2.7C49.8,23.9,49.8,24.7,49.7,25.3z"/>
	<path class="st0" d="M64.4,19.2c0,0.2,0.1,0.5,0.3,0.9v-1.3C64.5,18.8,64.4,18.9,64.4,19.2z"/>
	<path class="st3" d="M79.2,24.8l0,1.3l-6.2,0.7l0.1-6.8c0.3,0.5,0.7,1,1.3,1.5c0.7,0.7,1.4,1.4,2.2,2
		C77.7,24.4,78.7,24.9,79.2,24.8z"/>
	<path class="st3" d="M88.1,25.2l-6.4,0.7l0-6.1c0.7,1,2,2.4,3.3,3.4c1.5,1.2,2.8,1.6,3,1L88.1,25.2z"/>
	<path class="st1" d="M88,23.7c-0.3-1-1.6-2.6-3.2-3.9c-1.2-1-2.5-1.5-3.1-1.4c-0.3,0-0.4,0.2-0.4,0.5c0,0.2,0.2,0.5,0.4,0.9l0,6.1
		l-2.5,0.3l0-1.3c0.3,0,0.4-0.2,0.4-0.5c0-0.8-1.1-2.2-2.4-3.4l0-5.7v0c0.1-0.4,0.2-0.9,0.1-1.5c-0.1-1.7-0.8-3.7-1.7-3.8
		c0,0-0.1,0-0.1,0l-0.1-0.9l10.4-1.1c0.7-0.1,1.1-0.7,1-1.5l0.2,0L88,23.7z"/>
	<path class="st1" d="M74.4,11c-0.2,0.6-0.4,1.3-0.3,2.1c0,0.5,0.2,1.1,0.3,1.6l0,4.4c-1-0.4-1.6-0.4-1.6,0.2c0,0.2,0.1,0.5,0.3,0.8
		c0,0,0,0,0,0l-0.1,6.8L71.2,27v-2.4c-0.1-0.9-1.5-2.8-3.3-4.1c-0.1-0.1-0.2-0.2-0.3-0.2l0-4.2c0.1-0.5,0.2-1,0.1-1.6
		c-0.1-1.7-0.8-3.7-1.7-3.8c0,0-0.1,0-0.1,0l-0.1-0.7l9.5-1l0.1,0.9C75.1,9.8,74.6,10.3,74.4,11z"/>
	<path class="st1" d="M64.5,13.8c0,0.5,0.1,0.9,0.2,1.3l0,3.6c-0.2,0-0.4,0.1-0.3,0.4c0,0.2,0.1,0.5,0.3,0.9
		c0.1,0.2,0.3,0.4,0.4,0.7l-0.3,6.9L61.3,28l-9.5-16.6l14.1-1.5l0.1,0.7C65.1,10.6,64.4,12.2,64.5,13.8z"/>
	<path class="st4" d="M99.2,28.7c-0.1,6.5-1.4,64.7-1.9,66.7c-0.5,2.1-2.4,3.4-5.8,3.7c-3.4,0.3-63.9,6.1-66.1,6.3
		c-0.3,0-0.7,0-1.1-0.2l0.4-21l1-48v0c0.1,0,0.2,0,0.3,0l15.6-1.4l7.9-0.7l34.3-3.1l14.2-1.3C98.7,29.6,99.1,29.2,99.2,28.7z"/>
	<path class="st2" d="M25.9,36.2L25.9,36.2l-1,48l-0.4,21c-2.1-0.9-4.7-4.3-5-9.2c-0.1-1.2,0-4.6,0.1-9.4C20,69,21.6,33.6,21.7,31.6
		c0,0.4,0.1,1,0.4,1.5C22.9,34.5,24.8,36,25.9,36.2z"/>
	<line class="st5" x1="24.4" y1="105.4" x2="24.4" y2="105.2"/>
	<line class="st5" x1="12.8" y1="86.7" x2="12.8" y2="86.4"/>
	<line class="st5" x1="46.5" y1="23" x2="46.5" y2="22.1"/>
	<line class="st5" x1="49.6" y1="25.7" x2="49.6" y2="23.1"/>
	<line class="st5" x1="41.8" y1="24.5" x2="41.8" y2="23.8"/>
	<polyline class="st5" points="38.4,24.1 38.4,23.6 38.4,23.3 	"/>
	<g>
		<path class="st6" d="M83.9,91.3c2.8,1.9,6.2,4.3,6.2-0.7c-0.1-4.9,0.4-53.4,0.4-53.4"/>
		<path class="st6" d="M72.4,89.3c2.7,1.9,6,4.1,5.9-0.7C78.2,83.8,79,36.9,79,36.9"/>
		<line class="st6" x1="68.8" y1="87.5" x2="70.2" y2="37.6"/>
		<line class="st6" x1="62.4" y1="39.5" x2="60.8" y2="94.1"/>
		<line class="st6" x1="49.1" y1="96.9" x2="49.9" y2="38.6"/>
		<line class="st6" x1="42.4" y1="39.2" x2="41" y2="97.3"/>
		<line class="st6" x1="33.8" y1="96.8" x2="34.9" y2="40.4"/>
	</g>
	<line class="st5" x1="81.7" y1="18.4" x2="81.7" y2="18.4"/>
	<path class="st3" d="M77.2,20.9c-0.3-0.3-0.6-0.5-0.9-0.8c-0.7-0.5-1.3-0.9-1.9-1.1l0-4.4c0.3,1,0.9,1.8,1.5,1.9
		c0.6,0.1,1.1-0.4,1.3-1.4L77.2,20.9z"/>
	<path class="st3" d="M67.6,16l0,4.2c-1.2-0.9-2.3-1.5-2.8-1.4l0-3.6c0.3,1.1,1,2,1.6,2.1C66.9,17.4,67.4,16.9,67.6,16z"/>
	<path class="st0" d="M64.8,18.8v1.3c-0.2-0.4-0.3-0.7-0.3-0.9C64.4,18.9,64.5,18.8,64.8,18.8z"/>
	<g>
		<path class="st7" d="M79.7,24.3c0,0.3-0.1,0.5-0.4,0.5c-0.5,0.1-1.5-0.4-2.7-1.3c-0.8-0.6-1.5-1.3-2.2-2c-0.5-0.5-1-1.1-1.3-1.5
			c0,0,0,0,0,0c-0.2-0.3-0.3-0.6-0.3-0.8c0-0.6,0.7-0.6,1.6-0.2c0.6,0.2,1.3,0.6,1.9,1.1c0.3,0.2,0.6,0.5,0.9,0.8
			C78.6,22.1,79.6,23.5,79.7,24.3z"/>
		<path class="st7" d="M49.7,25.3c0,0.1-0.1,0.3-0.1,0.4c-0.3,1.2-1.2,1.6-2,0.8c-0.7-0.7-1.1-2.1-1.1-3.5c0-0.3,0-0.6,0.1-0.8
			c0.3-1.5,1.1-2.6,2-1.7c0.5,0.5,0.9,1.6,1.1,2.7C49.8,23.9,49.8,24.7,49.7,25.3z"/>
		<path class="st7" d="M35.3,19.8c-0.7,0.3-2.5-0.8-4.1-2.4c-1.6-1.6-2.9-3.5-2.3-3.8c0.1,0,0.1,0,0.2,0c0.9,0,3,1.3,4.5,2.8
			C35.2,18,36,19.5,35.3,19.8z"/>
		<path class="st7" d="M26.2,20.5c0,0-0.1,0-0.1,0c-0.8,0.1-2.5-0.9-4-2.5c-1.2-1.2-2.2-2.4-2.4-3.2c-0.1-0.3-0.1-0.5,0.1-0.6
			c0.1,0,0.1,0,0.2,0c0.9,0,3,1.3,4.5,2.8C26.1,18.7,26.9,20.2,26.2,20.5z"/>
		<path class="st7" d="M41.8,24.5v0.8c0,0.3,0,0.7-0.1,1c-0.3,1.5-1.2,2-2,1.2c-0.7-0.7-1.2-2.1-1.2-3.5c0-0.3,0-0.6,0.1-0.9
			c0.3-1.5,1.5-2.3,2.3-1.4C41.4,22.3,41.7,23.4,41.8,24.5z"/>
		<path class="st7" d="M33.7,26.1c0,0.4,0,0.8-0.1,1.2c-0.3,1.5-1.2,2.1-2.1,1.2c-0.5-0.5-0.9-1.3-1-2.2v0l-0.1-1.6
			c0-0.2,0-0.3,0.1-0.5c0.3-1.5,1.4-2.2,2.3-1.4C33.4,23.5,33.7,24.8,33.7,26.1z"/>
		<path class="st7" d="M71.2,24.6L71.2,24.6c0,0.9-1.3,0.5-3.1-0.8c-1.1-0.8-2.2-2.1-3-3.1c-0.2-0.2-0.3-0.4-0.4-0.7v-1.3
			c0.5,0,1.7,0.6,2.8,1.4c0.1,0.1,0.2,0.2,0.3,0.2C69.7,21.8,71.2,23.7,71.2,24.6z"/>
		<path class="st7" d="M77.2,15.1L77.2,15.1c-0.2,1-0.7,1.5-1.3,1.4c-0.6-0.1-1.2-0.9-1.5-1.9c-0.2-0.5-0.3-1-0.3-1.6
			c-0.1-0.8,0.1-1.5,0.3-2.1c0.3-0.7,0.7-1.2,1.1-1.2c0,0,0.1,0,0.1,0c0.9,0.2,1.6,2.1,1.7,3.8C77.4,14.2,77.3,14.7,77.2,15.1z"/>
		<path class="st7" d="M67.8,14.4c0,0.6,0,1.2-0.1,1.6c-0.2,0.9-0.7,1.4-1.3,1.3c-0.7-0.1-1.3-1-1.6-2.1c-0.1-0.4-0.2-0.9-0.2-1.3
			c-0.1-1.7,0.6-3.3,1.4-3.3c0,0,0.1,0,0.1,0C67,10.7,67.7,12.7,67.8,14.4z"/>
		<path class="st7" d="M88,24.2c-0.2,0.6-1.5,0.2-3-1c-1.3-1-2.7-2.4-3.3-3.4c-0.2-0.3-0.3-0.7-0.4-0.9c0-0.3,0.1-0.4,0.4-0.5
			c0.6-0.1,1.9,0.4,3.1,1.4c1.6,1.2,3,2.9,3.2,3.9c0,0,0,0,0,0L88,24.2z"/>
	</g>
	<path class="st0" d="M88.1,24c0,0.1,0,0.2,0,0.3l0-0.5C88,23.8,88.1,23.9,88.1,24z"/>
	<path class="st0" d="M99.2,28.1L99.2,28.1c0,0.1,0,0.3,0,0.6c-0.1,0.5-0.4,0.9-1,0.9l-14.2,1.3L49.7,34l-7.9,0.7l-15.6,1.4
		c-0.1,0-0.2,0-0.3,0c-1.1-0.1-3-1.6-3.7-3c-0.3-0.5-0.4-1.1-0.4-1.5v-0.1c0-0.7,0.4-1.1,1-1.2l3.2-0.2l2.2-0.1l2.6-0.1l2.9-0.2
		l1.6-0.1l0.6,0l2.4-0.1l3.4-0.2l4.8-0.3l3.1-0.2l7.7-0.4l-8.7-15.2l-0.8-1.4l-18.7,1.6l-0.6,0L20,14.2l-6.3,0.5h0
		c-1.1,0.1-2.6-1-3.4-2.4c-0.2-0.4-0.3-0.7-0.4-1c-0.2-1,0.2-1.7,1-1.8l72.2-6.9c1.1-0.1,2.6,1,3.4,2.4c0.2,0.5,0.4,0.9,0.4,1.3
		c0.1,0.8-0.3,1.4-1,1.5L75.4,8.9l-9.5,1l-14.1,1.5L61.3,28l3.6-0.4l6.3-0.7l1.8-0.2l6.2-0.7l2.5-0.3l6.4-0.7l7.3-0.8
		c1.1-0.1,2.6,1,3.4,2.4C99,27.3,99.2,27.8,99.2,28.1z"/>
	<line class="st5" x1="26.1" y1="20.6" x2="26.1" y2="20.4"/>
	<path class="st3" d="M26.1,20.6L26,30.2l-3.2,0.2c-0.7,0.1-1,0.5-1,1.2v0.1c-0.1,2-1.7,37.3-2.2,54.9c-1.1,0.1-2.3,0.2-3.3,0.2
		l2.8-71.5l0.5-0.4c0.2,0.8,1.2,2,2.4,3.2C23.6,19.6,25.3,20.7,26.1,20.6z"/>
	<path class="st3" d="M71.2,24.7V27l-6.3,0.7l0.3-6.9c0.7,1,1.9,2.3,3,3.1C69.9,25.2,71.2,25.5,71.2,24.7z"/>
</g>
</svg>
