<?xml version="1.0" encoding="utf-8"?>
<!-- Generator: Adobe Illustrator 21.1.0, SVG Export Plug-In . SVG Version: 6.00 Build 0)  -->
<svg version="1.1" id="Layer_1" xmlns="http://www.w3.org/2000/svg" xmlns:xlink="http://www.w3.org/1999/xlink" x="0px" y="0px"
	 width="108px" height="108px" viewBox="0 0 108 108" style="enable-background:new 0 0 108 108;" xml:space="preserve">
<style type="text/css">
	.st0{fill:#B3B3B3;stroke:#000000;stroke-width:0.5;}
	.st1{fill:#F2F2F2;stroke:#000000;stroke-width:0.75;}
	.st2{fill:#FFFFFF;stroke:#000000;stroke-width:0.75;}
	.st3{fill:none;stroke:#000000;stroke-width:0.5;stroke-linecap:round;stroke-linejoin:round;}
	.st4{fill:#CCCCCC;stroke:#000000;stroke-width:0.5;}
	.st5{fill:none;stroke:#000000;stroke-width:0.75;}
	.st6{fill:none;stroke:#231F20;stroke-width:0.75;}
	.st7{fill:none;stroke:#000000;stroke-width:0.5;}
	.st8{fill:#F2F2F2;stroke:#000000;stroke-width:0.5;}
	.st9{fill:#B3B3B3;stroke:#231F20;stroke-width:0.5;}
	.st10{fill:#E6E6E6;stroke:#000000;stroke-width:0.75;}
	.st11{fill:#999999;stroke:#000000;stroke-width:0.5;}
</style>
<g>
	<path class="st0" d="M20.5,57l0,0.3c-3.7-0.3-6,0.6-7.5,1.8l0,0c0,0.4-0.5,3.2-0.9,3.9c-0.1,0.1-0.1,0.1-0.2,0.1l-0.1,0.1
		c-1.1-0.5-2.3-1-3.3-1.5l0,0c0.2-0.3-0.1-2.5,0.9-3.5c0.5-0.4,1.1-0.8,1.9-1c0,0,0,0,0,0c0.3-0.1,0.7-0.2,1.1-0.3
		c1.8-0.4,4.2-0.5,6.9-0.5l0.1-0.1C19.9,56.5,20.2,56.7,20.5,57z"/>
	<path class="st1" d="M102,67.7C101.3,68.4,26.8,85,26.8,85c0,0,0,0,0,0c-0.2-1.7,0.5-45.4,0.7-47c0,0,0.1,0,0.1-0.1
		c3.4-1.5,73-13,74.6-13C103.8,24.8,102.6,67,102,67.7z"/>
	<path class="st2" d="M102.2,24.8c-1.6,0-71.2,11.6-74.6,13l-0.2-0.1c-1-0.4-5.5-1.6-6.4-2.1c-0.9-0.5,76.1-13.1,77-13.2
		C99,22.5,102.2,24.8,102.2,24.8z"/>
	<line class="st3" x1="42.8" y1="42.8" x2="98.3" y2="32.8"/>
	<line class="st3" x1="93" y1="36.8" x2="34.2" y2="47.3"/>
	<line class="st3" x1="29.6" y1="53.5" x2="93.5" y2="42.2"/>
	<line class="st3" x1="30.8" y1="63" x2="94.4" y2="50.1"/>
	<line class="st3" x1="98.3" y1="54.2" x2="61.6" y2="61.8"/>
	<line class="st3" x1="30.1" y1="72.5" x2="75.2" y2="62.5"/>
	<line class="st3" x1="99.3" y1="64.3" x2="64" y2="72.6"/>
	<line class="st3" x1="36" y1="80.6" x2="99.9" y2="66.2"/>
	<path class="st4" d="M21,66.5l-0.1,0c-0.7,0.5-3.7,0.6-4.1,0.6c0.8-0.3,3-2.5,3.9-2.9C21.2,64,21.1,65.2,21,66.5z"/>
	<path class="st5" d="M16.8,67.1C16.8,67.1,16.8,67.1,16.8,67.1"/>
	<path class="st6" d="M4.2,52.8C4.2,52.8,4.2,52.8,4.2,52.8"/>
	<path class="st7" d="M12.4,63c-0.1,0-0.1,0.1-0.2,0.1"/>
	<path class="st0" d="M13,59.1c-1.5,1.1-2.2,2.5-2.9,3.1"/>
	<path class="st5" d="M20.7,57.3c-0.1,0-0.1,0-0.2,0"/>
	<path class="st0" d="M12.6,56.7c-0.4,0.1-0.8,0.2-1.1,0.3c0,0,0,0,0,0c-0.8,0.3-1.4,0.6-1.9,1c-1.1,1-0.7,3.3-0.9,3.5l0,0
		c-2.1-1-3.9-1.7-4.4-1.6l-0.1,0v0c0.6-1,2.2-0.6,2.4-0.6c0.2,0,2.7-2.4,4.7-2.5c0.1,0,0.1,0,0.2,0c0,0,0,0,0,0
		c0.1,0-0.2-0.1-0.7-0.2c-0.7-0.7-1.1-3-1.6-3.6c0.7,0,1.3,0.1,2,0.1v0.1C11,54,11.8,56.2,12.6,56.7L12.6,56.7z"/>
	<path class="st0" d="M10.9,56.8c0,0-0.1-0.1-0.1-0.1"/>
	<path class="st5" d="M9.1,53.1C9.1,53.1,9.1,53,9.1,53.1"/>
	<path class="st6" d="M7.2,53C7.2,53,7.2,53,7.2,53"/>
	<path class="st4" d="M20.9,55.3c-0.8,0.1-2.2-2.4-3.1-3l0,0c0.5-0.3,3-1.2,3.4-1.1h0.2C21.3,53.1,21.2,55.3,20.9,55.3z"/>
	<path class="st8" d="M21.3,51.2h-0.2c-0.4-0.1-2.9,0.8-3.4,1.1l0,0c-0.1-0.1-0.2-0.1-0.3-0.1c-0.3,0-10.3-0.4-12.4-1.2
		c3.7-0.7,15.1-2.1,15.8-2.5C21.2,48.8,21.3,49.9,21.3,51.2z"/>
	<path class="st0" d="M21.2,61c-0.1,0.2-0.3,0.4-0.6,0.8l0,0c-2.4-0.9-7,0.4-8.2,1.2L12.1,63c0.4-0.7,0.9-3.5,0.9-3.9l0,0
		c1.5-1.1,3.7-2.1,7.5-1.8l0-0.3c0.1,0.1,0.2,0.2,0.3,0.3l0,0c0.4,0.3,0.6,0.6,0.7,0.8C21.7,59,21.5,60.3,21.2,61z"/>
	<path class="st9" d="M8.1,56.1L8.1,56.1c-0.1,0-0.2,0-0.2,0c-1.9-0.6-1.8-2.4-2.5-2.6c-0.5-0.1-0.9-0.4-1.2-0.8
		c0.4,0,1.7,0.2,3,0.3C7.8,53.7,7.9,56.1,8.1,56.1z"/>
	<path class="st10" d="M27.4,37.7c-1-0.4-5.5-1.6-6.4-2.1c-0.7,0.2-0.4,3.4-0.1,4.2c0.2,0.7,0.8,8.2,0,8.6c0.2,0.3,0.4,1.5,0.4,2.7
		c0,1.9-0.1,4.1-0.4,4.1c-0.8,0.1-2.2-2.4-3.1-3c-0.1-0.1-0.2-0.1-0.3-0.1c-0.3,0-10.3-0.4-12.4-1.2c-0.7,0.1-1.1,0.2-1.2,0.3
		c-0.3,0.3-0.2,0.9,0.3,1.5c0.4,0,1.7,0.2,3,0.3c0.6,0,1.2,0,1.9,0.1c0.7,0,1.3,0.1,2,0.1h0c2.5,0.2,5,0.4,5.4,0.7
		c0.5,0.3,1.9,1.3,3,2.3c0.3,0.3,0.7,0.6,0.9,0.8c0.1,0.1,0.2,0.2,0.3,0.3l0,0c0.4,0.3,0.6,0.6,0.7,0.8c0.3,0.9,0.1,2.2-0.2,2.9
		c-0.1,0.2-0.3,0.4-0.6,0.8c-1.2,1.2-3.5,3-4.1,3.3c-0.3,0.1-2.2-0.7-4.3-1.7c-0.1,0-0.2-0.1-0.2-0.1c-1.1-0.5-2.3-1-3.3-1.5
		c-2.1-1-3.9-1.7-4.4-1.6l-0.1,0C4,60.3,4,60.5,3.9,60.8c-0.2,1.9,12.1,6.3,12.8,6.3c0,0,0.1,0,0.1,0c0.8-0.3,3-2.5,3.9-2.9
		c0.4-0.2,0.4,1,0.3,2.3c-0.1,1.8-0.4,4,0.1,4.3c0.9,0.4-0.3,2.7-0.3,2.7l0.1,9.9c0,0,4.1,2.1,5.7,1.6l0.2-0.1
		c-0.2-1.7,0.5-45.4,0.7-47c0,0,0.1,0,0.1-0.1L27.4,37.7z M24.1,48.6c1.4,1.8,1.4,23.1-0.1,23.6c0.9,2.1,1,10.7-0.3,10.4
		c-1.6-0.3-1.2-10.1,0.3-10.4c0,0,0,0,0,0c-0.1-0.3-0.3-0.5-0.4-0.5c-1.9-0.3-0.7-18.8,0.4-23.3c-1.4-2.3-1.4-11-0.5-10.8l0-0.1
		c0.8,0.2,1.7,0.5,1.7,0.9c0,0.7,0.2,7.5-0.9,9.2c-0.1,0.2-0.2,0.4-0.3,0.8C24,48.5,24.1,48.5,24.1,48.6z"/>
	<path class="st0" d="M19.5,56.2L19.5,56.2c-2.8,0-5.2,0.2-7,0.6l0-0.1c-0.7-0.5-1.5-2.7-1.4-3.4v-0.1h0c2.5,0.2,5,0.4,5.4,0.7
		C17,54.2,18.4,55.2,19.5,56.2z"/>
	<path class="st0" d="M8.1,56.2L8.1,56.2c-0.2-0.1-0.3-2.4-0.9-3.2c0.6,0,1.2,0,1.9,0.1c0.5,0.7,1,3,1.6,3.6
		C10,56.5,8.7,56.3,8.1,56.2z"/>
	<path class="st0" d="M20.6,61.8c-1.2,1.2-3.5,3-4.1,3.3c-0.3,0.1-2.2-0.7-4.3-1.7c-0.1,0-0.2-0.1-0.2-0.1l0.1-0.1
		c0.1,0,0.1,0,0.2-0.1l0.3,0.1C13.5,62.2,18.1,60.9,20.6,61.8L20.6,61.8z"/>
	<path class="st11" d="M23.7,82.6c-1.6-0.3-1.2-10.1,0.3-10.4c0,0,0,0,0,0C24.9,74.3,25,82.8,23.7,82.6z"/>
	<path class="st11" d="M24,72.2c-0.1-0.3-0.3-0.5-0.4-0.5c-1.9-0.3-0.7-18.8,0.4-23.3c0,0.1,0.1,0.1,0.1,0.2
		C25.5,50.4,25.5,71.7,24,72.2z"/>
	<path class="st11" d="M24.3,47.6c-0.1,0.2-0.2,0.4-0.3,0.8c-1.4-2.3-1.4-11-0.5-10.8l0-0.1c0.8,0.2,1.7,0.5,1.7,0.9
		C25.2,39.1,25.4,45.9,24.3,47.6z"/>
</g>
</svg>
