<?xml version="1.0" encoding="utf-8"?>
<!-- Generator: Adobe Illustrator 21.1.0, SVG Export Plug-In . SVG Version: 6.00 Build 0)  -->
<svg version="1.1" id="Layer_1" xmlns="http://www.w3.org/2000/svg" xmlns:xlink="http://www.w3.org/1999/xlink" x="0px" y="0px"
	 width="108px" height="108px" viewBox="0 0 108 108" style="enable-background:new 0 0 108 108;" xml:space="preserve">
<style type="text/css">
	.st0{fill:#FFFFFF;}
	.st1{fill:#F2F2F2;}
	.st2{fill:#E6E6E6;}
	.st3{fill:none;stroke:#000000;stroke-width:0.75;stroke-linecap:round;stroke-linejoin:round;stroke-miterlimit:10;}
	.st4{fill:#CCCCCC;stroke:#000000;stroke-width:0.75;stroke-linecap:round;stroke-linejoin:round;stroke-miterlimit:10;}
	.st5{fill:#999999;stroke:#000000;stroke-width:0.5;stroke-linecap:round;stroke-linejoin:round;stroke-miterlimit:10;}
	.st6{fill:none;stroke:#000000;stroke-width:0.5;stroke-linecap:round;stroke-linejoin:round;stroke-miterlimit:10;}
</style>
<g>
	<path class="st0" d="M17.3,55.8c0.8,2.1,1.4,3.1,3,10.6c28.4-6.9,56.7-13.4,84.4-22.7c-0.3-1.3-0.5-2.3-0.7-2.7
		c-0.7-1.9-5.4-12.6-5.4-12.6l-0.2-0.2c0,0,0,0,0,0C70.2,34.8,43,43.3,14.7,50.1c0.1,0.3,0.2,0.7,0.4,1.1
		C15.6,52.3,16.5,53.5,17.3,55.8z"/>
	<path class="st1" d="M104.8,43.7C77,52.9,48.7,59.5,20.4,66.4c0.2,0.8,0.4,1.8,0.6,2.8c0.8,3.9,1,6.8,1,8.8
		c28.2-7.7,56.1-17.3,84.5-24.6C106.2,50.9,105.4,46.6,104.8,43.7z"/>
	<path class="st2" d="M21.9,77.9C21.9,81,21.2,82,21.2,82s81.5-23.9,83.3-24.5c1.8-0.6,1.8-1.1,2-2.6c0.1-0.3,0-0.9-0.1-1.7
		C78,60.6,50.1,70.2,21.9,77.9z"/>
	<path class="st1" d="M14.4,48.2c0.1,0.6,0.1,1.2,0.3,1.8C43,43.3,70.2,34.8,98.5,28.2c0.2-0.3,0.2-0.7-0.1-1.5
		c-0.5-1.3-1.8-0.5-2.6-0.5c-0.8,0-82.6,21-82.6,21C13.9,47.1,14.3,47.4,14.4,48.2z"/>
	<path class="st3" d="M106.5,55c-0.3,1.5-0.3,2.1-2,2.6C102.7,58.1,21.2,82,21.2,82s1.8-2.9-0.3-12.9c-2.1-10-2.8-11-3.6-13.3
		c-0.8-2.3-1.7-3.5-2.2-4.7c-0.6-1.1-0.6-2.1-0.7-2.9c-0.1-0.8-0.5-1.1-1.2-1c0,0,81.8-21,82.6-21c0.8,0,2.1-0.8,2.6,0.5
		c0.3,0.8,0.3,1.3,0.1,1.5l0.2,0.2c0,0,4.8,10.7,5.4,12.6C104.8,42.8,106.8,53.5,106.5,55z"/>
	<path class="st4" d="M20.9,69.2c-2.1-10-2.8-11-3.6-13.3c-0.8-2.3-1.7-3.5-2.2-4.7c-0.6-1.1-0.6-2.1-0.7-2.9
		c-0.1-0.8-0.5-1.1-1.2-1c-0.8,0.1-1.5,1-1.3,2c0.2,0.9,5.1,10.5,5.7,13.7c0.2,1.2,0.5,2.5,0.8,3.8l-17,5l0.3,1.2l12.5-2.6l0.2,2.5
		l0.5,5.8L3.5,75.8l-2.1,0.1l0.1,1.3l15.9,3.9l3.8,0.9C21.2,82,23,79.1,20.9,69.2z M19.5,79.5c-0.5,0-1.2,0-1.7-0.1
		c-0.4-0.1-0.8-0.3-0.8-0.7c-0.1-0.6-0.2-4.4-0.3-6.7c0-0.8,0-1.4,0-1.6c0-0.8,0.9-1.2,0.9-1.2L19,69c0,0,0,0.1,0,0.1
		c0.2,0.8,0.3,1.5,0.4,2.1c0.1,0.5,0.1,0.9,0.1,1.3C19.6,74.7,20.5,79.4,19.5,79.5z"/>
	<path class="st5" d="M19.5,79.5c-0.5,0-1.2,0-1.7-0.1c-0.4-0.1-0.8-0.3-0.8-0.7c-0.1-0.6-0.2-4.4-0.3-6.7l2.8-0.8
		c0.1,0.5,0.1,0.9,0.1,1.3C19.6,74.7,20.5,79.4,19.5,79.5z"/>
	<polygon class="st5" points="14.9,78.5 3.5,75.8 14.4,72.7 	"/>
	<g>
		<path class="st6" d="M95.2,29.2c-10.6,2.8-65.7,17-77.6,20.1"/>
		<line class="st6" x1="99.6" y1="47.9" x2="33.1" y2="65.7"/>
		<line class="st6" x1="22.8" y1="66.4" x2="98.7" y2="46.1"/>
		<polyline class="st6" points="23.8,70.7 87.2,53.3 100.6,54.6 		"/>
	</g>
</g>
</svg>
