<?xml version="1.0" encoding="utf-8"?>
<!-- Generator: Adobe Illustrator 21.1.0, SVG Export Plug-In . SVG Version: 6.00 Build 0)  -->
<svg version="1.1" id="Layer_1" xmlns="http://www.w3.org/2000/svg" xmlns:xlink="http://www.w3.org/1999/xlink" x="0px" y="0px"
	 width="108px" height="108px" viewBox="0 0 108 108" style="enable-background:new 0 0 108 108;" xml:space="preserve">
<style type="text/css">
	.st0{fill:#F2F2F2;}
	.st1{fill:#FFFFFF;}
	.st2{fill:none;stroke:#000000;stroke-width:0.75;stroke-linecap:round;stroke-linejoin:round;stroke-miterlimit:10;}
	.st3{fill:#FFFFFF;stroke:#000000;stroke-width:0.75;stroke-linecap:round;stroke-linejoin:round;stroke-miterlimit:10;}
	.st4{fill:#B3B3B3;stroke:#000000;stroke-width:0.5;stroke-linecap:round;stroke-linejoin:round;stroke-miterlimit:10;}
	.st5{fill:#E6E6E6;stroke:#000000;stroke-width:0.75;stroke-linecap:round;stroke-linejoin:round;stroke-miterlimit:10;}
	.st6{fill:none;stroke:#000000;stroke-width:0.5;stroke-linecap:round;stroke-linejoin:round;stroke-miterlimit:10;}
</style>
<g>
	<path class="st0" d="M100.7,22.7c-0.2-0.7-0.7-1.2-2-1.3h-0.1c-0.1,0-0.5,0.1-1.2,0.2c-0.1,0-0.2,0-0.3,0c-0.1,0-0.2,0-0.2,0
		c-4.5,0.8-17.1,3.3-31.3,6.2c-24,4.8-52.4,10.5-52.4,10.5s0.7,24.2,1.2,37.4c29.2-5.7,58.3-13.3,87.5-18.5
		C101.6,47.3,100.9,23.3,100.7,22.7z"/>
	<path class="st1" d="M101.9,60.6c0-0.7,0-1.9-0.1-3.3c-29.2,5.2-58.3,12.8-87.5,18.5c0.2,4.6,0.3,7.9,0.3,8.3
		c0.2,1.4,0.4,5.3,1.1,6.8c0.6,1.3,1.6,1.2,2.4,1c0.1,0,0.1,0,0.1,0c0.2,0,0.4-0.1,0.6-0.1c0.9-0.1,83.6-19.9,84.4-20.2
		c0.7-0.3,0.7-1.8,0-2.7C102.5,68.2,102,66.5,101.9,60.6z"/>
	<path class="st2" d="M103.3,71.7c-0.7,0.3-83.5,20-84.4,20.2c-0.2,0-0.4,0.1-0.6,0.1c0,0,0,0-0.1,0c-0.8,0.2-1.8,0.2-2.4-1
		c-0.8-1.5-0.9-5.4-1.1-6.8c-0.2-1.4-1.5-45.7-1.5-45.7s28.4-5.7,52.4-10.5c14.2-2.8,26.8-5.3,31.3-6.2c0.1,0,0.2,0,0.2,0
		c0.1,0,0.2,0,0.3,0c0.7-0.1,1.1-0.2,1.2-0.2h0.1c1.3,0,1.8,0.6,2,1.3c0.2,0.7,1.1,32,1.2,37.9c0.1,5.9,0.6,7.5,1.4,8.4
		C104,69.9,104,71.4,103.3,71.7z"/>
	<path class="st3" d="M102,20.6c0,0.3-1.8,0.6-3.3,0.8h-0.1c-0.1,0-0.5,0.1-1.2,0.2c-0.1,0-0.2,0-0.3,0c-0.1,0-0.2,0-0.2,0
		c-4.5,0.8-17.1,3.3-31.3,6.2c-24,4.8-52.4,10.5-52.4,10.5C12.8,34.3,8.7,34,8,33.9c0,0,0,0,0,0c-0.6-0.1-1.2,0-1.8,0.2l0,0
		c0.2-0.1,0.3-0.2,0.4-0.2c0.5-0.3,1.8-0.5,1.8-0.5s29.5-6.6,30.5-6.6c1,0,4.9,1.8,4.9,1.8l21.2-4l0.4-0.1c0,0-4.3-2-3.1-2.4
		c1.2-0.4,32.3-6.5,33-6.5C96,15.7,101.9,18.9,102,20.6z"/>
	<path class="st3" d="M98.7,21.5c-0.5,0.1-0.9,0.1-1.3,0.2"/>
	<path class="st3" d="M96.9,21.7c-0.2,0-0.3,0-0.3,0"/>
	<path class="st4" d="M11.5,46.5L11.5,46.5l-2,0.2l0-0.1l0.2-2.7c0,0-2.9-2.7-3.5-3.9C5.5,38.7,5.4,37,6,36.2c0.6-0.7,2-1.1,3-0.5
		c0.6,0.3,1.9,1,2.2,2.4l0,0C11.6,40.5,11.6,44,11.5,46.5z"/>
	<path class="st5" d="M18.2,92c-0.6,0.2-3.3,1-4.3-0.9C13.4,90,13,85.5,13,85.5s-0.5-6.9-0.5-9.3c0-2.4-1.1-25.6-1-29.4v-0.3
		c0.1-2.5,0.1-6-0.2-8.4l0,0C11,36.6,9.6,36,9,35.7c-1-0.6-2.5-0.2-3,0.5C5.4,37,5.5,38.7,6.2,40c0.6,1.2,3.5,3.9,3.5,3.9l-0.2,2.7
		l0,0.1l-1.4,0.2l0.4-2.5c0,0-2.2-1.7-3.3-3.4c-1.1-1.7-1.2-4.1-0.3-5.6c0.3-0.6,0.9-1,1.4-1.3l0,0c0.6-0.2,1.2-0.3,1.8-0.2H8
		c0,0,0,0,0,0c0.8,0,4.8,0.3,5.2,4.5c0,0,0.1,2.9,0.2,7.3c0.4,12.6,1.1,37.3,1.3,38.4c0.2,1.4,0.4,5.3,1.1,6.8
		C16.4,92.2,17.4,92.2,18.2,92z"/>
	<path class="st3" d="M18.2,92C18.3,92,18.3,92,18.2,92"/>
	<path class="st2" d="M8,33.9c-0.1,0-0.1,0-0.1,0"/>
	<g>
		<path class="st6" d="M21.8,44.9c4.5-1,65.9-14.3,71.7-15.6"/>
		<line class="st6" x1="18.7" y1="89.6" x2="100.3" y2="70.3"/>
	</g>
</g>
</svg>
