<?xml version="1.0" encoding="utf-8"?>
<!-- Generator: Adobe Illustrator 21.1.0, SVG Export Plug-In . SVG Version: 6.00 Build 0)  -->
<svg version="1.1" id="Layer_1" xmlns="http://www.w3.org/2000/svg" xmlns:xlink="http://www.w3.org/1999/xlink" x="0px" y="0px"
	 width="108px" height="108px" viewBox="0 0 108 108" style="enable-background:new 0 0 108 108;" xml:space="preserve">
<style type="text/css">
	.st0{fill:#F2F2F2;}
	.st1{fill:#FFFFFF;}
	.st2{fill:none;stroke:#000000;stroke-width:0.75;stroke-linecap:round;stroke-linejoin:round;stroke-miterlimit:10;}
	.st3{fill:#CCCCCC;stroke:#000000;stroke-width:0.75;stroke-linecap:round;stroke-linejoin:round;stroke-miterlimit:10;}
	.st4{fill:#999999;stroke:#000000;stroke-width:0.75;stroke-linecap:round;stroke-linejoin:round;stroke-miterlimit:10;}
	.st5{fill:#B3B3B3;stroke:#000000;stroke-width:0.75;stroke-linecap:round;stroke-linejoin:round;stroke-miterlimit:10;}
	.st6{fill:#E6E6E6;stroke:#000000;stroke-width:0.75;stroke-linecap:round;stroke-linejoin:round;stroke-miterlimit:10;}
	.st7{fill:#999999;}
	.st8{fill:#808080;}
	.st9{fill:none;stroke:#000000;stroke-width:0.5;stroke-linecap:round;stroke-linejoin:round;stroke-miterlimit:10;}
</style>
<g>
	<path class="st0" d="M52.5,8.3L52.5,8.3l0,88.9l0.2,1.1c0.1,0.4,0.2,0.7,0.3,1.1c0.5,1,1.3,1.9,2.3,2.4l3.2,1.6c0-30.9,0-61,0-91.9
		L52.5,8.3z"/>
	<path class="st1" d="M65.1,14.6l-6.5-3.3c0,30.9,0,61,0,91.9l6.5,3.1l1.2-89.7c0-0.3,0-0.5,0-0.7c0-0.3,0-0.6,0-0.7L65.1,14.6z"/>
	<path class="st2" d="M66.3,15.2c0,0.2,0,0.4,0,0.7c0,0.2,0,0.4,0,0.7l-1.2,89.7l-9.8-4.7c-1-0.5-1.8-1.3-2.3-2.4
		c-0.2-0.3-0.3-0.7-0.3-1.1l-0.2-1.1l0-88.8v0l12.6,6.3L66.3,15.2z"/>
	<path class="st3" d="M55.6,5.4c-0.4,0.2-1.1,0.6-1.6,1c0,0-0.1,0.1-0.1,0.1l-3-1.9L55.5,2L55.6,5.4z"/>
	<polygon class="st3" points="49.8,96 49.8,96.1 43.9,100.6 43.6,8.9 49.6,5.4 49.7,5.7 	"/>
	<polygon class="st4" points="55.5,2 50.8,4.7 49.6,5.4 43.6,8.9 41.6,8 45.1,6 53.3,1.7 	"/>
	<polygon class="st5" points="43.9,100.6 42,99.3 41.6,14 41.6,9.7 41.6,9.7 41.6,8 43.6,8.9 	"/>
	<path class="st6" d="M52.7,7.5c-0.2,0.2-0.4,0.5-0.2,0.8l0,88.8L50,96h-0.2L49.7,5.7l-0.2-0.3l1.3-0.7l3,1.9
		C53.2,7,52.8,7.4,52.7,7.5z"/>
	<path class="st6" d="M41.6,9.7l0,4.3h0c-1.7-3.3-2.8-7.2-2.9-7.5c1,1,6.5-0.5,6.5-0.5l0,0L41.6,8L41.6,9.7L41.6,9.7z"/>
	<line class="st2" x1="38.7" y1="6.6" x2="38.6" y2="6.6"/>
	<path class="st7" d="M63,13.2c-0.1,0.2-0.1,0.3-0.1,0.5c1.8,0.9,3,1.5,3,1.5l-0.8,88.2h3.4l0.9-90.8C67,11.8,64.3,10.6,63,13.2z"/>
	<path class="st8" d="M63,13.2c1.3-2.6,4-1.4,6.4-0.6l0-0.3H69c0,0-2-1.2-4.4-2.5c-3-1.8-6.5-3.8-6.9-4c-0.6-0.3-1.2-0.5-1.8-0.5
		c-0.1,0-0.2,0-0.3,0.1c-0.4,0.2-1.1,0.6-1.6,1c0,0-0.1,0.1-0.1,0.1c-0.6,0.4-1.1,0.8-1.2,0.9c-0.2,0.2-0.4,0.5-0.2,0.8
		c0.1,0.1,0.2,0.2,0.3,0.3c0.1,0.1,1.6,0.8,3.5,1.8c2.1,1,4.6,2.3,6.6,3.3C62.9,13.5,62.9,13.4,63,13.2z"/>
	<path class="st2" d="M69.4,12.3l-0.9,91.1h-3.4l0.8-88.2c0,0-5.8-2.8-9.7-4.8c-1.9-1-3.4-1.7-3.5-1.8c-0.1-0.1-0.2-0.2-0.3-0.3
		c-0.2-0.3,0-0.5,0.2-0.8c0.1-0.1,0.6-0.5,1.2-0.9c0,0,0.1-0.1,0.1-0.1c0.6-0.4,1.2-0.8,1.6-1c0.1-0.1,0.3-0.1,0.3-0.1
		c0.7,0,1.2,0.2,1.8,0.5c0.4,0.2,3.9,2.2,6.9,4c2.3,1.4,4.4,2.5,4.4,2.5H69.4z"/>
	<g>
		<g>
			<line class="st9" x1="59" y1="13" x2="58.4" y2="100.4"/>
			<line class="st9" x1="55.6" y1="11.4" x2="55.1" y2="98.8"/>
			<line class="st9" x1="63.6" y1="15.7" x2="63" y2="103.1"/>
		</g>
		<g>
			<path class="st9" d="M57.4,6.9c0,0-2.2,1.6-1.7,2.2c0.6,0.6,1.8-0.1,1.8-0.1l0.5,2"/>
			<path class="st9" d="M60.9,8.6c0,0-2.2,1.6-1.7,2.2c0.6,0.6,1.8-0.1,1.8-0.1l0.5,2"/>
			<path class="st9" d="M64.5,10.3c0,0-2.2,1.7-1.7,2.2c0.6,0.6,1.8-0.1,1.8-0.1l0.5,2"/>
		</g>
	</g>
</g>
</svg>
