<?xml version="1.0" encoding="utf-8"?>
<!-- Generator: Adobe Illustrator 21.1.0, SVG Export Plug-In . SVG Version: 6.00 Build 0)  -->
<svg version="1.1" id="Layer_1" xmlns="http://www.w3.org/2000/svg" xmlns:xlink="http://www.w3.org/1999/xlink" x="0px" y="0px"
	 width="108px" height="108px" viewBox="0 0 108 108" style="enable-background:new 0 0 108 108;" xml:space="preserve">
<style type="text/css">
	.st0{fill:#B3B3B3;stroke:#000000;stroke-width:0.75;stroke-linecap:round;stroke-linejoin:round;stroke-miterlimit:10;}
	.st1{fill:#B3B3B3;stroke:#000000;stroke-width:0.5;stroke-linecap:round;stroke-linejoin:round;stroke-miterlimit:10;}
	.st2{fill:#F2F2F2;stroke:#000000;stroke-width:0.75;stroke-linecap:round;stroke-linejoin:round;stroke-miterlimit:10;}
	.st3{fill:none;stroke:#000000;stroke-width:0.75;stroke-linecap:round;stroke-linejoin:round;}
	.st4{fill:#999999;stroke:#000000;stroke-width:0.5;stroke-linecap:round;stroke-linejoin:round;}
	.st5{fill:#CCCCCC;stroke:#000000;stroke-width:0.75;stroke-linecap:round;stroke-linejoin:round;}
	.st6{fill:#E6E6E6;stroke:#000000;stroke-width:0.75;stroke-linecap:round;stroke-linejoin:round;}
	.st7{fill:#FFFFFF;stroke:#000000;stroke-width:0.75;stroke-linecap:round;stroke-linejoin:round;}
	.st8{fill:#F2F2F2;stroke:#000000;stroke-width:0.75;stroke-linecap:round;stroke-linejoin:round;}
	.st9{fill:none;stroke:#000000;stroke-width:0.5;stroke-linecap:round;stroke-linejoin:round;}
	.st10{fill:none;stroke:#000000;stroke-width:0.5;}
	.st11{fill:#E6E6E6;stroke:#000000;stroke-width:0.75;stroke-linecap:round;stroke-linejoin:round;stroke-miterlimit:10;}
</style>
<g>
	<g>
		<path class="st0" d="M18.6,60.2c0-0.1,0-0.1,0-0.2l0-3.9c0,0.1,0,0.3,0,0.4c-0.1,1.7-0.1,3.2-0.2,4.5l-8.9,1.7l0,0.1
			c-0.3-0.1-0.6-0.2-0.8-0.3c-1.1-0.5-2.2-0.9-3.2-1.4c-1.2-0.5-2.2-1-2.8-1.2c0,0,0,0.1,0,0.1c0,0,0,0.1,0,0.1l0.1,1.9l15.9,5.9
			L18.6,60.2z"/>
	</g>
	<g>
		<path class="st1" d="M10.3,36.6C10.3,36.6,10.3,36.6,10.3,36.6"/>
		<path class="st1" d="M6.6,35.7"/>
		<path class="st1" d="M16.8,36.9c-0.7,0.2-4.9,1.4-5.8,1.4c-0.7,0-0.8-0.7-0.7-1.7C9,37,7.8,37.2,7.3,37.2c-0.6,0-0.8-0.6-0.7-1.5
			c-1.2,0.3-2.3,0.6-2.8,0.5c-1,0-0.9-1.4-0.5-3.1l1.5-1.2l10.6,2.5L16.8,36.9z"/>
		<path class="st1" d="M10.2,36.7"/>
		<path class="st1" d="M6.8,35.7c-0.1,0-0.1,0-0.2,0.1"/>
	</g>
	<g>
		<path class="st2" d="M106,66.5l-0.1,0c-1.1,0-79.9,13.6-80.7,14c-0.1,0.1-0.2,0.4-0.3,0.9v0c-0.2,1.5-0.1,4.4-0.1,4.9l-0.1,0.2
			c0.1,0,0.1,0,0.1,0c0.1,0,0.1,0,0.2,0c0,0,0.1,0,0.1,0c1.8,0.1,79.1-13.5,80.4-14.3C106.5,71.8,106.6,68.6,106,66.5z"/>
	</g>
	<path class="st3" d="M18.6,55.8c0.1-3.2,0.1-6.8,0.1-10c0-0.4,0-0.8,0-1.1c0-0.2,0-0.4,0-0.6c0-1.9-0.1-3.5-0.2-4.7
		c0-0.1,0-0.2,0-0.3c0-0.1,0-0.2,0-0.3c0-0.1,0-0.2,0-0.2c-0.1-0.7-0.2-1.1-0.3-1.2v0c-0.9-0.8-13-3.6-14.9-4.6c0,0,0,0,0,0
		C3.1,32.7,3,32.7,3,32.6c-0.4-0.8-0.3-2.2,1.3-2.2c0.1,0,0.3,0,0.6,0.1c3.6,0.7,19.1,5.2,19.7,5.7c0,0,0.1,0.1,0.1,0.2
		c0,0,0,0.1,0,0.1c0.4,1.2,0.3,5.1,0.2,6c0,0,0,0,0,0c0,0,0,0,0,0.1"/>
	<path class="st3" d="M18.4,61c-0.1,2.1-0.2,3.5-0.4,3.9c-0.4,1-4.5-0.5-8.5-2.2"/>
	<path class="st4" d="M18.6,55.1V56c0,0.1,0,0.3,0,0.4l-0.3,0c-0.7,0-7.2,1.3-8.4,1.7c-1.1,0.3-1.1,3.3-1.2,4.1l0,0.1
		c-1.1-0.5-2.2-0.9-3.2-1.4c0.1-1,0.2-3.2,1.2-3.5c1.2-0.4,11-2.4,11.7-2.4H18.6z"/>
	<path class="st3" d="M105.5,72.4c-1.2,0.8-78.6,14.4-80.4,14.3c0,0-0.1,0-0.1,0c-0.1,0-0.1,0-0.2,0c-0.1,0-0.1,0-0.1,0l0.1-0.2
		c0-0.5-0.1-3.4,0.1-4.9v0c0.1-0.5,0.2-0.8,0.3-0.9c0.8-0.3,79.5-14,80.7-14l0.1,0C106.6,68.6,106.5,71.8,105.5,72.4z"/>
	<path class="st5" d="M22.9,81.9c-0.6,1.2-1.8,1-2.4-0.3c-0.4-0.9,0-40.7,0-42.5c0.1-1.5,1-0.8,1.8-0.1c0.6,0.5,0.7,3.6,1.5,3.9
		c0,0,0.1,0,0.2,0c0.1,0,0.2,0,0.3,0c0,0,0.1,0,0.1,0c0.1,0,0.2,0,0.3,0c0.1,0,0.2,0,0.3,0c8.4-1,59.9-8.4,75.5-10.6l0.1,33.3
		c-16.9,2.5-75,13.4-76.6,13.3C22.2,78.6,23.9,80,22.9,81.9z"/>
	<path class="st6" d="M106,66.5l-0.1,0c-1.1,0-79.9,13.6-80.7,14c-0.1,0.1-0.2,0.4-0.3,0.9c0-0.2,0-0.4,0-0.5
		c0.1-1.4-0.9-2.2-0.9-2.2c1.6,0.1,59.7-10.8,76.6-13.3c2.8-0.4,4.4-0.6,4.5-0.5c0.1,0.1,0.1,0.1,0.2,0.2v0
		C105.6,65.4,105.8,66,106,66.5z"/>
	<path class="st7" d="M104.6,25.6c-1.7,0.2-79.4,10.8-79.8,10.7l-0.1,0c0,0,0-0.1-0.1-0.1c-0.7-0.5-16.2-5-19.7-5.7
		c-0.1,0-0.3-0.1-0.4-0.1c3.1-0.2,18.8-1.5,77.7-9.1h0C84.4,21.7,101.8,24.6,104.6,25.6z"/>
	<path class="st3" d="M82.3,21.4c-0.1,0-0.2,0-0.2,0"/>
	<path class="st8" d="M105,30.2C105,30.2,105,30.2,105,30.2c-0.1,0.8-0.1,1.3-0.1,1.3s0,0-0.1,0c-0.2,0-0.7,0.1-1.6,0.2
		c0,0,0,0-0.1,0c-0.7,0.1-1.6,0.2-2.7,0.4C85,34.4,33.5,41.8,25,42.7c0,0,0,0,0-0.1v0c0-0.8,0.1-4.8-0.2-6c0-0.1,0-0.1,0-0.1
		c0,0,0-0.1-0.1-0.1l0.1,0c0.4,0.1,78.1-10.5,79.8-10.7c0.2,0.1,0.3,0.1,0.4,0.2c0,0,0,0,0,0.1v0C105.3,26.5,105.2,28.7,105,30.2z"
		/>
	<path class="st3" d="M24.7,86.6c-1.9-0.4-5.6-2.4-6.6-3.1h0c-0.1,0-0.1-0.1-0.2-0.1c-0.8-0.6,0.4-13.3-0.6-14.9
		c0-0.1-0.1-0.1-0.1-0.1c-1.1-0.6-13.2-5-15-6.1c0,0,0,0,0,0C2.1,62.2,2,62.1,2,62.1c-0.4-0.6-0.7-2.7,0.3-2.4
		c0.1,0,0.2,0.1,0.4,0.1"/>
	<path class="st3" d="M104.6,25.6C104.6,25.6,104.6,25.6,104.6,25.6"/>
	<path class="st3" d="M4.6,30.5C4.5,30.5,4.5,30.5,4.6,30.5c-0.1,0-0.2,0-0.3,0"/>
	<path class="st3" d="M3.9,30.5c0,0,0.1,0,0.3,0c0.1,0,0.2,0,0.3,0"/>
	<g>
		<line class="st9" x1="23.5" y1="67.6" x2="96.6" y2="55.9"/>
		<path class="st9" d="M38.8,62.3c0,0,43-6.1,55.1-8.4"/>
		<path class="st9" d="M28.6,60.3c0,0,42.1-6,54.6-8.4"/>
		<path class="st9" d="M26.9,55.6c0,0,39.5-5.6,49.9-7.1"/>
		<line class="st9" x1="23.1" y1="54.3" x2="70.5" y2="47.1"/>
		<path class="st10" d="M100.4,32.4c0.1,0.9-0.2,32.8-0.1,33.3"/>
		<line class="st9" x1="27.8" y1="83.5" x2="94.7" y2="72.1"/>
	</g>
	<path class="st9" d="M10.5,35.3c-0.4,1.7-0.5,3,0.5,3c1,0,5.1-1.2,5.8-1.4"/>
	<path class="st9" d="M6.9,34.2c-0.4,1.7-0.5,3,0.5,3c0.5,0,1.7-0.3,3-0.6"/>
	<path class="st9" d="M3.4,33.2c-0.4,1.7-0.5,3.1,0.5,3.1"/>
	<path class="st3" d="M5.5,61.3c0-0.1,0-0.1,0-0.2c0,0,0-0.1,0-0.1"/>
	<path class="st4" d="M18.5,56.4c-0.1,1.7-0.1,3.2-0.2,4.5l-8.9,1.7l0,0.1c-0.3-0.1-0.6-0.2-0.8-0.3l0-0.1c0.1-0.8,0-3.7,1.2-4.1
		c1.2-0.4,7.7-1.8,8.4-1.7L18.5,56.4z"/>
	<path class="st4" d="M18.6,55.1h-0.2c-0.7,0-10.4,2-11.7,2.4c-1,0.3-1.1,2.5-1.2,3.5c-1.2-0.5-2.2-1-2.8-1.2
		c0.1-0.9,0.1-2.7,1.2-3.1c1.2-0.4,14-2.7,14.7-2.7L18.6,55.1z"/>
	<path class="st3" d="M2.7,59.9C2.7,59.9,2.7,59.9,2.7,59.9c0-0.1,0-0.1,0-0.2"/>
	<line class="st3" x1="18.4" y1="60.9" x2="18.4" y2="61"/>
	<path class="st11" d="M25.1,86.7c0,0-0.1,0-0.1,0c-0.1,0-0.1,0-0.2,0c-0.1,0-0.1,0-0.1,0c-1.9-0.4-5.6-2.4-6.6-3.1h0
		c-0.1,0-0.1-0.1-0.2-0.1c-0.8-0.6,0.4-13.3-0.6-14.9c0-0.1-0.1-0.1-0.1-0.1c-1.1-0.6-13.2-5-15-6.1c0,0,0,0,0,0
		C2.1,62.2,2,62.1,2,62.1c-0.4-0.6-0.7-2.7,0.3-2.4c0.1,0,0.2,0.1,0.4,0.1C3.2,60,4.2,60.5,5.5,61c1,0.4,2,0.9,3.2,1.4
		c0.3,0.1,0.5,0.2,0.8,0.3c4,1.6,8.1,3.1,8.5,2.2c0.1-0.4,0.3-1.9,0.4-3.9c0.1-1.3,0.1-2.8,0.2-4.5c0-0.1,0-0.3,0-0.4v-0.2
		c0.1-3.2,0.1-6.8,0.1-10c0-0.4,0-0.8,0-1.1c0-0.2,0-0.4,0-0.6c0-1.9-0.1-3.5-0.2-4.7c0-0.1,0-0.2,0-0.3c0-0.1,0-0.2,0-0.3
		c0-0.1,0-0.2,0-0.2c-0.1-0.7-0.2-1.1-0.3-1.2v0c-0.9-0.8-13-3.6-14.9-4.6l0,0C3.1,32.7,3,32.7,3,32.6c-0.4-0.8-0.3-2.2,1.3-2.2
		c0.1,0,0.1,0,0.2,0c0,0,0,0,0,0c0.1,0,0.2,0,0.4,0.1c3.6,0.7,19.1,5.2,19.7,5.7c0,0,0,0,0.1,0.1c0,0,0,0.1,0.1,0.1c0,0,0,0.1,0,0.1
		c0.3,1.2,0.2,5.2,0.2,6v0c0,0.1,0,0.1,0,0.1c-0.1,0-0.2,0-0.3,0c-0.1,0-0.2,0-0.3,0c0,0-0.1,0-0.1,0c-0.1,0-0.2,0-0.3,0
		c-0.1,0-0.2,0-0.2,0c-0.8-0.2-0.9-3.4-1.5-3.9c-0.8-0.6-1.8-1.3-1.8,0.1c-0.1,1.8-0.5,41.6,0,42.5c0.6,1.3,1.8,1.5,2.4,0.3
		c1-1.9-0.7-3.3,1.1-3.2c0,0,1,0.9,0.9,2.2c0,0.1,0,0.3,0,0.5v0C24.9,83.2,25.1,86.7,25.1,86.7z"/>
</g>
</svg>
