<?xml version="1.0" encoding="utf-8"?>
<!-- Generator: Adobe Illustrator 21.1.0, SVG Export Plug-In . SVG Version: 6.00 Build 0)  -->
<svg version="1.1" id="Layer_1" xmlns="http://www.w3.org/2000/svg" xmlns:xlink="http://www.w3.org/1999/xlink" x="0px" y="0px"
	 width="108px" height="108px" viewBox="0 0 108 108" style="enable-background:new 0 0 108 108;" xml:space="preserve">
<style type="text/css">
	.st0{fill:#E6E6E6;stroke:#000000;stroke-width:0.75;stroke-linecap:round;stroke-linejoin:round;stroke-miterlimit:10;}
	.st1{fill:#CCCCCC;stroke:#000000;stroke-width:0.75;stroke-linecap:round;stroke-linejoin:round;stroke-miterlimit:10;}
	.st2{fill:none;stroke:#000000;stroke-width:0.75;stroke-linecap:round;stroke-linejoin:round;stroke-miterlimit:10;}
	.st3{fill:#FFFFFF;stroke:#000000;stroke-width:0.75;stroke-linecap:round;stroke-linejoin:round;stroke-miterlimit:10;}
	.st4{fill:#F2F2F2;stroke:#000000;stroke-width:0.75;stroke-linecap:round;stroke-linejoin:round;stroke-miterlimit:10;}
	.st5{fill:#FFFFFF;}
	.st6{fill:#F2F2F2;}
	.st7{fill:none;stroke:#000000;stroke-width:0.5;stroke-linecap:round;stroke-linejoin:round;stroke-miterlimit:10;}
	.st8{fill:#FFFFFF;stroke:#000000;stroke-width:0.5;stroke-linecap:round;stroke-linejoin:round;stroke-miterlimit:10;}
	.st9{fill:#B3B3B3;stroke:#000000;stroke-width:0.75;stroke-linecap:round;stroke-linejoin:round;stroke-miterlimit:10;}
</style>
<g>
	<polygon class="st0" points="78.7,41 40,60.3 31.1,64.7 29.8,65.3 29.7,65.4 24.4,67.9 23.9,68.2 23.6,63.2 23.3,56.8 23.2,54.4 
		23.2,54.3 23.2,54.3 38.4,46.6 77.9,26.8 78.2,31.3 78.2,32.2 78.6,39.6 	"/>
	<path class="st1" d="M23.8,63.3c0,2,1.4,2.2,2.2,2.2C25.8,63.9,23.8,63.3,23.8,63.3z"/>
	<line class="st2" x1="23.6" y1="63.2" x2="30.3" y2="59.7"/>
	<line class="st2" x1="26" y1="65.5" x2="30.8" y2="62.6"/>
	<path class="st1" d="M24.1,59.8c0,2,1.4,2.2,2.2,2.2C26.1,60.5,24.1,59.8,24.1,59.8z"/>
	<line class="st2" x1="24" y1="59.8" x2="30.7" y2="56.3"/>
	<line class="st2" x1="26.3" y1="59" x2="31.1" y2="56.2"/>
	<path class="st3" d="M18.5,67.5c0,0,7.6,5.5,10.2,7.4s3.8,2.9,3.8,2.9l5-2.1L18.5,67.5z"/>
	<polyline class="st4" points="48.7,80.2 48.1,82 4.9,61.1 5,59.3 	"/>
	<polygon class="st4" points="3.2,57.4 57.4,29.2 64.5,32.8 23.3,54.7 23.3,67.7 	"/>
	<path class="st5" d="M84.1,29.5c-0.2-0.9-1.1-0.6-1.1-0.6L29.7,56.6l0.1,13.9c18.5-9.6,37.4-19.1,55.5-28.6
		C85.1,40,84.1,29.8,84.1,29.5z"/>
	<path class="st6" d="M103.4,50.8c-1.5-0.7-18-8.6-18-8.6s0-0.1,0-0.3c-18.9,8.5-37,19-55.5,28.6l0,0.6c0,0,19.7,8.6,20.5,10.2
		l54.5-28.2C104.8,53.1,105,51.5,103.4,50.8z"/>
	<path class="st2" d="M50.4,81.3l54.5-28.2c0,0,0.1-1.5-1.4-2.3c-1.5-0.7-18-8.6-18-8.6s-1.2-12.4-1.3-12.8
		c-0.2-0.9-1.1-0.6-1.1-0.6L29.7,56.6l0.1,14.5C29.8,71.1,49.5,79.6,50.4,81.3z"/>
	<path class="st4" d="M24,55l53.9-28.2c0,0-0.2-1.1-1.4-0.7s-53.7,28-53.7,28L24,55z"/>
	<path class="st1" d="M26.6,59c0,0,2.9,1.6,2.9-1C27.8,57.6,26.6,59,26.6,59z"/>
	<path class="st1" d="M29.5,66.3c0,2.6-2.9,1.1-2.9,1.1S27.8,65.9,29.5,66.3z"/>
	<path class="st1" d="M26.8,63.4c0,0,2.9,1.6,2.9-1.1C28,61.9,26.8,63.4,26.8,63.4z"/>
	<line class="st2" x1="83.2" y1="29.6" x2="31" y2="57"/>
	<line class="st7" x1="33.4" y1="63" x2="82.2" y2="37.8"/>
	<path class="st8" d="M34.2,68.5l49.6-25.6c0,0,0-1.1-0.8-1.1"/>
	<path class="st9" d="M29.7,65.4l-5.2,2.5l5.2,2.3C29.7,70.2,29.7,68.2,29.7,65.4z M26.6,67.3c0,0,1.2-1.5,2.9-1.1
		C29.5,68.9,26.6,67.3,26.6,67.3z"/>
	<path class="st1" d="M50.4,81.3l-1.7-0.4c0,0-0.1,0-0.2-0.1v0c-1-0.5-5.4-2.5-11-5.2c-0.4-0.2-0.9-0.4-1.3-0.6c0,0-0.1,0-0.1,0
		C25.1,69.7,10,62.4,4.9,60c-1-0.5-1.6-0.8-1.7-0.8l0.1-1.5c1.1,0.4,6.5,3.1,11.4,5.6c0.6,0.3,1.1,0.6,1.7,0.9l0.8,0.4
		c3.1,1.6,5.6,2.8,5.6,2.8s0-7,0.1-13.3l0.1,0l0.3,0.1l0.5,0.2l0.4,0.2v0.3c0,1.6,0.1,3.2,0.1,4.8v0.2c0,0.3,0,0.5,0,0.8
		c0,0.8,0,1.5,0,2.3c0,0.2,0,0.4,0,0.6c0,0.5,0,1,0,1.4c0,1.8,0,3,0,3l0.1,0l5.2,2.3c0,0,0-2,0-4.8c0-0.7,0-1.4,0-2.1
		c0-0.1,0-0.2,0-0.3v-0.6c0-0.7,0-1.5,0-2.2c0-1,0-2-0.1-3v-0.2c0-0.1,0-0.3,0-0.4l0.2,0.1l0.3,0.1l0.2,0.1l0.7,0.2v0.1
		c0.1,2.6,0.2,5.3,0.3,7.6c0.1,2.1,0.2,4,0.2,5c0,0.7,0,1.1,0,1.1s16.5,8.2,18.3,8.8L50.4,81.3z"/>
</g>
</svg>
