<?xml version="1.0" encoding="utf-8"?>
<!-- Generator: Adobe Illustrator 21.1.0, SVG Export Plug-In . SVG Version: 6.00 Build 0)  -->
<svg version="1.1" id="Layer_1" xmlns="http://www.w3.org/2000/svg" xmlns:xlink="http://www.w3.org/1999/xlink" x="0px" y="0px"
	 width="108px" height="108px" viewBox="0 0 108 108" style="enable-background:new 0 0 108 108;" xml:space="preserve">
<style type="text/css">
	.st0{fill:#CCCCCC;}
	.st1{fill:#FFFFFF;}
	.st2{fill:#E6E6E6;}
	.st3{fill:none;stroke:#000000;stroke-width:0.75;stroke-linecap:round;stroke-linejoin:round;stroke-miterlimit:10;}
	.st4{fill:none;stroke:#000000;stroke-width:0.5;stroke-linecap:round;stroke-linejoin:round;stroke-miterlimit:10;}
	.st5{fill:#FFFFFF;stroke:#000000;stroke-width:0.5;stroke-linecap:round;stroke-linejoin:round;stroke-miterlimit:10;}
	.st6{fill:#F2F2F2;}
</style>
<g>
	<g>
		<path class="st0" d="M25.1,85.3c0,0,5.4-3.8,13.2-9.5c-7.8-9.3-13.2-20.9-16.2-32.7C23.3,60.5,21.7,85.3,25.1,85.3z"/>
		<path class="st1" d="M71.1,22.3c-3,0-68,3-65,4s15,8,15,8c0,0.1,0,0.2,0.1,0.3c25.5-0.4,51.3-1.4,76.6-3.5
			C94.9,29.6,73.9,22.3,71.1,22.3z M19.6,28.3c-1.4,0-2.5-0.5-2.5-1s1.1-1,2.5-1s2.5,0.5,2.5,1S20.9,28.3,19.6,28.3z M68.6,26.3
			c-1.4,0-2.5-0.5-2.5-1s1.1-1,2.5-1s2.5,0.5,2.5,1S69.9,26.3,68.6,26.3z"/>
		<path class="st2" d="M97.8,31.1c-25.3,2.1-51.1,3.2-76.6,3.5c0.4,2.5,0.8,5.3,1,8.4c3,11.8,8.3,23.5,16.2,32.7
			c21.2-15.3,60.5-43.8,59.8-44.5C98,31.3,97.9,31.2,97.8,31.1z"/>
		<path class="st3" d="M25.1,85.3c-4,0-1-35-4-51c0,0-12-7-15-8s62-4,65-4s26,8,27,9S25.1,85.3,25.1,85.3z"/>
		<ellipse class="st4" cx="19.6" cy="27.3" rx="2.5" ry="1"/>
		<ellipse class="st4" cx="68.6" cy="25.3" rx="2.5" ry="1"/>
	</g>
	<path class="st5" d="M24.1,32.3c0,0,55-1,64-3"/>
	<g>
		<path class="st1" d="M98.6,31.8l-74.5,3.5c1.2,14.8,3.2,29.5,3.4,39.1c24.8-0.4,50-0.4,74.4-5.2C101.2,55.5,98.6,31.8,98.6,31.8z"
			/>
		<path class="st6" d="M27.5,74.5c0.1,6-0.5,10.1-2.4,10.9c-4.6,1.9,74.5-4.5,76.5-6.5c0.5-0.5,0.6-4.3,0.3-9.6
			C77.4,74.1,52.3,74.1,27.5,74.5z"/>
		<g>
			<path class="st3" d="M98.6,31.8c0,0,5,45,3,47s-81.1,8.4-76.5,6.5c5-2,1-26-1-50L98.6,31.8z"/>
		</g>
	</g>
</g>
</svg>
