<?xml version="1.0" encoding="utf-8"?>
<!-- Generator: Adobe Illustrator 21.1.0, SVG Export Plug-In . SVG Version: 6.00 Build 0)  -->
<svg version="1.1" id="Layer_1" xmlns="http://www.w3.org/2000/svg" xmlns:xlink="http://www.w3.org/1999/xlink" x="0px" y="0px"
	 width="108px" height="108px" viewBox="0 0 108 108" style="enable-background:new 0 0 108 108;" xml:space="preserve">
<style type="text/css">
	.st0{fill:#F2F2F2;stroke:#000000;stroke-width:0.75;stroke-linecap:round;stroke-linejoin:round;stroke-miterlimit:10;}
	.st1{fill:#FFFFFF;stroke:#000000;stroke-width:0.75;stroke-linecap:round;stroke-linejoin:round;stroke-miterlimit:10;}
	.st2{fill:#CCCCCC;stroke:#000000;stroke-width:0.75;stroke-linecap:round;stroke-linejoin:round;stroke-miterlimit:10;}
	.st3{fill:#E6E6E6;stroke:#000000;stroke-width:0.75;stroke-linecap:round;stroke-linejoin:round;stroke-miterlimit:10;}
	.st4{fill:#B3B3B3;stroke:#000000;stroke-width:0.75;stroke-linecap:round;stroke-linejoin:round;stroke-miterlimit:10;}
	.st5{fill:none;stroke:#000000;stroke-width:0.75;stroke-linecap:round;stroke-linejoin:round;stroke-miterlimit:10;}
	.st6{fill:none;stroke:#000000;stroke-width:0.5;stroke-linecap:round;stroke-linejoin:round;stroke-miterlimit:10;}
	.st7{fill:#B3B3B3;stroke:#000000;stroke-width:0.5;stroke-linecap:round;stroke-linejoin:round;stroke-miterlimit:10;}
	.st8{fill:#CCCCCC;stroke:#000000;stroke-width:0.5;stroke-linecap:round;stroke-linejoin:round;stroke-miterlimit:10;}
	.st9{fill:#F2F2F2;stroke:#000000;stroke-width:0.5;stroke-linecap:round;stroke-linejoin:round;stroke-miterlimit:10;}
	.st10{fill:#E6E6E6;stroke:#000000;stroke-width:0.5;stroke-linecap:round;stroke-linejoin:round;stroke-miterlimit:10;}
	.st11{fill:#999999;stroke:#000000;stroke-width:0.5;stroke-linecap:round;stroke-linejoin:round;stroke-miterlimit:10;}
</style>
<g>
	<path class="st0" d="M17,22.8l0.2,0.7c-1-0.4-1.5-0.6-1.6-0.8c-0.6-1.2-0.3-5.8-0.3-5.8L14,16.8c0.2-0.2,0.4-0.3,0.7-0.4
		c1.2-0.4,46-10.8,47-10.9c1-0.1,2.2-0.1,2.8,0.4c0.6,0.6,2.1,4.8,2.1,4.8L17,22.8z"/>
	<path class="st1" d="M84.8,20.5l-17.9,4l0.1,0.6c-0.4-0.3-1.6-1-3.4-1.7c-2.2-0.8-11.6-3.8-12.8-3.6c-0.5,0.1-0.9,0.3-1.2,0.5
		c-0.2,0.1-0.3,0.3-0.4,0.4c-0.2,0.3-0.2,0.7,0,1c0.3,0.7,5.7,3.3,8.5,5l-0.1,0.3l-15.4,3.5c0,0-19.4-4.9-25.2-7.1L17,22.8l49.6-12
		c0,0,16.5,8,18.6,9.4L84.8,20.5z"/>
	<path class="st2" d="M53.4,81.9L35.1,96.5l-0.2,0.3L31,97.3l-0.5-0.1c0.5-0.8,1.6-1.7,1.6-1.7l15.8-13.2l1.4-1.2l-10-46.9
		c0,0-0.7-0.2-2-0.7c-5.9-2-23.1-7.7-23.8-8.4c-0.8-0.8-1.2-4-1.2-5.3c0-1.1,0.7-2.4,1.7-3.1l1.2,0.1c0,0-0.2,4.6,0.3,5.8
		c0.1,0.2,0.7,0.5,1.6,0.8c5.8,2.2,25.2,7.1,25.2,7.1L51.1,71L53.4,81.9z"/>
	<path class="st3" d="M68,70.3c-0.3-1.7-0.7-3.6-1.1-5.7c-0.2-0.9-0.4-1.9-0.6-2.9v0c-0.1-0.6-0.2-1.3-0.4-1.9
		c-0.2-1.2-0.5-2.5-0.7-3.8c-0.3-1.5-0.6-3.1-0.9-4.7c-0.4-1.9-0.8-3.8-1.1-5.7c-0.2-0.8-0.3-1.6-0.5-2.4c-0.4-2-0.8-4-1.1-5.7
		c-1.1-5.3-1.9-9.1-2-9.4c-0.1-0.3-0.8-0.8-1.7-1.3l-0.1,0.3l-15.4,3.5L51.1,71l2.3,10.8l15.7-3.5l0.2,0.2l0.2-0.3
		C69.5,78.3,68.9,75.1,68,70.3z M64.9,68.8c-0.1,0.7-5.2,1.6-6.4,1.9c-0.2,0-0.3,0-0.3,0l-4.1-0.3l-0.3-3.6v-0.5L48,40.2l7.1-1.6
		l2.4-0.5l0.5,3.5l1.7-0.4c0,0,4.8,23.3,4.9,24.3C64.8,66.4,65,68,64.9,68.8z"/>
	<path class="st3" d="M87.1,26c0,0-0.8-4.9-1.9-5.8c0,0-0.1-0.1-0.2-0.1l-0.3,0.3l-17.9,4l0.1,0.6c0.1,0.1,0.1,0.1,0.1,0.1l3.2,14.8
		l1.2,5.5l2.2,10.2l2,9.3h0l2.5,11.5l17-4.1c0.2-0.6,0.5-1.6,0.5-2.3C95.7,69.2,87.1,26,87.1,26z M90.8,62.8
		c-0.1,0.7-5.2,1.6-6.4,1.9c-0.2,0-0.3,0-0.3,0L80,64.4l-0.3-3.6v-0.4L74,34.2l7.1-1.6l2.4-0.5l0.5,3.4l1.7-0.4
		c0,0,4.8,23.3,4.9,24.3C90.7,60.4,90.9,62,90.8,62.8z"/>
	<path class="st2" d="M95.1,73.1L84.9,86c0,0,0,0.2,0,0.4h-0.1l-20.6,4.2h0L53,92.9l-17.8,3.6l18.3-14.6l15.7-3.5l0.2,0.2L63,86
		l2.2,0.1l0.5,0l1.7,0.1l10.9-9.6l17-4.1C95.1,72.8,95.1,73.1,95.1,73.1z"/>
	<path class="st4" d="M84.7,90.1c-0.3,1.3-4.8,3-7.1,3.6c-2.3,0.6-13.1,2.3-14,1.8c-0.9-0.6-2-3.9-2-3.9l-8.5,1.7L53,92.9l11.2-2.3
		l20.6-4.2h0.1C84.9,87.3,84.9,89.1,84.7,90.1z"/>
	<path class="st4" d="M53.1,93.2c0,0,0,2.8,0,3.9c0,1.1-1.3,2-2.3,2.5c-1,0.4-15.7,3.2-17.3,2.9c-1.6-0.3-3.2-3.9-3.2-4.6
		c0-0.2,0.1-0.4,0.3-0.6l0.5,0.1l3.9-0.6l0.2-0.3L53,92.9L53.1,93.2z"/>
	<line class="st5" x1="17" y1="22.8" x2="16.9" y2="22.8"/>
	<line class="st6" x1="34.9" y1="96.8" x2="34.7" y2="101.6"/>
	<path class="st6" d="M64.2,90.6c0,0,0.6,2.8,1.1,3.3c0.6,0.6,1.6,1,1.6,1"/>
	<path class="st7" d="M49.3,81.2l-1.4,1.2l-0.4-0.5c0,0-1.1-6.8-1.3-7.1c-0.2-0.3-6-11.3-7.1-17.9c-1-6-1.2-18.7-1.2-18.7l-0.7-3.8
		l0.2-0.7c1.2,0.4,2,0.7,2,0.7L49.3,81.2z"/>
	<g>
		<path class="st8" d="M53.7,66.8v-0.5L48,40.2l7.1-1.6C55,39,55.1,42,55.1,42l0.1,0.3L52.5,43c0,0-0.2,0.5-0.3,1.2
			c-0.3,1.1-0.7,2.8-0.7,3.5c0.1,1.1,4,19.2,4,19.2H53.7z"/>
		<path class="st8" d="M79.7,60.8v-0.4L74,34.2l7.1-1.6C81,33,81,36,81,36l0.1,0.3L78.5,37c0,0-0.2,0.5-0.3,1.2
			c-0.3,1.1-0.7,2.8-0.7,3.5c0.1,1.1,4,19.2,4,19.2H79.7z"/>
		<g>
			<path class="st9" d="M64.9,68.8c-0.1,0.7-5.2,1.6-6.4,1.9l0-0.3l-5.7-26.1l-0.6-0.2c0.2-0.7,0.3-1.2,0.3-1.2l2.6-0.7l2.9-0.8
				l1.7-0.4c0,0,4.8,23.3,4.9,24.3C64.8,66.4,65,68,64.9,68.8z"/>
			<path class="st10" d="M58.4,70.7c-0.2,0-0.3,0-0.3,0l-4.1-0.3l-0.3-3.6h1.8c0,0-3.9-18-4-19.2c-0.1-0.7,0.3-2.4,0.7-3.5l0.6,0.2
				l5.7,26.1L58.4,70.7z"/>
			<path class="st7" d="M58.1,41.5l-2.9,0.8L55.1,42c0,0,0-3,0.1-3.4l2.4-0.5L58.1,41.5z"/>
			<line class="st6" x1="58.1" y1="41.6" x2="58.1" y2="41.5"/>
		</g>
		<g>
			<path class="st9" d="M90.8,62.8c-0.1,0.7-5.2,1.6-6.4,1.9l0-0.3l-5.7-26.1l-0.6-0.2c0.2-0.7,0.3-1.2,0.3-1.2l2.6-0.7l2.9-0.8
				l1.7-0.4c0,0,4.8,23.3,4.9,24.3C90.7,60.4,90.9,62,90.8,62.8z"/>
			<path class="st10" d="M84.4,64.7c-0.2,0-0.3,0-0.3,0L80,64.4l-0.3-3.6h1.8c0,0-3.9-18-4-19.2c-0.1-0.7,0.3-2.4,0.7-3.5l0.6,0.2
				l5.7,26.1L84.4,64.7z"/>
			<path class="st7" d="M84,35.5l-2.9,0.8L81,36c0,0-0.1-3,0.1-3.4l2.4-0.5L84,35.5z"/>
		</g>
	</g>
	<path class="st10" d="M70.4,39.9l-0.2,0L67,38.9l-0.1,0C66.4,36.7,64.4,27,64,26.5C63.5,25.9,50,20.9,50,20.9l-0.8-0.1
		c0.1-0.2,0.2-0.3,0.4-0.4c0.3-0.3,0.7-0.5,1.2-0.5c1.2-0.2,10.6,2.8,12.8,3.6c1.8,0.6,3,1.4,3.4,1.7c0.1,0.1,0.1,0.1,0.1,0.1
		L70.4,39.9z"/>
	<path class="st8" d="M65.3,39.5l-2.6,3.7l-0.1,0c-0.4-2-0.8-4-1.1-5.7h0L65.3,39.5z"/>
	<path class="st8" d="M71.6,45.5l-0.2,0l-2.9-0.6l-2.8-1.6l1.1-3.3l0.2-0.7c0,0,0-0.2-0.1-0.4l0.1,0l3.2,1.1l0.2,0L71.6,45.5z"/>
	<polygon class="st8" points="75.7,65 75.7,65 72.8,64.7 72.5,64.8 72.4,64.8 72.4,64.7 69.2,62.3 70.8,58.4 70.7,55.2 70.7,55.1 
		70.9,55.1 73.8,55.7 	"/>
	<polygon class="st8" points="73.8,55.7 70.9,55.1 70.7,55.1 70.7,55 67.3,52.7 68.6,48.6 68.4,44.9 71.4,45.5 71.6,45.5 	"/>
	<polygon class="st10" points="78.2,76.5 67.3,86.1 65.6,86.1 65.2,86.1 74.8,76.4 72.5,64.8 72.8,64.7 75.7,65 75.7,65 75.8,65 	
		"/>
	<path class="st11" d="M74.8,76.4l-9.7,9.7L63,86l6.3-7.4l0.2-0.3c0,0-0.6-3.2-1.6-8l0.1,0l2.6-3.7l-3.8-2h0
		c-0.2-0.9-0.4-1.9-0.6-2.9v0l0.1,0L69,58l-3.8-2l0,0c-0.3-1.5-0.6-3.1-0.9-4.7l0.2,0l2.6-3.7l-3.8-2l-0.1,0
		c-0.2-0.8-0.3-1.6-0.5-2.4l0.1,0l2.6-3.7l1.4,0.5l-1.1,3.3l2.8,1.6l0.2,3.7l-1.3,4.1l3.3,2.3v0.1l0.1,3.2l-1.6,3.9l3.2,2.5l0,0.1
		l0.1,0L74.8,76.4z"/>
	<line class="st6" x1="65.2" y1="86.1" x2="65" y2="86.2"/>
	<path class="st8" d="M70.7,66.6l-2.6,3.7l-0.1,0c-0.3-1.7-0.7-3.6-1.1-5.7h0L70.7,66.6z"/>
	<path class="st8" d="M69,58l-2.6,3.7l-0.1,0c-0.1-0.6-0.2-1.3-0.4-1.9c-0.2-1.2-0.5-2.5-0.7-3.8l0,0L69,58z"/>
	<path class="st11" d="M67,39.3L66.7,40l-1.4-0.5l-3.8-2h0c-1.1-5.3-1.9-9.1-2-9.4c-0.1-0.3-0.8-0.8-1.7-1.3c-2.8-1.7-8.2-4.3-8.5-5
		c-0.2-0.4-0.2-0.7,0-1l0.8,0.1c0,0,13.5,5,13.9,5.6c0.4,0.5,2.5,10.2,2.9,12.4C66.9,39.1,67,39.3,67,39.3z"/>
	<line class="st6" x1="70.2" y1="40" x2="65.9" y2="43.2"/>
	<polyline class="st6" points="69.9,61.6 74.2,58.1 71.1,57.8 	"/>
	<line class="st5" x1="73.8" y1="55.7" x2="73.8" y2="55.7"/>
	<line class="st6" x1="72.1" y1="49.6" x2="68.6" y2="48.6"/>
	<line class="st5" x1="95.5" y1="72.4" x2="95.3" y2="72.5"/>
	<line class="st5" x1="66.9" y1="24.5" x2="66.9" y2="24.5"/>
	<path class="st8" d="M67,47.7l-2.6,3.7l-0.2,0c-0.4-1.9-0.8-3.8-1.1-5.7l0.1,0L67,47.7z"/>
	<line class="st6" x1="72.1" y1="49.6" x2="67.6" y2="52.2"/>
</g>
</svg>
