<?xml version="1.0" encoding="utf-8"?>
<!-- Generator: Adobe Illustrator 21.1.0, SVG Export Plug-In . SVG Version: 6.00 Build 0)  -->
<svg version="1.1" id="Layer_1" xmlns="http://www.w3.org/2000/svg" xmlns:xlink="http://www.w3.org/1999/xlink" x="0px" y="0px"
	 width="108px" height="108px" viewBox="0 0 108 108" style="enable-background:new 0 0 108 108;" xml:space="preserve">
<style type="text/css">
	.st0{fill:#CCCCCC;}
	.st1{fill:#E6E6E6;}
	.st2{fill:none;stroke:#000000;stroke-width:0.75;stroke-linecap:round;stroke-linejoin:round;stroke-miterlimit:10;}
	.st3{fill:#B3B3B3;stroke:#000000;stroke-width:0.75;stroke-linecap:round;stroke-linejoin:round;stroke-miterlimit:10;}
	.st4{fill:#808080;stroke:#000000;stroke-width:0.5;stroke-linecap:round;stroke-linejoin:round;stroke-miterlimit:10;}
	.st5{fill:#B3B3B3;stroke:#000000;stroke-width:0.5;stroke-linecap:round;stroke-linejoin:round;stroke-miterlimit:10;}
	.st6{fill:#FFFFFF;}
	.st7{fill:#F2F2F2;}
	.st8{fill:none;stroke:#000000;stroke-width:0.5;stroke-linecap:round;stroke-linejoin:round;stroke-miterlimit:10;}
	.st9{fill:#CCCCCC;stroke:#000000;stroke-width:0.75;stroke-linecap:round;stroke-linejoin:round;stroke-miterlimit:10;}
</style>
<g>
	<path class="st0" d="M92.1,43.3l-54.9,6.9l0.1,30.9c18.7-1.8,36.9-5.9,55.4-9.2C92.6,64.7,92.1,43.3,92.1,43.3z"/>
	<path class="st1" d="M37.3,81.1l0,7.3c0,0,50.5-9.5,52.5-9.5c1.9,0,2.9-1.4,2.9-5.1c0-0.4,0-1,0-1.9C74.3,75.1,56.1,79.2,37.3,81.1
		z"/>
	<path class="st2" d="M37.4,88.4c0,0,50.5-9.5,52.5-9.5c1.9,0,2.9-1.4,2.9-5.1c0-3.7-0.6-30.5-0.6-30.5l-54.9,6.9L37.4,88.4z"/>
	<polygon class="st3" points="9.1,59.5 37.2,55.3 36.6,86.4 	"/>
	<g>
		<g>
			<polygon class="st4" points="47.3,62.3 42.9,63.4 45.3,66.2 47,65.8 			"/>
			<polygon class="st4" points="47.3,69.6 42.9,70.7 45.3,73.5 47,73.1 			"/>
			<polygon class="st4" points="50.9,57.3 39.4,59.7 39.8,61.9 51.4,59.5 			"/>
			<polygon class="st4" points="50.9,64.5 39.4,66.9 39.8,69 51.4,66.7 			"/>
			<polyline class="st4" points="18.5,60 36,57.3 36,60.5 16.9,63.6 			"/>
			<polyline class="st4" points="19.7,66.5 37.3,63.5 37.3,60.1 20.9,63.1 			"/>
			<polygon class="st4" points="47.3,55.1 42.9,56.1 45.3,58.9 47,58.5 			"/>
		</g>
		<g>
			<ellipse transform="matrix(0.4082 -0.9129 0.9129 0.4082 -26.4326 74.2459)" class="st5" cx="44" cy="57.5" rx="1.2" ry="2.1"/>
			<ellipse transform="matrix(0.4082 -0.9129 0.9129 0.4082 -33.0876 78.5601)" class="st5" cx="44" cy="64.8" rx="1.2" ry="2.1"/>
			<ellipse transform="matrix(0.4084 -0.9128 0.9128 0.4084 -39.7453 82.8593)" class="st5" cx="44" cy="72.1" rx="1.2" ry="2.1"/>
			<ellipse transform="matrix(0.913 -0.408 0.408 0.913 -21.3045 21.5385)" class="st5" cx="39.8" cy="60.7" rx="2" ry="1.1"/>
			<ellipse transform="matrix(0.9131 -0.4077 0.4077 0.9131 -24.2103 22.142)" class="st5" cx="39.8" cy="67.9" rx="2" ry="1.1"/>
			
				<ellipse transform="matrix(0.7179 -0.6961 0.6961 0.7179 -38.0917 29.6192)" class="st5" cx="17.5" cy="61.8" rx="2.4" ry="1.1"/>
			<ellipse transform="matrix(0.7181 -0.696 0.696 0.7181 -39.3021 32.4827)" class="st5" cx="20.4" cy="64.8" rx="2.4" ry="1.1"/>
		</g>
	</g>
	<path class="st6" d="M62.4,19.5L4.8,27.5l41.6,28.2c19.4-2.9,38.1-7.3,57.4-10.4L62.4,19.5z"/>
	<path class="st7" d="M104,45.3l-0.2-0.1c-19.3,3.2-38,7.5-57.4,10.4l0.3,0.2l0.3,21.2c0,0,54.1-9.7,55.6-9.7c1.5,0,1.3-1.3,1.3-2.4
		C104,64.1,104,45.3,104,45.3z"/>
	<path class="st2" d="M47.1,77.1c0,0,54.1-9.7,55.6-9.7c1.5,0,1.3-1.3,1.3-2.4c0-1,0-19.7,0-19.7L62.4,19.5L4.8,27.5l41.9,28.4
		L47.1,77.1z"/>
	<g>
		<path class="st8" d="M49.6,72.7c0,0,47.9-8.4,49.5-8.4c1.6,0.1,1.6-1.3,1.6-1.3"/>
		<path class="st8" d="M49.9,66.7c0,0,47.9-8.4,49.5-8.4c1.6,0.1,1.6-1.3,1.6-1.3"/>
		<path class="st8" d="M50.1,60.7c0,0,47.9-8.4,49.5-8.4c1.6,0.1,1.6-1.3,1.6-1.3"/>
		<line class="st8" x1="48.1" y1="54.6" x2="104" y2="45.3"/>
	</g>
	<path class="st9" d="M47.6,55.2c0-0.4-0.2-0.7-0.5-0.9L5.4,27.6C5,27.3,4.4,27.5,4.1,28C4,28.2,4,28.4,4,28.6c0,0.4,0.2,0.8,0.5,1
		c0,0,19.3,12.4,31.5,20.2v35.2C33.2,82.1,12.1,61,12.1,61c-0.9-0.9-1.9-1.9-3.5-1.4l-3.4,1.2c-0.5,0.2-0.8,0.8-0.6,1.4
		c0.2,0.6,0.8,0.9,1.2,0.8l3.4-1.2c0.5-0.2,0.9,0.1,1.7,0.9c0,0,25.5,25.5,25.5,25.5c0.3,0.3,0.7,0.4,1,0.2c0.3-0.2,0.6-0.6,0.6-1
		V50.9c4.4,2.8,7.5,4.8,7.7,5c0,1.2,0.5,19.9,0.5,19.9c0,0.6,0.4,1.1,0.9,1.3c0.5,0.2,1.1-0.3,1-0.9L47.6,55.2z"/>
</g>
</svg>
