<?xml version="1.0" encoding="utf-8"?>
<!-- Generator: Adobe Illustrator 22.1.0, SVG Export Plug-In . SVG Version: 6.00 Build 0)  -->
<svg version="1.1" id="Layer_1" xmlns="http://www.w3.org/2000/svg" xmlns:xlink="http://www.w3.org/1999/xlink" x="0px" y="0px"
	 width="108px" height="108px" viewBox="0 0 108 108" style="enable-background:new 0 0 108 108;" xml:space="preserve">
<style type="text/css">
	.st0{fill:#E6E6E6;stroke:#000000;stroke-width:0.75;stroke-linecap:round;stroke-linejoin:round;stroke-miterlimit:10;}
	.st1{fill:#F2F2F2;stroke:#000000;stroke-width:0.75;stroke-linecap:round;stroke-linejoin:round;stroke-miterlimit:10;}
	.st2{fill:#FFFFFF;stroke:#000000;stroke-width:0.75;stroke-linecap:round;stroke-linejoin:round;stroke-miterlimit:10;}
	.st3{fill:#F2F2F2;stroke:#000000;stroke-width:0.5;stroke-linecap:round;stroke-linejoin:round;stroke-miterlimit:10;}
	.st4{fill:#CCCCCC;stroke:#000000;stroke-width:0.5;stroke-linecap:round;stroke-linejoin:round;stroke-miterlimit:10;}
	.st5{fill:none;stroke:#000000;stroke-width:0.5;stroke-linecap:round;stroke-linejoin:round;stroke-miterlimit:10;}
</style>
<g>
	<path class="st0" d="M18.4,86V69c0,0,0-1-1-2s-9-3-10-4s1-1,1-1l0.5,0.2l3,1l3.2,1.1l2.3,0.8c0,0,1,0,1-1v-6.8c0-1.3,0-2.2,0-2.2
		s0-0.1,0-0.2c-0.1-0.3-0.3-0.8-1-0.8c-0.2,0-0.7-0.1-1.4-0.3c-0.5-0.1-1.2-0.3-1.8-0.5C14,53.1,13.7,53,13.5,53l0,0
		c-0.8-0.3-1.7-0.5-2.5-0.8c-1-0.3-1.9-0.6-2.6-0.8c-0.6-0.2-1-0.3-1-0.3s-0.5-0.5,0-0.8l0,0L8.5,50l8,2c0,0,2,1,2-1v-2.5
		c0-3.9,0-10.5,0-10.5s0-2.1,0.4-3.3c1.1,0.2,3.4,1.9,3.4,1.9L22.4,88C20.4,88,18.4,86,18.4,86z"/>
	<path class="st1" d="M100.4,22L22.2,36.6c0,0-2.2-1.7-3.4-1.9c0.1-0.4,0.3-0.7,0.6-0.7c0,0,75-14,76-14S100.4,21,100.4,22z"/>
	<path class="st2" d="M100.4,69c-1,1-76,19-78,19l-0.3-51.4L100.4,22C100.4,23,101.4,68,100.4,69z"/>
	<path class="st3" d="M18.4,48.5V51c0,2-2,1-2,1l-8-2L18.4,48.5z"/>
	<path class="st4" d="M18.4,57.2V59c0,0-4.3,1.1-5.5,1.3s-1,3-1,3l-3-1c0,0-0.1-2.6,1-2.9S18.4,57.2,18.4,57.2z"/>
	<path class="st4" d="M18.4,58.9V61c0,0-1.8,0.3-2.7,0.4c-0.9,0.2-0.6,2.8-0.6,2.8l-3.2-1.1c0,0-0.3-2.7,1-3
		C14.1,60,18.4,58.9,18.4,58.9z"/>
	<path class="st4" d="M18.4,61.1V64c0,1-1,1-1,1l-2.3-0.8c0,0-0.3-2.6,0.6-2.8C16.6,61.3,18.4,61.1,18.4,61.1z"/>
	<path class="st4" d="M10.9,53.5c-0.9,0.2-1.7,0.3-2,0.3c-0.6,0-0.6-2.2-0.6-2.4c0.6,0.2,1.6,0.5,2.6,0.8
		C10.9,52.1,10.9,52.8,10.9,53.5z"/>
	<path class="st4" d="M14.2,54.1c-1.1,0.2-2.5,0.5-2.8,0.3c-0.3-0.1-0.4-0.5-0.5-1c-0.1-0.6,0-1.3,0-1.3c0.8,0.3,1.7,0.5,2.5,0.8
		l0,0c0.3,0.1,0.5,0.1,0.7,0.2C14.2,53.2,14.2,53.6,14.2,54.1z"/>
	<path class="st4" d="M18.4,54.8c0,0-3.4,1-3.8,0.8c-0.3-0.1-0.3-0.8-0.3-1.5c0-0.5,0-0.9,0-0.9c0.7,0.2,1.3,0.4,1.8,0.5
		c0.7,0.2,1.2,0.3,1.4,0.3C18.1,54,18.3,54.5,18.4,54.8z"/>
	<path class="st5" d="M19.9,37.5c0,0,0.5,3.4,0.4,5.8"/>
	<path class="st5" d="M20.3,71.6c0,0-1.2,8.4,0,12.8"/>
	<line class="st5" x1="25.7" y1="48.5" x2="79.9" y2="38.8"/>
	<line class="st5" x1="25.7" y1="53.2" x2="95.8" y2="40.4"/>
	<line class="st5" x1="25.7" y1="64.3" x2="95" y2="50.4"/>
	<line class="st5" x1="25.7" y1="69.8" x2="79.4" y2="58.9"/>
	<line class="st5" x1="25.7" y1="83.5" x2="81.9" y2="70.6"/>
	<line class="st5" x1="98.2" y1="24.8" x2="98.2" y2="35.6"/>
	<path class="st5" d="M98.9,38.8c0,0,1,6.8,0,11.6"/>
	<path class="st5" d="M98.9,53.8c0,0,0.8,6.1,0,11.9"/>
</g>
</svg>
