<?xml version="1.0" encoding="utf-8"?>
<!-- Generator: Adobe Illustrator 21.1.0, SVG Export Plug-In . SVG Version: 6.00 Build 0)  -->
<svg version="1.1" id="Layer_1" xmlns="http://www.w3.org/2000/svg" xmlns:xlink="http://www.w3.org/1999/xlink" x="0px" y="0px"
	 width="108px" height="108px" viewBox="0 0 108 108" style="enable-background:new 0 0 108 108;" xml:space="preserve">
<style type="text/css">
	.st0{fill:#FFFFFF;stroke:#000000;stroke-width:0.75;stroke-linecap:round;stroke-linejoin:round;stroke-miterlimit:10;}
	.st1{fill:#CCCCCC;stroke:#000000;stroke-width:0.5;stroke-linecap:round;stroke-linejoin:round;stroke-miterlimit:10;}
	.st2{fill:#E6E6E6;stroke:#000000;stroke-width:0.75;stroke-linecap:round;stroke-linejoin:round;stroke-miterlimit:10;}
	.st3{fill:#F2F2F2;stroke:#000000;stroke-width:0.75;stroke-linecap:round;stroke-linejoin:round;stroke-miterlimit:10;}
	.st4{fill:none;stroke:#000000;stroke-width:0.5;stroke-linecap:round;stroke-linejoin:round;stroke-miterlimit:10;}
</style>
<g>
	<polygon class="st0" points="19.6,47.5 6.6,50.3 18.6,54.5 	"/>
	<g>
		<path class="st1" d="M7.6,51.5c0,0,0,3,1,3s6-1,6-1L7.6,51.5z"/>
		<path class="st1" d="M10.6,52.5c0,0,0,3,1,3s6-1,6-1L10.6,52.5z"/>
		<path class="st1" d="M13.6,53.5c0,0,0,3,1,3s5-1,5-1L13.6,53.5z"/>
		<path class="st1" d="M7.6,63.5c0,0,0-3,1-4s9-2,9-2v9L7.6,63.5z"/>
		<path class="st1" d="M10.6,64.5c0,0,0-3,1-4s9-2,9-2v9L10.6,64.5z"/>
		<path class="st1" d="M13.6,65.5c0,0,0-3,1-4s9-2,9-2v9L13.6,65.5z"/>
	</g>
	<path class="st2" d="M20.6,88.5c0,0-2-1-3-3s1-16,0-17s-9-3-10-4s-1-3,2-2s8,3,8,1s0-5,0-7s-11-4-11-5s-1-2,3-1s8,2,8,1s0-12-1-13
		s0-4,0-4h5l1,52L20.6,88.5z"/>
	<path class="st0" d="M21.6,37.5c0,0-2-3-5-3s79-15,79-15s4,0,5,2L21.6,37.5z"/>
	<path class="st3" d="M20.6,36.5c0,0,2,38,0,52l80-19c0,0,2-27,0-48L20.6,36.5z"/>
	<g>
		<path class="st4" d="M17.6,36.5c0,0,1,1,1,3s0,4,0,4"/>
		<line class="st4" x1="23.6" y1="46.5" x2="77.6" y2="36.5"/>
		<line class="st4" x1="24.6" y1="53.5" x2="93.6" y2="40.5"/>
		<line class="st4" x1="24.6" y1="65.5" x2="93.6" y2="51.5"/>
		<line class="st4" x1="24.6" y1="70.5" x2="77.6" y2="59.5"/>
		<line class="st4" x1="23.6" y1="84.5" x2="81.6" y2="70.5"/>
	</g>
</g>
</svg>
