<?xml version="1.0" encoding="utf-8"?>
<!-- Generator: Adobe Illustrator 21.1.0, SVG Export Plug-In . SVG Version: 6.00 Build 0)  -->
<svg version="1.1" id="Layer_1" xmlns="http://www.w3.org/2000/svg" xmlns:xlink="http://www.w3.org/1999/xlink" x="0px" y="0px"
	 width="108px" height="108px" viewBox="0 0 108 108" style="enable-background:new 0 0 108 108;" xml:space="preserve">
<style type="text/css">
	.st0{fill:#F2F2F2;stroke:#000000;stroke-width:0.75;stroke-linecap:round;stroke-linejoin:round;stroke-miterlimit:10;}
	.st1{fill:#CCCCCC;stroke:#000000;stroke-width:0.75;stroke-linecap:round;stroke-linejoin:round;stroke-miterlimit:10;}
	.st2{fill:#FFFFFF;stroke:#000000;stroke-width:0.75;stroke-linecap:round;stroke-linejoin:round;stroke-miterlimit:10;}
	.st3{fill:#E6E6E6;stroke:#000000;stroke-width:0.75;stroke-linecap:round;stroke-linejoin:round;stroke-miterlimit:10;}
	.st4{fill:#F2F2F2;}
	.st5{fill:#FFFFFF;}
	.st6{fill:#E6E6E6;}
	.st7{fill:none;stroke:#000000;stroke-width:0.75;stroke-linecap:round;stroke-linejoin:round;stroke-miterlimit:10;}
	.st8{fill:none;stroke:#000000;stroke-width:0.5;stroke-linecap:round;stroke-linejoin:round;stroke-miterlimit:10;}
	.st9{fill:#FFFFFF;stroke:#000000;stroke-width:0.5;stroke-linecap:round;stroke-linejoin:round;stroke-miterlimit:10;}
	.st10{fill:#B3B3B3;stroke:#000000;stroke-width:0.5;stroke-linecap:round;stroke-linejoin:round;stroke-miterlimit:10;}
</style>
<g>
	<polygon class="st0" points="7.5,64.9 16.7,61.2 16.2,68.9 	"/>
	<polygon class="st1" points="16,69.3 24.2,72.4 24,66.1 	"/>
	<polygon class="st2" points="9.7,70.8 10,67.4 28.4,76.1 28.2,79.6 	"/>
	<path class="st2" d="M12.8,72c0,0,4.4,3.8,5.7,5.4c1.3,1.6,2.6,4.6,2.6,4.6l6.1-2.5L12.8,72z"/>
	<path class="st3" d="M17,50.3c0,0,64.2-23.3,65.9-24c1.7-0.7,2.3,0,2.5,1.2c0.2,1.2,0.1,6.2,0.1,6.2L27.4,65.4l-10.5,3.7L17,50.3z"
		/>
	<path class="st4" d="M92.9,29.9c0.1-2.4-0.9-3.6-2.5-3.1c-1.6,0.5-66.5,24-66.5,24L24.5,72C47.8,63.2,70,52.5,93.2,44.2
		C93.1,40.9,92.8,31.9,92.9,29.9z"/>
	<path class="st5" d="M99.9,47.4c-2.5-0.7-6.7-2.1-6.7-2.1s0-0.4,0-1.1C70,52.5,47.8,63.2,24.5,72l0,0.7l7.6,4.1l0,0.1
		c23.4-9.5,46.7-17.9,68.9-28.9C100.8,47.8,100.5,47.5,99.9,47.4z"/>
	<path class="st6" d="M32.2,77l0.2,3.2c0,0,65.2-26.6,67.4-27.6c1.7-0.8,2.4-3.1,1.3-4.4C78.9,59,55.6,67.5,32.2,77z"/>
	<path class="st7" d="M32.4,80.1c0,0,65.2-26.6,67.4-27.6c2.2-1,2.7-4.4,0.1-5.1c-2.5-0.7-6.7-2.1-6.7-2.1s-0.4-13-0.3-15.4
		c0.1-2.4-0.9-3.6-2.5-3.1c-1.6,0.5-66.5,24-66.5,24l0.7,22l7.6,4.1L32.4,80.1z"/>
	<path class="st8" d="M28.3,52.5l61.6-21.8c0,0-0.8,0.6-1,1.3"/>
	<path class="st8" d="M28.5,58.2l61.6-21.8c0,0-0.8,0.6-1,1.3"/>
	<path class="st8" d="M28.1,65.2l62.3-23.1c0,0-0.8,0.6-1,1.3"/>
	<line class="st9" x1="85.7" y1="41.2" x2="85.7" y2="39.2"/>
	<line class="st9" x1="85.8" y1="35.8" x2="85.7" y2="33.1"/>
	<line class="st9" x1="99.6" y1="49.9" x2="35.2" y2="75.9"/>
	<path class="st1" d="M23.4,65.3"/>
	<path class="st1" d="M23.2,60.3"/>
	<path class="st1" d="M23.1,55.3c-1.1-0.3-2,0.6-2,0.6"/>
	<line class="st9" x1="17.9" y1="53.7" x2="23.9" y2="51.7"/>
	<line class="st9" x1="19.6" y1="55.6" x2="23.7" y2="54.3"/>
	<line class="st9" x1="19.7" y1="60.8" x2="23.7" y2="59.7"/>
	<line class="st9" x1="23.8" y1="57.2" x2="17.9" y2="58.8"/>
	<line class="st9" x1="17.9" y1="63.8" x2="23.7" y2="62.2"/>
	<line class="st9" x1="19.8" y1="65.9" x2="24" y2="64.7"/>
	<path class="st1" d="M10,69.1c0,0-1-0.8-1.5-0.9C8,68,7.8,66.3,9.2,66.9c1.4,0.6,19.1,9,20.2,9.5c1.1,0.5,1.5,2.2-0.2,1.6
		c-1.7-0.7-2.6-1.4-2.6-1.4L26.1,78c0,0,0.8,1,2.8,1.7c2,0.7,3.9,1.1,4.2-1.5c0.3-2.6-0.7-3-2.8-3.9c-2.1-0.8-5-2.1-5-2.1
		s0.2-18.8-0.1-20c-0.2-1.1-1.8-2-1.8-0.7c0,1.3,0.1,19.8,0.1,19.8l-5.8-2.9c0,0,0.3-15.7,0.2-17c-0.2-1.3-1.3-1.7-1.4-0.8
		c-0.1,0.9-0.6,17.1-0.6,17.1s-4.1-1.5-6.4-2.6c-2-0.9-2.7-0.2-2.9,1.1c-0.2,1.3-0.2,2.2,1.6,2.9c1.8,0.7,2.4,1.3,2.4,1.3L10,69.1z"
		/>
	<polygon class="st0" points="9.8,71.1 9.8,67.5 28.1,76.2 28,80.1 	"/>
	<line class="st9" x1="27.5" y1="71.2" x2="91.9" y2="46.6"/>
	<path class="st10" d="M23.4,65.3c-1.1-0.3-2,0.6-2,0.6S23.3,67.1,23.4,65.3"/>
	<path class="st10" d="M23.2,60.3c-1.1-0.3-2,0.6-2,0.6S23.1,62.1,23.2,60.3"/>
	<path class="st10" d="M21.1,55.9c0,0,1.9,1.2,2-0.6"/>
	<path class="st10" d="M17.9,53.7c-0.1,1.7,1.1,1.9,1.8,2C19.5,54.3,17.9,53.7,17.9,53.7z"/>
	<path class="st10" d="M17.9,58.8c-0.1,1.7,1.1,1.9,1.8,2C19.6,59.4,17.9,58.8,17.9,58.8z"/>
	<path class="st10" d="M18,63.9c-0.1,1.7,1.1,1.9,1.8,2C19.7,64.5,18,63.9,18,63.9z"/>
</g>
</svg>
