<?xml version="1.0" encoding="utf-8"?>
<!-- Generator: Adobe Illustrator 21.1.0, SVG Export Plug-In . SVG Version: 6.00 Build 0)  -->
<svg version="1.1" id="Layer_1" xmlns="http://www.w3.org/2000/svg" xmlns:xlink="http://www.w3.org/1999/xlink" x="0px" y="0px"
	 width="108px" height="108px" viewBox="0 0 108 108" style="enable-background:new 0 0 108 108;" xml:space="preserve">
<style type="text/css">
	.st0{fill:#E6E6E6;}
	.st1{fill:#FFFFFF;}
	.st2{fill:none;stroke:#000000;stroke-width:0.75;stroke-linecap:round;stroke-linejoin:round;stroke-miterlimit:10;}
	.st3{fill:#B3B3B3;stroke:#000000;stroke-width:0.75;stroke-linecap:round;stroke-linejoin:round;stroke-miterlimit:10;}
	.st4{fill:#E6E6E6;stroke:#000000;stroke-width:0.75;stroke-linecap:round;stroke-linejoin:round;stroke-miterlimit:10;}
	.st5{fill:#FFFFFF;stroke:#000000;stroke-width:0.75;stroke-linecap:round;stroke-linejoin:round;stroke-miterlimit:10;}
	.st6{fill:none;stroke:#000000;stroke-width:0.5;stroke-linecap:round;stroke-linejoin:round;stroke-miterlimit:10;}
	.st7{fill:#808080;stroke:#000000;stroke-width:0.75;stroke-linecap:round;stroke-linejoin:round;stroke-miterlimit:10;}
</style>
<g>
	<path class="st0" d="M76.7,76.1l2.3-2.5L24.5,51.7c-0.2,1.1-0.7,2-1.4,2.9c-0.2,0.3-0.5,1.2-0.7,2.4c18.3,7.3,36.1,15.6,54.2,22.5
		C76.6,77.4,76.7,76.1,76.7,76.1z"/>
	<path class="st1" d="M76.5,79.4C58.4,72.6,40.6,64.3,22.3,57c-0.5,2.1-0.9,5.1-1.3,7.6c0,0,0,0,0,0c0,0,0,0,0,0.1c0,0,0,0,0,0
		c-0.3,1.9-0.5,3.5-0.7,4.2c-0.5,2.1-1,9.3-1,9.3l0,0c18.9,7.2,37.1,15.2,55.8,21.4C75.4,97.1,76.1,85.3,76.5,79.4z"/>
	<path class="st0" d="M19.3,78.2l-2.7,2.2c0,0,20.9,8.7,26.5,10.6c5.6,1.9,29.4,11.9,30.5,11.2c1.1-0.6,1.3-1.3,1.5-2.2
		c0-0.1,0-0.2,0-0.5C56.4,93.4,38.2,85.5,19.3,78.2z"/>
	<path class="st2" d="M79,73.6l-2.3,2.5c0,0-1.5,23-1.6,23.9c-0.2,1-0.3,1.6-1.5,2.2c-1.1,0.6-24.9-9.3-30.5-11.2
		c-5.6-1.9-26.5-10.6-26.5-10.6l2.7-2.3c0,0,0.5-7.2,1-9.3c0.2-0.7,0.4-2.3,0.7-4.2c0,0,0,0,0,0c0,0,0,0,0-0.1c0,0,0,0,0,0
		c0.6-4,1.4-9.1,2-10c0.7-0.9,1.2-1.8,1.4-2.9"/>
	<path class="st3" d="M24.5,51.7c0.1-0.4,0.2-0.9,0.2-1.4c0-2.5-2.2-3.7-2.5-3.9l8.4,2.7l0.4,0c0.1,2,3.1,3.4,3.4,3.6c0,0,0,0,0,0
		l46.8,18.4l-0.1,0.2L79,73.6"/>
	<path class="st3" d="M33.2,43.6l-0.4,2.7c0,0-1.9,0.4-1.9,2.7c0,0,0,0.1,0,0.1l-0.4,0l-8.4-2.7c0,0,0,0,0,0l-0.3-7.2l11,4.3
		L33.2,43.6z"/>
	<path class="st4" d="M39.6,5.1c-0.9,0-1.7,0.7-1.7,1.7l-1,20.8l-0.9,18.6c0,0.4,1.4,1.5,1.2,3.4c0,0,0,0,0,0v0
		c-0.2,2.1-2.5,2.9-2.8,3.1c0,0,0,0,0,0c-0.4-0.2-3.3-1.6-3.4-3.6c0,0,0-0.1,0-0.1c0-2.4,1.9-2.7,1.9-2.7l0.4-2.7l0.4-3l-1.9-3v-2.4
		l1.9-2.2l0.1-3.8l0.1-1.8l-1.9-2.6v-2.9l3-2.7c0,0,0-0.2,0-0.5c0-1.6-0.1-6.4-0.3-6.8c-0.3-0.5-0.2-1-1.3-1
		c-1.1,0-10.8,3.5-10.8,3.5l-0.3,5.3l8.5,3c0,0-8.4,1.5-9.2,2.3c-0.8,0.8-0.6,7.2-0.6,7.2l9.4,4.8l-8.4,2.3l0.3,7.2c0,0,0,0,0,0
		c0.3,0.2,2.5,1.4,2.5,3.9c0,0.5-0.1,1-0.2,1.4c-0.2,1.1-0.7,2-1.4,2.9c-0.6,0.9-1.4,6.1-2,10c0,0,0,0,0,0c0,0,0,0,0,0.1
		c0,0,0,0,0,0c-0.3,1.9-0.5,3.5-0.7,4.2c-0.5,2.1-1,9.3-1,9.3l-2.7,2.3c0,0-1.5-15.3-1.6-20.4c-0.2-5.1-1.6-17-1.1-23.1
		c0.5-6.1,2.7-24.6,3.7-25.9c1-1.3,3.4-1.8,5.6-2.4C25.5,8,34,5.2,35.4,5C36.9,4.8,38.9,4.9,39.6,5.1z"/>
	<path class="st5" d="M93.6,31.3l-1,38.2l0,1.8l-0.1,2c0,0.9-0.7,1.7-1.7,1.7l-9.5-3.8L34.5,52.7v0c0.4-0.2,2.6-0.9,2.8-3.1v0
		c0,0,0,0,0,0c0.2-1.9-1.2-2.9-1.2-3.4L37,27.5l1-20.8c0-0.9,0.7-1.7,1.7-1.7l52.8,23.2C93.6,28.9,93.6,30.3,93.6,31.3z"/>
	<g>
		<line class="st6" x1="21.1" y1="79.3" x2="74.5" y2="99.5"/>
		<line class="st6" x1="37.6" y1="49.5" x2="92.3" y2="71.2"/>
		<polyline class="st6" points="92.9,69.5 92.6,69.4 39,47.9 		"/>
		<line class="st6" x1="37.8" y1="51.4" x2="91.6" y2="73.1"/>
	</g>
	<path class="st7" d="M34.9,18.6h-0.3l-12.2-4.3c0,0,9.7-3.5,10.8-3.5c1.1,0,1,0.5,1.3,1C34.9,12.1,34.9,17,34.9,18.6z"/>
	<path class="st3" d="M34.9,18.6c0,0.3,0,0.5,0,0.5l-3,2.7v0.8h-1.2l-8.5-3l0.3-5.3l12.2,4.3H34.9z"/>
	<path class="st7" d="M33.8,27.3l-0.1,1.8l-0.5,0l-11.8-4.2c0.8-0.8,9.2-2.3,9.2-2.3h1.2v2.1L33.8,27.3z"/>
	<path class="st3" d="M33.8,29.1l-0.1,3.8l-1.9,2.2V37h-1.5l-9.4-4.8c0,0-0.2-6.4,0.6-7.2l11.8,4.2L33.8,29.1z"/>
	<polygon class="st7" points="33.6,40.6 33.2,43.6 32.8,43.6 21.8,39.3 30.2,37 31.7,37 31.7,37.6 	"/>
</g>
</svg>
