<?xml version="1.0" encoding="utf-8"?>
<!-- Generator: Adobe Illustrator 21.1.0, SVG Export Plug-In . SVG Version: 6.00 Build 0)  -->
<svg version="1.1" id="Layer_1" xmlns="http://www.w3.org/2000/svg" xmlns:xlink="http://www.w3.org/1999/xlink" x="0px" y="0px"
	 width="108px" height="108px" viewBox="0 0 108 108" style="enable-background:new 0 0 108 108;" xml:space="preserve">
<style type="text/css">
	.st0{fill:#B3B3B3;stroke:#000000;stroke-width:0.75;stroke-linecap:round;stroke-linejoin:round;stroke-miterlimit:10;}
	.st1{fill:#F2F2F2;stroke:#000000;stroke-width:0.75;stroke-linecap:round;stroke-linejoin:round;stroke-miterlimit:10;}
	.st2{fill:#FFFFFF;stroke:#000000;stroke-width:0.75;stroke-linecap:round;stroke-linejoin:round;stroke-miterlimit:10;}
	.st3{fill:#B3B3B3;stroke:#000000;stroke-width:0.5;stroke-linecap:round;stroke-linejoin:round;stroke-miterlimit:10;}
	.st4{fill:#808080;stroke:#000000;stroke-width:0.5;stroke-linecap:round;stroke-linejoin:round;stroke-miterlimit:10;}
	.st5{fill:#999999;stroke:#000000;stroke-width:0.75;stroke-linecap:round;stroke-linejoin:round;stroke-miterlimit:10;}
	.st6{fill:none;stroke:#000000;stroke-width:0.75;stroke-linecap:round;stroke-linejoin:round;stroke-miterlimit:10;}
	.st7{fill:#CCCCCC;stroke:#000000;stroke-width:0.75;stroke-linecap:round;stroke-linejoin:round;stroke-miterlimit:10;}
	.st8{fill:#F2F2F2;}
	.st9{fill:#FFFFFF;}
	.st10{fill:none;stroke:#000000;stroke-width:0.5;stroke-linecap:round;stroke-linejoin:round;stroke-miterlimit:10;}
</style>
<g>
	<path class="st0" d="M9.6,84.6c0.3-0.2,0.4-0.5,0.4-0.9c0-0.1,0-0.1,0-0.2c0,0-2.4-16.6-2.9-20.1c2,1.1,13.6,7.6,21.1,11.8
		L9.6,84.6z"/>
	<path class="st1" d="M17,54.9l-0.7,11l-9.9-5.6c-0.2-0.1-0.4-0.1-0.5-0.1L17,54.9z"/>
	<path class="st2" d="M28.3,75.2C20.8,71,9.2,64.5,7.2,63.4C7.7,66.9,10,83.5,10,83.5c0,0.1,0,0.1,0,0.2c0,0.4-0.2,0.7-0.4,0.9
		l-0.4,0.2L5.3,60.5l0.5-0.2c0.2,0,0.4,0,0.5,0.1l9.9,5.6l0.7-11l0.8-0.4l-0.2,12.7l0.3,0.2l7.3,4.4l4.5,2.7L28.3,75.2z"/>
	<path class="st1" d="M86.2,11L19.8,42.7c0-0.6-0.4-1.2-0.9-1.2c-0.1,0-0.3,0-0.4,0.1C22.2,39.7,81.9,10.9,84,9.8
		C85.7,8.9,86.1,10,86.2,11z"/>
	<path class="st3" d="M86.2,11L19.8,42.7L19.4,48c0,0,0.1-0.1,0.1-0.1c0.1,0,0.1-0.1,0.2-0.1c0.6-0.1,1.4,0.4,2.1,1.4
		c0.7,1.1,1,2.5,0.5,2.9c-0.5,0.3-1.6-0.6-2.4-1.7c-0.3-0.4-0.5-0.8-0.6-1.2l-0.5,7.1l0,0.2L18.1,67h0l4.1,2.3l1.3,0.8v-8.8l0-7.4
		v-8.8c0-0.6,0.4-1.1,1-1.1c0,0,0.3-0.2,1-0.5c0.2-0.1,0.3-0.2,0.5-0.3c0.2-0.1,0.4-0.2,0.6-0.3s0.5-0.2,0.7-0.4
		c0.3-0.1,0.5-0.3,0.8-0.4C40,36.6,75.8,19.5,86.1,14.7c0.1-1.5,0.2-2.6,0.2-2.8C86.2,11.7,86.2,11.4,86.2,11z M22.3,60.1
		c-0.5,0.3-1.6-0.6-2.4-1.7c-0.5-0.8-0.8-1.5-0.7-2.1c0-0.2,0.1-0.4,0.3-0.5c0,0,0.1-0.1,0.2-0.1c0.6-0.1,1.5,0.4,2.2,1.4
		C22.6,58.2,22.8,59.7,22.3,60.1z"/>
	<path class="st2" d="M19.8,42.7L19.4,48l-0.1,1.2v0l-0.5,7.1l0,0.2L18.1,67l-0.6,0.3l0-0.3l0.7-25.4c0,0,0.1-0.1,0.2-0.1
		c0.1,0,0.2-0.1,0.4-0.1C19.4,41.5,19.8,42,19.8,42.7z"/>
	<path class="st4" d="M19.5,63L19.5,63c-0.5,0.4,2.9,4,3,4.1l2.1-0.9L24.1,61L19.5,63z"/>
	<path class="st4" d="M19.5,55.6L19.5,55.6c-0.5,0.4,2.9,4,3,4.1l2.1-0.9l-0.5-5.2L19.5,55.6z"/>
	<path class="st4" d="M19.5,47.9L19.5,47.9c-0.5,0.4,2.9,4,3,4.1l2.1-0.9l-0.5-5.2L19.5,47.9z"/>
	<path class="st3" d="M22.5,67.2c-0.5,0.3-1.6-0.3-2.3-1.2c-0.1-0.1-0.2-0.2-0.3-0.3c-0.7-1.1-0.9-2.2-0.4-2.6
		c0.5-0.3,1.6,0.3,2.3,1.3c0.1,0.2,0.3,0.4,0.4,0.6C22.7,66,22.9,66.9,22.5,67.2z"/>
	<path class="st3" d="M22.3,60.1c-0.5,0.3-1.6-0.6-2.4-1.7c-0.5-0.8-0.8-1.5-0.7-2.1c0-0.2,0.1-0.4,0.3-0.5c0,0,0.1-0.1,0.2-0.1
		c0.6-0.1,1.5,0.4,2.2,1.4C22.6,58.2,22.8,59.7,22.3,60.1z"/>
	<path class="st3" d="M22.3,52.1c-0.5,0.3-1.6-0.6-2.4-1.7c-0.3-0.4-0.5-0.8-0.6-1.2v0l0.1-1.2c0,0,0.1-0.1,0.1-0.1l0.2-0.1
		c0.6-0.1,1.4,0.4,2.1,1.4C22.6,50.3,22.8,51.7,22.3,52.1z"/>
	<path class="st2" d="M19.4,48l-0.1,1.2C19.2,48.7,19.2,48.2,19.4,48z"/>
	<polyline class="st5" points="10.7,80.8 27.7,72.7 28.4,66.8 10,75.8 	"/>
	<line class="st6" x1="24.6" y1="45.7" x2="23.6" y2="46.1"/>
	<line class="st6" x1="24.6" y1="53.4" x2="23.6" y2="53.8"/>
	<line class="st6" x1="24.1" y1="61" x2="23.6" y2="61.2"/>
	<path class="st1" d="M92.1,15.2v20.3c0,2,0,3.3,0,3.3L27,70.5l-1.4,0.7v-7.7l0-8.7v-9.6c0-0.6-0.4-1.1-1-1.1c0,0,1.4-0.7,3.7-1.8
		C40,36.6,75.8,19.5,86.1,14.7c1.5-0.7,2.5-1.2,2.7-1.2C90.7,12.7,92.1,13.5,92.1,15.2z"/>
	<path class="st7" d="M7.2,63.4c0,0.1,0,0.2,0.1,0.4c0,0.2,0.1,0.4,0.1,0.7L10,83.3c0,0.1,0,0.1,0,0.1c0,0,0,0,0,0
		c0,0.1,0,0.1,0,0.2c0,0.4-0.2,0.7-0.4,0.9c-0.1,0.1-0.3,0.2-0.4,0.2c-0.5,0.1-1-0.3-1.1-1L5,61.6c-0.1-0.4,0.1-0.8,0.4-1.1
		c0.2-0.1,0.3-0.2,0.5-0.2c0.2,0,0.4,0,0.5,0.1l9.9,5.6l0.7-11l0.8-12.5c0-0.4,0.2-0.7,0.5-0.9c0,0,0.1-0.1,0.2-0.1
		c0.1,0,0.2-0.1,0.4-0.1c0.5,0.1,0.9,0.6,0.9,1.2L19.4,48l-0.1,1.2v0l-0.5,7.1l0,0.2L18.1,67h0l4.1,2.3l1.3,0.8v-8.8l0-7.4v-8.8
		c0-0.6,0.4-1.1,1-1.1c0.5,0,1,0.5,1,1.1v9.6l0,8.7v7.7l1.3,0.7l9.6,5.4c0.4,0.2,0.6,0.8,0.5,1.3l-0.1,0.8l-1.7,9l-1.8,9.4
		c-0.1,0.4-0.3,0.6-0.5,0.8c0,0,0,0,0,0c0,0,0,0,0,0c-0.2,0.1-0.4,0.1-0.6,0.1c-0.5-0.1-0.8-0.6-0.8-1.1c0-0.1,0-0.2,0-0.3
		c0,0,3.2-16.6,3.5-18.3L7.2,63.4z"/>
	<path class="st2" d="M32.7,98.5C32.7,98.5,32.7,98.5,32.7,98.5C32.7,98.5,32.7,98.5,32.7,98.5L32.7,98.5z"/>
	<path class="st8" d="M36.7,77.6c0.1,0.3,0.2,0.6,0.1,0.9l-3.6,19.2c-0.1,0.4-0.3,0.6-0.5,0.8c1.9-1,63.5-31.9,65.4-32.5
		c1.9-0.6,1.9-2.2,1.9-4.1c0-1.9,3.1-13.2,3.1-14.4c0-0.6,0-1.1-0.1-1.5C80.9,56.4,58.8,67,36.7,77.6z"/>
	<path class="st9" d="M101.3,44.4c-1.8-0.7-9.3-5.5-9.3-5.5L25.5,71.2l10.8,6c0.2,0.1,0.3,0.2,0.4,0.4C58.8,67,80.9,56.4,102.9,45.9
		C102.8,45.3,102.4,44.8,101.3,44.4z"/>
	<path class="st6" d="M103.1,47.4c0,1.3-3.1,12.5-3.1,14.4c0,1.9,0,3.4-1.9,4.1c-1.9,0.6-63.5,31.6-65.4,32.5
		c0.3-0.1,0.5-0.4,0.5-0.8l3.6-19.2c0.1-0.5-0.1-1.1-0.5-1.3l-10.8-6l66.5-32.3c0,0,7.4,4.8,9.3,5.5
		C103.2,45.1,103.1,46.1,103.1,47.4z"/>
	<g>
		<line class="st10" x1="28.4" y1="44.8" x2="88.2" y2="17.3"/>
		<line class="st10" x1="36.4" y1="88.5" x2="98.1" y2="59"/>
		<line class="st10" x1="95.6" y1="49.8" x2="38.2" y2="77.2"/>
		<line class="st10" x1="28.1" y1="54.7" x2="88.4" y2="26.3"/>
		<line class="st10" x1="89.3" y1="35.6" x2="29.2" y2="64.6"/>
	</g>
</g>
</svg>
