<?xml version="1.0" encoding="utf-8"?>
<!-- Generator: Adobe Illustrator 21.1.0, SVG Export Plug-In . SVG Version: 6.00 Build 0)  -->
<svg version="1.1" id="Layer_1" xmlns="http://www.w3.org/2000/svg" xmlns:xlink="http://www.w3.org/1999/xlink" x="0px" y="0px"
	 width="108px" height="108px" viewBox="0 0 108 108" style="enable-background:new 0 0 108 108;" xml:space="preserve">
<style type="text/css">
	.st0{fill:#FFFFFF;stroke:#000000;stroke-width:0.75;stroke-linecap:round;stroke-linejoin:round;stroke-miterlimit:10;}
	.st1{fill:#F2F2F2;stroke:#000000;stroke-width:0.75;stroke-linecap:round;stroke-linejoin:round;stroke-miterlimit:10;}
	.st2{fill:#E6E6E6;stroke:#000000;stroke-width:0.75;stroke-linecap:round;stroke-linejoin:round;stroke-miterlimit:10;}
	.st3{fill:#B3B3B3;stroke:#000000;stroke-width:0.75;stroke-linecap:round;stroke-linejoin:round;stroke-miterlimit:10;}
	.st4{fill:#CCCCCC;stroke:#000000;stroke-width:0.75;stroke-linecap:round;stroke-linejoin:round;stroke-miterlimit:10;}
	.st5{fill:#808080;stroke:#000000;stroke-width:0.5;stroke-linecap:round;stroke-linejoin:round;stroke-miterlimit:10;}
	.st6{fill:#B3B3B3;stroke:#000000;stroke-width:0.5;stroke-linecap:round;stroke-linejoin:round;stroke-miterlimit:10;}
	.st7{fill:none;stroke:#000000;stroke-width:0.5;stroke-linecap:round;stroke-linejoin:round;stroke-miterlimit:10;}
</style>
<g>
	<path class="st0" d="M64.9,10.2l-30,4.7l0,0.1c-0.3,0-0.6,0-0.9,0c-0.4-1.6-1.5-3.7-3.9-4.7c-0.3-0.1-0.6-0.2-0.9-0.3l29.5-5
		c0.7-0.1,1.4,0,2.2,0.4C63.4,6.5,64.5,8.7,64.9,10.2z"/>
	<path class="st1" d="M69.2,96.1c0,0.9-0.6,1.6-1.3,1.6l-29.8,5.3c0.5-0.2,0.9-0.8,0.9-1.5c0-3.1-0.4-76.7-0.5-81.3
		c0-0.2,0-0.4,0-0.6c0-0.3-0.1-0.6-0.1-0.8v0c0-0.2,0.5-2.2,2.7-2.6c2.3-0.4,24.5-3.7,26.6-4.1l0.2,0l0.4-0.2
		c0.2,0.5,0.4,1.2,0.5,2.4c0,0.2,0,0.4,0,0.6C68.8,19.4,69.2,93,69.2,96.1z"/>
	<path class="st2" d="M68.2,11.8l-0.4,0.2l-0.2,0c-2.1,0.3-24.3,3.7-26.6,4.1c-2.2,0.4-2.7,2.4-2.7,2.6C38,17.3,37.5,16.5,37,16
		c-0.7-0.6-1.4-0.9-2.1-1l0-0.1l30-4.7c0.9,0,1.8-0.1,2.7,0.8C67.9,11.2,68.1,11.5,68.2,11.8z"/>
	<path class="st0" d="M39,101.4c0,0.7-0.4,1.3-0.9,1.5l-0.4,0.1l-1.3-85.6L32,14.5l-3.9-4.3l1.1-0.2c0.3,0,0.6,0.1,0.9,0.3
		c2.5,1.1,3.5,3.2,3.9,4.7c0.3,0,0.6,0,0.9,0c0.7,0.1,1.4,0.4,2.1,1c0.5,0.5,1,1.3,1.3,2.6v0c0.1,0.3,0.1,0.5,0.1,0.8
		c0,0.2,0,0.4,0,0.6C38.6,24.7,39,98.3,39,101.4z"/>
	<g>
		<g>
			<path class="st0" d="M25.7,16.6C25.7,16.6,25.6,16.6,25.7,16.6L25.7,16.6C25.7,16.6,25.7,16.6,25.7,16.6z"/>
		</g>
		<g>
			<path class="st0" d="M25.7,16.6C25.7,16.6,25.6,16.6,25.7,16.6L25.7,16.6C25.7,16.6,25.7,16.6,25.7,16.6z"/>
		</g>
	</g>
	<path class="st3" d="M26.4,41.7L38,39.8L37.5,18l-4.1-1.8c0,0-0.6-2.9-2-3.8c-1.4-0.9-3.1-0.9-3.6-0.6c-1.6,0.7-2,1.9-0.5,5.1
		c1.5,3.2,0.9,9.4,0.5,12.5C27.4,32.6,26.4,41.7,26.4,41.7z"/>
	<path class="st3" d="M22,37.7l4.4-0.9c0,0,1.8-11.7,1.2-16.3c-0.6-4.5-2.4-7.3-4.4-3.9C21.3,20.1,22,37.7,22,37.7z"/>
	<polygon class="st4" points="65.1,90 84.9,95.7 86,67.1 85,55.3 63.6,47.1 57.3,46.9 51.1,48 50.7,52 	"/>
	<path class="st0" d="M65.5,85.6"/>
	<polygon class="st2" points="74.5,99.8 50.5,91.7 49.6,52.7 73.9,61.3 	"/>
	<polygon class="st1" points="77.1,60.7 77.4,99.2 74.5,99.8 73.9,61.3 	"/>
	<polygon class="st1" points="87.3,55.7 87.8,95.1 84.9,95.7 84.1,56.2 	"/>
	<polygon class="st0" points="58.1,55.4 58.1,52.3 61.1,54.3 61.2,56 	"/>
	<polygon class="st0" points="64.3,57.5 64.3,54.3 67.3,56.4 67.4,58.1 	"/>
	<polygon class="st0" points="71.3,59.5 71.4,56.3 74.3,58.4 74.5,60.1 	"/>
	<g>
		<polygon class="st5" points="65.3,58.8 65.8,50.6 69.5,50.4 69.5,59.6 		"/>
		<polygon class="st5" points="70.9,60.7 71.3,53.2 75.4,53 75.4,61.4 		"/>
		<ellipse transform="matrix(0.835 -0.5502 0.5502 0.835 -19.6494 49.6347)" class="st6" cx="72.9" cy="57.6" rx="1.3" ry="2"/>
		<ellipse transform="matrix(0.8346 -0.5509 0.5509 0.8346 -19.4716 45.4783)" class="st6" cx="66" cy="55.2" rx="1.3" ry="2"/>
		<ellipse transform="matrix(0.8348 -0.5505 0.5505 0.8348 -19.372 41.5902)" class="st6" cx="59.6" cy="53.1" rx="1.3" ry="2"/>
		<ellipse transform="matrix(1 -4.166909e-03 4.166909e-03 1 -0.2116 0.2822)" class="st6" cx="67.6" cy="50.9" rx="2" ry="1"/>
		<ellipse transform="matrix(1 -4.088507e-03 4.088507e-03 1 -0.2178 0.2996)" class="st6" cx="73.2" cy="53.4" rx="2" ry="1"/>
	</g>
	<line class="st0" x1="56.7" y1="47.3" x2="56.6" y2="52.9"/>
	<line class="st0" x1="64.3" y1="48.7" x2="64.2" y2="54.7"/>
	<g>
		<line class="st7" x1="41.7" y1="39.6" x2="64.8" y2="35.6"/>
		<line class="st7" x1="41.8" y1="35.6" x2="64.8" y2="31.8"/>
		<line class="st7" x1="41.9" y1="31.5" x2="65" y2="27.7"/>
		<line class="st7" x1="42" y1="27.4" x2="64.9" y2="23.9"/>
		<line class="st7" x1="30.6" y1="37" x2="37" y2="36.2"/>
		<line class="st7" x1="29" y1="32.8" x2="37.6" y2="31.6"/>
		<line class="st7" x1="37.3" y1="28" x2="29.5" y2="29.1"/>
		<line class="st7" x1="54" y1="57.7" x2="53.9" y2="86.3"/>
		<path class="st7" d="M59.4,59.2c0,0,0,26.5,0.2,28.1c0.1,1.6,1.7,4,1.7,4"/>
		<path class="st7" d="M66.5,95.1c0,0-1.9-1.4-1.6-7.3c0.3-5.9-0.3-26.8-0.3-26.8"/>
		<path class="st7" d="M70.1,62.4c0,0,0.5,26.6,0.5,28.8c-0.1,3.8,2,5.2,2,5.2"/>
	</g>
	<path class="st2" d="M39,101.4c0,0.7-0.4,1.3-0.9,1.5l-0.4,0.1c-0.7,0-1.3-0.8-1.3-1.7c0-0.8-0.4-76.7-0.5-81.3
		c0-0.7-0.2-1.2-0.4-1.4c-0.5-0.5-1.8-0.5-2.3-0.4c-0.4,0.1-0.6,0.2-0.9-0.1c-0.3-0.3-0.2-0.5-0.2-1c0-0.2-0.6-2.8-2.8-3.7
		c-1.1-0.5-1.8,0.2-2.2,0.9c0.7,0.8,1.3,2.3,1.7,5c0.8,5.1-1,20.5-1.1,21.1c-0.1,0.9-0.7,1.5-1.4,1.3c-0.7-0.2-1.2-1.1-1.1-2
		c0.5-4.3,1.7-16.2,1.1-20c-0.3-2.3-0.8-3-1-3.2c-0.5,0.2-2,1.2-2.5,6.6c-0.6,7.5,0.4,12.7,0.4,12.8c0.2,0.9-0.2,1.8-0.9,2
		c-0.7,0.2-1.4-0.4-1.6-1.3c0-0.1-0.3-1.4-0.5-3.6c-0.2-2.5-0.3-6.1,0-10.4c0.6-6.8,2.8-8.7,4.1-9.2c0.7-1.8,2.2-4,4.7-3.5
		c0.3,0,0.6,0.1,0.9,0.3c2.5,1.1,3.5,3.2,3.9,4.7c0.3,0,0.6,0,0.9,0c0.7,0.1,1.4,0.4,2.1,1c0.5,0.5,1,1.3,1.3,2.6v0
		c0.1,0.3,0.1,0.5,0.1,0.8c0,0.2,0,0.4,0,0.6C38.6,24.7,39,98.3,39,101.4z"/>
	<path class="st0" d="M60.5,46.4L50,48.2l-0.4,4.7l24,9.1l3-1.3c0,0-22.5-8.3-23.7-8.8c0.1-0.4,0.2-3.9,0.3-4.2
		c0.3-0.1,3.9-0.3,3.9-0.3s7.6,1.3,7.7,1.3c0.3,0.1,19.2,7.7,19.2,7.7l3-0.9l-22.3-8.8l-3.9-0.2L60.5,46.4z"/>
</g>
</svg>
