<?xml version="1.0" encoding="utf-8"?>
<!-- Generator: Adobe Illustrator 21.1.0, SVG Export Plug-In . SVG Version: 6.00 Build 0)  -->
<svg version="1.1" id="Layer_1" xmlns="http://www.w3.org/2000/svg" xmlns:xlink="http://www.w3.org/1999/xlink" x="0px" y="0px"
	 width="108px" height="108px" viewBox="0 0 108 108" style="enable-background:new 0 0 108 108;" xml:space="preserve">
<style type="text/css">
	.st0{fill:#F2F2F2;}
	.st1{fill:#FFFFFF;}
	.st2{fill:#E6E6E6;}
	.st3{fill:none;stroke:#000000;stroke-width:0.75;stroke-linecap:round;stroke-linejoin:round;stroke-miterlimit:10;}
	.st4{fill:#999999;stroke:#000000;stroke-width:0.75;stroke-linecap:round;stroke-linejoin:round;stroke-miterlimit:10;}
	.st5{fill:none;stroke:#000000;stroke-width:0.5;stroke-linecap:round;stroke-linejoin:round;stroke-miterlimit:10;}
	.st6{fill:#CCCCCC;stroke:#000000;stroke-width:0.75;stroke-linecap:round;stroke-linejoin:round;stroke-miterlimit:10;}
	.st7{fill:#FFFFFF;stroke:#000000;stroke-width:0.5;stroke-linecap:round;stroke-linejoin:round;stroke-miterlimit:10;}
</style>
<g>
	<path class="st0" d="M96,27.1l-0.2-1c-0.3-1.6-1.6-1.1-2.3-1c-0.6,0.1-66.3,15-66.3,15l0.2,3.3c13.2-3,56-12.6,68.6-15.5
		C96,27.4,96,27.1,96,27.1z"/>
	<path class="st1" d="M96.1,28c-12.6,2.9-55.5,12.5-68.6,15.5l1.2,22c11.6-3.3,59.8-16.7,68-19C96.4,39,96.2,30.6,96.1,28z"/>
	<path class="st0" d="M96.6,46.5c-8.2,2.3-56.4,15.8-68,19l0.8,13.9c12.7-3.9,59.4-18,67.4-20.4C96.9,57.6,96.8,52.4,96.6,46.5z"/>
	<path class="st2" d="M29.4,79.4l0.2,3.6c0,0,63.9-20.4,65.3-20.9c1.4-0.5,1.5-1.1,1.9-2.8c0-0.1,0-0.2,0-0.3
		C88.8,61.4,42.1,75.5,29.4,79.4z"/>
	<path class="st3" d="M29.6,83c0,0,63.9-20.4,65.3-20.9c1.4-0.5,1.5-1.1,1.9-2.8c0.4-1.7-0.7-32.2-0.7-32.2l-0.2-1
		c-0.3-1.6-1.6-1.1-2.3-1c-0.6,0.1-66.3,15-66.3,15L29.6,83z"/>
	<polygon class="st4" points="19.5,78.2 11.6,75.2 11.5,75.2 11.5,75 19.5,73 	"/>
	<g>
		<path class="st5" d="M89.8,29.3C88.8,29.7,32,42.4,32,42.4"/>
		<line class="st5" x1="92.6" y1="50.2" x2="39.9" y2="65"/>
		<line class="st5" x1="32" y1="64.8" x2="92.1" y2="48.1"/>
		<polyline class="st5" points="32.3,69.9 82.5,55.4 92.6,58 		"/>
	</g>
	<path class="st6" d="M30.9,80.4c-0.1-2.9-1.5-37.8-1.6-38.7c-0.1-0.9-0.9-1.7-1.8-1.7c-0.9,0-1.9,0.6-2.2,1.5
		c-0.3,0.9-0.1,1.5,0.4,1.8c0.6,0.3,1,1.2,1,2.3c0,0.6,0.6,10.1,1,18.9l-0.1,0l-17.6,5.9l0.2,1.7l9.2-2.7l0,3.6l0,5.2l-7.9-3l-0.1,0
		l-1.4,0.1l0.1,1.5L28.8,83H29C29,83,31,83.3,30.9,80.4z M28,79.3c-0.8,0.9-3.9-0.4-5.8-1c-0.4-1-0.4-3.7-0.4-5.9c0-1.4,0-2.5,0-2.9
		c0-1.1,5.8-2.4,5.8-2.4l0.2,0c0.1,1.3,0.1,2.6,0.2,3.8C28.3,75.5,28.3,79,28,79.3z"/>
	<path class="st4" d="M28,79.3c-0.8,0.9-3.9-0.4-5.8-1c-0.4-1-0.4-3.7-0.4-5.9l6.3-1.6h0C28.3,75.5,28.3,79,28,79.3z"/>
	<path class="st7" d="M97.9,58.6"/>
</g>
</svg>
