<?xml version="1.0" encoding="utf-8"?>
<!-- Generator: Adobe Illustrator 21.1.0, SVG Export Plug-In . SVG Version: 6.00 Build 0)  -->
<svg version="1.1" id="Layer_1" xmlns="http://www.w3.org/2000/svg" xmlns:xlink="http://www.w3.org/1999/xlink" x="0px" y="0px"
	 width="108px" height="108px" viewBox="0 0 108 108" style="enable-background:new 0 0 108 108;" xml:space="preserve">
<style type="text/css">
	.st0{fill:#E6E6E6;stroke:#000000;stroke-width:0.75;stroke-linecap:round;stroke-linejoin:round;stroke-miterlimit:10;}
	.st1{fill:#FFFFFF;}
	.st2{fill:#F2F2F2;}
	.st3{fill:none;stroke:#000000;stroke-width:0.75;stroke-linecap:round;stroke-linejoin:round;stroke-miterlimit:10;}
	.st4{fill:#B3B3B3;stroke:#000000;stroke-width:0.5;stroke-linecap:round;stroke-linejoin:round;stroke-miterlimit:10;}
	.st5{fill:#F2F2F2;stroke:#000000;stroke-width:0.5;stroke-linecap:round;stroke-linejoin:round;stroke-miterlimit:10;}
	.st6{fill:none;stroke:#000000;stroke-width:0.5;stroke-linecap:round;stroke-linejoin:round;stroke-miterlimit:10;}
</style>
<g>
	<path class="st0" d="M97.9,20.6L97.9,20.6c0,0-0.2,0-0.4,0c-0.3,0-0.9,0-1.6,0.1c-9.9,0.9-53.2,6.9-63.3,8.3
		c-0.2,0-0.4,0.1-0.6,0.1c-0.3,0-0.5,0.1-0.8,0.1c-0.2,0-0.3,0-0.4,0.1c-0.2,0-0.3,0-0.3,0l0.9,48.9c0,0-0.1,3.8,0.5,4.7
		c0.6,1,1.7,2.1,1.7,3.3c0,0.2,0,0.4,0,0.6c-0.1,0.7-0.3,1.4-0.9,1.9c-0.1,0.1-0.3,0.2-0.5,0.3l0,0c-0.2,0.1-0.5,0.2-0.7,0.2
		c-1.7,0.1-4.3-0.2-4.3-4.2c0-1.9,0-10.4,0-19.2h-0.4c0,0-18.7-4.8-20.3-5.2c-1.3-0.3-3.9-1.1-3.5-2.3c0.1-0.5,0.5-0.6,1.1-0.6
		c1,0,2.4,0.5,4,0.9c2.6,0.6,6,1.4,6,1.4s0.3-2.6,1.6-2.8c1.3-0.1,1.6,2,1.6,2.7c0,1.2,9.6,3.3,9.6,3.3h0.4c0-3.5,0-7,0-10h-0.1
		l-0.6-0.1l-8.9-2.1c0,0-0.3,1.4-0.9,2.4c-0.6,1-1.6,0-1.7-0.9c-0.1-0.9-0.4-1.9-0.9-2.4c-0.4-0.6-3-0.9-4.3-1.1
		c-1.3-0.3-6-1.4-6.9-2.1c-0.6-0.6-0.5-1.3,0.3-1.7c0.1,0,0.4-0.1,0.8-0.2c0,0,0.1,0,0.1,0c1.2-0.1,2.4,0.4,2.4,0.4l20.5,5.5H27
		c0-3.4,0-5.8-0.1-6.3c0-0.5-0.1-1.7-0.1-3.2c-0.1-5.1-0.3-14.1-0.3-14.1l68.2-8.6L97.9,20.6z"/>
	<path class="st1" d="M98.7,67.8c0-0.8-0.8-45.8-0.7-46.4c0.1-0.4-0.3-0.7-0.6-0.8c-0.3,0-0.9,0-1.6,0.1l-63.3,8.3
		c-0.2,0-0.4,0.1-0.6,0.1c-0.3,0-0.5,0.1-0.8,0.1c-0.2,0-0.3,0-0.4,0.1c-0.2,0-0.3,0-0.3,0l0.9,48.9c0,0-0.1,3.8,0.5,4.7
		c0,0,0,0,0,0C54,76.2,76.9,73.6,99.2,70C98.9,69,98.7,68.2,98.7,67.8z"/>
	<path class="st2" d="M99.2,70C76.9,73.6,54,76.2,31.8,83c0.6,1,1.7,2.1,1.7,3.2c0,0.2,0,0.4,0,0.6c-0.1,0.7-0.3,1.4-0.9,1.9
		c0,0.1-0.1,0.1-0.1,0.1s1.1,0.1,1.6,0c0.5-0.1,64-11,64.8-11.6c0.8-0.6,1.8-2,1.3-3.6C100,72.8,99.5,71.3,99.2,70z"/>
	<path class="st3" d="M99,77.3c-0.8,0.6-64.3,11.5-64.8,11.6c-0.5,0.1-1.6,0-1.6,0s0,0,0.1-0.1c0.5-0.5,0.8-1.2,0.9-1.9
		c0-0.2,0-0.4,0-0.6c0-1.1-1.1-2.3-1.7-3.3c-0.6-1-0.5-4.7-0.5-4.7l-0.9-48.9c0,0,0.1,0,0.3,0c0.1,0,0.2,0,0.4-0.1
		c0.2,0,0.5-0.1,0.8-0.1c0.2,0,0.4-0.1,0.6-0.1l63.3-8.3c0.7-0.1,1.2-0.1,1.6-0.1c0.2,0.1,0.6,0.4,0.6,0.8
		C97.9,22,98.7,67,98.7,67.8c0,0.8,1.1,4.3,1.6,5.9S99.8,76.7,99,77.3z"/>
	<path class="st3" d="M30.9,29.3l0.4,0C31.1,29.3,31,29.3,30.9,29.3C30.9,29.3,30.9,29.3,30.9,29.3z"/>
	<path class="st3" d="M31.2,29.3l0.8-0.1C31.7,29.2,31.4,29.2,31.2,29.3z"/>
	<path class="st3" d="M32.6,88.8c0.2-0.3,0.6-1.2,0.9-1.9C33.4,87.5,33.2,88.3,32.6,88.8z"/>
	<path class="st3" d="M97.4,20.6c-0.3,0-0.9,0-1.6,0.1l1.4-0.2C97.3,20.5,97.4,20.6,97.4,20.6z"/>
	<path class="st4" d="M27.1,63.4h-0.4c0,0-9.6-2.1-9.6-3.3c0-0.7-0.3-2.9-1.6-2.7c-1.3,0.2-1.6,2.8-1.6,2.8s-3.3-0.7-6-1.4
		c-1.5-0.4-3-0.9-4-0.9v-0.1l22.3-4.1l0.1-0.5l0.6,0.1H27C27,56.4,27.1,59.9,27.1,63.4z"/>
	<path class="st3" d="M30.9,87.3c0,0-1.4-1.3-1.6-4.3c-0.1-3-0.7-53.5-0.7-53.5l2.1-0.2"/>
	<path class="st5" d="M27,50.9L27,50.9L6.5,45.4c0,0-1.2-0.5-2.4-0.4c4.3-0.9,22.2-3.6,22.7-3.7c0,1.5,0.1,2.7,0.1,3.2
		C27,45.1,27,47.5,27,50.9z"/>
	<path class="st3" d="M26.8,41.3C26.8,41.3,26.8,41.3,26.8,41.3"/>
	<path class="st3" d="M4,45c-0.1,0-0.2,0-0.3,0"/>
	<g>
		<polyline class="st6" points="37.2,65.1 93.2,55.9 86,53.4 		"/>
		<polyline class="st6" points="37.2,50 93.2,41.3 86.5,39.4 		"/>
		<line class="st6" x1="36.8" y1="80.8" x2="91.9" y2="71"/>
	</g>
	<path class="st3" d="M105.5,25.2"/>
	<line class="st3" x1="23.2" y1="52.7" x2="16.2" y2="54.1"/>
	<path class="st6" d="M47.8,42.4c1.9,0,3.4,0.5,3.4,1s-1.5,1-3.4,1s-3.4-0.5-3.4-1"/>
	<path class="st6" d="M47.8,57.3c1.9,0,3.4,0.5,3.4,1c0,0.6-1.5,1-3.4,1s-3.4-0.5-3.4-1"/>
	<line class="st6" x1="33.5" y1="40.3" x2="70.3" y2="35"/>
</g>
</svg>
