<?xml version="1.0" encoding="utf-8"?>
<!-- Generator: Adobe Illustrator 21.1.0, SVG Export Plug-In . SVG Version: 6.00 Build 0)  -->
<svg version="1.1" id="Layer_1" xmlns="http://www.w3.org/2000/svg" xmlns:xlink="http://www.w3.org/1999/xlink" x="0px" y="0px"
	 width="108px" height="108px" viewBox="0 0 108 108" style="enable-background:new 0 0 108 108;" xml:space="preserve">
<style type="text/css">
	.st0{fill:#F2F2F2;stroke:#000000;stroke-width:0.75;stroke-linecap:round;stroke-linejoin:round;stroke-miterlimit:10;}
	.st1{fill:#CCCCCC;stroke:#000000;stroke-width:0.75;stroke-linecap:round;stroke-linejoin:round;stroke-miterlimit:10;}
	.st2{fill:#B3B3B3;stroke:#000000;stroke-width:0.75;stroke-linecap:round;stroke-linejoin:round;stroke-miterlimit:10;}
	.st3{fill:#E6E6E6;}
	.st4{fill:#FFFFFF;}
	.st5{fill:#F2F2F2;}
	.st6{fill:none;stroke:#000000;stroke-width:0.75;stroke-linecap:round;stroke-linejoin:round;stroke-miterlimit:10;}
	.st7{fill:none;stroke:#000000;stroke-width:0.5;stroke-linecap:round;stroke-linejoin:round;}
	.st8{fill:#FFFFFF;stroke:#000000;stroke-width:0.75;stroke-linecap:round;stroke-linejoin:round;stroke-miterlimit:10;}
	.st9{fill:#CCCCCC;}
	.st10{fill:#E6E6E6;stroke:#000000;stroke-width:0.75;stroke-linecap:round;stroke-linejoin:round;stroke-miterlimit:10;}
	.st11{fill:none;stroke:#000000;stroke-width:0.5;stroke-linecap:round;stroke-linejoin:round;stroke-miterlimit:10;}
	.st12{fill:#F2F2F2;stroke:#000000;stroke-width:0.5;stroke-linecap:round;stroke-linejoin:round;stroke-miterlimit:10;}
	.st13{fill:#B3B3B3;stroke:#000000;stroke-width:0.5;stroke-linecap:round;stroke-linejoin:round;stroke-miterlimit:10;}
</style>
<g>
	<g>
		<path class="st0" d="M63.6,5.5L63.6,5.5L29.1,24.2l-2.2-1.6l-0.6-0.1c0.4-0.6,0.9-0.7,0.9-0.7S57.8,5.1,58.8,4.7
			c1-0.5,3.2-1.3,3.9-0.9C63.1,4,63.4,4.7,63.6,5.5z"/>
		<path class="st1" d="M42.8,98.4c0,0-0.3,3.9-3.9,3.6c-0.6-0.2-4.7-1.4-7.1-2.1c-0.7-0.2-1.2-0.4-1.5-0.4c-1.3-0.4-4-0.9-4.5-0.4
			c-0.5,0.6-1,5.3-1,5.3l-2.7-1c0,0,0-2.1,0.1-3.4c0.1-1.3,0.4-4.1,1.6-4.7c1.2-0.6,3.1,0.1,3.1,0.1s10.5,2.8,11.7,2.3
			c0.4-0.2,0.7-0.7,0.9-1.2c0.3-1,0.2-2.1,0.2-2.1l-0.2-10.4l-0.6-38.4c0,0-13-13.4-13.4-14.8c-0.5-1.4,0-5.1,0.4-6.9
			c0.1-0.6,0.3-1,0.5-1.3l0.6,0.1l2.2,1.6c0,0-0.4,0.4-0.6,1.6c-0.2,1.1-0.3,3.4,0.2,4.1c0.5,0.7,12.2,13.5,12.2,13.5
			s1.3,1.4,1.3,3.8c0,1.6,0.3,25.4,0.5,40C42.7,93.7,42.8,98.4,42.8,98.4z"/>
		<path class="st2" d="M39.4,96.4c-0.2,0.5-0.4,1-0.9,1.2c-1.3,0.5-11.7-2.3-11.7-2.3s-1.9-0.8-3.1-0.1l15.8-11.3l0.2,10.4
			C39.6,94.3,39.7,95.4,39.4,96.4z"/>
		<path class="st3" d="M63,11.5c-0.2-0.8,0.1-3.1,0.5-4.3c0.2-0.5,0.2-1.2,0-1.8h0L29.1,24.2c0,0-0.4,0.4-0.6,1.6
			c-0.2,1.1-0.3,3.4,0.2,4.1c0.1,0.2,0.8,0.9,1.7,2C41.1,25,51.3,17.7,63.2,12C63.1,11.9,63.1,11.7,63,11.5z"/>
		<path class="st4" d="M72.9,22.3c-1.6-1.3-5.8-6.5-7.4-7.9c-1.3-1.1-1.9-1.7-2.2-2.4c-11.9,5.7-22.1,13-32.8,19.8
			c3.4,3.8,10.5,11.6,10.5,11.6s0.4,0.5,0.8,1.3c11-6.6,22.3-12.2,32.9-19.8C74.3,23.9,73.8,23,72.9,22.3z"/>
		<path class="st5" d="M74.6,24.8c-10.6,7.6-22,13.2-32.9,19.8c0.3,0.6,0.5,1.5,0.5,2.5c0,1.6,0.3,25.4,0.5,40
			c0.1,6.5,0.1,11.2,0.1,11.2s-0.3,3.9-3.9,3.6c0.7,0.2,3.5-0.2,5.3-1.7c1.8-1.5,10.5-8.4,10.5-8.4L74,42.4c0,0,1-14.2,1-15.6
			C74.9,26.2,74.8,25.5,74.6,24.8z"/>
		<path class="st6" d="M74,42.4L54.6,91.9c0,0-8.7,6.9-10.5,8.4c-1.8,1.5-4.6,1.9-5.3,1.7c3.7,0.4,3.9-3.6,3.9-3.6
			s-0.1-4.7-0.1-11.2c-0.2-14.6-0.5-38.4-0.5-40c0-2.4-1.3-3.8-1.3-3.8S29.1,30.5,28.7,29.8c-0.5-0.7-0.4-3-0.2-4.1
			c0.2-1.2,0.6-1.6,0.6-1.6L63.6,5.5h0c0.1,0.6,0.1,1.3,0,1.8c-0.4,1.2-0.7,3.4-0.5,4.3c0.2,0.8,0.8,1.5,2.4,2.9
			c1.6,1.3,5.8,6.5,7.4,7.9c1.6,1.3,2,3.2,2.1,4.6C75,28.2,74,42.4,74,42.4z"/>
		<g>
			<line class="st7" x1="33.3" y1="29.6" x2="60.9" y2="13.2"/>
			<line class="st7" x1="47.1" y1="41.9" x2="72.4" y2="26.1"/>
		</g>
		<path class="st2" d="M31.7,99.8l0,0.2l-7,4.3c0,0,0.5-4.7,1-5.3c0.5-0.6,3.2,0,4.5,0.4C30.5,99.5,31,99.6,31.7,99.8z"/>
		<path class="st8" d="M61.3,53.6"/>
		<path class="st8" d="M59.1,89.7"/>
	</g>
	<g>
		<path class="st9" d="M67.9,41.9c-2.1-0.9-3.5-1.5-3.8-1.6c-0.3-0.1-0.6-0.2-1-0.3c-2.3,1.7-4.7,3.3-7.1,4.8l6.2,2.3l-0.1-4.3
			l4.6-1.5L67.9,41.9z"/>
		<path class="st1" d="M83.5,91.6l-4.9-0.5L78,53L69.8,50l-3.9-1.5l-3.6-1.4l-0.1-4.3l4.6-1.5l1.2,0.5c0.6,0.3,1.3,0.6,2.1,0.9
			l0.6,0.3l0,0c0.3,0.1,0.5,0.2,0.8,0.3c0.3,0.1,0.5,0.2,0.8,0.3c0.3,0.1,0.5,0.2,0.8,0.4c0.2,0.1,0.5,0.2,0.7,0.3c0,0,0.1,0,0.1,0
			c4.5,1.9,8.9,3.8,8.9,3.8S83.1,91,83.5,91.6z"/>
		<polygon class="st10" points="78.6,93.6 76.4,95.2 76.1,95.1 75.6,55 78,53 78.6,91.1 		"/>
		<path class="st8" d="M78,53l-2.2-0.8l-3.6-1.4L69.8,50l-3.9-1.5l-3.6-1.4l-6.2-2.3c-1,0.7-2,1.3-3.1,2L75.6,55L78,53z"/>
		<polygon class="st0" points="76.1,95.1 75.9,95.1 52.4,88.5 52.2,46.6 75.6,55 		"/>
		<path class="st10" d="M85.8,91.6c-0.8,0.4-1.9,0.5-2.3,0c-0.4-0.6-0.8-43.3-0.8-43.3l2.6-1.5C85.3,46.8,86.6,91.2,85.8,91.6z"/>
		<path class="st8" d="M65.2,38.3c-0.7,0.6-1.4,1.2-2.1,1.7c0.4,0,0.7,0.1,1,0.3c0.3,0.1,2.5,1.1,5.3,2.3c0.4,0.2,0.8,0.3,1.2,0.5
			l0,0c1,0.4,2.1,0.9,3.2,1.4c2,0.9,3.9,1.7,5.5,2.4c0,0,0.1,0,0.1,0c2,0.9,3.3,1.4,3.3,1.4l2.6-1.5C85.3,46.8,66.8,39,65.2,38.3z"
			/>
		<line class="st6" x1="78.6" y1="91.1" x2="78.5" y2="91.1"/>
		<g>
			<line class="st11" x1="56.1" y1="51.5" x2="56.1" y2="84.1"/>
			<path class="st11" d="M61.3,52.9l0,32.4c0,0,0,1.3,0.7,1.9c0.7,0.6,1.4,0.6,1.4,0.6"/>
			<path class="st11" d="M66.3,54.3l0,33.8c0,0,0,1.4,0.7,2c0.7,0.6,1.4,0.6,1.4,0.6"/>
			<path class="st11" d="M71.8,56.1l0,33c0,0,0,1.3,0.7,2c0.7,0.6,1.4,0.6,1.4,0.6"/>
		</g>
		<path class="st12" d="M70.6,43c0,0-1.9,0.4-3.1,0.4c-1.2,0-5.3-0.5-5.3-0.5l4.6-1.5l1.2,0.5l1.5,0.7l0.5,0.2L70.6,43L70.6,43z"/>
		<path class="st12" d="M76.4,45.6c0,0-0.4,0.2-1.9,0.8c-1.4,0.5-4.7-1-4.7-1l4-0.9L76.4,45.6z"/>
		<path class="st12" d="M82.7,48.3c-0.6,0.3-6.8,1-6.8,1s-0.5-0.5,0-1.3c0.5-0.8,3.1-1.1,3.3-1.2c0,0,0.1,0,0.1,0L82.7,48.3z"/>
		<path class="st13" d="M73.8,44.4l-4,0.9L69.8,50l-3.9-1.5l-3.6-1.4l-0.1-4.3c0,0,4.1,0.5,5.3,0.5c1.2,0,3.1-0.4,3.1-0.4
			c0.3,0.1,0.5,0.2,0.8,0.3c0.3,0.1,0.5,0.2,0.8,0.3c0.3,0.1,0.5,0.2,0.8,0.4C73.3,44.2,73.5,44.3,73.8,44.4
			C73.8,44.4,73.8,44.4,73.8,44.4z"/>
		<path class="st8" d="M79.4,46.8C79.4,46.8,79.3,46.8,79.4,46.8C79.3,46.8,79.3,46.8,79.4,46.8L79.4,46.8z"/>
		<path class="st12" d="M69.8,50l-3.9-1.5l0.4-3.5c0,0,1.2,0.7,2.1,2C69.2,48.4,69.8,50,69.8,50z"/>
		<path class="st12" d="M64,47.8l-3.9-1.5l0.4-3.5c0,0,1.2,0.7,2.1,2C63.5,46.2,64,47.8,64,47.8z"/>
		<path class="st12" d="M75.8,52.2l-3.6-1.4l0.5-3.9c0,0,1.2,1.2,1.9,2.7C75.3,51.1,75.8,52.2,75.8,52.2z"/>
	</g>
</g>
</svg>
