<?xml version="1.0" encoding="utf-8"?>
<!-- Generator: Adobe Illustrator 21.1.0, SVG Export Plug-In . SVG Version: 6.00 Build 0)  -->
<svg version="1.1" id="Layer_1" xmlns="http://www.w3.org/2000/svg" xmlns:xlink="http://www.w3.org/1999/xlink" x="0px" y="0px"
	 width="108px" height="108px" viewBox="0 0 108 108" style="enable-background:new 0 0 108 108;" xml:space="preserve">
<style type="text/css">
	.st0{fill:#CCCCCC;}
	.st1{fill:#E6E6E6;}
	.st2{fill:none;stroke:#000000;stroke-width:0.75;stroke-linecap:round;stroke-linejoin:round;stroke-miterlimit:10;}
	.st3{fill:#B3B3B3;stroke:#000000;stroke-width:0.75;stroke-linecap:round;stroke-linejoin:round;stroke-miterlimit:10;}
	.st4{fill:#808080;stroke:#000000;stroke-width:0.5;stroke-linecap:round;stroke-linejoin:round;stroke-miterlimit:10;}
	.st5{fill:#B3B3B3;stroke:#000000;stroke-width:0.5;stroke-linecap:round;stroke-linejoin:round;stroke-miterlimit:10;}
	.st6{fill:#FFFFFF;}
	.st7{fill:#F2F2F2;}
	.st8{fill:none;stroke:#000000;stroke-width:0.5;stroke-linecap:round;stroke-linejoin:round;stroke-miterlimit:10;}
	.st9{fill:#CCCCCC;stroke:#000000;stroke-width:0.75;stroke-linecap:round;stroke-linejoin:round;stroke-miterlimit:10;}
</style>
<g>
	<path class="st0" d="M91.1,50c0-0.3,0-0.5,0-0.5L22.3,36.2l0,33.8c22.9-3,45.8-6.8,68.8-10.7C91.1,55,91.1,51.3,91.1,50z"/>
	<path class="st1" d="M22.3,70l0,25.7c0,0,63-12.2,65.7-12.8c2.7-0.6,2.9-2.7,3-4.4c0-1,0.1-11.2,0.1-19.2
		C68.1,63.2,45.2,67,22.3,70z"/>
	<path class="st2" d="M91.1,49.5c0,0,0,0.2,0,0.5c0,3.7-0.1,27.1-0.1,28.6c-0.1,1.6-0.3,3.8-3,4.4c-2.7,0.6-65.7,12.8-65.7,12.8
		l0-59.6L91.1,49.5z"/>
	<polygon class="st3" points="4.5,65.7 22.3,62.4 21.6,35.5 4.6,26.1 	"/>
	<g>
		<g>
			<polygon class="st4" points="22.1,40.3 7.7,43.3 8.2,46 22.7,43 			"/>
			<polygon class="st4" points="22.4,48.3 7.9,51.7 8.3,54.3 23.5,51 			"/>
			<polygon class="st4" points="22.2,57.6 8,60 8.4,62.7 22.7,60.3 			"/>
			<polygon class="st4" points="22.2,65.5 16.7,66.6 19.5,70.1 21.7,69.6 			"/>
			<polygon class="st4" points="22.1,55.3 16.6,56.4 19.4,59.9 21.6,59.4 			"/>
			<polygon class="st4" points="39.6,56 25.4,58.5 25.8,61.1 40.1,58.7 			"/>
			<polygon class="st4" points="39.5,47.9 25.3,50.3 25.8,53 40.1,50.5 			"/>
			<polygon class="st4" points="39.5,39.7 25.3,42.1 25.8,44.8 40,42.4 			"/>
			<polygon class="st4" points="22.1,45 16.5,46.2 19.4,49.6 21.5,49.2 			"/>
			<polygon class="st4" points="34.6,53.4 29.1,54.5 31.9,58 34.1,57.6 			"/>
			<polygon class="st4" points="34.7,45 29.1,46.2 32,49.6 34.1,49.2 			"/>
		</g>
		<g>
			<ellipse transform="matrix(0.9263 -0.3768 0.3768 0.9263 -16.1852 6.3948)" class="st5" cx="8.3" cy="44.6" rx="2.4" ry="1.4"/>
			<ellipse transform="matrix(0.9264 -0.3766 0.3766 0.9264 -19.3126 7.0483)" class="st5" cx="8.4" cy="52.9" rx="2.4" ry="1.4"/>
			<ellipse transform="matrix(0.9263 -0.3768 0.3768 0.9263 -22.4601 7.714)" class="st5" cx="8.5" cy="61.3" rx="2.4" ry="1.4"/>
			
				<ellipse transform="matrix(0.4391 -0.8984 0.8984 0.4391 -51.2727 54.5761)" class="st5" cx="18.1" cy="68.4" rx="1.5" ry="2.6"/>
			<ellipse transform="matrix(0.4392 -0.8984 0.8984 0.4392 -42.1299 48.7691)" class="st5" cx="18" cy="58.1" rx="1.5" ry="2.6"/>
			<ellipse transform="matrix(0.9264 -0.3766 0.3766 0.9264 -20.5852 14.139)" class="st5" cx="25.9" cy="59.7" rx="2.4" ry="1.4"/>
			
				<ellipse transform="matrix(0.9263 -0.3768 0.3768 0.9263 -17.5164 13.5343)" class="st5" cx="25.8" cy="51.5" rx="2.4" ry="1.4"/>
			
				<ellipse transform="matrix(0.9263 -0.3767 0.3767 0.9263 -14.4334 12.9142)" class="st5" cx="25.8" cy="43.4" rx="2.4" ry="1.4"/>
			
				<ellipse transform="matrix(0.4389 -0.8985 0.8985 0.4389 -32.9887 42.9844)" class="st5" cx="17.9" cy="47.9" rx="1.5" ry="2.6"/>
			<ellipse transform="matrix(0.439 -0.8985 0.8985 0.439 -33.4551 58.9749)" class="st5" cx="30.5" cy="56.3" rx="1.5" ry="2.6"/>
			
				<ellipse transform="matrix(0.4389 -0.8985 0.8985 0.4389 -25.9167 54.3129)" class="st5" cx="30.5" cy="47.9" rx="1.5" ry="2.6"/>
		</g>
	</g>
	<path class="st6" d="M100.7,27.5c-2.8-1.6-21.7-12.3-26.1-14.9C74,12.3,73,12.3,73,12.3L3.7,23.7l31.1,17.7l0,0.1
		C57.7,38,80.6,33,103.5,30C103,29.2,102.1,28.3,100.7,27.5z"/>
	<path class="st7" d="M104.3,32.7c0-0.7-0.1-1.7-0.8-2.7C80.6,33,57.7,38,34.8,41.5l-0.1,21.8l1.6-0.4c2.7-0.5,64.5-11.7,66.5-12.2
		c2-0.6,2.1-2.1,2.1-3.8C104.9,45.2,104.3,33.9,104.3,32.7z"/>
	<path class="st2" d="M36.2,63c2.7-0.5,64.5-11.7,66.5-12.2c2-0.6,2.1-2.1,2.1-3.8c0.1-1.8-0.6-13-0.5-14.2c0-1.3-0.4-3.3-3.6-5.2
		c-2.8-1.6-21.7-12.3-26.1-14.9c-0.6-0.3-1.7-0.4-1.7-0.4L3.7,23.7l31.1,17.7l-0.2,21.9L36.2,63z"/>
	<g>
		<path class="st8" d="M43.4,56.9c0,0,53.8-10.3,55.6-10.2c1.8,0.1,1.8-1.6,1.8-1.6"/>
		<path class="st8" d="M43.6,49.8c0,0,53.8-10.3,55.6-10.2c1.8,0.1,1.8-1.6,1.8-1.6"/>
		<path class="st8" d="M43.8,42.8c0,0,53.8-10.3,55.6-10.2c1.8,0.1,1.8-1.6,1.8-1.6"/>
		<line class="st8" x1="90.7" y1="22.4" x2="22.8" y2="33.9"/>
	</g>
	<path class="st9" d="M35.5,42.8c0-0.5-0.2-0.9-0.6-1.1L4.8,23.6c-0.4-0.2-0.8-0.2-1.1,0.1c-0.3,0.3-0.6,0.7-0.6,1.2l0.2,39.4
		c0,0.8,0.5,1.3,1.2,1.3c0.6,0,1.2-0.6,1.2-1.3c0,0-0.2-33.4-0.2-37.3c2.7,1.5,14.4,8.2,15.5,8.8c0,1.7,0.1,58.6,0.1,58.6
		c0,0.8,0.5,1.4,1.2,1.3c0.7,0,1.2-0.6,1.2-1.4l-0.1-57c3.1,2.1,9.1,5.8,9.8,6.3c0,1.4,0.3,18.3,0.3,18.3c0,0.7,0.6,1.3,1.2,1.3
		c0.7,0,1.2-0.6,1.2-1.4L35.5,42.8z"/>
</g>
</svg>
