<?xml version="1.0" encoding="utf-8"?>
<!-- Generator: Adobe Illustrator 21.1.0, SVG Export Plug-In . SVG Version: 6.00 Build 0)  -->
<svg version="1.1" id="Layer_1" xmlns="http://www.w3.org/2000/svg" xmlns:xlink="http://www.w3.org/1999/xlink" x="0px" y="0px"
	 width="108px" height="108px" viewBox="0 0 108 108" style="enable-background:new 0 0 108 108;" xml:space="preserve">
<style type="text/css">
	.st0{fill:#CCCCCC;stroke:#000000;stroke-width:0.75;stroke-linecap:round;stroke-linejoin:round;stroke-miterlimit:10;}
	.st1{fill:#F2F2F2;}
	.st2{fill:#E6E6E6;}
	.st3{fill:none;stroke:#000000;stroke-width:0.75;stroke-linecap:round;stroke-linejoin:round;stroke-miterlimit:10;}
	.st4{fill:none;stroke:#000000;stroke-width:0.5;stroke-linecap:round;stroke-linejoin:round;stroke-miterlimit:10;}
	.st5{fill:#808080;stroke:#000000;stroke-width:0.5;stroke-linecap:round;stroke-linejoin:round;stroke-miterlimit:10;}
	.st6{fill:#B3B3B3;stroke:#000000;stroke-width:0.5;stroke-linecap:round;stroke-linejoin:round;stroke-miterlimit:10;}
	.st7{fill:#FFFFFF;stroke:#000000;stroke-width:0.75;stroke-linecap:round;stroke-linejoin:round;stroke-miterlimit:10;}
</style>
<g>
	<path class="st0" d="M85.9,83.5c2.4,0.2,3.8,0.5,4.1-5.4c0.3-5.9,0.9-62.6,0.9-62.6l-40.3-2.7l-0.4,15.4l32.6,1.9L85.9,83.5z"/>
	<path class="st0" d="M24.8,30.9L24.4,7.4c0,0,11.8-4.2,18.7-1.4c6.9,2.8,8.9,13.6,7.2,17.8c-1.7,4.3-9,9.2-16.1,9.5
		C27.1,33.6,24.8,30.9,24.8,30.9z"/>
	<path class="st1" d="M49.8,28.2l-2-0.1c0,0-5.6,6.5-14.8,6.5c-9.2,0-16-6.7-16-6.7s0.2,59.8-0.1,66c-0.3,6.2,9,11.1,17.4,11
		c6.5-0.1,11.4-2.9,13.4-4.2C48.8,76.6,46.4,52.4,49.8,28.2z"/>
	<path class="st2" d="M49.8,28.2c-3.4,24.2-1,48.4-2.1,72.6c0.6-0.4,0.9-0.6,0.9-0.6s31.2-0.1,34.2,0.1c3.1,0.2,4.4-1.4,4.8-5.5
		c0.4-4.1,1.2-64.2,1.2-64.2L49.8,28.2z"/>
	<path class="st3" d="M88.8,30.5c0,0-0.7,60.1-1.2,64.2c-0.4,4.1-1.8,5.6-4.8,5.5c-3.1-0.2-34.2-0.1-34.2-0.1s-5.9,4.7-14.2,4.8
		s-17.7-4.8-17.4-11c0.3-6.2,0.1-66,0.1-66s6.8,6.7,16,6.7c9.2,0,14.8-6.5,14.8-6.5L88.8,30.5z"/>
	<g>
		<path class="st4" d="M27.1,82.4c0,0,6.8-3.3,12.6-1.5c4.1,1.2,4.6,3.1,4.6,3.1"/>
		<line class="st4" x1="23.7" y1="43" x2="22.8" y2="98"/>
		<line class="st4" x1="32.2" y1="75.3" x2="32.7" y2="42.4"/>
		<line class="st4" x1="42.4" y1="40.2" x2="41.5" y2="74"/>
		<line class="st4" x1="48.9" y1="35.1" x2="48.4" y2="95.3"/>
		<line class="st4" x1="53.8" y1="85.6" x2="54.2" y2="35.4"/>
		<line class="st4" x1="61.6" y1="39.6" x2="61.1" y2="84.7"/>
		<line class="st4" x1="72.3" y1="37.4" x2="71.9" y2="94.3"/>
		<line class="st4" x1="81.3" y1="37.5" x2="80.9" y2="94.8"/>
	</g>
	<g>
		<polyline class="st5" points="61.2,27.7 61.6,18.6 67.3,15.8 66.7,28 		"/>
		<polyline class="st5" points="71.5,19 70.8,28.5 76.1,29 77.4,16.5 		"/>
		<polyline class="st5" points="81.6,19.2 80.7,29.2 85.9,29.7 87.6,17.2 		"/>
	</g>
	<g>
		<path class="st6" d="M70.4,24.4c1,1.2,1.2,2.4,0.5,2.9c-1,0.7-2.2-0.2-3.2-1.3c-1-1.2-1.2-2.5-0.5-2.9
			C68,22.6,69.4,23.2,70.4,24.4z"/>
		<path class="st6" d="M65.2,18.2c-1.5,0.7-3.3,1.1-3.6,0.5c-0.3-0.6,0.9-2,2.4-2.7c1.5-0.7,3-0.8,3.3-0.3
			C67.6,16.4,66.7,17.5,65.2,18.2z"/>
		<path class="st6" d="M75.3,18.7c-1.5,0.7-3.5,0.9-3.8,0.3c-0.3-0.6,1.1-1.7,2.6-2.5c1.5-0.7,3-0.8,3.3-0.3
			C77.7,16.9,76.8,18,75.3,18.7z"/>
		<path class="st6" d="M85.4,19.2c-1.5,0.7-3.4,0.9-3.7,0.3c-0.3-0.6,1-1.7,2.5-2.4c1.5-0.7,3-0.8,3.3-0.3
			C87.8,17.4,86.9,18.5,85.4,19.2z"/>
		<path class="st6" d="M80.6,25.5c1,1.2,1.2,2.5,0.5,2.9c-0.7,0.4-2.2-0.2-3.2-1.3c-1-1.2-1.2-2.5-0.5-2.9
			C78.1,23.7,79.5,24.3,80.6,25.5z"/>
	</g>
	<polygon class="st5" points="27.2,31.4 26.9,23 22.4,26.2 22.4,30.3 	"/>
	<polyline class="st5" points="31.3,12.5 32.4,32.6 28.7,33.2 26.9,11.1 	"/>
	<g>
		<path class="st6" d="M44.5,20.9c-1.7,0-3-0.7-3-1.5c0.1-0.8,1.5-1.5,3.3-1.4c1.7,0,3,0.7,3,1.5C47.7,20.3,46.2,20.9,44.5,20.9z"/>
		<path class="st6" d="M30.5,10.7c0.9,1.1,1,2.5,0.2,3c-0.8,0.5-2.2,0-3.2-1.2c-0.9-1.1-1-2.5-0.2-3C28.2,9.1,29.6,9.6,30.5,10.7z"
			/>
		<path class="st6" d="M25.8,25.8c-1.1,1.2-2.6,1.7-3.3,1.3c-0.7-0.5-0.4-1.8,0.7-3c1.1-1.2,2.6-1.7,3.3-1.3
			C27.3,23.3,27,24.6,25.8,25.8z"/>
	</g>
	<line class="st7" x1="42.8" y1="30.7" x2="41.6" y2="19.8"/>
	<path class="st7" d="M89.3,13.2l-38-2.6c-0.7-1.2-1.7-2.4-2.8-3.4c-3.5-3-8.6-4.5-14.1-4.1c-2.7,0.2-6.1,1.6-8.7,2.7
		c-1.1,0.5-1.6,1.5-1.1,2.4C25,9.1,26.3,9.5,27.3,9c2-0.9,4.8-2.2,6.9-2.3c4.3-0.3,8.3,0.9,11,3.1c2.6,2.2,3.8,5.4,3.4,9
		c-0.4,3.7-2.6,12.4-13.2,13.1c-5.6,0.4-11.4-1.8-14.5-5.4c-0.7-0.8-2-0.9-3-0.3c-1,0.6-1.2,1.7-0.6,2.5c4,4.6,10.4,8,17.4,7.5
		c5-0.3,11.5-2.7,14.5-5.6l37.1,1.6c1.2,0.1,2.2-0.7,2.4-1.7c0.2-1-0.6-1.8-1.8-1.9l-35.9-1.5c1.4-2.3,1.6-3.6,2-6.7
		c0.2-1.6-0.1-4.6-0.5-6.1l35.9,2.5c1.2,0.1,2.2-0.6,2.4-1.6C91.2,14.2,90.4,13.3,89.3,13.2z"/>
</g>
</svg>
