<?xml version="1.0" encoding="utf-8"?>
<!-- Generator: Adobe Illustrator 21.1.0, SVG Export Plug-In . SVG Version: 6.00 Build 0)  -->
<svg version="1.1" id="Layer_1" xmlns="http://www.w3.org/2000/svg" xmlns:xlink="http://www.w3.org/1999/xlink" x="0px" y="0px"
	 width="108px" height="108px" viewBox="0 0 108 108" style="enable-background:new 0 0 108 108;" xml:space="preserve">
<style type="text/css">
	.st0{fill:#CCCCCC;stroke:#000000;stroke-width:0.75;stroke-linecap:round;stroke-linejoin:round;stroke-miterlimit:10;}
	.st1{fill:#FFFFFF;}
	.st2{fill:#F2F2F2;}
	.st3{fill:none;stroke:#000000;stroke-width:0.75;stroke-linecap:round;stroke-linejoin:round;stroke-miterlimit:10;}
	.st4{fill:none;stroke:#000000;stroke-width:0.5;stroke-linecap:round;stroke-linejoin:round;stroke-miterlimit:10;}
	.st5{fill:#808080;stroke:#000000;stroke-width:0.5;stroke-linecap:round;stroke-linejoin:round;stroke-miterlimit:10;}
	.st6{fill:#B3B3B3;stroke:#000000;stroke-width:0.5;stroke-linecap:round;stroke-linejoin:round;stroke-miterlimit:10;}
	.st7{fill:#E6E6E6;stroke:#000000;stroke-width:0.75;stroke-linecap:round;stroke-linejoin:round;stroke-miterlimit:10;}
</style>
<g>
	<polygon class="st0" points="6.1,79.5 22.4,76.3 22.4,41.1 5.3,41 	"/>
	<path class="st1" d="M103.4,30c0-0.7-0.3-1.3-0.8-1.5L92,23.3c0,0-1.2-0.4-1.8-0.3C82,24.4,18.9,36.1,6.6,38.7
		c-1.3,0.3-2.4,0.8-2.5,0.9c-0.3,0.3-0.4,0.8-0.4,1.3l2.4,1.7C7.1,43,16.2,47,16.6,47.2c0,0,0,0.4,0,0.9
		c28.9-5.8,57.9-12.6,86.8-17.5L103.4,30z"/>
	<path class="st2" d="M16.6,48.1c0.2,5.5,1,35.3,1,35.3c0,0.5,0.2,1.1,0.5,1.4l0.7,0.3c0.7,0,84.3-16.3,84.3-17.2
		c0.6,0,1.1-0.8,1-1.7l-0.9-35.5C74.5,35.5,45.6,42.3,16.6,48.1z"/>
	<path class="st3" d="M6.2,42.6C7.1,43,16.2,47,16.6,47.2c0,0.4,1,36.2,1,36.2c0,0.5,0.2,1.1,0.5,1.4l0.7,0.3
		c0.7,0,84.3-16.3,84.3-17.2c0.6,0,1.1-0.8,1-1.7l-0.9-36c0-0.7-0.3-1.3-0.8-1.5L92,23.3c0,0-1.2-0.4-1.8-0.3
		C82,24.4,18.9,36.1,6.6,38.7c-1.3,0.3-2.4,0.8-2.5,0.9c-0.3,0.3-0.4,0.8-0.4,1.3L6.2,42.6z"/>
	<path class="st4" d="M22.7,64.7c0,0,71.2-14,74.9-14.6c3.8-0.6,3.8,2.8,3.8,2.8"/>
	<path class="st4" d="M22.2,52.5c0,0,71.2-14,74.9-14.6c3.8-0.6,3.8,2.8,3.8,2.8"/>
	<path class="st5" d="M18,52.1c0.7-0.2,1.2,6.3-0.1,7.6c-0.2,0.2-1.7,0.7-2,0.7c-0.9,0.1-2.3-0.5-3.9-2c-2-1.9-2.6-3.7-1.9-4.5
		C10.9,53.1,15.4,52.7,18,52.1z"/>
	<line class="st4" x1="21.5" y1="46.2" x2="100.3" y2="30.6"/>
	<path class="st5" d="M18.3,64.6c0.7-0.2,1.2,6.3,0,7.6c-0.1,0.1-1.7,0.6-1.9,0.6c-0.9,0.3-2.4-0.4-4.1-2c-2-1.9-2.6-3.7-1.9-4.5
		C11.1,65.5,15.6,65.2,18.3,64.6z"/>
	<path class="st6" d="M14.7,55.5c2,1.9,2.6,3.7,1.9,4.5c-0.7,0.8-2.5,0.3-4.6-1.7c-2-1.9-2.6-3.7-1.9-4.5
		C10.9,53.1,12.7,53.6,14.7,55.5z"/>
	<path class="st6" d="M15,68c2,1.9,2.6,3.7,1.9,4.5c-0.7,0.8-2.5,0.3-4.6-1.7c-2-1.9-2.6-3.7-1.9-4.5C11.1,65.5,12.9,66.1,15,68z"/>
	<path class="st7" d="M19.1,46.5c0-0.7-0.3-1.3-0.8-1.6L5.3,39.2c-0.4-0.2-0.9-0.1-1.2,0.3c-0.3,0.3-0.4,0.8-0.4,1.3
		c0,0,0.6,37.2,0.6,37.2c0,0.5,0.2,1.1,0.5,1.4l0.7,0.3c0.7,0,1.2-0.8,1.2-1.7c0,0-0.6-34.3-0.6-35.4C7.1,43,16.2,47,16.6,47.2
		c0,0.4,1,36.2,1,36.2c0,0.5,0.2,1.1,0.5,1.4l0.7,0.3c0.7,0,1.2-0.8,1.2-1.8L19.1,46.5z"/>
</g>
</svg>
