<?xml version="1.0" encoding="utf-8"?>
<!-- Generator: Adobe Illustrator 21.1.0, SVG Export Plug-In . SVG Version: 6.00 Build 0)  -->
<svg version="1.1" id="Layer_1" xmlns="http://www.w3.org/2000/svg" xmlns:xlink="http://www.w3.org/1999/xlink" x="0px" y="0px"
	 width="108px" height="108px" viewBox="0 0 108 108" style="enable-background:new 0 0 108 108;" xml:space="preserve">
<style type="text/css">
	.st0{fill:#FFFFFF;stroke:#000000;stroke-width:0.75;stroke-linecap:round;stroke-linejoin:round;stroke-miterlimit:10;}
	.st1{fill:#E6E6E6;stroke:#000000;stroke-width:0.5;stroke-linecap:round;stroke-linejoin:round;stroke-miterlimit:10;}
	.st2{fill:#F2F2F2;}
	.st3{fill:#FFFFFF;}
	.st4{fill:none;stroke:#000000;stroke-width:0.75;stroke-linecap:round;stroke-linejoin:round;stroke-miterlimit:10;}
	.st5{fill:#B3B3B3;stroke:#000000;stroke-width:0.5;stroke-linecap:round;stroke-linejoin:round;stroke-miterlimit:10;}
	.st6{fill:#999999;stroke:#000000;stroke-width:0.5;stroke-linecap:round;stroke-linejoin:round;stroke-miterlimit:10;}
	.st7{fill:#808080;stroke:#000000;stroke-width:0.5;stroke-linecap:round;stroke-linejoin:round;stroke-miterlimit:10;}
	.st8{fill:none;stroke:#000000;stroke-width:0.5;stroke-linecap:round;stroke-linejoin:round;stroke-miterlimit:10;}
	.st9{fill:#CCCCCC;stroke:#000000;stroke-width:0.5;stroke-linecap:round;stroke-linejoin:round;stroke-miterlimit:10;}
	.st10{fill:#CCCCCC;stroke:#000000;stroke-width:0.75;stroke-linecap:round;stroke-linejoin:round;stroke-miterlimit:10;}
</style>
<g>
	<path class="st0" d="M33.7,19.4l-0.4,4.3v0l0,0.1v-0.6l0-4.1C33.6,19.3,33.7,19.4,33.7,19.4z"/>
	<path class="st1" d="M33.3,19.2c-1-0.5-3.9-2.1-5.1-3c-1.5-1.2-2-1.8-2-2.7c0-0.9,0.9-1.6,0.9-1.6l0,0c1.9,1.3,5.1,3.7,6.1,4.5
		L33.3,19.2z"/>
	<path class="st0" d="M33.7,19.4c0,0-0.2-0.1-0.4-0.2l0-2.9c0.2,0.2,0.3,0.2,0.3,0.2L33.7,19.4z"/>
	<path class="st0" d="M33.4,24C33.4,24,33.4,24,33.4,24l0-0.5l0,0.3v0L33.4,24z"/>
	<path class="st0" d="M37.2,25.7C37.2,25.8,37.2,25.8,37.2,25.7l-0.1-0.1L37.2,25.7z"/>
	<path class="st0" d="M45.9,21.4L45.9,21.4c0-0.7,0-1.5,0-2.3c0.1,0,0.1,0,0.1,0L45.9,21.4C46,21.4,46,21.4,45.9,21.4z"/>
	<path class="st0" d="M85,53.3L48.5,25.4L48.4,5.1l0.2-0.2c7.8,6,31.9,26.9,31.9,26.9c1.8,1.5,3.7,3.2,4.1,5.2
		C84.6,37,85,52.7,85,53.3z"/>
	<path class="st2" d="M78,86.9L36.1,59l0,16.7l41.8,27.2h0c0.3-0.6,0.4-1.4,0.3-2.1L78,86.9z"/>
	<path class="st3" d="M77.4,55.1l3.2-2.3l-3.9,2l0,0L37.2,25.7c-0.1,0-0.1,0.1-0.1,0.1l-0.1-0.2l-0.7-1.9h-0.3c0,0.6,0,1.1,0,1.7
		c0,3.8,0,6.8,0,6.8l0,26.8l41.9,28L77.4,55.1z"/>
	<path class="st4" d="M78.2,100.7c0.1,0.7,0,1.5-0.3,2.1h0L36.1,75.6l0-43.4c0,0,0-3,0-6.8c0-0.5,0-1.1,0-1.7h0.3l0.7,1.9l0.1,0.2
		c0,0,0,0,0.1-0.1l39.5,29.1l0,0l3.9-2l-3.2,2.3L78.2,100.7z"/>
	<path class="st5" d="M80.6,52.8l-3.9,2l0,0L37.2,25.7c0.5-0.4,3.5-3.1,4.2-4c0.7-1-5,2-5,2h-0.3c0-1.6,0-3.3,0.1-5h0.3l0.2,2.4
		c0,0,3.6-3,4.3-4C41,17,41,17,41,16.9l0.1,0l1.8,1.5l-0.3,0.3c-0.1,0-0.2,0-0.2,0c-0.7,0-0.6,0.7,0.2,1.3c0.7,0.5,2.9,1.3,3.3,1.4
		v0c0,2.2,0,3.9,0,4.3c0,1.2,1.9,2.6,1.9,2.6L80.6,52.8z"/>
	<path class="st0" d="M37.2,25.7C37.2,25.8,37.2,25.8,37.2,25.7l-0.1-0.1L37.2,25.7z"/>
	<path class="st6" d="M45.9,17.4c0,0-3.2-1.1-4-1.7c-0.8-0.6-0.8-1.2-0.2-1.3c0.2,0,0.5,0,1,0.1l0-0.3l-3.1-2.1l-2.7-2.8l-0.5,0
		c-0.2,1.4-0.3,5.2-0.3,9.4h0.3c0,0,4.6-2.3,4.6-1.8l0.1,0l1.8,1.5l-0.3,0.3c0.1,0,0.2,0,0.3,0c0.9,0.1,2.6,0.4,3,0.4
		C45.9,18.6,45.9,18,45.9,17.4z M39.6,12.7c-0.4,0.8-2.8,3.2-2.8,3.2l0.1-2.4C36.9,13.5,40,11.9,39.6,12.7z"/>
	<path class="st7" d="M45.9,8.1c0,0-0.1-0.7-0.5-1.2c-0.5-0.4-5.6,0.5-6.6,0.7c-1,0.2-1.6,0.6-2.1,1.1c0,0-0.1,0.2-0.1,0.6l0.5,0
		l2.7,2.8l3.1,2.1l0,0.3c1.1,0.1,2.6,0.4,2.6,0.4l0.6,2.5C45.9,12.9,45.9,8.1,45.9,8.1z M41.8,11.1C41,10.6,41,9.9,41.6,9.9
		c0.7,0,3.6,0.5,3.6,0.5l0.6,2.5C45.8,12.8,42.5,11.7,41.8,11.1z"/>
	<g>
		<line class="st8" x1="51.3" y1="15.2" x2="80.1" y2="38.3"/>
		<line class="st8" x1="51.7" y1="20.8" x2="80.4" y2="43.9"/>
		<line class="st8" x1="39.2" y1="64.9" x2="71" y2="87.2"/>
	</g>
	<line class="st4" x1="37.1" y1="25.6" x2="36.8" y2="25.4"/>
	<path class="st0" d="M33.4,24C33.4,24,33.4,24,33.4,24l0-0.5l0,0.3v0L33.4,24z"/>
	<path class="st7" d="M33.5,71L33.5,71l-6.5-4l-0.2,0c0.1-0.4,0.2-0.8,0.4-1.1c0.5-0.7,6.1-3.7,6.1-3.7h0.2L33.5,71z"/>
	<path class="st5" d="M33.5,74.3h-0.1l-8.6-5.5c0.3,0.1,0.7,0.1,1.2-0.3c0.5-0.4,0.7-1,0.7-1.5l0.2,0l6.4,4h0.1L33.5,74.3z"/>
	<path class="st9" d="M45.8,12.8c0,0-3.2-1.1-4-1.7C41,10.6,41,9.9,41.6,9.9c0.7,0,3.6,0.5,3.6,0.5L45.8,12.8z"/>
	<path class="st9" d="M45.9,17.4L45.9,17.4c0,0-3.2-1.1-4-1.7c-0.8-0.6-0.8-1.2-0.2-1.3c0.2,0,0.5,0,1,0.1c1.1,0.1,2.6,0.4,2.6,0.4
		L45.9,17.4z"/>
	<path class="st9" d="M45.9,21.4c-0.5-0.2-2.6-0.9-3.3-1.4c-0.8-0.6-0.8-1.2-0.2-1.3c0,0,0.1,0,0.2,0c0.1,0,0.2,0,0.3,0
		c0.9,0.1,2.6,0.4,3,0.4C45.9,19.9,45.9,20.7,45.9,21.4z"/>
	<path class="st0" d="M45.9,21.4L45.9,21.4c0-0.7,0-1.5,0-2.3c0.1,0,0.1,0,0.1,0L45.9,21.4C46,21.4,46,21.4,45.9,21.4z"/>
	<path class="st9" d="M39.6,12.7c-0.4,0.8-2.8,3.2-2.8,3.2l0.1-2.4C36.9,13.5,40,11.9,39.6,12.7z"/>
	<path class="st9" d="M41,16.9c0,0,0,0.1-0.1,0.1c-0.7,1-4.3,4-4.3,4l-0.2-2.4C36.4,18.7,41,16.4,41,16.9z"/>
	<path class="st9" d="M41.4,21.8c-0.7,0.9-3.7,3.5-4.2,4l-0.1-0.1l-0.7-1.9C36.4,23.7,42.2,20.8,41.4,21.8z"/>
	<path class="st0" d="M37.2,25.7C37.2,25.8,37.2,25.8,37.2,25.7l-0.1-0.1L37.2,25.7z"/>
	<line class="st8" x1="45.3" y1="24.2" x2="41.7" y2="21.7"/>
	<path class="st10" d="M85,53.3c0,0.6-0.6,1.4-1.3,1.5c-0.7,0.1-3-1.9-3-1.9L47.8,28.2c0,0-1.9-1.4-1.9-2.6c0-0.3-0.1-17.5-0.1-17.5
		S45.8,7.4,45.3,7c-0.5-0.4-5.6,0.5-6.6,0.7c-1,0.2-1.6,0.6-2.1,1.1c0,0-0.1,0.2-0.1,0.6c-0.2,1.4-0.3,5.2-0.3,9.4
		c0,1.7,0,3.4-0.1,5c0,0.6,0,1.1,0,1.7c0,3.8,0,6.8,0,6.8l0,43.4l41.8,27.2h0c-0.5,1-1.4,1.8-2.6,2L37.2,80.4c-2-1.1-3.5-2.2-3.6-5
		v-1.1l0-3.3l0-8.7v-0.2c-0.5,0.3-5.8,3.2-6.3,3.9c-0.2,0.3-0.3,0.7-0.4,1.1c-0.1,0.5-0.2,1.1-0.7,1.5c-0.5,0.4-0.9,0.5-1.2,0.3l0,0
		l-0.2-0.1c-0.2-0.1-0.3-0.3-0.5-0.6c-0.4-0.7-0.1-2.7,0.6-3.7c0.7-0.9,7.9-6.2,8.7-6.8L33.4,24c0,0,0,0,0,0l0-0.2v0l0-0.3V24
		c-0.1-0.1-0.5-0.4-1.2-0.9c-0.8-0.6-4.8-3.5-6.3-4.8c-1.4-1.3-3.2-3.9-2.9-5.3c0.3-1.3,1.5-2.4,2.5-2.1c0.2,0,0.8,0.5,1.6,1
		c0,0-1,0.7-0.9,1.6c0,0.9,0.5,1.5,2,2.7c1.2,1,4,2.5,5.1,3l0-2.9l0-6.9c-0.3-2,1-3.8,2.9-4.1c0,0,8.1-2.6,10-2.1
		c0.3,0.1,1.1,0.7,2.3,1.6v0l-0.2,0.2l0.1,20.3L85,53.3z"/>
</g>
</svg>
