<?xml version="1.0" encoding="utf-8"?>
<!-- Generator: Adobe Illustrator 21.1.0, SVG Export Plug-In . SVG Version: 6.00 Build 0)  -->
<svg version="1.1" id="Layer_1" xmlns="http://www.w3.org/2000/svg" xmlns:xlink="http://www.w3.org/1999/xlink" x="0px" y="0px"
	 width="108px" height="108px" viewBox="0 0 108 108" style="enable-background:new 0 0 108 108;" xml:space="preserve">
<style type="text/css">
	.st0{fill:#CCCCCC;stroke:#231F20;stroke-width:0.75;stroke-linecap:round;stroke-linejoin:round;}
	.st1{fill:#FFFFFF;stroke:#231F20;stroke-width:0.75;stroke-linecap:round;stroke-linejoin:round;}
	.st2{fill:none;stroke:#231F20;stroke-width:0.5;stroke-linecap:round;stroke-linejoin:round;}
</style>
<g>
	<path class="st0" d="M11.1,26.4c0,0-4.1-5.3-2.1,15.6c0,0,1.2,1.5,2.1,1.2"/>
	<path class="st0" d="M10.1,62.9c0,0-1.7,17.9-0.4,18.5c0.7,0.3,3.2,5.8,1.8-18.8"/>
	<polygon class="st1" points="100.2,80.6 11.4,82.2 11.1,26.4 100.3,25.8 	"/>
	<path class="st0" d="M11.1,48c0,0-3-0.8-3.1,2c-0.2,2.8-1,11.8,2,14.2L11.1,48z"/>
	<line class="st2" x1="15" y1="43.1" x2="96.7" y2="43.2"/>
	<line class="st2" x1="16.1" y1="49.4" x2="56.3" y2="48.5"/>
	<line class="st2" x1="16.3" y1="78.6" x2="48.8" y2="78.2"/>
</g>
</svg>
