<?xml version="1.0" encoding="utf-8"?>
<!-- Generator: Adobe Illustrator 21.1.0, SVG Export Plug-In . SVG Version: 6.00 Build 0)  -->
<svg version="1.1" id="Layer_1" xmlns="http://www.w3.org/2000/svg" xmlns:xlink="http://www.w3.org/1999/xlink" x="0px" y="0px"
	 width="108px" height="108px" viewBox="0 0 108 108" style="enable-background:new 0 0 108 108;" xml:space="preserve">
<style type="text/css">
	.st0{fill:#E6E6E6;stroke:#000000;stroke-width:0.5;stroke-linecap:round;stroke-linejoin:round;stroke-miterlimit:10;}
	.st1{fill:#F2F2F2;stroke:#000000;stroke-width:0.5;stroke-linecap:round;stroke-linejoin:round;stroke-miterlimit:10;}
	.st2{fill:none;stroke:#000000;stroke-width:0.5;stroke-linecap:round;stroke-linejoin:round;stroke-miterlimit:10;}
	.st3{fill:#CCCCCC;stroke:#000000;stroke-width:0.25;stroke-linecap:round;stroke-linejoin:round;stroke-miterlimit:10;}
	.st4{fill:none;stroke:#000000;stroke-width:0.25;stroke-linecap:round;stroke-linejoin:round;stroke-miterlimit:10;}
	.st5{fill:#B3B3B3;stroke:#000000;stroke-width:0.25;stroke-linecap:round;stroke-linejoin:round;stroke-miterlimit:10;}
	.st6{fill:#FFFFFF;stroke:#000000;stroke-width:0.5;stroke-linecap:round;stroke-linejoin:round;stroke-miterlimit:10;}
	.st7{fill:#E6E6E6;stroke:#000000;stroke-width:0.25;stroke-linecap:round;stroke-linejoin:round;stroke-miterlimit:10;}
	.st8{fill:#FFFFFF;stroke:#000000;stroke-width:0.25;stroke-linecap:round;stroke-linejoin:round;stroke-miterlimit:10;}
	.st9{fill:#CCCCCC;stroke:#000000;stroke-width:0.5;stroke-linecap:round;stroke-linejoin:round;stroke-miterlimit:10;}
	.st10{fill:#808080;stroke:#000000;stroke-width:0.25;stroke-linecap:round;stroke-linejoin:round;stroke-miterlimit:10;}
</style>
<g>
	<path class="st0" d="M26.2,64.2v0.6v1.7v1l0,0.1l0.1,0.1l0.1,0.1l0.1,0.1l0.1,0l0.1,0l0,0l0,0h0l71.5-11.7v3.2
		c0,0.9-0.6,1.6-0.6,1.6L22,73.2l0.2,0l0.1-0.1l0.1-0.1l0.1-0.1l0-0.2v-7.8"/>
	<polygon class="st1" points="98.7,43.2 21.9,55.1 21.9,55.1 21.6,54.7 21.3,54.4 21,54.2 20.6,54 20.2,53.8 19.8,53.7 19.4,53.6 
		95.8,41.8 97.3,42.2 	"/>
	<polyline class="st2" points="26.6,67.9 26.7,67.9 26.8,67.9 	"/>
	<polygon class="st3" points="24.4,59 24.1,59 24.2,59.3 24.3,59.6 24.5,59.8 24.7,60 24.9,60.2 24.2,60.3 23.9,60.3 23.6,60.3 
		23.3,60.4 23,60.5 22.7,60.6 22.5,60.9 22.5,56.2 26.2,58.5 26.2,58.5 24.7,58.9 24.7,58.9 	"/>
	<polygon class="st3" points="24.5,62.1 24.3,62.2 24.3,62.5 24.4,62.7 24.6,62.9 24.8,63.1 24.9,63.3 24.3,63.4 23.9,63.3 
		23.6,63.4 23.3,63.5 23,63.6 22.7,63.8 22.5,64 22.5,61.7 22.5,61.7 22.8,61.7 23,61.6 23,61.6 26.2,61.1 26.2,61.7 24.6,62.1 	"/>
	<polygon class="st3" points="26.2,64.8 26.2,65.4 26,65.3 25.7,65.1 25.4,65.1 25.1,65 25,65 	"/>
	<polygon class="st3" points="26.2,61.7 26.2,62.4 26,62.3 25.7,62.2 25.4,62.1 25.1,62.1 24.8,62.1 24.6,62.1 	"/>
	<polygon class="st4" points="26.2,58.5 26.2,59.4 26,59.2 25.7,59.1 25.5,59 25.2,58.9 24.9,58.9 24.7,58.9 	"/>
	<g>
		<polygon class="st5" points="24.2,60.3 24.2,60.6 24,60.8 23.8,61.1 23.6,61.3 23.3,61.5 23.1,61.6 23,61.6 23,61.6 22.5,61.7 
			22.5,61.7 22.5,60.9 22.7,60.6 23,60.5 23.3,60.4 23.6,60.3 23.9,60.3 		"/>
		<polygon class="st5" points="26.2,59.4 26.2,60.4 25.9,60.4 25.7,60.4 25.4,60.4 25.1,60.3 24.9,60.2 24.7,60 24.5,59.8 
			24.3,59.6 24.2,59.3 24.1,59 24.4,59 24.7,58.9 24.7,58.9 24.9,58.9 25.2,58.9 25.5,59 25.7,59.1 26,59.2 		"/>
		<polygon class="st5" points="26.2,62.4 26.2,63.6 25.9,63.6 25.7,63.6 25.4,63.5 25.2,63.4 24.9,63.3 24.8,63.1 24.6,62.9 
			24.4,62.7 24.3,62.5 24.3,62.2 24.5,62.1 24.6,62.1 24.8,62.1 25.1,62.1 25.4,62.1 25.7,62.2 26,62.3 		"/>
		<polygon class="st5" points="26.2,65.4 26.2,66.5 25.9,66.6 25.7,66.5 25.4,66.5 25.2,66.4 24.9,66.3 24.7,66.1 24.5,65.9 
			24.4,65.7 24.3,65.4 24.2,65.2 24.5,65.1 24.8,65 25.1,65 25.4,65.1 25.7,65.1 26,65.3 		"/>
		<polygon class="st5" points="24.3,63.4 24.2,63.6 24.1,63.9 23.9,64.1 23.7,64.3 23.5,64.5 23.3,64.6 23,64.7 23,64.7 22.5,64.8 
			22.5,64 22.7,63.8 23,63.6 23.3,63.5 23.6,63.4 23.9,63.3 		"/>
	</g>
	<polygon class="st6" points="103.5,45.9 103.5,55.3 98.3,56.2 98.3,56.2 26.8,67.9 26.9,67.8 27,67.7 27,67.6 27.1,67.5 27.1,58.5 
		27.1,58.3 27,58.2 26.9,58 21.9,55.1 98.7,43.2 	"/>
	<polygon class="st6" points="95.8,41.8 19.4,53.6 4.6,46.8 4.6,46.8 4.6,46.8 81.2,34.8 	"/>
	<polygon class="st7" points="15.7,52.8 14.1,53.1 14.1,52 	"/>
	<polygon class="st8" points="11,51.7 5.7,51.7 5.7,49.3 	"/>
	<polygon class="st7" points="14.1,52 14.1,53.1 11,51.7 5.7,49.3 4.5,48.8 4.5,47.7 	"/>
	<polygon class="st9" points="27.1,58.3 27.1,58.5 27.1,67.5 27,67.6 27,67.7 26.9,67.8 26.8,67.9 26.8,67.9 26.8,67.9 26.7,67.9 
		26.6,67.9 26.5,67.9 26.4,67.8 26.3,67.7 26.2,67.6 26.2,67.5 26.2,58.5 22.5,56.2 22.5,72.6 22.5,72.8 22.4,73 22.3,73.1 
		22.2,73.2 22,73.2 21.8,73.2 21.7,73.1 21.6,73 21.5,72.9 21.5,72.7 21.5,55.8 21.1,55.5 20.7,55.1 20.3,54.9 19.8,54.6 19.4,54.4 
		15.7,52.8 15.7,52.8 14.1,52 4.5,47.7 4.6,46.8 4.6,46.8 15.2,51.7 19.4,53.6 19.8,53.7 20.2,53.8 20.6,54 21,54.2 21.3,54.4 
		21.6,54.7 21.9,55.1 21.9,55.1 26.9,58 27,58.2 	"/>
	<g>
		<polygon class="st10" points="26.2,63.6 26.2,64.2 23,64.7 23.3,64.6 23.5,64.5 23.7,64.3 23.9,64.1 24.1,63.9 24.2,63.6 
			24.3,63.4 24.9,63.3 25.2,63.4 25.4,63.5 25.7,63.6 25.9,63.6 		"/>
		<polyline class="st4" points="102,53.5 102.4,54.1 27.8,66.1 		"/>
		<polygon class="st10" points="26.2,60.4 26.2,61.1 23,61.6 23.1,61.6 23.3,61.5 23.6,61.3 23.8,61.1 24,60.8 24.2,60.6 24.2,60.3 
			24.9,60.2 25.1,60.3 25.4,60.4 25.7,60.4 25.9,60.4 		"/>
		<polyline class="st4" points="102,50.8 102.5,51.4 27.8,62.9 		"/>
		<polyline class="st4" points="27.8,60.4 102.1,48.7 101.6,48 		"/>
		<line class="st4" x1="27.8" y1="57.9" x2="102.4" y2="46.4"/>
		<line class="st4" x1="15.5" y1="51" x2="88.6" y2="39.8"/>
	</g>
</g>
</svg>
