<?xml version="1.0" encoding="utf-8"?>
<!-- Generator: Adobe Illustrator 21.1.0, SVG Export Plug-In . SVG Version: 6.00 Build 0)  -->
<svg version="1.1" id="Layer_1" xmlns="http://www.w3.org/2000/svg" xmlns:xlink="http://www.w3.org/1999/xlink" x="0px" y="0px"
	 width="108px" height="108px" viewBox="0 0 108 108" style="enable-background:new 0 0 108 108;" xml:space="preserve">
<style type="text/css">
	.st0{fill:#E6E6E6;stroke:#000000;stroke-width:0.75;stroke-linecap:round;stroke-linejoin:round;}
	.st1{fill:#F2F2F2;}
	.st2{fill:#FFFFFF;}
	.st3{fill:none;stroke:#000000;stroke-width:0.75;stroke-linecap:round;stroke-linejoin:round;stroke-miterlimit:10;}
	.st4{fill:none;stroke:#000000;stroke-width:0.5;stroke-linecap:round;stroke-linejoin:round;stroke-miterlimit:10;}
	.st5{fill:#CCCCCC;stroke:#000000;stroke-width:0.5;stroke-linecap:round;stroke-linejoin:round;}
	.st6{fill:#808080;stroke:#000000;stroke-width:0.5;stroke-linecap:round;stroke-linejoin:round;stroke-miterlimit:10;}
	.st7{fill:#F2F2F2;stroke:#000000;stroke-width:0.75;stroke-linecap:round;stroke-linejoin:round;stroke-miterlimit:10;}
</style>
<g>
	<path class="st0" d="M15.4,90.5L15.4,90.5c0,0.1-5.8-0.2-6.3-0.6c-0.4-0.4-0.5-5,0-5.4c0.3-0.2,2-0.2,3.6-0.1
		c-0.1,2.1-0.1,3.5-0.1,3.5C12.6,89.4,13.8,90.6,15.4,90.5z"/>
	<path class="st1" d="M102.2,23.3c0-1.7-1.3-2.9-3-2.7l-5.3,0.5L93,21.3l-82.3,8.5c0.4,4.2,1.1,7.6,1.7,12.9c0.2,1.4,0.3,3,0.4,4.8
		c0.1,0.7,0.1,1.5,0.2,2.3c0,0.1,0,0.3,0,0.4c30.6-4.2,60.5-6.3,91-8.7C103.4,32.6,102.2,23.3,102.2,23.3z"/>
	<path class="st2" d="M104.4,50.2c0-2.6-0.1-5.6-0.4-8.7c-30.5,2.5-60.4,4.5-91,8.7c0,0,0,0,0,0c0.2,3,0.3,6.6,0.3,10.8
		c0,4.7-0.4,17.1-0.6,23.2c0,0.6,0,1.1-0.1,1.5c30.2-3.5,59.8-6.3,90.1-10.7C103.3,70.3,104.4,59.2,104.4,50.2z"/>
	<path class="st1" d="M12.6,85.8c0,1.2-0.1,2-0.1,2c0,1.6,1.2,2.8,2.8,2.7c0.1,0,0.1,0,0.2,0L99.5,81c1.6-0.2,3-1.7,3-3.4
		c0,0,0.1-0.9,0.3-2.5C72.5,79.5,42.9,82.4,12.6,85.8z"/>
	<path class="st3" d="M104.4,50.2c0,11.8-2,27.4-2,27.4c0,1.7-1.3,3.2-3,3.4l-83.9,9.5c-0.1,0-0.1,0-0.2,0c-1.6,0.1-2.8-1.1-2.8-2.7
		c0,0,0-1.4,0.1-3.5c0.2-6.1,0.6-18.5,0.6-23.2c0-4.3-0.1-7.8-0.3-10.8c0-0.1,0-0.3,0-0.4c0-0.8-0.1-1.6-0.2-2.3
		c-0.1-1.8-0.3-3.4-0.4-4.8c-0.6-5.3-1.3-8.7-1.7-12.9L93,21.3l0.9-0.1l5.3-0.5c1.6-0.2,3,1,3,2.7C102.2,23.3,104.4,40.1,104.4,50.2
		z"/>
	<g>
		<path class="st4" d="M21.8,84.5l75.6-8.5c0,0,0.2,0.7,0.6,1.7s1.1,1.3,1.1,1.3"/>
		<line class="st4" x1="93.9" y1="27.1" x2="13.8" y2="34.7"/>
		<line class="st4" x1="16.6" y1="42.3" x2="95.9" y2="34.4"/>
		<line class="st4" x1="16.4" y1="46.8" x2="94.6" y2="39.7"/>
		<polyline class="st4" points="94,22.5 98.5,26.7 99.8,34.5 96.3,39.6 96.5,42 14.9,49.8 		"/>
	</g>
	<path class="st0" d="M12.4,42.7L12.4,42.7l-4.5,0.2l-0.5-8.5l-0.1-1.1c0,0-0.2-3.5,1.5-3.7c1.7-0.2,1.9,0.3,1.9,0.3
		C11.1,34,11.8,37.4,12.4,42.7z"/>
	<path class="st5" d="M12.9,47.5l-0.3,0l-7.3,0.3l-0.1,0l0-0.3l2.8-4.6l4.5-0.2l0.1,0C12.6,44.1,12.7,45.7,12.9,47.5z"/>
	<path class="st6" d="M13,50.3l-0.3,0l-7.4,0.4l-0.2-2.8l0.1,0l7.3-0.3l0.3,0c0.1,0.7,0.1,1.5,0.2,2.3C13,50,13,50.2,13,50.3z"/>
	<path class="st0" d="M92.6,19.4l-0.2,0.1L3.8,28.2c-0.4-1.1-0.2-3-0.2-3l88.2-7.8L92.6,19.4z"/>
	<path class="st7" d="M93,21.3l-82.3,8.5c0,0-0.2-0.4-1.9-0.3c-1.7,0.2-1.5,3.7-1.5,3.7l0.1,1.1H7.3c0,0-3.2-5-3.5-6.1l88.6-8.7
		l0.2-0.1l0.4,1L93,21.3z"/>
</g>
</svg>
