<?xml version="1.0" encoding="utf-8"?>
<!-- Generator: Adobe Illustrator 21.1.0, SVG Export Plug-In . SVG Version: 6.00 Build 0)  -->
<svg version="1.1" id="Layer_1" xmlns="http://www.w3.org/2000/svg" xmlns:xlink="http://www.w3.org/1999/xlink" x="0px" y="0px"
	 width="108px" height="108px" viewBox="0 0 108 108" style="enable-background:new 0 0 108 108;" xml:space="preserve">
<style type="text/css">
	.st0{fill:#FFFFFF;}
	.st1{fill:#F2F2F2;}
	.st2{fill:none;stroke:#000000;stroke-width:0.75;stroke-linecap:round;stroke-linejoin:round;stroke-miterlimit:10;}
	.st3{fill:none;stroke:#000000;stroke-width:0.5;stroke-linecap:round;stroke-linejoin:round;stroke-miterlimit:10;}
	.st4{fill:#FFFFFF;stroke:#000000;stroke-width:0.75;stroke-linecap:round;stroke-linejoin:round;stroke-miterlimit:10;}
	.st5{fill:#CCCCCC;stroke:#000000;stroke-width:0.5;stroke-linecap:round;stroke-linejoin:round;stroke-miterlimit:10;}
	.st6{fill:#999999;stroke:#000000;stroke-width:0.5;stroke-linecap:round;stroke-linejoin:round;stroke-miterlimit:10;}
	.st7{fill:#E6E6E6;stroke:#000000;stroke-width:0.75;stroke-linecap:round;stroke-linejoin:round;stroke-miterlimit:10;}
</style>
<g>
	<path class="st0" d="M95.8,73.5c-0.1-2.3-0.1-52.6-0.1-52.6l-78.8,8.7l0.3,56.8c0,0,0.1,0.1,0.4,0.3c26.1-4.3,52.3-7.6,78.4-12.2
		C95.8,74.3,95.8,74,95.8,73.5z"/>
	<path class="st1" d="M95.9,74.5c-26.1,4.6-52.3,7.9-78.4,12.2c0.4,0.4,1.1,1,1.6,1.8c0.5,0.8,0.4,1.3,0.3,1.7
		c-0.1,0.3-0.4,0.5-0.4,0.5s53.3-7.9,58.1-8.7c4.8-0.8,18.4-2.6,19.5-3.2c1.1-0.6,1.6-1.8,0.8-2.8C96.6,75.1,96.1,75.6,95.9,74.5z"
		/>
	<path class="st2" d="M96.6,78.8c-1.1,0.5-14.7,2.3-19.5,3.2c-4.9,0.8-58.1,8.7-58.1,8.7s0.2-0.2,0.4-0.5c0.2-0.4,0.2-1-0.3-1.7
		c-0.8-1.2-1.9-2.1-1.9-2.1l-0.3-56.8l78.8-8.7c0,0,0,50.3,0.1,52.6c0.1,2.4,0.7,1.4,1.7,2.5C98.2,77,97.7,78.3,96.6,78.8z"/>
	<g>
		<line class="st3" x1="20.8" y1="87.7" x2="94.1" y2="76.6"/>
		<line class="st3" x1="20.1" y1="69.5" x2="91.9" y2="60"/>
		<line class="st3" x1="20.4" y1="35.6" x2="91.7" y2="27.1"/>
	</g>
	<path class="st4" d="M94.8,19.8c-0.2,0.1-0.5,0.1-0.8,0.2c-1.8,0.3-61.5,6.5-65.6,7c-2.7,0.4-11,1.3-11.7,0.9
		c-1.5-0.7-2.3-2.5-2.3-2.5l0-0.1c1.3-0.1,7.8-0.9,9.3-1c2.5-0.1,30.8-3.5,37.7-4.2c7.7-0.8,24.8-2.5,27.7-2.8
		c2.9-0.3,6.7-1,7.1,0.6C96.3,19.1,95.9,19.5,94.8,19.8z"/>
	<path class="st2" d="M15.7,29.3c0,0-0.2,44.6-0.2,47.5s-0.1,8.2,0,9.6c0.2,1.5,1,2.5,1.6,2.8"/>
	<g>
		<path class="st5" d="M12.5,63.8c-0.3,0.9-0.2,2.3,0.4,3.3c0.3,0.5,0.7,0.9,1,1v0c0,1,0,1.9,0,2.7c-0.3-0.2-1-0.7-1.7-1.3
			c-1-0.9-1.7-2.1-1.8-3.5c-0.1-1.4-0.2-2.9,0.8-4.5c0.7-1.1,2.1-1.9,2.8-2.2c0,0.8,0,1.7,0,2.4C13.5,62.1,12.8,62.8,12.5,63.8z"/>
	</g>
	<g>
		<path class="st5" d="M12.5,34.4c-0.3,0.9-0.2,2.3,0.4,3.3c0.3,0.6,0.8,1,1.1,1.1c0,0.9,0,1.8,0,2.7c-0.3-0.2-1.1-0.7-1.8-1.3
			c-1-1-1.7-2.1-1.8-3.5c-0.1-1.4-0.2-2.9,0.8-4.5c0.7-1.1,2.3-2,2.9-2.2c0,0.7,0,1.6,0,2.4C13.7,32.7,12.9,33.4,12.5,34.4z"/>
	</g>
	<path class="st6" d="M14,32.4c0,1.9,0,4.1,0,6.4c-0.3-0.2-0.8-0.5-1.1-1.1c-0.6-1-0.7-2.4-0.4-3.3C12.9,33.4,13.7,32.7,14,32.4z"/>
	<path class="st6" d="M13.9,61.8c0,2.3,0,4.4,0,6.3c-0.3-0.2-0.7-0.5-1-1c-0.5-1-0.7-2.4-0.4-3.3C12.8,62.8,13.5,62.1,13.9,61.8z"/>
	<path class="st7" d="M19,88.5c0.5,0.8,0.4,1.3,0.3,1.7c-0.2,0.5-1,0.8-1.9,0.8s-3.1-0.3-3.4-2.8c-0.1-1.5-0.4-9.7-0.3-13.1
		c0-0.5,0-2.1,0.1-4.3c0-0.8,0-1.7,0-2.7v0c0-1.9,0-4,0-6.3c0-0.8,0-1.6,0-2.4c0-5.7,0.1-12.1,0.1-17.8c0-0.9,0-1.8,0-2.7
		c0-2.4,0-4.5,0-6.4c0-0.9,0-1.7,0-2.4c0-2.8,0-4.6,0-4.6s0.1,0,0.3,0l0,0.1c0,0,0.8,1.7,2.3,2.5c0.7,0.4,9-0.5,11.7-0.9
		c4-0.5,63.8-6.8,65.6-7c0.3,0,0.6-0.1,0.8-0.2l0,0l0.8,1l-78.8,8.7l0.3,56.8C17.1,86.4,18.2,87.3,19,88.5z"/>
</g>
</svg>
