<?xml version="1.0" encoding="utf-8"?>
<!-- Generator: Adobe Illustrator 21.1.0, SVG Export Plug-In . SVG Version: 6.00 Build 0)  -->
<svg version="1.1" id="Layer_1" xmlns="http://www.w3.org/2000/svg" xmlns:xlink="http://www.w3.org/1999/xlink" x="0px" y="0px"
	 width="108px" height="108px" viewBox="0 0 108 108" style="enable-background:new 0 0 108 108;" xml:space="preserve">
<style type="text/css">
	.st0{fill:#CCCCCC;stroke:#000000;stroke-width:0.75;stroke-linecap:round;stroke-linejoin:round;stroke-miterlimit:10;}
	.st1{fill:#F2F2F2;stroke:#000000;stroke-width:0.75;stroke-linecap:round;stroke-linejoin:round;stroke-miterlimit:10;}
	.st2{fill:#808080;stroke:#000000;stroke-width:0.5;stroke-linecap:round;stroke-linejoin:round;stroke-miterlimit:10;}
	.st3{fill:#B3B3B3;stroke:#000000;stroke-width:0.5;stroke-linecap:round;stroke-linejoin:round;stroke-miterlimit:10;}
	.st4{fill:#FFFFFF;stroke:#000000;stroke-width:0.75;stroke-linecap:round;stroke-linejoin:round;stroke-miterlimit:10;}
	.st5{fill:none;stroke:#000000;stroke-width:0.5;stroke-linecap:round;stroke-linejoin:round;stroke-miterlimit:10;}
</style>
<g>
	<path class="st0" d="M91.9,84.7c2.2-0.3,4.6,1.1,4.9-4.6C97,74.5,97,12.9,97,12.9l-36.4-2.5l-3.7,16.1l34.3,2.5L91.9,84.7z"/>
	<polygon class="st0" points="58.1,90 39.8,88.1 39.9,16.7 57.8,17.6 	"/>
	<path class="st1" d="M27.8,27.2c-11.7,1.5-16.6-10.6-16.6-10.6s-0.1,57.7-0.4,69.8c-0.3,12.2,7.8,15.8,15.5,14.8
		c7.8-1,16.4-6.3,16.6-14.2c0.2-7.9-1-72-1-72S39.5,25.7,27.8,27.2z"/>
	<path class="st1" d="M54.2,28.3c0,0,0.9,65.8,1.1,68.9c0.3,3.1,4.1,3.4,4.1,3.4s27,2.4,29.2,2.1c2.2-0.3,4.6-2.3,4.3-4.9
		c-0.2-2.6,0.4-68.9,0.4-68.9"/>
	<path class="st0" d="M19.7,10l0,16.1c0,0,2.9,1.3,7,0.8c4.1-0.5,7.9-2.5,7.9-2.5l0.2-12.7l4.8,0.2c0,0,3.2,15.6-14.2,16.1
		C7.9,28.5,14.8,10.2,14.8,10.2L19.7,10z"/>
	<g>
		<polyline class="st2" points="67.6,26 67.8,16.9 73.3,14.1 73,26.2 		"/>
		<polyline class="st2" points="77.5,17.4 77,26.8 82.2,27.3 83.2,14.9 		"/>
		<polyline class="st2" points="87.4,17.6 86.6,27.4 91.7,28 93.1,15.5 		"/>
	</g>
	<g>
		<path class="st3" d="M76.5,22.7c1,1.2,1.2,2.4,0.5,2.9c-0.9,0.7-2.1-0.2-3.1-1.3c-1-1.2-1.2-2.5-0.5-2.9
			C74.1,20.9,75.5,21.5,76.5,22.7z"/>
		<path class="st3" d="M71.4,16.5c-1.4,0.7-3.2,1.1-3.5,0.5c-0.3-0.6,0.8-1.9,2.3-2.7c1.4-0.7,2.9-0.8,3.2-0.2
			C73.7,14.7,72.8,15.8,71.4,16.5z"/>
		<path class="st3" d="M81.2,17.1c-1.4,0.7-3.4,0.9-3.7,0.3c-0.3-0.6,1-1.7,2.5-2.4c1.4-0.7,2.9-0.8,3.2-0.2
			C83.5,15.3,82.6,16.3,81.2,17.1z"/>
		<path class="st3" d="M91,17.6c-1.4,0.7-3.3,0.9-3.6,0.3c-0.3-0.6,1-1.7,2.4-2.4c1.4-0.7,2.9-0.8,3.2-0.2
			C93.4,15.8,92.5,16.9,91,17.6z"/>
		<path class="st3" d="M86.4,23.7c1,1.2,1.2,2.5,0.5,2.9c-0.7,0.4-2.1-0.2-3.1-1.3c-1-1.2-1.2-2.5-0.5-2.9
			C84,22,85.4,22.6,86.4,23.7z"/>
	</g>
	<path class="st4" d="M97,12.9c-0.1,0.9-1.1,1.5-2,1.4c0,0-29.5-1.8-33-2c-0.1,1-0.6,3.1-1.3,5.4c-0.9,3.3-2.1,7-2.2,8.3
		c3.5,0.1,34.3,2,34.3,2c1,0,1.7,0.6,1.8,1.3c0,0.1,0,0.2,0,0.3c-0.2,0.9-1.2,1.5-2.4,1.5l-36.3-2c-1.1,0-1.9-0.7-1.8-1.5l2.2-8.6
		l-14.8-1c-0.1,0-0.1,0-0.2,0c-1.5,5.7-6.8,10.3-13.5,11.2c-8.4,1-15.8-4.4-16.6-12.1c-0.4-3.9,1.4-7.8,5.3-11.3
		c0.7-0.6,1.9-0.7,2.6-0.1c0.7,0.6,0.7,1.5,0,2.2C19,8,18.9,8,18.8,8.1c0.5,0.2,0.8,0.7,0.9,1.2c0.1,0.4-0.1,0.8-0.4,1.2
		c-0.3,0.4-0.7,0.6-1.3,0.6c-0.6,0.1-1.2,0.1-1.6-0.2c-1.2,1.9-1.7,3.8-1.5,5.7c0.4,4.2,3.2,7.5,7.1,8.8c0.7-1.2,1.1-2.1,2.4-2.2
		c1.5-0.2,2.3,0.6,2.6,1.9c0,0.2,0.3,0.7,0.2,1c0.1,0,0.2,0,0.4,0c6.4-0.8,11.1-6.3,10.6-12.3c0-0.3-0.1-0.7-0.2-1
		c-0.3,0.2-0.8,0.2-1.2,0.2c-1.2-0.1-1.9-0.3-2-1.3c-0.1-0.9,0.8-1.6,1.9-2c0,0,0,0,0.1,0c-0.1-0.2-0.2-0.4-0.3-0.6
		C36,8.4,36.3,7.4,37.2,7c0.9-0.5,2-0.3,2.5,0.5c1.2,1.8,1.9,3.8,2.1,5.9c0.1,0.5,0.1,1.1,0.1,1.6c0.1,0,0.2,0,0.2,0l15,1l1.3-5.3
		c0-0.4,0.3-0.9,0.6-1.2c0.4-0.3,0.9-0.4,1.4-0.4l35,2.1C96.4,11.3,97.1,12,97,12.9z"/>
	<g>
		<path class="st5" d="M35.4,92.2c-1.9,2.1-5.1,3.7-8.8,4.2c-2.4,0.3-4.6,0.1-6.5-0.5"/>
		<line class="st5" x1="18" y1="83.4" x2="18.7" y2="32.5"/>
		<line class="st5" x1="26.4" y1="34.1" x2="26.1" y2="92.1"/>
		<line class="st5" x1="34.2" y1="70.1" x2="33.9" y2="33.5"/>
		<line class="st5" x1="67.4" y1="38.6" x2="67.7" y2="86.2"/>
		<line class="st5" x1="78" y1="95.8" x2="78.6" y2="36.8"/>
		<line class="st5" x1="87.7" y1="36.2" x2="87.3" y2="96.7"/>
	</g>
</g>
</svg>
