<?xml version="1.0" encoding="utf-8"?>
<!-- Generator: Adobe Illustrator 21.1.0, SVG Export Plug-In . SVG Version: 6.00 Build 0)  -->
<svg version="1.1" id="Layer_1" xmlns="http://www.w3.org/2000/svg" xmlns:xlink="http://www.w3.org/1999/xlink" x="0px" y="0px"
	 width="108px" height="108px" viewBox="0 0 108 108" style="enable-background:new 0 0 108 108;" xml:space="preserve">
<style type="text/css">
	.st0{fill:#E6E6E6;stroke:#231F20;stroke-width:0.75;stroke-linecap:round;stroke-linejoin:round;}
	.st1{fill:#FFFFFF;}
	.st2{fill:#F2F2F2;}
	.st3{fill:none;stroke:#000000;stroke-width:0.75;stroke-linecap:round;stroke-linejoin:round;stroke-miterlimit:10;}
	.st4{fill:none;stroke:#000000;stroke-width:0.5;stroke-linecap:round;stroke-linejoin:round;stroke-miterlimit:10;}
	.st5{fill:#CCCCCC;stroke:#231F20;stroke-width:0.5;stroke-linecap:round;stroke-linejoin:round;}
	.st6{fill:#B3B3B3;stroke:#231F20;stroke-width:0.5;stroke-linecap:round;stroke-linejoin:round;}
</style>
<g>
	<path class="st0" d="M15.9,89.5c-1.4,0-3.1,0-3.3-0.2c-0.3-0.3-0.4-3.5,0-3.7c0.2-0.1,1.4-0.1,2.6-0.1v2.8
		C15.1,88.8,15.5,89.3,15.9,89.5z"/>
	<path class="st1" d="M98.6,41.7c-27.7,3.2-55.9,4.5-83.4,7.5l0,36c27.8-3.2,55.6-5.1,83.4-7.5L98.6,41.7z"/>
	<path class="st2" d="M15.1,85.3l0,0.2v2.8c0,0.6,0.3,1.1,0.8,1.2c0.2,0.1,0.4,0.1,0.6,0.1l80.7-7.3c0.7-0.1,1.3-0.8,1.3-1.6l0-3
		C70.8,80.1,42.9,82,15.1,85.3z"/>
	<path class="st2" d="M98.5,19.7c0-0.8-0.6-1.4-1.4-1.3l-80.7,7.3c-0.4,0-0.8,0.3-1,0.6c-0.1,0.5-0.2,1.1-0.2,1.5V48
		c0,0.2,0,0.3-0.1,0.5l0,0.8c27.6-3,55.7-4.3,83.4-7.5L98.5,19.7z"/>
	<path class="st3" d="M98.6,80.7c0,0.8-0.6,1.5-1.3,1.6l-80.7,7.3c-0.2,0-0.4,0-0.6-0.1c-0.5-0.2-0.8-0.7-0.8-1.2v-2.8l0-37
		c0.1-0.1,0.1-0.3,0.1-0.5V27.8c0-0.4,0.1-1,0.2-1.5c0.3-0.3,0.6-0.6,1-0.6l80.7-7.3c0.7-0.1,1.4,0.5,1.4,1.3L98.6,80.7z"/>
	<path class="st3" d="M15.4,26.3c-0.1,0.5-0.2,1.1-0.2,1.5V48c0,0.2,0,0.3-0.1,0.5l0-21.3C15.1,26.9,15.2,26.6,15.4,26.3z"/>
	<g>
		<polyline class="st4" points="25.6,27.8 92,22.4 92.3,24.5 95.3,26.9 95.3,41.8 22.9,48.6 		"/>
		<line class="st4" x1="36.9" y1="29.6" x2="92.4" y2="25"/>
		<polyline class="st4" points="95.3,23.9 95.3,26.9 26,33.2 		"/>
		<line class="st4" x1="22.1" y1="84.8" x2="79.6" y2="79.8"/>
	</g>
	<path class="st0" d="M15.4,26.3c-0.2,0.3-0.3,0.6-0.3,0.9l0,21.3c-0.2,0.5-0.6,0.8-1.2,0.8c-0.7,0-1.3-0.6-1.3-1.3V27.8
		c0-0.2,0-0.4,0.1-0.7c0.1-0.5,0.5-1.1,1.2-1.1c0.5,0,1.2-0.1,1.5-0.2C15.5,26,15.5,26.1,15.4,26.3z"/>
	<path class="st3" d="M15.4,26.3c-0.1,0.5-0.2,1.1-0.2,1.5V48c0,0.2,0,0.3-0.1,0.5l0-21.3C15.1,26.9,15.2,26.6,15.4,26.3z"/>
	<path class="st5" d="M12.8,27.1c-0.1,0.2-0.1,0.5-0.1,0.7v1.4l-3.3,0.7l0.1-2.5L12.8,27.1z"/>
	<polygon class="st6" points="12.7,29.2 12.7,31.7 9.4,29.9 	"/>
</g>
</svg>
