<?xml version="1.0" encoding="utf-8"?>
<!-- Generator: Adobe Illustrator 21.1.0, SVG Export Plug-In . SVG Version: 6.00 Build 0)  -->
<svg version="1.1" id="Layer_1" xmlns="http://www.w3.org/2000/svg" xmlns:xlink="http://www.w3.org/1999/xlink" x="0px" y="0px"
	 width="108px" height="108px" viewBox="0 0 108 108" style="enable-background:new 0 0 108 108;" xml:space="preserve">
<style type="text/css">
	.st0{fill:#CCCCCC;stroke:#231F20;stroke-width:0.75;stroke-linecap:round;stroke-linejoin:round;}
	.st1{fill:#FFFFFF;stroke:#231F20;stroke-width:0.75;stroke-linecap:round;stroke-linejoin:round;}
	.st2{fill:none;stroke:#231F20;stroke-width:0.5;stroke-linecap:round;stroke-linejoin:round;}
</style>
<g>
	<path class="st0" d="M8.3,47.8c0,0.7-0.6,1.3-1.3,1.3l0,0c-0.7,0-1.3-0.6-1.3-1.3V27.6c0-0.7,0.6-1.3,1.3-1.3l0,0
		c0.7,0,1.3,0.6,1.3,1.3V47.8z"/>
	<path class="st0" d="M10.3,80.1c0,0.9-0.8,1.7-1.7,1.7l0,0C7.7,81.7,7,81,7,80.1V62.2c0-0.9,0.7-1.7,1.7-1.7l0,0
		c0.9,0,1.7,0.7,1.7,1.7V80.1z"/>
	<path class="st0" d="M10.3,47.8c0,0.9-0.7,1.6-1.6,1.6l0,0c-0.9,0-1.6-0.7-1.6-1.6V27.2c0-0.9,0.7-1.6,1.6-1.6l0,0
		c0.9,0,1.6,0.7,1.6,1.6V47.8z"/>
	<rect x="9.9" y="26" class="st1" width="92.4" height="56.4"/>
	<g>
		<polyline class="st2" points="15.2,49.6 98.6,49.1 99.1,28.7 		"/>
		<line class="st2" x1="14.8" y1="60.7" x2="94" y2="60.7"/>
		<line class="st2" x1="14.2" y1="80.3" x2="67.2" y2="79.2"/>
		<path class="st2" d="M97.3,29c0,0-1.2,22.4,1.1,19.7"/>
	</g>
</g>
</svg>
