<?xml version="1.0" encoding="utf-8"?>
<!-- Generator: Adobe Illustrator 21.1.0, SVG Export Plug-In . SVG Version: 6.00 Build 0)  -->
<svg version="1.1" id="Layer_1" xmlns="http://www.w3.org/2000/svg" xmlns:xlink="http://www.w3.org/1999/xlink" x="0px" y="0px"
	 width="108px" height="108px" viewBox="0 0 108 108" style="enable-background:new 0 0 108 108;" xml:space="preserve">
<style type="text/css">
	.st0{fill:#F2F2F2;stroke:#000000;stroke-width:0.75;stroke-linecap:round;stroke-linejoin:round;stroke-miterlimit:10;}
	.st1{fill:#FFFFFF;stroke:#000000;stroke-width:0.75;stroke-linecap:round;stroke-linejoin:round;stroke-miterlimit:10;}
	.st2{fill:#E6E6E6;stroke:#000000;stroke-width:0.75;stroke-linecap:round;stroke-linejoin:round;stroke-miterlimit:10;}
	.st3{fill:#CCCCCC;}
	.st4{fill:#CCCCCC;stroke:#000000;stroke-width:0.75;stroke-linecap:round;stroke-linejoin:round;stroke-miterlimit:10;}
	.st5{fill:#999999;stroke:#000000;stroke-width:0.75;stroke-linecap:round;stroke-linejoin:round;stroke-miterlimit:10;}
	.st6{fill:none;stroke:#000000;stroke-width:0.75;stroke-linecap:round;stroke-linejoin:round;stroke-miterlimit:10;}
	.st7{fill:none;stroke:#000000;stroke-width:0.5;stroke-linecap:round;stroke-linejoin:round;stroke-miterlimit:10;}
	.st8{fill:#F2F2F2;stroke:#000000;stroke-width:0.5;stroke-linecap:round;stroke-linejoin:round;stroke-miterlimit:10;}
	.st9{fill:#B3B3B3;stroke:#000000;stroke-width:0.5;stroke-linecap:round;stroke-linejoin:round;stroke-miterlimit:10;}
	.st10{fill:#E6E6E6;stroke:#000000;stroke-width:0.5;stroke-linecap:round;stroke-linejoin:round;stroke-miterlimit:10;}
</style>
<g>
	<path class="st0" d="M61.2,30.4l-27.6,8.9l-0.1-0.8L32,14l26.5-6l0.3-0.1c0.6,0.9,0.6,2.4,0.7,3.2C59.6,12.1,61.2,30.4,61.2,30.4z"
		/>
	<path class="st1" d="M70.3,32.8l-30.9,9.6l-5.8-3.2l27.6-8.9l0.6,0.1l5.3,1.3C68.6,32.3,69.7,32.4,70.3,32.8z"/>
	<path class="st2" d="M71.5,45.6L71.5,45.6l0,0.5l-0.2,1.7v0.1l0,0.1l-0.2,2.1l0,0.1l-0.2,2.2l0,0.1l-0.1,1.7l0,0.2l-0.2,2.7
		l-2,22.4L67.2,94l0,0.1L67,94.1l-24.9,8.4l-0.3-0.8l-2.4-59.2l30.9-9.6c0.2,0.1,0.3,0.2,0.4,0.4c0.2,0.3,0.3,0.6,0.3,1.1L71.5,45.6
		z"/>
	<path class="st3" d="M67.2,46.5L62,48l0.2,4l-8.4-2.5c0,0,0.5-1.4,0.2-2.5c-0.3-1.1-1.3-1.3-1.3-1.3l5.5-1.2c0,0,1,0.9,2.2,0.8
		s2.8-0.2,3.8,0.2c0.3,0.1,2,0.7,4.4,1.5L67.2,46.5z"/>
	<path class="st4" d="M87.4,93l-5.7-0.5l-1.4-35.2l-9.5-2.8l-4.5-1.3L62.2,52L62,48l5.2-1.5l1.3,0.4c0.7,0.2,1.5,0.5,2.4,0.8
		l0.7,0.2l0,0c0.3,0.1,0.6,0.2,0.9,0.3c0.3,0.1,0.6,0.2,0.9,0.3c0.3,0.1,0.6,0.2,0.9,0.3c0.3,0.1,0.6,0.2,0.8,0.3c0,0,0.1,0,0.1,0
		c5.2,1.8,10.3,3.5,10.3,3.5S86.9,92.3,87.4,93z"/>
	<polygon class="st5" points="30.3,38.6 20.5,37.3 30.1,33.9 30.2,33.9 	"/>
	<polygon class="st4" points="30,25.1 30.2,33.9 30.1,33.9 20.5,37.3 20.9,29.7 21.5,19.3 21.8,12.7 46,6.4 46.4,6.9 47.5,8.2 
		47.7,8.4 29.7,12.7 29.8,17.3 29.9,18 30,24.1 	"/>
	<polygon class="st1" points="46.4,6.9 46,6.4 21.8,12.7 18.7,11 43.3,5.1 46,5.7 	"/>
	<polygon class="st2" points="81.9,95.3 79.4,97.1 79,97 77.6,59.2 80.3,57.3 81.8,92.5 	"/>
	<path class="st1" d="M80.3,57.3l-2.7,1.9l-27-7.6c0,0-0.3-2.4,0-3.2c0.3-0.8,0-2.2,0-2.2l2-0.5c0,0,1,0.2,1.3,1.3
		c0.3,1.1-0.2,2.5-0.2,2.5l8.4,2.5l4.2,1.2l4.5,1.3l2.8,0.8l4.2,1.2L80.3,57.3z"/>
	<polygon class="st0" points="79,97 78.8,96.9 51.7,90.1 50.6,51.6 77.6,59.2 	"/>
	<path class="st2" d="M90.1,93c-1,0.5-2.2,0.6-2.7,0c-0.5-0.6-1.7-40.2-1.7-40.2l3-1.4C88.7,51.3,91,92.5,90.1,93z"/>
	<path class="st1" d="M88.7,51.3l-3,1.4c0,0-1.6-0.5-3.9-1.3c0,0-0.1,0-0.1,0c-1.8-0.6-4-1.4-6.3-2.1c-1.3-0.4-2.5-0.9-3.7-1.3l0,0
		c-0.5-0.2-0.9-0.3-1.3-0.5c-3.2-1.1-5.8-2-6.1-2.1c-1-0.3-2.5-0.3-3.8-0.2s-2.2-0.8-2.2-0.8s0.5-0.4,1.3-0.6
		c0.3-0.1,0.6-0.1,0.9-0.2c1.3-0.1,3.5-0.6,4.9-0.1C66.7,44,88.7,51.3,88.7,51.3z"/>
	<line class="st6" x1="81.8" y1="92.5" x2="81.7" y2="92.5"/>
	<g>
		<path class="st7" d="M56.7,10.2c0,0,0,2.7-1.1,3.5C54.5,14.5,36,18.7,36,18.7"/>
		<path class="st7" d="M57.5,16.7c0,0,0,2.7-1.1,3.5c-1.1,0.8-19.6,5.1-19.6,5.1"/>
		<path class="st7" d="M57.8,23.4c0,0,0,2.7-1.1,3.5c-1.1,0.8-19.6,5.1-19.6,5.1"/>
		<line class="st7" x1="55.2" y1="56.2" x2="55.8" y2="85.2"/>
		<path class="st7" d="M61.2,57.5l0.6,29c0,0,0,1.4,0.8,2.1c0.8,0.6,1.6,0.6,1.6,0.6"/>
		<path class="st7" d="M67,58.7l0.6,30.8c0,0,0,1.5,0.8,2.2c0.8,0.7,1.6,0.7,1.6,0.7"/>
		<path class="st7" d="M73.4,60.3L74,90.5c0,0,0,1.5,0.8,2.1c0.8,0.7,1.6,0.7,1.6,0.7"/>
	</g>
	<path class="st8" d="M71.7,48c0,0-2.2,0.4-3.6,0.4S62,48,62,48l5.2-1.5l1.3,0.4l1.8,0.6l0.6,0.2L71.7,48L71.7,48z"/>
	<path class="st8" d="M78.4,50.3c0,0-0.5,0.2-2.2,0.8c-1.6,0.5-5.4-0.9-5.4-0.9l4.6-0.9L78.4,50.3z"/>
	<path class="st8" d="M85.7,52.7c-0.6,0.3-7.7,1.1-7.7,1.1s-0.6-0.5,0-1.3c0.6-0.8,3.5-1.1,3.8-1.2c0,0,0.1,0,0.1,0L85.7,52.7z"/>
	<path class="st9" d="M75.4,49.3l-4.6,0.9v4.3l-4.5-1.3L62.2,52L62,48c0,0,4.7,0.4,6.1,0.4s3.6-0.4,3.6-0.4c0.3,0.1,0.6,0.2,0.9,0.3
		c0.3,0.1,0.6,0.2,0.9,0.3c0.3,0.1,0.6,0.2,0.9,0.3c0.3,0.1,0.6,0.2,0.8,0.3C75.3,49.2,75.4,49.2,75.4,49.3z"/>
	<path class="st1" d="M81.8,51.4C81.8,51.4,81.8,51.4,81.8,51.4C81.7,51.4,81.8,51.4,81.8,51.4L81.8,51.4z"/>
	<path class="st8" d="M70.8,54.5l-4.5-1.3l0.4-3.3c0,0,1.4,0.6,2.5,1.9C70.2,53,70.8,54.5,70.8,54.5z"/>
	<path class="st8" d="M64.2,52.6l-4.5-1.3l0.4-3.3c0,0,1.4,0.6,2.5,1.9C63.6,51.1,64.2,52.6,64.2,52.6z"/>
	<path class="st8" d="M77.8,56.6l-4.2-1.2l0.5-3.7c0,0,1.3,1.1,2.2,2.5C77.2,55.5,77.8,56.6,77.8,56.6z"/>
	<path class="st6" d="M52.6,45.5"/>
	<path class="st1" d="M30,21.8C30,21.8,30,21.8,30,21.8L30,21.8L30,21.8z"/>
	<polygon class="st1" points="24.9,30.6 24.9,30.6 24.9,30.6 	"/>
	<path class="st1" d="M58.8,7.9L58.5,8L32,14l-2.3-1.3l25.9-6.5c0,0,2,0.4,2.9,1.3C58.6,7.7,58.7,7.8,58.8,7.9z"/>
	<g>
		<polygon class="st9" points="24.9,30.6 24.8,30.6 21,29.7 20.9,29.7 21.1,26.9 24,29.8 		"/>
		<polygon class="st10" points="30.1,30 24.9,30.6 24.9,30.6 24,29.8 21.1,26.9 30,25.1 		"/>
		<path class="st9" d="M24.3,23.5c-0.6,0-2.6-1-3-1.2l0.2-3l2,3L24.3,23.5z"/>
		<path class="st8" d="M29.9,18l0.1,3.9v0c-0.3,0.1-5,1.7-5.7,1.7l-0.8-1.2l-2-3l8.3-2l0.1,0.4C30,17.7,29.9,17.8,29.9,18z"/>
		<path class="st9" d="M30.1,24.6c0,0,0,0.2-0.1,0.5c-0.2,0.6-0.5,1.9-1.3,2.9c-1,1.3-2.3,0.5-2.1-0.8c0-0.1,0-0.2,0.1-0.4
			c0.1-0.4,0.4-0.8,0.7-1.2c1-1.2,2.4-2.4,2.4-2.4l0.2,0.8L30.1,24.6z"/>
		<path class="st9" d="M30,17.7c0,0,0,0.1-0.1,0.3c-0.1,0.3-0.4,1-0.7,1.9c-0.3,0.9-1.3,1.8-2,2.3c-0.3,0.3-0.6,0.4-0.6,0.4
			s-0.1-0.1-0.2-0.4c-0.2-0.4-0.4-1.1-0.1-2.5c0.5-2.2,3.6-4.7,3.6-4.7l0,2.3L30,17.7z"/>
	</g>
	<path class="st4" d="M42.1,102.5l-0.5,0.1c-2.1,0.7-3.8-0.3-3.9-2.2l-1.9-54.1v-1.7c0,0-17.5-3.9-18-4.2C17.2,40.2,18.7,11,18.7,11
		l3.2,1.7l-0.3,6.6l-0.2,3v0l-0.2,4.6l-0.2,2.8l-0.4,7.6l9.8,1.3l-0.6-25.9L32,14l1.5,24.5l0.1,0.8l5.8,3.2l2.4,59.2L42.1,102.5z"/>
</g>
</svg>
