<?xml version="1.0" encoding="utf-8"?>
<!-- Generator: Adobe Illustrator 21.1.0, SVG Export Plug-In . SVG Version: 6.00 Build 0)  -->
<svg version="1.1" id="Layer_1" xmlns="http://www.w3.org/2000/svg" xmlns:xlink="http://www.w3.org/1999/xlink" x="0px" y="0px"
	 width="108px" height="108px" viewBox="0 0 108 108" style="enable-background:new 0 0 108 108;" xml:space="preserve">
<style type="text/css">
	.st0{fill:#FFFFFF;}
	.st1{fill:#E6E6E6;}
	.st2{fill:none;stroke:#231F20;stroke-width:0.75;stroke-linecap:round;stroke-linejoin:round;stroke-miterlimit:10;}
	.st3{fill:#B3B3B3;stroke:#000000;stroke-width:0.75;stroke-linecap:round;stroke-linejoin:round;stroke-miterlimit:10;}
	.st4{fill:#808080;stroke:#000000;stroke-width:0.75;stroke-linecap:round;stroke-linejoin:round;stroke-miterlimit:10;}
	.st5{fill:#E6E6E6;stroke:#000000;stroke-width:0.75;stroke-linecap:round;stroke-linejoin:round;stroke-miterlimit:10;}
	.st6{fill:none;stroke:#231F20;stroke-width:0.5;stroke-linecap:round;stroke-linejoin:round;stroke-miterlimit:10;}
</style>
<path class="st0" d="M101.3,40c-2.4-2.3-16-11.8-20.5-14.3c-0.7-0.4-1.6-0.6-2.5-0.4L12.7,36.6c0,0-0.7,0.1-1.4,0.6
	c7.8,5.6,16,10.8,23.5,16.7h0.1c0-0.3,0.1-0.5,0.1-0.8c0,0.3-0.1,0.5-0.1,0.8C57.3,49,78.8,45,101.3,40.2V40z"/>
<path class="st0" d="M34.9,53.8C34.8,53.8,34.8,53.8,34.9,53.8C34.8,53.9,34.8,53.9,34.9,53.8C34.9,53.9,34.9,53.8,34.9,53.8z"/>
<path class="st1" d="M101.3,40.2C78.8,45,57.3,49,34.9,53.8v0.1L35,54l-0.1-0.1c-1.4,9,0.3,18.6,0.3,27.8c0.1,0,0.2,0,0.3,0
	c2,0,63.9-13.8,65-14.1s1.8-2,1.8-2L101.3,40.2z"/>
<path class="st2" d="M102.3,65.6c0,0-0.6,1.7-1.8,2c-1,0.4-55.5,12.5-64,14l-0.6-27c0,0,0-1.1-1.6-3c-1.3-1.6-15.4-11-22-14.8
	c0.3-0.1,0.4-0.1,0.4-0.1l65.6-11.4c0.8-0.1,1.7,0,2.5,0.5c4.4,2.6,18.1,12.1,20.5,14.3L102.3,65.6z"/>
<path class="st3" d="M33.4,65.9c-0.5-0.3-1.6-1.1-2.8-1.3l0,0c-0.1,0-0.2-0.1-0.3-0.1c-0.4-0.1-0.8-0.1-1.3,0
	c0.2-0.8,3.2-1.1,4.3-1.2L33.4,65.9z"/>
<path class="st4" d="M33.7,80.2c-0.1-0.6-0.1-1.3-0.1-1.9L16.7,81l-0.3-16l0,0v-0.7l-0.3-16.4c0,0,0.3-0.7-1.2-3.3s-2.3-4.4-2.3-4.8
	c0,0,7.8,5.1,8.2,5.9c0.2,0.4,0.5,9.9,0.7,17.8l-3,1.2l-0.2,0.1c0,0,0,0.1,0,0.3c0,0.8,0.3,3,3.3,5.3c0,2.2,0.1,3.7,0.1,3.7
	s0.1,1.7,1.4,1.7s1.3-1.7,1.3-1.7v-0.2c3.1-1,4.5-4,4.2-4.8c-0.4-0.8-2.5,0.1-4.3,1.5l-0.1-6c3.3-0.9,4.8-4.1,4.4-4.9
	c-0.4-0.8-2.6,0.2-4.5,1.6l-0.3-14c0,0,2.6,1.8,5,3.3s4.6,3.6,4.6,3.6v0.6c0,0-3.8,0.3-4.1,1.3c-0.2,0.9,0.9,4.1,4.2,4.6v2.8
	c-1,0.1-4,0.4-4.3,1.2c-0.2,0.9,0.9,4.1,4.2,4.6h0.2v2.8c-1.2,0.1-4.2,0.5-4.4,1.2c-0.2,0.9,1.5,4.1,4.5,4.7L33.7,80.2z"/>
<path class="st5" d="M21.5,70.3c-3-2.3-3.3-4.5-3.3-5.3c0-0.2,0-0.3,0-0.3l0.2-0.1c1.5,0.7,3.1,2.1,3.1,2.1V67c0,0.3,0,0.6,0,1
	L21.5,70.3z"/>
<path class="st5" d="M24,64.4v-3.3c1.9-1.4,4.1-2.4,4.5-1.6C28.8,60.3,27.3,63.4,24,64.4z"/>
<path class="st5" d="M24.3,73.7l-0.1-3.3c1.8-1.4,3.9-2.3,4.3-1.5C28.8,69.7,27.4,72.7,24.3,73.7z"/>
<path class="st3" d="M33.3,57.5c0,0-2-2-4.1-1.7c0.3-0.9,4.1-1.3,4.1-1.3V57.5z"/>
<path class="st5" d="M33.3,60.4c-3.3-0.5-4.4-3.6-4.2-4.6c2.1-0.4,4.1,1.7,4.1,1.7L33.3,60.4z"/>
<path class="st5" d="M33.5,69h-0.2c-3.3-0.5-4.4-3.6-4.2-4.6c0.4-0.1,0.8-0.1,1.3,0c0.1,0,0.2,0,0.3,0.1l0,0
	c1.5,0.4,2.6,1.6,2.6,1.6h0.2L33.5,69z"/>
<path class="st5" d="M36.7,81.6L36.7,81.6c-0.2,0-0.4,0.1-0.5,0.1c-0.3,0-0.4,0.1-0.5,0.1c-1.2,0-1.6-0.7-1.8-1.5l0,0l-0.1-2.5
	l-0.1-3.1l-0.1-2.9V69l-0.1-2.9v-0.2l-0.1-2.7v-2.8l-0.1-2.9l-0.1-2.9V54c0,0-2.2-2.1-4.6-3.6s-5-3.3-5-3.3l0.3,14l0.1,3.3l0.1,6
	l0.1,3.3v0.2c0,0,0.1,1.7-1.3,1.7s-1.4-1.7-1.4-1.7s0-1.5-0.1-3.7v-2.3c0-0.3,0-0.6,0-1v-0.3c0-1,0-2.1-0.1-3.3
	c-0.2-7.9-0.4-17.3-0.7-17.8c-0.4-0.8-8.2-5.9-8.2-5.9c0,0.4,0.8,2.2,2.3,4.8s1.2,3.3,1.2,3.3l0.3,16.4v0.7l0,0l0.3,16l-0.8,0.1
	c0,0-1.6-0.5-1.6-1.6S13.7,50,13.6,47.9c-0.1-2.2-3.6-6.7-3.5-8.7c0.1-1,0.7-1.6,1.4-2c0.1-0.1,0.2-0.1,0.3-0.1S12,37,12.1,37
	c0.2-0.1,0.3-0.1,0.5-0.2l0,0l0,0c6.6,3.8,20.7,13.3,22,14.8c0.7,0.9,1.1,1.6,1.4,2.1c0.3,0.6,0.3,0.9,0.3,0.9L36.7,81.6z"/>
<path class="st3" d="M21.5,66.7c0,0-1.6-1.4-3.1-2.1l3-1.2C21.4,64.6,21.5,65.7,21.5,66.7z"/>
<path class="st5" d="M33.7,77.7c-3.1-0.7-4.8-3.8-4.5-4.7c1.8-0.3,3.9,1.2,4.5,1.6V77.7z"/>
<path class="st3" d="M33.6,74.6c-0.6-0.5-2.7-2-4.5-1.6c0.2-0.8,3.3-1.1,4.4-1.2L33.6,74.6z"/>
<line class="st6" x1="38.8" y1="52.3" x2="96.8" y2="40.9"/>
<line class="st6" x1="38.8" y1="60.3" x2="96.8" y2="48.9"/>
<line class="st6" x1="38.8" y1="68.3" x2="96.8" y2="56.9"/>
<line class="st6" x1="38.8" y1="76.3" x2="96.8" y2="64.9"/>
</svg>
