<?xml version="1.0" encoding="utf-8"?>
<!-- Generator: Adobe Illustrator 21.1.0, SVG Export Plug-In . SVG Version: 6.00 Build 0)  -->
<svg version="1.1" id="Layer_1" xmlns="http://www.w3.org/2000/svg" xmlns:xlink="http://www.w3.org/1999/xlink" x="0px" y="0px"
	 width="108px" height="108px" viewBox="0 0 108 108" style="enable-background:new 0 0 108 108;" xml:space="preserve">
<style type="text/css">
	.st0{fill:#B3B3B3;stroke:#000000;stroke-width:0.75;stroke-linecap:round;stroke-linejoin:round;stroke-miterlimit:10;}
	.st1{fill:#FFFFFF;stroke:#000000;stroke-width:0.75;stroke-linecap:round;stroke-linejoin:round;stroke-miterlimit:10;}
	.st2{fill:#FFFFFF;}
	.st3{fill:#E6E6E6;}
	.st4{fill:#F2F2F2;}
	.st5{fill:none;stroke:#000000;stroke-width:0.75;stroke-linecap:round;stroke-linejoin:round;stroke-miterlimit:10;}
	.st6{fill:none;stroke:#000000;stroke-width:0.5;stroke-linecap:round;stroke-linejoin:round;stroke-miterlimit:10;}
</style>
<g>
	<path class="st0" d="M20.9,38.9c0,0,1,47,4,44s6-26,6-26L20.9,38.9z"/>
	<path class="st1" d="M98.9,32.9c-4-2-22-8-25-8s-71,5-69,6s14,5,16,8s5,24,5,24L98.9,32.9z"/>
	<g>
		<path class="st2" d="M24.9,82.9c0.1,0,0.1,0,0.2-0.1C24.9,82.9,24.8,82.9,24.9,82.9z"/>
		<path class="st3" d="M25.5,74.8c0.3,4.4,0.3,7.6-0.4,8c4.8-0.8,76.9-9,77.8-10.9c0.3-0.6,0.2-4-0.2-8.6
			C77.2,68.5,51.2,72.4,25.5,74.8z"/>
		<path class="st4" d="M98.9,32.9l-78,7c0,0,3.7,22.4,4.5,34.9c25.7-2.4,51.7-6.3,77.2-11.4C101.9,52.3,99.7,34.3,98.9,32.9z"/>
		<g>
			<path class="st5" d="M98.9,32.9c1,2,5,37,4,39s-81,11-78,11s-4-43-4-43L98.9,32.9z"/>
		</g>
	</g>
	<g>
		<path class="st6" d="M13.9,31.9c0,0,40-4,60-5"/>
		<path class="st6" d="M21.9,33.9c8-1,51-5,59-5"/>
		<path class="st6" d="M23.9,37.9c5-1,68-6,68-6"/>
	</g>
</g>
</svg>
