<?xml version="1.0" encoding="utf-8"?>
<!-- Generator: Adobe Illustrator 21.1.0, SVG Export Plug-In . SVG Version: 6.00 Build 0)  -->
<svg version="1.1" id="Layer_1" xmlns="http://www.w3.org/2000/svg" xmlns:xlink="http://www.w3.org/1999/xlink" x="0px" y="0px"
	 width="108px" height="108px" viewBox="0 0 108 108" style="enable-background:new 0 0 108 108;" xml:space="preserve">
<style type="text/css">
	.st0{fill:#B3B3B3;stroke:#231F20;stroke-width:0.75;}
	.st1{fill:#F2F2F2;stroke:#231F20;stroke-width:0.75;}
	.st2{fill:#FFFFFF;stroke:#231F20;stroke-width:0.75;}
</style>
<g>
	<path class="st0" d="M99.7,9.2L8.3,25.9c-2.2,0-4,1.8-4,4l0.3,63.5c0,1.6,0.9,3,2.3,3.6c0.5,0.3,1.1,0.4,1.8,0.4L99.5,78
		c2.2,0,4-1.8,4-4l0.3-56.2l0-3.2v-1.4C103.7,11,102,9.2,99.7,9.2z M85.5,20.1c0,1.1-0.9,2-2,2c-1.1,0-2-0.9-2-2
		c0-1.1,0.9-2.1,2-2.1C84.6,18,85.5,18.9,85.5,20.1z M28.4,30.7c0,1.1-0.9,2-2,2c-1.1,0-2-0.9-2-2c0-1.1,0.9-2,2-2
		C27.5,28.7,28.4,29.6,28.4,30.7z"/>
	<path class="st1" d="M6.2,93.3l0,1.5c0,0.8,0.2,1.6,0.7,2.2c0.7,1.1,1.9,1.8,3.3,1.8l89.4-19.4c2.2,0,4-1.8,4-4l0.2-57.6"/>
	<path class="st2" d="M103.7,17.8l0-3.2v-0.1c-0.1-2.2-1.8-3.9-4-3.9l-90,16.7c-2.2,0-4,1.8-4,4l0.3,62 M26.4,32.8c-1.1,0-2-0.9-2-2
		c0-1.1,0.9-2,2-2c1.1,0,2,0.9,2,2C28.4,31.8,27.5,32.8,26.4,32.8z M83.4,22.1c-1.1,0-2-0.9-2-2c0-1.1,0.9-2.1,2-2.1
		c1.1,0,2,0.9,2,2.1C85.5,21.2,84.6,22.1,83.4,22.1z"/>
</g>
</svg>
