<?xml version="1.0" encoding="utf-8"?>
<!-- Generator: Adobe Illustrator 21.1.0, SVG Export Plug-In . SVG Version: 6.00 Build 0)  -->
<svg version="1.1" id="Layer_1" xmlns="http://www.w3.org/2000/svg" xmlns:xlink="http://www.w3.org/1999/xlink" x="0px" y="0px"
	 width="108px" height="108px" viewBox="0 0 108 108" style="enable-background:new 0 0 108 108;" xml:space="preserve">
<style type="text/css">
	.st0{fill:#E6E6E6;stroke:#000000;stroke-width:0.75;stroke-linecap:round;stroke-linejoin:round;stroke-miterlimit:10;}
	.st1{fill:#F2F2F2;stroke:#000000;stroke-width:0.75;stroke-linecap:round;stroke-linejoin:round;stroke-miterlimit:10;}
	.st2{fill:#B3B3B3;stroke:#000000;stroke-width:0.75;stroke-linecap:round;stroke-linejoin:round;stroke-miterlimit:10;}
	.st3{fill:#CCCCCC;stroke:#000000;stroke-width:0.75;stroke-linecap:round;stroke-linejoin:round;stroke-miterlimit:10;}
	.st4{fill:#808080;stroke:#000000;stroke-width:0.5;stroke-linecap:round;stroke-linejoin:round;stroke-miterlimit:10;}
	.st5{fill:#FFFFFF;stroke:#000000;stroke-width:0.75;stroke-linecap:round;stroke-linejoin:round;stroke-miterlimit:10;}
	.st6{fill:#999999;stroke:#000000;stroke-width:0.75;stroke-linecap:round;stroke-linejoin:round;stroke-miterlimit:10;}
	.st7{fill:none;stroke:#000000;stroke-width:0.5;stroke-linecap:round;stroke-linejoin:round;stroke-miterlimit:10;}
	.st8{fill:none;stroke:#000000;stroke-width:0.75;stroke-linecap:round;stroke-linejoin:round;stroke-miterlimit:10;}
	.st9{fill:#E6E6E6;stroke:#000000;stroke-width:0.5;stroke-linecap:round;stroke-linejoin:round;stroke-miterlimit:10;}
</style>
<g>
	<path class="st0" d="M38.4,87.9c-1.4,0.2-4.9,0.5-6.5,0.1c-2-0.4-4.2-3.5-4.2-3.5l-1.1-71.3h0.1c0,0,2.2,2.5,3.6,3.4
		c1.4,0.9,3.4,1.8,4.8,2.1c1.5,0.3,3,0.1,3,0.1l0.2,0.1l0.1,69L38.4,87.9z"/>
	<path class="st1" d="M65,101.6l-0.8,0.1L39,87.8c0,0-0.2,0-0.6,0.1l0-0.1l-0.1-69l26.6,14.4L65,101.6z"/>
	<polygon class="st0" points="67.8,101.2 65,101.6 64.9,33.2 67.6,31.9 67.7,95.3 67.7,95.3 	"/>
	<path class="st2" d="M73.9,95.4l-0.6,0.2c0,0-1.6,0.4-2.2,0.4c-0.7,0-3.3-0.7-3.3-0.7h0l-0.1-63.4l0.3-0.2l-1.8-1l-2.5-1.4L61.2,28
		l-3.1-1.7l-1.6-0.9L54,24.1l-1.3-0.7L51.9,23c0,0,0,0,0,0l-8.4-4.6L55,15.7l4.2,2.1l2.9,1.5l2.7,1.3l3,1.5c0,0,0,0,0,0l2.8,1.4
		l2.8,1.4l0.5,0.2l-0.1,0.1L73.9,95.4z"/>
	<path class="st3" d="M78.5,97.9L78.5,97.9c-0.3,0-0.6,0-0.8,0c-0.9,0-4.4-2.4-4.4-2.4l0.6-0.2l-0.1-70.1l0.1-0.1l3.9,1.9L78.5,97.9
		z"/>
	<path class="st0" d="M81.2,96.7c-0.2,0.9-1.7,1.2-2.8,1.3v0l-0.7-70.8l3.5-1.6v4.8C81.3,30.3,81.5,95.6,81.2,96.7z"/>
	<path class="st4" d="M52.6,18.7c0,0.1,0,0.1,0,0.2l0.1,4.5L51.9,23c0,0,0,0,0,0l-8.4-4.6L55,15.7l4.2,2.1c0,0-5.3,0.1-6.3,0.7
		C52.8,18.6,52.7,18.6,52.6,18.7z"/>
	<path class="st5" d="M52.6,18.7l0,0.2C52.6,18.8,52.6,18.8,52.6,18.7z"/>
	<path class="st2" d="M70.6,23.5c-0.5,0-5.5,0.2-6.5,0.7c-0.1,0-0.1,0.1-0.2,0.1c-0.1,0.1-0.1,0.2,0,0.3l-0.3,4.1l0.2,0.1l-0.2,0.5
		L61.2,28l-3.1-1.7l0.1-0.2v-4.6l0,0c0,0.5,2,1,3.8,1.1c2.1,0.1,5.3-0.5,5.7-0.6c0,0,0,0,0,0L70.6,23.5z"/>
	<path class="st5" d="M63.9,24.4l0,0.3C63.8,24.6,63.8,24.5,63.9,24.4z"/>
	<path class="st6" d="M55.5,12.6c-0.6,0.9-4.1,1.4-5.9,1.9c-1.9,0.5-9.9,2.3-11.7,2c-1.8-0.3-5.8-1.8-6-2.7c-0.2-0.9,1.5-1,1.5-1
		L49,9.5c0,0,2.9-0.5,3.6-0.3c0.7,0.2,2.2,0.5,2.7,1.2C55.7,11.1,56.1,11.7,55.5,12.6z"/>
	<line class="st5" x1="38.3" y1="18.8" x2="38.3" y2="18.6"/>
	<g>
		<line class="st7" x1="50" y1="29.5" x2="50" y2="81.2"/>
		<line class="st7" x1="54.7" y1="34.2" x2="54.7" y2="87.9"/>
		<line class="st7" x1="60.1" y1="34.6" x2="60.1" y2="84"/>
	</g>
	<line class="st8" x1="67.6" y1="31.9" x2="67.6" y2="31.8"/>
	<path class="st5" d="M51.9,23c0,0.1,0,0.2,0,0.2"/>
	<path class="st5" d="M56.6,25.5c0,0.2,0,0.3,0,0.3"/>
	<line class="st5" x1="63.6" y1="29.4" x2="63.6" y2="29.4"/>
	<path class="st5" d="M70.6,23.5C70.6,23.5,70.6,23.5,70.6,23.5"/>
	<g>
		<path class="st9" d="M62.1,19.3L62.1,19.3c0,0-3.5,0.7-5.7,0.6c-1.7-0.1-3.5-0.5-3.7-1l0-0.2c0-0.1,0.1-0.1,0.2-0.2
			c1-0.6,6.3-0.7,6.3-0.7L62.1,19.3z"/>
		<path class="st9" d="M73.4,24.9L73.3,25c0,0-3.5,0.7-5.7,0.6c-1.7-0.1-3.4-0.5-3.7-1l0-0.3c0,0,0.1-0.1,0.2-0.1
			c1-0.5,5.9-0.7,6.5-0.7L73.4,24.9z"/>
		<path class="st6" d="M64.8,20.6L64.8,20.6c0,0-5.1,0.2-6.2,0.7c-0.2,0.1-0.3,0.2-0.3,0.3l0,0v4.6l-0.1,0.2l-1.6-0.9
			c0-0.2,0-0.5,0-0.9c0-0.9-1.5-3.4-1.5-3.4L54,24.1l0,0l-1.3-0.7l-0.1-4.5c0.2,0.5,2,0.9,3.7,1c2.2,0.1,5.7-0.6,5.7-0.6l0,0
			L64.8,20.6z"/>
		<path class="st9" d="M56.6,24.6c0,0.5,0,0.8,0,0.9L54,24.1l0,0l1.1-2.9C55.1,21.2,56.6,23.6,56.6,24.6z"/>
		<path class="st9" d="M66.2,29.8c0,0.4,0,0.7,0,0.9l-2.5-1.4l0.2-0.5l0.9-2.4C64.7,26.5,66.2,28.9,66.2,29.8z"/>
		<path class="st9" d="M51.9,23c0-0.2,0.1-0.6,0.1-1.2c0-0.9-1.5-3.4-1.5-3.4l-1.1,2.9"/>
		<path class="st9" d="M58.7,26.4l1.1-2.9c0,0,1.5,2.5,1.5,3.4s-0.1,1.4-0.1,1.4"/>
		<path class="st9" d="M67.8,22.1c-0.4,0.1-3.6,0.7-5.7,0.6c-1.8-0.1-3.8-0.6-3.8-1.1c0-0.1,0.1-0.2,0.3-0.3
			c1.1-0.5,6.2-0.7,6.2-0.7l0,0L67.8,22.1z"/>
	</g>
	<path class="st5" d="M67.8,22.1C67.8,22.1,67.8,22.1,67.8,22.1"/>
	<line class="st5" x1="52.8" y1="23.5" x2="52.8" y2="23.4"/>
	<path class="st5" d="M58.7,14.9c0,0,1.1-2.9,0.4-4.4c-0.7-1.5-6.3-4.2-6.3-4.2l-26.2,5.5l0,1.4h0.1c0,0,2.2,2.5,3.6,3.4
		c1.4,0.9,3.4,1.8,4.8,2.1c1.5,0.3,3,0.1,3,0.1l0.2,0.1l26.6,14.4l2.7-1.3l0.3-0.2l-1.8-1l-2.5-1.4L61.2,28l-3.1-1.7l-1.6-0.9
		L54,24.1l-1.3-0.7L51.9,23c0,0,0,0,0,0l-8.4-4.6L55,15.7l4.2,2.1l2.9,1.5l2.7,1.3l3,1.5c0,0,0,0,0,0l2.8,1.4l2.8,1.4l0.5,0.2
		l3.9,1.9l3.5-1.6L58.7,14.9z M55.5,12.6c-0.6,0.9-4.1,1.4-5.9,1.9c-1.9,0.5-9.9,2.3-11.7,2c-1.8-0.3-5.8-1.8-6-2.7
		c-0.2-0.9,1.5-1,1.5-1L49,9.5c0,0,2.9-0.5,3.6-0.3c0.7,0.2,2.2,0.5,2.7,1.2C55.7,11.1,56.1,11.7,55.5,12.6z"/>
</g>
</svg>
