<?xml version="1.0" encoding="utf-8"?>
<!-- Generator: Adobe Illustrator 21.1.0, SVG Export Plug-In . SVG Version: 6.00 Build 0)  -->
<svg version="1.1" id="Layer_1" xmlns="http://www.w3.org/2000/svg" xmlns:xlink="http://www.w3.org/1999/xlink" x="0px" y="0px"
	 width="108px" height="108px" viewBox="0 0 108 108" style="enable-background:new 0 0 108 108;" xml:space="preserve">
<style type="text/css">
	.st0{fill:#CCCCCC;stroke:#000000;stroke-width:0.75;stroke-linecap:round;stroke-linejoin:round;stroke-miterlimit:10;}
	.st1{fill:#F2F2F2;}
	.st2{fill:#FFFFFF;}
	.st3{fill:none;stroke:#000000;stroke-width:0.75;stroke-linecap:round;stroke-linejoin:round;stroke-miterlimit:10;}
	.st4{fill:none;stroke:#000000;stroke-width:0.5;stroke-linecap:round;stroke-linejoin:round;stroke-miterlimit:10;}
</style>
<path class="st0" d="M9.5,72.5l11-2l-0.9,18.9c0,0-6.1,1.1-8.1,1.1s-3,0-3-5S9.5,72.5,9.5,72.5z"/>
<path class="st0" d="M5.5,34.5c0,2,0,5,0,5l9-2l-0.8-4.4L5.5,34.5z"/>
<g>
	<path class="st1" d="M100.7,25.1l-88,13.8c0-0.2-0.1-0.3-0.1-0.4c-1-1-5-4-7-4s84-13,86-13s8,2,9,3
		C100.6,24.6,100.6,24.8,100.7,25.1z"/>
	<path class="st2" d="M99.5,74.5c-1,1-89,17-88,16c1-1,1.9-47,1.1-51.6l88-13.8C101.5,30.8,100.4,73.6,99.5,74.5z"/>
</g>
<path class="st3" d="M100.5,24.5c1,1,0,49-1,50s-89,17-88,16s2-51,1-52s-5-4-7-4s84-13,86-13S99.5,23.5,100.5,24.5z"/>
<line class="st4" x1="17.5" y1="73.5" x2="91.5" y2="60.5"/>
<line class="st4" x1="12.5" y1="35.5" x2="95.5" y2="23.5"/>
</svg>
