<?xml version="1.0" encoding="utf-8"?>
<!-- Generator: Adobe Illustrator 21.1.0, SVG Export Plug-In . SVG Version: 6.00 Build 0)  -->
<svg version="1.1" id="Layer_1" xmlns="http://www.w3.org/2000/svg" xmlns:xlink="http://www.w3.org/1999/xlink" x="0px" y="0px"
	 width="108px" height="108px" viewBox="0 0 108 108" style="enable-background:new 0 0 108 108;" xml:space="preserve">
<style type="text/css">
	.st0{fill:#E6E6E6;stroke:#231F20;stroke-width:0.75;stroke-linecap:round;stroke-linejoin:round;}
	.st1{fill:#CCCCCC;stroke:#231F20;stroke-width:0.75;stroke-linecap:round;stroke-linejoin:round;}
	.st2{fill:#FFFFFF;}
	.st3{fill:#F2F2F2;}
	.st4{fill:none;stroke:#000000;stroke-width:0.75;stroke-linecap:round;stroke-linejoin:round;stroke-miterlimit:10;}
	.st5{fill:none;stroke:#000000;stroke-width:0.5;stroke-linecap:round;stroke-linejoin:round;stroke-miterlimit:10;}
</style>
<g>
	<path class="st0" d="M10.8,30.3l-3.2,0c0,0-0.1,0.4,0-1.3c0.1-1.5,0.9-2.2,1.8-2.1c0.2,0,0.4,0,0.6,0.1
		C10.3,27.1,10.5,28.4,10.8,30.3z"/>
	<path class="st1" d="M12,46.8L5.3,47l0.2-3.5l6.2-0.2h0.1C11.9,44.5,11.9,45.8,12,46.8z"/>
	<path class="st0" d="M11.5,85c-0.2,1.1-0.7,2-1.1,2.2c-0.3,0.2-0.7,0-1-0.5c-0.9-1.3-0.5-5.7-0.5-5.7l0.4-11.9l0.3-8.1L9.7,54
		l-4.4-7l6.7-0.1c0,0.8,0.1,1.5,0.2,2.1C12.6,54.7,11.9,83.3,11.5,85z"/>
	<polygon class="st1" points="9.5,61.1 9.2,69.2 8.9,69.2 5.5,69.2 5.4,65.9 9.3,61.1 	"/>
	<path class="st2" d="M100.5,22.3c-0.5-2.3-4.4-1.5-6.5-1.4C91.8,21,9.3,26.7,9.3,26.7l0,0.1c0.2,0,0.4,0,0.6,0.1
		c0.3,0.1,0.6,1.4,0.8,3.3c0.4,3.3,0.8,8.6,1,13c0.1,1.3,0.2,2.5,0.2,3.6c0,0.8,0.1,1.5,0.2,2.1c0.1,1,0.1,2.8,0.1,5.1
		c30.1-2.9,60.2-4.8,90.3-7.5C102.1,38.2,100.9,24.1,100.5,22.3z"/>
	<path class="st3" d="M12.3,54.1c0.1,10.1-0.5,29.5-0.8,31c-0.2,1.1-0.7,2-1.1,2.2l0,0c0,0,80.2-6,85.6-6.6c5.4-0.5,4.8-2.7,5-3.8
		c0.2-1.1,1.7-19.7,1.8-25.5c0-1.1,0-2.8-0.1-4.7C72.5,49.3,42.4,51.2,12.3,54.1z"/>
	<path class="st4" d="M102.7,51.3c-0.1,5.8-1.6,24.4-1.8,25.5c-0.2,1.1,0.4,3.3-5,3.8c-5.4,0.5-85.6,6.6-85.6,6.6l0,0
		c0.5-0.2,0.9-1.1,1.1-2.2c0.4-1.7,1.1-30.4,0.7-36.1c0-0.6-0.1-1.3-0.2-2.1c-0.1-1.1-0.1-2.3-0.2-3.6c-0.3-4.4-0.6-9.7-1-13
		c-0.2-1.9-0.5-3.2-0.8-3.3c-0.2-0.1-0.4-0.1-0.6-0.1l0-0.1c0,0,82.4-5.7,84.6-5.8c2.2-0.1,6-0.9,6.5,1.4
		C101,24.6,102.8,45.5,102.7,51.3z"/>
	<line class="st4" x1="12.1" y1="46.8" x2="12" y2="46.8"/>
	<g>
		<line class="st5" x1="14.6" y1="84.8" x2="72.3" y2="79.8"/>
		<line class="st5" x1="17.1" y1="53.4" x2="94.7" y2="47.6"/>
		<line class="st5" x1="17.1" y1="61.3" x2="96.3" y2="55.4"/>
		<line class="st5" x1="17" y1="65.5" x2="95.5" y2="59.3"/>
		<polyline class="st5" points="15.7,68.8 96.9,62.7 97.3,60.2 100.4,55.6 99.1,47.2 94.9,43 		"/>
		<line class="st5" x1="99.1" y1="43" x2="99.1" y2="47"/>
		<path class="st5" d="M97,76.6c0,0-0.4,1.1-0.1,1.7c0.3,0.5,1.5,0.7,1.5,0.7"/>
	</g>
</g>
</svg>
