<?xml version="1.0" encoding="utf-8"?>
<!-- Generator: Adobe Illustrator 21.1.0, SVG Export Plug-In . SVG Version: 6.00 Build 0)  -->
<svg version="1.1" id="Layer_1" xmlns="http://www.w3.org/2000/svg" xmlns:xlink="http://www.w3.org/1999/xlink" x="0px" y="0px"
	 width="108px" height="108px" viewBox="0 0 108 108" style="enable-background:new 0 0 108 108;" xml:space="preserve">
<style type="text/css">
	.st0{fill:#E6E6E6;stroke:#000000;stroke-width:0.75;stroke-linecap:round;stroke-linejoin:round;stroke-miterlimit:10;}
	.st1{fill:#CCCCCC;stroke:#000000;stroke-width:0.75;stroke-linecap:round;stroke-linejoin:round;stroke-miterlimit:10;}
	.st2{fill:none;stroke:#000000;stroke-width:0.75;stroke-linecap:round;stroke-linejoin:round;stroke-miterlimit:10;}
	.st3{fill:#FFFFFF;stroke:#000000;stroke-width:0.75;stroke-linecap:round;stroke-linejoin:round;stroke-miterlimit:10;}
	.st4{fill:#F2F2F2;stroke:#000000;stroke-width:0.75;stroke-linecap:round;stroke-linejoin:round;stroke-miterlimit:10;}
	.st5{fill:#FFFFFF;}
	.st6{fill:#F2F2F2;}
	.st7{fill:none;stroke:#000000;stroke-width:0.5;stroke-linecap:round;stroke-linejoin:round;stroke-miterlimit:10;}
	.st8{fill:#FFFFFF;stroke:#000000;stroke-width:0.5;stroke-linecap:round;stroke-linejoin:round;stroke-miterlimit:10;}
	.st9{fill:#B3B3B3;stroke:#000000;stroke-width:0.75;stroke-linecap:round;stroke-linejoin:round;stroke-miterlimit:10;}
</style>
<g>
	<polygon class="st0" points="77.9,22 77.9,26.4 71.9,32.4 55.6,48.6 40,64.1 38.9,65.2 30.6,69.3 29.5,69.9 29.2,70 24.3,72.4 
		23.9,72.6 23.8,72.6 23.8,72.6 23.6,67.9 23.2,56.5 23.1,51.9 23,49.8 24.5,49.1 24.6,49 	"/>
	<path class="st1" d="M23.7,68c0,1.9,1.3,2.1,2.1,2.1C25.6,68.6,23.7,68,23.7,68z"/>
	<line class="st2" x1="23.5" y1="68" x2="29.9" y2="64.7"/>
	<line class="st2" x1="25.8" y1="70.1" x2="30.3" y2="67.4"/>
	<path class="st1" d="M24,61.9c0,1.9,1.3,2.1,2.1,2.1C25.9,62.5,24,61.9,24,61.9z"/>
	<line class="st2" x1="23.9" y1="61.9" x2="30.2" y2="58.6"/>
	<line class="st2" x1="26.1" y1="64" x2="30.6" y2="61.3"/>
	<path class="st1" d="M24.2,55.4c0,1.9,1.3,2.1,2.1,2.1C26.1,56,24.2,55.4,24.2,55.4z"/>
	<line class="st2" x1="24" y1="55.4" x2="30.3" y2="52.1"/>
	<line class="st2" x1="26.3" y1="57.5" x2="30.8" y2="54.8"/>
	<path class="st3" d="M18.7,72c0,0,7.2,5.2,9.7,7c2.5,1.8,3.6,2.7,3.6,2.7l4.7-2L18.7,72z"/>
	<polyline class="st3" points="50.1,84.8 49.5,86.5 3.7,64.9 3.8,63.2 	"/>
	<polygon class="st4" points="2.3,61.9 23.2,51.8 23.2,72.2 	"/>
	<path class="st5" d="M84.6,47.9c0,0-0.8-19.8-0.8-21.9S82,23.3,82,23.3L28.1,50.5c0,0,0.8,1.8,1.2,3.8c0.4,2,0.1,21,0.1,21
		s0,0,0.1,0C43.2,68.2,71.1,54.4,85,48C84.8,47.9,84.6,47.9,84.6,47.9z"/>
	<path class="st6" d="M104.5,56.8c-1.3-0.6-16.9-7.6-19.5-8.7c-14,6.4-41.8,20.2-55.6,27.3c1.3,0.5,21.4,8.9,22.2,10.4l54.2-26.9
		C105.9,58.9,106,57.4,104.5,56.8z"/>
	<path class="st2" d="M51.6,85.8l54.2-26.9c0,0,0.1-1.5-1.3-2.1c-1.5-0.7-19.9-8.9-19.9-8.9S83.9,28.1,83.9,26S82,23.3,82,23.3
		L28.1,50.5c0,0,0.8,1.8,1.2,3.8c0.4,2,0.1,21,0.1,21S50.9,84.2,51.6,85.8z"/>
	<path class="st4" d="M24.8,49.4l53.7-27.2c0,0-0.2-1-1.3-0.7C76,21.9,23.6,48.3,23.6,48.3L24.8,49.4z"/>
	<path class="st1" d="M25.7,53.8c0,0,2.7,1.5,2.7-1C26.8,52.4,25.7,53.8,25.7,53.8z"/>
	<path class="st1" d="M26,61.7c0,0,2.7,1.5,2.7-1C27.1,60.3,26,61.7,26,61.7z"/>
	<path class="st1" d="M26.4,69.5c0,0,2.7,1.5,2.7-1C27.5,68.2,26.4,69.5,26.4,69.5z"/>
	<g>
		<line class="st7" x1="32" y1="52.3" x2="80.7" y2="28"/>
		<line class="st7" x1="81.2" y1="35.8" x2="32" y2="60.4"/>
		<line class="st7" x1="32.8" y1="67.7" x2="81.6" y2="43.7"/>
		<path class="st8" d="M34.1,73.7l49.6-24.5c0,0,0-1-0.8-1"/>
	</g>
	<path class="st9" d="M29.2,74.5l-4.9-2.1l4.9-2.4C29.2,72.6,29.2,74.5,29.2,74.5z"/>
	<path class="st1" d="M51.6,85.8l-1.6-0.3c-0.1,0-0.1,0-0.2-0.1c-3.4-1.3-8.2-3.3-13.4-5.7c-2.3-1-4.6-2.1-7-3.2c0,0-0.1,0-0.1,0
		C18.7,71.6,7.9,66.3,3.8,64.1c-0.8-0.5-1.4-0.8-1.6-0.9l0.1-1.4c0,0,0.1,0,0.2,0.1c2.7,1.2,20.3,10,20.3,10s0.1-14.4,0-19.9
		c0-1.1,0-1.9,0-2c-0.1-0.9,0.5-1.5,0.9-1.7c0.2-0.1,0.4-0.2,0.4-0.2l0.6,0.9l0.2,0.4l0.1,0.1c0,0-1,0.4-1,1.1c0,0.3,0,2.2,0.1,4.7
		c0,1.9,0.1,4.2,0.1,6.4v0.2c0,0.2,0,0.3,0,0.5v0c0,1.8,0.1,3.6,0.1,5.2c0,0.2,0,0.4,0,0.5c0,0.5,0,0.9,0,1.3c0,1.7,0,2.9,0,2.9
		l0.1,0l4.9,2.1c0,0,0-1.9,0-4.5c0-0.6,0-1.3,0-2c0-1,0-2,0-3c0-0.9,0-1.9-0.1-2.8c0-1-0.1-2-0.1-3c0-1.2-0.1-2.3-0.2-3.3
		c-0.1-1.4-0.2-2.4-0.3-2.9c0-0.2-0.1-0.3-0.1-0.3c-0.6-0.5-0.5-2.2-0.5-2.2s0,0,0.1,0c0.4,0.2,1.4,0.7,1.7,1.8c0,0,0,0.1,0,0.1
		c0.1,0.2,0.1,0.5,0.1,0.7c0,0.2,0,0.9,0.1,2c0,0.9,0.1,2.1,0.1,3.4c0,0.6,0,1.2,0.1,1.8c0,0.3,0,0.7,0,1c0.1,2.6,0.2,5.4,0.3,7.8
		c0.1,2.5,0.2,4.5,0.2,5.4c0,0.3,0,0.4,0,0.4s18.4,8.5,20.2,9.1L51.6,85.8z"/>
</g>
</svg>
