<?xml version="1.0" encoding="utf-8"?>
<!-- Generator: Adobe Illustrator 21.1.0, SVG Export Plug-In . SVG Version: 6.00 Build 0)  -->
<svg version="1.1" id="Layer_1" xmlns="http://www.w3.org/2000/svg" xmlns:xlink="http://www.w3.org/1999/xlink" x="0px" y="0px"
	 width="108px" height="108px" viewBox="0 0 108 108" style="enable-background:new 0 0 108 108;" xml:space="preserve">
<style type="text/css">
	.st0{fill:#FFFFFF;stroke:#000000;stroke-width:0.75;stroke-linecap:round;stroke-linejoin:round;stroke-miterlimit:10;}
	.st1{fill:#E6E6E6;stroke:#000000;stroke-width:0.75;stroke-linecap:round;stroke-linejoin:round;stroke-miterlimit:10;}
	.st2{fill:#CCCCCC;stroke:#000000;stroke-width:0.75;stroke-linecap:round;stroke-linejoin:round;stroke-miterlimit:10;}
	.st3{fill:#999999;stroke:#000000;stroke-width:0.5;stroke-linecap:round;stroke-linejoin:round;stroke-miterlimit:10;}
	.st4{fill:#F2F2F2;stroke:#000000;stroke-width:0.5;stroke-linecap:round;stroke-linejoin:round;stroke-miterlimit:10;}
	.st5{fill:#CCCCCC;stroke:#000000;stroke-width:0.5;stroke-linecap:round;stroke-linejoin:round;stroke-miterlimit:10;}
	.st6{fill:#FFFFFF;stroke:#000000;stroke-width:0.5;stroke-linecap:round;stroke-linejoin:round;stroke-miterlimit:10;}
	.st7{fill:#E6E6E6;stroke:#000000;stroke-width:0.5;stroke-linecap:round;stroke-linejoin:round;stroke-miterlimit:10;}
	.st8{fill:#CCCCCC;}
	.st9{fill:#F2F2F2;stroke:#000000;stroke-width:0.75;stroke-linecap:round;stroke-linejoin:round;stroke-miterlimit:10;}
	.st10{fill:none;stroke:#000000;stroke-width:0.75;stroke-linecap:round;stroke-linejoin:round;stroke-miterlimit:10;}
	.st11{fill:none;stroke:#000000;stroke-width:0.5;stroke-linecap:round;stroke-linejoin:round;stroke-miterlimit:10;}
	.st12{fill:#B3B3B3;stroke:#000000;stroke-width:0.5;stroke-linecap:round;stroke-linejoin:round;stroke-miterlimit:10;}
	.st13{fill:none;stroke:#000000;stroke-width:0.75;stroke-linecap:round;stroke-linejoin:round;}
</style>
<g>
	<g>
		<path class="st0" d="M33.4,40.5c0,0-1.6-0.5-3.8-0.1c-2.2,0.4-13.3,10.3-13.3,10.3l0.5,0.6l39.2,10.5l1.9-1l7.8-9.7l0.5-2.1
			L33.4,40.5z M38.1,49.2c-0.1,0.1-0.2,0.1-0.3,0.2c-0.1,0.1-0.2,0.1-0.3,0.2c-0.3,0.1-0.7,0.3-1.2,0.3c-0.1,0-0.3,0.1-0.5,0.1
			c-0.3,0-0.6,0.1-1,0.1s-0.7,0-1-0.1c-0.2,0-0.3,0-0.5-0.1c-0.2,0-0.3-0.1-0.4-0.1c-0.1,0-0.3-0.1-0.4-0.1
			c-0.2-0.1-0.5-0.2-0.7-0.3c-0.1-0.1-0.2-0.1-0.3-0.2c-0.3-0.2-0.5-0.5-0.5-0.8c0-0.9,1.7-1.6,3.7-1.6s3.7,0.7,3.7,1.6
			C38.6,48.7,38.4,48.9,38.1,49.2z"/>
		<path class="st0" d="M38.6,48.4c0,0.3-0.2,0.6-0.5,0.8c-0.6-0.5-1.8-0.8-3.2-0.8s-2.6,0.3-3.2,0.8c-0.3-0.2-0.5-0.5-0.5-0.8
			c0-0.9,1.7-1.6,3.7-1.6S38.6,47.5,38.6,48.4z"/>
		<polygon class="st1" points="77.1,90.4 67.3,105.1 67.1,104.3 67.2,104.4 56.4,62.8 56.1,61.7 58,60.7 65.9,51 66.4,49 68.6,49.5 
					"/>
		<polygon class="st2" points="67.3,105.1 64.7,104.5 54.4,63.3 16.3,53.4 16.4,50.7 16.9,51.2 56.1,61.7 56.4,62.8 67.1,104.3 		
			"/>
		<path class="st3" d="M38.6,48.4c0,0.3-0.2,0.6-0.5,0.8c-0.6-0.5-1.8-0.8-3.2-0.8s-2.6,0.3-3.2,0.8c-0.3-0.2-0.5-0.5-0.5-0.8
			c0-0.9,1.7-1.6,3.7-1.6S38.6,47.5,38.6,48.4z"/>
	</g>
	<g>
		<g>
			<path class="st4" d="M34.9,4.5c-4.1,0-7.6,1.4-8.5,3.3l-0.1,0c-0.1-0.2-0.1-0.5-0.1-0.7c0-2.4,3.9-4.3,8.7-4.3
				c4.8,0,8.7,1.9,8.7,4.3c0,0.3-0.1,0.5-0.2,0.8l0,0C42.6,6,39.1,4.5,34.9,4.5z"/>
			<path class="st5" d="M34.9,11.4c-4.3,0-7.8-1.5-8.6-3.5l0.1,0c0.9-1.9,4.3-3.3,8.5-3.3c4.2,0,7.7,1.5,8.5,3.4l0,0
				C42.6,9.9,39.1,11.4,34.9,11.4z"/>
		</g>
		<g>
			<path class="st4" d="M35.5,6.5v3.6l-0.4,0.2v12.9l0.5,2.5c0,0,0.5,0.5,1.1-1c0.6-1.5,2.2-13.1,2.2-13.1l-0.6-0.7l0.1-3.7
				c0,0-0.6-0.5-1.2-0.7C36.6,6.2,35.5,6.5,35.5,6.5z"/>
			<path class="st6" d="M35.4,10.4c0,0,0.7-0.2,1.5-0.1c0.8,0.1,1.4,0.7,1.4,0.7"/>
			<path class="st6" d="M37,24.5c0,0-0.2-1-0.7-1.3c-0.6-0.3-1.1-0.2-1.1-0.2"/>
		</g>
		<g>
			<path class="st7" d="M34,6.3V10l0.4,0.2l-0.3,13.1l0.6,2.6c0,0-1.1,0.2-1.7-1.3c-0.6-1.5-2.5-13.2-2.5-13.2l0.7-0.7L31,7.1
				c0,0,0.6-0.5,1.2-0.7C33,6.1,34,6.3,34,6.3z"/>
			<path class="st6" d="M34.1,10.2c0,0-0.7-0.2-1.5-0.1c-0.8,0.1-1.4,0.7-1.4,0.7"/>
		</g>
		<path class="st6" d="M33,24.9c0,0-0.1-0.6,0.2-1.1c0.3-0.5,0.8-0.7,0.8-0.7"/>
	</g>
	<g>
		<path class="st8" d="M71,55.7c-1.5-0.2-2.6-0.4-2.8-0.4c-0.2,0-0.5,0-0.7,0c-1.2,1.6-2.5,3-3.8,4.5l4.5,0.4l-0.8-2.8l2.8-1.8
			L71,55.7z"/>
		<path class="st2" d="M90.2,85.8l-3.3,0.5l-7.1-25.1l-6-0.6l-2.8-0.3l-2.6-0.3l-0.8-2.8l2.8-1.8l0.8,0.1c0.5,0.1,1,0.1,1.5,0.2
			L73,56l0,0c0.2,0,0.4,0.1,0.6,0.1c0.2,0,0.4,0.1,0.6,0.1c0.2,0,0.4,0.1,0.6,0.1c0.2,0,0.4,0.1,0.5,0.1c0,0,0,0,0.1,0
			c3.3,0.5,6.6,1,6.6,1S89.8,85.5,90.2,85.8z"/>
		<polygon class="st1" points="87.3,88.1 86.1,89.5 85.9,89.5 78.4,63 79.7,61.3 86.8,86.4 		"/>
		<path class="st0" d="M79.7,61.3l-1.6-0.2l-2.6-0.3l-1.7-0.2l-2.8-0.3l-2.6-0.3l-4.5-0.4c-0.6,0.6-1.1,1.2-1.7,1.9L78.4,63
			L79.7,61.3z"/>
		<polygon class="st9" points="85.9,89.5 85.8,89.5 69.1,89.3 61.5,61.6 78.4,63 		"/>
		<path class="st1" d="M91.7,85.4c-0.5,0.4-1.2,0.7-1.6,0.4C89.8,85.5,82,57.3,82,57.3l1.5-1.4C83.5,55.9,92.2,85,91.7,85.4z"/>
		<path class="st0" d="M68.6,53.8c-0.3,0.5-0.7,1-1.1,1.5c0.3,0,0.5,0,0.7,0c0.2,0,1.8,0.3,3.9,0.6c0.3,0,0.6,0.1,0.8,0.1l0,0
			c0.8,0.1,1.6,0.2,2.4,0.3c1.5,0.2,2.9,0.4,4,0.6c0,0,0,0,0.1,0c1.5,0.2,2.5,0.4,2.5,0.4l1.5-1.4C83.5,55.9,69.8,54,68.6,53.8z"/>
		<line class="st10" x1="86.8" y1="86.4" x2="86.8" y2="86.4"/>
		<g>
			<line class="st11" x1="64.9" y1="64.2" x2="70.7" y2="85.7"/>
			<path class="st11" d="M68.6,64.2l5.7,21.4c0,0,0.2,0.9,0.8,1.1c0.6,0.3,1,0.2,1,0.2"/>
			<path class="st11" d="M72.2,64.2l6,22.4c0,0,0.2,0.9,0.8,1.2c0.6,0.3,1,0.2,1,0.2"/>
			<path class="st11" d="M76.2,64.4L82,86.3c0,0,0.2,0.9,0.8,1.2c0.6,0.3,1,0.2,1,0.2"/>
		</g>
		<path class="st4" d="M73,56c0,0-1.2,0.6-2,0.8c-0.8,0.2-3.6,0.6-3.6,0.6l2.8-1.8l0.8,0.1l1.1,0.2l0.4,0.1L73,56L73,56z"/>
		<path class="st4" d="M77.3,56.7c0,0-0.2,0.2-1.1,0.9c-0.8,0.6-3.3,0.1-3.3,0.1l2.5-1.3L77.3,56.7z"/>
		<path class="st4" d="M82,57.3c-0.3,0.3-4.3,1.9-4.3,1.9s-0.4-0.2-0.2-0.9c0.2-0.6,1.8-1.3,2-1.4c0,0,0,0,0.1,0L82,57.3z"/>
		<path class="st12" d="M75.4,56.3l-2.5,1.3l0.8,3.1l-2.8-0.3l-2.6-0.3l-0.8-2.8c0,0,2.8-0.4,3.6-0.6c0.8-0.2,2-0.8,2-0.8
			c0.2,0,0.4,0.1,0.6,0.1c0.2,0,0.4,0.1,0.6,0.1c0.2,0,0.4,0.1,0.6,0.1C75,56.3,75.2,56.3,75.4,56.3C75.4,56.3,75.4,56.3,75.4,56.3z
			"/>
		<path class="st0" d="M79.5,56.9C79.5,56.9,79.5,56.9,79.5,56.9C79.5,56.9,79.5,56.9,79.5,56.9L79.5,56.9z"/>
		<path class="st4" d="M73.7,60.7l-2.8-0.3L70.5,58c0,0,0.9,0.2,1.8,1C73.1,59.8,73.7,60.7,73.7,60.7z"/>
		<path class="st4" d="M69.5,60.3L66.7,60l-0.4-2.4c0,0,0.9,0.2,1.8,1C68.9,59.3,69.5,60.3,69.5,60.3z"/>
		<path class="st4" d="M78.1,61.2l-2.6-0.3l-0.3-2.7c0,0,1,0.6,1.7,1.4C77.6,60.5,78.1,61.2,78.1,61.2z"/>
	</g>
	<g>
		<g>
			<line class="st13" x1="34.9" y1="29.7" x2="34.9" y2="35.7"/>
			<g>
				<path d="M34.9,38.9c-0.6-1.5-1.5-3.3-2.5-4.5l2.5,0.9l2.5-0.9C36.4,35.5,35.4,37.4,34.9,38.9z"/>
			</g>
		</g>
	</g>
</g>
</svg>
