<?xml version="1.0" encoding="utf-8"?>
<!-- Generator: Adobe Illustrator 21.1.0, SVG Export Plug-In . SVG Version: 6.00 Build 0)  -->
<svg version="1.1" id="Layer_1" xmlns="http://www.w3.org/2000/svg" xmlns:xlink="http://www.w3.org/1999/xlink" x="0px" y="0px"
	 width="108px" height="108px" viewBox="0 0 108 108" style="enable-background:new 0 0 108 108;" xml:space="preserve">
<style type="text/css">
	.st0{fill:#FFFFFF;stroke:#000000;stroke-width:0.75;stroke-linecap:round;stroke-linejoin:round;stroke-miterlimit:10;}
	.st1{fill:#F2F2F2;stroke:#000000;stroke-width:0.75;stroke-linecap:round;stroke-linejoin:round;stroke-miterlimit:10;}
	.st2{fill:none;stroke:#000000;stroke-width:0.75;stroke-linecap:round;stroke-linejoin:round;stroke-miterlimit:10;}
	.st3{fill:none;stroke:#000000;stroke-width:0.5;stroke-linecap:round;stroke-linejoin:round;stroke-miterlimit:10;}
	.st4{fill:#CCCCCC;stroke:#000000;stroke-width:0.75;stroke-linecap:round;stroke-linejoin:round;stroke-miterlimit:10;}
	.st5{fill:#FFFFFF;stroke:#000000;stroke-width:0.5;stroke-linecap:round;stroke-linejoin:round;stroke-miterlimit:10;}
	.st6{fill:#808080;stroke:#000000;stroke-width:0.5;stroke-linecap:round;stroke-linejoin:round;stroke-miterlimit:10;}
	.st7{fill:#E6E6E6;stroke:#000000;stroke-width:0.75;stroke-linecap:round;stroke-linejoin:round;stroke-miterlimit:10;}
	.st8{fill:#FFFFFF;}
	.st9{fill:#B3B3B3;stroke:#000000;stroke-width:0.5;stroke-linecap:round;stroke-linejoin:round;stroke-miterlimit:10;}
</style>
<g>
	<path class="st0" d="M71.4,7.8l-32.4,5c-0.2-0.2-0.4-0.4-0.6-0.5l-15.9-4l30.8-4.2L71.4,7.8z"/>
	<path class="st1" d="M71.4,7.8l-0.6,88l-32.5,7.7c0.2-0.3,0.3-0.7,0.3-1.1l0.7-87l0-1.5c0-0.4-0.1-0.8-0.3-1.1L71.4,7.8z"/>
	<line class="st2" x1="39" y1="12.8" x2="39" y2="12.8"/>
	<g>
		<path class="st3" d="M43.5,34.8c0,0,19.2-3.8,22.2-4.5c2.9-0.7,1.8-3.3,1.1-3.9c-0.6-0.6-0.6-2.9-0.6-2.9"/>
		<path class="st3" d="M45.4,27.2c0,0,17.7-3.2,20.4-3.8c2.7-0.6,1.7-3,1.1-3.6c-0.6-0.6-0.5-2.7-0.5-2.7l-20.6,3.4"/>
		<line class="st3" x1="58.7" y1="14.8" x2="51.1" y2="16.1"/>
	</g>
	<path class="st4" d="M26.4,18.3c-1.1,1-1.4,2.1-0.7,2.5c0.2,0.1,0.5,0.2,0.9,0.1v0l4.7-0.8c0.1,0.8,0.9,1.8,2,2.4
		c1.3,0.7,2.7,1,2.9,0.3c0.2-0.8-1-2.3-2.3-3c-0.1,0-0.1,0-0.1-0.1l3.5-0.6c0,1.2,0,2.6,0,4.2l-8.4,1.5l0,0.1
		c-0.8,0.2-1.8,0.8-2.6,1.5c-1.1,1-1.4,2.1-0.7,2.5c0.3,0.2,0.8,0.2,1.3,0l0.1,0.4l4.9-0.9l0,0.2c-0.3,0.1-0.5,0.3-0.6,0.5
		c-0.2,0.8,0.7,2,2,2.7c0.1,0.1,0.3,0.2,0.4,0.2l-4.9,0.8c-0.2,0-0.4,0-0.6,0.1c-0.7,0.2-1.6,0.8-2.3,1.4c-1.1,1-1.4,2.1-0.7,2.5
		c0.2,0.1,0.5,0.2,0.9,0.1l0,0.1l-2.9,0.4c0.3-0.3,0.4-0.8,0.4-1.3c0,0-0.2-21.6-0.2-24.8c2,0.5,11.8,3,13.8,3.4c0,0.1,0,0.5,0,1.1
		L30,17h0c0,0,0,0,0,0C29.3,16.6,27.5,17.3,26.4,18.3z"/>
	<path class="st5" d="M28.2,32.9c0.2-0.1,0.4-0.1,0.6-0.1L28.2,32.9z"/>
	<path class="st5" d="M28.8,32.8l-0.6,0.1C28.4,32.9,28.6,32.8,28.8,32.8z"/>
	<line class="st2" x1="38.1" y1="31.2" x2="37.8" y2="31.3"/>
	<path class="st6" d="M37.1,27.4c0,1.2,0,2.5,0,3.8v0.1l-1,0.2c-0.2-0.8-1.2-2-2.2-2.5c-0.8-0.5-1.5-0.6-2-0.5l0-0.2L37.1,27.4z"/>
	<line class="st2" x1="37.8" y1="27.3" x2="37.1" y2="27.4"/>
	<line class="st2" x1="38.1" y1="23" x2="37.9" y2="23.1"/>
	<line class="st3" x1="28.7" y1="24.7" x2="28.5" y2="24.7"/>
	<line class="st2" x1="37.4" y1="19" x2="37.1" y2="19"/>
	<line class="st2" x1="26.5" y1="20.9" x2="26.5" y2="20.9"/>
	<line class="st3" x1="30" y1="17" x2="29.6" y2="17.1"/>
	<path class="st7" d="M39.3,13.9l0,1.5l-0.1,15.8l-0.6,71.2c0,0.4-0.1,0.8-0.3,1.1l-1.1,0.3c-0.7-0.2-0.8-1-0.8-1.9
		c0,0,0.3-40.6,0.6-66.5c0-1.4,0-2.7,0-4v-0.1c0-1.3,0-2.6,0-3.8v0c0-1.5,0-2.9,0-4.2c0-1.6,0-3,0-4.2c0-1.4,0-2.5,0-3.3
		c0-0.6,0-1,0-1.1c-2-0.5-11.8-2.9-13.8-3.4c0,3.3,0.2,24.8,0.2,24.8c0,0.5-0.1,1.1-0.4,1.3v0l-0.8,0.1c-0.8-0.3-1.1-1-1.1-1.9V10
		c0-0.5,0.1-0.9,0.4-1.2c0.2-0.3,0.5-0.4,0.8-0.4h0.1l15.9,4c0.2,0.1,0.4,0.2,0.6,0.5C39.2,13.1,39.3,13.5,39.3,13.9z"/>
	<path class="st0" d="M23.1,37.4c-0.2,0.2-0.5,0.3-0.8,0.1L23.1,37.4z"/>
	<g>
		<path class="st8" d="M38.3,103.5c-0.2,0.3-0.5,0.4-1.1,0.3L38.3,103.5z"/>
		<path d="M38.3,103.5l-1.1,0.3c0.2,0.1,0.3,0.1,0.4,0.1C38,103.8,38.2,103.7,38.3,103.5L38.3,103.5z"/>
	</g>
	<g>
		<g>
			<path class="st6" d="M37.1,23.2c0,1.3,0,2.7,0,4.2v0l-5.3,0.9l-4.9,0.9l-0.1-0.4c0.6-0.2,1.3-0.6,1.9-1.1c1.1-1,1.5-2.5,0.9-2.9
				c-0.2-0.1-0.4-0.1-0.7-0.1l0-0.1L37.1,23.2z"/>
			<path class="st6" d="M37,31.4c0,1.3,0,2.6,0,4L26,37l0-0.1c0.7-0.1,1.6-0.5,2.3-1.2c1.1-1,1.5-2.4,0.9-2.8
				c-0.1-0.1-0.3-0.1-0.4-0.1l4.9-0.8c1.1,0.6,2.3,0.7,2.4,0c0-0.1,0-0.3,0-0.5L37,31.4z"/>
			<path class="st6" d="M37.2,15.8c0,0.8,0,1.9,0,3.3l-3.5,0.6c-1.2-0.7-2.3-0.6-2.5,0.1c0,0.1,0,0.2,0,0.3l-4.7,0.8v0
				c0.7-0.1,1.6-0.5,2.3-1.2c1.1-1,1.8-2.2,1.2-2.6L37.2,15.8z"/>
		</g>
		<g>
			<path class="st9" d="M28.8,19.7c-0.7,0.7-1.6,1.1-2.3,1.2c-0.3,0-0.6,0-0.9-0.1c-0.7-0.4-0.3-1.5,0.7-2.5c1.1-1,2.9-1.6,3.6-1.2
				c0,0,0,0,0,0h0C30.6,17.4,29.9,18.7,28.8,19.7z"/>
			<path class="st9" d="M28.6,27.7c-0.6,0.5-1.3,0.9-1.9,1.1c-0.5,0.2-1,0.2-1.3,0c-0.7-0.4-0.3-1.5,0.7-2.5
				c0.8-0.7,1.8-1.4,2.6-1.5c0.3,0,0.5,0,0.7,0.1C30.1,25.2,29.7,26.7,28.6,27.7z"/>
			<path class="st9" d="M28.3,35.7c-0.7,0.7-1.6,1.1-2.3,1.2c-0.3,0-0.6,0-0.9-0.1c-0.7-0.4-0.3-1.5,0.7-2.5
				c0.7-0.6,1.6-1.2,2.3-1.4l0.6-0.1c0.2,0,0.3,0,0.4,0.1C29.9,33.3,29.4,34.8,28.3,35.7z"/>
			<path class="st9" d="M36.1,32c-0.2,0.7-1.3,0.5-2.4,0c-0.1-0.1-0.3-0.1-0.4-0.2c-1.3-0.8-2.1-2-2-2.7c0.1-0.3,0.3-0.5,0.6-0.5
				c0.5-0.1,1.2,0,2,0.5c1,0.6,2,1.7,2.2,2.5C36.1,31.7,36.1,31.9,36.1,32z"/>
			<path class="st9" d="M36.1,22.7c-0.2,0.8-1.6,0.5-2.9-0.3c-1.1-0.6-1.9-1.6-2-2.4c0-0.1,0-0.2,0-0.3c0.2-0.7,1.3-0.8,2.5-0.1
				c0,0,0.1,0,0.1,0.1C35.1,20.4,36.2,22,36.1,22.7z"/>
		</g>
	</g>
	<g>
		<polygon class="st4" points="64.1,88 83.9,93.7 85,65.1 84,53.3 62.6,45.1 56.3,44.9 50.1,46 49.7,50 		"/>
		<path class="st0" d="M64.4,83.6"/>
		<polygon class="st7" points="73.4,97.8 49.5,89.7 48.5,50.7 72.9,59.3 		"/>
		<polygon class="st1" points="76,58.7 76.3,97.2 73.4,97.8 72.9,59.3 		"/>
		<polygon class="st1" points="86.2,53.7 86.7,93.1 83.9,93.7 83.1,54.2 		"/>
		<polygon class="st0" points="57.1,53.4 57.1,50.3 60,52.3 60.2,54 		"/>
		<polygon class="st0" points="63.2,55.5 63.3,52.3 66.2,54.4 66.4,56.1 		"/>
		<polygon class="st0" points="70.3,57.5 70.4,54.3 73.3,56.4 73.4,58.1 		"/>
		<g>
			<polygon class="st6" points="64.3,56.8 64.8,48.6 68.5,48.4 68.5,57.7 			"/>
			<polygon class="st6" points="69.9,58.7 70.3,51.3 74.3,51 74.3,59.4 			"/>
			<ellipse transform="matrix(0.835 -0.5502 0.5502 0.835 -18.7231 48.7414)" class="st9" cx="71.9" cy="55.6" rx="1.3" ry="2"/>
			<ellipse transform="matrix(0.8346 -0.5509 0.5509 0.8346 -18.5444 44.5834)" class="st9" cx="65" cy="53.2" rx="1.3" ry="2"/>
			<ellipse transform="matrix(0.8348 -0.5505 0.5505 0.8348 -18.4454 40.6964)" class="st9" cx="58.6" cy="51.1" rx="1.3" ry="2"/>
			<ellipse transform="matrix(1 -4.166909e-03 4.166909e-03 1 -0.2033 0.2779)" class="st9" cx="66.6" cy="48.9" rx="2" ry="1"/>
			<ellipse transform="matrix(1 -4.088507e-03 4.088507e-03 1 -0.2097 0.2954)" class="st9" cx="72.1" cy="51.4" rx="2" ry="1"/>
		</g>
		<line class="st0" x1="55.7" y1="45.3" x2="55.6" y2="50.9"/>
		<line class="st0" x1="63.3" y1="46.7" x2="63.2" y2="52.7"/>
		<line class="st3" x1="52.9" y1="55.7" x2="52.9" y2="84.3"/>
		<path class="st3" d="M58.4,57.2c0,0,0,26.5,0.2,28.1c0.1,1.6,1.7,4,1.7,4"/>
		<path class="st3" d="M65.5,93.1c0,0-1.9-1.4-1.6-7.3c0.3-5.9-0.3-26.8-0.3-26.8"/>
		<path class="st3" d="M69.1,60.4c0,0,0.5,26.6,0.5,28.8c-0.1,3.8,2,5.2,2,5.2"/>
		<path class="st0" d="M59.5,44.4l-10.5,1.8l-0.4,4.7l24,9.1l3-1.3c0,0-22.5-8.3-23.7-8.8c0.1-0.4,0.2-3.9,0.3-4.2
			c0.3-0.1,3.9-0.3,3.9-0.3s7.6,1.3,7.7,1.3c0.3,0.1,19.2,7.7,19.2,7.7l3-0.9l-22.3-8.8l-3.9-0.2L59.5,44.4z"/>
	</g>
</g>
</svg>
