<?xml version="1.0" encoding="utf-8"?>
<!-- Generator: Adobe Illustrator 21.1.0, SVG Export Plug-In . SVG Version: 6.00 Build 0)  -->
<svg version="1.1" id="Layer_1" xmlns="http://www.w3.org/2000/svg" xmlns:xlink="http://www.w3.org/1999/xlink" x="0px" y="0px"
	 width="108px" height="108px" viewBox="0 0 108 108" style="enable-background:new 0 0 108 108;" xml:space="preserve">
<style type="text/css">
	.st0{fill:#CCCCCC;stroke:#000000;stroke-width:0.5;stroke-linecap:round;stroke-linejoin:round;}
	.st1{fill:#FFFFFF;}
	.st2{fill:#F2F2F2;}
	.st3{fill:none;stroke:#000000;stroke-width:0.75;stroke-linecap:round;stroke-linejoin:round;stroke-miterlimit:10;}
	.st4{fill:#E6E6E6;stroke:#000000;stroke-width:0.75;stroke-linecap:round;stroke-linejoin:round;}
	.st5{fill:none;stroke:#000000;stroke-width:0.5;stroke-linecap:round;stroke-linejoin:round;stroke-miterlimit:10;}
	.st6{fill:#808080;stroke:#000000;stroke-width:0.5;stroke-linecap:round;stroke-linejoin:round;stroke-miterlimit:10;}
</style>
<g>
	<rect x="6.6" y="46.5" class="st0" width="3.7" height="3"/>
	<path class="st1" d="M101.3,19.4c0-1.6-1.3-2.8-2.9-2.6l-87,6.9l0.1,23.7c29.9-3.3,59.9-5.9,89.8-7.8L101.3,19.4z"/>
	<path class="st1" d="M11.7,90.9l86.8-7.1c1.6-0.1,2.9-1.5,2.9-3.1l0-18.4c-30,1.5-59.6,6.5-89.7,7.5L11.7,90.9z"/>
	<path class="st2" d="M11.5,47.3l0.1,22.6c30.2-1.1,59.8-6.1,89.7-7.5l0-22.8C71.4,41.4,41.5,44,11.5,47.3z"/>
	<path class="st3" d="M101.4,80.7c0,1.6-1.3,3-2.9,3.1l-86.8,7.1l-0.3-67.2l87-6.9c1.6-0.1,2.9,1,2.9,2.6L101.4,80.7z"/>
	<path class="st4" d="M11.7,24.8v44.5H9.7V24.8c0-0.7,0.4-1.2,1-1.2c0.3,0,0.6,0.2,0.8,0.5C11.6,24.3,11.7,24.5,11.7,24.8z"/>
	<g>
		<polyline class="st5" points="97.7,28.6 97.9,62.6 21.3,69 		"/>
		<polyline class="st5" points="19.2,45.7 94,39.9 94.1,42.4 97.5,44.6 20.5,51.3 		"/>
		<line class="st5" x1="32.7" y1="47.4" x2="94.4" y2="42.7"/>
		<line class="st5" x1="20.2" y1="85.7" x2="80.9" y2="80.6"/>
	</g>
	<path class="st4" d="M8.8,87.2h2.8v2.7c0,0.8-0.6,1.4-1.4,1.4l0,0c-0.8,0-1.4-0.6-1.4-1.4V87.2z"/>
	<polygon class="st6" points="9.7,49.5 9.7,51.6 6.6,49.5 	"/>
</g>
</svg>
