<?xml version="1.0" encoding="utf-8"?>
<!-- Generator: Adobe Illustrator 21.1.0, SVG Export Plug-In . SVG Version: 6.00 Build 0)  -->
<svg version="1.1" id="Layer_1" xmlns="http://www.w3.org/2000/svg" xmlns:xlink="http://www.w3.org/1999/xlink" x="0px" y="0px"
	 width="108px" height="108px" viewBox="0 0 108 108" style="enable-background:new 0 0 108 108;" xml:space="preserve">
<style type="text/css">
	.st0{fill:#E6E6E6;stroke:#231F20;stroke-width:0.75;stroke-linecap:round;stroke-linejoin:round;}
	.st1{fill:#FFFFFF;}
	.st2{fill:#F2F2F2;}
	.st3{fill:none;stroke:#000000;stroke-width:0.75;stroke-linecap:round;stroke-linejoin:round;stroke-miterlimit:10;}
	.st4{fill:none;stroke:#000000;stroke-width:0.5;stroke-linecap:round;stroke-linejoin:round;stroke-miterlimit:10;}
	.st5{fill:#B3B3B3;stroke:#231F20;stroke-width:0.75;stroke-linecap:round;stroke-linejoin:round;}
	.st6{fill:#CCCCCC;stroke:#231F20;stroke-width:0.75;stroke-linecap:round;stroke-linejoin:round;}
</style>
<g>
	<path class="st0" d="M17,90.9c0,0-0.8,0.1-1.4-0.3c-0.5-0.4-0.8-1.2-0.8-1.6c0-0.4,0.1-3,0.1-3l0-14.9l0-0.8L14.9,70l-1.3-5.4
		l0-0.1l3.7-0.2L17.2,71L17,90.9z"/>
	<path class="st1" d="M102.4,23.5c0-1.5-1.2-2.5-2.7-2.4l-79.2,5.7c-0.1,0-0.1,0-0.2,0c-1.4,0.2-2.5,1.4-2.6,2.8l0,2.7l-0.3,22.5
		c28.5-1.1,56.3-4,84.7-5.4L102.4,23.5z"/>
	<path class="st2" d="M17.4,54.8l0,0.6l0,3l-0.1,5.9L17.2,71L17,90.9l84.6-5.4l0.5-36C73.7,50.8,45.8,53.8,17.4,54.8z"/>
	<path class="st3" d="M102.4,23.5l-0.8,62L17,90.9L17.2,71l0.1-6.7l0.1-5.9l0-3l0.3-23.1l0-2.7c0-1.4,1.1-2.6,2.6-2.8
		c0.1,0,0.1,0,0.2,0l79.2-5.7C101.2,21,102.4,22.1,102.4,23.5z"/>
	<g>
		<path class="st4" d="M32,54.1l57-3.8l0.4,0.5c0,0,0.4,0.9,0.6,1.7c0.2,0.8,0.1,1.2,0.1,1.2"/>
		<path class="st4" d="M94,59.1c0,0-1.1-0.6-1.2-1.9c-0.1-1.2,0.9-3.5,0.9-3.5l-57.2,4.1"/>
		<path class="st4" d="M39.9,63l57.2-3.9c0,0,1.2,3.8,1.4,4.3c0.2,0.5,0,18.4,0,18.4"/>
		<line class="st4" x1="40.5" y1="69.3" x2="98.6" y2="65.3"/>
		<line class="st4" x1="22.9" y1="31.2" x2="80.5" y2="27.6"/>
	</g>
	<path class="st0" d="M20.2,26.8L20.2,26.8c-1.4,0.2-2.5,1.4-2.6,2.8l0,2.7l-2.1-0.1c0,0-0.2-3.2,0.4-4.5
		C16.3,26.6,20.2,26.8,20.2,26.8z"/>
	<path class="st5" d="M8.6,61.5l0,0.5c0.1,1.5,1.4,2.6,2.9,2.5l1.9-0.1l0,0.1l1.3,5.4l-0.3,0.1c0,0-3.4,0.7-4.2,0.3
		c-0.7-0.4-1.4-1.3-1.7-2.1c-0.3-0.8-3.1-12-3.1-12l11.7-0.8l0,3l-6.1,0.3C9.7,58.8,8.5,60.1,8.6,61.5z"/>
	<path class="st6" d="M17.3,64.3l-3.7,0.2l-1.9,0.1c-1.5,0.1-2.8-1-2.9-2.5l0-0.5c-0.1-1.5,1-2.7,2.6-2.8l6.1-0.3L17.3,64.3z"/>
</g>
</svg>
