<?xml version="1.0" encoding="utf-8"?>
<!-- Generator: Adobe Illustrator 21.1.0, SVG Export Plug-In . SVG Version: 6.00 Build 0)  -->
<svg version="1.1" id="Layer_1" xmlns="http://www.w3.org/2000/svg" xmlns:xlink="http://www.w3.org/1999/xlink" x="0px" y="0px"
	 width="108px" height="108px" viewBox="0 0 108 108" style="enable-background:new 0 0 108 108;" xml:space="preserve">
<style type="text/css">
	.st0{fill:#CCCCCC;stroke:#000000;stroke-width:0.75;stroke-linecap:round;stroke-linejoin:round;stroke-miterlimit:10;}
	.st1{fill:#E6E6E6;stroke:#000000;stroke-width:0.75;stroke-linecap:round;stroke-linejoin:round;stroke-miterlimit:10;}
	.st2{fill:#FFFFFF;}
	.st3{fill:#F2F2F2;}
	.st4{fill:none;stroke:#000000;stroke-width:0.75;stroke-linecap:round;stroke-linejoin:round;stroke-miterlimit:10;}
	.st5{fill:none;stroke:#000000;stroke-width:0.5;stroke-linecap:round;stroke-linejoin:round;stroke-miterlimit:10;}
</style>
<g>
	<path class="st0" d="M19.9,36c-2,0-3,0-3,2s0,2,5,1S19.9,36,19.9,36z"/>
	<path class="st1" d="M25.9,48c-3,0-22,1-23,1c-1.4,0,16,5,17,6s1,22,4,21S25.9,48,25.9,48z M16.4,51c-1.4,0-2.5-0.2-2.5-0.5
		c0-0.3,1.1-0.5,2.5-0.5s2.5,0.2,2.5,0.5C18.9,50.8,17.8,51,16.4,51z"/>
	<path class="st2" d="M97.9,32l-78,4c0,0,3.9,24.3,5,32.6c26.7-2.2,53-3,79.8-6.5C103.1,51.6,98.6,32.7,97.9,32z"/>
	<path class="st2" d="M24.4,75.9c-0.3,0-0.5,0-0.5,0S24.1,76.1,24.4,75.9z"/>
	<path class="st3" d="M24.8,68.6c0,0.1,0,0.3,0,0.4c0.7,5.4,0,6.7-0.5,7c6.5-0.5,78.6-6,80.5-7c0.5-0.3,0.3-3-0.2-6.9
		C77.8,65.6,51.5,66.4,24.8,68.6z"/>
	<path class="st4" d="M97.9,32c1,1,9,36,7,37s-81,7-81,7s2,1,1-7s-5-33-5-33L97.9,32z"/>
	<g>
		<path class="st5" d="M30.9,48c0,0,48-2,55-1s10,3,10,3"/>
		<line class="st5" x1="30.9" y1="55" x2="91.9" y2="52"/>
	</g>
</g>
</svg>
