<?xml version="1.0" encoding="utf-8"?>
<!-- Generator: Adobe Illustrator 21.1.0, SVG Export Plug-In . SVG Version: 6.00 Build 0)  -->
<svg version="1.1" id="Layer_1" xmlns="http://www.w3.org/2000/svg" xmlns:xlink="http://www.w3.org/1999/xlink" x="0px" y="0px"
	 width="108px" height="108px" viewBox="0 0 108 108" style="enable-background:new 0 0 108 108;" xml:space="preserve">
<style type="text/css">
	.st0{fill:#F2F2F2;stroke:#000000;stroke-width:0.5;stroke-linecap:round;stroke-linejoin:round;stroke-miterlimit:10;}
	.st1{fill:#E6E6E6;stroke:#000000;stroke-width:0.75;stroke-linecap:round;stroke-linejoin:round;stroke-miterlimit:10;}
	.st2{fill:#999999;stroke:#000000;stroke-width:0.75;stroke-linecap:round;stroke-linejoin:round;stroke-miterlimit:10;}
	.st3{fill:#B3B3B3;stroke:#000000;stroke-width:0.75;stroke-linecap:round;stroke-linejoin:round;stroke-miterlimit:10;}
	.st4{fill:#FFFFFF;}
	.st5{fill:#F2F2F2;}
	.st6{fill:#CCCCCC;}
	.st7{fill:none;stroke:#000000;stroke-width:0.75;stroke-linecap:round;stroke-linejoin:round;stroke-miterlimit:10;}
	.st8{fill:#CCCCCC;stroke:#000000;stroke-width:0.75;stroke-linecap:round;stroke-linejoin:round;stroke-miterlimit:10;}
	.st9{fill:#F2F2F2;stroke:#000000;stroke-width:0.75;stroke-linecap:round;stroke-linejoin:round;stroke-miterlimit:10;}
	.st10{fill:none;stroke:#000000;stroke-width:0.5;stroke-linecap:round;stroke-linejoin:round;stroke-miterlimit:10;}
</style>
<path class="st0" d="M84.6,91.9c-1.1-0.1-2.1-0.4-2.1-0.4l-11.6-3.3h0l-16.4-4.7l-1-42c0,0,14.1,4.7,22.7,7.3
	c0.5,0.1,0.9,0.3,1.4,0.4c0.4,0.1,0.7,0.2,1.1,0.3c0.3,0.1,0.5,0.2,0.7,0.2c1.6,0.5,2.8,0.8,3.1,0.8c0,0,0.8,27.8,1.6,37.9
	C84.3,90.4,84.4,91.7,84.6,91.9z"/>
<g>
	<path class="st1" d="M41.5,100.5c-2,0-3-2-1-12c1.8-9.2,0.3-28.5,0-31.6c-0.4-5.9-1.1-11.6-1.9-16.5c-1.2-7.2-2.5-12.4-3.1-13
		c-1-1-4-2-5-2s0,7,1,15s3,15,0,15c-1,0-1.7-2-2.2-4.8c-0.2-1.3-0.4-2.7-0.5-4.2c-0.1-1.1-0.2-2.3-0.3-3.5c-0.3-4.1-0.6-8.1-1-10.5
		c-1-6,0-8-6-10c-1.3-0.4-2.2-0.7-2.9-0.9c-2.6-0.6-1.7,0.7-0.1,3.9c2,4,3,9,3,9s0.7,5.4,1.3,11.5c0,0,0,0,0,0
		c0.6,6.1,1,12.9,0.3,15.3l-0.7,0.2c0,0-3,2-3-7s-2-24-6-30c-2-3-2.3-4.8,0.5-6.5c1.1,0.1,2.9,0.4,5.1,0.8
		c6.5,1.2,16.1,3.7,18.4,6.7c3,4,3,8,4,13S48.5,89.5,41.5,100.5z"/>
	<path class="st2" d="M40.5,56.9c0-0.3,0-0.4,0-0.4l-17.3,4.8c0.7-2.4,0.2-9.2-0.3-15.3c0,0,0,0,0,0c-0.6-6.1-1.3-11.5-1.3-11.5
		s-1-5-3-9c-1.6-3.2-2.5-4.5,0.1-3.9c0.7,0.2,1.6,0.4,2.9,0.9c6,2,5,4,6,10c0.4,2.4,0.6,6.5,1,10.5l-3,1.5c0,0-0.2,0.1-0.5,0.4
		c-0.2,0.2-0.4,0.5-0.4,1v0.1c0,0.4,0.3,1,0.9,1.6c1.2,1.2,2.8,2.4,3.8,3.2c0.5,2.8,1.2,4.8,2.2,4.8c3,0,1-7,0-15s-2-15-1-15
		s4,1,5,2c0.6,0.6,1.9,5.8,3.1,13C39.4,45.3,40.2,51,40.5,56.9z"/>
	<path class="st1" d="M29.3,50.7c-1-0.8-2.6-2-3.8-3.2c-0.6-0.6-0.9-1.2-0.9-1.6v-0.1c0-0.4,0.2-0.8,0.4-1c1.6-0.4,2.5,0.3,3.8,1.7
		C28.9,48,29.1,49.4,29.3,50.7z"/>
	<path class="st3" d="M28.8,46.5c-1.2-1.3-2.2-2.1-3.8-1.7c0.2-0.2,0.5-0.4,0.5-0.4l3-1.5C28.6,44.2,28.7,45.4,28.8,46.5z"/>
	<g>
		<path class="st4" d="M72.5,15.5c-2-2-22-7-22-7s0-1-19,4C22.2,15,16.7,16.4,14,18c1.1,0.1,2.9,0.4,5.1,0.8
			c6.3,1.2,15.4,3.5,18.1,6.3c12-3.4,23.9-5.7,35.9-8.5C72.9,16.1,72.7,15.7,72.5,15.5z"/>
		<path class="st5" d="M53.5,41.5v-6l3-1l4-1c0,0,2-1,4-1c1.5,0,6.6,0.5,12,2c-1.1-7.2-2.3-14.8-3.4-17.8c-12,2.7-23.9,5.1-35.9,8.5
			c0.1,0.1,0.2,0.2,0.3,0.3c3,4,3,8,4,13c0.6,2.9,2.8,19.4,3.3,34.9c5-8.3,7.8-18.1,8.8-28.1L53.5,41.5z"/>
		<path class="st6" d="M53.6,45.3c-1,10-3.8,19.9-8.8,28.1c0.3,11.5-0.3,22.4-3.3,27.1c1.4,0,18.7-7.2,29.4-12.3l-16.4-4.7
			L53.6,45.3z"/>
		<g>
			<path class="st7" d="M54.5,83.5l16.4,4.7c-10.8,5.1-28,12.3-29.4,12.3c7-11,1-57,0-62s-1-9-4-13c-2.3-3-11.8-5.4-18.4-6.7
				c-2.2-0.4-4-0.7-5.1-0.8c2.7-1.6,8.2-3.1,17.5-5.5c19-5,19-4,19-4s20,5,22,7c1.2,1.2,2.8,10.3,4,19c-5.4-1.5-10.6-2-12-2
				c-2,0-4,1-4,1l-4,1l-3,1v6L54.5,83.5z"/>
		</g>
	</g>
	<path class="st3" d="M77.2,39.3c-0.9,0.7-1.7,1.4-1.7,2.2v4.4c-0.1,0-0.2,0-0.2-0.1c-0.5-1.5-1.7-4.7-3-5.3L72.2,38
		c0.5-0.2,0.9-0.5,1.3-0.7c1.2,0.4,2.4,0.8,3.7,1.3C77.2,38.8,77.2,39,77.2,39.3z"/>
	<path class="st8" d="M69.6,35.9c-2.1,1-2.1,2.6-2.1,2.6v4.9c-3-1-5.7-1.8-7-2.4v0l0-7.5c0,0,5,0,6,1C66.7,34.7,67.9,35.2,69.6,35.9
		z"/>
	<path class="st3" d="M60.5,33.5l0,7.5c-0.5-0.2-0.8-0.4-1-0.5c-1-1-1-1-1-3s-2-3-2-3L60.5,33.5z"/>
	<path class="st7" d="M82.6,40.4L82.6,40.4c-0.1,0.1-0.1,0.1-0.2,0L82.6,40.4z"/>
	<path class="st7" d="M94.7,42.8c-0.1,0.5-1.8,0.6-2.7,0.7h0c-0.3,0-0.5,0-0.5,0s-0.5-0.2-1.2-0.4c-0.7-0.2-1.7-0.6-2.8-0.9
		C87,42,86.5,41.8,86,41.6c-0.8-0.3-1.8-0.6-2.7-0.9c0,0,0,0,0,0c-0.2-0.1-0.4-0.2-0.7-0.2l-0.2-0.1c-1.5-0.5-3-1-4.6-1.6h0
		c-0.2-0.1-0.5-0.2-0.7-0.3c-1.3-0.4-2.5-0.9-3.7-1.3c-1.4-0.5-2.8-1-3.9-1.4c-1.7-0.7-2.9-1.2-3.1-1.4c-1-1-6-1-6-1s2-1,4-1
		c1.5,0,6.6,0.5,12,2c2,0.5,4.1,1.2,6,2c7,3,11,5,12,6C94.6,42.6,94.7,42.7,94.7,42.8z"/>
	<path class="st9" d="M73.5,37.3c-0.3,0.2-0.8,0.5-1.3,0.7c-1.2,0.6-2.9,1-4.7,0.5c0,0,0-1.6,2.1-2.6C70.7,36.3,72,36.8,73.5,37.3z"
		/>
	<path class="st9" d="M82.6,40.5v0.4c-1.5,0.3-3.6,0.5-5.1,0.5c-1.2,0-2,0-2,0c0-0.8,0.8-1.6,1.7-2.2c0.2-0.2,0.4-0.3,0.6-0.4h0
		c1.5,0.5,3.1,1.1,4.6,1.6C82.5,40.5,82.5,40.5,82.6,40.5z"/>
	<path class="st7" d="M82.6,48.1c-0.8-0.3-2-0.7-3.5-1.2c-0.1-1.5,0.4-3.5,0.4-3.5C82.2,44.2,82.6,46.6,82.6,48.1z"/>
	<path class="st9" d="M90.3,43.1c-1.2,1.4-6.8,1.4-6.8,1.4c0.5-1,1.6-2.1,2.5-2.9c0.5,0.2,1,0.3,1.4,0.5
		C88.6,42.5,89.6,42.8,90.3,43.1z"/>
	<path class="st2" d="M72.3,40.5c-0.3-0.1-0.5-0.1-0.8,0c-1.1,0.6-1,2.4-0.6,3.9c-1.1-0.4-2.3-0.7-3.4-1.1v-4.9
		c1.9,0.5,3.5,0.1,4.7-0.5L72.3,40.5z"/>
	<path class="st9" d="M75.3,45.8c-0.9-0.3-1.9-0.6-2.8-0.9c-0.5-0.2-1.1-0.3-1.6-0.5c-0.3-1.5-0.5-3.3,0.6-3.9
		c0.3-0.1,0.5-0.1,0.8,0C73.6,41.1,74.8,44.3,75.3,45.8z"/>
	<path class="st2" d="M82.6,40.9v7.2c0-1.6-0.5-4-3.1-4.6c0,0-0.5,2-0.4,3.5c-0.3-0.1-0.5-0.2-0.8-0.3c-0.2-0.1-0.4-0.1-0.7-0.2
		c-0.7-0.2-1.4-0.4-2.1-0.7v-4.4c0,0,0.8,0,2,0C79,41.4,81.1,41.2,82.6,40.9z"/>
	<path class="st9" d="M82.6,48.1c-0.8-0.3-2-0.7-3.5-1.2c-0.1-1.5,0.4-3.5,0.4-3.5C82.2,44.2,82.6,46.6,82.6,48.1z"/>
	<path class="st2" d="M94.5,87.5h-7.7c0-9.7-1.4-33.7-2.2-37.8c0.1-0.3-0.2-0.8-1-1.2l-0.1-4c0,0,5.5,0,6.8-1.4
		c0.8,0.3,1.2,0.4,1.2,0.4s0.2,0,0.5,0h0l0,0L94.5,87.5z"/>
	<path class="st9" d="M96.5,86.5c0,0,0,1-2,1l-2.5-44l0,0c0.9,0,2.6-0.2,2.7-0.7h0L96.5,86.5z"/>
	<path class="st3" d="M83.5,44.5l0.1,4c0,0-0.1,0-0.1,0c-0.2-0.1-0.5-0.2-0.9-0.4v-7.7c0.2,0.1,0.5,0.2,0.7,0.2c0,0,0,0,0,0
		c1,0.3,1.9,0.6,2.7,0.9C85.1,42.4,84,43.5,83.5,44.5z"/>
	<path class="st7" d="M84.6,49.8c-0.1,0.3-0.4,0.5-0.9,0.6c-0.3,0.1-0.7,0.1-1.1,0.1c-0.4,0-1.5-0.3-3.1-0.8
		c-0.2-0.1-0.5-0.1-0.7-0.2c-0.3-0.1-0.7-0.2-1.1-0.3c-0.4-0.1-0.9-0.3-1.4-0.4c-8.6-2.6-22.7-7.3-22.7-7.3v-6l3-1c0,0,2,1,2,3
		s0,2,1,3c0.1,0.1,0.4,0.3,1,0.5v0c1.4,0.5,4,1.4,7,2.4c1.1,0.3,2.2,0.7,3.4,1.1c0.5,0.2,1.1,0.3,1.6,0.5c1,0.3,1.9,0.6,2.8,0.9
		c0.1,0,0.1,0,0.2,0.1c0.7,0.2,1.4,0.5,2.1,0.7c0.2,0.1,0.4,0.1,0.7,0.2c0.3,0.1,0.5,0.2,0.8,0.3c1.5,0.5,2.7,0.9,3.5,1.2
		c0.4,0.2,0.7,0.3,0.9,0.4c0,0,0.1,0,0.1,0C84.4,49,84.7,49.4,84.6,49.8z"/>
	<path class="st9" d="M86.8,87.5c0,2.3-0.1,3.8-0.3,4c-0.4,0.4-1.2,0.5-1.9,0.4c-0.2-0.3-0.3-1.5-0.5-3.5
		c-0.8-10.1-1.6-37.9-1.6-37.9c0.4,0,0.8,0,1.1-0.1c0.5-0.1,0.8-0.4,0.9-0.6C85.4,53.8,86.8,77.8,86.8,87.5z"/>
	<path class="st7" d="M84.6,49.8c0-0.1,0-0.2-0.1-0.3"/>
	<g>
		<line class="st10" x1="33.5" y1="20.5" x2="58.5" y2="14.5"/>
		<line class="st10" x1="42.5" y1="23.5" x2="68.5" y2="16.5"/>
		<line class="st10" x1="59.5" y1="46.5" x2="60.5" y2="78.5"/>
		<path class="st10" d="M65.5,48.5l1,31c0,0,0,2,2,4"/>
		<path class="st10" d="M75.5,86.5c-0.2-0.1-0.3-0.2-0.5-0.3"/>
		<path class="st10" d="M72.5,51.5l1,31c0,0,0,2.5,1.5,3.7"/>
		<path class="st10" d="M78.5,52.5l0.9,31.1l0.1,1.9c0,0,1,3,3,3"/>
	</g>
</g>
</svg>
