<?xml version="1.0" encoding="utf-8"?>
<!-- Generator: Adobe Illustrator 21.1.0, SVG Export Plug-In . SVG Version: 6.00 Build 0)  -->
<svg version="1.1" id="Layer_1" xmlns="http://www.w3.org/2000/svg" xmlns:xlink="http://www.w3.org/1999/xlink" x="0px" y="0px"
	 width="108px" height="108px" viewBox="0 0 108 108" style="enable-background:new 0 0 108 108;" xml:space="preserve">
<style type="text/css">
	.st0{fill:#FFFFFF;stroke:#000000;stroke-width:0.75;stroke-linecap:round;stroke-linejoin:round;}
	.st1{fill:none;stroke:#000000;stroke-width:0.5;stroke-linecap:round;stroke-linejoin:round;}
	.st2{fill:#E6E6E6;stroke:#000000;stroke-width:0.75;stroke-linecap:round;stroke-linejoin:round;stroke-miterlimit:10;}
	.st3{fill:none;stroke:#000000;stroke-width:0.75;stroke-linecap:round;stroke-linejoin:round;}
	.st4{fill:#B3B3B3;stroke:#000000;stroke-width:0.75;stroke-linecap:round;stroke-linejoin:round;stroke-miterlimit:10;}
</style>
<g>
	<path class="st0" d="M105.1,58.9c-1.6,2.3-85.4,20.7-84,19.9c0.1-0.1,0.2-0.1,0.3-0.2c3.3-3.2,1.8-31-0.3-33.2
		c-0.1-0.1,0.1-0.2,0.6-0.4c7.3-2.9,77.8-17.9,81.8-15.9C107.7,31.3,106.7,56.6,105.1,58.9z"/>
	<g>
		<path class="st1" d="M30.2,48.6c0,0,61.9-12.2,67.2-16.8"/>
		<path class="st1" d="M34.6,61.5c3.3-0.2,50.9-11.7,51.8-11c0.9,0.7,14.7,3.3,16.4,6.6"/>
	</g>
	<path class="st2" d="M21.4,78.6c0,0-1,0.6-2.1,0.3C18.2,78.6,5,71,3.3,71.3c-1.8,0.3-2.1-0.5-1.5-1.5C2.4,69,3.2,68.4,4.4,68
		c0.8,1.2,14.5,6.5,15.4,8.2c0.6,1.3,1.5-9.9,1.4-13.7c0.2-2.9-0.4-8.4-1.1-11.7c-0.3-1.6-0.6-2.6-0.8-2.6c-0.7,0-12.2,5-14.6,5.5
		c-0.2,0-0.3,0-0.4,0c0,0,0,0,0,0c-1-0.2-1.9-1.9-0.2-2.7c1.7-0.7,16.9-6.1,17.7-6c-0.5,0.2-0.7,0.3-0.6,0.4
		C23.2,47.7,24.7,75.4,21.4,78.6z"/>
	<path class="st3" d="M21.8,45.1C21.7,45.1,21.7,45.1,21.8,45.1"/>
	<path class="st4" d="M19.8,76.2c-0.9-1.7-14.6-7-15.4-8.2c2.8-1.1,7.7-1.4,16.1-3.6c0.4-0.1,0.6-0.8,0.6-1.8
		C21.2,66.3,20.4,77.5,19.8,76.2z"/>
	<path class="st3" d="M21.1,62.5c0-0.3,0-0.5,0-0.7"/>
	<path class="st4" d="M20.1,50.8c0,0.3-12.9,2.6-15.4,2.9c2.5-0.5,13.9-5.5,14.6-5.5C19.5,48.3,19.8,49.3,20.1,50.8z"/>
</g>
</svg>
