<?xml version="1.0" encoding="utf-8"?>
<!-- Generator: Adobe Illustrator 21.1.0, SVG Export Plug-In . SVG Version: 6.00 Build 0)  -->
<svg version="1.1" id="Layer_1" xmlns="http://www.w3.org/2000/svg" xmlns:xlink="http://www.w3.org/1999/xlink" x="0px" y="0px"
	 width="108px" height="108px" viewBox="0 0 108 108" style="enable-background:new 0 0 108 108;" xml:space="preserve">
<style type="text/css">
	.st0{fill:#E6E6E6;stroke:#000000;stroke-width:0.75;stroke-linecap:round;stroke-linejoin:round;stroke-miterlimit:10;}
	.st1{fill:#FFFFFF;}
	.st2{fill:#F2F2F2;}
	.st3{fill:none;stroke:#000000;stroke-width:0.75;stroke-linecap:round;stroke-linejoin:round;stroke-miterlimit:10;}
	.st4{fill:#F2F2F2;stroke:#000000;stroke-width:0.75;stroke-linecap:round;stroke-linejoin:round;stroke-miterlimit:10;}
	.st5{fill:#FFFFFF;stroke:#000000;stroke-width:0.75;stroke-linecap:round;stroke-linejoin:round;stroke-miterlimit:10;}
	.st6{fill:#CCCCCC;}
	.st7{fill:#E6E6E6;}
	.st8{fill:none;stroke:#000000;stroke-width:0.5;stroke-linecap:round;stroke-linejoin:round;stroke-miterlimit:10;}
	.st9{fill:#B3B3B3;stroke:#000000;stroke-width:0.75;stroke-linecap:round;stroke-linejoin:round;stroke-miterlimit:10;}
</style>
<g>
	<path class="st0" d="M36.7,49l-0.8,3.6v0l-0.6,0.1l-5.5-11.8l-1.5-1.4L28,37.1l1.2-1.4c0,0,0.3-10.7,1.1-13.7
		c0.8-3,1.6-7.1-0.8-7.4c-2.5-0.3-3,1.1-3,3.3s1.4,4.4,1.4,4.4v1.9l-1.9,1.7c0,0,0.3,4.7,0.7,11.3v0C27.6,51.8,29,75.6,29,78.5
		c0,4.1,0.2,9.2-1,14.5c-1.1,4.5-2.2,7.2-3.6,9.2l0,0c-0.2,0.3-0.4,0.5-0.6,0.8c-1.4,1.7-2.8,2.5-3.1,2.6h0
		c-1.3,0.1-2.2,0.1-2.5-0.3c-1.1-1.2-0.9-3.9,0.8-4.7c1.6-0.8,3.9-4.7,5-7.6c1.2-3.3,0.8-8.6,1.1-12.5c0.3-3.9-0.4-24.6-0.7-27.9
		c-0.7-6-3.3-12.3-5.3-16.1c-1.4-2.6-6.6-9.3-6.6-9.3l0.3-2.5l3,0.3l7.4,12.4c0,0-0.5-11-0.6-14.2v-0.1c0-3,0.6-9.6,1.9-11.3
		c1.1-1.3,3.7-1.6,6.3-1.8h0c0,0,0,0,0,0c0,0,0,0,0,0c0,0,0,0,0.1,0c0.1,0.1,0.2,0.2,0.4,0.2c0.2,0.1,0.3,0.2,0.5,0.4
		c0.1,0.1,0.2,0.1,0.2,0.2c0.1,0,0.1,0.1,0.2,0.1c0.1,0.1,0.2,0.1,0.2,0.2c0.2,0.2,0.3,0.3,0.5,0.5c0.1,0.1,0.1,0.2,0.2,0.2
		c0.1,0.2,0.3,0.4,0.4,0.6c0.1,0.1,0.1,0.2,0.2,0.3c0.1,0.2,0.2,0.3,0.2,0.5c0,0.1,0.1,0.2,0.1,0.2c0,0.1,0.1,0.2,0.1,0.3
		c0.6,2.5-0.8,9.6-1.4,12.9c-0.6,3.3-0.3,9.7,0.5,13.8C34.2,44.8,36.6,49,36.7,49L36.7,49z"/>
	<path class="st1" d="M93.6,7.4c0-1.7-1.9-4.7-4.1-4.9c-3.1-0.3-11.3,1.1-14.8,1.6C71,4.6,36.4,9.6,33.1,9.9C32.4,9.9,31.7,10,31,10
		h-0.1c0,0,0,0,0,0c0,0,0,0,0,0c0,0,0,0,0.1,0c0.1,0.1,0.2,0.2,0.4,0.2c0.2,0.1,0.3,0.2,0.5,0.4c0.1,0.1,0.2,0.1,0.2,0.2
		c0.1,0,0.1,0.1,0.2,0.1c0.1,0.1,0.2,0.1,0.2,0.2c0.2,0.2,0.3,0.3,0.5,0.5c0.1,0.1,0.1,0.1,0.2,0.2c0.1,0.2,0.3,0.4,0.4,0.6
		c0.1,0.1,0.1,0.2,0.2,0.3c0.1,0.2,0.2,0.3,0.2,0.5c0,0.1,0.1,0.2,0.1,0.2c0,0.1,0.1,0.2,0.1,0.3c0.3,1.4,0,4.3-0.4,7.1
		c19.7-3,39.8-6.1,59.3-9.9C93.4,9.7,93.6,8.4,93.6,7.4z"/>
	<path class="st2" d="M91.4,21.4c0.4-3.7,1.2-7.3,1.7-10.2c-19.5,3.7-39.6,6.8-59.3,9.9c-0.3,2.2-0.7,4.4-1,5.8
		c-0.5,2.9-0.4,8.1,0.2,12.2c19.7-2.7,39.4-5.2,59.1-8.8C91.6,27.5,91.1,24.3,91.4,21.4z"/>
	<path class="st1" d="M92.2,30.3c-19.7,3.6-39.4,6-59.1,8.8c0.1,0.6,0.2,1.1,0.3,1.6c0.8,4.1,3.3,8.3,3.3,8.3l0.1,0l57.9-10.7
		l0.3-0.1c-0.4-0.9-0.8-1.6-0.8-1.6C93.7,35.6,92.9,33.2,92.2,30.3z"/>
	<path class="st3" d="M94.9,38.2l-0.3,0.1L36.7,49l-0.1,0c0,0-2.4-4.2-3.3-8.3c-0.8-4.1-1.1-10.5-0.5-13.8
		c0.6-3.3,1.9-10.4,1.4-12.9c0-0.1,0-0.2-0.1-0.3c0-0.1-0.1-0.2-0.1-0.2c-0.1-0.2-0.1-0.3-0.2-0.5c-0.1-0.1-0.1-0.2-0.2-0.3
		c-0.1-0.2-0.3-0.4-0.4-0.6c-0.1-0.1-0.1-0.2-0.2-0.2c-0.2-0.2-0.3-0.4-0.5-0.5c-0.1-0.1-0.2-0.2-0.2-0.2C32.3,11,32.2,11,32.2,11
		c-0.1-0.1-0.2-0.1-0.2-0.2c-0.2-0.1-0.3-0.3-0.5-0.4c-0.1-0.1-0.3-0.2-0.4-0.2c0,0-0.1,0-0.1,0c0,0,0,0,0,0c0,0,0,0,0,0H31
		c0.7-0.1,1.4-0.1,2.1-0.2C36.4,9.6,71,4.6,74.6,4.1c3.6-0.6,11.7-2,14.8-1.6c2.2,0.2,4.1,3.3,4.1,4.9c0,2.7-1.7,8.2-2.2,14
		c-0.6,5.8,1.9,13.2,2.7,15.1C94.1,36.5,94.6,37.2,94.9,38.2z"/>
	<path class="st4" d="M94.4,42c-2,0.6-5.5,1.2-5.5,1.2L36,52.6h0v0l0.8-3.6l57.9-10.7l0.3-0.1C95.5,39.6,96,41.5,94.4,42z"/>
	<polygon class="st5" points="88.9,43.1 88.2,43.8 36,52.6 	"/>
	<path class="st5" d="M20.8,105.5C20.8,105.5,20.8,105.5,20.8,105.5L20.8,105.5L20.8,105.5z"/>
	<polygon class="st5" points="88.9,43.1 88.2,43.8 36,52.6 	"/>
	<path class="st6" d="M88.9,43.1l-0.7,0.7L36,52.6h0l-0.6,0.1l-5.5-11.8l-1.5-1.4L28,37.1l1.2-1.4c0,0,0.3-10.7,1.1-13.7
		c0.8-3,1.6-7.1-0.8-7.4c-2.5-0.3-3,1.1-3,3.3s1.4,4.4,1.4,4.4v1.9l-1.9,1.7c0,0,0.3,4.7,0.7,11.3v0c0.4,5.8,0.8,13.2,1.2,20.1
		C48.5,55,69,51.7,89.1,47.4C89,44.9,88.9,43.1,88.9,43.1z"/>
	<path class="st2" d="M90.3,82.7c0.6-4.1,0-18.7-0.6-25.3c-0.3-3.5-0.5-7.2-0.6-10C69,51.7,48.5,55,27.9,57.2
		C28.5,67.5,29,76.8,29,78.5c0,4.1,0.2,9.2-1,14.5c-0.1,0.6-0.3,1.2-0.4,1.8c20.9-4.6,41.8-7.8,62.7-11.8
		C90.2,82.9,90.3,82.8,90.3,82.7z"/>
	<path class="st7" d="M27.6,94.7c-0.9,3.5-2,5.7-3.1,7.4l0,0c-0.2,0.3-0.4,0.5-0.6,0.8c-1.4,1.7-2.8,2.5-3.1,2.6
		c2.6-0.2,6.7-1.2,10.9-2c6.3-1.1,49.2-10.2,51.7-11.3c0.9-0.4,1.9-1.2,2.9-2.2l0,0c0.5-0.3,1.8-1.8,2.1-2.7
		c0.9-1.4,1.6-2.9,1.8-4.5C69.3,87,48.5,90.2,27.6,94.7z"/>
	<path class="st3" d="M90.3,82.7c-0.2,1.6-0.9,3.2-1.8,4.7c-0.2,0.9-1.5,2.4-2.1,2.7l0,0c-1,1-2.1,1.8-2.9,2.2
		c-2.5,1.1-45.4,10.2-51.7,11.3c-4.2,0.7-8.3,1.7-10.9,2c0.2-0.1,1.7-0.8,3.1-2.6c0.2-0.2,0.4-0.5,0.6-0.8l0,0
		c1.3-2,2.5-4.7,3.6-9.2c1.2-5.3,1-10.4,1-14.5c0-2.8-1.5-26.7-2.4-41.3v0c-0.4-6.6-0.7-11.3-0.7-11.3l1.9-1.7v-1.9
		c0,0-1.4-2.2-1.4-4.4s0.5-3.6,3-3.3c2.5,0.3,1.6,4.4,0.8,7.4c-0.8,3-1.1,13.7-1.1,13.7L28,37.1l0.3,2.5l1.5,1.4l5.5,11.8l0.6-0.1h0
		l52.2-8.8l0.7-0.7c0,0,0.3,7.7,0.8,14.3C90.3,64,90.8,78.6,90.3,82.7z"/>
	<polygon class="st5" points="88.9,43.1 88.2,43.8 36,52.6 	"/>
	<g>
		<line class="st8" x1="37.7" y1="20.2" x2="86.4" y2="12.8"/>
		<line class="st8" x1="36.5" y1="38.3" x2="86.4" y2="30.7"/>
	</g>
	<path class="st9" d="M23.2,37.4L15.8,25l-3-0.3l0-0.3l9.9-1.2C22.7,26.4,23.2,37.4,23.2,37.4z"/>
</g>
</svg>
