<?xml version="1.0" encoding="utf-8"?>
<!-- Generator: Adobe Illustrator 21.1.0, SVG Export Plug-In . SVG Version: 6.00 Build 0)  -->
<svg version="1.1" id="Layer_1" xmlns="http://www.w3.org/2000/svg" xmlns:xlink="http://www.w3.org/1999/xlink" x="0px" y="0px"
	 width="108px" height="108px" viewBox="0 0 108 108" style="enable-background:new 0 0 108 108;" xml:space="preserve">
<style type="text/css">
	.st0{fill:#F2F2F2;stroke:#000000;stroke-width:0.75;stroke-linecap:round;stroke-linejoin:round;stroke-miterlimit:10;}
	.st1{fill:#CCCCCC;stroke:#000000;stroke-width:0.75;stroke-linecap:round;stroke-linejoin:round;stroke-miterlimit:10;}
	.st2{fill:#B3B3B3;stroke:#000000;stroke-width:0.5;stroke-linecap:round;stroke-linejoin:round;stroke-miterlimit:10;}
	.st3{fill:#FFFFFF;}
	.st4{fill:#F2F2F2;}
	.st5{fill:none;stroke:#000000;stroke-width:0.75;stroke-linecap:round;stroke-linejoin:round;stroke-miterlimit:10;}
	.st6{fill:none;stroke:#000000;stroke-width:0.5;stroke-linecap:round;stroke-linejoin:round;stroke-miterlimit:10;}
	.st7{fill:#808080;stroke:#000000;stroke-width:0.5;stroke-linecap:round;stroke-linejoin:round;stroke-miterlimit:10;}
	.st8{fill:#E6E6E6;stroke:#000000;stroke-width:0.75;stroke-linecap:round;stroke-linejoin:round;stroke-miterlimit:10;}
</style>
<g>
	<path class="st0" d="M86.5,28.6c-11.2,1.7-69.2,10.4-69.2,10.4c-0.8-1.5-2.3-3.5-4.2-3.6c1.6-0.3,66.4-9.3,69.6-9.8
		C85.5,25.1,86,26.8,86.5,28.6z"/>
	<path class="st1" d="M82.5,65.5c-0.2,0.8-0.2,1.5-0.2,2.1c-0.1,1.2-0.2,2-1.5,2.2c-2.1,0.3-68.6,11.9-74.1,12.8c-0.1,0-0.1,0-0.2,0
		c-0.1,0-0.1,0-0.1,0c0,0,0,0-0.1,0c-1.4-0.6,0.1-31.1,0.5-36.6c0.4-5.5,2.6-6.2,2.6-6.2s2.2-4.3,3.8-4.6l0,0
		c1.9,0.1,3.3,2.1,4.2,3.6c0,0,58-8.6,69.2-10.4c0,0.2,0.1,0.4,0.1,0.6C87.1,31,82.9,63.2,82.5,65.5z"/>
	<path class="st2" d="M33.7,73.6l-21.3,3.6c0,0-2.9-2.2-2.6-5.3c0.3-3.1,2.9-20.2,2-23.5c-0.9-3.3-1.7-8.6-1.7-8.6s1.8-2.8,3-2.1
		c1.2,0.6,3.3,0.9,3,5.9c-0.3,5,0.3,27.4,0.3,27.4l17.6-2.8L33.7,73.6z"/>
	<path class="st3" d="M100.1,34.1c-1-0.5-7-4.7-8.4-5.3c-1.3-0.6-2-0.8-3.4-0.5c-0.1,0-0.8,0.1-1.8,0.3
		c-11.2,1.7-69.2,10.4-69.2,10.4l-0.5,1.7l12.6,7.5c24.6-5.5,49.3-6.4,73-11.8C101.8,35.2,100.8,34.5,100.1,34.1z"/>
	<path class="st4" d="M29.3,48.1L29.3,48.1L30.1,77c0,0,0.1,0,0.3-0.1c0,0,0,0,0,0c3.4-0.6,32.2-5.8,51.8-9.4
		c9.9-1.8,17.4-3.2,18.3-3.4c2.8-0.6,2.8-2,2.8-3.4c-0.1-1.4-0.4-20.9-0.5-23c0-0.6-0.2-1.1-0.4-1.5C78.7,41.7,53.9,42.6,29.3,48.1z
		"/>
	<path class="st5" d="M102.7,37.8c0.1,2.1,0.4,21.6,0.5,23c0.1,1.4,0,2.8-2.8,3.4c-0.9,0.2-8.4,1.6-18.3,3.4
		c-19.6,3.6-48.4,8.7-51.8,9.4c0,0,0,0,0,0c-0.2,0-0.3,0.1-0.3,0.1l-0.8-28.9l-12.6-7.5l0.5-1.7c0,0,58-8.6,69.2-10.4
		c1.1-0.2,1.7-0.3,1.8-0.3c1.4-0.3,2.1-0.1,3.4,0.5c1.3,0.6,7.4,4.8,8.4,5.3C101.1,34.6,102.6,35.7,102.7,37.8z"/>
	<g>
		<line class="st6" x1="32.8" y1="46.9" x2="99.4" y2="36.9"/>
		<path class="st6" d="M97.2,41.4c1.3,1.2,1.7,2-1.2,2.5c-2.9,0.5-63.3,9.7-63.3,9.7"/>
		<path class="st6" d="M97.8,49.9c1.3,1.2,1.7,2-1.2,2.5c-2.9,0.5-63.3,9.7-63.3,9.7"/>
		<path class="st6" d="M98.2,58.2c1.3,1.2,1.7,2-1.2,2.5c-2.9,0.5-63.3,9.7-63.3,9.7"/>
	</g>
	<g>
		<g>
			<polyline class="st7" points="19,57.4 30.3,55.5 30,51.8 22.3,53.1 			"/>
			<polyline class="st7" points="19.6,66.7 30.6,65.1 30.7,61.5 22.4,62.5 			"/>
			<path class="st7" d="M28.7,48.6c0.5-0.1,1,4.3,0.2,5.2c-0.1,0.1-1.2,0.5-1.4,0.6c-0.6,0.1-1.6-0.3-2.8-1.2
				c-1.5-1.3-2-2.5-1.5-3.1C23.8,49.5,26.9,49.2,28.7,48.6z"/>
			<path class="st7" d="M29,57.7c0.5-0.1,1,4.3,0.2,5.2c-0.1,0.1-1.2,0.5-1.4,0.6c-0.6,0.1-1.6-0.3-2.8-1.2c-1.5-1.3-2-2.5-1.5-3.1
				C24.1,58.6,27.2,58.3,29,57.7z"/>
			<path class="st7" d="M29.1,66.8c0.5-0.1,1,4.3,0.2,5.2c-0.1,0.1-1.2,0.5-1.4,0.6c-0.6,0.1-1.6-0.3-2.8-1.2
				c-1.5-1.3-2-2.5-1.5-3.1C24.2,67.8,27.3,67.4,29.1,66.8z"/>
		</g>
		<g>
			<path class="st2" d="M19.8,54.3c1.5-1.2,2.7-1.4,3.1-0.8c0.4,0.6-0.1,1.7-1.5,2.9c-1.5,1.2-2.7,1.4-3.1,0.9
				C17.8,56.6,18.3,55.4,19.8,54.3z"/>
			<path class="st2" d="M19.9,63.6c1.5-1.2,2.7-1.4,3.1-0.8c0.4,0.6,0,1.7-1.5,2.9c-1.5,1.2-2.7,1.4-3.1,0.9
				C18,66,18.5,64.8,19.9,63.6z"/>
			<path class="st2" d="M26.6,51.1c1.5,1.3,2,2.5,1.5,3c-0.5,0.6-1.8,0.3-3.2-1c-1.5-1.3-2-2.5-1.5-3.1
				C23.8,49.5,25.1,49.8,26.6,51.1z"/>
			<path class="st2" d="M26.8,60.2c1.5,1.3,2,2.5,1.5,3c-0.5,0.6-1.8,0.3-3.2-1c-1.5-1.3-2-2.5-1.5-3.1
				C24.1,58.6,25.4,58.9,26.8,60.2z"/>
			<path class="st2" d="M26.9,69.3c1.5,1.3,2,2.5,1.5,3c-0.5,0.6-1.8,0.3-3.2-1c-1.5-1.3-2-2.5-1.5-3.1
				C24.2,67.8,25.4,68.1,26.9,69.3z"/>
		</g>
	</g>
	<path class="st8" d="M31.1,50c0.1,1.7,0.2,24.4,0.3,25.4c0,0.8-0.4,1.4-0.9,1.6c0,0,0,0,0,0c-0.1,0-0.2,0.1-0.3,0.1
		c-0.7,0-1.2-0.7-1.3-1.6l0-0.1c0-6.5-0.2-23.9-0.3-25.2c0-0.6-0.1-1.4-2-2.5c0,0-6.4-4-8.8-5.4c0,4.2,0,27.2,0,27.2
		c0,0.9-0.6,1.6-1.3,1.6c-0.7,0-1.3-0.8-1.3-1.7l0-28.7c-0.4-0.7-1.5-2.3-2.5-2.1c-0.8,0.2-1,0.8-1.3,1.3c1.7,2.2,1.8,6.6,1.6,10.4
		c-0.4,8-1.2,13.9-1.8,17.8l-0.5,4.3c-0.1,1.7,0.9,2.3,1.2,2.4c0.7,0.3,1.1,1.2,0.9,2.1c-0.2,0.9-1.1,0.5-1.7,0.2
		c-1.1-0.4-2.6-1.7-2.6-4.9c0-0.2,0-0.4,0-0.6l0.6-4.7c0.5-3.8,1-9.2,1.4-17c0.2-3.4,0-7.5-1.3-8.1c-0.1,0-0.2,0-0.4,0.2
		c-0.4,0.3-0.9,1.1-1,2.4c-0.3,3.5-0.3,18.1-0.3,27.9c0,5.1,0,8.8,0,9c0,0.8-0.4,1.4-0.9,1.6c-0.1,0-0.1,0-0.2,0c0,0-0.1,0-0.1,0
		c0,0,0,0-0.1,0c-0.7-0.1-1.2-0.8-1.2-1.7c0-1.3-0.1-31.6,0.3-37.2c0.2-2,0.9-3.8,2.1-4.8c0.5-0.4,1.7-0.7,2.3-0.7
		c0.6-1.2,0.2-2.5,2.9-3c0.2,0,0.4,0,0.5,0l0,0c1.9,0.1,3.3,2.1,4.2,3.6c0.1,0.1,0.1,0.2,0.2,0.3l10.2,5.3C29.3,45.6,31,47,31.1,50z
		"/>
</g>
</svg>
