<?xml version="1.0" encoding="utf-8"?>
<!-- Generator: Adobe Illustrator 21.1.0, SVG Export Plug-In . SVG Version: 6.00 Build 0)  -->
<svg version="1.1" id="Layer_1" xmlns="http://www.w3.org/2000/svg" xmlns:xlink="http://www.w3.org/1999/xlink" x="0px" y="0px"
	 width="108px" height="108px" viewBox="0 0 108 108" style="enable-background:new 0 0 108 108;" xml:space="preserve">
<style type="text/css">
	.st0{fill:#F2F2F2;}
	.st1{fill:#FFFFFF;}
	.st2{fill:none;stroke:#000000;stroke-width:0.75;stroke-linecap:round;stroke-linejoin:round;stroke-miterlimit:10;}
	.st3{fill:#E6E6E6;stroke:#000000;stroke-width:0.75;stroke-linecap:round;stroke-linejoin:round;stroke-miterlimit:10;}
	.st4{fill:#FFFFFF;stroke:#000000;stroke-width:0.75;stroke-linecap:round;stroke-linejoin:round;stroke-miterlimit:10;}
	.st5{fill:#999999;stroke:#000000;stroke-width:0.75;stroke-linecap:round;stroke-linejoin:round;stroke-miterlimit:10;}
	.st6{fill:#CCCCCC;stroke:#000000;stroke-width:0.75;stroke-linecap:round;stroke-linejoin:round;stroke-miterlimit:10;}
	.st7{fill:none;stroke:#000000;stroke-width:0.5;stroke-linecap:round;stroke-linejoin:round;stroke-miterlimit:10;}
</style>
<g>
	<path class="st0" d="M95.6,22.3c0,0-1.2-0.6-1.9-0.6S22.5,31.9,22.5,31.9s0,0.1,0,0.3c0,4,0.3,43.4,0.3,49.4c0,0.1,0,0.3,0,0.4
		c0,0.3,0,0.7,0,1.1c0,0,0,0,0,0c0,0.2,0.1,0.5,0.1,0.7c25-3.4,49.4-7.5,73.7-12.3L95.6,22.3z"/>
	<path class="st1" d="M96.7,72.5l0-0.9C72.4,76.3,48,80.4,23,83.9c0.3,1.6,1.2,3,2.4,4c1,0.8,3.5,0.8,6,0.3c2.3-0.4,56-9.7,64-11
		c0.5-0.1,0.9-0.1,1-0.1c1.4-0.1,2.2-0.7,2-1.8C98.2,73.9,96.7,72.5,96.7,72.5z"/>
	<path class="st2" d="M96.4,77c-0.1,0-0.4,0.1-1,0.1c-8,1.3-61.7,10.6-64,11c-2.5,0.4-5,0.5-6-0.3c-1.5-1.2-2.3-2.8-2.5-4.7
		c0,0,0,0,0,0c0-0.4,0-0.8,0-1.1c0-0.2,0-0.3,0-0.4c0-6.1-0.3-45.4-0.3-49.4c0-0.2,0-0.3,0-0.3S93,21.7,93.7,21.7s1.9,0.6,1.9,0.6
		l1.1,50.1c0,0,1.5,1.5,1.7,2.7C98.6,76.3,97.8,76.9,96.4,77z"/>
	<path class="st2" d="M22.9,83.1c0-0.3,0-0.5,0-0.8V82C22.8,82.3,22.9,82.7,22.9,83.1z"/>
	<path class="st2" d="M20.7,45C20.7,45,20.7,45,20.7,45"/>
	<path class="st2" d="M20.6,45c0.1,0.6,0.1,1.5-0.1,2.4"/>
	<path class="st3" d="M23.1,87.4c-0.1-1.3-0.1-3-0.2-4.3c0,0,0,0,0,0c0-0.3,0-0.5,0-0.8V82c0-0.2,0-0.3,0-0.4
		c0-6.1-0.3-45.4-0.3-49.4h0c0,0-0.2-2.4-0.8-4.1c0-0.1-0.1-0.2-0.1-0.3c-0.1-0.3-0.2-0.5-0.4-0.7c-1-1.4-4.3-2.8-5.9-3.1h0
		c-1.4,0.2-2.9,0.3-4.3,1.9c-1.1,1.3-1.3,4.4-1.4,5.3C9.5,33,9.5,35.9,10.4,38c0.7,1.6,4.3,3.9,5.5,4.6c1.3,0.8,2.3,2.1,2.3,3.2
		c0,1-0.8,2.6-0.8,3.7c0,1.1,1.4,1.4,2.3,0.4c0.4-0.5,0.8-1.5,0.9-2.6l0.1,0c0,0,0.7,37,0.6,38.4c-0.1,1.4-0.2,2.7-1,2.6
		c-0.8-0.1-1.8-0.5-2.4,0.6c-0.5,1.2-0.4,2,0.5,3.1c0.7,0.9,1.9,1.3,3.4,1.5C21.7,93.6,23.3,92,23.1,87.4z M20.6,45
		c0-0.1,0-0.2-0.1-0.2c-0.4-1.1-1.1-2.4-3-3.6C15.9,40,12.7,38,12,35.7c-0.6-2.3,0.2-7.6,0.7-8.4c0.9-1.4,2.5-1.2,3.9-0.5
		c1.2,0.6,2.5,1.1,3.1,2.3c0.7,1.4,0.9,6.8,0.8,9.8C20.5,41,20.7,44.7,20.6,45L20.6,45z"/>
	<path class="st4" d="M94.5,21.4l-0.8,0.3c-0.8,0-71.2,10.2-71.2,10.2s0,0.1,0,0.3h0c0,0-0.2-2.4-0.8-4.1c0-0.1-0.1-0.2-0.1-0.3
		c-0.1-0.3-0.2-0.5-0.4-0.7c-1-1.4-4.3-2.8-5.9-3.1c0.1,0,0.2,0,0.3,0c1.5-0.2,26.3-3.7,31.2-4.4c4.9-0.6,37.7-5.4,39.5-5.3
		c1.6,0.1,4.8,1.2,6.4,2.2c0.2,0.2,0.4,0.3,0.6,0.5C94.7,18.2,94.5,21.4,94.5,21.4z"/>
	<path class="st5" d="M20.7,45L20.7,45c-0.1-0.1-0.1-0.2-0.1-0.2c-0.4-1.1-1.1-2.4-3-3.6C15.9,40,12.7,38,12,35.7
		c-0.6-2.3,0.2-7.6,0.7-8.4c0.9-1.4,2.5-1.2,3.9-0.5c1.2,0.6,2.5,1.1,3.1,2.3c0.7,1.4,0.9,6.8,0.8,9.8C20.5,41,20.7,44.7,20.7,45z"
		/>
	<path class="st6" d="M95.4,77.1c0,0.2-0.1,1.4-0.1,2.2c0,1-0.3,1.4-2,2.3c-1.7,0.9-5.6,1-9.6,1.6c-4,0.7-59.5,10.5-61.3,10.4
		c-0.3,0-0.5,0-0.7-0.1c0,0,1.6-1.6,1.4-6.2c-0.1-1.3-0.1-3-0.2-4.3c0.2,1.8,1.1,3.5,2.5,4.7c1,0.8,3.5,0.8,6,0.3
		C33.7,87.7,87.4,78.4,95.4,77.1z"/>
	<path class="st2" d="M95.4,77.1C95.4,77.1,95.4,77.1,95.4,77.1"/>
	<g>
		<line class="st7" x1="27.9" y1="86.3" x2="94.5" y2="74.5"/>
		<line class="st7" x1="26.8" y1="44.1" x2="92.1" y2="33.8"/>
		<line class="st7" x1="24" y1="27.8" x2="91.3" y2="18.9"/>
	</g>
	<path class="st2" d="M22.8,81.6c0-0.2,0-0.3,0-0.3"/>
	<line class="st2" x1="20.6" y1="45" x2="20.6" y2="47.4"/>
</g>
</svg>
