<?xml version="1.0" encoding="utf-8"?>
<!-- Generator: Adobe Illustrator 21.1.0, SVG Export Plug-In . SVG Version: 6.00 Build 0)  -->
<svg version="1.1" id="Layer_1" xmlns="http://www.w3.org/2000/svg" xmlns:xlink="http://www.w3.org/1999/xlink" x="0px" y="0px"
	 width="108px" height="108px" viewBox="0 0 108 108" style="enable-background:new 0 0 108 108;" xml:space="preserve">
<style type="text/css">
	.st0{fill:#B3B3B3;stroke:#231F20;stroke-width:0.75;}
	.st1{fill:#F2F2F2;stroke:#231F20;stroke-width:0.75;}
	.st2{fill:#FFFFFF;stroke:#231F20;stroke-width:0.75;}
</style>
<g>
	<path class="st0" d="M103.7,13.2v1.4l0,3.2L103.5,74c0,2.2-1.8,4-4,4L8.6,97.4c-0.6,0-1.2-0.1-1.8-0.4c-1.3-0.7-2.3-2-2.3-3.6
		L4.3,29.9c0-2.2,1.8-4,4-4L99.7,9.2C102,9.2,103.7,11,103.7,13.2z"/>
	<path class="st1" d="M6.2,93.3l0,1.5c0,0.8,0.2,1.6,0.7,2.2c0.7,1.1,1.9,1.8,3.3,1.8l89.4-19.4c2.2,0,4-1.8,4-4l0.2-57.6"/>
	<path class="st2" d="M6.2,93.3l-0.3-62c0-2.2,1.8-4,4-4l90-16.7c2.1,0,3.9,1.7,4,3.9v0.1l0,3.2"/>
</g>
</svg>
