<?xml version="1.0" encoding="utf-8"?>
<!-- Generator: Adobe Illustrator 21.1.0, SVG Export Plug-In . SVG Version: 6.00 Build 0)  -->
<svg version="1.1" id="Layer_1" xmlns="http://www.w3.org/2000/svg" xmlns:xlink="http://www.w3.org/1999/xlink" x="0px" y="0px"
	 width="108px" height="108px" viewBox="0 0 108 108" style="enable-background:new 0 0 108 108;" xml:space="preserve">
<style type="text/css">
	.st0{fill:#E6E6E6;stroke:#000000;stroke-width:0.5;stroke-linecap:round;stroke-linejoin:round;stroke-miterlimit:10;}
	.st1{fill:#CCCCCC;stroke:#000000;stroke-width:0.5;stroke-linecap:round;stroke-linejoin:round;stroke-miterlimit:10;}
	.st2{fill:#FFFFFF;stroke:#000000;stroke-width:0.5;stroke-linecap:round;stroke-linejoin:round;stroke-miterlimit:10;}
	.st3{fill:none;stroke:#000000;stroke-width:0.25;stroke-linecap:round;stroke-linejoin:round;stroke-miterlimit:10;}
	.st4{fill:#F2F2F2;stroke:#000000;stroke-width:0.5;stroke-linecap:round;stroke-linejoin:round;stroke-miterlimit:10;}
	.st5{fill:#FFFFFF;}
	.st6{fill:#F2F2F2;}
	.st7{fill:#E6E6E6;}
	.st8{fill:none;stroke:#000000;stroke-width:0.5;stroke-linecap:round;stroke-linejoin:round;stroke-miterlimit:10;}
	.st9{fill:#CCCCCC;}
</style>
<g>
	<g>
		<path class="st0" d="M59.6,63.7L59.6,63.7c-0.3,0.3-1.2,0.7-1.3,0.7c-0.3,0.4-0.7,1-0.7,1.5c0,0.3,0.1,0.9,0.2,1.1
			c0.1,0.5,0.5,0.6,0.8,0.7c0.2,0,0.4,0,0.5,0.1l3.4,0.2l-1.9,2.5l-11.4-1.3l2.2-1.9l2,0.1c0.4-0.5,0.7-1,0.7-1.6
			c0-0.6-0.7-1.4-1.2-1.9c-0.9-0.7-1.6-1.6-2.1-2.6c0.1-0.8,1.1-1.1,2.1-1.3c1.2-0.2,1.6-1,1.8-2c0.1-0.4,0.8-0.8,1.5-0.8
			c0.7,0,1.6,0.5,1.8,1.2c0.4,1.6,2.1,1.8,2.7,2.6c0.1,0.1,0.1,0.2,0.1,0.3c-0.1,0.6-0.2,1.1-0.4,1.5C60.2,63,59.9,63.4,59.6,63.7
			L59.6,63.7z"/>
		<path class="st1" d="M49.2,69.1c0,0,2.6,2.5,3.1,5.1c0.5,2.7,2.2,25.7,2.2,25.7l9.6,0.9c0,0,2-6.9,0.4-11.9c-1.6-5-3-18.6-3-18.6
			L49.2,69.1z"/>
		<path class="st0" d="M58.8,86.3c0,0-1.8,5.6,1.2,9.4c2.3,3,3.8,6.1,3.8,6.1l-0.8,1.5l-20.6-1.7c0,0,3.7-5.8,2.5-13.7
			c-1.1-7.8-5.6-11.4-5.6-11.4l1.3-1.5l12.6,0.8L58.8,86.3z"/>
		<path class="st2" d="M52.5,79.5c0,0-2.1,2.9,0.6,10.5c2.2,6,9.9,13.3,9.9,13.3l-21.2-0.8c0,0,3.5-5.3,2.4-13.1
			C43,81.6,40.1,79,40.1,79l-0.7-2.4l12.6,0.6L52.5,79.5z"/>
		<path class="st0" d="M59.3,86.3c0,0,4,2.9,4.6,4.6c0.6,1.8,0.2,9.9,0.2,9.9s2.7-2.2,3-4.6c0.3-2.3-0.1-6.6-0.2-8.8
			c-0.1-2.2-3.8-7.8-3.8-9.9c-0.1-2.1-0.5-9.8-0.5-9.8L60.9,70c0,0,0.1,2.9-0.1,5.1C60.7,77.3,59.9,83.4,59.3,86.3z"/>
		<g>
			<path class="st3" d="M54.6,84.3c0,0-1,2.5-0.2,4.8c0.8,2.3,2.3,2.4,2.3,2.4"/>
			<path class="st3" d="M61.9,82.1c0,0,1.8,1.2,2.9,3.4c1.1,2.2-0.3,3.4-0.3,3.4"/>
			<path class="st3" d="M56.2,76.2c1.4,0.1,3.2,0.3,3.2,0.3"/>
			<line class="st3" x1="49.6" y1="79.7" x2="42.8" y2="79.2"/>
			<line class="st3" x1="50.2" y1="81.6" x2="43.8" y2="81.2"/>
			<line class="st3" x1="55.4" y1="97.9" x2="47.3" y2="97.4"/>
			<line class="st3" x1="57.9" y1="101.2" x2="46.5" y2="100.8"/>
			<line class="st3" x1="56.1" y1="73.7" x2="59" y2="74.1"/>
		</g>
		<path class="st4" d="M47.9,89.9c-0.7-3.3,0.5-4.9,1.4-5.7l2.7,9.1C51,93.4,48.7,93.4,47.9,89.9z"/>
		<path class="st1" d="M48,94.5l-3.4-11.4l4.5,0.3l0.2,0.7c-0.9,0.8-2.1,2.5-1.4,5.7c0.5,2.1,1.5,3,2.5,3.2c-0.4,0.5-0.6,1-0.9,1.5
			L48,94.5z"/>
		<path class="st1" d="M52,93.2l0.5,1.5l-2.9-0.1c0.2-0.5,0.5-1,0.9-1.5C51,93.3,51.6,93.3,52,93.2z"/>
		<line class="st2" x1="51.9" y1="77.2" x2="53.2" y2="75.8"/>
	</g>
	<g>
		<path class="st5" d="M49.5,59.5l0.3-12.9l4.3,0.1c0.4,5.4,0.5,10.8,0.6,16.3C51,62.4,49.5,60.1,49.5,59.5z"/>
		<path class="st6" d="M54.6,63c-0.1-5.5-0.2-10.9-0.6-16.3l4,0.1c-0.1,5.3,0.3,10.8,0.8,16.1c-0.7,0.2-1.5,0.3-2.5,0.3
			C55.7,63.2,55.1,63.1,54.6,63z"/>
		<path class="st7" d="M62.3,46.8l0,13.6c0,0-0.6,1.8-3.4,2.5c-0.6-5.4-0.9-10.8-0.8-16.1L62.3,46.8z"/>
		<path class="st8" d="M49.5,59.5l0.3-12.9l12.6,0.2l0,13.6c0,0-1,2.8-5.9,2.8C51.5,63.1,49.5,60.2,49.5,59.5z"/>
		<path class="st6" d="M54.3,51.9c-0.1-2.7-0.3-5.5-0.5-8.1c0.7-0.1,1.4-0.1,2.3-0.1c0.7,0,1.5,0.1,2.1,0.3c-0.1,2.8-0.1,5.6,0,8.4
			c-0.4,0.3-0.9,0.5-1.5,0.5C55.4,52.9,54.8,52.5,54.3,51.9z"/>
		<path class="st5" d="M52.7,49.9c-1.4-0.6-3.3-1.8-2.9-3.5c0.3-1.3,1.6-2.3,3.9-2.6c0.3,2.7,0.4,5.4,0.5,8.1
			C53.8,51.2,53.5,50.2,52.7,49.9z"/>
		<path class="st7" d="M58.1,44c2.5,0.5,4.2,1.8,4.1,3.2c-0.1,1.8-2.1,2.1-2.5,3c-0.3,0.6-0.7,1.6-1.6,2.2C58,49.5,58,46.7,58.1,44z
			"/>
		<path class="st8" d="M49.6,53.6c0,0,1.5,3.1,6.8,3.2c4.7,0.1,6-2.1,6-2.1"/>
		<path class="st8" d="M56.6,52.9c2-0.1,2.7-1.8,3.2-2.7c0.5-0.9,2.5-1.2,2.5-3c0.1-1.8-2.5-3.3-6.2-3.5c-3.7-0.2-5.8,1-6.2,2.7
			c-0.4,1.7,1.5,2.9,2.9,3.5C54.1,50.5,53.9,53,56.6,52.9z"/>
	</g>
	<g>
		<path class="st1" d="M48.7,38.5c0,0,2.8-2.3,3.5-4.9c0.7-2.6,4.1-25.4,4.1-25.4L65.9,8c0,0,1.5,7-0.5,11.9
			c-1.9,4.9-4.4,18.4-4.4,18.4L48.7,38.5z"/>
		<path class="st0" d="M59.6,22.1c0,0-1.4-5.7,1.9-9.3C64,10,65.6,7,65.6,7l-0.7-1.5L44.3,5.7c0,0,3.2,6.1,1.5,13.8
			c-1.7,7.7-6.4,10.9-6.4,10.9l1.2,1.6l12.7,0.1L59.6,22.1z"/>
		<path class="st2" d="M52.7,28.4c0,0-1.9-3.1,1.4-10.5c2.6-5.8,10.8-12.5,10.8-12.5L43.7,4.7c0,0,3.1,5.6,1.4,13.3
			c-1.7,7.7-4.8,10.1-4.8,10.1l-0.9,2.4L52,30.8L52.7,28.4z"/>
		<path class="st0" d="M60,22.1c0,0,4.2-2.6,4.9-4.3c0.7-1.7,0.9-9.8,0.9-9.8s2.5,2.4,2.7,4.8c0.2,2.3-0.6,6.5-0.8,8.8
			c-0.2,2.2-4.3,7.5-4.6,9.6C63,33.3,62,40.9,62,40.9l-1.6-2.3c0,0,0.3-2.9,0.3-5.1C60.7,31.3,60.4,25.1,60,22.1z"/>
		<g>
			<path class="st3" d="M55.3,23.8c0,0-0.8-2.6,0.1-4.8c0.9-2.2,2.5-2.3,2.5-2.3"/>
			<path class="st3" d="M62.4,26.5c0,0,1.9-1.1,3.1-3.2c1.2-2.1,0-3.4,0-3.4"/>
			<path class="st3" d="M56.2,32c1.4,0,3.2-0.1,3.2-0.1"/>
			<line class="st3" x1="49.9" y1="28.1" x2="43" y2="28.1"/>
			<line class="st3" x1="50.6" y1="26.2" x2="44.2" y2="26.1"/>
			<line class="st3" x1="57" y1="10.3" x2="48.9" y2="10.2"/>
			<line class="st3" x1="59.7" y1="7.2" x2="48.3" y2="6.8"/>
			<line class="st3" x1="55.9" y1="34.5" x2="58.8" y2="34.3"/>
		</g>
		<path class="st4" d="M48.9,17.8c-0.9,3.2,0.1,5,0.9,5.8l3.4-8.8C52.2,14.5,49.9,14.3,48.9,17.8z"/>
		<path class="st1" d="M49.4,13.1l-4.3,11.1l4.5,0l0.3-0.7C49,22.7,48,21,48.9,17.8c0.6-2.1,1.7-2.8,2.7-3.1c-0.3-0.5-0.6-1-0.7-1.5
			L49.4,13.1z"/>
		<path class="st1" d="M53.2,14.8l0.6-1.5l-2.9-0.1c0.2,0.5,0.4,1,0.7,1.5C52.3,14.6,52.8,14.7,53.2,14.8z"/>
		<line class="st2" x1="52" y1="30.7" x2="53.2" y2="32.2"/>
		<path class="st6" d="M56.1,51.5c-0.5-0.2-0.9-0.6-1-0.8c-0.2-1.1-0.6-1.8-1.7-2.2c-0.9-0.3-1.9-0.7-2-1.5c0.3-0.9,1-1.8,1.8-2.3
			C54.8,46.6,55.9,48.9,56.1,51.5z"/>
		<path class="st9" d="M58.1,43.9c0.1,0.2,0.3,0.5,0.5,0.7c0.3,0.2,0.6,0.5,0.9,0.8l0,0l0,0c0.6,0.7,1,1.6,1.1,2.6
			c0,0.1-0.1,0.2-0.1,0.2c-0.5,0.7-2.1,0.8-2.4,2.3c0,0.1,0,0.1-0.1,0.2C58,48.5,58,46.2,58.1,43.9z"/>
		<path class="st7" d="M61.9,40.8l-1.7-2.7l-11.5,0.4l2,2.1c0,0,0.9,0,2.2,0c0.7,0.5,1.5,1.3,1.5,2.2c0,0.6-0.6,1.3-1.1,1.8
			c0,0,0,0-0.1,0c1.5,2,2.6,4.3,2.9,6.9c0.1,0.1,0.3,0.1,0.4,0.1c0.6,0.1,1.3-0.3,1.5-0.8c0-2.3,0-4.6,0.1-6.8
			c-0.2-0.4-0.4-0.8-0.4-1.3c0-0.8,0.2-1.5,0.5-2c0.4,0,0.7,0,1,0L61.9,40.8z"/>
		<path class="st8" d="M61.9,40.8l-1.7-2.7l-11.5,0.4l2,2.1c0,0,1.1,0,2.6,0c0.6,0.6,1,1.4,1,2.2c0,0.6-0.6,1.3-1.1,1.8
			c-0.8,0.6-1.5,1.4-1.8,2.4c0.1,0.8,1,1.2,2,1.5c1.1,0.4,1.5,1.1,1.7,2.2c0.1,0.4,0.7,0.9,1.4,0.9c0.7,0.1,1.4-0.3,1.6-1
			c0.4-1.5,1.9-1.6,2.4-2.3c0.1-0.1,0.1-0.2,0.1-0.2c-0.1-1-0.5-1.9-1.2-2.6l0,0l0,0c-0.3-0.3-0.6-0.6-0.9-0.8
			c-0.4-0.5-0.9-1.2-0.9-1.9c0-0.9,0.2-1.6,0.4-2c0.4,0,0.8,0,1,0L61.9,40.8z"/>
	</g>
</g>
</svg>
