<?xml version="1.0" encoding="utf-8"?>
<!-- Generator: Adobe Illustrator 22.1.0, SVG Export Plug-In . SVG Version: 6.00 Build 0)  -->
<svg version="1.1" id="Layer_1" xmlns="http://www.w3.org/2000/svg" xmlns:xlink="http://www.w3.org/1999/xlink" x="0px" y="0px"
	 width="108px" height="108px" viewBox="0 0 108 108" style="enable-background:new 0 0 108 108;" xml:space="preserve">
<style type="text/css">
	.st0{fill:#FFFFFF;stroke:#000000;stroke-width:0.485;stroke-linecap:round;stroke-linejoin:round;stroke-miterlimit:10;}
	.st1{fill:#E6E6E6;stroke:#000000;stroke-width:0.2425;stroke-linecap:round;stroke-linejoin:round;stroke-miterlimit:10;}
	.st2{fill:#B3B3B3;stroke:#000000;stroke-width:0.2425;stroke-miterlimit:10;}
	.st3{opacity:0.5;}
	.st4{fill:#F2F2F2;}
</style>
<g>
	<g>
		<g>
			<polygon class="st0" points="91.6,71.5 16.8,79 16.9,35.5 91.7,29.1 			"/>
			<polygon class="st1" points="91.6,42.3 16.9,49.1 16.9,35.5 91.7,29.1 			"/>
			<g>
				<path class="st2" d="M42,36.7l-2.5,0.2c-0.3,0-1.1,0-1.1,0.4c0,0.3,0.3,0.5,0.4,0.7l2.1,2c0.8,0.7,1.4,1.4,1.4,2.4
					s-0.5,2.5-3.2,2.7l-3.5,0.3L35,43.1l2.7-0.2c0.3,0,1.1,0,1.1-0.4c0-0.3-0.3-0.5-0.5-0.7l-2.1-2c-0.7-0.7-1.4-1.4-1.4-2.5
					c0-1,0.5-2.5,3.1-2.7l3.3-0.3L42,36.7z"/>
				<path class="st2" d="M52.9,33.3l-1.8,0.1c-2.2,0.2-4.2,0.7-5.8,2.3c-1.4,1.5-2.1,3.5-2.1,5.4c0,1.9,0.7,3.7,1.8,5.1l2.5-1.8
					c-0.7-1-1.2-2.1-1.2-3.3l3.4-0.3v3.4l3.1-0.3L52.9,33.3z M49.7,38.6l-3.1,0.3c0.4-1,0.9-2.2,3.1-2.4V38.6z"/>
				<path class="st2" d="M57.7,41.2l4.2-0.3l-0.8,2.5l-6.6,0.5V33.2l3.2-0.3V41.2z"/>
				<path class="st2" d="M70.6,34.2l-4.9,0.4v1.6l4.5-0.4l-0.8,2.5l-3.7,0.3v1.9l5.3-0.4l-0.8,2.5l-7.7,0.7V32.6l7.3-0.7L70.6,34.2z
					"/>
			</g>
			<g>
				<path class="st2" d="M20.1,75.4v-5l9.1-10.4c0.9-1,1.3-1.6,1.3-2.7c0-1.3-0.8-2.2-2.3-2c-1.1,0.1-2.3,0.7-2.3,2.5l-5.7,0.5
					c0-4.8,3.7-7.8,8.1-8.1c4.7-0.4,8.1,2,8.1,6.6c0,2.5-1.1,4.1-3.2,6.2l-6,6.7l9.2-0.9v5L20.1,75.4z"/>
				<path class="st2" d="M59.2,57.4c-0.5,0-1-0.2-1.2-0.3c-0.2-0.2-0.3-0.5-0.3-0.7c0-0.5,0.4-1.3,1.5-1.5L59.2,57.4z M67.2,61.7
					c0-1.4-0.3-2.6-1.3-3.3c-0.8-0.5-1.9-0.9-3.5-1h-1v-2.7c0.8,0,2.1,0,2.8,0.7l2.7-2.6c-1.3-1.1-3-1.4-5.1-1.4v-2l-3.2,0.3v2
					c-3.3,0.7-5.3,2.8-5.3,5.4c0,1.3,0.4,2.4,1.2,3.1s2,1,3.5,1.1h1v3c-1.4,0.1-2.8,0-3.8-0.8l-2.7,2.7c1.6,1.3,3.6,1.6,6,1.5V70
					l3.2-0.3v-2.5C64.9,66.3,67.2,64.4,67.2,61.7z M63,62.1c0,0.7-0.5,1.2-1.5,1.5v-2.7c0.4,0,0.9,0,1.2,0.3
					C62.8,61.5,63,61.8,63,62.1z"/>
				<path class="st2" d="M67.9,70.8v-5.1L78.3,55c1.1-1.1,1.4-1.8,1.4-2.7c0-1.3-0.9-2.2-2.6-2.1c-1.2,0.1-2.6,0.8-2.6,2.6l-6.6,0.7
					c0-4.8,4.3-7.9,9.2-8.3c5.4-0.4,9.3,2,9.3,6.6c0,2.6-1.3,4.1-3.6,6.4l-6.9,6.8l10.5-1v5L67.9,70.8z"/>
				<path class="st2" d="M45.4,59.7c-0.1-0.1-0.2-0.2-0.4-0.1c-0.2,0-0.4,0.1-0.5,0.2c-0.1,0.1-0.2,0.3-0.2,1.1c0,0.9,0.1,1,0.2,1.1
					c0.1,0.1,0.3,0.2,0.5,0.1c0.2-0.1,0.4-0.1,0.5-0.2c0.1-0.1,0.2-0.3,0.2-1.1C45.7,60,45.5,59.9,45.4,59.7z M45.4,59.7
					c-0.1-0.1-0.2-0.2-0.4-0.1c-0.2,0-0.4,0.1-0.5,0.2c-0.1,0.1-0.2,0.3-0.2,1.1c0,0.9,0.1,1,0.2,1.1c0.1,0.1,0.3,0.2,0.5,0.1
					c0.2-0.1,0.4-0.1,0.5-0.2c0.1-0.1,0.2-0.3,0.2-1.1C45.7,60,45.5,59.9,45.4,59.7z M49.2,59.3l-0.7,0.1v0.9l0.7-0.1
					c0.3,0,0.5-0.3,0.5-0.5C49.7,59.4,49.6,59.3,49.2,59.3z M45,59.6c-0.2,0-0.4,0.1-0.5,0.2c-0.1,0.1-0.2,0.3-0.2,1.1
					c0,0.9,0.1,1,0.2,1.1c0.1,0.1,0.3,0.2,0.5,0.1c0.2-0.1,0.4-0.1,0.5-0.2s0.2-0.3,0.2-1.1c0-0.9-0.1-1-0.2-1.1
					C45.3,59.6,45.2,59.6,45,59.6z M45,53.6c-4.3,0.4-7.8,3.9-7.8,8s3.5,6.9,7.8,6.5c4.4-0.4,7.9-4.1,8-8
					C52.9,56.1,49.3,53.1,45,53.6z M42.8,59.8L40.6,60v0.8l1.9-0.2v1l-1.9,0.2v1.9l-1.2,0.1v-4.6l3.4-0.3V59.8z M46.4,62.7
					c-0.3,0.3-0.8,0.5-1.4,0.7c-0.7,0.1-1-0.1-1.4-0.3C43,62.6,43,61.9,43,61.2c0-0.7,0-1.3,0.5-1.9c0.3-0.3,0.8-0.5,1.4-0.7
					s1.1,0.1,1.4,0.3c0.5,0.4,0.5,1.1,0.5,1.8C46.9,61.5,46.9,62.1,46.4,62.7z M49.8,62.8l-0.9-1.6h-0.4v1.8L47.3,63v-4.6l2-0.2
					c1.1-0.1,1.8,0.5,1.8,1.3c0,0.7-0.4,1.1-0.9,1.3l1.1,1.8L49.8,62.8z M45.4,59.7c-0.1-0.1-0.2-0.2-0.4-0.1
					c-0.2,0-0.4,0.1-0.5,0.2c-0.1,0.1-0.2,0.3-0.2,1.1c0,0.9,0.1,1,0.2,1.1c0.1,0.1,0.3,0.2,0.5,0.1c0.2-0.1,0.4-0.1,0.5-0.2
					c0.1-0.1,0.2-0.3,0.2-1.1C45.7,60,45.5,59.9,45.4,59.7z M45.4,59.7c-0.1-0.1-0.2-0.2-0.4-0.1c-0.2,0-0.4,0.1-0.5,0.2
					c-0.1,0.1-0.2,0.3-0.2,1.1c0,0.9,0.1,1,0.2,1.1c0.1,0.1,0.3,0.2,0.5,0.1c0.2-0.1,0.4-0.1,0.5-0.2c0.1-0.1,0.2-0.3,0.2-1.1
					C45.7,60,45.5,59.9,45.4,59.7z"/>
			</g>
		</g>
	</g>
	<g>
		<g class="st3">
			<g>
				<polygon class="st4" points="7.7,72.8 7.7,82.8 100.3,72.6 100.3,40.2 				"/>
			</g>
		</g>
		<g>
			<path d="M99.8,25.8v46.4l-91.6,10V33.6L99.8,25.8 M100.3,25.2L7.7,33.1v49.7l92.6-10.2V25.2L100.3,25.2z"/>
		</g>
	</g>
</g>
</svg>
