<?xml version="1.0" encoding="utf-8"?>
<!-- Generator: Adobe Illustrator 21.1.0, SVG Export Plug-In . SVG Version: 6.00 Build 0)  -->
<svg version="1.1" id="Layer_1" xmlns="http://www.w3.org/2000/svg" xmlns:xlink="http://www.w3.org/1999/xlink" x="0px" y="0px"
	 width="108px" height="108px" viewBox="0 0 108 108" style="enable-background:new 0 0 108 108;" xml:space="preserve">
<style type="text/css">
	.st0{fill:#F2F2F2;stroke:#231F20;stroke-width:0.75;}
	.st1{fill:#E6E6E6;stroke:#231F20;stroke-width:0.75;}
	.st2{fill:#FFFFFF;stroke:#231F20;stroke-width:0.75;}
	.st3{fill:#FFFFFF;stroke:#231F20;stroke-width:0.5;}
	.st4{fill:none;stroke:#231F20;stroke-width:0.5;}
</style>
<g>
	<path class="st0" d="M72.5,70c0,0-0.9,0-2,0H36.2c-1.1,0-1.9,0.1-1.9,0.1l0-47.5c0-1.1,38.4-1.1,38.4,0L72.5,70z"/>
	<path class="st1" d="M34.2,70.1c0,0-1,0.2-2.1,0.4l-25.6,16c-1.1,0.2-2-0.5-2-1.6L4.2,37.2C4.3,36.8,34,21.8,34,21.8L34.2,70.1z"/>
	<path class="st2" d="M72.7,70c0,0,0.9,0.1,2,0.3l26.9,15.3c1.1,0.2,2-0.5,2-1.6l0.1-45.1c0-1.1-31-17.3-31-16.2L72.7,70z"/>
	<path class="st3" d="M72.9,22.1c0,0.3-0.3,0.6-0.6,0.6l-37.8,0.1c-0.4,0-0.6-0.3-0.6-0.6l0,0c0-0.3,0.3-0.6,0.6-0.6l37.8-0.1
		C72.6,21.5,72.9,21.7,72.9,22.1L72.9,22.1z"/>
	<path class="st3" d="M4.2,37.2c0,0.3,0.4,0.6,0.7,0.5L33.1,23c0.3,0,0.6-0.4,0.5-0.7l0,0c0-0.3-0.4-0.6-0.7-0.5L4.8,36.5
		C4.4,36.6,4.2,36.9,4.2,37.2L4.2,37.2z"/>
	<path class="st3" d="M103.8,38.3c-0.1,0.3-0.4,0.6-0.7,0.5L73.6,22.7c-0.3,0-0.6-0.4-0.5-0.7l0,0c0-0.3,0.4-0.6,0.7-0.5l29.4,16.1
		C103.6,37.7,103.8,38,103.8,38.3L103.8,38.3z"/>
	<line class="st4" x1="32.4" y1="24.4" x2="32.7" y2="68.9"/>
	<line class="st4" x1="74.1" y1="24.2" x2="74.4" y2="68.6"/>
	<line class="st4" x1="70.8" y1="24.2" x2="71.1" y2="68.6"/>
	<line class="st4" x1="35.7" y1="23.9" x2="36" y2="68.4"/>
</g>
</svg>
