<?xml version="1.0" encoding="utf-8"?>
<!-- Generator: Adobe Illustrator 21.1.0, SVG Export Plug-In . SVG Version: 6.00 Build 0)  -->
<svg version="1.1" id="Layer_1" xmlns="http://www.w3.org/2000/svg" xmlns:xlink="http://www.w3.org/1999/xlink" x="0px" y="0px"
	 width="108px" height="108px" viewBox="0 0 108 108" style="enable-background:new 0 0 108 108;" xml:space="preserve">
<style type="text/css">
	.st0{fill:#F2F2F2;stroke:#000000;stroke-width:0.5;stroke-linecap:round;stroke-linejoin:round;stroke-miterlimit:10;}
	.st1{fill:#B3B3B3;stroke:#000000;stroke-width:0.5;stroke-linecap:round;stroke-linejoin:round;stroke-miterlimit:10;}
	.st2{fill:#F2F2F2;}
	.st3{fill:#FFFFFF;}
	.st4{fill:#E6E6E6;}
	.st5{fill:none;stroke:#000000;stroke-width:0.5;stroke-linecap:round;stroke-linejoin:round;stroke-miterlimit:10;}
	.st6{fill:#E6E6E6;stroke:#000000;stroke-width:0.5;stroke-linecap:round;stroke-linejoin:round;stroke-miterlimit:10;}
	.st7{fill:#CCCCCC;stroke:#000000;stroke-width:0.5;stroke-linecap:round;stroke-linejoin:round;stroke-miterlimit:10;}
	.st8{fill:#999999;stroke:#000000;stroke-width:0.5;stroke-linecap:round;stroke-linejoin:round;stroke-miterlimit:10;}
	.st9{fill:#808080;stroke:#000000;stroke-width:0.5;stroke-linecap:round;stroke-linejoin:round;stroke-miterlimit:10;}
	.st10{fill:#FFFFFF;stroke:#000000;stroke-width:0.5;stroke-linecap:round;stroke-linejoin:round;stroke-miterlimit:10;}
	.st11{fill:none;stroke:#000000;stroke-width:0.25;stroke-linecap:round;stroke-linejoin:round;stroke-miterlimit:10;}
	.st12{fill:#CCCCCC;}
</style>
<g>
	<g>
		<path class="st0" d="M52.7,87l1-11.2l-7.7-1.6l-0.1,2.3l-1.1,3.7l0.3,8.3c2.8,0.4,5.5,0.4,8.6,0.4L52.7,87z"/>
		<path class="st1" d="M51.4,103.7c0,0.3,0,0.4,0,0.4l0,0.4l0,0v-0.3l-1,0.3v0l0.4-0.2c0,0,0.6-1.9-0.6-1.7c-1.3,0.2-2.1-0.7-2.1-3
			c0-1.6,1.3-5.5,2.2-8c0.3,0.1,0.5,0.1,0.7,0.2l0,0C50.1,94,49.5,95.5,49,98c-0.9,4.2,0.7,3.9,1.8,4.1c0.2,0,0.3,0.1,0.4,0.3v0
			l0.1,1.8C51.2,104.1,51.3,104,51.4,103.7z"/>
		<path class="st1" d="M55.5,92.5l-0.3,3.1l-0.3,3.6l-0.1,0.9l-1.3,0.9l-1,0.7l-0.4,2.2v0l-0.1,0.6l-0.1,0l-0.5,0l0-0.4
			c0,0,0-0.2,0-0.4c0,0.3-0.1,0.4-0.1,0.4l-0.1-1.8c0.1,0.2,0.2,0.4,0.2,0.6c0-0.2,0-0.5,0-0.7c0-2,1.6-2.2,1.8-3.9
			c0.2-1.4,0.8-4.4,0-5.3c-0.8-1-1.7-1.1-2.2-1.2c0,0-0.1,0-0.2,0c-0.2,0-0.4-0.1-0.7-0.2c-0.9,2.4-2.2,6.4-2.2,8
			c0,2.3,0.8,3.3,2.1,3c1.3-0.2,0.6,1.7,0.6,1.7l-0.4,0.2v0l1-0.3v0.3l-1,0.1l-0.3,0l0,0l-1.7-1l-0.1-0.1h0l-0.6-0.4l-1.9-1.1v0
			l-0.1-3.3l-0.2-4L45,88.6c0.9,0.1,1.8,0.2,2.8,0.3c0.2,0,0.4,0,0.6,0c0.2,0,0.4,0,0.6,0c0.7,0,1.3,0,2,0.1h0.1c0.6,0,1.2,0,1.9,0
			h0.7L55.5,92.5z"/>
		<polygon class="st1" points="50.4,103 50.3,104.5 50.3,104.5 50.3,104.6 50.2,105.4 49.7,105.3 49.7,105.3 39.7,103 39.7,102.5 
			39.6,101.5 39.6,100.7 45.5,102 46.5,102.2 46.8,102.2 		"/>
		<path class="st2" d="M47.1,81.5l-6.8-1.7c0,0,1.1,3.7,1.4,4.8c0.2,0.8,0.4,1.8,0.2,2.7c2.2,0.5,4.4,1.1,6.5,1.7
			C48.3,86.1,47.1,81.5,47.1,81.5z"/>
		<path class="st3" d="M46,98.3c0.6-4.4,2.4-5.5,2.5-8.5c0-0.2,0-0.4,0-0.7c-2.2-0.6-4.4-1.2-6.5-1.7c-0.1,0.3-0.2,0.7-0.3,1
			c-0.6,1.3-2.6,5-3.6,7c-0.2,0.3-0.3,0.7-0.4,1.1c2.8,0.7,5.6,1.5,8.4,2.3C45.9,98.7,45.9,98.5,46,98.3z"/>
		<path class="st4" d="M45.9,98.9c-2.8-0.8-5.6-1.5-8.4-2.3c-0.6,1.9-0.4,4.2,1.2,4.7c1.9,0.6,10,2.4,10,2.4S45.7,102.8,45.9,98.9z"
			/>
		<path class="st5" d="M40.3,79.9c0,0,1.1,3.7,1.4,4.8c0.3,1.1,0.5,2.5-0.2,3.7c-0.6,1.3-2.6,5-3.6,7c-1,2-1.1,5.2,0.8,5.8
			c1.9,0.6,10,2.4,10,2.4s-3.3-1-2.8-5.4c0.6-4.4,2.4-5.5,2.5-8.5c0.1-2.9-1.3-8.3-1.3-8.3L40.3,79.9z"/>
		<polygon class="st6" points="39,102.6 39.5,102.5 49.7,104.7 49.7,105.5 49.1,105.6 39.1,103.5 		"/>
		<path class="st7" d="M55.2,98.6c-0.1,0.1-0.2,0.3-0.4,0.5c-0.4,0.6-1,1.3-1.4,1.8c-0.3,0.5-0.6,0.8-0.6,0.8l-0.3,1.9v0l-0.2,1.2
			l-0.5-0.4l-0.4-0.3c0,0,0-0.2,0-0.4c0,0,0,0,0,0c0-0.2,0-0.4,0-0.7v-0.1c0-0.2,0-0.5,0-0.7c0-2,1.6-2.2,1.8-3.9
			c0.2-1.4,0.8-4.4,0-5.3c-0.8-1-1.7-1.1-2.2-1.2c0,0-0.1,0-0.2,0c-0.2,0-0.4-0.1-0.7-0.2c-0.6-0.1-1.2-0.3-1.2-0.3l0.2-0.7l0,0
			c0,0,0.5,0.1,1.3,0.3c0.8,0.2,2,0.5,2.7,0.9h0c0.4,0.2,0.7,0.3,0.8,0.5c0.3,0.4,0.8,1.8,1.1,3.2C55.4,96.9,55.6,98.1,55.2,98.6z"
			/>
		<path class="st6" d="M51.2,104.2v1.1c0,0-0.8,0.8-1.6,0.3v-0.4l0-0.6l0.3-0.1l0,0l0.1,0l0.1,0L51.2,104.2z"/>
		<path class="st6" d="M52.4,105.2c-0.8,0.5-1.2,0.2-1.2,0.2v-0.1l0-0.8l0-0.4l0.6-0.3l0,0l0.5-0.2l0,0l0.2-0.1l0.1,0
			C52.8,103.5,53.2,104.7,52.4,105.2z"/>
		<path class="st7" d="M47,89.1c-0.1,0.4-0.3,1-0.6,1.5l-1.9-0.4c0,0-1.2-0.8-0.8-3.2c0.1-0.6,0.2-1.1,0.4-1.5v0l2.7,0.6
			C46.9,86,47.3,88.1,47,89.1z"/>
		<path class="st8" d="M44.6,90.1l-0.4,1.1l-2.5-0.5c0,0,1.5-2.2,1.5-3.2c0-0.7-0.1-2.4-0.1-2.4l1.1,0.2v0c-0.1,0.4-0.2,0.8-0.4,1.5
			C43.4,89.3,44.6,90.1,44.6,90.1z"/>
		<path class="st9" d="M46.4,90.5c-0.3,0.6-0.5,1-0.5,1l-1.6-0.3l-0.1,0l0.4-1.1L46.4,90.5z"/>
		<polygon class="st10" points="44.3,91.2 44.2,91.3 44.2,91.2 		"/>
		<path class="st10" d="M44.8,84.3"/>
		<polyline class="st10" points="45.7,80.4 46.9,76.7 46.9,74.2 		"/>
		<path class="st10" d="M51.2,85c0,0-0.9-0.2-1.4,0.1"/>
		<path class="st10" d="M51.1,84.6c-0.2-0.2-0.8-0.7-1.7-0.6"/>
		<path class="st1" d="M53.2,98.4c-0.3,1.7-1.8,1.9-1.8,3.9c0,0.2,0,0.4,0,0.7c0-0.2-0.1-0.4-0.2-0.6v0c-0.1-0.1-0.2-0.2-0.4-0.3
			c-1-0.2-2.7,0-1.8-4.1c0.6-2.4,1.1-4,1.9-6.1l0,0c0.1,0,0.2,0,0.2,0c0.5,0.1,1.4,0.2,2.2,1.2C54.1,94,53.5,97,53.2,98.4z"/>
		<path class="st10" d="M51.4,102.9L51.4,102.9c0,0.3,0,0.6,0,0.8c0,0,0,0,0,0c0,0.3-0.1,0.4-0.1,0.4l-0.1-1.8
			C51.3,102.5,51.4,102.7,51.4,102.9z"/>
		<path class="st6" d="M56,90.7c-0.6-1-2-2.5-2.1-9.5c0-1.9,0.1-3.6,0.3-4.2c0.2-1,0.3-1.4,0.3-1.4l-3.1-0.8c-0.1-0.3-0.3-0.8,0-1
			c0,0,0,0,0-0.1c0.5-0.2,0.8-0.7,0.8-1.2c0-0.7-0.7-1.3-1.5-1.3c-0.8,0-1.5,0.6-1.5,1.3c0,0.3,0.1,0.6,0.3,0.8
			c0.1,0.3-0.1,0.7-0.3,0.9l-2.6-0.7l-0.8,0.7l7.5,2c0,0-0.8,1-1,2.7s-1.5,7.8-1.4,8.6c0.1,0.9,0,1.8,0.8,2.7
			c0.8,0.9,2.8,2.6,2.7,4.2c-0.1,1.2-0.2,4.8-1.1,5.7c-0.9,0.9-1.2,1.7-1.3,2.5c-0.1,0.9-0.1,1.2-0.1,1.2l0.9-0.4
			c0,0,0.2-1.7,0.8-1.8c0.6-0.2,3.1-1.4,3.1-4.6C56.7,93.8,56.6,91.7,56,90.7z"/>
		<path class="st6" d="M51,88.6c0,0.1,0,0.2,0,0.3c0,0.3,0,0.6-0.1,0.7c0,0.1-0.2,0.6-0.5,1.3c-0.1,0.2-0.2,0.5-0.3,0.7
			c-0.9,2.4-2.2,6.4-2.2,8c0,2.3,0.8,3.3,2.1,3c1.3-0.2,0.6,1.7,0.6,1.7l-0.4,0.2l-0.1,0.1l-0.2,0.1c0,0,0,0,0,0
			c0-0.1,0.2-0.8-0.8-0.8c-0.3,0-0.6-0.1-1-0.2c-0.1,0-0.1-0.1-0.2-0.1c-0.2-0.1-0.4-0.2-0.6-0.4c-0.4-0.3-0.7-0.6-1-1
			c-0.2-0.3-0.4-0.6-0.6-1c-0.6-1.5-0.9-3.9,0.6-7.1c0.8-1.7,1.1-3.6,1.3-5.3c0.1-1.7,0.1-3.1-0.1-4c-0.1-0.7-0.2-1.4-0.3-2
			c0-0.1,0-0.1,0-0.2c0-0.2-0.1-0.4-0.1-0.5c0,0,0,0,0,0c-0.1-0.4-0.1-0.6-0.1-0.6l-6.9-1.7l1-0.8l6.7,1.7c0,0,2.8,6.4,2.9,6.7
			c0,0.1,0.1,0.2,0.1,0.4c0,0,0,0.1,0,0.2C51,88.2,51,88.4,51,88.6C51,88.6,51,88.6,51,88.6z"/>
		<g>
			<line class="st11" x1="48.1" y1="76.1" x2="51.6" y2="76.9"/>
			<line class="st11" x1="51.3" y1="78.6" x2="47.8" y2="77.7"/>
			<polyline class="st11" points="48.5,79.4 51,80.1 50.5,82.6 			"/>
			<line class="st11" x1="46.3" y1="82.6" x2="42.1" y2="81.7"/>
			<line class="st11" x1="46.2" y1="84.2" x2="42.8" y2="83.5"/>
			<path class="st11" d="M44.6,100.5c0,0-0.6-2.1,0.1-4.2c0.7-2.1,1.3-3.3,1.3-3.3"/>
			<path class="st11" d="M38.4,99.2c0,0-0.4-1.8,0.7-3.5c1-1.7,2.1-3.8,2.1-3.8"/>
			<path class="st11" d="M53.5,89.6l-0.6-0.7c0,0,0.6-0.8,0.3-2.1c-0.2-1.3-1-1.5-1-1.5"/>
			<path class="st11" d="M49.1,90.9l0.4-1.2c0,0-0.8-0.8-0.8-2.4s0.3-1.6,0.3-1.6"/>
			<path class="st11" d="M49.8,73.1c0.1,0.2,0.4,0.3,0.7,0.3c0.3,0,0.5-0.1,0.7-0.3"/>
		</g>
	</g>
	<g>
		<g>
			<path class="st3" d="M46.7,70.7l0.2-8.4l2.8,0C49.9,65.9,50,69.4,50,73C47.6,72.6,46.6,71.1,46.7,70.7z"/>
			<path class="st2" d="M50,73c0-3.6-0.1-7.2-0.4-10.7l2.6,0c-0.1,3.5,0.2,7.1,0.6,10.6c-0.5,0.1-1,0.2-1.6,0.2
				C50.8,73.1,50.4,73.1,50,73z"/>
			<path class="st4" d="M55.1,62.4l0,8.9c0,0-0.4,1.2-2.2,1.6c-0.4-3.5-0.6-7.1-0.6-10.6L55.1,62.4z"/>
			<path class="st5" d="M46.7,70.7l0.2-8.4l8.3,0.1l0,8.9c0,0-0.7,1.9-3.9,1.8C48,73.1,46.6,71.2,46.7,70.7z"/>
			<path class="st2" d="M49.8,65.7c-0.1-1.8-0.2-3.6-0.4-5.3c0.4-0.1,0.9-0.1,1.5,0c0.5,0,1,0.1,1.4,0.2c-0.1,1.8-0.1,3.7,0,5.5
				c-0.3,0.2-0.6,0.3-1,0.3C50.5,66.4,50.1,66.1,49.8,65.7z"/>
			<path class="st3" d="M48.8,64.4c-0.9-0.4-2.2-1.2-1.9-2.3c0.2-0.9,1.1-1.5,2.6-1.7c0.2,1.8,0.3,3.6,0.4,5.3
				C49.5,65.2,49.3,64.6,48.8,64.4z"/>
			<path class="st4" d="M52.3,60.5c1.7,0.4,2.8,1.2,2.7,2.1c-0.1,1.2-1.4,1.4-1.7,2c-0.2,0.4-0.5,1-1.1,1.4
				C52.2,64.2,52.2,62.3,52.3,60.5z"/>
			<path class="st11" d="M46.7,66.8c0,0,1,2.1,4.5,2.1c3.1,0,3.9-1.4,3.9-1.4"/>
			<path class="st5" d="M51.3,66.4c1.3-0.1,1.8-1.2,2.1-1.8c0.3-0.6,1.6-0.8,1.7-2c0-1.2-1.7-2.1-4.1-2.3c-2.4-0.1-3.8,0.6-4.1,1.7
				c-0.3,1.1,1,1.9,1.9,2.3C49.7,64.8,49.5,66.4,51.3,66.4z"/>
			<path class="st2" d="M51,65.4c-0.3-0.1-0.6-0.4-0.6-0.6c-0.1-0.7-0.4-1.2-1.1-1.4c-0.6-0.2-1.2-0.4-1.3-1
				c0.2-0.6,0.6-1.2,1.2-1.5C50.1,62.2,50.8,63.7,51,65.4z"/>
			<path class="st12" d="M52.3,60.5c0.1,0.2,0.2,0.3,0.3,0.4c0.2,0.1,0.4,0.3,0.6,0.5l0,0l0,0c0.4,0.5,0.7,1.1,0.8,1.7
				c0,0.1-0.1,0.1-0.1,0.2c-0.3,0.4-1.4,0.5-1.6,1.5c0,0,0,0.1,0,0.1C52.2,63.5,52.3,62,52.3,60.5z"/>
			<path class="st4" d="M49.9,59.7c0,0.4-0.4,0.8-0.7,1.2c0,0,0,0,0,0c1,1.3,1.7,2.8,1.9,4.5c0.1,0,0.2,0.1,0.3,0.1
				c0.4,0,0.8-0.2,1-0.5c0-1.5,0-3,0.1-4.5c-0.1-0.2-0.2-0.5-0.2-0.8c0-0.2,0.2-1.7,0.2-1.9c-0.8,0-2-0.7-2.8-0.7
				C49.6,57.3,49.9,59.6,49.9,59.7z"/>
			<path class="st5" d="M53.2,61.5L53.2,61.5c-0.2-0.2-0.4-0.4-0.6-0.5c-0.3-0.3-0.6-0.8-0.6-1.3c0-0.2,0.2-1.7,0.2-1.9
				c-0.8,0-2-0.7-2.8-0.7c0.1,0.2,0.4,2.5,0.4,2.7c0,0.4-0.4,0.8-0.7,1.2c-0.6,0.4-1,0.9-1.2,1.6c0.1,0.6,0.7,0.8,1.3,1
				c0.7,0.2,1,0.7,1.1,1.4c0,0.2,0.5,0.6,0.9,0.6c0.4,0,0.9-0.2,1.1-0.7c0.2-1,1.2-1,1.6-1.5c0-0.1,0.1-0.1,0.1-0.2
				C53.9,62.6,53.7,62,53.2,61.5L53.2,61.5z"/>
		</g>
		<path class="st10" d="M60.1,57.2"/>
	</g>
	<path class="st11" d="M50,73c0.2,0.2,0.5,0.3,0.9,0.3c0.4,0,0.7-0.1,0.9-0.4"/>
	<g>
		<polygon class="st10" points="17.9,47.8 88.5,64.1 89.2,11.2 18.1,3.6 		"/>
		<polygon class="st10" points="26.9,49.7 28.1,49.5 76.8,60.7 75.5,61.1 		"/>
		<path class="st6" d="M19.5,50c0,0-0.6-0.2-1.4-0.3s-1.2-1.1-1.2-2.4c0-1.4,0.3-40.2,0.3-42s0.6-1.7,2.1-1.4
			C19.3,14.6,19.5,50,19.5,50z"/>
		<polygon class="st7" points="19.8,47.4 86.6,62.5 86.7,65.5 19.6,50 		"/>
		<path class="st7" d="M88.5,64.1c0,0,2.6,0.8,2.6-2.6S91,14.2,91,12s-3-2.1-3-2.1l-1.1,1.7L88.5,64.1z"/>
		<path class="st0" d="M18.1,3.6l68.8,7.9l1.1-1.7c0,0-65.4-7.3-66.9-7.6S18.1,3.6,18.1,3.6z"/>
		<line class="st11" x1="46.2" y1="13.9" x2="28" y2="37.1"/>
		<line class="st11" x1="46.1" y1="19.9" x2="33.6" y2="35.7"/>
		<polygon class="st0" points="26.9,53.3 75.1,64.9 75.3,60.8 26.8,49.8 		"/>
		<path class="st6" d="M75.3,61l0.2,3.7c0,0,0.9,0.8,1.5,0.3c0.6-0.5,0.6-1.1,0.6-1.1l-0.9-0.3l0.2-2.9L75.3,61z"/>
		<path class="st6" d="M86.7,65.5c0,0,2.7,0.2,2.7-3c0-3.2-0.2-45.5-0.2-48.1s-2.4-3-2.4-3L86.7,65.5z"/>
	</g>
</g>
</svg>
