<?xml version="1.0" encoding="utf-8"?>
<!-- Generator: Adobe Illustrator 21.1.0, SVG Export Plug-In . SVG Version: 6.00 Build 0)  -->
<svg version="1.1" id="Layer_1" xmlns="http://www.w3.org/2000/svg" xmlns:xlink="http://www.w3.org/1999/xlink" x="0px" y="0px"
	 width="108px" height="108px" viewBox="0 0 108 108" style="enable-background:new 0 0 108 108;" xml:space="preserve">
<style type="text/css">
	.st0{fill:#CCCCCC;stroke:#231F20;stroke-width:0.75;}
	.st1{fill:#FFFFFF;stroke:#231F20;stroke-width:0.75;}
	.st2{fill:#F2F2F2;stroke:#231F20;stroke-width:0.5;}
</style>
<path class="st0" d="M86.4,41.2l3.3,1.7c0.9,0.5,2.2,0.5,2.8,0.2l10.8-6.8c0.6-0.4,0.4-1.1-0.6-1.6l-18.9-9.8
	c-0.9-0.5-2.2-0.5-2.8-0.2l-10.8,6.8c-0.6,0.4-0.4,1.1,0.6,1.6l3.3,1.7c0,0,1.1,0.9,0.6,1.2c-0.5,0.3-50.8,31.7-51.6,32.2
	c-0.8,0.5-2.5-0.1-2.5-0.1l-3.2-1.7c-0.9-0.5-2.2-0.5-2.8-0.2L4.3,72.8c-0.6,0.4-0.4,1.1,0.6,1.6l18.9,9.8c0.9,0.5,2.2,0.5,2.8,0.2
	L37,77.9c0.6-0.4,0.4-1.1-0.6-1.6l-3.2-1.7c0,0-1.5-0.7-0.5-1.3c1-0.6,51-31.8,51.6-32.2C84.9,40.7,86.4,41.2,86.4,41.2z"/>
<path class="st1" d="M86.4,39.9l3.3,1.7c0.9,0.5,2.2,0.5,2.8,0.2l10.8-6.8c0.6-0.4,0.4-1.1-0.6-1.6l-18.9-9.8
	c-0.9-0.5-2.2-0.5-2.8-0.2l-10.8,6.8c-0.6,0.4-0.4,1.1,0.6,1.6l3.3,1.7c0,0,1.1,0.9,0.6,1.2C74.2,35,23.9,66.4,23.2,66.9
	c-0.8,0.5-2.5-0.1-2.5-0.1l-3.2-1.7c-0.9-0.5-2.2-0.5-2.8-0.2L4.3,71.4c-0.6,0.4-0.4,1.1,0.6,1.6l18.9,9.8c0.9,0.5,2.2,0.5,2.8,0.2
	L37,76.5c0.6-0.4,0.4-1.1-0.6-1.6l-3.2-1.7c0,0-1.5-0.7-0.5-1.3c1-0.6,51-31.8,51.6-32.2C84.9,39.3,86.4,39.9,86.4,39.9z"/>
<path class="st2" d="M13.9,67.4c-2.2-0.7-3.2,0-3.2,0c0.8-0.5,2.4,0.1,3.1,1.3c0.6,0.9,0.5,2.8,0.5,2.8s24,3.9,22.2,5.1
	c0.6-0.2,0.1-1.2-1.3-1.7C34.1,74.5,20.8,69.8,13.9,67.4z"/>
<path class="st2" d="M79.4,26.5c-2.2-0.8-3.2,0-3.2,0c0.8-0.5,2.4,0.1,3.1,1.3c0.6,0.9,0.5,2.8,0.5,2.8s24,3.9,22.2,5.1
	c0.6-0.2,0.1-1.2-1.3-1.7C99.7,33.5,86.3,28.8,79.4,26.5z"/>
</svg>
