<?xml version="1.0" encoding="utf-8"?>
<!-- Generator: Adobe Illustrator 21.1.0, SVG Export Plug-In . SVG Version: 6.00 Build 0)  -->
<svg version="1.1" id="Layer_1" xmlns="http://www.w3.org/2000/svg" xmlns:xlink="http://www.w3.org/1999/xlink" x="0px" y="0px"
	 width="108px" height="108px" viewBox="0 0 108 108" style="enable-background:new 0 0 108 108;" xml:space="preserve">
<style type="text/css">
	.st0{fill:#FFFFFF;stroke:#000000;stroke-width:0.5;stroke-linecap:round;stroke-linejoin:round;stroke-miterlimit:10;}
	.st1{enable-background:new    ;}
	.st2{fill:#F2F2F2;stroke:#000000;stroke-width:0.5;stroke-linecap:round;stroke-linejoin:round;stroke-miterlimit:10;}
	.st3{fill:#CCCCCC;stroke:#000000;stroke-width:0.5;stroke-linecap:round;stroke-linejoin:round;stroke-miterlimit:10;}
	.st4{fill:#B3B3B3;stroke:#000000;stroke-width:0.5;stroke-linecap:round;stroke-linejoin:round;stroke-miterlimit:10;}
	.st5{fill:#E6E6E6;stroke:#000000;stroke-width:0.5;stroke-linecap:round;stroke-linejoin:round;stroke-miterlimit:10;}
	.st6{fill:none;stroke:#000000;stroke-width:0.25;stroke-linecap:round;stroke-linejoin:round;stroke-miterlimit:10;}
</style>
<g>
	<g>
		<rect x="14.5" y="5" class="st0" width="79" height="54"/>
		<g>
			<g class="st1">
				<path d="M45.6,21v-3.3l-3-4.5h1.3l1.6,2.4c0.3,0.4,0.6,0.9,0.8,1.3c0.2-0.4,0.5-0.9,0.9-1.4l1.5-2.3h1.2l-3.1,4.5V21H45.6z"/>
				<path d="M49.2,18.1c0-1.1,0.3-1.8,0.9-2.3c0.5-0.4,1.1-0.6,1.8-0.6c0.8,0,1.4,0.3,1.9,0.8s0.7,1.2,0.7,2.1
					c0,0.7-0.1,1.3-0.3,1.7c-0.2,0.4-0.5,0.7-1,1s-0.9,0.3-1.4,0.3c-0.8,0-1.4-0.3-1.9-0.8S49.2,19.1,49.2,18.1z M50.2,18.1
					c0,0.7,0.2,1.3,0.5,1.6c0.3,0.4,0.7,0.5,1.2,0.5s0.9-0.2,1.2-0.5c0.3-0.4,0.5-0.9,0.5-1.7c0-0.7-0.2-1.2-0.5-1.6
					s-0.7-0.5-1.2-0.5s-0.9,0.2-1.2,0.5C50.4,16.8,50.2,17.4,50.2,18.1z"/>
				<path d="M59.4,21v-0.8c-0.4,0.6-1,1-1.8,1c-0.3,0-0.7-0.1-0.9-0.2s-0.5-0.3-0.7-0.5c-0.1-0.2-0.2-0.4-0.3-0.7
					c0-0.2-0.1-0.5-0.1-0.9v-3.5h1v3.2c0,0.5,0,0.8,0.1,1c0.1,0.3,0.2,0.5,0.4,0.6s0.4,0.2,0.7,0.2s0.6-0.1,0.8-0.2
					c0.3-0.1,0.4-0.4,0.5-0.6c0.1-0.3,0.2-0.6,0.2-1.1v-3.1h1v5.7L59.4,21L59.4,21z"/>
				<path d="M61.8,21v-5.7h0.9v0.9c0.2-0.4,0.4-0.7,0.6-0.8c0.2-0.1,0.4-0.2,0.6-0.2c0.3,0,0.7,0.1,1,0.3l-0.3,0.9
					c-0.2-0.1-0.5-0.2-0.7-0.2s-0.4,0.1-0.6,0.2s-0.3,0.3-0.4,0.5c-0.1,0.3-0.2,0.7-0.2,1.1v3C62.7,21,61.8,21,61.8,21z"/>
			</g>
			<g class="st1">
				<path d="M42.8,30.7l1-0.1c0,0.4,0.2,0.7,0.3,1c0.2,0.3,0.4,0.5,0.8,0.6c0.4,0.2,0.8,0.2,1.2,0.2s0.7-0.1,1.1-0.2
					s0.5-0.3,0.7-0.5c0.1-0.2,0.2-0.4,0.2-0.7c0-0.2-0.1-0.5-0.2-0.6c-0.1-0.2-0.4-0.3-0.7-0.5c-0.2-0.1-0.7-0.2-1.4-0.4
					s-1.2-0.3-1.5-0.5c-0.4-0.2-0.7-0.4-0.8-0.7c-0.2-0.3-0.3-0.6-0.3-1s0.1-0.8,0.3-1.1s0.6-0.6,1-0.8s0.9-0.3,1.4-0.3
					c0.6,0,1.1,0.1,1.5,0.3s0.8,0.5,1,0.8c0.2,0.4,0.4,0.8,0.4,1.2l-1,0.1c-0.1-0.5-0.2-0.9-0.5-1.1C47,26.1,46.5,26,45.9,26
					s-1.1,0.1-1.4,0.3c-0.3,0.2-0.4,0.5-0.4,0.8s0.1,0.5,0.3,0.7s0.7,0.4,1.6,0.6c0.8,0.2,1.4,0.4,1.7,0.5c0.5,0.2,0.8,0.5,1,0.8
					s0.3,0.7,0.3,1.1s-0.1,0.8-0.4,1.2c-0.2,0.4-0.6,0.7-1,0.9s-1,0.3-1.5,0.3c-0.7,0-1.3-0.1-1.8-0.3s-0.9-0.5-1.1-0.9
					C43,31.7,42.9,31.2,42.8,30.7z"/>
				<path d="M50.4,26.5v-1.1h1v1.1H50.4z M50.4,33.3v-5.8h1v5.7L50.4,33.3L50.4,33.3z"/>
				<path d="M52.7,33.7l0.9,0.1c0,0.3,0.1,0.5,0.3,0.6c0.2,0.2,0.6,0.3,1,0.3s0.8-0.1,1-0.3s0.4-0.4,0.5-0.8c0-0.2,0.1-0.6,0.1-1.2
					c-0.4,0.5-0.9,0.7-1.6,0.7c-0.8,0-1.4-0.3-1.8-0.8s-0.6-1.2-0.6-2c0-0.5,0.1-1,0.3-1.5s0.5-0.8,0.9-1.1s0.8-0.4,1.3-0.4
					c0.7,0,1.2,0.3,1.7,0.8v-0.6h0.9v5c0,0.9-0.1,1.5-0.3,1.9s-0.5,0.7-0.9,0.9s-0.9,0.3-1.4,0.3c-0.7,0-1.2-0.2-1.6-0.5
					C52.9,34.8,52.7,34.3,52.7,33.7z M53.5,30.3c0,0.7,0.1,1.3,0.4,1.6s0.7,0.5,1.1,0.5c0.4,0,0.8-0.2,1.1-0.5s0.5-0.9,0.5-1.6
					s-0.2-1.2-0.5-1.6s-0.7-0.5-1.1-0.5c-0.4,0-0.8,0.2-1.1,0.5C53.6,29.1,53.5,29.6,53.5,30.3z"/>
				<path d="M59,33.3v-5.8h0.9v0.8c0.4-0.6,1-0.9,1.8-0.9c0.3,0,0.7,0.1,0.9,0.2c0.3,0.1,0.5,0.3,0.6,0.5s0.2,0.4,0.3,0.7
					c0,0.2,0.1,0.5,0.1,0.9v3.5h-1v-3.5c0-0.4,0-0.7-0.1-0.9s-0.2-0.4-0.4-0.5s-0.4-0.2-0.7-0.2c-0.4,0-0.8,0.1-1.1,0.4
					s-0.4,0.8-0.4,1.5v3.1H59V33.3z"/>
			</g>
			<g class="st1">
				<path d="M43,45.5v-7.9h1v3.2h4.1v-3.2h1v7.9h-1v-3.7H44v3.7H43z"/>
				<path d="M54.7,43.7l1,0.1c-0.2,0.6-0.4,1-0.9,1.4s-1,0.5-1.6,0.5c-0.8,0-1.5-0.3-2-0.8s-0.7-1.2-0.7-2.2s0.2-1.7,0.7-2.2
					s1.1-0.8,1.9-0.8c0.8,0,1.4,0.3,1.9,0.8s0.7,1.3,0.7,2.2c0,0.1,0,0.1,0,0.3h-4.3c0,0.6,0.2,1.1,0.5,1.4c0.3,0.3,0.7,0.5,1.2,0.5
					c0.4,0,0.7-0.1,0.9-0.3C54.4,44.4,54.6,44.1,54.7,43.7z M51.5,42.1h3.2c0-0.5-0.2-0.8-0.4-1.1c-0.3-0.3-0.7-0.5-1.1-0.5
					c-0.4,0-0.8,0.1-1.1,0.4C51.7,41.2,51.6,41.6,51.5,42.1z"/>
				<path d="M56.9,45.5v-5.7h0.9v0.9c0.2-0.4,0.4-0.7,0.6-0.8s0.4-0.2,0.6-0.2c0.3,0,0.7,0.1,1,0.3l-0.3,0.9
					c-0.2-0.1-0.5-0.2-0.7-0.2s-0.4,0.1-0.6,0.2s-0.3,0.3-0.4,0.5c-0.1,0.3-0.2,0.7-0.2,1.1v3H56.9z"/>
				<path d="M64.5,43.7l1,0.1c-0.2,0.6-0.4,1-0.9,1.4c-0.4,0.3-1,0.5-1.6,0.5c-0.8,0-1.5-0.3-2-0.8s-0.7-1.2-0.7-2.2
					s0.2-1.7,0.7-2.2s1.1-0.8,1.9-0.8s1.4,0.3,1.9,0.8s0.7,1.3,0.7,2.2c0,0.1,0,0.1,0,0.3h-4.3c0,0.6,0.2,1.1,0.5,1.4
					c0.3,0.3,0.7,0.5,1.2,0.5c0.4,0,0.7-0.1,0.9-0.3C64.1,44.4,64.3,44.1,64.5,43.7z M61.3,42.1h3.2c0-0.5-0.2-0.8-0.4-1.1
					c-0.3-0.4-0.7-0.6-1.2-0.6c-0.4,0-0.8,0.1-1.1,0.4C61.5,41.2,61.3,41.6,61.3,42.1z"/>
			</g>
		</g>
	</g>
	<g>
		<g>
			<path class="st2" d="M60.9,82.9v18.3c0,1-3.1,1.8-7,1.8c-3.8,0-7-0.8-7-1.8V82.9c0,1,3.1,1.8,7,1.8
				C57.8,84.7,60.9,83.9,60.9,82.9z"/>
			<path class="st3" d="M60.9,82.9c0,1-3.1,1.8-7,1.8c-3.8,0-7-0.8-7-1.8c0-0.1,0-0.1,0.1-0.2c0,0,0.4-0.8,1.2-1.6s-0.1,0.2-0.1,0.2
				c0,0.2,0.1,0.3,0.2,0.4c0.7,0.6,2.9,1.1,5.6,1.1s4.9-0.5,5.6-1.1c0.2-0.1,0.2-0.3,0.2-0.4s-0.4-0.7,0.1-0.2s1,1.6,1,1.6
				C60.9,82.7,60.9,82.8,60.9,82.9z"/>
			<path class="st4" d="M59.8,81.4c0,0.2-0.1,0.3-0.2,0.4c-0.7,0.6-2.9,1.1-5.6,1.1s-4.9-0.5-5.6-1.1c-0.2-0.1-0.2-0.3-0.2-0.4
				s0-0.2,0.1-0.2l0.1-0.1c0.5-0.7,2.9-1.2,5.7-1.2s5.2,0.5,5.7,1.2l0.1,0.1C59.8,81.2,59.8,81.3,59.8,81.4z"/>
			<path class="st5" d="M55.5,71.5c-0.6,1.2-0.2,1.8,0.2,2.4s0.4,1.2,0.4,1.2V81c0,0-0.8,0.6-2.1,0.6S51.9,81,51.9,81v-5.9
				c0,0,0-0.6,0.4-1.2s0.8-1.2,0.2-2.4H55.5z"/>
		</g>
		<g>
			<path class="st2" d="M70.3,52.9v11.4c0,0.3-0.3,0.6-0.6,0.6h-5.3v-4.8H62V65H46v-4.8h-2.4V65h-5.3c-0.3,0-0.6-0.3-0.6-0.6V52.9
				c0-0.2,0.2-0.4,0.4-0.4h31.8C70.1,52.5,70.3,52.7,70.3,52.9z"/>
			<g>
				<rect x="43.6" y="60.2" class="st4" width="2.4" height="3.9"/>
				<rect x="62" y="60.2" class="st4" width="2.4" height="3.9"/>
			</g>
			<path class="st0" d="M55.6,71.5h-3.3c-0.3,0-0.5-0.2-0.6-0.4l-3.2-8.2c-0.2-0.4,0.2-0.9,0.6-0.9h9.7c0.5,0,0.8,0.5,0.6,0.9
				l-3.2,8.2C56.2,71.3,55.9,71.5,55.6,71.5z"/>
		</g>
	</g>
	<path class="st6" d="M59.8,100c-1.2-0.5-3.4-0.8-5.8-0.8c-2.4,0-4.5,0.3-5.8,0.8"/>
</g>
</svg>
