<?xml version="1.0" encoding="utf-8"?>
<!-- Generator: Adobe Illustrator 21.1.0, SVG Export Plug-In . SVG Version: 6.00 Build 0)  -->
<svg version="1.1" id="Layer_1" xmlns="http://www.w3.org/2000/svg" xmlns:xlink="http://www.w3.org/1999/xlink" x="0px" y="0px"
	 width="108px" height="108px" viewBox="0 0 108 108" style="enable-background:new 0 0 108 108;" xml:space="preserve">
<style type="text/css">
	.st0{fill:#E6E6E6;stroke:#231F20;stroke-width:0.5;stroke-linecap:round;stroke-linejoin:round;}
	.st1{fill:#F2F2F2;stroke:#231F20;stroke-width:0.5;stroke-linecap:round;stroke-linejoin:round;}
	.st2{fill:#FFFFFF;stroke:#231F20;stroke-width:0.5;stroke-linecap:round;stroke-linejoin:round;}
	.st3{fill:none;stroke:#000000;stroke-width:0.75;}
	.st4{fill:#F2F2F2;stroke:#000000;stroke-width:0.75;stroke-linecap:round;stroke-linejoin:round;}
	.st5{fill:#FFFFFF;stroke:#000000;stroke-width:0.75;stroke-linecap:round;stroke-linejoin:round;}
	.st6{fill:#CCCCCC;stroke:#000000;stroke-width:0.5;stroke-linecap:round;stroke-linejoin:round;}
</style>
<g>
	<g>
		<path class="st0" d="M100.6,32.9v34.6c0,0.7-4.1,2-5.7,2.3c0.3-0.2,0.5-0.5,0.5-1V34.2c0-0.8-0.5-1.7-1.1-2L68.2,21.7
			c-0.4-0.2-0.8,0-1,0.3v0c0-0.8,5.6-1.8,6.2-1.5L99.5,31C100.1,31.2,100.6,32.1,100.6,32.9z"/>
		<path class="st1" d="M95.4,34.2v34.6c0,0.5-0.2,0.9-0.5,1h0c-0.3,0-0.5,0.1-0.6,0c0,0,0,0-0.1,0L68.2,59.3c-0.6-0.3-1.1-1.1-1.1-2
			V22.8c0-0.3,0.1-0.5,0.2-0.7c0.2-0.4,0.5-0.5,1-0.3l26.1,10.5C94.9,32.5,95.4,33.3,95.4,34.2z"/>
		<path class="st2" d="M94.9,69.8c-0.2,0.1-0.4,0.1-0.6,0C94.4,69.9,94.6,69.8,94.9,69.8z"/>
	</g>
	<g>
		<ellipse class="st3" cx="78.1" cy="47.8" rx="7.1" ry="8.8"/>
		<ellipse class="st3" cx="74.2" cy="49" rx="7.1" ry="8.9"/>
		<ellipse class="st3" cx="70.3" cy="50.2" rx="7.2" ry="9"/>
		<ellipse class="st3" cx="66.4" cy="51.4" rx="7.2" ry="9"/>
		<ellipse class="st3" cx="62.4" cy="52.5" rx="7.3" ry="9.1"/>
		<ellipse class="st3" cx="58.5" cy="53.7" rx="7.3" ry="9.1"/>
		<ellipse class="st3" cx="54.6" cy="54.9" rx="7.4" ry="9.2"/>
		<ellipse class="st3" cx="50.7" cy="56.1" rx="7.4" ry="9.2"/>
		<ellipse class="st3" cx="46.8" cy="57.3" rx="7.5" ry="9.3"/>
		<ellipse class="st3" cx="42.9" cy="58.5" rx="7.5" ry="9.4"/>
		<ellipse class="st3" cx="39" cy="59.7" rx="7.5" ry="9.4"/>
		<ellipse class="st3" cx="35.1" cy="60.9" rx="7.6" ry="9.5"/>
	</g>
	<path class="st4" d="M41.1,50.4v34.8c0,0.7-4.1,2-5.8,2.3c0.3-0.2,0.5-0.5,0.5-1V67.1c0,0.1,0.1,0.1,0.1,0.2c0-0.4,0-0.8-0.1-1.3
		V51.7c0-0.8-0.5-1.7-1.1-2l-16.1-6.5c-0.5-0.2-1-0.4-1.4-0.6c-0.1,0-0.1,0-0.2-0.1l-8.6-3.5c-0.4-0.2-0.8,0-1,0.3v0
		c0-0.8,5.6-1.8,6.3-1.6L40,48.4C40.6,48.7,41.1,49.6,41.1,50.4z"/>
	<path class="st5" d="M36,67.3c0-0.1-0.1-0.1-0.1-0.2c-4.7-7.5-10.7-9.7-10.7-9.7s-0.4-7.5-8.4-14.9c0,0,0.2,0,0.4,0.1
		c0,0,0.1,0,0.2,0.1c0.4,0.1,0.9,0.3,1.4,0.6c0.2,0.1,0.5,0.2,0.6,0.4c9,3.5,15.6,16.8,16.6,22.4C35.9,66.5,36,66.9,36,67.3z"/>
	<path class="st5" d="M35.8,51.7V66c-1-5.6-7.6-18.9-16.6-22.4c-0.2-0.1-0.4-0.3-0.6-0.4l16.1,6.5C35.3,49.9,35.8,50.8,35.8,51.7z"
		/>
	<path class="st5" d="M35.8,67.1v19.4c0,0.5-0.2,0.9-0.5,1c-0.3,0.1-0.6,0.1-0.7,0L8.5,77c-0.6-0.3-1.1-1.1-1.1-2V40.2
		c0-0.3,0.1-0.5,0.2-0.7c0.2-0.4,0.6-0.5,1-0.3l8.6,3.5c-0.2-0.1-0.4-0.1-0.4-0.1c8,7.3,8.4,14.9,8.4,14.9S31.1,59.5,35.8,67.1z"/>
	<path class="st5" d="M35.8,66v1.1c-4.7-7.5-10.7-9.7-10.7-9.7s-0.4-7.5-8.4-14.9c0,0,0.2,0,0.4,0.1c0,0,0.1,0,0.2,0.1l1.4,0.6
		c0.2,0.1,0.5,0.2,0.6,0.4C28.3,47.1,34.9,60.4,35.8,66z"/>
	<path class="st5" d="M35.4,87.5c-0.2,0.1-0.4,0.1-0.7,0C34.8,87.6,35,87.5,35.4,87.5z"/>
	<path class="st6" d="M36,67.3c0-0.1-0.1-0.1-0.1-0.2c-4.7-7.5-10.7-9.7-10.7-9.7s-0.4-7.5-8.4-14.9c0,0,0.2,0,0.4,0.1
		c0,0,0.1,0,0.2,0.1c0.4,0.1,0.9,0.3,1.4,0.6c0.2,0.1,0.5,0.2,0.6,0.4c9,3.5,15.6,16.8,16.6,22.4C35.9,66.5,36,66.9,36,67.3z"/>
</g>
</svg>
