<?xml version="1.0" encoding="utf-8"?>
<!-- Generator: Adobe Illustrator 21.1.0, SVG Export Plug-In . SVG Version: 6.00 Build 0)  -->
<svg version="1.1" id="Layer_1" xmlns="http://www.w3.org/2000/svg" xmlns:xlink="http://www.w3.org/1999/xlink" x="0px" y="0px"
	 width="108px" height="108px" viewBox="0 0 108 108" style="enable-background:new 0 0 108 108;" xml:space="preserve">
<style type="text/css">
	.st0{fill:#F2F2F2;stroke:#000000;stroke-width:0.75;stroke-linecap:round;stroke-linejoin:round;stroke-miterlimit:10;}
	.st1{fill:#B3B3B3;stroke:#000000;stroke-width:0.75;stroke-linecap:round;stroke-linejoin:round;stroke-miterlimit:10;}
	.st2{fill:#F2F2F2;}
	.st3{fill:#FFFFFF;}
	.st4{fill:#E6E6E6;}
	.st5{fill:none;stroke:#000000;stroke-width:0.75;stroke-linecap:round;stroke-linejoin:round;stroke-miterlimit:10;}
	.st6{fill:#E6E6E6;stroke:#000000;stroke-width:0.75;stroke-linecap:round;stroke-linejoin:round;stroke-miterlimit:10;}
	.st7{fill:#CCCCCC;stroke:#000000;stroke-width:0.75;stroke-linecap:round;stroke-linejoin:round;stroke-miterlimit:10;}
	.st8{fill:#999999;stroke:#000000;stroke-width:0.75;stroke-linecap:round;stroke-linejoin:round;stroke-miterlimit:10;}
	.st9{fill:#808080;stroke:#000000;stroke-width:0.75;stroke-linecap:round;stroke-linejoin:round;stroke-miterlimit:10;}
	.st10{fill:#FFFFFF;stroke:#000000;stroke-width:0.75;stroke-linecap:round;stroke-linejoin:round;stroke-miterlimit:10;}
	.st11{fill:none;stroke:#000000;stroke-width:0.5;stroke-linecap:round;stroke-linejoin:round;stroke-miterlimit:10;}
	.st12{fill:#CCCCCC;}
	.st13{fill:#FFFFFF;stroke:#000000;stroke-width:0.5;stroke-linecap:round;stroke-linejoin:round;stroke-miterlimit:10;}
	.st14{fill:#CCCCCC;stroke:#000000;stroke-width:0.5;stroke-linecap:round;stroke-linejoin:round;stroke-miterlimit:10;}
	.st15{fill:none;stroke:#000000;stroke-width:0.25;stroke-linecap:round;stroke-linejoin:round;stroke-miterlimit:10;}
</style>
<g>
	<g>
		<path class="st0" d="M55.3,75.2l1.5-17.9l-12.3-2.6l-0.1,3.7l-1.8,6l0.5,13.2c4.5,0.6,8.9,0.6,13.8,0.6L55.3,75.2z"/>
		<path class="st1" d="M53.2,101.9c0,0.4-0.1,0.7-0.1,0.7l0,0.6l-0.1,0v-0.5l-1.6,0.5v0l0.7-0.3c0,0,1-3.1-1-2.7
			c-2,0.4-3.3-1.2-3.3-4.8c0-2.5,2.1-8.8,3.5-12.7c0.4,0.1,0.8,0.2,1.1,0.2l0,0.1c-1.2,3.4-2.1,5.9-3,9.8c-1.5,6.6,1.2,6.2,2.8,6.6
			c0.3,0.1,0.5,0.2,0.7,0.4v0l0.1,2.9C53,102.6,53.1,102.4,53.2,101.9z"/>
		<path class="st1" d="M59.7,84l-0.5,4.9l-0.5,5.7L58.6,96l-2.1,1.5l-1.6,1.2l-0.7,3.5v0.1l-0.2,0.9l-0.2,0l-0.7,0.1l0-0.6
			c0,0,0-0.3,0.1-0.7c-0.1,0.4-0.2,0.7-0.2,0.7l-0.1-2.9c0.2,0.2,0.3,0.6,0.3,0.9c0-0.4,0-0.8,0-1.1c0-3.2,2.5-3.5,2.9-6.2
			c0.4-2.2,1.3-7,0.1-8.6c-1.3-1.5-2.8-1.8-3.5-1.9c-0.1,0-0.2,0-0.3-0.1c-0.3-0.1-0.7-0.2-1.1-0.2c-1.4,3.9-3.5,10.2-3.5,12.7
			c0,3.7,1.3,5.2,3.3,4.8c2-0.4,1,2.7,1,2.7l-0.7,0.3v0l1.6-0.5v0.5l-1.6,0.1l-0.5,0l0,0l-2.8-1.6l-0.2-0.1h0l-1-0.6l-3.1-1.8v-0.1
			l-0.2-5.3l-0.2-6.4l-0.4-9.7c1.5,0.2,2.9,0.3,4.4,0.4c0.3,0,0.7,0,1,0.1c0.3,0,0.6,0,0.9,0c1.1,0.1,2.1,0.1,3.2,0.1h0.1
			c1,0,2,0,3,0h1.2L59.7,84z"/>
		<polygon class="st1" points="51.6,100.9 51.4,103.2 51.4,103.2 51.4,103.4 51.3,104.7 50.5,104.5 50.4,104.5 34.6,100.7 
			34.5,100.1 34.4,98.4 34.3,97 43.9,99.2 45.4,99.5 45.9,99.6 		"/>
		<path class="st2" d="M46.4,66.5l-10.9-2.7c0,0,1.8,6,2.3,7.7c0.4,1.3,0.6,2.8,0.3,4.4c3.5,0.8,7,1.7,10.5,2.7
			C48.3,73.8,46.4,66.5,46.4,66.5z"/>
		<path class="st3" d="M44.5,93.2c0.9-7.1,3.9-8.8,4-13.5c0-0.3,0-0.7,0-1.1c-3.5-1-7-1.9-10.5-2.7c-0.1,0.5-0.3,1.1-0.6,1.6
			c-1,2-4.1,8-5.8,11.2c-0.3,0.6-0.5,1.2-0.7,1.8c4.5,1.2,8.9,2.4,13.4,3.6C44.5,93.9,44.5,93.6,44.5,93.2z"/>
		<path class="st4" d="M44.4,94.2c-4.5-1.2-8.9-2.5-13.4-3.6c-0.9,3.1-0.6,6.7,1.9,7.5c3,0.9,15.9,3.9,15.9,3.9
			S44.1,100.5,44.4,94.2z"/>
		<path class="st5" d="M35.5,63.8c0,0,1.8,6,2.3,7.7c0.5,1.8,0.8,3.9-0.3,6c-1,2-4.1,8-5.8,11.2c-1.6,3.2-1.8,8.4,1.3,9.3
			c3,0.9,15.9,3.9,15.9,3.9s-5.3-1.5-4.4-8.6c0.9-7.1,3.9-8.8,4-13.5c0.1-4.7-2.2-13.2-2.2-13.2L35.5,63.8z"/>
		<polygon class="st6" points="33.4,100.2 34.2,100 50.4,103.5 50.4,104.8 49.6,104.9 33.6,101.6 		"/>
		<path class="st7" d="M59.3,93.8c-0.2,0.2-0.4,0.5-0.6,0.8c-0.7,0.9-1.5,2.1-2.2,2.9c-0.5,0.8-1,1.3-1,1.3l-0.5,3v0l-0.3,1.9
			l-0.8-0.6l-0.7-0.5c0,0,0-0.3,0.1-0.7c0,0,0,0,0,0c0-0.3,0-0.7,0.1-1.1v-0.2c0-0.4,0-0.8,0-1.1c0-3.2,2.5-3.5,2.9-6.2
			c0.4-2.2,1.3-7,0.1-8.6c-1.3-1.5-2.8-1.8-3.5-1.9c-0.1,0-0.2,0-0.3-0.1c-0.3-0.1-0.7-0.2-1.1-0.2c-0.9-0.2-1.9-0.5-1.9-0.5
			l0.2-1.1l0-0.1c0,0,0.8,0.2,2,0.5c1.4,0.3,3.1,0.8,4.4,1.4h0c0.6,0.3,1.1,0.5,1.3,0.8c0.5,0.7,1.3,2.9,1.8,5.2
			C59.7,91,59.9,93,59.3,93.8z"/>
		<path class="st6" d="M53,102.8v1.8c0,0-1.3,1.3-2.5,0.5v-0.6l0-0.9l0.5-0.1l0.1,0l0.2-0.1l0.2-0.1L53,102.8z"/>
		<path class="st6" d="M54.9,104.3c-1.3,0.8-1.9,0.4-1.9,0.4v-0.1l0.1-1.3l0-0.6l1-0.4l0.1,0l0.8-0.3l0.1,0l0.3-0.1l0.2-0.1
			C55.5,101.6,56.2,103.5,54.9,104.3z"/>
		<path class="st7" d="M46.3,78.5c-0.2,0.7-0.5,1.6-0.9,2.3l-3-0.7c0,0-1.9-1.3-1.3-5.1c0.2-1,0.4-1.8,0.6-2.4v0l4.4,0.9
			C46,73.6,46.6,77,46.3,78.5z"/>
		<path class="st8" d="M42.3,80.2l-0.6,1.8l-4.1-0.8c0,0,2.4-3.6,2.4-5.1c0-1.2-0.1-3.8-0.1-3.8l1.7,0.4v0c-0.2,0.6-0.4,1.4-0.6,2.4
			C40.4,78.9,42.3,80.2,42.3,80.2z"/>
		<path class="st9" d="M45.3,80.9c-0.4,0.9-0.8,1.6-0.8,1.6L41.9,82l-0.2,0l0.6-1.8L45.3,80.9z"/>
		<polygon class="st10" points="41.9,82 41.6,82 41.7,81.9 		"/>
		<path class="st10" d="M42.7,70.9"/>
		<polyline class="st10" points="44.1,64.7 46,58.7 46,54.7 		"/>
		<path class="st10" d="M53,72c0,0-1.4-0.3-2.2,0.1"/>
		<path class="st10" d="M52.7,71.3c-0.4-0.4-1.3-1.1-2.7-1"/>
		<path class="st1" d="M56.2,93.4c-0.4,2.7-2.9,3-2.9,6.2c0,0.3,0,0.7,0,1.1c0-0.3-0.1-0.7-0.3-0.9v0c-0.2-0.2-0.4-0.4-0.7-0.4
			c-1.6-0.4-4.3,0.1-2.8-6.6c0.9-3.9,1.8-6.3,3-9.8l0-0.1c0.1,0,0.2,0,0.3,0.1c0.8,0.1,2.2,0.4,3.5,1.9
			C57.5,86.4,56.5,91.2,56.2,93.4z"/>
		<path class="st10" d="M53.2,100.7v0.2c0,0.4,0,0.8-0.1,1.1c0,0,0,0,0,0c-0.1,0.4-0.2,0.7-0.2,0.7l-0.1-2.9
			C53.1,100,53.2,100.4,53.2,100.7z"/>
		<path class="st6" d="M60.6,81.1c-1-1.7-3.2-3.9-3.4-15.2c-0.1-3,0.2-5.7,0.4-6.8c0.3-1.6,0.5-2.2,0.5-2.2l-4.9-1.3
			c-0.2-0.5-0.4-1.3,0-1.6c0,0,0-0.1,0.1-0.1c0.8-0.3,1.3-1.1,1.3-1.9c0-1.2-1.1-2.1-2.4-2.1c-1.3,0-2.4,0.9-2.4,2.1
			c0,0.5,0.2,0.9,0.5,1.3c0.2,0.5-0.1,1.1-0.4,1.4l-4.2-1.1l-1.3,1.1L56.3,58c0,0-1.3,1.6-1.5,4.3s-2.4,12.4-2.3,13.8
			c0.1,1.4,0,2.9,1.3,4.3c1.3,1.4,4.5,4.2,4.3,6.7c-0.2,1.9-0.4,7.7-1.8,9.1c-1.4,1.4-1.9,2.7-2,4.1c-0.1,1.4-0.1,1.9-0.1,1.9
			l1.4-0.6c0,0,0.3-2.7,1.3-2.9c1-0.3,5-2.2,5-7.4C61.7,86.1,61.6,82.7,60.6,81.1z"/>
		<path class="st6" d="M52.6,77.8c0,0.2,0,0.4,0,0.5c0,0.5,0,0.9-0.1,1.1c-0.1,0.2-0.4,1-0.8,2.1c-0.1,0.3-0.2,0.7-0.4,1.1
			c-1.4,3.9-3.5,10.2-3.5,12.7c0,3.7,1.3,5.2,3.3,4.8c2-0.4,1,2.7,1,2.7l-0.7,0.3l-0.2,0.1l-0.2,0.1c0,0,0,0,0,0
			c0.1-0.2,0.3-1.2-1.3-1.2c-0.5,0-1-0.1-1.5-0.4c-0.1-0.1-0.2-0.1-0.3-0.1c-0.3-0.2-0.6-0.4-0.9-0.6c-0.6-0.4-1.1-0.9-1.5-1.5
			c-0.4-0.5-0.7-1-0.9-1.5c-1-2.4-1.4-6.2,1-11.4c1.2-2.6,1.8-5.7,2-8.4c0.2-2.6,0.1-5-0.1-6.4c-0.2-1.2-0.4-2.3-0.5-3.2
			c0-0.1-0.1-0.2-0.1-0.3c-0.1-0.3-0.1-0.6-0.2-0.9c0,0,0,0,0,0c-0.1-0.6-0.2-0.9-0.2-0.9l-11-2.7l1.7-1.3l10.7,2.7
			c0,0,4.4,10.2,4.7,10.8c0.1,0.1,0.1,0.3,0.2,0.6c0,0.1,0,0.2,0,0.3C52.5,77.1,52.6,77.4,52.6,77.8C52.6,77.7,52.6,77.7,52.6,77.8z
			"/>
		<g>
			<line class="st11" x1="47.9" y1="57.7" x2="53.5" y2="59.1"/>
			<line class="st11" x1="53.1" y1="61.8" x2="47.5" y2="60.4"/>
			<polyline class="st11" points="48.5,63.1 52.5,64.1 51.8,68.1 			"/>
			<line class="st11" x1="45.1" y1="68.2" x2="38.4" y2="66.7"/>
			<line class="st11" x1="44.9" y1="70.6" x2="39.4" y2="69.6"/>
			<path class="st11" d="M42.3,96.8c0,0-1-3.4,0.1-6.7c1.1-3.3,2-5.2,2-5.2"/>
			<path class="st11" d="M32.5,94.7c0,0-0.6-2.9,1.1-5.6c1.6-2.7,3.4-6.1,3.4-6.1"/>
			<path class="st11" d="M56.7,79.4l-1-1.1c0,0,0.9-1.3,0.5-3.4c-0.4-2.2-1.6-2.4-1.6-2.4"/>
			<path class="st11" d="M49.6,81.4l0.6-1.9c0,0-1.3-1.3-1.3-3.8c0-2.5,0.5-2.5,0.5-2.5"/>
			<path class="st11" d="M50.7,53c0.2,0.3,0.6,0.4,1,0.4c0.5,0,0.9-0.2,1.1-0.5"/>
		</g>
	</g>
	<g>
		<g>
			<path class="st3" d="M45.6,49.2l0.3-13.5l4.5,0.1c0.4,5.7,0.5,11.4,0.6,17.1C47.2,52.2,45.6,49.8,45.6,49.2z"/>
			<path class="st2" d="M51,52.8c-0.1-5.7-0.2-11.5-0.6-17.1l4.2,0.1c-0.1,5.6,0.3,11.3,0.9,16.9c-0.7,0.2-1.6,0.3-2.6,0.3
				C52.2,53,51.6,52.9,51,52.8z"/>
			<path class="st4" d="M59.1,35.9l0,14.2c0,0-0.7,1.9-3.6,2.6c-0.6-5.7-1-11.3-0.9-16.9L59.1,35.9z"/>
			<path class="st5" d="M45.6,49.2l0.3-13.5l13.2,0.2l0,14.2c0,0-1,3-6.2,2.9C47.7,53,45.6,49.9,45.6,49.2z"/>
			<path class="st2" d="M50.7,41.2c-0.1-2.9-0.3-5.7-0.6-8.6c0.7-0.1,1.5-0.1,2.4-0.1c0.8,0,1.5,0.1,2.2,0.3c-0.1,2.9-0.1,5.9,0,8.8
				c-0.4,0.3-1,0.5-1.6,0.5C51.8,42.2,51.2,41.8,50.7,41.2z"/>
			<path class="st3" d="M49,39c-1.4-0.7-3.4-1.9-3-3.7c0.3-1.4,1.7-2.4,4.1-2.7c0.3,2.8,0.5,5.7,0.6,8.6C50.1,40.4,49.8,39.4,49,39z
				"/>
			<path class="st4" d="M54.7,32.8c2.7,0.6,4.4,1.8,4.3,3.4c-0.1,1.9-2.2,2.2-2.7,3.1c-0.3,0.6-0.8,1.7-1.7,2.3
				C54.6,38.7,54.6,35.8,54.7,32.8z"/>
			<path class="st5" d="M45.7,43c0,0,1.5,3.3,7.1,3.4c4.9,0.1,6.3-2.2,6.3-2.2"/>
			<path class="st5" d="M53.1,42.2c2.1-0.1,2.8-1.9,3.3-2.8c0.5-0.9,2.6-1.2,2.7-3.1c0.1-1.9-2.7-3.4-6.5-3.7
				c-3.9-0.2-6.1,1-6.5,2.8c-0.4,1.8,1.6,3,3,3.7C50.5,39.7,50.3,42.3,53.1,42.2z"/>
			<path class="st2" d="M52.6,40.7c-0.5-0.2-0.9-0.6-1-0.9c-0.2-1.1-0.6-1.9-1.8-2.3c-1-0.3-2-0.7-2.1-1.6c0.4-1,1-1.8,1.9-2.4
				C51.2,35.6,52.3,38,52.6,40.7z"/>
			<path class="st12" d="M54.7,32.8c0.2,0.3,0.3,0.5,0.5,0.7c0.4,0.2,0.7,0.5,0.9,0.8l0,0l0,0c0.7,0.8,1.1,1.7,1.2,2.8
				c0,0.1-0.1,0.2-0.1,0.2c-0.5,0.7-2.2,0.8-2.5,2.4c0,0.1,0,0.1-0.1,0.2C54.6,37.6,54.6,35.2,54.7,32.8z"/>
			<path class="st4" d="M50.8,31.6c0,0.6-0.6,1.4-1.1,1.9c0,0,0,0-0.1,0.1c1.6,2.1,2.7,4.5,3,7.2c0.1,0.1,0.3,0.1,0.4,0.1
				c0.6,0.1,1.3-0.3,1.6-0.9c0-2.4,0-4.8,0.1-7.1c-0.2-0.4-0.4-0.8-0.4-1.3c0-0.3,0.3-2.8,0.3-3c-1.2,0-3.2-1.2-4.5-1.2
				C50.3,27.6,50.8,31.3,50.8,31.6z"/>
			<path class="st5" d="M56.2,34.4L56.2,34.4c-0.3-0.3-0.6-0.6-0.9-0.9c-0.5-0.5-0.9-1.2-0.9-2c0-0.3,0.3-2.8,0.3-3
				c-1.2,0-3.2-1.2-4.5-1.2c0.1,0.3,0.6,4,0.6,4.2c0,0.6-0.6,1.4-1.1,1.9c-0.9,0.6-1.6,1.5-1.9,2.5c0.1,0.9,1.1,1.3,2.1,1.6
				c1.1,0.4,1.5,1.1,1.8,2.3c0.1,0.4,0.8,0.9,1.4,1c0.7,0.1,1.5-0.4,1.7-1.1c0.4-1.6,2-1.7,2.5-2.4c0.1-0.1,0.1-0.2,0.1-0.3
				C57.3,36.1,56.9,35.1,56.2,34.4L56.2,34.4z"/>
		</g>
		<path class="st13" d="M67.1,27.5"/>
		<path class="st0" d="M75.4,21.7c0,0-7.7-11.5-21.3-14.8c-2.8-0.7-5.9-0.7-8.8-0.3c3.4-0.6,7.3-0.9,10.8-0.1
			c13.6,3.3,21.4,14.4,21.4,14.4s0,0.1,0,0.1L75.4,21.7C75.4,21.8,75.4,21.7,75.4,21.7z"/>
		<path class="st10" d="M45.3,6.6c2.9-0.3,6-0.4,8.8,0.3c13.6,3.3,21.3,14.8,21.3,14.8s0,0,0,0.1c0,0.9,0.1,9.4,0.1,10.3
			c0,1-0.2,2.3-1.2,1.9c-0.1,0-0.6-0.2-1.5-0.6c-4-1.5-15.3-5.9-24.8-9.5c-7.7-3-14.2-5.4-14.2-5.4V9.5C33.8,9.5,39.2,7.3,45.3,6.6z
			"/>
		<path class="st0" d="M30.8,10.7L30.8,10.7l43,12.8L73.5,36c-2.9-0.9-39-11.4-41.1-12.1c-2.1-0.7-2-2-2-2.9
			C30.4,20.1,30.8,10.7,30.8,10.7z"/>
		<polygon class="st10" points="32.8,9.9 73.8,22.2 73.8,23.5 30.8,10.7 		"/>
		<path class="st14" d="M73.9,22.2c0,0-0.1,9-0.1,9.9c0,0.6-0.1,1.5,0.2,1.9c0.1,0,0.2,0.1,0.2,0.1c1,0.4,1.2-0.9,1.2-1.9
			c0-0.9-0.1-9.4-0.1-10.3l2.1-0.8c0,1.1,0.1,9.3,0.1,10.2c0,1,0,3.9-2.7,4.6c-2.7,0.7-3-1.7-3-3.7c0-2.1,0-9.3,0-9.3L73.9,22.2z"/>
	</g>
	<path class="st11" d="M69.5,32.5c0,0-34.5-10.2-35.6-10.5c-1.1-0.3-1.2-0.9-1.2-0.9"/>
	<path class="st15" d="M51,52.9c0.3,0.3,0.8,0.6,1.4,0.6c0.6,0,1.1-0.2,1.4-0.6"/>
	<path class="st11" d="M53.9,33.2c-0.2-0.4-0.7-0.6-1.3-0.7c-0.6-0.1-1.1,0.1-1.4,0.5"/>
	<path class="st15" d="M46,43c0,0,1.6,3.3,7.2,3.3c4.9,0,6.2-2.3,6.2-2.3"/>
</g>
</svg>
