<?xml version="1.0" encoding="utf-8"?>
<!-- Generator: Adobe Illustrator 21.1.0, SVG Export Plug-In . SVG Version: 6.00 Build 0)  -->
<svg version="1.1" id="Layer_1" xmlns="http://www.w3.org/2000/svg" xmlns:xlink="http://www.w3.org/1999/xlink" x="0px" y="0px"
	 width="108px" height="108px" viewBox="0 0 108 108" style="enable-background:new 0 0 108 108;" xml:space="preserve">
<style type="text/css">
	.st0{fill:#FFFFFF;stroke:#000000;stroke-width:0.5;stroke-linecap:round;stroke-linejoin:round;stroke-miterlimit:10;}
	.st1{enable-background:new    ;}
	.st2{fill:#FFFFFF;stroke:#000000;stroke-width:0.75;stroke-linecap:round;stroke-linejoin:round;stroke-miterlimit:10;}
</style>
<g>
	<path class="st0" d="M85.1,10.6H22.9c-0.3,0-0.5-0.2-0.5-0.5s0.2-0.5,0.5-0.5h62.2c0.3,0,0.5,0.2,0.5,0.5S85.4,10.6,85.1,10.6z"/>
	<path class="st0" d="M54,96c-0.3,0-0.5-0.2-0.5-0.5V10.1c0-0.3,0.2-0.5,0.5-0.5s0.5,0.2,0.5,0.5v85.4C54.5,95.8,54.3,96,54,96z"/>
	<g>
		<rect x="28" y="12.3" class="st0" width="51.9" height="44.2"/>
		<g>
			<g class="st1">
				<path d="M47.2,26.6v-3.1l-2.8-4.2h1.2l1.5,2.2c0.3,0.4,0.6,0.8,0.7,1.2c0.2-0.4,0.5-0.8,0.8-1.3l1.4-2.1h1.1l-2.9,4.2v3.1H47.2z
					"/>
				<path d="M50.5,23.9c0-1,0.3-1.7,0.8-2.1s1-0.6,1.7-0.6s1.3,0.3,1.8,0.7c0.5,0.5,0.6,1.1,0.6,1.9c0,0.6-0.1,1.2-0.3,1.6
					s-0.5,0.6-0.9,0.9c-0.5,0.3-0.8,0.3-1.3,0.3c-0.7,0-1.3-0.3-1.8-0.7C50.7,25.5,50.5,24.8,50.5,23.9z M51.4,23.9
					c0,0.6,0.2,1.2,0.5,1.5c0.3,0.4,0.6,0.5,1.1,0.5s0.8-0.2,1.1-0.5c0.3-0.4,0.5-0.8,0.5-1.6c0-0.6-0.2-1.1-0.5-1.5
					s-0.6-0.5-1.1-0.5s-0.8,0.2-1.1,0.5C51.6,22.7,51.4,23.3,51.4,23.9z"/>
				<path d="M60,26.6v-0.7c-0.4,0.6-0.9,0.9-1.7,0.9c-0.3,0-0.6-0.1-0.8-0.2s-0.5-0.3-0.6-0.5s-0.2-0.4-0.3-0.6
					c0-0.2-0.1-0.5-0.1-0.8v-3.2h0.9v3c0,0.5,0,0.7,0.1,0.9c0.1,0.3,0.2,0.5,0.4,0.6s0.4,0.2,0.6,0.2s0.6-0.1,0.7-0.2
					c0.3-0.1,0.4-0.4,0.5-0.6c0.1-0.3,0.2-0.6,0.2-1v-2.9h0.9v5.3L60,26.6L60,26.6z"/>
				<path d="M62.2,26.6v-5.3H63v0.8c0.2-0.4,0.4-0.6,0.6-0.7c0.2-0.1,0.4-0.2,0.6-0.2c0.3,0,0.6,0.1,0.9,0.3l-0.3,0.8
					c-0.2-0.1-0.5-0.2-0.6-0.2c-0.2,0-0.4,0.1-0.6,0.2c-0.2,0.1-0.3,0.3-0.4,0.5c-0.1,0.3-0.2,0.6-0.2,1v2.8
					C63,26.6,62.2,26.6,62.2,26.6z"/>
			</g>
			<g class="st1">
				<path d="M44.6,35.6l0.9-0.1c0,0.4,0.2,0.6,0.3,0.9c0.2,0.3,0.4,0.5,0.7,0.6c0.4,0.2,0.7,0.2,1.1,0.2c0.4,0,0.6-0.1,1-0.2
					c0.4-0.1,0.5-0.3,0.6-0.5s0.2-0.4,0.2-0.6c0-0.2-0.1-0.5-0.2-0.6c-0.1-0.2-0.4-0.3-0.6-0.5c-0.2-0.1-0.6-0.2-1.3-0.4
					c-0.6-0.2-1.1-0.3-1.4-0.5c-0.4-0.2-0.6-0.4-0.7-0.6c-0.2-0.3-0.3-0.6-0.3-0.9c0-0.4,0.1-0.7,0.3-1s0.6-0.6,0.9-0.7
					c0.4-0.2,0.8-0.3,1.3-0.3c0.6,0,1,0.1,1.4,0.3c0.4,0.2,0.7,0.5,0.9,0.7c0.2,0.4,0.4,0.7,0.4,1.1l-0.9,0.1
					c-0.1-0.5-0.2-0.8-0.5-1c-0.3-0.3-0.7-0.4-1.3-0.4s-1,0.1-1.3,0.3c-0.3,0.2-0.4,0.5-0.4,0.7c0,0.3,0.1,0.5,0.3,0.6
					c0.2,0.2,0.6,0.4,1.5,0.6c0.7,0.2,1.3,0.4,1.6,0.5c0.5,0.2,0.7,0.5,0.9,0.7c0.2,0.3,0.3,0.6,0.3,1s-0.1,0.7-0.4,1.1
					c-0.2,0.4-0.6,0.6-0.9,0.8c-0.4,0.2-0.9,0.3-1.4,0.3c-0.6,0-1.2-0.1-1.7-0.3s-0.8-0.5-1-0.8C44.8,36.5,44.7,36.1,44.6,35.6z"/>
				<path d="M51.6,31.7v-1h0.9v1H51.6z M51.6,38v-5.4h0.9v5.3L51.6,38L51.6,38z"/>
				<path d="M53.8,38.4l0.8,0.1c0,0.3,0.1,0.5,0.3,0.6c0.2,0.2,0.6,0.3,0.9,0.3c0.4,0,0.7-0.1,0.9-0.3s0.4-0.4,0.5-0.7
					c0-0.2,0.1-0.6,0.1-1.1c-0.4,0.5-0.8,0.6-1.5,0.6s-1.3-0.3-1.7-0.7c-0.4-0.5-0.6-1.1-0.6-1.9c0-0.5,0.1-0.9,0.3-1.4
					s0.5-0.7,0.8-1c0.4-0.3,0.7-0.4,1.2-0.4c0.6,0,1.1,0.3,1.6,0.7v-0.6h0.8v4.6c0,0.8-0.1,1.4-0.3,1.8c-0.2,0.4-0.5,0.6-0.8,0.8
					c-0.4,0.2-0.8,0.3-1.3,0.3c-0.6,0-1.1-0.2-1.5-0.5C53.9,39.4,53.8,38.9,53.8,38.4z M54.5,35.2c0,0.6,0.1,1.2,0.4,1.5
					c0.3,0.3,0.6,0.5,1,0.5s0.7-0.2,1-0.5s0.5-0.8,0.5-1.5c0-0.6-0.2-1.1-0.5-1.5s-0.6-0.5-1-0.5s-0.7,0.2-1,0.5
					C54.6,34.1,54.5,34.6,54.5,35.2z"/>
				<path d="M59.6,38v-5.4h0.8v0.7c0.4-0.6,0.9-0.8,1.7-0.8c0.3,0,0.6,0.1,0.8,0.2c0.3,0.1,0.5,0.3,0.6,0.5s0.2,0.4,0.3,0.6
					c0,0.2,0.1,0.5,0.1,0.8v3.2H63v-3.2c0-0.4,0-0.6-0.1-0.8s-0.2-0.4-0.4-0.5s-0.4-0.2-0.6-0.2c-0.4,0-0.7,0.1-1,0.4
					c-0.3,0.3-0.4,0.7-0.4,1.4v2.9h-0.8L59.6,38L59.6,38z"/>
			</g>
			<g class="st1">
				<path d="M44.8,49.3V42h0.9v3h3.8v-3h0.9v7.3h-0.9v-3.4h-3.8v3.4H44.8z"/>
				<path d="M55.6,47.6l0.9,0.1c-0.2,0.6-0.4,0.9-0.8,1.3c-0.5,0.4-0.9,0.5-1.5,0.5c-0.7,0-1.4-0.3-1.9-0.7c-0.5-0.5-0.6-1.1-0.6-2
					s0.2-1.6,0.6-2c0.5-0.5,1-0.7,1.8-0.7s1.3,0.3,1.8,0.7c0.5,0.5,0.6,1.2,0.6,2c0,0.1,0,0.1,0,0.3h-4c0,0.6,0.2,1,0.5,1.3
					s0.6,0.5,1.1,0.5c0.4,0,0.6-0.1,0.8-0.3C55.3,48.3,55.5,48,55.6,47.6z M52.6,46.2h3c0-0.5-0.2-0.7-0.4-1c-0.3-0.3-0.6-0.5-1-0.5
					s-0.7,0.1-1,0.4C52.8,45.3,52.7,45.7,52.6,46.2z"/>
				<path d="M57.7,49.3V44h0.8v0.8c0.2-0.4,0.4-0.6,0.6-0.7c0.2-0.1,0.4-0.2,0.6-0.2c0.3,0,0.6,0.1,0.9,0.3L60.3,45
					c-0.2-0.1-0.5-0.2-0.6-0.2S59.2,45,59,45.1s-0.3,0.3-0.4,0.5c-0.1,0.3-0.2,0.6-0.2,1v2.8L57.7,49.3L57.7,49.3z"/>
				<path d="M64.7,47.6l0.9,0.1c-0.2,0.6-0.4,0.9-0.8,1.3c-0.4,0.3-0.9,0.5-1.5,0.5c-0.7,0-1.4-0.3-1.9-0.7c-0.5-0.5-0.6-1.1-0.6-2
					s0.2-1.6,0.6-2s1-0.7,1.8-0.7s1.3,0.3,1.8,0.7c0.5,0.5,0.6,1.2,0.6,2c0,0.1,0,0.1,0,0.3h-4c0,0.6,0.2,1,0.5,1.3s0.6,0.5,1.1,0.5
					c0.4,0,0.6-0.1,0.8-0.3C64.3,48.3,64.5,48,64.7,47.6z M61.7,46.2h3c0-0.5-0.2-0.7-0.4-1c-0.3-0.4-0.6-0.6-1.1-0.6
					c-0.4,0-0.7,0.1-1,0.4C61.9,45.3,61.7,45.7,61.7,46.2z"/>
			</g>
		</g>
	</g>
	<g>
		<polygon class="st2" points="33,13.4 30.3,13.4 29.9,6.6 33.4,6.6 		"/>
		<polygon class="st2" points="77.7,13.4 75,13.4 74.7,6.6 78.1,6.6 		"/>
	</g>
	<g>
		<rect x="50.3" y="97.8" class="st2" width="7.3" height="3.6"/>
		<rect x="53" y="85.5" class="st2" width="2.1" height="8.6"/>
		<rect x="51" y="94" class="st2" width="6" height="3.7"/>
	</g>
</g>
</svg>
