<?xml version="1.0" encoding="utf-8"?>
<!-- Generator: Adobe Illustrator 21.1.0, SVG Export Plug-In . SVG Version: 6.00 Build 0)  -->
<svg version="1.1" id="Layer_1" xmlns="http://www.w3.org/2000/svg" xmlns:xlink="http://www.w3.org/1999/xlink" x="0px" y="0px"
	 width="108px" height="108px" viewBox="0 0 108 108" style="enable-background:new 0 0 108 108;" xml:space="preserve">
<style type="text/css">
	.st0{fill:#CCCCCC;stroke:#000000;stroke-width:0.75;stroke-linecap:round;stroke-linejoin:round;stroke-miterlimit:10;}
	.st1{fill:#F2F2F2;}
	.st2{fill:#FFFFFF;}
	.st3{fill:none;stroke:#000000;stroke-width:0.75;stroke-linecap:round;stroke-linejoin:round;stroke-miterlimit:10;}
	.st4{fill:#E6E6E6;}
	.st5{fill:#E6E6E6;stroke:#000000;stroke-width:0.75;stroke-linecap:round;stroke-linejoin:round;stroke-miterlimit:10;}
	.st6{fill:#FFFFFF;stroke:#000000;stroke-width:0.75;stroke-linecap:round;stroke-linejoin:round;stroke-miterlimit:10;}
	.st7{fill:#F2F2F2;stroke:#000000;stroke-width:0.75;stroke-linecap:round;stroke-linejoin:round;stroke-miterlimit:10;}
</style>
<g>
	<polygon class="st0" points="87.3,44.8 94.2,53.1 80.7,55.9 75.7,49.3 	"/>
	<path class="st0" d="M101.8,47.6l-12.7-12l-6.9,6.7l9.3,8.9l-0.3,2.3c0,0,4.2,0.7,7.4-1.6C101.9,49.6,101.8,47.6,101.8,47.6z"/>
	<path class="st1" d="M63.5,30.3c-1.9,1.8-3.1,3.8-3,5.4c0.2,4,8.2,11.4,10.8,14c1.8,1.8,3.9,4.1,5.5,5.6c-0.4-0.5-0.7-1-0.9-1.6
		c-0.5-2.3,1.2-5.5,4.4-8.3C78.1,35.6,72.1,32.2,63.5,30.3z"/>
	<path class="st2" d="M86.7,24.5c0,0-4.1-2.2-11.7-0.4c-4.5,1.1-8.8,3.5-11.6,6.2c8.6,1.9,14.6,5.3,16.9,15.1c2.5-2.2,5.8-4,9.6-5
		c5.9-1.4,10-0.7,12-0.1L86.7,24.5z"/>
	<path class="st3" d="M76,53.7c0.1,0.6,0.5,1.1,0.9,1.6c-1.7-1.5-3.7-3.7-5.5-5.6c-2.7-2.7-10.6-10-10.8-14
		c-0.2-4,6.9-9.8,14.5-11.6c7.6-1.8,11.7,0.4,11.7,0.4l15.3,15.8c-2-0.6-6.1-1.3-12,0.1C81.3,42.5,75,49.7,76,53.7z"/>
	<path class="st2" d="M74.3,39.5c-0.4-1.8-1.7-3.9-4.4-4.3c-2.7-0.4-14.3-1.3-15.5-1l2.5,8.8c5.8-0.9,11.7-1.4,17.6-1.5
		C74.5,40.7,74.4,40.1,74.3,39.5z"/>
	<path class="st1" d="M56.9,42.9l3.6,12.7c3.8-1.5,7.5-3.2,11.1-5.2c-0.7-0.8-1.7-2.4,0.5-4.5c1.8-1.7,2.3-3.1,2.3-4.5
		C68.6,41.5,62.7,42,56.9,42.9z"/>
	<path class="st4" d="M72.1,50.7c-0.1-0.1-0.2-0.2-0.4-0.4c-3.6,2-7.3,3.8-11.1,5.2l1.6,5.6l12.4-8C74.6,53.3,72.5,51.1,72.1,50.7z"
		/>
	<path class="st3" d="M54.4,34.1c1.2-0.3,12.7,0.6,15.5,1c2.7,0.4,4,2.5,4.4,4.3c0.4,1.8,0.6,3.9-2.1,6.4c-2.7,2.5-0.5,4.5-0.1,4.8
		c0.4,0.3,2.5,2.5,2.5,2.5l-12.4,8L54.4,34.1z"/>
	<path class="st4" d="M65.7,53.4c-6.5,3-13.3,5.1-20.3,6l1.4,5.8l14-3.4l0,0C63.6,61.1,65.3,57.8,65.7,53.4z"/>
	<path class="st2" d="M54.2,34.2L54.2,34.2l-14,3.3l2,8.2c7-1.7,14.3-3,21.5-3.7C61.4,36.8,57.6,33.5,54.2,34.2z"/>
	<path class="st1" d="M63.7,42.1c-7.3,0.7-14.5,2-21.5,3.7l3.3,13.7c7-0.9,13.8-3,20.3-6c0.2-2.2,0-4.7-0.6-7.2
		C64.7,44.7,64.2,43.3,63.7,42.1z"/>
	<path class="st5" d="M76.9,55.3c-0.4-0.5-0.7-1-0.9-1.6c-1-4,5.3-11.2,14-13.3c5.9-1.4,10-0.7,12-0.1l0.3,0.3l-0.3,4.2l-1.7,0.4
		c0,0-2-2.6-4.5-2.1c-2.5,0.6-4.7,2.7-4.7,2.7s-6.6,1.6-8.3,2c-1.7,0.4-3,2.2-3.1,3.8c-0.1,1.5,1.2,2.1,3.1,1.6
		c1.9-0.5,8.6-2.1,8.6-2.1s-0.1,2,3.7,1c3.8-0.9,4.8-4.3,4.8-4.3l1.8-0.3l-0.4,3.4c0,0-5.3,4.7-11.3,6.2c-6,1.4-9.6,0.5-11.3-0.4
		C78.3,56.5,77.6,56,76.9,55.3z"/>
	<path class="st3" d="M40.2,37.5l14-3.4l0,0c4.3-0.8,9.1,4.5,10.9,12c1.8,7.5-0.1,14.5-4.3,15.7l0,0l-14,3.4L40.2,37.5z"/>
	<path class="st2" d="M40.2,37.5c-3.1,0.8-5,4.8-5,10c4.6-1.2,9.2-2.4,13.9-3.3C46.8,39.6,43.3,36.8,40.2,37.5z"/>
	<path class="st1" d="M49.2,44.2c-4.7,0.9-9.4,2-13.9,3.3c0,1.8,0.2,3.7,0.7,5.7c0.6,2.5,1.5,4.7,2.7,6.6c4.4,0,8.7-0.5,13-1.5
		c0.4-2.6,0.3-5.6-0.5-8.8C50.6,47.6,50,45.8,49.2,44.2z"/>
	<path class="st4" d="M38.6,59.8c2.3,3.9,5.5,6.1,8.3,5.4c2.5-0.6,4.1-3.3,4.7-6.9C47.3,59.3,42.9,59.9,38.6,59.8z"/>
	<ellipse transform="matrix(0.9722 -0.2341 0.2341 0.9722 -10.8754 11.4477)" class="st0" cx="42.8" cy="51.5" rx="2.8" ry="7.6"/>
	<ellipse transform="matrix(0.9722 -0.2341 0.2341 0.9722 -11.0139 11.0915)" class="st0" cx="41.2" cy="51.9" rx="2.8" ry="7.6"/>
	<ellipse transform="matrix(0.9722 -0.2341 0.2341 0.9722 -10.822 11.6123)" class="st3" cx="43.5" cy="51.4" rx="7.8" ry="14.3"/>
	<path class="st4" d="M15.9,73.5c3.8,7.6,8.7,12.2,14.2,10.9c0.7-0.2,4.1-1.1,4.7-1.4c4.3-2.2,7.1-8,7.8-15.5
		C35.2,72.8,25.6,73.6,15.9,73.5z"/>
	<path class="st2" d="M38,42.7c-4.4-9.4-11.1-15.4-17.3-14.9c-0.4,0-4.5,1-4.9,1.1C11.1,30,9,34.6,8.7,41.2
		C18.1,39.3,28.4,41.2,38,42.7z"/>
	<path class="st1" d="M38,42.7c-9.6-1.5-20-3.4-29.3-1.5C8.5,46.4,9.4,52.7,11,59.5c1.3,5.2,2.9,10,4.9,14c9.7,0.1,19.3-0.7,26.7-6
		c0.4-4.6,0.1-9.9-1.2-15.3C40.5,48.8,39.4,45.6,38,42.7z"/>
	<path class="st4" d="M12.8,73.5c4.7,7.8,11.2,12.4,17.1,10.9c5.4-1.3,9-7.3,10.1-15.3C32.2,73.4,22.5,73.7,12.8,73.5z"/>
	<path class="st1" d="M35.1,42.2c-9.4-1.5-19.3-2.9-28.2-0.6c-1.1,5.4-1,11.9,0.6,18.7c1.2,4.9,3,9.4,5.3,13.1
		c9.7,0.2,19.4,0,27.2-4.4c0.6-4.9,0.4-10.5-1-16.3C38,48.9,36.7,45.4,35.1,42.2z"/>
	<path class="st2" d="M35.1,42.2C30.3,32.8,23,27.2,16.5,28.7c-4.8,1.2-8.2,6.1-9.6,12.9C15.8,39.3,25.7,40.7,35.1,42.2z"/>
	<path class="st4" d="M15,73.5c3.2,6,7.2,9.6,11.6,8.5c0.6-0.1,3.5-0.9,4-1.2c3-1.6,5.1-5.2,6.1-10.1C30.1,73.2,22.6,73.6,15,73.5z"
		/>
	<path class="st2" d="M31.4,41.7c-3.8-6.5-8.7-10.6-13.3-10.2c-0.4,0-3.9,0.8-4.2,0.9c-3.5,0.9-5.3,4.2-5.8,8.9
		C15.4,39.7,23.5,40.5,31.4,41.7z"/>
	<path class="st1" d="M31.4,41.7c-7.9-1.2-16-2-23.4-0.3c-0.5,4.9,0.3,11.4,2,18.3c1.3,5.3,3,10.1,5,13.8c7.6,0.1,15.2-0.2,21.7-2.8
		c1-4.9,0.8-10.9-0.7-17.3C34.9,49,33.3,45,31.4,41.7z"/>
	<path class="st3" d="M30.1,84.4c0.7-0.2,4.1-1.1,4.7-1.4c7-3.5,10-16.6,6.6-30.8c-3.5-14.6-12.5-25.1-20.6-24.4
		c-0.4,0-4.5,1-4.9,1.1c-8.4,2-8.5,15.2-4.8,30.6C14.7,74.9,21.7,86.4,30.1,84.4z"/>
	<ellipse transform="matrix(0.9722 -0.2341 0.2341 0.9722 -12.5917 7.0127)" class="st3" cx="23.2" cy="56.6" rx="16.2" ry="28.6"/>
	<path class="st3" d="M26.6,82c0.6-0.1,3.5-0.9,4-1.2c6-3.1,8.4-14.7,5.4-27.4c-3.1-13.1-11-22.5-17.9-21.9c-0.4,0-3.9,0.8-4.2,0.9
		C6.7,34.1,6.7,45.9,10,59.7C13.3,73.4,19.4,83.7,26.6,82z"/>
	<path class="st6" d="M33.7,74.3c-1.5,4.1-4,6.9-7.2,7.7C19,83.8,10.2,74.1,6.9,60.4c0-0.1-0.1-0.3-0.1-0.4l0,0L33.7,74.3z"/>
	<path class="st7" d="M33.7,74.3L6.9,60l0,0c-3.2-13.6,0.2-26,7.6-27.8c7.5-1.8,16.2,7.9,19.5,21.6C35.9,61.6,35.6,69,33.7,74.3z"/>
	<path class="st0" d="M33.7,74.3L6.9,60c0,0-0.8-5.9,6.8-6.7c7.6-0.8,11.2,1.6,13.4,8.1C29.2,67.9,29,71.7,33.7,74.3z"/>
</g>
</svg>
