<?xml version="1.0" encoding="utf-8"?>
<!-- Generator: Adobe Illustrator 21.1.0, SVG Export Plug-In . SVG Version: 6.00 Build 0)  -->
<svg version="1.1" id="Layer_1" xmlns="http://www.w3.org/2000/svg" xmlns:xlink="http://www.w3.org/1999/xlink" x="0px" y="0px"
	 width="108px" height="108px" viewBox="0 0 108 108" style="enable-background:new 0 0 108 108;" xml:space="preserve">
<style type="text/css">
	.st0{fill:#FFFFFF;stroke:#000000;stroke-width:0.75;stroke-linecap:round;stroke-linejoin:round;stroke-miterlimit:10;}
	.st1{fill:#FFFFFF;stroke:#000000;stroke-width:0.5;stroke-miterlimit:10;}
	.st2{fill:#FFFFFF;stroke:#000000;stroke-width:0.5;stroke-linecap:round;stroke-linejoin:round;stroke-miterlimit:10;}
	.st3{enable-background:new    ;}
</style>
<g>
	<rect x="50.8" y="92" class="st0" width="6.4" height="8.5"/>
	<path class="st1" d="M54,91.6c-0.3,0-0.5-0.2-0.5-0.5V10.8c0-0.3,0.2-0.5,0.5-0.5s0.5,0.2,0.5,0.5v80.3
		C54.5,91.4,54.3,91.6,54,91.6z"/>
	<path class="st0" d="M56.2,87.5c0,0.8-0.5,1.5-1.1,1.9v1.9c0,0.4-0.3,0.7-0.7,0.7h-0.7c-0.4,0-0.7-0.3-0.7-0.7v-1.9
		c-0.7-0.4-1.1-1.1-1.1-1.9s0.4-1.5,1.1-1.9v-3.7c0-0.4,0.3-0.7,0.7-0.7h0.7c0.4,0,0.7,0.3,0.7,0.7v3.7
		C55.8,85.9,56.2,86.6,56.2,87.5z"/>
	<path class="st1" d="M83.2,11.3H24.8c-0.3,0-0.5-0.2-0.5-0.5s0.2-0.5,0.5-0.5h58.4c0.3,0,0.5,0.2,0.5,0.5S83.5,11.3,83.2,11.3z"/>
	<g>
		<rect x="29.6" y="12.9" class="st2" width="48.8" height="57.9"/>
		<g class="st3">
			<path d="M46.5,33.5v-3.3l-3-4.5h1.3l1.6,2.4c0.3,0.4,0.6,0.9,0.8,1.3c0.2-0.4,0.5-0.9,0.9-1.4l1.5-2.3h1.2l-3.1,4.5v3.3H46.5z"/>
			<path d="M50.1,30.6c0-1.1,0.3-1.8,0.9-2.3c0.5-0.4,1.1-0.6,1.8-0.6c0.8,0,1.4,0.3,1.9,0.8s0.7,1.2,0.7,2.1c0,0.7-0.1,1.3-0.3,1.7
				c-0.2,0.4-0.5,0.7-1,1s-0.9,0.3-1.4,0.3c-0.8,0-1.4-0.3-1.9-0.8S50.1,31.6,50.1,30.6z M51.1,30.6c0,0.7,0.2,1.3,0.5,1.6
				c0.3,0.4,0.7,0.5,1.2,0.5s0.9-0.2,1.2-0.5c0.3-0.4,0.5-0.9,0.5-1.7c0-0.7-0.2-1.2-0.5-1.6s-0.7-0.5-1.2-0.5s-0.9,0.2-1.2,0.5
				C51.3,29.3,51.1,29.9,51.1,30.6z"/>
			<path d="M60.3,33.5v-0.8c-0.4,0.6-1,1-1.8,1c-0.3,0-0.7-0.1-0.9-0.2c-0.2-0.1-0.5-0.3-0.7-0.5c-0.1-0.2-0.2-0.4-0.3-0.7
				c0-0.2-0.1-0.5-0.1-0.9v-3.5h1v3.2c0,0.5,0,0.8,0.1,1c0.1,0.3,0.2,0.5,0.4,0.6s0.4,0.2,0.7,0.2s0.6-0.1,0.8-0.2
				c0.3-0.1,0.4-0.4,0.5-0.6c0.1-0.3,0.2-0.6,0.2-1.1v-3.1h1v5.7L60.3,33.5L60.3,33.5z"/>
			<path d="M62.7,33.5v-5.7h0.9v0.9c0.2-0.4,0.4-0.7,0.6-0.8c0.2-0.1,0.4-0.2,0.6-0.2c0.3,0,0.7,0.1,1,0.3l-0.3,0.9
				c-0.2-0.1-0.5-0.2-0.7-0.2s-0.4,0.1-0.6,0.2s-0.3,0.3-0.4,0.5c-0.1,0.3-0.2,0.7-0.2,1.1v3H62.7z"/>
		</g>
		<g class="st3">
			<path d="M43.7,43.2l1-0.1c0,0.4,0.2,0.7,0.3,1c0.2,0.3,0.4,0.5,0.8,0.6c0.4,0.2,0.8,0.2,1.2,0.2s0.7-0.1,1.1-0.2
				c0.4-0.1,0.5-0.3,0.7-0.5c0.1-0.2,0.2-0.4,0.2-0.7c0-0.2-0.1-0.5-0.2-0.6c-0.1-0.2-0.4-0.3-0.7-0.5c-0.2-0.1-0.7-0.2-1.4-0.4
				s-1.2-0.3-1.5-0.5c-0.4-0.2-0.7-0.4-0.8-0.7c-0.2-0.3-0.3-0.6-0.3-1s0.1-0.8,0.3-1.1s0.6-0.6,1-0.8s0.9-0.3,1.4-0.3
				c0.6,0,1.1,0.1,1.5,0.3s0.8,0.5,1,0.8c0.2,0.4,0.4,0.8,0.4,1.2l-1,0.1c-0.1-0.5-0.2-0.9-0.5-1.1c-0.3-0.3-0.8-0.4-1.4-0.4
				c-0.6,0-1.1,0.1-1.4,0.3C45.1,39,45,39.3,45,39.6s0.1,0.5,0.3,0.7s0.7,0.4,1.6,0.6c0.8,0.2,1.4,0.4,1.7,0.5
				c0.5,0.2,0.8,0.5,1,0.8s0.3,0.7,0.3,1.1c0,0.4-0.1,0.8-0.4,1.2c-0.2,0.4-0.6,0.7-1,0.9s-1,0.3-1.5,0.3c-0.7,0-1.3-0.1-1.8-0.3
				s-0.9-0.5-1.1-0.9C43.9,44.2,43.8,43.7,43.7,43.2z"/>
			<path d="M51.3,39v-1.1h1V39H51.3z M51.3,45.8V40h1v5.7L51.3,45.8L51.3,45.8z"/>
			<path d="M53.6,46.2l0.9,0.1c0,0.3,0.1,0.5,0.3,0.6c0.2,0.2,0.6,0.3,1,0.3s0.8-0.1,1-0.3s0.4-0.4,0.5-0.8c0-0.2,0.1-0.6,0.1-1.2
				c-0.4,0.5-0.9,0.7-1.6,0.7c-0.8,0-1.4-0.3-1.8-0.8c-0.4-0.5-0.6-1.2-0.6-2c0-0.5,0.1-1,0.3-1.5s0.5-0.8,0.9-1.1s0.8-0.4,1.3-0.4
				c0.7,0,1.2,0.3,1.7,0.8V40h0.9v5c0,0.9-0.1,1.5-0.3,1.9s-0.5,0.7-0.9,0.9s-0.9,0.3-1.4,0.3c-0.7,0-1.2-0.2-1.6-0.5
				C53.8,47.3,53.6,46.8,53.6,46.2z M54.4,42.8c0,0.7,0.1,1.3,0.4,1.6s0.7,0.5,1.1,0.5s0.8-0.2,1.1-0.5s0.5-0.9,0.5-1.6
				c0-0.7-0.2-1.2-0.5-1.6c-0.3-0.4-0.7-0.5-1.1-0.5c-0.4,0-0.8,0.2-1.1,0.5C54.5,41.6,54.4,42.1,54.4,42.8z"/>
			<path d="M59.9,45.8V40h0.9v0.8c0.4-0.6,1-0.9,1.8-0.9c0.3,0,0.7,0.1,0.9,0.2c0.3,0.1,0.5,0.3,0.6,0.5s0.2,0.4,0.3,0.7
				c0,0.2,0.1,0.5,0.1,0.9v3.5h-1v-3.5c0-0.4,0-0.7-0.1-0.9s-0.2-0.4-0.4-0.5s-0.4-0.2-0.7-0.2c-0.4,0-0.8,0.1-1.1,0.4
				s-0.4,0.8-0.4,1.5v3.1h-0.9C59.9,45.6,59.9,45.8,59.9,45.8z"/>
		</g>
		<g class="st3">
			<path d="M43.9,58v-7.9h1v3.2H49v-3.2h1V58h-1v-3.7h-4.1V58H43.9z"/>
			<path d="M55.6,56.2l1,0.1c-0.2,0.6-0.4,1-0.9,1.4s-1,0.5-1.6,0.5c-0.8,0-1.5-0.3-2-0.8s-0.7-1.2-0.7-2.2s0.2-1.7,0.7-2.2
				s1.1-0.8,1.9-0.8s1.4,0.3,1.9,0.8s0.7,1.3,0.7,2.2c0,0.1,0,0.1,0,0.3h-4.3c0,0.6,0.2,1.1,0.5,1.4c0.3,0.3,0.7,0.5,1.2,0.5
				c0.4,0,0.7-0.1,0.9-0.3C55.3,56.9,55.5,56.6,55.6,56.2z M52.4,54.6h3.2c0-0.5-0.2-0.8-0.4-1.1c-0.3-0.3-0.7-0.5-1.1-0.5
				s-0.8,0.1-1.1,0.4C52.6,53.7,52.5,54.1,52.4,54.6z"/>
			<path d="M57.8,58v-5.7h0.9v0.9c0.2-0.4,0.4-0.7,0.6-0.8s0.4-0.2,0.6-0.2c0.3,0,0.7,0.1,1,0.3l-0.3,0.9c-0.2-0.1-0.5-0.2-0.7-0.2
				s-0.4,0.1-0.6,0.2s-0.3,0.3-0.4,0.5c-0.1,0.3-0.2,0.7-0.2,1.1v3H57.8z"/>
			<path d="M65.4,56.2l1,0.1c-0.2,0.6-0.4,1-0.9,1.4c-0.4,0.3-1,0.5-1.6,0.5c-0.8,0-1.5-0.3-2-0.8s-0.7-1.2-0.7-2.2s0.2-1.7,0.7-2.2
				s1.1-0.8,1.9-0.8s1.4,0.3,1.9,0.8s0.7,1.3,0.7,2.2c0,0.1,0,0.1,0,0.3h-4.3c0,0.6,0.2,1.1,0.5,1.4c0.3,0.3,0.7,0.5,1.2,0.5
				c0.4,0,0.7-0.1,0.9-0.3C65,56.9,65.2,56.6,65.4,56.2z M62.2,54.6h3.2c0-0.5-0.2-0.8-0.4-1.1c-0.3-0.4-0.7-0.6-1.2-0.6
				c-0.4,0-0.8,0.1-1.1,0.4C62.4,53.7,62.2,54.1,62.2,54.6z"/>
		</g>
	</g>
	<g>
		<polygon class="st0" points="34.3,13.9 31.8,13.9 31.3,7.5 34.7,7.5 		"/>
		<polygon class="st0" points="76.3,13.9 73.8,13.9 73.4,7.5 76.7,7.5 		"/>
	</g>
</g>
</svg>
