<?xml version="1.0" encoding="utf-8"?>
<!-- Generator: Adobe Illustrator 21.1.0, SVG Export Plug-In . SVG Version: 6.00 Build 0)  -->
<svg version="1.1" id="Layer_1" xmlns="http://www.w3.org/2000/svg" xmlns:xlink="http://www.w3.org/1999/xlink" x="0px" y="0px"
	 width="108px" height="108px" viewBox="0 0 108 108" style="enable-background:new 0 0 108 108;" xml:space="preserve">
<style type="text/css">
	.st0{fill:#FFFFFF;stroke:#000000;stroke-width:0.75;stroke-linecap:round;stroke-linejoin:round;stroke-miterlimit:10;}
	.st1{fill:#666666;stroke:#000000;stroke-width:0.75;stroke-linecap:round;stroke-linejoin:round;stroke-miterlimit:10;}
	.st2{fill:#CCCCCC;stroke:#000000;stroke-width:0.75;stroke-linecap:round;stroke-linejoin:round;stroke-miterlimit:10;}
	.st3{fill:#E6E6E6;stroke:#000000;stroke-width:0.75;stroke-linecap:round;stroke-linejoin:round;stroke-miterlimit:10;}
	.st4{fill:#B3B3B3;stroke:#000000;stroke-width:0.75;stroke-linecap:round;stroke-linejoin:round;stroke-miterlimit:10;}
	.st5{fill:none;stroke:#000000;stroke-width:0.75;stroke-linecap:round;stroke-linejoin:round;stroke-miterlimit:10;}
	.st6{fill:#F2F2F2;stroke:#000000;stroke-width:0.75;stroke-linecap:round;stroke-linejoin:round;stroke-miterlimit:10;}
</style>
<g>
	<path class="st0" d="M67,23.6c-0.6-4.4-5.9-6.4-9.8-6.8c-4.1-0.5-8.8,0.1-12.3,2.5c-3.9,2.7-4.7,7.3-0.6,10.2
		c3.4,2.5,8.2,3,12.3,2.5C60.8,31.4,67.4,28.9,67,23.6z M63.7,24.5c-2.8,1.7-5.6,3.8-8.5,5.1c-0.9,0.4-1.7,0.3-2.5-0.1
		c-1.7-0.9-3.3-2-5-3c-0.8-0.5-3.1-1.3-3.5-2.2c-0.5-1.1,2-1.9,2.7-2.3c1.8-1,3.6-2,5.3-3c0.9-0.5,1.9-0.7,2.9-0.3
		c1.8,0.6,3.6,2,5.2,2.9c0.9,0.5,1.8,1,2.7,1.5C63.7,23.7,63.7,23.6,63.7,24.5z"/>
	<path class="st1" d="M53,18.7c0,3.7,0,7.4,0,11.1c-1.6-0.9-3.1-1.9-4.7-2.8c-1-0.6-2-1.2-3-1.8c-0.5-0.3-1-0.4-1.1-1
		c-0.2-1.2,3.1-2.3,4-2.8C49.8,20.5,51.4,19.6,53,18.7z"/>
	<path class="st2" d="M55,18.7c0,1.7,0,3.4,0,5.1c0,1.2,0,2.4,0,3.7c0,0.5,0.2,1.8,0,2.2c-0.2,0.4-1.3,0.5-1.7,0.3
		c-0.4-0.3-0.3-0.6-0.3-1.1c0-2.3,0-4.6,0-6.9c0-0.7-0.3-2.3,0-2.9C53.2,18.5,54.4,18.7,55,18.7z"/>
	<path class="st1" d="M63.7,23.6c0,1,0,0.9-0.8,1.4c-1,0.6-1.9,1.2-2.9,1.7c-1.7,1-3.3,2-5,3c0-3.7,0-7.4,0-11.1
		C57.9,20.3,60.8,21.9,63.7,23.6z"/>
	<path class="st3" d="M67,24.3c0,5.7,0,11.4,0,17.1c0,1.4,0,2.8,0,4.3c0,0.6,0.2,1.5,0,2.1c-0.3,0.8-1.5,1.7-2.1,2.3
		c-0.9,0.8-1.9,1.5-2.9,2.1c-4.2,2.3-9.3,2.8-13.8,1c-2.2-0.9-4.1-2.2-5.8-3.8c-0.6-0.6-1-0.9-1-1.7c-0.1-1.1,0-2.2,0-3.2
		c0-6.5,0-13,0-19.4c0.2,4.5,5.7,6.6,9.5,7.1c4.1,0.6,8.7,0,12.2-2.2C65.1,28.6,66.8,26.7,67,24.3z"/>
	<path class="st4" d="M102.8,38.9c0,1.8,0.2,3.6,0,5.4c-0.1,0.8,0.1,0.4-0.4,0.8c-1.1,1-2.9,1.7-4.2,2.4c-6.2,3.5-12.4,7-18.5,10.6
		C64,67,48.2,76,32.5,84.9c-3.8,2.1-7.5,4.3-11.3,6.4c0-1,0-2,0-3.1c0-0.4,0.3-2.4-0.2-2.5c0.7,0,1.6-0.8,2.2-1.1
		c1.9-1.1,3.9-2.2,5.8-3.3c6.5-3.7,13-7.5,19.5-11.2c14.7-8.5,29.4-16.9,44.1-25.4C96,42.8,99.4,40.8,102.8,38.9z"/>
	<path class="st4" d="M21.2,85.8c0,1.8,0,3.7,0,5.5c-0.4-0.3-1.7-0.7-1.9-1.2c-0.3-0.7,0-2.2,0-2.9c0-0.7,0.1-0.7-0.4-1.1
		c-0.6-0.6-1.6-0.9-2.4-1.4c-3-1.7-6-3.4-9-5.2c0,1.3,0,2.6,0,3.9C6.6,83,5.8,83,5.7,82c-0.2-1.5,0-3.1,0-4.6c0-2.8,0-5.7,0-8.5
		c3.3,1.9,6.6,3.8,9.8,5.7c0.9,0.5,1.8,1.1,2.7,1.6c0.3,0.2,1.1,0.4,1.3,0.7c0.2,0.4,0,1.7,0,2.1c0,1.3,0,2.5,0,3.8
		C19.5,84,19.4,86,21.2,85.8z"/>
	<path class="st1" d="M10.9,81.6c-1.1,0.6-2.2,1.3-3.4,1.9c0-1.3,0-2.6,0-3.9C8.7,80.3,9.8,80.9,10.9,81.6z"/>
	<line class="st5" x1="5.7" y1="68.9" x2="5.7" y2="68.9"/>
	<path class="st2" d="M104.3,28.2v7.7c0,1.6-0.2,2.2-1.6,3.1l-5.5,3.2c-9.6,5.5-19.2,11-28.8,16.6c-11,6.3-21.9,12.6-32.9,19
		c-3.6,2.1-7.3,4.2-10.9,6.3c-1,0.6-3.2,2.6-4.5,1.6c-0.6-0.5-0.6-1.1-0.6-1.8v-4.3c0-0.6,0.3-2.1,0-2.6c-0.3-0.5-1.8-1-2.3-1.3
		c-3.8-2.2-7.7-4.4-11.5-6.6v8.5c-1.9,0-2.1-1.9-2.1-3.3c0,0,0-7.8,0-8.3c3.6,2.1,7.2,4.2,10.9,6.3c2.5,1.4,5.7,4.3,8.8,3.2
		c2.2-0.8,4.3-2.4,6.3-3.5c4.5-2.6,9-5.2,13.5-7.8c6.5-3.7,12.9-7.5,19.4-11.2c6.9-4,13.7-7.9,20.6-11.9c4.6-2.7,9.2-5.3,13.8-8
		c2.2-1.3,4.7-2.4,6.8-3.9C104,28.7,104.2,28.6,104.3,28.2z"/>
	<path class="st6" d="M104.4,27.8c0,1.5-3.5,2.8-4.5,3.4c-4.3,2.5-8.6,5-12.9,7.5c-5,2.9-10,5.8-15,8.7c-1.9,1.1-3.8,2.2-5.7,3.3
		c-1.1,0.6-2.2,1.5-3.4,1.9c-0.1,0-0.4,0.3-0.5,0.3c-1.2-0.3,1-1.5,1.2-1.7c1-0.8,3-2.2,3.4-3.4c0.1-0.5,0-1.3,0-1.8
		c0-1.2,0-2.3,0-3.5c0-2.9,0-5.8,0-8.6c0-1.1,0-2.3,0-3.4c0-0.4-0.2-1.3,0-1.6c0.3-0.7,2.3-1.4,2.9-1.7c4.6-2.6,9.3-5.3,13.9-7.9
		c1-0.6,2.3-1.5,3.5-1.5c1.3,0.1,2.6,1.2,3.7,1.8c2.4,1.4,4.9,2.8,7.3,4.2c1.8,1,3.8,1.9,5.4,3.1C104.1,27.2,104.3,27.2,104.4,27.8z
		"/>
	<path class="st0" d="M62.4,52.8c-6.3,3.6-12.6,7.3-18.9,10.9c-4.4,2.5-8.8,5.1-13.2,7.6c-2.1,1.2-4.1,2.5-6.2,3.6
		c-2.8,1.4-5-0.4-7.4-1.8c-4.1-2.3-8.1-4.7-12.2-7c-0.7-0.4-1-0.8-0.4-1.4c0.7-0.7,2-1.2,2.9-1.7c3.9-2.3,7.9-4.5,11.8-6.8
		c4.6-2.7,9.2-5.3,13.9-8c1.8-1,3.6-2.1,5.3-3.1c1-0.6,2.1-1.4,3.1-1.8c0.2-0.1,0.3-0.2,0.4-0.3c0,1.8-0.6,4.3,0.6,5.7
		c1.2,1.4,2.7,2.5,4.3,3.4c3.2,1.7,6.9,2.4,10.4,1.8c1.1-0.2,2.1-0.5,3.1-0.9c0.5-0.2,0.9-0.4,1.4-0.6C61.9,52.2,62,52,62.4,52.8z"
		/>
</g>
</svg>
