<?xml version="1.0" encoding="utf-8"?>
<!-- Generator: Adobe Illustrator 21.1.0, SVG Export Plug-In . SVG Version: 6.00 Build 0)  -->
<svg version="1.1" id="Layer_1" xmlns="http://www.w3.org/2000/svg" xmlns:xlink="http://www.w3.org/1999/xlink" x="0px" y="0px"
	 width="108px" height="108px" viewBox="0 0 108 108" style="enable-background:new 0 0 108 108;" xml:space="preserve">
<style type="text/css">
	.st0{fill:#E6E6E6;stroke:#000000;stroke-width:0.75;stroke-linecap:round;stroke-linejoin:round;stroke-miterlimit:10;}
	.st1{fill:#FFFFFF;}
	.st2{fill:#F2F2F2;}
	.st3{fill:#E6E6E6;}
	.st4{fill:none;stroke:#000000;stroke-width:0.75;stroke-linecap:round;stroke-linejoin:round;stroke-miterlimit:10;}
	.st5{fill:#CCCCCC;stroke:#000000;stroke-width:0.75;stroke-linecap:round;stroke-linejoin:round;stroke-miterlimit:10;}
	.st6{fill:#FFFFFF;stroke:#000000;stroke-width:0.75;stroke-linecap:round;stroke-linejoin:round;stroke-miterlimit:10;}
	.st7{fill:none;stroke:#000000;stroke-width:0.5;stroke-linecap:round;stroke-linejoin:round;stroke-miterlimit:10;}
	.st8{fill:#F2F2F2;stroke:#000000;stroke-width:0.75;stroke-linecap:round;stroke-linejoin:round;stroke-miterlimit:10;}
</style>
<g>
	<path class="st0" d="M51.5,66.5L51.5,66.5c0.2-0.6,0.2-2,0.2-2.2c0.3-0.6,0.9-1.5,1.6-1.8c0.3-0.2,1.2-0.4,1.5-0.4
		c0.7-0.1,1.1,0.3,1.4,0.6c0.2,0.2,0.2,0.5,0.4,0.6l2.4,4.5l2.2-4.1l-9-14.4L51,53.2l1.4,2.6c-0.3,0.8-0.8,1.6-1.6,1.9
		c-0.8,0.4-2.3,0-3.4-0.4c-1.5-0.8-3.2-1.2-4.8-1.1c-1.1,0.7-0.8,2.2-0.4,3.7c0.4,1.7-0.3,2.7-1.6,3.7c-0.4,0.3-0.6,1.5-0.2,2.5
		c0.5,1,1.7,1.8,2.8,1.6c2.3-0.4,3.8,1.6,5.2,1.9c0.1,0,0.3,0,0.4,0c0.7-0.4,1.3-0.9,1.8-1.5C50.9,67.6,51.2,67.1,51.5,66.5
		L51.5,66.5z"/>
	<path class="st1" d="M45.1,53l-18.4,4.9l1.6,6.1c7.9-1.3,15.7-3.2,23.6-5C49.8,54.1,46,52.8,45.1,53z"/>
	<path class="st2" d="M52,59c-7.9,1.8-15.7,3.7-23.6,5l1.5,5.7c7.6-2,15.5-3.5,23.4-4.5c0-1.1-0.1-2.3-0.5-3.7
		C52.6,60.6,52.3,59.8,52,59z"/>
	<path class="st3" d="M31.5,75.9L50.9,71c0,0,2.4-1.6,2.4-5.8c-7.9,1.1-15.8,2.5-23.4,4.5L31.5,75.9z"/>
	<path class="st4" d="M45.1,53l-18.4,4.9l4.8,18L50.9,71c0,0,3.7-2.4,1.9-9.5C51,54.6,46.1,52.7,45.1,53z"/>
	<path class="st2" d="M35.9,62.6c-4,0.8-7.9,1.5-11.9,2.1c0.1,1,0.3,2.1,0.7,3.3c0.3,1.1,0.7,2,1.1,2.9c3.9-1.2,8-2.2,12-3
		c0.3-0.7,0.4-1.5,0.2-2.4C37.8,63.8,36.9,63,35.9,62.6z"/>
	<path class="st1" d="M32.4,61.1c-1.4-1.7-3.8-4.1-6.1-2.9c-1.8,0.9-2.7,3.2-2.3,6.5c4-0.6,7.9-1.3,11.9-2.1
		C34.7,62.1,33.2,62,32.4,61.1z"/>
	<path class="st3" d="M25.9,70.9c1.7,3.5,4,5.4,6.1,4.8c2.6-0.8,2.3-3.7,3.4-4.7c0.7-0.7,2-1.6,2.6-3.1
		C33.9,68.7,29.8,69.7,25.9,70.9z"/>
	<path class="st5" d="M52.1,49.2c0,0,5,1.9,8.8,0.9c3.9-1,35.6-13.5,35.6-13.5l7.3,12.3c0,0-7.9,7-15.6,8.1
		c-7.7,1.1-26.8,7.9-26.8,7.9L52.1,49.2z"/>
	<path class="st0" d="M81.1,51c0,0,6.3-6,13.3-4.5c5.5,1.2,10.6,1.1,10.6,1.1l1.5-2L91,19.4c0,0-5.4,8.6-16.6,12.1
		c-11.1,3.5-18.7-0.2-18.7-0.2L54.5,34l9.1,16.3L81.1,51z"/>
	<path class="st6" d="M68,46.8c0,0,2.6-4.7,14.4-5.9c9.3-0.9,24,4.7,24,4.7L91.8,17.9c0,0-4.8,8.1-16,11.6
		c-11.1,3.5-16.5,1.2-16.5,1.2l-3.7,0.6l8.8,16.4L68,46.8z"/>
	<path class="st0" d="M81.5,51.6c0,0,6.4,3.5,9.1,3.2c2.7-0.3,13.3-6,13.3-6s-1.3,5-4.1,7c-2.9,1.9-8.8,4.1-11.8,5.4
		c-3,1.3-12.8,0-15.7,1.2c-2.9,1.2-13.3,5.6-13.3,5.6l1.8-3.7c0,0,3.9-1.7,6.7-3.4C70.3,59.2,77.9,54.3,81.5,51.6z"/>
	<g>
		<path class="st7" d="M75.8,46.7c0,0,2.7-3,6.3-3.4c3.6-0.4,4.7,1.5,4.7,1.5"/>
		<path class="st7" d="M77.5,57.8c0,0,2.8,1.7,6.4,1.7c3.6,0,4.3-2.6,4.3-2.6"/>
		<path class="st7" d="M66,53.9c1.1,1.8,2.5,4.1,2.5,4.1"/>
		<line class="st7" x1="66.4" y1="42.9" x2="61.3" y2="34.2"/>
		<line class="st7" x1="69.3" y1="42.6" x2="64.8" y2="34.2"/>
		<line class="st7" x1="94.4" y1="39" x2="88.6" y2="28.6"/>
		<line class="st7" x1="100.3" y1="40.2" x2="92.5" y2="25.3"/>
		<line class="st7" x1="62.6" y1="55.4" x2="65" y2="59"/>
	</g>
	<path class="st8" d="M78.9,34.1c-4.8,1.1-6.3,3.8-6.8,5.5l13.8-2.2C85.5,36,84.1,32.9,78.9,34.1z"/>
	<path class="st5" d="M85.2,31.3L67.8,34l3.2,5.8l1.1-0.2c0.5-1.7,2-4.4,6.8-5.5c3.1-0.7,4.9,0.1,5.9,1.2c0.4-0.8,0.9-1.5,1.4-2.1
		L85.2,31.3z"/>
	<path class="st5" d="M85.9,37.5l2.3-0.4l-2-3.8c-0.5,0.6-1,1.3-1.4,2.1C85.4,36.1,85.7,36.9,85.9,37.5z"/>
	<line class="st6" x1="64.6" y1="47.6" x2="63.6" y2="50.3"/>
	<path class="st4" d="M36.7,55.2c0,0,5,1,7,8.6c1.7,6.7-0.9,9.3-0.9,9.3"/>
	<path class="st1" d="M36,65.4c-0.4-0.6-1.1-1.1-1.6-1.1c-1.6,0.1-2.8-0.2-3.7-1.6c-0.8-1.2-1.6-2.5-2.9-2.3c-1.2,0.8-2.2,2-2.7,3.4
		C28.5,65.2,32.1,65.9,36,65.4z"/>
	<path class="st2" d="M36,65.4c-3.8,0.5-7.5-0.2-10.8-1.7c0,0,0,0.1,0,0.1c-0.5,0.9-1.3,1.9-2.2,2.2c-2.7,0.7-7.7-2.5-7.7-2.5
		l4.3,12.4c0,0,0.4-4,4.4-5.1c0.6-0.2,1.3-0.1,1.9,0.1c3.2-1,6.4-1.8,9.7-2.5c0.7-0.6,0.9-1.7,0.6-2.5C36.2,65.7,36.1,65.5,36,65.4z
		"/>
	<path class="st3" d="M25.9,70.9c0.4,0.1,0.8,0.3,1.1,0.5c0.4,0.4,0.9,0.7,1.5,1l0,0l0,0c1.3,0.7,2.7,0.9,4.2,0.7
		c0.1-0.1,0.2-0.2,0.3-0.3c0.8-1,0.4-3.2,2.4-4.3c0.1,0,0.2-0.1,0.2-0.2C32.3,69.1,29.1,70,25.9,70.9z"/>
	<path class="st4" d="M30.7,62.6c0.9,1.4,2.1,1.7,3.7,1.6c0.5,0,1.5,0.7,1.8,1.6c0.3,0.9,0,2.2-0.9,2.7c-2,1-1.6,3.3-2.4,4.3
		c-0.1,0.1-0.2,0.2-0.3,0.3c-1.5,0.2-2.9-0.1-4.2-0.7l0,0l0,0c-0.5-0.3-1-0.6-1.5-1c-0.9-0.5-2-0.8-3.1-0.6c-4,1-4.4,5.1-4.4,5.1
		l-4.3-12.4c0,0,5,3.2,7.7,2.5c0.9-0.2,1.7-1.3,2.2-2.2c0.5-1.4,1.5-2.6,2.7-3.5C29,60.2,29.9,61.4,30.7,62.6z"/>
	<path class="st4" d="M38.1,65.5c0.6,2.9-1.7,4.5-2.8,5.5c-1.1,1-0.8,4-3.4,4.7c-2.6,0.8-5.6-2.5-7.2-7.7c-1.6-5.2-0.7-8.6,1.6-9.8
		c2.3-1.2,4.6,1.1,6.1,2.9C33.8,62.8,37.3,61.6,38.1,65.5z"/>
	<g>
		<path class="st3" d="M8.5,82.6c2.5,5.2,5.9,8.2,9.6,7.3c0.4-0.1,2.8-0.7,3.2-0.9c2.9-1.5,4.8-5.4,5.3-10.5
			C21.5,82.1,15.1,82.6,8.5,82.6z"/>
		<path class="st1" d="M23.5,61.8c-3-6.4-7.5-10.4-11.7-10.1c-0.3,0-3,0.7-3.3,0.7c-3.2,0.8-4.6,3.9-4.8,8.3
			C10,59.5,17,60.7,23.5,61.8z"/>
		<path class="st2" d="M23.5,61.8c-6.5-1-13.5-2.3-19.8-1c-0.2,3.5,0.4,7.8,1.5,12.4c0.9,3.5,2,6.8,3.3,9.5c6.6,0,13-0.5,18.1-4.1
			c0.3-3.1,0-6.7-0.8-10.3C25.1,65.9,24.4,63.7,23.5,61.8z"/>
		<path class="st3" d="M6.4,82.6C9.6,87.9,14,90.9,18,90c3.6-0.9,6.1-4.9,6.8-10.3C19.5,82.6,13,82.7,6.4,82.6z"/>
		<path class="st2" d="M21.5,61.5c-6.3-1-13.1-2-19.1-0.4c-0.8,3.6-0.7,8.1,0.4,12.7c0.8,3.3,2.1,6.4,3.6,8.9
			c6.5,0.1,13.1,0,18.4-2.9c0.4-3.3,0.2-7.1-0.7-11C23.5,66,22.6,63.6,21.5,61.5z"/>
		<path class="st1" d="M21.5,61.5c-3.2-6.4-8.2-10.2-12.5-9.1c-3.3,0.8-5.6,4.1-6.5,8.7C8.4,59.5,15.1,60.4,21.5,61.5z"/>
		<path class="st3" d="M7.9,82.6c2.2,4.1,4.9,6.5,7.9,5.7c0.4-0.1,2.4-0.6,2.7-0.8c2-1.1,3.5-3.5,4.1-6.8
			C18.1,82.4,13,82.7,7.9,82.6z"/>
		<path class="st1" d="M19,61.1c-2.5-4.4-5.9-7.1-9-6.9c-0.2,0-2.6,0.6-2.8,0.6c-2.4,0.6-3.6,2.8-3.9,6C8.2,59.7,13.7,60.3,19,61.1z
			"/>
		<path class="st2" d="M19,61.1c-5.3-0.8-10.8-1.3-15.8-0.2c-0.4,3.3,0.2,7.7,1.3,12.4c0.9,3.6,2,6.8,3.4,9.4
			c5.1,0.1,10.3-0.2,14.7-1.9c0.7-3.3,0.5-7.4-0.5-11.7C21.3,66,20.3,63.3,19,61.1z"/>
		<path class="st4" d="M18.1,89.9c0.4-0.1,2.8-0.7,3.2-0.9c4.8-2.4,6.7-11.2,4.4-20.8c-2.4-9.9-8.5-17-13.9-16.5
			c-0.3,0-3,0.7-3.3,0.7c-5.7,1.4-5.7,10.3-3.2,20.7C7.7,83.5,12.4,91.3,18.1,89.9z"/>
		
			<ellipse transform="matrix(0.9722 -0.2341 0.2341 0.9722 -16.2772 5.1282)" class="st4" cx="13.5" cy="71.1" rx="10.9" ry="19.4"/>
		<path class="st4" d="M15.7,88.3c0.4-0.1,2.4-0.6,2.7-0.8c4.1-2.1,5.7-10,3.6-18.5c-2.1-8.8-7.4-15.2-12.1-14.8
			c-0.2,0-2.6,0.6-2.8,0.6C2.3,56,2.3,63.9,4.5,73.2C6.8,82.5,10.9,89.5,15.7,88.3z"/>
		<path class="st6" d="M20.5,83.1c-1,2.8-2.7,4.7-4.9,5.2c-5.1,1.2-11-5.3-13.2-14.6c0-0.1,0-0.2-0.1-0.3l0,0L20.5,83.1z"/>
		<path class="st8" d="M20.5,83.1L2.4,73.5l0,0c-2.1-9.2,0.1-17.6,5.2-18.8c5.1-1.2,11,5.3,13.2,14.6C22,74.6,21.8,79.6,20.5,83.1z"
			/>
		<path class="st5" d="M20.5,83.1L2.4,73.5c0,0-0.6-4,4.6-4.5c5.1-0.5,7.6,1.1,9.1,5.5C17.5,78.8,17.4,81.4,20.5,83.1z"/>
	</g>
</g>
</svg>
