<?xml version="1.0" encoding="utf-8"?>
<!-- Generator: Adobe Illustrator 21.1.0, SVG Export Plug-In . SVG Version: 6.00 Build 0)  -->
<svg version="1.1" id="Layer_1" xmlns="http://www.w3.org/2000/svg" xmlns:xlink="http://www.w3.org/1999/xlink" x="0px" y="0px"
	 width="108px" height="108px" viewBox="0 0 108 108" style="enable-background:new 0 0 108 108;" xml:space="preserve">
<style type="text/css">
	.st0{fill:none;stroke:#231F20;stroke-width:0.75;}
	.st1{fill:#F2F2F2;stroke:#231F20;stroke-width:0.75;}
	.st2{fill:#FFFFFF;stroke:#231F20;stroke-width:0.75;}
	.st3{fill:#E6E6E6;stroke:#231F20;stroke-width:0.75;}
	.st4{fill:none;stroke:#231F20;stroke-width:0.25;}
	.st5{fill:#CCCCCC;stroke:#231F20;stroke-width:0.5;stroke-linejoin:round;}
	.st6{fill:none;stroke:#231F20;stroke-width:0.5;}
</style>
<path class="st0" d="M110,5.5c0,0,0.1,0,0.1,0c0,0,0.1,0,0.1,0"/>
<g>
	<path class="st1" d="M59.4,34.6L59.4,34.6c0-0.1,0-0.2,0-0.3c-0.9,0.3-2,0.6-2.9,0.7c-0.9,0.1-2.3,0.1-3.4,0l-1.2,53.8
		c1,0,3.2,0.1,4.5,0c0.5-0.1,1.1-0.1,1.7-0.2c0.1-0.2,0.2-0.4,0.4-0.5L59.4,34.6z"/>
	<path class="st2" d="M66.9,86.9c-3.1,0.6-5.1,1-5.1,1s-1.1,0.2-2.4,0.4c0,0-0.1,0-0.1,0c-0.4,0.1-0.9,0.2-1.3,0.2
		c0.1-0.2,0.2-0.4,0.4-0.5l0,0.4C58.3,88.4,61.9,87.8,66.9,86.9z"/>
	<path class="st3" d="M53.1,35.1l-1.2,53.8c-0.4,0-0.6,0-0.6,0L6.3,85.7c-1.2-0.1-2.3-1.2-2.3-2.4v-0.9l0-51.1c0-1.3,1-2.2,2.3-2.1
		L51.2,35C51.2,35,52,35,53.1,35.1z"/>
	<line class="st4" x1="53.1" y1="35.1" x2="53.1" y2="35"/>
	<path class="st5" d="M51.8,88.9v0.2c0,0-44.5-0.6-46.6-1.8c-2-1.1-1.2-4.9-1.2-4.9h0.1v0.9c0,1.3,1,2.4,2.3,2.4l44.9,3.1
		C51.2,88.9,51.5,88.9,51.8,88.9z"/>
	<path class="st5" d="M102,81.1c-0.7,1.4-7.2,2-8.6,2.3c-1.3,0.2-32.1,4.9-34,5.2l0-0.3c1.4-0.2,4.1-0.7,7.5-1.3
		c0.2-0.1,0.5-0.1,0.7-0.1c8.7-1.6,21.4-3.9,28.6-5.7c0.1,0,0.1,0,0.2,0c1.8-0.4,3-0.6,3.2-0.7c0.4-0.1,0.8-0.3,1.1-0.5c0,0,0,0,0,0
		c0.5-0.2,0.9-0.4,1-0.5c0.1-0.1,0.1-0.3,0.2-0.7c0.3-0.4,0.4-0.9,0.4-1.3v-0.1h0.1C102.4,77.3,102.6,80,102,81.1z"/>
	<path class="st6" d="M59.4,88.5C59.4,88.5,59.3,88.5,59.4,88.5"/>
	<line class="st4" x1="59.2" y1="34.6" x2="58.1" y2="88.5"/>
	<path class="st2" d="M104.2,21.1L103,56.4c0,0.5,0,1.1-0.1,1.6c0,0.5,0,1.1,0,1.6c0,1.2-0.1,2.3-0.1,3.4c0,0.6,0,1.2-0.1,1.8
		c0,0.4,0,0.9,0,1.3c0,0.4,0,0.8,0,1.2c-0.1,2.7-0.2,5.1-0.3,7.1c0,0.2,0,0.3,0,0.5c-0.1,0.9-0.1,1.7-0.2,2.4c0,0.2,0,0.4-0.1,0.6
		c0,0.2,0,0.3,0,0.5c0,0.2,0,0.3-0.1,0.4c-0.3,0.5-0.7,0.9-1.2,1.2c0,0,0,0,0,0c-0.9,0.3-2.4,0.7-4.3,1.2c-0.1,0-0.1,0-0.2,0
		c-6.5,1.3-20.6,4.1-28.6,5.7c-0.2,0-0.5,0.1-0.7,0.1c-3.4,0.6-6.1,1.1-7.5,1.3c-0.7,0.1-1,0.2-1,0.2l0-0.4l1-53.4l0,0
		c0-0.1,0-0.2,0-0.3c1-0.3,1.8-0.6,1.8-0.6L101.9,19C103.1,18.9,104.2,19.8,104.2,21.1z"/>
</g>
</svg>
