<?xml version="1.0" encoding="utf-8"?>
<!-- Generator: Adobe Illustrator 21.1.0, SVG Export Plug-In . SVG Version: 6.00 Build 0)  -->
<svg version="1.1" id="Layer_1" xmlns="http://www.w3.org/2000/svg" xmlns:xlink="http://www.w3.org/1999/xlink" x="0px" y="0px"
	 width="108px" height="108px" viewBox="0 0 108 108" style="enable-background:new 0 0 108 108;" xml:space="preserve">
<style type="text/css">
	.st0{fill:#B3B3B3;stroke:#000000;stroke-width:0.75;stroke-linecap:round;stroke-linejoin:round;stroke-miterlimit:10;}
	.st1{fill:none;stroke:#000000;stroke-width:0.25;stroke-linecap:round;stroke-linejoin:round;stroke-miterlimit:10;}
	.st2{fill:#E6E6E6;stroke:#000000;stroke-width:0.5;stroke-linecap:round;stroke-linejoin:round;stroke-miterlimit:10;}
	.st3{fill:#CCCCCC;stroke:#000000;stroke-width:0.75;stroke-linecap:round;stroke-linejoin:round;stroke-miterlimit:10;}
	.st4{fill:#FFFFFF;}
	.st5{fill:#E6E6E6;}
	.st6{fill:none;stroke:#000000;stroke-width:0.75;stroke-linecap:round;stroke-linejoin:round;stroke-miterlimit:10;}
	.st7{fill:#FFFFFF;stroke:#000000;stroke-width:0.75;stroke-linecap:round;stroke-linejoin:round;stroke-miterlimit:10;}
	.st8{fill:#E6E6E6;stroke:#000000;stroke-width:0.75;stroke-linecap:round;stroke-linejoin:round;stroke-miterlimit:10;}
	.st9{fill:#F2F2F2;}
	.st10{fill:#CCCCCC;}
	.st11{fill:none;stroke:#000000;stroke-width:0.5;stroke-linecap:round;stroke-linejoin:round;stroke-miterlimit:10;}
	.st12{fill:#CCCCCC;stroke:#000000;stroke-width:0.5;stroke-linecap:round;stroke-linejoin:round;stroke-miterlimit:10;}
	.st13{fill:#B3B3B3;stroke:#000000;stroke-width:0.5;stroke-linecap:round;stroke-linejoin:round;stroke-miterlimit:10;}
	.st14{fill:#808080;stroke:#000000;stroke-width:0.5;stroke-linecap:round;stroke-linejoin:round;stroke-miterlimit:10;}
	.st15{fill:#FFFFFF;stroke:#000000;stroke-width:0.5;stroke-linecap:round;stroke-linejoin:round;stroke-miterlimit:10;}
	.st16{fill:#FFFFFF;stroke:#000000;stroke-width:0.25;stroke-linecap:round;stroke-linejoin:round;stroke-miterlimit:10;}
</style>
<g>
	<g>
		<g>
			<path class="st0" d="M6.6,28.6l4.9,2.8l-2.2,4.1l-5-2.9C4.6,30.2,6.6,28.6,6.6,28.6z"/>
		</g>
		<g>
			<path class="st1" d="M6.6,28.6c-1.1,1.2-1.9,2.5-2.3,4.1"/>
			<path class="st1" d="M7.1,28.9C6,30.1,5.2,31.4,4.8,33"/>
			<path class="st1" d="M7.6,29.2c-1.2,1.1-1.9,2.5-2.3,4.1"/>
			<path class="st1" d="M8.1,29.5c-1.2,1.1-1.9,2.5-2.3,4.1"/>
			<path class="st1" d="M8.6,29.7c-1.2,1.2-1.9,2.5-2.3,4.1"/>
			<path class="st1" d="M9,30c-1.1,1.2-1.9,2.5-2.3,4.1"/>
			<path class="st1" d="M9.5,30.3c-1.1,1.2-1.9,2.5-2.3,4.1"/>
			<path class="st1" d="M10,30.6c-1.2,1.1-1.9,2.5-2.3,4.1"/>
			<path class="st1" d="M10.5,30.9c-1.2,1.1-1.9,2.5-2.3,4.1"/>
			<path class="st1" d="M11,31.1c-1.1,1.2-1.9,2.5-2.3,4.1"/>
		</g>
		<g>
			<path class="st2" d="M9.8,37.6L9.8,37.6c-2.6,1-0.7-4-0.2-4.7c0.5-0.8,3.7-4.9,4.2-2.2l0,0c-1.1,0.5-2.6,2.4-2.9,2.9
				C10.6,34.1,9.7,36.3,9.8,37.6z"/>
			<path class="st2" d="M11.1,38.3L11.1,38.3c-0.9,0.3-1.3-0.1-1.3-0.8c-0.1-1.3,0.8-3.5,1.1-4c0.3-0.5,1.8-2.4,2.9-2.9
				c0.6-0.3,1.1-0.2,1.3,0.7l0,0c-1.1,0.5-2.6,2.4-2.9,3C11.9,34.9,11,37.1,11.1,38.3z"/>
			<path class="st2" d="M12.4,38.6c0,0.2,0,0.3,0.1,0.5l0,0c-0.9,0.3-1.2-0.1-1.3-0.8c-0.1-1.3,0.8-3.5,1.1-4c0.3-0.6,1.8-2.4,2.9-3
				c0.6-0.3,1.1-0.2,1.3,0.7l0,0c-0.1,0-0.3,0.1-0.4,0.2c-1,0.6-1.8,1.7-2.4,2.7C12.9,36.1,12.3,37.4,12.4,38.6z"/>
			<path class="st2" d="M17.6,34.3l-2.9,4.9c-0.9,0.7-2.1,1.1-2.4-0.1c0-0.1,0-0.3-0.1-0.5c0-1.2,0.6-2.5,1.2-3.5
				c0.6-1,1.4-2.1,2.4-2.7c0.2-0.1,0.3-0.2,0.4-0.2C17.6,31.8,17.9,33.2,17.6,34.3z"/>
		</g>
		<g>
			<path class="st3" d="M87.2,81c-0.8-0.5-1.2-0.5-1-1.5c0.1-0.6,0.3-1.2,0.6-1.8c0.6-1.2,1.6-2.1,2.8-2.7l0.8,0.4L87.2,81z"/>
			<path class="st4" d="M92.6,81.6c1-0.3,0.4-2.9,0.6-5.3l-2.1-1.2c-2.3,0.8-3.9,3-3.9,5.4C88.9,81.8,90.5,82.8,92.6,81.6z"/>
			<path class="st5" d="M93.2,76.3c-0.2,2.4,0.4,5-0.6,5.3c-2.1,1.2-3.8,0.2-5.4-1.1c0,0.5,0.1,1,0.2,1.5l6.9,4l3.9-6.8L93.2,76.3z"
				/>
			<path class="st6" d="M94.3,86l-6.9-4c-0.8-2.9,0.9-5.9,3.7-6.8l7.1,4.1L94.3,86z"/>
		</g>
		<g>
			<path class="st7" d="M98.3,100.9c-0.2,0-0.3,0-0.5-0.1c-0.1-0.1-0.2-0.2-0.3-0.4c-0.4-0.7-0.2-2-0.2-2.7c0-1.5,0-3,0-4.4
				c0-0.2,0-0.3,0.1-0.5c0.3-0.6,1.2-0.7,1.5,0l0.2,4.4l0.1,2.3C99.3,100.1,98.9,100.7,98.3,100.9z"/>
			<line class="st7" x1="99.9" y1="67.7" x2="99.9" y2="67.6"/>
			<path class="st7" d="M102.8,97.7c-0.2,0-0.3,0-0.5-0.1c-0.1-0.1-0.2-0.2-0.3-0.3c-0.5-0.7-0.2-2-0.2-2.8c0-1.5,0-3,0-4.4
				c-0.1-0.7,0.6-1.1,1.1-0.9c0.2,0.1,0.3,0.2,0.5,0.4l0.3,6.7C103.7,96.9,103.3,97.5,102.8,97.7z"/>
			<path class="st7" d="M102.9,77.2c-0.1,0.1-0.2,0.2-0.4,0.2c-0.2,0-0.3,0-0.5-0.1c-0.8-0.6-0.5-2.2-0.5-3.1c0-1.5,0-3,0-4.4
				c-0.1-0.5,0.2-0.8,0.6-0.9c0.4-0.1,0.8,0,1,0.4l0.3,6.6C103.5,76.5,103.2,76.9,102.9,77.2z"/>
			<path class="st8" d="M102,97.3L102,97.3c-0.4-0.2-1.2-0.9-1.6-0.9c0,0,0,0-0.1,0l0,0l-0.4-28.7c0.1,0,0.1,0,0.2,0
				c0.6,0.1,1.5,0.9,2,1.2l0,0c-0.4,0.1-0.7,0.4-0.6,0.9c0,1.5,0,3,0,4.4c0,0.9-0.3,2.4,0.5,3.1c0.1,0.1,0.3,0.1,0.5,0.1
				c0.1-0.1,0.3-0.1,0.4-0.2l0,0l0,12l0,0c-0.5-0.2-1.3,0.1-1.1,0.9c0,1.5,0,3,0,4.4C101.8,95.3,101.5,96.6,102,97.3z"/>
			<path class="st7" d="M99.1,97.2C99.1,97.2,99.1,97.2,99.1,97.2"/>
			<path class="st3" d="M100.3,96.4c-0.4,0-0.9,0.6-1.2,0.8l-0.2-4.4c-0.3-0.7-1.2-0.6-1.5,0l0,0l-0.2-12.8c0.1,0.1,0.3,0.1,0.5,0.1
				c0.6-0.2,1-0.8,0.9-1.4l-0.3-6.7c-0.3-0.5-0.9-0.6-1.3-0.3l0,0l-2.3-1.3c1.4-0.8,2.8-1.5,4.2-2.3c0.4-0.2,0.7-0.4,1-0.5
				L100.3,96.4L100.3,96.4z"/>
			<path class="st7" d="M97.7,80.1c-0.2,0-0.3,0-0.5-0.1c-0.8-0.6-0.5-2.2-0.5-3.1c0-1.5,0-3,0-4.4c-0.1-0.4,0.1-0.6,0.3-0.8
				c0.4-0.3,1-0.2,1.3,0.3l0.3,6.7C98.7,79.3,98.3,79.9,97.7,80.1z"/>
			<path class="st8" d="M97.5,100.5L97.5,100.5c-0.5-0.3-1.1-0.6-1.6-0.9c-0.3-0.2-1.4-0.6-1.6-0.9c-0.1-0.2,0-0.8,0-1.1
				c0-8.9,0-17.8-0.1-26.7c0.1-0.2,0.2-0.4,0.5-0.5l2.3,1.3l0,0c-0.2,0.2-0.4,0.4-0.3,0.8c0,1.5,0,3,0,4.4c0,0.9-0.3,2.4,0.5,3.1
				l0.2,12.8l0,0c-0.1,0.1-0.1,0.3-0.1,0.5c0,1.5,0,3,0,4.4C97.4,98.5,97.1,99.7,97.5,100.5z"/>
		</g>
		<line class="st7" x1="82.6" y1="76.9" x2="82.6" y2="76.9"/>
		<path class="st7" d="M83.3,73.5c-0.1,0.3-0.3,0.6-0.4,1"/>
		<path class="st5" d="M13.9,36.4c-0.2,0.7-0.3,1.4-0.3,2.1l40.6,23.3l1-1.7C41.5,52.2,27.6,44.3,13.9,36.4z"/>
		<path class="st4" d="M57.2,57c-5.7-3.3-11.4-6.5-17-9.8c-7.4-4.3-14.9-8.5-22.3-12.8c-0.8-0.5-1.1-1-1.9-0.4
			c-0.9,0.6-1.6,1.5-1.9,2.4c13.7,7.9,27.5,15.8,41.4,23.7L57.2,57z"/>
		<path class="st6" d="M54.3,61.9L13.7,38.5c-0.2-1.8,0.7-3.6,2.2-4.6c0.8-0.5,1.2,0,1.9,0.4c7.4,4.3,14.9,8.5,22.3,12.8
			c5.7,3.3,11.4,6.5,17,9.8L54.3,61.9z"/>
		<g>
			<g>
				<path class="st9" d="M64.5,60.7l-6.8-3.9c-0.6-0.1-1.6,0.8-2,1.3c-0.5,0.5-0.8,1.1-1.1,1.7c2.6,1.5,5.3,3,7.9,4.5L64.5,60.7z"/>
				<path class="st10" d="M54.7,59.8c-0.3,0.9-0.4,1.8-0.3,2.7l7,4l1.2-2.2C59.9,62.8,57.3,61.3,54.7,59.8z"/>
				<g>
					<path class="st11" d="M61.4,66.6l-7-4c-0.3-1.6,0.3-3.3,1.4-4.5c0.4-0.4,1.4-1.3,2-1.3l6.8,3.9L61.4,66.6z"/>
				</g>
			</g>
			<path class="st12" d="M63.5,56.4l-1.2,4.5l0,0c-0.8,0.3-1.8,0-2.2-0.8l1.2-4.5L63.5,56.4z"/>
			<g>
				<path class="st1" d="M61.5,61.1c-0.4-0.5-0.8-0.9-1.2-1.3"/>
				<path class="st1" d="M63.3,57.2c-0.1-0.2-0.2-0.5-0.3-0.7"/>
				<path class="st1" d="M63.1,57.8c-0.2-0.6-0.5-1.1-0.9-1.5"/>
				<path class="st1" d="M63,58.4c-0.3-1-1-1.7-1.8-2.3"/>
				<path class="st1" d="M62.8,59.1c-0.3-0.9-1-1.7-1.8-2.3"/>
				<path class="st1" d="M62.7,59.7c-0.3-0.9-1-1.7-1.8-2.3"/>
				<path class="st1" d="M62.5,60.3c-0.3-0.9-1-1.7-1.8-2.3"/>
				<path class="st1" d="M62.3,60.9c-0.3-0.9-1-1.7-1.8-2.3"/>
				<path class="st1" d="M62,61.1c-0.5-0.7-1-1.2-1.7-1.8"/>
			</g>
			<path class="st13" d="M65.1,63c0.2-0.7,0.5-2.3-0.6-2.3c-1,0-2,1.3-2.4,2.1c-0.5,0.8-1.1,2.1-0.9,3.2c0.3,1.3,1.6,0.6,2.2-0.1
				L65.1,63z"/>
			<path class="st14" d="M62.9,65.4c-0.3,0.3-0.9,0.9-1.1,0.5c-0.2-0.4,0.1-1.3,0.3-1.6c0.4-1,1.3-2.6,2.4-2.8
				c0.1,0.5,0.1,1-0.1,1.4L62.9,65.4z"/>
			<path class="st15" d="M62,56.2c1.8,1,4-0.8,3.3-2.8c-0.7-1.9-3.5-1.9-4.3,0C60.6,54.4,61,55.6,62,56.2z"/>
		</g>
		<path class="st4" d="M84,73.9c-6.5-3.7-12.9-7.4-19.4-11.1c-0.5-0.3-0.6-0.3-1.1,0.2c-0.4,0.4-0.7,0.9-0.9,1.4
			c6.7,3.9,13.5,7.7,20.1,11.6L84,73.9z"/>
		<path class="st5" d="M62.7,64.4c-0.1,0.3-0.2,0.7-0.2,1l19.9,11.4l0.5-0.8C76.1,72.1,69.4,68.3,62.7,64.4z"/>
		<path class="st6" d="M82.3,76.8L62.4,65.4c0.1-0.9,0.5-1.8,1.1-2.4c0.5-0.5,0.5-0.5,1.1-0.2c6.5,3.7,12.9,7.4,19.4,11.1L82.3,76.8
			z"/>
		<g>
			<path class="st16" d="M77.1,69.9c-0.6,1.1-0.9,2.1-0.9,3.3"/>
			<path class="st16" d="M77.8,70.3c-0.6,1.1-0.9,2.1-0.9,3.3"/>
			<path class="st16" d="M78.4,70.7c-0.6,1.1-0.9,2.1-0.9,3.3"/>
			<path class="st16" d="M79.1,71.1c-0.6,1.1-0.9,2.1-1,3.3"/>
			<path class="st16" d="M79.8,71.5c-0.6,1.1-0.9,2.1-1,3.3"/>
			<path class="st16" d="M80.5,71.9c-0.6,1-0.9,2.1-1,3.3"/>
			<path class="st16" d="M81.2,72.3c-0.6,1.1-0.9,2.1-1,3.3"/>
			<path class="st16" d="M81.8,72.7c-0.6,1.1-0.9,2.1-0.9,3.3"/>
			<path class="st16" d="M82.5,73.1c-0.6,1.1-0.9,2.1-0.9,3.3"/>
		</g>
		<path class="st8" d="M82.3,76.8c1,0.4,2.6-2.4,1.7-2.9C83.1,73.4,81.6,76.2,82.3,76.8z"/>
	</g>
	<g>
		<path class="st4" d="M94.1,52.2l2.3-4.1L25,7.1l-3.3,2.3l0,1.4C46.1,24.3,70.4,37.4,94.1,52.2z"/>
		<path class="st5" d="M21.7,10.7l0,3l71,40.8l1.4-2.4C70.4,37.4,46.1,24.3,21.7,10.7z"/>
		<polygon class="st6" points="92.8,54.5 21.7,13.8 21.7,9.4 25,7.1 96.5,48.1 		"/>
		<polygon class="st3" points="96.5,48.1 92.8,50.3 92.8,54.5 96.5,52.4 		"/>
		<g>
			<line class="st11" x1="86.1" y1="43.6" x2="95.3" y2="48.8"/>
			<line class="st11" x1="84.3" y1="43.9" x2="93.1" y2="50.1"/>
			<line class="st11" x1="83.3" y1="46.4" x2="92.8" y2="51.3"/>
			<line class="st11" x1="81.4" y1="46.5" x2="92.8" y2="53.4"/>
			<line class="st11" x1="32.3" y1="18.1" x2="21.7" y2="13.3"/>
			<line class="st11" x1="33.5" y1="17.9" x2="21.7" y2="10.6"/>
			<line class="st11" x1="35" y1="15.3" x2="22.3" y2="9"/>
			<line class="st11" x1="35.9" y1="15" x2="24.4" y2="7.5"/>
		</g>
	</g>
</g>
</svg>
