<?xml version="1.0" encoding="utf-8"?>
<!-- Generator: Adobe Illustrator 21.1.0, SVG Export Plug-In . SVG Version: 6.00 Build 0)  -->
<svg version="1.1" id="Layer_1" xmlns="http://www.w3.org/2000/svg" xmlns:xlink="http://www.w3.org/1999/xlink" x="0px" y="0px"
	 width="108px" height="108px" viewBox="0 0 108 108" style="enable-background:new 0 0 108 108;" xml:space="preserve">
<style type="text/css">
	.st0{fill:#FFFFFF;stroke:#231F20;stroke-width:0.75;stroke-linejoin:round;}
	.st1{fill:none;stroke:#231F20;stroke-width:0.75;stroke-linejoin:round;}
	.st2{fill:#CCCCCC;stroke:#231F20;stroke-width:0.75;stroke-linejoin:round;}
	.st3{fill:#808080;stroke:#231F20;stroke-width:0.75;stroke-linejoin:round;}
	.st4{fill:#F2F2F2;stroke:#231F20;stroke-width:0.75;stroke-linejoin:round;}
	.st5{fill:#E6E6E6;stroke:#231F20;stroke-width:0.75;stroke-linejoin:round;}
	.st6{fill:none;stroke:#231F20;stroke-width:0.5;stroke-linejoin:round;}
	.st7{fill:none;stroke:#808080;stroke-width:0.25;stroke-linecap:round;stroke-linejoin:round;}
</style>
<g>
	<polygon class="st0" points="81,74.7 81,74.8 67.4,78.2 67.2,78.3 66.1,78.5 31.3,87.4 27.8,17.1 77.9,6.6 	"/>
	<polygon class="st1" points="81,74.7 67.4,78.2 67.2,78.3 66.1,78.5 30.8,87.6 27.8,17.1 77.6,6.7 	"/>
	<path class="st2" d="M38,98.5c-1.5-2.5-7.6-10.3-7.6-10.3l0.4-0.6l-3-70.6L26.1,16l-1.9-1.2l2.2,72.5c0,0-6.8,1.8-9.3,2.6
		c-0.7,0.2-1.2,0.4-1.2,1.1c0,0.9,1.2,1.5,1.9,2c1,0.6,19.1,9.7,20.7,9.7C38.6,102.7,39.5,101,38,98.5z M20.1,91.6l8.2-2.3l6.9,9.5
		L20.1,91.6z"/>
	<polygon class="st3" points="35.2,98.8 20.1,91.6 28.3,89.3 	"/>
	<path class="st4" d="M89.7,87.1c-3,1.2-49.5,15.6-51.2,15.6c0,0,0.9-1.7-0.5-4.2c-1.5-2.5-7.6-10.3-7.6-10.3l0.4-0.6l35.3-9.1
		l1.1-0.3l0.2-0.1L81,74.8v0c0.6,0.5,10.9,8.9,10.9,9.9C92,85.7,92.8,85.9,89.7,87.1z"/>
	<path class="st1" d="M81,74.7C81,74.7,81,74.7,81,74.7"/>
	<polygon class="st5" points="77.9,6.6 27.8,17.1 26.1,16 24.2,14.8 73.5,5.3 74.8,5.7 75.1,5.8 	"/>
	<polyline class="st6" points="28.3,89.3 26,16 26.1,16 75.5,5.9 	"/>
	<line class="st7" x1="78.9" y1="72.2" x2="76" y2="9.5"/>
	<path class="st7" d="M32.6,85.3c0,0,24.8-6.8,29.8-7.6C67.1,77,76,75.6,76,75.6"/>
	<line class="st7" x1="42.5" y1="99.7" x2="86.9" y2="86.2"/>
	<line class="st7" x1="84.9" y1="83.3" x2="74.5" y2="79.4"/>
	<line class="st7" x1="89.3" y1="84" x2="81.4" y2="77.4"/>
</g>
</svg>
