<?xml version="1.0" encoding="utf-8"?>
<!-- Generator: Adobe Illustrator 21.1.0, SVG Export Plug-In . SVG Version: 6.00 Build 0)  -->
<svg version="1.1" id="Layer_1" xmlns="http://www.w3.org/2000/svg" xmlns:xlink="http://www.w3.org/1999/xlink" x="0px" y="0px"
	 width="108px" height="108px" viewBox="0 0 108 108" style="enable-background:new 0 0 108 108;" xml:space="preserve">
<style type="text/css">
	.st0{fill:#FFFFFF;stroke:#000000;stroke-width:0.5;stroke-linecap:round;stroke-linejoin:round;stroke-miterlimit:10;}
	.st1{fill:#F2F2F2;stroke:#000000;stroke-width:0.5;stroke-linecap:round;stroke-linejoin:round;stroke-miterlimit:10;}
	.st2{fill:#CCCCCC;stroke:#000000;stroke-width:0.5;stroke-linecap:round;stroke-linejoin:round;stroke-miterlimit:10;}
	.st3{fill:#FFFFFF;stroke:#000000;stroke-width:0.25;stroke-linecap:round;stroke-linejoin:round;stroke-miterlimit:10;}
	.st4{fill:none;stroke:#000000;stroke-width:0.5;stroke-linecap:round;stroke-linejoin:round;stroke-miterlimit:10;}
	.st5{fill:#FFFFFF;}
	.st6{fill:#F2F2F2;}
	.st7{fill:#E6E6E6;}
	.st8{fill:#CCCCCC;}
	.st9{fill:#B3B3B3;stroke:#000000;stroke-width:0.5;stroke-linecap:round;stroke-linejoin:round;stroke-miterlimit:10;}
	.st10{fill:#999999;stroke:#000000;stroke-width:0.5;stroke-linecap:round;stroke-linejoin:round;stroke-miterlimit:10;}
	.st11{fill:#E6E6E6;stroke:#000000;stroke-width:0.5;stroke-linecap:round;stroke-linejoin:round;stroke-miterlimit:10;}
</style>
<g>
	<g>
		
			<ellipse transform="matrix(5.492787e-02 -0.9985 0.9985 5.492787e-02 -31.8965 132.4122)" class="st0" cx="54" cy="83.1" rx="21.2" ry="30.7"/>
		<path class="st1" d="M57,75.4c0-1-1.4-1.9-3.3-2c-1.9-0.1-3.4,0.7-3.4,1.7c0,0.8,0,6.9,0,7.6c0,1,1.4,1.9,3.3,2
			c1.9,0.1,3.4-0.7,3.4-1.7C57,82.3,57,76.1,57,75.4z"/>
		
			<ellipse transform="matrix(3.669318e-02 -0.9993 0.9993 3.669318e-02 -23.4869 126.1627)" class="st2" cx="53.7" cy="75.3" rx="1.9" ry="3.4"/>
		<path class="st1" d="M50.7,73.7c0,0.6,1.3,1.1,2.9,1.1c1.6,0,2.9-0.5,2.9-1.1c0-0.2,0-10.7,0-21.2c-2.7-0.3-4.3-2.4-5.8-3.2
			C50.7,60.8,50.7,73.5,50.7,73.7z"/>
		<g>
			<line class="st3" x1="51.4" y1="77.5" x2="51.4" y2="83.1"/>
			<line class="st3" x1="52.5" y1="77.8" x2="52.5" y2="83.6"/>
			<line class="st3" x1="54" y1="77.9" x2="54.1" y2="83.8"/>
			<line class="st3" x1="55.5" y1="77.6" x2="55.4" y2="83.6"/>
		</g>
		<g>
			<path d="M46.4,51.7c0.3-0.7,0.8-1.3,1.3-1.8c0.5-0.5,1.2-1,2.1-1c0.9,0,1.5,0.5,2.1,0.9c0.6,0.4,1.2,0.9,1.8,1.3
				c1.2,0.8,2.6,1.3,4.1,1.2c0.7,0,1.5-0.1,2.1-0.5c0.6-0.3,1.1-0.9,1.3-1.7c0,0.8-0.5,1.5-1.1,1.9c-0.7,0.4-1.4,0.6-2.2,0.7
				c-1.5,0.2-3.1-0.3-4.4-1.2c-0.6-0.4-1.2-0.9-1.8-1.4c-0.6-0.5-1.2-0.9-1.9-0.9c-0.7,0-1.4,0.3-1.9,0.8
				C47.3,50.5,46.8,51.1,46.4,51.7z"/>
		</g>
	</g>
	<g>
		<path class="st1" d="M53.6,29.5c-1.6,0-2.9,0.5-2.9,1.1c0,0.2,0,5.1,0,11.5c1.5,0.7,3,2.9,5.8,3.2c0-7.9,0-14.5,0-14.7
			C56.5,29.9,55.2,29.5,53.6,29.5z"/>
		<path class="st2" d="M55.2,29.7L55.2,29.7c0,0-0.5-0.3-0.5-0.6c0-0.3,0.3-0.6,0.3-0.6s-4-0.4-3.2,0.2c0.6,0.5,0.6,0.8,0.3,1
			c-0.8,0.2-1.4,0.5-1.4,0.9c0,0.6,1.3,1.1,2.9,1.1c1.6,0,2.9-0.5,2.9-1.1C56.5,30.2,56,29.8,55.2,29.7z"/>
		<path class="st4" d="M56.5,31.7c0,0.6-1.3,1.1-2.9,1.1c-1.6,0-2.9-0.5-2.9-1.1"/>
		<g>
			<path d="M46.4,44.4c0.3-0.7,0.8-1.3,1.3-1.8c0.5-0.5,1.2-1,2.1-1c0.9,0,1.5,0.5,2.1,0.9c0.6,0.4,1.2,0.9,1.8,1.3
				c1.2,0.8,2.6,1.3,4.1,1.2c0.7,0,1.5-0.1,2.1-0.5c0.6-0.3,1.1-0.9,1.3-1.7c0,0.8-0.5,1.5-1.1,1.9c-0.7,0.4-1.4,0.6-2.2,0.7
				c-1.5,0.2-3.1-0.3-4.4-1.2c-0.6-0.4-1.2-0.9-1.8-1.4C51,42.4,50.4,42,49.7,42c-0.7,0-1.4,0.3-1.9,0.8
				C47.3,43.2,46.8,43.8,46.4,44.4z"/>
		</g>
	</g>
	<g>
		<polygon class="st2" points="52.5,18 52.9,22 58.4,23.7 61.6,18.8 55.1,16.5 		"/>
		<g>
			<path class="st5" d="M49.8,28.7l0.1-7.4l2.5,0c0.2,3.1,0.3,6.3,0.3,9.4C50.6,30.4,49.8,29.1,49.8,28.7z"/>
			<path class="st6" d="M52.7,30.7c0-3.2-0.1-6.3-0.3-9.4l2.3,0c0,3.1,0.1,6.2,0.5,9.3c-0.4,0.1-0.9,0.2-1.4,0.2
				C53.4,30.8,53,30.8,52.7,30.7z"/>
			<path class="st7" d="M57.2,21.4l0,7.8c0,0-0.4,1-2,1.4c-0.3-3.1-0.5-6.2-0.5-9.3L57.2,21.4z"/>
			<path class="st4" d="M49.8,28.7l0.1-7.4l7.3,0.1l0,7.8c0,0-0.6,1.6-3.4,1.6C50.9,30.8,49.8,29.1,49.8,28.7z"/>
			<path class="st6" d="M52.6,24.3c-0.1-1.6-0.2-3.1-0.3-4.7c0.4,0,0.8-0.1,1.3,0c0.4,0,0.8,0.1,1.2,0.2c-0.1,1.6-0.1,3.2,0,4.8
				c-0.2,0.2-0.5,0.3-0.9,0.3C53.2,24.9,52.8,24.7,52.6,24.3z"/>
			<path class="st5" d="M51.6,23.1c-0.8-0.4-1.9-1-1.7-2c0.2-0.8,0.9-1.3,2.3-1.5c0.2,1.6,0.2,3.1,0.3,4.7
				C52.2,23.9,52.1,23.4,51.6,23.1z"/>
			<path class="st7" d="M54.8,19.7c1.5,0.3,2.4,1,2.4,1.9c0,1.1-1.2,1.2-1.5,1.7c-0.2,0.3-0.4,0.9-0.9,1.3
				C54.7,23,54.7,21.3,54.8,19.7z"/>
			<path class="st4" d="M49.8,25.3c0,0,0.8,1.8,3.9,1.8c2.7,0,3.4-1.2,3.4-1.2"/>
			<path class="st4" d="M53.9,24.9c1.2-0.1,1.6-1.1,1.8-1.6c0.3-0.5,1.4-0.7,1.5-1.7c0-1.1-1.5-1.9-3.6-2c-2.1-0.1-3.3,0.6-3.6,1.5
				c-0.2,1,0.9,1.7,1.7,2C52.4,23.5,52.3,25,53.9,24.9z"/>
			<path class="st6" d="M53.6,24.1c-0.3-0.1-0.5-0.3-0.6-0.5c-0.1-0.6-0.3-1.1-1-1.3c-0.5-0.2-1.1-0.4-1.1-0.9c0.2-0.5,0.6-1,1-1.3
				C52.8,21.3,53.4,22.6,53.6,24.1z"/>
			<path class="st8" d="M54.8,19.7c0.1,0.1,0.2,0.3,0.3,0.4c0.2,0.1,0.4,0.3,0.5,0.5l0,0l0,0c0.4,0.4,0.6,0.9,0.7,1.5
				c0,0,0,0.1-0.1,0.1c-0.3,0.4-1.2,0.4-1.4,1.3c0,0,0,0.1,0,0.1C54.7,22.3,54.7,21,54.8,19.7z"/>
			<path class="st7" d="M52.6,19.1c0,0.3-0.3,0.7-0.6,1c0,0,0,0,0,0c0.9,1.1,1.5,2.5,1.6,4c0.1,0,0.2,0.1,0.2,0.1
				c0.3,0,0.7-0.2,0.9-0.5c0-1.3,0-2.6,0-3.9c-0.1-0.2-0.2-0.5-0.2-0.7c0-0.1,0.2-1.5,0.2-1.6c-0.7,0-1.8-0.6-2.5-0.6
				C52.3,16.9,52.6,18.9,52.6,19.1z"/>
			<path class="st4" d="M55.6,20.6L55.6,20.6c-0.2-0.2-0.3-0.3-0.5-0.5c-0.3-0.3-0.5-0.7-0.5-1.1c0-0.1,0.2-1.5,0.2-1.6
				c-0.7,0-1.7-0.6-2.5-0.6c0.1,0.1,0.3,2.2,0.3,2.3c0,0.3-0.3,0.7-0.6,1c-0.5,0.3-0.9,0.8-1.1,1.4c0.1,0.5,0.6,0.7,1.1,0.9
				c0.6,0.2,0.9,0.6,1,1.3c0,0.2,0.4,0.5,0.8,0.5c0.4,0,0.8-0.2,0.9-0.6c0.2-0.9,1.1-0.9,1.4-1.3c0,0,0.1-0.1,0.1-0.1
				C56.2,21.5,55.9,21,55.6,20.6L55.6,20.6z"/>
		</g>
		<g>
			<polygon class="st9" points="67.2,19.5 73.3,21.7 73.1,14.6 67.5,12.8 			"/>
			<path class="st10" d="M44.2,16.4c1.8,0.2,3-0.5,3-0.5l-4.6-2.2c0,0-0.1,2.2,0.3,2.3C43.3,16.1,44.2,16.4,44.2,16.4z"/>
			<path class="st10" d="M61.5,21.4c1.2,0.4,3.6-0.4,3.6-0.4l-3.6-2.5L61.5,21.4z"/>
			<polygon class="st11" points="71.1,21.2 71.3,20.5 72.9,18.5 72.5,13.9 73.6,13.7 74.1,19.3 73.7,19.9 74.3,21 73.6,22 73,21.6 
				72.9,20.6 71.6,21.2 			"/>
			<polygon class="st1" points="73.6,13.4 41.2,3.8 40.6,4.8 72.7,14.6 			"/>
			<line class="st0" x1="72.9" y1="18.5" x2="64.5" y2="15.7"/>
			<line class="st0" x1="71.3" y1="20.4" x2="62.9" y2="17.6"/>
			<line class="st0" x1="73.4" y1="21.9" x2="65" y2="19.1"/>
			<polygon class="st0" points="71.4,13.4 68.3,20.3 68,20.2 36.1,10.6 39.5,4 			"/>
			<polygon class="st2" points="68.3,20.3 67.7,21.6 67.2,21.4 35.2,11.8 36.2,11.6 36.1,10.6 68,20.2 			"/>
			<polygon class="st1" points="67.7,21.6 67.3,22.3 54.8,18.6 52.4,21.1 48.1,19.8 47.9,16.6 35.1,12.8 35.2,11.8 67.2,21.4 			"/>
			<polygon class="st9" points="45.1,12.5 45.6,11.5 42.7,10.5 41,14.3 41.6,14.6 			"/>
			<path class="st1" d="M43.7,16.3c0,0-0.5-0.1-1.5-0.4c-1-0.3-0.9-1.3-0.5-2c0.4-0.7,1.2-2.4,1.2-2.4l2.2,0.7c0,0-1.3,2.7-1.6,3.2
				C43.3,16,43.7,16.3,43.7,16.3z"/>
			<polygon class="st9" points="59.5,20 59.2,19.3 60.7,15.7 63.5,16.6 63.1,17.5 			"/>
			<path class="st1" d="M61.5,21.4l0.1-0.9l1.5-3.1l-2.2-0.6c0,0-1.1,3-1.3,3.2c-0.2,0.2,0.1,0.4,0.4,0.7
				C60.3,21,61.5,21.4,61.5,21.4z"/>
			<polygon class="st11" points="72.3,13.9 71.4,13.4 68,20.2 67.9,20.8 67.2,21.4 67.3,22.3 68.7,21.3 68.8,20.8 70.7,21.5 
				70.8,20.5 69.6,19 			"/>
		</g>
	</g>
</g>
</svg>
