<?xml version="1.0" encoding="utf-8"?>
<!-- Generator: Adobe Illustrator 21.1.0, SVG Export Plug-In . SVG Version: 6.00 Build 0)  -->
<svg version="1.1" id="Layer_1" xmlns="http://www.w3.org/2000/svg" xmlns:xlink="http://www.w3.org/1999/xlink" x="0px" y="0px"
	 width="108px" height="108px" viewBox="0 0 108 108" style="enable-background:new 0 0 108 108;" xml:space="preserve">
<style type="text/css">
	.st0{fill:none;stroke:#231F20;stroke-width:0.75;}
	.st1{fill:url(#SVGID_1_);}
	.st2{fill:url(#SVGID_2_);}
	.st3{fill:url(#SVGID_3_);}
	.st4{fill:url(#SVGID_4_);}
	.st5{fill:url(#SVGID_5_);}
	.st6{fill:#FFFFFF;stroke:#231F20;stroke-width:0.75;}
	.st7{fill:#B3B3B3;stroke:#231F20;stroke-width:0.75;stroke-linejoin:round;}
	.st8{fill:#CCCCCC;stroke:#231F20;stroke-width:0.75;stroke-linejoin:round;}
	.st9{fill:none;stroke:#808080;stroke-width:0.5;}
</style>
<path class="st0" d="M110,5.5c0,0,0.1,0,0.1,0c0,0,0.1,0,0.1,0"/>
<g>
	<linearGradient id="SVGID_1_" gradientUnits="userSpaceOnUse" x1="23.1482" y1="19.1513" x2="23.6883" y2="19.1513">
		<stop  offset="0" style="stop-color:#FFFFFF"/>
		<stop  offset="1" style="stop-color:#C6D5ED"/>
	</linearGradient>
	<path class="st1" d="M23.1,18.6c0.3,0.4,0.5,0.8,0.5,1C23.5,19.3,23.3,19,23.1,18.6z"/>
	<linearGradient id="SVGID_2_" gradientUnits="userSpaceOnUse" x1="29.5683" y1="59.4813" x2="36.3982" y2="59.4813">
		<stop  offset="0" style="stop-color:#FFFFFF"/>
		<stop  offset="1" style="stop-color:#C6D5ED"/>
	</linearGradient>
	<path class="st2" d="M29.6,44.6c2.2,9.5,4.7,20.3,6.8,29.7C34.4,65.8,31.9,54.7,29.6,44.6z"/>
	<linearGradient id="SVGID_3_" gradientUnits="userSpaceOnUse" x1="40.7182" y1="98.4163" x2="41.3756" y2="98.4163">
		<stop  offset="0" style="stop-color:#FFFFFF"/>
		<stop  offset="1" style="stop-color:#C6D5ED"/>
	</linearGradient>
	<path class="st3" d="M41.3,97.6c0.1,0.6,0.1,1,0.1,1.2c-0.1,0.2-0.1,0.4-0.2,0.5l-0.4,0.1L41.3,97.6z"/>
	<linearGradient id="SVGID_4_" gradientUnits="userSpaceOnUse" x1="46.8282" y1="97.1163" x2="58.2782" y2="97.1163">
		<stop  offset="0" style="stop-color:#FFFFFF"/>
		<stop  offset="1" style="stop-color:#C6D5ED"/>
	</linearGradient>
	<path class="st4" d="M46.8,98.4c2.8-0.6,6.5-1.5,11.5-2.6l-8.8,2.3L46.8,98.4z"/>
	<linearGradient id="SVGID_5_" gradientUnits="userSpaceOnUse" x1="96.3882" y1="83.8913" x2="96.7617" y2="83.8913">
		<stop  offset="0" style="stop-color:#FFFFFF"/>
		<stop  offset="1" style="stop-color:#C6D5ED"/>
	</linearGradient>
	<path class="st5" d="M96.4,84.7c0.2-0.5,0.3-1.1,0.3-1.7C96.9,83.7,96.7,84.2,96.4,84.7z"/>
	<path class="st6" d="M96.7,83.1c0,0.6-0.1,1.1-0.3,1.7c0,0,0,0,0,0c-0.7,1.1-2.1,1.8-2.1,1.8l-35.9,9.2c-0.1,0-0.1,0-0.2,0
		c-5,1.2-8.7,2-11.5,2.6c0,0,0,0,0,0l-5.7,0.8c0.1-0.1,0.2-0.3,0.2-0.5c0-0.1,0-0.5-0.1-1.2v0l0-0.1l-0.2-1
		c-0.1-0.4-0.2-0.8-0.3-1.3c0-0.3-0.1-0.5-0.2-0.9c0-0.2-0.1-0.4-0.1-0.7l-1.1-5.7c0,0-1-4.2-2.4-10.5v0c-0.1-0.6-0.3-1.2-0.4-1.8
		c0-0.1-0.1-0.2-0.1-0.3c0-0.1,0-0.2-0.1-0.3c0-0.2-0.1-0.4-0.2-0.6c-2.1-9.4-4.6-20.2-6.8-29.7c-0.2-0.7-0.3-1.3-0.5-2
		c-0.1-0.3-0.1-0.6-0.2-0.8c-0.1-0.3-0.1-0.6-0.2-0.8c-0.1-0.6-0.3-1.2-0.4-1.8c-0.1-0.4-0.2-0.8-0.3-1.2c-0.1-0.4-0.2-0.8-0.3-1.2
		c-0.1-0.2-0.1-0.5-0.2-0.7c-0.1-0.3-0.1-0.6-0.2-0.9c-0.1-0.3-0.1-0.5-0.2-0.8c0-0.1-0.1-0.3-0.1-0.4c-0.2-0.7-0.3-1.4-0.5-2.1
		c-1.5-6.5-2.6-11.2-2.9-12.1c0-0.1,0-0.1,0-0.1s0,0,0,0c0,0,0,0,0-0.1c-0.1-0.2-0.2-0.6-0.5-1c0,0,0,0,0,0c0,0,0,0,0,0
		c-0.5-0.7-0.9-1.2-0.9-1.2l53-9.3c1.4-0.2,2.7,0.6,3,1.9c3,12.1,16.7,66.4,18.4,72.6l0,0.1l0.1,0.3L96.7,83.1z"/>
	<path class="st0" d="M96.4,84.7c-0.4,1.1-1.3,2-2.3,2.3c-15.8,4-27.4,6.8-35.6,8.7"/>
	<path class="st0" d="M46.8,98.4c-3.7,0.8-5.6,1.2-6.2,1.3c-0.1,0-0.2,0-0.2,0"/>
	<path class="st7" d="M37.6,96.2c-0.5,0.4-1,0.2-1.9,0c-3.2-0.7-9.9-3.7-11.7-4.4c-1.9-0.8-12.5-5.7-12.5-5.7l-0.2,0l0-0.5l23.7-6.3
		l2,8.3c0,0,0.7,3.9,1,6.4C38,94.9,38.1,95.9,37.6,96.2z"/>
	<path class="st8" d="M41.3,97.6l-0.6,1.7l0.4-0.1c-0.1,0.3-0.3,0.4-0.5,0.5c-0.6,0.3-1.5,0.3-2.4,0.2c-1.5-0.2-11-3.8-13.8-5
		c-2.6-1-13-5.9-13-5.9l-0.1-2.9l0.2,0c0,0,10.6,4.9,12.5,5.7c1.8,0.8,8.4,3.8,11.7,4.4c1,0.2,1.5,0.3,1.9,0
		c0.5-0.4,0.4-1.3,0.3-2.1c-0.3-2.5-1-6.4-1-6.4l-2-8.3l-0.8-3.6c-0.4-0.1-1.8-0.3-2.1-0.7c-0.4-0.5-0.6-1.3-0.9-2.3
		c-0.3-1-3.2-11.9-4-15.3c-0.8-3.3-8.7-35.7-8.7-36s-1.3-3.3,1.5-3.9l0.2,0h0c1.5-0.2,2.4,0.4,2.9,1c0,0,0,0,0,0c0,0,0,0,0,0
		c0.2,0.3,0.4,0.7,0.5,1c0,0,0,0,0,0.1c0,0,0,0,0,0s0,0,0,0.1c0.2,0.8,13.2,57,13.4,57.5c0,0,2.8,12.6,3.5,16.2
		C40.6,93.8,41.3,97.6,41.3,97.6z"/>
	<path class="st0" d="M34.2,75.8c0,0,0,0-0.1,0"/>
	<g>
		<line class="st9" x1="87.8" y1="59" x2="75.8" y2="11.8"/>
		<line class="st9" x1="41.9" y1="73.6" x2="87.6" y2="62.2"/>
		<path class="st9" d="M42.5,77.7L66,72c0,0,2.6-0.8,5-0.8c2.4,0,4.2,1,4.2,1l16.7,9"/>
	</g>
	<line class="st0" x1="34.1" y1="75.8" x2="21.1" y2="20.3"/>
</g>
</svg>
