<?xml version="1.0" encoding="utf-8"?>
<!-- Generator: Adobe Illustrator 21.1.0, SVG Export Plug-In . SVG Version: 6.00 Build 0)  -->
<svg version="1.1" id="Layer_1" xmlns="http://www.w3.org/2000/svg" xmlns:xlink="http://www.w3.org/1999/xlink" x="0px" y="0px"
	 width="108px" height="108px" viewBox="0 0 108 108" style="enable-background:new 0 0 108 108;" xml:space="preserve">
<style type="text/css">
	.st0{fill:#E6E6E6;stroke:#000000;stroke-width:0.75;stroke-linecap:round;stroke-linejoin:round;stroke-miterlimit:10;}
	.st1{fill:#CCCCCC;stroke:#000000;stroke-width:0.75;stroke-linecap:round;stroke-linejoin:round;stroke-miterlimit:10;}
	.st2{fill:#FFFFFF;stroke:#000000;stroke-width:0.75;stroke-linecap:round;stroke-linejoin:round;stroke-miterlimit:10;}
	.st3{fill:none;stroke:#000000;stroke-width:0.5;stroke-linecap:round;stroke-linejoin:round;stroke-miterlimit:10;}
	.st4{fill:#F2F2F2;stroke:#000000;stroke-width:0.75;stroke-linecap:round;stroke-linejoin:round;stroke-miterlimit:10;}
	.st5{fill:#FFFFFF;}
	.st6{fill:#F2F2F2;}
	.st7{fill:#E6E6E6;}
	.st8{fill:none;stroke:#000000;stroke-width:0.75;stroke-linecap:round;stroke-linejoin:round;stroke-miterlimit:10;}
	.st9{fill:#CCCCCC;}
	.st10{fill:#FFFFFF;stroke:#000000;stroke-width:0.5;stroke-linecap:round;stroke-linejoin:round;stroke-miterlimit:10;}
	.st11{fill:#CCCCCC;stroke:#000000;stroke-width:0.5;stroke-linecap:round;stroke-linejoin:round;stroke-miterlimit:10;}
	.st12{fill:none;stroke:#000000;stroke-width:0.25;stroke-linecap:round;stroke-linejoin:round;stroke-miterlimit:10;}
</style>
<g>
	<g>
		<path class="st0" d="M59.8,50.4L59.8,50.4c-0.4,0.3-1.7,0.7-1.8,0.7c-0.4,0.4-1.1,1.1-1.2,1.8c0,0.3-0.1,1.1,0,1.4
			c0.1,0.6,0.5,0.9,0.9,1c0.2,0.1,0.5,0.1,0.6,0.2l4.4,0.9l-2.9,2.8l-14.4-4.1l3.2-2l2.6,0.6c0.6-0.5,1.1-1.1,1.2-1.9
			c0.1-0.8-0.6-1.9-1.1-2.8c-1.1-1.1-1.8-2.4-2.1-3.8c0.3-1.1,1.7-1.2,3-1.2c1.5-0.1,2.2-0.9,2.7-2.3c0.2-0.4,1.2-0.9,2-0.7
			c0.9,0.2,1.9,1,2,2c0.2,2.1,2.3,2.8,2.9,3.9c0.1,0.1,0.1,0.2,0.1,0.4c-0.2,0.7-0.5,1.3-0.9,1.9C60.7,49.7,60.3,50.1,59.8,50.4
			L59.8,50.4z"/>
		<path class="st1" d="M45.3,55.3c0,0,2.8,3.7,2.9,7.3c0.1,3.5-2.7,33.5-2.7,33.5l12.2,3.2c0,0,4-8.5,3.1-15.2
			c-1-6.8,0.1-24.6,0.1-24.6L45.3,55.3z"/>
		<path class="st0" d="M54,79.4c0,0-3.5,6.8-0.5,12.4c2.4,4.3,3.6,8.7,3.6,8.7l-1.4,1.7l-26.1-6.6c0,0,5.9-6.7,6.2-17
			C36,68.2,31,62.7,31,62.7l2-1.7l16.1,3.7L54,79.4z"/>
		<path class="st2" d="M47.2,69.3c0,0-3.4,3.3-1.4,13.7c1.5,8.1,9.9,19.2,9.9,19.2l-27.1-5.5c0,0,5.6-6.1,5.9-16.4
			c0.2-10.3-3-14.3-3-14.3L31,62.7l16.1,3.5L47.2,69.3z"/>
		<path class="st0" d="M54.6,79.5c0,0,4.5,4.5,5,6.9c0.4,2.4-1.8,12.7-1.8,12.7s4-2.3,4.9-5.2c0.9-2.9,1.3-8.5,1.6-11.4
			c0.4-2.9-3.2-10.9-2.8-13.6c0.4-2.7,1.4-12.6,1.4-12.6l-2.7,2.5c0,0-0.5,3.8-1.2,6.6C58.2,68.2,56,75.9,54.6,79.5z"/>
		<g>
			<path class="st3" d="M49,76c0,0-1.9,3-1.3,6.2c0.5,3.1,2.5,3.6,2.5,3.6"/>
			<path class="st3" d="M58.9,74.7c0,0,2.1,2,3,5c0.9,3.1-1.1,4.3-1.1,4.3"/>
			<path class="st3" d="M52.7,65.8c1.8,0.5,4.1,1.1,4.1,1.1"/>
			<line class="st3" x1="43.5" y1="68.9" x2="34.9" y2="66.8"/>
			<line class="st3" x1="43.9" y1="71.4" x2="35.8" y2="69.6"/>
			<line class="st3" x1="47.1" y1="93.6" x2="36.8" y2="91.2"/>
			<line class="st3" x1="49.6" y1="98.3" x2="35" y2="95.3"/>
			<line class="st3" x1="53.1" y1="62.6" x2="56.8" y2="63.7"/>
		</g>
		<path class="st4" d="M39.1,81.6c-0.2-4.3,1.7-6.3,3-7.1l1.6,12.2C42.4,86.8,39.4,86.3,39.1,81.6z"/>
		<path class="st1" d="M38.3,87.6l-2-15.4l5.7,1.3l0.1,1c-1.3,0.8-3.2,2.8-3,7.1c0.1,2.8,1.3,4.1,2.5,4.7c-0.5,0.5-1,1.1-1.4,1.7
			L38.3,87.6z"/>
		<path class="st1" d="M43.7,86.8l0.3,2L40.2,88c0.4-0.6,0.9-1.2,1.4-1.7C42.4,86.7,43.2,86.8,43.7,86.8z"/>
		<line class="st2" x1="47.1" y1="66.2" x2="49" y2="64.7"/>
	</g>
	<g>
		<g>
			<path class="st5" d="M49.1,46.9L49.3,34l4.3,0.1c0.4,5.4,0.5,10.8,0.6,16.3C50.6,49.8,49.1,47.5,49.1,46.9z"/>
			<path class="st6" d="M54.2,50.4C54.1,45,54,39.5,53.6,34.1l4,0.1c-0.1,5.3,0.3,10.7,0.8,16.1c-0.7,0.2-1.5,0.3-2.5,0.3
				C55.3,50.6,54.7,50.5,54.2,50.4z"/>
			<path class="st7" d="M61.9,34.3l0,13.5c0,0-0.6,1.8-3.4,2.5c-0.6-5.4-0.9-10.8-0.8-16.1L61.9,34.3z"/>
			<path class="st8" d="M49.1,46.9L49.3,34l12.6,0.2l0,13.5c0,0-1,2.8-5.9,2.8C51.1,50.5,49.1,47.6,49.1,46.9z"/>
			<path class="st6" d="M53.9,39.3c-0.1-2.7-0.3-5.4-0.5-8.1c0.7-0.1,1.4-0.1,2.3-0.1c0.7,0,1.4,0.1,2.1,0.3c-0.1,2.8-0.1,5.6,0,8.4
				c-0.4,0.3-0.9,0.5-1.5,0.5C55,40.3,54.3,39.9,53.9,39.3z"/>
			<path class="st5" d="M52.3,37.3c-1.4-0.6-3.3-1.8-2.9-3.5c0.3-1.3,1.6-2.3,3.9-2.6c0.3,2.7,0.4,5.4,0.5,8.1
				C53.3,38.6,53.1,37.6,52.3,37.3z"/>
			<path class="st7" d="M57.7,31.4c2.5,0.5,4.2,1.8,4.1,3.2c-0.1,1.8-2.1,2.1-2.5,3c-0.3,0.6-0.7,1.6-1.6,2.2
				C57.6,37,57.6,34.2,57.7,31.4z"/>
			<path class="st8" d="M49.1,41c0,0,1.5,3.1,6.8,3.2c4.6,0.1,6-2.1,6-2.1"/>
			<path class="st8" d="M56.1,40.3c2-0.1,2.7-1.8,3.2-2.7c0.5-0.8,2.5-1.2,2.5-3c0.1-1.8-2.5-3.3-6.2-3.5c-3.7-0.2-5.8,1-6.2,2.7
				c-0.4,1.7,1.5,2.9,2.9,3.5C53.7,37.9,53.5,40.4,56.1,40.3z"/>
			<path class="st6" d="M55.7,38.9c-0.5-0.2-0.9-0.6-1-0.8c-0.2-1.1-0.6-1.8-1.7-2.2c-0.9-0.3-1.9-0.7-2-1.5c0.3-0.9,1-1.8,1.8-2.3
				C54.4,34,55.4,36.3,55.7,38.9z"/>
			<path class="st9" d="M57.7,31.4c0.1,0.2,0.3,0.5,0.5,0.7c0.3,0.2,0.6,0.5,0.9,0.8l0,0l0,0c0.6,0.7,1,1.6,1.1,2.6
				c0,0.1-0.1,0.2-0.1,0.2c-0.5,0.7-2.1,0.8-2.4,2.3c0,0.1,0,0.1-0.1,0.2C57.6,35.9,57.6,33.6,57.7,31.4z"/>
			<path class="st7" d="M54,30.2c0,0.6-0.6,1.3-1.1,1.8c0,0,0,0-0.1,0c1.5,2,2.6,4.3,2.9,6.9c0.1,0.1,0.3,0.1,0.4,0.1
				c0.6,0.1,1.3-0.3,1.5-0.8c0-2.3,0-4.6,0.1-6.8c-0.2-0.4-0.4-0.8-0.4-1.3c0-0.2,0.3-2.6,0.3-2.8c-1.2,0-3-1.1-4.3-1.1
				C53.5,26.4,54,29.9,54,30.2z"/>
			<path class="st8" d="M59.1,32.9L59.1,32.9c-0.3-0.3-0.6-0.6-0.9-0.8c-0.4-0.5-0.9-1.2-0.9-1.9c0-0.3,0.3-2.6,0.3-2.8
				c-1.1,0-3-1.1-4.2-1.1c0.1,0.3,0.6,3.8,0.6,4c0,0.6-0.6,1.3-1.1,1.8c-0.8,0.6-1.5,1.4-1.8,2.4c0.1,0.8,1,1.2,2,1.5
				c1.1,0.3,1.5,1.1,1.7,2.2c0.1,0.4,0.7,0.9,1.4,0.9c0.7,0.1,1.4-0.3,1.6-1c0.4-1.5,1.9-1.6,2.4-2.3c0.1-0.1,0.1-0.2,0.1-0.2
				C60.1,34.5,59.7,33.6,59.1,32.9L59.1,32.9z"/>
		</g>
		<path class="st10" d="M69.5,26.3"/>
		<path class="st4" d="M77.4,20.8c0,0-7.3-10.9-20.3-14.1c-2.7-0.6-5.6-0.6-8.4-0.3c3.3-0.6,7-0.9,10.3-0.1C72,9.5,79.4,20,79.4,20
			s0,0,0,0.1L77.4,20.8C77.4,20.9,77.4,20.8,77.4,20.8z"/>
		<path class="st2" d="M48.8,6.4c2.8-0.3,5.7-0.3,8.4,0.3c13,3.2,20.3,14.1,20.3,14.1s0,0,0,0.1c0,0.9,0.1,8.9,0.1,9.8
			c0,0.9-0.2,2.2-1.2,1.8c-0.1,0-0.6-0.2-1.4-0.5c-3.8-1.5-14.6-5.6-23.6-9c-7.4-2.8-13.5-5.1-13.5-5.1V9.2
			C37.8,9.2,42.9,7.1,48.8,6.4z"/>
		<path class="st4" d="M34.9,10.4L34.9,10.4l40.9,12.2l-0.2,11.9c-2.8-0.9-37.1-10.9-39.1-11.5c-2-0.7-1.9-1.9-1.9-2.8
			C34.6,19.2,34.9,10.4,34.9,10.4z"/>
		<polygon class="st2" points="36.8,9.6 75.9,21.2 75.9,22.5 35,10.3 		"/>
		<path class="st11" d="M76,21.2c0,0-0.1,8.6-0.1,9.4c0,0.6-0.1,1.4,0.2,1.8c0.1,0,0.2,0.1,0.2,0.1c1,0.4,1.2-0.9,1.2-1.8
			c0-0.9-0.1-8.9-0.1-9.8l2-0.7c0,1.1,0.1,8.9,0.1,9.7c0,0.9,0,3.7-2.6,4.3c-2.6,0.6-2.9-1.6-2.9-3.5c0-2,0-8.8,0-8.8L76,21.2z"/>
	</g>
	<path class="st3" d="M71.7,31.1c0,0-32.9-9.7-33.9-10c-1.1-0.3-1.1-0.9-1.1-0.9"/>
	<path class="st12" d="M54.1,50.4c0.3,0.3,0.7,0.5,1.3,0.5c0.6,0,1.1-0.2,1.3-0.6"/>
	<path class="st3" d="M57,31.7c-0.2-0.3-0.7-0.6-1.2-0.6c-0.6,0-1.1,0.1-1.4,0.4"/>
	<path class="st12" d="M49.4,41c0,0,1.5,3.1,6.8,3.1c4.6,0,5.9-2.1,5.9-2.1"/>
</g>
</svg>
