<?xml version="1.0" encoding="utf-8"?>
<!-- Generator: Adobe Illustrator 21.1.0, SVG Export Plug-In . SVG Version: 6.00 Build 0)  -->
<svg version="1.1" id="Layer_1" xmlns="http://www.w3.org/2000/svg" xmlns:xlink="http://www.w3.org/1999/xlink" x="0px" y="0px"
	 width="108px" height="108px" viewBox="0 0 108 108" style="enable-background:new 0 0 108 108;" xml:space="preserve">
<style type="text/css">
	.st0{fill:#FFFFFF;stroke:#000000;stroke-width:0.5;stroke-linecap:round;stroke-linejoin:round;stroke-miterlimit:10;}
	.st1{fill:#FFFFFF;}
	.st2{fill:#F2F2F2;}
	.st3{fill:#E6E6E6;}
	.st4{fill:none;stroke:#000000;stroke-width:0.5;stroke-linecap:round;stroke-linejoin:round;stroke-miterlimit:10;}
	.st5{fill:#CCCCCC;}
	.st6{fill:none;stroke:#000000;stroke-width:0.25;stroke-linecap:round;stroke-linejoin:round;stroke-miterlimit:10;}
	.st7{fill:#F2F2F2;stroke:#000000;stroke-width:0.5;stroke-linecap:round;stroke-linejoin:round;stroke-miterlimit:10;}
	.st8{fill:#B3B3B3;stroke:#000000;stroke-width:0.5;stroke-linecap:round;stroke-linejoin:round;stroke-miterlimit:10;}
	.st9{fill:#E6E6E6;stroke:#000000;stroke-width:0.5;stroke-linecap:round;stroke-linejoin:round;stroke-miterlimit:10;}
	.st10{fill:#CCCCCC;stroke:#000000;stroke-width:0.5;stroke-linecap:round;stroke-linejoin:round;stroke-miterlimit:10;}
	.st11{fill:#999999;stroke:#000000;stroke-width:0.5;stroke-linecap:round;stroke-linejoin:round;stroke-miterlimit:10;}
	.st12{fill:#808080;stroke:#000000;stroke-width:0.5;stroke-linecap:round;stroke-linejoin:round;stroke-miterlimit:10;}
</style>
<g>
	<path class="st0" d="M53.1,77.4L53.1,77.4L53.1,77.4c-0.1-0.1-0.3-0.3-0.4-0.4c-0.2-0.2-0.4-0.5-0.4-0.8c0-0.3,0.8-1.3,0.8-2
		c0-0.7,0-24.6,0-24.6c0-1-0.7-1.3-0.7-2.2c0-0.1,0.2-0.5,0.3-0.6c0.2-0.2,0.3-0.4,0.3-0.7c0-0.6-0.6-1.1-1.3-1.1
		c-0.7,0-1.3,0.5-1.3,1.1c0,0.3,0.1,0.5,0.3,0.7c0.2,0.2,0.2,0.4,0.2,0.6c0,0.7-0.8,1.4-0.8,2.2c0,0,0,23.8,0,24.6
		c0,0.7,0.9,1.8,0.9,2.1c0,0.3-0.2,0.6-0.5,0.8c-0.4,0.2-0.6,0.6-0.8,1c0.1,0.4,0.5,0.5,0.9,0.7c0.5,0.1,0.7,0.5,0.7,1
		c0,0.2,0.3,0.4,0.6,0.4c0.3,0,0.6-0.2,0.7-0.5c0.1-0.7,0.8-0.7,1.1-1c0,0,0-0.1,0.1-0.1C53.6,78.1,53.4,77.7,53.1,77.4z"/>
	<g>
		<g>
			<path class="st1" d="M49,45.2l0.1-5.4l1.8,0c0.2,2.3,0.2,4.6,0.2,6.9C49.6,46.5,49,45.5,49,45.2z"/>
			<path class="st2" d="M51.1,46.7c0-2.3-0.1-4.6-0.2-6.9l1.7,0c0,2.2,0.1,4.5,0.4,6.8c-0.3,0.1-0.6,0.1-1.1,0.1
				C51.6,46.8,51.3,46.8,51.1,46.7z"/>
			<path class="st3" d="M54.4,39.9l0,5.7c0,0-0.3,0.8-1.4,1.1c-0.2-2.3-0.4-4.5-0.4-6.8L54.4,39.9z"/>
			<path class="st4" d="M49,45.2l0.1-5.4l5.3,0.1l0,5.7c0,0-0.4,1.2-2.5,1.2C49.8,46.8,49,45.5,49,45.2z"/>
			<path class="st2" d="M51,42.1c0-1.1-0.1-2.3-0.2-3.4c0.3,0,0.6,0,1,0c0.3,0,0.6,0.1,0.9,0.1c-0.1,1.2-0.1,2.3,0,3.5
				c-0.2,0.1-0.4,0.2-0.7,0.2C51.5,42.5,51.2,42.3,51,42.1z"/>
			<path class="st1" d="M50.3,41.2c-0.6-0.3-1.4-0.8-1.2-1.5c0.1-0.6,0.7-1,1.6-1.1c0.1,1.1,0.2,2.3,0.2,3.4
				C50.8,41.7,50.7,41.3,50.3,41.2z"/>
			<path class="st3" d="M52.6,38.7c1.1,0.2,1.8,0.7,1.7,1.4c0,0.8-0.9,0.9-1.1,1.3c-0.1,0.2-0.3,0.7-0.7,0.9
				C52.6,41.1,52.6,39.9,52.6,38.7z"/>
			<path class="st4" d="M49,42.8c0,0,0.6,1.3,2.9,1.3c2,0,2.5-0.9,2.5-0.9"/>
			<path class="st4" d="M51.9,42.5c0.8,0,1.1-0.8,1.3-1.1c0.2-0.4,1-0.5,1.1-1.3c0-0.8-1.1-1.4-2.6-1.5c-1.6-0.1-2.4,0.4-2.6,1.1
				c-0.2,0.7,0.6,1.2,1.2,1.5C50.9,41.5,50.8,42.5,51.9,42.5z"/>
			<path class="st2" d="M51.8,41.9c-0.2-0.1-0.4-0.2-0.4-0.4c-0.1-0.5-0.3-0.8-0.7-0.9c-0.4-0.1-0.8-0.3-0.8-0.6
				c0.1-0.4,0.4-0.7,0.7-1C51.2,39.8,51.6,40.8,51.8,41.9z"/>
			<path class="st5" d="M52.6,38.7c0.1,0.1,0.1,0.2,0.2,0.3c0.1,0.1,0.3,0.2,0.4,0.3l0,0l0,0c0.3,0.3,0.4,0.7,0.5,1.1
				c0,0,0,0.1-0.1,0.1c-0.2,0.3-0.9,0.3-1,0.9c0,0,0,0.1,0,0.1C52.6,40.6,52.6,39.7,52.6,38.7z"/>
			<path class="st3" d="M51,38.2c0,0.3-0.2,0.5-0.5,0.7c0,0,0,0,0,0c0.6,0.8,1.1,1.8,1.2,2.9c0.1,0,0.1,0,0.2,0
				c0.3,0,0.5-0.1,0.6-0.3c0-1,0-1.9,0-2.9c-0.1-0.2-0.2-0.3-0.2-0.5c0-0.1,0.1-1.1,0.1-1.2c-0.5,0-1.3-0.5-1.8-0.5
				C50.8,36.6,51,38.1,51,38.2z"/>
			<path class="st4" d="M53.2,39.3L53.2,39.3c-0.1-0.1-0.2-0.3-0.4-0.3c-0.2-0.2-0.4-0.5-0.4-0.8c0-0.1,0.1-1.1,0.1-1.2
				c-0.5,0-1.3-0.5-1.8-0.5c0,0.1,0.2,1.6,0.2,1.7c0,0.3-0.2,0.5-0.5,0.7c-0.4,0.2-0.6,0.6-0.8,1c0,0.4,0.4,0.5,0.8,0.6
				c0.5,0.1,0.6,0.5,0.7,0.9c0,0.1,0.3,0.4,0.6,0.4c0.3,0,0.6-0.1,0.7-0.4c0.1-0.6,0.8-0.7,1-1c0,0,0-0.1,0.1-0.1
				C53.6,40,53.5,39.6,53.2,39.3L53.2,39.3z"/>
		</g>
	</g>
	<path class="st6" d="M51.1,46.7c0.1,0.1,0.3,0.2,0.5,0.2c0.2,0,0.5-0.1,0.6-0.2"/>
	<g>
		<path class="st7" d="M52.8,93.5l0.6-7.2l-4.9-1l0,1.5l-0.7,2.4l0.2,5.3c1.8,0.2,3.6,0.3,5.5,0.3L52.8,93.5z"/>
		<path class="st8" d="M52,104.2c0,0.2,0,0.3,0,0.3l0,0.2l0,0v-0.2l-0.6,0.2v0l0.3-0.1c0,0,0.4-1.2-0.4-1.1
			c-0.8,0.2-1.3-0.5-1.3-1.9c0-1,0.8-3.5,1.4-5.1c0.2,0,0.3,0.1,0.5,0.1l0,0c-0.5,1.4-0.8,2.3-1.2,3.9c-0.6,2.7,0.5,2.5,1.1,2.6
			c0.1,0,0.2,0.1,0.3,0.2v0l0,1.1C51.9,104.5,52,104.4,52,104.2z"/>
		<path class="st8" d="M54.6,97l-0.2,2l-0.2,2.3l-0.1,0.6l-0.8,0.6l-0.6,0.5l-0.3,1.4v0l-0.1,0.4l-0.1,0l-0.3,0l0-0.2
			c0,0,0-0.1,0-0.3c0,0.2-0.1,0.3-0.1,0.3l0-1.1c0.1,0.1,0.1,0.2,0.1,0.4c0-0.2,0-0.3,0-0.4c0-1.3,1-1.4,1.2-2.5
			c0.1-0.9,0.5-2.8,0-3.4c-0.5-0.6-1.1-0.7-1.4-0.8c0,0-0.1,0-0.1,0c-0.1,0-0.3-0.1-0.5-0.1c-0.6,1.6-1.4,4.1-1.4,5.1
			c0,1.5,0.5,2.1,1.3,1.9c0.8-0.2,0.4,1.1,0.4,1.1l-0.3,0.1v0l0.6-0.2v0.2l-0.6,0.1l-0.2,0l0,0l-1.1-0.7l-0.1,0h0l-0.4-0.2l-1.2-0.7
			v0l-0.1-2.1l-0.1-2.6l-0.1-3.9c0.6,0.1,1.2,0.1,1.8,0.2c0.1,0,0.3,0,0.4,0c0.1,0,0.2,0,0.4,0c0.4,0,0.9,0,1.3,0h0
			c0.4,0,0.8,0,1.2,0h0.5L54.6,97z"/>
		<polygon class="st8" points="51.3,103.8 51.3,104.7 51.3,104.7 51.3,104.8 51.3,105.3 50.9,105.2 50.9,105.2 44.5,103.7 
			44.5,103.4 44.5,102.8 44.4,102.2 48.3,103.1 48.9,103.2 49.1,103.3 		"/>
		<path class="st2" d="M49.3,90l-4.4-1.1c0,0,0.7,2.4,0.9,3.1c0.1,0.5,0.2,1.1,0.1,1.7c1.4,0.3,2.8,0.7,4.2,1.1
			C50.1,92.9,49.3,90,49.3,90z"/>
		<path class="st1" d="M48.5,100.7c0.4-2.8,1.6-3.5,1.6-5.4c0-0.1,0-0.3,0-0.4c-1.4-0.4-2.8-0.8-4.2-1.1c0,0.2-0.1,0.4-0.2,0.6
			c-0.4,0.8-1.6,3.2-2.3,4.5c-0.1,0.2-0.2,0.5-0.3,0.7c1.8,0.5,3.6,1,5.4,1.5C48.5,101,48.5,100.8,48.5,100.7z"/>
		<path class="st3" d="M48.5,101.1c-1.8-0.5-3.6-1-5.4-1.5c-0.4,1.2-0.2,2.7,0.8,3c1.2,0.4,6.4,1.6,6.4,1.6S48.4,103.6,48.5,101.1z"
			/>
		<path class="st4" d="M44.9,88.9c0,0,0.7,2.4,0.9,3.1c0.2,0.7,0.3,1.6-0.1,2.4c-0.4,0.8-1.6,3.2-2.3,4.5c-0.7,1.3-0.7,3.4,0.5,3.7
			c1.2,0.4,6.4,1.6,6.4,1.6s-2.1-0.6-1.8-3.5c0.4-2.8,1.6-3.5,1.6-5.4c0.1-1.9-0.9-5.3-0.9-5.3L44.9,88.9z"/>
		<polygon class="st9" points="44.1,103.5 44.4,103.4 50.9,104.8 50.9,105.3 50.5,105.4 44.1,104.1 		"/>
		<path class="st10" d="M54.5,100.9c-0.1,0.1-0.2,0.2-0.3,0.3c-0.3,0.4-0.6,0.8-0.9,1.2c-0.2,0.3-0.4,0.5-0.4,0.5l-0.2,1.2v0
			l-0.1,0.8l-0.3-0.2l-0.3-0.2c0,0,0-0.1,0-0.3c0,0,0,0,0,0c0-0.1,0-0.3,0-0.4v-0.1c0-0.2,0-0.3,0-0.4c0-1.3,1-1.4,1.2-2.5
			c0.1-0.9,0.5-2.8,0-3.4c-0.5-0.6-1.1-0.7-1.4-0.8c0,0-0.1,0-0.1,0c-0.1,0-0.3-0.1-0.5-0.1c-0.4-0.1-0.7-0.2-0.7-0.2l0.1-0.4l0,0
			c0,0,0.3,0.1,0.8,0.2c0.5,0.1,1.3,0.3,1.8,0.6h0c0.3,0.1,0.4,0.2,0.5,0.3c0.2,0.3,0.5,1.2,0.7,2.1
			C54.6,99.8,54.7,100.6,54.5,100.9z"/>
		<path class="st9" d="M51.9,104.5v0.7c0,0-0.5,0.5-1,0.2v-0.2l0-0.4l0.2-0.1l0,0l0.1,0l0.1,0L51.9,104.5z"/>
		<path class="st9" d="M52.7,105.1c-0.5,0.3-0.8,0.2-0.8,0.2v-0.1l0-0.5l0-0.2l0.4-0.2l0,0l0.3-0.1l0,0l0.1-0.1l0.1,0
			C52.9,104.1,53.2,104.8,52.7,105.1z"/>
		<path class="st10" d="M49.2,94.8c-0.1,0.3-0.2,0.6-0.4,0.9l-1.2-0.3c0,0-0.8-0.5-0.5-2c0.1-0.4,0.1-0.7,0.2-1v0l1.8,0.4
			C49.1,92.8,49.4,94.2,49.2,94.8z"/>
		<path class="st11" d="M47.6,95.5l-0.3,0.7l-1.6-0.3c0,0,1-1.4,1-2c0-0.5-0.1-1.5-0.1-1.5l0.7,0.1v0c-0.1,0.2-0.2,0.5-0.2,1
			C46.9,95,47.6,95.5,47.6,95.5z"/>
		<path class="st12" d="M48.8,95.8c-0.2,0.4-0.3,0.6-0.3,0.6l-1.1-0.2l-0.1,0l0.3-0.7L48.8,95.8z"/>
		<polygon class="st0" points="47.5,96.2 47.4,96.2 47.4,96.2 		"/>
		<path class="st0" d="M47.8,91.8"/>
		<polyline class="st0" points="48.4,89.3 49.1,86.9 49.1,85.3 		"/>
		<path class="st0" d="M51.9,92.2c0,0-0.6-0.1-0.9,0.1"/>
		<path class="st0" d="M51.8,91.9c-0.1-0.1-0.5-0.4-1.1-0.4"/>
		<path class="st8" d="M53.2,100.8c-0.2,1.1-1.2,1.2-1.2,2.5c0,0.1,0,0.3,0,0.4c0-0.1-0.1-0.3-0.1-0.4v0c-0.1-0.1-0.2-0.1-0.3-0.2
			c-0.7-0.2-1.7,0-1.1-2.6c0.4-1.6,0.7-2.5,1.2-3.9l0,0c0.1,0,0.1,0,0.1,0c0.3,0.1,0.9,0.2,1.4,0.8C53.7,98,53.3,99.9,53.2,100.8z"
			/>
		<path class="st0" d="M52,103.7L52,103.7c0,0.2,0,0.4,0,0.5c0,0,0,0,0,0c0,0.2-0.1,0.3-0.1,0.3l0-1.1C52,103.4,52,103.6,52,103.7z"
			/>
		<path class="st9" d="M55,95.8c-0.4-0.7-1.3-1.6-1.4-6.1c0-1.2,0.1-2.3,0.2-2.7c0.1-0.6,0.2-0.9,0.2-0.9l-2-0.5
			c-0.1-0.2-0.2-0.5,0-0.7c0,0,0,0,0,0c0.3-0.1,0.5-0.4,0.5-0.8c0-0.5-0.4-0.8-1-0.8c-0.5,0-1,0.4-1,0.8c0,0.2,0.1,0.4,0.2,0.5
			c0.1,0.2,0,0.4-0.2,0.6L49,84.9l-0.5,0.5l4.8,1.3c0,0-0.5,0.7-0.6,1.7s-1,5-0.9,5.5c0.1,0.6,0,1.2,0.5,1.7
			c0.5,0.6,1.8,1.7,1.7,2.7c-0.1,0.8-0.2,3.1-0.7,3.7c-0.6,0.6-0.8,1.1-0.8,1.6c-0.1,0.6-0.1,0.8-0.1,0.8l0.6-0.3
			c0,0,0.1-1.1,0.5-1.2c0.4-0.1,2-0.9,2-2.9S55.4,96.5,55,95.8z"/>
		<path class="st9" d="M51.8,94.5c0,0.1,0,0.1,0,0.2c0,0.2,0,0.4,0,0.4c0,0.1-0.1,0.4-0.3,0.8c0,0.1-0.1,0.3-0.2,0.5
			c-0.6,1.6-1.4,4.1-1.4,5.1c0,1.5,0.5,2.1,1.3,1.9c0.8-0.2,0.4,1.1,0.4,1.1l-0.3,0.1l-0.1,0l-0.1,0c0,0,0,0,0,0
			c0-0.1,0.1-0.5-0.5-0.5c-0.2,0-0.4-0.1-0.6-0.1c0,0-0.1,0-0.1-0.1c-0.1-0.1-0.2-0.1-0.4-0.2c-0.2-0.2-0.4-0.4-0.6-0.6
			c-0.2-0.2-0.3-0.4-0.4-0.6c-0.4-1-0.6-2.5,0.4-4.6c0.5-1.1,0.7-2.3,0.8-3.4c0.1-1.1,0-2,0-2.6c-0.1-0.5-0.1-0.9-0.2-1.3
			c0,0,0-0.1,0-0.1c0-0.1-0.1-0.2-0.1-0.3c0,0,0,0,0,0c0-0.2-0.1-0.4-0.1-0.4l-4.4-1.1l0.7-0.5l4.3,1.1c0,0,1.8,4.1,1.9,4.3
			c0,0.1,0,0.1,0.1,0.2c0,0,0,0.1,0,0.1C51.7,94.3,51.7,94.4,51.8,94.5C51.8,94.5,51.8,94.5,51.8,94.5z"/>
		<g>
			<line class="st6" x1="49.9" y1="86.5" x2="52.1" y2="87.1"/>
			<line class="st6" x1="52" y1="88.1" x2="49.7" y2="87.6"/>
			<polyline class="st6" points="50.1,88.7 51.7,89.1 51.4,90.7 			"/>
			<line class="st6" x1="48.8" y1="90.7" x2="46.1" y2="90.1"/>
			<line class="st6" x1="48.7" y1="91.7" x2="46.5" y2="91.3"/>
			<path class="st6" d="M47.6,102.1c0,0-0.4-1.4,0.1-2.7c0.4-1.3,0.8-2.1,0.8-2.1"/>
			<path class="st6" d="M43.7,101.3c0,0-0.2-1.2,0.4-2.2c0.7-1.1,1.4-2.4,1.4-2.4"/>
			<path class="st6" d="M53.4,95.2L53,94.7c0,0,0.4-0.5,0.2-1.4c-0.2-0.9-0.7-1-0.7-1"/>
			<path class="st6" d="M50.5,96l0.3-0.8c0,0-0.5-0.5-0.5-1.5s0.2-1,0.2-1"/>
			<path class="st6" d="M51,84.6c0.1,0.1,0.2,0.2,0.4,0.2c0.2,0,0.3-0.1,0.4-0.2"/>
		</g>
	</g>
	<path class="st6" d="M52.1,48c-0.1-0.1-0.3-0.2-0.5-0.3c-0.2,0-0.5,0.1-0.6,0.2"/>
	<path class="st6" d="M49.1,42.8c0,0,0.6,1.3,2.9,1.3c1.9,0,2.5-0.9,2.5-0.9"/>
	<g>
		<path class="st1" d="M48.7,83.4l0.1-5.7l1.9,0c0.2,2.4,0.2,4.8,0.2,7.2C49.3,84.7,48.7,83.6,48.7,83.4z"/>
		<path class="st2" d="M50.9,84.9c0-2.4-0.1-4.8-0.2-7.2l1.8,0c0,2.4,0.1,4.7,0.4,7.1C52.5,85,52.2,85,51.7,85
			C51.4,85,51.2,85,50.9,84.9z"/>
		<path class="st3" d="M54.3,77.8l0,6c0,0-0.3,0.8-1.5,1.1c-0.3-2.4-0.4-4.8-0.4-7.1L54.3,77.8z"/>
		<path class="st4" d="M48.7,83.4l0.1-5.7l5.5,0.1l0,6c0,0-0.4,1.3-2.6,1.2C49.6,85,48.7,83.7,48.7,83.4z"/>
		<path class="st2" d="M50.8,80c-0.1-1.2-0.1-2.4-0.2-3.6c0.3,0,0.6,0,1,0c0.3,0,0.6,0.1,0.9,0.1c-0.1,1.2-0.1,2.5,0,3.7
			c-0.2,0.1-0.4,0.2-0.7,0.2C51.3,80.5,51,80.3,50.8,80z"/>
		<path class="st1" d="M50.1,79.1c-0.6-0.3-1.4-0.8-1.3-1.5c0.1-0.6,0.7-1,1.7-1.1c0.1,1.2,0.2,2.4,0.2,3.6
			C50.6,79.7,50.4,79.3,50.1,79.1z"/>
		<path class="st3" d="M52.5,76.5c1.1,0.2,1.8,0.8,1.8,1.4c0,0.8-0.9,0.9-1.1,1.3c-0.1,0.3-0.3,0.7-0.7,1
			C52.4,79,52.4,77.8,52.5,76.5z"/>
		<path class="st4" d="M48.7,80.8c0,0,0.6,1.4,3,1.4c2,0,2.6-0.9,2.6-0.9"/>
		<path class="st4" d="M51.8,80.5c0.9,0,1.2-0.8,1.4-1.2c0.2-0.4,1.1-0.5,1.1-1.3c0-0.8-1.1-1.4-2.7-1.5c-1.6-0.1-2.5,0.4-2.7,1.2
			c-0.2,0.8,0.7,1.3,1.3,1.5C50.7,79.4,50.6,80.5,51.8,80.5z"/>
		<path class="st2" d="M51.6,79.8c-0.2-0.1-0.4-0.3-0.4-0.4c-0.1-0.5-0.3-0.8-0.7-1c-0.4-0.1-0.8-0.3-0.9-0.7c0.2-0.4,0.4-0.8,0.8-1
			C51,77.7,51.5,78.7,51.6,79.8z"/>
		<path class="st5" d="M52.5,76.5c0.1,0.1,0.1,0.2,0.2,0.3c0.1,0.1,0.3,0.2,0.4,0.4l0,0l0,0c0.3,0.3,0.5,0.7,0.5,1.2
			c0,0,0,0.1-0.1,0.1c-0.2,0.3-0.9,0.3-1.1,1c0,0,0,0.1,0,0.1C52.4,78.5,52.4,77.5,52.5,76.5z"/>
		<path class="st3" d="M50.8,76c0,0.3-0.3,0.6-0.5,0.8c0,0,0,0,0,0c0.7,0.9,1.1,1.9,1.3,3c0.1,0,0.1,0,0.2,0c0.3,0,0.6-0.1,0.7-0.4
			c0-1,0-2,0-3c-0.1-0.2-0.2-0.4-0.2-0.6C52.3,75.9,50.8,75.9,50.8,76z"/>
		<path class="st4" d="M52.3,76"/>
		<path class="st4" d="M50.8,76c0,0.3-0.3,0.6-0.5,0.8c-0.4,0.2-0.7,0.6-0.8,1c0,0.4,0.5,0.5,0.9,0.7c0.5,0.2,0.6,0.5,0.7,1
			c0,0.2,0.3,0.4,0.6,0.4c0.3,0,0.6-0.2,0.7-0.4c0.2-0.7,0.8-0.7,1.1-1c0,0,0-0.1,0.1-0.1c0-0.4-0.2-0.8-0.5-1.2l0,0l0,0
			c-0.1-0.1-0.2-0.3-0.4-0.4c-0.2-0.2-0.4-0.5-0.4-0.8"/>
		<path class="st4" d="M50.8,76"/>
	</g>
	<g>
		<polygon class="st0" points="31.6,30.8 75.5,40.9 75.9,8.1 31.7,3.3 		"/>
		<polygon class="st0" points="37.2,32 37.9,31.9 68.2,38.8 67.3,39.1 		"/>
		<path class="st9" d="M32.5,32.2c0,0-0.4-0.1-0.9-0.2c-0.5-0.1-0.8-0.7-0.8-1.5s0.2-25,0.2-26.1s0.4-1,1.3-0.9
			C32.4,10.1,32.5,32.2,32.5,32.2z"/>
		<polygon class="st10" points="32.7,30.5 74.2,39.9 74.3,41.8 32.6,32.2 		"/>
		<path class="st10" d="M75.5,40.9c0,0,1.6,0.5,1.6-1.6c0-2.1-0.1-29.4-0.1-30.8s-1.9-1.3-1.9-1.3l-0.7,1L75.5,40.9z"/>
		<path class="st7" d="M31.7,3.3l42.7,4.9l0.7-1c0,0-40.6-4.5-41.6-4.7S31.7,3.3,31.7,3.3z"/>
		<line class="st6" x1="49.2" y1="9.8" x2="37.8" y2="24.1"/>
		<line class="st6" x1="49.1" y1="13.4" x2="41.3" y2="23.3"/>
		<polygon class="st7" points="37.2,34.2 67.1,41.4 67.2,38.9 37.1,32.1 		"/>
		<path class="st9" d="M67.2,39l0.1,2.3c0,0,0.6,0.5,0.9,0.2c0.4-0.3,0.4-0.7,0.4-0.7l-0.6-0.2l0.1-1.8L67.2,39z"/>
		<path class="st9" d="M74.3,41.8c0,0,1.7,0.1,1.7-1.9S75.9,11.6,75.9,10s-1.5-1.9-1.5-1.9L74.3,41.8z"/>
	</g>
</g>
</svg>
