<?xml version="1.0" encoding="utf-8"?>
<!-- Generator: Adobe Illustrator 21.1.0, SVG Export Plug-In . SVG Version: 6.00 Build 0)  -->
<svg version="1.1" id="Layer_1" xmlns="http://www.w3.org/2000/svg" xmlns:xlink="http://www.w3.org/1999/xlink" x="0px" y="0px"
	 width="108px" height="108px" viewBox="0 0 108 108" style="enable-background:new 0 0 108 108;" xml:space="preserve">
<style type="text/css">
	.st0{fill:#666666;stroke:#000000;stroke-width:0.75;stroke-linecap:round;stroke-linejoin:round;stroke-miterlimit:10;}
	.st1{fill:#B3B3B3;stroke:#000000;stroke-width:0.75;stroke-linecap:round;stroke-linejoin:round;stroke-miterlimit:10;}
	.st2{fill:#CCCCCC;stroke:#000000;stroke-width:0.75;stroke-linecap:round;stroke-linejoin:round;stroke-miterlimit:10;}
	.st3{fill:#F2F2F2;stroke:#000000;stroke-width:0.75;stroke-linecap:round;stroke-linejoin:round;stroke-miterlimit:10;}
	.st4{fill:#FFFFFF;stroke:#000000;stroke-width:0.75;stroke-linecap:round;stroke-linejoin:round;stroke-miterlimit:10;}
	.st5{fill:#E6E6E6;stroke:#000000;stroke-width:0.75;stroke-linecap:round;stroke-linejoin:round;stroke-miterlimit:10;}
</style>
<g>
	<path class="st0" d="M12.3,85.1c-1.1,0.6-2.2,1.3-3.4,1.9c0-1.3,0-2.6,0-3.9C10,83.8,11.2,84.4,12.3,85.1z"/>
	<path class="st1" d="M22.5,89.3c0,1.8,0,3.7,0,5.5c-0.5-0.3-1.7-0.7-1.9-1.2c-0.3-0.7,0-2.2,0-2.9c0-0.7,0.1-0.7-0.4-1.1
		c-0.6-0.6-1.6-0.9-2.3-1.4c-3-1.7-6-3.4-8.9-5.2c0,1.3,0,2.6,0,3.9c-0.4-0.2-1.6-0.5-1.9-0.9C7,86,7,85.7,7,85.5
		c-0.2-1.5,0-3.1,0-4.6c0-2.9,0-5.7,0-8.6c3.3,1.9,6.6,3.8,9.8,5.7c0.9,0.5,1.8,1.1,2.7,1.6c0.3,0.2,1.1,0.4,1.3,0.7
		c0.2,0.4,0,1.7,0,2.1c0,1.3,0,2.5,0,3.8C20.9,87.5,20.7,89.4,22.5,89.3z"/>
	<path class="st1" d="M100.5,45.8c0,0.7,0,1.4,0,2.1c0,0.6,0.3,2.3,0,2.9c-0.1,0.2-0.3,0.2-0.5,0.4c-1.3,0.9-2.8,1.6-4.2,2.4
		c-6,3.4-12,6.8-18,10.1C63,72,48,80.4,33.1,88.8c-3.5,2-7.1,4-10.6,6c0-0.7,0-1.3,0-2c0-0.9-0.3-2.4,0-3.2c0.2-0.5,0-0.2,0.4-0.5
		c1.1-0.9,2.8-1.5,4-2.2c5.9-3.3,11.8-6.5,17.6-9.8c15-8.4,30.1-16.8,45.1-25.1C93.3,49.9,96.9,47.9,100.5,45.8z"/>
	<path class="st2" d="M102.8,44.6c-0.4,0.6-1.4,0.9-2.3,1.3c-0.2,0.1-0.3,0.2-0.5,0.2c-6.7,3.7-13.4,7.4-20.1,11.2
		c-11,6.1-22,12.3-33.1,18.4c-0.8,0.4-1.6,0.9-2.4,1.3c-6.8,3.8-13.7,7.6-20.5,11.4c-0.4,0.2-0.9,0.6-1.3,0.7c0,0,0,0,0,0
		c0,0-0.1,0-0.1,0c-0.1,0-0.2,0-0.3,0c0,0,0,0,0,0c-0.3,0-0.5-0.1-0.7-0.2c0,0,0,0,0,0c-0.1-0.1-0.2-0.1-0.2-0.2
		c-0.1-0.1-0.1-0.2-0.2-0.3c0-0.1-0.1-0.2-0.1-0.3c0,0,0,0,0,0c0-0.1,0-0.1,0-0.2c0-0.1-0.1-0.3-0.1-0.4c0-0.2,0-0.3,0-0.5v-1
		c0-2,0-4,0-5.9v-2.9c0-1.9,0-3.9,0-5.8c0-0.5,0-0.9,0-1.4c0,0,0.1,0.1,0.1,0.1c0.6,0.6,1.3,0.7,2,0.6c0,0,0.1,0,0.1,0
		c0.1,0,0.2,0,0.3-0.1c0.1,0,0.2,0,0.3-0.1c0.1,0,0.2-0.1,0.2-0.1c0,0,0,0,0,0c0.3-0.1,0.6-0.3,0.9-0.4c0,0,0,0,0,0
		c0.7-0.4,1.4-0.9,2-1.2c2.5-1.4,4.9-2.8,7.4-4.2c0.1,0,0.1-0.1,0.2-0.1c1.3-0.7,2.5-1.4,3.8-2.1c1.1-0.6,2.1-1.2,3.2-1.8
		c0.6-0.4,1.3-0.7,1.9-1.1c0,0,0,0,0,0c0.1-0.1,0.2-0.1,0.3-0.2c1.6-0.9,3.3-1.9,4.9-2.8c11.5-6.6,23-13.2,34.6-19.8c0,0,0,0,0.1,0
		c0.1-0.1,0.2-0.1,0.4-0.2c2.9-1.7,5.8-3.3,8.8-5c0.1-0.1,0.2-0.1,0.3-0.2c2.9-1.6,5.7-3.3,8.6-4.9c0,0,0,0,0.1,0
		c0.4-0.2,0.8-0.5,1.2-0.7c0,0,0,0,0,0c0.1,0,0.2-0.1,0.3-0.2v17.9C102.9,43.8,103,44.3,102.8,44.6z"/>
	<path class="st3" d="M83.1,36.8c-11.5,6.6-23,13.2-34.6,19.8c-1.6,0.9-3.3,1.9-4.9,2.8c0-0.1,0-0.3,0.1-0.4c0,0,0-0.1,0-0.1v0
		c0-0.4-0.2-1-0.2-1.2c0,0,0,0,0,0c0,0,0-0.1,0-0.1l0,0c0-0.1,0.2-0.1,0.3-0.2c0.1,0,0.1-0.1,0.2-0.1c0.7-0.6,1.8-1,2.6-1.5
		c0.5-0.3,0.9-0.5,1.4-0.8c0.1,0,0.1-0.1,0.2-0.1c2.7-1.6,5.5-3.1,8.2-4.7c7.2-4.1,14.3-8.2,21.4-12.2c0.6-0.3,1.6-1.2,2.3-1.3
		c0,0,0,0,0,0c0.3,0,0.4,0.1,0.7,0.3C81.6,37.2,82.4,37.2,83.1,36.8z"/>
	<path class="st4" d="M103,24.7c0,0.5-0.2,0.8-0.4,1c0,0,0,0,0,0c-0.3,0.3-0.8,0.5-1.2,0.7c0,0,0,0-0.1,0c-0.1,0.1-0.3,0.1-0.4,0.2
		c-2.3,1.3-4.6,2.6-6.9,3.9c-0.5,0.2-0.9,0.5-1.3,0.8c-0.1,0.1-0.2,0.1-0.3,0.2c-3,1.8-6,3.7-9.1,5.2c0,0,0,0-0.1,0
		c-1,0.4-2.1,0.3-2.9-0.4c0,0,0,0,0,0c-0.1-0.1-0.2-0.2-0.3-0.4c-0.1-0.2-0.2-0.3-0.3-0.5c-0.1-0.2-0.2-0.4-0.2-0.6
		c0-0.1,0-0.3,0-0.4c0-0.1,0-0.1,0-0.2c0-0.4,0.1-0.7,0.2-1c0,0,0,0,0,0c0.4-0.8,1.3-1.2,2.1-1.7c0.6-0.3,1.2-0.7,1.8-1
		c3.1-1.8,6.3-3.6,9.5-5.5c0,0,0,0,0.1,0c1.9-1.1,3.9-2.7,6-3.4C100.9,21.2,102.9,22.7,103,24.7z"/>
	<path class="st4" d="M43.7,58.6c0,0.1,0,0.2,0,0.3v0c0,0.3-0.2,0.5-0.4,0.7c0,0,0,0,0,0c-0.5,0.5-1.3,0.8-1.9,1.1
		c-0.1,0-0.1,0.1-0.2,0.1c-1,0.6-2,1.2-3,1.7c-1.2,0.7-2.5,1.4-3.8,2.1c-0.1,0-0.1,0.1-0.2,0.1c-3.1,1.8-6.2,3.8-9.4,5.4
		c0,0,0,0,0,0c-0.3,0.2-0.6,0.3-0.9,0.4c0,0,0,0,0,0c-0.1,0-0.2,0.1-0.2,0.1c-0.1,0-0.2,0.1-0.3,0.1c-0.1,0-0.2,0-0.3,0.1
		c0,0-0.1,0-0.1,0c-0.7,0.1-1.5-0.1-2-0.6c0,0-0.1-0.1-0.1-0.1c0,0,0,0,0,0c-0.1-0.1-0.2-0.2-0.2-0.3c-0.1-0.1-0.2-0.2-0.2-0.3
		c-0.1-0.2-0.1-0.3-0.2-0.5c0-0.2-0.1-0.3-0.1-0.5c0,0,0-0.1,0-0.1c-0.1-1.1,0.4-1.7,1.1-2.2c0.1-0.1,0.2-0.2,0.3-0.2
		c0.1,0,0.1-0.1,0.2-0.1c0.1-0.1,0.3-0.2,0.4-0.2c4.2-2.4,8.3-4.8,12.5-7.2c0.2-0.1,0.4-0.2,0.6-0.3c0.5-0.3,1.2-0.7,1.9-1.1
		c0.8-0.5,1.6-1,2.5-1.3c0.5-0.2,1-0.2,1.4-0.1c0.1,0,0.1,0,0.2,0c1,0.2,1.9,0.9,2.3,1.9c0,0,0,0,0,0C43.6,57.9,43.7,58.2,43.7,58.6
		z"/>
	<path class="st2" d="M79.6,33.4c-0.2,0.4-0.3,0.9-0.2,1.5c0,0.2,0.1,0.4,0.2,0.6c0.1,0.2,0.2,0.3,0.3,0.5c0.1,0.1,0.2,0.3,0.3,0.4
		c0,0,0,0,0,0c0,0-0.1,0.1-0.1,0.1c0,0,0,0,0,0c-0.7,0.1-1.7,1-2.3,1.3c-7.1,4.1-14.3,8.2-21.4,12.2c-2.7,1.6-5.5,3.1-8.2,4.7
		c-0.1,0-0.1,0.1-0.2,0.1c-0.5,0.3-0.9,0.5-1.4,0.8c-0.8,0.5-1.9,0.9-2.6,1.5c-0.1,0-0.1,0.1-0.2,0.1c-0.1,0-0.3,0.1-0.3,0.2l0,0h0
		c-0.5-1.3-1.4-1.8-2.3-1.8c-0.1,0-0.1,0-0.2,0c-0.5-0.1-0.9,0-1.4,0.1c-0.9,0.3-1.7,0.8-2.5,1.3c-0.7,0.4-1.3,0.8-1.9,1.1
		c-0.2,0.1-0.4,0.2-0.6,0.3C30.4,61,26,63.4,21.7,66c-0.1,0-0.1,0.1-0.2,0.1c-0.1,0.1-0.2,0.2-0.3,0.2c-0.7,0.5-1.2,1.1-1.1,2.2
		c0,0,0,0.1,0,0.1c0,0.2,0,0.3,0.1,0.5c0,0.2,0.1,0.3,0.2,0.5c0,0.1,0.1,0.2,0.2,0.3c0.1,0.1,0.2,0.2,0.2,0.3c0,0,0,0,0,0
		c0,0.5,0,0.9,0,1.4c0,1.9,0,3.9,0,5.8c-5.2-3-10.4-6.3-15.7-9.2c0.1-0.1,0.2-0.1,0.3-0.2c3.4-1.7,6.8-3.7,10.2-5.6
		c0.2-0.1,0.5-0.3,0.7-0.4C32.1,53.4,47.9,44.7,63.8,36c6.3-3.5,12.7-7,19-10.4c1.4-0.8,3-1.5,4.3-2.4c0.1,0,0.1-0.1,0.2-0.1
		c0.1-0.1,0.2-0.1,0.3-0.2c0.1,0,0.2-0.1,0.3-0.1c0.8,0,2.1,1,2.8,1.3c0.8,0.4,1.6,0.7,2.3,1.1c-3.2,1.8-6.3,3.6-9.5,5.5
		c-1,0.6-2.3,1.1-3.3,1.9C79.9,32.8,79.7,33.1,79.6,33.4C79.6,33.4,79.6,33.4,79.6,33.4z"/>
	<path class="st4" d="M5.4,68.1c3.4-1.9,6.8-3.7,10.2-5.6C12.2,64.4,8.8,66.4,5.4,68.1z"/>
	<path class="st4" d="M21.2,66.4c-0.7,0.6-1.1,1.4-1.1,2.2C20,67.5,20.5,66.9,21.2,66.4z"/>
	<path class="st4" d="M41,55.6c-1.2,0-2.7,0.7-3.9,1.4c0.8-0.5,1.6-1,2.5-1.3C40.1,55.6,40.5,55.5,41,55.6z"/>
	<path class="st4" d="M43.5,57.5c0-0.1,0.2-0.1,0.3-0.2C43.7,57.3,43.6,57.4,43.5,57.5z"/>
	<path class="st4" d="M44,57.2c0.7-0.6,1.8-1,2.6-1.5C45.7,56.2,44.9,56.7,44,57.2z"/>
	<path class="st4" d="M79.4,35c0-0.1,0-0.3,0-0.4c0,0.3,0.1,0.7,0.2,1C79.5,35.4,79.4,35.2,79.4,35z"/>
	<path class="st4" d="M79.4,34.4c0-0.4,0.1-0.7,0.2-1C79.4,33.7,79.4,34.1,79.4,34.4z"/>
	<path class="st4" d="M79.4,34.4c0,0.1,0,0.1,0,0.2C79.4,34.5,79.4,34.5,79.4,34.4z"/>
	<path class="st4" d="M87,23.1c-1.3,0.9-2.9,1.6-4.3,2.4C84.2,24.7,85.6,23.9,87,23.1z"/>
	<path class="st2" d="M20.9,77.5v2.9h0v0c-0.4-0.2-0.8-0.5-1.2-0.7c-3-1.8-6.1-3.5-9.2-5.3c-1.1-0.7-2.3-1.3-3.4-2v8.5
		C5.2,80.6,5,79,5,77.5c0-2.1,0.1-8.5,0.1-9.3h0C10.4,71.1,15.6,74.4,20.9,77.5L20.9,77.5z"/>
	<path class="st5" d="M87.7,22.7c0,0.1-0.1,0.1-0.2,0.2c-0.1,0-0.2,0.1-0.3,0.2c0,0-0.1,0.1-0.2,0.1c-1.3,0.9-2.9,1.6-4.3,2.4
		c-6.3,3.5-12.6,7-19,10.4c-15.8,8.7-31.7,17.4-47.5,26.2c-0.2,0.1-0.5,0.3-0.7,0.4c-3.4,1.9-6.7,3.9-10.2,5.6
		c-0.1,0-0.2,0.1-0.3,0.2h0c0-2.8,0.1-5.6,0.1-8.4c0,0.2,0,0.4,0.1,0.5c0.1,0.5,0.4,0.9,0.8,1.2c0.1,0.1,0.1,0.1,0.2,0.2
		c0.6,0.5,1.3,0.7,2.1,0.5c0.1,0,0.3-0.1,0.4-0.1c0.1,0,0.2-0.1,0.3-0.1c0.2-0.1,0.3-0.1,0.5-0.2c0.4-0.2,0.7-0.5,1.1-0.7
		c3-1.7,6-3.4,9-5.1c2.3-1.3,4.5-2.6,6.8-3.9c0.1,0,0.1-0.1,0.2-0.1c0.1-0.1,0.2-0.1,0.3-0.2c0.4-0.2,1-0.5,1.4-0.8
		c0.1,0,0.1-0.1,0.2-0.1c0.1,0,0.1-0.1,0.1-0.2c0.1-0.1,0.2-0.3,0.2-0.4c0.3-1.1-0.4-0.9,0.4-1.4c0,0,0,0,0.1,0
		c0.9-0.6,1.9-1.1,2.9-1.7c0.4-0.2,0.7-0.4,1.1-0.6c10.3-5.9,20.6-11.9,30.9-17.8c0.4-0.3,1.1-0.9,1.5-0.9h0c0,0,0.1,0,0.1,0
		c0.2,0.1,0.5,0.3,0.7,0.4l0,0c0.1,0,0.2,0.1,0.2,0.1c0.7,0.2,1.4,0.1,2-0.2c0.4-0.2,0.8-0.4,1.2-0.6c0.4-0.2,0.8-0.4,1.2-0.6
		c0.4-0.2,0.8-0.4,1.2-0.7c2-1.2,3.9-2.4,5.9-3.5c0.5-0.2,0.9-0.5,1.3-0.8c2.2-1.2,4.4-2.5,6.5-3.7c0.5-0.3,1-0.6,1.5-0.9
		c0,0,0.1,0,0.1-0.1v2.4C87.7,20.5,88,22.1,87.7,22.7z"/>
	<path class="st4" d="M88.6,16.2c0,0.8-0.3,0.9-1,1.3c-0.5,0.3-1,0.6-1.5,0.9c-2.2,1.2-4.4,2.5-6.5,3.7c-3.6,2-7.1,4.4-10.8,6.2
		c-1.6,0.7-3.5,0-3.8-1.8c-0.2-1.4,0.6-2.2,1.6-2.8c4.5-2.6,8.9-5.1,13.4-7.7c1.4-0.8,2.7-1.8,4.2-2.4C86.2,12.6,88.4,14,88.6,16.2z
		"/>
	<path class="st3" d="M65.7,27.9c-10.8,6.2-21.6,12.5-32.4,18.7c-1.5,0.9-3,1.8-4.5,2.6c-0.2-0.6-0.5-1.1-0.9-1.5
		c10.7-6.6,21.8-12.6,32.6-18.8c1.5-0.9,3-1.8,4.5-2.6C65,26.9,65.3,27.4,65.7,27.9z"/>
	<path class="st4" d="M28.9,49.9c0.1,1.3-1.5,1.7-2.5,2.2c-2.3,1.3-4.5,2.6-6.8,3.9c-3.5,2-6.9,4.3-10.5,6c-1.7,0.8-3.8-0.2-3.9-2.2
		c0-1.5,1-2.1,2.2-2.8c4.5-2.6,9-5.2,13.5-7.8c1.2-0.7,2.7-1.9,4.1-2.2C26.9,46.6,28.9,48,28.9,49.9z"/>
</g>
</svg>
