<?xml version="1.0" encoding="utf-8"?>
<!-- Generator: Adobe Illustrator 21.1.0, SVG Export Plug-In . SVG Version: 6.00 Build 0)  -->
<svg version="1.1" id="Layer_1" xmlns="http://www.w3.org/2000/svg" xmlns:xlink="http://www.w3.org/1999/xlink" x="0px" y="0px"
	 width="108px" height="108px" viewBox="0 0 108 108" style="enable-background:new 0 0 108 108;" xml:space="preserve">
<style type="text/css">
	.st0{fill:#CCCCCC;}
	.st1{fill:#F2F2F2;}
	.st2{fill:#B3B3B3;stroke:#000000;stroke-width:0.5;stroke-linecap:round;stroke-linejoin:round;stroke-miterlimit:10;}
	.st3{fill:none;stroke:#000000;stroke-width:0.5;stroke-linecap:round;stroke-linejoin:round;stroke-miterlimit:10;}
	.st4{fill:#FFFFFF;stroke:#000000;stroke-width:0.5;stroke-miterlimit:10;}
	.st5{fill:#FFFFFF;stroke:#000000;stroke-width:0.5;stroke-linecap:round;stroke-linejoin:round;stroke-miterlimit:10;}
	.st6{enable-background:new    ;}
	.st7{fill:#FFFFFF;stroke:#000000;stroke-width:0.75;stroke-linecap:round;stroke-linejoin:round;stroke-miterlimit:10;}
</style>
<g>
	<g>
		<path class="st0" d="M67,94.6c0,0.4-0.3,0.8-0.7,1.2c-1.8,1.4-6.6,2.4-12.3,2.4s-10.5-1-12.3-2.4C41.3,95.4,41,95,41,94.6
			c0-2,5.8-3.6,13-3.6S67,92.6,67,94.6z"/>
		<ellipse class="st1" cx="54" cy="93.3" rx="8.7" ry="2.4"/>
		<path class="st2" d="M67,94.6v2.3c0,2-5.8,3.6-13,3.6s-13-1.6-13-3.6v-2.3c0,0.4,0.3,0.8,0.7,1.2c1.8,1.4,6.6,2.4,12.3,2.4
			s10.5-1,12.3-2.4C66.7,95.4,67,95,67,94.6z"/>
		<path class="st3" d="M67,94.6c0,0.4-0.3,0.8-0.7,1.2c-1.8,1.4-6.6,2.4-12.3,2.4s-10.5-1-12.3-2.4C41.3,95.4,41,95,41,94.6
			c0-2,5.8-3.6,13-3.6S67,92.6,67,94.6z"/>
	</g>
	<path class="st4" d="M54,93c-0.3,0-0.5-0.2-0.5-0.5V12.3c0-0.3,0.2-0.5,0.5-0.5s0.5,0.2,0.5,0.5v80.3C54.5,92.8,54.3,93,54,93z"/>
	<path class="st4" d="M83.2,12.8H24.8c-0.3,0-0.5-0.2-0.5-0.5s0.2-0.5,0.5-0.5h58.4c0.3,0,0.5,0.2,0.5,0.5S83.5,12.8,83.2,12.8z"/>
	<g>
		<rect x="29.6" y="14.4" class="st5" width="48.8" height="57.9"/>
		<g class="st6">
			<path d="M46.5,35v-3.3l-3-4.5h1.3l1.6,2.4c0.3,0.4,0.6,0.9,0.8,1.3c0.2-0.4,0.5-0.9,0.9-1.4l1.5-2.3h1.2l-3.1,4.5V35H46.5z"/>
			<path d="M50.1,32.1c0-1.1,0.3-1.8,0.9-2.3c0.5-0.4,1.1-0.6,1.8-0.6c0.8,0,1.4,0.3,1.9,0.8s0.7,1.2,0.7,2.1c0,0.7-0.1,1.3-0.3,1.7
				c-0.2,0.4-0.5,0.7-1,1s-0.9,0.3-1.4,0.3c-0.8,0-1.4-0.3-1.9-0.8S50.1,33.1,50.1,32.1z M51.1,32.1c0,0.7,0.2,1.3,0.5,1.6
				c0.3,0.4,0.7,0.5,1.2,0.5s0.9-0.2,1.2-0.5c0.3-0.4,0.5-0.9,0.5-1.7c0-0.7-0.2-1.2-0.5-1.6c-0.3-0.4-0.7-0.5-1.2-0.5
				s-0.9,0.2-1.2,0.5C51.3,30.8,51.1,31.4,51.1,32.1z"/>
			<path d="M60.3,35v-0.8c-0.4,0.6-1,1-1.8,1c-0.3,0-0.7-0.1-0.9-0.2c-0.2-0.1-0.5-0.3-0.7-0.5c-0.1-0.2-0.2-0.4-0.3-0.7
				c0-0.2-0.1-0.5-0.1-0.9v-3.5h1v3.2c0,0.5,0,0.8,0.1,1c0.1,0.3,0.2,0.5,0.4,0.6c0.2,0.1,0.4,0.2,0.7,0.2s0.6-0.1,0.8-0.2
				c0.3-0.1,0.4-0.4,0.5-0.6c0.1-0.3,0.2-0.6,0.2-1.1v-3.1h1v5.7L60.3,35L60.3,35z"/>
			<path d="M62.7,35v-5.7h0.9v0.9c0.2-0.4,0.4-0.7,0.6-0.8c0.2-0.1,0.4-0.2,0.6-0.2c0.3,0,0.7,0.1,1,0.3l-0.3,0.9
				c-0.2-0.1-0.5-0.2-0.7-0.2s-0.4,0.1-0.6,0.2s-0.3,0.3-0.4,0.5c-0.1,0.3-0.2,0.7-0.2,1.1v3H62.7z"/>
		</g>
		<g class="st6">
			<path d="M43.7,44.7l1-0.1c0,0.4,0.2,0.7,0.3,1c0.2,0.3,0.4,0.5,0.8,0.6c0.4,0.2,0.8,0.2,1.2,0.2s0.7-0.1,1.1-0.2
				c0.4-0.1,0.5-0.3,0.7-0.5c0.1-0.2,0.2-0.4,0.2-0.7c0-0.2-0.1-0.5-0.2-0.6c-0.1-0.2-0.4-0.3-0.7-0.5c-0.2-0.1-0.7-0.2-1.4-0.4
				c-0.7-0.2-1.2-0.3-1.5-0.5c-0.4-0.2-0.7-0.4-0.8-0.7c-0.2-0.3-0.3-0.6-0.3-1s0.1-0.8,0.3-1.1c0.2-0.3,0.6-0.6,1-0.8
				s0.9-0.3,1.4-0.3c0.6,0,1.1,0.1,1.5,0.3s0.8,0.5,1,0.8c0.2,0.4,0.4,0.8,0.4,1.2l-1,0.1c-0.1-0.5-0.2-0.9-0.5-1.1
				c-0.3-0.3-0.8-0.4-1.4-0.4c-0.6,0-1.1,0.1-1.4,0.3c-0.3,0.2-0.4,0.5-0.4,0.8s0.1,0.5,0.3,0.7c0.2,0.2,0.7,0.4,1.6,0.6
				c0.8,0.2,1.4,0.4,1.7,0.5c0.5,0.2,0.8,0.5,1,0.8c0.2,0.3,0.3,0.7,0.3,1.1c0,0.4-0.1,0.8-0.4,1.2c-0.2,0.4-0.6,0.7-1,0.9
				s-1,0.3-1.5,0.3c-0.7,0-1.3-0.1-1.8-0.3s-0.9-0.5-1.1-0.9C43.9,45.7,43.8,45.2,43.7,44.7z"/>
			<path d="M51.3,40.5v-1.1h1v1.1H51.3z M51.3,47.3v-5.8h1v5.7L51.3,47.3L51.3,47.3z"/>
			<path d="M53.6,47.7l0.9,0.1c0,0.3,0.1,0.5,0.3,0.6c0.2,0.2,0.6,0.3,1,0.3s0.8-0.1,1-0.3c0.2-0.2,0.4-0.4,0.5-0.8
				c0-0.2,0.1-0.6,0.1-1.2c-0.4,0.5-0.9,0.7-1.6,0.7c-0.8,0-1.4-0.3-1.8-0.8c-0.4-0.5-0.6-1.2-0.6-2c0-0.5,0.1-1,0.3-1.5
				c0.2-0.5,0.5-0.8,0.9-1.1s0.8-0.4,1.3-0.4c0.7,0,1.2,0.3,1.7,0.8v-0.6h0.9v5c0,0.9-0.1,1.5-0.3,1.9c-0.2,0.4-0.5,0.7-0.9,0.9
				s-0.9,0.3-1.4,0.3c-0.7,0-1.2-0.2-1.6-0.5C53.8,48.8,53.6,48.3,53.6,47.7z M54.4,44.3c0,0.7,0.1,1.3,0.4,1.6s0.7,0.5,1.1,0.5
				s0.8-0.2,1.1-0.5c0.3-0.3,0.5-0.9,0.5-1.6c0-0.7-0.2-1.2-0.5-1.6c-0.3-0.4-0.7-0.5-1.1-0.5c-0.4,0-0.8,0.2-1.1,0.5
				C54.5,43.1,54.4,43.6,54.4,44.3z"/>
			<path d="M59.9,47.3v-5.8h0.9v0.8c0.4-0.6,1-0.9,1.8-0.9c0.3,0,0.7,0.1,0.9,0.2c0.3,0.1,0.5,0.3,0.6,0.5s0.2,0.4,0.3,0.7
				c0,0.2,0.1,0.5,0.1,0.9v3.5h-1v-3.5c0-0.4,0-0.7-0.1-0.9s-0.2-0.4-0.4-0.5c-0.2-0.1-0.4-0.2-0.7-0.2c-0.4,0-0.8,0.1-1.1,0.4
				s-0.4,0.8-0.4,1.5v3.1h-0.9V47.3z"/>
		</g>
		<g class="st6">
			<path d="M43.9,59.5v-7.9h1v3.2H49v-3.2h1v7.9h-1v-3.7h-4.1v3.7H43.9z"/>
			<path d="M55.6,57.7l1,0.1c-0.2,0.6-0.4,1-0.9,1.4s-1,0.5-1.6,0.5c-0.8,0-1.5-0.3-2-0.8s-0.7-1.2-0.7-2.2s0.2-1.7,0.7-2.2
				s1.1-0.8,1.9-0.8s1.4,0.3,1.9,0.8s0.7,1.3,0.7,2.2c0,0.1,0,0.1,0,0.3h-4.3c0,0.6,0.2,1.1,0.5,1.4c0.3,0.3,0.7,0.5,1.2,0.5
				c0.4,0,0.7-0.1,0.9-0.3C55.3,58.4,55.5,58.1,55.6,57.7z M52.4,56.1h3.2c0-0.5-0.2-0.8-0.4-1.1c-0.3-0.3-0.7-0.5-1.1-0.5
				s-0.8,0.1-1.1,0.4C52.6,55.2,52.5,55.6,52.4,56.1z"/>
			<path d="M57.8,59.5v-5.7h0.9v0.9c0.2-0.4,0.4-0.7,0.6-0.8s0.4-0.2,0.6-0.2c0.3,0,0.7,0.1,1,0.3l-0.3,0.9
				c-0.2-0.1-0.5-0.2-0.7-0.2s-0.4,0.1-0.6,0.2s-0.3,0.3-0.4,0.5c-0.1,0.3-0.2,0.7-0.2,1.1v3H57.8z"/>
			<path d="M65.4,57.7l1,0.1c-0.2,0.6-0.4,1-0.9,1.4c-0.4,0.3-1,0.5-1.6,0.5c-0.8,0-1.5-0.3-2-0.8s-0.7-1.2-0.7-2.2s0.2-1.7,0.7-2.2
				s1.1-0.8,1.9-0.8s1.4,0.3,1.9,0.8s0.7,1.3,0.7,2.2c0,0.1,0,0.1,0,0.3h-4.3c0,0.6,0.2,1.1,0.5,1.4c0.3,0.3,0.7,0.5,1.2,0.5
				c0.4,0,0.7-0.1,0.9-0.3C65,58.4,65.2,58.1,65.4,57.7z M62.2,56.1h3.2c0-0.5-0.2-0.8-0.4-1.1c-0.3-0.4-0.7-0.6-1.2-0.6
				c-0.4,0-0.8,0.1-1.1,0.4C62.4,55.2,62.2,55.6,62.2,56.1z"/>
		</g>
	</g>
	<g>
		<polygon class="st7" points="34.3,15.4 31.8,15.4 31.3,9 34.7,9 		"/>
		<polygon class="st7" points="76.3,15.4 73.8,15.4 73.4,9 76.7,9 		"/>
	</g>
</g>
</svg>
