<?xml version="1.0" encoding="utf-8"?>
<!-- Generator: Adobe Illustrator 21.1.0, SVG Export Plug-In . SVG Version: 6.00 Build 0)  -->
<svg version="1.1" id="Layer_1" xmlns="http://www.w3.org/2000/svg" xmlns:xlink="http://www.w3.org/1999/xlink" x="0px" y="0px"
	 width="108px" height="108px" viewBox="0 0 108 108" style="enable-background:new 0 0 108 108;" xml:space="preserve">
<style type="text/css">
	.st0{fill:#999999;stroke:#000000;stroke-width:0.75;stroke-linecap:round;stroke-linejoin:round;}
	.st1{fill:#FFFFFF;stroke:#000000;stroke-width:0.75;stroke-linecap:round;stroke-linejoin:round;}
	.st2{fill:#FFFFFF;}
	.st3{fill:#F2F2F2;}
	.st4{fill:#E6E6E6;}
	.st5{fill:none;stroke:#000000;stroke-width:0.75;stroke-linecap:round;stroke-linejoin:round;}
	.st6{fill:none;stroke:#000000;stroke-width:0.5;stroke-linecap:round;stroke-linejoin:round;}
</style>
<g>
	<g>
		<path class="st0" d="M20.5,71.5l0.7,29.1c0,0,1.5,2.2,3.5-0.2C26.7,98,20.5,71.5,20.5,71.5z"/>
		<polygon class="st1" points="49.1,49.1 18.5,51.6 23.9,101.6 89.5,94.2 84,46.4 56.1,48.6 51.8,18.2 61.9,17.2 60.9,6.4 31.6,8.8 
			33,20.3 44.9,19 		"/>
		<path class="st2" d="M51.8,18.2l10.1-1l-1-10.7L31.6,8.8L33,20.3L44.9,19L47,34.4c2.3-0.3,4.6-0.6,6.9-0.8L51.8,18.2z"/>
		<path class="st3" d="M56.1,48.6l-2.1-15.1c-2.3,0.2-4.6,0.5-6.9,0.8l2,14.7l-30.6,2.5l2.1,19.6c21.8-3.2,43.7-3.6,65.5-6L84,46.4
			L56.1,48.6z"/>
		<path class="st4" d="M89.5,94.2l-3.3-29c-21.8,2.4-43.7,2.8-65.5,6l3.3,30.3L89.5,94.2z"/>
		<polygon class="st5" points="49.1,49.1 18.5,51.6 23.9,101.6 89.5,94.2 84,46.4 56.1,48.6 51.8,18.2 61.9,17.2 60.9,6.4 31.6,8.8 
			33,20.3 44.9,19 		"/>
	</g>
	<g>
		<polyline class="st6" points="20.4,71.4 84.5,65.3 88.3,92.7 		"/>
		<polyline class="st6" points="26.4,54.1 31.6,57.4 75.2,53.6 79.3,49.9 		"/>
	</g>
</g>
</svg>
