<?xml version="1.0" encoding="utf-8"?>
<!-- Generator: Adobe Illustrator 21.1.0, SVG Export Plug-In . SVG Version: 6.00 Build 0)  -->
<svg version="1.1" id="Layer_1" xmlns="http://www.w3.org/2000/svg" xmlns:xlink="http://www.w3.org/1999/xlink" x="0px" y="0px"
	 width="108px" height="108px" viewBox="0 0 108 108" style="enable-background:new 0 0 108 108;" xml:space="preserve">
<style type="text/css">
	.st0{fill:#FFFFFF;stroke:#000000;stroke-width:0.5;stroke-linecap:round;stroke-linejoin:round;stroke-miterlimit:10;}
	.st1{enable-background:new    ;}
	.st2{fill:#FFFFFF;stroke:#000000;stroke-width:0.75;stroke-linecap:round;stroke-linejoin:round;stroke-miterlimit:10;}
	.st3{fill:none;stroke:#000000;stroke-width:0.5;stroke-miterlimit:10;}
</style>
<g>
	<g>
		<rect x="35.5" y="12.9" class="st0" width="48.8" height="57.9"/>
		<g class="st1">
			<path d="M52.3,33.5v-3.3l-3-4.5h1.3l1.6,2.4c0.3,0.4,0.6,0.9,0.8,1.3c0.2-0.4,0.5-0.9,0.9-1.4l1.5-2.3h1.2l-3.1,4.5v3.3H52.3z"/>
			<path d="M56,30.6c0-1.1,0.3-1.8,0.9-2.3c0.5-0.4,1.1-0.6,1.8-0.6c0.8,0,1.4,0.3,1.9,0.8s0.7,1.2,0.7,2.1c0,0.7-0.1,1.3-0.3,1.7
				c-0.2,0.4-0.5,0.7-1,1s-0.9,0.3-1.4,0.3c-0.8,0-1.4-0.3-1.9-0.8S56,31.6,56,30.6z M57,30.6c0,0.7,0.2,1.3,0.5,1.6
				c0.3,0.4,0.7,0.5,1.2,0.5s0.9-0.2,1.2-0.5c0.3-0.4,0.5-0.9,0.5-1.7c0-0.7-0.2-1.2-0.5-1.6s-0.7-0.5-1.2-0.5s-0.9,0.2-1.2,0.5
				C57.2,29.3,57,29.9,57,30.6z"/>
			<path d="M66.2,33.5v-0.8c-0.4,0.6-1,1-1.8,1c-0.3,0-0.7-0.1-0.9-0.2S63,33.2,62.8,33c-0.1-0.2-0.2-0.4-0.3-0.7
				c0-0.2-0.1-0.5-0.1-0.9v-3.5h1v3.2c0,0.5,0,0.8,0.1,1c0.1,0.3,0.2,0.5,0.4,0.6s0.4,0.2,0.7,0.2s0.6-0.1,0.8-0.2
				c0.3-0.1,0.4-0.4,0.5-0.6c0.1-0.3,0.2-0.6,0.2-1.1v-3.1h1v5.7L66.2,33.5L66.2,33.5z"/>
			<path d="M68.6,33.5v-5.7h0.9v0.9c0.2-0.4,0.4-0.7,0.6-0.8c0.2-0.1,0.4-0.2,0.6-0.2c0.3,0,0.7,0.1,1,0.3l-0.3,0.9
				c-0.2-0.1-0.5-0.2-0.7-0.2s-0.4,0.1-0.6,0.2s-0.3,0.3-0.4,0.5c-0.1,0.3-0.2,0.7-0.2,1.1v3H68.6z"/>
		</g>
		<g class="st1">
			<path d="M49.5,43.2l1-0.1c0,0.4,0.2,0.7,0.3,1c0.2,0.3,0.4,0.5,0.8,0.6c0.4,0.2,0.8,0.2,1.2,0.2s0.7-0.1,1.1-0.2s0.5-0.3,0.7-0.5
				c0.1-0.2,0.2-0.4,0.2-0.7c0-0.2-0.1-0.5-0.2-0.6c-0.1-0.2-0.4-0.3-0.7-0.5c-0.2-0.1-0.7-0.2-1.4-0.4s-1.2-0.3-1.5-0.5
				c-0.4-0.2-0.7-0.4-0.8-0.7c-0.2-0.3-0.3-0.6-0.3-1s0.1-0.8,0.3-1.1s0.6-0.6,1-0.8s0.9-0.3,1.4-0.3c0.6,0,1.1,0.1,1.5,0.3
				s0.8,0.5,1,0.8c0.2,0.4,0.4,0.8,0.4,1.2l-1,0.1c-0.1-0.5-0.2-0.9-0.5-1.1c-0.3-0.3-0.8-0.4-1.4-0.4c-0.6,0-1.1,0.1-1.4,0.3
				c-0.3,0.2-0.4,0.5-0.4,0.8s0.1,0.5,0.3,0.7s0.7,0.4,1.6,0.6c0.8,0.2,1.4,0.4,1.7,0.5c0.5,0.2,0.8,0.5,1,0.8s0.3,0.7,0.3,1.1
				c0,0.4-0.1,0.8-0.4,1.2c-0.2,0.4-0.6,0.7-1,0.9s-1,0.3-1.5,0.3c-0.7,0-1.3-0.1-1.8-0.3s-0.9-0.5-1.1-0.9
				C49.8,44.2,49.7,43.7,49.5,43.2z"/>
			<path d="M57.2,39v-1.1h1V39H57.2z M57.2,45.8V40h1v5.7L57.2,45.8L57.2,45.8z"/>
			<path d="M59.5,46.2l0.9,0.1c0,0.3,0.1,0.5,0.3,0.6c0.2,0.2,0.6,0.3,1,0.3s0.8-0.1,1-0.3s0.4-0.4,0.5-0.8c0-0.2,0.1-0.6,0.1-1.2
				c-0.4,0.5-0.9,0.7-1.6,0.7c-0.8,0-1.4-0.3-1.8-0.8s-0.6-1.2-0.6-2c0-0.5,0.1-1,0.3-1.5s0.5-0.8,0.9-1.1s0.8-0.4,1.3-0.4
				c0.7,0,1.2,0.3,1.7,0.8V40h0.9v5c0,0.9-0.1,1.5-0.3,1.9c-0.2,0.4-0.5,0.7-0.9,0.9s-0.9,0.3-1.4,0.3c-0.7,0-1.2-0.2-1.6-0.5
				C59.7,47.3,59.5,46.8,59.5,46.2z M60.3,42.8c0,0.7,0.1,1.3,0.4,1.6s0.7,0.5,1.1,0.5c0.4,0,0.8-0.2,1.1-0.5s0.5-0.9,0.5-1.6
				c0-0.7-0.2-1.2-0.5-1.6s-0.7-0.5-1.1-0.5c-0.4,0-0.8,0.2-1.1,0.5C60.3,41.6,60.3,42.1,60.3,42.8z"/>
			<path d="M65.8,45.8V40h0.9v0.8c0.4-0.6,1-0.9,1.8-0.9c0.3,0,0.7,0.1,0.9,0.2c0.3,0.1,0.5,0.3,0.6,0.5s0.2,0.4,0.3,0.7
				c0,0.2,0.1,0.5,0.1,0.9v3.5h-1v-3.5c0-0.4,0-0.7-0.1-0.9s-0.2-0.4-0.4-0.5c-0.2-0.1-0.4-0.2-0.7-0.2c-0.4,0-0.8,0.1-1.1,0.4
				s-0.4,0.8-0.4,1.5v3.1h-0.9V45.8z"/>
		</g>
		<g class="st1">
			<path d="M49.8,58v-7.9h1v3.2h4.1v-3.2h1V58h-1v-3.7h-4.1V58H49.8z"/>
			<path d="M61.5,56.2l1,0.1c-0.2,0.6-0.4,1-0.9,1.4s-1,0.5-1.6,0.5c-0.8,0-1.5-0.3-2-0.8s-0.7-1.2-0.7-2.2s0.2-1.7,0.7-2.2
				s1.1-0.8,1.9-0.8c0.8,0,1.4,0.3,1.9,0.8s0.7,1.3,0.7,2.2c0,0.1,0,0.1,0,0.3h-4.3c0,0.6,0.2,1.1,0.5,1.4c0.3,0.3,0.7,0.5,1.2,0.5
				c0.4,0,0.7-0.1,0.9-0.3C61.2,56.9,61.3,56.6,61.5,56.2z M58.3,54.6h3.2c0-0.5-0.2-0.8-0.4-1.1C60.8,53.2,60.3,53,60,53
				c-0.4,0-0.8,0.1-1.1,0.4C58.5,53.7,58.3,54.1,58.3,54.6z"/>
			<path d="M63.7,58v-5.7h0.9v0.9c0.2-0.4,0.4-0.7,0.6-0.8s0.4-0.2,0.6-0.2c0.3,0,0.7,0.1,1,0.3l-0.3,0.9c-0.2-0.1-0.5-0.2-0.7-0.2
				s-0.4,0.1-0.6,0.2s-0.3,0.3-0.4,0.5c-0.1,0.3-0.2,0.7-0.2,1.1v3H63.7z"/>
			<path d="M71.3,56.2l1,0.1c-0.2,0.6-0.4,1-0.9,1.4c-0.4,0.3-1,0.5-1.6,0.5c-0.8,0-1.5-0.3-2-0.8s-0.7-1.2-0.7-2.2s0.2-1.7,0.7-2.2
				s1.1-0.8,1.9-0.8s1.4,0.3,1.9,0.8s0.7,1.3,0.7,2.2c0,0.1,0,0.1,0,0.3h-4.3c0,0.6,0.2,1.1,0.5,1.4c0.3,0.3,0.7,0.5,1.2,0.5
				c0.4,0,0.7-0.1,0.9-0.3C70.8,56.9,71.1,56.6,71.3,56.2z M68.1,54.6h3.2c0-0.5-0.2-0.8-0.4-1.1c-0.3-0.4-0.7-0.6-1.2-0.6
				c-0.4,0-0.8,0.1-1.1,0.4C68.3,53.7,68.1,54.1,68.1,54.6z"/>
		</g>
	</g>
	<g>
		<rect x="25.1" y="92" class="st2" width="6.4" height="8.5"/>
		<path class="st3" d="M28.3,91.6c-0.3,0-0.5-0.2-0.5-0.5V10.8c0-0.3,0.2-0.5,0.5-0.5h58.4c0.3,0,0.5,0.2,0.5,0.5s-0.2,0.5-0.5,0.5
			H28.8v79.8C28.8,91.4,28.6,91.6,28.3,91.6z"/>
		<path class="st2" d="M30.5,87.5c0,0.8-0.5,1.5-1.1,1.9v1.9c0,0.4-0.3,0.7-0.7,0.7H28c-0.4,0-0.7-0.3-0.7-0.7v-1.9
			c-0.7-0.4-1.1-1.1-1.1-1.9s0.4-1.5,1.1-1.9v-3.7c0-0.4,0.3-0.7,0.7-0.7h0.7c0.4,0,0.7,0.3,0.7,0.7v3.7
			C30.1,85.9,30.5,86.6,30.5,87.5z"/>
		<polygon class="st2" points="40,13.9 37.5,13.9 37.1,7.5 40.4,7.5 		"/>
		<polygon class="st2" points="82,13.9 79.5,13.9 79.2,7.5 82.4,7.5 		"/>
	</g>
</g>
</svg>
