<?xml version="1.0" encoding="utf-8"?>
<!-- Generator: Adobe Illustrator 21.1.0, SVG Export Plug-In . SVG Version: 6.00 Build 0)  -->
<svg version="1.1" id="Layer_1" xmlns="http://www.w3.org/2000/svg" xmlns:xlink="http://www.w3.org/1999/xlink" x="0px" y="0px"
	 width="108px" height="108px" viewBox="0 0 108 108" style="enable-background:new 0 0 108 108;" xml:space="preserve">
<style type="text/css">
	.st0{fill:#FFFFFF;stroke:#000000;stroke-width:0.5;stroke-linecap:round;stroke-linejoin:round;stroke-miterlimit:10;}
	.st1{fill:#FFFFFF;}
	.st2{fill:#F2F2F2;}
	.st3{fill:#E6E6E6;}
	.st4{fill:none;stroke:#000000;stroke-width:0.5;stroke-linecap:round;stroke-linejoin:round;stroke-miterlimit:10;}
	.st5{fill:#CCCCCC;}
	.st6{fill:#F2F2F2;stroke:#000000;stroke-width:0.5;stroke-linecap:round;stroke-linejoin:round;stroke-miterlimit:10;}
	.st7{fill:#CCCCCC;stroke:#000000;stroke-width:0.5;stroke-linecap:round;stroke-linejoin:round;stroke-miterlimit:10;}
	.st8{fill:none;stroke:#000000;stroke-width:0.25;stroke-linecap:round;stroke-linejoin:round;stroke-miterlimit:10;}
	.st9{fill:#B3B3B3;stroke:#000000;stroke-width:0.5;stroke-linecap:round;stroke-linejoin:round;stroke-miterlimit:10;}
	.st10{fill:#E6E6E6;stroke:#000000;stroke-width:0.5;stroke-linecap:round;stroke-linejoin:round;stroke-miterlimit:10;}
	.st11{fill:#999999;stroke:#000000;stroke-width:0.5;stroke-linecap:round;stroke-linejoin:round;stroke-miterlimit:10;}
	.st12{fill:#808080;stroke:#000000;stroke-width:0.5;stroke-linecap:round;stroke-linejoin:round;stroke-miterlimit:10;}
</style>
<g>
	<path class="st0" d="M55,68L55,68L55,68c-0.2-0.2-0.3-0.3-0.5-0.5c-0.3-0.3-0.5-0.7-0.5-1.1c0-0.4,1.1-1.7,1.1-2.7
		c0-0.9,0-32.5,0-32.5c0-1.3-1-1.7-1-2.9c0-0.2,0.3-0.7,0.4-0.8c0.2-0.3,0.4-0.6,0.4-0.9c0-0.8-0.8-1.5-1.8-1.5
		c-1,0-1.8,0.7-1.8,1.5c0,0.3,0.1,0.6,0.4,0.9c0.2,0.2,0.3,0.6,0.3,0.8c0,1-1.1,1.9-1.1,3c0,0,0,31.5,0,32.5c0,1,1.1,2.4,1.1,2.7
		c0,0.4-0.3,0.8-0.6,1c-0.5,0.3-0.9,0.8-1.1,1.4c0.1,0.5,0.6,0.7,1.2,0.9c0.6,0.2,0.9,0.6,1,1.3c0,0.2,0.4,0.5,0.8,0.5
		c0.4,0,0.8-0.2,0.9-0.6c0.2-0.9,1.1-0.9,1.4-1.3c0,0,0.1-0.1,0.1-0.1C55.6,69,55.4,68.4,55,68z"/>
	<g>
		<g>
			<path class="st1" d="M49.6,25.6l0.1-7.2l2.4,0c0.2,3,0.3,6,0.3,9.1C50.4,27.2,49.6,25.9,49.6,25.6z"/>
			<path class="st2" d="M52.4,27.5c0-3-0.1-6.1-0.3-9.1l2.2,0c0,3,0.1,6,0.5,9c-0.4,0.1-0.8,0.2-1.4,0.2
				C53,27.6,52.7,27.6,52.4,27.5z"/>
			<path class="st3" d="M56.7,18.5l0,7.5c0,0-0.4,1-1.9,1.4c-0.3-3-0.5-6-0.5-9L56.7,18.5z"/>
			<path class="st4" d="M49.6,25.6l0.1-7.2l7,0.1l0,7.5c0,0-0.6,1.6-3.3,1.5C50.7,27.6,49.6,25.9,49.6,25.6z"/>
			<path class="st2" d="M52.3,21.3c-0.1-1.5-0.2-3-0.3-4.5c0.4,0,0.8-0.1,1.3,0c0.4,0,0.8,0.1,1.2,0.2c-0.1,1.5-0.1,3.1,0,4.7
				c-0.2,0.2-0.5,0.3-0.9,0.3C52.9,21.9,52.5,21.6,52.3,21.3z"/>
			<path class="st1" d="M51.4,20.2c-0.8-0.4-1.8-1-1.6-2c0.2-0.7,0.9-1.3,2.2-1.4c0.1,1.5,0.2,3,0.3,4.5
				C51.9,20.9,51.8,20.4,51.4,20.2z"/>
			<path class="st3" d="M54.4,16.9c1.4,0.3,2.3,1,2.3,1.8c0,1-1.2,1.2-1.4,1.7c-0.2,0.3-0.4,0.9-0.9,1.2
				C54.3,20,54.3,18.5,54.4,16.9z"/>
			<path class="st4" d="M49.6,22.3c0,0,0.8,1.7,3.8,1.8c2.6,0,3.3-1.2,3.3-1.2"/>
			<path class="st4" d="M53.5,21.9c1.1-0.1,1.5-1,1.8-1.5c0.3-0.5,1.4-0.6,1.4-1.7c0-1-1.4-1.8-3.5-1.9c-2.1-0.1-3.2,0.5-3.4,1.5
				c-0.2,0.9,0.8,1.6,1.6,2C52.1,20.6,52,21.9,53.5,21.9z"/>
			<path class="st2" d="M53.3,21.1c-0.3-0.1-0.5-0.3-0.5-0.5c-0.1-0.6-0.3-1-0.9-1.2c-0.5-0.2-1-0.4-1.1-0.8c0.2-0.5,0.5-1,1-1.3
				C52.5,18.4,53.1,19.6,53.3,21.1z"/>
			<path class="st5" d="M54.4,16.9c0.1,0.1,0.2,0.3,0.3,0.4c0.2,0.1,0.3,0.3,0.5,0.4l0,0l0,0c0.4,0.4,0.6,0.9,0.6,1.5
				c0,0,0,0.1-0.1,0.1c-0.3,0.4-1.1,0.4-1.3,1.3c0,0,0,0.1,0,0.1C54.3,19.4,54.3,18.2,54.4,16.9z"/>
			<path class="st3" d="M52.3,16.3c0,0.3-0.3,0.7-0.6,1c0,0,0,0,0,0c0.9,1.1,1.4,2.4,1.6,3.8c0.1,0,0.1,0,0.2,0.1
				c0.3,0,0.7-0.2,0.9-0.5c0-1.3,0-2.5,0-3.8c-0.1-0.2-0.2-0.4-0.2-0.7c0-0.1,0.2-1.5,0.2-1.6c-0.6,0-1.7-0.6-2.4-0.6
				C52,14.1,52.3,16.1,52.3,16.3z"/>
			<path class="st4" d="M55.2,17.7L55.2,17.7c-0.2-0.2-0.3-0.3-0.5-0.5c-0.2-0.3-0.5-0.7-0.5-1.1c0-0.1,0.2-1.5,0.2-1.6
				c-0.6,0-1.7-0.6-2.4-0.6c0.1,0.1,0.3,2.1,0.3,2.2c0,0.3-0.3,0.7-0.6,1c-0.5,0.3-0.8,0.8-1,1.3c0.1,0.5,0.6,0.7,1.1,0.8
				c0.6,0.2,0.8,0.6,0.9,1.2c0,0.2,0.4,0.5,0.8,0.5c0.4,0,0.8-0.2,0.9-0.6c0.2-0.8,1.1-0.9,1.3-1.3c0,0,0.1-0.1,0.1-0.1
				C55.7,18.6,55.5,18.1,55.2,17.7L55.2,17.7z"/>
		</g>
		<path class="st0" d="M60.9,14.1"/>
		<path class="st6" d="M65.3,11c0,0-4.1-6.1-11.3-7.8c-1.5-0.4-3.1-0.3-4.6-0.2c1.8-0.3,3.9-0.5,5.7,0c7.2,1.8,11.3,7.6,11.3,7.6
			s0,0,0,0.1L65.3,11C65.3,11.1,65.3,11,65.3,11z"/>
		<path class="st0" d="M49.4,3c1.5-0.2,3.2-0.2,4.6,0.2C61.3,5,65.3,11,65.3,11s0,0,0,0c0,0.5,0,5,0,5.4c0,0.5-0.1,1.2-0.7,1
			c-0.1,0-0.3-0.1-0.8-0.3c-2.1-0.8-8.1-3.1-13.1-5c-4.1-1.6-7.5-2.9-7.5-2.9V4.6C43.3,4.6,46.1,3.4,49.4,3z"/>
		<path class="st6" d="M41.7,5.2L41.7,5.2L64.5,12l-0.1,6.6c-1.5-0.5-20.6-6-21.8-6.4c-1.1-0.4-1.1-1.1-1.1-1.5
			C41.5,10.2,41.7,5.2,41.7,5.2z"/>
		<polygon class="st0" points="42.8,4.8 64.5,11.3 64.5,12 41.7,5.2 		"/>
		<path class="st7" d="M64.5,11.3c0,0,0,4.8,0,5.2c0,0.3,0,0.8,0.1,1c0,0,0.1,0,0.1,0c0.5,0.2,0.7-0.5,0.7-1c0-0.5,0-5,0-5.4
			l1.1-0.4c0,0.6,0,4.9,0,5.4c0,0.5,0,2.1-1.4,2.4c-1.4,0.4-1.6-0.9-1.6-1.9c0-1.1,0-4.9,0-4.9L64.5,11.3z"/>
	</g>
	<path class="st8" d="M62.2,16.8c0,0-18.3-5.4-18.9-5.6c-0.6-0.2-0.6-0.5-0.6-0.5"/>
	<path class="st8" d="M52.4,27.5c0.1,0.2,0.4,0.3,0.7,0.3c0.3,0,0.6-0.1,0.7-0.3"/>
	<g>
		<path class="st6" d="M54.7,89.4l0.8-9.5L49,78.5l-0.1,2L48,83.7l0.3,7c2.4,0.3,4.7,0.3,7.3,0.3L54.7,89.4z"/>
		<path class="st9" d="M53.6,103.5c0,0.2,0,0.4,0,0.4l0,0.3l0,0V104l-0.8,0.3v0L53,104c0,0,0.5-1.6-0.5-1.4
			c-1.1,0.2-1.8-0.6-1.8-2.6c0-1.3,1.1-4.7,1.8-6.8c0.2,0,0.4,0.1,0.6,0.1l0,0c-0.6,1.8-1.1,3.1-1.6,5.2c-0.8,3.5,0.6,3.3,1.5,3.5
			c0.2,0,0.3,0.1,0.4,0.2v0l0,1.5C53.5,103.9,53.5,103.7,53.6,103.5z"/>
		<path class="st9" d="M57,94l-0.3,2.6l-0.3,3l-0.1,0.8l-1.1,0.8l-0.9,0.6l-0.4,1.8v0l-0.1,0.5l-0.1,0l-0.4,0l0-0.3c0,0,0-0.2,0-0.4
			c0,0.2-0.1,0.4-0.1,0.4l0-1.5c0.1,0.1,0.2,0.3,0.2,0.5c0-0.2,0-0.4,0-0.6c0-1.7,1.3-1.9,1.6-3.3c0.2-1.2,0.7-3.7,0-4.5
			c-0.7-0.8-1.5-0.9-1.9-1c0,0-0.1,0-0.2,0c-0.2,0-0.4-0.1-0.6-0.1c-0.7,2.1-1.8,5.4-1.8,6.8c0,2,0.7,2.8,1.8,2.6
			c1.1-0.2,0.5,1.4,0.5,1.4l-0.3,0.2v0l0.8-0.3v0.3l-0.8,0.1l-0.2,0l0,0l-1.5-0.9l-0.1-0.1h0l-0.5-0.3l-1.6-1v0l-0.1-2.8l-0.1-3.4
			l-0.2-5.1c0.8,0.1,1.6,0.2,2.3,0.2c0.2,0,0.3,0,0.5,0c0.2,0,0.3,0,0.5,0c0.6,0,1.1,0,1.7,0h0c0.5,0,1,0,1.6,0h0.6L57,94z"/>
		<polygon class="st9" points="52.7,102.9 52.6,104.2 52.6,104.2 52.6,104.3 52.6,105 52.1,104.9 52.1,104.9 43.7,102.9 43.7,102.5 
			43.6,101.6 43.6,100.9 48.6,102 49.4,102.2 49.7,102.3 		"/>
		<path class="st2" d="M50,84.7l-5.8-1.4c0,0,0.9,3.2,1.2,4.1c0.2,0.7,0.3,1.5,0.2,2.3c1.8,0.4,3.7,0.9,5.5,1.4
			C51,88.6,50,84.7,50,84.7z"/>
		<path class="st1" d="M49,98.9c0.5-3.8,2.1-4.7,2.1-7.2c0-0.2,0-0.4,0-0.6c-1.8-0.5-3.7-1-5.5-1.4c-0.1,0.3-0.2,0.6-0.3,0.9
			c-0.5,1.1-2.2,4.3-3.1,5.9c-0.2,0.3-0.3,0.6-0.4,1c2.4,0.6,4.7,1.3,7.1,1.9C49,99.2,49,99.1,49,98.9z"/>
		<path class="st3" d="M48.9,99.4c-2.4-0.7-4.7-1.3-7.1-1.9c-0.5,1.6-0.3,3.6,1,4c1.6,0.5,8.4,2.1,8.4,2.1S48.8,102.7,48.9,99.4z"/>
		<path class="st4" d="M44.2,83.3c0,0,0.9,3.2,1.2,4.1c0.3,0.9,0.4,2.1-0.1,3.2c-0.5,1.1-2.2,4.3-3.1,5.9c-0.9,1.7-0.9,4.4,0.7,4.9
			c1.6,0.5,8.4,2.1,8.4,2.1s-2.8-0.8-2.3-4.6c0.5-3.8,2.1-4.7,2.1-7.2c0.1-2.5-1.1-7-1.1-7L44.2,83.3z"/>
		<polygon class="st10" points="43.1,102.6 43.5,102.5 52.1,104.4 52.1,105 51.6,105.1 43.2,103.4 		"/>
		<path class="st7" d="M56.8,99.2c-0.1,0.1-0.2,0.3-0.3,0.4c-0.4,0.5-0.8,1.1-1.2,1.6c-0.3,0.4-0.5,0.7-0.5,0.7l-0.3,1.6v0l-0.2,1
			l-0.4-0.3l-0.4-0.3c0,0,0-0.2,0-0.4c0,0,0,0,0,0c0-0.2,0-0.3,0-0.6v-0.1c0-0.2,0-0.4,0-0.6c0-1.7,1.3-1.9,1.6-3.3
			c0.2-1.2,0.7-3.7,0-4.5c-0.7-0.8-1.5-0.9-1.9-1c0,0-0.1,0-0.2,0c-0.2,0-0.4-0.1-0.6-0.1c-0.5-0.1-1-0.2-1-0.2l0.1-0.6l0,0
			c0,0,0.5,0.1,1.1,0.2c0.7,0.2,1.7,0.4,2.3,0.7h0c0.3,0.1,0.6,0.3,0.7,0.4c0.3,0.3,0.7,1.5,1,2.7C57,97.7,57.1,98.8,56.8,99.2z"/>
		<path class="st10" d="M53.5,104v0.9c0,0-0.7,0.7-1.3,0.3v-0.3l0-0.5l0.3-0.1l0,0l0.1,0l0.1,0L53.5,104z"/>
		<path class="st10" d="M54.5,104.8c-0.7,0.4-1,0.2-1,0.2v-0.1l0-0.7l0-0.3l0.5-0.2l0,0l0.4-0.2l0,0l0.2-0.1l0.1,0
			C54.8,103.3,55.1,104.4,54.5,104.8z"/>
		<path class="st7" d="M49.9,91.1c-0.1,0.4-0.3,0.8-0.5,1.2L47.8,92c0,0-1-0.7-0.7-2.7c0.1-0.5,0.2-1,0.3-1.3v0l2.3,0.5
			C49.8,88.5,50.1,90.3,49.9,91.1z"/>
		<path class="st11" d="M47.8,92l-0.3,0.9l-2.1-0.4c0,0,1.3-1.9,1.3-2.7c0-0.6-0.1-2-0.1-2l0.9,0.2v0c-0.1,0.3-0.2,0.7-0.3,1.3
			C46.8,91.3,47.8,92,47.8,92z"/>
		<path class="st12" d="M49.4,92.4c-0.2,0.5-0.4,0.8-0.4,0.8l-1.4-0.3l-0.1,0l0.3-0.9L49.4,92.4z"/>
		<polygon class="st0" points="47.6,92.9 47.5,93 47.5,92.9 		"/>
		<path class="st0" d="M48,87.1"/>
		<polyline class="st0" points="48.8,83.8 49.8,80.6 49.8,78.5 		"/>
		<path class="st0" d="M53.5,87.7c0,0-0.7-0.1-1.1,0.1"/>
		<path class="st0" d="M53.3,87.3c-0.2-0.2-0.7-0.6-1.4-0.5"/>
		<path class="st9" d="M55.1,99c-0.2,1.4-1.6,1.6-1.6,3.3c0,0.2,0,0.4,0,0.6c0-0.2-0.1-0.3-0.2-0.5v0c-0.1-0.1-0.2-0.2-0.4-0.2
			c-0.9-0.2-2.3,0-1.5-3.5c0.5-2.1,1-3.4,1.6-5.2l0,0c0.1,0,0.1,0,0.2,0c0.4,0.1,1.2,0.2,1.9,1C55.9,95.3,55.3,97.8,55.1,99z"/>
		<path class="st0" d="M53.6,102.9L53.6,102.9c0,0.3,0,0.5,0,0.6c0,0,0,0,0,0c0,0.2-0.1,0.4-0.1,0.4l0-1.5
			C53.5,102.5,53.6,102.7,53.6,102.9z"/>
		<path class="st10" d="M57.5,92.5c-0.5-0.9-1.7-2.1-1.8-8.1c0-1.6,0.1-3,0.2-3.6c0.2-0.8,0.2-1.2,0.2-1.2L53.5,79
			c-0.1-0.3-0.2-0.7,0-0.9c0,0,0,0,0,0c0.4-0.2,0.7-0.6,0.7-1c0-0.6-0.6-1.1-1.3-1.1c-0.7,0-1.3,0.5-1.3,1.1c0,0.3,0.1,0.5,0.3,0.7
			c0.1,0.2,0,0.6-0.2,0.8l-2.2-0.6l-0.7,0.6l6.3,1.7c0,0-0.7,0.9-0.8,2.3c-0.1,1.4-1.3,6.6-1.2,7.3c0.1,0.7,0,1.5,0.7,2.3
			c0.7,0.7,2.4,2.2,2.3,3.6c-0.1,1-0.2,4.1-0.9,4.8c-0.7,0.7-1,1.4-1.1,2.2c-0.1,0.7-0.1,1-0.1,1l0.7-0.3c0,0,0.1-1.4,0.7-1.5
			c0.5-0.1,2.6-1.1,2.6-3.9S58,93.3,57.5,92.5z"/>
		<path class="st10" d="M53.3,90.7c0,0.1,0,0.2,0,0.3c0,0.3,0,0.5-0.1,0.6c0,0.1-0.2,0.5-0.4,1.1c-0.1,0.2-0.1,0.4-0.2,0.6
			c-0.7,2.1-1.8,5.4-1.8,6.8c0,2,0.7,2.8,1.8,2.6c1.1-0.2,0.5,1.4,0.5,1.4l-0.3,0.2l-0.1,0l-0.1,0.1c0,0,0,0,0,0
			c0-0.1,0.2-0.7-0.7-0.7c-0.3,0-0.5-0.1-0.8-0.2c-0.1,0-0.1,0-0.2-0.1c-0.2-0.1-0.3-0.2-0.5-0.3c-0.3-0.2-0.6-0.5-0.8-0.8
			c-0.2-0.3-0.4-0.5-0.5-0.8c-0.5-1.3-0.7-3.3,0.5-6c0.7-1.4,1-3,1.1-4.5c0.1-1.4,0-2.7,0-3.4c-0.1-0.6-0.2-1.2-0.3-1.7
			c0-0.1,0-0.1,0-0.2c0-0.2-0.1-0.3-0.1-0.5c0,0,0,0,0,0C50,84.8,50,84.7,50,84.7l-5.8-1.4l0.9-0.7l5.6,1.4c0,0,2.3,5.4,2.5,5.7
			c0,0.1,0.1,0.2,0.1,0.3c0,0,0,0.1,0,0.2C53.2,90.4,53.2,90.5,53.3,90.7C53.3,90.7,53.3,90.7,53.3,90.7z"/>
		<g>
			<line class="st8" x1="50.8" y1="80.1" x2="53.7" y2="80.8"/>
			<line class="st8" x1="53.5" y1="82.2" x2="50.6" y2="81.5"/>
			<polyline class="st8" points="51.1,83 53.2,83.5 52.8,85.6 			"/>
			<line class="st8" x1="49.3" y1="85.7" x2="45.7" y2="84.9"/>
			<line class="st8" x1="49.2" y1="87" x2="46.3" y2="86.4"/>
			<path class="st8" d="M47.8,100.8c0,0-0.5-1.8,0.1-3.6c0.6-1.8,1.1-2.8,1.1-2.8"/>
			<path class="st8" d="M42.6,99.7c0,0-0.3-1.5,0.6-2.9c0.9-1.4,1.8-3.2,1.8-3.2"/>
			<path class="st8" d="M55.4,91.6L54.9,91c0,0,0.5-0.7,0.3-1.8c-0.2-1.1-0.9-1.3-0.9-1.3"/>
			<path class="st8" d="M51.6,92.7l0.3-1c0,0-0.7-0.7-0.7-2c0-1.3,0.3-1.3,0.3-1.3"/>
			<path class="st8" d="M52.3,77.6c0.1,0.1,0.3,0.2,0.6,0.2c0.2,0,0.5-0.1,0.6-0.2"/>
		</g>
	</g>
	<path class="st8" d="M53.7,29.2c-0.1-0.2-0.4-0.3-0.7-0.4c-0.3,0-0.6,0.1-0.8,0.2"/>
	<path class="st8" d="M54,17.1c-0.1-0.2-0.4-0.3-0.7-0.4c-0.3,0-0.6,0.1-0.8,0.2"/>
	<path class="st8" d="M49.7,22.3c0,0,0.8,1.7,3.8,1.7c2.6,0,3.3-1.2,3.3-1.2"/>
	<g>
		<path class="st1" d="M49.2,76l0.2-7.5l2.5,0c0.2,3.1,0.3,6.3,0.3,9.5C50.1,77.7,49.2,76.3,49.2,76z"/>
		<path class="st2" d="M52.2,78c0-3.2-0.1-6.4-0.3-9.5l2.3,0c0,3.1,0.1,6.3,0.5,9.4c-0.4,0.1-0.9,0.2-1.5,0.2
			C52.8,78.1,52.5,78.1,52.2,78z"/>
		<path class="st3" d="M56.7,68.6l0,7.9c0,0-0.4,1.1-2,1.5c-0.3-3.1-0.5-6.3-0.5-9.4L56.7,68.6z"/>
		<path class="st4" d="M49.2,76l0.2-7.5l7.3,0.1l0,7.9c0,0-0.6,1.7-3.4,1.6C50.4,78.1,49.2,76.4,49.2,76z"/>
		<path class="st2" d="M52,71.6c-0.1-1.6-0.2-3.2-0.3-4.7c0.4,0,0.8-0.1,1.3,0c0.4,0,0.8,0.1,1.2,0.2c-0.1,1.6-0.1,3.2,0,4.9
			c-0.2,0.2-0.5,0.3-0.9,0.3C52.6,72.2,52.3,71.9,52,71.6z"/>
		<path class="st1" d="M51.1,70.4c-0.8-0.4-1.9-1.1-1.7-2c0.2-0.8,1-1.3,2.3-1.5c0.2,1.6,0.3,3.2,0.3,4.7
			C51.7,71.1,51.5,70.6,51.1,70.4z"/>
		<path class="st3" d="M54.2,66.9c1.5,0.3,2.4,1,2.4,1.9c0,1.1-1.2,1.2-1.5,1.7c-0.2,0.3-0.4,0.9-0.9,1.3
			C54.1,70.2,54.1,68.6,54.2,66.9z"/>
		<path class="st4" d="M49.2,72.6c0,0,0.9,1.8,4,1.9c2.7,0,3.5-1.2,3.5-1.2"/>
		<path class="st4" d="M53.3,72.1c1.2-0.1,1.6-1.1,1.8-1.6c0.3-0.5,1.4-0.7,1.5-1.7c0-1.1-1.5-1.9-3.6-2c-2.2-0.1-3.4,0.6-3.6,1.6
			c-0.2,1,0.9,1.7,1.7,2C51.9,70.7,51.7,72.2,53.3,72.1z"/>
		<path class="st2" d="M53,71.3c-0.3-0.1-0.5-0.3-0.6-0.5c-0.1-0.6-0.4-1.1-1-1.3c-0.5-0.2-1.1-0.4-1.2-0.9c0.2-0.5,0.6-1,1-1.3
			C52.3,68.5,52.9,69.8,53,71.3z"/>
		<path class="st5" d="M54.2,66.9c0.1,0.1,0.2,0.3,0.3,0.4c0.2,0.1,0.4,0.3,0.5,0.5l0,0l0,0c0.4,0.4,0.6,1,0.7,1.5
			c0,0,0,0.1-0.1,0.1c-0.3,0.4-1.2,0.5-1.4,1.3c0,0,0,0.1,0,0.1C54.1,69.6,54.2,68.2,54.2,66.9z"/>
		<path class="st3" d="M52,66.3c0,0.4-0.3,0.8-0.6,1c0,0,0,0,0,0c0.9,1.1,1.5,2.5,1.7,4c0.1,0,0.2,0.1,0.2,0.1
			c0.3,0,0.7-0.2,0.9-0.5c0-1.3,0-2.7,0-4c-0.1-0.2-0.2-0.5-0.2-0.7C54,66.1,52,66.1,52,66.3z"/>
		<path class="st4" d="M54,66.2"/>
		<path class="st4" d="M52,66.3c0,0.4-0.3,0.8-0.6,1c-0.5,0.3-0.9,0.8-1.1,1.4c0.1,0.5,0.6,0.7,1.2,0.9c0.6,0.2,0.9,0.6,1,1.3
			c0,0.2,0.4,0.5,0.8,0.6c0.4,0,0.8-0.2,0.9-0.6c0.2-0.9,1.1-0.9,1.4-1.3c0,0,0.1-0.1,0.1-0.1c-0.1-0.6-0.3-1.1-0.7-1.5l0,0l0,0
			c-0.2-0.2-0.3-0.3-0.5-0.5C54.3,67,54,66.6,54,66.2"/>
		<path class="st4" d="M52,66.3"/>
	</g>
</g>
</svg>
