<?xml version="1.0" encoding="utf-8"?>
<!-- Generator: Adobe Illustrator 21.1.0, SVG Export Plug-In . SVG Version: 6.00 Build 0)  -->
<svg version="1.1" id="Layer_1" xmlns="http://www.w3.org/2000/svg" xmlns:xlink="http://www.w3.org/1999/xlink" x="0px" y="0px"
	 width="108px" height="108px" viewBox="0 0 108 108" style="enable-background:new 0 0 108 108;" xml:space="preserve">
<style type="text/css">
	.st0{fill:#F2F2F2;stroke:#231F20;stroke-width:0.75;}
	.st1{fill:#FFFFFF;stroke:#231F20;stroke-width:0.75;}
	.st2{fill:#B3B3B3;stroke:#231F20;stroke-width:0.75;stroke-linejoin:round;}
	.st3{fill:none;stroke:#231F20;stroke-width:0.75;}
	.st4{fill:#CCCCCC;stroke:#231F20;stroke-width:0.75;stroke-linejoin:round;}
	.st5{fill:none;stroke:#231F20;stroke-width:0.5;}
	.st6{fill:#FFFFFF;stroke:#231F20;stroke-width:0.5;}
	.st7{fill:#CCCCCC;stroke:#231F20;stroke-width:0.5;}
	.st8{fill:#FFFFFF;stroke:#231F20;stroke-width:0.25;}
</style>
<g>
	<polygon class="st0" points="78.3,16.9 27.1,25.3 26.4,24.7 26.5,17.2 77.8,8.7 76.9,7.3 78.2,9.1 	"/>
	<path class="st1" d="M83.1,82.5c0.1,2.4-1.5,4.5-3.8,5l-47.8,12c0,0-0.4,0.2-0.9,0.5c-0.5,0.3-1.1,0.5-1.5,0.6c0,0-0.1,0-0.1,0
		c-2.3,0-3-2-3.2-5.2c-0.1-3.2-1.3-80-1.3-80l52.2-8.1l0.9,1.4l-51.4,8.5l0,7.5l0.7,0.6l51.3-8.4l0.7,0.6l1.2,1.2
		C80.2,18.7,82.4,67.9,83.1,82.5z"/>
	<g>
		<path class="st2" d="M31.5,96.2c0,1.5,0,3-0.8,3.9c-0.1,0.1-0.1,0.1-0.2,0.2c-0.3,0.3-0.7,0.4-1.3,0.4c0,0-0.1,0-0.1,0
			c-2.3,0-3-2-3.2-5.2c-0.1-3.2-1.3-80-1.3-80l1.8,1.7l0,7.5l0.7,0.6l1.2,1.1c0,0,0,0.1,0,0.3c0.2,3.8,2.4,46.7,2.4,49.5
			C30.7,79,31.5,94.1,31.5,96.2z"/>
		<line class="st3" x1="29" y1="97.9" x2="26.4" y2="24.5"/>
		<path class="st1" d="M78.3,16.6"/>
		<line class="st3" x1="78.3" y1="16.5" x2="78.2" y2="9.1"/>
		<polygon class="st4" points="79.7,18.3 28.3,26.6 28.2,26.6 26.9,25.3 27.1,25.3 78.3,16.9 78.4,16.9 79,17.5 		"/>
		<polygon class="st4" points="77.8,8.7 26.5,17.2 24.7,15.5 76.9,7.3 		"/>
	</g>
	<g>
		<line class="st5" x1="78.9" y1="20.4" x2="81.3" y2="82.2"/>
	</g>
</g>
<g>
	<path class="st6" d="M39.5,11.9c0,0,3,1.7,3.5,2.2c0.5,0.6,0.1,2.7,0.1,2.7l-9.8,1.3l-1-2.7l-2.2-2.3L39.5,11.9z"/>
	<path class="st7" d="M29.9,10.3c-0.2-0.2-0.8,0-0.8,0S28.9,13.5,29,14c0.2,0.8,1.3,1,1.8,1.2c0.6,0.2,1.5,0.8,1.7,1.5
		c0.1,0.6,0.2,1.4,0.7,1.4c0.6,0,0.6-2.1,0.4-2.6c-0.2-0.5-0.9-0.9-1.6-1.3c-0.5-0.3-1.4-0.4-1.7-1.1c-0.2-0.8-0.4-2.1-0.3-2.6
		C30,10.4,30,10.3,29.9,10.3z"/>
	<path class="st6" d="M30.3,13.1l9.2-1.3c0,0,0.1-2-0.2-2.4c-0.3-0.4-0.5-0.4-1-0.4c-0.5,0.1-8.7,1.1-8.7,1.1"/>
	<line class="st8" x1="33.6" y1="15.4" x2="43.2" y2="14.3"/>
	<line class="st8" x1="34.1" y1="14.7" x2="41.4" y2="13.8"/>
	<line class="st8" x1="34.5" y1="16.1" x2="42.5" y2="15.1"/>
</g>
<g>
	<path class="st6" d="M69.8,7.2c0,0,2.8,1.6,3.3,2.1c0.5,0.6,0.1,2.6,0.1,2.6l-9.3,1.2l-0.9-2.5l-2.1-2.2L69.8,7.2z"/>
	<path class="st7" d="M60.7,5.7c-0.2-0.2-0.7,0-0.7,0s-0.3,3.1-0.1,3.6c0.2,0.8,1.2,0.9,1.7,1.1c0.6,0.2,1.5,0.8,1.6,1.5
		c0.1,0.6,0.2,1.4,0.6,1.3c0.6,0,0.6-2,0.4-2.5c-0.2-0.5-0.9-0.9-1.5-1.2c-0.5-0.3-1.4-0.4-1.6-1.1c-0.2-0.7-0.3-2-0.3-2.5
		C60.7,5.8,60.7,5.7,60.7,5.7z"/>
	<path class="st6" d="M61.1,8.4l8.7-1.2c0,0,0.1-1.9-0.2-2.3c-0.3-0.4-0.5-0.4-1-0.4s-8.2,1.1-8.2,1.1"/>
	<line class="st8" x1="64.2" y1="10.6" x2="73.3" y2="9.5"/>
	<line class="st8" x1="64.6" y1="9.8" x2="71.6" y2="9"/>
	<line class="st8" x1="65" y1="11.2" x2="72.6" y2="10.3"/>
</g>
</svg>
