<?xml version="1.0" encoding="utf-8"?>
<!-- Generator: Adobe Illustrator 21.1.0, SVG Export Plug-In . SVG Version: 6.00 Build 0)  -->
<svg version="1.1" id="Layer_1" xmlns="http://www.w3.org/2000/svg" xmlns:xlink="http://www.w3.org/1999/xlink" x="0px" y="0px"
	 width="108px" height="108px" viewBox="0 0 108 108" style="enable-background:new 0 0 108 108;" xml:space="preserve">
<style type="text/css">
	.st0{fill:#F2F2F2;stroke:#000000;stroke-width:0.5;stroke-linecap:round;stroke-linejoin:round;stroke-miterlimit:10;}
	.st1{fill:#FFFFFF;stroke:#000000;stroke-width:0.5;stroke-linecap:round;stroke-linejoin:round;stroke-miterlimit:10;}
	.st2{fill:#F2F2F2;stroke:#000000;stroke-width:0.25;stroke-linecap:round;stroke-linejoin:round;stroke-miterlimit:10;}
	.st3{fill:#CCCCCC;}
	.st4{fill:#F2F2F2;}
	.st5{fill:none;stroke:#000000;stroke-width:0.5;stroke-linecap:round;stroke-linejoin:round;stroke-miterlimit:10;}
	.st6{fill:#E6E6E6;stroke:#000000;stroke-width:0.5;stroke-linecap:round;stroke-linejoin:round;stroke-miterlimit:10;}
	.st7{fill:none;stroke:#000000;stroke-width:0.25;stroke-linecap:round;stroke-linejoin:round;stroke-miterlimit:10;}
	.st8{fill:#CCCCCC;stroke:#000000;stroke-width:0.25;stroke-linecap:round;stroke-linejoin:round;stroke-miterlimit:10;}
	.st9{fill:#CCCCCC;stroke:#000000;stroke-width:0.5;stroke-linecap:round;stroke-linejoin:round;stroke-miterlimit:10;}
	.st10{fill:#FFFFFF;}
	.st11{fill:#E6E6E6;}
</style>
<g>
	<g>
		<g>
			<ellipse class="st0" cx="54" cy="96.4" rx="14.9" ry="10.4"/>
			<ellipse class="st1" cx="54" cy="95.5" rx="14.5" ry="9.5"/>
			<path class="st2" d="M41.8,91.9l2-1.3c0,0-0.8-1.3-1.1-2c-0.2-0.3-0.9-0.5-1.3-0.1c-0.5,0.3-0.7,1.2-0.4,1.7
				C41.4,91.2,41.8,91.9,41.8,91.9z"/>
		</g>
		<g>
			<path class="st3" d="M46.8,82.5c0,2,0,5.3,0,6.7c0,2.5,3.2,4.5,7.2,4.5c4,0,7.2-2,7.2-4.5c0-1.3,0-4.2,0-6.2
				C57.3,86.8,50.6,87.7,46.8,82.5z"/>
			<path class="st4" d="M54,77.1c-4,0-7.2,2-7.2,4.5c0,0.3,0,0.6,0,0.9c3.8,5.2,10.5,4.3,14.3,0.5c0-0.6,0-1.1,0-1.5
				C61.1,79.1,57.9,77.1,54,77.1z"/>
			<path class="st5" d="M61.1,81.6c0-2.5-3.2-4.5-7.2-4.5c-4,0-7.2,2-7.2,4.5c0,1.6,0,6,0,7.6c0,2.5,3.2,4.5,7.2,4.5
				c4,0,7.2-2,7.2-4.5C61.1,87.6,61.1,83.2,61.1,81.6z"/>
			<path class="st6" d="M49.3,81.7l0.1-2.5l9,0l0.1,3c0,0-0.7,2-4.2,2C50.8,84.2,49.3,82.1,49.3,81.7z"/>
			<path class="st0" d="M54.4,83.6c1.4-0.1,1.9-1.3,2.2-2c0.3-0.6,1.8-0.9,1.8-2.2c0-1.3-1.8-2.3-4.5-2.5c-2.7-0.1-4.1,0.7-4.4,2
				c-0.3,1.2,1.1,2,2.1,2.5C52.6,81.9,52.4,83.7,54.4,83.6z"/>
			<path class="st1" d="M52.1,80.5c0.8,0.2,1.1,0.8,1.2,1.6c0.1,0.3,0.5,0.6,1,0.7c0.5,0,1-0.3,1.1-0.7c0.2-1.1,1.4-1.1,1.7-1.6
				c0-0.1,0.1-0.1,0.1-0.2c-0.1-0.7-0.1-1.8-0.7-2.6c-0.6-0.8-1.5-1.2-2.4-1.2c-0.8,0-2.1,0.3-2.7,0.9c-0.7,0.6-0.6,1.4-0.8,2.2
				C50.8,80,51.4,80.2,52.1,80.5z"/>
		</g>
		<g>
			<line class="st7" x1="41.4" y1="97.4" x2="46.2" y2="94.5"/>
			<line class="st7" x1="44.7" y1="93.8" x2="40.9" y2="95.8"/>
			<line class="st7" x1="60.2" y1="95.4" x2="65.1" y2="99.2"/>
			<line class="st7" x1="61.3" y1="93.8" x2="66.4" y2="96.5"/>
			<path class="st7" d="M52.6,78.5c0.5-0.1,1.3-0.1,1.7,0.1"/>
			<path class="st7" d="M59.9,83.8c-1.2,1.5-3.5,2.5-6.1,2.5c-2.6,0-4.9-1-6.1-2.4"/>
		</g>
		<path class="st8" d="M54.4,76.6c0,0,0,0.2-0.4,0.2s-0.5-0.2-0.5-0.2V30h0.9V76.6z"/>
	</g>
	<g>
		<path class="st6" d="M55.5,21.6L55.5,21.6c-0.2-0.1-0.7-0.2-0.7-0.2c-0.2-0.2-0.4-0.4-0.5-0.7c0-0.1,0-0.4,0-0.6
			c0-0.3,0.2-0.4,0.3-0.4c0.1,0,0.2,0,0.2-0.1l1.7-0.4L55.3,18l-5.7,1.8l1.3,0.7l1-0.3c0.3,0.2,0.5,0.4,0.5,0.7
			c0.1,0.3-0.2,0.8-0.4,1.1c-0.4,0.4-0.7,1-0.8,1.5c0.1,0.4,0.7,0.4,1.2,0.5c0.6,0,0.9,0.3,1.1,0.9c0.1,0.2,0.5,0.3,0.8,0.3
			c0.4-0.1,0.7-0.4,0.8-0.8c0.1-0.8,0.9-1.1,1.1-1.6c0,0,0-0.1,0-0.1c-0.1-0.3-0.2-0.5-0.4-0.7C55.8,21.8,55.7,21.7,55.5,21.6
			L55.5,21.6z"/>
		<path class="st9" d="M49.7,19.9c0,0,1.1-1.5,1.1-2.9c0-1.4-1.5-13.2-1.5-13.2L54,2.3c0,0,1.7,3.3,1.4,6C55.1,11,55.8,18,55.8,18
			L49.7,19.9z"/>
		<path class="st6" d="M52.8,10.2c0,0-1.5-2.6-0.4-4.9c0.9-1.7,1.3-3.5,1.3-3.5l-0.6-0.7l-10.2,3c0,0,2.4,2.6,2.7,6.7
			c0.2,4.1-1.7,6.3-1.7,6.3l0.8,0.6l6.3-1.7L52.8,10.2z"/>
		<path class="st1" d="M50.3,14.3c0,0-1.4-1.3-0.7-5.4c0.5-3.2,3.6-7.7,3.6-7.7L42.5,3.7c0,0,2.3,2.3,2.5,6.4c0.2,4.1-1,5.7-1,5.7
			l-0.1,1.3l6.3-1.6L50.3,14.3z"/>
		<path class="st6" d="M53,10.1c0,0,1.7-1.9,1.9-2.8c0.1-1-0.9-5-0.9-5s1.6,0.9,2,2c0.4,1.1,0.6,3.3,0.8,4.5
			c0.2,1.1-1.1,4.3-0.9,5.4c0.2,1.1,0.7,5,0.7,5l-1.1-0.9c0,0-0.2-1.5-0.6-2.6C54.6,14.6,53.6,11.6,53,10.1z"/>
		<g>
			<path class="st7" d="M50.9,11.6c0,0-0.8-1.2-0.6-2.4c0.2-1.2,0.9-1.5,0.9-1.5"/>
			<path class="st7" d="M54.8,12c0,0,0.8-0.8,1.1-2c0.3-1.2-0.5-1.7-0.5-1.7"/>
			<path class="st7" d="M52.5,15.6c0.7-0.2,1.6-0.5,1.6-0.5"/>
			<line class="st7" x1="48.8" y1="14.5" x2="45.4" y2="15.4"/>
			<line class="st7" x1="48.9" y1="13.5" x2="45.7" y2="14.3"/>
			<line class="st7" x1="49.9" y1="4.7" x2="45.8" y2="5.7"/>
			<line class="st7" x1="50.8" y1="2.8" x2="45.1" y2="4.1"/>
			<line class="st7" x1="52.7" y1="16.8" x2="54.1" y2="16.3"/>
		</g>
		<path class="st0" d="M46.9,9.5c0,1.7,0.7,2.5,1.3,2.8l0.5-4.9C48.1,7.4,46.9,7.6,46.9,9.5z"/>
		<path class="st9" d="M46.5,7.1l-0.6,6.1l2.2-0.6l0-0.4c-0.5-0.3-1.3-1-1.3-2.8c0-1.1,0.5-1.7,0.9-1.9c-0.2-0.2-0.4-0.4-0.6-0.6
			L46.5,7.1z"/>
		<path class="st9" d="M48.6,7.4l0.1-0.8L47.2,7c0.2,0.2,0.4,0.5,0.6,0.6C48.1,7.4,48.4,7.4,48.6,7.4z"/>
		<line class="st1" x1="50.2" y1="15.5" x2="51" y2="16.1"/>
	</g>
	<g>
		<path class="st10" d="M50.4,22.6l0.1,6.6l2.2,0c0.2-2.8,0.3-5.6,0.3-8.4C51.1,21.1,50.4,22.2,50.4,22.6z"/>
		<path class="st4" d="M53,20.8c-0.1,2.8-0.1,5.6-0.3,8.4l2.1,0c0-2.8,0.2-5.5,0.5-8.3c-0.4-0.1-0.8-0.2-1.3-0.1
			C53.6,20.7,53.3,20.7,53,20.8z"/>
		<path class="st11" d="M56.9,29.1l0-7c0,0-0.3-0.9-1.7-1.3c-0.3,2.8-0.5,5.6-0.5,8.3L56.9,29.1z"/>
		<path class="st5" d="M50.4,22.6l0.1,6.6l6.5-0.1l0-7c0,0-0.5-1.5-3-1.5C51.4,20.7,50.4,22.2,50.4,22.6z"/>
		<path class="st4" d="M52.8,26.5c-0.1,1.4-0.2,2.8-0.3,4.2c0.3,0,0.7,0.1,1.2,0c0.4,0,0.7-0.1,1.1-0.1c-0.1-1.4-0.1-2.9,0-4.3
			C54.6,26.1,54.3,26,54,26C53.4,26,53.1,26.2,52.8,26.5z"/>
		<path class="st10" d="M52,27.5c-0.7,0.3-1.7,0.9-1.5,1.8c0.2,0.7,0.8,1.2,2,1.4c0.1-1.4,0.2-2.8,0.3-4.2
			C52.5,26.9,52.4,27.4,52,27.5z"/>
		<path class="st11" d="M54.8,30.6c1.3-0.3,2.2-0.9,2.1-1.6c0-0.9-1.1-1.1-1.3-1.6c-0.2-0.3-0.4-0.8-0.8-1.1
			C54.7,27.7,54.7,29.2,54.8,30.6z"/>
		<path class="st5" d="M50.4,25.6c0,0,0.8-1.6,3.5-1.6c2.4,0,3.1,1.1,3.1,1.1"/>
		<path class="st10" d="M53.8,26.7c-0.2,0.1-0.5,0.3-0.5,0.4c-0.1,0.6-0.3,0.9-0.9,1.1c-0.5,0.2-1,0.3-1,0.8
			c0.2,0.5,0.5,0.9,0.9,1.2C53.1,29.2,53.6,28.1,53.8,26.7z"/>
		<path class="st11" d="M54.8,30.6c0.1-0.1,0.2-0.2,0.3-0.3c0.2-0.1,0.3-0.3,0.5-0.4l0,0l0,0c0.3-0.4,0.5-0.8,0.6-1.4
			c0,0,0-0.1-0.1-0.1C55.8,28,55,28,54.8,27.2c0,0,0-0.1,0-0.1C54.7,28.3,54.7,29.4,54.8,30.6z"/>
		<path class="st5" d="M54,26c1,0.1,1.4,1,1.6,1.4c0.2,0.4,1.3,0.6,1.3,1.6c0,0.9-1.3,1.7-3.2,1.8c-1.9,0.1-3-0.5-3.2-1.4
			c-0.2-0.9,0.8-1.5,1.5-1.8C52.7,27.2,52.6,25.9,54,26z"/>
		<path class="st4" d="M54.7,30.7C54.7,30.7,54.8,30.6,54.7,30.7c0-1.3,0-2.4,0-3.6c-0.1-0.3-0.5-0.5-0.8-0.4c-0.1,0-0.1,0-0.2,0.1
			c-0.1,1.3-0.7,2.5-1.5,3.5c0,0,0,0,0,0c0.2,0.2,0.3,0.4,0.4,0.6C53.4,31.2,54.1,31.3,54.7,30.7z"/>
		<path class="st5" d="M56.1,28.5c0,0,0-0.1-0.1-0.1C55.8,28,55,28,54.8,27.2c-0.1-0.3-0.5-0.6-0.8-0.5c-0.3,0-0.7,0.3-0.7,0.5
			c-0.1,0.6-0.3,0.9-0.9,1.1c-0.5,0.2-1,0.3-1,0.8c0.2,0.5,0.5,0.9,0.9,1.2c0.2,0.2,0.3,0.4,0.4,0.6c0.7,0.3,1.3,0.5,2-0.1
			c0.1-0.2,0.2-0.3,0.3-0.5c0.2-0.1,0.3-0.3,0.5-0.4l0,0l0,0C55.8,29.5,56,29,56.1,28.5z"/>
	</g>
</g>
</svg>
