<?xml version="1.0" encoding="utf-8"?>
<!-- Generator: Adobe Illustrator 21.1.0, SVG Export Plug-In . SVG Version: 6.00 Build 0)  -->
<svg version="1.1" id="Layer_1" xmlns="http://www.w3.org/2000/svg" xmlns:xlink="http://www.w3.org/1999/xlink" x="0px" y="0px"
	 width="108px" height="108px" viewBox="0 0 108 108" style="enable-background:new 0 0 108 108;" xml:space="preserve">
<style type="text/css">
	.st0{fill:#FFFFFF;}
	.st1{fill:#F2F2F2;}
	.st2{fill:none;stroke:#000000;stroke-width:0.5;stroke-linecap:round;stroke-linejoin:round;stroke-miterlimit:10;}
	.st3{fill:none;stroke:#000000;stroke-width:0.25;stroke-linecap:round;stroke-linejoin:round;stroke-miterlimit:10;}
	.st4{fill:#CCCCCC;}
	.st5{fill:#E6E6E6;stroke:#000000;stroke-width:0.5;stroke-linecap:round;stroke-linejoin:round;stroke-miterlimit:10;}
	.st6{fill:#F2F2F2;stroke:#000000;stroke-width:0.5;stroke-linecap:round;stroke-linejoin:round;stroke-miterlimit:10;}
	.st7{fill:#FFFFFF;stroke:#000000;stroke-width:0.5;stroke-linecap:round;stroke-linejoin:round;stroke-miterlimit:10;}
	.st8{fill:#CCCCCC;stroke:#000000;stroke-width:0.25;stroke-linecap:round;stroke-linejoin:round;stroke-miterlimit:10;}
	.st9{fill:#CCCCCC;stroke:#000000;stroke-width:0.5;stroke-linecap:round;stroke-linejoin:round;stroke-miterlimit:10;}
	.st10{fill:#E6E6E6;}
</style>
<g>
	<g>
		<g>
			<path class="st0" d="M50.5,99.6c7.6,0.9,15.1-1.7,16.8-8.8c-1.1-3.8-6.6-6.6-13.2-6.6c-7.4,0-13.4,3.6-13.4,8c0,0.2,0,0.6,0,1.1
				C43,96.2,46,98.5,50.5,99.6z"/>
			<path class="st1" d="M50.5,99.6c-4.6-1-7.6-3.3-9.8-6.4c-0.1,1.5-0.2,3.9-0.2,4.7c0,4.3,6,7.7,13.5,7.7c7.5,0,13.5-3.5,13.5-7.7
				c0-1,0-4.7,0-5.8c0-0.5-0.1-0.9-0.2-1.3C65.7,97.9,58.1,100.5,50.5,99.6z"/>
			<path class="st2" d="M67.5,92.1c0-4.4-6-8-13.4-8c-7.4,0-13.4,3.6-13.4,8c0,1-0.2,4.7-0.2,5.8c0,4.3,6,7.7,13.5,7.7
				c7.5,0,13.5-3.5,13.5-7.7C67.5,96.9,67.5,93.2,67.5,92.1z"/>
			<path class="st3" d="M65,89.4c0.7,0.9,1.1,1.9,1.1,3c0,4-5.3,7.2-11.7,7.2s-11.7-3.2-11.7-7.2c0-1.1,0.4-2.1,1.1-3"/>
		</g>
		<g>
			<path class="st4" d="M47,83.7c0,2,0,5.3,0,6.7c0,2.5,3.2,4.5,7.2,4.5c4,0,7.2-2,7.2-4.5c0-1.3,0-4.2,0-6.2
				C57.6,88,50.8,88.9,47,83.7z"/>
			<path class="st1" d="M54.2,78.3c-4,0-7.2,2-7.2,4.5c0,0.3,0,0.6,0,0.9c3.8,5.2,10.5,4.3,14.3,0.5c0-0.6,0-1.1,0-1.5
				C61.4,80.3,58.2,78.3,54.2,78.3z"/>
			<path class="st2" d="M61.4,82.8c0-2.5-3.2-4.5-7.2-4.5c-4,0-7.2,2-7.2,4.5c0,1.6,0,6,0,7.6c0,2.5,3.2,4.5,7.2,4.5
				c4,0,7.2-2,7.2-4.5C61.4,88.8,61.4,84.4,61.4,82.8z"/>
			<path class="st5" d="M49.6,82.9l0.1-2.5l9,0l0.1,3c0,0-0.7,2-4.2,2C51,85.4,49.6,83.3,49.6,82.9z"/>
			<path class="st6" d="M54.6,84.8c1.4-0.1,1.9-1.3,2.2-2c0.3-0.6,1.8-0.9,1.8-2.2c0-1.3-1.8-2.3-4.5-2.5c-2.7-0.1-4.1,0.7-4.4,2
				c-0.3,1.2,1.1,2,2.1,2.5C52.8,83.1,52.7,84.9,54.6,84.8z"/>
			<path class="st7" d="M52.3,81.7c0.8,0.2,1.1,0.8,1.2,1.6c0.1,0.3,0.5,0.6,1,0.7c0.5,0,1-0.3,1.1-0.7c0.2-1.1,1.4-1.1,1.7-1.6
				c0-0.1,0.1-0.1,0.1-0.2c-0.1-0.7-0.1-1.8-0.7-2.6c-0.6-0.8-1.5-1.2-2.4-1.2c-0.8,0-2.1,0.3-2.7,0.9C51,79,51,79.8,50.9,80.6
				C51,81.2,51.7,81.4,52.3,81.7z"/>
		</g>
		<g>
			<path class="st3" d="M52.8,79.7c0.5-0.1,1.3-0.1,1.7,0.1"/>
			<path class="st3" d="M60.1,85c-1.2,1.5-3.5,2.5-6.1,2.5c-2.6,0-4.9-1-6.1-2.4"/>
		</g>
		<path class="st8" d="M54.6,77.8c0,0,0,0.2-0.4,0.2c-0.3,0-0.5-0.2-0.5-0.2V31.2h0.9V77.8z"/>
	</g>
	<g>
		<path class="st5" d="M55.7,22.8L55.7,22.8c-0.2-0.1-0.7-0.2-0.7-0.2c-0.2-0.2-0.4-0.4-0.5-0.7c0-0.1,0-0.4,0-0.6
			c0-0.3,0.2-0.4,0.3-0.4c0.1,0,0.2,0,0.2-0.1l1.7-0.4l-1.2-1.1l-5.7,1.8l1.3,0.7l1-0.3c0.3,0.2,0.5,0.4,0.5,0.7
			c0.1,0.3-0.2,0.8-0.4,1.1c-0.4,0.4-0.7,1-0.8,1.5c0.1,0.4,0.7,0.4,1.2,0.5c0.6,0,0.9,0.3,1.1,0.9c0.1,0.2,0.5,0.3,0.8,0.3
			c0.4-0.1,0.7-0.4,0.8-0.8c0.1-0.8,0.9-1.1,1.1-1.6c0,0,0-0.1,0-0.1c-0.1-0.3-0.2-0.5-0.4-0.7C56,23,55.9,22.9,55.7,22.8L55.7,22.8
			z"/>
		<path class="st9" d="M49.9,21.1c0,0,1.1-1.5,1.1-2.9c0-1.4-1.5-13.2-1.5-13.2l4.8-1.4c0,0,1.7,3.3,1.4,6c-0.3,2.7,0.4,9.7,0.4,9.7
			L49.9,21.1z"/>
		<path class="st5" d="M53,11.4c0,0-1.5-2.6-0.4-4.9C53.5,4.8,53.9,3,53.9,3l-0.6-0.7l-10.2,3c0,0,2.4,2.6,2.7,6.7
			c0.2,4.1-1.7,6.3-1.7,6.3L45,19l6.3-1.7L53,11.4z"/>
		<path class="st7" d="M50.5,15.5c0,0-1.4-1.3-0.7-5.4c0.5-3.2,3.6-7.7,3.6-7.7L42.7,4.9c0,0,2.3,2.3,2.5,6.4c0.2,4.1-1,5.7-1,5.7
			l-0.1,1.3l6.3-1.6L50.5,15.5z"/>
		<path class="st5" d="M53.3,11.3c0,0,1.7-1.9,1.9-2.8c0.1-1-0.9-5-0.9-5s1.6,0.9,2,2c0.4,1.1,0.6,3.3,0.8,4.5
			c0.2,1.1-1.1,4.3-0.9,5.4c0.2,1.1,0.7,5,0.7,5l-1.1-0.9c0,0-0.2-1.5-0.6-2.6C54.8,15.8,53.8,12.8,53.3,11.3z"/>
		<g>
			<path class="st3" d="M51.1,12.8c0,0-0.8-1.2-0.6-2.4c0.2-1.2,0.9-1.5,0.9-1.5"/>
			<path class="st3" d="M55,13.2c0,0,0.8-0.8,1.1-2c0.3-1.2-0.5-1.7-0.5-1.7"/>
			<path class="st3" d="M52.7,16.8c0.7-0.2,1.6-0.5,1.6-0.5"/>
			<line class="st3" x1="49" y1="15.7" x2="45.6" y2="16.6"/>
			<line class="st3" x1="49.1" y1="14.7" x2="45.9" y2="15.5"/>
			<line class="st3" x1="50.1" y1="5.9" x2="46.1" y2="6.9"/>
			<line class="st3" x1="51" y1="4" x2="45.3" y2="5.3"/>
			<line class="st3" x1="52.9" y1="18" x2="54.3" y2="17.5"/>
		</g>
		<path class="st6" d="M47.1,10.7c0,1.7,0.7,2.5,1.3,2.8l0.5-4.9C48.3,8.6,47.1,8.8,47.1,10.7z"/>
		<path class="st9" d="M46.7,8.3l-0.6,6.1l2.2-0.6l0-0.4c-0.5-0.3-1.3-1-1.3-2.8c0-1.1,0.5-1.7,0.9-1.9c-0.2-0.2-0.4-0.4-0.6-0.6
			L46.7,8.3z"/>
		<path class="st9" d="M48.8,8.6l0.1-0.8l-1.5,0.4c0.2,0.2,0.4,0.5,0.6,0.6C48.3,8.7,48.6,8.6,48.8,8.6z"/>
		<line class="st7" x1="50.4" y1="16.7" x2="51.3" y2="17.3"/>
	</g>
	<g>
		<path class="st0" d="M50.6,23.8l0.1,6.6l2.2,0c0.2-2.8,0.3-5.6,0.3-8.4C51.4,22.3,50.6,23.5,50.6,23.8z"/>
		<path class="st1" d="M53.2,22c-0.1,2.8-0.1,5.6-0.3,8.4l2.1,0c0-2.8,0.2-5.5,0.5-8.3c-0.4-0.1-0.8-0.2-1.3-0.1
			C53.8,21.9,53.5,21.9,53.2,22z"/>
		<path class="st10" d="M57.2,30.3l0-7c0,0-0.3-0.9-1.7-1.3c-0.3,2.8-0.5,5.6-0.5,8.3L57.2,30.3z"/>
		<path class="st2" d="M50.6,23.8l0.1,6.6l6.5-0.1l0-7c0,0-0.5-1.5-3-1.5C51.6,21.9,50.6,23.4,50.6,23.8z"/>
		<path class="st1" d="M53.1,27.7c-0.1,1.4-0.2,2.8-0.3,4.2c0.3,0,0.7,0.1,1.2,0c0.4,0,0.7-0.1,1.1-0.1c-0.1-1.4-0.1-2.9,0-4.3
			c-0.2-0.1-0.5-0.3-0.8-0.3C53.6,27.2,53.3,27.4,53.1,27.7z"/>
		<path class="st0" d="M52.2,28.7c-0.7,0.3-1.7,0.9-1.5,1.8c0.2,0.7,0.8,1.2,2,1.4c0.1-1.4,0.2-2.8,0.3-4.2
			C52.8,28.1,52.6,28.6,52.2,28.7z"/>
		<path class="st10" d="M55,31.8c1.3-0.3,2.2-0.9,2.1-1.6c0-0.9-1.1-1.1-1.3-1.6c-0.2-0.3-0.4-0.8-0.8-1.1
			C55,28.9,54.9,30.4,55,31.8z"/>
		<path class="st2" d="M50.6,26.8c0,0,0.8-1.6,3.5-1.6c2.4,0,3.1,1.1,3.1,1.1"/>
		<path class="st0" d="M54,27.9c-0.2,0.1-0.5,0.3-0.5,0.4c-0.1,0.6-0.3,0.9-0.9,1.1c-0.5,0.2-1,0.3-1,0.8c0.2,0.5,0.5,0.9,0.9,1.2
			C53.3,30.4,53.8,29.3,54,27.9z"/>
		<path class="st10" d="M55,31.8c0.1-0.1,0.2-0.2,0.3-0.3c0.2-0.1,0.3-0.3,0.5-0.4l0,0l0,0c0.3-0.4,0.5-0.8,0.6-1.4
			c0,0,0-0.1-0.1-0.1c-0.3-0.4-1.1-0.4-1.2-1.2c0,0,0-0.1,0-0.1C55,29.5,55,30.7,55,31.8z"/>
		<path class="st2" d="M54.2,27.2c1,0.1,1.4,1,1.6,1.4c0.2,0.4,1.3,0.6,1.3,1.6c0,0.9-1.3,1.7-3.2,1.8c-1.9,0.1-3-0.5-3.2-1.4
			c-0.2-0.9,0.8-1.5,1.5-1.8C52.9,28.4,52.8,27.1,54.2,27.2z"/>
		<path class="st1" d="M55,31.9C55,31.9,55,31.8,55,31.9c0-1.3,0-2.4,0-3.6c-0.1-0.3-0.5-0.5-0.8-0.4c-0.1,0-0.1,0-0.2,0.1
			c-0.1,1.3-0.7,2.5-1.5,3.5c0,0,0,0,0,0c0.2,0.2,0.3,0.4,0.4,0.6C53.6,32.4,54.3,32.5,55,31.9z"/>
		<path class="st2" d="M56.3,29.7c0,0,0-0.1-0.1-0.1c-0.3-0.4-1.1-0.4-1.2-1.2c-0.1-0.3-0.5-0.6-0.8-0.5c-0.3,0-0.7,0.3-0.7,0.5
			c-0.1,0.6-0.3,0.9-0.9,1.1c-0.5,0.2-1,0.3-1,0.8c0.2,0.5,0.5,0.9,0.9,1.2c0.2,0.2,0.3,0.4,0.4,0.6c0.7,0.3,1.3,0.5,2-0.1
			c0.1-0.2,0.2-0.3,0.3-0.5c0.2-0.1,0.3-0.3,0.5-0.4l0,0l0,0C56.1,30.7,56.3,30.2,56.3,29.7z"/>
	</g>
</g>
</svg>
