<?xml version="1.0" encoding="utf-8"?>
<!-- Generator: Adobe Illustrator 21.1.0, SVG Export Plug-In . SVG Version: 6.00 Build 0)  -->
<svg version="1.1" id="Layer_1" xmlns="http://www.w3.org/2000/svg" xmlns:xlink="http://www.w3.org/1999/xlink" x="0px" y="0px"
	 width="108px" height="108px" viewBox="0 0 108 108" style="enable-background:new 0 0 108 108;" xml:space="preserve">
<style type="text/css">
	.st0{fill:#CCCCCC;stroke:#000000;stroke-width:0.5;stroke-linecap:round;stroke-linejoin:round;stroke-miterlimit:10;}
	.st1{fill:#F2F2F2;stroke:#000000;stroke-width:0.75;stroke-linecap:round;stroke-linejoin:round;stroke-miterlimit:10;}
	.st2{fill:#B3B3B3;stroke:#000000;stroke-width:0.75;stroke-linecap:round;stroke-linejoin:round;stroke-miterlimit:10;}
	.st3{fill:#F2F2F2;}
	.st4{fill:#FFFFFF;}
	.st5{fill:#E6E6E6;}
	.st6{fill:none;stroke:#000000;stroke-width:0.75;stroke-linecap:round;stroke-linejoin:round;stroke-miterlimit:10;}
	.st7{fill:#E6E6E6;stroke:#000000;stroke-width:0.75;stroke-linecap:round;stroke-linejoin:round;stroke-miterlimit:10;}
	.st8{fill:#CCCCCC;stroke:#000000;stroke-width:0.75;stroke-linecap:round;stroke-linejoin:round;stroke-miterlimit:10;}
	.st9{fill:#999999;stroke:#000000;stroke-width:0.75;stroke-linecap:round;stroke-linejoin:round;stroke-miterlimit:10;}
	.st10{fill:#808080;stroke:#000000;stroke-width:0.75;stroke-linecap:round;stroke-linejoin:round;stroke-miterlimit:10;}
	.st11{fill:#FFFFFF;stroke:#000000;stroke-width:0.75;stroke-linecap:round;stroke-linejoin:round;stroke-miterlimit:10;}
	.st12{fill:none;stroke:#000000;stroke-width:0.5;stroke-linecap:round;stroke-linejoin:round;stroke-miterlimit:10;}
	.st13{fill:#CCCCCC;}
	.st14{fill:#FFFFFF;stroke:#000000;stroke-width:0.5;stroke-linecap:round;stroke-linejoin:round;stroke-miterlimit:10;}
	.st15{fill:none;stroke:#000000;stroke-width:0.25;stroke-linecap:round;stroke-linejoin:round;stroke-miterlimit:10;}
</style>
<g>
	<polygon class="st0" points="53.1,26.7 53.7,31.7 60.7,33.9 64.9,27.6 56.5,24.8 	"/>
	<g>
		<path class="st1" d="M55.3,73.4l1.5-17.9L44.5,53l-0.1,3.7l-1.8,6l0.5,13.2c4.5,0.6,8.9,0.6,13.8,0.6L55.3,73.4z"/>
		<path class="st2" d="M53.2,100.1c0,0.4-0.1,0.7-0.1,0.7l0,0.6l-0.1,0V101l-1.6,0.5v0l0.7-0.3c0,0,1-3.1-1-2.7
			c-2,0.4-3.3-1.2-3.3-4.8c0-2.5,2.1-8.8,3.5-12.7c0.4,0.1,0.8,0.2,1.1,0.2l0,0.1c-1.2,3.4-2.1,5.9-3,9.8c-1.5,6.6,1.2,6.2,2.8,6.6
			c0.3,0.1,0.5,0.2,0.7,0.4v0l0.1,2.9C53,100.8,53.1,100.6,53.2,100.1z"/>
		<path class="st2" d="M59.7,82.2l-0.5,4.9l-0.5,5.7l-0.1,1.5l-2.1,1.5l-1.6,1.2l-0.7,3.5v0.1l-0.2,0.9l-0.2,0l-0.7,0.1l0-0.6
			c0,0,0-0.3,0.1-0.7c-0.1,0.4-0.2,0.7-0.2,0.7L52.9,98c0.2,0.2,0.3,0.6,0.3,0.9c0-0.4,0-0.8,0-1.1c0-3.2,2.5-3.5,2.9-6.2
			c0.4-2.2,1.3-7,0.1-8.6c-1.3-1.5-2.8-1.8-3.5-1.9c-0.1,0-0.2,0-0.3-0.1c-0.3-0.1-0.7-0.2-1.1-0.2c-1.4,3.9-3.5,10.2-3.5,12.7
			c0,3.7,1.3,5.2,3.3,4.8c2-0.4,1,2.7,1,2.7l-0.7,0.3v0L53,101v0.5l-1.6,0.1l-0.5,0l0,0l-2.8-1.6L48,99.9h0l-1-0.6l-3.1-1.8v-0.1
			L43.7,92l-0.2-6.4l-0.4-9.7c1.5,0.2,2.9,0.3,4.4,0.4c0.3,0,0.7,0,1,0.1c0.3,0,0.6,0,0.9,0c1.1,0.1,2.1,0.1,3.2,0.1h0.1
			c1,0,2,0,3,0h1.2L59.7,82.2z"/>
		<polygon class="st2" points="51.6,99.1 51.4,101.4 51.4,101.4 51.4,101.6 51.3,102.9 50.5,102.7 50.4,102.7 34.6,98.9 34.5,98.3 
			34.4,96.6 34.3,95.3 43.9,97.4 45.4,97.7 45.9,97.8 		"/>
		<path class="st3" d="M46.4,64.7L35.5,62c0,0,1.8,6,2.3,7.7c0.4,1.3,0.6,2.8,0.3,4.4c3.5,0.8,7,1.7,10.5,2.7
			C48.3,72,46.4,64.7,46.4,64.7z"/>
		<path class="st4" d="M44.5,91.4c0.9-7.1,3.9-8.8,4-13.5c0-0.3,0-0.7,0-1.1c-3.5-1-7-1.9-10.5-2.7c-0.1,0.5-0.3,1.1-0.6,1.6
			c-1,2-4.1,8-5.8,11.2c-0.3,0.6-0.5,1.2-0.7,1.8c4.5,1.2,8.9,2.4,13.4,3.6C44.5,92.1,44.5,91.8,44.5,91.4z"/>
		<path class="st5" d="M44.4,92.4c-4.5-1.2-8.9-2.5-13.4-3.6c-0.9,3.1-0.6,6.7,1.9,7.5c3,0.9,15.9,3.9,15.9,3.9S44.1,98.7,44.4,92.4
			z"/>
		<path class="st6" d="M35.5,62c0,0,1.8,6,2.3,7.7c0.5,1.8,0.8,3.9-0.3,6c-1,2-4.1,8-5.8,11.2c-1.6,3.2-1.8,8.4,1.3,9.3
			c3,0.9,15.9,3.9,15.9,3.9s-5.3-1.5-4.4-8.6c0.9-7.1,3.9-8.8,4-13.5c0.1-4.7-2.2-13.2-2.2-13.2L35.5,62z"/>
		<polygon class="st7" points="33.4,98.4 34.2,98.2 50.4,101.7 50.4,103 49.6,103.1 33.6,99.8 		"/>
		<path class="st8" d="M59.3,92c-0.2,0.2-0.4,0.5-0.6,0.8c-0.7,0.9-1.5,2.1-2.2,2.9c-0.5,0.8-1,1.3-1,1.3l-0.5,3v0l-0.3,1.9
			l-0.8-0.6l-0.7-0.5c0,0,0-0.3,0.1-0.7c0,0,0,0,0,0c0-0.3,0-0.7,0.1-1.1v-0.2c0-0.4,0-0.8,0-1.1c0-3.2,2.5-3.5,2.9-6.2
			c0.4-2.2,1.3-7,0.1-8.6c-1.3-1.5-2.8-1.8-3.5-1.9c-0.1,0-0.2,0-0.3-0.1c-0.3-0.1-0.7-0.2-1.1-0.2c-0.9-0.2-1.9-0.5-1.9-0.5
			l0.2-1.1l0-0.1c0,0,0.8,0.2,2,0.5c1.4,0.3,3.1,0.8,4.4,1.4h0c0.6,0.3,1.1,0.5,1.3,0.8c0.5,0.7,1.3,2.9,1.8,5.2
			C59.7,89.2,59.9,91.2,59.3,92z"/>
		<path class="st7" d="M53,101v1.8c0,0-1.3,1.3-2.5,0.5v-0.6l0-0.9l0.5-0.1l0.1,0l0.2-0.1l0.2-0.1L53,101z"/>
		<path class="st7" d="M54.9,102.5c-1.3,0.8-1.9,0.4-1.9,0.4v-0.1l0.1-1.3l0-0.6l1-0.4l0.1,0l0.8-0.3l0.1,0l0.3-0.1l0.2-0.1
			C55.5,99.8,56.2,101.7,54.9,102.5z"/>
		<path class="st8" d="M46.3,76.7c-0.2,0.7-0.5,1.6-0.9,2.3l-3-0.7c0,0-1.9-1.3-1.3-5.1c0.2-1,0.4-1.8,0.6-2.4v0l4.4,0.9
			C46,71.8,46.6,75.2,46.3,76.7z"/>
		<path class="st9" d="M42.3,78.4l-0.6,1.8l-4.1-0.8c0,0,2.4-3.6,2.4-5.1c0-1.2-0.1-3.8-0.1-3.8l1.7,0.4v0c-0.2,0.6-0.4,1.4-0.6,2.4
			C40.4,77.1,42.3,78.4,42.3,78.4z"/>
		<path class="st10" d="M45.3,79.1c-0.4,0.9-0.8,1.6-0.8,1.6l-2.6-0.5l-0.2,0l0.6-1.8L45.3,79.1z"/>
		<polygon class="st11" points="41.9,80.2 41.6,80.2 41.7,80.1 		"/>
		<path class="st11" d="M42.7,69.1"/>
		<polyline class="st11" points="44.1,62.9 46,56.9 46,52.9 		"/>
		<path class="st11" d="M53,70.3c0,0-1.4-0.3-2.2,0.1"/>
		<path class="st11" d="M52.7,69.5c-0.4-0.4-1.3-1.1-2.7-1"/>
		<path class="st2" d="M56.2,91.6c-0.4,2.7-2.9,3-2.9,6.2c0,0.3,0,0.7,0,1.1c0-0.3-0.1-0.7-0.3-0.9v0c-0.2-0.2-0.4-0.4-0.7-0.4
			c-1.6-0.4-4.3,0.1-2.8-6.6c0.9-3.9,1.8-6.3,3-9.8l0-0.1c0.1,0,0.2,0,0.3,0.1c0.8,0.1,2.2,0.4,3.5,1.9
			C57.5,84.6,56.5,89.4,56.2,91.6z"/>
		<path class="st11" d="M53.2,98.9V99c0,0.4,0,0.8-0.1,1.1c0,0,0,0,0,0c-0.1,0.4-0.2,0.7-0.2,0.7L52.9,98
			C53.1,98.2,53.2,98.6,53.2,98.9z"/>
		<path class="st7" d="M60.6,79.3c-1-1.7-3.2-3.9-3.4-15.2c-0.1-3,0.2-5.7,0.4-6.8c0.3-1.6,0.5-2.2,0.5-2.2l-4.9-1.3
			c-0.2-0.5-0.4-1.3,0-1.6c0,0,0-0.1,0.1-0.1c0.8-0.3,1.3-1.1,1.3-1.9c0-1.2-1.1-2.1-2.4-2.1c-1.3,0-2.4,0.9-2.4,2.1
			c0,0.5,0.2,0.9,0.5,1.3c0.2,0.5-0.1,1.1-0.4,1.4l-4.2-1.1L44.3,53l11.9,3.2c0,0-1.3,1.6-1.5,4.3c-0.3,2.7-2.4,12.4-2.3,13.8
			c0.1,1.4,0,2.9,1.3,4.3c1.3,1.4,4.5,4.2,4.3,6.7c-0.2,1.9-0.4,7.7-1.8,9.1c-1.4,1.4-1.9,2.7-2,4.1c-0.1,1.4-0.1,1.9-0.1,1.9
			l1.4-0.6c0,0,0.3-2.7,1.3-2.9c1-0.3,5-2.2,5-7.4C61.7,84.3,61.6,80.9,60.6,79.3z"/>
		<path class="st7" d="M52.6,76c0,0.2,0,0.4,0,0.5c0,0.5,0,0.9-0.1,1.1c-0.1,0.2-0.4,1-0.8,2.1c-0.1,0.3-0.2,0.7-0.4,1.1
			c-1.4,3.9-3.5,10.2-3.5,12.7c0,3.7,1.3,5.2,3.3,4.8c2-0.4,1,2.7,1,2.7l-0.7,0.3l-0.2,0.1l-0.2,0.1c0,0,0,0,0,0
			c0.1-0.2,0.3-1.2-1.3-1.2c-0.5,0-1-0.1-1.5-0.4c-0.1-0.1-0.2-0.1-0.3-0.1c-0.3-0.2-0.6-0.4-0.9-0.6c-0.6-0.4-1.1-0.9-1.5-1.5
			c-0.4-0.5-0.7-1-0.9-1.5c-1-2.4-1.4-6.2,1-11.4c1.2-2.6,1.8-5.7,2-8.4c0.2-2.6,0.1-5-0.1-6.4c-0.2-1.2-0.4-2.3-0.5-3.2
			c0-0.1-0.1-0.2-0.1-0.3c-0.1-0.3-0.1-0.6-0.2-0.9c0,0,0,0,0,0c-0.1-0.6-0.2-0.9-0.2-0.9l-11-2.7l1.7-1.3l10.7,2.7
			c0,0,4.4,10.2,4.7,10.8c0.1,0.1,0.1,0.3,0.2,0.6c0,0.1,0,0.2,0,0.3C52.5,75.3,52.6,75.6,52.6,76C52.6,75.9,52.6,76,52.6,76z"/>
		<g>
			<line class="st12" x1="47.9" y1="55.9" x2="53.5" y2="57.3"/>
			<line class="st12" x1="53.1" y1="60" x2="47.5" y2="58.6"/>
			<polyline class="st12" points="48.5,61.3 52.5,62.3 51.8,66.3 			"/>
			<line class="st12" x1="45.1" y1="66.4" x2="38.4" y2="64.9"/>
			<line class="st12" x1="44.9" y1="68.9" x2="39.4" y2="67.8"/>
			<path class="st12" d="M42.3,95c0,0-1-3.4,0.1-6.7c1.1-3.3,2-5.2,2-5.2"/>
			<path class="st12" d="M32.5,92.9c0,0-0.6-2.9,1.1-5.6c1.6-2.7,3.4-6.1,3.4-6.1"/>
			<path class="st12" d="M56.7,77.6l-1-1.1c0,0,0.9-1.3,0.5-3.4c-0.4-2.2-1.6-2.4-1.6-2.4"/>
			<path class="st12" d="M49.6,79.6l0.6-1.9c0,0-1.3-1.3-1.3-3.8c0-2.5,0.5-2.5,0.5-2.5"/>
			<path class="st12" d="M50.7,51.2c0.2,0.3,0.6,0.4,1,0.4c0.5,0,0.9-0.2,1.1-0.5"/>
		</g>
	</g>
	<g>
		<g>
			<path class="st4" d="M45.6,47.4l0.3-13.5l4.5,0.1c0.4,5.7,0.5,11.4,0.6,17.1C47.2,50.4,45.6,48,45.6,47.4z"/>
			<path class="st3" d="M51,51c-0.1-5.7-0.2-11.5-0.6-17.1l4.2,0.1c-0.1,5.6,0.3,11.3,0.9,16.9c-0.7,0.2-1.6,0.3-2.6,0.3
				C52.2,51.2,51.6,51.1,51,51z"/>
			<path class="st5" d="M59.1,34.1l0,14.2c0,0-0.7,1.9-3.6,2.6c-0.6-5.7-1-11.3-0.9-16.9L59.1,34.1z"/>
			<path class="st6" d="M45.6,47.4l0.3-13.5l13.2,0.2l0,14.2c0,0-1,3-6.2,2.9C47.7,51.2,45.6,48.1,45.6,47.4z"/>
			<path class="st3" d="M50.7,39.4c-0.1-2.9-0.3-5.7-0.6-8.6c0.7-0.1,1.5-0.1,2.4-0.1c0.8,0,1.5,0.1,2.2,0.3c-0.1,2.9-0.1,5.9,0,8.8
				c-0.4,0.3-1,0.5-1.6,0.5C51.8,40.5,51.2,40,50.7,39.4z"/>
			<path class="st4" d="M49,37.2c-1.4-0.7-3.4-1.9-3-3.7c0.3-1.4,1.7-2.4,4.1-2.7c0.3,2.8,0.5,5.7,0.6,8.6
				C50.1,38.6,49.8,37.6,49,37.2z"/>
			<path class="st5" d="M54.7,31c2.7,0.6,4.4,1.8,4.3,3.4c-0.1,1.9-2.2,2.2-2.7,3.1c-0.3,0.6-0.8,1.7-1.7,2.3
				C54.6,36.9,54.6,34,54.7,31z"/>
			<path class="st6" d="M45.7,41.2c0,0,1.5,3.3,7.1,3.4c4.9,0.1,6.3-2.2,6.3-2.2"/>
			<path class="st6" d="M53.1,40.4c2.1-0.1,2.8-1.9,3.3-2.8c0.5-0.9,2.6-1.2,2.7-3.1c0.1-1.9-2.7-3.4-6.5-3.7
				c-3.9-0.2-6.1,1-6.5,2.8c-0.4,1.8,1.6,3,3,3.7C50.5,37.9,50.3,40.5,53.1,40.4z"/>
			<path class="st3" d="M52.6,38.9c-0.5-0.2-0.9-0.6-1-0.9c-0.2-1.1-0.6-1.9-1.8-2.3c-1-0.3-2-0.7-2.1-1.6c0.4-1,1-1.8,1.9-2.4
				C51.2,33.8,52.3,36.2,52.6,38.9z"/>
			<path class="st13" d="M54.7,31c0.2,0.3,0.3,0.5,0.5,0.7c0.4,0.2,0.7,0.5,0.9,0.8l0,0l0,0c0.7,0.8,1.1,1.7,1.2,2.8
				c0,0.1-0.1,0.2-0.1,0.2c-0.5,0.7-2.2,0.8-2.5,2.4c0,0.1,0,0.1-0.1,0.2C54.6,35.8,54.6,33.4,54.7,31z"/>
			<path class="st5" d="M50.8,29.8c0,0.6-0.6,1.4-1.1,1.9c0,0,0,0-0.1,0.1c1.6,2.1,2.7,4.5,3,7.2C52.7,39,52.9,39,53,39
				c0.6,0.1,1.3-0.3,1.6-0.9c0-2.4,0-4.8,0.1-7.1c-0.2-0.4-0.4-0.8-0.4-1.3c0-0.3,0.3-2.8,0.3-3c-1.2,0-3.2-1.2-4.5-1.2
				C50.3,25.8,50.8,29.5,50.8,29.8z"/>
			<path class="st6" d="M56.2,32.6L56.2,32.6c-0.3-0.3-0.6-0.6-0.9-0.9c-0.5-0.5-0.9-1.2-0.9-2c0-0.3,0.3-2.8,0.3-3
				c-1.2,0-3.2-1.2-4.5-1.2c0.1,0.3,0.6,4,0.6,4.2c0,0.6-0.6,1.4-1.1,1.9c-0.9,0.6-1.6,1.5-1.9,2.5c0.1,0.9,1.1,1.3,2.1,1.6
				c1.1,0.4,1.5,1.1,1.8,2.3c0.1,0.4,0.8,0.9,1.4,1c0.7,0.1,1.5-0.4,1.7-1.1c0.4-1.6,2-1.7,2.5-2.4c0.1-0.1,0.1-0.2,0.1-0.3
				C57.3,34.3,56.9,33.3,56.2,32.6L56.2,32.6z"/>
		</g>
		<path class="st14" d="M67.1,25.7"/>
	</g>
	<path class="st15" d="M51,51.1c0.3,0.3,0.8,0.6,1.4,0.6c0.6,0,1.1-0.2,1.4-0.6"/>
	<path class="st15" d="M46,41.2c0,0,1.6,3.3,7.2,3.3c4.9,0,6.2-2.3,6.2-2.3"/>
	<g>
		<polygon class="st2" points="73.8,29.5 83.5,32.9 83.2,21.6 74.3,18.9 		"/>
		<path class="st9" d="M37.4,24.5c2.9,0.3,4.8-0.7,4.8-0.7l-7.3-3.5c0,0-0.1,3.4,0.4,3.6C35.9,24.1,37.4,24.5,37.4,24.5z"/>
		<path class="st9" d="M64.7,32.5c1.9,0.6,5.8-0.6,5.8-0.6l-5.7-3.9L64.7,32.5z"/>
		<polygon class="st7" points="80,32.2 80.2,31 82.8,27.9 82.2,20.5 83.9,20.2 84.6,29.1 84.1,30.1 85,31.8 83.9,33.3 83,32.8 
			82.8,31.2 80.8,32.2 		"/>
		<polygon class="st1" points="83.9,19.8 32.5,4.5 31.7,6.2 82.5,21.6 		"/>
		<line class="st11" x1="82.8" y1="27.9" x2="69.5" y2="23.4"/>
		<line class="st11" x1="80.3" y1="30.8" x2="67" y2="26.4"/>
		<line class="st11" x1="83.6" y1="33.3" x2="70.3" y2="28.9"/>
		<polygon class="st11" points="80.4,19.8 75.5,30.7 75,30.5 24.6,15.3 29.9,4.9 		"/>
		<polygon class="st8" points="75.5,30.7 74.5,32.7 73.9,32.4 23.1,17.3 24.7,16.9 24.6,15.3 75,30.5 		"/>
		<polygon class="st1" points="74.5,32.7 74,33.9 54.2,28 50.3,31.9 43.5,29.9 43.2,24.8 23,18.8 23.1,17.3 73.9,32.4 		"/>
		<polygon class="st2" points="38.8,18.4 39.5,16.8 35,15.2 32.2,21.1 33.3,21.7 		"/>
		<path class="st1" d="M36.6,24.4c0,0-0.7-0.1-2.3-0.6c-1.6-0.5-1.4-2-0.7-3.2c0.6-1.2,1.9-3.7,1.9-3.7l3.4,1.1c0,0-2.1,4.3-2.6,5.1
			C35.9,23.9,36.6,24.4,36.6,24.4z"/>
		<polygon class="st2" points="61.6,30.2 61.1,29.1 63.5,23.5 67.9,24.9 67.2,26.3 		"/>
		<path class="st1" d="M64.7,32.5l0.1-1.4l2.3-4.9l-3.4-1c0,0-1.8,4.8-2.1,5.1c-0.3,0.3,0.1,0.6,0.6,1.1
			C62.8,31.9,64.7,32.5,64.7,32.5z"/>
		<polygon class="st7" points="81.8,20.5 80.4,19.8 75,30.5 75,31.5 73.9,32.4 74,33.9 76.2,32.3 76.3,31.5 79.3,32.5 79.5,31.1 
			77.6,28.6 		"/>
	</g>
</g>
</svg>
