<?xml version="1.0" encoding="utf-8"?>
<!-- Generator: Adobe Illustrator 21.1.0, SVG Export Plug-In . SVG Version: 6.00 Build 0)  -->
<svg version="1.1" id="Layer_1" xmlns="http://www.w3.org/2000/svg" xmlns:xlink="http://www.w3.org/1999/xlink" x="0px" y="0px"
	 width="108px" height="108px" viewBox="0 0 108 108" style="enable-background:new 0 0 108 108;" xml:space="preserve">
<style type="text/css">
	.st0{fill:#FFFFFF;stroke:#000000;stroke-width:0.75;stroke-linecap:round;stroke-linejoin:round;}
	.st1{fill:#B3B3B3;stroke:#000000;stroke-width:0.75;stroke-linecap:round;stroke-linejoin:round;}
	.st2{fill:#808080;stroke:#000000;stroke-width:0.75;stroke-linecap:round;stroke-linejoin:round;}
	.st3{fill:#FFFFFF;}
	.st4{fill:#F2F2F2;}
	.st5{fill:none;stroke:#000000;stroke-width:0.75;stroke-linecap:round;stroke-linejoin:round;}
	.st6{fill:url(#SVGID_1_);stroke:#000000;stroke-width:0.5;stroke-linecap:round;stroke-linejoin:round;}
	.st7{fill:none;stroke:#000000;stroke-width:0.75;}
	.st8{fill:#F2F2F2;stroke:#000000;stroke-width:0.75;stroke-linecap:round;stroke-linejoin:round;}
	.st9{fill:#CCCCCC;stroke:#000000;stroke-width:0.5;stroke-linecap:round;stroke-linejoin:round;}
	.st10{fill:#E6E6E6;stroke:#000000;stroke-width:0.75;stroke-linecap:round;stroke-linejoin:round;}
</style>
<g>
	<polygon class="st0" points="73.2,14.7 77,13.7 103.2,22.7 94.9,26.6 	"/>
	<polygon class="st1" points="102.1,79 82.7,70.9 80.8,77.9 93.4,83.5 	"/>
	<polygon class="st2" points="99.2,87.5 85.5,81.8 92.2,79.9 101,83.1 	"/>
	<path class="st3" d="M100.3,28.7l-0.1-0.5c-9.2-2.8-18.7-6-27.6-9.3c-2.3,1.3-8.4,4.7-8.4,4.7c-0.5,0.3-0.9,0.8-1,1.4
		c9.6,3.5,19.6,6.1,29.5,9C95.4,32.3,100.3,29.3,100.3,28.7z"/>
	<path class="st4" d="M91,35c0.2-0.1,0.8-0.5,1.7-1c-9.9-2.9-19.8-5.5-29.5-9c0,0.1-0.1,0.3-0.1,0.4v47.8c0,0.6,0.3,1.2,0.8,1.6
		c0.5,0.4,26.7,11.4,27.3,11.2c0,0-0.5-8.6-0.5-10.7C92.4,74.3,91,35,91,35z"/>
	<path class="st4" d="M99.2,24.2l-26.1-9.5c0,0,0,2.5,0,3.8c-0.1,0.1-0.3,0.2-0.6,0.3c8.9,3.2,18.4,6.5,27.6,9.3L99.2,24.2z"/>
	<path class="st5" d="M73.2,14.7c0,0,0,2.5,0,3.8c-1.7,0.9-9,5-9,5c-0.6,0.4-1,1-1,1.8v47.8c0,0.6,0.3,1.2,0.8,1.6
		c0.5,0.4,26.7,11.4,27.3,11.2c0,0-0.5-8.6-0.5-10.7C92.4,74.3,91,35,91,35c0.6-0.4,9.3-5.6,9.3-6.3l-1.1-4.5L73.2,14.7z"/>
	<linearGradient id="SVGID_1_" gradientUnits="userSpaceOnUse" x1="66.1003" y1="29.0478" x2="86.8374" y2="29.0478">
		<stop  offset="0" style="stop-color:#C7D4DD"/>
		<stop  offset="0.5449" style="stop-color:#FFFFFF"/>
		<stop  offset="0.6642" style="stop-color:#FCFDFD"/>
		<stop  offset="0.7584" style="stop-color:#F2F5F7"/>
		<stop  offset="0.8442" style="stop-color:#E1E8ED"/>
		<stop  offset="0.9244" style="stop-color:#CAD6DF"/>
		<stop  offset="0.9326" style="stop-color:#C7D4DD"/>
	</linearGradient>
	<line class="st6" x1="66.1" y1="25.8" x2="86.8" y2="32.3"/>
	<g>
		<ellipse class="st7" cx="75.2" cy="54.5" rx="7.1" ry="8.8"/>
		<ellipse class="st7" cx="71.3" cy="55.7" rx="7.1" ry="8.9"/>
		<ellipse class="st7" cx="67.4" cy="56.9" rx="7.2" ry="9"/>
		<ellipse class="st7" cx="63.5" cy="58.1" rx="7.2" ry="9"/>
		<ellipse class="st7" cx="59.6" cy="59.3" rx="7.3" ry="9.1"/>
		<ellipse class="st7" cx="55.7" cy="60.5" rx="7.3" ry="9.1"/>
		<ellipse class="st7" cx="51.8" cy="61.7" rx="7.4" ry="9.2"/>
		<ellipse class="st7" cx="47.9" cy="62.9" rx="7.4" ry="9.2"/>
		<ellipse class="st7" cx="44" cy="64.1" rx="7.5" ry="9.3"/>
		<ellipse class="st7" cx="40.1" cy="65.3" rx="7.5" ry="9.4"/>
		<ellipse class="st7" cx="36.2" cy="66.5" rx="7.5" ry="9.4"/>
		<ellipse class="st7" cx="32.2" cy="67.6" rx="7.6" ry="9.5"/>
	</g>
	<path class="st8" d="M38.3,57.2V92c0,0.7-4.1,2-5.8,2.3c0.3-0.2,0.5-0.5,0.5-1V73.8c0,0.1,0.1,0.1,0.1,0.2c0-0.4,0-0.8-0.1-1.3
		V58.4c0-0.8-0.5-1.7-1.1-2L15.8,50c-0.5-0.2-1-0.4-1.4-0.6c-0.1,0-0.1,0-0.2-0.1l-8.6-3.5c-0.4-0.2-0.8,0-1,0.3v0
		c0-0.8,5.6-1.8,6.3-1.6l26.2,10.6C37.8,55.5,38.3,56.3,38.3,57.2z"/>
	<path class="st0" d="M33.1,74c0-0.1-0.1-0.1-0.1-0.2c-4.7-7.5-10.7-9.7-10.7-9.7s-0.4-7.5-8.4-14.9c0,0,0.2,0,0.4,0.1
		c0,0,0.1,0,0.2,0.1c0.4,0.1,0.9,0.3,1.4,0.6c0.2,0.1,0.5,0.2,0.6,0.4c9,3.5,15.6,16.8,16.6,22.4C33.1,73.3,33.1,73.7,33.1,74z"/>
	<path class="st0" d="M33,58.4v14.4c-1-5.6-7.6-18.9-16.6-22.4c-0.2-0.1-0.4-0.3-0.6-0.4l16.1,6.5C32.5,56.7,33,57.6,33,58.4z"/>
	<path class="st0" d="M33,73.8v19.4c0,0.5-0.2,0.9-0.5,1c-0.3,0.1-0.6,0.1-0.7,0L5.6,83.7c-0.6-0.3-1.1-1.1-1.1-2V46.9
		c0-0.3,0.1-0.5,0.2-0.7c0.2-0.4,0.6-0.5,1-0.3l8.6,3.5c-0.2-0.1-0.4-0.1-0.4-0.1c8,7.3,8.4,14.9,8.4,14.9S28.3,66.3,33,73.8z"/>
	<path class="st0" d="M33,72.8v1.1c-4.7-7.5-10.7-9.7-10.7-9.7s-0.4-7.5-8.4-14.9c0,0,0.2,0,0.4,0.1c0,0,0.1,0,0.2,0.1l1.4,0.6
		c0.2,0.1,0.5,0.2,0.6,0.4C25.4,53.9,32,67.2,33,72.8z"/>
	<path class="st0" d="M32.5,94.2c-0.2,0.1-0.4,0.1-0.7,0C32,94.3,32.2,94.3,32.5,94.2z"/>
	<path class="st9" d="M33.1,74c0-0.1-0.1-0.1-0.1-0.2c-4.7-7.5-10.7-9.7-10.7-9.7s-0.4-7.5-8.4-14.9c0,0,0.2,0,0.4,0.1
		c0,0,0.1,0,0.2,0.1c0.4,0.1,0.9,0.3,1.4,0.6c0.2,0.1,0.5,0.2,0.6,0.4c9,3.5,15.6,16.8,16.6,22.4C33.1,73.3,33.1,73.7,33.1,74z"/>
	<path class="st10" d="M99.2,24.2c0,0-0.1,1.9-0.1,3.2c-1.7,1-9.2,5.2-9.2,5.2c-0.7,0.4-1.1,1.1-1.1,1.8v49.2c0,0.6,0.3,1.3,0.8,1.6
		c0.5,0.4,1.2,0.5,1.8,0.4c0,0,4.9-1.2,7.8-2c0,1.8-0.1,3.8-0.1,3.8l4.3-1.1V81c0-0.6-0.3-1.3-0.8-1.6c-0.5-0.4-1.2-0.5-1.8-0.4
		c0,0-4.9,1.2-7.8,2c0-4.7,0-43.1,0-45.3c1.7-1,9.2-5.2,9.2-5.2c0.7-0.4,1.1-1.1,1.1-1.8l-0.1-6L99.2,24.2z"/>
</g>
</svg>
