<?xml version="1.0" encoding="utf-8"?>
<!-- Generator: Adobe Illustrator 21.1.0, SVG Export Plug-In . SVG Version: 6.00 Build 0)  -->
<svg version="1.1" id="Layer_1" xmlns="http://www.w3.org/2000/svg" xmlns:xlink="http://www.w3.org/1999/xlink" x="0px" y="0px"
	 width="108px" height="108px" viewBox="0 0 108 108" style="enable-background:new 0 0 108 108;" xml:space="preserve">
<style type="text/css">
	.st0{fill:#FFFFFF;stroke:#000000;stroke-width:0.5;stroke-linecap:round;stroke-linejoin:round;stroke-miterlimit:10;}
	.st1{fill:#CCCCCC;stroke:#000000;stroke-width:0.5;stroke-linecap:round;stroke-linejoin:round;stroke-miterlimit:10;}
	.st2{fill:#FFFFFF;}
	.st3{fill:#F2F2F2;}
	.st4{fill:#E6E6E6;}
	.st5{fill:none;stroke:#000000;stroke-width:0.5;stroke-linecap:round;stroke-linejoin:round;stroke-miterlimit:10;}
	.st6{fill:#CCCCCC;}
	.st7{fill:#B3B3B3;stroke:#000000;stroke-width:0.5;stroke-linecap:round;stroke-linejoin:round;stroke-miterlimit:10;}
	.st8{fill:#999999;stroke:#000000;stroke-width:0.5;stroke-linecap:round;stroke-linejoin:round;stroke-miterlimit:10;}
	.st9{fill:#E6E6E6;stroke:#000000;stroke-width:0.5;stroke-linecap:round;stroke-linejoin:round;stroke-miterlimit:10;}
	.st10{fill:#F2F2F2;stroke:#000000;stroke-width:0.5;stroke-linecap:round;stroke-linejoin:round;stroke-miterlimit:10;}
	.st11{fill:none;stroke:#000000;stroke-width:0.25;stroke-linecap:round;stroke-linejoin:round;stroke-miterlimit:10;}
	.st12{fill:#808080;stroke:#000000;stroke-width:0.5;stroke-linecap:round;stroke-linejoin:round;stroke-miterlimit:10;}
</style>
<g>
	<path class="st0" d="M54.7,68.6L54.7,68.6L54.7,68.6c-0.2-0.2-0.3-0.3-0.5-0.5c-0.3-0.3-0.5-0.7-0.5-1.1c0-0.4,1.1-1.7,1.1-2.7
		c0-0.9,0-32.5,0-32.5c0-1.3-1-1.7-1-2.9c0-0.2,0.3-0.7,0.4-0.8c0.2-0.3,0.4-0.6,0.4-0.9c0-0.8-0.8-1.5-1.8-1.5
		c-1,0-1.8,0.7-1.8,1.5c0,0.3,0.1,0.6,0.4,0.9c0.2,0.2,0.3,0.6,0.3,0.8c0,1-1.1,1.9-1.1,3c0,0,0,31.5,0,32.5c0,1,1.1,2.4,1.1,2.7
		c0,0.4-0.3,0.8-0.6,1c-0.5,0.3-0.9,0.8-1.1,1.4c0.1,0.5,0.6,0.7,1.2,0.9c0.6,0.2,0.9,0.6,1,1.3c0,0.2,0.4,0.5,0.8,0.5
		c0.4,0,0.8-0.2,0.9-0.6c0.2-0.9,1.1-0.9,1.4-1.3c0,0,0.1-0.1,0.1-0.1C55.3,69.6,55.1,69,54.7,68.6z"/>
	<g>
		<polygon class="st1" points="51.8,15.9 52.3,19.7 57.5,21.3 60.6,16.6 54.4,14.4 		"/>
		<g>
			<path class="st2" d="M49.2,26.2l0.1-7.2l2.4,0c0.2,3,0.3,6,0.3,9.1C50.1,27.8,49.2,26.5,49.2,26.2z"/>
			<path class="st3" d="M52.1,28.1c0-3-0.1-6.1-0.3-9.1l2.2,0c0,3,0.1,6,0.5,9c-0.4,0.1-0.8,0.2-1.4,0.2
				C52.7,28.2,52.4,28.2,52.1,28.1z"/>
			<path class="st4" d="M56.4,19.1l0,7.5c0,0-0.4,1-1.9,1.4c-0.3-3-0.5-6-0.5-9L56.4,19.1z"/>
			<path class="st5" d="M49.2,26.2l0.1-7.2l7,0.1l0,7.5c0,0-0.6,1.6-3.3,1.5C50.4,28.2,49.2,26.5,49.2,26.2z"/>
			<path class="st3" d="M51.9,21.9c-0.1-1.5-0.2-3-0.3-4.5c0.4,0,0.8-0.1,1.3,0c0.4,0,0.8,0.1,1.2,0.2c-0.1,1.5-0.1,3.1,0,4.7
				c-0.2,0.2-0.5,0.3-0.9,0.3C52.5,22.5,52.2,22.2,51.9,21.9z"/>
			<path class="st2" d="M51,20.8c-0.8-0.4-1.8-1-1.6-2c0.2-0.7,0.9-1.3,2.2-1.4c0.1,1.5,0.2,3,0.3,4.5C51.6,21.5,51.5,21,51,20.8z"
				/>
			<path class="st4" d="M54.1,17.5c1.4,0.3,2.3,1,2.3,1.8c0,1-1.2,1.2-1.4,1.7c-0.2,0.3-0.4,0.9-0.9,1.2C54,20.6,54,19.1,54.1,17.5z
				"/>
			<path class="st5" d="M49.3,22.9c0,0,0.8,1.7,3.8,1.8c2.6,0,3.3-1.2,3.3-1.2"/>
			<path class="st5" d="M53.2,22.5c1.1-0.1,1.5-1,1.8-1.5c0.3-0.5,1.4-0.6,1.4-1.7c0-1-1.4-1.8-3.5-1.9c-2.1-0.1-3.2,0.5-3.4,1.5
				c-0.2,0.9,0.8,1.6,1.6,2C51.8,21.2,51.7,22.5,53.2,22.5z"/>
			<path class="st3" d="M52.9,21.7c-0.3-0.1-0.5-0.3-0.5-0.5c-0.1-0.6-0.3-1-0.9-1.2c-0.5-0.2-1-0.4-1.1-0.8c0.2-0.5,0.5-1,1-1.3
				C52.2,19,52.8,20.2,52.9,21.7z"/>
			<path class="st6" d="M54.1,17.5c0.1,0.1,0.2,0.3,0.3,0.4c0.2,0.1,0.3,0.3,0.5,0.4l0,0l0,0c0.4,0.4,0.6,0.9,0.6,1.5
				c0,0,0,0.1-0.1,0.1c-0.3,0.4-1.1,0.4-1.3,1.3c0,0,0,0.1,0,0.1C54,20,54,18.8,54.1,17.5z"/>
			<path class="st4" d="M52,16.9c0,0.3-0.3,0.7-0.6,1c0,0,0,0,0,0c0.9,1.1,1.4,2.4,1.6,3.8c0.1,0,0.1,0,0.2,0.1
				c0.3,0,0.7-0.2,0.9-0.5c0-1.3,0-2.5,0-3.8c-0.1-0.2-0.2-0.4-0.2-0.7c0-0.1,0.2-1.5,0.2-1.6c-0.6,0-1.7-0.6-2.4-0.6
				C51.7,14.7,52,16.7,52,16.9z"/>
			<path class="st5" d="M54.8,18.3L54.8,18.3c-0.2-0.2-0.3-0.3-0.5-0.5c-0.2-0.3-0.5-0.7-0.5-1.1c0-0.1,0.2-1.5,0.2-1.6
				c-0.6,0-1.7-0.6-2.4-0.6c0.1,0.1,0.3,2.1,0.3,2.2c0,0.3-0.3,0.7-0.6,1c-0.5,0.3-0.8,0.8-1,1.3c0.1,0.5,0.6,0.7,1.1,0.8
				c0.6,0.2,0.8,0.6,0.9,1.2c0,0.2,0.4,0.5,0.8,0.5c0.4,0,0.8-0.2,0.9-0.6c0.2-0.8,1.1-0.9,1.3-1.3c0,0,0.1-0.1,0.1-0.1
				C55.4,19.2,55.2,18.7,54.8,18.3L54.8,18.3z"/>
		</g>
		<g>
			<polygon class="st7" points="66.1,17.3 71.9,19.4 71.8,12.5 66.3,10.8 			"/>
			<path class="st8" d="M43.9,14.3c1.8,0.2,2.9-0.5,2.9-0.5l-4.4-2.1c0,0-0.1,2.1,0.3,2.2C43,14,43.9,14.3,43.9,14.3z"/>
			<path class="st8" d="M60.5,19.1c1.2,0.4,3.5-0.4,3.5-0.4l-3.4-2.4L60.5,19.1z"/>
			<polygon class="st9" points="69.8,19 70,18.2 71.5,16.3 71.1,11.9 72.2,11.7 72.6,17.1 72.3,17.7 72.9,18.7 72.2,19.6 71.7,19.3 
				71.5,18.3 70.3,19 			"/>
			<polygon class="st10" points="72.2,11.4 40.9,2.1 40.4,3.1 71.4,12.5 			"/>
			<line class="st0" x1="71.5" y1="16.3" x2="63.4" y2="13.6"/>
			<line class="st0" x1="70" y1="18.1" x2="61.9" y2="15.4"/>
			<line class="st0" x1="72" y1="19.6" x2="63.9" y2="16.9"/>
			<polygon class="st0" points="70.1,11.4 67.1,18 66.8,17.9 36.1,8.7 39.3,2.3 			"/>
			<polygon class="st1" points="67.1,18 66.5,19.3 66.1,19.1 35.2,9.9 36.2,9.6 36.1,8.7 66.8,17.9 			"/>
			<polygon class="st10" points="66.5,19.3 66.2,20 54.1,16.4 51.7,18.8 47.6,17.6 47.4,14.4 35.1,10.8 35.2,9.9 66.1,19.1 			"/>
			<polygon class="st7" points="44.7,10.5 45.2,9.6 42.4,8.6 40.8,12.2 41.4,12.6 			"/>
			<path class="st10" d="M43.4,14.2c0,0-0.5-0.1-1.4-0.4c-1-0.3-0.8-1.2-0.5-1.9c0.4-0.7,1.2-2.3,1.2-2.3l2.1,0.6
				c0,0-1.3,2.6-1.6,3.1C43,13.9,43.4,14.2,43.4,14.2z"/>
			<polygon class="st7" points="58.6,17.7 58.3,17.1 59.8,13.7 62.4,14.5 62,15.3 			"/>
			<path class="st10" d="M60.5,19.1l0.1-0.8l1.4-3l-2.1-0.6c0,0-1.1,2.9-1.3,3.1c-0.2,0.2,0.1,0.4,0.4,0.6
				C59.4,18.8,60.5,19.1,60.5,19.1z"/>
			<polygon class="st9" points="70.9,11.9 70.1,11.4 66.8,17.9 66.8,18.6 66.1,19.1 66.2,20 67.5,19 67.5,18.6 69.4,19.2 69.5,18.3 
				68.4,16.8 			"/>
		</g>
	</g>
	<path class="st11" d="M52.1,28.1c0.1,0.2,0.4,0.3,0.7,0.3c0.3,0,0.6-0.1,0.7-0.3"/>
	<g>
		<path class="st10" d="M54.3,90l0.8-9.5l-6.5-1.4l-0.1,2l-0.9,3.2l0.3,7c2.4,0.3,4.7,0.3,7.3,0.3L54.3,90z"/>
		<path class="st7" d="M53.2,104.1c0,0.2,0,0.4,0,0.4l0,0.3l0,0v-0.3l-0.8,0.3v0l0.3-0.2c0,0,0.5-1.6-0.5-1.4
			c-1.1,0.2-1.8-0.6-1.8-2.6c0-1.3,1.1-4.7,1.8-6.8c0.2,0,0.4,0.1,0.6,0.1l0,0c-0.6,1.8-1.1,3.1-1.6,5.2c-0.8,3.5,0.6,3.3,1.5,3.5
			c0.2,0,0.3,0.1,0.4,0.2v0l0,1.5C53.1,104.5,53.2,104.3,53.2,104.1z"/>
		<path class="st7" d="M56.7,94.6l-0.3,2.6l-0.3,3l-0.1,0.8l-1.1,0.8l-0.9,0.6l-0.4,1.8v0l-0.1,0.5l-0.1,0l-0.4,0l0-0.3
			c0,0,0-0.2,0-0.4c0,0.2-0.1,0.4-0.1,0.4l0-1.5c0.1,0.1,0.2,0.3,0.2,0.5c0-0.2,0-0.4,0-0.6c0-1.7,1.3-1.9,1.6-3.3
			c0.2-1.2,0.7-3.7,0-4.5c-0.7-0.8-1.5-0.9-1.9-1c0,0-0.1,0-0.2,0c-0.2,0-0.4-0.1-0.6-0.1c-0.7,2.1-1.8,5.4-1.8,6.8
			c0,2,0.7,2.8,1.8,2.6c1.1-0.2,0.5,1.4,0.5,1.4l-0.3,0.2v0l0.8-0.3v0.3l-0.8,0.1l-0.2,0l0,0l-1.5-0.9l-0.1-0.1h0l-0.5-0.3l-1.6-1v0
			l-0.1-2.8l-0.1-3.4l-0.2-5.1c0.8,0.1,1.6,0.2,2.3,0.2c0.2,0,0.3,0,0.5,0c0.2,0,0.3,0,0.5,0c0.6,0,1.1,0,1.7,0h0c0.5,0,1,0,1.6,0
			h0.6L56.7,94.6z"/>
		<polygon class="st7" points="52.4,103.6 52.3,104.8 52.3,104.8 52.3,104.9 52.3,105.6 51.8,105.5 51.8,105.5 43.4,103.5 
			43.4,103.1 43.3,102.2 43.3,101.5 48.3,102.7 49.1,102.8 49.4,102.9 		"/>
		<path class="st3" d="M49.6,85.3l-5.8-1.4c0,0,0.9,3.2,1.2,4.1c0.2,0.7,0.3,1.5,0.2,2.3c1.8,0.4,3.7,0.9,5.5,1.4
			C50.7,89.2,49.6,85.3,49.6,85.3z"/>
		<path class="st2" d="M48.7,99.5c0.5-3.8,2.1-4.7,2.1-7.2c0-0.2,0-0.4,0-0.6c-1.8-0.5-3.7-1-5.5-1.4c-0.1,0.3-0.2,0.6-0.3,0.9
			c-0.5,1.1-2.2,4.3-3.1,5.9c-0.2,0.3-0.3,0.6-0.4,1c2.4,0.6,4.7,1.3,7.1,1.9C48.6,99.8,48.6,99.7,48.7,99.5z"/>
		<path class="st4" d="M48.6,100c-2.4-0.7-4.7-1.3-7.1-1.9c-0.5,1.6-0.3,3.6,1,4c1.6,0.5,8.4,2.1,8.4,2.1S48.4,103.3,48.6,100z"/>
		<path class="st5" d="M43.9,83.9c0,0,0.9,3.2,1.2,4.1c0.3,0.9,0.4,2.1-0.1,3.2c-0.5,1.1-2.2,4.3-3.1,5.9c-0.9,1.7-0.9,4.4,0.7,4.9
			c1.6,0.5,8.4,2.1,8.4,2.1s-2.8-0.8-2.3-4.6c0.5-3.8,2.1-4.7,2.1-7.2c0.1-2.5-1.1-7-1.1-7L43.9,83.9z"/>
		<polygon class="st9" points="42.8,103.2 43.2,103.1 51.8,105 51.8,105.6 51.3,105.7 42.9,104 		"/>
		<path class="st1" d="M56.5,99.8c-0.1,0.1-0.2,0.3-0.3,0.4c-0.4,0.5-0.8,1.1-1.2,1.6c-0.3,0.4-0.5,0.7-0.5,0.7l-0.3,1.6v0l-0.2,1
			l-0.4-0.3l-0.4-0.3c0,0,0-0.2,0-0.4c0,0,0,0,0,0c0-0.2,0-0.3,0-0.6v-0.1c0-0.2,0-0.4,0-0.6c0-1.7,1.3-1.9,1.6-3.3
			c0.2-1.2,0.7-3.7,0-4.5c-0.7-0.8-1.5-0.9-1.9-1c0,0-0.1,0-0.2,0c-0.2,0-0.4-0.1-0.6-0.1c-0.5-0.1-1-0.2-1-0.2l0.1-0.6l0,0
			c0,0,0.5,0.1,1.1,0.2c0.7,0.2,1.7,0.4,2.3,0.7h0c0.3,0.1,0.6,0.3,0.7,0.4c0.3,0.3,0.7,1.5,1,2.7C56.7,98.3,56.8,99.4,56.5,99.8z"
			/>
		<path class="st9" d="M53.1,104.6v0.9c0,0-0.7,0.7-1.3,0.3v-0.3l0-0.5l0.3-0.1l0,0l0.1,0l0.1,0L53.1,104.6z"/>
		<path class="st9" d="M54.1,105.4c-0.7,0.4-1,0.2-1,0.2v-0.1l0-0.7l0-0.3l0.5-0.2l0,0l0.4-0.2l0,0l0.2-0.1l0.1,0
			C54.5,104,54.8,105,54.1,105.4z"/>
		<path class="st1" d="M49.6,91.7c-0.1,0.4-0.3,0.8-0.5,1.2l-1.6-0.4c0,0-1-0.7-0.7-2.7c0.1-0.5,0.2-1,0.3-1.3v0l2.3,0.5
			C49.4,89.1,49.8,90.9,49.6,91.7z"/>
		<path class="st8" d="M47.5,92.6l-0.3,0.9L45,93.1c0,0,1.3-1.9,1.3-2.7c0-0.6-0.1-2-0.1-2l0.9,0.2v0c-0.1,0.3-0.2,0.7-0.3,1.3
			C46.5,91.9,47.5,92.6,47.5,92.6z"/>
		<path class="st12" d="M49.1,93c-0.2,0.5-0.4,0.8-0.4,0.8l-1.4-0.3l-0.1,0l0.3-0.9L49.1,93z"/>
		<polygon class="st0" points="47.2,93.5 47.1,93.6 47.2,93.5 		"/>
		<path class="st0" d="M47.7,87.7"/>
		<polyline class="st0" points="48.4,84.4 49.4,81.2 49.4,79.1 		"/>
		<path class="st0" d="M53.1,88.3c0,0-0.7-0.1-1.1,0.1"/>
		<path class="st0" d="M53,87.9c-0.2-0.2-0.7-0.6-1.4-0.5"/>
		<path class="st7" d="M54.8,99.6c-0.2,1.4-1.6,1.6-1.6,3.3c0,0.2,0,0.4,0,0.6c0-0.2-0.1-0.3-0.2-0.5v0c-0.1-0.1-0.2-0.2-0.4-0.2
			c-0.9-0.2-2.3,0-1.5-3.5c0.5-2.1,1-3.4,1.6-5.2l0,0c0.1,0,0.1,0,0.2,0c0.4,0.1,1.2,0.2,1.9,1C55.5,95.9,55,98.4,54.8,99.6z"/>
		<path class="st0" d="M53.3,103.5L53.3,103.5c0,0.3,0,0.5,0,0.6c0,0,0,0,0,0c0,0.2-0.1,0.4-0.1,0.4l0-1.5
			C53.2,103.1,53.2,103.3,53.3,103.5z"/>
		<path class="st9" d="M57.2,93.1c-0.5-0.9-1.7-2.1-1.8-8.1c0-1.6,0.1-3,0.2-3.6c0.2-0.8,0.2-1.2,0.2-1.2l-2.6-0.7
			c-0.1-0.3-0.2-0.7,0-0.9c0,0,0,0,0,0c0.4-0.2,0.7-0.6,0.7-1c0-0.6-0.6-1.1-1.3-1.1c-0.7,0-1.3,0.5-1.3,1.1c0,0.3,0.1,0.5,0.3,0.7
			c0.1,0.2,0,0.6-0.2,0.8l-2.2-0.6l-0.7,0.6l6.3,1.7c0,0-0.7,0.9-0.8,2.3c-0.1,1.4-1.3,6.6-1.2,7.3c0.1,0.7,0,1.5,0.7,2.3
			c0.7,0.7,2.4,2.2,2.3,3.6c-0.1,1-0.2,4.1-0.9,4.8c-0.7,0.7-1,1.4-1.1,2.2c-0.1,0.7-0.1,1-0.1,1l0.7-0.3c0,0,0.1-1.4,0.7-1.5
			c0.5-0.1,2.6-1.1,2.6-3.9S57.7,93.9,57.2,93.1z"/>
		<path class="st9" d="M52.9,91.3c0,0.1,0,0.2,0,0.3c0,0.3,0,0.5-0.1,0.6c0,0.1-0.2,0.5-0.4,1.1c-0.1,0.2-0.1,0.4-0.2,0.6
			c-0.7,2.1-1.8,5.4-1.8,6.8c0,2,0.7,2.8,1.8,2.6c1.1-0.2,0.5,1.4,0.5,1.4l-0.3,0.2l-0.1,0l-0.1,0.1c0,0,0,0,0,0
			c0-0.1,0.2-0.7-0.7-0.7c-0.3,0-0.5-0.1-0.8-0.2c-0.1,0-0.1,0-0.2-0.1c-0.2-0.1-0.3-0.2-0.5-0.3c-0.3-0.2-0.6-0.5-0.8-0.8
			c-0.2-0.3-0.4-0.5-0.5-0.8c-0.5-1.3-0.7-3.3,0.5-6c0.7-1.4,1-3,1.1-4.5c0.1-1.4,0-2.7,0-3.4c-0.1-0.6-0.2-1.2-0.3-1.7
			c0-0.1,0-0.1,0-0.2c0-0.2-0.1-0.3-0.1-0.5c0,0,0,0,0,0c-0.1-0.3-0.1-0.5-0.1-0.5l-5.8-1.4l0.9-0.7l5.6,1.4c0,0,2.3,5.4,2.5,5.7
			c0,0.1,0.1,0.2,0.1,0.3c0,0,0,0.1,0,0.2C52.9,91,52.9,91.1,52.9,91.3C52.9,91.3,52.9,91.3,52.9,91.3z"/>
		<g>
			<line class="st11" x1="50.4" y1="80.7" x2="53.4" y2="81.4"/>
			<line class="st11" x1="53.2" y1="82.8" x2="50.2" y2="82.1"/>
			<polyline class="st11" points="50.8,83.6 52.9,84.1 52.5,86.2 			"/>
			<line class="st11" x1="49" y1="86.3" x2="45.4" y2="85.5"/>
			<line class="st11" x1="48.8" y1="87.6" x2="46" y2="87"/>
			<path class="st11" d="M47.5,101.4c0,0-0.5-1.8,0.1-3.6c0.6-1.8,1.1-2.8,1.1-2.8"/>
			<path class="st11" d="M42.3,100.3c0,0-0.3-1.5,0.6-2.9c0.9-1.4,1.8-3.2,1.8-3.2"/>
			<path class="st11" d="M55.1,92.2l-0.5-0.6c0,0,0.5-0.7,0.3-1.8c-0.2-1.1-0.9-1.3-0.9-1.3"/>
			<path class="st11" d="M51.3,93.3l0.3-1c0,0-0.7-0.7-0.7-2c0-1.3,0.3-1.3,0.3-1.3"/>
			<path class="st11" d="M51.9,78.2c0.1,0.1,0.3,0.2,0.6,0.2c0.2,0,0.5-0.1,0.6-0.2"/>
		</g>
	</g>
	<path class="st11" d="M53.4,29.8c-0.1-0.2-0.4-0.3-0.7-0.4c-0.3,0-0.6,0.1-0.8,0.2"/>
	<path class="st11" d="M49.4,22.9c0,0,0.8,1.7,3.8,1.7c2.6,0,3.3-1.2,3.3-1.2"/>
	<g>
		<path class="st2" d="M48.9,76.6l0.2-7.5l2.5,0c0.2,3.1,0.3,6.3,0.3,9.5C49.7,78.3,48.9,76.9,48.9,76.6z"/>
		<path class="st3" d="M51.8,78.6c0-3.2-0.1-6.4-0.3-9.5l2.3,0c0,3.1,0.1,6.3,0.5,9.4c-0.4,0.1-0.9,0.2-1.5,0.2
			C52.5,78.7,52.1,78.7,51.8,78.6z"/>
		<path class="st4" d="M56.3,69.2l0,7.9c0,0-0.4,1.1-2,1.5c-0.3-3.1-0.5-6.3-0.5-9.4L56.3,69.2z"/>
		<path class="st5" d="M48.9,76.6l0.2-7.5l7.3,0.1l0,7.9c0,0-0.6,1.7-3.4,1.6C50,78.7,48.9,77,48.9,76.6z"/>
		<path class="st3" d="M51.7,72.2c-0.1-1.6-0.2-3.2-0.3-4.7c0.4,0,0.8-0.1,1.3,0c0.4,0,0.8,0.1,1.2,0.2c-0.1,1.6-0.1,3.2,0,4.9
			c-0.2,0.2-0.5,0.3-0.9,0.3C52.3,72.8,51.9,72.5,51.7,72.2z"/>
		<path class="st2" d="M50.7,71c-0.8-0.4-1.9-1.1-1.7-2c0.2-0.8,1-1.3,2.3-1.5c0.2,1.6,0.3,3.2,0.3,4.7C51.3,71.7,51.2,71.2,50.7,71
			z"/>
		<path class="st4" d="M53.9,67.5c1.5,0.3,2.4,1,2.4,1.9c0,1.1-1.2,1.2-1.5,1.7c-0.2,0.3-0.4,0.9-0.9,1.3
			C53.8,70.8,53.8,69.2,53.9,67.5z"/>
		<path class="st5" d="M48.9,73.2c0,0,0.9,1.8,4,1.9c2.7,0,3.5-1.2,3.5-1.2"/>
		<path class="st5" d="M53,72.7c1.2-0.1,1.6-1.1,1.8-1.6c0.3-0.5,1.4-0.7,1.5-1.7c0-1.1-1.5-1.9-3.6-2c-2.2-0.1-3.4,0.6-3.6,1.6
			c-0.2,1,0.9,1.7,1.7,2C51.5,71.4,51.4,72.8,53,72.7z"/>
		<path class="st3" d="M52.7,71.9c-0.3-0.1-0.5-0.3-0.6-0.5c-0.1-0.6-0.4-1.1-1-1.3c-0.5-0.2-1.1-0.4-1.2-0.9c0.2-0.5,0.6-1,1-1.3
			C52,69.1,52.6,70.4,52.7,71.9z"/>
		<path class="st6" d="M53.9,67.5c0.1,0.1,0.2,0.3,0.3,0.4c0.2,0.1,0.4,0.3,0.5,0.5l0,0l0,0c0.4,0.4,0.6,1,0.7,1.5
			c0,0,0,0.1-0.1,0.1c-0.3,0.4-1.2,0.5-1.4,1.3c0,0,0,0.1,0,0.1C53.8,70.2,53.8,68.8,53.9,67.5z"/>
		<path class="st4" d="M51.7,66.9c0,0.4-0.3,0.8-0.6,1c0,0,0,0,0,0c0.9,1.1,1.5,2.5,1.7,4c0.1,0,0.2,0.1,0.2,0.1
			c0.3,0,0.7-0.2,0.9-0.5c0-1.3,0-2.7,0-4c-0.1-0.2-0.2-0.5-0.2-0.7C53.7,66.7,51.7,66.7,51.7,66.9z"/>
		<path class="st5" d="M53.7,66.8"/>
		<path class="st5" d="M51.7,66.9c0,0.4-0.3,0.8-0.6,1c-0.5,0.3-0.9,0.8-1.1,1.4c0.1,0.5,0.6,0.7,1.2,0.9c0.6,0.2,0.9,0.6,1,1.3
			c0,0.2,0.4,0.5,0.8,0.6c0.4,0,0.8-0.2,0.9-0.6c0.2-0.9,1.1-0.9,1.4-1.3c0,0,0.1-0.1,0.1-0.1c-0.1-0.6-0.3-1.1-0.7-1.5l0,0l0,0
			c-0.2-0.2-0.3-0.3-0.5-0.5c-0.3-0.3-0.5-0.7-0.5-1.1"/>
		<path class="st5" d="M51.7,66.9"/>
	</g>
</g>
<g>
	<path class="st4" d="M52.7,46.6c-0.3,0-0.6,0-0.8-0.1c-0.2,1.9-0.6,3.9-0.8,5.8c0.5,0.1,1.1,0.2,1.7,0.2c0.7,0,1.3-0.1,1.8-0.3
		c-0.3-1.9-0.6-3.9-1-5.8C53.2,46.6,53,46.6,52.7,46.6z"/>
	<path class="st6" d="M56.3,50.6L56.2,50l0,0l-1.2-4.6c0,0.5-0.6,1-1.4,1.2c0.4,1.9,0.7,3.9,1,5.8C55.6,52,56.3,51.3,56.3,50.6z"/>
	<path class="st3" d="M50.4,45.4L49.2,50l0,0L49,50.6c0,0.8,0.8,1.4,2,1.8c0.3-1.9,0.6-3.9,0.8-5.8C51,46.3,50.4,45.9,50.4,45.4z"/>
	<g>
		<path class="st5" d="M56.3,50.6c0,1.1-1.6,2-3.6,2c-2,0-3.7-0.9-3.7-2l0.2-0.6l0,0l1.2-4.6c0,0.7,1,1.3,2.3,1.3s2.2-0.6,2.2-1.3
			l1.2,4.6l0,0L56.3,50.6z"/>
	</g>
</g>
</svg>
