<?xml version="1.0" encoding="utf-8"?>
<!-- Generator: Adobe Illustrator 21.1.0, SVG Export Plug-In . SVG Version: 6.00 Build 0)  -->
<svg version="1.1" id="Layer_1" xmlns="http://www.w3.org/2000/svg" xmlns:xlink="http://www.w3.org/1999/xlink" x="0px" y="0px"
	 width="108px" height="108px" viewBox="0 0 108 108" style="enable-background:new 0 0 108 108;" xml:space="preserve">
<style type="text/css">
	.st0{fill:#CCCCCC;stroke:#231F20;stroke-width:0.75;stroke-linejoin:round;}
	.st1{fill:#FFFFFF;stroke:#231F20;stroke-width:0.75;}
	.st2{fill:none;stroke:#231F20;stroke-width:0.75;}
	.st3{fill:#B3B3B3;stroke:#231F20;stroke-width:0.75;stroke-linejoin:round;}
	.st4{fill:none;stroke:#999999;stroke-width:0.5;}
	.st5{fill:url(#SVGID_1_);stroke:#231F20;stroke-width:0.75;stroke-linecap:round;}
</style>
<g>
	<path class="st0" d="M96.8,86.6c0,0.4-0.1,0.7-0.3,1.2c-0.7,2-4,2.2-6.2,2.8c-2.2,0.6-34.1,8.7-37.8,9.4c-3.7,0.7-7,0.3-8.9-0.4
		c-1.5-0.5-12.6-5-13.7-5.8c-0.8-0.7-1.1-1.4-1.3-2.4c0-0.2-0.1-1-0.2-2.3c0,0.4,0.1,1.8-0.4,2.3c-0.5,0.6-0.9,0.6-1.9,0.5
		c-0.8-0.1-3.3-1.3-4.4-1.8c-1.1-0.5-9.5-4.1-10-4.6c-0.3-0.3-0.6-1.2-0.6-2h0.1c0,0,14.6,6.7,14.9,6.5c0.3-0.2-0.1-11.1-0.1-11.1
		s0-0.1,0-0.4c-0.1-5.2-1.6-59.4-1.6-60c0-1.2,1.1-2,2.2-2.1c0,0,0,0,0,0c0.1,0,0.1,0,0.2,0c1.2,0,2,0.6,2.2,1.7
		c0.3,1.1,0.4,6.4,0.4,8.3c0,2,0.4,17.6,0.4,20.7s0.8,39.5,0.8,42.7c0,0.3,0.1,0.6,0.1,0.9c0,0.1,0.1,0.2,0.1,0.3
		c0.6,1.5,2.2,2.1,2.6,2.3c0.5,0.2,9.9,4.2,12.1,4.7c2.2,0.5,5.6,0.1,6.9-0.2c1.3-0.3,20.9-5.5,27.2-6.8
		C85.8,89.8,96.1,86.9,96.8,86.6z"/>
	<path class="st1" d="M96.8,86.6c-0.7,0.2-11,3.2-17,4.5C73.5,92.5,54,97.7,52.6,98c-1.4,0.2-4.7,0.7-6.9,0.2
		c-2.2-0.5-11.6-4.5-12.1-4.7c-0.4-0.1-2-0.8-2.6-2.3c-0.1-0.3-0.2-0.7-0.2-1.2c-0.1-3.2-0.8-39.6-0.8-42.7s-0.4-18.7-0.4-20.7
		c0-2-0.1-7.2-0.4-8.3c-0.2-1.1-1-1.7-2.2-1.7c-0.1,0-0.1,0-0.2,0c1.6-0.3,38.8-7.6,40.7-7.7c2-0.1,10.3-1.8,11.4-1.2
		c1.1,0.6,1.7,2,1.7,2.6c0,0.6,0.4,13,0.4,13s1.3,51.5,1.3,53.7c0,0.4,0.1,0.8,0.2,1.1c0.5,1.3,2,1.6,3.1,2.1
		c1.4,0.6,8.7,3.8,9.8,4.3C96.2,84.8,96.9,85.5,96.8,86.6z"/>
	<path class="st2" d="M96.9,86.6C96.9,86.6,96.8,86.6,96.9,86.6"/>
	<path class="st3" d="M26.2,90.3c-0.3,0.2-14.9-6.5-14.9-6.5h-0.1c0-0.4,0.1-0.8,0.2-1c0.5-0.6,1.7-0.7,3.3-1.1
		c1.6-0.4,11.2-3,11.2-3h0.2c0,0.3,0,0.4,0,0.4S26.5,90.1,26.2,90.3z"/>
	<line class="st4" x1="79.9" y1="76" x2="77.9" y2="12"/>
	<path class="st4" d="M72.1,74.2c0,0-7.3-3.2-8.6-3.3s-5.1,0.9-7.1,1.2c-2,0.4-22.8,5.1-22.8,5.1"/>
	<line class="st4" x1="32.9" y1="88.6" x2="76.4" y2="78"/>
	<line class="st4" x1="32.4" y1="90.9" x2="80.3" y2="79.1"/>
	<linearGradient id="SVGID_1_" gradientUnits="userSpaceOnUse" x1="26.7205" y1="55.3786" x2="28.3641" y2="55.3786">
		<stop  offset="0" style="stop-color:#FFFFFF"/>
		<stop  offset="1" style="stop-color:#C6D5ED"/>
	</linearGradient>
	<line class="st5" x1="28.4" y1="89.3" x2="26.7" y2="21.5"/>
</g>
</svg>
