<?xml version="1.0" encoding="utf-8"?>
<!-- Generator: Adobe Illustrator 21.1.0, SVG Export Plug-In . SVG Version: 6.00 Build 0)  -->
<svg version="1.1" id="Layer_1" xmlns="http://www.w3.org/2000/svg" xmlns:xlink="http://www.w3.org/1999/xlink" x="0px" y="0px"
	 width="108px" height="108px" viewBox="0 0 108 108" style="enable-background:new 0 0 108 108;" xml:space="preserve">
<style type="text/css">
	.st0{fill:#F2F2F2;stroke:#000000;stroke-width:0.75;stroke-linecap:round;stroke-linejoin:round;stroke-miterlimit:10;}
	.st1{fill:#FFFFFF;}
	.st2{fill:#F2F2F2;}
	.st3{fill:none;stroke:#000000;stroke-width:0.75;stroke-linecap:round;stroke-linejoin:round;stroke-miterlimit:10;}
	.st4{fill:#E6E6E6;stroke:#000000;stroke-width:0.75;stroke-linecap:round;stroke-linejoin:round;stroke-miterlimit:10;}
	.st5{fill:none;stroke:#000000;stroke-width:0.5;stroke-linecap:round;stroke-linejoin:round;stroke-miterlimit:10;}
	.st6{fill:#CCCCCC;stroke:#000000;stroke-width:0.5;stroke-linecap:round;stroke-linejoin:round;stroke-miterlimit:10;}
	.st7{fill:none;stroke:#000000;stroke-width:0.25;stroke-linecap:round;stroke-linejoin:round;stroke-miterlimit:10;}
</style>
<g>
	<path class="st0" d="M88.7,6.3c-0.6-0.4-1.5-0.1-2.1,0c-1.6,0.2-3.2,0.4-4.8,0.6C76.2,7.5,70.6,8.2,65,8.9
		c-12.3,1.5-24.5,3-36.8,4.5c-1.7,0.2-3.3,0.4-5,0.6c-1.5,0.2-2.5-1-3.8-1.7c0.6-0.8,1.5-0.7,2.4-0.9c1.7-0.2,3.3-0.4,5-0.6
		c5.8-0.7,11.7-1.5,17.5-2.2c12.1-1.5,24.2-3,36.2-4.5c1-0.1,2.1-0.4,3.1-0.4C85.6,3.8,87.4,5,88.7,6.3z"/>
	<path class="st1" d="M89.1,14.3c0-1.8,0-3.6,0-5.4c0-0.6,0.1-1.4,0-2c-0.3-1.1-1.4-0.8-2.2-0.7c-1.7,0.2-3.4,0.4-5.1,0.6
		c-13.8,1.7-27.7,3.4-41.5,5.1c-5.2,0.6-10.4,1.3-15.6,1.9c-0.7,0.1-1.9,0-2.5,0.4c-0.6,0.4-0.5,1.4-0.5,2.1
		c-0.1,10.6-0.1,21.2-0.2,31.8c-0.1,12.1-0.2,24.2-0.2,36.4c22.2-17.6,46.1-33.1,68-51.2C89.1,27,89.1,20.6,89.1,14.3z"/>
	<path class="st2" d="M89.1,55.2c0-7.3,0-14.6,0-21.9c-21.9,18.1-45.8,33.6-68,51.2c0,2.3,0,4.5,0,6.8c0,3.9,0,7.8-0.1,11.7
		c0,1.3,0,1.3,1.5,1.3c1.7,0,3.5-0.5,5.1-0.8c9.7-1.7,19.3-3.5,29-5.2c7.3-1.3,14.6-2.6,21.8-3.9c2.6-0.5,5.3-1,7.9-1.4
		c1.1-0.2,2.7,0,2.8-1.6c0-0.7,0-1.3,0-2C89.2,77.9,89.2,66.5,89.1,55.2z"/>
	<path class="st3" d="M89.2,91.3c-0.1,1.5-1.7,1.4-2.8,1.6c-2.6,0.5-5.3,1-7.9,1.4c-7.3,1.3-14.6,2.6-21.8,3.9
		c-9.7,1.7-19.3,3.5-29,5.2c-1.7,0.3-3.4,0.8-5.1,0.8c-1.5,0-1.5-0.1-1.5-1.3c0-3.9,0-7.8,0.1-11.7c0.1-14.4,0.2-28.7,0.3-43.1
		c0.1-10.6,0.1-21.2,0.2-31.8c0-0.7-0.2-1.6,0.5-2.1c0.6-0.4,1.8-0.3,2.5-0.4c5.2-0.6,10.4-1.3,15.6-1.9c13.8-1.7,27.7-3.4,41.5-5.1
		c1.7-0.2,3.4-0.4,5.1-0.6c0.9-0.1,1.9-0.4,2.2,0.7c0.1,0.6,0,1.4,0,2c0,1.8,0,3.6,0,5.4c0,13.6,0,27.2,0,40.8c0,11.4,0,22.8,0,34.2
		C89.2,90,89.2,90.7,89.2,91.3z"/>
	<path class="st4" d="M21,104c-3-1-2.1-5.8-2.1-8.2c0-6.9,0-13.7,0-20.6c0-17.1,0.1-34.1,0.1-51.2c0-2.8,0-5.6,0-8.4
		c0-1-0.3-2.6,0.3-3.5c1,0.6,2,1.2,3,1.8c-1,0.3-0.8,1.7-0.8,2.5c0,2,0,3.9,0,5.9c0,7-0.1,13.9-0.1,20.9
		c-0.1,16.4-0.2,32.9-0.3,49.3C21.1,96.4,21.1,100.2,21,104z"/>
	<g>
		<line class="st5" x1="87.3" y1="8" x2="87.3" y2="84"/>
		<g>
			<path class="st5" d="M66.3,95.7c0-1.6-0.1-1.5,1.3-1.7c1.8-0.3,3.6-0.6,5.4-1c2.9-0.5,5.9-1.1,8.8-1.6"/>
			<path class="st5" d="M67.1,96.3c0-0.6-0.1-0.9,0.2-1.2c0.3-0.2,1.3-0.2,1.7-0.3c2.1-0.4,4.1-0.8,6.2-1.1c3.3-0.6,6.7-1.2,10-1.8"
				/>
			<line class="st5" x1="66.3" y1="95.7" x2="47.1" y2="99.2"/>
			<path class="st5" d="M45.8,99c0-0.3,0-0.5,0-0.8c-7.5,1.4-15,2.8-22.5,4.2"/>
			<path class="st5" d="M47.1,99.9c0-0.4,0-0.8,0-1.1c-7,1.3-14,2.5-20.9,3.8"/>
		</g>
		<path class="st5" d="M49.1,12.5c0.2,2.1,2.3,3.7,4.4,3.2"/>
		<path class="st5" d="M50.1,12.1c1.8,4.5,8.4,3.8,9.4-0.8"/>
	</g>
	<path class="st6" d="M23.4,13c-0.4-0.2-0.7-0.4-1.1-0.7c7.3-0.9,14.6-1.8,22-2.7c11.1-1.4,22.2-2.8,33.3-4.2
		c1.6-0.2,3.2-0.4,4.8-0.6c1.2-0.2,1.9,0.1,3.1,0.5c-7,0.9-14,1.7-21,2.6c-11.1,1.4-22.3,2.8-33.4,4.2C28.6,12.4,26,12.7,23.4,13z"
		/>
	<g>
		<g>
			<line class="st7" x1="70" y1="87.3" x2="69.3" y2="86.7"/>
			<line class="st7" x1="70.5" y1="90.1" x2="68.3" y2="88.1"/>
			<line class="st7" x1="67.7" y1="89.9" x2="65.1" y2="87.4"/>
			<line class="st7" x1="64.4" y1="89" x2="63" y2="87.8"/>
			<line class="st7" x1="67" y1="91.4" x2="66.1" y2="90.6"/>
			<line class="st7" x1="61" y1="88.2" x2="60.9" y2="88.1"/>
			<line class="st7" x1="64.9" y1="91.8" x2="62.7" y2="89.8"/>
			<line class="st7" x1="62.1" y1="91.6" x2="59.3" y2="88.9"/>
			<line class="st7" x1="58.8" y1="90.7" x2="56.8" y2="88.9"/>
			<line class="st7" x1="60.7" y1="92.5" x2="60.5" y2="92.3"/>
			<line class="st7" x1="55.4" y1="89.9" x2="54.7" y2="89.2"/>
			<line class="st7" x1="58.7" y1="92.9" x2="57.1" y2="91.5"/>
			<line class="st7" x1="56.5" y1="93.2" x2="53.7" y2="90.6"/>
			<line class="st7" x1="53.2" y1="92.4" x2="50.5" y2="89.9"/>
			<line class="st7" x1="49.8" y1="91.6" x2="48.4" y2="90.3"/>
			<line class="st7" x1="52.4" y1="94" x2="51.5" y2="93.1"/>
			<line class="st7" x1="46.4" y1="90.7" x2="46.3" y2="90.7"/>
			<line class="st7" x1="50.3" y1="94.4" x2="48.1" y2="92.3"/>
			<line class="st7" x1="47.5" y1="94.1" x2="44.7" y2="91.5"/>
			<line class="st7" x1="44.2" y1="93.3" x2="42.1" y2="91.4"/>
			<line class="st7" x1="40.8" y1="92.4" x2="40.5" y2="92.2"/>
			<line class="st7" x1="44.1" y1="95.5" x2="42.5" y2="94"/>
			<line class="st7" x1="41.9" y1="95.8" x2="40.6" y2="94.6"/>
			<line class="st7" x1="68.7" y1="91.1" x2="70.5" y2="89.1"/>
			<line class="st7" x1="66.2" y1="91.6" x2="70.5" y2="86.8"/>
			<line class="st7" x1="63.8" y1="92" x2="68.3" y2="86.9"/>
			<line class="st7" x1="61.3" y1="92.4" x2="65.9" y2="87.3"/>
			<line class="st7" x1="58.9" y1="92.9" x2="63.5" y2="87.7"/>
			<line class="st7" x1="56.5" y1="93.3" x2="61.1" y2="88.1"/>
			<line class="st7" x1="54" y1="93.7" x2="58.6" y2="88.5"/>
			<line class="st7" x1="51.6" y1="94.2" x2="56.2" y2="89"/>
			<line class="st7" x1="49.2" y1="94.6" x2="53.8" y2="89.4"/>
			<line class="st7" x1="46.7" y1="95" x2="51.4" y2="89.8"/>
			<line class="st7" x1="44.3" y1="95.5" x2="48.9" y2="90.2"/>
			<line class="st7" x1="41.8" y1="95.9" x2="46.5" y2="90.6"/>
			<line class="st7" x1="40.6" y1="94.9" x2="44.1" y2="91"/>
			<line class="st7" x1="40.5" y1="92.7" x2="41.7" y2="91.5"/>
			<polyline class="st7" points="40.5,91.7 39.9,91.6 40,95.7 40.7,96.1 			"/>
			<polygon class="st7" points="40.7,96.1 70.5,90.8 70.5,86.5 40.5,91.7 			"/>
		</g>
		<g>
			<line class="st7" x1="69.3" y1="20.1" x2="67.1" y2="17.9"/>
			<line class="st7" x1="66.6" y1="19.7" x2="64" y2="17.1"/>
			<line class="st7" x1="63.2" y1="18.7" x2="61.9" y2="17.4"/>
			<line class="st7" x1="65.8" y1="21.2" x2="64.9" y2="20.4"/>
			<line class="st7" x1="63.8" y1="21.5" x2="61.5" y2="19.3"/>
			<line class="st7" x1="61" y1="21.1" x2="58.2" y2="18.3"/>
			<line class="st7" x1="57.6" y1="20.1" x2="55.6" y2="18.1"/>
			<line class="st7" x1="59.6" y1="22" x2="59.3" y2="21.7"/>
			<line class="st7" x1="54.2" y1="19.1" x2="53.5" y2="18.4"/>
			<line class="st7" x1="57.5" y1="22.3" x2="55.9" y2="20.7"/>
			<line class="st7" x1="55.4" y1="22.5" x2="52.6" y2="19.7"/>
			<line class="st7" x1="52" y1="21.5" x2="49.3" y2="18.9"/>
			<line class="st7" x1="48.6" y1="20.5" x2="47.3" y2="19.1"/>
			<line class="st7" x1="51.3" y1="23" x2="50.3" y2="22.1"/>
			<line class="st7" x1="45.3" y1="19.5" x2="45.2" y2="19.4"/>
			<line class="st7" x1="49.2" y1="23.3" x2="47" y2="21.1"/>
			<line class="st7" x1="46.4" y1="22.9" x2="43.6" y2="20.1"/>
			<line class="st7" x1="43" y1="21.9" x2="41" y2="19.9"/>
			<line class="st7" x1="45" y1="23.8" x2="44.7" y2="23.5"/>
			<line class="st7" x1="39.6" y1="20.8" x2="39.4" y2="20.6"/>
			<line class="st7" x1="42.9" y1="24.1" x2="41.3" y2="22.5"/>
			<line class="st7" x1="40.8" y1="24.3" x2="39.5" y2="23"/>
			<line class="st7" x1="67.5" y1="21" x2="69.3" y2="19.1"/>
			<line class="st7" x1="65.1" y1="21.3" x2="69.3" y2="16.8"/>
			<line class="st7" x1="62.6" y1="21.6" x2="67.2" y2="16.7"/>
			<line class="st7" x1="60.2" y1="21.9" x2="64.8" y2="17"/>
			<line class="st7" x1="57.8" y1="22.2" x2="62.3" y2="17.3"/>
			<line class="st7" x1="55.3" y1="22.5" x2="59.9" y2="17.6"/>
			<line class="st7" x1="52.9" y1="22.8" x2="57.5" y2="17.9"/>
			<line class="st7" x1="50.5" y1="23.2" x2="55.1" y2="18.2"/>
			<line class="st7" x1="48" y1="23.4" x2="52.6" y2="18.5"/>
			<line class="st7" x1="45.6" y1="23.7" x2="50.2" y2="18.8"/>
			<line class="st7" x1="43.1" y1="24.1" x2="47.8" y2="19"/>
			<line class="st7" x1="40.7" y1="24.4" x2="45.4" y2="19.3"/>
			<line class="st7" x1="39.5" y1="23.3" x2="42.9" y2="19.6"/>
			<line class="st7" x1="39.4" y1="21.1" x2="40.5" y2="19.9"/>
			<polyline class="st7" points="39.3,20.1 38.7,20 38.8,24.1 39.5,24.5 			"/>
			<polygon class="st7" points="39.5,24.5 69.3,20.8 69.3,16.5 39.3,20.1 			"/>
		</g>
	</g>
</g>
</svg>
