<?xml version="1.0" encoding="utf-8"?>
<!-- Generator: Adobe Illustrator 22.1.0, SVG Export Plug-In . SVG Version: 6.00 Build 0)  -->
<svg version="1.1" id="Layer_1" xmlns="http://www.w3.org/2000/svg" xmlns:xlink="http://www.w3.org/1999/xlink" x="0px" y="0px"
	 width="108px" height="108px" viewBox="0 0 108 108" style="enable-background:new 0 0 108 108;" xml:space="preserve">
<style type="text/css">
	.st0{fill:#E6E6E6;stroke:#000000;stroke-width:0.75;stroke-linecap:round;stroke-linejoin:round;stroke-miterlimit:10;}
	.st1{fill:#B3B3B3;stroke:#000000;stroke-width:0.75;stroke-linecap:round;stroke-linejoin:round;stroke-miterlimit:10;}
	.st2{fill:#CCCCCC;stroke:#000000;stroke-width:0.75;stroke-linecap:round;stroke-linejoin:round;stroke-miterlimit:10;}
	.st3{fill:#FFFFFF;stroke:#000000;stroke-width:0.75;stroke-linecap:round;stroke-linejoin:round;stroke-miterlimit:10;}
	.st4{fill:#F2F2F2;stroke:#000000;stroke-width:0.75;stroke-linecap:round;stroke-linejoin:round;stroke-miterlimit:10;}
	.st5{fill:#F2F2F2;stroke:#000000;stroke-width:0.5;stroke-linecap:round;stroke-linejoin:round;stroke-miterlimit:10;}
	.st6{fill:#E6E6E6;stroke:#000000;stroke-width:0.5;stroke-linecap:round;stroke-linejoin:round;stroke-miterlimit:10;}
</style>
<g>
	<polygon class="st0" points="29.3,46.1 29.3,100 26.5,98.6 26.5,90 11.1,94.4 11.1,98.6 7.5,97.1 7.5,92.3 26.5,86.8 26.5,56.7 
		7.5,48.9 7.5,42.3 10,43.4 10,46.9 26.5,53.9 26.5,44.9 	"/>
	<polygon class="st1" points="26.5,90 26.5,91.9 11.1,98.6 11.1,94.4 	"/>
	<polygon class="st2" points="26.5,83 26.5,86.8 7.5,92.3 	"/>
	<polygon class="st3" points="79.8,8.9 10,43.4 7.5,42.3 77.6,8 	"/>
	<polygon class="st2" points="79.8,8.9 79.8,13 10,46.9 10,43.4 	"/>
	<polygon class="st3" points="99.2,11.4 29.3,46.1 26.5,44.9 86.6,15.4 96.8,10.4 	"/>
	<polygon class="st4" points="99.2,11.4 99.2,15.3 29.3,49.4 29.3,46.1 	"/>
	<polygon class="st2" points="31.5,50.5 31.5,93 29.3,92.3 29.3,49.4 	"/>
	<polygon class="st4" points="100.5,16 44.9,43.8 44.9,43.8 44.9,43.8 44.9,43.8 44.9,43.8 31.5,50.5 29.3,49.4 99.2,15.3 	"/>
	<polygon class="st3" points="100.5,16 100.5,58.8 98.7,59.7 31.5,93 31.5,50.5 44.9,43.8 44.9,43.8 44.9,43.8 44.9,43.8 44.9,43.8 
			"/>
	<polygon class="st0" points="98.7,59.7 98.7,64.5 29.3,100 29.3,92.3 31.5,93 	"/>
	<polygon class="st5" points="86.6,15.4 26.5,44.9 26.5,53.9 10,46.9 79.8,13 	"/>
	<path class="st6" d="M44.9,43.8c-0.5,0.7-13.4,17.8-13.4,23.2V50.5L44.9,43.8z"/>
	<path class="st5" d="M47.6,56.4c0,0-4.4,2.9-8.1,4.1c-3.6,1.3-8.1,6.6-8.1,6.6c0-5.5,12.8-22.5,13.4-23.2h0
		C44.8,44.3,42.8,52.1,47.6,56.4z"/>
</g>
</svg>
