<?xml version="1.0" encoding="utf-8"?>
<!-- Generator: Adobe Illustrator 21.1.0, SVG Export Plug-In . SVG Version: 6.00 Build 0)  -->
<svg version="1.1" id="Layer_1" xmlns="http://www.w3.org/2000/svg" xmlns:xlink="http://www.w3.org/1999/xlink" x="0px" y="0px"
	 width="108px" height="108px" viewBox="0 0 108 108" style="enable-background:new 0 0 108 108;" xml:space="preserve">
<style type="text/css">
	.st0{fill:#F2F2F2;stroke:#000000;stroke-width:0.75;stroke-linecap:round;stroke-linejoin:round;stroke-miterlimit:10;}
	.st1{fill:#FFFFFF;stroke:#000000;stroke-width:0.75;stroke-linecap:round;stroke-linejoin:round;stroke-miterlimit:10;}
	.st2{fill:#B3B3B3;stroke:#000000;stroke-width:0.5;stroke-linecap:round;stroke-linejoin:round;stroke-miterlimit:10;}
	.st3{fill:#E6E6E6;stroke:#000000;stroke-width:0.5;stroke-linecap:round;stroke-linejoin:round;stroke-miterlimit:10;}
	.st4{fill:#F2F2F2;stroke:#000000;stroke-width:0.5;stroke-linecap:round;stroke-linejoin:round;stroke-miterlimit:10;}
	.st5{fill:#FFFFFF;stroke:#000000;stroke-width:0.5;stroke-linecap:round;stroke-linejoin:round;stroke-miterlimit:10;}
	.st6{fill:#CCCCCC;stroke:#000000;stroke-width:0.5;stroke-linecap:round;stroke-linejoin:round;stroke-miterlimit:10;}
	.st7{fill:none;stroke:#000000;stroke-width:0.25;stroke-linecap:round;stroke-linejoin:round;stroke-miterlimit:10;}
</style>
<g>
	<path class="st0" d="M89,46.7c0.3,0.5,0.7,2.4,0.9,5.5l2.4,0.4c-0.1-2.9-1.1-6.5-1.9-7.6c-0.6-0.8-1.3-1.2-2-1.4
		c-2.3-0.6-4.8,1.7-7.9,7.4c-1.7,3.1-3,3.8-3.6,3.4c-0.1,0-0.1-0.1-0.2-0.2c-1.9-2.7-2.5-13.1,2.1-25.8c3.4-9.5,1.8-14.5,0.1-17.1
		c-1.4-2.2-2.6-2.8-3.4-3.2c-4-1.9-10.4,0.1-14.5,8.7c-3.9,8.3-6.2,9.8-7.5,9.9c-0.5,0-1-0.1-1.5-0.2c-0.8-0.2-1,2.8,0.3,2.8
		c0.5,0,1.1,0,1.8-0.1c3.2-0.3,5.8-4,9.2-11c3.4-7.1,8.4-9.3,11.7-7.7c0.5,0.3,1,0.6,1.5,1.1c2.2,2.7,2.9,8,0.2,15.6
		c-4.8,13.4-4.5,25.9-1.4,29.4c0.3,0.4,0.6,0.7,1,0.9c1.4,0.7,4-0.2,6.6-5c3.6-6.7,5.4-6.6,5.7-6.5C88.5,46,88.7,46.2,89,46.7z"/>
	<g>
		<path class="st1" d="M41.6,24.3c0,0,10.3,1,11.1,1.2c0.8,0.1,1.1,1.7,1.1,2.7c0,1-0.4,2.1-1.2,2.1C51.8,30.4,41.7,32,41.7,32
			L41.6,24.3z"/>
		<path class="st1" d="M41.5,24.6l11.2,0.9c0,0,1.1,1.3,1.1,2.7c0,1.4-1.2,2.1-1.2,2.1L41.7,32L41.5,24.6z"/>
		<path class="st1" d="M41.2,24l-8.7,0.4l0.4,8.5l9.1-0.3c0,0,1.9-0.7,1.8-4C43.6,25.2,41.6,23.9,41.2,24z"/>
		<path class="st1" d="M36.9,28.8c0,1.3-1.2,1.9-1.8,2.2c-0.6,0.3-0.7,1.7-2,1.8c-1.2,0.1-2.3-1.6-2.5-4.1c-0.2-2.5,0.5-3.9,1.7-4.2
			c1.1-0.3,2,1,2.4,1.9C35.2,27.2,36.9,27,36.9,28.8z"/>
		<g>
			<polygon class="st2" points="15.5,28.9 9.7,30.7 5.5,28.9 5.4,29.1 5.4,28.7 5.9,28.9 11.2,27.6 15.4,28.6 15.5,28.6 			"/>
			<polygon class="st3" points="28.5,29.6 28.5,29.8 28.2,32.2 22.8,32.6 21.5,32.7 7.1,30.8 5.8,30.6 5.6,30.5 5.6,30.2 5.5,29.7 
				5.4,29.1 5.5,28.9 9.7,30.7 15.5,28.9 15.5,28.6 15.4,28.6 11.2,27.6 5.9,28.9 5.4,28.7 5.4,28.7 12.4,26.5 27,26.1 27.6,27.5 
							"/>
			<path class="st4" d="M23.6,33l-0.8-0.4l-7.3-3.8l-5.8,1.8l-4.2-1.8l-0.1,0.2l-0.2,0.4l-0.1,0.1l0.4,0.6l0.3,0.4l4.4,5.9l1.6,1.1
				l11.8,1.8l0.1,0l0.7,0.1l0.5-1.8L23.6,33z M11.3,36.7l-0.6-2.8l0.7,0.1l0.8,0.1l6.9,1l0.8,2.8L11.3,36.7z"/>
			<polygon class="st4" points="29.2,30.3 28.2,32.2 26.9,26.8 15.5,28.6 15.4,28.6 11.2,27.6 5.9,28.9 5.4,28.7 5.2,28.7 14,25.1 
				28.1,25.4 28.5,27.1 29.1,29.8 			"/>
			<path class="st5" d="M23,34.3l-12.8-1.5l-5-3.3l-0.6-0.4l0.9,5l5.4,3.7l12.9,1.6l0.1,0l0.6,0.1L23,34.3z M11.3,34l0.8,0.1l6.9,1
				l0.8,2.8l-8.5-1.2l-0.6-2.8L11.3,34z"/>
			<polygon class="st6" points="19.8,37.9 11.3,36.7 10.6,33.9 11.3,34 11.8,36 18.2,35.8 18,35 12.1,34.1 19,35.1 			"/>
			<polygon class="st2" points="18.2,35.8 11.8,36 11.3,34 12.1,34.1 18,35 			"/>
			<path class="st4" d="M33.4,26.6c0.3,0.7,0.8,1,1.6,1.1c0.2,0,0.6,0.5,0.7,0.9c0.1,0.5-0.2,1-0.7,1.1c-1,0.3-1,1.4-1.5,1.8
				c0,0-0.1,0.1-0.2,0.1c-0.7,0-1.3-0.3-1.9-0.7l0,0l0,0c-0.2-0.2-0.4-0.4-0.6-0.6c-0.4-0.3-0.8-0.6-1.4-0.5c-0.2,0-0.5,0.1-0.7,0.1
				c-1.4,0.4-1.8-3.5-0.8-2.9c0.5,0.3,1,0.5,1.4,0.4c0.4,0,0.9-0.4,1.2-0.8c0.4-0.6,0.9-1.1,1.6-1.4C32.9,25.3,33.2,25.9,33.4,26.6z
				"/>
			<g>
				<line class="st7" x1="20.8" y1="35.1" x2="21.5" y2="38.2"/>
				<line class="st7" x1="25.8" y1="27.6" x2="26.3" y2="29.6"/>
				<line class="st7" x1="25" y1="30.7" x2="24.3" y2="27.8"/>
				<line class="st7" x1="23.5" y1="31" x2="22.8" y2="28.1"/>
				<polyline class="st7" points="21.5,28.4 21.9,30.2 19.5,29.9 				"/>
				<path class="st7" d="M14.8,26.3c1-0.1,3.1-0.8,3.7,1"/>
				<path class="st7" d="M17.2,30.9c0,0-1.7,1.5-3.4,1.4c-1.8-0.1-3.1-0.6-3.1-0.6"/>
				<path class="st7" d="M30.8,27.7c-0.1,0.5,0,1.3,0.2,1.7"/>
			</g>
		</g>
	</g>
	<g>
		<path class="st1" d="M87.8,63.7c0,0,0.8-10.3,0.9-11.1c0.1-0.8,1.7-1.1,2.7-1.2c1-0.1,2.1,0.4,2.1,1.2c0.1,0.8,1.9,10.9,1.9,10.9
			L87.8,63.7z"/>
		<path class="st1" d="M88.1,63.8l0.6-11.2c0,0,1.2-1.1,2.7-1.2c1.4,0,2.1,1.2,2.1,1.2l1.9,10.9L88.1,63.8z"/>
		<path class="st1" d="M87.5,64.1l0.7,8.6l8.4-0.6L96,63c0,0-0.8-1.9-4.1-1.7C88.7,61.6,87.4,63.6,87.5,64.1z"/>
		<path class="st1" d="M92.5,68.3c1.3,0,1.9,1.1,2.2,1.7c0.3,0.6,1.7,0.7,1.8,1.9c0.1,1.2-1.6,2.3-4.1,2.6c-2.5,0.3-3.9-0.4-4.2-1.6
			c-0.3-1.1,0.9-2,1.8-2.5C90.9,70,90.6,68.3,92.5,68.3z"/>
		<g>
			<polygon class="st2" points="93,89.6 95,95.4 93.3,99.6 93.5,99.7 93.1,99.8 93.4,99.2 91.9,94 92.8,89.8 92.8,89.7 			"/>
			<polygon class="st3" points="93.5,76.6 93.7,76.6 96,76.9 96.6,82.2 96.8,83.6 95.1,98 95,99.2 95,99.5 94.6,99.5 94.1,99.6 
				93.5,99.7 93.3,99.6 95,95.4 93,89.6 92.8,89.7 92.8,89.8 91.9,94 93.4,99.2 93.1,99.8 93.1,99.8 90.8,92.8 90,78.2 91.3,77.6 
							"/>
			<path class="st4" d="M97,81.4l-0.4,0.8L93,89.6l2,5.8l-1.6,4.3l0.2,0.1l0.4,0.2L94,100l0.6-0.5l0.4-0.3l5.8-4.6l1-1.7l1.5-11.8
				l0-0.1l0.1-0.7l-1.9-0.5L97,81.4z M101,93.7l-2.8,0.7l0.1-0.7l0.1-0.8l0.8-6.9l2.8-0.9L101,93.7z"/>
			<polygon class="st4" points="94.1,75.9 96,76.9 90.7,78.3 92.8,89.7 92.8,89.8 91.9,94 93.4,99.2 93.1,99.8 93.1,99.9 89.3,91.3 
				89.3,77.1 91,76.7 93.6,76 			"/>
			<path class="st5" d="M98.2,82l-1.2,12.9l-3.1,5.1l-0.4,0.6l5-1l3.5-5.5l1.3-12.9l0-0.1l0.1-0.6L98.2,82z M98.3,93.7l0.1-0.8
				l0.8-6.9l2.8-0.9l-1,8.6l-2.8,0.7L98.3,93.7z"/>
			<polygon class="st6" points="102,85.1 101,93.7 98.2,94.4 98.3,93.7 100.3,93.2 99.9,86.8 99.1,87 98.4,92.9 99.2,86 			"/>
			<polygon class="st2" points="99.9,86.8 100.3,93.2 98.3,93.7 98.4,92.9 99.1,87 			"/>
			<path class="st4" d="M90.3,71.8c0.7-0.3,1-0.8,1.1-1.6c0-0.2,0.5-0.7,0.9-0.7c0.5-0.1,1,0.2,1.2,0.6c0.3,1,1.4,1,1.8,1.4
				c0,0,0.1,0.1,0.1,0.2c0,0.7-0.3,1.4-0.7,1.9l0,0l0,0c-0.2,0.2-0.4,0.4-0.6,0.6c-0.3,0.4-0.5,0.9-0.5,1.4c0,0.2,0.1,0.5,0.1,0.7
				c0.5,1.4-3.4,1.9-2.9,0.9c0.3-0.5,0.4-1,0.4-1.4c0-0.4-0.5-0.9-0.8-1.2c-0.6-0.3-1.1-0.9-1.4-1.6C89,72.3,89.6,72,90.3,71.8z"/>
			<g>
				<line class="st7" x1="99.2" y1="84.2" x2="102.2" y2="83.4"/>
				<line class="st7" x1="91.5" y1="79.4" x2="93.5" y2="78.9"/>
				<line class="st7" x1="94.6" y1="80.1" x2="91.7" y2="80.9"/>
				<line class="st7" x1="94.9" y1="81.5" x2="92" y2="82.3"/>
				<polyline class="st7" points="92.4,83.7 94.2,83.2 93.9,85.6 				"/>
				<path class="st7" d="M90.5,90.4c-0.1-1-0.9-3,0.9-3.7"/>
				<path class="st7" d="M95,87.9c0,0,1.6,1.6,1.5,3.4c-0.1,1.8-0.5,3.2-0.5,3.2"/>
				<path class="st7" d="M91.5,74.3c0.5,0.1,1.3,0,1.7-0.2"/>
			</g>
		</g>
	</g>
</g>
</svg>
