<?xml version="1.0" encoding="utf-8"?>
<!-- Generator: Adobe Illustrator 21.1.0, SVG Export Plug-In . SVG Version: 6.00 Build 0)  -->
<svg version="1.1" id="Layer_1" xmlns="http://www.w3.org/2000/svg" xmlns:xlink="http://www.w3.org/1999/xlink" x="0px" y="0px"
	 width="108px" height="108px" viewBox="0 0 108 108" style="enable-background:new 0 0 108 108;" xml:space="preserve">
<style type="text/css">
	.st0{fill:#4D4D4D;stroke:#000000;stroke-width:0.25;stroke-linecap:round;stroke-linejoin:round;stroke-miterlimit:10;}
	.st1{fill:#FFFFFF;stroke:#000000;stroke-width:0.25;stroke-linecap:round;stroke-linejoin:round;stroke-miterlimit:10;}
	.st2{fill:#F2F2F2;stroke:#000000;stroke-width:0.25;stroke-linecap:round;stroke-linejoin:round;stroke-miterlimit:10;}
	.st3{fill:#E6E6E6;stroke:#000000;stroke-width:0.25;stroke-linecap:round;stroke-linejoin:round;stroke-miterlimit:10;}
	.st4{fill:#CCCCCC;stroke:#000000;stroke-width:0.25;stroke-linecap:round;stroke-linejoin:round;stroke-miterlimit:10;}
	.st5{fill:#B3B3B3;stroke:#000000;stroke-width:0.25;stroke-linecap:round;stroke-linejoin:round;stroke-miterlimit:10;}
	.st6{fill:#999999;stroke:#000000;stroke-width:0.25;stroke-linecap:round;stroke-linejoin:round;stroke-miterlimit:10;}
	.st7{fill:#FFFFFF;}
	.st8{fill:#F2F2F2;}
	.st9{fill:none;stroke:#000000;stroke-width:0.25;stroke-linecap:round;stroke-linejoin:round;stroke-miterlimit:10;}
</style>
<g>
	<polygon class="st0" points="78.6,2.2 29.6,26.5 28.7,25.9 77.6,1.7 	"/>
	<path class="st1" d="M80.2,2.4l-0.4-0.1c0.1,0,0.2,0,0.2,0L80.2,2.4z"/>
	<path class="st2" d="M80,2.3c-0.1,0-0.2,0-0.2,0c-0.1,0-0.2,0-0.3,0.1l-0.2,0.1L31.7,26.1l-1.1,0.5h0l-0.4,0.2l-0.6-0.3l49-24.3
		l-1-0.4L28.7,25.9h0l-0.5-0.3L77,1.4l0.2-0.1c0.3-0.1,0.5-0.1,0.8,0L80,2.3z"/>
	<path class="st3" d="M30.2,26.8l-0.5,1.4l0.4,78.4l-1.9-1.2c-0.4-0.3-0.7-0.7-0.7-1.2l0.2-77.2c0-0.6-0.1-1.1,0.5-1.4L30.2,26.8z"
		/>
	<g>
		<path class="st1" d="M80.2,2.4L80,2.3c-0.1,0-0.2,0-0.2,0c-0.1,0-0.2,0-0.3,0.1l-0.2,0.1L31.7,26.1l-1.1,0.5h0
			c-0.5,0.3-0.9,0.8-0.9,1.5v77.8c0,0.6,0.7,1,1.2,0.8L79,83.2c0.9-0.4,1.5-1.4,1.5-2.4V3C80.5,2.7,80.4,2.5,80.2,2.4z M79,80.1
			c0,1-0.6,1.9-1.5,2.4l-45,21.9c-0.4,0.2-0.9,0-1.1-0.3c-0.1-0.1-0.1-0.3-0.1-0.4V28.7c0-0.6,0.4-1.2,0.9-1.5L78,4.5
			c0.1-0.1,0.2-0.1,0.3-0.1c0.4,0,0.7,0.3,0.7,0.7V80.1z"/>
		<path class="st4" d="M31.3,28.7v75.4l45.2-22.1c0.9-0.4,1.5-1.4,1.5-2.4V4.5L32.2,27.2C31.7,27.5,31.3,28.1,31.3,28.7z M76.4,79.9
			c0,0.5-0.2,1-0.6,1.3c0,0,0,0,0,0c-0.1,0.1-0.3,0.2-0.4,0.3L35,101.2c-0.2,0.1-0.3,0.1-0.5,0.2c-0.4,0.1-0.9,0-1.3-0.2
			c-0.5-0.3-0.8-0.8-0.8-1.5V29.4c0-0.7,0.4-1.3,1-1.6l40.4-20c0.5-0.3,1.1-0.2,1.6,0c0.6,0.3,1,0.9,1,1.6V79.9z"/>
	</g>
	<path class="st5" d="M79,5.2v75c0,1-0.6,1.9-1.5,2.4L31.3,105v-0.9l45.2-22.1c0.9-0.4,1.5-1.4,1.5-2.4V4.5l0,0
		C78.4,4.3,79,4.6,79,5.2z"/>
	<path class="st6" d="M76.4,9.3v70.5c0,0.5-0.2,1-0.6,1.3c0,0,0,0,0,0c-0.1,0.1-0.3,0.2-0.4,0.3L35,101.2c-0.2,0.1-0.3,0.1-0.5,0.2
		c-0.4,0.1-0.9,0-1.3-0.2L74.5,81c0.6-0.3,1-0.9,1-1.5V7.8C76,8.1,76.4,8.6,76.4,9.3z"/>
	<path class="st7" d="M75.4,7.8c-0.5-0.2-1.1-0.3-1.6,0l-40.4,20c-0.6,0.3-1,0.9-1,1.6V82c12.8-17.7,29.1-32.9,43-49.8V7.8z"/>
	<path class="st8" d="M32.5,82v17.6c0,0.6,0.3,1.2,0.8,1.5L74.5,81c0.6-0.3,1-0.9,1-1.5V32.2C61.6,49.1,45.3,64.2,32.5,82z"/>
	<path class="st9" d="M75.4,7.8v71.7c0,0.7-0.4,1.2-1,1.5l-41.2,20.1c-0.5-0.3-0.8-0.8-0.8-1.5V29.4c0-0.7,0.4-1.3,1-1.6l40.4-20
		C74.4,7.5,75,7.5,75.4,7.8z"/>
</g>
</svg>
