<?xml version="1.0" encoding="utf-8"?>
<!-- Generator: Adobe Illustrator 21.1.0, SVG Export Plug-In . SVG Version: 6.00 Build 0)  -->
<svg version="1.1" id="Layer_1" xmlns="http://www.w3.org/2000/svg" xmlns:xlink="http://www.w3.org/1999/xlink" x="0px" y="0px"
	 width="108px" height="108px" viewBox="0 0 108 108" style="enable-background:new 0 0 108 108;" xml:space="preserve">
<style type="text/css">
	.st0{fill:#FFFFFF;stroke:#000000;stroke-width:0.5;stroke-linecap:round;stroke-linejoin:round;stroke-miterlimit:10;}
	.st1{fill:#F2F2F2;stroke:#000000;stroke-width:0.5;stroke-linecap:round;stroke-linejoin:round;stroke-miterlimit:10;}
	.st2{fill:#CCCCCC;stroke:#000000;stroke-width:0.5;stroke-linecap:round;stroke-linejoin:round;stroke-miterlimit:10;}
	.st3{fill:#FFFFFF;stroke:#000000;stroke-width:0.25;stroke-linecap:round;stroke-linejoin:round;stroke-miterlimit:10;}
	.st4{fill:none;stroke:#000000;stroke-width:0.5;stroke-linecap:round;stroke-linejoin:round;stroke-miterlimit:10;}
	.st5{fill:#FFFFFF;}
	.st6{fill:#F2F2F2;}
	.st7{fill:#E6E6E6;}
	.st8{fill:#CCCCCC;}
	.st9{fill:none;stroke:#000000;stroke-width:0.25;stroke-linecap:round;stroke-linejoin:round;stroke-miterlimit:10;}
</style>
<g>
	<g>
		
			<ellipse transform="matrix(5.492787e-02 -0.9985 0.9985 5.492787e-02 -34.4975 134.8741)" class="st0" cx="54" cy="85.7" rx="21.2" ry="30.7"/>
		<path class="st1" d="M57,78c0-1-1.4-1.9-3.3-2c-1.9-0.1-3.4,0.7-3.4,1.7c0,0.8,0,6.9,0,7.6c0,1,1.4,1.9,3.3,2
			c1.9,0.1,3.4-0.7,3.4-1.7C57,84.9,57,78.7,57,78z"/>
		
			<ellipse transform="matrix(3.669318e-02 -0.9993 0.9993 3.669318e-02 -26.0901 128.6721)" class="st2" cx="53.7" cy="77.9" rx="1.9" ry="3.4"/>
		<path class="st1" d="M50.7,76.3c0,0.6,1.3,1.1,2.9,1.1c1.6,0,2.9-0.5,2.9-1.1c0-0.2,0-10.7,0-21.2c-2.7-0.3-4.3-2.4-5.8-3.2
			C50.7,63.4,50.7,76.1,50.7,76.3z"/>
		<g>
			<line class="st3" x1="51.4" y1="80.1" x2="51.4" y2="85.7"/>
			<line class="st3" x1="52.5" y1="80.4" x2="52.5" y2="86.2"/>
			<line class="st3" x1="54" y1="80.5" x2="54.1" y2="86.4"/>
			<line class="st3" x1="55.5" y1="80.3" x2="55.4" y2="86.2"/>
		</g>
		<g>
			<path d="M46.4,54.3c0.3-0.7,0.8-1.3,1.3-1.8c0.5-0.5,1.2-1,2.1-1c0.9,0,1.5,0.5,2.1,0.9c0.6,0.4,1.2,0.9,1.8,1.3
				c1.2,0.8,2.6,1.3,4.1,1.2c0.7,0,1.5-0.1,2.1-0.5c0.6-0.3,1.1-0.9,1.3-1.7c0,0.8-0.5,1.5-1.1,1.9c-0.7,0.4-1.4,0.6-2.2,0.7
				c-1.5,0.2-3.1-0.3-4.4-1.2c-0.6-0.4-1.2-0.9-1.8-1.4c-0.6-0.5-1.2-0.9-1.9-0.9c-0.7,0-1.4,0.3-1.9,0.8
				C47.3,53.1,46.8,53.7,46.4,54.3z"/>
		</g>
	</g>
	<g>
		<path class="st1" d="M53.6,32.1c-1.6,0-2.9,0.5-2.9,1.1c0,0.2,0,5.1,0,11.5c1.5,0.7,3,2.9,5.8,3.2c0-7.9,0-14.5,0-14.7
			C56.5,32.5,55.2,32.1,53.6,32.1z"/>
		<path class="st2" d="M55.2,32.3L55.2,32.3c0,0-0.5-0.3-0.5-0.6s0.3-0.6,0.3-0.6s-4-0.4-3.2,0.2c0.6,0.5,0.6,0.8,0.3,1
			c-0.8,0.2-1.4,0.5-1.4,0.9c0,0.6,1.3,1.1,2.9,1.1c1.6,0,2.9-0.5,2.9-1.1C56.5,32.8,56,32.5,55.2,32.3z"/>
		<path class="st4" d="M56.5,34.3c0,0.6-1.3,1.1-2.9,1.1c-1.6,0-2.9-0.5-2.9-1.1"/>
		<g>
			<path d="M46.4,47c0.3-0.7,0.8-1.3,1.3-1.8c0.5-0.5,1.2-1,2.1-1c0.9,0,1.5,0.5,2.1,0.9c0.6,0.4,1.2,0.9,1.8,1.3
				c1.2,0.8,2.6,1.3,4.1,1.2c0.7,0,1.5-0.1,2.1-0.5c0.6-0.3,1.1-0.9,1.3-1.7c0,0.8-0.5,1.5-1.1,1.9c-0.7,0.4-1.4,0.6-2.2,0.7
				c-1.5,0.2-3.1-0.3-4.4-1.2c-0.6-0.4-1.2-0.9-1.8-1.4c-0.6-0.5-1.2-0.9-1.9-0.9c-0.7,0-1.4,0.3-1.9,0.8
				C47.3,45.8,46.8,46.4,46.4,47z"/>
		</g>
	</g>
	<g>
		<g>
			<path class="st5" d="M49.8,31.3l0.1-7.4l2.5,0c0.2,3.1,0.3,6.3,0.3,9.4C50.6,33,49.8,31.7,49.8,31.3z"/>
			<path class="st6" d="M52.7,33.3c0-3.2-0.1-6.3-0.3-9.4l2.3,0c0,3.1,0.1,6.2,0.5,9.3c-0.4,0.1-0.9,0.2-1.4,0.2
				C53.4,33.4,53,33.4,52.7,33.3z"/>
			<path class="st7" d="M57.2,24l0,7.8c0,0-0.4,1-2,1.4c-0.3-3.1-0.5-6.2-0.5-9.3L57.2,24z"/>
			<path class="st4" d="M49.8,31.3l0.1-7.4l7.3,0.1l0,7.8c0,0-0.6,1.6-3.4,1.6C50.9,33.4,49.8,31.7,49.8,31.3z"/>
			<path class="st6" d="M52.6,26.9c-0.1-1.6-0.2-3.1-0.3-4.7c0.4,0,0.8-0.1,1.3,0c0.4,0,0.8,0.1,1.2,0.2c-0.1,1.6-0.1,3.2,0,4.8
				c-0.2,0.2-0.5,0.3-0.9,0.3C53.2,27.5,52.8,27.3,52.6,26.9z"/>
			<path class="st5" d="M51.6,25.8c-0.8-0.4-1.9-1-1.7-2c0.2-0.8,0.9-1.3,2.3-1.5c0.2,1.6,0.2,3.1,0.3,4.7
				C52.2,26.5,52.1,26,51.6,25.8z"/>
			<path class="st7" d="M54.8,22.3c1.5,0.3,2.4,1,2.4,1.9c0,1.1-1.2,1.2-1.5,1.7c-0.2,0.3-0.4,0.9-0.9,1.3
				C54.7,25.6,54.7,24,54.8,22.3z"/>
			<path class="st4" d="M49.8,27.9c0,0,0.8,1.8,3.9,1.8c2.7,0,3.4-1.2,3.4-1.2"/>
			<path class="st4" d="M53.9,27.5c1.2-0.1,1.6-1.1,1.8-1.6c0.3-0.5,1.4-0.7,1.5-1.7c0-1.1-1.5-1.9-3.6-2c-2.1-0.1-3.3,0.6-3.6,1.5
				c-0.2,1,0.9,1.7,1.7,2C52.4,26.1,52.3,27.6,53.9,27.5z"/>
			<path class="st6" d="M53.6,26.7c-0.3-0.1-0.5-0.3-0.6-0.5c-0.1-0.6-0.3-1.1-1-1.3c-0.5-0.2-1.1-0.4-1.1-0.9c0.2-0.5,0.6-1,1-1.3
				C52.8,23.9,53.4,25.2,53.6,26.7z"/>
			<path class="st8" d="M54.8,22.3c0.1,0.1,0.2,0.3,0.3,0.4c0.2,0.1,0.4,0.3,0.5,0.5l0,0l0,0c0.4,0.4,0.6,0.9,0.7,1.5
				c0,0,0,0.1-0.1,0.1c-0.3,0.4-1.2,0.4-1.4,1.3c0,0,0,0.1,0,0.1C54.7,24.9,54.7,23.6,54.8,22.3z"/>
			<path class="st7" d="M52.6,21.7c0,0.3-0.3,0.7-0.6,1c0,0,0,0,0,0c0.9,1.1,1.5,2.5,1.6,4c0.1,0,0.2,0.1,0.2,0.1
				c0.3,0,0.7-0.2,0.9-0.5c0-1.3,0-2.6,0-3.9c-0.1-0.2-0.2-0.5-0.2-0.7c0-0.1,0.2-1.5,0.2-1.6c-0.7,0-1.8-0.6-2.5-0.6
				C52.3,19.5,52.6,21.5,52.6,21.7z"/>
			<path class="st4" d="M55.6,23.2L55.6,23.2c-0.2-0.2-0.3-0.3-0.5-0.5c-0.3-0.3-0.5-0.7-0.5-1.1c0-0.1,0.2-1.5,0.2-1.6
				c-0.7,0-1.7-0.6-2.5-0.6c0.1,0.1,0.3,2.2,0.3,2.3c0,0.3-0.3,0.7-0.6,1c-0.5,0.3-0.9,0.8-1.1,1.4c0.1,0.5,0.6,0.7,1.1,0.9
				c0.6,0.2,0.9,0.6,1,1.3c0,0.2,0.4,0.5,0.8,0.5c0.4,0,0.8-0.2,0.9-0.6c0.2-0.9,1.1-0.9,1.4-1.3c0,0,0.1-0.1,0.1-0.1
				C56.2,24.1,55.9,23.6,55.6,23.2L55.6,23.2z"/>
		</g>
	</g>
	<g>
		<path class="st0" d="M64.6,18.5"/>
		<path class="st1" d="M71.3,13.9c0,0-6.2-9.3-17.2-12c-2.3-0.6-4.7-0.5-7.1-0.3c2.8-0.5,5.9-0.8,8.7-0.1C66.7,4.2,73,13.2,73,13.2
			s0,0,0,0.1L71.3,13.9C71.3,13.9,71.3,13.9,71.3,13.9z"/>
		<path class="st0" d="M47,1.6c2.3-0.3,4.8-0.3,7.1,0.3c11,2.7,17.2,12,17.2,12s0,0,0,0.1c0,0.7,0.1,7.6,0.1,8.3
			c0,0.8-0.2,1.8-1,1.5c-0.1,0-0.5-0.2-1.2-0.5c-3.2-1.2-12.4-4.7-20-7.6c-6.2-2.4-11.4-4.4-11.4-4.4V4C37.7,4,42,2.2,47,1.6z"/>
		<path class="st1" d="M35.3,5L35.3,5L70,15.3l-0.2,10.1c-2.3-0.7-31.4-9.2-33.2-9.8C34.9,15,35,14,35,13.2C35,12.5,35.3,5,35.3,5z"
			/>
		<polygon class="st0" points="36.9,4.3 70,14.2 70,15.3 35.3,5 		"/>
		<path class="st2" d="M70.1,14.2c0,0-0.1,7.3-0.1,8c0,0.5,0,1.2,0.2,1.5c0.1,0,0.1,0,0.2,0.1c0.8,0.3,1-0.7,1-1.5
			c0-0.7,0-7.6-0.1-8.3l1.7-0.6c0,0.9,0.1,7.5,0.1,8.3c0,0.8,0,3.1-2.2,3.7c-2.2,0.5-2.5-1.4-2.5-3c0-1.7,0-7.5,0-7.5L70.1,14.2z"/>
		<path class="st9" d="M66.5,22.6c0,0-27.9-8.2-28.8-8.5c-0.9-0.3-0.9-0.7-0.9-0.7"/>
	</g>
</g>
</svg>
