<?xml version="1.0" encoding="utf-8"?>
<!-- Generator: Adobe Illustrator 21.1.0, SVG Export Plug-In . SVG Version: 6.00 Build 0)  -->
<svg version="1.1" id="Layer_1" xmlns="http://www.w3.org/2000/svg" xmlns:xlink="http://www.w3.org/1999/xlink" x="0px" y="0px"
	 width="108px" height="108px" viewBox="0 0 108 108" style="enable-background:new 0 0 108 108;" xml:space="preserve">
<style type="text/css">
	.st0{fill:#FFFFFF;stroke:#000000;stroke-width:0.5;stroke-linecap:round;stroke-linejoin:round;stroke-miterlimit:10;}
	.st1{enable-background:new    ;}
	.st2{fill:none;stroke:#000000;stroke-width:0.5;stroke-miterlimit:10;}
	.st3{fill:#FFFFFF;stroke:#000000;stroke-width:0.75;stroke-linecap:round;stroke-linejoin:round;stroke-miterlimit:10;}
</style>
<g>
	<g>
		<rect x="34.7" y="12.9" class="st0" width="48.8" height="57.9"/>
		<g>
			<g class="st1">
				<path d="M51.6,33.5v-3.3l-3-4.5h1.3l1.6,2.4c0.3,0.4,0.6,0.9,0.8,1.3c0.2-0.4,0.5-0.9,0.9-1.4l1.5-2.3h1.2l-3.1,4.5v3.3H51.6z"
					/>
				<path d="M55.2,30.6c0-1.1,0.3-1.8,0.9-2.3c0.5-0.4,1.1-0.6,1.8-0.6c0.8,0,1.4,0.3,1.9,0.8s0.7,1.2,0.7,2.1
					c0,0.7-0.1,1.3-0.3,1.7c-0.2,0.4-0.5,0.7-1,1s-0.9,0.3-1.4,0.3c-0.8,0-1.4-0.3-1.9-0.8S55.2,31.6,55.2,30.6z M56.2,30.6
					c0,0.7,0.2,1.3,0.5,1.6c0.3,0.4,0.7,0.5,1.2,0.5s0.9-0.2,1.2-0.5c0.3-0.4,0.5-0.9,0.5-1.7c0-0.7-0.2-1.2-0.5-1.6
					s-0.7-0.5-1.2-0.5s-0.9,0.2-1.2,0.5C56.4,29.3,56.2,29.9,56.2,30.6z"/>
				<path d="M65.4,33.5v-0.8c-0.4,0.6-1,1-1.8,1c-0.3,0-0.7-0.1-0.9-0.2S62.2,33.2,62,33c-0.1-0.2-0.2-0.4-0.3-0.7
					c0-0.2-0.1-0.5-0.1-0.9v-3.5h1v3.2c0,0.5,0,0.8,0.1,1c0.1,0.3,0.2,0.5,0.4,0.6s0.4,0.2,0.7,0.2c0.3,0,0.6-0.1,0.8-0.2
					c0.3-0.1,0.4-0.4,0.5-0.6c0.1-0.3,0.2-0.6,0.2-1.1v-3.1h1v5.7L65.4,33.5L65.4,33.5z"/>
				<path d="M67.8,33.5v-5.7h0.9v0.9c0.2-0.4,0.4-0.7,0.6-0.8c0.2-0.1,0.4-0.2,0.6-0.2c0.3,0,0.7,0.1,1,0.3l-0.3,0.9
					c-0.2-0.1-0.5-0.2-0.7-0.2s-0.4,0.1-0.6,0.2s-0.3,0.3-0.4,0.5c-0.1,0.3-0.2,0.7-0.2,1.1v3H67.8z"/>
			</g>
			<g class="st1">
				<path d="M48.8,43.2l1-0.1c0,0.4,0.2,0.7,0.3,1c0.2,0.3,0.4,0.5,0.8,0.6c0.4,0.2,0.8,0.2,1.2,0.2s0.7-0.1,1.1-0.2
					s0.5-0.3,0.7-0.5c0.1-0.2,0.2-0.4,0.2-0.7c0-0.2-0.1-0.5-0.2-0.6c-0.1-0.2-0.4-0.3-0.7-0.5c-0.2-0.1-0.7-0.2-1.4-0.4
					s-1.2-0.3-1.5-0.5c-0.4-0.2-0.7-0.4-0.8-0.7c-0.2-0.3-0.3-0.6-0.3-1s0.1-0.8,0.3-1.1s0.6-0.6,1-0.8s0.9-0.3,1.4-0.3
					c0.6,0,1.1,0.1,1.5,0.3s0.8,0.5,1,0.8c0.2,0.4,0.4,0.8,0.4,1.2l-1,0.1c-0.1-0.5-0.2-0.9-0.5-1.1c-0.3-0.3-0.8-0.4-1.4-0.4
					c-0.6,0-1.1,0.1-1.4,0.3c-0.3,0.2-0.4,0.5-0.4,0.8s0.1,0.5,0.3,0.7s0.7,0.4,1.6,0.6c0.8,0.2,1.4,0.4,1.7,0.5
					c0.5,0.2,0.8,0.5,1,0.8s0.3,0.7,0.3,1.1c0,0.4-0.1,0.8-0.4,1.2c-0.2,0.4-0.6,0.7-1,0.9s-1,0.3-1.5,0.3c-0.7,0-1.3-0.1-1.8-0.3
					s-0.9-0.5-1.1-0.9C49,44.2,48.9,43.7,48.8,43.2z"/>
				<path d="M56.4,39v-1.1h1V39H56.4z M56.4,45.8V40h1v5.7L56.4,45.8L56.4,45.8z"/>
				<path d="M58.7,46.2l0.9,0.1c0,0.3,0.1,0.5,0.3,0.6c0.2,0.2,0.6,0.3,1,0.3s0.8-0.1,1-0.3s0.4-0.4,0.5-0.8c0-0.2,0.1-0.6,0.1-1.2
					c-0.4,0.5-0.9,0.7-1.6,0.7c-0.8,0-1.4-0.3-1.8-0.8s-0.6-1.2-0.6-2c0-0.5,0.1-1,0.3-1.5s0.5-0.8,0.9-1.1s0.8-0.4,1.3-0.4
					c0.7,0,1.2,0.3,1.7,0.8V40h0.9v5c0,0.9-0.1,1.5-0.3,1.9s-0.5,0.7-0.9,0.9s-0.9,0.3-1.4,0.3c-0.7,0-1.2-0.2-1.6-0.5
					C58.9,47.3,58.7,46.8,58.7,46.2z M59.5,42.8c0,0.7,0.1,1.3,0.4,1.6s0.7,0.5,1.1,0.5c0.4,0,0.8-0.2,1.1-0.5s0.5-0.9,0.5-1.6
					c0-0.7-0.2-1.2-0.5-1.6s-0.7-0.5-1.1-0.5c-0.4,0-0.8,0.2-1.1,0.5C59.6,41.6,59.5,42.1,59.5,42.8z"/>
				<path d="M65,45.8V40h0.9v0.8c0.4-0.6,1-0.9,1.8-0.9c0.3,0,0.7,0.1,0.9,0.2c0.3,0.1,0.5,0.3,0.6,0.5s0.2,0.4,0.3,0.7
					c0,0.2,0.1,0.5,0.1,0.9v3.5h-1v-3.5c0-0.4,0-0.7-0.1-0.9s-0.2-0.4-0.4-0.5c-0.2-0.1-0.4-0.2-0.7-0.2c-0.4,0-0.8,0.1-1.1,0.4
					s-0.4,0.8-0.4,1.5v3.1H65V45.8z"/>
			</g>
			<g class="st1">
				<path d="M49,58v-7.9h1v3.2h4.1v-3.2h1V58h-1v-3.7H50V58H49z"/>
				<path d="M60.7,56.2l1,0.1c-0.2,0.6-0.4,1-0.9,1.4s-1,0.5-1.6,0.5c-0.8,0-1.5-0.3-2-0.8s-0.7-1.2-0.7-2.2s0.2-1.7,0.7-2.2
					s1.1-0.8,1.9-0.8c0.8,0,1.4,0.3,1.9,0.8s0.7,1.3,0.7,2.2c0,0.1,0,0.1,0,0.3h-4.3c0,0.6,0.2,1.1,0.5,1.4c0.3,0.3,0.7,0.5,1.2,0.5
					c0.4,0,0.7-0.1,0.9-0.3C60.4,56.9,60.6,56.6,60.7,56.2z M57.5,54.6h3.2c0-0.5-0.2-0.8-0.4-1.1C60,53.2,59.6,53,59.2,53
					c-0.4,0-0.8,0.1-1.1,0.4C57.7,53.7,57.6,54.1,57.5,54.6z"/>
				<path d="M62.9,58v-5.7h0.9v0.9c0.2-0.4,0.4-0.7,0.6-0.8s0.4-0.2,0.6-0.2c0.3,0,0.7,0.1,1,0.3l-0.3,0.9c-0.2-0.1-0.5-0.2-0.7-0.2
					s-0.4,0.1-0.6,0.2s-0.3,0.3-0.4,0.5c-0.1,0.3-0.2,0.7-0.2,1.1v3H62.9z"/>
				<path d="M70.5,56.2l1,0.1c-0.2,0.6-0.4,1-0.9,1.4c-0.4,0.3-1,0.5-1.6,0.5c-0.8,0-1.5-0.3-2-0.8s-0.7-1.2-0.7-2.2
					s0.2-1.7,0.7-2.2s1.1-0.8,1.9-0.8s1.4,0.3,1.9,0.8s0.7,1.3,0.7,2.2c0,0.1,0,0.1,0,0.3h-4.3c0,0.6,0.2,1.1,0.5,1.4
					c0.3,0.3,0.7,0.5,1.2,0.5c0.4,0,0.7-0.1,0.9-0.3C70.1,56.9,70.3,56.6,70.5,56.2z M67.3,54.6h3.2c0-0.5-0.2-0.8-0.4-1.1
					c-0.3-0.4-0.7-0.6-1.2-0.6c-0.4,0-0.8,0.1-1.1,0.4C67.5,53.7,67.3,54.1,67.3,54.6z"/>
			</g>
		</g>
	</g>
	<g>
		<path class="st2" d="M28.3,91.6c-0.3,0-0.5-0.2-0.5-0.5V10.8c0-0.3,0.2-0.5,0.5-0.5h58.4c0.3,0,0.5,0.2,0.5,0.5s-0.2,0.5-0.5,0.5
			H28.8v79.8C28.8,91.4,28.6,91.6,28.3,91.6z"/>
		<polygon class="st3" points="40,13.9 37.5,13.9 37.1,7.5 40.4,7.5 		"/>
		<polygon class="st3" points="82,13.9 79.5,13.9 79.2,7.5 82.4,7.5 		"/>
		<g>
			<rect x="24.9" y="93.3" class="st3" width="6.9" height="3.4"/>
			<rect x="27.3" y="81.7" class="st3" width="2" height="8"/>
			<rect x="25.5" y="89.7" class="st3" width="5.6" height="3.5"/>
		</g>
	</g>
</g>
</svg>
