<?xml version="1.0" encoding="utf-8"?>
<!-- Generator: Adobe Illustrator 21.1.0, SVG Export Plug-In . SVG Version: 6.00 Build 0)  -->
<svg version="1.1" id="Layer_1" xmlns="http://www.w3.org/2000/svg" xmlns:xlink="http://www.w3.org/1999/xlink" x="0px" y="0px"
	 width="108px" height="108px" viewBox="0 0 108 108" style="enable-background:new 0 0 108 108;" xml:space="preserve">
<style type="text/css">
	.st0{fill:#F2F2F2;stroke:#231F20;stroke-width:0.75;}
	.st1{fill:#FFFFFF;stroke:#231F20;stroke-width:0.75;}
	.st2{fill:#B3B3B3;stroke:#231F20;stroke-width:0.75;stroke-linejoin:round;}
	.st3{fill:none;stroke:#231F20;stroke-width:0.75;}
	.st4{fill:#CCCCCC;stroke:#231F20;stroke-width:0.75;stroke-linejoin:round;}
	.st5{fill:none;stroke:#231F20;stroke-width:0.5;}
	.st6{fill:#CCCCCC;stroke:#231F20;stroke-width:0.5;}
</style>
<g>
	<path class="st0" d="M78.2,9.1l-1.2-1.8l0.9,1.4l-51.4,8.5l0,7.5l0.7,0.6l51.3-8.4L78.2,9.1z M30.4,21c-0.6,0-1.1-0.5-1.1-1.1
		c0-0.6,0.5-1.1,1.1-1.1c0.6,0,1.1,0.5,1.1,1.1C31.4,20.5,31,21,30.4,21z M75.2,13.6c-0.6,0-1.1-0.5-1.1-1.1c0-0.6,0.5-1.1,1.1-1.1
		c0.6,0,1.1,0.5,1.1,1.1C76.2,13.1,75.7,13.6,75.2,13.6z"/>
	<circle class="st1" cx="30.4" cy="20" r="1.1"/>
	<path class="st1" d="M75.2,11.4c0.6,0,1.1,0.5,1.1,1.1c0,0.6-0.5,1.1-1.1,1.1c-0.6,0-1.1-0.5-1.1-1.1
		C74.1,11.9,74.6,11.4,75.2,11.4z"/>
	<path class="st1" d="M79.3,87.6l-47.8,12c0,0-0.4,0.2-0.9,0.5c-0.5,0.3-1.1,0.5-1.5,0.6c0,0-0.1,0-0.1,0c-2.3,0-3-2-3.2-5.2
		c-0.1-3.2-1.3-80-1.3-80l52.2-8.1l0.9,1.4l-51.4,8.5l0,7.5l0.7,0.6l51.3-8.4l0.7,0.6l1.2,1.2c0,0,2.2,49.2,2.9,63.9
		C83.2,84.9,81.6,87,79.3,87.6z"/>
	<g>
		<path class="st2" d="M31.5,96.2c0,1.5,0,3-0.8,3.9c-0.1,0.1-0.1,0.1-0.2,0.2c-0.3,0.3-0.7,0.4-1.3,0.4c0,0-0.1,0-0.1,0
			c-2.3,0-3-2-3.2-5.2c-0.1-3.2-1.3-80-1.3-80l1.8,1.7l0,7.5l0.7,0.6l1.2,1.1c0,0,0,0.1,0,0.3c0.2,3.8,2.4,46.7,2.4,49.5
			C30.7,79,31.5,94.1,31.5,96.2z"/>
		<line class="st3" x1="29" y1="97.9" x2="26.4" y2="24.5"/>
		<path class="st1" d="M78.3,16.6"/>
		<line class="st3" x1="78.2" y1="9.1" x2="78.3" y2="16.6"/>
		<polygon class="st4" points="79.7,18.3 28.3,26.6 28.2,26.6 26.9,25.3 27.1,25.3 78.3,16.9 78.4,16.9 79,17.5 		"/>
		<polygon class="st4" points="77.8,8.7 26.5,17.2 24.7,15.5 76.9,7.3 		"/>
	</g>
	<g>
		<line class="st5" x1="78.9" y1="20.4" x2="81.3" y2="82.2"/>
		<circle class="st6" cx="30.4" cy="20" r="1.1"/>
		<path class="st6" d="M76.2,12.5c0,0.6-0.5,1.1-1.1,1.1c-0.6,0-1.1-0.5-1.1-1.1c0-0.6,0.5-1.1,1.1-1.1
			C75.7,11.4,76.2,11.9,76.2,12.5z"/>
	</g>
</g>
</svg>
