<?xml version="1.0" encoding="utf-8"?>
<!-- Generator: Adobe Illustrator 22.1.0, SVG Export Plug-In . SVG Version: 6.00 Build 0)  -->
<svg version="1.1" id="Layer_1" xmlns="http://www.w3.org/2000/svg" xmlns:xlink="http://www.w3.org/1999/xlink" x="0px" y="0px"
	 width="108px" height="108px" viewBox="0 0 108 108" style="enable-background:new 0 0 108 108;" xml:space="preserve">
<style type="text/css">
	.st0{fill:none;stroke:#000000;stroke-width:0.5;stroke-linecap:round;stroke-linejoin:round;stroke-miterlimit:10;}
	.st1{fill:#FFFFFF;stroke:#000000;stroke-width:0.75;stroke-linecap:round;stroke-linejoin:round;stroke-miterlimit:10;}
	.st2{fill:#CCCCCC;stroke:#000000;stroke-width:0.5;stroke-linecap:round;stroke-linejoin:round;stroke-miterlimit:10;}
	.st3{fill:#F2F2F2;stroke:#000000;stroke-width:0.5;stroke-linecap:round;stroke-linejoin:round;stroke-miterlimit:10;}
	.st4{fill:#B3B3B3;stroke:#000000;stroke-width:0.5;stroke-linecap:round;stroke-linejoin:round;stroke-miterlimit:10;}
	.st5{fill:#E6E6E6;stroke:#000000;stroke-width:0.5;stroke-linecap:round;stroke-linejoin:round;stroke-miterlimit:10;}
	.st6{fill:#999999;stroke:#000000;stroke-width:0.5;stroke-linecap:round;stroke-linejoin:round;stroke-miterlimit:10;}
	.st7{fill:#808080;stroke:#000000;stroke-width:0.5;stroke-linecap:round;stroke-linejoin:round;stroke-miterlimit:10;}
</style>
<g>
	<path class="st0" d="M68.1,9.8C68,9.4,67.9,9,67.7,8.6C68.1,9,68.2,9.4,68.1,9.8z"/>
	<path class="st1" d="M68.1,9.8c-0.1,0.9-1,1.7-1,1.7L47.3,34.7l-4.4-2.2L63.8,8.2c0,0,0.4-0.4,1.3-0.5c0.5,0,1.2,0.1,2,0.5
		c0.3,0.1,0.5,0.3,0.6,0.4C67.9,9,68,9.4,68.1,9.8z"/>
	<path class="st2" d="M67.1,13.1L47.8,35.8v5.1c-0.3,0.1-1,0.4-1.5-0.7v-3.3l1.1-2.2l19.8-23.1c0,0,0.8-0.8,1-1.7
		C68.4,11.8,67.1,13.1,67.1,13.1z"/>
	<rect x="43.3" y="32.2" transform="matrix(0.4472 -0.8944 0.8944 0.4472 -6.3589 59.0134)" class="st3" width="2.5" height="4.9"/>
	<polygon class="st2" points="46.2,36.9 46.2,40.2 41.8,38 41.8,34.7 	"/>
	<path class="st1" d="M102.2,25.9c-0.1,0.9-1,1.7-1,1.7L81.4,50.8L77,48.5l17.1-19.8l3.8-4.4c0,0,0.4-0.4,1.3-0.5
		c0.5,0,1.2,0.1,2,0.5c0.3,0.1,0.5,0.3,0.6,0.4C102.1,25.1,102.2,25.5,102.2,25.9z"/>
	<path class="st2" d="M101.3,29.2L81.9,51.9l-0.4,4.4L77,61.4v-1.8c1.3-1.3,2.6-3.3,2.6-3.3l0.7-3.3l1.1-2.2l19.8-23.1
		c0,0,0.8-0.8,1-1.7C102.6,27.9,101.3,29.2,101.3,29.2z"/>
	<polygon class="st3" points="81.4,50.8 80.3,53 75.9,50.8 76.4,49.9 77,48.5 	"/>
	<polygon class="st2" points="80.3,53 79.6,56.2 75.4,53.9 75.7,52 75.9,50.8 	"/>
	<path class="st1" d="M96.4,20.1c-3.3-1.6-18.2-8.6-18.2-8.6s-3.7-2.1-6.2,0.6c-2.6,2.8-24.1,28.6-24.1,28.6s0,0-0.1,0.1
		c-0.3,0.1-1,0.4-1.5-0.7L41.8,38l-3.3,3.3c0,0-0.3,0.6-0.3,1.2c0,0.7,0.3,1.5,1.4,2.1c2.2,1.1,4.4,2.2,4.4,2.2s2.2,1.1,4.4-1.1
		c0,0,0,0,0.1-0.1c2.2-2.2,3.2-3.2,3.2-3.2s1.1,0,1.1,1.1l15.4,7.7c0,0,2.2,0,1.1,1.1l-1.6,2.4l-0.6,0.9c0,0-0.3,0.3-0.3,0.6v0
		c0,0.4,0.3,1,1.4,1.5l5.3,2.8c0,0,1.6,0.7,2.9-0.5c0.2-0.2,0.4-0.3,0.5-0.5c1.3-1.3,2.6-3.3,2.6-3.3l-4.2-2.3c0,0-0.8,0.5-1.5,0.1
		c-0.1,0-0.1-0.1-0.2-0.1c-0.6-0.6,1.8-3.1,1.8-3.1l0.8-0.9l0.6-1.3l17.1-19.8l3.9-4.6C98,24.2,99.7,21.7,96.4,20.1z M87,20.6
		c-0.5,1.1-1.9,1.9-3.6,1.9c-1,0-2-0.3-2.7-0.8c-0.6-0.5-1.1-1.2-1.1-1.9c0-1.5,1.7-2.8,3.7-2.8c2.1,0,3.7,1.2,3.7,2.8
		C87.2,20.1,87.1,20.4,87,20.6z"/>
	<line class="st0" x1="47.8" y1="40.9" x2="47.8" y2="40.9"/>
	<path class="st2" d="M76.5,61.9c-0.8,0.7-3,0.3-3,0.3s-4.8-2.4-5.5-2.8c-0.6-0.4-1.2-1.2-1.2-1.2v-2c0,0.4,0.3,1,1.4,1.5l5.3,2.8
		c0,0,1.6,0.7,2.9-0.5c0.2-0.2,0.4-0.3,0.5-0.5v1.8C77,61.4,77.3,61.3,76.5,61.9z"/>
	<path class="st2" d="M48.5,45.7v1.8c0,0-0.7,0.9-2,1.1c-1.2,0.2-2-0.4-5.2-1.9c-3.2-1.5-3.2-1.9-3.2-1.9v-2.3
		c0,0.7,0.3,1.5,1.4,2.1c2.2,1.1,4.4,2.2,4.4,2.2s2.2,1.1,4.4-1.1C48.4,45.6,48.5,45.6,48.5,45.7L48.5,45.7z"/>
	<path class="st4" d="M52.8,43.5l-0.7,0.8h-0.7l-2.9,3.2v-1.8l-0.1-0.1c2.2-2.2,3.2-3.2,3.2-3.2S52.8,42.4,52.8,43.5z"/>
	<path class="st3" d="M69.3,52.3l-1.6,2.4l-16.6-8l1-2.4l0.7-0.8l15.4,7.7C68.2,51.2,70.4,51.2,69.3,52.3z"/>
	<polygon class="st2" points="67.8,54.6 66.4,55.6 64.8,57.4 48.6,49.5 51.2,46.6 	"/>
	<polygon class="st5" points="64.8,57.4 59.5,63.7 43.1,55.7 48.6,49.5 	"/>
	<polygon class="st2" points="59.5,63.7 58.5,64.7 41.5,56.3 42.6,56.3 43.1,55.7 	"/>
	<path class="st1" d="M60.8,67c0,0-1.9,4.2-4.5,5c-0.4,0.1-1.1,0.2-1.9,0.2C50.7,72.3,44,71,44,71s-3,0.5-4.5-1.7c0,0,0,0,0,0
		c0,0-5.1-5.5-6.4-6.8c-0.4-0.4-0.6-0.9-0.8-1.3c-0.1-0.2-0.1-0.3-0.1-0.3c-0.2-0.9,0-1.7,0-1.7s2-2.6,3-3.5
		c0.9-0.9,2.8-0.4,2.8-0.4l2.8,1.5l0.8-0.4l17.1,8.5l-0.3,0.4C58.2,65.1,60.6,65.9,60.8,67z"/>
	<path class="st2" d="M60.8,69.1c0,0-0.9,1.7-2.3,3.4c-1.4,1.7-4.1,1.3-4.1,1.3v-1.6c0.8,0,1.4-0.1,1.9-0.2c2.5-0.8,4.5-5,4.5-5
		C61,68.1,60.8,69.1,60.8,69.1z"/>
	<path class="st2" d="M54.5,72.2v1.6l-10.7-1.3l-0.6,0.9L42.4,73l-2.5-1.5l-1.2,0.1c0.3-0.2,0.4-0.5,0.6-0.7
		c0.4-0.8,0.2-1.4,0.2-1.6C41,71.5,44,71,44,71S50.7,72.3,54.5,72.2z"/>
	<polygon class="st5" points="42.4,73 25.5,92.7 23.7,90.4 39.9,71.5 	"/>
	<polygon class="st5" points="25.5,92.7 22.4,91.2 22.1,90.9 23.7,90.4 	"/>
	<path class="st5" d="M22.4,91.2L6.7,83.5l-0.8-1.9c-0.1-0.4-0.2-0.8-0.2-1.2c0,0,0.3,1.5,3.1,2.8c2.8,1.4,11.6,5.6,11.6,5.6l1.8,2
		L22.4,91.2z"/>
	<path class="st1" d="M36,70.1L20.3,88.9c0,0-8.8-4.2-11.6-5.6c-2.8-1.4-3.1-2.8-3.1-2.8c0-1.6,1.1-2.4,1.1-2.4s9.9-11.8,11.6-13.6
		c1.7-1.9,4.7-0.6,4.7-0.6L36,70.1z"/>
	<path class="st5" d="M40,98.4v1.4l-0.1,0c0,0,0,0,0,0l-14.4-7l1.8-0.5L40,98.4z"/>
	<path class="st4" d="M45.9,98.8c-2.7,2.3-5.4,1.3-6,1c0,0-0.1,0-0.1,0l0.1,0v-1.4c0,0,3.5,1.2,5.5-1.4c0.1-0.1,0.2-0.3,0.4-0.5
		L45.9,98.8L45.9,98.8z"/>
	<path class="st4" d="M57.4,88.5c0,0-2.8,3.8-4.1,4.7c-1.2,1-2.5-0.2-2.5-0.2l0.7-0.8c0.7,0.8,1.6,0,1.6,0l4.3-5.1
		C57.6,87.8,57.4,88.5,57.4,88.5z"/>
	<path class="st2" d="M57.8,83.6c0,1-0.8,2.5-0.8,2.5l-5.5,6.1L50.9,93l-5,5.7c0,0,0,0-0.1,0l0,0v-2.2c2.6-3.3,11-13,11-13
		s1.1-1.4-0.1-3.1C57.7,81.2,57.8,82.5,57.8,83.6z"/>
	<line class="st0" x1="48.6" y1="49.5" x2="48.5" y2="49.5"/>
	<polygon class="st5" points="37.8,72.1 22.1,90.9 20.3,88.9 36,70.1 	"/>
	<polygon class="st4" points="43.2,73.5 27.2,92.2 25.5,92.7 42.4,73 	"/>
	<polygon class="st4" points="39.9,71.5 23.7,90.4 22.1,90.9 37.7,72.1 38.8,71.5 	"/>
	<path class="st1" d="M56.9,83.5c0,0-8.4,9.7-11,13c-0.1,0.2-0.3,0.4-0.4,0.5c-2,2.6-5.5,1.4-5.5,1.4l-12.7-6.2l16-18.7
		c0,0,12.8,6.2,13.6,7C58,82.1,56.9,83.5,56.9,83.5z"/>
	<path class="st4" d="M39.3,70.8c0,0-4.1-4.6-5.3-6.1c-1-1.2-1.5-3-1.7-3.7c0.1,0.4,0.4,0.9,0.8,1.3c1.4,1.4,6.4,6.8,6.4,6.8
		c0,0,0,0,0,0C39.6,69.4,39.8,70,39.3,70.8z"/>
	<path class="st3" d="M57.5,87.1l-4.3,5.1c0,0-0.9,0.8-1.6,0l5.5-6.1C57.4,86.4,57.5,86.7,57.5,87.1z"/>
	<path class="st2" d="M87.2,19.8c0,0.3-0.1,0.6-0.2,0.8c-0.7-0.5-1.6-0.8-2.7-0.8c-1.7,0-3.1,0.8-3.6,1.9c-0.6-0.5-1.1-1.2-1.1-1.9
		c0-1.5,1.7-2.8,3.7-2.8C85.5,17,87.2,18.3,87.2,19.8z"/>
	<path class="st6" d="M87,20.6c-0.5,1.1-1.9,1.9-3.6,1.9c-1,0-2-0.3-2.7-0.8c0.5-1.1,1.9-1.9,3.6-1.9C85.4,19.8,86.3,20.1,87,20.6z"
		/>
	<path class="st7" d="M76.4,49.9l-0.5,0.9L75.7,52l-1.8,2c-0.1,0-0.1-0.1-0.2-0.1c-0.6-0.6,1.8-3.1,1.8-3.1L76.4,49.9z"/>
	<path class="st2" d="M24.6,74.8c-0.5-0.5-1.1-0.9-1.8-1.1c0,0,0,0,0,0c-0.5-0.2-1-0.2-1.6-0.2c-1.6,0-2.9,0.6-3.7,1.6c0,0,0,0,0,0
		c-0.4,0.5-0.7,1.1-0.7,1.8c0,0.3,0.1,0.6,0.2,0.9c-0.6-0.6-0.9-1.3-0.9-2.1c0-1.9,1.9-3.4,4.3-3.4C22.4,72.3,24.1,73.4,24.6,74.8z"
		/>
	<path class="st7" d="M23.1,78.4c-0.7,0.5-1.7,0.7-2.7,0.7c-0.7,0-1.4-0.1-2-0.4l0,0c-0.8-0.6,0-2.1,0-2.1c-1-0.8-0.9-1.5-0.9-1.6
		c0,0,0,0,0,0s1.5,0.6,1.8,0.7c0.4,0.1,0.9-0.8,2.4-0.3c0,0,0.5-1.8,1-1.7c0,0,0,0,0,0c0.5,0.2,0.2,2.6,0.2,2.6S23.9,77.6,23.1,78.4
		z"/>
	<path class="st4" d="M18.4,78.7c-0.6-0.2-1.1-0.6-1.5-1c-0.1-0.3-0.2-0.6-0.2-0.9c0-0.7,0.2-1.3,0.7-1.8c0,0.1-0.1,0.7,0.9,1.6
		C18.4,76.6,17.6,78.1,18.4,78.7z"/>
	<path class="st4" d="M24.7,75.7c0,1.1-0.6,2-1.7,2.7c0.8-0.8-0.1-2.1-0.1-2.1s0.2-2.4-0.2-2.6c0.7,0.2,1.3,0.6,1.8,1.1
		C24.7,75.1,24.7,75.4,24.7,75.7z"/>
	<path class="st4" d="M22.7,73.7c-0.5-0.1-1,1.7-1,1.7c-1.6-0.5-2.1,0.4-2.4,0.3c-0.3-0.1-1.8-0.7-1.8-0.7c0.8-1,2.1-1.6,3.7-1.6
		C21.7,73.5,22.2,73.6,22.7,73.7z"/>
	<path class="st2" d="M45.5,86.3c0,1.4-1.4,2.6-3.1,2.6c-1.7,0-3.1-1.1-3.1-2.6l-0.1-2.5c0.1,0.5,0.3,0.9,0.6,1.2
		c0.6,0.6,1.5,1.1,2.5,1.1c1.1,0,2.1-0.5,2.7-1.3c0.3-0.4,0.4-0.8,0.4-1.3l0.1,2.5L45.5,86.3z"/>
	<path class="st5" d="M45.4,83.5c0,0.5-0.2,0.9-0.4,1.3c-0.5,0.7-1.5,1.3-2.7,1.3c-1,0-2-0.4-2.5-1.1c-0.3-0.4-0.5-0.8-0.6-1.2
		l0-0.3c0-0.2,0-0.4,0.1-0.6l0.4-0.8l1.1-2.1h0c0.1,0.3,0.6,0.4,1.3,0.4c0.7,0,1.2-0.4,1.2-0.7l1.3,2l0.7,1.1l0,0
		C45.3,83.1,45.4,83.3,45.4,83.5z"/>
	<path class="st3" d="M43.2,79.7c0,0.3-0.5,0.7-1.2,0.7c-0.6,0-1.1-0.2-1.3-0.4c0,0,0-0.1,0-0.1c0-0.3,0.5-0.8,1.2-0.8
		C42.7,79.1,43.2,79.4,43.2,79.7z"/>
</g>
</svg>
