<?xml version="1.0" encoding="utf-8"?>
<!-- Generator: Adobe Illustrator 21.1.0, SVG Export Plug-In . SVG Version: 6.00 Build 0)  -->
<svg version="1.1" id="Layer_1" xmlns="http://www.w3.org/2000/svg" xmlns:xlink="http://www.w3.org/1999/xlink" x="0px" y="0px"
	 width="108px" height="108px" viewBox="0 0 108 108" style="enable-background:new 0 0 108 108;" xml:space="preserve">
<style type="text/css">
	.st0{fill:#CCCCCC;stroke:#000000;stroke-width:0.75;stroke-linecap:round;stroke-linejoin:round;stroke-miterlimit:10;}
	.st1{fill:#B3B3B3;stroke:#000000;stroke-width:0.75;stroke-linecap:round;stroke-linejoin:round;stroke-miterlimit:10;}
	.st2{fill:#F2F2F2;stroke:#000000;stroke-width:0.75;stroke-linecap:round;stroke-linejoin:round;stroke-miterlimit:10;}
	.st3{fill:#E6E6E6;stroke:#000000;stroke-width:0.75;stroke-linecap:round;stroke-linejoin:round;stroke-miterlimit:10;}
	.st4{fill:#FFFFFF;stroke:#000000;stroke-width:0.75;stroke-linecap:round;stroke-linejoin:round;stroke-miterlimit:10;}
	.st5{fill:#999999;}
	.st6{fill:#CCCCCC;}
	.st7{fill:none;stroke:#000000;stroke-width:0.75;stroke-linecap:round;stroke-linejoin:round;stroke-miterlimit:10;}
</style>
<g>
	<g>
		<path class="st0" d="M72.8,84.2c-0.1,1.9,0.5,4.9-1.8,5.6c-2.1,0.7-1.4,0.6-3.5,1.1c-7.8,1.5-37.2,6-44.9,7.5
			c-2,0.4-4.1,0.8-6.1,1.2c0.1-1.6,0.1-3.2,0.2-4.8c0.1-0.9-0.1-0.7,0.6-0.9c2.3-0.8,5.1-1,7.5-1.4C32.6,91.1,70.8,84.6,72.8,84.2z"
			/>
		<path class="st1" d="M88.2,74.1c-3.4,2.2-6.8,4.5-10.1,6.7c-2,1.3-4,3.2-6.3,3.7c-9.1,1.7-36.7,6.2-45.9,7.9
			c-3.1,0.6-6.2,1.2-9.3,1.7c3.4-2.3,6.8-4.5,10.3-6.8c1.2-0.8,2.5-2,3.8-2.5c0.6-0.2,1.3-0.3,1.9-0.4c9.4-1.9,37.2-6.5,46.6-8.4
			C82.2,75.3,85.2,74.7,88.2,74.1z"/>
		<path class="st0" d="M88.2,74.1c-11.4,2.3-41.3,7.3-52.8,9.6c-1.6,0.3-3.2,0.6-4.8,1c-0.1-14.4-0.1-28.3-0.2-42.7
			c0-3.9,0-7.8,0-11.7c0-1.3,0-2.5,0-3.8c0-0.5-0.2-1.6,0-2.1c0.4-0.7,49.9-3.8,57.5-4.9c0,6.5,0,10.3,0.1,16.8
			c0.1,10.5,0.1,21,0.2,31.5C88.2,70.8,88.2,71.1,88.2,74.1z"/>
	</g>
	<g>
		<polygon class="st2" points="63.6,12.1 63.6,9.8 36.1,13.4 36.1,15.4 		"/>
		<polygon class="st0" points="33.6,11.8 33.6,17.1 45.1,23.9 45.1,20.4 36.1,15.4 36.1,13.4 		"/>
		<polygon class="st3" points="38.1,59.8 94.6,50.3 94.6,47 38.1,54.5 		"/>
		<polygon class="st4" points="38.1,56.6 94.6,47 90.3,43.3 33.6,52.3 		"/>
		<polygon class="st2" points="32.3,25 33.7,53.8 91.4,44.1 91.4,18.7 		"/>
		<path class="st3" d="M30.4,28.4c0.2,55.3,0.2,55.3,0.2,56.3c-3.5,2.3-7,4.7-10.5,7c-0.9,0.6-1.7,1.1-2.6,1.7
			c-0.2,0.2-0.9,0.4-1,0.7c-0.3,0.5-0.1,2.1-0.1,2.6c0,1-0.1,2-0.1,3c-0.7-0.3-1.7-0.6-2.4-1.1c-0.7-0.5-0.5-0.5-0.5-1.5
			c0-1.1,0.1-2.1,0.1-3.2c0-0.5-0.2-1.7,0.1-2.1c0.2-0.3,12.2-7.9,12.6-8.6c0.2-0.3-0.1-57.6-0.1-57.6l4.1-3.3l4.7,3.9v27.4l3.1,3
			v3.2l-3.5-3c0,0-3.8-2.2-4.1-2.4L30.4,28.4z"/>
		<polygon class="st4" points="30.3,22.3 87.6,15.1 91.4,18.7 35,26.2 		"/>
		<path class="st5" d="M61.3,35.2c-0.7,0.6-1.1,1.5-1.1,2.6c0,1.8,1.4,3.3,3.1,3.3c1.2,0,3.4-0.8,4.5-1.8
			C64.8,40,62.1,40.4,61.3,35.2z"/>
		<path class="st6" d="M67.8,39.3c0.5-0.5,0.8-1,0.8-1.5c0-1.8-3.6-3.3-5.3-3.3c-0.7,0-1.4,0.3-1.9,0.8C62.1,40.4,64.8,40,67.8,39.3
			z"/>
		<path class="st7" d="M68.6,37.8c0,1.8-3.6,3.3-5.3,3.3c-1.7,0-3.1-1.5-3.1-3.3s1.4-3.3,3.1-3.3C64.9,34.4,68.6,35.9,68.6,37.8z"/>
		<polygon class="st4" points="36.1,15.4 45,20.4 48.9,24.2 48.9,26.5 78.7,22.1 74.7,20.4 74.7,16.5 63.6,12.1 		"/>
		<polygon class="st4" points="33.6,11.8 60.8,8.4 63.6,9.8 36.1,13.4 		"/>
		<polygon class="st3" points="74.7,16.5 78.7,20.4 78.7,22.1 74.7,20.4 		"/>
		<polygon class="st2" points="74.7,20.4 48.9,24.2 48.9,26.5 78.7,22.1 		"/>
		<polygon class="st3" points="74.7,16.5 45,20.4 48.9,24.2 74.7,20.4 		"/>
	</g>
</g>
</svg>
