<?xml version="1.0" encoding="utf-8"?>
<!-- Generator: Adobe Illustrator 21.1.0, SVG Export Plug-In . SVG Version: 6.00 Build 0)  -->
<svg version="1.1" id="Layer_1" xmlns="http://www.w3.org/2000/svg" xmlns:xlink="http://www.w3.org/1999/xlink" x="0px" y="0px"
	 width="108px" height="108px" viewBox="0 0 108 108" style="enable-background:new 0 0 108 108;" xml:space="preserve">
<style type="text/css">
	.st0{fill:#B3B3B3;stroke:#000000;stroke-width:0.5;stroke-linecap:round;stroke-linejoin:round;stroke-miterlimit:10;}
	.st1{fill:#CCCCCC;stroke:#000000;stroke-width:0.5;stroke-linecap:round;stroke-linejoin:round;stroke-miterlimit:10;}
	.st2{fill:#999999;stroke:#000000;stroke-width:0.5;stroke-linecap:round;stroke-linejoin:round;stroke-miterlimit:10;}
	.st3{fill:#E6E6E6;stroke:#000000;stroke-width:0.75;stroke-linecap:round;stroke-linejoin:round;stroke-miterlimit:10;}
	.st4{fill:#FFFFFF;}
	.st5{fill:#F2F2F2;}
	.st6{fill:none;stroke:#000000;stroke-width:0.75;stroke-linecap:round;stroke-linejoin:round;stroke-miterlimit:10;}
	.st7{fill:#FFFFFF;stroke:#000000;stroke-width:0.75;stroke-linecap:round;stroke-linejoin:round;stroke-miterlimit:10;}
	.st8{fill:#F2F2F2;stroke:#000000;stroke-width:0.75;stroke-linecap:round;stroke-linejoin:round;stroke-miterlimit:10;}
	.st9{fill:#CCCCCC;stroke:#000000;stroke-width:0.75;stroke-linecap:round;stroke-linejoin:round;stroke-miterlimit:10;}
	.st10{fill:none;stroke:#000000;stroke-width:0.5;stroke-linecap:round;stroke-linejoin:round;stroke-miterlimit:10;}
	.st11{fill:#999999;}
	.st12{fill:#B3B3B3;}
	.st13{fill:#CCCCCC;}
	.st14{fill:none;stroke:#000000;stroke-width:0.75;stroke-miterlimit:10;}
</style>
<g>
	<g>
		<path class="st0" d="M48.5,53.3c-0.9,1.4-1.4,3-2.7,4.1c-0.6,0.5-1.3,0.9-2.1,1c-0.9,0.1-1.1-0.2-1.6-0.9c1.4-0.6,2.1-2.1,2.8-3.3
			c0.2-0.4,0.8-1.9,1.2-2c0.2-0.1,1,0.5,1.2,0.5C47.7,52.9,48.1,53.1,48.5,53.3z"/>
		<path class="st1" d="M40.6,49.7c-0.3,2.4-0.7,4.7-1,7.1c-0.6-1.1-0.9-2.4-1.2-3.6c-0.4-1.6-0.7-3.3-1.1-4.9
			C38.4,48.7,39.5,49.2,40.6,49.7z"/>
		<path class="st1" d="M15.2,38.2c-0.2,2.1-0.6,4.8-2.9,5.6c-2,0.7-4.7-0.7-6.4-1.6c-1.6-0.8-4.7-2.2-4.6-4.4
			c0.1-2.7,3.7-0.7,4.8-0.1c0.9,0.5,2.3,1.5,3.4,1.2c1.1-0.3,1-1.9,1.1-2.8C12.2,36.8,13.7,37.5,15.2,38.2z"/>
		<path class="st0" d="M10.3,38.1c-0.2,1.8-2.8,0.4-3.6,0c-1.3-0.7-3.1-2-4.7-1.5c1.2-0.7,2.9-0.6,4.2-0.3
			C7.7,36.7,8.9,37.8,10.3,38.1z"/>
		<path class="st0" d="M17.3,39.1c-0.2,1.9-0.3,3.6-2.1,4.6c-1.4,0.7-3.7,0.7-5.1,0c1.5,0.4,2.8,0.1,3.8-1.2
			c1.1-1.3,1.2-2.7,1.4-4.4C15.9,38.5,16.6,38.8,17.3,39.1z"/>
		<path class="st2" d="M42.8,50.7c-0.2,1.2-0.4,2.3-0.5,3.5c-0.1,0.8-0.2,1.5-0.3,2.3c0,0.2,0,0.7-0.2,0.9c-0.2,0.1-1,0.2-1.2,0.1
			c-0.4,0-0.8-0.2-0.9-0.6c-0.1-0.3,0.1-0.7,0.1-0.9c0.1-0.7,0.2-1.5,0.3-2.2c0.2-1.3,0.4-2.7,0.6-4C41.3,50,42.1,50.3,42.8,50.7z"
			/>
		<path class="st1" d="M46.1,52.2c-0.6,1-1.2,2.1-1.8,3.1c-0.3,0.4-0.6,0.9-0.9,1.3c-0.2,0.3-0.9,1-1.3,1c-0.7-0.1,0-2.4,0.1-2.8
			c0.2-1.4,0.4-2.7,0.6-4.1C43.9,51.2,45,51.7,46.1,52.2z"/>
		<path class="st3" d="M69,73.9c-0.6,0-2,0.2-2.3-0.5c-0.2-0.4-0.1-1.1-0.1-1.5c-0.1-0.9-0.2-1.9-0.3-2.8c-0.1-1.5-0.3-3-0.4-4.5
			c-0.1-1,0-2.3-0.4-3.2c-0.3-0.7-1.1-0.9-1.7-1.1c-1.4-0.7-2.9-1.3-4.3-2c-3.3-1.5-6.5-3-9.8-4.5c-4.2-1.9-8.3-3.8-12.5-5.6
			c-5.9-2.7-11.8-5.4-17.7-8.1c-1.7-0.8-3.4-1.5-5.1-2.3c-1.3-0.6-2.6-1.2-3.8-1.7c-0.8-0.3-1.5-0.7-2.3-1c-0.3-0.2-1.3-0.4-1.4-0.7
			c-0.2-0.4,0.2-1.6,0.3-2.1c3,1.3,5.9,2.7,8.9,4c6.6,3,13.1,5.9,19.7,8.9c6.7,3.1,13.5,6.1,20.2,9.2c3.4,1.5,6.9,2.9,10.2,4.6
			c1.9,1,2,2.5,2.2,4.5c0.2,3.2,0.5,6.4,0.8,9.5C69,73.2,69,73.5,69,73.9z"/>
		<path class="st4" d="M83.2,56.2c-1.8-0.8-3.7-1.7-5.5-2.5c-6.9-3.1-13.8-6.2-20.7-9.4c-7.4-3.4-14.8-6.7-22.2-10.1
			c-2.4-1.1-4.9-2.2-7.3-3.3c-0.8-0.3-1.8-1-2.6-1.1c-0.3,0-0.8,0.1-1.1,0.1c-0.7,0.1-1.4,0.2-2.1,0.3c-2,0.3-4,0.5-6,0.8
			c-2.8,0.4-5.7,0.8-8.5,1.1c0,0,0.1,0,0.2,0.1c0.3,0.3,0.9,0.4,1.2,0.6c0.8,0.3,1.5,0.7,2.3,1c2.4,1.1,4.9,2.2,7.3,3.3
			c6.8,3.1,13.5,6.1,20.3,9.2c6.5,2.9,13,5.9,19.5,8.8c2,0.9,4.1,1.9,6.1,2.8c0.9,0.4,1.8,0.7,2.6,1.3c0.7,0.5,1.1,1.3,1.3,2.1
			c5.6-1.2,11.3-2.2,17.3-2.9C84.9,57.5,84.3,56.8,83.2,56.2z"/>
		<path class="st5" d="M85.6,66.5c0-1.7-0.1-3.3,0-5c0-0.6,0-1.3-0.1-1.9c0-0.4-0.1-0.7-0.2-1c-6,0.6-11.7,1.7-17.3,2.9
			c0.3,1.2,0.3,2.5,0.4,3.7c0.2,2.9,0.5,5.8,0.7,8.8c1.4-0.3,2.9-0.6,4.3-1c2.4-0.5,4.8-1.1,7.2-1.6c1-0.2,2-0.5,3.1-0.7
			c0.5-0.1,1.3-0.2,1.8-0.4c0.3-0.2,0.3-0.1,0.3-0.6C85.6,68.6,85.6,67.5,85.6,66.5z"/>
		<path class="st6" d="M85.6,61.5c0,1.7,0,3.3,0,5c0,1,0,2.1,0,3.1c0,0.5,0.1,0.4-0.3,0.6c-0.5,0.3-1.3,0.3-1.8,0.4
			c-1,0.2-2,0.5-3.1,0.7c-2.4,0.5-4.8,1.1-7.2,1.6c-1.4,0.3-2.9,0.6-4.3,1c-0.2-2.9-0.5-5.8-0.7-8.8c-0.2-2,0.1-4.5-1.7-5.8
			c-0.8-0.6-1.7-0.9-2.6-1.3c-2-0.9-4.1-1.9-6.1-2.8c-6.5-2.9-13-5.9-19.5-8.8c-6.8-3.1-13.5-6.1-20.3-9.2c-2.4-1.1-4.9-2.2-7.3-3.3
			c-0.8-0.3-1.5-0.7-2.3-1c-0.3-0.1-1-0.3-1.2-0.6c0,0-0.1-0.1-0.2-0.1c2.8-0.4,5.7-0.8,8.5-1.1c2-0.3,4-0.5,6-0.8
			c0.7-0.1,1.4-0.2,2.1-0.3c0.3,0,0.8-0.2,1.1-0.1c0.8,0.1,1.8,0.8,2.6,1.1c2.4,1.1,4.9,2.2,7.3,3.3C42.2,37.7,49.6,41,57,44.4
			c6.9,3.1,13.8,6.2,20.7,9.4c1.8,0.8,3.7,1.7,5.5,2.5c1.5,0.7,2.1,1.7,2.3,3.3C85.6,60.2,85.6,60.9,85.6,61.5z"/>
	</g>
	<g>
		<g>
			<path class="st3" d="M58.1,47.6L58.1,47.6l1.1,0.6L58.1,47.6z"/>
			<polygon class="st3" points="62.7,46.5 62.6,47.1 62.4,47.6 62.2,48.6 61.9,49.5 61.9,49.5 61.9,49.6 59.3,48.3 59.3,48.2 
				59.2,48.2 59.2,48.2 58.1,47.6 			"/>
		</g>
		<g>
			<path class="st7" d="M58.1,47.6L58.1,47.6l1.1,0.6L58.1,47.6z"/>
			<path class="st7" d="M87.3,36.9l-0.1,1l-0.1,0l-0.1,0c-0.9,0.2-5.1,1-9,2c-3.8,0.9-8.1,2-9.3,2.4l-0.1,0l-0.2,0l0.7-2.4
				c0,0,4.7-1.4,8.3-2.4c3.6-1,8.6-1.6,8.6-1.6l1.2,0.5C87.3,36.4,87.3,36.9,87.3,36.9z"/>
			<path class="st8" d="M94.7,39.1L94.7,39.1c-0.1-0.4-0.4-0.7-0.9-0.8c0,0,0,0,0,0h0c-0.1,0-0.3,0-0.4,0c0,0-0.1,0-0.3,0
				c-0.9,0.1-26.1,6.5-26.2,6.5c-0.8,0.2-1.7,1-1.9,1.8l-2.8,10.9c0,0.1,0,0.2,0,0.3c0,0.1,0,0.2,0.1,0.2c0,0,0,0,0.1,0.1
				c0,0,0,0,0.1,0h0c0.1,0.1,0.2,0.2,0.3,0.2c-0.3,0-0.7-0.1-0.9-0.2c-0.9-0.4-1.7-1.4-1.5-2l1.2-4.7L57.6,49l0.4-1.4l0.1,0.1
				l-0.1,0l1.2,0.6l0.1,0h0l0,0l2.6,1.4l0-0.1v0l0.2-0.9l0.2-1l0.1-0.5l0.1-0.5l0.3-1.2c0.2-0.9,1.2-1.9,2.2-2.1c0,0,1.3-0.4,3.1-1
				l0,0l0,0l0,0l0.2,0l0.1,0l18.3-4.3l0.1,0l0.1,0c2.5-0.4,4.6-0.7,4.6-0.7c0.1,0,0.2,0,0.3,0C93.1,37.1,94.9,38.2,94.7,39.1z"/>
			<path class="st7" d="M86.9,37.9l-18.3,4.3c1.2-0.3,5.5-1.5,9.3-2.4C81.8,38.9,86,38.1,86.9,37.9z"/>
			<path class="st7" d="M62.8,58.5c0,0-0.1,0-0.2,0c-0.1,0-0.2-0.1-0.3-0.2c0,0,0.1,0,0.1,0.1c0,0,0.1,0,0.1,0.1
				C62.7,58.5,62.8,58.5,62.8,58.5z"/>
		</g>
		<g>
			<path class="st7" d="M62.6,58.4c0,0-0.1,0-0.1-0.1c0,0-0.1,0-0.1-0.1C62.4,58.4,62.5,58.5,62.6,58.4c0.1,0.1,0.2,0.1,0.2,0.1
				C62.8,58.5,62.7,58.5,62.6,58.4z"/>
			<path class="st9" d="M94.6,39.7l-2.8,10.9c-0.2,0.9-1.2,1.9-2.2,2.1c0,0-1.4,0.5-3.4,1.1c-0.4,0.1-1.2,0.4-1.6,1.1
				c-0.3,0.7-0.6,1.1-0.6,1.1l-17.3,4c0,0,0-0.3-0.1-0.9c0-0.3-0.2-0.4-0.4-0.5c-0.1,0-0.3-0.1-0.5-0.1c-0.2,0-0.4,0-0.5,0
				c0,0,0,0,0,0c-1.2,0.2-2.5,0.1-2.7,0.1c0,0,0,0,0,0c0.1,0,0.2,0,0.2,0c0,0-0.1-0.1-0.2-0.1c0,0-0.1,0-0.1-0.1c0,0-0.1,0-0.1-0.1
				h0c0,0,0,0-0.1,0c0,0,0,0-0.1-0.1c0-0.1-0.1-0.1-0.1-0.2c0-0.1,0-0.2,0-0.3l2.8-10.9c0.2-0.8,1-1.6,1.9-1.8
				c0.1,0,25.3-6.4,26.2-6.5c0.2,0,0.3,0,0.3,0c0.2,0,0.3,0,0.4,0h0c0,0,0,0,0,0c0.5,0,0.9,0.3,0.9,0.8c0,0,0,0,0,0v0
				C94.7,39.3,94.7,39.5,94.6,39.7z"/>
		</g>
		<g>
			<g>
				<path class="st3" d="M96.8,71.8l-5-12.8c-0.4-1-1.5-1.6-2.5-1.4c0,0-1,0.1-2.4,0.3c-0.5,0.1-1.6,0.2-2.1-0.6
					c-0.5-0.7-0.7-1-0.7-1L67,60.2c0,0,0,0.4,0.1,1.2c0.1,0.8-0.7,1-1,1.1c-1.8,0.6-3.2,1.1-3.2,1.1c-0.3,0.1-0.5,0.2-0.7,0.3
					c-0.2,0.2-0.4,0.5-0.5,0.8c-0.1,0.2-0.1,0.4,0,0.7c0,0.1,0,0.3,0.1,0.4l5.1,12.8c0.2,0.7,0.8,1.2,1.5,1.3c0.3,0.1,0.6,0.1,1,0
					c0,0,11.6-0.8,14.3-1.4c0,0,0,0,0,0c0,0,0,0,0.1,0c2.5-0.6,12-4.5,12-4.5c0.3-0.1,0.6-0.2,0.8-0.4c0,0,0,0,0,0
					C97,73.2,97.1,72.5,96.8,71.8z M81.9,74.4c-0.6,0.1-1.1,0.1-1.7,0c-0.6-0.1-1.2-0.3-1.7-0.6h0c0,0,0,0,0,0
					c-0.8-0.5-1.4-1.2-1.7-2c0,0,0,0,0-0.1c-0.2-0.4-0.2-0.9-0.2-1.3c0.1-1.4,1.1-2.6,2.6-2.9c2.1-0.5,4.3,0.7,5.1,2.6
					C85,72,83.9,73.9,81.9,74.4z"/>
				<path class="st2" d="M81.9,74.4c-0.6,0.1-1.1,0.1-1.7,0c-0.6-0.1-1.2-0.3-1.7-0.6c0.3,0.1,0.7,0.2,1.1,0.2c0.2,0,0.4,0,0.6-0.1
					c0.6-0.1,1.1-0.5,1.4-1c0.3-0.5,0.3-1,0.1-1.6c-0.4-1-1.5-1.7-2.7-1.7c-0.2,0-0.4,0-0.6,0.1c-0.6,0.1-1.2,0.5-1.4,1
					c-0.2,0.3-0.2,0.7-0.2,1c-0.2-0.4-0.2-0.9-0.2-1.3c0.1-1.4,1.1-2.6,2.6-2.9c2.1-0.5,4.3,0.7,5.1,2.6C85,72,83.9,73.9,81.9,74.4z
					"/>
				<path class="st8" d="M96.5,73.6c-0.3,0.7-1.6,1.2-2.4,1.4c0,0-9.6,4-12,4.5C79.7,80.1,67.7,81,67.7,81c-0.1,0-0.3,0-0.4,0
					c-0.9,0-1.7-0.6-2.1-1.4l-5-12.8c-0.4-1,1-2.6,2-2.8c-0.2,0.2-0.4,0.5-0.5,0.8c-0.1,0.2-0.1,0.4,0,0.7c0,0.1,0,0.3,0.1,0.4
					l5.1,12.8c0.2,0.7,0.8,1.2,1.5,1.3c0.3,0.1,0.6,0.1,1,0c0,0,11.6-0.8,14.3-1.4c0,0,0,0,0,0c0,0,0,0,0.1,0c2.5-0.6,12-4.5,12-4.5
					C96.1,74,96.3,73.8,96.5,73.6z"/>
			</g>
		</g>
		<path class="st7" d="M86.9,37.9l-18.3,4.3c1.2-0.3,5.5-1.5,9.3-2.4C81.8,38.9,86,38.1,86.9,37.9z"/>
		<path class="st10" d="M69.9,41.3l0.2-0.9c0,0,12.3-3.3,15.2-3.5"/>
		<g>
			<path class="st11" d="M78.5,47.5c1.1-0.5,2.2-0.5,3.1-0.1c-0.2-0.4-0.5-0.8-1-1c-1-0.4-2.4,0.3-3.3,1.2c-1.1,1-1.7,2.3-1.5,3.3
				c0.1,0.2,0.2,0.4,0.3,0.6c0,0,0,0,0,0C75.5,51.1,76.6,48.4,78.5,47.5z"/>
			<path class="st12" d="M82,49.8c0-0.2,0-0.4-0.1-0.6c-0.1-0.6-0.2-1.2-0.4-1.7c-0.9-0.4-2-0.4-3.1,0.1c-1.9,0.8-2.9,3.6-2.4,4
				c0,0,0,0,0,0c0.4,0.5,0.9,0.9,1.5,1.2C78.6,51.1,80.3,49.9,82,49.8z"/>
			<path class="st13" d="M82.2,54.9c0.1-1.7,0.1-3.5-0.1-5.2c-1.8,0.2-3.4,1.4-4.5,3c0,0,0.1,0.1,0.1,0.1
				C79.1,53.7,80.6,54.3,82.2,54.9z"/>
			<path class="st10" d="M82.2,54.9c-1.6-0.6-3.1-1.2-4.5-2.1c-0.8-0.5-1.7-1-1.9-1.9c-0.3-1.1,0.4-2.3,1.5-3.3
				c1-0.9,2.3-1.5,3.3-1.2c1.1,0.4,1.3,1.7,1.4,2.7C82.2,51,82.3,53,82.2,54.9z"/>
		</g>
	</g>
	<g>
		<g>
			<path class="st14" d="M101.5,47.1c3,1.5,5.1,5,5.1,9.2c0,4.2-2.1,7.7-5.1,9.2"/>
			<g>
				<path d="M98.5,46.4c1.3,0.9,2.9,2.3,3.7,3.5l-0.2-2.6l1.5-2.2C102.1,45.8,100,46.2,98.5,46.4z"/>
			</g>
			<g>
				<path d="M98.5,66.3c1.3-0.9,2.9-2.3,3.7-3.5l-0.2,2.6l1.5,2.2C102.1,66.9,100,66.4,98.5,66.3z"/>
			</g>
		</g>
	</g>
</g>
</svg>
