<?xml version="1.0" encoding="utf-8"?>
<!-- Generator: Adobe Illustrator 21.1.0, SVG Export Plug-In . SVG Version: 6.00 Build 0)  -->
<svg version="1.1" id="Layer_1" xmlns="http://www.w3.org/2000/svg" xmlns:xlink="http://www.w3.org/1999/xlink" x="0px" y="0px"
	 width="108px" height="108px" viewBox="0 0 108 108" style="enable-background:new 0 0 108 108;" xml:space="preserve">
<style type="text/css">
	.st0{fill:#B3B3B3;stroke:#000000;stroke-width:0.5;stroke-linecap:round;stroke-linejoin:round;stroke-miterlimit:10;}
	.st1{fill:#CCCCCC;stroke:#000000;stroke-width:0.5;stroke-linecap:round;stroke-linejoin:round;stroke-miterlimit:10;}
	.st2{fill:#999999;stroke:#000000;stroke-width:0.5;stroke-linecap:round;stroke-linejoin:round;stroke-miterlimit:10;}
	.st3{fill:#E6E6E6;stroke:#000000;stroke-width:0.75;stroke-linecap:round;stroke-linejoin:round;stroke-miterlimit:10;}
	.st4{fill:#FFFFFF;}
	.st5{fill:#F2F2F2;}
	.st6{fill:none;stroke:#000000;stroke-width:0.75;stroke-linecap:round;stroke-linejoin:round;stroke-miterlimit:10;}
	.st7{fill:#FFFFFF;stroke:#000000;stroke-width:0.75;stroke-linecap:round;stroke-linejoin:round;stroke-miterlimit:10;}
	.st8{fill:#CCCCCC;stroke:#000000;stroke-width:0.75;stroke-linecap:round;stroke-linejoin:round;stroke-miterlimit:10;}
	.st9{fill:#E6E6E6;}
	.st10{fill:#999999;}
	.st11{fill:#B3B3B3;}
	.st12{fill:#CCCCCC;}
	.st13{fill:none;stroke:#000000;stroke-width:0.5;stroke-linecap:round;stroke-linejoin:round;stroke-miterlimit:10;}
	.st14{fill:none;stroke:#000000;stroke-width:0.75;stroke-miterlimit:10;}
</style>
<g>
	<g>
		<path class="st0" d="M54.3,36.4c-1,1.4-1.5,3.1-2.8,4.3c-0.6,0.6-1.4,1-2.2,1.1c-1,0.1-1.2-0.2-1.7-0.9c1.5-0.6,2.2-2.2,3-3.5
			c0.2-0.4,0.8-2,1.3-2.1c0.2-0.1,1,0.5,1.3,0.6C53.5,36.1,53.9,36.2,54.3,36.4z"/>
		<path class="st1" d="M46,32.7c-0.3,2.5-0.7,5-1,7.4c-0.6-1.2-0.9-2.5-1.2-3.8c-0.4-1.7-0.8-3.4-1.1-5.2
			C43.7,31.6,44.9,32.1,46,32.7z"/>
		<path class="st1" d="M19.3,20.6c-0.2,2.2-0.6,5-3,5.9c-2.1,0.7-4.9-0.8-6.7-1.6c-1.7-0.8-4.9-2.3-4.8-4.6c0.1-2.8,3.9-0.7,5.1-0.1
			c1,0.5,2.4,1.6,3.6,1.3c1.1-0.3,1.1-2,1.2-3C16.1,19.1,17.7,19.8,19.3,20.6z"/>
		<path class="st0" d="M14.2,20.4c-0.3,1.9-2.9,0.5-3.7,0c-1.4-0.7-3.2-2.1-4.9-1.6c1.3-0.7,3-0.6,4.4-0.3
			C11.4,19,12.7,20.1,14.2,20.4z"/>
		<path class="st0" d="M21.5,21.5c-0.2,2-0.3,3.8-2.3,4.8c-1.4,0.7-3.9,0.7-5.4,0c1.6,0.4,2.9,0.1,4-1.2c1.2-1.4,1.3-2.9,1.4-4.6
			C20.1,20.9,20.8,21.2,21.5,21.5z"/>
		<path class="st2" d="M48.3,33.7c-0.2,1.2-0.4,2.5-0.6,3.7c-0.1,0.8-0.2,1.6-0.4,2.4c0,0.2,0,0.8-0.2,0.9c-0.2,0.1-1,0.2-1.2,0.1
			c-0.4,0-0.8-0.2-1-0.6c-0.1-0.3,0.1-0.7,0.1-1c0.1-0.8,0.2-1.5,0.3-2.3c0.2-1.4,0.4-2.8,0.6-4.2C46.8,33,47.5,33.4,48.3,33.7z"/>
		<path class="st1" d="M51.8,35.3c-0.7,1.1-1.3,2.2-1.9,3.3c-0.3,0.5-0.6,0.9-0.9,1.3c-0.2,0.3-1,1.1-1.4,1c-0.8-0.1,0-2.5,0.1-2.9
			c0.2-1.4,0.4-2.8,0.6-4.3C49.5,34.2,50.6,34.8,51.8,35.3z"/>
		<path class="st3" d="M75.9,58.1c-0.6,0.1-2.1,0.2-2.5-0.5c-0.2-0.4-0.1-1.2-0.2-1.6c-0.1-1-0.2-2-0.3-2.9
			c-0.1-1.6-0.3-3.1-0.4-4.7c-0.1-1,0-2.4-0.4-3.3c-0.3-0.7-1.2-0.9-1.8-1.2c-1.5-0.7-3-1.4-4.5-2.1c-3.4-1.6-6.9-3.1-10.3-4.7
			c-4.4-2-8.7-4-13.1-5.9c-6.2-2.8-12.4-5.6-18.6-8.5c-1.8-0.8-3.6-1.6-5.3-2.4c-1.3-0.6-2.7-1.2-4-1.8c-0.8-0.4-1.6-0.7-2.4-1.1
			c-0.4-0.2-1.3-0.4-1.5-0.7c-0.2-0.5,0.2-1.7,0.3-2.2c3.1,1.4,6.2,2.8,9.3,4.2c6.9,3.1,13.8,6.3,20.7,9.4
			c7.1,3.2,14.2,6.4,21.2,9.6c3.5,1.6,7.2,3,10.7,4.8c2,1,2.2,2.6,2.3,4.7c0.3,3.3,0.5,6.7,0.8,10C75.8,57.4,75.9,57.7,75.9,58.1z"
			/>
		<path class="st4" d="M90.7,39.5c-1.9-0.9-3.9-1.8-5.8-2.6c-7.2-3.3-14.5-6.6-21.7-9.8c-7.8-3.5-15.5-7-23.3-10.6
			c-2.6-1.2-5.1-2.3-7.7-3.5c-0.8-0.4-1.9-1.1-2.7-1.2c-0.3,0-0.8,0.1-1.2,0.2c-0.8,0.1-1.5,0.2-2.3,0.3c-2.1,0.3-4.2,0.6-6.3,0.8
			c-3,0.4-6,0.8-9,1.2c0,0,0.1,0,0.2,0.1c0.3,0.3,1,0.4,1.3,0.6c0.8,0.4,1.6,0.7,2.4,1.1c2.6,1.2,5.1,2.3,7.7,3.5
			c7.1,3.2,14.2,6.5,21.3,9.7c6.8,3.1,13.7,6.2,20.5,9.3c2.1,1,4.3,1.9,6.4,2.9c0.9,0.4,1.9,0.8,2.7,1.4c0.8,0.6,1.2,1.3,1.4,2.2
			c5.9-1.2,11.9-2.4,18.2-3C92.6,40.9,91.9,40.1,90.7,39.5z"/>
		<path class="st5" d="M93.3,50.3c0-1.7-0.1-3.5,0-5.2c0-0.7,0-1.3-0.1-2c0-0.4-0.1-0.8-0.2-1.1c-6.3,0.7-12.3,1.8-18.2,3
			c0.3,1.2,0.3,2.6,0.4,3.9c0.2,3.1,0.5,6.1,0.7,9.2c1.5-0.3,3-0.7,4.5-1c2.5-0.6,5-1.1,7.5-1.7c1.1-0.2,2.1-0.5,3.2-0.7
			c0.6-0.1,1.4-0.2,1.9-0.4c0.4-0.2,0.3-0.1,0.3-0.6C93.3,52.5,93.3,51.4,93.3,50.3z"/>
		<path class="st6" d="M93.3,45.1c0,1.7,0,3.5,0,5.2c0,1.1,0,2.2,0,3.3c0,0.5,0.1,0.4-0.3,0.6c-0.5,0.3-1.4,0.3-1.9,0.4
			c-1.1,0.2-2.1,0.5-3.2,0.7c-2.5,0.6-5,1.1-7.5,1.7c-1.5,0.3-3,0.7-4.5,1c-0.2-3.1-0.5-6.1-0.7-9.2c-0.2-2.1,0.1-4.7-1.8-6.1
			c-0.8-0.6-1.8-0.9-2.7-1.4c-2.1-1-4.3-1.9-6.4-2.9c-6.8-3.1-13.7-6.2-20.5-9.3c-7.1-3.2-14.2-6.5-21.3-9.7
			c-2.6-1.2-5.1-2.3-7.7-3.5c-0.8-0.4-1.6-0.7-2.4-1.1c-0.3-0.2-1-0.3-1.3-0.6c0,0-0.1-0.1-0.2-0.1c3-0.4,6-0.8,9-1.2
			c2.1-0.3,4.2-0.6,6.3-0.8c0.8-0.1,1.5-0.2,2.3-0.3c0.3,0,0.8-0.2,1.2-0.2c0.9,0.1,1.9,0.8,2.7,1.2c2.6,1.2,5.1,2.3,7.7,3.5
			c7.8,3.5,15.5,7,23.3,10.6c7.2,3.3,14.5,6.6,21.7,9.8c1.9,0.9,3.9,1.8,5.8,2.6c1.5,0.7,2.3,1.8,2.4,3.5
			C93.2,43.7,93.3,44.4,93.3,45.1z"/>
	</g>
	<g>
		<path class="st7" d="M102.8,91.1c0,0.3,0,0.6,0,0.9"/>
		<path class="st7" d="M97.8,96.2c-0.5-0.1-0.9-0.2-1.3-0.3"/>
		<path class="st8" d="M64.3,69.7C64.2,75.3,64,81,63.9,86.6c0,0.1,0,0.1,0,0.2c-0.5,0.1-1,0.3-1.6,0.4c0.1-5,0.2-10,0.3-15
			c0-0.7,0-1.4,0-2.2L64.3,69.7z"/>
		<line class="st7" x1="63.9" y1="86.8" x2="63.9" y2="86.8"/>
		<path class="st9" d="M84.2,60.2c-0.1,0-0.3,0-0.4,0c-0.5,0-1.1,0.1-1.6,0.2c-1.1,0.1-2.2,0.3-3.3,0.4c-2,0.2-4,0.5-6,0.7
			c-1.8,0.2-3.7,0.3-5.4,1.1c-1.9,0.9-3.2,2.8-3.2,4.9c0,0.7,0,1.5-0.1,2.2C64.2,75.3,64,81,63.9,86.6c0,0.1,0,0.1,0,0.2
			c0,1.1-0.1,2.2-0.1,3.3c0,1.2-0.2,2.9,0.9,3.7c0.6,0.5,1.5,0.1,2.2,0c1.9-0.3,3.8-0.5,5.7-0.8c3.6-0.5,7.2-1,10.8-1.5c0,0,0,0,0,0
			C83.9,81.2,84.8,70.5,84.2,60.2z"/>
		<path class="st5" d="M101.4,55.6c0-0.2,0-0.4,0-0.6V55c0-0.4,0-0.8-0.1-1.2c0,0,0-0.1,0-0.1c0-0.1,0-0.2-0.1-0.3
			c0-0.1,0-0.2-0.1-0.3c-0.2-0.5-0.4-1-0.7-1.5c0-0.1-0.1-0.1-0.1-0.2c-0.1-0.2-0.3-0.3-0.5-0.4c-0.3-0.2-0.6-0.4-1-0.6c0,0,0,0,0,0
			c-5.1-1.9-9.6-3.6-14.8-5.4l-0.5,11.5c0.7,0.1,1.6,1.1,1.8,2c0.1,0.4,0,1.6-0.4,1.8c-0.1,0.1-0.4,0.1-0.6,0.1
			c0.6,10.2-0.3,20.9-0.8,31.4c0.1,0,0.4,0.1,0.6,0.2c4.1,1.3,8.1,2.9,12.2,4c0,0,0.1,0,0.1,0c0,0,0.1,0,0.1,0
			c0.8,0.1,1.8,0.4,2.5-0.1c0.1-0.1,0.2-0.1,0.3-0.2c0.2-0.2,0.4-0.4,0.5-0.6c0.4-0.5,0.7-1.2,0.8-1.7c0.1-0.4,0.2-0.8,0.3-1.2
			c0,0,0-0.1,0-0.1c0-0.2,0-0.4,0-0.7c0-1.3,0-2.6,0-3.9v-0.3c0-0.4,0-0.9,0-1.3c0-4.8,0.1-9.6,0.2-14.4c0-0.8,0-1.6,0-2.4
			c0-0.3,0-0.7,0-1C101.2,63.9,101.1,59.8,101.4,55.6L101.4,55.6z"/>
		<path class="st6" d="M101.4,55.7c-0.2,4.1-0.1,8.2-0.1,12.3c0,0.3,0,0.7,0,1c0,0.8,0,1.6,0,2.4c-0.1,4.8-0.1,9.6-0.2,14.4
			c0,0.4,0,0.9,0,1.3v0.3c0,1.3,0,2.6,0,3.9c0,0.2,0,0.4,0,0.7c0,0,0,0.1,0,0.1c-0.1,0.4-0.2,0.8-0.3,1.2c-0.2,0.5-0.5,1.2-0.8,1.7
			c-0.2,0.2-0.3,0.4-0.5,0.6c-0.1,0.1-0.2,0.2-0.3,0.2c-0.7,0.5-1.7,0.2-2.5,0.1c0,0-0.1,0-0.1,0c0,0-0.1,0-0.1,0
			c-4.1-1.1-8.1-2.7-12.2-4c-0.3-0.1-0.7-0.2-0.7-0.2c-3.6,0.5-7.2,1-10.8,1.5c-1.9,0.3-3.8,0.5-5.7,0.8c-0.7,0.1-1.6,0.4-2.2,0
			c-1.1-0.8-0.9-2.5-0.9-3.7c0-1.1,0.1-2.2,0.1-3.3c0-0.1,0-0.1,0-0.2c0.1-5.6,0.3-11.3,0.4-16.9c0-0.7,0-1.5,0.1-2.2
			c0-2.1,1.3-4,3.2-4.9c1.7-0.8,3.6-0.9,5.4-1.1c2-0.2,4-0.4,6-0.7c1.1-0.1,2.2-0.3,3.3-0.4c0.5-0.1,1.1-0.1,1.6-0.2
			c0.3,0,0.8,0,1-0.1c0.4-0.2,0.5-1.4,0.4-1.8c-0.2-0.9-1-1.8-1.8-2L84,44.9c5.2,1.9,9.7,3.6,14.8,5.4c0,0,0,0,0,0
			c0.3,0.2,0.7,0.4,1,0.6c0.2,0.1,0.3,0.3,0.5,0.4c0,0.1,0.1,0.1,0.1,0.2c0.3,0.5,0.5,0.9,0.7,1.5c0,0.1,0.1,0.2,0.1,0.3
			c0,0.1,0,0.2,0.1,0.3c0,0,0,0.1,0,0.1c0.1,0.4,0.1,0.8,0.1,1.2V55C101.4,55.2,101.4,55.4,101.4,55.7L101.4,55.7z"/>
		<path class="st3" d="M101.4,55L101.4,55c0-0.5,0-0.9-0.1-1.3c0,0,0-0.1,0-0.1c0-0.1,0-0.2-0.1-0.3c0-0.1,0-0.2-0.1-0.3
			c-0.1-0.5-0.4-1-0.7-1.5c0-0.1-0.1-0.1-0.1-0.2c-0.2-0.3-0.5-0.6-0.8-0.8c-0.2-0.1-0.4-0.2-0.6-0.2c0,0,0,0,0,0
			c-1-0.5-2-0.8-3-1.1c-3.9-1.5-7.9-2.9-11.8-4.3c0.6-0.1,1.2-0.3,1.8-0.3l14.9,5.3c0.3,0.2,0.7,0.4,1,0.6c0,0,0,0,0,0c0,0,0,0,0,0
			c0.8,0.8,1.3,2,1.4,3.2c0,0.2,0,0.3,0,0.4v0.1c0,0.2,0,0.4,0,0.5l-0.4,36.6c0,1.1-0.1,2.2-0.9,3.1c-0.9,1.1-2.5,1.6-3.9,1.5
			c0.4,0,0.9-0.3,1.2-0.6c0.2-0.2,0.4-0.4,0.5-0.6c0.1-0.2,0.3-0.4,0.4-0.6c0.4-0.8,0.7-1.5,0.7-2.4c0,0,0-0.1,0-0.1L101.4,55z"/>
		<path class="st7" d="M100.9,92c0-0.2,0-0.4,0-0.7c0-1.3,0-2.6,0-3.9C101,88.9,101.1,90.5,100.9,92z"/>
		<path class="st7" d="M101.2,71.4c0,5.2-0.1,10.5-0.2,15.7c0-0.4,0-0.9,0-1.3C101.1,81.1,101.1,76.3,101.2,71.4z"/>
		<path class="st7" d="M103.2,62.4c0-0.7,0-1.5,0.1-2.2c0,9.5-0.2,19-0.4,28.5c0.1-5.8,0.1-11.5,0.2-17.3
			C103.1,68.4,103.1,65.4,103.2,62.4z"/>
		<path class="st10" d="M67.1,75.7c0.6-1.2,1.8-2,3.1-2.3c-0.7-0.2-1.5-0.3-2.2-0.1c-1.4,0.4-2.1,1.9-2.1,3.3c0,1.6,0.8,3.1,2.3,3.8
			c0.3,0.1,0.6,0.2,1,0.3c0,0,0,0,0,0C68.1,80.7,66.1,77.7,67.1,75.7z"/>
		<path class="st11" d="M73.4,75c-0.2-0.1-0.5-0.3-0.7-0.4c-0.7-0.4-1.6-0.9-2.4-1.1c-1.3,0.3-2.6,1.1-3.1,2.3c-1,2,1,5,2,5
			c0,0,0,0,0,0c1,0.2,2,0.1,3-0.1C71.4,78.6,71.8,76.4,73.4,75z"/>
		<path class="st12" d="M79.5,79.2c-1.9-1.5-3.9-2.9-6-4.1c-1.7,1.4-2,3.5-1.3,5.6c0.1,0,0.2,0,0.2,0C74.8,80.3,77.1,79.8,79.5,79.2
			z"/>
		<path class="st13" d="M79.5,79.2c-2.3,0.6-4.7,1.2-7.1,1.5c-1.3,0.2-2.9,0.4-4.2-0.2c-1.5-0.7-2.3-2.2-2.3-3.8
			c0-1.4,0.7-2.9,2.1-3.3c1.6-0.4,3.3,0.5,4.7,1.2C75.1,75.9,77.3,77.5,79.5,79.2z"/>
	</g>
</g>
<g>
	<g>
		<path class="st14" d="M91.1,100.1c-1.4,2.8-4.8,4.7-8.6,4.7c-3.9,0-7.2-1.9-8.6-4.7"/>
		<g>
			<path d="M91.8,97c-0.9,1.3-2.3,2.8-3.6,3.7l2.6-0.2L93,102C92.4,100.6,92,98.6,91.8,97z"/>
		</g>
		<g>
			<path d="M73.1,97c0.9,1.3,2.3,2.8,3.6,3.7l-2.6-0.2l-2.2,1.5C72.5,100.6,72.9,98.6,73.1,97z"/>
		</g>
	</g>
</g>
</svg>
