<?xml version="1.0" encoding="utf-8"?>
<!-- Generator: Adobe Illustrator 21.1.0, SVG Export Plug-In . SVG Version: 6.00 Build 0)  -->
<svg version="1.1" id="Layer_1" xmlns="http://www.w3.org/2000/svg" xmlns:xlink="http://www.w3.org/1999/xlink" x="0px" y="0px"
	 width="108px" height="108px" viewBox="0 0 108 108" style="enable-background:new 0 0 108 108;" xml:space="preserve">
<style type="text/css">
	.st0{fill:#E6E6E6;stroke:#000000;stroke-width:0.75;stroke-linecap:round;stroke-linejoin:round;stroke-miterlimit:10;}
	.st1{fill:#F2F2F2;stroke:#000000;stroke-width:0.75;stroke-linecap:round;stroke-linejoin:round;stroke-miterlimit:10;}
	.st2{fill:#CCCCCC;stroke:#000000;stroke-width:0.75;stroke-linecap:round;stroke-linejoin:round;stroke-miterlimit:10;}
	.st3{fill:#FFFFFF;stroke:#000000;stroke-width:0.75;stroke-linecap:round;stroke-linejoin:round;stroke-miterlimit:10;}
	.st4{fill:#999999;stroke:#000000;stroke-width:0.75;stroke-linecap:round;stroke-linejoin:round;stroke-miterlimit:10;}
	.st5{fill:#B3B3B3;stroke:#000000;stroke-width:0.75;stroke-linecap:round;stroke-linejoin:round;stroke-miterlimit:10;}
	.st6{fill:#CCCCCC;stroke:#000000;stroke-width:0.5;stroke-linecap:round;stroke-linejoin:round;stroke-miterlimit:10;}
	.st7{fill:#666666;stroke:#000000;stroke-width:0.5;stroke-linecap:round;stroke-linejoin:round;stroke-miterlimit:10;}
	.st8{fill:none;stroke:#000000;stroke-width:0.5;stroke-linecap:round;stroke-linejoin:round;stroke-miterlimit:10;}
	.st9{fill:#B3B3B3;stroke:#000000;stroke-width:0.5;stroke-linecap:round;stroke-linejoin:round;stroke-miterlimit:10;}
</style>
<g>
	<polygon class="st0" points="95.2,82.1 94.8,82.9 94.3,83.7 93.7,84.4 93,84.9 92.1,35.7 91.3,35 90.4,34.4 89.5,34 88.4,33.8 
		87.3,33.7 86.3,33.9 85.3,34.2 84.4,34.7 62.9,31 62,30.9 61.1,30.8 60.3,31 59.4,31.2 59.4,31.2 60.6,30.6 62.2,29.9 63.8,29.3 
		65.5,29 67.2,28.9 84.7,32.2 86.7,31.6 88.6,31.3 89.5,31.2 90.3,31.2 91.2,31.5 92,31.9 92.8,32.4 93.3,33 93.8,33.8 94.2,34.6 
		94.3,35.5 	"/>
	<polygon class="st1" points="93,84.9 92.2,85.2 91.2,85.5 90.3,85.5 89.4,85.4 88.4,33.8 89.5,34 90.4,34.4 91.3,35 92.1,35.7 	"/>
	<polygon class="st2" points="89.4,85.4 85.4,87.4 84.4,34.7 85.3,34.2 86.3,33.9 87.3,33.7 88.4,33.8 	"/>
	<polygon class="st1" points="85.4,87.4 59.7,82.6 58.7,81.9 57.8,81.1 57.2,80.1 57.2,80.1 56.6,33.7 56.6,33.7 57.8,32.5 
		59.1,31.4 59.4,31.2 59.4,31.2 60.3,31 61.1,30.8 62,30.9 62.9,31 84.4,34.7 	"/>
	<polygon class="st0" points="48.8,30.4 48.1,30.2 47.2,30 46.3,30.1 45.5,30.3 30.5,35.8 29.6,36.2 28.7,36.7 27.9,37.3 27.3,38.2 
		26.7,39 26.4,40 26.3,41 26.6,86.7 26.7,87.6 26.9,88.4 27.3,89.2 27.8,89.9 28.4,90.5 29.2,90.9 30,91.2 27.3,90.6 26.3,90.6 
		25.4,90.3 24.6,89.8 23.9,89.2 23.4,88.4 23,87.5 23,86.7 22.9,86.5 22.9,82.5 22.2,41.2 22.3,40 22.6,38.9 23.1,37.9 23.7,36.9 
		24.5,36 25.4,35.3 26.3,34.6 27.4,34.2 42.7,28.9 44.3,29 46,29.3 47.5,29.7 	"/>
	<line class="st3" x1="49" y1="30.5" x2="48.8" y2="30.4"/>
	<polygon class="st4" points="23,86.7 22.9,86.7 13.7,81 22.8,82.5 22.9,82.5 22.9,86.5 	"/>
	<polygon class="st5" points="67.1,100.3 66.7,100.8 66.2,101.3 65.5,101.7 64.8,102 64.8,102 30.6,96.8 29.9,96.2 29.4,95.4 
		29.1,94.5 29,93.7 29.1,92.8 29.4,92 30,91.2 67,96.8 	"/>
	<polygon class="st2" points="69.5,94.2 70.2,100.1 69.6,100.8 68.9,101.4 68.1,101.8 67.2,102.1 66.3,102.2 64.8,102 64.8,102 
		65.5,101.7 66.2,101.3 66.7,100.8 67.1,100.3 67,96.8 52.7,87.4 52.9,80.8 52.3,33.6 52,27.1 78.1,15.1 78.3,10.5 81.1,9.3 
		81.6,17.1 56.5,28.4 56.6,33.7 57.2,80.1 57.3,85.9 	"/>
	<polygon class="st3" points="81.1,9.3 78.3,10.5 43.1,7.1 46.8,5.8 	"/>
	<polygon class="st1" points="78.3,10.5 78.1,15.1 42.7,10.7 43.1,7.1 	"/>
	<polygon class="st4" points="67,96.8 30,91.2 42.3,86 42.3,86 52.7,87.4 	"/>
	<polygon class="st1" points="52.9,80.8 52.7,87.4 42.3,86 42.3,86 50.6,82.4 51.2,82.1 51.5,81.6 51.8,81.1 	"/>
	<polygon class="st1" points="52.9,80.8 51.8,81.1 51.5,81.6 51.2,82.1 50.6,82.4 42.3,86 30,91.2 29.2,90.9 28.4,90.5 27.8,89.9 
		27.3,89.2 26.9,88.4 26.7,87.6 26.6,86.7 26.3,41 26.4,40 26.7,39 27.3,38.2 27.9,37.3 28.7,36.7 29.6,36.2 30.5,35.8 45.5,30.3 
		46.3,30.1 47.2,30 48.1,30.2 48.8,30.4 49,30.4 49.8,30.9 50.5,31.5 51,32.2 51.4,33.1 52.3,33.6 	"/>
	<polygon class="st1" points="52.3,33.6 51.4,33.1 51,32.2 50.5,31.5 49.8,30.9 49,30.4 48.8,30.4 47.5,29.7 46,29.3 44.3,29 
		42.7,28.9 27.4,34.2 26.3,34.6 25.4,35.3 24.5,36 23.7,36.9 23.1,37.9 22.6,38.9 22.3,40 22.2,41.2 22.9,82.5 22.8,82.5 13.7,81 
		13.2,80.3 12.9,79.5 12.8,78.7 13.2,21.9 52,27.1 	"/>
	<polygon class="st3" points="78.1,15.1 52,27.1 13.2,21.9 42.7,10.7 	"/>
	<g>
		<polygon class="st6" points="44.8,61.1 44.6,62.3 44.3,63.5 43.9,64.5 43.3,65.4 42.6,66.2 41.9,66.9 41,67.3 40.2,67.6 
			39.3,67.7 38.4,67.6 37.6,67.2 36.8,66.7 36.1,66 35.5,65.2 35,64.2 34.6,63.1 34.3,61.9 34.2,60.7 34.3,59.5 34.5,58.3 
			34.8,57.1 35.2,56.1 35.8,55.2 36.5,54.3 37.3,53.7 38.1,53.2 38.9,53 39.8,52.9 40.7,53 41.5,53.4 42.3,53.9 43,54.6 43.6,55.4 
			44.1,56.4 44.5,57.5 44.8,58.7 44.8,59.8 		"/>
		<polygon class="st7" points="40.3,60.1 40.2,60.8 39.9,61.5 39.6,62.1 39.2,62.7 38.7,63.1 38.2,63.5 37.6,63.6 37.1,63.7 
			36.5,63.6 36,63.4 35.5,63.1 35.1,62.6 34.8,62 34.5,61.4 34.4,60.7 34.3,60 34.4,59.3 34.6,58.6 34.9,57.9 35.2,57.3 35.7,56.9 
			36.2,56.4 36.7,56.2 37.3,56 37.8,56.1 38.4,56.2 38.9,56.5 39.3,56.9 39.7,57.4 40,58 40.2,58.6 40.3,59.4 		"/>
	</g>
	<g>
		<polyline class="st8" points="43.4,39 45.7,38.4 46.2,38.2 46.7,37.8 47,37.3 47.1,36.8 47.1,36.2 46.9,35.6 46.5,35.2 46,34.9 		
			"/>
		<polyline class="st8" points="43.5,42.3 43.4,35.5 46,34.9 		"/>
		<polygon class="st8" points="39,37.5 38.5,37.5 38.1,37.6 37.7,37.8 37.2,38.1 36.8,38.5 36.6,39 36.3,39.5 36.1,40 36,40.7 
			36,41.3 36.1,41.8 36.3,42.4 36.5,42.8 36.8,43.2 37.2,43.5 37.6,43.7 38,43.8 38.5,43.7 38.9,43.6 39.3,43.3 39.7,43 40.1,42.6 
			40.4,42.1 40.6,41.5 40.7,40.9 40.8,40.3 40.7,39.7 40.6,39.2 40.4,38.7 40.1,38.3 39.8,37.9 39.4,37.7 		"/>
		<line class="st8" x1="32.4" y1="39.8" x2="32.7" y2="46.2"/>
		<line class="st8" x1="30.1" y1="40.5" x2="34.8" y2="39.1"/>
	</g>
	<g>
		<polygon class="st6" points="76.5,59.2 76.4,60.2 76.1,61.1 75.6,62 75,62.7 74.3,62.8 73.6,62.8 73,62.5 74,62.1 73,54.9 
			67.6,57.4 68.3,58.7 68.8,60.2 69.3,61.7 69.5,63.2 69.6,63.9 69.6,64.7 68.6,64.7 67.5,64.5 66.5,64.1 65.4,63.6 64.6,62.9 
			63.8,62 63.9,60.8 64.1,59.6 64.6,58.4 65.3,57.5 66.2,56.7 67.3,55.8 68.5,55.1 69.7,54.5 71,54.1 72.4,53.8 73.3,54.2 
			74.3,54.7 75,55.5 75.7,56.3 76.2,57.2 76.4,58.2 		"/>
		<polygon class="st9" points="74,62.1 73,62.5 72.9,62.5 69.6,63.9 69.6,63.9 69.5,63.2 69.3,61.7 68.8,60.2 68.3,58.7 67.6,57.4 
			73,54.9 		"/>
	</g>
</g>
</svg>
