<?xml version="1.0" encoding="utf-8"?>
<!-- Generator: Adobe Illustrator 21.1.0, SVG Export Plug-In . SVG Version: 6.00 Build 0)  -->
<svg version="1.1" id="Layer_1" xmlns="http://www.w3.org/2000/svg" xmlns:xlink="http://www.w3.org/1999/xlink" x="0px" y="0px"
	 width="108px" height="108px" viewBox="0 0 108 108" style="enable-background:new 0 0 108 108;" xml:space="preserve">
<style type="text/css">
	.st0{fill:#B3B3B3;stroke:#000000;stroke-width:0.5;stroke-linecap:round;stroke-linejoin:round;stroke-miterlimit:10;}
	.st1{fill:#CCCCCC;stroke:#000000;stroke-width:0.5;stroke-linecap:round;stroke-linejoin:round;stroke-miterlimit:10;}
	.st2{fill:#999999;stroke:#000000;stroke-width:0.5;stroke-linecap:round;stroke-linejoin:round;stroke-miterlimit:10;}
	.st3{fill:#E6E6E6;stroke:#000000;stroke-width:0.75;stroke-linecap:round;stroke-linejoin:round;stroke-miterlimit:10;}
	.st4{fill:#FFFFFF;}
	.st5{fill:#F2F2F2;}
	.st6{fill:none;stroke:#000000;stroke-width:0.75;stroke-linecap:round;stroke-linejoin:round;stroke-miterlimit:10;}
	.st7{fill:#B3B3B3;}
	.st8{fill:none;stroke:#000000;stroke-width:0.5;stroke-linecap:round;stroke-linejoin:round;stroke-miterlimit:10;}
	.st9{fill:#FFFFFF;stroke:#000000;stroke-width:0.75;stroke-linecap:round;stroke-linejoin:round;stroke-miterlimit:10;}
	.st10{fill:#FFFFFF;stroke:#000000;stroke-width:0.5;stroke-linecap:round;stroke-linejoin:round;stroke-miterlimit:10;}
</style>
<g>
	<g>
		<path class="st0" d="M54.6,41.6c-1,1.4-1.5,3.1-2.8,4.3c-0.6,0.6-1.4,1-2.2,1.1c-1,0.1-1.2-0.2-1.7-0.9c1.5-0.6,2.2-2.2,3-3.5
			c0.2-0.4,0.8-2,1.3-2.1c0.2-0.1,1,0.5,1.3,0.6C53.8,41.2,54.2,41.4,54.6,41.6z"/>
		<path class="st1" d="M46.3,37.8c-0.3,2.5-0.7,5-1,7.4c-0.6-1.2-0.9-2.5-1.2-3.8c-0.4-1.7-0.8-3.4-1.1-5.2
			C44,36.8,45.2,37.3,46.3,37.8z"/>
		<path class="st1" d="M19.6,25.7c-0.2,2.2-0.6,5-3,5.9c-2.1,0.7-4.9-0.8-6.7-1.6C8.2,29.1,5,27.6,5,25.3c0.1-2.8,3.9-0.7,5.1-0.1
			c1,0.5,2.4,1.6,3.6,1.3c1.1-0.3,1.1-2,1.2-3C16.4,24.3,18,25,19.6,25.7z"/>
		<path class="st0" d="M14.5,25.6c-0.3,1.9-2.9,0.5-3.7,0c-1.4-0.7-3.2-2.1-4.9-1.6c1.3-0.7,3-0.6,4.4-0.3
			C11.7,24.1,13,25.3,14.5,25.6z"/>
		<path class="st0" d="M21.8,26.7c-0.2,2-0.3,3.8-2.3,4.8c-1.4,0.7-3.9,0.7-5.4,0c1.6,0.4,2.9,0.1,4-1.2c1.2-1.4,1.3-2.9,1.4-4.6
			C20.4,26.1,21.1,26.4,21.8,26.7z"/>
		<path class="st2" d="M48.6,38.9c-0.2,1.2-0.4,2.5-0.6,3.7c-0.1,0.8-0.2,1.6-0.4,2.4c0,0.2,0,0.8-0.2,0.9c-0.2,0.1-1,0.2-1.2,0.1
			c-0.4,0-0.8-0.2-1-0.6c-0.1-0.3,0.1-0.7,0.1-1c0.1-0.8,0.2-1.5,0.3-2.3c0.2-1.4,0.4-2.8,0.6-4.2C47.1,38.2,47.8,38.5,48.6,38.9z"
			/>
		<path class="st1" d="M52.1,40.5c-0.7,1.1-1.3,2.2-1.9,3.3c-0.3,0.5-0.6,0.9-0.9,1.3c-0.2,0.3-1,1.1-1.4,1c-0.8-0.1,0-2.5,0.1-2.9
			c0.2-1.4,0.4-2.8,0.6-4.3C49.8,39.4,50.9,39.9,52.1,40.5z"/>
		<path class="st3" d="M76.9,91c-0.6,0.1-2.1,0.2-2.5-0.5c-0.2-0.4-0.1-1.2-0.2-1.6c-0.1-1-0.9-29.7-1-30.7
			c-0.1-1.6-0.3-3.1-0.4-4.7c-0.1-1,0-2.4-0.4-3.3c-0.3-0.7-1.2-0.9-1.8-1.2c-1.5-0.7-3-1.4-4.5-2.1c-3.4-1.6-6.9-3.1-10.3-4.7
			c-4.4-2-8.7-4-13.1-5.9c-6.2-2.8-12.4-5.6-18.6-8.5c-1.8-0.8-3.6-1.6-5.3-2.4c-1.3-0.6-2.7-1.2-4-1.8c-0.8-0.4-1.6-0.7-2.4-1.1
			c-0.4-0.2-1.3-0.4-1.5-0.7c-0.2-0.5,0.2-1.7,0.3-2.2c3.1,1.4,6.2,2.8,9.3,4.2c6.9,3.1,13.8,6.3,20.7,9.4
			c7.1,3.2,14.2,6.4,21.2,9.6c3.5,1.6,7.2,3,10.7,4.8c2,1,2.2,2.6,2.3,4.7c0.3,3.3,1.3,34.4,1.5,37.8C76.9,90.3,76.9,90.7,76.9,91z"
			/>
		<path class="st4" d="M91,44.7c-1.9-0.9-3.9-1.8-5.8-2.6c-7.2-3.3-14.5-6.6-21.7-9.8c-7.8-3.5-15.5-7-23.3-10.6
			c-2.6-1.2-5.1-2.3-7.7-3.5c-0.8-0.4-1.9-1.1-2.7-1.2c-0.3,0-0.8,0.1-1.2,0.2c-0.8,0.1-1.5,0.2-2.3,0.3c-2.1,0.3-4.2,0.6-6.3,0.8
			c-3,0.4-6,0.8-9,1.2c0,0,0.1,0,0.2,0.1c0.3,0.3,1,0.4,1.3,0.6c0.8,0.4,1.6,0.7,2.4,1.1c2.6,1.2,5.1,2.3,7.7,3.5
			c7.1,3.2,14.2,6.5,21.3,9.7c6.8,3.1,13.7,6.2,20.5,9.3c2.1,1,4.3,1.9,6.4,2.9c0.9,0.4,1.9,0.8,2.7,1.4c0.8,0.6,1.2,1.3,1.4,2.2
			c5.9-1.2,11.9-2.4,18.2-3C92.9,46,92.2,45.2,91,44.7z"/>
		<path class="st5" d="M93.6,55.5c0-1.7-0.1-3.5,0-5.2c0-0.7,0-1.3-0.1-2c0-0.4-0.1-0.8-0.2-1.1c-6.3,0.7-12.3,1.8-18.2,3
			c0.3,1.2,0.3,2.6,0.4,3.9c0.2,3.1,1.2,33.9,1.5,37c1.5-0.3,3-0.7,4.5-1c2.5-0.6,5-1.1,7.5-1.7c1.1-0.2,2.1-0.5,3.2-0.7
			c0.6-0.1,1.4-0.2,1.9-0.4c0.4-0.2,0.3-0.1,0.3-0.6C94.4,85.4,93.6,56.6,93.6,55.5z"/>
		<path class="st6" d="M93.6,50.2c0,1.7,0,3.5,0,5.2c0,1.1,0.7,30,0.8,31c0,0.5,0.1,0.4-0.3,0.6c-0.5,0.3-1.4,0.3-1.9,0.4
			C91.1,87.8,90,88,89,88.3c-2.5,0.6-5,1.1-7.5,1.7c-1.5,0.3-3,0.7-4.5,1c-0.2-3.1-1.2-33.9-1.5-37c-0.2-2.1,0.1-4.7-1.8-6.1
			c-0.8-0.6-1.8-0.9-2.7-1.4c-2.1-1-4.3-1.9-6.4-2.9c-6.8-3.1-13.7-6.2-20.5-9.3c-7.1-3.2-14.2-6.5-21.3-9.7
			c-2.6-1.2-5.1-2.3-7.7-3.5c-0.8-0.4-1.6-0.7-2.4-1.1c-0.3-0.2-1-0.3-1.3-0.6c0,0-0.1-0.1-0.2-0.1c3-0.4,6-0.8,9-1.2
			c2.1-0.3,4.2-0.6,6.3-0.8c0.8-0.1,1.5-0.2,2.3-0.3c0.3,0,0.8-0.2,1.2-0.2c0.9,0.1,1.9,0.8,2.7,1.2c2.6,1.2,5.1,2.3,7.7,3.5
			c7.8,3.5,15.5,7,23.3,10.6c7.2,3.3,14.5,6.6,21.7,9.8c1.9,0.9,3.9,1.8,5.8,2.6c1.5,0.7,2.3,1.8,2.4,3.5
			C93.5,48.9,93.6,49.6,93.6,50.2z"/>
	</g>
	<g>
		<polygon class="st7" points="101.6,88.5 97.9,87.6 97.8,87.6 97.7,64.1 81.7,58.9 81.8,58.6 88.5,56.5 101.2,61.3 		"/>
		<line class="st8" x1="77.3" y1="51" x2="91.4" y2="47.5"/>
		<polygon class="st9" points="96.8,90.4 96.6,90.6 83.2,86.9 81.8,86.5 81.6,60.1 81.7,60.1 96.6,65 96.6,90.2 		"/>
		<polygon class="st3" points="97.8,89.5 96.8,90.4 96.6,90.2 96.6,65 81.7,60.1 81.6,60.1 81.6,58.9 81.7,58.9 97.7,64.1 
			97.8,87.6 		"/>
		<g>
			<path class="st8" d="M93.4,65.5l-0.2,20.7c0,0,0.4,1.4,0.9,1.8c0.5,0.4,0.9,0.7,0.9,0.7"/>
			<path class="st8" d="M90.1,64.6l0.3,20.8c0,0-0.1,1.2,0.6,1.9"/>
			<path class="st8" d="M86.7,63.2c0,0,0.1,21.7,0.4,22c0.3,0.3,1,0.4,1,0.4"/>
		</g>
		<polygon class="st3" points="103,87.7 101.6,88.5 101.2,61.3 88.5,56.5 90,55.9 90.1,55.9 102.5,60.8 		"/>
		<g>
			<path class="st10" d="M90.5,57.5c0,0-1.9,0.3-2.5,0.5c-0.6,0.2-0.9,0.7-0.9,0.7s1.9,0.1,2.9-0.2c1-0.3,2.1-0.5,2.1-0.5L90.5,57.5
				z"/>
			<path class="st10" d="M99.4,61c0,0-1.9,0.3-2.5,0.5c-0.6,0.2-0.9,0.7-0.9,0.7S98,62.3,99,62c1-0.3,2.1-0.5,2.1-0.5L99.4,61z"/>
			<path class="st10" d="M95.3,59c0,0-1.6,0.4-2.2,0.6c-0.6,0.2-0.9,0.7-0.9,0.7s1.9,0.1,2.9-0.2c1-0.3,1.5-0.6,1.5-0.6L95.3,59z"/>
			<polygon class="st10" points="96,63.3 96.1,62.2 94.1,61.2 93.8,62.7 			"/>
			<polygon class="st10" points="91.9,62 92,61 89.7,59.4 89.3,61.2 			"/>
		</g>
		<line class="st6" x1="101.6" y1="88.5" x2="97.9" y2="87.6"/>
	</g>
</g>
</svg>
