<?xml version="1.0" encoding="utf-8"?>
<!-- Generator: Adobe Illustrator 21.1.0, SVG Export Plug-In . SVG Version: 6.00 Build 0)  -->
<svg version="1.1" id="Layer_1" xmlns="http://www.w3.org/2000/svg" xmlns:xlink="http://www.w3.org/1999/xlink" x="0px" y="0px"
	 width="108px" height="108px" viewBox="0 0 108 108" style="enable-background:new 0 0 108 108;" xml:space="preserve">
<style type="text/css">
	.st0{fill:none;stroke:#000000;stroke-width:0.84;stroke-linecap:round;stroke-linejoin:round;stroke-miterlimit:10;}
	.st1{fill:#CCCCCC;stroke:#000000;stroke-width:0.75;stroke-linecap:round;stroke-linejoin:round;stroke-miterlimit:10;}
	.st2{fill:#E6E6E6;stroke:#000000;stroke-width:0.75;stroke-linecap:round;stroke-linejoin:round;stroke-miterlimit:10;}
	.st3{fill:#F2F2F2;stroke:#000000;stroke-width:0.75;stroke-linecap:round;stroke-linejoin:round;stroke-miterlimit:10;}
	.st4{fill:#B3B3B3;stroke:#000000;stroke-width:0.5;stroke-linecap:round;stroke-linejoin:round;stroke-miterlimit:10;}
	.st5{fill:#FFFFFF;stroke:#000000;stroke-width:0.75;stroke-linecap:round;stroke-linejoin:round;stroke-miterlimit:10;}
	.st6{fill:#CCCCCC;stroke:#000000;stroke-width:0.5;stroke-linecap:round;stroke-linejoin:round;stroke-miterlimit:10;}
</style>
<polygon class="st0" points="252.4,155.2 260.3,161.4 260.9,154.5 "/>
<polygon class="st0" points="236.9,148.7 243.9,152.5 234.5,155.3 "/>
<polyline class="st0" points="239,154 240,155.2 241.2,156.2 242.5,157.2 243.8,157.9 245.3,158.6 246.8,159 248.4,159.3 250,159.4 
	251.5,159.4 253.1,159.1 254.6,158.7 256.1,158.1 "/>
<polyline class="st0" points="244.9,118.9 247.3,118.9 247.9,118.8 248.4,118.5 248.8,118.1 249,117.6 249.1,117 249.1,116.4 
	248.8,115.9 248.4,115.5 "/>
<polyline class="st0" points="244.2,122.2 245.7,115.5 248.4,115.5 "/>
<polygon class="st0" points="241,116.5 240.5,116.4 240.1,116.3 239.6,116.4 239.1,116.6 238.7,116.9 238.3,117.3 237.9,117.8 
	237.6,118.3 237.4,118.9 237.2,119.4 237.2,120 237.2,120.6 237.4,121.1 237.6,121.5 237.8,121.9 238.2,122.2 238.6,122.4 
	239.1,122.4 239.5,122.4 240,122.2 240.5,122 240.9,121.7 241.3,121.2 241.6,120.7 241.9,120.2 242.1,119.6 242.2,119 242.2,118.5 
	242.1,117.9 241.9,117.5 241.7,117 241.4,116.7 "/>
<line class="st0" x1="234.1" y1="117.2" x2="232.8" y2="123.5"/>
<line class="st0" x1="231.6" y1="117.4" x2="236.5" y2="117"/>
<polyline class="st0" points="269.5,150 270.1,150.4 270.8,150.5 271.5,150.4 "/>
<polyline class="st0" points="271.5,150.4 272.3,149.8 273,149.1 273.5,148.3 273.9,147.3 274,146.3 274,145.3 273.7,144.4 
	273.2,143.5 272.6,142.7 271.8,142 271,141.5 "/>
<polyline class="st0" points="265.4,144.3 271.4,142.6 270.6,149.8 265.9,150.9 "/>
<polyline class="st0" points="271,141.5 269.5,141.6 268.1,141.8 266.8,142.2 265.4,142.8 264.2,143.5 "/>
<polyline class="st0" points="264.2,143.5 263.1,144.1 262.1,145 261.4,146 260.8,147.2 260.5,148.4 "/>
<polyline class="st0" points="260.5,148.4 261.1,149.3 261.8,150.1 262.7,150.7 263.6,151.2 264.7,151.6 265.7,151.7 "/>
<polyline class="st0" points="265.7,151.7 266,150.2 266.1,148.7 266,147.3 265.8,145.8 265.4,144.3 "/>
<polygon class="st0" points="235.3,134.3 234.7,134.2 234.1,134.3 233.6,134.4 233,134.8 232.5,135.2 232,135.7 231.6,136.3 
	231.4,136.9 231.2,137.6 231.1,138.4 231.1,139.1 231.3,139.7 231.5,140.3 231.8,140.9 232.3,141.3 232.8,141.6 233.3,141.7 
	233.9,141.8 234.5,141.7 235,141.4 235.6,141.1 236.1,140.6 236.5,140 236.8,139.4 237.1,138.7 237.2,138 237.2,137.2 237.1,136.5 
	236.9,136 236.6,135.4 236.3,134.9 235.8,134.6 "/>
<polygon class="st0" points="237.7,131.5 236.8,131.4 235.9,131.6 235.1,131.9 234.2,132.4 233.4,133.1 232.7,134 232.1,134.9 
	231.6,136 231.2,137.1 231,138.3 230.9,139.6 231,140.8 231.2,141.9 231.5,143 232,143.9 232.6,144.7 233.3,145.3 234.1,145.8 
	234.9,146 235.8,146.1 236.7,146 237.6,145.6 238.4,145.1 239.2,144.4 239.9,143.6 240.5,142.6 241,141.5 241.4,140.4 241.6,139.1 
	241.7,137.9 241.7,136.7 241.5,135.6 241.1,134.6 240.6,133.7 240,132.9 239.3,132.2 238.6,131.8 "/>
<polyline class="st0" points="265.7,115.6 264.9,115.3 264.1,115 263.2,115 262.3,115 "/>
<polyline class="st0" points="270.4,114.6 268.7,114.3 267,114.2 265.3,114.3 263.6,114.6 262,115.1 260.4,115.9 259,116.8 "/>
<polyline class="st0" points="249,162.1 249.3,163.2 250,164.2 250.8,165 "/>
<polyline class="st0" points="293.1,126.8 292.5,126 291.7,125.2 290.9,124.6 289.9,124.2 288.9,123.9 287.9,123.8 286.8,123.9 
	285.8,124.2 "/>
<polyline class="st0" points="279.1,174.6 279.9,174.9 280.8,175.1 281.8,175.1 282.7,174.9 283.5,174.6 284.3,174.1 284.9,173.4 
	285.5,172.7 295.3,127.2 295.3,126.3 295.2,125.4 294.9,124.5 294.5,123.8 293.9,123.1 293.2,122.6 292.4,122.1 291.5,121.9 
	290.7,121.8 288.7,121.7 286.7,121.8 270.4,114.6 "/>
<line class="st0" x1="293.1" y1="126.8" x2="282.7" y2="174.9"/>
<polyline class="st0" points="289.9,124.2 279.1,174.6 274.7,175.7 "/>
<polyline class="st0" points="250.8,165 274.7,175.7 285.8,124.2 265.7,115.6 "/>
<line class="st0" x1="254.1" y1="121.1" x2="245.5" y2="157.2"/>
<polyline class="st0" points="254.1,115 254.8,115.7 256,109.3 "/>
<polyline class="st0" points="254.1,115 253.9,114.1 253.6,113.2 253,112.5 252.4,111.9 251.6,111.4 250.7,111.1 249.8,110.9 
	248.9,110.9 "/>
<polyline class="st0" points="252.4,111.9 251.1,110.9 249.7,110.1 248.1,109.4 246.5,109 "/>
<line class="st0" x1="233.1" y1="112.9" x2="248.9" y2="110.9"/>
<line class="st0" x1="230.4" y1="110.6" x2="246.5" y2="109"/>
<polyline class="st0" points="230.4,110.6 229.3,110.8 228.2,111.2 227.2,111.7 226.3,112.3 225.4,113.1 224.7,114.1 224.2,115.1 
	223.8,116.2 "/>
<polyline class="st0" points="233.1,112.9 232.1,113 231.1,113.3 230.2,113.7 229.4,114.4 228.7,115.1 228.2,116 227.8,117 "/>
<line class="st0" x1="206" y1="150.6" x2="219.4" y2="95.4"/>
<polyline class="st0" points="206,150.6 206,151.4 206,152.2 206.3,153 "/>
<polyline class="st0" points="214.1,160.7 206.3,153 215,156.5 "/>
<line class="st0" x1="214.1" y1="160.5" x2="223.8" y2="116.2"/>
<line class="st0" x1="217.7" y1="161.5" x2="227.8" y2="117"/>
<polyline class="st0" points="217.7,161.5 217.6,162.4 217.6,163.2 217.8,164.1 218.1,164.9 218.5,165.6 219.2,166.2 219.9,166.7 
	"/>
<polyline class="st0" points="214.1,160.5 214,161.4 214.1,162.4 214.4,163.3 215,164.1 215.7,164.7 216.5,165.2 217.4,165.5 "/>
<polyline class="st0" points="242,162.8 219.9,166.7 217.4,165.5 "/>
<polyline class="st0" points="242,162.8 242.6,162.6 243.1,162.3 243.5,161.8 "/>
<line class="st0" x1="242.9" y1="168.1" x2="233.1" y2="164.4"/>
<polyline class="st0" points="219.9,166.7 254.7,180.6 242.9,168.1 244.6,161.8 243.5,161.8 "/>
<polyline class="st0" points="251.4,185.1 252.1,185.1 252.8,184.8 253.5,184.5 254,184 "/>
<line class="st0" x1="254" y1="184" x2="254.7" y2="180.6"/>
<polyline class="st0" points="219.9,166.7 219.2,167.3 218.7,168 218.4,168.9 218.3,169.7 218.4,170.6 218.7,171.5 219.2,172.2 "/>
<line class="st0" x1="252.8" y1="185.7" x2="219.2" y2="172.2"/>
<polyline class="st0" points="252.8,185.7 253.7,185.8 254.6,185.7 255.5,185.5 256.3,185.1 257,184.5 "/>
<polyline class="st0" points="288.5,98.6 287.1,106.3 260.1,111.6 247.7,167.8 257.7,178.6 257,184.5 "/>
<polyline class="st0" points="285.4,99.2 288.5,98.6 255.8,87.4 251.9,87.8 "/>
<line class="st0" x1="284.2" y1="103.6" x2="250.7" y2="91.2"/>
<polygon class="st0" points="256,109.3 219.4,95.4 250.7,91.2 251.9,87.8 285.4,99.2 284.2,103.6 "/>
<g>
	<path class="st1" d="M97.9,78.2c-1.4,0.6-2.8,1.1-4.2,1.7c0-16.5,0-33,0-49.4c0-0.9-0.3-2.6,0-3.5c0.4-0.9,2.7-0.8,3.8-1
		c0.1,15.2,0.2,30.5,0.3,45.7C97.8,73.9,97.9,76,97.9,78.2z"/>
	<path class="st2" d="M101.2,77.7c-0.7,0.3-2.9,1-3.3,0.3c-0.3-0.5,0-2.1,0-2.6c0-3.9-0.1-7.8-0.1-11.7c-0.1-10.1-0.1-20.3-0.2-30.4
		c0-2.4,0-4.8-0.1-7.2c1.2,0.3,3.1,0.9,3.5,2.2c0.2,0.5,0,1.4,0,2c0,3.6,0,7.2,0,10.9c0,9.8,0.1,19.6,0.1,29.4
		C101.2,72.9,101.2,75.3,101.2,77.7z"/>
	<path class="st3" d="M103.3,75.7c-0.6,0.8-1.2,1.6-2.1,2.1c0-13.4-0.1-26.8-0.1-40.2c0-2.7,0-5.3,0-8c0-0.4,0.1-0.9,0-1.3
		c-0.3-1.1-2-2-3.1-2.1c-1.4-0.2-2.8,0.7-4.2,0.5c-0.6-0.1-1.4-0.5-1.9-0.7c-3.7-1.2-7.3-2.5-11-3.7c-3.7-1.2-7.3-2.6-11-3.7
		c-2.5-0.8-5-0.2-7.4,0.9c2.3-1.5,5.1-2.3,7.8-2.4c2.4,0,4.5,0.9,6.7,1.6c4.1,1.4,8.2,2.7,12.3,4.1c1.3,0.4,2.6,1,4,1.3
		c1.1,0.3,2.1,0,3.2-0.1c2.7-0.2,5.5,0.8,6.7,3.4c0.6,1.4,0.3,3.2,0.3,4.6c0,8.1,0,16.3,0,24.4C103.3,62.9,103.3,69.3,103.3,75.7z"
		/>
	<path class="st2" d="M93.7,79.9c-0.6-0.2-2.4-0.5-2.7-1c-0.2-0.3,0-1.4,0-1.7c0-2.8,0-5.7,0-8.5c0-8.3,0-16.5,0.1-24.8
		c0-3,0-6.1,0-9.1c0-1.7,0.1-2.9-0.7-4.4c-1.3-2.4-3.1-2.9-5.5-3.7c-3.8-1.3-7.6-2.7-11.4-4c-2.6-0.9-4.6-1.6-7.3-0.6
		c-2.8,1.1-4.2,3.3-4.9,6c0-1.7,0-3.5,0-5.2c0-1.6-0.4-2.4,1.1-3.3c2-1.2,4.7-1.7,7-1.2c3.1,0.8,6.2,2.1,9.2,3.1
		c4.1,1.4,8.2,2.8,12.2,4.1c0.6,0.2,2.4,0.5,2.9,1c0.2,0.2,0.1,0.5,0.1,0.8c0.1,2.5,0,5,0,7.4c0,8.8,0,17.6,0,26.4
		C93.7,67.5,93.7,73.7,93.7,79.9z"/>
	<path class="st1" d="M91,79.9c-2,3.1-4.9,4.4-8.5,3.6c5.2,0.2,4.8-4.7,4.8-8.3c0-7.3,0-14.6,0-21.8c0-6.1,0-12.2,0-18.3
		c0-1.6-0.2-3.1-1.1-4.5c-1.2-1.9-2.9-2.3-4.9-3c-4-1.3-8-2.7-11.9-4c-0.8-0.3-1.9-0.9-2.7-0.9c-1.3,0-2.6,1-3.5,1.8
		c1.7-1.8,3.9-2.9,6.4-2.9c2.1,0.1,4.4,1.3,6.3,1.9c3.5,1.2,6.9,2.4,10.4,3.6c2,0.7,3.4,1.6,4.4,3.6c0.7,1.4,0.6,2.3,0.6,3.8
		c0,2.6,0,5.2,0,7.8c0,7.6,0,15.2-0.1,22.7C91,70,91,74.9,91,79.9z"/>
	<path class="st2" d="M85.4,82.6c-1.9,1.4-3.4,0.6-5.2-0.2c-3.3-1.4-6.6-2.8-9.9-4.3c-2.7-1.1-8.4-2.5-8.8-6
		c-0.4-5.2-0.1-10.7-0.1-15.9c0-7.2-0.1-14.4-0.1-21.5c0-3.3-0.8-7.4,1.5-10.1c1.1-1.2,2.9-2.3,4.5-1.8c3.1,1,6.1,2.1,9.2,3.1
		c2.4,0.8,5.2,1.4,7.5,2.5c2,1,2.9,3.2,3.2,5.3c0,0.3,0,0.6,0,0.9c0,12.7,0,25.3,0.1,38C87.3,75.6,88.3,80.6,85.4,82.6z"/>
	<path class="st4" d="M81.2,50.8c-0.4,3-2.8,7.3-6.5,5.4c6-1.4,5.5-10.3-0.7-10.8c1.6-1.1,3.6-0.8,5,0.4
		C80.6,47,81.1,48.8,81.2,50.8z"/>
	<path class="st2" d="M46.2,87.7c-0.1,1.9,0.5,4.9-1.8,5.6c-2.1,0.6-4.5,0.7-6.7,1.1c-7.8,1.2-15.6,2.5-23.4,3.7
		c-2,0.3-4.1,0.7-6.1,1c0.1-1.6,0.1-3.2,0.2-4.8c0.1-0.9-0.1-0.7,0.6-0.9c2.3-0.7,5.1-0.8,7.5-1.1c7.9-1.2,15.8-2.4,23.7-3.6
		C42.2,88.3,44.2,88,46.2,87.7z"/>
	<path class="st1" d="M61.6,78.1c-3.4,2.1-6.8,4.2-10.1,6.3c-2,1.2-4,3.1-6.3,3.4c-9.1,1.4-18.3,2.8-27.4,4.2
		c-3.1,0.5-6.2,0.9-9.3,1.4c3.4-2.2,6.8-4.3,10.3-6.5c1.2-0.7,2.5-1.9,3.8-2.4c0.6-0.2,1.3-0.2,1.9-0.3c9.4-1.6,18.8-3.1,28.2-4.7
		C55.5,79.1,58.5,78.6,61.6,78.1z"/>
	<path class="st5" d="M61.2,18.1c-7.3,1-14.6,2-21.9,3c-4.5,0.6-8.9,1.2-13.4,1.9c-1.1,0.1-2.3,0.5-3.4,0.5c-0.7,0-1.3-0.4-1.9-0.7
		c-4-1.9-8.1-3.8-12.1-5.7c7.5-1.1,15-2.1,22.5-3.2c3.9-0.5,7.8-1.1,11.7-1.6c2.2-0.3,4.1,0.8,6.2,1.5C53,15.2,57.1,16.6,61.2,18.1z
		"/>
	<path class="st3" d="M61.6,78.1c-11.4,1.9-22.9,3.8-34.3,5.7c-1.6,0.3-3.2,0.5-4.8,0.8c-0.1-14.4-0.1-28.9-0.2-43.3
		c0-3.9,0-7.8,0-11.7c0-1.3,0-2.5,0-3.8c0-0.5-0.2-1.6,0-2.1c0.4-0.7,2.9-0.6,3.8-0.8c4.1-0.6,8.3-1.1,12.4-1.7
		c7.6-1.1,15.3-2.1,22.9-3.2c0,6.5,0.1,13.1,0.1,19.6c0.1,10.5,0.1,21,0.2,31.5C61.5,72.2,61.5,75.1,61.6,78.1z"/>
	<path class="st2" d="M22.4,84.6c-3.5,2.2-7,4.4-10.5,6.6c-0.9,0.5-1.7,1.1-2.6,1.6c-0.2,0.2-0.9,0.4-1,0.6
		c-0.3,0.5-0.1,2.1-0.1,2.6c0,1-0.1,2-0.1,3c-0.7-0.4-1.7-0.7-2.4-1.2c-0.7-0.5-0.5-0.5-0.5-1.5c0-1.1,0.1-2.1,0.1-3.2
		c0-0.5-0.2-1.7,0.1-2.1c0.2-0.3,0.9-0.6,1.1-0.7c0.8-0.5,1.7-1.1,2.5-1.6c2.1-1.4,4.2-2.7,6.4-4.1c0.6-0.4,2.2-1,2.6-1.7
		c0.2-0.3,0-1.2,0-1.6c0-3.1,0-6.2,0-9.3c0-9.7,0-19.4,0-29.1c0-4.1,0-8.3,0-12.4c0-1.3,0-2.6,0-3.9c0-0.4,0.2-1.4,0-1.8
		c-0.4-0.7-2.6-1.3-3.3-1.6c-2.4-1.1-4.8-2.3-7.3-3.4c-0.5-0.2-1.7-0.5-2.1-1c-0.3-0.3-0.1-0.8-0.1-1.3c0.1-2.2,0.1-4.4,0.2-6.6
		c0.9,0.4,2.8,0.8,3.2,1.6c0.3,0.6-0.1,2-0.1,2.6c0,0.4-0.3,1.6-0.1,1.9c0.3,0.5,2,0.9,2.5,1.2c1.8,0.8,3.5,1.6,5.3,2.5
		c1.6,0.7,3.1,1.5,4.7,2.2c0.3,0.2,1,0.3,1.2,0.7c0.4,0.8,0,3.1,0,4c0.1,14.5,0.1,29,0.2,43.5C22.4,75.6,22.4,80.1,22.4,84.6z"/>
	<path class="st3" d="M43.9,12.1c-10.3,1.5-20.7,2.9-31,4.4c-1.5,0.2-3,0.4-4.4,0.6c0-0.6,0-1.3,0.1-1.9c0-0.5-0.2-2.4,0.1-2.8
		c0.2-0.2,0.8-0.2,1.2-0.3c2.9-0.4,5.8-0.8,8.8-1.1c7.4-1,14.8-1.9,22.2-2.9c0.4-0.1,1.6-0.4,2-0.3C43.7,8.3,43.9,11.2,43.9,12.1z"
		/>
	<path class="st5" d="M42.7,7.9C32,9.3,21.2,10.6,10.5,12c-0.6,0.1-1.3,0.3-1.8,0.2c-1-0.1-2.3-0.9-3.2-1.3
		c10.3-1.3,20.6-2.9,31-3.9C38.6,6.8,40.6,7.2,42.7,7.9z"/>
	<path class="st6" d="M74.7,56.2c-0.4-0.2-2.1-1.7-3.4-2.9c-1.2-1.1-1.4-3-0.4-4.4c1.1-1.4,2.4-3.1,3.1-3.5
		C80.2,45.9,80.8,54.8,74.7,56.2z"/>
</g>
</svg>
