<?xml version="1.0" encoding="utf-8"?>
<!-- Generator: Adobe Illustrator 21.1.0, SVG Export Plug-In . SVG Version: 6.00 Build 0)  -->
<svg version="1.1" id="Layer_1" xmlns="http://www.w3.org/2000/svg" xmlns:xlink="http://www.w3.org/1999/xlink" x="0px" y="0px"
	 width="108px" height="108px" viewBox="0 0 108 108" style="enable-background:new 0 0 108 108;" xml:space="preserve">
<style type="text/css">
	.st0{fill:#999999;stroke:#000000;stroke-width:0.75;stroke-linecap:round;stroke-linejoin:round;stroke-miterlimit:10;}
	.st1{fill:#E6E6E6;stroke:#000000;stroke-width:0.75;stroke-linecap:round;stroke-linejoin:round;stroke-miterlimit:10;}
	.st2{fill:#FFFFFF;}
	.st3{fill:#F2F2F2;}
	.st4{fill:#E6E6E6;}
	.st5{fill:#CCCCCC;}
	.st6{fill:none;stroke:#000000;stroke-width:0.75;stroke-linecap:round;stroke-linejoin:round;stroke-miterlimit:10;}
	.st7{fill:#CCCCCC;stroke:#000000;stroke-width:0.75;stroke-linecap:round;stroke-linejoin:round;stroke-miterlimit:10;}
	.st8{fill:#FFFFFF;stroke:#000000;stroke-width:0.75;stroke-linecap:round;stroke-linejoin:round;stroke-miterlimit:10;}
	.st9{fill:none;stroke:#000000;stroke-width:0.5;stroke-linecap:round;stroke-linejoin:round;stroke-miterlimit:10;}
	.st10{fill:#999999;stroke:#000000;stroke-width:0.5;stroke-linecap:round;stroke-linejoin:round;stroke-miterlimit:10;}
</style>
<g>
	<path class="st0" d="M61.7,34.5l8.6-1.9c0,0-2-17.7-8.8-15.9C54.7,18.5,61.7,34.5,61.7,34.5z"/>
	<polygon class="st1" points="39.8,44.9 68.8,37.7 72.5,39.3 40,48.2 	"/>
	<path class="st2" d="M30.3,21.2c-3,0.7-5.6,1-11,2.7c-5.5,1.7,4.9,3.8,6.1,6c0.1,0.2,0.2,0.6,0.4,1.2c4.3-1.3,8.7-2.6,13-3.8
		C37.5,22.4,33.2,20.5,30.3,21.2z"/>
	<path class="st3" d="M81.5,19.7c-0.2-1.1-0.5-2.2-0.8-3.1c-4.1,1-8.2,2-12.3,3c0.1,0.3,0.3,0.6,0.4,0.9c1.1,4.2,3.7,18.4,3.7,18.4
		l-29.6,7.2c0,0-2.8-13.4-3.9-18.5c0-0.1-0.1-0.2-0.1-0.4c-4.3,1.2-8.7,2.5-13,3.8c0.9,3.4,2.9,13.2,5,24c18.4-5,36.6-10.3,55-14.4
		C85.1,38.4,82.3,24.9,81.5,19.7z"/>
	<path class="st4" d="M34.9,75.9c1.5,7.5,2.6,13.4,2.9,14.9c1,4.9-4.1,5-1.9,5.9c2.2,0.9,47.6-11.6,52-13c4.3-1.4,3.9-3.4,3.3-6.8
		c-0.6-3.3-2.2-13.2-2.2-13.2s2.9-0.8,4.6-1.4c0.1,0,0.1-0.1,0.2-0.1c-17.6,4.3-33.8,12.3-52.4,12C40,75.2,38.1,76,35.5,76
		C35.3,75.9,35.1,75.9,34.9,75.9z"/>
	<path class="st2" d="M91.6,42.6c-1.3-0.1-5.2-1-5.7-1.8c0,0-0.1-0.1-0.1-0.3c-18.2,4.1-36.2,9.2-54.4,14.2c2.8,0.5,5.6,1.6,7.6,3
		c17.9-5.2,36.2-9.5,54.5-13.2C93.2,43.6,92.5,42.7,91.6,42.6z"/>
	<path class="st3" d="M93.9,46.1c0-0.5-0.1-1-0.3-1.5c-18.3,3.7-36.6,8-54.5,13.2c0.5,0.4,1,0.8,1.4,1.2c3,3,4.9,11.3,0.8,15.1
		c18.6,0.3,34.8-7.7,52.4-12c1.4-0.6,1.4-0.9,1.4-1.7C95.1,59.6,93.9,47.4,93.9,46.1z"/>
	<path class="st5" d="M40.5,59c-1.9-1.9-5.4-3.6-9-4.2c-0.2,0.1-0.4,0.1-0.7,0.2c1.4,7.1,2.9,14.6,4.1,20.9c0.2,0,0.4,0.1,0.6,0.1
		C46.5,76,44.5,63,40.5,59z"/>
	<path class="st2" d="M73.1,11.4c-4.3,1-12.8,3.6-12.8,3.6s6.2,1.1,8,4.7c4.1-1,8.2-2,12.3-3C79.3,12.9,76.6,10.6,73.1,11.4z"/>
	<path class="st6" d="M19.3,23.8c5.5-1.7,8-2,11-2.7s7.5,1.3,8.6,6.5c1.1,5.1,3.9,18.5,3.9,18.5l29.6-7.2c0,0-2.6-14.1-3.7-18.4
		c-1.1-4.2-8.3-5.6-8.3-5.6s8.5-2.6,12.8-3.6s7.5,2.9,8.3,8.3c0.9,5.5,4,20.4,4.5,21.1c0.4,0.8,4.3,1.7,5.7,1.8
		c1.3,0.1,2.3,2.1,2.3,3.4c0,1.3,1.1,13.5,1.1,14.2c0,0.8,0.1,1.1-1.6,1.8c-1.7,0.7-4.6,1.4-4.6,1.4s1.7,9.9,2.2,13.2
		c0.6,3.3,1,5.3-3.3,6.8c-4.3,1.4-49.7,13.9-52,13c-2.2-0.9,2.9-1,1.9-5.9c-1-4.9-11.1-58.6-12.4-60.9S13.8,25.5,19.3,23.8z"/>
	<path class="st7" d="M69.1,37.5c0,0-2.2-13.6-2.9-16.6c-0.3-1.5-2.7-3.4-4.3-3.1c-1.8,0.3-2.8,3-2.2,5c1.1,4,4.5,7.8,2.9,10.2
		c-1.6,2.4-6.2,2-6.2,2l-0.6-2.8c0,0,4.6,0.1,4.2-1.8c-0.3-1.9-4.1-5.5-3.6-9.9c0.6-4.5,2.2-5.6,5.1-6c2.9-0.4,6.2,1.6,7.1,5.9
		c0.9,4.3,3.3,18.3,3.3,18.3L69.1,37.5z"/>
	<path class="st0" d="M26.7,90.3l11.4-2.6c0,0,1,7.6-2.2,7.2C32.6,94.6,26.7,90.3,26.7,90.3z"/>
	<line class="st8" x1="44.6" y1="74.8" x2="88.4" y2="63.8"/>
	<g>
		<path class="st9" d="M32.9,37.9c0,0,1.7-4-0.2-7c-1.9-3,0.8-5.2,0.8-5.2"/>
		<path class="st9" d="M75.1,28.8c0.4-2.3-0.6-4.8-1.7-6.3c-1.1-1.6-0.6-4.6,0.7-6.1"/>
		<line class="st9" x1="43.1" y1="86.7" x2="83.3" y2="76.7"/>
		<line class="st9" x1="47.3" y1="70.2" x2="91.2" y2="59.2"/>
		<line class="st9" x1="89.1" y1="53.8" x2="47.4" y2="64.5"/>
		<line class="st9" x1="44.9" y1="55.8" x2="89.3" y2="45"/>
		<line class="st9" x1="82.6" y1="41.8" x2="35.5" y2="53"/>
	</g>
	<path class="st0" d="M19.4,43.8l8.6-1.9c0,0-2-17.7-8.8-15.9C12.4,27.7,19.4,43.8,19.4,43.8z"/>
	<path class="st10" d="M41.6,72.5c0,0-2.4-1.2-2.3-3.2C39.4,67.3,41.4,70.2,41.6,72.5z"/>
	<path class="st10" d="M34.5,65.1c1.8-0.5,1.9-2.7,1.5-3.7C33.6,61.6,34.5,65.1,34.5,65.1z"/>
	<path class="st10" d="M35.7,70c1.5-0.3,1.7-2.4,1.4-3.4C34.6,67.4,35.7,70,35.7,70z"/>
	<path class="st10" d="M36.7,75.2c1.5-0.3,1.7-2.4,1.4-3.4C35.6,72.6,36.7,75.2,36.7,75.2z"/>
	<line class="st8" x1="37" y1="75.3" x2="43.4" y2="73.4"/>
	<line class="st8" x1="35.9" y1="70.4" x2="42.4" y2="68.7"/>
	<line class="st8" x1="37.4" y1="66.6" x2="42.4" y2="65.2"/>
	<line class="st8" x1="38.5" y1="63.6" x2="41.4" y2="62.8"/>
	<line class="st8" x1="35.8" y1="61.3" x2="41.1" y2="59.9"/>
	<path class="st7" d="M43.1,60c-0.1-2-1.1-3.1-2.8-3.3c-1.2-0.2-5.9-1-8.2-1.4c-2.4-12.1-4.7-23-5.1-25.2c-1-4.8-6.2-6.3-8.8-5.8
		c-2.6,0.6-4.8,6.2-3.4,9.3c1.3,3.1,4.2,6.3,1.9,7.1s-3.7,0.6-3.7,0.6l0.6,3c0,0,3.7-0.2,6.1-0.7c2.4-0.4,2.1-3.9,0.6-6.2
		c-1.6-2.3-4-8.4-0.7-9.6c1.9-0.7,4.6,1.1,5.3,5c0.8,3.9,10.3,54.1,11,57.3c0.7,3.2,0.2,4.2-2.6,3c-2.8-1.2-6.7-2.9-6.7-2.9
		l-0.4,2.1c0,0,5.3,3.4,7.7,4.1c2.3,0.7,6.5,0.7,5.2-6C38.5,87,35.5,72.1,32.6,58c2,0.4,5,1.1,5.8,1.1c1.2,0.1,1.6,0.6,1.8,1.3
		c0.2,0.8,1.6,14,1.6,14L44,75C44,75,43.2,62,43.1,60z"/>
	<path class="st10" d="M40.8,66.7c0,0-2.3-0.3-2.6-3.3C40.1,63.7,40.7,65.5,40.8,66.7z"/>
</g>
</svg>
