<?xml version="1.0" encoding="utf-8"?>
<!-- Generator: Adobe Illustrator 21.1.0, SVG Export Plug-In . SVG Version: 6.00 Build 0)  -->
<svg version="1.1" id="Layer_1" xmlns="http://www.w3.org/2000/svg" xmlns:xlink="http://www.w3.org/1999/xlink" x="0px" y="0px"
	 width="108px" height="108px" viewBox="0 0 108 108" style="enable-background:new 0 0 108 108;" xml:space="preserve">
<style type="text/css">
	.st0{fill:#999999;stroke:#000000;stroke-width:0.75;stroke-linecap:round;stroke-linejoin:round;stroke-miterlimit:10;}
	.st1{fill:#E6E6E6;stroke:#000000;stroke-width:0.75;stroke-linecap:round;stroke-linejoin:round;stroke-miterlimit:10;}
	.st2{fill:#FFFFFF;}
	.st3{fill:#F2F2F2;}
	.st4{fill:#E6E6E6;}
	.st5{fill:none;stroke:#000000;stroke-width:0.75;stroke-linecap:round;stroke-linejoin:round;stroke-miterlimit:10;}
	.st6{fill:#CCCCCC;stroke:#000000;stroke-width:0.75;stroke-linecap:round;stroke-linejoin:round;stroke-miterlimit:10;}
	.st7{fill:none;stroke:#000000;stroke-width:0.5;stroke-linecap:round;stroke-linejoin:round;stroke-miterlimit:10;}
	.st8{fill:#FFFFFF;stroke:#000000;stroke-width:0.75;stroke-linecap:round;stroke-linejoin:round;stroke-miterlimit:10;}
	.st9{fill:#F2F2F2;stroke:#000000;stroke-width:0.75;stroke-linecap:round;stroke-linejoin:round;stroke-miterlimit:10;}
	.st10{fill:#808080;stroke:#000000;stroke-width:0.5;stroke-linecap:round;stroke-linejoin:round;stroke-miterlimit:10;}
	.st11{fill:#B3B3B3;stroke:#000000;stroke-width:0.5;stroke-linecap:round;stroke-linejoin:round;stroke-miterlimit:10;}
</style>
<g>
	<g>
		<path class="st0" d="M57.6,28L68,26.9c0,0-0.1-21.1-8.4-19.9C51.4,8.2,57.6,28,57.6,28z"/>
		<polygon class="st1" points="49.6,35.6 64.9,33.6 69.1,35.9 49.4,39.6 		"/>
		<path class="st2" d="M80,1.8c-5.2,0.6-21.5,2.9-21.5,2.9s7.3,2.2,8.9,6.6c7-0.7,13.9-1.4,20.9-2.2C87.2,4.5,84.3,1.3,80,1.8z"/>
		<path class="st2" d="M42.1,5.6C38.5,6,30.6,6.6,24,7.9c-6.4,1.2,4.6,4.9,6.3,7.6c7-0.9,14-1.7,20.9-2.5
			C50.1,7.7,45.5,5.2,42.1,5.6z"/>
		<path class="st3" d="M88.8,12.7c-0.1-1.2-0.2-2.4-0.5-3.5c-7,0.7-13.9,1.4-20.9,2.2c0.1,0.3,0.2,0.6,0.2,1c0.8,5.1,1.3,23,1.3,23
			l-16,2.1c0,0-0.9-17-1.6-23.1c0-0.4-0.1-0.8-0.2-1.2c-6.9,0.8-13.9,1.6-20.9,2.5c0.1,0.1,0.1,0.2,0.1,0.3
			c1.1,2.5,5.8,63.7,7.2,79.9c18.6-1.6,37.2-3.8,55.8-6.6C92.7,76.4,89.1,18.7,88.8,12.7z"/>
		<path class="st4" d="M93.5,89.1c-18.6,2.8-37.2,5-55.8,6.6c0.1,1.8,0.3,3,0.3,3.6c0.6,5.9-5.5,5.4-3,6.7c2.5,1.3,48.5-5.8,53.9-7
			c5.3-1.2,5-3.6,4.8-7.6C93.6,91.1,93.5,90.3,93.5,89.1z"/>
		<path class="st5" d="M24,7.9C30.6,6.6,38.5,6,42.1,5.6c3.6-0.4,8.6,2.5,9.3,8.7c0.7,6.2,1.6,23.1,1.6,23.1l16-2.1
			c0,0-0.6-17.9-1.3-23c-0.8-5.1-9.2-7.6-9.2-7.6S74.7,2.5,80,1.8c5.2-0.6,8.4,4.4,8.8,10.9c0.4,6.6,4.6,74.7,4.8,78.7
			c0.2,4,0.5,6.4-4.8,7.6c-5.3,1.2-51.3,8.3-53.9,7c-2.5-1.3,3.5-0.8,3-6.7c-0.6-5.9-6.3-80.7-7.5-83.5C29.3,13,17.3,9.2,24,7.9z"/>
		<path class="st6" d="M65.4,33.3c0,0-0.2-17.2-0.6-20.8C64.5,10.8,62,8.2,60,8.3c-2.1,0.1-3.7,3.1-3.3,5.6
			c0.8,4.9,4.3,9.8,2.1,12.5c-2.1,2.7-6.1,1.7-6.1,1.7l-0.3-3.4c0,0,3.9,0.5,3.7-1.7c-0.2-2.3-4.2-7-3-12.1c1.2-5.2,3.3-6.3,6.8-6.5
			c3.5-0.2,7.2,2.6,7.7,7.9c0.5,5.2,1,22.8,1,22.8L65.4,33.3z"/>
		<path class="st0" d="M25,97.4l13.7-1.6c0,0,0.2,9.1-3.5,8.3S25,97.4,25,97.4z"/>
		<line class="st7" x1="44.7" y1="95.2" x2="84.3" y2="90.3"/>
		<path class="st0" d="M21.6,31.5L32,30.3c0,0-0.1-21.1-8.4-19.9C15.3,11.7,21.6,31.5,21.6,31.5z"/>
		<path class="st6" d="M35.7,56.7c-1.4-14.6-3.1-37.8-3.4-40.4c-0.6-5.8-6.6-8.3-9.7-7.9c-3.1,0.3-6.4,6.8-5.2,10.6
			c1.2,3.8,4.2,8,1.3,8.6c-2.9,0.6-4.4,0.2-4.4,0.2l0.3,3.6c0,0,4.4,0.2,7.3,0s3-4.3,1.4-7.3c-1.5-3-3.6-10.4,0.4-11.4
			c2.3-0.6,5.2,1.9,5.7,6.6c0.4,4.7,6,75.2,6.3,79.1c0.4,3.9-0.3,5-3.4,3.2c-3.1-1.8-7.5-4.3-7.5-4.3L24,99.8c0,0,5.9,4.7,8.6,5.8
			c2.7,1.1,7.5,1.6,6.9-6.4C39.2,95,37.6,77.1,36,60L35.7,56.7z"/>
	</g>
	<g>
		<polygon class="st6" points="68.4,84.6 88.2,90.4 89.3,61.8 88.3,50 66.9,41.8 60.5,41.6 54.4,42.7 54,46.6 		"/>
		<path class="st8" d="M68.7,80.2"/>
		<polygon class="st1" points="77.7,94.5 53.8,86.4 52.8,47.4 77.2,55.9 		"/>
		<polygon class="st9" points="80.3,55.4 80.6,93.8 77.7,94.5 77.2,55.9 		"/>
		<polygon class="st9" points="90.5,50.3 91,89.7 88.2,90.4 87.4,50.9 		"/>
		<polygon class="st8" points="61.4,50.1 61.4,46.9 64.3,49 64.5,50.7 		"/>
		<polygon class="st8" points="67.5,52.1 67.6,49 70.5,51 70.7,52.8 		"/>
		<polygon class="st8" points="74.6,54.1 74.7,51 77.6,53 77.7,54.8 		"/>
		<g>
			<polygon class="st10" points="68.6,53.5 69.1,45.3 72.8,45.1 72.8,54.3 			"/>
			<polygon class="st10" points="74.2,55.3 74.6,47.9 78.6,47.7 78.6,56.1 			"/>
			<ellipse transform="matrix(0.835 -0.5502 0.5502 0.835 -16.1835 50.5575)" class="st11" cx="76.2" cy="52.3" rx="1.3" ry="2"/>
			<ellipse transform="matrix(0.8346 -0.5509 0.5509 0.8346 -16.0006 46.4009)" class="st11" cx="69.3" cy="49.8" rx="1.3" ry="2"/>
			<ellipse transform="matrix(0.8348 -0.5505 0.5505 0.8348 -15.9044 42.5129)" class="st11" cx="62.9" cy="47.8" rx="1.3" ry="2"/>
			<ellipse transform="matrix(1 -4.166909e-03 4.166909e-03 1 -0.1894 0.2958)" class="st11" cx="70.9" cy="45.6" rx="2" ry="1"/>
			<ellipse transform="matrix(1 -4.088507e-03 4.088507e-03 1 -0.196 0.3129)" class="st11" cx="76.4" cy="48.1" rx="2" ry="1"/>
		</g>
		<line class="st8" x1="60" y1="42" x2="59.9" y2="47.6"/>
		<line class="st8" x1="67.6" y1="43.4" x2="67.5" y2="49.3"/>
		<line class="st7" x1="57.2" y1="52.4" x2="57.2" y2="81"/>
		<path class="st7" d="M62.7,53.9c0,0,0,26.5,0.2,28.1c0.1,1.6,1.7,4,1.7,4"/>
		<path class="st7" d="M69.8,89.8c0,0-1.9-1.4-1.6-7.3c0.3-5.9-0.3-26.8-0.3-26.8"/>
		<path class="st7" d="M73.4,57.1c0,0,0.5,26.6,0.5,28.8c-0.1,3.8,2,5.2,2,5.2"/>
		<path class="st8" d="M63.8,41l-10.5,1.8l-0.4,4.7l24,9.1l3-1.3c0,0-22.5-8.3-23.7-8.8c0.1-0.4,0.2-3.9,0.3-4.2
			c0.3-0.1,3.9-0.3,3.9-0.3s7.6,1.3,7.7,1.3c0.3,0.1,19.2,7.7,19.2,7.7l3-0.9l-22.3-8.8L63.9,41L63.8,41z"/>
	</g>
</g>
</svg>
