<?xml version="1.0" encoding="utf-8"?>
<!-- Generator: Adobe Illustrator 21.1.0, SVG Export Plug-In . SVG Version: 6.00 Build 0)  -->
<svg version="1.1" id="Layer_1" xmlns="http://www.w3.org/2000/svg" xmlns:xlink="http://www.w3.org/1999/xlink" x="0px" y="0px"
	 width="108px" height="108px" viewBox="0 0 108 108" style="enable-background:new 0 0 108 108;" xml:space="preserve">
<style type="text/css">
	.st0{fill:#E6E6E6;stroke:#000000;stroke-width:0.75;stroke-linecap:round;stroke-linejoin:round;stroke-miterlimit:10;}
	.st1{fill:#CCCCCC;}
	.st2{fill:#F2F2F2;}
	.st3{fill:none;stroke:#000000;stroke-width:0.75;stroke-linecap:round;stroke-linejoin:round;stroke-miterlimit:10;}
	.st4{fill:#FFFFFF;stroke:#000000;stroke-width:0.75;stroke-linecap:round;stroke-linejoin:round;stroke-miterlimit:10;}
	.st5{fill:#B3B3B3;stroke:#000000;stroke-width:0.75;stroke-linecap:round;stroke-linejoin:round;stroke-miterlimit:10;}
	.st6{fill:#CCCCCC;stroke:#000000;stroke-width:0.75;stroke-linecap:round;stroke-linejoin:round;stroke-miterlimit:10;}
	.st7{fill:#FFFFFF;}
	.st8{fill:#808080;stroke:#000000;stroke-width:0.5;stroke-linecap:round;stroke-linejoin:round;stroke-miterlimit:10;}
	.st9{fill:#CCCCCC;stroke:#000000;stroke-width:0.5;stroke-linecap:round;stroke-linejoin:round;stroke-miterlimit:10;}
	.st10{fill:#999999;stroke:#000000;stroke-width:0.5;stroke-linecap:round;stroke-linejoin:round;stroke-miterlimit:10;}
</style>
<g>
	<path class="st0" d="M69.3,47.9l-0.2,3c0,0-2.6,0.4-3.5,0.8c-0.9,0.3-3,1.6-4.5,2.9c-1.5,1.3-4.9,4.9-4.9,4.9l0.4,42
		c0,0-1.8-0.6-2.8-1.3c-0.9-0.8-1.5-2.3-1.5-2.3l-0.3-8.4c0,0-4.4-0.5-6.3-0.8c-0.5-0.1-1.1-0.3-1.8-0.4c-1.7-0.5-3.4-1.1-3.4-1.1
		l0-0.7l0.1-1.1c0,0,6.4-0.3,7.9-0.3c1.5-0.1,2.9-1.1,2.9-1.1v-5.6c0,0-1.1-0.3-2.3-0.5c-0.4-0.1-0.9-0.2-1.3-0.3
		c-0.8-0.2-1.6-0.4-2.1-0.5c-0.5-0.1-1.3-0.3-2.1-0.6c-1.6-0.5-3.3-1.2-3.3-1.2l-0.1-1.3c0,0,4-0.3,6.5-0.4c2.5-0.2,4.7-1.9,4.7-1.9
		v-8.6c0,0-0.2-0.4-0.6-0.6c-0.4-0.2-1.7-0.7-2.2-1.5c0,0-0.1-0.1-0.1-0.1c-0.4-0.9-0.8-2.3-1.8-2.4c-0.4-0.1-1-0.1-1.8-0.2
		c-1.5-0.2-3.5-0.4-4.4-0.9c-1.3-0.8-10.3-6.2-10.3-6.2s1.8,5.3,2.2,7c0.4,1.7,1.9,7.7,1.9,7.7l0,0.8l0.1,5.9v0.2l3.3,2.4l-0.2,2.8
		L33.7,80l-0.1,3.6l0.5,0.3l3.4,2l-0.1,3l-4.9,4.1c0,0,0,0.8,0,1.4c0,0.5-0.5,1.4-1.1,2.1c-0.2,0.2-0.4,0.4-0.7,0.6
		c-0.9,0.6-2.4,0.3-2.6-0.3c-0.2-0.6-0.1-3-0.1-4c0-1-0.2-12,0-17.3c0.2-5.3-0.1-10-0.7-13.9c-0.6-3.9-1.5-4-3.3-13.8
		c-1.8-9.8-1.7-13.7-0.5-19c0.9-4.4,5-8.4,8.5-10.3l0,0c0.8-0.4,1.5-0.7,2.2-0.9c4.3-1.2,10.8-0.3,14.9,1.9
		c5,2.7,10.5,11.7,10.5,11.7h4.1v0.1l0.1,5.3l0,0.2v0.1l-6.6-0.6c0,0-1.4-1.7-3.4-4.8v0c-0.3-0.5-0.7-1-1.1-1.6
		c-0.7-1-1.4-1.9-2.2-2.8c-1-1.1-2.2-2.1-3.4-2.9c-0.7-0.5-1.4-0.9-2.2-1.2c-1.1-0.5-2.3-0.9-3.5-1c-1.8-0.3-3.7-0.1-5.5,0.6h0
		c-2.5,1-4.8,2.8-6.3,5.7c-2.3,4.5-1.4,9.6,0.1,13.5c1.5,4,6.3,8.8,11.9,10.5c5.6,1.7,11,0.2,13.7-1.3c2.7-1.4,6.9-6.6,6.9-6.6
		L69.3,47.9z"/>
	<path class="st1" d="M71.8,48.9L71.8,48.9l-2.8,2c0,0-2.6,0.4-3.5,0.8c-0.9,0.3-3,1.6-4.5,2.9c-1.5,1.3-4.9,4.9-4.9,4.9l0.1,8.4
		c5.5-3.3,10.8-6.9,15.9-10.5L71.8,48.9z"/>
	<path class="st2" d="M56.2,67.8l0.3,33.6l16.5-11.8l-1-32.4C67,60.9,61.7,64.5,56.2,67.8z"/>
	<path class="st3" d="M73.1,89.6l-16.5,11.8l-0.4-42c0,0,3.4-3.6,4.9-4.9c1.5-1.3,3.6-2.5,4.5-2.9c0.9-0.3,3.5-0.8,3.5-0.8l2.7-2.1
		l0,0L73.1,89.6z"/>
	<path class="st4" d="M68.2,39.9C68.2,39.9,68.2,39.9,68.2,39.9L68.2,39.9L68.2,39.9z"/>
	<path class="st5" d="M68.2,39.9l-5.9,4.4c0,0-4.2,5.1-6.9,6.6c-2.7,1.4-8.1,3-13.7,1.3c-5.5-1.7-10.3-6.6-11.9-10.5
		c-1.5-4-2.4-9-0.1-13.5c1.5-2.9,3.7-4.8,6.3-5.7h0c1.8-0.7,3.6-0.8,5.5-0.6c1.2,0.2,2.4,0.5,3.5,1c-0.2,0.9-0.7,2.6-0.8,3.7
		c0,0.3-0.1,0.6-0.1,0.8c0,2.3,0.8,6.8,4.2,9.4c3.9,2.9,9.6,3.4,12.8,3.5C64,40.3,67.8,40,68.2,39.9z"/>
	<path class="st4" d="M50.5,27l-3.4-2.9C48.4,24.9,49.5,25.9,50.5,27z"/>
	<polygon class="st6" points="80,25.3 64,36.6 63.8,36.5 63.8,36.5 63.7,31.3 63.7,31.3 64,31.3 78.9,20.1 78.9,21.1 	"/>
	<polygon class="st0" points="78.9,20.1 64,31.3 63.7,31.3 63.7,31.2 59.6,31.2 75.1,20.1 	"/>
	<path class="st7" d="M64.7,9C59,5.9,50.6,6.7,50.6,6.7L32.1,18.4c0.8-0.4,1.5-0.7,2.2-0.9c4.3-1.2,10.8-0.3,14.9,1.9
		c1.6,0.8,3.2,2.3,4.7,3.9c5.3-3.4,10.4-7.1,15.3-11.2C67.8,11.1,66.3,10,64.7,9z"/>
	<path class="st2" d="M75.1,20.1c0,0-0.3-0.6-0.6-1.5c-0.2-0.7-2.2-3.6-5.4-6.4c-4.9,4-10,7.7-15.3,11.2c3.2,3.5,5.8,7.8,5.8,7.8
		L75.1,20.1z"/>
	<path class="st3" d="M75.1,20.1l-15.5,11c0,0-5.5-9-10.5-11.7c-4.1-2.2-10.6-3.1-14.9-1.9c-0.7,0.2-1.4,0.5-2.2,0.9L50.6,6.7
		c0,0,8.4-0.8,14.1,2.4c5.6,3.1,9.5,8.7,9.8,9.6C74.8,19.6,75.1,20.1,75.1,20.1z"/>
	<path class="st6" d="M84.7,36.5L69.3,47.9l-7-3.5l5.9-4.4c0,0,0,0,0,0l0,0l9.9-7.3L84.7,36.5z"/>
	<path class="st4" d="M68.2,39.9C68.2,39.9,68.2,39.9,68.2,39.9L68.2,39.9L68.2,39.9z"/>
	<polygon class="st5" points="85.3,38.6 71.8,48.8 69.1,50.9 69.3,47.9 84.7,36.5 85.1,36.7 	"/>
	<line class="st3" x1="84.9" y1="36.4" x2="84.7" y2="36.5"/>
	<path class="st8" d="M43.8,88.1l-0.1,0.3l-12.2,8.5l-0.2-0.3c0.6-0.7,1.1-1.6,1.1-2.1c0-0.7,0-1.4,0-1.4l4.9-4.1l3.1-2.6h0l0,0.7
		C40.5,87,42.2,87.6,43.8,88.1z"/>
	<line class="st3" x1="31.6" y1="96.8" x2="31.4" y2="96.9"/>
	<path class="st8" d="M43.5,76.3l-0.1,0.2l-9.4,7.4l0,0l-0.5-0.3l0.1-3.6l3.6-2.4l3-2.4C40.3,75.1,41.9,75.8,43.5,76.3z"/>
	<path class="st9" d="M51.4,64.9v6.6c0,0-2.3,1.7-4.7,1.9c-2.5,0.2-6.5,0.4-6.5,0.4v-0.3l11-8.5H51.4z"/>
	<path class="st10" d="M48.6,60.8L34.2,72.2l-0.1-5.9l0.4,0l10.3-8.1l0-0.2c0.8,0.1,1.5,0.2,1.8,0.2c1,0.2,1.4,1.5,1.8,2.4
		C48.5,60.7,48.5,60.7,48.6,60.8z"/>
	<path class="st8" d="M44.8,58l0,0.2l-10.3,8.1l-0.4,0l0-0.8c0,0-1.4-6-1.9-7.7c-0.4-1.7-2.2-7-2.2-7s9,5.4,10.3,6.2
		C41.3,57.6,43.3,57.8,44.8,58z"/>
	<path class="st9" d="M51.4,62.9L37.5,74.8l-3.3-2.4v-0.2l14.4-11.4c0.5,0.8,1.8,1.4,2.2,1.5C51.2,62.5,51.4,62.9,51.4,62.9z"/>
	<polygon class="st10" points="51.4,62.9 51.4,64.9 51.2,64.9 40.2,73.4 40.2,73.8 40.3,75.1 37.3,77.6 37.5,74.8 	"/>
	<path class="st9" d="M47.8,77.4l-10.3,8.5l-3.4-2l0,0l9.4-7.4l0.1-0.2c0.8,0.3,1.6,0.5,2.1,0.6C46.1,77,46.9,77.2,47.8,77.4z"/>
	<path class="st9" d="M51.4,78.3v5.6c0,0-1.3,1-2.9,1.1c-1.5,0.1-7.9,0.3-7.9,0.3l-0.1-0.2L49,78l0.1-0.3
		C50.3,78,51.4,78.3,51.4,78.3z"/>
	<path class="st10" d="M49,78l-8.5,7.1l0.1,0.2l-0.1,1.1h0l-3.1,2.6l0.1-3l10.3-8.5c0.4,0.1,0.9,0.2,1.3,0.3L49,78z"/>
</g>
</svg>
