<?xml version="1.0" encoding="utf-8"?>
<!-- Generator: Adobe Illustrator 21.1.0, SVG Export Plug-In . SVG Version: 6.00 Build 0)  -->
<svg version="1.1" id="Layer_1" xmlns="http://www.w3.org/2000/svg" xmlns:xlink="http://www.w3.org/1999/xlink" x="0px" y="0px"
	 width="108px" height="108px" viewBox="0 0 108 108" style="enable-background:new 0 0 108 108;" xml:space="preserve">
<style type="text/css">
	.st0{fill:#B3B3B3;stroke:#000000;stroke-width:0.5;stroke-linecap:round;stroke-linejoin:round;stroke-miterlimit:10;}
	.st1{fill:#FFFFFF;stroke:#000000;stroke-width:0.5;stroke-linecap:round;stroke-linejoin:round;stroke-miterlimit:10;}
	.st2{fill:#FFFFFF;stroke:#000000;stroke-width:0.25;stroke-linecap:round;stroke-linejoin:round;stroke-miterlimit:10;}
	.st3{fill:#B3B3B3;stroke:#000000;stroke-width:0.25;stroke-linecap:round;stroke-linejoin:round;stroke-miterlimit:10;}
</style>
<g>
	<g>
		<path class="st0" d="M73.1,10.4L58.3,8.9c-0.3-2-2.1-3.6-4.3-3.8c-2.1-0.2-3.9,1.1-4.3,3L34.2,6.5c-0.4,0-0.8,0.4-0.8,0.9v21.4
			c0,0.5,0.4,1,0.8,1l13.5-0.2l12.6-0.2l12.8-0.2c0.4,0,0.8-0.4,0.8-0.8V11.3C73.9,10.9,73.6,10.5,73.1,10.4z M54.4,9.1
			c-0.6-0.1-1.1-0.7-1.1-1.4c0-0.7,0.5-1.2,1.1-1.1c0.6,0.1,1.1,0.7,1.1,1.4C55.5,8.6,55,9.1,54.4,9.1z"/>
	</g>
	<g>
		<path class="st0" d="M59.9,109.6V29.8l-0.2-1.2l-0.1-0.4l-12.1,0.5c0,0.7,0,1.2,0,1.2v81.2 M56.4,36.4c-0.3,0.9-1.3,1.4-2.1,1
			c-0.8-0.4-1.2-1.5-0.9-2.4c0.3-1,1.3-1.4,2.1-1C56.4,34.4,56.8,35.5,56.4,36.4z M53.4,101l1.2-8.1c0.1-0.5,0.3-0.6,0.4-0.6
			c0.2-0.1,0.3,0,0.4,0.3l1.2,7.1L53.4,101z M53.4,88.2l1.2-8.1c0.1-0.5,0.3-0.6,0.4-0.6c0.2,0,0.3,0,0.4,0.4l1.2,7.2L53.4,88.2z
			 M53.4,75.3l1.2-8c0.1-0.4,0.3-0.5,0.4-0.6c0.2,0,0.3,0,0.4,0.4l1.2,7.3L53.4,75.3z M53.4,62.5l1.2-7.9c0.1-0.5,0.3-0.5,0.4-0.6
			c0.2,0,0.3,0,0.4,0.4l1.2,7.4L53.4,62.5z M53.4,49.6l1.2-7.8c0.1-0.4,0.3-0.5,0.4-0.5c0.2,0,0.3,0.1,0.4,0.4l1.2,7.5L53.4,49.6z"
			/>
		<path class="st1" d="M61.2,111.2V28.5l-1.5,0.1l-10.9,0.5l0,1.2v11.5l1.3,2.4v0.2l-1.3,0.3v10.2l1.3,2.4v0.2l-1.3,0.4v10.2
			l1.3,2.3v0.2l-1.3,0.5v10.2l1.3,2.2v0.2l-1.3,0.6v10.2l1.3,2.1v0.2l-1.3,0.7v13.7 M53.5,35c0.3-1,1.3-1.4,2.1-1
			c0.8,0.4,1.2,1.5,0.9,2.4c-0.3,0.9-1.3,1.4-2.1,1C53.5,37.1,53.2,36,53.5,35z M54.6,41.8c0.1-0.4,0.3-0.5,0.4-0.5
			c0.2,0,0.3,0.1,0.4,0.4l1.2,7.5l-3.2,0.4L54.6,41.8z M54.6,54.6c0.1-0.5,0.3-0.5,0.4-0.6c0.2,0,0.3,0,0.4,0.4l1.2,7.4l-3.2,0.6
			L54.6,54.6z M54.6,67.3c0.1-0.4,0.3-0.5,0.4-0.6c0.2,0,0.3,0,0.4,0.4l1.2,7.3l-3.2,0.9L54.6,67.3z M54.6,80.1
			c0.1-0.5,0.3-0.6,0.4-0.6c0.2,0,0.3,0,0.4,0.4l1.2,7.2l-3.2,1.1L54.6,80.1z M53.4,101l1.2-8.1c0.1-0.5,0.3-0.6,0.4-0.6
			c0.2-0.1,0.3,0,0.4,0.3l1.2,7.1L53.4,101z"/>
		<g>
			<path class="st1" d="M53.6,50.1l2.6-8.4c0.1-0.4,0.3-0.5,0.5-0.5c0.2,0,0.3,0.1,0.3,0.5l-0.2,8.1"/>
		</g>
		<polygon class="st2" points="53.7,43.9 50.1,44.2 48.9,41.8 52.4,41.5 		"/>
		<polyline class="st3" points="48.8,44.7 52.9,44.3 53.7,44 53.7,43.9 		"/>
		<polygon class="st2" points="62.4,43 58.9,43.4 57.7,41.1 61.2,40.8 		"/>
		<polygon class="st3" points="57.6,43.9 61.7,43.5 62.4,43.2 62.4,43 58.9,43.4 58.9,43.5 		"/>
		<line class="st2" x1="57.6" y1="41.1" x2="57.6" y2="43.9"/>
		<g>
			<path class="st1" d="M53.6,62.9l2.6-8.6c0.1-0.5,0.3-0.5,0.5-0.6c0.2,0,0.3,0,0.3,0.4l-0.2,8.1"/>
		</g>
		<polygon class="st2" points="53.7,56.7 50.1,57.3 48.9,55 52.4,54.5 		"/>
		<polyline class="st3" points="48.8,57.9 52.9,57.2 53.7,56.9 53.7,56.7 		"/>
		<polygon class="st2" points="62.4,55.2 58.9,55.8 57.7,53.6 61.2,53.1 		"/>
		<polygon class="st3" points="57.6,56.4 61.7,55.7 62.4,55.3 62.4,55.2 58.9,55.8 58.9,56 		"/>
		<line class="st2" x1="57.6" y1="53.6" x2="57.6" y2="56.4"/>
		<g>
			<path class="st1" d="M53.6,75.7l2.6-8.8c0.1-0.5,0.3-0.6,0.5-0.6c0.2,0,0.3,0,0.3,0.4l-0.2,8.1"/>
		</g>
		<polygon class="st2" points="53.7,69.5 50.1,70.4 48.9,68.2 52.4,67.4 		"/>
		<polyline class="st3" points="48.8,71.1 52.9,70.1 53.7,69.7 53.7,69.5 		"/>
		<polygon class="st2" points="62.4,67.4 58.9,68.2 57.7,66.2 61.2,65.4 		"/>
		<polygon class="st3" points="57.6,68.9 61.7,67.9 62.4,67.5 62.4,67.4 58.9,68.2 58.9,68.4 		"/>
		<line class="st2" x1="57.6" y1="66.1" x2="57.6" y2="68.9"/>
		<g>
			<path class="st1" d="M53.6,88.5l2.6-8.9c0.1-0.5,0.3-0.6,0.5-0.6c0.2,0,0.3,0,0.3,0.4l-0.2,8.1"/>
		</g>
		<polygon class="st2" points="53.7,82.3 50.1,83.4 48.9,81.3 52.4,80.3 		"/>
		<polyline class="st3" points="48.8,84.3 52.9,82.9 53.7,82.5 53.7,82.3 		"/>
		<polygon class="st2" points="62.4,79.6 58.9,80.7 57.7,78.7 61.2,77.6 		"/>
		<polygon class="st3" points="57.6,81.5 61.7,80.2 62.4,79.7 62.4,79.6 58.9,80.7 58.9,80.9 		"/>
		<line class="st2" x1="57.6" y1="78.7" x2="57.6" y2="81.5"/>
		<g>
			<path class="st1" d="M53.6,101.3l2.6-9.1c0.1-0.5,0.3-0.6,0.5-0.7c0.2-0.1,0.3,0,0.3,0.3l-0.2,8.1"/>
		</g>
		<polygon class="st2" points="53.7,95.1 50.1,96.5 48.9,94.5 52.4,93.2 		"/>
		<polyline class="st3" points="48.8,97.4 52.9,95.8 53.7,95.3 53.7,95.2 		"/>
		<polygon class="st2" points="62.4,91.7 58.9,93.1 57.7,91.2 61.2,89.9 		"/>
		<polygon class="st3" points="57.6,94 61.7,92.4 62.4,91.9 62.4,91.7 58.9,93.1 58.9,93.3 		"/>
		<line class="st2" x1="57.6" y1="91.2" x2="57.6" y2="94"/>
		<path class="st0" d="M56.6,36.5c-0.4,1-1.3,1.5-2.2,1.1c-0.2-0.1-0.3-0.2-0.5-0.3c0.8,0,1.5-0.8,1.5-1.7c0-0.6-0.3-1.3-0.7-1.6
			c0.3-0.1,0.6,0,1,0.1C56.6,34.3,57,35.5,56.6,36.5z"/>
	</g>
	<g>
		<path class="st1" d="M61.2,29.4l12.6-0.2c0.4,0,0.8-0.4,0.8-0.8V11.3c0-0.4-0.4-0.8-0.8-0.9L59.2,8.9c-0.3-2-2.1-3.6-4.2-3.8
			c-2.1-0.2-3.8,1.1-4.2,3L35.6,6.5c-0.4,0-0.8,0.4-0.8,0.9v21.4c0,0.5,0.4,1,0.8,1l13.2-0.2 M55,9.1c-0.6-0.1-1.1-0.7-1.1-1.4
			c0-0.7,0.5-1.2,1.1-1.1c0.6,0.1,1.1,0.7,1.1,1.4C56.1,8.6,55.6,9.1,55,9.1z"/>
	</g>
</g>
</svg>
