<?xml version="1.0" encoding="utf-8"?>
<!-- Generator: Adobe Illustrator 21.1.0, SVG Export Plug-In . SVG Version: 6.00 Build 0)  -->
<svg version="1.1" id="Layer_1" xmlns="http://www.w3.org/2000/svg" xmlns:xlink="http://www.w3.org/1999/xlink" x="0px" y="0px"
	 width="108px" height="108px" viewBox="0 0 108 108" style="enable-background:new 0 0 108 108;" xml:space="preserve">
<style type="text/css">
	.st0{fill:#F2F2F2;stroke:#000000;stroke-width:0.5;stroke-linecap:round;stroke-linejoin:round;stroke-miterlimit:10;}
	.st1{fill:#FFFFFF;stroke:#000000;stroke-width:0.5;stroke-linecap:round;stroke-linejoin:round;stroke-miterlimit:10;}
	.st2{fill:#F2F2F2;stroke:#000000;stroke-width:0.25;stroke-linecap:round;stroke-linejoin:round;stroke-miterlimit:10;}
	.st3{fill:#CCCCCC;stroke:#000000;stroke-width:0.25;stroke-linecap:round;stroke-linejoin:round;stroke-miterlimit:10;}
	.st4{fill:#B3B3B3;stroke:#000000;stroke-width:0.25;stroke-linecap:round;stroke-linejoin:round;stroke-miterlimit:10;}
	.st5{fill:none;stroke:#000000;stroke-width:0.25;stroke-linecap:round;stroke-linejoin:round;stroke-miterlimit:10;}
	.st6{fill:#FFFFFF;stroke:#000000;stroke-width:0.25;stroke-linecap:round;stroke-linejoin:round;stroke-miterlimit:10;}
	.st7{fill:#666666;stroke:#000000;stroke-width:0.5;stroke-linecap:round;stroke-linejoin:round;stroke-miterlimit:10;}
</style>
<g>
	<polyline class="st0" points="49.2,113.3 49.2,2.6 51.1,2 51.1,113.3 	"/>
	<path class="st1" d="M60,113.3V2h-8.9v111.3 M53.8,5.5l0.2-0.4l0.2-0.3l0.3-0.2l0.3-0.1L55,4.7l0.2,0.3l0.1,0.3l0,0.4l-0.1,0.4
		l-0.1,0.3L55,6.8L54.7,7l-0.3,0.1h0L54.1,7l-0.2-0.3l-0.2-0.4l0-0.4L53.8,5.5z"/>
	<g>
		<g>
			<polygon class="st2" points="60,15.6 60,17 59.2,17.3 58.4,17.4 58.4,18.5 58.3,19.6 58.1,20.7 57.8,21.7 57.5,22.7 57,23.7 
				53.7,23.9 54.2,22.9 54.6,21.9 54.9,20.9 55,19.8 55.1,18.7 55,17.6 54,17.5 53.7,17.4 53,17.3 52,17 51.1,16.7 51.1,15.3 
				52.3,15.7 53.4,16 53.7,16 54.6,16.2 55.7,12.1 55.9,11.8 56.2,11.5 56.6,11.4 56.9,11.3 57,11.3 57.3,11.3 57.7,11.4 58,11.6 
				58.3,11.9 58.5,12.2 58.5,12.6 57.6,16.2 58.8,16 			"/>
			<polygon class="st3" points="55.1,18.7 55,19.8 54.9,20.9 54.6,21.9 54.2,22.9 53.7,23.9 53.7,23.9 53.7,17.4 54,17.5 55,17.6 
							"/>
			<polygon class="st4" points="57.1,26.2 56.9,26.6 56.6,26.9 56.3,27.1 55.9,27.3 55.5,27.3 55.1,27.3 54.7,27.2 54.3,27 54,26.7 
				53.8,26.4 53.7,26 53.7,23.9 53.7,23.9 55.2,25.9 55.4,26.1 55.6,26.2 56.1,26.3 56.6,26.3 57,26.3 			"/>
			<polygon class="st3" points="57,11.3 56.9,11.3 56.6,11.4 56.2,11.5 55.9,11.8 55.7,12.1 54.6,16.2 53.7,16 53.7,11.7 53.8,11.3 
				54.1,11 54.4,10.8 54.8,10.6 55.2,10.5 55.6,10.5 56,10.6 56.4,10.7 56.7,11 			"/>
			<line class="st5" x1="53.7" y1="16" x2="53.7" y2="16"/>
			<polygon class="st6" points="58.1,25.3 58,25.5 57.9,25.7 57.8,25.9 57.6,26 57.4,26.1 57.1,26.2 57,26.3 56.6,26.3 56.1,26.3 
				55.6,26.2 55.4,26.1 55.2,25.9 53.7,23.9 57,23.7 58.1,25.1 58.1,25.2 			"/>
		</g>
		<g>
			<polygon class="st2" points="60,41.5 60,42.8 59.2,43.1 58.4,43.3 58.4,44.4 58.3,45.4 58.1,46.5 57.8,47.5 57.5,48.6 57,49.5 
				53.7,49.7 54.2,48.8 54.6,47.8 54.9,46.7 55,45.6 55.1,44.5 55,43.5 54,43.4 53.7,43.3 53,43.2 52,42.9 51.1,42.5 51.1,41.1 
				52.3,41.5 53.4,41.8 53.7,41.9 54.6,42 55.7,37.9 55.9,37.6 56.2,37.4 56.6,37.2 56.9,37.1 57,37.1 57.3,37.1 57.7,37.3 58,37.5 
				58.3,37.7 58.5,38.1 58.5,38.5 57.6,42 58.8,41.8 			"/>
			<polygon class="st3" points="55.1,44.5 55,45.6 54.9,46.7 54.6,47.8 54.2,48.8 53.7,49.7 53.7,49.7 53.7,43.3 54,43.4 55,43.5 
							"/>
			<polygon class="st4" points="57.1,52.1 56.9,52.4 56.6,52.7 56.3,53 55.9,53.1 55.5,53.2 55.1,53.1 54.7,53 54.3,52.8 54,52.6 
				53.8,52.2 53.7,51.8 53.7,49.7 53.7,49.7 55.2,51.8 55.4,51.9 55.6,52 56.1,52.1 56.6,52.1 57,52.1 			"/>
			<polygon class="st3" points="57,37.1 56.9,37.1 56.6,37.2 56.2,37.4 55.9,37.6 55.7,37.9 54.6,42 53.7,41.9 53.7,37.6 53.8,37.2 
				54.1,36.9 54.4,36.6 54.8,36.4 55.2,36.3 55.6,36.3 56,36.4 56.4,36.6 56.7,36.8 			"/>
			<line class="st5" x1="53.7" y1="41.9" x2="53.7" y2="41.9"/>
			<polygon class="st6" points="58.1,51.1 58,51.3 57.9,51.6 57.8,51.7 57.6,51.9 57.4,52 57.1,52.1 57,52.1 56.6,52.1 56.1,52.1 
				55.6,52 55.4,51.9 55.2,51.8 53.7,49.7 57,49.5 58.1,50.9 58.1,51 			"/>
		</g>
		<g>
			<polygon class="st2" points="60,67.3 60,68.7 59.2,68.9 58.4,69.1 58.4,70.2 58.3,71.3 58.1,72.3 57.8,73.4 57.5,74.4 57,75.4 
				53.7,75.6 54.2,74.6 54.6,73.6 54.9,72.5 55,71.5 55.1,70.4 55,69.3 54,69.2 53.7,69.1 53,69 52,68.7 51.1,68.4 51.1,66.9 
				52.3,67.4 53.4,67.7 53.7,67.7 54.6,67.9 55.7,63.8 55.9,63.5 56.2,63.2 56.6,63.1 56.9,63 57,63 57.3,63 57.7,63.1 58,63.3 
				58.3,63.6 58.5,63.9 58.5,64.3 57.6,67.8 58.8,67.6 			"/>
			<polygon class="st3" points="55.1,70.4 55,71.5 54.9,72.5 54.6,73.6 54.2,74.6 53.7,75.6 53.7,75.6 53.7,69.1 54,69.2 55,69.3 
							"/>
			<polygon class="st4" points="57.1,77.9 56.9,78.3 56.6,78.6 56.3,78.8 55.9,79 55.5,79 55.1,79 54.7,78.9 54.3,78.7 54,78.4 
				53.8,78.1 53.7,77.7 53.7,75.6 53.7,75.6 55.2,77.6 55.4,77.8 55.6,77.9 56.1,78 56.6,78 57,77.9 			"/>
			<polygon class="st3" points="57,63 56.9,63 56.6,63.1 56.2,63.2 55.9,63.5 55.7,63.8 54.6,67.9 53.7,67.7 53.7,63.4 53.8,63 
				54.1,62.7 54.4,62.4 54.8,62.3 55.2,62.2 55.6,62.2 56,62.3 56.4,62.4 56.7,62.7 			"/>
			<line class="st5" x1="53.7" y1="67.7" x2="53.7" y2="67.7"/>
			<polygon class="st6" points="58.1,77 58,77.2 57.9,77.4 57.8,77.6 57.6,77.7 57.4,77.8 57.1,77.9 57,77.9 56.6,78 56.1,78 
				55.6,77.9 55.4,77.8 55.2,77.6 53.7,75.6 57,75.4 58.1,76.8 58.1,76.8 			"/>
		</g>
		<g>
			<polygon class="st2" points="60,93.1 60,94.5 59.2,94.8 58.4,95 58.4,96 58.3,97.1 58.1,98.2 57.8,99.2 57.5,100.2 57,101.2 
				53.7,101.4 54.2,100.5 54.6,99.4 54.9,98.4 55,97.3 55.1,96.2 55,95.1 54,95 53.7,95 53,94.8 52,94.6 51.1,94.2 51.1,92.8 
				52.3,93.2 53.4,93.5 53.7,93.5 54.6,93.7 55.7,89.6 55.9,89.3 56.2,89 56.6,88.9 56.9,88.8 57,88.8 57.3,88.8 57.7,88.9 58,89.2 
				58.3,89.4 58.5,89.8 58.5,90.2 57.6,93.7 58.8,93.5 			"/>
			<polygon class="st3" points="55.1,96.2 55,97.3 54.9,98.4 54.6,99.4 54.2,100.5 53.7,101.4 53.7,101.4 53.7,95 54,95 55,95.1 			
				"/>
			<polygon class="st4" points="57.1,103.7 56.9,104.1 56.6,104.4 56.3,104.6 55.9,104.8 55.5,104.8 55.1,104.8 54.7,104.7 
				54.3,104.5 54,104.2 53.8,103.9 53.7,103.5 53.7,101.4 53.7,101.4 55.2,103.5 55.4,103.6 55.6,103.7 56.1,103.8 56.6,103.8 
				57,103.8 			"/>
			<polygon class="st3" points="57,88.8 56.9,88.8 56.6,88.9 56.2,89 55.9,89.3 55.7,89.6 54.6,93.7 53.7,93.5 53.7,89.2 53.8,88.8 
				54.1,88.5 54.4,88.3 54.8,88.1 55.2,88 55.6,88 56,88.1 56.4,88.3 56.7,88.5 			"/>
			<line class="st5" x1="53.7" y1="93.6" x2="53.7" y2="93.5"/>
			<polygon class="st6" points="58.1,102.8 58,103 57.9,103.2 57.8,103.4 57.6,103.5 57.4,103.6 57.1,103.7 57,103.8 56.6,103.8 
				56.1,103.8 55.6,103.7 55.4,103.6 55.2,103.5 53.7,101.4 57,101.2 58.1,102.6 58.1,102.7 			"/>
		</g>
	</g>
	<polygon class="st7" points="56.7,5.9 56.6,6.3 56.5,6.7 56.2,7 55.9,7.2 55.6,7.3 55.2,7.4 54.8,7.3 54.5,7.2 54.4,7.1 54.7,7 
		55,6.8 55.2,6.5 55.3,6.1 55.4,5.8 55.4,5.4 55.2,5.1 55,4.7 54.8,4.5 54.8,4.5 55.2,4.5 55.6,4.5 55.9,4.6 56.2,4.9 56.5,5.2 
		56.6,5.5 	"/>
	<polygon class="st3" points="49.2,88.3 48,87.6 48,80.3 49.2,80.3 	"/>
	<polygon class="st3" points="49.2,35.5 48,34.8 48,27.4 49.2,27.4 	"/>
</g>
</svg>
