<?xml version="1.0" encoding="utf-8"?>
<!-- Generator: Adobe Illustrator 21.1.0, SVG Export Plug-In . SVG Version: 6.00 Build 0)  -->
<svg version="1.1" id="Layer_1" xmlns="http://www.w3.org/2000/svg" xmlns:xlink="http://www.w3.org/1999/xlink" x="0px" y="0px"
	 width="108px" height="108px" viewBox="0 0 108 108" style="enable-background:new 0 0 108 108;" xml:space="preserve">
<style type="text/css">
	.st0{fill:#FFFFFF;stroke:#000000;stroke-width:0.5;stroke-linecap:round;stroke-linejoin:round;stroke-miterlimit:10;}
	.st1{fill:#F2F2F2;stroke:#000000;stroke-width:0.5;stroke-linecap:round;stroke-linejoin:round;stroke-miterlimit:10;}
	.st2{fill:none;stroke:#000000;stroke-width:0.5;stroke-linecap:round;stroke-linejoin:round;stroke-miterlimit:10;}
	.st3{fill:#CCCCCC;stroke:#000000;stroke-width:0.25;stroke-linecap:round;stroke-linejoin:round;stroke-miterlimit:10;}
	.st4{fill:#E6E6E6;stroke:#000000;stroke-width:0.5;stroke-linecap:round;stroke-linejoin:round;stroke-miterlimit:10;}
	.st5{fill:#666666;stroke:#000000;stroke-width:0.5;stroke-linecap:round;stroke-linejoin:round;stroke-miterlimit:10;}
	.st6{fill:#F2F2F2;stroke:#000000;stroke-width:0.25;stroke-linecap:round;stroke-linejoin:round;stroke-miterlimit:10;}
	.st7{fill:#B3B3B3;stroke:#000000;stroke-width:0.25;stroke-linecap:round;stroke-linejoin:round;stroke-miterlimit:10;}
	.st8{fill:none;stroke:#000000;stroke-width:0.25;stroke-linecap:round;stroke-linejoin:round;stroke-miterlimit:10;}
	.st9{fill:#FFFFFF;stroke:#000000;stroke-width:0.25;stroke-linecap:round;stroke-linejoin:round;stroke-miterlimit:10;}
</style>
<g>
	<path class="st0" d="M59.5,114.1v-84h-9.3v84 M53.3,33.4l0.1-0.4l0.3-0.3l0.3-0.3l0.3-0.1v0l0.3,0.3l0.2,0.3l0.1,0.4l0,0.4l0,0.4
		l-0.1,0.3l-0.2,0.3l-0.3,0.3l-0.3,0.1l-0.2-0.2l-0.3-0.3l-0.1-0.4l0-0.4L53.3,33.4z"/>
	<polyline class="st1" points="48.4,114.1 48.4,30.1 50.2,30.1 50.2,114.1 	"/>
	<polygon class="st1" points="74.6,9.2 74.5,9.1 74.3,8.9 74,8.7 73.6,8.6 73.3,8.5 59.1,8.5 59.1,7.1 71.4,7.1 72,7.1 72.6,7.3 
		73.1,7.6 73.7,8 74.1,8.4 74.5,8.9 	"/>
	<polygon class="st1" points="35.7,30 36,30.1 35.4,30 34.8,29.8 34.3,29.5 33.9,29.1 33.5,28.6 33.2,28.1 33.1,27.5 33.1,8.9 
		33.1,8.5 33.3,8 33.6,7.6 34,7.3 34.4,7.1 34.8,7 35.3,6.9 50.4,6.9 52,8.5 35.8,8.5 35.5,8.6 35.2,8.8 35,9 34.9,9.4 34.9,9.7 
		34.9,28.2 34.8,28.6 34.9,28.9 35,29.2 35.1,29.5 35.4,29.8 	"/>
	<line class="st2" x1="53.9" y1="35.1" x2="53.9" y2="35.1"/>
	<polygon class="st3" points="48.4,56.1 47.1,56.1 47.1,63.8 48.4,64.5 	"/>
	<polygon class="st4" points="56.1,2.4 55.6,2.4 55,2.4 54.4,2.5 53.8,2.8 53.3,3.1 52.9,3.4 52.5,3.9 52.2,4.4 52,5 52,8.5 
		50.4,6.9 50.4,4.6 50.7,4 51.2,3.4 51.6,2.9 52.2,2.6 52.8,2.3 53.5,2.1 54.2,2 54.9,2 55.5,2.2 	"/>
	<line class="st2" x1="56.2" y1="2.4" x2="56.1" y2="2.4"/>
	<polyline class="st2" points="74.6,9.2 74.7,9.4 74.9,9.7 74.9,10.1 	"/>
	<path class="st0" d="M74.9,28.2V10.1l-0.2-0.6l-0.1-0.3l-0.1-0.1l-0.3-0.2L74,8.7l-0.3-0.1l-0.4,0H59.1V5l-0.2-0.6L58.5,4l-0.4-0.5
		l-0.4-0.4l-0.5-0.3l-0.5-0.2l-0.6-0.2h0l-0.6,0l-0.6,0l-0.6,0.1l-0.6,0.2l-0.5,0.3l-0.4,0.4l-0.4,0.5l-0.3,0.5L52,5v3.6H35.8
		l-0.3,0.1l-0.3,0.2L35,9l-0.1,0.3l0,0.3v18.5l0,0.4l0,0.4l0.1,0.3l0.2,0.3l0.2,0.3l0.3,0.2l0.3,0.1h37.5l0.4-0.1l0.3-0.2l0.3-0.2
		l0.2-0.3l0.2-0.4l0.1-0.3L74.9,28.2z M55.6,5.8l-0.2,0.3l-0.2,0.3l-0.3,0.2l-0.3,0.1l-0.2-0.2l-0.2-0.3L53.9,6l-0.1-0.4l0.1-0.4
		l0.1-0.4l0.2-0.3l0.3-0.2L55,4.1v0l0.3,0.2l0.2,0.3l0.1,0.4l0,0.4L55.6,5.8z"/>
	<polygon class="st5" points="57,5.6 56.9,6 56.7,6.4 56.5,6.7 56.2,6.9 55.8,7.1 55.4,7.1 55,7.1 54.6,6.9 54.5,6.9 54.9,6.7 
		55.2,6.5 55.4,6.2 55.6,5.8 55.6,5.5 55.6,5.1 55.5,4.7 55.3,4.4 55,4.1 55,4.1 55,4.1 55.4,4.1 55.8,4.1 56.2,4.3 56.5,4.5 
		56.7,4.8 56.9,5.2 	"/>
	<polygon class="st5" points="56.3,33.8 56.3,34.2 56.1,34.6 55.9,34.9 55.6,35.1 55.2,35.3 54.8,35.3 54.4,35.3 54,35.1 53.9,35.1 
		54.3,34.9 54.6,34.7 54.8,34.3 55,34 55,33.6 55,33.3 54.8,32.9 54.6,32.6 54.4,32.3 54.4,32.3 54.4,32.3 54.8,32.3 55.2,32.3 
		55.6,32.5 55.9,32.7 56.1,33 56.3,33.4 	"/>
	<g>
		<polygon class="st6" points="59.5,43.7 59.5,45.1 58.6,45.4 57.8,45.6 57.8,46.7 57.7,47.8 57.5,48.9 57.2,50 56.8,51.1 
			56.3,52.1 52.9,52.3 53.4,51.3 53.8,50.3 54.1,49.2 54.3,48.1 54.3,46.9 54.3,45.8 53.2,45.7 52.8,45.6 52.2,45.5 51.1,45.2 
			50.2,44.8 50.2,43.3 51.4,43.7 52.6,44.1 52.8,44.1 53.9,44.3 55,40 55.2,39.7 55.5,39.4 55.9,39.3 56.3,39.2 56.3,39.2 
			56.7,39.2 57.1,39.3 57.4,39.5 57.7,39.8 57.9,40.2 57.9,40.6 57,44.2 58.2,44 		"/>
		<polygon class="st3" points="54.3,46.9 54.3,48.1 54.1,49.2 53.8,50.3 53.4,51.3 52.9,52.3 52.8,52.3 52.8,45.6 53.2,45.7 
			54.3,45.8 		"/>
		<polygon class="st7" points="56.5,54.7 56.2,55.1 56,55.5 55.6,55.7 55.2,55.9 54.8,55.9 54.4,55.9 53.9,55.8 53.6,55.6 
			53.2,55.3 53,54.9 52.8,54.5 52.8,52.3 52.9,52.3 54.5,54.5 54.7,54.6 54.9,54.7 55.4,54.8 55.9,54.8 56.3,54.8 		"/>
		<polygon class="st3" points="56.3,39.2 56.3,39.2 55.9,39.3 55.5,39.4 55.2,39.7 55,40 53.9,44.3 52.8,44.1 52.8,39.6 53,39.2 
			53.3,38.9 53.6,38.6 54,38.4 54.4,38.3 54.9,38.3 55.3,38.4 55.7,38.6 56,38.8 		"/>
		<line class="st8" x1="52.8" y1="44.1" x2="52.8" y2="44.1"/>
		<polygon class="st9" points="57.5,53.8 57.4,54 57.3,54.2 57.1,54.4 57,54.5 56.7,54.6 56.5,54.7 56.3,54.8 55.9,54.8 55.4,54.8 
			54.9,54.7 54.7,54.6 54.5,54.5 52.9,52.3 56.3,52.1 57.4,53.6 57.5,53.7 		"/>
	</g>
	<g>
		<polygon class="st6" points="59.5,70.5 59.5,72 58.6,72.2 57.8,72.4 57.8,73.5 57.7,74.7 57.5,75.8 57.2,76.9 56.8,77.9 
			56.3,78.9 52.9,79.2 53.4,78.2 53.8,77.1 54.1,76 54.3,74.9 54.3,73.7 54.3,72.6 53.2,72.5 52.8,72.4 52.2,72.3 51.1,72 
			50.2,71.6 50.2,70.1 51.4,70.6 52.6,70.9 52.8,71 53.9,71.1 55,66.9 55.2,66.5 55.5,66.2 55.9,66.1 56.3,66 56.3,66 56.7,66 
			57.1,66.1 57.4,66.4 57.7,66.6 57.9,67 57.9,67.4 57,71.1 58.2,70.9 		"/>
		<polygon class="st3" points="54.3,73.7 54.3,74.9 54.1,76 53.8,77.1 53.4,78.2 52.9,79.2 52.8,79.2 52.8,72.4 53.2,72.5 
			54.3,72.6 		"/>
		<polygon class="st7" points="56.5,81.6 56.2,82 56,82.3 55.6,82.5 55.2,82.7 54.8,82.7 54.4,82.7 53.9,82.6 53.6,82.4 53.2,82.1 
			53,81.8 52.8,81.4 52.8,79.2 52.9,79.2 54.5,81.3 54.7,81.5 54.9,81.6 55.4,81.7 55.9,81.7 56.3,81.6 		"/>
		<polygon class="st3" points="56.3,66 56.3,66 55.9,66.1 55.5,66.2 55.2,66.5 55,66.9 53.9,71.1 52.8,71 52.8,66.4 53,66 
			53.3,65.7 53.6,65.5 54,65.3 54.4,65.2 54.9,65.2 55.3,65.3 55.7,65.4 56,65.7 		"/>
		<line class="st8" x1="52.8" y1="71" x2="52.8" y2="71"/>
		<polygon class="st9" points="57.5,80.6 57.4,80.8 57.3,81.1 57.1,81.3 57,81.4 56.7,81.5 56.5,81.6 56.3,81.6 55.9,81.7 
			55.4,81.7 54.9,81.6 54.7,81.5 54.5,81.3 52.9,79.2 56.3,78.9 57.4,80.4 57.5,80.5 		"/>
	</g>
	<g>
		<polygon class="st6" points="59.5,97.4 59.5,98.8 58.6,99.1 57.8,99.3 57.8,100.4 57.7,101.5 57.5,102.6 57.2,103.7 56.8,104.8 
			56.3,105.8 52.9,106 53.4,105 53.8,103.9 54.1,102.8 54.3,101.7 54.3,100.6 54.3,99.4 53.2,99.3 52.8,99.3 52.2,99.1 51.1,98.8 
			50.2,98.5 50.2,97 51.4,97.4 52.6,97.7 52.8,97.8 53.9,97.9 55,93.7 55.2,93.4 55.5,93.1 55.9,92.9 56.3,92.8 56.3,92.8 
			56.7,92.9 57.1,93 57.4,93.2 57.7,93.5 57.9,93.8 57.9,94.3 57,97.9 58.2,97.7 		"/>
		<polygon class="st3" points="54.3,100.6 54.3,101.7 54.1,102.8 53.8,103.9 53.4,105 52.9,106 52.8,106 52.8,99.3 53.2,99.3 
			54.3,99.4 		"/>
		<polygon class="st7" points="56.5,108.4 56.2,108.8 56,109.1 55.6,109.4 55.2,109.5 54.8,109.6 54.4,109.6 53.9,109.4 53.6,109.2 
			53.2,109 53,108.6 52.8,108.2 52.8,106 52.9,106 54.5,108.1 54.7,108.3 54.9,108.4 55.4,108.5 55.9,108.5 56.3,108.5 		"/>
		<polygon class="st3" points="56.3,92.8 56.3,92.8 55.9,92.9 55.5,93.1 55.2,93.4 55,93.7 53.9,97.9 52.8,97.8 52.8,93.3 53,92.9 
			53.3,92.6 53.6,92.3 54,92.1 54.4,92 54.9,92 55.3,92.1 55.7,92.3 56,92.5 		"/>
		<line class="st8" x1="52.8" y1="97.8" x2="52.8" y2="97.8"/>
		<polygon class="st9" points="57.5,107.5 57.4,107.7 57.3,107.9 57.1,108.1 57,108.2 56.7,108.3 56.5,108.4 56.3,108.5 55.9,108.5 
			55.4,108.5 54.9,108.4 54.7,108.3 54.5,108.1 52.9,106 56.3,105.8 57.4,107.2 57.5,107.3 		"/>
	</g>
</g>
</svg>
