<?xml version="1.0" encoding="utf-8"?>
<!-- Generator: Adobe Illustrator 21.1.0, SVG Export Plug-In . SVG Version: 6.00 Build 0)  -->
<svg version="1.1" id="Layer_1" xmlns="http://www.w3.org/2000/svg" xmlns:xlink="http://www.w3.org/1999/xlink" x="0px" y="0px"
	 width="108px" height="108px" viewBox="0 0 108 108" style="enable-background:new 0 0 108 108;" xml:space="preserve">
<style type="text/css">
	.st0{fill:#B3B3B3;stroke:#000000;stroke-width:0.5;stroke-linecap:round;stroke-linejoin:round;stroke-miterlimit:10;}
	.st1{fill:#FFFFFF;stroke:#000000;stroke-width:0.5;stroke-linecap:round;stroke-linejoin:round;stroke-miterlimit:10;}
	.st2{fill:#FFFFFF;stroke:#000000;stroke-width:0.25;stroke-linecap:round;stroke-linejoin:round;stroke-miterlimit:10;}
	.st3{fill:#B3B3B3;stroke:#000000;stroke-width:0.25;stroke-linecap:round;stroke-linejoin:round;stroke-miterlimit:10;}
</style>
<g>
	<g>
		<path class="st0" d="M60.2,110V10.2l-0.3-1.5l-0.1-0.5L44.6,8.9c0,0.9,0,1.5,0,1.5V112 M55.9,18.5c-0.4,1.2-1.6,1.7-2.6,1.3
			c-1-0.5-1.5-1.8-1.1-3c0.4-1.2,1.6-1.8,2.6-1.3C55.8,16,56.3,17.4,55.9,18.5z M52,99.3l1.5-10.2c0.1-0.6,0.3-0.7,0.5-0.8
			c0.2-0.1,0.4,0,0.5,0.4l1.5,8.9L52,99.3z M52,83.2l1.5-10.1c0.1-0.6,0.3-0.7,0.5-0.8c0.2-0.1,0.4,0,0.5,0.4l1.5,9L52,83.2z
			 M52,67.1l1.5-10c0.1-0.6,0.3-0.7,0.5-0.7c0.2,0,0.4,0,0.5,0.5L56,66L52,67.1z M52,51.1l1.5-9.9c0.1-0.6,0.3-0.7,0.5-0.7
			c0.2,0,0.4,0,0.5,0.5l1.5,9.2L52,51.1z M52,35l1.5-9.7c0.1-0.6,0.3-0.6,0.5-0.7c0.2,0,0.4,0.1,0.5,0.6l1.5,9.3L52,35z"/>
		<path class="st1" d="M61.8,112V8.6l-1.8,0.1L46.3,9.3l0,1.4v14.4l1.6,3.1v0.2l-1.6,0.4v12.7l1.6,2.9v0.2l-1.6,0.5v12.7l1.6,2.8
			v0.3l-1.6,0.7v12.7l1.6,2.7v0.3l-1.6,0.8v12.8l1.6,2.6v0.2l-1.6,0.9V112 M52.2,16.7c0.4-1.2,1.6-1.8,2.6-1.3c1,0.5,1.5,1.9,1.1,3
			c-0.4,1.2-1.6,1.7-2.6,1.3C52.2,19.3,51.7,17.9,52.2,16.7z M53.5,25.3c0.1-0.6,0.3-0.6,0.5-0.7c0.2,0,0.4,0.1,0.5,0.6l1.5,9.3
			L52,35L53.5,25.3z M53.5,41.2c0.1-0.6,0.3-0.7,0.5-0.7c0.2,0,0.4,0,0.5,0.5l1.5,9.2l-4,0.8L53.5,41.2z M53.5,57.2
			c0.1-0.6,0.3-0.7,0.5-0.7c0.2,0,0.4,0,0.5,0.5L56,66l-4,1.1L53.5,57.2z M53.5,73.1c0.1-0.6,0.3-0.7,0.5-0.8c0.2-0.1,0.4,0,0.5,0.4
			l1.5,9l-4,1.4L53.5,73.1z M52,99.3l1.5-10.2c0.1-0.6,0.3-0.7,0.5-0.8c0.2-0.1,0.4,0,0.5,0.4l1.5,8.9L52,99.3z"/>
		<g>
			<path class="st1" d="M52.3,35.6l3.3-10.5c0.2-0.6,0.4-0.6,0.6-0.7c0.2,0,0.4,0.1,0.4,0.6l-0.3,10.1"/>
		</g>
		<polygon class="st2" points="52.4,27.8 47.9,28.2 46.4,25.3 50.8,24.9 		"/>
		<polyline class="st3" points="46.2,28.9 51.5,28.4 52.4,28 52.4,27.8 		"/>
		<polygon class="st2" points="63.4,26.7 58.9,27.2 57.4,24.4 61.8,24 		"/>
		<polygon class="st3" points="57.2,27.8 62.5,27.3 63.4,26.9 63.4,26.7 58.9,27.2 58.9,27.4 		"/>
		<line class="st2" x1="57.3" y1="24.3" x2="57.2" y2="27.8"/>
		<g>
			<path class="st1" d="M52.3,51.6l3.3-10.7c0.2-0.6,0.4-0.7,0.6-0.7c0.2,0,0.4,0,0.4,0.5l-0.3,10.1"/>
		</g>
		<polygon class="st2" points="52.4,43.8 47.9,44.6 46.4,41.7 50.8,41.1 		"/>
		<polyline class="st3" points="46.2,45.4 51.5,44.5 52.4,44.1 52.4,43.9 		"/>
		<polygon class="st2" points="63.4,42 58.9,42.7 57.4,40 61.8,39.4 		"/>
		<polygon class="st3" points="57.2,43.5 62.5,42.6 63.4,42.2 63.4,42 58.9,42.7 58.9,43 		"/>
		<line class="st2" x1="57.3" y1="40" x2="57.2" y2="43.5"/>
		<g>
			<path class="st1" d="M52.3,67.6l3.3-11c0.2-0.6,0.4-0.7,0.6-0.7c0.2,0,0.4,0,0.4,0.5l-0.3,10.1"/>
		</g>
		<polygon class="st2" points="52.4,59.9 47.9,60.9 46.4,58.2 50.8,57.2 		"/>
		<polyline class="st3" points="46.2,61.8 51.5,60.6 52.4,60.1 52.4,59.9 		"/>
		<polygon class="st2" points="63.4,57.2 58.9,58.3 57.4,55.7 61.8,54.7 		"/>
		<polygon class="st3" points="57.2,59.2 62.5,57.9 63.4,57.4 63.4,57.2 58.9,58.3 58.9,58.5 		"/>
		<line class="st2" x1="57.3" y1="55.7" x2="57.2" y2="59.2"/>
		<g>
			<path class="st1" d="M52.3,83.7l3.3-11.2c0.2-0.6,0.4-0.7,0.6-0.8c0.2-0.1,0.4,0,0.4,0.5l-0.3,10.1"/>
		</g>
		<polygon class="st2" points="52.4,75.9 47.9,77.3 46.4,74.7 50.8,73.4 		"/>
		<polyline class="st3" points="46.2,78.3 51.5,76.7 52.4,76.1 52.4,75.9 		"/>
		<polygon class="st2" points="63.4,72.4 58.9,73.8 57.4,71.4 61.8,70 		"/>
		<polygon class="st3" points="57.2,74.8 62.5,73.2 63.4,72.6 63.4,72.4 58.9,73.8 58.9,74.1 		"/>
		<line class="st2" x1="57.3" y1="71.3" x2="57.2" y2="74.8"/>
		<g>
			<path class="st1" d="M52.3,99.7l3.3-11.4c0.2-0.6,0.4-0.8,0.6-0.8c0.2-0.1,0.4-0.1,0.4,0.4L56.4,98"/>
		</g>
		<polygon class="st2" points="52.4,91.9 47.9,93.7 46.4,91.2 50.8,89.5 		"/>
		<polyline class="st3" points="46.2,94.8 51.5,92.8 52.4,92.2 52.4,92 		"/>
		<polygon class="st2" points="63.4,87.7 58.9,89.4 57.4,87.1 61.8,85.4 		"/>
		<polygon class="st3" points="57.2,90.5 62.5,88.5 63.4,87.9 63.4,87.7 58.9,89.4 58.9,89.6 		"/>
		<line class="st2" x1="57.3" y1="87" x2="57.2" y2="90.5"/>
		<path class="st0" d="M56.1,18.6c-0.4,1.2-1.7,1.8-2.7,1.3c-0.2-0.1-0.4-0.2-0.6-0.4c1.1,0,1.9-1,1.9-2.2c0-0.8-0.4-1.6-0.9-2.1
			c0.4-0.1,0.8-0.1,1.2,0.1C56,15.9,56.5,17.3,56.1,18.6z"/>
	</g>
</g>
</svg>
