<?xml version="1.0" encoding="utf-8"?>
<!-- Generator: Adobe Illustrator 21.1.0, SVG Export Plug-In . SVG Version: 6.00 Build 0)  -->
<svg version="1.1" id="Layer_1" xmlns="http://www.w3.org/2000/svg" xmlns:xlink="http://www.w3.org/1999/xlink" x="0px" y="0px"
	 width="108px" height="108px" viewBox="0 0 108 108" style="enable-background:new 0 0 108 108;" xml:space="preserve">
<style type="text/css">
	.st0{fill:#FFFFFF;stroke:#000000;stroke-width:0.5;stroke-linecap:round;stroke-linejoin:round;stroke-miterlimit:10;}
	.st1{fill:#FFFFFF;stroke:#000000;stroke-width:0.25;stroke-linecap:round;stroke-linejoin:round;stroke-miterlimit:10;}
</style>
<g>
	<path class="st0" d="M57.1,17v0.1C57.1,17.1,57.1,17,57.1,17L57.1,17z"/>
	<path class="st0" d="M60.4,8.2h-2.9c0,0-0.5,0-0.5-0.5c0-0.5,0-6,0-6c0-0.3-0.2-0.3-0.3-0.3h-5.6c-0.1,0-0.3,0-0.3,0.3
		c0,0,0,5.5,0,5.9c0,0.4-0.2,0.6-0.5,0.6c-0.4,0-2.6,0-2.6,0c-0.2,0-0.4,0.2-0.4,0.4v7.5c0,0.2,0.2,0.4,0.4,0.4h2.6
		c0,0,0.5,0,0.5,0.6l0.1,89.5h6.2V17h0c0.1-0.6,0.6-0.5,0.6-0.5h2.7c0.2,0,0.4-0.2,0.4-0.4V8.6C60.8,8.4,60.6,8.2,60.4,8.2z
		 M53.9,2.3c0.4,0,0.8,0.4,0.8,0.8c0,0.5-0.4,0.8-0.8,0.8c-0.5,0-0.8-0.4-0.8-0.8C53.1,2.6,53.5,2.3,53.9,2.3z"/>
	<path class="st1" d="M52.4,17.8c0,0.8,0,3.5,0,4.6c0,0.4,0.9,0.4,0.9,0c0-0.8,0-3.6,0-4.2c0-0.6,1.3-0.6,1.3,0c0,1,0,3.7,0,4.2
		c0,0.4,0.9,0.4,0.9,0c0-1.6,0-4.1,0-4.6"/>
	<path class="st1" d="M52.4,28c0,0.8,0,3.5,0,4.6c0,0.4,0.9,0.4,0.9,0c0-0.8,0-3.6,0-4.2c0-0.6,1.3-0.6,1.3,0c0,1,0,3.7,0,4.2
		c0,0.4,0.9,0.4,0.9,0c0-1.6,0-4.1,0-4.6"/>
	<path class="st1" d="M52.4,38.1c0,0.8,0,3.5,0,4.6c0,0.4,0.9,0.4,0.9,0c0-0.8,0-3.6,0-4.2c0-0.6,1.3-0.6,1.3,0c0,1,0,3.7,0,4.2
		c0,0.4,0.9,0.4,0.9,0c0-1.6,0-4.1,0-4.6"/>
	<path class="st1" d="M52.4,48.2c0,0.8,0,3.5,0,4.6c0,0.4,0.9,0.4,0.9,0c0-0.8,0-3.6,0-4.2c0-0.6,1.3-0.6,1.3,0c0,1,0,3.7,0,4.2
		c0,0.4,0.9,0.4,0.9,0c0-1.6,0-4.1,0-4.6"/>
	<path class="st1" d="M52.4,58.3c0,0.8,0,3.5,0,4.6c0,0.4,0.9,0.4,0.9,0c0-0.8,0-3.6,0-4.2c0-0.6,1.3-0.6,1.3,0c0,1,0,3.7,0,4.2
		c0,0.4,0.9,0.4,0.9,0c0-1.6,0-4.1,0-4.6"/>
	<path class="st1" d="M52.4,68.5c0,0.8,0,3.5,0,4.6c0,0.4,0.9,0.4,0.9,0c0-0.8,0-3.6,0-4.2c0-0.6,1.3-0.6,1.3,0c0,1,0,3.7,0,4.2
		c0,0.4,0.9,0.4,0.9,0c0-1.6,0-4.1,0-4.6"/>
	<path class="st1" d="M52.4,78.6c0,0.8,0,3.5,0,4.6c0,0.4,0.9,0.4,0.9,0c0-0.8,0-3.6,0-4.2c0-0.6,1.3-0.6,1.3,0c0,1,0,3.7,0,4.2
		c0,0.4,0.9,0.4,0.9,0c0-1.6,0-4.1,0-4.6"/>
	<path class="st1" d="M52.4,88.7c0,0.8,0,3.5,0,4.6c0,0.4,0.9,0.4,0.9,0c0-0.8,0-3.6,0-4.2c0-0.6,1.3-0.6,1.3,0c0,1,0,3.7,0,4.2
		c0,0.4,0.9,0.4,0.9,0c0-1.6,0-4.1,0-4.6"/>
	<path class="st1" d="M52.4,98.9c0,0.8,0,3.5,0,4.6c0,0.4,0.9,0.4,0.9,0c0-0.8,0-3.6,0-4.2c0-0.6,1.3-0.6,1.3,0c0,1,0,3.7,0,4.2
		c0,0.4,0.9,0.4,0.9,0c0-1.6,0-4.1,0-4.6"/>
</g>
</svg>
