<?xml version="1.0" encoding="utf-8"?>
<!-- Generator: Adobe Illustrator 21.1.0, SVG Export Plug-In . SVG Version: 6.00 Build 0)  -->
<svg version="1.1" id="Layer_1" xmlns="http://www.w3.org/2000/svg" xmlns:xlink="http://www.w3.org/1999/xlink" x="0px" y="0px"
	 width="108px" height="108px" viewBox="0 0 108 108" style="enable-background:new 0 0 108 108;" xml:space="preserve">
<style type="text/css">
	.st0{fill:#FFFFFF;stroke:#000000;stroke-width:0.5;stroke-linecap:round;stroke-linejoin:round;stroke-miterlimit:10;}
	.st1{fill:none;stroke:#000000;stroke-width:0.25;stroke-linecap:round;stroke-linejoin:round;stroke-miterlimit:10;}
	.st2{fill:#FFFFFF;stroke:#000000;stroke-width:0.25;stroke-linecap:round;stroke-linejoin:round;stroke-miterlimit:10;}
	.st3{fill:none;stroke:#000000;stroke-width:0.25;stroke-linecap:round;stroke-linejoin:round;}
	.st4{fill:none;stroke:#000000;stroke-width:0.25;stroke-linecap:round;stroke-linejoin:round;stroke-dasharray:0.7105,0.7105;}
	.st5{fill:#FFFFFF;}
	.st6{fill:none;stroke:#000000;stroke-width:0.25;stroke-linecap:round;stroke-linejoin:round;stroke-dasharray:0.8129,0.8129;}
</style>
<g>
	<path class="st0" d="M56.2,1.8h-4.3c-0.7,0-1.1,0.9-1.1,0.9v0.2h0l0,101.9l0.4,1.6h5.7l0.4-1.6V2.6C57.2,2.6,57,1.8,56.2,1.8z
		 M54,3.3c0.4,0,0.7,0.3,0.7,0.7c0,0.4-0.3,0.7-0.7,0.7c-0.4,0-0.7-0.3-0.7-0.7C53.3,3.6,53.6,3.3,54,3.3z"/>
	<line class="st1" x1="51.5" y1="104.1" x2="56.5" y2="104.1"/>
	<line class="st1" x1="57.2" y1="9.7" x2="50.8" y2="9.7"/>
	<path class="st2" d="M52.4,7.2c0,0-0.3,1.1-0.6,2c-0.1,0.5,0.1,0.9,0.3,1.1c0.4,0.2,3.5,0.2,3.8,0c0.2-0.2,0.4-0.6,0.3-1.1
		c-0.2-0.9-0.6-2-0.6-2"/>
	<g>
		<g>
			<line class="st3" x1="51.2" y1="41.4" x2="51.5" y2="41.4"/>
			<line class="st4" x1="52.2" y1="41.4" x2="56.1" y2="41.4"/>
			<line class="st3" x1="56.5" y1="41.4" x2="56.9" y2="41.4"/>
		</g>
	</g>
	<path class="st2" d="M52.4,12.6c0,0.8,0,3.6,0,4.8c0,0.4,0.9,0.4,0.9,0c0-0.9,0-3.7,0-4.4c0-0.6,1.4-0.6,1.4,0c0,1.1,0,3.8,0,4.4
		c0,0.4,0.9,0.4,0.9,0c0-1.6,0-4.3,0-4.8"/>
	<path class="st2" d="M52.4,23.1c0,0.8,0,3.6,0,4.8c0,0.4,0.9,0.4,0.9,0c0-0.9,0-3.7,0-4.4c0-0.6,1.4-0.6,1.4,0c0,1.1,0,3.8,0,4.4
		c0,0.4,0.9,0.4,0.9,0c0-1.6,0-4.3,0-4.8"/>
	<path class="st2" d="M52.4,33.6c0,0.8,0,3.6,0,4.8c0,0.4,0.9,0.4,0.9,0c0-0.9,0-3.7,0-4.4c0-0.6,1.4-0.6,1.4,0c0,1.1,0,3.8,0,4.4
		c0,0.4,0.9,0.4,0.9,0c0-1.6,0-4.3,0-4.8"/>
	<path class="st2" d="M52.4,44.1c0,0.8,0,3.6,0,4.8c0,0.4,0.9,0.4,0.9,0c0-0.9,0-3.7,0-4.4c0-0.6,1.4-0.6,1.4,0c0,1.1,0,3.8,0,4.4
		c0,0.4,0.9,0.4,0.9,0c0-1.6,0-4.3,0-4.8"/>
	<path class="st2" d="M52.4,54.6c0,0.8,0,3.6,0,4.8c0,0.4,0.9,0.4,0.9,0c0-0.9,0-3.7,0-4.4c0-0.6,1.4-0.6,1.4,0c0,1.1,0,3.8,0,4.4
		c0,0.4,0.9,0.4,0.9,0c0-1.6,0-4.3,0-4.8"/>
	<path class="st2" d="M52.4,65.1c0,0.8,0,3.6,0,4.8c0,0.4,0.9,0.4,0.9,0c0-0.9,0-3.7,0-4.4c0-0.6,1.4-0.6,1.4,0c0,1.1,0,3.8,0,4.4
		c0,0.4,0.9,0.4,0.9,0c0-1.6,0-4.3,0-4.8"/>
	<path class="st2" d="M52.4,75.6c0,0.8,0,3.6,0,4.8c0,0.4,0.9,0.4,0.9,0c0-0.9,0-3.7,0-4.4c0-0.6,1.4-0.6,1.4,0c0,1.1,0,3.8,0,4.4
		c0,0.4,0.9,0.4,0.9,0c0-1.6,0-4.3,0-4.8"/>
	<path class="st2" d="M52.4,86.1c0,0.8,0,3.6,0,4.8c0,0.4,0.9,0.4,0.9,0c0-0.9,0-3.7,0-4.4c0-0.6,1.4-0.6,1.4,0c0,1.1,0,3.8,0,4.4
		c0,0.4,0.9,0.4,0.9,0c0-1.6,0-4.3,0-4.8"/>
	<path class="st2" d="M52.4,96.6c0,0.8,0,3.6,0,4.8c0,0.4,0.9,0.4,0.9,0c0-0.9,0-3.7,0-4.4c0-0.6,1.4-0.6,1.4,0c0,1.1,0,3.8,0,4.4
		c0,0.4,0.9,0.4,0.9,0c0-1.6,0-4.3,0-4.8"/>
	<g>
		<line class="st5" x1="57.2" y1="72.8" x2="50.8" y2="72.8"/>
		<g>
			<line class="st3" x1="57.2" y1="72.8" x2="56.9" y2="72.8"/>
			<line class="st6" x1="56" y1="72.8" x2="51.6" y2="72.8"/>
			<line class="st3" x1="51.2" y1="72.8" x2="50.8" y2="72.8"/>
		</g>
	</g>
	<line class="st2" x1="50.8" y1="2.8" x2="57.2" y2="2.8"/>
</g>
</svg>
