<?xml version="1.0" encoding="utf-8"?>
<!-- Generator: Adobe Illustrator 21.1.0, SVG Export Plug-In . SVG Version: 6.00 Build 0)  -->
<svg version="1.1" id="Layer_1" xmlns="http://www.w3.org/2000/svg" xmlns:xlink="http://www.w3.org/1999/xlink" x="0px" y="0px"
	 width="108px" height="108px" viewBox="0 0 108 108" style="enable-background:new 0 0 108 108;" xml:space="preserve">
<style type="text/css">
	.st0{fill:#FFFFFF;stroke:#000000;stroke-width:0.5;stroke-linecap:round;stroke-linejoin:round;stroke-miterlimit:10;}
	.st1{fill:#FFFFFF;stroke:#000000;stroke-width:0.25;stroke-linecap:round;stroke-linejoin:round;stroke-miterlimit:10;}
</style>
<g>
	<path class="st0" d="M49,1.5V13h1.6l0.1,93.6h6.5l0-93.6h1.6V1.5H49z M53.9,2.8c0.4,0,0.7,0.3,0.7,0.7c0,0.4-0.3,0.7-0.7,0.7
		c-0.4,0-0.7-0.3-0.7-0.7C53.2,3.1,53.5,2.8,53.9,2.8z"/>
	<path class="st1" d="M52.3,13.3c0,0.8,0,3.7,0,4.8c0,0.4,0.9,0.4,0.9,0c0-0.9,0-3.8,0-4.5c0-0.6,1.4-0.7,1.4,0c0,1.1,0,3.9,0,4.5
		c0,0.4,0.9,0.4,0.9,0c0-1.6,0-4.4,0-4.8"/>
	<path class="st1" d="M52.3,23.9c0,0.8,0,3.7,0,4.8c0,0.4,0.9,0.4,0.9,0c0-0.9,0-3.8,0-4.5c0-0.6,1.4-0.7,1.4,0c0,1.1,0,3.9,0,4.5
		c0,0.4,0.9,0.4,0.9,0c0-1.6,0-4.4,0-4.8"/>
	<path class="st1" d="M52.3,34.6c0,0.8,0,3.7,0,4.8c0,0.4,0.9,0.4,0.9,0c0-0.9,0-3.8,0-4.5c0-0.6,1.4-0.7,1.4,0c0,1.1,0,3.9,0,4.5
		c0,0.4,0.9,0.4,0.9,0c0-1.6,0-4.4,0-4.8"/>
	<path class="st1" d="M52.3,45.2c0,0.8,0,3.7,0,4.8c0,0.4,0.9,0.4,0.9,0c0-0.9,0-3.8,0-4.5c0-0.6,1.4-0.7,1.4,0c0,1.1,0,3.9,0,4.5
		c0,0.4,0.9,0.4,0.9,0c0-1.6,0-4.4,0-4.8"/>
	<path class="st1" d="M52.3,55.9c0,0.8,0,3.7,0,4.8c0,0.4,0.9,0.4,0.9,0c0-0.9,0-3.8,0-4.5c0-0.6,1.4-0.7,1.4,0c0,1.1,0,3.9,0,4.5
		c0,0.4,0.9,0.4,0.9,0c0-1.6,0-4.4,0-4.8"/>
	<path class="st1" d="M52.3,66.5c0,0.8,0,3.7,0,4.8c0,0.4,0.9,0.4,0.9,0c0-0.9,0-3.8,0-4.5c0-0.6,1.4-0.7,1.4,0c0,1.1,0,3.9,0,4.5
		c0,0.4,0.9,0.4,0.9,0c0-1.6,0-4.4,0-4.8"/>
	<path class="st1" d="M52.3,77.2c0,0.8,0,3.7,0,4.8c0,0.4,0.9,0.4,0.9,0c0-0.9,0-3.8,0-4.5c0-0.6,1.4-0.7,1.4,0c0,1.1,0,3.9,0,4.5
		c0,0.4,0.9,0.4,0.9,0c0-1.6,0-4.4,0-4.8"/>
	<path class="st1" d="M52.3,87.8c0,0.8,0,3.7,0,4.8c0,0.4,0.9,0.4,0.9,0c0-0.9,0-3.8,0-4.5c0-0.6,1.4-0.7,1.4,0c0,1.1,0,3.9,0,4.5
		c0,0.4,0.9,0.4,0.9,0c0-1.6,0-4.4,0-4.8"/>
	<path class="st1" d="M52.3,98.5c0,0.8,0,3.7,0,4.8c0,0.4,0.9,0.4,0.9,0c0-0.9,0-3.8,0-4.5c0-0.6,1.4-0.7,1.4,0c0,1.1,0,3.9,0,4.5
		c0,0.4,0.9,0.4,0.9,0c0-1.6,0-4.4,0-4.8"/>
</g>
</svg>
