<?xml version="1.0" encoding="utf-8"?>
<!-- Generator: Adobe Illustrator 21.1.0, SVG Export Plug-In . SVG Version: 6.00 Build 0)  -->
<svg version="1.1" id="Layer_1" xmlns="http://www.w3.org/2000/svg" xmlns:xlink="http://www.w3.org/1999/xlink" x="0px" y="0px"
	 width="108px" height="108px" viewBox="0 0 108 108" style="enable-background:new 0 0 108 108;" xml:space="preserve">
<style type="text/css">
	.st0{fill:#FFFFFF;stroke:#000000;stroke-width:0.5;stroke-linecap:round;stroke-linejoin:round;stroke-miterlimit:10;}
	.st1{fill:#FFFFFF;stroke:#000000;stroke-width:0.25;stroke-linecap:round;stroke-linejoin:round;stroke-miterlimit:10;}
	.st2{fill:none;stroke:#000000;stroke-width:0.25;stroke-linecap:round;stroke-linejoin:round;}
	.st3{fill:none;stroke:#000000;stroke-width:0.25;stroke-linecap:round;stroke-linejoin:round;stroke-dasharray:0.7105,0.7105;}
</style>
<g>
	<path class="st0" d="M50.8,1.7l0.1,105.1h6.5L57.5,1.7c0-0.3-0.2-0.5-0.5-0.5h-5.7C51.1,1.2,50.8,1.4,50.8,1.7z M54.2,2.4
		c0.4,0,0.7,0.3,0.7,0.7c0,0.4-0.3,0.7-0.7,0.7c-0.4,0-0.7-0.3-0.7-0.7C53.4,2.8,53.8,2.4,54.2,2.4z"/>
	<g>
		<path class="st1" d="M52.5,25.5c0,0.8,0,3.7,0,4.8c0,0.4,0.9,0.4,0.9,0c0-0.9,0-3.8,0-4.5c0-0.6,1.4-0.7,1.4,0c0,1.1,0,3.9,0,4.5
			c0,0.4,0.9,0.4,0.9,0c0-1.6,0-4.4,0-4.8"/>
		<path class="st1" d="M52.5,36.1c0,0.8,0,3.7,0,4.8c0,0.4,0.9,0.4,0.9,0c0-0.9,0-3.8,0-4.5c0-0.6,1.4-0.7,1.4,0c0,1.1,0,3.9,0,4.5
			c0,0.4,0.9,0.4,0.9,0c0-1.6,0-4.4,0-4.8"/>
		<path class="st1" d="M52.5,46.8c0,0.8,0,3.7,0,4.8c0,0.4,0.9,0.4,0.9,0c0-0.9,0-3.8,0-4.5c0-0.6,1.4-0.7,1.4,0c0,1.1,0,3.9,0,4.5
			c0,0.4,0.9,0.4,0.9,0c0-1.6,0-4.4,0-4.8"/>
		<path class="st1" d="M52.5,57.4c0,0.8,0,3.7,0,4.8c0,0.4,0.9,0.4,0.9,0c0-0.9,0-3.8,0-4.5c0-0.6,1.4-0.7,1.4,0c0,1.1,0,3.9,0,4.5
			c0,0.4,0.9,0.4,0.9,0c0-1.6,0-4.4,0-4.8"/>
		<path class="st1" d="M52.5,68.1c0,0.8,0,3.7,0,4.8c0,0.4,0.9,0.4,0.9,0c0-0.9,0-3.8,0-4.5c0-0.6,1.4-0.7,1.4,0c0,1.1,0,3.9,0,4.5
			c0,0.4,0.9,0.4,0.9,0c0-1.6,0-4.4,0-4.8"/>
		<path class="st1" d="M52.5,78.7c0,0.8,0,3.7,0,4.8c0,0.4,0.9,0.4,0.9,0c0-0.9,0-3.8,0-4.5c0-0.6,1.4-0.7,1.4,0c0,1.1,0,3.9,0,4.5
			c0,0.4,0.9,0.4,0.9,0c0-1.6,0-4.4,0-4.8"/>
		<path class="st1" d="M52.5,89.4c0,0.8,0,3.7,0,4.8c0,0.4,0.9,0.4,0.9,0c0-0.9,0-3.8,0-4.5c0-0.6,1.4-0.7,1.4,0c0,1.1,0,3.9,0,4.5
			c0,0.4,0.9,0.4,0.9,0c0-1.6,0-4.4,0-4.8"/>
		<path class="st1" d="M52.5,100c0,0.8,0,3.7,0,4.8c0,0.4,0.9,0.4,0.9,0c0-0.9,0-3.8,0-4.5c0-0.6,1.4-0.7,1.4,0c0,1.1,0,3.9,0,4.5
			c0,0.4,0.9,0.4,0.9,0c0-1.6,0-4.4,0-4.8"/>
	</g>
	<g>
		<g>
			<line class="st2" x1="51.3" y1="97.2" x2="51.7" y2="97.2"/>
			<line class="st3" x1="52.4" y1="97.2" x2="56.3" y2="97.2"/>
			<line class="st2" x1="56.7" y1="97.2" x2="57.1" y2="97.2"/>
		</g>
	</g>
	<g>
		<g>
			<line class="st2" x1="51.3" y1="86.5" x2="51.7" y2="86.5"/>
			<line class="st3" x1="52.4" y1="86.5" x2="56.3" y2="86.5"/>
			<line class="st2" x1="56.7" y1="86.5" x2="57.1" y2="86.5"/>
		</g>
	</g>
	<g>
		<g>
			<line class="st2" x1="51.3" y1="75.9" x2="51.7" y2="75.9"/>
			<line class="st3" x1="52.4" y1="75.9" x2="56.3" y2="75.9"/>
			<line class="st2" x1="56.7" y1="75.9" x2="57.1" y2="75.9"/>
		</g>
	</g>
	<g>
		<g>
			<line class="st2" x1="51.3" y1="65.2" x2="51.7" y2="65.2"/>
			<line class="st3" x1="52.4" y1="65.2" x2="56.3" y2="65.2"/>
			<line class="st2" x1="56.7" y1="65.2" x2="57.1" y2="65.2"/>
		</g>
	</g>
	<g>
		<g>
			<line class="st2" x1="51.3" y1="54.5" x2="51.7" y2="54.5"/>
			<line class="st3" x1="52.4" y1="54.5" x2="56.3" y2="54.5"/>
			<line class="st2" x1="56.7" y1="54.5" x2="57.1" y2="54.5"/>
		</g>
	</g>
	<g>
		<g>
			<line class="st2" x1="51.3" y1="43.9" x2="51.7" y2="43.9"/>
			<line class="st3" x1="52.4" y1="43.9" x2="56.3" y2="43.9"/>
			<line class="st2" x1="56.7" y1="43.9" x2="57.1" y2="43.9"/>
		</g>
	</g>
	<g>
		<g>
			<line class="st2" x1="51.3" y1="33.2" x2="51.7" y2="33.2"/>
			<line class="st3" x1="52.4" y1="33.2" x2="56.3" y2="33.2"/>
			<line class="st2" x1="56.7" y1="33.2" x2="57.1" y2="33.2"/>
		</g>
	</g>
	<g>
		<g>
			<line class="st2" x1="51.3" y1="22.5" x2="51.7" y2="22.5"/>
			<line class="st3" x1="52.4" y1="22.5" x2="56.3" y2="22.5"/>
			<line class="st2" x1="56.7" y1="22.5" x2="57.1" y2="22.5"/>
		</g>
	</g>
	<g>
		<g>
			<line class="st2" x1="51.3" y1="11.9" x2="51.7" y2="11.9"/>
			<line class="st3" x1="52.4" y1="11.9" x2="56.3" y2="11.9"/>
			<line class="st2" x1="56.7" y1="11.9" x2="57.1" y2="11.9"/>
		</g>
	</g>
</g>
</svg>
