<?xml version="1.0" encoding="utf-8"?>
<!-- Generator: Adobe Illustrator 21.1.0, SVG Export Plug-In . SVG Version: 6.00 Build 0)  -->
<svg version="1.1" id="Layer_1" xmlns="http://www.w3.org/2000/svg" xmlns:xlink="http://www.w3.org/1999/xlink" x="0px" y="0px"
	 width="108px" height="108px" viewBox="0 0 108 108" style="enable-background:new 0 0 108 108;" xml:space="preserve">
<style type="text/css">
	.st0{fill:#FFFFFF;stroke:#000000;stroke-width:0.5;stroke-linecap:round;stroke-linejoin:round;stroke-miterlimit:10;}
	.st1{fill:#FFFFFF;stroke:#000000;stroke-width:0.25;stroke-linecap:round;stroke-linejoin:round;stroke-miterlimit:10;}
</style>
<g>
	<path class="st0" d="M46.4,2.1v9.3h4.5l0.1,94.4h6.5l0.1-94.4h4.1V2.1H46.4z M54.2,3.4c0.4,0,0.7,0.3,0.7,0.7
		c0,0.4-0.3,0.7-0.7,0.7c-0.4,0-0.7-0.3-0.7-0.7C53.4,3.7,53.8,3.4,54.2,3.4z"/>
	<path class="st1" d="M52.5,12.5c0,0.8,0,3.7,0,4.8c0,0.4,0.9,0.4,0.9,0c0-0.9,0-3.8,0-4.5c0-0.6,1.4-0.7,1.4,0c0,1.1,0,3.9,0,4.5
		c0,0.4,0.9,0.4,0.9,0c0-1.6,0-4.4,0-4.8"/>
	<path class="st1" d="M52.5,23.2c0,0.8,0,3.7,0,4.8c0,0.4,0.9,0.4,0.9,0c0-0.9,0-3.8,0-4.5c0-0.6,1.4-0.7,1.4,0c0,1.1,0,3.9,0,4.5
		c0,0.4,0.9,0.4,0.9,0c0-1.6,0-4.4,0-4.8"/>
	<path class="st1" d="M52.5,33.8c0,0.8,0,3.7,0,4.8c0,0.4,0.9,0.4,0.9,0c0-0.9,0-3.8,0-4.5c0-0.6,1.4-0.7,1.4,0c0,1.1,0,3.9,0,4.5
		c0,0.4,0.9,0.4,0.9,0c0-1.6,0-4.4,0-4.8"/>
	<path class="st1" d="M52.5,44.5c0,0.8,0,3.7,0,4.8c0,0.4,0.9,0.4,0.9,0c0-0.9,0-3.8,0-4.5c0-0.6,1.4-0.7,1.4,0c0,1.1,0,3.9,0,4.5
		c0,0.4,0.9,0.4,0.9,0c0-1.6,0-4.4,0-4.8"/>
	<path class="st1" d="M52.5,55.1c0,0.8,0,3.7,0,4.8c0,0.4,0.9,0.4,0.9,0c0-0.9,0-3.8,0-4.5c0-0.6,1.4-0.7,1.4,0c0,1.1,0,3.9,0,4.5
		c0,0.4,0.9,0.4,0.9,0c0-1.6,0-4.4,0-4.8"/>
	<path class="st1" d="M52.5,65.8c0,0.8,0,3.7,0,4.8c0,0.4,0.9,0.4,0.9,0c0-0.9,0-3.8,0-4.5c0-0.6,1.4-0.7,1.4,0c0,1.1,0,3.9,0,4.5
		c0,0.4,0.9,0.4,0.9,0c0-1.6,0-4.4,0-4.8"/>
	<path class="st1" d="M52.5,76.4c0,0.8,0,3.7,0,4.8c0,0.4,0.9,0.4,0.9,0c0-0.9,0-3.8,0-4.5c0-0.6,1.4-0.7,1.4,0c0,1.1,0,3.9,0,4.5
		c0,0.4,0.9,0.4,0.9,0c0-1.6,0-4.4,0-4.8"/>
	<path class="st1" d="M52.5,87.1c0,0.8,0,3.7,0,4.8c0,0.4,0.9,0.4,0.9,0c0-0.9,0-3.8,0-4.5c0-0.6,1.4-0.7,1.4,0c0,1.1,0,3.9,0,4.5
		c0,0.4,0.9,0.4,0.9,0c0-1.6,0-4.4,0-4.8"/>
	<path class="st1" d="M52.5,97.7c0,0.8,0,3.7,0,4.8c0,0.4,0.9,0.4,0.9,0c0-0.9,0-3.8,0-4.5c0-0.6,1.4-0.7,1.4,0c0,1.1,0,3.9,0,4.5
		c0,0.4,0.9,0.4,0.9,0c0-1.6,0-4.4,0-4.8"/>
</g>
</svg>
