<?xml version="1.0" encoding="utf-8"?>
<!-- Generator: Adobe Illustrator 21.1.0, SVG Export Plug-In . SVG Version: 6.00 Build 0)  -->
<svg version="1.1" id="Layer_1" xmlns="http://www.w3.org/2000/svg" xmlns:xlink="http://www.w3.org/1999/xlink" x="0px" y="0px"
	 width="108px" height="108px" viewBox="0 0 108 108" style="enable-background:new 0 0 108 108;" xml:space="preserve">
<style type="text/css">
	.st0{fill:#FFFFFF;stroke:#000000;stroke-width:0.5;stroke-linecap:round;stroke-linejoin:round;stroke-miterlimit:10;}
	.st1{fill:none;stroke:#000000;stroke-width:0.25;stroke-linecap:round;stroke-linejoin:round;stroke-miterlimit:10;}
	.st2{fill:none;stroke:#000000;stroke-width:0.25;stroke-linecap:round;stroke-linejoin:round;}
	.st3{fill:none;stroke:#000000;stroke-width:0.25;stroke-linecap:round;stroke-linejoin:round;stroke-dasharray:0.6661,0.6661;}
	.st4{fill:#FFFFFF;stroke:#000000;stroke-width:0.25;stroke-linecap:round;stroke-linejoin:round;stroke-miterlimit:10;}
	.st5{fill:#FFFFFF;}
	.st6{fill:none;stroke:#000000;stroke-width:0.25;stroke-linecap:round;stroke-linejoin:round;stroke-dasharray:0.7629,0.7629;}
</style>
<g>
	<path class="st0" d="M63.5,7.3h-6c0,0-0.5,0-0.5-0.5s0-4.9,0-4.9c0-0.3-0.2-0.3-0.3-0.3h-5.5c-0.1,0-0.3,0-0.3,0.3c0,0,0,4.4,0,4.8
		c0,0.4-0.2,0.6-0.5,0.6c-0.4,0-6,0-6,0c-0.2,0-0.4,0.2-0.4,0.4v8.4c0,0.2,0.2,0.4,0.4,0.4h6c0,0,0.4,0,0.5,0.4h0l0,87.9l0.3,1.5
		h5.4l0.3-1.5V17h0c0.1-0.5,0.6-0.4,0.6-0.4h5.9c0.2,0,0.4-0.2,0.4-0.4V7.7C63.9,7.5,63.8,7.3,63.5,7.3z M54,2.5
		c0.4,0,0.8,0.4,0.8,0.8c0,0.4-0.4,0.8-0.8,0.8s-0.8-0.4-0.8-0.8C53.2,2.8,53.6,2.5,54,2.5z"/>
	<line class="st1" x1="51.6" y1="104.3" x2="56.4" y2="104.3"/>
	<g>
		<g>
			<line class="st2" x1="51.3" y1="45" x2="51.7" y2="45"/>
			<line class="st3" x1="52.3" y1="45" x2="56" y2="45"/>
			<line class="st2" x1="56.3" y1="45" x2="56.7" y2="45"/>
		</g>
	</g>
	<path class="st4" d="M52.5,17.8c0,0.7,0,3.4,0,4.5c0,0.4,0.9,0.4,0.9,0c0-0.8,0-3.5,0-4.2c0-0.6,1.3-0.6,1.3,0c0,1,0,3.6,0,4.2
		c0,0.4,0.9,0.4,0.9,0c0-1.5,0-4.1,0-4.5"/>
	<path class="st4" d="M52.5,27.7c0,0.7,0,3.4,0,4.5c0,0.4,0.9,0.4,0.9,0c0-0.8,0-3.5,0-4.2c0-0.6,1.3-0.6,1.3,0c0,1,0,3.6,0,4.2
		c0,0.4,0.9,0.4,0.9,0c0-1.5,0-4.1,0-4.5"/>
	<path class="st4" d="M52.5,37.7c0,0.7,0,3.4,0,4.5c0,0.4,0.9,0.4,0.9,0c0-0.8,0-3.5,0-4.2c0-0.6,1.3-0.6,1.3,0c0,1,0,3.6,0,4.2
		c0,0.4,0.9,0.4,0.9,0c0-1.5,0-4.1,0-4.5"/>
	<path class="st4" d="M52.5,47.6c0,0.7,0,3.4,0,4.5c0,0.4,0.9,0.4,0.9,0c0-0.8,0-3.5,0-4.2c0-0.6,1.3-0.6,1.3,0c0,1,0,3.6,0,4.2
		c0,0.4,0.9,0.4,0.9,0c0-1.5,0-4.1,0-4.5"/>
	<path class="st4" d="M52.5,57.5c0,0.7,0,3.4,0,4.5c0,0.4,0.9,0.4,0.9,0c0-0.8,0-3.5,0-4.2c0-0.6,1.3-0.6,1.3,0c0,1,0,3.6,0,4.2
		c0,0.4,0.9,0.4,0.9,0c0-1.5,0-4.1,0-4.5"/>
	<path class="st4" d="M52.5,67.5c0,0.7,0,3.4,0,4.5c0,0.4,0.9,0.4,0.9,0c0-0.8,0-3.5,0-4.2c0-0.6,1.3-0.6,1.3,0c0,1,0,3.6,0,4.2
		c0,0.4,0.9,0.4,0.9,0c0-1.5,0-4.1,0-4.5"/>
	<path class="st4" d="M52.5,77.4c0,0.7,0,3.4,0,4.5c0,0.4,0.9,0.4,0.9,0c0-0.8,0-3.5,0-4.2c0-0.6,1.3-0.6,1.3,0c0,1,0,3.6,0,4.2
		c0,0.4,0.9,0.4,0.9,0c0-1.5,0-4.1,0-4.5"/>
	<path class="st4" d="M52.5,87.4c0,0.7,0,3.4,0,4.5c0,0.4,0.9,0.4,0.9,0c0-0.8,0-3.5,0-4.2c0-0.6,1.3-0.6,1.3,0c0,1,0,3.6,0,4.2
		c0,0.4,0.9,0.4,0.9,0c0-1.5,0-4.1,0-4.5"/>
	<path class="st4" d="M52.5,97.3c0,0.7,0,3.4,0,4.5c0,0.4,0.9,0.4,0.9,0c0-0.8,0-3.5,0-4.2c0-0.6,1.3-0.6,1.3,0c0,1,0,3.6,0,4.2
		c0,0.4,0.9,0.4,0.9,0c0-1.5,0-4.1,0-4.5"/>
	<g>
		<line class="st5" x1="57.1" y1="74.8" x2="51" y2="74.8"/>
		<g>
			<line class="st2" x1="57.1" y1="74.8" x2="56.7" y2="74.8"/>
			<line class="st6" x1="55.9" y1="74.8" x2="51.7" y2="74.8"/>
			<line class="st2" x1="51.3" y1="74.8" x2="51" y2="74.8"/>
		</g>
	</g>
</g>
</svg>
