<?xml version="1.0" encoding="utf-8"?>
<!-- Generator: Adobe Illustrator 21.1.0, SVG Export Plug-In . SVG Version: 6.00 Build 0)  -->
<svg version="1.1" id="Layer_1" xmlns="http://www.w3.org/2000/svg" xmlns:xlink="http://www.w3.org/1999/xlink" x="0px" y="0px"
	 width="108px" height="108px" viewBox="0 0 108 108" style="enable-background:new 0 0 108 108;" xml:space="preserve">
<style type="text/css">
	.st0{fill:#F2F2F2;stroke:#000000;stroke-width:0.75;stroke-linecap:round;stroke-linejoin:round;stroke-miterlimit:10;}
	.st1{fill:#B3B3B3;stroke:#000000;stroke-width:0.5;stroke-linecap:round;stroke-linejoin:round;stroke-miterlimit:10;}
	.st2{fill:#FFFFFF;stroke:#000000;stroke-width:0.5;stroke-linecap:round;stroke-linejoin:round;stroke-miterlimit:10;}
</style>
<g>
	<path class="st0" d="M70.9,19.8L39,4.2c-0.5-0.3-0.8-0.1-0.8,0.4l-1.3,83.5c0,0.5,0.4,1,0.8,1.3l31.9,14.3c0.5,0.2,0.9,0.1,0.9-0.4
		l1.3-82.3C71.7,20.6,71.3,20,70.9,19.8z M55.1,15.7c-0.3,0-0.5-0.4-0.5-0.8c0-0.4,0.2-0.8,0.5-0.8c0.3,0,0.5,0.3,0.5,0.8
		C55.6,15.3,55.4,15.7,55.1,15.7z"/>
	<g>
		<g>
			<path class="st1" d="M51.9,21.6c0,0,0,12.5,0,13.2c0,0.6,0.2,1.2-0.9,0.7c-1-0.5-2.3-1.2-2.3-1.2"/>
			<g>
				<path class="st2" d="M38.3,15.2l-2,13.8c-0.1,0.9,0.7,1.6,0.9,1.8l11.3,5.4c0.2,0.1,1.1,0.4,1.3-0.7l2-13.8L38.3,15.2z
					 M43.2,31.1c-2.5-1.2-4.2-4.5-3.8-7.4c0.4-2.9,2.8-4.2,5.3-3c2.5,1.2,4.2,4.5,3.8,7.4C48.1,30.9,45.7,32.3,43.2,31.1z"/>
			</g>
			<line class="st2" x1="42.9" y1="31.1" x2="42.7" y2="32"/>
			<line class="st2" x1="44.7" y1="20.7" x2="44.9" y2="19.8"/>
			<line class="st2" x1="48.5" y1="28.3" x2="49.3" y2="28.8"/>
			<line class="st2" x1="39.3" y1="23.8" x2="38.5" y2="23.4"/>
		</g>
		<g>
			<path class="st1" d="M68.1,29.2c0,0,0,12.5,0,13.2c0,0.6,0.2,1.2-0.9,0.7c-1-0.5-2.3-1.2-2.3-1.2"/>
			<g>
				<path class="st2" d="M54.5,22.8l-2,13.8c-0.1,0.9,0.7,1.6,0.9,1.8l11.3,5.4c0.2,0.1,1.1,0.4,1.3-0.7l2-13.8L54.5,22.8z
					 M59.4,38.7c-2.5-1.2-4.2-4.5-3.8-7.4c0.4-2.9,2.8-4.2,5.3-3c2.5,1.2,4.2,4.5,3.8,7.4C64.3,38.5,61.9,39.9,59.4,38.7z"/>
			</g>
			<line class="st2" x1="59.1" y1="38.7" x2="58.9" y2="39.6"/>
			<line class="st2" x1="60.9" y1="28.3" x2="61.1" y2="27.4"/>
			<line class="st2" x1="64.7" y1="35.9" x2="65.5" y2="36.4"/>
			<line class="st2" x1="55.5" y1="31.4" x2="54.7" y2="31"/>
		</g>
		<g>
			<path class="st1" d="M51.9,48.7c0,0,0,12.5,0,13.2c0,0.6,0.2,1.2-0.9,0.7c-1-0.5-2.3-1.2-2.3-1.2"/>
			<g>
				<path class="st2" d="M38.3,42.2l-2,13.8c-0.1,0.9,0.7,1.7,0.9,1.8l11.3,5.4c0.2,0.1,1.1,0.4,1.3-0.7l2-13.8L38.3,42.2z
					 M43.2,58.1c-2.5-1.2-4.2-4.5-3.8-7.4c0.4-2.9,2.8-4.2,5.3-3c2.5,1.2,4.2,4.5,3.8,7.4C48.1,58,45.7,59.3,43.2,58.1z"/>
			</g>
			<line class="st2" x1="42.9" y1="58.2" x2="42.7" y2="59.1"/>
			<line class="st2" x1="44.7" y1="47.7" x2="44.9" y2="46.8"/>
			<line class="st2" x1="48.5" y1="55.4" x2="49.3" y2="55.8"/>
			<line class="st2" x1="39.3" y1="50.9" x2="38.5" y2="50.4"/>
		</g>
		<g>
			<path class="st1" d="M68.1,56.3c0,0,0,12.5,0,13.2c0,0.6,0.2,1.2-0.9,0.7c-1-0.5-2.3-1.2-2.3-1.2"/>
			<g>
				<path class="st2" d="M54.5,49.8l-2,13.8c-0.1,0.9,0.7,1.6,0.9,1.8l11.3,5.4c0.2,0.1,1.1,0.4,1.3-0.7l2-13.8L54.5,49.8z
					 M59.4,65.7c-2.5-1.2-4.2-4.5-3.8-7.4c0.4-2.9,2.8-4.2,5.3-3c2.5,1.2,4.2,4.5,3.8,7.4C64.3,65.6,61.9,66.9,59.4,65.7z"/>
			</g>
			<line class="st2" x1="59.1" y1="65.7" x2="58.9" y2="66.7"/>
			<line class="st2" x1="60.9" y1="55.3" x2="61.1" y2="54.4"/>
			<line class="st2" x1="64.7" y1="63" x2="65.5" y2="63.4"/>
			<line class="st2" x1="55.5" y1="58.5" x2="54.7" y2="58"/>
		</g>
		<g>
			<path class="st1" d="M51.9,75.7c0,0,0,12.5,0,13.2c0,0.6,0.2,1.2-0.9,0.7c-1-0.5-2.3-1.2-2.3-1.2"/>
			<g>
				<path class="st2" d="M38.3,69.2l-2,13.8c-0.1,0.9,0.7,1.6,0.9,1.8l11.3,5.4c0.2,0.1,1.1,0.4,1.3-0.7l2-13.8L38.3,69.2z
					 M43.2,85.2c-2.5-1.2-4.2-4.5-3.8-7.4c0.4-2.9,2.8-4.2,5.3-3c2.5,1.2,4.2,4.5,3.8,7.4C48.1,85,45.7,86.4,43.2,85.2z"/>
			</g>
			<line class="st2" x1="42.9" y1="85.2" x2="42.7" y2="86.1"/>
			<line class="st2" x1="44.7" y1="74.7" x2="44.9" y2="73.8"/>
			<line class="st2" x1="48.5" y1="82.4" x2="49.3" y2="82.9"/>
			<line class="st2" x1="39.3" y1="77.9" x2="38.5" y2="77.4"/>
		</g>
		<g>
			<path class="st1" d="M68.1,83.3c0,0,0,12.5,0,13.2c0,0.6,0.2,1.2-0.9,0.7c-1-0.5-2.3-1.2-2.3-1.2"/>
			<g>
				<path class="st2" d="M54.5,76.8l-2,13.8c-0.1,0.9,0.7,1.6,0.9,1.8l11.3,5.4c0.2,0.1,1.1,0.4,1.3-0.7l2-13.8L54.5,76.8z
					 M59.4,92.8c-2.5-1.2-4.2-4.5-3.8-7.4c0.4-2.9,2.8-4.2,5.3-3c2.5,1.2,4.2,4.5,3.8,7.4C64.3,92.6,61.9,93.9,59.4,92.8z"/>
			</g>
			<line class="st2" x1="59.1" y1="92.8" x2="58.9" y2="93.7"/>
			<line class="st2" x1="60.9" y1="82.3" x2="61.1" y2="81.4"/>
			<line class="st2" x1="64.7" y1="90" x2="65.5" y2="90.5"/>
			<line class="st2" x1="55.5" y1="85.5" x2="54.7" y2="85"/>
		</g>
	</g>
</g>
</svg>
