<?xml version="1.0" encoding="utf-8"?>
<!-- Generator: Adobe Illustrator 21.1.0, SVG Export Plug-In . SVG Version: 6.00 Build 0)  -->
<svg version="1.1" id="Layer_1" xmlns="http://www.w3.org/2000/svg" xmlns:xlink="http://www.w3.org/1999/xlink" x="0px" y="0px"
	 width="108px" height="108px" viewBox="0 0 108 108" style="enable-background:new 0 0 108 108;" xml:space="preserve">
<style type="text/css">
	.st0{fill:#FFFFFF;stroke:#000000;stroke-width:0.5;stroke-linecap:round;stroke-linejoin:round;stroke-miterlimit:10;}
	.st1{fill:#FFFFFF;stroke:#000000;stroke-width:0.25;stroke-linecap:round;stroke-linejoin:round;stroke-miterlimit:10;}
	.st2{fill:none;stroke:#000000;stroke-width:0.25;stroke-linecap:round;stroke-linejoin:round;}
	.st3{fill:none;stroke:#000000;stroke-width:0.25;stroke-linecap:round;stroke-linejoin:round;stroke-dasharray:0.644,0.644;}
</style>
<g>
	<path class="st0" d="M63.6,7.2h-6.1c0,0-0.5,0-0.5-0.5c0-0.5,0-4.9,0-4.9c0-0.3-0.2-0.3-0.3-0.3h-5.5c-0.1,0-0.3,0-0.3,0.3
		c0,0,0,4.4,0,4.9c0,0.4-0.2,0.6-0.5,0.6c-0.4,0-6,0-6,0c-0.2,0-0.4,0.2-0.4,0.4v8.5c0,0.2,0.2,0.4,0.4,0.4h6c0,0,0.4,0,0.5,0.4h0
		l0.1,89.6h6l0-89.6h0c0.1-0.5,0.6-0.4,0.6-0.4h5.9c0.2,0,0.4-0.2,0.4-0.4V7.6C64,7.4,63.8,7.2,63.6,7.2z M54,2.3
		c0.4,0,0.8,0.4,0.8,0.8c0,0.5-0.4,0.8-0.8,0.8s-0.8-0.4-0.8-0.8C53.2,2.7,53.6,2.3,54,2.3z"/>
	<g>
		<path class="st1" d="M52.5,31.8c0,0.7,0,3.4,0,4.4c0,0.4,0.9,0.4,0.9,0c0-0.8,0-3.5,0-4.1c0-0.6,1.3-0.6,1.3,0c0,1,0,3.6,0,4.1
			c0,0.4,0.9,0.4,0.9,0c0-1.5,0-4,0-4.4"/>
		<path class="st1" d="M52.5,41.6c0,0.7,0,3.4,0,4.4c0,0.4,0.9,0.4,0.9,0c0-0.8,0-3.5,0-4.1c0-0.6,1.3-0.6,1.3,0c0,1,0,3.6,0,4.1
			c0,0.4,0.9,0.4,0.9,0c0-1.5,0-4,0-4.4"/>
		<path class="st1" d="M52.5,51.4c0,0.7,0,3.4,0,4.4c0,0.4,0.9,0.4,0.9,0c0-0.8,0-3.5,0-4.1c0-0.6,1.3-0.6,1.3,0c0,1,0,3.6,0,4.1
			c0,0.4,0.9,0.4,0.9,0c0-1.5,0-4,0-4.4"/>
		<path class="st1" d="M52.5,61.1c0,0.7,0,3.4,0,4.4c0,0.4,0.9,0.4,0.9,0c0-0.8,0-3.5,0-4.1c0-0.6,1.3-0.6,1.3,0c0,1,0,3.6,0,4.1
			c0,0.4,0.9,0.4,0.9,0c0-1.5,0-4,0-4.4"/>
		<path class="st1" d="M52.5,70.9c0,0.7,0,3.4,0,4.4c0,0.4,0.9,0.4,0.9,0c0-0.8,0-3.5,0-4.1c0-0.6,1.3-0.6,1.3,0c0,1,0,3.6,0,4.1
			c0,0.4,0.9,0.4,0.9,0c0-1.5,0-4,0-4.4"/>
		<path class="st1" d="M52.5,80.7c0,0.7,0,3.4,0,4.4c0,0.4,0.9,0.4,0.9,0c0-0.8,0-3.5,0-4.1c0-0.6,1.3-0.6,1.3,0c0,1,0,3.6,0,4.1
			c0,0.4,0.9,0.4,0.9,0c0-1.5,0-4,0-4.4"/>
		<path class="st1" d="M52.5,90.5c0,0.7,0,3.4,0,4.4c0,0.4,0.9,0.4,0.9,0c0-0.8,0-3.5,0-4.1c0-0.6,1.3-0.6,1.3,0c0,1,0,3.6,0,4.1
			c0,0.4,0.9,0.4,0.9,0c0-1.5,0-4,0-4.4"/>
		<path class="st1" d="M52.5,100.3c0,0.7,0,3.4,0,4.4c0,0.4,0.9,0.4,0.9,0c0-0.8,0-3.5,0-4.1c0-0.6,1.3-0.6,1.3,0c0,1,0,3.6,0,4.1
			c0,0.4,0.9,0.4,0.9,0c0-1.5,0-4,0-4.4"/>
	</g>
	<g>
		<g>
			<line class="st2" x1="51.4" y1="97.7" x2="51.8" y2="97.7"/>
			<line class="st3" x1="52.4" y1="97.7" x2="56" y2="97.7"/>
			<line class="st2" x1="56.3" y1="97.7" x2="56.6" y2="97.7"/>
		</g>
	</g>
	<g>
		<g>
			<line class="st2" x1="51.4" y1="87.9" x2="51.8" y2="87.9"/>
			<line class="st3" x1="52.4" y1="87.9" x2="56" y2="87.9"/>
			<line class="st2" x1="56.3" y1="87.9" x2="56.6" y2="87.9"/>
		</g>
	</g>
	<g>
		<g>
			<line class="st2" x1="51.4" y1="78.1" x2="51.8" y2="78.1"/>
			<line class="st3" x1="52.4" y1="78.1" x2="56" y2="78.1"/>
			<line class="st2" x1="56.3" y1="78.1" x2="56.6" y2="78.1"/>
		</g>
	</g>
	<g>
		<g>
			<line class="st2" x1="51.4" y1="68.3" x2="51.8" y2="68.3"/>
			<line class="st3" x1="52.4" y1="68.3" x2="56" y2="68.3"/>
			<line class="st2" x1="56.3" y1="68.3" x2="56.6" y2="68.3"/>
		</g>
	</g>
	<g>
		<g>
			<line class="st2" x1="51.4" y1="58.5" x2="51.8" y2="58.5"/>
			<line class="st3" x1="52.4" y1="58.5" x2="56" y2="58.5"/>
			<line class="st2" x1="56.3" y1="58.5" x2="56.6" y2="58.5"/>
		</g>
	</g>
	<g>
		<g>
			<line class="st2" x1="51.4" y1="48.7" x2="51.8" y2="48.7"/>
			<line class="st3" x1="52.4" y1="48.7" x2="56" y2="48.7"/>
			<line class="st2" x1="56.3" y1="48.7" x2="56.6" y2="48.7"/>
		</g>
	</g>
	<g>
		<g>
			<line class="st2" x1="51.4" y1="38.9" x2="51.8" y2="38.9"/>
			<line class="st3" x1="52.4" y1="38.9" x2="56" y2="38.9"/>
			<line class="st2" x1="56.3" y1="38.9" x2="56.6" y2="38.9"/>
		</g>
	</g>
	<g>
		<g>
			<line class="st2" x1="51.4" y1="29.1" x2="51.8" y2="29.1"/>
			<line class="st3" x1="52.4" y1="29.1" x2="56" y2="29.1"/>
			<line class="st2" x1="56.3" y1="29.1" x2="56.6" y2="29.1"/>
		</g>
	</g>
	<g>
		<g>
			<line class="st2" x1="51.4" y1="19.3" x2="51.8" y2="19.3"/>
			<line class="st3" x1="52.4" y1="19.3" x2="56" y2="19.3"/>
			<line class="st2" x1="56.3" y1="19.3" x2="56.6" y2="19.3"/>
		</g>
	</g>
</g>
</svg>
