<?xml version="1.0" encoding="utf-8"?>
<!-- Generator: Adobe Illustrator 21.1.0, SVG Export Plug-In . SVG Version: 6.00 Build 0)  -->
<svg version="1.1" id="Layer_1" xmlns="http://www.w3.org/2000/svg" xmlns:xlink="http://www.w3.org/1999/xlink" x="0px" y="0px"
	 width="108px" height="108px" viewBox="0 0 108 108" style="enable-background:new 0 0 108 108;" xml:space="preserve">
<style type="text/css">
	.st0{fill:#F2F2F2;stroke:#000000;stroke-width:0.75;stroke-linecap:round;stroke-linejoin:round;stroke-miterlimit:10;}
	.st1{fill:#FFFFFF;stroke:#000000;stroke-width:0.75;stroke-linecap:round;stroke-linejoin:round;stroke-miterlimit:10;}
	.st2{fill:#F2F2F2;stroke:#231F20;stroke-width:0.5972;}
	.st3{fill:none;stroke:#231F20;stroke-width:0.5972;}
	
		.st4{fill:none;stroke:#000000;stroke-width:0.5;stroke-linecap:round;stroke-linejoin:round;stroke-miterlimit:10;stroke-dasharray:0.75;}
	.st5{fill:#808080;stroke:#231F20;stroke-width:0.2986;}
	.st6{fill:#FFFFFF;stroke:#000000;stroke-width:0.5;stroke-linecap:round;stroke-linejoin:round;stroke-miterlimit:10;}
</style>
<g>
	<path class="st0" d="M72,61.9c2.6-7.1,3.8-12.2,4.3-15.5c-3,11.2-5.2,19.3-10.5,26C68.2,69.6,70.4,66.1,72,61.9z M94,43
		c0-7.3-1-12.7-1-12.7c-0.9-4.6-5.5-16.1-12.2-18c-7.4-2.1-14.6-0.4-24.9,11.9c0,0-5.4,7.8-7.9,13.4c-2.5,5.7-9.5,26.3-11.3,31.4
		c-1.9,5.1-4,12.8-4.1,13.8c0,0,1.1,2.4,3,5.3c1.9,2.9,6.3,5.6,6.3,5.6s10.8,3,12.3,3.8c1.5,0.7,6.7,1.2,8.5,1.1
		c3.2-0.1,7.8-2.2,13.4-7.2c5.2-4.7,10.4-14.1,14.8-26.1l-0.2-0.1C93.1,57.8,93.9,49.6,94,43z M83,79.8c-0.4,0.6-0.8,1.2-1.2,1.8v0
		c-7,9.8-15.8,16.5-23,15.2c-10.5-2-12.1-10-12.9-13c-0.8-3-4.5-20-0.4-33.4c4.2-13.6,9.9-23.8,16.4-29.9c4.9-4.6,11.5-7.1,16.5-6.2
		c5,0.9,11.5,9,12.9,16c0.7,3.4,1.2,7.7,1.2,12.5c0,5-0.6,10.4-1.5,15.6c-0.7,4.1-3,10.3-5.6,15.3c-1,1.9-2.2,3.8-3.4,5.6L83,79.8z"
		/>
	<path class="st1" d="M94.9,48.3c-0.5,4.5-1.5,8.9-3,13.2c-0.4,1.3-0.9,2.5-1.3,3.7l-0.2-0.1c2.6-7.4,3.5-15.6,3.5-22.2
		c0-7.3-1-12.7-1-12.7c-0.9-4.6-5.5-16.1-12.2-18c-7.4-2.1-14.6-0.4-24.9,11.9c0,0-5.4,7.8-7.9,13.4c-2.5,5.7-9.5,26.3-11.3,31.4
		c-1.9,5.1-4,12.8-4.1,13.8L25.7,102l-13.1-4.5c0,0,16.5-54,23-67c3.7-7.5,8.3-14.3,12.3-17.8c4.1-3.4,9.7-6.1,11.4-6.5
		s11.3,0.2,14.6,1.4C77.1,8.8,86.4,9.8,91.5,21C95.1,28.8,96.1,38.5,94.9,48.3z"/>
	<path class="st2" d="M91.4,30.3c-1.5-7.1-7.9-15.1-12.9-16c-5-0.9-11.6,1.6-16.5,6.2c-6.5,6.1-12.2,16.3-16.4,29.9
		c-4.1,13.4-0.4,30.4,0.4,33.4c0.8,3,2.4,11.1,12.9,13c7.2,1.3,16-5.4,23-15.2v0c0.4-0.6,0.8-1.2,1.2-1.8l-0.9-0.6
		c1.2-1.8,2.3-3.7,3.4-5.6c2.7-5,4.9-11.2,5.6-15.3c0.9-5.2,1.5-10.6,1.5-15.6C92.6,38,92,33.7,91.4,30.3z M76.4,46.2
		c0,0.1,0,0.1-0.1,0.2c-0.5,3.3-1.7,8.4-4.3,15.5c-1.5,4.2-3.8,7.7-6.2,10.5c-2.2,2.8-4.9,5.3-8.4,7.7c-2.3,1.6-3.2,2.7-4.3,2.4
		c-0.4-0.1-0.8-0.4-1.2-0.9c-1.3-1.3-3.4-13.2-1.8-26.2c0.5-3.7,1.7-7.3,2.6-10.9c1-4.1,5-10.5,8.8-14.7c0,0,0-0.1,0.1-0.1
		c2-2.2,3.9-3.8,5.3-4.1c0.2-0.1,0.4-0.1,0.6-0.1c0.2,0,0.3,0,0.5,0c0.1,0,0.1,0,0.2,0c0.1,0,0.2,0,0.4,0c0.2,0,0.4,0.1,0.6,0.1
		c1.3,0.3,1.9,1,3,2.5c0.1,0.2,0.3,0.4,0.4,0.6c0.2,0.3,0.5,1,0.8,2c0,0,0,0,0,0c0.5,1.5,1,3.5,1.4,5.3c0,0,0,0,0,0
		c0.2,1.1,0.3,2.2,0.3,2.9c0,0.1,0,0.2,0,0.4c0,0.2,0,0.3,0,0.5c0.1,0.5,0.2,0.8,0.5,1c0.2,0.2,0.5,0.3,0.9,0.5
		c0.2,0.1,0.3,0.3,0.4,0.5C77,42.8,76.9,44.2,76.4,46.2z"/>
	<path class="st3" d="M65.3,26c-1.3,1.1-2.5,2.4-3.7,3.8"/>
	<path class="st3" d="M61.5,29.9c-3.6,4.4-6.7,9.9-8.8,14.7c-3.9,9-3.6,20.7-3,29.3c0.6,8.6,5.6,13,9.5,14.5c3.1,1.2,7.9,2.5,18-7.9
		c5-5.2,9.6-15.6,11.2-23.1c1.1-5.5,1.2-10.3,1.1-13.5v0c0-1.2-0.1-2.1,0-2.9c0.1-5.4-3.3-18.3-9.8-20.9c-3.7-1.5-8.8-0.7-14,3.2
		c-3.9,3-8.8,9.7-12.3,15.9c-8.1,14.1-5.8,29.4-5,37.5c0.7,6.7,4.3,12.7,10.8,14.8c6.5,2.1,14-4.7,18.5-8.7
		c4.5-4.1,9.8-14.7,12-24.5c1-4.6,1.6-10,1.6-15.2c0-5.8-0.7-11.2-2.4-15c-3.9-9.2-10.4-13.6-19.2-9.7c-7.6,3.4-16,15.2-20.5,26.2
		c-4.5,11-3.6,25.9-2.8,32.7c0.7,6.9,5.9,14.4,9.6,16.1c3.7,1.7,6.8,2,13.1-1c4.3-2.1,8.4-6.2,12-11.2c0.4-0.6,0.8-1.2,1.2-1.8"/>
	<path class="st3" d="M90.4,65.2c-0.2,0.5-0.4,1-0.5,1.5c-1.8,4.6-4.2,9.1-6.9,13.2"/>
	<path class="st3" d="M88.3,43.8c-1.7-6.3-1.2-6.5-2.3-11.2c-0.2-0.6-0.6-1.8-0.8-2.3c-0.8-1.8-1.7-3.9-3.9-5.5
		c-2.4-1.7-4.9-2.5-8.9-2.2C70,22.7,67.6,24,65.3,26c0.5-0.1,1-0.2,1.5-0.3c0.4,0,0.7-0.1,1-0.1c0.1,0,0.1,0,0.2,0
		c0.1,0,0.2,0,0.4,0c0.8,0.1,1.5,0.3,2,0.6c0.5,0.4,1.1,1.1,1.6,2c0.4,0.8,0.8,1.7,1.2,2.6c0,0,0,0,0,0c0.3,0.7,0.5,1.4,0.7,2.1
		c0.3,0.9,0.5,2.1,0.6,3.2c0,0,0,0,0,0c0.1,1.2,0.2,2.4,0.3,3.2c0,0.2,0,0.3,0,0.5c0,0.5,0,0.8,0,0.8l0.5,0.1l1.3,0.4l10.4,2.8
		L88.3,43.8"/>
	<line class="st4" x1="46.2" y1="41.1" x2="33" y2="36.7"/>
	<ellipse transform="matrix(0.9654 -0.2608 0.2608 0.9654 -10.0201 11.3298)" class="st5" cx="37.7" cy="43.4" rx="1.3" ry="1.3"/>
	<path class="st3" d="M52.6,82.8c0,0,0.2-0.1,0.5-0.3c1.7-0.9,7.6-4.1,12.6-10.1"/>
	<path class="st3" d="M76.3,46.4c0.4-2.2,0.4-3.7,0.4-4.4c0-0.5,0-0.7,0-0.7"/>
	<path class="st6" d="M43.3,24c-0.7,1.5-3.2,6.7-4.3,8.8c-0.4,0.8,1.5,1.3,1.8,0.6c0.8-1.6,3.4-6.9,3.9-8.2c0.6-1.2,3.3-0.3,2.8,0.9
		c-0.9,2-3.4,7.1-3.9,8.2c-0.4,0.8,1.5,1.3,1.9,0.6c1.5-3,3.8-8,4.3-8.8"/>
	<path class="st6" d="M53.1,12.3c-0.9,1-4.3,4.8-5.6,6.3c-0.5,0.6,1.4,1.2,1.9,0.6c1-1.2,4.4-5,5.2-5.8c0.7-0.8,3.6,0.1,2.8,0.9
		c-1.3,1.4-4.5,5.1-5.2,5.8c-0.5,0.5,1.4,1.2,1.9,0.6c1.9-2.2,5.1-5.7,5.6-6.3"/>
	<path class="st6" d="M65,6.5c-0.9,0.5-4.1,2.1-5.4,2.8c-0.5,0.2,0.9,0.9,1.3,0.7c1-0.5,4.2-2.2,5-2.5c0.7-0.4,2.7,0.7,2,1.1
		c-1.2,0.6-4.3,2.2-5,2.5c-0.5,0.2,0.9,0.9,1.3,0.7c1.8-0.9,4.8-2.5,5.4-2.8"/>
	<path class="st6" d="M26.6,66.4c-0.5,1.5-2.4,7.1-3.1,9.3c-0.3,0.8,1.6,1.4,1.8,0.6c0.6-1.7,2.5-7.3,2.9-8.6
		c0.4-1.2,3.2-0.3,2.7,0.9c-0.7,2.1-2.5,7.5-2.9,8.6c-0.3,0.8,1.6,1.4,1.8,0.6c1.1-3.2,2.8-8.4,3.1-9.3"/>
	<path class="st6" d="M20.4,84.5c-0.5,1.5-2.4,7.1-3.1,9.3c-0.3,0.8,1.6,1.4,1.8,0.6c0.6-1.7,2.5-7.3,2.9-8.6
		c0.4-1.2,3.2-0.3,2.7,0.9c-0.7,2.1-2.5,7.5-2.9,8.6c-0.3,0.8,1.6,1.4,1.8,0.6c1.1-3.2,2.8-8.4,3.1-9.3"/>
	<path class="st4" d="M78.8,11.8c-4.3-4-10.7-5.3-10.7-5.3"/>
	<path class="st6" d="M32.8,48.2c-0.5,1.5-2.4,7.1-3.1,9.3c-0.3,0.8,1.6,1.4,1.8,0.6c0.6-1.7,2.5-7.3,2.9-8.6
		c0.4-1.2,3.2-0.3,2.7,0.9c-0.7,2.1-2.5,7.5-2.9,8.6c-0.3,0.8,1.6,1.4,1.8,0.6c1.1-3.2,2.8-8.4,3.1-9.3"/>
</g>
</svg>
