<?xml version="1.0" encoding="utf-8"?>
<!-- Generator: Adobe Illustrator 21.1.0, SVG Export Plug-In . SVG Version: 6.00 Build 0)  -->
<svg version="1.1" id="Layer_1" xmlns="http://www.w3.org/2000/svg" xmlns:xlink="http://www.w3.org/1999/xlink" x="0px" y="0px"
	 width="108px" height="108px" viewBox="0 0 108 108" style="enable-background:new 0 0 108 108;" xml:space="preserve">
<style type="text/css">
	.st0{fill:#FFFFFF;stroke:#000000;stroke-width:0.5;stroke-linecap:round;stroke-linejoin:round;stroke-miterlimit:10;}
	.st1{fill:#FFFFFF;stroke:#000000;stroke-width:0.25;stroke-linecap:round;stroke-linejoin:round;stroke-miterlimit:10;}
	.st2{fill:none;stroke:#000000;stroke-width:0.25;stroke-linecap:round;stroke-linejoin:round;}
	.st3{fill:none;stroke:#000000;stroke-width:0.25;stroke-linecap:round;stroke-linejoin:round;stroke-dasharray:0.826,0.826;}
</style>
<g>
	<path class="st0" d="M56.2,6.1l0-4.3h-4.5v4.3h-1.6l0.1,100.1h7.5L57.8,6.1H56.2z M54,4.9c-0.5,0-0.8-0.4-0.8-0.8
		c0-0.5,0.4-0.8,0.8-0.8c0.5,0,0.8,0.4,0.8,0.8C54.8,4.5,54.5,4.9,54,4.9z"/>
	<g>
		<path class="st1" d="M52.1,13.4c0,0.9,0,4.2,0,5.5c0,0.5,1.1,0.5,1.1,0c0-1,0-4.3,0-5.1c0-0.7,1.6-0.7,1.6,0c0,1.2,0,4.4,0,5.1
			c0,0.5,1.1,0.5,1.1,0c0-1.9,0-5,0-5.5"/>
		<path class="st1" d="M52.1,25.6c0,0.9,0,4.2,0,5.5c0,0.5,1.1,0.5,1.1,0c0-1,0-4.3,0-5.1c0-0.7,1.6-0.7,1.6,0c0,1.2,0,4.4,0,5.1
			c0,0.5,1.1,0.5,1.1,0c0-1.9,0-5,0-5.5"/>
		<path class="st1" d="M52.1,37.7c0,0.9,0,4.2,0,5.5c0,0.5,1.1,0.5,1.1,0c0-1,0-4.3,0-5.1c0-0.7,1.6-0.7,1.6,0c0,1.2,0,4.4,0,5.1
			c0,0.5,1.1,0.5,1.1,0c0-1.9,0-5,0-5.5"/>
		<path class="st1" d="M52.1,49.9c0,0.9,0,4.2,0,5.5c0,0.5,1.1,0.5,1.1,0c0-1,0-4.3,0-5.1c0-0.7,1.6-0.7,1.6,0c0,1.2,0,4.4,0,5.1
			c0,0.5,1.1,0.5,1.1,0c0-1.9,0-5,0-5.5"/>
		<path class="st1" d="M52.1,62c0,0.9,0,4.2,0,5.5c0,0.5,1.1,0.5,1.1,0c0-1,0-4.3,0-5.1c0-0.7,1.6-0.7,1.6,0c0,1.2,0,4.4,0,5.1
			c0,0.5,1.1,0.5,1.1,0c0-1.9,0-5,0-5.5"/>
		<path class="st1" d="M52.1,74.2c0,0.9,0,4.2,0,5.5c0,0.5,1.1,0.5,1.1,0c0-1,0-4.3,0-5.1c0-0.7,1.6-0.7,1.6,0c0,1.2,0,4.4,0,5.1
			c0,0.5,1.1,0.5,1.1,0c0-1.9,0-5,0-5.5"/>
		<path class="st1" d="M52.1,86.3c0,0.9,0,4.2,0,5.5c0,0.5,1.1,0.5,1.1,0c0-1,0-4.3,0-5.1c0-0.7,1.6-0.7,1.6,0c0,1.2,0,4.4,0,5.1
			c0,0.5,1.1,0.5,1.1,0c0-1.9,0-5,0-5.5"/>
		<path class="st1" d="M52.1,98.5c0,0.9,0,4.2,0,5.5c0,0.5,1.1,0.5,1.1,0c0-1,0-4.3,0-5.1c0-0.7,1.6-0.7,1.6,0c0,1.2,0,4.4,0,5.1
			c0,0.5,1.1,0.5,1.1,0c0-1.9,0-5,0-5.5"/>
	</g>
	<g>
		<g>
			<line class="st2" x1="50.8" y1="95.3" x2="51.1" y2="95.3"/>
			<line class="st3" x1="52" y1="95.3" x2="56.5" y2="95.3"/>
			<line class="st2" x1="56.9" y1="95.3" x2="57.3" y2="95.3"/>
		</g>
	</g>
	<g>
		<g>
			<line class="st2" x1="50.8" y1="83.1" x2="51.1" y2="83.1"/>
			<line class="st3" x1="52" y1="83.1" x2="56.5" y2="83.1"/>
			<line class="st2" x1="56.9" y1="83.1" x2="57.3" y2="83.1"/>
		</g>
	</g>
	<g>
		<g>
			<line class="st2" x1="50.8" y1="70.9" x2="51.1" y2="70.9"/>
			<line class="st3" x1="52" y1="70.9" x2="56.5" y2="70.9"/>
			<line class="st2" x1="56.9" y1="70.9" x2="57.3" y2="70.9"/>
		</g>
	</g>
	<g>
		<g>
			<line class="st2" x1="50.8" y1="58.7" x2="51.1" y2="58.7"/>
			<line class="st3" x1="52" y1="58.7" x2="56.5" y2="58.7"/>
			<line class="st2" x1="56.9" y1="58.7" x2="57.3" y2="58.7"/>
		</g>
	</g>
	<g>
		<g>
			<line class="st2" x1="50.8" y1="46.6" x2="51.1" y2="46.6"/>
			<line class="st3" x1="52" y1="46.6" x2="56.5" y2="46.6"/>
			<line class="st2" x1="56.9" y1="46.6" x2="57.3" y2="46.6"/>
		</g>
	</g>
	<g>
		<g>
			<line class="st2" x1="50.8" y1="34.4" x2="51.1" y2="34.4"/>
			<line class="st3" x1="52" y1="34.4" x2="56.5" y2="34.4"/>
			<line class="st2" x1="56.9" y1="34.4" x2="57.3" y2="34.4"/>
		</g>
	</g>
	<g>
		<g>
			<line class="st2" x1="50.8" y1="22.2" x2="51.1" y2="22.2"/>
			<line class="st3" x1="52" y1="22.2" x2="56.5" y2="22.2"/>
			<line class="st2" x1="56.9" y1="22.2" x2="57.3" y2="22.2"/>
		</g>
	</g>
	<g>
		<g>
			<line class="st2" x1="50.8" y1="10" x2="51.1" y2="10"/>
			<line class="st3" x1="52" y1="10" x2="56.5" y2="10"/>
			<line class="st2" x1="56.9" y1="10" x2="57.3" y2="10"/>
		</g>
	</g>
</g>
</svg>
