<?xml version="1.0" encoding="utf-8"?>
<!-- Generator: Adobe Illustrator 21.1.0, SVG Export Plug-In . SVG Version: 6.00 Build 0)  -->
<svg version="1.1" id="Layer_1" xmlns="http://www.w3.org/2000/svg" xmlns:xlink="http://www.w3.org/1999/xlink" x="0px" y="0px"
	 width="108px" height="108px" viewBox="0 0 108 108" style="enable-background:new 0 0 108 108;" xml:space="preserve">
<style type="text/css">
	.st0{fill:#FFFFFF;stroke:#000000;stroke-width:0.5;stroke-linecap:round;stroke-linejoin:round;stroke-miterlimit:10;}
	.st1{fill:#F2F2F2;stroke:#000000;stroke-width:0.5;stroke-linecap:round;stroke-linejoin:round;stroke-miterlimit:10;}
	.st2{fill:#CCCCCC;stroke:#000000;stroke-width:0.25;stroke-linecap:round;stroke-linejoin:round;stroke-miterlimit:10;}
</style>
<g>
	<g>
		<path class="st0" d="M100.3,39.2L7.7,1.6C6.4,1.1,5.3,1.5,5.3,2.5v63.4c0,1.1,1,2.3,2.3,2.8l92.6,37.6c1.3,0.5,2.4,0.1,2.4-0.9
			V42.1C102.7,41,101.6,39.7,100.3,39.2z M25.1,17.9c-0.5,0-0.9-0.3-0.9-0.8c0-0.4,0.4-0.8,0.9-0.8c0.5,0,0.9,0.3,0.8,0.8
			C25.9,17.6,25.5,17.9,25.1,17.9z M25.2,12.5c-0.5,0-0.9-0.3-0.9-0.8c0-0.4,0.4-0.8,0.9-0.8c0.5,0,0.9,0.3,0.9,0.8
			C26.1,12.2,25.7,12.5,25.2,12.5z M54.9,29.2c-0.5,0-0.8-0.3-0.9-0.8c0-0.4,0.4-0.8,0.9-0.8c0.5,0,0.9,0.3,0.9,0.8
			C55.8,28.8,55.4,29.2,54.9,29.2z M54.9,23.7c-0.5,0-0.9-0.3-0.9-0.8c0-0.4,0.4-0.8,0.9-0.8c0.5,0,0.9,0.3,0.9,0.8
			C55.8,23.4,55.4,23.7,54.9,23.7z M84.7,40.4c-0.5,0-0.9-0.3-0.9-0.8c0-0.4,0.4-0.8,0.9-0.8c0.5,0,0.9,0.3,0.9,0.8
			C85.6,40,85.2,40.4,84.7,40.4z M84.7,35.4c-0.5,0-0.9-0.3-0.9-0.8c0-0.4,0.4-0.8,0.9-0.8c0.5,0,0.9,0.3,0.9,0.8
			C85.6,35,85.2,35.4,84.7,35.4z"/>
		<path class="st1" d="M5.3,65.9c0,1.1,1,2.3,2.3,2.8l92.6,37.6c1.3,0.5,2.4,0.1,2.4-0.9V42.1"/>
	</g>
	<g>
		<g>
			<polygon class="st2" points="68.4,42.6 71.3,43.3 68.6,48.3 			"/>
			<polygon class="st2" points="71.4,49 72.5,49.7 72.4,44.5 			"/>
		</g>
		<g>
			<polygon class="st2" points="8.9,4.8 11.8,5.5 9.1,10.5 			"/>
			<polygon class="st2" points="11.9,11.1 13,11.9 12.9,6.7 			"/>
		</g>
		<g>
			<polygon class="st2" points="39.3,17.1 42.2,17.8 39.6,22.7 			"/>
			<polygon class="st2" points="42.4,23.4 43.4,24.1 43.3,18.9 			"/>
		</g>
		<g>
			<polygon class="st2" points="67.2,27.8 70.1,28.5 67.5,33.4 			"/>
			<polygon class="st2" points="70.3,34.1 71.4,34.8 71.3,29.6 			"/>
		</g>
		<g>
			<polygon class="st2" points="97.7,39 100.6,39.7 97.9,44.7 			"/>
			<polygon class="st2" points="100.8,45.3 101.8,46 101.7,40.9 			"/>
		</g>
		<g>
			<polygon class="st2" points="97.4,52.7 100.3,53.4 97.6,58.3 			"/>
			<polygon class="st2" points="100.4,59 101.5,59.7 101.4,54.5 			"/>
		</g>
		<g>
			<polygon class="st2" points="38.4,31.1 41.3,31.8 38.7,36.8 			"/>
			<polygon class="st2" points="41.5,37.4 42.6,38.2 42.5,33 			"/>
		</g>
		<g>
			<polygon class="st2" points="9,20.6 11.9,21.3 9.2,26.3 			"/>
			<polygon class="st2" points="12,26.9 13.1,27.7 13,22.5 			"/>
		</g>
		<g>
			<polygon class="st2" points="8,34.9 10.9,35.6 8.3,40.5 			"/>
			<polygon class="st2" points="11.1,41.2 12.2,41.9 12.1,36.7 			"/>
		</g>
		<g>
			<polygon class="st2" points="38,45.3 40.9,46 38.2,51 			"/>
			<polygon class="st2" points="41,51.6 42.1,52.4 42,47.2 			"/>
		</g>
		<g>
			<polygon class="st2" points="8.3,49.7 11.2,50.4 8.6,55.3 			"/>
			<polygon class="st2" points="11.4,56 12.4,56.7 12.3,51.5 			"/>
		</g>
		<g>
			<polygon class="st2" points="37.7,60.2 40.6,60.9 37.9,65.9 			"/>
			<polygon class="st2" points="40.7,66.5 41.8,67.2 41.7,62.1 			"/>
		</g>
		<g>
			<polygon class="st2" points="66.7,71.1 69.6,71.8 67,76.8 			"/>
			<polygon class="st2" points="69.8,77.4 70.8,78.2 70.8,73 			"/>
		</g>
		<g>
			<polygon class="st2" points="97,82.2 99.9,83 97.3,87.9 			"/>
			<polygon class="st2" points="100.1,88.6 101.1,89.3 101,84.1 			"/>
		</g>
		<g>
			<polygon class="st2" points="97.3,97.3 100.2,98 97.6,103 			"/>
			<polygon class="st2" points="100.4,103.6 101.4,104.3 101.3,99.2 			"/>
		</g>
		<g>
			<polygon class="st2" points="66.7,86.6 69.6,87.3 67,92.2 			"/>
			<polygon class="st2" points="69.8,92.9 70.8,93.6 70.8,88.4 			"/>
		</g>
		<g>
			<polygon class="st2" points="37.4,74.7 40.3,75.4 37.6,80.4 			"/>
			<polygon class="st2" points="40.4,81 41.5,81.7 41.4,76.6 			"/>
		</g>
		<g>
			<polygon class="st2" points="7.4,63.6 10.3,64.3 7.6,69.3 			"/>
			<polygon class="st2" points="10.5,69.9 11.5,70.6 11.4,65.5 			"/>
		</g>
		<g>
			<polygon class="st2" points="67.6,56.9 70.5,57.6 67.8,62.5 			"/>
			<polygon class="st2" points="70.7,63.2 71.7,63.9 71.6,58.7 			"/>
		</g>
		<g>
			<polygon class="st2" points="97,68.1 99.9,68.8 97.3,73.7 			"/>
			<polygon class="st2" points="100.1,74.4 101.2,75.1 101.1,69.9 			"/>
		</g>
	</g>
</g>
</svg>
