<?xml version="1.0" encoding="utf-8"?>
<!-- Generator: Adobe Illustrator 21.1.0, SVG Export Plug-In . SVG Version: 6.00 Build 0)  -->
<svg version="1.1" id="Layer_1" xmlns="http://www.w3.org/2000/svg" xmlns:xlink="http://www.w3.org/1999/xlink" x="0px" y="0px"
	 width="108px" height="108px" viewBox="0 0 108 108" style="enable-background:new 0 0 108 108;" xml:space="preserve">
<style type="text/css">
	.st0{fill:#FFFFFF;stroke:#000000;stroke-width:0.5;stroke-linecap:round;stroke-linejoin:round;stroke-miterlimit:10;}
	.st1{fill:#F2F2F2;stroke:#000000;stroke-width:0.5;stroke-linecap:round;stroke-linejoin:round;stroke-miterlimit:10;}
	.st2{fill:#CCCCCC;stroke:#000000;stroke-width:0.25;stroke-linecap:round;stroke-linejoin:round;stroke-miterlimit:10;}
</style>
<g>
	<path class="st0" d="M100.8,43.2L7.2,3.1C5.9,2.6,4.8,2.9,4.8,3.9V62c0,1,1.1,2.2,2.4,2.8l93.6,40.1c1.3,0.6,2.4,0.2,2.4-0.7V46
		C103.2,45,102.1,43.8,100.8,43.2z M29.3,17.1c-0.5,0-0.9-0.4-0.9-0.9c0-0.5,0.4-0.9,0.9-0.9c0.5,0,0.9,0.4,0.9,0.9
		C30.2,16.7,29.8,17.1,29.3,17.1z M54.4,28.4c-0.5,0-0.9-0.4-0.9-0.9s0.4-0.9,0.9-0.9c0.5,0,0.9,0.4,0.9,0.9S54.8,28.4,54.4,28.4z
		 M79.6,39.5c-0.5,0-0.9-0.4-0.9-0.9c0-0.5,0.4-0.9,0.9-0.9c0.5,0,0.9,0.4,0.9,0.9C80.5,39,80.1,39.5,79.6,39.5z"/>
	<path class="st1" d="M103.2,46l0,58.2c0,1-1.1,1.3-2.4,0.7L7.2,64.8C5.9,64.2,4.8,63,4.8,62"/>
	<g>
		<g>
			<polygon class="st2" points="66.1,59.6 69,60.4 66.3,66.4 			"/>
			<polygon class="st2" points="69.2,67.1 70.2,68 70.1,61.8 			"/>
		</g>
		<g>
			<polygon class="st2" points="6.7,8.8 9.6,9.6 7,15.6 			"/>
			<polygon class="st2" points="9.8,16.3 10.9,17.2 10.8,10.9 			"/>
		</g>
		<g>
			<polygon class="st2" points="38.9,23.3 41.8,24 39.2,30.1 			"/>
			<polygon class="st2" points="42,30.8 43.1,31.6 43,25.4 			"/>
		</g>
		<g>
			<polygon class="st2" points="67.1,35.5 70,36.3 67.3,42.3 			"/>
			<polygon class="st2" points="70.2,43 71.2,43.9 71.2,37.6 			"/>
		</g>
		<g>
			<polygon class="st2" points="97.8,48.4 100.7,49.1 98,55.2 			"/>
			<polygon class="st2" points="100.9,55.9 101.9,56.7 101.9,50.5 			"/>
		</g>
		<g>
			<polygon class="st2" points="97.8,73.7 100.7,74.5 98,80.5 			"/>
			<polygon class="st2" points="100.9,81.2 101.9,82.1 101.9,75.8 			"/>
		</g>
		<g>
			<polygon class="st2" points="38.1,47.7 41,48.5 38.3,54.6 			"/>
			<polygon class="st2" points="41.2,55.3 42.2,56.1 42.1,49.9 			"/>
		</g>
		<g>
			<polygon class="st2" points="6.2,33.5 9.1,34.3 6.5,40.3 			"/>
			<polygon class="st2" points="9.3,41 10.4,41.9 10.3,35.7 			"/>
		</g>
		<g>
			<polygon class="st2" points="6.2,57.5 9.1,58.3 6.5,64.3 			"/>
			<polygon class="st2" points="9.3,65 10.4,65.9 10.3,59.6 			"/>
		</g>
		<g>
			<polygon class="st2" points="37.9,71.2 40.8,72 38.2,78.1 			"/>
			<polygon class="st2" points="41,78.8 42.1,79.6 42,73.4 			"/>
		</g>
		<g>
			<polygon class="st2" points="65.9,83.4 68.8,84.1 66.2,90.2 			"/>
			<polygon class="st2" points="69,90.9 70.1,91.7 70,85.5 			"/>
		</g>
		<g>
			<polygon class="st2" points="97.4,96.6 100.4,97.4 97.7,103.4 			"/>
			<polygon class="st2" points="100.5,104.1 101.6,105 101.5,98.7 			"/>
		</g>
	</g>
</g>
</svg>
