<?xml version="1.0" encoding="utf-8"?>
<!-- Generator: Adobe Illustrator 21.1.0, SVG Export Plug-In . SVG Version: 6.00 Build 0)  -->
<svg version="1.1" id="Layer_1" xmlns="http://www.w3.org/2000/svg" xmlns:xlink="http://www.w3.org/1999/xlink" x="0px" y="0px"
	 width="108px" height="108px" viewBox="0 0 108 108" style="enable-background:new 0 0 108 108;" xml:space="preserve">
<style type="text/css">
	.st0{fill:#FFFFFF;stroke:#000000;stroke-width:0.5;stroke-linecap:round;stroke-linejoin:round;stroke-miterlimit:10;}
	.st1{fill:#F2F2F2;stroke:#000000;stroke-width:0.5;stroke-linecap:round;stroke-linejoin:round;stroke-miterlimit:10;}
	.st2{fill:#CCCCCC;stroke:#000000;stroke-width:0.25;stroke-linecap:round;stroke-linejoin:round;stroke-miterlimit:10;}
</style>
<g>
	<path class="st0" d="M60.6,7L48.9,1c-0.6-0.3-1-0.1-1,0.5l-1.6,98c0,0.6,0.5,1.3,1,1.6l11.7,6c0.6,0.3,1,0.1,1-0.5l1.5-98
		C61.6,8,61.2,7.3,60.6,7z M54.5,6.1c-0.2,0-0.4-0.2-0.4-0.6c0-0.3,0.2-0.5,0.4-0.5c0.2,0,0.4,0.2,0.4,0.5
		C54.8,5.8,54.7,6.1,54.5,6.1z"/>
	<path class="st1" d="M46.4,99.5c0,0.6,0.5,1.3,1,1.6l11.7,6c0.6,0.3,1,0.1,1-0.5l1.5-98"/>
	<g>
		<g>
			<polygon class="st2" points="49.6,11.9 50.9,12.4 49.7,16 			"/>
			<polygon class="st2" points="57.7,16.8 58.9,17.2 57.8,20.8 			"/>
			<polygon class="st2" points="50.9,16.4 51.4,16.9 51.4,13.2 			"/>
			<polygon class="st2" points="59,21.2 59.5,21.7 59.4,18 			"/>
		</g>
		<g>
			<polygon class="st2" points="49,38.5 50.3,39 49.1,42.5 			"/>
			<polygon class="st2" points="57.1,43.3 58.3,43.8 57.2,47.4 			"/>
			<polygon class="st2" points="50.3,43 50.8,43.5 50.8,39.8 			"/>
			<polygon class="st2" points="58.4,47.8 58.9,48.3 58.8,44.6 			"/>
		</g>
		<g>
			<polygon class="st2" points="48.6,65.8 49.8,66.2 48.7,69.8 			"/>
			<polygon class="st2" points="56.6,70.6 57.9,71.1 56.8,74.6 			"/>
			<polygon class="st2" points="49.9,70.2 50.4,70.7 50.3,67 			"/>
			<polygon class="st2" points="58,75.1 58.4,75.6 58.4,71.9 			"/>
		</g>
		<g>
			<polygon class="st2" points="48.3,92.1 49.6,92.6 48.4,96.1 			"/>
			<polygon class="st2" points="56.4,96.9 57.7,97.4 56.5,101 			"/>
			<polygon class="st2" points="49.7,96.6 50.1,97.1 50.1,93.4 			"/>
			<polygon class="st2" points="57.7,101.4 58.2,101.9 58.2,98.2 			"/>
		</g>
	</g>
</g>
</svg>
