<?xml version="1.0" encoding="utf-8"?>
<!-- Generator: Adobe Illustrator 22.1.0, SVG Export Plug-In . SVG Version: 6.00 Build 0)  -->
<svg version="1.1" id="Layer_1" xmlns="http://www.w3.org/2000/svg" xmlns:xlink="http://www.w3.org/1999/xlink" x="0px" y="0px"
	 width="108px" height="108px" viewBox="0 0 108 108" style="enable-background:new 0 0 108 108;" xml:space="preserve">
<style type="text/css">
	.st0{fill:#E6E6E6;stroke:#000000;stroke-width:0.75;stroke-linecap:round;stroke-linejoin:round;stroke-miterlimit:10;}
	.st1{fill:#F2F2F2;stroke:#000000;stroke-width:0.75;stroke-linecap:round;stroke-linejoin:round;stroke-miterlimit:10;}
	.st2{fill:#CCCCCC;stroke:#000000;stroke-width:0.75;stroke-linecap:round;stroke-linejoin:round;stroke-miterlimit:10;}
	.st3{fill:#CCCCCC;stroke:#000000;stroke-linecap:round;stroke-linejoin:round;stroke-miterlimit:10;}
	.st4{fill:#FFFFFF;stroke:#000000;stroke-linecap:round;stroke-linejoin:round;stroke-miterlimit:10;}
	.st5{fill:#F2F2F2;stroke:#000000;stroke-linecap:round;stroke-linejoin:round;stroke-miterlimit:10;}
	.st6{fill:#E6E6E6;stroke:#000000;stroke-linecap:round;stroke-linejoin:round;stroke-miterlimit:10;}
	.st7{fill:#808080;stroke:#000000;stroke-width:0.75;stroke-linecap:round;stroke-linejoin:round;stroke-miterlimit:10;}
	.st8{fill:none;stroke:#000000;stroke-width:0.75;stroke-linecap:round;stroke-linejoin:round;stroke-miterlimit:10;}
</style>
<g>
	<polygon class="st0" points="33.5,25.5 33.5,37.1 25.5,39.5 13.5,31.5 	"/>
	<polygon class="st1" points="37.5,22.5 37.5,35.9 33.5,37.1 33.5,25.5 	"/>
	<polygon class="st0" points="59.5,16.5 59.5,32.3 51.5,34.5 45.5,33.5 37.5,35.9 37.5,22.5 	"/>
	<polygon class="st2" points="65.5,16.5 65.5,30.7 59.5,32.3 59.5,16.5 	"/>
	<polygon class="st2" points="95.5,19.5 83.5,22.8 83.5,11.5 	"/>
	<polygon class="st0" points="83.5,11.5 83.5,22.8 77.5,24.5 73.5,28.5 65.5,30.7 65.5,16.5 	"/>
	<polygon class="st3" points="25.5,39.5 25.5,110.3 13.5,110.5 13.5,31.5 	"/>
	<polygon class="st4" points="95.5,19.5 95.5,109.5 77.5,109.7 77.5,24.5 83.5,22.8 	"/>
	<polygon class="st5" points="77.5,24.5 77.5,109.7 73.5,109.8 73.5,28.5 	"/>
	<polygon class="st4" points="73.5,28.5 73.5,109.8 51.5,110 51.5,34.5 59.5,32.3 65.5,30.7 	"/>
	<polygon class="st6" points="51.5,34.5 51.5,110 45.5,110.1 45.5,33.5 	"/>
	<polygon class="st4" points="45.5,33.5 45.5,110.1 25.5,110.3 25.5,39.5 37.5,35.9 	"/>
	<ellipse transform="matrix(0.4987 -0.8668 0.8668 0.4987 -29.7408 60.5747)" class="st7" cx="37.5" cy="56" rx="5" ry="3.7"/>
	<ellipse transform="matrix(0.4987 -0.8668 0.8668 0.4987 -1.888 75.7355)" class="st7" cx="64.5" cy="39.5" rx="5" ry="3.7"/>
	<ellipse transform="matrix(0.4987 -0.8668 0.8668 0.4987 0.7077 55.6888)" class="st7" cx="48.5" cy="27.2" rx="4.6" ry="3.4"/>
	<ellipse transform="matrix(0.4987 -0.8668 0.8668 0.4987 -52.9947 74.0232)" class="st7" cx="37.5" cy="82.8" rx="5" ry="3.7"/>
	<ellipse transform="matrix(0.4987 -0.8668 0.8668 0.4987 -76.2487 87.4716)" class="st7" cx="37.5" cy="109.7" rx="5" ry="3.7"/>
	<ellipse transform="matrix(0.4987 -0.8668 0.8668 0.4987 8.4242 95.1791)" class="st7" cx="86.5" cy="40.3" rx="5" ry="3.7"/>
	<ellipse transform="matrix(0.4987 -0.8668 0.8668 0.4987 -14.8298 108.6275)" class="st7" cx="86.5" cy="67.1" rx="5" ry="3.7"/>
	<ellipse transform="matrix(0.4987 -0.8668 0.8668 0.4987 -38.0837 122.076)" class="st7" cx="86.5" cy="94" rx="5" ry="3.7"/>
	<line class="st8" x1="83.5" y1="22.9" x2="83.5" y2="22.8"/>
</g>
</svg>
