<?xml version="1.0" encoding="utf-8"?>
<!-- Generator: Adobe Illustrator 21.1.0, SVG Export Plug-In . SVG Version: 6.00 Build 0)  -->
<svg version="1.1" id="Layer_1" xmlns="http://www.w3.org/2000/svg" xmlns:xlink="http://www.w3.org/1999/xlink" x="0px" y="0px"
	 width="108px" height="108px" viewBox="0 0 108 108" style="enable-background:new 0 0 108 108;" xml:space="preserve">
<style type="text/css">
	.st0{fill:#F2F2F2;}
	.st1{fill:#CCCCCC;}
	.st2{fill:none;stroke:#000000;stroke-width:0.25;stroke-linecap:round;stroke-linejoin:round;stroke-miterlimit:10;}
	.st3{fill:#E6E6E6;stroke:#000000;stroke-width:0.5;stroke-linecap:round;stroke-linejoin:round;stroke-miterlimit:10;}
	.st4{fill:#FFFFFF;stroke:#000000;stroke-width:0.25;stroke-linecap:round;stroke-linejoin:round;stroke-miterlimit:10;}
	.st5{fill:#FFFFFF;}
	.st6{fill:none;stroke:#000000;stroke-width:0.5;stroke-linecap:round;stroke-linejoin:round;stroke-miterlimit:10;}
</style>
<g>
	<g>
		<g>
			<path class="st0" d="M57.8,29h-2.6c-0.3,0.9-0.3,2.2-0.1,3.1c0.9,0,1.8,0,2.6,0C57.5,31.2,57.6,29.9,57.8,29z"/>
			<path class="st1" d="M58.1,32.8c-0.1-0.2-0.2-0.4-0.3-0.7c-0.9,0-1.8,0-2.6,0c0.1,0.3,0.2,0.5,0.3,0.7c0.8,1.1-0.1,2.6,0.6,3
				l2.6-0.2C58.1,35.2,58.9,33.9,58.1,32.8z"/>
			<path class="st2" d="M57.8,29c-0.4,1.2-0.4,2.9,0.3,3.8c0.8,1.1-0.1,2.4,0.6,2.8l-2.6,0.2c-0.6-0.4,0.2-1.9-0.6-3
				c-0.7-0.9-0.6-2.6-0.3-3.8H57.8z"/>
		</g>
		<g>
			<path class="st0" d="M57.8,51.3h-2.6c-0.3,0.9-0.3,2.2-0.1,3.1c0.9,0,1.8,0,2.6,0C57.5,53.5,57.6,52.2,57.8,51.3z"/>
			<path class="st1" d="M58.1,55.1c-0.1-0.2-0.2-0.4-0.3-0.7c-0.9,0-1.8,0-2.6,0c0.1,0.3,0.2,0.5,0.3,0.7c0.8,1.1-0.1,2.6,0.6,3
				l2.6-0.2C58.1,57.5,58.9,56.2,58.1,55.1z"/>
			<path class="st2" d="M57.8,51.3c-0.4,1.2-0.4,2.9,0.3,3.8c0.8,1.1-0.1,2.4,0.6,2.8l-2.6,0.2c-0.6-0.4,0.2-1.9-0.6-3
				c-0.7-0.9-0.6-2.6-0.3-3.8H57.8z"/>
		</g>
		<g>
			<path class="st0" d="M57.8,73.6h-2.6c-0.3,0.9-0.3,2.2-0.1,3.1c0.9,0,1.8,0,2.6,0C57.5,75.8,57.6,74.5,57.8,73.6z"/>
			<path class="st1" d="M58.1,77.4c-0.1-0.2-0.2-0.4-0.3-0.7c-0.9,0-1.8,0-2.6,0c0.1,0.3,0.2,0.5,0.3,0.7c0.8,1.1-0.1,2.6,0.6,3
				l2.6-0.2C58.1,79.8,58.9,78.5,58.1,77.4z"/>
			<path class="st2" d="M57.8,73.6c-0.4,1.2-0.4,2.9,0.3,3.8c0.8,1.1-0.1,2.4,0.6,2.8l-2.6,0.2c-0.6-0.4,0.2-1.9-0.6-3
				c-0.7-0.9-0.6-2.6-0.3-3.8H57.8z"/>
		</g>
		<g>
			<path class="st0" d="M57.8,95.9h-2.6c-0.3,0.9-0.3,2.2-0.1,3.1c0.9,0,1.8,0,2.6,0C57.5,98.1,57.6,96.8,57.8,95.9z"/>
			<path class="st1" d="M58.1,99.7c-0.1-0.2-0.2-0.4-0.3-0.7c-0.9,0-1.8,0-2.6,0c0.1,0.3,0.2,0.5,0.3,0.7c0.8,1.1-0.1,2.6,0.6,3
				l2.6-0.2C58.1,102.1,58.9,100.7,58.1,99.7z"/>
			<path class="st2" d="M57.8,95.9c-0.4,1.2-0.4,2.9,0.3,3.8c0.8,1.1-0.1,2.4,0.6,2.8l-2.6,0.2c-0.6-0.4,0.2-1.9-0.6-3
				c-0.7-0.9-0.6-2.6-0.3-3.8H57.8z"/>
		</g>
	</g>
	<g>
		<path class="st3" d="M57.6,112.7V12.3c0-2.1-0.4-8.9-5-8.9c-1,0-1.8,0.4-2.4,1.1c-2.1,2.3-1.5,7.6-1.5,7.9l1.1-0.1
			c0-0.1-0.5-5.1,1.2-7c0.4-0.5,0.9-0.7,1.5-0.7c3.6,0,3.9,5.9,3.9,7.7v100.4l0,0"/>
	</g>
	<g>
		<g>
			<path class="st4" d="M56.1,35.8c0.4,0,0.3-0.7,0.3-0.9l0.5-3.3c0.1-0.8,0.8-1.4,1.6-1.4h0c0.6,0,1,0.5,0.9,1.1l-0.5,3.4
				c0,0,0.4,0.7-0.1,1L56.1,35.8z"/>
			<path class="st4" d="M55.2,29c0.9,0.1,2,0,3.6-0.1C58.8,28.5,55.7,28.2,55.2,29z"/>
		</g>
		<g>
			<path class="st4" d="M56.1,58.1c0.4,0,0.3-0.7,0.3-0.9l0.5-3.3c0.1-0.8,0.8-1.4,1.6-1.4h0c0.6,0,1,0.5,0.9,1.1L58.8,57
				c0,0,0.4,0.7-0.1,1L56.1,58.1z"/>
			<path class="st4" d="M55.2,51.3c0.9,0.1,2,0,3.6-0.1C58.8,50.8,55.7,50.5,55.2,51.3z"/>
		</g>
		<g>
			<path class="st4" d="M56.1,80.4c0.4,0,0.3-0.7,0.3-0.9l0.5-3.3c0.1-0.8,0.8-1.4,1.6-1.4h0c0.6,0,1,0.5,0.9,1.1l-0.5,3.4
				c0,0,0.4,0.7-0.1,1L56.1,80.4z"/>
			<path class="st4" d="M55.2,73.6c0.9,0.1,2,0,3.6-0.1C58.8,73.1,55.7,72.8,55.2,73.6z"/>
		</g>
		<g>
			<path class="st4" d="M56.1,102.7c0.4,0,0.3-0.7,0.3-0.9l0.5-3.3c0.1-0.8,0.8-1.4,1.6-1.4h0c0.6,0,1,0.5,0.9,1.1l-0.5,3.4
				c0,0,0.4,0.7-0.1,1L56.1,102.7z"/>
			<path class="st4" d="M55.2,95.9c0.9,0.1,2,0,3.6-0.1C58.8,95.4,55.7,95.1,55.2,95.9z"/>
		</g>
	</g>
	<path class="st5" d="M65,15.4l-15.9-1.3c-0.9-0.1-1.7,0.5-1.7,1.3v8.8c6.2-2.6,12.4-4.9,18.6-7.7C65.9,15.9,65.5,15.5,65,15.4z"/>
	<path class="st0" d="M47.4,24.2v0.6c0,0.8,0.8,1.4,1.7,1.3L65,24.8c0.6,0,1-0.6,1-1.2v-7c0-0.1,0-0.1,0-0.2
		C59.8,19.3,53.6,21.6,47.4,24.2z"/>
	<path class="st6" d="M65,24.8l-15.9,1.3c-0.9,0.1-1.7-0.5-1.7-1.3v-9.4c0-0.8,0.8-1.4,1.7-1.3L65,15.4c0.6,0,1,0.6,1,1.2v7
		C66,24.2,65.6,24.8,65,24.8z"/>
</g>
</svg>
