<?xml version="1.0" encoding="utf-8"?>
<!-- Generator: Adobe Illustrator 21.1.0, SVG Export Plug-In . SVG Version: 6.00 Build 0)  -->
<svg version="1.1" id="Layer_1" xmlns="http://www.w3.org/2000/svg" xmlns:xlink="http://www.w3.org/1999/xlink" x="0px" y="0px"
	 width="108px" height="108px" viewBox="0 0 108 108" style="enable-background:new 0 0 108 108;" xml:space="preserve">
<style type="text/css">
	.st0{fill:#F2F2F2;stroke:#000000;stroke-width:0.75;stroke-linecap:round;stroke-linejoin:round;stroke-miterlimit:10;}
	.st1{fill:#999999;stroke:#000000;stroke-width:0.5;stroke-linecap:round;stroke-linejoin:round;stroke-miterlimit:10;}
	.st2{fill:#808080;stroke:#000000;stroke-width:0.5;stroke-linecap:round;stroke-linejoin:round;stroke-miterlimit:10;}
	.st3{fill:#F2F2F2;stroke:#000000;stroke-width:0.5;stroke-linecap:round;stroke-linejoin:round;stroke-miterlimit:10;}
	.st4{fill:#FFFFFF;stroke:#000000;stroke-width:0.5;stroke-linecap:round;stroke-linejoin:round;stroke-miterlimit:10;}
	.st5{fill:#E6E6E6;stroke:#000000;stroke-width:0.5;stroke-linecap:round;stroke-linejoin:round;stroke-miterlimit:10;}
	.st6{fill:#B3B3B3;stroke:#000000;stroke-width:0.5;stroke-linecap:round;stroke-linejoin:round;stroke-miterlimit:10;}
	.st7{fill:#CCCCCC;stroke:#000000;stroke-width:0.5;stroke-linecap:round;stroke-linejoin:round;stroke-miterlimit:10;}
	.st8{fill:#CCCCCC;stroke:#000000;stroke-width:0.75;stroke-linecap:round;stroke-linejoin:round;stroke-miterlimit:10;}
	.st9{fill:#FFFFFF;stroke:#000000;stroke-width:0.75;stroke-linecap:round;stroke-linejoin:round;stroke-miterlimit:10;}
</style>
<g>
	<g>
		<path class="st0" d="M53.7,111.4V34.2l0,0V18.5c0-6.9-3.2-10.2-10.6-11.3c-2.6-0.4-4.6,0.1-6.1,1.3c-2.4,2-2.6,5.5-2.6,6.5v7.7
			c0,1-0.8,1.8-1.8,1.8c-1,0-1.8-0.8-1.8-1.8v-7.7c0-3.7,1.4-7.2,3.8-9.2c1.6-1.4,4.4-2.8,9-2.2C52.9,5,57,9.8,57,18.5l0,92.9"/>
	</g>
	<g>
		<path class="st1" d="M59.2,82.2v-8.6c0,0,0.7,0.6,1,2.3c0.3,1.7,0.6,4,1.2,4.7C62,81.4,59.2,82.2,59.2,82.2z"/>
		<polygon class="st2" points="55.8,97.2 59.6,96.5 60.5,83.9 55.8,84.1 		"/>
		<path class="st3" d="M57.2,94.7c0,0,1.3-1.9,1.1-3.3c-0.3-1.9,0.5-8.2,2.2-9.8c1.7-1.7,1.2-6.7,1.2-6.7l3.8-0.6
			c0,0,0.6,0.5,0.7,3.2c0.1,2.8-1.6,4-1.6,4l-1.6,10.9c0,0-1.5,0.5-1.5,2.2c0,1.7,1,2.6,1,2.6L62,97.7L58,98.3L57.2,94.7z"/>
		<line class="st4" x1="62.8" y1="76.3" x2="65.8" y2="75.8"/>
		<line class="st4" x1="62.8" y1="77.5" x2="65.7" y2="77"/>
		<line class="st4" x1="62.9" y1="78.8" x2="65.7" y2="78.4"/>
		<line class="st4" x1="62.5" y1="80.2" x2="65.7" y2="79.9"/>
		<line class="st4" x1="61.8" y1="81.6" x2="65" y2="81.3"/>
		<line class="st4" x1="58.9" y1="93.2" x2="62" y2="92.9"/>
		<path class="st5" d="M55.6,70.8c0.7-1,4.2-1.5,4.2,0.9c0,2.4-4.5,4.2-4.5,4.2S54.7,72.1,55.6,70.8z"/>
		<path class="st6" d="M55.8,75.4c0.1-1.3-0.1-4.1,2.1-4.9c2.2-0.8,1.8,1.4,1.8,2.2c0,0.9,0,14.5,0,14.5l-4-2.2L55.8,75.4z"/>
		<path class="st7" d="M54.7,97c0,0,1.1-0.8,1.1-1.7c0-0.9-1-1.4-1-2.7c0-1.3,0.3-18.4,0.3-20.2c0-1.8,0.6-1.9,0.6-1.9
			c-0.3,0.9,1.2,2.9,1.2,5.6c0,2.7,0.2,5.4,2.5,6.5c2.3,1.1,0.7,4-0.8,4.3c-1.5,0.4-1.9,0.7-1.9,3c0,2.3-0.1,2.9-0.4,3.2
			c-0.3,0.3,0.5,0.5,0.5,2C56.8,96.7,55.6,97.8,54.7,97z"/>
		<path class="st5" d="M58,98.3l0.6-0.4c0,0-0.9-0.9-0.9-2.6c0-1.7,1.6-2.2,1.6-2.2l1.9-11c0,0,1.7-1.2,1.7-4s-0.6-3.3-0.6-3.3
			L61.1,75c0,0,1,3.7-0.7,5.3c-1.8,1.6-4.3,2.3-4.3,4.3c0,3.3,2,3.3,2,3.3S58,90.7,58,91.8c0,1.2-1.2,2.2-1.2,3.5
			C56.8,96.6,58,98.3,58,98.3z"/>
		<circle class="st3" cx="58.2" cy="84.8" r="1.5"/>
	</g>
	<path class="st8" d="M76.1,36.4c0,0.8-0.7,1.6-1.6,1.6l-34.1,2.6c-1.2,0.1-3-0.8-3-1.7V19c0-1,2-1.8,3.2-1.7l33.9,0.8
		c0.9,0,1.6,0.7,1.6,1.5L76.1,36.4z"/>
	<path class="st9" d="M77,36.4c0,0.8-0.7,1.6-1.6,1.6l-34.9,2.5c-1.2,0.1-2.2-0.6-2.2-1.6V19c0-1,1-1.8,2.2-1.7l34.9,0.8
		c0.9,0,1.6,0.7,1.6,1.5L77,36.4z"/>
</g>
</svg>
