<?xml version="1.0" encoding="utf-8"?>
<!-- Generator: Adobe Illustrator 21.1.0, SVG Export Plug-In . SVG Version: 6.00 Build 0)  -->
<svg version="1.1" id="Layer_1" xmlns="http://www.w3.org/2000/svg" xmlns:xlink="http://www.w3.org/1999/xlink" x="0px" y="0px"
	 width="108px" height="108px" viewBox="0 0 108 108" style="enable-background:new 0 0 108 108;" xml:space="preserve">
<style type="text/css">
	.st0{fill:#F2F2F2;}
	.st1{fill:#CCCCCC;}
	.st2{fill:none;stroke:#000000;stroke-width:0.25;stroke-linecap:round;stroke-linejoin:round;stroke-miterlimit:10;}
	.st3{fill:#E6E6E6;stroke:#000000;stroke-width:0.5;stroke-linecap:round;stroke-linejoin:round;stroke-miterlimit:10;}
	.st4{fill:#FFFFFF;stroke:#000000;stroke-width:0.25;stroke-linecap:round;stroke-linejoin:round;stroke-miterlimit:10;}
</style>
<g>
	<g>
		<path class="st0" d="M57.8,21h-2.6c-0.3,0.9-0.3,2.2-0.1,3.1c0.9,0,1.8,0,2.6,0C57.5,23.2,57.6,21.9,57.8,21z"/>
		<path class="st1" d="M58.1,24.8c-0.1-0.2-0.2-0.4-0.3-0.7c-0.9,0-1.8,0-2.6,0c0.1,0.3,0.2,0.5,0.3,0.7c0.8,1.1-0.1,2.6,0.6,3
			l2.6-0.2C58.1,27.2,58.9,25.9,58.1,24.8z"/>
		<path class="st2" d="M57.8,21c-0.4,1.2-0.4,2.9,0.3,3.8c0.8,1.1-0.1,2.4,0.6,2.8l-2.6,0.2c-0.6-0.4,0.2-1.9-0.6-3
			c-0.7-0.9-0.6-2.6-0.3-3.8H57.8z"/>
	</g>
	<g>
		<path class="st0" d="M57.8,43.3h-2.6c-0.3,0.9-0.3,2.2-0.1,3.1c0.9,0,1.8,0,2.6,0C57.5,45.5,57.6,44.2,57.8,43.3z"/>
		<path class="st1" d="M58.1,47.1c-0.1-0.2-0.2-0.4-0.3-0.7c-0.9,0-1.8,0-2.6,0c0.1,0.3,0.2,0.5,0.3,0.7c0.8,1.1-0.1,2.6,0.6,3
			l2.6-0.2C58.1,49.5,58.9,48.2,58.1,47.1z"/>
		<path class="st2" d="M57.8,43.3c-0.4,1.2-0.4,2.9,0.3,3.8c0.8,1.1-0.1,2.4,0.6,2.8l-2.6,0.2c-0.6-0.4,0.2-1.9-0.6-3
			c-0.7-0.9-0.6-2.6-0.3-3.8H57.8z"/>
	</g>
	<g>
		<path class="st0" d="M57.8,65.6h-2.6c-0.3,0.9-0.3,2.2-0.1,3.1c0.9,0,1.8,0,2.6,0C57.5,67.8,57.6,66.5,57.8,65.6z"/>
		<path class="st1" d="M58.1,69.4c-0.1-0.2-0.2-0.4-0.3-0.7c-0.9,0-1.8,0-2.6,0c0.1,0.3,0.2,0.5,0.3,0.7c0.8,1.1-0.1,2.6,0.6,3
			l2.6-0.2C58.1,71.8,58.9,70.4,58.1,69.4z"/>
		<path class="st2" d="M57.8,65.6c-0.4,1.2-0.4,2.9,0.3,3.8c0.8,1.1-0.1,2.4,0.6,2.8l-2.6,0.2c-0.6-0.4,0.2-1.9-0.6-3
			c-0.7-0.9-0.6-2.6-0.3-3.8H57.8z"/>
	</g>
	<g>
		<path class="st0" d="M57.8,87.9h-2.6c-0.3,0.9-0.3,2.2-0.1,3.1c0.9,0,1.8,0,2.6,0C57.5,90,57.6,88.8,57.8,87.9z"/>
		<path class="st1" d="M58.1,91.7c-0.1-0.2-0.2-0.4-0.3-0.7c-0.9,0-1.8,0-2.6,0c0.1,0.3,0.2,0.5,0.3,0.7c0.8,1.1-0.1,2.6,0.6,3
			l2.6-0.2C58.1,94.1,58.9,92.7,58.1,91.7z"/>
		<path class="st2" d="M57.8,87.9c-0.4,1.2-0.4,2.9,0.3,3.8c0.8,1.1-0.1,2.4,0.6,2.8l-2.6,0.2c-0.6-0.4,0.2-1.9-0.6-3
			c-0.7-0.9-0.6-2.6-0.3-3.8H57.8z"/>
	</g>
	<g>
		<path class="st3" d="M57.6,112.7V12.3c0-2.1-0.4-8.9-5-8.9c-1,0-1.8,0.4-2.4,1.1c-2.1,2.3-1.5,7.6-1.5,7.9l1.1-0.1
			c0-0.1-0.5-5.1,1.2-7c0.4-0.5,0.9-0.7,1.5-0.7c3.6,0,3.9,5.9,3.9,7.7v100.4l0,0"/>
	</g>
	<g>
		<path class="st4" d="M56.1,27.8c0.4,0,0.3-0.7,0.3-0.9l0.5-3.3c0.1-0.8,0.8-1.4,1.6-1.4h0c0.6,0,1,0.5,0.9,1.1l-0.5,3.4
			c0,0,0.4,0.7-0.1,1L56.1,27.8z"/>
		<path class="st4" d="M55.2,21c0.9,0.1,2,0,3.6-0.1C58.8,20.5,55.7,20.2,55.2,21z"/>
	</g>
	<g>
		<path class="st4" d="M56.1,50.1c0.4,0,0.3-0.7,0.3-0.9l0.5-3.3c0.1-0.8,0.8-1.4,1.6-1.4h0c0.6,0,1,0.5,0.9,1.1L58.8,49
			c0,0,0.4,0.7-0.1,1L56.1,50.1z"/>
		<path class="st4" d="M55.2,43.3c0.9,0.1,2,0,3.6-0.1C58.8,42.8,55.7,42.5,55.2,43.3z"/>
	</g>
	<g>
		<path class="st4" d="M56.1,72.4c0.4,0,0.3-0.7,0.3-0.9l0.5-3.3c0.1-0.8,0.8-1.4,1.6-1.4h0c0.6,0,1,0.5,0.9,1.1l-0.5,3.4
			c0,0,0.4,0.7-0.1,1L56.1,72.4z"/>
		<path class="st4" d="M55.2,65.6c0.9,0.1,2,0,3.6-0.1C58.8,65.1,55.7,64.8,55.2,65.6z"/>
	</g>
	<g>
		<path class="st4" d="M56.1,94.7c0.4,0,0.3-0.7,0.3-0.9l0.5-3.3c0.1-0.8,0.8-1.4,1.6-1.4h0c0.6,0,1,0.5,0.9,1.1l-0.5,3.4
			c0,0,0.4,0.7-0.1,1L56.1,94.7z"/>
		<path class="st4" d="M55.2,87.9c0.9,0.1,2,0,3.6-0.1C58.8,87.3,55.7,87.1,55.2,87.9z"/>
	</g>
</g>
</svg>
