<?xml version="1.0" encoding="utf-8"?>
<!-- Generator: Adobe Illustrator 21.1.0, SVG Export Plug-In . SVG Version: 6.00 Build 0)  -->
<svg version="1.1" id="Layer_1" xmlns="http://www.w3.org/2000/svg" xmlns:xlink="http://www.w3.org/1999/xlink" x="0px" y="0px"
	 width="108px" height="108px" viewBox="0 0 108 108" style="enable-background:new 0 0 108 108;" xml:space="preserve">
<style type="text/css">
	.st0{fill:none;stroke:#000000;stroke-width:1.5;stroke-linecap:round;stroke-linejoin:round;stroke-miterlimit:10;}
	.st1{fill:none;stroke:#000000;stroke-width:2;stroke-linecap:round;stroke-linejoin:round;stroke-miterlimit:10;}
	.st2{fill:none;stroke:#000000;stroke-linecap:round;stroke-linejoin:round;stroke-miterlimit:10;}
	.st3{fill:none;stroke:#000000;stroke-width:1.2;stroke-linecap:round;stroke-linejoin:round;stroke-miterlimit:10;}
</style>
<g>
	<path class="st0" d="M44.1,90.1V9.9c0,0,0-3.3,1.4-3.3s1.4,2.2,1.4,2.2"/>
	<path class="st1" d="M62.6,101.4V11.2c0,0,0-3.7,1.6-3.7s1.6,2.5,1.6,2.5"/>
	<g>
		<path d="M44.7,12.3l17.9,1.5c0.3,0,0.5,0.3,0.5,0.5s-0.3,0.5-0.5,0.5l0,0l-17.8-1.9c-0.2,0-0.3-0.2-0.3-0.3
			C44.4,12.4,44.5,12.3,44.7,12.3z"/>
	</g>
	<g>
		<path d="M44.9,88.2L63,98.1c0.2,0.1,0.3,0.4,0.2,0.7c-0.1,0.2-0.4,0.3-0.7,0.2l0,0L44.6,88.7c-0.1-0.1-0.2-0.3-0.1-0.4
			C44.6,88.2,44.8,88.2,44.9,88.2z"/>
	</g>
	<g>
		<line class="st2" x1="44.1" y1="12.1" x2="42.1" y2="9.1"/>
		<line class="st2" x1="44.1" y1="18.4" x2="42.1" y2="15.4"/>
		<line class="st2" x1="44.1" y1="24.6" x2="42.1" y2="21.6"/>
		<line class="st2" x1="44.1" y1="30.9" x2="42.1" y2="27.9"/>
		<line class="st2" x1="44.1" y1="37.1" x2="42.1" y2="34.1"/>
		<line class="st2" x1="44.1" y1="43.4" x2="42.1" y2="40.4"/>
		<line class="st2" x1="44.1" y1="49.6" x2="42.1" y2="46.6"/>
		<line class="st2" x1="44.1" y1="55.9" x2="42.1" y2="52.9"/>
		<line class="st2" x1="44.1" y1="62.1" x2="42.1" y2="59.1"/>
		<line class="st2" x1="44.1" y1="68.4" x2="42.1" y2="65.4"/>
		<line class="st2" x1="44.1" y1="74.6" x2="42.1" y2="71.6"/>
		<line class="st2" x1="44.1" y1="80.9" x2="42.1" y2="77.9"/>
		<line class="st2" x1="44.1" y1="87.1" x2="42.1" y2="84.1"/>
	</g>
	<g>
		<line class="st3" x1="62.8" y1="12.8" x2="60.5" y2="9.4"/>
		<line class="st3" x1="62.8" y1="19.8" x2="60.5" y2="16.4"/>
		<line class="st3" x1="62.8" y1="26.9" x2="60.5" y2="23.5"/>
		<line class="st3" x1="62.8" y1="33.9" x2="60.5" y2="30.5"/>
		<line class="st3" x1="62.8" y1="41" x2="60.5" y2="37.6"/>
		<line class="st3" x1="62.8" y1="48" x2="60.5" y2="44.6"/>
		<line class="st3" x1="62.8" y1="55.1" x2="60.5" y2="51.7"/>
		<line class="st3" x1="62.8" y1="62.1" x2="60.5" y2="58.7"/>
		<line class="st3" x1="62.8" y1="69.2" x2="60.5" y2="65.8"/>
		<line class="st3" x1="62.8" y1="76.2" x2="60.5" y2="72.8"/>
		<line class="st3" x1="62.8" y1="83.3" x2="60.5" y2="79.9"/>
		<line class="st3" x1="62.8" y1="90.3" x2="60.5" y2="86.9"/>
		<line class="st3" x1="62.8" y1="97.3" x2="60.5" y2="94"/>
	</g>
</g>
</svg>
