<?xml version="1.0" encoding="utf-8"?>
<!-- Generator: Adobe Illustrator 21.1.0, SVG Export Plug-In . SVG Version: 6.00 Build 0)  -->
<svg version="1.1" id="Layer_1" xmlns="http://www.w3.org/2000/svg" xmlns:xlink="http://www.w3.org/1999/xlink" x="0px" y="0px"
	 width="108px" height="108px" viewBox="0 0 108 108" style="enable-background:new 0 0 108 108;" xml:space="preserve">
<style type="text/css">
	.st0{fill:none;stroke:#000000;stroke-linecap:round;stroke-linejoin:round;stroke-miterlimit:10;}
	.st1{fill:none;stroke:#000000;stroke-width:1.2;stroke-linecap:round;stroke-linejoin:round;stroke-miterlimit:10;}
	.st2{fill:none;stroke:#000000;stroke-width:0.75;stroke-linecap:round;stroke-linejoin:round;stroke-miterlimit:10;}
	.st3{fill:none;stroke:#000000;stroke-width:0.9;stroke-linecap:round;stroke-linejoin:round;stroke-miterlimit:10;}
	.st4{fill:none;stroke:#000000;stroke-width:1.5;stroke-linecap:round;stroke-linejoin:round;stroke-miterlimit:10;}
</style>
<g>
	<path class="st0" d="M40.4,88.9V6.4c0,0,0-2.2,0.9-2.2s0.9,1.4,0.9,1.4"/>
	<path class="st1" d="M52.6,96.3V7.2c0,0,0-2.4,1.1-2.4s1.1,1.6,1.1,1.6"/>
	<g>
		<path d="M40.8,7.8L66.4,10c0.3,0,0.6,0.3,0.5,0.6s-0.3,0.6-0.6,0.5c0,0,0,0,0,0L40.7,8.5c-0.2,0-0.3-0.2-0.3-0.4
			C40.5,7.9,40.6,7.8,40.8,7.8z"/>
	</g>
	<g>
		<path d="M41,87.5l25.6,14.1c0.3,0.2,0.4,0.5,0.2,0.8s-0.5,0.4-0.8,0.2c0,0,0,0,0,0L40.7,88.1c-0.2-0.1-0.2-0.3-0.1-0.5
			C40.7,87.5,40.9,87.4,41,87.5z"/>
	</g>
	<g>
		<line class="st2" x1="40.4" y1="7.8" x2="39.1" y2="5.9"/>
		<line class="st2" x1="40.4" y1="12.5" x2="39.1" y2="10.5"/>
		<line class="st2" x1="40.4" y1="17.2" x2="39.1" y2="15.2"/>
		<line class="st2" x1="40.4" y1="21.8" x2="39.1" y2="19.8"/>
		<line class="st2" x1="40.4" y1="26.5" x2="39.1" y2="24.5"/>
		<line class="st2" x1="40.4" y1="31.1" x2="39.1" y2="29.1"/>
		<line class="st2" x1="40.4" y1="35.8" x2="39.1" y2="33.8"/>
		<line class="st2" x1="40.4" y1="40.4" x2="39.1" y2="38.4"/>
		<line class="st2" x1="40.4" y1="45.1" x2="39.1" y2="43.1"/>
		<line class="st2" x1="40.4" y1="49.7" x2="39.1" y2="47.8"/>
		<line class="st2" x1="40.4" y1="54.4" x2="39.1" y2="52.4"/>
		<line class="st2" x1="40.4" y1="59" x2="39.1" y2="57.1"/>
		<line class="st2" x1="40.4" y1="63.7" x2="39.1" y2="61.7"/>
		<line class="st2" x1="40.4" y1="68.3" x2="39.1" y2="66.4"/>
		<line class="st2" x1="40.4" y1="73" x2="39.1" y2="71"/>
		<line class="st2" x1="40.4" y1="77.6" x2="39.1" y2="75.7"/>
		<line class="st2" x1="40.4" y1="82.3" x2="39.1" y2="80.3"/>
		<line class="st2" x1="40.4" y1="86.9" x2="39.1" y2="85"/>
	</g>
	<g>
		<line class="st3" x1="52.7" y1="8.3" x2="51.2" y2="6.1"/>
		<line class="st3" x1="52.7" y1="13.3" x2="51.2" y2="11.1"/>
		<line class="st3" x1="52.7" y1="18.3" x2="51.2" y2="16.1"/>
		<line class="st3" x1="52.7" y1="23.3" x2="51.2" y2="21.1"/>
		<line class="st3" x1="52.7" y1="28.4" x2="51.2" y2="26.1"/>
		<line class="st3" x1="52.7" y1="33.4" x2="51.2" y2="31.2"/>
		<line class="st3" x1="52.7" y1="38.4" x2="51.2" y2="36.2"/>
		<line class="st3" x1="52.7" y1="43.4" x2="51.2" y2="41.2"/>
		<line class="st3" x1="52.7" y1="48.5" x2="51.2" y2="46.2"/>
		<line class="st3" x1="52.7" y1="53.5" x2="51.2" y2="51.3"/>
		<line class="st3" x1="52.7" y1="58.5" x2="51.2" y2="56.3"/>
		<line class="st3" x1="52.7" y1="63.5" x2="51.2" y2="61.3"/>
		<line class="st3" x1="52.7" y1="68.5" x2="51.2" y2="66.3"/>
		<line class="st3" x1="52.7" y1="73.6" x2="51.2" y2="71.3"/>
		<line class="st3" x1="52.7" y1="78.6" x2="51.2" y2="76.4"/>
		<line class="st3" x1="52.7" y1="83.6" x2="51.2" y2="81.4"/>
		<line class="st3" x1="52.7" y1="88.6" x2="51.2" y2="86.4"/>
		<line class="st3" x1="52.7" y1="93.7" x2="51.2" y2="91.4"/>
	</g>
	<path class="st4" d="M66.3,103.8V8.2c0,0,0-2.7,1.3-2.7c1.3,0,1.3,1.8,1.3,1.8"/>
	<g>
		<line class="st0" x1="66.4" y1="9.4" x2="64.6" y2="6.9"/>
		<line class="st0" x1="66.4" y1="14.8" x2="64.6" y2="12.3"/>
		<line class="st0" x1="66.4" y1="20.2" x2="64.6" y2="17.7"/>
		<line class="st0" x1="66.4" y1="25.5" x2="64.6" y2="23.1"/>
		<line class="st0" x1="66.4" y1="30.9" x2="64.6" y2="28.5"/>
		<line class="st0" x1="66.4" y1="36.3" x2="64.6" y2="33.8"/>
		<line class="st0" x1="66.4" y1="41.7" x2="64.6" y2="39.2"/>
		<line class="st0" x1="66.4" y1="47.1" x2="64.6" y2="44.6"/>
		<line class="st0" x1="66.4" y1="52.4" x2="64.6" y2="50"/>
		<line class="st0" x1="66.4" y1="57.8" x2="64.6" y2="55.3"/>
		<line class="st0" x1="66.4" y1="63.2" x2="64.6" y2="60.7"/>
		<line class="st0" x1="66.4" y1="68.6" x2="64.6" y2="66.1"/>
		<line class="st0" x1="66.4" y1="73.9" x2="64.6" y2="71.5"/>
		<line class="st0" x1="66.4" y1="79.3" x2="64.6" y2="76.9"/>
		<line class="st0" x1="66.4" y1="84.7" x2="64.6" y2="82.2"/>
		<line class="st0" x1="66.4" y1="90.1" x2="64.6" y2="87.6"/>
		<line class="st0" x1="66.4" y1="95.5" x2="64.6" y2="93"/>
		<line class="st0" x1="66.4" y1="100.8" x2="64.6" y2="98.4"/>
	</g>
</g>
</svg>
