<?xml version="1.0" encoding="utf-8"?>
<!-- Generator: Adobe Illustrator 21.1.0, SVG Export Plug-In . SVG Version: 6.00 Build 0)  -->
<svg version="1.1" id="Layer_1" xmlns="http://www.w3.org/2000/svg" xmlns:xlink="http://www.w3.org/1999/xlink" x="0px" y="0px"
	 width="108px" height="108px" viewBox="0 0 108 108" style="enable-background:new 0 0 108 108;" xml:space="preserve">
<style type="text/css">
	.st0{fill:none;stroke:#000000;stroke-linecap:round;stroke-linejoin:round;stroke-miterlimit:10;}
	.st1{fill:none;stroke:#000000;stroke-width:0.75;stroke-linecap:round;stroke-linejoin:round;stroke-miterlimit:10;}
	.st2{fill:#333333;}
	.st3{fill:none;stroke:#000000;stroke-width:2;stroke-linecap:round;stroke-linejoin:round;stroke-miterlimit:10;}
</style>
<g>
	<g>
		<path class="st0" d="M63.1,86.9H44.9l0,0c-1.4-25.3-1.4-50.6,0-75.9l0,0h18.3l0,0C64.6,36.2,64.6,61.6,63.1,86.9L63.1,86.9z"/>
		<g>
			<line class="st1" x1="42.9" y1="14.7" x2="44.7" y2="16.5"/>
			<line class="st1" x1="42.6" y1="21.4" x2="44.3" y2="23.1"/>
			<line class="st1" x1="42.5" y1="28.1" x2="44.2" y2="29.8"/>
			<line class="st1" x1="42.3" y1="34.8" x2="44" y2="36.5"/>
			<line class="st1" x1="42.2" y1="41.5" x2="43.9" y2="43.2"/>
			<line class="st1" x1="42.1" y1="48.2" x2="43.9" y2="49.9"/>
			<line class="st1" x1="42.2" y1="54.9" x2="43.9" y2="56.6"/>
			<line class="st1" x1="42.3" y1="61.6" x2="44" y2="63.3"/>
			<line class="st1" x1="42.5" y1="68.2" x2="44.2" y2="70"/>
			<line class="st1" x1="42.6" y1="74.9" x2="44.3" y2="76.7"/>
			<line class="st1" x1="42.9" y1="81.6" x2="44.7" y2="83.4"/>
		</g>
		<g>
			<line class="st1" x1="65.1" y1="14.7" x2="63.3" y2="16.5"/>
			<line class="st1" x1="65.4" y1="21.4" x2="63.7" y2="23.1"/>
			<line class="st1" x1="65.5" y1="28.1" x2="63.8" y2="29.8"/>
			<line class="st1" x1="65.7" y1="34.8" x2="64" y2="36.5"/>
			<line class="st1" x1="65.8" y1="41.5" x2="64.1" y2="43.2"/>
			<line class="st1" x1="65.9" y1="48.2" x2="64.1" y2="49.9"/>
			<line class="st1" x1="65.8" y1="54.9" x2="64.1" y2="56.6"/>
			<line class="st1" x1="65.7" y1="61.6" x2="64" y2="63.3"/>
			<line class="st1" x1="65.5" y1="68.2" x2="63.8" y2="70"/>
			<line class="st1" x1="65.4" y1="74.9" x2="63.7" y2="76.7"/>
			<line class="st1" x1="65.1" y1="81.6" x2="63.3" y2="83.4"/>
		</g>
	</g>
	<g>
		<path class="st0" d="M59,85.1L49,88.6v0C48,63.3,48,38,49,12.7v0L59,9.2v0C60,34.5,60,59.8,59,85.1L59,85.1z"/>
		<g>
			<line class="st1" x1="46.8" y1="16.5" x2="48.8" y2="18.2"/>
			<line class="st1" x1="46.6" y1="23.1" x2="48.6" y2="24.9"/>
			<line class="st1" x1="46.6" y1="29.8" x2="48.6" y2="31.6"/>
			<line class="st1" x1="46.4" y1="36.5" x2="48.4" y2="38.3"/>
			<line class="st1" x1="46.4" y1="43.2" x2="48.4" y2="45"/>
			<line class="st1" x1="46.3" y1="49.9" x2="48.3" y2="51.7"/>
			<line class="st1" x1="46.4" y1="56.6" x2="48.4" y2="58.3"/>
			<line class="st1" x1="46.4" y1="63.3" x2="48.4" y2="65"/>
			<line class="st1" x1="46.6" y1="70" x2="48.6" y2="71.7"/>
			<line class="st1" x1="46.6" y1="76.7" x2="48.6" y2="78.4"/>
			<line class="st1" x1="46.8" y1="83.4" x2="48.8" y2="85.1"/>
		</g>
		<g>
			<line class="st1" x1="60.3" y1="13" x2="59.2" y2="14.7"/>
			<line class="st1" x1="60.5" y1="19.7" x2="59.4" y2="21.4"/>
			<line class="st1" x1="60.6" y1="26.3" x2="59.4" y2="28.1"/>
			<line class="st1" x1="60.7" y1="33.1" x2="59.6" y2="34.8"/>
			<line class="st1" x1="60.8" y1="39.7" x2="59.6" y2="41.5"/>
			<line class="st1" x1="60.8" y1="46.4" x2="59.7" y2="48.2"/>
			<line class="st1" x1="60.8" y1="53.1" x2="59.6" y2="54.9"/>
			<line class="st1" x1="60.7" y1="59.8" x2="59.6" y2="61.6"/>
			<line class="st1" x1="60.6" y1="66.5" x2="59.4" y2="68.2"/>
			<line class="st1" x1="60.5" y1="73.2" x2="59.4" y2="74.9"/>
			<line class="st1" x1="60.3" y1="79.9" x2="59.2" y2="81.6"/>
		</g>
	</g>
	<ellipse class="st2" cx="54" cy="98.4" rx="13.2" ry="6.1"/>
	<line class="st3" x1="54" y1="10.9" x2="54" y2="96.2"/>
	<g>
		<path d="M59.7,97c0,0-2,1.8-5.7,1.8c-3.8,0-5.7-1.8-5.7-1.8c1.8-1.1,4.7-3.3,4.9-4.8c0,0,0.5,0.4,0.9,0.4c0.4,0,0.9-0.4,0.9-0.4
			C55.2,93.7,58,96,59.7,97z"/>
	</g>
	<ellipse class="st1" cx="54" cy="6.8" rx="2.3" ry="3.4"/>
</g>
</svg>
