<?xml version="1.0" encoding="utf-8"?>
<!-- Generator: Adobe Illustrator 21.1.0, SVG Export Plug-In . SVG Version: 6.00 Build 0)  -->
<svg version="1.1" id="Layer_1" xmlns="http://www.w3.org/2000/svg" xmlns:xlink="http://www.w3.org/1999/xlink" x="0px" y="0px"
	 width="108px" height="108px" viewBox="0 0 108 108" style="enable-background:new 0 0 108 108;" xml:space="preserve">
<style type="text/css">
	.st0{fill:#333333;}
	.st1{fill:none;stroke:#000000;stroke-linecap:round;stroke-linejoin:round;stroke-miterlimit:10;}
	.st2{fill:none;stroke:#000000;stroke-width:0.5;stroke-linecap:round;stroke-linejoin:round;stroke-miterlimit:10;}
	.st3{fill:none;stroke:#000000;stroke-width:2;stroke-linecap:round;stroke-linejoin:round;stroke-miterlimit:10;}
	.st4{fill:none;stroke:#000000;stroke-width:0.75;stroke-miterlimit:10;}
</style>
<g>
	<ellipse class="st0" cx="54" cy="97.9" rx="13.3" ry="6.2"/>
	<g>
		<g>
			<g>
				<path class="st1" d="M63.7,76l-8.4,8c-0.6,0.6-2,0.6-2.6,0l-8.4-8.9c-0.3-0.3-0.5-0.6-0.5-0.9V11.1c0-0.9,0.9-1.5,2.1-1.5
					l16,0.9c1.2,0,2.1,0.7,2.1,1.5v63.1C64.2,75.5,64,75.8,63.7,76z"/>
			</g>
			<g>
				<g>
					<line class="st2" x1="42.3" y1="40.4" x2="43.5" y2="41.4"/>
					<line class="st2" x1="42.3" y1="36.8" x2="43.5" y2="37.8"/>
					<line class="st2" x1="42.3" y1="33.2" x2="43.5" y2="34.2"/>
					<line class="st2" x1="42.3" y1="29.7" x2="43.5" y2="30.7"/>
					<line class="st2" x1="42.3" y1="26.1" x2="43.5" y2="27.1"/>
					<line class="st2" x1="42.3" y1="22.5" x2="43.5" y2="23.5"/>
					<line class="st2" x1="42.3" y1="19" x2="43.5" y2="20"/>
					<line class="st2" x1="42.3" y1="15.4" x2="43.5" y2="16.4"/>
					<line class="st2" x1="42.3" y1="11.8" x2="43.5" y2="12.8"/>
				</g>
				<g>
					<line class="st2" x1="42.3" y1="72.2" x2="43.5" y2="73.2"/>
					<line class="st2" x1="42.3" y1="68.7" x2="43.5" y2="69.6"/>
					<line class="st2" x1="42.3" y1="65.1" x2="43.5" y2="66.1"/>
					<line class="st2" x1="42.3" y1="61.5" x2="43.5" y2="62.5"/>
					<line class="st2" x1="42.3" y1="58" x2="43.5" y2="58.9"/>
					<line class="st2" x1="42.3" y1="54.4" x2="43.5" y2="55.4"/>
					<line class="st2" x1="42.3" y1="50.8" x2="43.5" y2="51.8"/>
					<line class="st2" x1="42.3" y1="47.3" x2="43.5" y2="48.3"/>
					<line class="st2" x1="42.3" y1="43.7" x2="43.5" y2="44.7"/>
				</g>
			</g>
			<g>
				<g>
					<line class="st2" x1="64.5" y1="13.7" x2="65.8" y2="12.7"/>
					<line class="st2" x1="64.5" y1="17.3" x2="65.8" y2="16.3"/>
					<line class="st2" x1="64.5" y1="20.8" x2="65.8" y2="19.8"/>
					<line class="st2" x1="64.5" y1="24.4" x2="65.8" y2="23.4"/>
					<line class="st2" x1="64.5" y1="27.9" x2="65.8" y2="27"/>
					<line class="st2" x1="64.5" y1="31.5" x2="65.8" y2="30.5"/>
					<line class="st2" x1="64.5" y1="35.1" x2="65.8" y2="34.1"/>
					<line class="st2" x1="64.5" y1="38.6" x2="65.8" y2="37.7"/>
					<line class="st2" x1="64.5" y1="42.2" x2="65.8" y2="41.2"/>
				</g>
				<g>
					<line class="st2" x1="64.5" y1="45.5" x2="65.8" y2="44.6"/>
					<line class="st2" x1="64.5" y1="49.1" x2="65.8" y2="48.1"/>
					<line class="st2" x1="64.5" y1="52.7" x2="65.8" y2="51.7"/>
					<line class="st2" x1="64.5" y1="56.2" x2="65.8" y2="55.3"/>
					<line class="st2" x1="64.5" y1="59.8" x2="65.8" y2="58.8"/>
					<line class="st2" x1="64.5" y1="63.4" x2="65.8" y2="62.4"/>
					<line class="st2" x1="64.5" y1="66.9" x2="65.8" y2="66"/>
					<line class="st2" x1="64.5" y1="70.5" x2="65.8" y2="69.5"/>
					<line class="st2" x1="64.5" y1="74.1" x2="65.8" y2="73.1"/>
				</g>
			</g>
		</g>
		<g>
			<g>
				<path class="st1" d="M48.5,76.9l4.9,7.1c0.3,0.6,1.1,0.6,1.5,0l4.9-8.9c0.2-0.3,0.3-0.6,0.3-0.9V11.1c0-0.9-0.6-1.5-1.2-1.5
					l-9.1,1.7c-0.6,0-1.2,0.7-1.2,1.5l-0.3,63C48.2,76.4,48.3,76.6,48.5,76.9z"/>
			</g>
			<g>
				<g>
					<line class="st2" x1="61.1" y1="40.4" x2="60.4" y2="41.4"/>
					<line class="st2" x1="61.1" y1="36.8" x2="60.4" y2="37.8"/>
					<line class="st2" x1="61.1" y1="33.2" x2="60.4" y2="34.2"/>
					<line class="st2" x1="61.1" y1="29.7" x2="60.4" y2="30.7"/>
					<line class="st2" x1="61.1" y1="26.1" x2="60.4" y2="27.1"/>
					<line class="st2" x1="61.1" y1="22.5" x2="60.4" y2="23.5"/>
					<line class="st2" x1="61.1" y1="19" x2="60.4" y2="20"/>
					<line class="st2" x1="61.1" y1="15.4" x2="60.4" y2="16.4"/>
					<line class="st2" x1="61.1" y1="11.8" x2="60.4" y2="12.8"/>
				</g>
				<g>
					<line class="st2" x1="61.1" y1="72.2" x2="60.4" y2="73.2"/>
					<line class="st2" x1="61.1" y1="68.7" x2="60.4" y2="69.6"/>
					<line class="st2" x1="61.1" y1="65.1" x2="60.4" y2="66.1"/>
					<line class="st2" x1="61.1" y1="61.5" x2="60.4" y2="62.5"/>
					<line class="st2" x1="61.1" y1="58" x2="60.4" y2="58.9"/>
					<line class="st2" x1="61.1" y1="54.4" x2="60.4" y2="55.4"/>
					<line class="st2" x1="61.1" y1="50.8" x2="60.4" y2="51.8"/>
					<line class="st2" x1="61.1" y1="47.3" x2="60.4" y2="48.3"/>
					<line class="st2" x1="61.1" y1="43.7" x2="60.4" y2="44.7"/>
				</g>
			</g>
			<g>
				<g>
					<line class="st2" x1="48" y1="14.5" x2="47.2" y2="13.6"/>
					<line class="st2" x1="48" y1="18.1" x2="47.2" y2="17.1"/>
					<line class="st2" x1="48" y1="21.7" x2="47.2" y2="20.7"/>
					<line class="st2" x1="48" y1="25.2" x2="47.2" y2="24.3"/>
					<line class="st2" x1="48" y1="28.8" x2="47.2" y2="27.8"/>
					<line class="st2" x1="48" y1="32.4" x2="47.2" y2="31.4"/>
					<line class="st2" x1="48" y1="35.9" x2="47.2" y2="35"/>
					<line class="st2" x1="48" y1="39.5" x2="47.2" y2="38.5"/>
					<line class="st2" x1="48" y1="43.1" x2="47.2" y2="42.1"/>
				</g>
				<g>
					<line class="st2" x1="48" y1="46.4" x2="47.2" y2="45.4"/>
					<line class="st2" x1="48" y1="50" x2="47.2" y2="49"/>
					<line class="st2" x1="48" y1="53.5" x2="47.2" y2="52.6"/>
					<line class="st2" x1="48" y1="57.1" x2="47.2" y2="56.1"/>
					<line class="st2" x1="48" y1="60.7" x2="47.2" y2="59.7"/>
					<line class="st2" x1="48" y1="64.2" x2="47.2" y2="63.3"/>
					<line class="st2" x1="48" y1="67.8" x2="47.2" y2="66.8"/>
					<line class="st2" x1="48" y1="71.4" x2="47.2" y2="70.4"/>
					<line class="st2" x1="48" y1="74.9" x2="47.2" y2="74"/>
				</g>
			</g>
		</g>
	</g>
	<line class="st3" x1="54" y1="10.5" x2="54" y2="95.7"/>
	<g>
		<path d="M59.8,96.5c0,0-2,1.8-5.8,1.8s-5.8-1.8-5.8-1.8c1.8-1.1,4.7-3.3,4.9-4.8c0,0,0.5,0.4,0.9,0.4s0.9-0.4,0.9-0.4
			C55.2,93.2,58,95.5,59.8,96.5z"/>
	</g>
	<ellipse class="st4" cx="54.1" cy="6.7" rx="2.4" ry="2.9"/>
	<ellipse class="st2" cx="54" cy="43.1" rx="9.6" ry="1.7"/>
	<ellipse class="st2" cx="54" cy="74.4" rx="9.6" ry="1.7"/>
</g>
</svg>
