<?xml version="1.0" encoding="utf-8"?>
<!-- Generator: Adobe Illustrator 21.1.0, SVG Export Plug-In . SVG Version: 6.00 Build 0)  -->
<svg version="1.1" id="Layer_1" xmlns="http://www.w3.org/2000/svg" xmlns:xlink="http://www.w3.org/1999/xlink" x="0px" y="0px"
	 width="108px" height="108px" viewBox="0 0 108 108" style="enable-background:new 0 0 108 108;" xml:space="preserve">
<style type="text/css">
	.st0{fill:none;stroke:#000000;stroke-linecap:round;stroke-linejoin:round;stroke-miterlimit:10;}
	.st1{fill:none;stroke:#000000;stroke-width:1.2;stroke-linecap:round;stroke-linejoin:round;stroke-miterlimit:10;}
	.st2{fill:none;stroke:#000000;stroke-width:0.75;stroke-linecap:round;stroke-linejoin:round;stroke-miterlimit:10;}
	.st3{fill:none;stroke:#000000;stroke-width:0.9;stroke-linecap:round;stroke-linejoin:round;stroke-miterlimit:10;}
	.st4{fill:none;stroke:#000000;stroke-width:1.5;stroke-linecap:round;stroke-linejoin:round;stroke-miterlimit:10;}
</style>
<g>
	<path class="st0" d="M37.2,73.2v-70"/>
	<path class="st1" d="M52.3,82.4V4.2"/>
	<g>
		<path d="M37.4,2.8l32.1,2c0.3,0,0.5,0.3,0.4,0.5c0,0.3-0.3,0.5-0.5,0.4l0,0l-32-2.4c-0.2,0-0.3-0.2-0.3-0.4
			C37,2.9,37.2,2.8,37.4,2.8z"/>
	</g>
	<g>
		<line class="st2" x1="37.2" y1="9.6" x2="35.6" y2="7.1"/>
		<line class="st2" x1="38.9" y1="12.2" x2="37.2" y2="14.7"/>
		<line class="st2" x1="37.2" y1="19.7" x2="35.6" y2="17.3"/>
		<line class="st2" x1="38.9" y1="22.4" x2="37.2" y2="24.9"/>
		<line class="st2" x1="37.2" y1="30" x2="35.6" y2="27.6"/>
		<line class="st2" x1="38.9" y1="32.6" x2="37.2" y2="35"/>
		<line class="st2" x1="37.2" y1="40.2" x2="35.6" y2="37.7"/>
		<line class="st2" x1="38.9" y1="42.9" x2="37.2" y2="45.3"/>
		<line class="st2" x1="37.2" y1="50.3" x2="35.6" y2="47.9"/>
		<line class="st2" x1="38.9" y1="53" x2="37.2" y2="55.5"/>
		<line class="st2" x1="37.2" y1="60.6" x2="35.6" y2="58.2"/>
		<line class="st2" x1="38.9" y1="63.2" x2="37.2" y2="65.6"/>
		<line class="st2" x1="37.2" y1="70.8" x2="35.6" y2="68.3"/>
	</g>
	<g>
		<line class="st3" x1="52.5" y1="10.1" x2="50.5" y2="7.4"/>
		<line class="st3" x1="54.4" y1="13" x2="52.5" y2="15.8"/>
		<line class="st3" x1="52.5" y1="21.6" x2="50.5" y2="18.8"/>
		<line class="st3" x1="54.4" y1="24.6" x2="52.5" y2="27.4"/>
		<line class="st3" x1="52.5" y1="33.1" x2="50.5" y2="30.3"/>
		<line class="st3" x1="54.4" y1="36.1" x2="52.5" y2="38.8"/>
		<line class="st3" x1="52.5" y1="44.6" x2="50.5" y2="41.9"/>
		<line class="st3" x1="54.4" y1="47.6" x2="52.5" y2="50.3"/>
		<line class="st3" x1="52.5" y1="56.1" x2="50.5" y2="53.4"/>
		<line class="st3" x1="54.4" y1="59.1" x2="52.5" y2="61.9"/>
		<line class="st3" x1="52.5" y1="67.6" x2="50.5" y2="64.8"/>
		<line class="st3" x1="54.4" y1="70.6" x2="52.5" y2="73.4"/>
		<line class="st3" x1="52.5" y1="79.1" x2="50.5" y2="76.3"/>
	</g>
	<path class="st4" d="M69.4,91.7V5.4"/>
	<g>
		<line class="st0" x1="69.5" y1="11.5" x2="67.2" y2="8.4"/>
		<line class="st0" x1="71.9" y1="14.8" x2="69.5" y2="17.9"/>
		<line class="st0" x1="69.5" y1="24.3" x2="67.2" y2="21.2"/>
		<line class="st0" x1="71.9" y1="27.6" x2="69.5" y2="30.7"/>
		<line class="st0" x1="69.5" y1="37" x2="67.2" y2="34"/>
		<line class="st0" x1="71.9" y1="40.4" x2="69.5" y2="43.4"/>
		<line class="st0" x1="69.5" y1="49.8" x2="67.2" y2="46.7"/>
		<line class="st0" x1="71.9" y1="53.1" x2="69.5" y2="56.1"/>
		<line class="st0" x1="69.5" y1="62.5" x2="67.2" y2="59.5"/>
		<line class="st0" x1="71.9" y1="65.8" x2="69.5" y2="68.9"/>
		<line class="st0" x1="69.5" y1="75.2" x2="67.2" y2="72.2"/>
		<line class="st0" x1="71.9" y1="78.6" x2="69.5" y2="81.6"/>
		<line class="st0" x1="69.5" y1="88" x2="67.2" y2="84.9"/>
	</g>
	<g>
		<g>
			<path d="M34.9,71.6l37.9,22c0.5,0.3,0.6,0.9,0.4,1.4c-0.3,0.5-0.9,0.6-1.4,0.4l0,0L34.2,72.3c-0.2-0.1-0.3-0.4-0.1-0.6
				C34.2,71.5,34.7,71.5,34.9,71.6z"/>
		</g>
		<g>
			<path d="M53.2,106.4c-11.6-9.9-23-19.9-34.2-29.8l0,0c-0.2-0.2-0.2-0.4,0-0.6c0.1-0.1,0.1-0.1,0.2-0.1L46.8,68c0.1,0,0.2,0,0.2,0
				l42,17.9c0.3,0.1,0.5,0.5,0.3,0.8c-0.1,0.1-0.2,0.2-0.3,0.3l0,0C77.2,93.5,65.3,100,53.2,106.4z M53.5,103.9
				c11.5-6.1,23.2-12,35-18v1.2L46.8,68.6H47l-27.7,8.1l0.2-0.7C31,85.3,42.3,94.6,53.5,103.9z"/>
		</g>
	</g>
</g>
</svg>
