<?xml version="1.0" encoding="utf-8"?>
<!-- Generator: Adobe Illustrator 21.1.0, SVG Export Plug-In . SVG Version: 6.00 Build 0)  -->
<svg version="1.1" id="Layer_1" xmlns="http://www.w3.org/2000/svg" xmlns:xlink="http://www.w3.org/1999/xlink" x="0px" y="0px"
	 width="108px" height="108px" viewBox="0 0 108 108" style="enable-background:new 0 0 108 108;" xml:space="preserve">
<style type="text/css">
	.st0{fill:none;stroke:#000000;stroke-width:1.2;stroke-linecap:round;stroke-linejoin:round;stroke-miterlimit:10;}
	.st1{fill:none;stroke:#000000;stroke-width:1.5;stroke-linecap:round;stroke-linejoin:round;stroke-miterlimit:10;}
	.st2{fill:none;stroke:#000000;stroke-width:0.75;stroke-linecap:round;stroke-linejoin:round;stroke-miterlimit:10;}
	.st3{fill:none;stroke:#000000;stroke-linecap:round;stroke-linejoin:round;stroke-miterlimit:10;}
</style>
<g>
	<path class="st0" d="M44.8,80.5V6.9"/>
	<path class="st1" d="M61.1,90.5V5.4"/>
	<g>
		<path d="M44.9,6.3l15.9-1.8c0.3,0,0.4,0.3,0.4,0.4c0,0.2-0.3,0.4-0.4,0.4l0,0L45,6.8c-0.2,0-0.3-0.2-0.3-0.3
			C44.6,6.3,44.7,6.3,44.9,6.3z"/>
	</g>
	<g>
		<line class="st2" x1="44.8" y1="11.6" x2="43" y2="9"/>
		<line class="st2" x1="46.6" y1="14.6" x2="44.8" y2="17.2"/>
		<line class="st2" x1="44.8" y1="22.7" x2="43" y2="20"/>
		<line class="st2" x1="46.6" y1="25.6" x2="44.8" y2="28.2"/>
		<line class="st2" x1="44.8" y1="33.7" x2="43" y2="31.1"/>
		<line class="st2" x1="46.6" y1="36.6" x2="44.8" y2="39.3"/>
		<line class="st2" x1="44.8" y1="44.7" x2="43" y2="42.1"/>
		<line class="st2" x1="46.6" y1="47.7" x2="44.8" y2="50.3"/>
		<line class="st2" x1="44.8" y1="55.8" x2="43" y2="53.1"/>
		<line class="st2" x1="46.6" y1="58.7" x2="44.8" y2="61.3"/>
		<line class="st2" x1="44.8" y1="66.8" x2="43" y2="64.2"/>
		<line class="st2" x1="46.6" y1="69.7" x2="44.8" y2="72.4"/>
		<line class="st2" x1="44.8" y1="77.8" x2="43" y2="75.2"/>
	</g>
	<g>
		<line class="st3" x1="61.3" y1="12.3" x2="59.3" y2="9.3"/>
		<line class="st3" x1="63.3" y1="15.4" x2="61.3" y2="18.4"/>
		<line class="st3" x1="61.3" y1="24.7" x2="59.3" y2="21.7"/>
		<line class="st3" x1="63.3" y1="27.9" x2="61.3" y2="30.9"/>
		<line class="st3" x1="61.3" y1="37.2" x2="59.3" y2="34.2"/>
		<line class="st3" x1="63.3" y1="40.3" x2="61.3" y2="43.3"/>
		<line class="st3" x1="61.3" y1="49.6" x2="59.3" y2="46.6"/>
		<line class="st3" x1="63.3" y1="52.8" x2="61.3" y2="55.8"/>
		<line class="st3" x1="61.3" y1="62" x2="59.3" y2="59"/>
		<line class="st3" x1="63.3" y1="65.2" x2="61.3" y2="68.2"/>
		<line class="st3" x1="61.3" y1="74.5" x2="59.3" y2="71.5"/>
		<line class="st3" x1="63.3" y1="77.7" x2="61.3" y2="80.7"/>
		<line class="st3" x1="61.3" y1="86.8" x2="59.3" y2="83.9"/>
	</g>
	<g>
		<g>
			<path d="M42.3,78.9l24,14.6c0.5,0.3,0.6,0.9,0.3,1.4c-0.3,0.5-0.9,0.6-1.4,0.3c0,0,0,0,0,0L41.8,79.7c-0.2-0.1-0.3-0.4-0.1-0.6
				C41.8,78.8,42.1,78.8,42.3,78.9z"/>
		</g>
		<g>
			<path d="M47.8,104.7C41.1,97.5,34.6,90.2,28.2,83l0,0c-0.2-0.2-0.1-0.5,0-0.6c0.1,0,0.1-0.1,0.2-0.1l24.4-6.1c0.1,0,0.2,0,0.2,0
				l26.7,11.2c0.3,0.1,0.5,0.5,0.3,0.8c-0.1,0.1-0.2,0.3-0.3,0.3l0,0C69.3,94,58.6,99.4,47.8,104.7z M48.3,102.3
				c10.2-5,20.5-9.9,30.9-14.8l0,1.2L52.8,76.9l0.2,0l-24.4,6.3l0.2-0.7C35.5,89.1,42,95.6,48.3,102.3z"/>
		</g>
	</g>
</g>
</svg>
