<?xml version="1.0" encoding="utf-8"?>
<!-- Generator: Adobe Illustrator 21.1.0, SVG Export Plug-In . SVG Version: 6.00 Build 0)  -->
<svg version="1.1" id="Layer_1" xmlns="http://www.w3.org/2000/svg" xmlns:xlink="http://www.w3.org/1999/xlink" x="0px" y="0px"
	 width="108px" height="108px" viewBox="0 0 108 108" style="enable-background:new 0 0 108 108;" xml:space="preserve">
<style type="text/css">
	.st0{fill:#F2F2F2;stroke:#000000;stroke-width:0.75;stroke-linejoin:round;stroke-miterlimit:10;}
	.st1{fill:#FFFFFF;stroke:#000000;stroke-width:0.75;stroke-linejoin:round;stroke-miterlimit:10;}
	.st2{fill:#B3B3B3;stroke:#000000;stroke-width:0.75;stroke-linejoin:round;stroke-miterlimit:10;}
	.st3{fill:#FFFFFF;}
	.st4{fill:#CCCCCC;}
	.st5{fill:#E6E6E6;}
	.st6{fill:none;stroke:#000000;stroke-width:0.75;stroke-linejoin:round;stroke-miterlimit:10;}
</style>
<g>
	<g>
		<path class="st0" d="M29.1,82.6c-0.1,1.3-0.3,5.2-4.4,5.2c-3.8,0-4-4.7-4-5.2c0.1-1.3,2-2.3,4.4-2.3
			C27.3,80.3,29.1,81.3,29.1,82.6z"/>
		<path class="st0" d="M29.1,82.6c-0.1,1.3-2,2.3-4.4,2.3c-2.3,0-4.1-1-4-2.3c0.1-1.3,2-2.3,4.4-2.3C27.3,80.3,29.1,81.3,29.1,82.6z
			"/>
		<path class="st0" d="M27.3,81.6c-0.1,1.1-1.1,2-2.4,2c-1.3,0-2.3-0.9-2.2-2c0.1-1.1,1.1-2,2.4-2C26.4,79.6,27.4,80.5,27.3,81.6z"
			/>
		<path class="st0" d="M27.3,79.5c-0.1,1.1-1.1,2-2.4,2c-1.3,0-2.3-0.9-2.2-2c0.1-1.1,1.1-2,2.4-2S27.4,78.5,27.3,79.5z"/>
		<path class="st0" d="M27.3,77.5c-0.1,1.1-1.1,2-2.4,2s-2.3-0.9-2.2-2c0.1-1.1,1.1-2,2.4-2C26.3,75.5,27.3,76.4,27.3,77.5z"/>
		<path class="st0" d="M27.3,75.5c-0.1,1.1-1.1,2-2.4,2c-1.3,0-2.3-0.9-2.2-2c0.1-1.1,1.1-2,2.4-2C26.3,73.5,27.3,74.4,27.3,75.5z"
			/>
		<path class="st0" d="M27.3,73.4c0,1.1-1.1,2-2.4,2c-1.3,0-2.3-0.9-2.2-2c0.1-1.1,1.1-2,2.4-2C26.3,71.5,27.3,72.4,27.3,73.4z"/>
		<path class="st0" d="M27.3,71.4c-0.1,1.1-1.1,2-2.4,2c-1.3,0-2.3-0.9-2.2-2c0.1-1.1,1.1-2,2.4-2S27.3,70.3,27.3,71.4z"/>
		<path class="st0" d="M27.3,69.4c-0.1,1.1-1.1,2-2.4,2c-1.3,0-2.3-0.9-2.2-2c0.1-1.1,1.1-2,2.4-2C26.3,67.4,27.3,68.3,27.3,69.4z"
			/>
		<path class="st0" d="M27.3,67.3c-0.1,1.1-1.1,2-2.4,2c-1.3,0-2.3-0.9-2.2-2c0.1-1.1,1.1-2,2.4-2C26.3,65.4,27.3,66.2,27.3,67.3z"
			/>
	</g>
	<path class="st1" d="M32.4,64.2v9.9c0,0.9,0.5,1.7,1.2,1.7c0.6,0,1.2-0.7,1.2-1.7v-9.9c0-0.9-0.5-1.7-1.2-1.7
		C32.9,62.5,32.4,63.3,32.4,64.2z"/>
	<g>
		<path class="st2" d="M7.5,77.2c0.9,0.4,1.8,0.4,3.5-0.4c0.1-0.1,1.5-0.8,1.6-0.9c1.3-0.7,1.2-1.8,1.2-3.8c0-2-0.1-3.5-0.1-3.5
			s-2.7,0.8-3.8,1.4c-1.1,0.6-1.4,1.2-1.4,3.8C8.5,76.5,7.5,77.2,7.5,77.2z"/>
		<path class="st2" d="M25,69.9c0,0-0.8,0.1-3.4,0.1c-2.5,0-11.1,0-12.3,0c5-1.8,11.2-4.5,13.3-5.6c2.2-1.1,4.2-0.2,6.3-0.2
			C31.1,64.1,25,69.9,25,69.9z"/>
	</g>
	<g>
		<path class="st0" d="M27.3,65.3c-0.1,1.1-1.1,2-2.4,2c-1.3,0-2.3-0.9-2.2-2c0.1-1.1,1.1-2,2.4-2C26.3,63.3,27.3,64.2,27.3,65.3z"
			/>
		<path class="st0" d="M27.3,63.2c0,1.1-1.1,2-2.4,2c-1.3,0-2.3-0.9-2.2-2c0.1-1.1,1.1-2,2.4-2C26.3,61.3,27.3,62.2,27.3,63.2z"/>
		<path class="st0" d="M27.3,61.2c-0.1,1.1-1.1,2-2.4,2s-2.3-0.9-2.2-2c0.1-1.1,1.1-2,2.4-2C26.3,59.2,27.3,60.1,27.3,61.2z"/>
		<path class="st0" d="M27.3,59.2c-0.1,1.1-1.1,2-2.4,2c-1.3,0-2.3-0.9-2.2-2c0.1-1.1,1.1-2,2.4-2S27.3,58.1,27.3,59.2z"/>
		<path class="st0" d="M27.3,57.1c0,1.1-1.1,2-2.4,2c-1.3,0-2.3-0.9-2.2-2c0.1-1.1,1.1-2,2.4-2C26.3,55.2,27.3,56,27.3,57.1z"/>
		<path class="st0" d="M27.3,55.1c-0.1,1.1-1.1,2-2.4,2c-1.3,0-2.3-0.9-2.2-2c0.1-1.1,1.1-2,2.4-2S27.3,54,27.3,55.1z"/>
		<path class="st0" d="M27.3,53.1c-0.1,1.1-1.1,2-2.4,2c-1.3,0-2.3-0.9-2.2-2c0.1-1.1,1.1-2,2.4-2S27.3,52,27.3,53.1z"/>
		<path class="st0" d="M27.3,51c0,1.1-1.1,2-2.4,2c-1.3,0-2.3-0.9-2.2-2c0.1-1.1,1.1-2,2.4-2C26.3,49,27.3,49.9,27.3,51z"/>
	</g>
	<g>
		<g>
			<path class="st3" d="M47.1,38.8L26.3,49l0,0c0.1,0.7,0.1,1.4,0.1,2.1v15.5c0,2-0.8,2.9-1.4,3.2c3.9-2.1,19-9.3,20.4-10
				c1.4-0.7,1.7-2.3,1.7-4.5V39.4C47.1,39.2,47.1,39,47.1,38.8z M39.5,53.7c-0.2,1.8-1.4,3.1-2.6,2.9c-1.2-0.1-2-1.7-1.8-3.4
				c0.2-1.8,1.4-3.1,2.6-2.9C38.9,50.4,39.7,51.9,39.5,53.7z"/>
			<path class="st3" d="M29.5,20.2l-4.3,2v3.7L13,31.6l0-3.5l-4.5,2c0,0,0.1,2.7,0.1,4.3c0,1.2,0.4,2.2,1.2,2.9l19.9-10.2
				C29.5,27.1,29.5,20.2,29.5,20.2z"/>
			<path class="st3" d="M44.9,36.2c-1.6-1-13.5-8-15.3-9l-5,2.6L9.8,37.4c0.2,0.2,0.5,0.4,0.7,0.5c1.4,0.7,12.5,7.8,14.2,8.7
				c1,0.6,1.4,1.5,1.6,2.4L47,38.8C46.9,37.8,46.3,37.1,44.9,36.2z M25.7,36.7c-1.4,0-2.5-1-2.5-2.4s1.1-2.4,2.5-2.4
				c1.4,0,2.5,1.1,2.5,2.4S27.1,36.7,25.7,36.7z"/>
		</g>
		<g>
			<path class="st4" d="M47.1,38.8L26.3,49l0,0c0.1,0.7,0.1,1.4,0.1,2.1v15.5c0,2-0.8,2.9-1.4,3.2c3.9-2.1,19-9.3,20.4-10
				c1.4-0.7,1.7-2.3,1.7-4.5V39.4C47.1,39.2,47.1,39,47.1,38.8z M39.5,53.7c-0.2,1.8-1.4,3.1-2.6,2.9c-1.2-0.1-2-1.7-1.8-3.4
				c0.2-1.8,1.4-3.1,2.6-2.9C38.9,50.4,39.7,51.9,39.5,53.7z"/>
			<path class="st5" d="M29.5,20.2l-4.3,2v3.7L13,31.6l0-3.5l-4.5,2c0,0,0.1,2.7,0.1,4.3c0,1.2,0.4,2.2,1.2,2.9l19.9-10.2
				C29.5,27.1,29.5,20.2,29.5,20.2z"/>
		</g>
		<g>
			<path class="st6" d="M47.1,38.8L26.3,49l0,0c0.1,0.7,0.1,1.4,0.1,2.1v15.5c0,2-0.8,2.9-1.4,3.2c3.9-2.1,19-9.3,20.4-10
				c1.4-0.7,1.7-2.3,1.7-4.5V39.4C47.1,39.2,47.1,39,47.1,38.8z M39.5,53.7c-0.2,1.8-1.4,3.1-2.6,2.9c-1.2-0.1-2-1.7-1.8-3.4
				c0.2-1.8,1.4-3.1,2.6-2.9C38.9,50.4,39.7,51.9,39.5,53.7z"/>
			<path class="st6" d="M29.5,20.2l-4.3,2v3.7L13,31.6l0-3.5l-4.5,2c0,0,0.1,2.7,0.1,4.3c0,1.2,0.4,2.2,1.2,2.9l19.9-10.2
				C29.5,27.1,29.5,20.2,29.5,20.2z"/>
			<path class="st6" d="M44.9,36.2c-1.6-1-13.5-8-15.3-9l-5,2.6L9.8,37.4c0.2,0.2,0.5,0.4,0.7,0.5c1.4,0.7,12.5,7.8,14.2,8.7
				c1,0.6,1.4,1.5,1.6,2.4L47,38.8C46.9,37.8,46.3,37.1,44.9,36.2z M25.7,36.7c-1.4,0-2.5-1-2.5-2.4s1.1-2.4,2.5-2.4
				c1.4,0,2.5,1.1,2.5,2.4S27.1,36.7,25.7,36.7z"/>
		</g>
	</g>
	<g>
		<path class="st3" d="M96.8,69.3c-2.3,0-4.8-0.7-7.6-2.1C79.5,62.4,45.4,44.4,35.1,39l-0.5-0.3l0,1.2c0,0.6-0.4,1-1.1,1
			c-0.1,0-0.1,0-0.2,0c-0.7-0.1-1.3-0.7-1.3-1.4l0-2.9c0-0.4,0.2-0.7,0.5-0.9c0.2-0.1,0.3-0.1,0.5-0.1c0.2,0,0.4,0.1,0.7,0.2
			l0.4,0.2C44.7,41.4,80.1,60.1,90,65c2.4,1.2,4.5,1.8,6.3,1.8c2.2,0,3.8-0.8,5-2.4c2.2-2.9,1.9-7.6-0.7-10.6
			c-3.1-3.7-5.6-6.1-7.1-7.5l-0.1-0.1l-0.3,0c0,0-0.1,0-0.1,0c-1.1-0.1-2-1.1-2-2.2c0-1,0.7-1.7,1.7-1.7c0.1,0,0.1,0,0.2,0
			c1,0.1,1.9,1,2,2l0,0.1l0.1,0.1c1.6,1.4,4.1,4,7.4,7.9c3.4,4,3.8,10,0.9,13.7C102.6,67.3,100.6,69.3,96.8,69.3L96.8,69.3z"/>
		<path d="M33.1,35.8c0.2,0,0.3,0,0.5,0.1l0.3,0.2c7.5,4,45.7,24.1,56,29.2c2.4,1.2,4.6,1.8,6.5,1.8c2.2,0,4.1-0.9,5.3-2.5
			c2.3-3,2-8-0.7-11.1c-3.1-3.7-5.6-6.1-7.1-7.5l-0.2-0.2l-0.3,0l-0.1,0l-0.1,0c0,0,0,0-0.1,0c-0.9-0.1-1.7-0.9-1.7-1.8
			c0-0.8,0.6-1.3,1.3-1.3c0.1,0,0.1,0,0.2,0c0.8,0.1,1.6,0.8,1.7,1.6l0,0.3l0.2,0.2c1.6,1.4,4.1,4,7.4,7.8c3.2,3.8,3.7,9.6,0.9,13.2
			c-0.9,1.1-2.8,3-6.5,3c-2.2,0-4.7-0.7-7.4-2.1C79.6,62,45.5,44,35.3,38.7l-1.1-0.6l0,1.2l0,0.5c0,0.4-0.3,0.7-0.7,0.7
			c0,0-0.1,0-0.1,0c-0.5-0.1-1-0.5-1-1.1l0-2.9c0-0.3,0.1-0.5,0.3-0.6C32.9,35.9,33,35.8,33.1,35.8 M33.1,35.1
			c-0.3,0-0.5,0.1-0.7,0.2c-0.5,0.2-0.7,0.7-0.7,1.2l0,2.9c0,0.9,0.7,1.7,1.6,1.8c0.1,0,0.1,0,0.2,0c0.8,0,1.4-0.6,1.4-1.4
			c0,0,0-0.4,0-0.5c9.2,4.9,44.2,23.3,54.1,28.2c3.1,1.6,5.7,2.1,7.7,2.1c4,0,6.1-2.1,7.1-3.3c2.9-3.9,2.5-10.1-1-14.2
			c-3.3-3.9-5.8-6.4-7.4-7.9c-0.1-1.2-1.1-2.2-2.3-2.3c-0.1,0-0.2,0-0.3,0c-1.2,0-2.1,0.9-2.1,2.1c0,1.3,1,2.4,2.3,2.5
			c0,0,0.1,0,0.1,0c0.1,0,0.1,0,0.2,0c1.5,1.4,3.9,3.8,7,7.5c2.4,2.9,2.7,7.4,0.7,10.2c-1.1,1.5-2.7,2.2-4.7,2.2
			c-1.8,0-3.9-0.6-6.2-1.7C78.9,59.1,34.4,35.5,34,35.3C33.7,35.2,33.4,35.1,33.1,35.1L33.1,35.1z"/>
	</g>
</g>
</svg>
