<?xml version="1.0" encoding="utf-8"?>
<!-- Generator: Adobe Illustrator 21.1.0, SVG Export Plug-In . SVG Version: 6.00 Build 0)  -->
<svg version="1.1" id="Layer_1" xmlns="http://www.w3.org/2000/svg" xmlns:xlink="http://www.w3.org/1999/xlink" x="0px" y="0px"
	 width="108px" height="108px" viewBox="0 0 108 108" style="enable-background:new 0 0 108 108;" xml:space="preserve">
<style type="text/css">
	.st0{fill:#E6E6E6;stroke:#000000;stroke-width:0.75;stroke-linejoin:round;stroke-miterlimit:10;}
	.st1{fill:#F2F2F2;stroke:#000000;stroke-width:0.5;stroke-linejoin:round;stroke-miterlimit:10;}
	.st2{fill:#FFFFFF;stroke:#000000;stroke-width:0.5;stroke-linejoin:round;stroke-miterlimit:10;}
	.st3{fill:#B3B3B3;stroke:#000000;stroke-width:0.5;stroke-linejoin:round;stroke-miterlimit:10;}
	.st4{fill:#FFFFFF;}
	.st5{fill:#CCCCCC;}
	.st6{fill:#E6E6E6;}
	.st7{fill:none;stroke:#000000;stroke-width:0.5;stroke-linejoin:round;stroke-miterlimit:10;}
	.st8{fill:#E6E6E6;stroke:#000000;stroke-width:0.5;stroke-linejoin:round;stroke-miterlimit:10;}
</style>
<g>
	<path class="st0" d="M66.5,32.4c-0.6,0.3-15.6,7.5-30.2,14.5C17.6,55.9,6.2,61.3,5.8,61.6c-0.8,0.5-0.9,1.2-0.9,1.6
		c0,0.9,0.4,1.7,1.2,2.4c0.1,0.1,20.6,10.1,22,10.1c0,0,0,0,0,0c1.5,0.1,9.3,0.4,10.1,0.2c0.9-0.2,63-29.7,63.6-30
		c1.1-0.5,1.4-1.5,1.3-2.3c-0.1-0.4-0.4-1.6-2-1.4c-1.5,0.2-6.5,0.2-7.4-0.2c-0.5-0.2-6.3-2.5-12-4.8c-6-2.4-11.7-4.7-12.2-4.9
		C68.4,32,67.7,31.7,66.5,32.4z M28.1,73.5C28.1,73.5,28.1,73.5,28.1,73.5C28.1,73.5,28.1,73.5,28.1,73.5z M36.8,49.1
		c18.6-8.9,29.9-14.3,30.3-14.6c0.7-0.4,1-0.3,2,0.1c0.5,0.2,6.4,2.6,12.2,4.9c5.9,2.4,11.5,4.6,12,4.8c0.9,0.3,4.1,0.4,6.3,0.3
		c-11.1,5.3-60.4,28.6-61.7,29.1c-0.6,0.1-6.3-0.1-9.8-0.2c-1.2-0.3-20-8.9-21.2-9.8c-0.1-0.1-0.1-0.1-0.2-0.2
		C9,62.4,23.7,55.4,36.8,49.1z"/>
	<g>
		<g>
			<path class="st1" d="M33.6,62.3c0,0.6-0.1,2.3-2,2.4c-1.7,0-1.8-2.1-1.8-2.4c0-0.6,0.9-1,2-1C32.9,61.2,33.7,61.7,33.6,62.3z"/>
			<path class="st1" d="M33.6,62.3c0,0.6-0.9,1-2,1c-1,0-1.9-0.5-1.8-1c0-0.6,0.9-1,2-1C32.9,61.2,33.7,61.7,33.6,62.3z"/>
			<path class="st1" d="M32.9,61.8c0,0.5-0.5,0.9-1.1,0.9c-0.6,0-1-0.4-1-0.9c0-0.5,0.5-0.9,1.1-0.9C32.4,60.9,32.9,61.3,32.9,61.8z
				"/>
			<path class="st1" d="M32.9,60.9c0,0.5-0.5,0.9-1.1,0.9c-0.6,0-1-0.4-1-0.9c0-0.5,0.5-0.9,1.1-0.9C32.4,60,32.9,60.4,32.9,60.9z"
				/>
			<path class="st1" d="M32.8,60c0,0.5-0.5,0.9-1.1,0.9c-0.6,0-1-0.4-1-0.9c0-0.5,0.5-0.9,1.1-0.9C32.4,59.1,32.8,59.5,32.8,60z"/>
			<path class="st1" d="M32.8,59.1c0,0.5-0.5,0.9-1.1,0.9c-0.6,0-1-0.4-1-0.9c0-0.5,0.5-0.9,1.1-0.9C32.4,58.2,32.8,58.6,32.8,59.1z
				"/>
			<path class="st1" d="M32.8,58.2c0,0.5-0.5,0.9-1.1,0.9c-0.6,0-1-0.4-1-0.9c0-0.5,0.5-0.9,1.1-0.9C32.4,57.3,32.8,57.7,32.8,58.2z
				"/>
			<path class="st1" d="M32.8,57.2c0,0.5-0.5,0.9-1.1,0.9c-0.6,0-1-0.4-1-0.9c0-0.5,0.5-0.9,1.1-0.9C32.4,56.4,32.8,56.8,32.8,57.2z
				"/>
			<path class="st1" d="M32.8,56.3c0,0.5-0.5,0.9-1.1,0.9c-0.6,0-1-0.4-1-0.9c0-0.5,0.5-0.9,1.1-0.9C32.4,55.4,32.8,55.8,32.8,56.3z
				"/>
			<path class="st1" d="M32.8,55.4c0,0.5-0.5,0.9-1.1,0.9c-0.6,0-1-0.4-1-0.9c0-0.5,0.5-0.9,1.1-0.9C32.4,54.5,32.8,54.9,32.8,55.4z
				"/>
		</g>
		<path class="st2" d="M35.1,54v4.4c0,0.4,0.2,0.8,0.5,0.8c0.3,0,0.5-0.3,0.5-0.8V54c0-0.4-0.2-0.8-0.5-0.8
			C35.4,53.3,35.1,53.6,35.1,54z"/>
		<g>
			<path class="st3" d="M23.9,59.8c0.4,0.2,0.8,0.2,1.6-0.2c0.1,0,0.7-0.4,0.7-0.4c0.6-0.3,0.5-0.8,0.5-1.7c0-0.9,0-1.6,0-1.6
				s-1.2,0.4-1.7,0.6c-0.5,0.3-0.6,0.5-0.6,1.7C24.4,59.6,23.9,59.8,23.9,59.8z"/>
			<path class="st3" d="M31.8,56.6c0,0-0.4,0.1-1.5,0.1c-1.1,0-5,0-5.5,0c2.2-0.8,5-2,6-2.5c1-0.5,1.9-0.1,2.8-0.1
				C34.5,54,31.8,56.6,31.8,56.6z"/>
		</g>
		<g>
			<path class="st1" d="M32.8,54.5c0,0.5-0.5,0.9-1.1,0.9c-0.6,0-1-0.4-1-0.9c0-0.5,0.5-0.9,1.1-0.9C32.4,53.6,32.8,54,32.8,54.5z"
				/>
			<path class="st1" d="M32.8,53.6c0,0.5-0.5,0.9-1.1,0.9c-0.6,0-1-0.4-1-0.9c0-0.5,0.5-0.9,1.1-0.9C32.4,52.7,32.8,53.1,32.8,53.6z
				"/>
			<path class="st1" d="M32.8,52.7c0,0.5-0.5,0.9-1.1,0.9c-0.6,0-1-0.4-1-0.9c0-0.5,0.5-0.9,1.1-0.9C32.4,51.8,32.8,52.2,32.8,52.7z
				"/>
			<path class="st1" d="M32.8,51.7c0,0.5-0.5,0.9-1.1,0.9c-0.6,0-1-0.4-1-0.9c0-0.5,0.5-0.9,1.1-0.9C32.4,50.9,32.8,51.3,32.8,51.7z
				"/>
			<path class="st1" d="M32.8,50.8c0,0.5-0.5,0.9-1.1,0.9c-0.6,0-1-0.4-1-0.9c0-0.5,0.5-0.9,1.1-0.9C32.4,49.9,32.8,50.3,32.8,50.8z
				"/>
			<path class="st1" d="M32.8,49.9c0,0.5-0.5,0.9-1.1,0.9c-0.6,0-1-0.4-1-0.9c0-0.5,0.5-0.9,1.1-0.9C32.4,49,32.8,49.4,32.8,49.9z"
				/>
			<path class="st1" d="M32.8,49c0,0.5-0.5,0.9-1.1,0.9c-0.6,0-1-0.4-1-0.9c0-0.5,0.5-0.9,1.1-0.9C32.4,48.1,32.8,48.5,32.8,49z"/>
			<path class="st1" d="M32.8,48.1c0,0.5-0.5,0.9-1.1,0.9c-0.6,0-1-0.4-1-0.9c0-0.5,0.5-0.9,1.1-0.9C32.4,47.2,32.8,47.6,32.8,48.1z
				"/>
		</g>
		<g>
			<g>
				<path class="st4" d="M32.4,47.2c0.1,0.3,0.1,0.6,0.1,0.9c0,0.9,0,6.1,0,7c0,0.9-0.4,1.3-0.6,1.4c1.7-1,8.5-4.2,9.2-4.5
					c0.6-0.3,0.8-1,0.8-2c0-1,0-6.5,0-7.1c0-0.1,0-0.2,0-0.3L32.4,47.2z"/>
				<path class="st4" d="M33.8,34.2l-1.9,0.9v1.7l-5.5,2.6l0-1.6l-2,0.9c0,0,0,1.2,0,1.9c0,0.5,0.2,1,0.5,1.3l8.9-4.6
					C33.8,37.3,33.8,34.2,33.8,34.2z"/>
				<path class="st4" d="M40.8,41.4c-0.7-0.4-6.1-3.6-6.9-4.1L25,41.9c0.1,0.1,0.2,0.2,0.3,0.2c0.6,0.3,5.6,3.5,6.4,3.9
					c0.5,0.3,0.7,0.7,0.7,1.1l9.3-4.6C41.7,42.1,41.4,41.8,40.8,41.4z M32.1,41.6c-0.6,0-1.1-0.5-1.1-1.1c0-0.6,0.5-1.1,1.1-1.1
					s1.1,0.5,1.1,1.1C33.3,41.1,32.8,41.6,32.1,41.6z"/>
			</g>
			<g>
				<path class="st5" d="M32.4,47.2c0.1,0.3,0.1,0.6,0.1,0.9c0,0.9,0,6.1,0,7c0,0.9-0.4,1.3-0.6,1.4c1.7-1,8.5-4.2,9.2-4.5
					c0.6-0.3,0.8-1,0.8-2c0-1,0-6.5,0-7.1c0-0.1,0-0.2,0-0.3L32.4,47.2z"/>
				<path class="st6" d="M33.8,34.2l-1.9,0.9v1.7l-5.5,2.6l0-1.6l-2,0.9c0,0,0,1.2,0,1.9c0,0.5,0.2,1,0.5,1.3l8.9-4.6
					C33.8,37.3,33.8,34.2,33.8,34.2z"/>
			</g>
			<g>
				<path class="st7" d="M32.4,47.2c0.1,0.3,0.1,0.6,0.1,0.9c0,0.9,0,6.1,0,7c0,0.9-0.4,1.3-0.6,1.4c1.7-1,8.5-4.2,9.2-4.5
					c0.6-0.3,0.8-1,0.8-2c0-1,0-6.5,0-7.1c0-0.1,0-0.2,0-0.3L32.4,47.2z"/>
				<path class="st7" d="M33.8,34.2l-1.9,0.9v1.7l-5.5,2.6l0-1.6l-2,0.9c0,0,0,1.2,0,1.9c0,0.5,0.2,1,0.5,1.3l8.9-4.6
					C33.8,37.3,33.8,34.2,33.8,34.2z"/>
				<path class="st7" d="M40.8,41.4c-0.7-0.4-6.1-3.6-6.9-4.1L25,41.9c0.1,0.1,0.2,0.2,0.3,0.2c0.6,0.3,5.6,3.5,6.4,3.9
					c0.5,0.3,0.7,0.7,0.7,1.1l9.3-4.6C41.7,42.1,41.4,41.8,40.8,41.4z M32.1,41.6c-0.6,0-1.1-0.5-1.1-1.1c0-0.6,0.5-1.1,1.1-1.1
					s1.1,0.5,1.1,1.1C33.3,41.1,32.8,41.6,32.1,41.6z"/>
			</g>
		</g>
		<path class="st8" d="M65.7,56c0-0.7-0.4-1.2-0.8-1.2c-0.3,0-0.5,0.2-0.6,0.4c-0.6,0.5-1.6,1.5-1.9,1.8c0,0,0,0,0,0
			c0,0-0.2,0-0.7-0.2c-0.8-0.3-22.9-9.1-23.9-9.5l0,0.1c-0.1,0-0.1-0.1-0.2-0.1c-0.4,0-0.8,0.5-0.8,1.1c0,0.5,0.2,0.9,0.6,1l0,0
			c0.2,0.1,23.1,9.1,23.8,9.5c0.7,0.3,1.5,0.6,2.2-0.2c0.2-0.2,1.1-1.1,1.8-1.7C65.5,56.9,65.7,56.5,65.7,56z"/>
	</g>
</g>
</svg>
