<?xml version="1.0" encoding="utf-8"?>
<!-- Generator: Adobe Illustrator 21.1.0, SVG Export Plug-In . SVG Version: 6.00 Build 0)  -->
<svg version="1.1" id="Layer_1" xmlns="http://www.w3.org/2000/svg" xmlns:xlink="http://www.w3.org/1999/xlink" x="0px" y="0px"
	 width="108px" height="108px" viewBox="0 0 108 108" style="enable-background:new 0 0 108 108;" xml:space="preserve">
<style type="text/css">
	.st0{fill:#FFFFFF;stroke:#000000;stroke-width:0.75;stroke-linecap:round;stroke-linejoin:round;stroke-miterlimit:10;}
	.st1{clip-path:url(#SVGID_2_);}
	.st2{fill:none;stroke:#000000;stroke-width:0.75;stroke-linecap:round;stroke-linejoin:round;stroke-miterlimit:10;}
</style>
<g>
	<path class="st0" d="M45.2,33.2c0,0,2.1-4.3,7.1-4.3c4.9,0,10.5,3.4,10.9,9.2c0.4,5.8,2.4,8.9,5.6,10.4c3.2,1.5,6.9,2.1,9.2,1.1
		c2.4-1.1,6.6-3.1,6.4-9.3c-0.2-6.2-0.7-23.8-3-27.9c-2.4-4.1-5.8-6.4-9.9-7.9C67.5,3,54,3.6,48.6,3.6c-5.4,0-22.5-0.2-26.4,3.5
		c-3.9,3.6-6.6,22.5-6.8,27c-0.2,4.5-1.9,24-2.1,27c-0.2,3-0.4,10.7-2.1,13.3C9.4,77,5,78.6,5,78.6l97.9,0.2L60,77.2
		c0,0-7.1-0.2-11.2-4.9c-4.1-4.7-5.2-16.5-5.2-22.5C43.7,43.7,45.2,33.2,45.2,33.2z"/>
	<g>
		<defs>
			
				<rect id="SVGID_1_" x="5.1" y="78.6" transform="matrix(1 -1.031796e-03 1.031796e-03 1 -9.439285e-02 5.570111e-02)" width="97.8" height="25.9"/>
		</defs>
		<use xlink:href="#SVGID_1_"  style="overflow:visible;fill:#CCCCCC;"/>
		<clipPath id="SVGID_2_">
			<use xlink:href="#SVGID_1_"  style="overflow:visible;"/>
		</clipPath>
		<g class="st1">
			<line class="st2" x1="27.5" y1="55.2" x2="-30.5" y2="113.2"/>
			<line class="st2" x1="34.5" y1="55.2" x2="-23.5" y2="113.2"/>
			<line class="st2" x1="41.5" y1="55.2" x2="-16.5" y2="113.2"/>
			<line class="st2" x1="48.5" y1="55.2" x2="-9.5" y2="113.2"/>
			<line class="st2" x1="55.5" y1="55.2" x2="-2.5" y2="113.2"/>
			<line class="st2" x1="62.5" y1="55.2" x2="4.5" y2="113.2"/>
			<line class="st2" x1="69.5" y1="55.2" x2="11.5" y2="113.2"/>
			<line class="st2" x1="76.5" y1="55.2" x2="18.5" y2="113.2"/>
			<line class="st2" x1="83.5" y1="55.2" x2="25.5" y2="113.2"/>
			<line class="st2" x1="90.5" y1="55.2" x2="32.5" y2="113.2"/>
			<line class="st2" x1="97.5" y1="55.2" x2="39.5" y2="113.2"/>
			<line class="st2" x1="104.5" y1="55.2" x2="46.5" y2="113.2"/>
			<line class="st2" x1="111.5" y1="55.2" x2="53.5" y2="113.2"/>
			<line class="st2" x1="118.5" y1="55.2" x2="60.5" y2="113.2"/>
			<line class="st2" x1="125.5" y1="55.2" x2="67.5" y2="113.2"/>
			<line class="st2" x1="132.5" y1="55.2" x2="74.5" y2="113.2"/>
			<line class="st2" x1="139.5" y1="55.2" x2="81.5" y2="113.2"/>
			<line class="st2" x1="146.5" y1="55.2" x2="88.5" y2="113.2"/>
		</g>
		
			<use xlink:href="#SVGID_1_"  style="overflow:visible;fill:none;stroke:#000000;stroke-width:0.75;stroke-linecap:round;stroke-linejoin:round;stroke-miterlimit:10;"/>
	</g>
</g>
</svg>
