<?xml version="1.0" encoding="utf-8"?>
<!-- Generator: Adobe Illustrator 21.1.0, SVG Export Plug-In . SVG Version: 6.00 Build 0)  -->
<svg version="1.1" id="Layer_1" xmlns="http://www.w3.org/2000/svg" xmlns:xlink="http://www.w3.org/1999/xlink" x="0px" y="0px"
	 width="108px" height="108px" viewBox="0 0 108 108" style="enable-background:new 0 0 108 108;" xml:space="preserve">
<style type="text/css">
	.st0{fill:#FFFFFF;stroke:#000000;stroke-width:0.75;stroke-linecap:round;stroke-linejoin:round;stroke-miterlimit:10;}
	.st1{clip-path:url(#SVGID_2_);}
	.st2{fill:#CCCCCC;stroke:#231F20;stroke-width:0.75;}
</style>
<g>
	<path class="st0" d="M13.5,77.8l80.9,0.1l0-55.8c0-1.8-1.3-3.3-2.9-3.3l-75,0c-1.6,0-2.9,1.5-2.9,3.3L13.5,77.8z M27.3,35.9
		c1.2-0.5,21.4-7.4,26.8-7.4c5.4,0,20.2,5.1,23.5,6.8c3.3,1.7,5.5,1.4,5.7,5.8c0.2,4.4-2.5,6.6-5,6.9c-2.4,0.3-41,0.6-46,0.3
		c-5-0.3-7.8-3.2-8-6.6C24.1,38.4,26,36.4,27.3,35.9z"/>
	<g>
		<defs>
			<rect id="SVGID_1_" x="13.6" y="54.3" width="80.8" height="35"/>
		</defs>
		<use xlink:href="#SVGID_1_"  style="overflow:visible;fill:#CCCCCC;"/>
		<clipPath id="SVGID_2_">
			<use xlink:href="#SVGID_1_"  style="overflow:visible;"/>
		</clipPath>
		<g class="st1">
			<line class="st2" x1="35.4" y1="52.9" x2="-19.8" y2="107.9"/>
			<line class="st2" x1="42.6" y1="52.9" x2="-12.7" y2="107.9"/>
			<line class="st2" x1="49.7" y1="52.9" x2="-5.5" y2="107.9"/>
			<line class="st2" x1="21.2" y1="52.9" x2="-34.1" y2="107.9"/>
			<line class="st2" x1="28.3" y1="52.9" x2="-27" y2="107.9"/>
			<line class="st2" x1="56.9" y1="52.9" x2="1.6" y2="107.9"/>
			<line class="st2" x1="64" y1="52.9" x2="8.7" y2="107.9"/>
			<line class="st2" x1="71.1" y1="52.9" x2="15.9" y2="107.9"/>
			<line class="st2" x1="78.3" y1="52.9" x2="23" y2="107.9"/>
			<line class="st2" x1="85.4" y1="52.9" x2="30.2" y2="107.9"/>
			<line class="st2" x1="92.6" y1="52.9" x2="37.3" y2="107.9"/>
			<line class="st2" x1="99.7" y1="52.9" x2="44.4" y2="107.9"/>
			<line class="st2" x1="106.8" y1="52.9" x2="51.6" y2="107.9"/>
			<line class="st2" x1="114" y1="52.9" x2="58.7" y2="107.9"/>
			<line class="st2" x1="121.1" y1="52.9" x2="65.9" y2="107.9"/>
			<line class="st2" x1="128.3" y1="52.9" x2="73" y2="107.9"/>
			<line class="st2" x1="135.4" y1="52.9" x2="80.1" y2="107.9"/>
			<line class="st2" x1="142.6" y1="52.9" x2="87.3" y2="107.9"/>
		</g>
		
			<use xlink:href="#SVGID_1_"  style="overflow:visible;fill:none;stroke:#000000;stroke-width:0.75;stroke-linecap:round;stroke-linejoin:round;stroke-miterlimit:10;"/>
	</g>
</g>
</svg>
