<?xml version="1.0" encoding="utf-8"?>
<!-- Generator: Adobe Illustrator 21.1.0, SVG Export Plug-In . SVG Version: 6.00 Build 0)  -->
<svg version="1.1" id="Layer_1" xmlns="http://www.w3.org/2000/svg" xmlns:xlink="http://www.w3.org/1999/xlink" x="0px" y="0px"
	 width="108px" height="108px" viewBox="0 0 108 108" style="enable-background:new 0 0 108 108;" xml:space="preserve">
<style type="text/css">
	.st0{fill:#FFFFFF;stroke:#000000;stroke-width:0.75;stroke-linecap:round;stroke-linejoin:round;stroke-miterlimit:10;}
	.st1{clip-path:url(#SVGID_2_);}
	.st2{fill:#CCCCCC;stroke:#231F20;stroke-width:0.75;}
</style>
<g>
	<path class="st0" d="M24.3,53.5l59.3,0l0-40.9c0-1.3-1-2.4-2.1-2.4l-55,0c-1.2,0-2.2,1.1-2.2,2.4L24.3,53.5z M36.3,22.8
		c0.8-0.4,14.1-5.4,17.7-5.4c3.6,0,13.3,3.8,15.5,5c2.2,1.2,3.6,1,3.7,4.3c0.1,3.2-1.7,4.8-3.3,5.1C68.4,32,42.9,32.2,39.6,32
		c-3.3-0.2-5.2-2.4-5.3-4.9C34.2,24.7,35.5,23.2,36.3,22.8z"/>
	<g>
		<defs>
			<rect id="SVGID_1_" x="24.4" y="42.3" width="59.3" height="55.5"/>
		</defs>
		<use xlink:href="#SVGID_1_"  style="overflow:visible;fill:#CCCCCC;"/>
		<clipPath id="SVGID_2_">
			<use xlink:href="#SVGID_1_"  style="overflow:visible;"/>
		</clipPath>
		<g class="st1">
			<line class="st2" x1="35.4" y1="42.5" x2="-19.8" y2="97.6"/>
			<line class="st2" x1="42.6" y1="42.5" x2="-12.7" y2="97.6"/>
			<line class="st2" x1="49.7" y1="42.5" x2="-5.5" y2="97.6"/>
			<line class="st2" x1="21.2" y1="42.5" x2="-34.1" y2="97.6"/>
			<line class="st2" x1="28.3" y1="42.5" x2="-27" y2="97.6"/>
			<line class="st2" x1="56.9" y1="42.5" x2="1.6" y2="97.6"/>
			<line class="st2" x1="64" y1="42.5" x2="8.7" y2="97.6"/>
			<line class="st2" x1="71.1" y1="42.5" x2="15.9" y2="97.6"/>
			<line class="st2" x1="78.3" y1="42.5" x2="23" y2="97.6"/>
			<line class="st2" x1="85.4" y1="42.5" x2="30.2" y2="97.6"/>
			<line class="st2" x1="92.6" y1="42.5" x2="37.3" y2="97.6"/>
			<line class="st2" x1="99.7" y1="42.5" x2="44.4" y2="97.6"/>
			<line class="st2" x1="106.8" y1="42.5" x2="51.6" y2="97.6"/>
			<line class="st2" x1="114" y1="42.5" x2="58.7" y2="97.6"/>
			<line class="st2" x1="121.1" y1="42.5" x2="65.9" y2="97.6"/>
			<line class="st2" x1="128.3" y1="42.5" x2="73" y2="97.6"/>
			<line class="st2" x1="135.4" y1="42.5" x2="80.1" y2="97.6"/>
			<line class="st2" x1="142.6" y1="42.5" x2="87.3" y2="97.6"/>
		</g>
		
			<use xlink:href="#SVGID_1_"  style="overflow:visible;fill:none;stroke:#000000;stroke-width:0.75;stroke-linecap:round;stroke-linejoin:round;stroke-miterlimit:10;"/>
	</g>
</g>
</svg>
