<?xml version="1.0" encoding="utf-8"?>
<!-- Generator: Adobe Illustrator 21.1.0, SVG Export Plug-In . SVG Version: 6.00 Build 0)  -->
<svg version="1.1" id="Layer_1" xmlns="http://www.w3.org/2000/svg" xmlns:xlink="http://www.w3.org/1999/xlink" x="0px" y="0px"
	 width="108px" height="108px" viewBox="0 0 108 108" style="enable-background:new 0 0 108 108;" xml:space="preserve">
<style type="text/css">
	.st0{fill:#FFFFFF;stroke:#000000;stroke-width:0.75;stroke-linecap:round;stroke-linejoin:round;stroke-miterlimit:10;}
	.st1{fill:#CCCCCC;stroke:#000000;stroke-width:0.75;stroke-miterlimit:10;}
	.st2{fill:none;stroke:#000000;stroke-width:0.75;stroke-linecap:round;stroke-linejoin:round;stroke-miterlimit:10;}
</style>
<g>
	<path class="st0" d="M91.5,21.3l-75,0c-1.6,0-2.9,1.3-2.9,2.9l0,33.2v6.2l0,13.7v9.5h5.1l7.1,0h6.7l7,0h7.2l7.6,0h13.1l8.1,0h5.5
		l8.2,0h5.4v-5.4l0-7.6v-6l0-8v-9.3l0-26.3C94.5,22.6,93.1,21.3,91.5,21.3z M27.3,36.5c1.2-0.5,22.4-6.6,27.8-6.6
		c5.4,0,19.8,4.2,23.1,5.7c3.3,1.5,4.8,1.7,5,5.6c0.2,3.9-2.5,5.9-5,6.2c-2.4,0.3-41,0.6-46,0.3c-5-0.3-7.8-2.9-8-5.9
		C24.1,38.8,26,36.9,27.3,36.5z"/>
	<rect x="13.6" y="50.5" class="st1" width="80.8" height="36.2"/>
	<line class="st2" x1="13.7" y1="50.5" x2="94.4" y2="50.5"/>
	<line class="st2" x1="13.6" y1="57.4" x2="20.3" y2="50.5"/>
	<line class="st2" x1="13.6" y1="63.6" x2="26.7" y2="50.5"/>
	<line class="st2" x1="13.6" y1="70.6" x2="34.3" y2="50.5"/>
	<line class="st2" x1="13.5" y1="77.2" x2="40.7" y2="50.5"/>
	<line class="st2" x1="13.5" y1="84.9" x2="48.3" y2="50.5"/>
	<line class="st2" x1="18.6" y1="86.6" x2="54.6" y2="50.6"/>
	<line class="st2" x1="25.7" y1="86.7" x2="62.3" y2="50.5"/>
	<line class="st2" x1="32.4" y1="86.6" x2="68.1" y2="50.5"/>
	<line class="st2" x1="39.3" y1="86.7" x2="76.1" y2="50.5"/>
	<line class="st2" x1="46.5" y1="86.7" x2="82.4" y2="50.6"/>
	<line class="st2" x1="54.1" y1="86.6" x2="90.1" y2="50.5"/>
	<line class="st2" x1="60" y1="86.7" x2="94.3" y2="52.7"/>
	<line class="st2" x1="67.1" y1="86.8" x2="94.4" y2="59.8"/>
	<line class="st2" x1="75.3" y1="86.8" x2="94.4" y2="67.8"/>
	<line class="st2" x1="80.8" y1="86.7" x2="94.4" y2="73.7"/>
	<line class="st2" x1="89" y1="86.7" x2="94.4" y2="81.4"/>
</g>
</svg>
