<?xml version="1.0" encoding="utf-8"?>
<!-- Generator: Adobe Illustrator 21.1.0, SVG Export Plug-In . SVG Version: 6.00 Build 0)  -->
<svg version="1.1" id="Layer_1" xmlns="http://www.w3.org/2000/svg" xmlns:xlink="http://www.w3.org/1999/xlink" x="0px" y="0px"
	 width="108px" height="108px" viewBox="0 0 108 108" style="enable-background:new 0 0 108 108;" xml:space="preserve">
<style type="text/css">
	.st0{fill:#FFFFFF;stroke:#231F20;stroke-width:0.75;}
	.st1{fill:#CCCCCC;}
	.st2{clip-path:url(#SVGID_2_);}
	.st3{fill:url(#SVGID_3_);stroke:#231F20;stroke-width:0.75;}
	.st4{fill:url(#SVGID_4_);stroke:#231F20;stroke-width:0.75;}
	.st5{fill:url(#SVGID_5_);stroke:#231F20;stroke-width:0.75;}
	.st6{fill:url(#SVGID_6_);stroke:#231F20;stroke-width:0.75;}
	.st7{fill:url(#SVGID_7_);stroke:#231F20;stroke-width:0.75;}
	.st8{fill:url(#SVGID_8_);stroke:#231F20;stroke-width:0.75;}
	.st9{fill:url(#SVGID_9_);stroke:#231F20;stroke-width:0.75;}
	.st10{fill:url(#SVGID_10_);stroke:#231F20;stroke-width:0.75;}
	.st11{fill:url(#SVGID_11_);stroke:#231F20;stroke-width:0.75;}
	.st12{fill:url(#SVGID_12_);stroke:#231F20;stroke-width:0.75;}
	.st13{fill:url(#SVGID_13_);stroke:#231F20;stroke-width:0.75;}
	.st14{fill:url(#SVGID_14_);stroke:#231F20;stroke-width:0.75;}
	.st15{fill:url(#SVGID_15_);stroke:#231F20;stroke-width:0.75;}
	.st16{fill:none;stroke:#231F20;stroke-width:0.75;}
	.st17{fill:none;stroke:#231F20;stroke-width:0.5;}
</style>
<g>
	<path class="st0" d="M88.3,26.4H19.7c-2.6,0-4.7,1.5-4.7,3.3v48.6c0,1.8,2.1,3.3,4.7,3.3h68.7c2.6,0,4.7-1.5,4.7-3.3V29.7
		C93,27.9,90.9,26.4,88.3,26.4z M30.3,44.8c0-0.5,23.8-5.7,23.8-5.7s24.9,5.2,24.9,5.7v8.6c0,0.5-1.3,0.9-2.9,0.9h-43
		c-1.6,0-2.9-0.4-2.9-0.9V44.8z"/>
	<path class="st1" d="M93,78.3c0,1.8-2.1,3.3-4.7,3.3H19.7c-2.6,0-4.7-1.5-4.7-3.3V56.8c14.6,0,64.3,0,78,0V78.3z"/>
	<g>
		<defs>
			<path id="SVGID_1_" d="M93,78.3c0,1.8-2.1,3.3-4.7,3.3H19.7c-2.6,0-4.7-1.5-4.7-3.3V56.8c14.6,0,64.3,0,78,0V78.3z"/>
		</defs>
		<clipPath id="SVGID_2_">
			<use xlink:href="#SVGID_1_"  style="overflow:visible;"/>
		</clipPath>
		<g class="st2">
			
				<linearGradient id="SVGID_3_" gradientUnits="userSpaceOnUse" x1="217.2598" y1="-154.8811" x2="244.2676" y2="-154.8811" gradientTransform="matrix(0 1 1 0 161.75 -161.75)">
				<stop  offset="0" style="stop-color:#C7D5E4"/>
				<stop  offset="0.2" style="stop-color:#FFFFFF"/>
				<stop  offset="0.8" style="stop-color:#FFFFFF"/>
				<stop  offset="1" style="stop-color:#C7D5E4"/>
			</linearGradient>
			<line class="st3" x1="20.4" y1="55.5" x2="-6.6" y2="82.5"/>
			
				<linearGradient id="SVGID_4_" gradientUnits="userSpaceOnUse" x1="217.2598" y1="-147.5512" x2="244.2676" y2="-147.5512" gradientTransform="matrix(0 1 1 0 161.75 -161.75)">
				<stop  offset="0" style="stop-color:#C7D5E4"/>
				<stop  offset="0.2" style="stop-color:#FFFFFF"/>
				<stop  offset="0.8" style="stop-color:#FFFFFF"/>
				<stop  offset="1" style="stop-color:#C7D5E4"/>
			</linearGradient>
			<line class="st4" x1="27.7" y1="55.5" x2="0.7" y2="82.5"/>
			
				<linearGradient id="SVGID_5_" gradientUnits="userSpaceOnUse" x1="217.2598" y1="-140.2238" x2="244.2676" y2="-140.2238" gradientTransform="matrix(0 1 1 0 161.75 -161.75)">
				<stop  offset="0" style="stop-color:#C7D5E4"/>
				<stop  offset="0.2" style="stop-color:#FFFFFF"/>
				<stop  offset="0.8" style="stop-color:#FFFFFF"/>
				<stop  offset="1" style="stop-color:#C7D5E4"/>
			</linearGradient>
			<line class="st5" x1="35" y1="55.5" x2="8" y2="82.5"/>
			
				<linearGradient id="SVGID_6_" gradientUnits="userSpaceOnUse" x1="217.2598" y1="-132.8936" x2="244.2676" y2="-132.8936" gradientTransform="matrix(0 1 1 0 161.75 -161.75)">
				<stop  offset="0" style="stop-color:#C7D5E4"/>
				<stop  offset="0.2" style="stop-color:#FFFFFF"/>
				<stop  offset="0.8" style="stop-color:#FFFFFF"/>
				<stop  offset="1" style="stop-color:#C7D5E4"/>
			</linearGradient>
			<line class="st6" x1="42.4" y1="55.5" x2="15.4" y2="82.5"/>
			
				<linearGradient id="SVGID_7_" gradientUnits="userSpaceOnUse" x1="217.2598" y1="-125.5663" x2="244.2676" y2="-125.5663" gradientTransform="matrix(0 1 1 0 161.75 -161.75)">
				<stop  offset="0" style="stop-color:#C7D5E4"/>
				<stop  offset="0.2" style="stop-color:#FFFFFF"/>
				<stop  offset="0.8" style="stop-color:#FFFFFF"/>
				<stop  offset="1" style="stop-color:#C7D5E4"/>
			</linearGradient>
			<line class="st7" x1="49.7" y1="55.5" x2="22.7" y2="82.5"/>
			
				<linearGradient id="SVGID_8_" gradientUnits="userSpaceOnUse" x1="217.2598" y1="-118.236" x2="244.2676" y2="-118.236" gradientTransform="matrix(0 1 1 0 161.75 -161.75)">
				<stop  offset="0" style="stop-color:#C7D5E4"/>
				<stop  offset="0.2" style="stop-color:#FFFFFF"/>
				<stop  offset="0.8" style="stop-color:#FFFFFF"/>
				<stop  offset="1" style="stop-color:#C7D5E4"/>
			</linearGradient>
			<line class="st8" x1="57" y1="55.5" x2="30" y2="82.5"/>
			
				<linearGradient id="SVGID_9_" gradientUnits="userSpaceOnUse" x1="217.2598" y1="-110.9087" x2="244.2676" y2="-110.9087" gradientTransform="matrix(0 1 1 0 161.75 -161.75)">
				<stop  offset="0" style="stop-color:#C7D5E4"/>
				<stop  offset="0.2" style="stop-color:#FFFFFF"/>
				<stop  offset="0.8" style="stop-color:#FFFFFF"/>
				<stop  offset="1" style="stop-color:#C7D5E4"/>
			</linearGradient>
			<line class="st9" x1="64.3" y1="55.5" x2="37.3" y2="82.5"/>
			
				<linearGradient id="SVGID_10_" gradientUnits="userSpaceOnUse" x1="217.2598" y1="-103.5788" x2="244.2676" y2="-103.5788" gradientTransform="matrix(0 1 1 0 161.75 -161.75)">
				<stop  offset="0" style="stop-color:#C7D5E4"/>
				<stop  offset="0.2" style="stop-color:#FFFFFF"/>
				<stop  offset="0.8" style="stop-color:#FFFFFF"/>
				<stop  offset="1" style="stop-color:#C7D5E4"/>
			</linearGradient>
			<line class="st10" x1="71.7" y1="55.5" x2="44.7" y2="82.5"/>
			
				<linearGradient id="SVGID_11_" gradientUnits="userSpaceOnUse" x1="217.2598" y1="-96.2511" x2="244.2676" y2="-96.2511" gradientTransform="matrix(0 1 1 0 161.75 -161.75)">
				<stop  offset="0" style="stop-color:#C7D5E4"/>
				<stop  offset="0.2" style="stop-color:#FFFFFF"/>
				<stop  offset="0.8" style="stop-color:#FFFFFF"/>
				<stop  offset="1" style="stop-color:#C7D5E4"/>
			</linearGradient>
			<line class="st11" x1="79" y1="55.5" x2="52" y2="82.5"/>
			
				<linearGradient id="SVGID_12_" gradientUnits="userSpaceOnUse" x1="217.2598" y1="-88.923" x2="244.2676" y2="-88.923" gradientTransform="matrix(0 1 1 0 161.75 -161.75)">
				<stop  offset="0" style="stop-color:#C7D5E4"/>
				<stop  offset="0.2" style="stop-color:#FFFFFF"/>
				<stop  offset="0.8" style="stop-color:#FFFFFF"/>
				<stop  offset="1" style="stop-color:#C7D5E4"/>
			</linearGradient>
			<line class="st12" x1="86.3" y1="55.5" x2="59.3" y2="82.5"/>
			
				<linearGradient id="SVGID_13_" gradientUnits="userSpaceOnUse" x1="217.2598" y1="-81.5935" x2="244.2676" y2="-81.5935" gradientTransform="matrix(0 1 1 0 161.75 -161.75)">
				<stop  offset="0" style="stop-color:#C7D5E4"/>
				<stop  offset="0.2" style="stop-color:#FFFFFF"/>
				<stop  offset="0.8" style="stop-color:#FFFFFF"/>
				<stop  offset="1" style="stop-color:#C7D5E4"/>
			</linearGradient>
			<line class="st13" x1="93.7" y1="55.5" x2="66.7" y2="82.5"/>
			
				<linearGradient id="SVGID_14_" gradientUnits="userSpaceOnUse" x1="217.2598" y1="-74.2647" x2="244.2676" y2="-74.2647" gradientTransform="matrix(0 1 1 0 161.75 -161.75)">
				<stop  offset="0" style="stop-color:#C7D5E4"/>
				<stop  offset="0.2" style="stop-color:#FFFFFF"/>
				<stop  offset="0.8" style="stop-color:#FFFFFF"/>
				<stop  offset="1" style="stop-color:#C7D5E4"/>
			</linearGradient>
			<line class="st14" x1="101" y1="55.5" x2="74" y2="82.5"/>
			
				<linearGradient id="SVGID_15_" gradientUnits="userSpaceOnUse" x1="217.2598" y1="-66.9359" x2="244.2676" y2="-66.9359" gradientTransform="matrix(0 1 1 0 161.75 -161.75)">
				<stop  offset="0" style="stop-color:#C7D5E4"/>
				<stop  offset="0.2" style="stop-color:#FFFFFF"/>
				<stop  offset="0.8" style="stop-color:#FFFFFF"/>
				<stop  offset="1" style="stop-color:#C7D5E4"/>
			</linearGradient>
			<line class="st15" x1="108.3" y1="55.5" x2="81.3" y2="82.5"/>
		</g>
	</g>
	<path class="st16" d="M88.3,26.4H19.7c-2.6,0-4.7,1.5-4.7,3.3v48.6c0,1.8,2.1,3.3,4.7,3.3h68.7c2.6,0,4.7-1.5,4.7-3.3V29.7
		C93,27.9,90.9,26.4,88.3,26.4z M30.3,44.8c0-0.5,23.8-5.7,23.8-5.7s24.9,5.2,24.9,5.7v8.6c0,0.5-1.3,0.9-2.9,0.9h-43
		c-1.6,0-2.9-0.4-2.9-0.9V44.8z"/>
	<line class="st17" x1="15" y1="56.8" x2="93" y2="56.8"/>
</g>
</svg>
