<?xml version="1.0" encoding="utf-8"?>
<!-- Generator: Adobe Illustrator 21.1.0, SVG Export Plug-In . SVG Version: 6.00 Build 0)  -->
<svg version="1.1" id="Layer_1" xmlns="http://www.w3.org/2000/svg" xmlns:xlink="http://www.w3.org/1999/xlink" x="0px" y="0px"
	 width="108px" height="108px" viewBox="0 0 108 108" style="enable-background:new 0 0 108 108;" xml:space="preserve">
<style type="text/css">
	.st0{fill:#CCCCCC;}
	.st1{fill:#FFFFFF;}
	.st2{clip-path:url(#SVGID_2_);}
	.st3{fill:#CCCCCC;stroke:#231F20;stroke-width:0.75;}
	.st4{fill:none;stroke:#231F20;stroke-width:0.75;}
	.st5{fill:none;stroke:#231F20;stroke-width:0.5;}
</style>
<g>
	<path class="st0" d="M92,82.6c0,2.1-2,3.9-4.5,3.9H20.5c-2.5,0-4.5-1.7-4.5-3.9V53.3c7.4,0,70.3,0,76,0V82.6z"/>
	<path class="st1" d="M87.5,21.5H20.5c-2.5,0-4.5,1.7-4.5,3.9v57.3c0,2.1,2,3.9,4.5,3.9h66.9c2.5,0,4.5-1.7,4.5-3.9V25.4
		C92,23.2,90,21.5,87.5,21.5z M29.8,39.4c0-0.5,23.2-5.6,23.2-5.6s24.3,5.1,24.3,5.6v8.3c0,0.5-1.3,0.9-2.8,0.9H32.7
		c-1.6,0-2.8-0.4-2.8-0.9V39.4z"/>
	<g>
		<defs>
			<path id="SVGID_1_" d="M92,82.6c0,2.1-2,3.9-4.5,3.9H20.5c-2.5,0-4.5-1.7-4.5-3.9V53.3c7.5,0,70.2,0,76,0V82.6z"/>
		</defs>
		<use xlink:href="#SVGID_1_"  style="overflow:visible;fill:#CCCCCC;"/>
		<clipPath id="SVGID_2_">
			<use xlink:href="#SVGID_1_"  style="overflow:visible;"/>
		</clipPath>
		<g class="st2">
			<line class="st3" x1="25.4" y1="39.1" x2="-29.8" y2="94.2"/>
			<line class="st3" x1="32.6" y1="39.1" x2="-22.7" y2="94.2"/>
			<line class="st3" x1="39.7" y1="39.1" x2="-15.5" y2="94.2"/>
			<line class="st3" x1="46.9" y1="39.1" x2="-8.4" y2="94.2"/>
			<line class="st3" x1="54" y1="39.1" x2="-1.3" y2="94.2"/>
			<line class="st3" x1="61.1" y1="39.1" x2="5.9" y2="94.2"/>
			<line class="st3" x1="68.3" y1="39.1" x2="13" y2="94.2"/>
			<line class="st3" x1="75.4" y1="39.1" x2="20.2" y2="94.2"/>
			<line class="st3" x1="82.6" y1="39.1" x2="27.3" y2="94.2"/>
			<line class="st3" x1="89.7" y1="39.1" x2="34.4" y2="94.2"/>
			<line class="st3" x1="96.8" y1="39.1" x2="41.6" y2="94.2"/>
			<line class="st3" x1="104" y1="39.1" x2="48.7" y2="94.2"/>
			<line class="st3" x1="111.1" y1="39.1" x2="55.9" y2="94.2"/>
			<line class="st3" x1="118.3" y1="39.1" x2="63" y2="94.2"/>
			<line class="st3" x1="125.4" y1="39.1" x2="70.1" y2="94.2"/>
			<line class="st3" x1="132.6" y1="39.1" x2="77.3" y2="94.2"/>
		</g>
	</g>
	<path class="st4" d="M87.5,21.5H20.5c-2.5,0-4.5,1.7-4.5,3.9v57.3c0,2.1,2,3.9,4.5,3.9h66.9c2.5,0,4.5-1.7,4.5-3.9V25.4
		C92,23.2,90,21.5,87.5,21.5z M29.8,39.4c0-0.5,23.2-5.6,23.2-5.6s24.3,5.1,24.3,5.6v8.3c0,0.5-1.3,0.9-2.8,0.9H32.7
		c-1.6,0-2.8-0.4-2.8-0.9V39.4z"/>
	<line class="st5" x1="16" y1="53.5" x2="92" y2="53.5"/>
</g>
</svg>
