<?xml version="1.0" encoding="utf-8"?>
<!-- Generator: Adobe Illustrator 21.1.0, SVG Export Plug-In . SVG Version: 6.00 Build 0)  -->
<svg version="1.1" id="Layer_1" xmlns="http://www.w3.org/2000/svg" xmlns:xlink="http://www.w3.org/1999/xlink" x="0px" y="0px"
	 width="108px" height="108px" viewBox="0 0 108 108" style="enable-background:new 0 0 108 108;" xml:space="preserve">
<style type="text/css">
	.st0{fill:#FFFFFF;stroke:#000000;stroke-width:0.75;stroke-linecap:round;stroke-linejoin:round;stroke-miterlimit:10;}
	.st1{clip-path:url(#SVGID_2_);}
	.st2{fill:none;stroke:#000000;stroke-width:0.75;stroke-linecap:round;stroke-linejoin:round;stroke-miterlimit:10;}
</style>
<g>
	<path class="st0" d="M93.3,53.2l-1.9,36.2c0,2.7-2,4.9-4.5,4.9H21.1c-2.5,0-4.5-2.2-4.5-4.9l-1.9-36.2H93.3z"/>
	<path class="st0" d="M91.4,17.5c0-2.7-2-4.9-4.5-4.9H21c-2.5,0-4.5,2.2-4.5,4.9l-1.9,35.6l1.9,36.2c0,2.7,2,4.9,4.5,4.9H87
		c2.5,0,4.5-2.2,4.5-4.9l1.9-36.2L91.4,17.5z M30.8,34.1c0-0.5,22.6-7.2,22.6-7.2s23.8,6.7,23.8,7.2v9.3c0,0.5-1.3,0.9-2.9,0.9H33.7
		c-1.6,0-2.9-0.4-2.9-0.9V34.1z"/>
	<g>
		<defs>
			<path id="SVGID_1_" d="M93.3,53.3l-1.9,36.2c0,2.7-2,4.9-4.5,4.9H21.1c-2.5,0-4.5-2.2-4.5-4.9l-1.9-36.2H93.3z"/>
		</defs>
		<use xlink:href="#SVGID_1_"  style="overflow:visible;fill:#CCCCCC;"/>
		<clipPath id="SVGID_2_">
			<use xlink:href="#SVGID_1_"  style="overflow:visible;"/>
		</clipPath>
		<g class="st1">
			<line class="st0" x1="22.5" y1="44.2" x2="-35.5" y2="102.2"/>
			<line class="st0" x1="29.5" y1="44.2" x2="-28.5" y2="102.2"/>
			<line class="st0" x1="36.5" y1="44.2" x2="-21.5" y2="102.2"/>
			<line class="st0" x1="43.5" y1="44.2" x2="-14.5" y2="102.2"/>
			<line class="st0" x1="50.5" y1="44.2" x2="-7.5" y2="102.2"/>
			<line class="st0" x1="57.5" y1="44.2" x2="-0.5" y2="102.2"/>
			<line class="st0" x1="64.5" y1="44.2" x2="6.5" y2="102.2"/>
			<line class="st0" x1="71.5" y1="44.2" x2="13.5" y2="102.2"/>
			<line class="st0" x1="78.5" y1="44.2" x2="20.5" y2="102.2"/>
			<line class="st0" x1="85.5" y1="44.2" x2="27.5" y2="102.2"/>
			<line class="st0" x1="92.5" y1="44.2" x2="34.5" y2="102.2"/>
			<line class="st0" x1="99.5" y1="44.2" x2="41.5" y2="102.2"/>
			<line class="st0" x1="106.5" y1="44.2" x2="48.5" y2="102.2"/>
			<line class="st0" x1="113.5" y1="44.2" x2="55.5" y2="102.2"/>
			<line class="st0" x1="120.5" y1="44.2" x2="62.5" y2="102.2"/>
			<line class="st0" x1="127.5" y1="44.2" x2="69.5" y2="102.2"/>
			<line class="st0" x1="134.5" y1="44.2" x2="76.5" y2="102.2"/>
			<line class="st0" x1="141.5" y1="44.2" x2="83.5" y2="102.2"/>
		</g>
		
			<use xlink:href="#SVGID_1_"  style="overflow:visible;fill:none;stroke:#000000;stroke-width:0.75;stroke-linecap:round;stroke-linejoin:round;stroke-miterlimit:10;"/>
	</g>
	<path class="st2" d="M91.4,17.5c0-2.7-2-4.9-4.5-4.9H21c-2.5,0-4.5,2.2-4.5,4.9l-1.9,35.6l1.9,36.2c0,2.7,2,4.9,4.5,4.9H87
		c2.5,0,4.5-2.2,4.5-4.9l1.9-36.2L91.4,17.5z M30.8,34.1c0-0.5,22.6-7.2,22.6-7.2s23.8,6.7,23.8,7.2v9.3c0,0.5-1.3,0.9-2.9,0.9H33.7
		c-1.6,0-2.9-0.4-2.9-0.9V34.1z"/>
</g>
</svg>
