<?xml version="1.0" encoding="utf-8"?>
<!-- Generator: Adobe Illustrator 21.1.0, SVG Export Plug-In . SVG Version: 6.00 Build 0)  -->
<svg version="1.1" id="Layer_1" xmlns="http://www.w3.org/2000/svg" xmlns:xlink="http://www.w3.org/1999/xlink" x="0px" y="0px"
	 width="108px" height="108px" viewBox="0 0 108 108" style="enable-background:new 0 0 108 108;" xml:space="preserve">
<style type="text/css">
	.st0{fill:#CCCCCC;}
	.st1{fill:#FFFFFF;stroke:#231F20;stroke-width:0.75;}
	.st2{clip-path:url(#SVGID_2_);}
	.st3{fill:url(#SVGID_3_);stroke:#231F20;stroke-width:0.6834;}
	.st4{fill:url(#SVGID_4_);stroke:#231F20;stroke-width:0.6834;}
	.st5{fill:url(#SVGID_5_);stroke:#231F20;stroke-width:0.6834;}
	.st6{fill:url(#SVGID_6_);stroke:#231F20;stroke-width:0.6834;}
	.st7{fill:url(#SVGID_7_);stroke:#231F20;stroke-width:0.6834;}
	.st8{fill:url(#SVGID_8_);stroke:#231F20;stroke-width:0.6834;}
	.st9{fill:url(#SVGID_9_);stroke:#231F20;stroke-width:0.6834;}
	.st10{fill:url(#SVGID_10_);stroke:#231F20;stroke-width:0.6834;}
	.st11{fill:url(#SVGID_11_);stroke:#231F20;stroke-width:0.6834;}
	.st12{fill:url(#SVGID_12_);stroke:#231F20;stroke-width:0.6834;}
	.st13{fill:url(#SVGID_13_);stroke:#231F20;stroke-width:0.6834;}
	.st14{fill:url(#SVGID_14_);stroke:#231F20;stroke-width:0.6834;}
	.st15{fill:url(#SVGID_15_);stroke:#231F20;stroke-width:0.6834;}
</style>
<path class="st0" d="M79.2,86.9c0,2.9-1.3,5.2-2.9,5.2H32.9c-1.6,0-2.9-2.3-2.9-5.2V52.6c10.9,0,42.5,0,49.2,0V86.9z"/>
<path class="st1" d="M76.3,15.9H32.9c-1.6,0-2.9,2.3-2.9,5.2v65.8c0,2.9,1.3,5.2,2.9,5.2h43.4c1.6,0,2.9-2.3,2.9-5.2V21.1
	C79.2,18.2,77.9,15.9,76.3,15.9z M53,43.1c-4.3,0-7.9-3.5-7.9-7.9c0-4.3,3.5-7.9,7.9-7.9c4.3,0,7.9,3.5,7.9,7.9
	C60.9,39.6,57.3,43.1,53,43.1z M79.2,86.9c0,2.9-1.3,5.2-2.9,5.2H32.9c-1.6,0-2.9-2.3-2.9-5.2V52.6c10.9,0,42.5,0,49.2,0V86.9z"/>
<g>
	<defs>
		<path id="SVGID_1_" d="M79.2,86.9c0,2.9-1.3,5.2-2.9,5.2H32.9c-1.6,0-2.9-2.3-2.9-5.2V52.6c10.9,0,42.5,0,49.2,0V86.9z"/>
	</defs>
	<clipPath id="SVGID_2_">
		<use xlink:href="#SVGID_1_"  style="overflow:visible;"/>
	</clipPath>
	<g class="st2">
		
			<linearGradient id="SVGID_3_" gradientUnits="userSpaceOnUse" x1="201.1608" y1="-170.396" x2="311.0193" y2="-170.396" gradientTransform="matrix(0 1 1 0 161.75 -161.75)">
			<stop  offset="0" style="stop-color:#C7D5E4"/>
			<stop  offset="0.2" style="stop-color:#FFFFFF"/>
			<stop  offset="0.8" style="stop-color:#FFFFFF"/>
			<stop  offset="1" style="stop-color:#C7D5E4"/>
		</linearGradient>
		<line class="st3" x1="46.3" y1="39.4" x2="-63.6" y2="149.3"/>
		
			<linearGradient id="SVGID_4_" gradientUnits="userSpaceOnUse" x1="201.1608" y1="-163.6969" x2="311.0193" y2="-163.6969" gradientTransform="matrix(0 1 1 0 161.75 -161.75)">
			<stop  offset="0" style="stop-color:#C7D5E4"/>
			<stop  offset="0.2" style="stop-color:#FFFFFF"/>
			<stop  offset="0.8" style="stop-color:#FFFFFF"/>
			<stop  offset="1" style="stop-color:#C7D5E4"/>
		</linearGradient>
		<line class="st4" x1="53" y1="39.4" x2="-56.9" y2="149.3"/>
		
			<linearGradient id="SVGID_5_" gradientUnits="userSpaceOnUse" x1="201.1608" y1="-156.9967" x2="311.0193" y2="-156.9967" gradientTransform="matrix(0 1 1 0 161.75 -161.75)">
			<stop  offset="0" style="stop-color:#C7D5E4"/>
			<stop  offset="0.2" style="stop-color:#FFFFFF"/>
			<stop  offset="0.8" style="stop-color:#FFFFFF"/>
			<stop  offset="1" style="stop-color:#C7D5E4"/>
		</linearGradient>
		<line class="st5" x1="59.7" y1="39.4" x2="-50.2" y2="149.3"/>
		
			<linearGradient id="SVGID_6_" gradientUnits="userSpaceOnUse" x1="201.1608" y1="-150.2966" x2="311.0193" y2="-150.2966" gradientTransform="matrix(0 1 1 0 161.75 -161.75)">
			<stop  offset="0" style="stop-color:#C7D5E4"/>
			<stop  offset="0.2" style="stop-color:#FFFFFF"/>
			<stop  offset="0.8" style="stop-color:#FFFFFF"/>
			<stop  offset="1" style="stop-color:#C7D5E4"/>
		</linearGradient>
		<line class="st6" x1="66.4" y1="39.4" x2="-43.5" y2="149.3"/>
		
			<linearGradient id="SVGID_7_" gradientUnits="userSpaceOnUse" x1="201.1608" y1="-143.5975" x2="311.0193" y2="-143.5975" gradientTransform="matrix(0 1 1 0 161.75 -161.75)">
			<stop  offset="0" style="stop-color:#C7D5E4"/>
			<stop  offset="0.2" style="stop-color:#FFFFFF"/>
			<stop  offset="0.8" style="stop-color:#FFFFFF"/>
			<stop  offset="1" style="stop-color:#C7D5E4"/>
		</linearGradient>
		<line class="st7" x1="73.1" y1="39.4" x2="-36.8" y2="149.3"/>
		
			<linearGradient id="SVGID_8_" gradientUnits="userSpaceOnUse" x1="201.1608" y1="-136.8981" x2="311.0193" y2="-136.8981" gradientTransform="matrix(0 1 1 0 161.75 -161.75)">
			<stop  offset="0" style="stop-color:#C7D5E4"/>
			<stop  offset="0.2" style="stop-color:#FFFFFF"/>
			<stop  offset="0.8" style="stop-color:#FFFFFF"/>
			<stop  offset="1" style="stop-color:#C7D5E4"/>
		</linearGradient>
		<line class="st8" x1="79.8" y1="39.4" x2="-30.1" y2="149.3"/>
		
			<linearGradient id="SVGID_9_" gradientUnits="userSpaceOnUse" x1="201.1608" y1="-130.199" x2="311.0193" y2="-130.199" gradientTransform="matrix(0 1 1 0 161.75 -161.75)">
			<stop  offset="0" style="stop-color:#C7D5E4"/>
			<stop  offset="0.2" style="stop-color:#FFFFFF"/>
			<stop  offset="0.8" style="stop-color:#FFFFFF"/>
			<stop  offset="1" style="stop-color:#C7D5E4"/>
		</linearGradient>
		<line class="st9" x1="86.5" y1="39.4" x2="-23.4" y2="149.3"/>
		
			<linearGradient id="SVGID_10_" gradientUnits="userSpaceOnUse" x1="201.1608" y1="-123.4989" x2="311.0193" y2="-123.4989" gradientTransform="matrix(0 1 1 0 161.75 -161.75)">
			<stop  offset="0" style="stop-color:#C7D5E4"/>
			<stop  offset="0.2" style="stop-color:#FFFFFF"/>
			<stop  offset="0.8" style="stop-color:#FFFFFF"/>
			<stop  offset="1" style="stop-color:#C7D5E4"/>
		</linearGradient>
		<line class="st10" x1="93.2" y1="39.4" x2="-16.7" y2="149.3"/>
		
			<linearGradient id="SVGID_11_" gradientUnits="userSpaceOnUse" x1="201.1608" y1="-116.7987" x2="311.0193" y2="-116.7987" gradientTransform="matrix(0 1 1 0 161.75 -161.75)">
			<stop  offset="0" style="stop-color:#C7D5E4"/>
			<stop  offset="0.2" style="stop-color:#FFFFFF"/>
			<stop  offset="0.8" style="stop-color:#FFFFFF"/>
			<stop  offset="1" style="stop-color:#C7D5E4"/>
		</linearGradient>
		<line class="st11" x1="99.9" y1="39.4" x2="-10" y2="149.3"/>
		
			<linearGradient id="SVGID_12_" gradientUnits="userSpaceOnUse" x1="201.1608" y1="-110.0997" x2="311.0193" y2="-110.0997" gradientTransform="matrix(0 1 1 0 161.75 -161.75)">
			<stop  offset="0" style="stop-color:#C7D5E4"/>
			<stop  offset="0.2" style="stop-color:#FFFFFF"/>
			<stop  offset="0.8" style="stop-color:#FFFFFF"/>
			<stop  offset="1" style="stop-color:#C7D5E4"/>
		</linearGradient>
		<line class="st12" x1="106.6" y1="39.4" x2="-3.3" y2="149.3"/>
		
			<linearGradient id="SVGID_13_" gradientUnits="userSpaceOnUse" x1="201.1608" y1="-103.4002" x2="311.0193" y2="-103.4002" gradientTransform="matrix(0 1 1 0 161.75 -161.75)">
			<stop  offset="0" style="stop-color:#C7D5E4"/>
			<stop  offset="0.2" style="stop-color:#FFFFFF"/>
			<stop  offset="0.8" style="stop-color:#FFFFFF"/>
			<stop  offset="1" style="stop-color:#C7D5E4"/>
		</linearGradient>
		<line class="st13" x1="113.3" y1="39.4" x2="3.4" y2="149.3"/>
		
			<linearGradient id="SVGID_14_" gradientUnits="userSpaceOnUse" x1="201.1608" y1="-96.7001" x2="311.0193" y2="-96.7001" gradientTransform="matrix(0 1 1 0 161.75 -161.75)">
			<stop  offset="0" style="stop-color:#C7D5E4"/>
			<stop  offset="0.2" style="stop-color:#FFFFFF"/>
			<stop  offset="0.8" style="stop-color:#FFFFFF"/>
			<stop  offset="1" style="stop-color:#C7D5E4"/>
		</linearGradient>
		<line class="st14" x1="120" y1="39.4" x2="10.1" y2="149.3"/>
		
			<linearGradient id="SVGID_15_" gradientUnits="userSpaceOnUse" x1="201.1608" y1="-90.001" x2="311.0193" y2="-90.001" gradientTransform="matrix(0 1 1 0 161.75 -161.75)">
			<stop  offset="0" style="stop-color:#C7D5E4"/>
			<stop  offset="0.2" style="stop-color:#FFFFFF"/>
			<stop  offset="0.8" style="stop-color:#FFFFFF"/>
			<stop  offset="1" style="stop-color:#C7D5E4"/>
		</linearGradient>
		<line class="st15" x1="126.7" y1="39.4" x2="16.8" y2="149.3"/>
	</g>
</g>
</svg>
