<?xml version="1.0" encoding="utf-8"?>
<!-- Generator: Adobe Illustrator 21.1.0, SVG Export Plug-In . SVG Version: 6.00 Build 0)  -->
<svg version="1.1" id="Layer_1" xmlns="http://www.w3.org/2000/svg" xmlns:xlink="http://www.w3.org/1999/xlink" x="0px" y="0px"
	 width="108px" height="108px" viewBox="0 0 108 108" style="enable-background:new 0 0 108 108;" xml:space="preserve">
<style type="text/css">
	.st0{fill:#FFFFFF;stroke:#231F20;stroke-width:0.75;}
	.st1{fill:#CCCCCC;stroke:#231F20;stroke-width:0.75;}
	.st2{clip-path:url(#SVGID_2_);}
	.st3{fill:url(#SVGID_3_);stroke:#231F20;stroke-width:0.7062;}
	.st4{fill:url(#SVGID_4_);stroke:#231F20;stroke-width:0.7062;}
	.st5{fill:url(#SVGID_5_);stroke:#231F20;stroke-width:0.7062;}
	.st6{fill:url(#SVGID_6_);stroke:#231F20;stroke-width:0.7062;}
	.st7{fill:url(#SVGID_7_);stroke:#231F20;stroke-width:0.7062;}
	.st8{fill:url(#SVGID_8_);stroke:#231F20;stroke-width:0.7062;}
	.st9{fill:url(#SVGID_9_);stroke:#231F20;stroke-width:0.7062;}
	.st10{fill:url(#SVGID_10_);stroke:#231F20;stroke-width:0.7062;}
	.st11{fill:url(#SVGID_11_);stroke:#231F20;stroke-width:0.7062;}
	.st12{fill:url(#SVGID_12_);stroke:#231F20;stroke-width:0.7062;}
	.st13{fill:url(#SVGID_13_);stroke:#231F20;stroke-width:0.7062;}
	.st14{fill:url(#SVGID_14_);stroke:#231F20;stroke-width:0.7062;}
	.st15{fill:url(#SVGID_15_);stroke:#231F20;stroke-width:0.7062;}
	.st16{fill:url(#SVGID_16_);stroke:#231F20;stroke-width:0.7062;}
	.st17{fill:url(#SVGID_17_);stroke:#231F20;stroke-width:0.7062;}
</style>
<g>
	<g>
		<path class="st0" d="M81,61.8c-3.6-1.4-4.7-2.2-10.2-4.2c-9.7-3.9-29.2-8.4-27-20.9c1-5.7,3.4-10.3,10.1-10.3c6.7,0,9.3,5,9.3,9.1
			c0,5.5,1.8,10.6,9.2,10.5c4.9-0.1,7.9-2.6,8.3-4.3c0.5-2.4,1.3-25.9,0.7-28.3c0-2.5-2.5-6.4-4.1-6.4H29.9c-1.7,0-4.3,3.2-4.3,6.8
			c-2.3,45.6,2.5,80,2.6,80.9s1,5.7,3,5.7l48.9,0.1c1.7,0,3-2.6,3-5.7c0,0-0.2-28.3-0.1-29C83.1,65.2,82.7,62.7,81,61.8z"/>
		<path class="st1" d="M25.6,66.3c0.9,17.2,2.4,28,2.5,28.5c0.1,0.9,1,5.7,3,5.7l48.9,0.1c1.7,0,3-2.6,3-5.7c0,0-0.2-27.8-0.1-28.5
			C76.6,66.3,39,66.2,25.6,66.3z"/>
		<g>
			<defs>
				<path id="SVGID_1_" d="M25.6,66.7c0.9,17.2,2.4,28,2.5,28.5c0.1,0.9,1,5.7,3,5.7l48.9,0.1c1.7,0,3-2.6,3-5.7
					c0,0-0.2-27.8-0.1-28.5C76.6,66.7,39,66.5,25.6,66.7z"/>
			</defs>
			<clipPath id="SVGID_2_">
				<use xlink:href="#SVGID_1_"  style="overflow:visible;"/>
			</clipPath>
			<g class="st2">
				
					<linearGradient id="SVGID_3_" gradientUnits="userSpaceOnUse" x1="218.1824" y1="-188.985" x2="331.6931" y2="-188.985" gradientTransform="matrix(0 1 1 0 161.75 -161.75)">
					<stop  offset="0" style="stop-color:#C7D5E4"/>
					<stop  offset="0.2" style="stop-color:#FFFFFF"/>
					<stop  offset="0.8" style="stop-color:#FFFFFF"/>
					<stop  offset="1" style="stop-color:#C7D5E4"/>
				</linearGradient>
				<line class="st3" x1="29.5" y1="56.4" x2="-84" y2="169.9"/>
				
					<linearGradient id="SVGID_4_" gradientUnits="userSpaceOnUse" x1="218.1824" y1="-182.0625" x2="331.6931" y2="-182.0625" gradientTransform="matrix(0 1 1 0 161.75 -161.75)">
					<stop  offset="0" style="stop-color:#C7D5E4"/>
					<stop  offset="0.2" style="stop-color:#FFFFFF"/>
					<stop  offset="0.8" style="stop-color:#FFFFFF"/>
					<stop  offset="1" style="stop-color:#C7D5E4"/>
				</linearGradient>
				<line class="st4" x1="36.4" y1="56.4" x2="-77.1" y2="169.9"/>
				
					<linearGradient id="SVGID_5_" gradientUnits="userSpaceOnUse" x1="218.1824" y1="-175.1408" x2="331.6931" y2="-175.1408" gradientTransform="matrix(0 1 1 0 161.75 -161.75)">
					<stop  offset="0" style="stop-color:#C7D5E4"/>
					<stop  offset="0.2" style="stop-color:#FFFFFF"/>
					<stop  offset="0.8" style="stop-color:#FFFFFF"/>
					<stop  offset="1" style="stop-color:#C7D5E4"/>
				</linearGradient>
				<line class="st5" x1="43.4" y1="56.4" x2="-70.1" y2="169.9"/>
				
					<linearGradient id="SVGID_6_" gradientUnits="userSpaceOnUse" x1="218.1824" y1="-168.2179" x2="331.6931" y2="-168.2179" gradientTransform="matrix(0 1 1 0 161.75 -161.75)">
					<stop  offset="0" style="stop-color:#C7D5E4"/>
					<stop  offset="0.2" style="stop-color:#FFFFFF"/>
					<stop  offset="0.8" style="stop-color:#FFFFFF"/>
					<stop  offset="1" style="stop-color:#C7D5E4"/>
				</linearGradient>
				<line class="st6" x1="50.3" y1="56.4" x2="-63.2" y2="169.9"/>
				
					<linearGradient id="SVGID_7_" gradientUnits="userSpaceOnUse" x1="218.1824" y1="-161.2946" x2="331.6931" y2="-161.2946" gradientTransform="matrix(0 1 1 0 161.75 -161.75)">
					<stop  offset="0" style="stop-color:#C7D5E4"/>
					<stop  offset="0.2" style="stop-color:#FFFFFF"/>
					<stop  offset="0.8" style="stop-color:#FFFFFF"/>
					<stop  offset="1" style="stop-color:#C7D5E4"/>
				</linearGradient>
				<line class="st7" x1="57.2" y1="56.4" x2="-56.3" y2="169.9"/>
				
					<linearGradient id="SVGID_8_" gradientUnits="userSpaceOnUse" x1="218.1824" y1="-154.3729" x2="331.6931" y2="-154.3729" gradientTransform="matrix(0 1 1 0 161.75 -161.75)">
					<stop  offset="0" style="stop-color:#C7D5E4"/>
					<stop  offset="0.2" style="stop-color:#FFFFFF"/>
					<stop  offset="0.8" style="stop-color:#FFFFFF"/>
					<stop  offset="1" style="stop-color:#C7D5E4"/>
				</linearGradient>
				<line class="st8" x1="64.1" y1="56.4" x2="-49.4" y2="169.9"/>
				
					<linearGradient id="SVGID_9_" gradientUnits="userSpaceOnUse" x1="218.1824" y1="-147.4508" x2="331.6931" y2="-147.4508" gradientTransform="matrix(0 1 1 0 161.75 -161.75)">
					<stop  offset="0" style="stop-color:#C7D5E4"/>
					<stop  offset="0.2" style="stop-color:#FFFFFF"/>
					<stop  offset="0.8" style="stop-color:#FFFFFF"/>
					<stop  offset="1" style="stop-color:#C7D5E4"/>
				</linearGradient>
				<line class="st9" x1="71.1" y1="56.4" x2="-42.5" y2="169.9"/>
				
					<linearGradient id="SVGID_10_" gradientUnits="userSpaceOnUse" x1="218.1824" y1="-140.5287" x2="331.6931" y2="-140.5287" gradientTransform="matrix(0 1 1 0 161.75 -161.75)">
					<stop  offset="0" style="stop-color:#C7D5E4"/>
					<stop  offset="0.2" style="stop-color:#FFFFFF"/>
					<stop  offset="0.8" style="stop-color:#FFFFFF"/>
					<stop  offset="1" style="stop-color:#C7D5E4"/>
				</linearGradient>
				<line class="st10" x1="78" y1="56.4" x2="-35.5" y2="169.9"/>
				
					<linearGradient id="SVGID_11_" gradientUnits="userSpaceOnUse" x1="218.1824" y1="-133.6062" x2="331.6931" y2="-133.6062" gradientTransform="matrix(0 1 1 0 161.75 -161.75)">
					<stop  offset="0" style="stop-color:#C7D5E4"/>
					<stop  offset="0.2" style="stop-color:#FFFFFF"/>
					<stop  offset="0.8" style="stop-color:#FFFFFF"/>
					<stop  offset="1" style="stop-color:#C7D5E4"/>
				</linearGradient>
				<line class="st11" x1="84.9" y1="56.4" x2="-28.6" y2="169.9"/>
				
					<linearGradient id="SVGID_12_" gradientUnits="userSpaceOnUse" x1="218.1824" y1="-126.6833" x2="331.6931" y2="-126.6833" gradientTransform="matrix(0 1 1 0 161.75 -161.75)">
					<stop  offset="0" style="stop-color:#C7D5E4"/>
					<stop  offset="0.2" style="stop-color:#FFFFFF"/>
					<stop  offset="0.8" style="stop-color:#FFFFFF"/>
					<stop  offset="1" style="stop-color:#C7D5E4"/>
				</linearGradient>
				<line class="st12" x1="91.8" y1="56.4" x2="-21.7" y2="169.9"/>
				
					<linearGradient id="SVGID_13_" gradientUnits="userSpaceOnUse" x1="218.1824" y1="-119.7616" x2="331.6931" y2="-119.7616" gradientTransform="matrix(0 1 1 0 161.75 -161.75)">
					<stop  offset="0" style="stop-color:#C7D5E4"/>
					<stop  offset="0.2" style="stop-color:#FFFFFF"/>
					<stop  offset="0.8" style="stop-color:#FFFFFF"/>
					<stop  offset="1" style="stop-color:#C7D5E4"/>
				</linearGradient>
				<line class="st13" x1="98.7" y1="56.4" x2="-14.8" y2="169.9"/>
				
					<linearGradient id="SVGID_14_" gradientUnits="userSpaceOnUse" x1="218.1824" y1="-112.8391" x2="331.6931" y2="-112.8391" gradientTransform="matrix(0 1 1 0 161.75 -161.75)">
					<stop  offset="0" style="stop-color:#C7D5E4"/>
					<stop  offset="0.2" style="stop-color:#FFFFFF"/>
					<stop  offset="0.8" style="stop-color:#FFFFFF"/>
					<stop  offset="1" style="stop-color:#C7D5E4"/>
				</linearGradient>
				<line class="st14" x1="105.7" y1="56.4" x2="-7.8" y2="169.9"/>
				
					<linearGradient id="SVGID_15_" gradientUnits="userSpaceOnUse" x1="218.1824" y1="-105.9162" x2="331.6931" y2="-105.9162" gradientTransform="matrix(0 1 1 0 161.75 -161.75)">
					<stop  offset="0" style="stop-color:#C7D5E4"/>
					<stop  offset="0.2" style="stop-color:#FFFFFF"/>
					<stop  offset="0.8" style="stop-color:#FFFFFF"/>
					<stop  offset="1" style="stop-color:#C7D5E4"/>
				</linearGradient>
				<line class="st15" x1="112.6" y1="56.4" x2="-0.9" y2="169.9"/>
				
					<linearGradient id="SVGID_16_" gradientUnits="userSpaceOnUse" x1="218.1824" y1="-98.9945" x2="331.6931" y2="-98.9945" gradientTransform="matrix(0 1 1 0 161.75 -161.75)">
					<stop  offset="0" style="stop-color:#C7D5E4"/>
					<stop  offset="0.2" style="stop-color:#FFFFFF"/>
					<stop  offset="0.8" style="stop-color:#FFFFFF"/>
					<stop  offset="1" style="stop-color:#C7D5E4"/>
				</linearGradient>
				<line class="st16" x1="119.5" y1="56.4" x2="6" y2="169.9"/>
				
					<linearGradient id="SVGID_17_" gradientUnits="userSpaceOnUse" x1="218.1824" y1="-92.0712" x2="331.6931" y2="-92.0712" gradientTransform="matrix(0 1 1 0 161.75 -161.75)">
					<stop  offset="0" style="stop-color:#C7D5E4"/>
					<stop  offset="0.2" style="stop-color:#FFFFFF"/>
					<stop  offset="0.8" style="stop-color:#FFFFFF"/>
					<stop  offset="1" style="stop-color:#C7D5E4"/>
				</linearGradient>
				<line class="st17" x1="126.4" y1="56.4" x2="12.9" y2="169.9"/>
			</g>
		</g>
	</g>
</g>
</svg>
