<?xml version="1.0" encoding="utf-8"?>
<!-- Generator: Adobe Illustrator 21.1.0, SVG Export Plug-In . SVG Version: 6.00 Build 0)  -->
<svg version="1.1" id="Layer_1" xmlns="http://www.w3.org/2000/svg" xmlns:xlink="http://www.w3.org/1999/xlink" x="0px" y="0px"
	 width="108px" height="108px" viewBox="0 0 108 108" style="enable-background:new 0 0 108 108;" xml:space="preserve">
<style type="text/css">
	.st0{fill:url(#SVGID_1_);}
	.st1{fill:none;stroke:#231F20;stroke-width:0.75;stroke-dasharray:6,2;}
	.st2{fill:url(#SVGID_2_);}
	.st3{fill:#FFFFFF;stroke:#231F20;stroke-width:0.75;}
	.st4{fill:none;stroke:#231F20;stroke-width:0.75;}
	.st5{clip-path:url(#SVGID_4_);}
	.st6{clip-path:url(#SVGID_6_);}
	.st7{fill:none;stroke:#000000;stroke-width:0.75;stroke-linecap:round;stroke-linejoin:round;}
	.st8{fill:none;stroke:#000000;stroke-width:0.75;stroke-linecap:round;stroke-linejoin:round;stroke-dasharray:3.9288,3.9288;}
</style>
<g>
	<linearGradient id="SVGID_1_" gradientUnits="userSpaceOnUse" x1="53.9894" y1="7.696" x2="53.9894" y2="26.5147">
		<stop  offset="0" style="stop-color:#C6D5ED"/>
		<stop  offset="0.2" style="stop-color:#FFFFFF"/>
		<stop  offset="0.8" style="stop-color:#FFFFFF"/>
		<stop  offset="1" style="stop-color:#C6D5ED"/>
	</linearGradient>
	<path class="st0" d="M87.2,5.7H20.8c-1.7,0-3,1.4-3,3v21.1h72.5V8.7C90.2,7,88.9,5.7,87.2,5.7z"/>
	<line class="st1" x1="30.2" y1="68.4" x2="78.3" y2="68.4"/>
	<linearGradient id="SVGID_2_" gradientUnits="userSpaceOnUse" x1="53.9894" y1="80.205" x2="53.9894" y2="99.0231">
		<stop  offset="0" style="stop-color:#C6D5ED"/>
		<stop  offset="0.2" style="stop-color:#FFFFFF"/>
		<stop  offset="0.8" style="stop-color:#FFFFFF"/>
		<stop  offset="1" style="stop-color:#C6D5ED"/>
	</linearGradient>
	<rect x="17.7" y="78.2" class="st2" width="72.5" height="24.2"/>
	<path class="st3" d="M87.2,5.7H20.8c-1.7,0-3,1.4-3,3v93.7h72.5V8.7C90.2,7,88.9,5.7,87.2,5.7z M72.6,53.4H35.4
		c0,0-4.6,0.8-4.6-3.3c0-4.1,3.5-4.8,3.5-4.8L54,38.1l19.8,7.2c0,0,3.5,0.7,3.5,4.8C77.3,54.2,72.6,53.4,72.6,53.4z"/>
	<path class="st4" d="M85.7,65.9c0,1.3-1.1,2.4-2.4,2.4S81,67.2,81,65.9V38.7c0-2.5-2-4.5-4.5-4.5H31.2c-2.5,0-4.5,2-4.5,4.5v27.2
		c0,1.3-1.1,2.4-2.4,2.4c-1.3,0-2.4-1.1-2.4-2.4"/>
	<g>
		<defs>
			<path id="SVGID_3_" d="M87.2,5.7H20.8c-1.7,0-3,1.4-3,3v21.1h72.5V8.7C90.3,7,88.9,5.7,87.2,5.7z"/>
		</defs>
		<use xlink:href="#SVGID_3_"  style="overflow:visible;fill:#CCCCCC;"/>
		<clipPath id="SVGID_4_">
			<use xlink:href="#SVGID_3_"  style="overflow:visible;"/>
		</clipPath>
		<g class="st5">
			<line class="st4" x1="104.8" y1="2.1" x2="69.4" y2="37.4"/>
			<line class="st4" x1="108.4" y1="2.1" x2="73.1" y2="37.4"/>
			<line class="st4" x1="112.1" y1="2.1" x2="76.8" y2="37.4"/>
			<line class="st4" x1="115.7" y1="2.1" x2="80.4" y2="37.4"/>
			<line class="st4" x1="119.4" y1="2.1" x2="84.1" y2="37.4"/>
			<line class="st4" x1="16.9" y1="2.1" x2="-18.4" y2="37.4"/>
			<line class="st4" x1="20.6" y1="2.1" x2="-14.8" y2="37.4"/>
			<line class="st4" x1="24.2" y1="2.1" x2="-11.1" y2="37.4"/>
			<line class="st4" x1="27.9" y1="2.1" x2="-7.4" y2="37.4"/>
			<line class="st4" x1="31.5" y1="2.1" x2="-3.8" y2="37.4"/>
			<line class="st4" x1="35.2" y1="2.1" x2="-0.1" y2="37.4"/>
			<line class="st4" x1="38.9" y1="2.1" x2="3.5" y2="37.4"/>
			<line class="st4" x1="42.5" y1="2.1" x2="7.2" y2="37.4"/>
			<line class="st4" x1="46.2" y1="2.1" x2="10.9" y2="37.4"/>
			<line class="st4" x1="49.9" y1="2.1" x2="14.5" y2="37.4"/>
			<line class="st4" x1="53.5" y1="2.1" x2="18.2" y2="37.4"/>
			<line class="st4" x1="57.2" y1="2.1" x2="21.8" y2="37.4"/>
			<line class="st4" x1="60.8" y1="2.1" x2="25.5" y2="37.4"/>
			<line class="st4" x1="64.5" y1="2.1" x2="29.2" y2="37.4"/>
			<line class="st4" x1="68.2" y1="2.1" x2="32.8" y2="37.4"/>
			<line class="st4" x1="71.8" y1="2.1" x2="36.5" y2="37.4"/>
			<line class="st4" x1="75.5" y1="2.1" x2="40.1" y2="37.4"/>
			<line class="st4" x1="79.1" y1="2.1" x2="43.8" y2="37.4"/>
			<line class="st4" x1="82.8" y1="2.1" x2="47.5" y2="37.4"/>
			<line class="st4" x1="86.5" y1="2.1" x2="51.1" y2="37.4"/>
			<line class="st4" x1="90.1" y1="2.1" x2="54.8" y2="37.4"/>
			<line class="st4" x1="93.8" y1="2.1" x2="58.5" y2="37.4"/>
			<line class="st4" x1="97.4" y1="2.1" x2="62.1" y2="37.4"/>
			<line class="st4" x1="101.1" y1="2.1" x2="65.8" y2="37.4"/>
		</g>
		<use xlink:href="#SVGID_3_"  style="overflow:visible;fill:none;stroke:#231F20;stroke-width:0.75;"/>
	</g>
	<g>
		<defs>
			<rect id="SVGID_5_" x="17.8" y="78.2" width="72.5" height="24.2"/>
		</defs>
		<use xlink:href="#SVGID_5_"  style="overflow:visible;fill:#CCCCCC;"/>
		<clipPath id="SVGID_6_">
			<use xlink:href="#SVGID_5_"  style="overflow:visible;"/>
		</clipPath>
		<g class="st6">
			<line class="st4" x1="104.8" y1="76" x2="69.4" y2="111.4"/>
			<line class="st4" x1="108.4" y1="76" x2="73.1" y2="111.4"/>
			<line class="st4" x1="112.1" y1="76" x2="76.8" y2="111.4"/>
			<line class="st4" x1="115.7" y1="76" x2="80.4" y2="111.4"/>
			<line class="st4" x1="119.4" y1="76" x2="84.1" y2="111.4"/>
			<line class="st4" x1="16.9" y1="76" x2="-18.4" y2="111.4"/>
			<line class="st4" x1="20.6" y1="76" x2="-14.8" y2="111.4"/>
			<line class="st4" x1="24.2" y1="76" x2="-11.1" y2="111.4"/>
			<line class="st4" x1="27.9" y1="76" x2="-7.4" y2="111.4"/>
			<line class="st4" x1="31.5" y1="76" x2="-3.8" y2="111.4"/>
			<line class="st4" x1="35.2" y1="76" x2="-0.1" y2="111.4"/>
			<line class="st4" x1="38.9" y1="76" x2="3.5" y2="111.4"/>
			<line class="st4" x1="42.5" y1="76" x2="7.2" y2="111.4"/>
			<line class="st4" x1="46.2" y1="76" x2="10.9" y2="111.4"/>
			<line class="st4" x1="49.9" y1="76" x2="14.5" y2="111.4"/>
			<line class="st4" x1="53.5" y1="76" x2="18.2" y2="111.4"/>
			<line class="st4" x1="57.2" y1="76" x2="21.8" y2="111.4"/>
			<line class="st4" x1="60.8" y1="76" x2="25.5" y2="111.4"/>
			<line class="st4" x1="64.5" y1="76" x2="29.2" y2="111.4"/>
			<line class="st4" x1="68.2" y1="76" x2="32.8" y2="111.4"/>
			<line class="st4" x1="71.8" y1="76" x2="36.5" y2="111.4"/>
			<line class="st4" x1="75.5" y1="76" x2="40.1" y2="111.4"/>
			<line class="st4" x1="79.1" y1="76" x2="43.8" y2="111.4"/>
			<line class="st4" x1="82.8" y1="76" x2="47.5" y2="111.4"/>
			<line class="st4" x1="86.5" y1="76" x2="51.1" y2="111.4"/>
			<line class="st4" x1="90.1" y1="76" x2="54.8" y2="111.4"/>
			<line class="st4" x1="93.8" y1="76" x2="58.5" y2="111.4"/>
			<line class="st4" x1="97.4" y1="76" x2="62.1" y2="111.4"/>
			<line class="st4" x1="101.1" y1="76" x2="65.8" y2="111.4"/>
		</g>
		<use xlink:href="#SVGID_5_"  style="overflow:visible;fill:none;stroke:#231F20;stroke-width:0.75;"/>
	</g>
</g>
<g>
	<g>
		<line class="st7" x1="30.2" y1="68.2" x2="32.2" y2="68.2"/>
		<line class="st8" x1="36.2" y1="68.2" x2="73.5" y2="68.2"/>
		<line class="st7" x1="75.4" y1="68.2" x2="77.4" y2="68.2"/>
	</g>
</g>
</svg>
