<?xml version="1.0" encoding="utf-8"?>
<!-- Generator: Adobe Illustrator 21.1.0, SVG Export Plug-In . SVG Version: 6.00 Build 0)  -->
<svg version="1.1" id="Layer_1" xmlns="http://www.w3.org/2000/svg" xmlns:xlink="http://www.w3.org/1999/xlink" x="0px" y="0px"
	 width="108px" height="108px" viewBox="0 0 108 108" style="enable-background:new 0 0 108 108;" xml:space="preserve">
<style type="text/css">
	.st0{fill:#FFFFFF;stroke:#000000;stroke-width:0.75;stroke-linecap:round;stroke-linejoin:round;stroke-miterlimit:10;}
	.st1{fill:none;stroke:#000000;stroke-width:0.75;stroke-linecap:round;stroke-linejoin:round;stroke-miterlimit:10;}
	.st2{clip-path:url(#SVGID_2_);}
	.st3{clip-path:url(#SVGID_4_);}
	.st4{fill:none;stroke:#000000;stroke-width:0.75;stroke-linecap:round;stroke-linejoin:round;}
	.st5{fill:none;stroke:#000000;stroke-width:0.75;stroke-linecap:round;stroke-linejoin:round;stroke-dasharray:3.8035,3.8035;}
</style>
<g>
	<path class="st0" d="M105,21.8c-9.8,0-78.8,0-102,0v-4.5c0-2.7,2.7-4.8,6.1-4.8h89.8c3.4,0,6.1,2.2,6.1,4.8V21.8z"/>
	<path class="st0" d="M105,88.9c0,2.7-2.7,4.8-6.1,4.8l-46.4,1.8L9.1,93.7c-3.4,0-6.1-2.2-6.1-4.8v-13c17.3,0,95.4,0,102,0V88.9z"/>
	<line class="st1" x1="3.3" y1="21.9" x2="105" y2="21.9"/>
	<line class="st1" x1="3.3" y1="76" x2="105" y2="76"/>
	<path class="st0" d="M98.9,12.5H9.1c-3.4,0-6.1,2.2-6.1,4.8v71.6c0,2.7,2.7,4.8,6.1,4.8l43.5,1.8l46.3-1.8c3.4,0,6.1-2.2,6.1-4.8
		V17.3C105,14.6,102.3,12.5,98.9,12.5z M33.4,38.4h14c0.1-3.4,2.8-6.1,6.2-6.1c3.4,0,6.1,2.7,6.2,6.1h14.1c2.3,0,4.1,1.9,4.1,4.3
		s-1.8,4.3-4.1,4.3H33.4c-2.3,0-4.1-1.9-4.1-4.3S31.1,38.4,33.4,38.4z"/>
	<g>
		<defs>
			<path id="SVGID_1_" d="M105,21.8c-9.8,0-78.8,0-102,0v-4.5c0-2.7,2.7-4.8,6.1-4.8h89.8c3.4,0,6.1,2.2,6.1,4.8V21.8z"/>
		</defs>
		<use xlink:href="#SVGID_1_"  style="overflow:visible;fill:#CCCCCC;"/>
		<clipPath id="SVGID_2_">
			<use xlink:href="#SVGID_1_"  style="overflow:visible;"/>
		</clipPath>
		<g class="st2">
			<line class="st0" x1="12" y1="9.7" x2="-10.1" y2="31.8"/>
			<line class="st0" x1="17" y1="9.7" x2="-5.1" y2="31.8"/>
			<line class="st0" x1="21.9" y1="9.7" x2="-0.2" y2="31.8"/>
			<line class="st0" x1="26.8" y1="9.7" x2="4.7" y2="31.8"/>
			<line class="st0" x1="31.8" y1="9.7" x2="9.6" y2="31.8"/>
			<line class="st0" x1="36.7" y1="9.7" x2="14.6" y2="31.8"/>
			<line class="st0" x1="41.6" y1="9.7" x2="19.5" y2="31.8"/>
			<line class="st0" x1="46.5" y1="9.7" x2="24.4" y2="31.8"/>
			<line class="st0" x1="51.5" y1="9.7" x2="29.4" y2="31.8"/>
			<line class="st0" x1="56.4" y1="9.7" x2="34.3" y2="31.8"/>
			<line class="st0" x1="61.3" y1="9.7" x2="39.2" y2="31.8"/>
			<line class="st0" x1="66.2" y1="9.7" x2="44.1" y2="31.8"/>
			<line class="st0" x1="71.2" y1="9.7" x2="49.1" y2="31.8"/>
			<line class="st0" x1="76.1" y1="9.7" x2="54" y2="31.8"/>
			<line class="st0" x1="81" y1="9.7" x2="58.9" y2="31.8"/>
			<line class="st0" x1="86" y1="9.7" x2="63.9" y2="31.8"/>
			<line class="st0" x1="90.9" y1="9.7" x2="68.8" y2="31.8"/>
			<line class="st0" x1="95.8" y1="9.7" x2="73.7" y2="31.8"/>
			<line class="st0" x1="100.7" y1="9.7" x2="78.6" y2="31.8"/>
			<line class="st0" x1="105.7" y1="9.7" x2="83.6" y2="31.8"/>
			<line class="st0" x1="110.6" y1="9.7" x2="88.5" y2="31.8"/>
			<line class="st0" x1="115.5" y1="9.7" x2="93.4" y2="31.8"/>
		</g>
		
			<use xlink:href="#SVGID_1_"  style="overflow:visible;fill:none;stroke:#000000;stroke-width:0.75;stroke-linecap:round;stroke-linejoin:round;stroke-miterlimit:10;"/>
	</g>
	<g>
		<defs>
			<path id="SVGID_3_" d="M105,88.9c0,2.7-2.7,4.8-6.1,4.8l-46.4,1.8L9.1,93.7c-3.4,0-6.1-2.2-6.1-4.8v-13c17.3,0,95.4,0,102,0V88.9
				z"/>
		</defs>
		<use xlink:href="#SVGID_3_"  style="overflow:visible;fill:#CCCCCC;"/>
		<clipPath id="SVGID_4_">
			<use xlink:href="#SVGID_3_"  style="overflow:visible;"/>
		</clipPath>
		<g class="st3">
			<line class="st0" x1="7.1" y1="74.5" x2="-15" y2="96.6"/>
			<line class="st0" x1="12" y1="74.5" x2="-10.1" y2="96.6"/>
			<line class="st0" x1="17" y1="74.5" x2="-5.1" y2="96.6"/>
			<line class="st0" x1="21.9" y1="74.5" x2="-0.2" y2="96.6"/>
			<line class="st0" x1="26.8" y1="74.5" x2="4.7" y2="96.6"/>
			<line class="st0" x1="31.8" y1="74.5" x2="9.6" y2="96.6"/>
			<line class="st0" x1="36.7" y1="74.5" x2="14.6" y2="96.6"/>
			<line class="st0" x1="41.6" y1="74.5" x2="19.5" y2="96.6"/>
			<line class="st0" x1="46.5" y1="74.5" x2="24.4" y2="96.6"/>
			<line class="st0" x1="51.5" y1="74.5" x2="29.4" y2="96.6"/>
			<line class="st0" x1="56.4" y1="74.5" x2="34.3" y2="96.6"/>
			<line class="st0" x1="61.3" y1="74.5" x2="39.2" y2="96.6"/>
			<line class="st0" x1="66.2" y1="74.5" x2="44.1" y2="96.6"/>
			<line class="st0" x1="71.2" y1="74.5" x2="49.1" y2="96.6"/>
			<line class="st0" x1="76.1" y1="74.5" x2="54" y2="96.6"/>
			<line class="st0" x1="81" y1="74.5" x2="58.9" y2="96.6"/>
			<line class="st0" x1="86" y1="74.5" x2="63.9" y2="96.6"/>
			<line class="st0" x1="90.9" y1="74.5" x2="68.8" y2="96.6"/>
			<line class="st0" x1="95.8" y1="74.5" x2="73.7" y2="96.6"/>
			<line class="st0" x1="100.7" y1="74.5" x2="78.6" y2="96.6"/>
			<line class="st0" x1="105.7" y1="74.5" x2="83.6" y2="96.6"/>
			<line class="st0" x1="110.6" y1="74.5" x2="88.5" y2="96.6"/>
			<line class="st0" x1="115.5" y1="74.5" x2="93.4" y2="96.6"/>
			<line class="st0" x1="120.5" y1="74.5" x2="98.4" y2="96.6"/>
		</g>
		
			<use xlink:href="#SVGID_3_"  style="overflow:visible;fill:none;stroke:#000000;stroke-width:0.75;stroke-linecap:round;stroke-linejoin:round;stroke-miterlimit:10;"/>
	</g>
	<path class="st0" d="M84.2,21.9H22.9c-2.3,0-4.2,1.5-4.2,3.4v49.8h69.6V25.3C88.3,23.5,86.5,21.9,84.2,21.9z M74.1,46.9H33.4
		c-2.3,0-4.1-1.9-4.1-4.3s1.8-4.3,4.1-4.3h14c0.1-3.4,2.8-6.1,6.2-6.1c3.4,0,6.1,2.7,6.2,6.1h14.1c2.3,0,4.1,1.9,4.1,4.3
		S76.3,46.9,74.1,46.9z"/>
	<g>
		<g>
			<line class="st4" x1="27.1" y1="73.8" x2="29.1" y2="73.8"/>
			<line class="st5" x1="32.9" y1="73.8" x2="76.6" y2="73.8"/>
			<line class="st4" x1="78.5" y1="73.8" x2="80.5" y2="73.8"/>
		</g>
	</g>
</g>
</svg>
