<?xml version="1.0" encoding="utf-8"?>
<!-- Generator: Adobe Illustrator 21.1.0, SVG Export Plug-In . SVG Version: 6.00 Build 0)  -->
<svg version="1.1" id="Layer_1" xmlns="http://www.w3.org/2000/svg" xmlns:xlink="http://www.w3.org/1999/xlink" x="0px" y="0px"
	 width="108px" height="108px" viewBox="0 0 108 108" style="enable-background:new 0 0 108 108;" xml:space="preserve">
<style type="text/css">
	.st0{fill:#FFFFFF;stroke:#000000;stroke-width:0.75;stroke-linecap:round;stroke-linejoin:round;}
	.st1{fill:none;stroke:#000000;stroke-width:0.75;stroke-linecap:round;stroke-linejoin:round;}
	.st2{clip-path:url(#SVGID_2_);fill:none;stroke:#000000;stroke-width:0.75;stroke-linecap:round;stroke-linejoin:round;}
	.st3{clip-path:url(#SVGID_4_);fill:none;stroke:#000000;stroke-width:0.75;stroke-linecap:round;stroke-linejoin:round;}
</style>
<g>
	<g>
		<path class="st0" d="M90,87.9c0,2.3-1.9,4.2-4.3,4.2H22.1c-2.4,0-4.3-1.9-4.3-4.2V26.4c0-2.3,1.9-4.2,4.3-4.2h63.6
			c2.4,0,4.3,1.9,4.3,4.2V87.9z"/>
		<path class="st1" d="M30.9,75.4c1.2-0.1,4.2-1.6,4.5-2.5"/>
		<path class="st0" d="M36.6,56.1c2.7-1.1,8.7-1,13.4-4.5c3.8-2.9,12.4-8.9,10.7-18.4c-0.8-4.4-1.9-7.8-7-7.8c-5.1,0-7.1,3.8-7.1,7
			c0,4.2,0.4,10.9-5.3,10.8c-3.7-0.1-5.6-1.3-6.3-3.3c-0.7-1.7-1-17.4-0.5-19.3c0-1.9,1.9-4.9,3.2-4.9h32.1c1.3,0,3.3,2.4,3.3,5.2
			c0.9,19.2,0.5,53,0.5,53c0,2.4-1,4.4-2.3,4.4l-34,0c-1.3,0-2.3-2-2.3-4.4c0,0,0.1-14.1,0.1-14.6C35,58.7,35.3,56.8,36.6,56.1z"/>
		<g>
			<defs>
				<path id="SVGID_1_" d="M22.3,22.4c-2.4,0-4.3,1.9-4.3,4.2v61.6c0,2.3,1.9,4.2,4.3,4.2h12V22.4H22.3z"/>
			</defs>
			<use xlink:href="#SVGID_1_"  style="overflow:visible;fill:#CCCCCC;"/>
			<clipPath id="SVGID_2_">
				<use xlink:href="#SVGID_1_"  style="overflow:visible;"/>
			</clipPath>
			<line class="st2" x1="-4.1" y1="37.1" x2="46.2" y2="-13.2"/>
			<line class="st2" x1="-4.1" y1="42.4" x2="46.2" y2="-8"/>
			<line class="st2" x1="-4.1" y1="47.6" x2="46.2" y2="-2.8"/>
			<line class="st2" x1="-4.1" y1="52.8" x2="46.2" y2="2.5"/>
			<line class="st2" x1="-4.1" y1="58" x2="46.2" y2="7.7"/>
			<line class="st2" x1="-4.1" y1="63.2" x2="46.2" y2="12.9"/>
			<line class="st2" x1="-4.1" y1="68.4" x2="46.2" y2="18.1"/>
			<line class="st2" x1="-4.1" y1="73.7" x2="46.2" y2="23.3"/>
			<line class="st2" x1="-4.1" y1="78.9" x2="46.2" y2="28.5"/>
			<line class="st2" x1="-4.1" y1="84.1" x2="46.2" y2="33.8"/>
			<line class="st2" x1="-4.1" y1="89.3" x2="46.2" y2="39"/>
			<line class="st2" x1="-4.1" y1="94.5" x2="46.2" y2="44.2"/>
			<line class="st2" x1="-4.1" y1="99.7" x2="46.2" y2="49.4"/>
			<line class="st2" x1="-4.1" y1="105" x2="46.2" y2="54.6"/>
			<line class="st2" x1="-4.1" y1="110.2" x2="46.2" y2="59.8"/>
			<line class="st2" x1="-4.1" y1="115.4" x2="46.2" y2="65.1"/>
			<line class="st2" x1="-4.1" y1="120.6" x2="46.2" y2="70.3"/>
			<line class="st2" x1="-4.1" y1="125.8" x2="46.2" y2="75.5"/>
			<line class="st2" x1="-4.1" y1="131" x2="46.2" y2="80.7"/>
			<line class="st2" x1="-4.1" y1="136.3" x2="46.2" y2="85.9"/>
			
				<use xlink:href="#SVGID_1_"  style="overflow:visible;fill:none;stroke:#000000;stroke-width:0.75;stroke-linecap:round;stroke-linejoin:round;"/>
		</g>
		<g>
			<defs>
				<path id="SVGID_3_" d="M85.9,22.4H73.6v69.9h12.3c2.4,0,4.3-1.9,4.3-4.2V26.6C90.2,24.3,88.3,22.4,85.9,22.4z"/>
			</defs>
			<use xlink:href="#SVGID_3_"  style="overflow:visible;fill:#CCCCCC;"/>
			<clipPath id="SVGID_4_">
				<use xlink:href="#SVGID_3_"  style="overflow:visible;"/>
			</clipPath>
			<line class="st3" x1="51.8" y1="37.1" x2="102.1" y2="-13.2"/>
			<line class="st3" x1="51.8" y1="42.4" x2="102.1" y2="-8"/>
			<line class="st3" x1="51.8" y1="47.6" x2="102.1" y2="-2.8"/>
			<line class="st3" x1="51.8" y1="52.8" x2="102.1" y2="2.5"/>
			<line class="st3" x1="51.8" y1="58" x2="102.1" y2="7.7"/>
			<line class="st3" x1="51.8" y1="63.2" x2="102.1" y2="12.9"/>
			<line class="st3" x1="51.8" y1="68.4" x2="102.1" y2="18.1"/>
			<line class="st3" x1="51.8" y1="73.7" x2="102.1" y2="23.3"/>
			<line class="st3" x1="51.8" y1="78.9" x2="102.1" y2="28.5"/>
			<line class="st3" x1="51.8" y1="84.1" x2="102.1" y2="33.8"/>
			<line class="st3" x1="51.8" y1="89.3" x2="102.1" y2="39"/>
			<line class="st3" x1="51.8" y1="94.5" x2="102.1" y2="44.2"/>
			<line class="st3" x1="51.8" y1="99.7" x2="102.1" y2="49.4"/>
			<line class="st3" x1="51.8" y1="105" x2="102.1" y2="54.6"/>
			<line class="st3" x1="51.8" y1="110.2" x2="102.1" y2="59.8"/>
			<line class="st3" x1="51.8" y1="115.4" x2="102.1" y2="65.1"/>
			<line class="st3" x1="51.8" y1="120.6" x2="102.1" y2="70.3"/>
			<line class="st3" x1="51.8" y1="125.8" x2="102.1" y2="75.5"/>
			<line class="st3" x1="51.8" y1="131" x2="102.1" y2="80.7"/>
			<line class="st3" x1="51.8" y1="136.3" x2="102.1" y2="85.9"/>
			
				<use xlink:href="#SVGID_3_"  style="overflow:visible;fill:none;stroke:#000000;stroke-width:0.75;stroke-linecap:round;stroke-linejoin:round;"/>
		</g>
	</g>
	<path class="st0" d="M48.5,78.7c-0.8,0-1.4-0.6-1.4-1.4v-5.9c0-0.8,0.6-1.4,1.4-1.4H59c0.8,0,1.4,0.6,1.4,1.4v5.9
		c0,0.8-0.6,1.4-1.4,1.4"/>
</g>
</svg>
