<?xml version="1.0" encoding="utf-8"?>
<!-- Generator: Adobe Illustrator 21.1.0, SVG Export Plug-In . SVG Version: 6.00 Build 0)  -->
<svg version="1.1" id="Layer_1" xmlns="http://www.w3.org/2000/svg" xmlns:xlink="http://www.w3.org/1999/xlink" x="0px" y="0px"
	 width="108px" height="108px" viewBox="0 0 108 108" style="enable-background:new 0 0 108 108;" xml:space="preserve">
<style type="text/css">
	
		.st0{clip-path:url(#SVGID_2_);fill:#FFFFFF;stroke:#000000;stroke-width:0.75;stroke-linecap:round;stroke-linejoin:round;stroke-miterlimit:10;}
</style>
<g>
	<defs>
		<path id="SVGID_1_" d="M97.2,37H10.8c-4,0-7.3,3.3-7.3,7.3v19.4c0,4,3.3,7.3,7.3,7.3c3.5,0,6.4-2.4,7.1-5.7v-8.9
			c0-4.1,3.3-7.4,7.4-7.4h18.7c2.2-3,5.7-5,9.7-5s7.5,2,9.7,5h19.3c4.1,0,7.4,3.3,7.4,7.4v8.9c0.7,3.3,3.6,5.7,7.1,5.7
			c4,0,7.3-3.3,7.3-7.3V44.3C104.6,40.3,101.3,37,97.2,37z"/>
	</defs>
	<use xlink:href="#SVGID_1_"  style="overflow:visible;fill:#CBCBCB;"/>
	<clipPath id="SVGID_2_">
		<use xlink:href="#SVGID_1_"  style="overflow:visible;"/>
	</clipPath>
	<line class="st0" x1="17.1" y1="33.4" x2="-21.3" y2="71.9"/>
	<line class="st0" x1="23.3" y1="33.4" x2="-15.2" y2="71.9"/>
	<line class="st0" x1="29.4" y1="33.4" x2="-9" y2="71.9"/>
	<line class="st0" x1="35.6" y1="33.4" x2="-2.9" y2="71.9"/>
	<line class="st0" x1="41.7" y1="33.4" x2="3.3" y2="71.9"/>
	<line class="st0" x1="47.9" y1="33.4" x2="9.4" y2="71.9"/>
	<line class="st0" x1="54" y1="33.4" x2="15.6" y2="71.9"/>
	<line class="st0" x1="60.2" y1="33.4" x2="21.7" y2="71.9"/>
	<line class="st0" x1="66.3" y1="33.4" x2="27.9" y2="71.9"/>
	<line class="st0" x1="72.5" y1="33.4" x2="34" y2="71.9"/>
	<line class="st0" x1="78.7" y1="33.4" x2="40.2" y2="71.9"/>
	<line class="st0" x1="84.8" y1="33.4" x2="46.3" y2="71.9"/>
	<line class="st0" x1="91" y1="33.4" x2="52.5" y2="71.9"/>
	<line class="st0" x1="97.1" y1="33.4" x2="58.7" y2="71.9"/>
	<line class="st0" x1="103.3" y1="33.4" x2="64.8" y2="71.9"/>
	<line class="st0" x1="109.4" y1="33.4" x2="71" y2="71.9"/>
	<line class="st0" x1="115.6" y1="33.4" x2="77.1" y2="71.9"/>
	<line class="st0" x1="121.7" y1="33.4" x2="83.3" y2="71.9"/>
	<line class="st0" x1="127.9" y1="33.4" x2="89.4" y2="71.9"/>
	<line class="st0" x1="134" y1="33.4" x2="95.6" y2="71.9"/>
	<use xlink:href="#SVGID_1_"  style="overflow:visible;fill:none;stroke:#000000;stroke-width:0.75;stroke-miterlimit:10;"/>
</g>
</svg>
