<?xml version="1.0" encoding="utf-8"?>
<!-- Generator: Adobe Illustrator 21.1.0, SVG Export Plug-In . SVG Version: 6.00 Build 0)  -->
<svg version="1.1" id="Layer_1" xmlns="http://www.w3.org/2000/svg" xmlns:xlink="http://www.w3.org/1999/xlink" x="0px" y="0px"
	 width="108px" height="108px" viewBox="0 0 108 108" style="enable-background:new 0 0 108 108;" xml:space="preserve">
<style type="text/css">
	.st0{fill:#B3B3B3;stroke:#231F20;stroke-width:0.5;}
	.st1{clip-path:url(#SVGID_2_);}
	.st2{fill:url(#SVGID_3_);stroke:#231F20;stroke-width:0.5;}
	.st3{fill:url(#SVGID_4_);stroke:#231F20;stroke-width:0.5;}
	.st4{fill:url(#SVGID_5_);stroke:#231F20;stroke-width:0.5;}
	.st5{fill:url(#SVGID_6_);stroke:#231F20;stroke-width:0.5;}
	.st6{fill:url(#SVGID_7_);stroke:#231F20;stroke-width:0.5;}
	.st7{fill:url(#SVGID_8_);stroke:#231F20;stroke-width:0.5;}
	.st8{fill:url(#SVGID_9_);stroke:#231F20;stroke-width:0.5;}
	.st9{fill:url(#SVGID_10_);stroke:#231F20;stroke-width:0.5;}
	.st10{fill:url(#SVGID_11_);stroke:#231F20;stroke-width:0.5;}
	.st11{fill:url(#SVGID_12_);stroke:#231F20;stroke-width:0.5;}
	.st12{fill:url(#SVGID_13_);stroke:#231F20;stroke-width:0.5;}
	.st13{fill:url(#SVGID_14_);stroke:#231F20;stroke-width:0.5;}
	.st14{fill:url(#SVGID_15_);stroke:#231F20;stroke-width:0.5;}
	.st15{fill:url(#SVGID_16_);stroke:#231F20;stroke-width:0.5;}
	.st16{fill:url(#SVGID_17_);stroke:#231F20;stroke-width:0.5;}
	.st17{fill:url(#SVGID_18_);stroke:#231F20;stroke-width:0.5;}
	.st18{fill:url(#SVGID_19_);stroke:#231F20;stroke-width:0.5;}
	.st19{fill:url(#SVGID_20_);stroke:#231F20;stroke-width:0.5;}
	.st20{fill:url(#SVGID_21_);stroke:#231F20;stroke-width:0.5;}
	.st21{fill:url(#SVGID_22_);stroke:#231F20;stroke-width:0.5;}
	.st22{fill:url(#SVGID_23_);stroke:#231F20;stroke-width:0.5;}
	.st23{fill:#F2F2F2;stroke:#231F20;stroke-width:0.5;}
	.st24{fill:#CCCCCC;stroke:#231F20;stroke-width:0.75;}
	.st25{clip-path:url(#SVGID_25_);}
	.st26{fill:url(#SVGID_26_);stroke:#231F20;stroke-width:0.6219;}
	.st27{fill:url(#SVGID_27_);stroke:#231F20;stroke-width:0.6219;}
	.st28{fill:url(#SVGID_28_);stroke:#231F20;stroke-width:0.6219;}
	.st29{fill:url(#SVGID_29_);stroke:#231F20;stroke-width:0.6219;}
	.st30{fill:url(#SVGID_30_);stroke:#231F20;stroke-width:0.6219;}
	.st31{fill:url(#SVGID_31_);stroke:#231F20;stroke-width:0.6219;}
	.st32{fill:url(#SVGID_32_);stroke:#231F20;stroke-width:0.6219;}
	.st33{fill:url(#SVGID_33_);stroke:#231F20;stroke-width:0.6219;}
	.st34{fill:url(#SVGID_34_);stroke:#231F20;stroke-width:0.6219;}
	.st35{fill:url(#SVGID_35_);stroke:#231F20;stroke-width:0.6219;}
	.st36{fill:url(#SVGID_36_);stroke:#231F20;stroke-width:0.6219;}
	.st37{fill:url(#SVGID_37_);stroke:#231F20;stroke-width:0.6219;}
	.st38{fill:url(#SVGID_38_);stroke:#231F20;stroke-width:0.6219;}
	.st39{fill:url(#SVGID_39_);stroke:#231F20;stroke-width:0.6219;}
	.st40{fill:url(#SVGID_40_);stroke:#231F20;stroke-width:0.6219;}
	.st41{fill:url(#SVGID_41_);stroke:#231F20;stroke-width:0.6219;}
	.st42{fill:url(#SVGID_42_);stroke:#231F20;stroke-width:0.6219;}
	.st43{fill:url(#SVGID_43_);stroke:#231F20;stroke-width:0.6219;}
	.st44{fill:url(#SVGID_44_);stroke:#231F20;stroke-width:0.6219;}
	.st45{fill:url(#SVGID_45_);stroke:#231F20;stroke-width:0.6219;}
	.st46{fill:url(#SVGID_46_);stroke:#231F20;stroke-width:0.6219;}
	.st47{fill:#FFFFFF;stroke:#231F20;stroke-width:0.75;}
</style>
<g>
	<g>
		<g>
			<path class="st0" d="M82.7,68.4c-0.8,3.4-4,6.4-7.2,6.7l-64.2,7.1c-4.2,0.5-6.7-2.3-5.7-6.2L12,52.2l75.4-4.5L82.7,68.4z"/>
			<g>
				<defs>
					<path id="SVGID_1_" d="M82.7,68.4c-0.8,3.4-4,6.4-7.2,6.7l-64.2,7.1c-4.2,0.5-6.7-2.3-5.7-6.2L12,52.2l75.4-4.5L82.7,68.4z"/>
				</defs>
				<clipPath id="SVGID_2_">
					<use xlink:href="#SVGID_1_"  style="overflow:visible;"/>
				</clipPath>
				<g class="st1">
					<linearGradient id="SVGID_3_" gradientUnits="userSpaceOnUse" x1="-28.1725" y1="30.6742" x2="-28.1725" y2="125.6435">
						<stop  offset="0" style="stop-color:#C7D5E4"/>
						<stop  offset="0.2" style="stop-color:#FFFFFF"/>
						<stop  offset="0.8" style="stop-color:#FFFFFF"/>
						<stop  offset="1" style="stop-color:#C7D5E4"/>
					</linearGradient>
					<line class="st2" x1="37.1" y1="30.7" x2="-93.4" y2="125.6"/>
					<linearGradient id="SVGID_4_" gradientUnits="userSpaceOnUse" x1="-19.9364" y1="30.5182" x2="-19.9364" y2="124.0744">
						<stop  offset="0" style="stop-color:#C7D5E4"/>
						<stop  offset="0.2" style="stop-color:#FFFFFF"/>
						<stop  offset="0.8" style="stop-color:#FFFFFF"/>
						<stop  offset="1" style="stop-color:#C7D5E4"/>
					</linearGradient>
					<line class="st3" x1="43.6" y1="30.5" x2="-83.5" y2="124.1"/>
					<linearGradient id="SVGID_5_" gradientUnits="userSpaceOnUse" x1="-11.9173" y1="30.3657" x2="-11.9173" y2="122.5502">
						<stop  offset="0" style="stop-color:#C7D5E4"/>
						<stop  offset="0.2" style="stop-color:#FFFFFF"/>
						<stop  offset="0.8" style="stop-color:#FFFFFF"/>
						<stop  offset="1" style="stop-color:#C7D5E4"/>
					</linearGradient>
					<line class="st4" x1="49.9" y1="30.4" x2="-73.8" y2="122.6"/>
					<linearGradient id="SVGID_6_" gradientUnits="userSpaceOnUse" x1="-4.1069" y1="30.2167" x2="-4.1069" y2="121.0689">
						<stop  offset="0" style="stop-color:#C7D5E4"/>
						<stop  offset="0.2" style="stop-color:#FFFFFF"/>
						<stop  offset="0.8" style="stop-color:#FFFFFF"/>
						<stop  offset="1" style="stop-color:#C7D5E4"/>
					</linearGradient>
					<line class="st5" x1="56.2" y1="30.2" x2="-64.4" y2="121.1"/>
					<linearGradient id="SVGID_7_" gradientUnits="userSpaceOnUse" x1="3.5028" y1="30.0711" x2="3.5028" y2="119.6287">
						<stop  offset="0" style="stop-color:#C7D5E4"/>
						<stop  offset="0.2" style="stop-color:#FFFFFF"/>
						<stop  offset="0.8" style="stop-color:#FFFFFF"/>
						<stop  offset="1" style="stop-color:#C7D5E4"/>
					</linearGradient>
					<line class="st6" x1="62.2" y1="30.1" x2="-55.2" y2="119.6"/>
					<linearGradient id="SVGID_8_" gradientUnits="userSpaceOnUse" x1="10.9199" y1="29.9287" x2="10.9199" y2="118.2278">
						<stop  offset="0" style="stop-color:#C7D5E4"/>
						<stop  offset="0.2" style="stop-color:#FFFFFF"/>
						<stop  offset="0.8" style="stop-color:#FFFFFF"/>
						<stop  offset="1" style="stop-color:#C7D5E4"/>
					</linearGradient>
					<line class="st7" x1="68.2" y1="29.9" x2="-46.3" y2="118.2"/>
					<linearGradient id="SVGID_9_" gradientUnits="userSpaceOnUse" x1="18.1509" y1="29.7895" x2="18.1509" y2="116.8649">
						<stop  offset="0" style="stop-color:#C7D5E4"/>
						<stop  offset="0.2" style="stop-color:#FFFFFF"/>
						<stop  offset="0.8" style="stop-color:#FFFFFF"/>
						<stop  offset="1" style="stop-color:#C7D5E4"/>
					</linearGradient>
					<line class="st8" x1="74" y1="29.8" x2="-37.7" y2="116.9"/>
					<linearGradient id="SVGID_10_" gradientUnits="userSpaceOnUse" x1="25.204" y1="29.6533" x2="25.204" y2="115.5383">
						<stop  offset="0" style="stop-color:#C7D5E4"/>
						<stop  offset="0.2" style="stop-color:#FFFFFF"/>
						<stop  offset="0.8" style="stop-color:#FFFFFF"/>
						<stop  offset="1" style="stop-color:#C7D5E4"/>
					</linearGradient>
					<line class="st9" x1="79.6" y1="29.7" x2="-29.2" y2="115.5"/>
					<linearGradient id="SVGID_11_" gradientUnits="userSpaceOnUse" x1="32.0849" y1="29.52" x2="32.0849" y2="114.2466">
						<stop  offset="0" style="stop-color:#C7D5E4"/>
						<stop  offset="0.2" style="stop-color:#FFFFFF"/>
						<stop  offset="0.8" style="stop-color:#FFFFFF"/>
						<stop  offset="1" style="stop-color:#C7D5E4"/>
					</linearGradient>
					<line class="st10" x1="85.2" y1="29.5" x2="-21" y2="114.2"/>
					<linearGradient id="SVGID_12_" gradientUnits="userSpaceOnUse" x1="38.8001" y1="29.3896" x2="38.8001" y2="112.9883">
						<stop  offset="0" style="stop-color:#C7D5E4"/>
						<stop  offset="0.2" style="stop-color:#FFFFFF"/>
						<stop  offset="0.8" style="stop-color:#FFFFFF"/>
						<stop  offset="1" style="stop-color:#C7D5E4"/>
					</linearGradient>
					<line class="st11" x1="90.6" y1="29.4" x2="-13" y2="113"/>
					<linearGradient id="SVGID_13_" gradientUnits="userSpaceOnUse" x1="45.3547" y1="29.2619" x2="45.3547" y2="111.7624">
						<stop  offset="0" style="stop-color:#C7D5E4"/>
						<stop  offset="0.2" style="stop-color:#FFFFFF"/>
						<stop  offset="0.8" style="stop-color:#FFFFFF"/>
						<stop  offset="1" style="stop-color:#C7D5E4"/>
					</linearGradient>
					<line class="st12" x1="95.9" y1="29.3" x2="-5.2" y2="111.8"/>
					<linearGradient id="SVGID_14_" gradientUnits="userSpaceOnUse" x1="51.7567" y1="29.1369" x2="51.7567" y2="110.5673">
						<stop  offset="0" style="stop-color:#C7D5E4"/>
						<stop  offset="0.2" style="stop-color:#FFFFFF"/>
						<stop  offset="0.8" style="stop-color:#FFFFFF"/>
						<stop  offset="1" style="stop-color:#C7D5E4"/>
					</linearGradient>
					<line class="st13" x1="101.2" y1="29.1" x2="2.4" y2="110.6"/>
					<linearGradient id="SVGID_15_" gradientUnits="userSpaceOnUse" x1="58.0091" y1="29.0144" x2="58.0091" y2="109.4021">
						<stop  offset="0" style="stop-color:#C7D5E4"/>
						<stop  offset="0.2" style="stop-color:#FFFFFF"/>
						<stop  offset="0.8" style="stop-color:#FFFFFF"/>
						<stop  offset="1" style="stop-color:#C7D5E4"/>
					</linearGradient>
					<line class="st14" x1="106.3" y1="29" x2="9.8" y2="109.4"/>
					<linearGradient id="SVGID_16_" gradientUnits="userSpaceOnUse" x1="64.1178" y1="28.8945" x2="64.1178" y2="108.2658">
						<stop  offset="0" style="stop-color:#C7D5E4"/>
						<stop  offset="0.2" style="stop-color:#FFFFFF"/>
						<stop  offset="0.8" style="stop-color:#FFFFFF"/>
						<stop  offset="1" style="stop-color:#C7D5E4"/>
					</linearGradient>
					<line class="st15" x1="111.3" y1="28.9" x2="17" y2="108.3"/>
					<linearGradient id="SVGID_17_" gradientUnits="userSpaceOnUse" x1="70.0882" y1="28.777" x2="70.0882" y2="107.1572">
						<stop  offset="0" style="stop-color:#C7D5E4"/>
						<stop  offset="0.2" style="stop-color:#FFFFFF"/>
						<stop  offset="0.8" style="stop-color:#FFFFFF"/>
						<stop  offset="1" style="stop-color:#C7D5E4"/>
					</linearGradient>
					<line class="st16" x1="116.2" y1="28.8" x2="24" y2="107.2"/>
					<linearGradient id="SVGID_18_" gradientUnits="userSpaceOnUse" x1="75.9255" y1="28.6619" x2="75.9255" y2="106.0751">
						<stop  offset="0" style="stop-color:#C7D5E4"/>
						<stop  offset="0.2" style="stop-color:#FFFFFF"/>
						<stop  offset="0.8" style="stop-color:#FFFFFF"/>
						<stop  offset="1" style="stop-color:#C7D5E4"/>
					</linearGradient>
					<line class="st17" x1="121" y1="28.7" x2="30.9" y2="106.1"/>
					<linearGradient id="SVGID_19_" gradientUnits="userSpaceOnUse" x1="81.6323" y1="28.549" x2="81.6323" y2="105.0189">
						<stop  offset="0" style="stop-color:#C7D5E4"/>
						<stop  offset="0.2" style="stop-color:#FFFFFF"/>
						<stop  offset="0.8" style="stop-color:#FFFFFF"/>
						<stop  offset="1" style="stop-color:#C7D5E4"/>
					</linearGradient>
					<line class="st18" x1="125.7" y1="28.5" x2="37.6" y2="105"/>
					<linearGradient id="SVGID_20_" gradientUnits="userSpaceOnUse" x1="87.2143" y1="28.4384" x2="87.2143" y2="103.9875">
						<stop  offset="0" style="stop-color:#C7D5E4"/>
						<stop  offset="0.2" style="stop-color:#FFFFFF"/>
						<stop  offset="0.8" style="stop-color:#FFFFFF"/>
						<stop  offset="1" style="stop-color:#C7D5E4"/>
					</linearGradient>
					<line class="st19" x1="130.3" y1="28.4" x2="44.2" y2="104"/>
					<linearGradient id="SVGID_21_" gradientUnits="userSpaceOnUse" x1="92.675" y1="28.3299" x2="92.675" y2="102.9801">
						<stop  offset="0" style="stop-color:#C7D5E4"/>
						<stop  offset="0.2" style="stop-color:#FFFFFF"/>
						<stop  offset="0.8" style="stop-color:#FFFFFF"/>
						<stop  offset="1" style="stop-color:#C7D5E4"/>
					</linearGradient>
					<line class="st20" x1="134.8" y1="28.3" x2="50.6" y2="103"/>
					<linearGradient id="SVGID_22_" gradientUnits="userSpaceOnUse" x1="98.0192" y1="28.2235" x2="98.0192" y2="101.9958">
						<stop  offset="0" style="stop-color:#C7D5E4"/>
						<stop  offset="0.2" style="stop-color:#FFFFFF"/>
						<stop  offset="0.8" style="stop-color:#FFFFFF"/>
						<stop  offset="1" style="stop-color:#C7D5E4"/>
					</linearGradient>
					<line class="st21" x1="139.2" y1="28.2" x2="56.8" y2="102"/>
					<linearGradient id="SVGID_23_" gradientUnits="userSpaceOnUse" x1="103.2495" y1="28.1191" x2="103.2495" y2="101.0339">
						<stop  offset="0" style="stop-color:#C7D5E4"/>
						<stop  offset="0.2" style="stop-color:#FFFFFF"/>
						<stop  offset="0.8" style="stop-color:#FFFFFF"/>
						<stop  offset="1" style="stop-color:#C7D5E4"/>
					</linearGradient>
					<line class="st22" x1="143.6" y1="28.1" x2="62.9" y2="101"/>
				</g>
			</g>
			<polygon class="st0" points="13.3,47.5 13.8,45.8 88.7,42.1 88.3,43.6 			"/>
			<polygon class="st23" points="87.4,47.7 12,52.2 13.3,47.5 88.3,43.6 			"/>
		</g>
		<path class="st23" d="M93.1,22.4l-4.5,19.8l-12.9,0.6c3.2-0.2,6.4-3,7.2-6.2l0.9-3.8c0.8-3.2-1.2-5.8-4.4-5.8l-13.9,0.3
			c-0.8-2.7-3.2-4.5-6.5-4.5c-3.4,0-6.8,2-9.1,4.8l-15.6,0.3c-3.8,0.1-7.7,3.1-8.7,6.7l-1.1,4.3c-1,3.7,1.4,6.5,5.3,6.3l-16.1,0.8
			l6.1-22.7c0.9-3.3,4.2-6,7.7-6.5l62.9,0.1c0,0,0,0.1,0,0.1c0,0,0,0.1,0,0.1C92.6,17.6,93.7,19.8,93.1,22.4z"/>
	</g>
	<g>
		<g>
			<path class="st24" d="M102.6,74.8c0.4,3.8-1.7,7.2-4.9,7.7l-62.5,9.2c-4.1,0.6-7.7-2.5-8.1-6.8l-2.5-27l75.2-6.4L102.6,74.8z"/>
			<g>
				<defs>
					<path id="SVGID_24_" d="M102.6,74.8c0.4,3.8-1.7,7.2-4.9,7.7l-62.5,9.2c-4.1,0.6-7.7-2.5-8.1-6.8l-2.5-27l75.2-6.4L102.6,74.8z
						"/>
				</defs>
				<clipPath id="SVGID_25_">
					<use xlink:href="#SVGID_24_"  style="overflow:visible;"/>
				</clipPath>
				<g class="st25">
					<linearGradient id="SVGID_26_" gradientUnits="userSpaceOnUse" x1="-6.2597" y1="32.9976" x2="-6.2597" y2="142.1467">
						<stop  offset="0" style="stop-color:#C7D5E4"/>
						<stop  offset="0.2" style="stop-color:#FFFFFF"/>
						<stop  offset="0.8" style="stop-color:#FFFFFF"/>
						<stop  offset="1" style="stop-color:#C7D5E4"/>
					</linearGradient>
					<line class="st26" x1="42.1" y1="33" x2="-54.7" y2="142.1"/>
					<linearGradient id="SVGID_27_" gradientUnits="userSpaceOnUse" x1="1.8154" y1="32.7113" x2="1.8154" y2="140.1897">
						<stop  offset="0" style="stop-color:#C7D5E4"/>
						<stop  offset="0.2" style="stop-color:#FFFFFF"/>
						<stop  offset="0.8" style="stop-color:#FFFFFF"/>
						<stop  offset="1" style="stop-color:#C7D5E4"/>
					</linearGradient>
					<line class="st27" x1="48.8" y1="32.7" x2="-45.1" y2="140.2"/>
					<linearGradient id="SVGID_28_" gradientUnits="userSpaceOnUse" x1="9.6743" y1="32.4319" x2="9.6743" y2="138.2896">
						<stop  offset="0" style="stop-color:#C7D5E4"/>
						<stop  offset="0.2" style="stop-color:#FFFFFF"/>
						<stop  offset="0.8" style="stop-color:#FFFFFF"/>
						<stop  offset="1" style="stop-color:#C7D5E4"/>
					</linearGradient>
					<line class="st28" x1="55.2" y1="32.4" x2="-35.9" y2="138.3"/>
					<linearGradient id="SVGID_29_" gradientUnits="userSpaceOnUse" x1="17.3254" y1="32.159" x2="17.3254" y2="136.4436">
						<stop  offset="0" style="stop-color:#C7D5E4"/>
						<stop  offset="0.2" style="stop-color:#FFFFFF"/>
						<stop  offset="0.8" style="stop-color:#FFFFFF"/>
						<stop  offset="1" style="stop-color:#C7D5E4"/>
					</linearGradient>
					<line class="st29" x1="61.5" y1="32.2" x2="-26.9" y2="136.4"/>
					<linearGradient id="SVGID_30_" gradientUnits="userSpaceOnUse" x1="24.7768" y1="31.8923" x2="24.7768" y2="134.6498">
						<stop  offset="0" style="stop-color:#C7D5E4"/>
						<stop  offset="0.2" style="stop-color:#FFFFFF"/>
						<stop  offset="0.8" style="stop-color:#FFFFFF"/>
						<stop  offset="1" style="stop-color:#C7D5E4"/>
					</linearGradient>
					<line class="st30" x1="67.7" y1="31.9" x2="-18.1" y2="134.6"/>
					<linearGradient id="SVGID_31_" gradientUnits="userSpaceOnUse" x1="32.0367" y1="31.6318" x2="32.0367" y2="132.9055">
						<stop  offset="0" style="stop-color:#C7D5E4"/>
						<stop  offset="0.2" style="stop-color:#FFFFFF"/>
						<stop  offset="0.8" style="stop-color:#FFFFFF"/>
						<stop  offset="1" style="stop-color:#C7D5E4"/>
					</linearGradient>
					<line class="st31" x1="73.7" y1="31.6" x2="-9.6" y2="132.9"/>
					<linearGradient id="SVGID_32_" gradientUnits="userSpaceOnUse" x1="39.1115" y1="31.3772" x2="39.1115" y2="131.2093">
						<stop  offset="0" style="stop-color:#C7D5E4"/>
						<stop  offset="0.2" style="stop-color:#FFFFFF"/>
						<stop  offset="0.8" style="stop-color:#FFFFFF"/>
						<stop  offset="1" style="stop-color:#C7D5E4"/>
					</linearGradient>
					<line class="st32" x1="79.5" y1="31.4" x2="-1.3" y2="131.2"/>
					<linearGradient id="SVGID_33_" gradientUnits="userSpaceOnUse" x1="46.0097" y1="31.1282" x2="46.0097" y2="129.5589">
						<stop  offset="0" style="stop-color:#C7D5E4"/>
						<stop  offset="0.2" style="stop-color:#FFFFFF"/>
						<stop  offset="0.8" style="stop-color:#FFFFFF"/>
						<stop  offset="1" style="stop-color:#C7D5E4"/>
					</linearGradient>
					<line class="st33" x1="85.3" y1="31.1" x2="6.7" y2="129.6"/>
					<linearGradient id="SVGID_34_" gradientUnits="userSpaceOnUse" x1="52.737" y1="30.8847" x2="52.737" y2="127.9526">
						<stop  offset="0" style="stop-color:#C7D5E4"/>
						<stop  offset="0.2" style="stop-color:#FFFFFF"/>
						<stop  offset="0.8" style="stop-color:#FFFFFF"/>
						<stop  offset="1" style="stop-color:#C7D5E4"/>
					</linearGradient>
					<line class="st34" x1="90.9" y1="30.9" x2="14.6" y2="128"/>
					<linearGradient id="SVGID_35_" gradientUnits="userSpaceOnUse" x1="59.2997" y1="30.6466" x2="59.2997" y2="126.3883">
						<stop  offset="0" style="stop-color:#C7D5E4"/>
						<stop  offset="0.2" style="stop-color:#FFFFFF"/>
						<stop  offset="0.8" style="stop-color:#FFFFFF"/>
						<stop  offset="1" style="stop-color:#C7D5E4"/>
					</linearGradient>
					<line class="st35" x1="96.4" y1="30.6" x2="22.2" y2="126.4"/>
					<linearGradient id="SVGID_36_" gradientUnits="userSpaceOnUse" x1="65.7033" y1="30.4136" x2="65.7033" y2="124.8649">
						<stop  offset="0" style="stop-color:#C7D5E4"/>
						<stop  offset="0.2" style="stop-color:#FFFFFF"/>
						<stop  offset="0.8" style="stop-color:#FFFFFF"/>
						<stop  offset="1" style="stop-color:#C7D5E4"/>
					</linearGradient>
					<line class="st36" x1="101.8" y1="30.4" x2="29.6" y2="124.9"/>
					<linearGradient id="SVGID_37_" gradientUnits="userSpaceOnUse" x1="71.9556" y1="30.1855" x2="71.9556" y2="123.3803">
						<stop  offset="0" style="stop-color:#C7D5E4"/>
						<stop  offset="0.2" style="stop-color:#FFFFFF"/>
						<stop  offset="0.8" style="stop-color:#FFFFFF"/>
						<stop  offset="1" style="stop-color:#C7D5E4"/>
					</linearGradient>
					<line class="st37" x1="107.1" y1="30.2" x2="36.9" y2="123.4"/>
					<linearGradient id="SVGID_38_" gradientUnits="userSpaceOnUse" x1="78.0596" y1="29.9624" x2="78.0596" y2="121.9334">
						<stop  offset="0" style="stop-color:#C7D5E4"/>
						<stop  offset="0.2" style="stop-color:#FFFFFF"/>
						<stop  offset="0.8" style="stop-color:#FFFFFF"/>
						<stop  offset="1" style="stop-color:#C7D5E4"/>
					</linearGradient>
					<line class="st38" x1="112.2" y1="30" x2="43.9" y2="121.9"/>
					<linearGradient id="SVGID_39_" gradientUnits="userSpaceOnUse" x1="84.0214" y1="29.7439" x2="84.0214" y2="120.5227">
						<stop  offset="0" style="stop-color:#C7D5E4"/>
						<stop  offset="0.2" style="stop-color:#FFFFFF"/>
						<stop  offset="0.8" style="stop-color:#FFFFFF"/>
						<stop  offset="1" style="stop-color:#C7D5E4"/>
					</linearGradient>
					<line class="st39" x1="117.2" y1="29.7" x2="50.8" y2="120.5"/>
					<linearGradient id="SVGID_40_" gradientUnits="userSpaceOnUse" x1="89.8463" y1="29.5298" x2="89.8463" y2="119.1469">
						<stop  offset="0" style="stop-color:#C7D5E4"/>
						<stop  offset="0.2" style="stop-color:#FFFFFF"/>
						<stop  offset="0.8" style="stop-color:#FFFFFF"/>
						<stop  offset="1" style="stop-color:#C7D5E4"/>
					</linearGradient>
					<line class="st40" x1="122.2" y1="29.5" x2="57.5" y2="119.1"/>
					<linearGradient id="SVGID_41_" gradientUnits="userSpaceOnUse" x1="95.5395" y1="29.3202" x2="95.5395" y2="117.8045">
						<stop  offset="0" style="stop-color:#C7D5E4"/>
						<stop  offset="0.2" style="stop-color:#FFFFFF"/>
						<stop  offset="0.8" style="stop-color:#FFFFFF"/>
						<stop  offset="1" style="stop-color:#C7D5E4"/>
					</linearGradient>
					<line class="st41" x1="127" y1="29.3" x2="64" y2="117.8"/>
					<linearGradient id="SVGID_42_" gradientUnits="userSpaceOnUse" x1="101.1036" y1="29.1148" x2="101.1036" y2="116.4945">
						<stop  offset="0" style="stop-color:#C7D5E4"/>
						<stop  offset="0.2" style="stop-color:#FFFFFF"/>
						<stop  offset="0.8" style="stop-color:#FFFFFF"/>
						<stop  offset="1" style="stop-color:#C7D5E4"/>
					</linearGradient>
					<line class="st42" x1="131.8" y1="29.1" x2="70.4" y2="116.5"/>
					<linearGradient id="SVGID_43_" gradientUnits="userSpaceOnUse" x1="106.5444" y1="28.9136" x2="106.5444" y2="115.2158">
						<stop  offset="0" style="stop-color:#C7D5E4"/>
						<stop  offset="0.2" style="stop-color:#FFFFFF"/>
						<stop  offset="0.8" style="stop-color:#FFFFFF"/>
						<stop  offset="1" style="stop-color:#C7D5E4"/>
					</linearGradient>
					<line class="st43" x1="136.4" y1="28.9" x2="76.7" y2="115.2"/>
					<linearGradient id="SVGID_44_" gradientUnits="userSpaceOnUse" x1="111.8654" y1="28.7164" x2="111.8654" y2="113.9671">
						<stop  offset="0" style="stop-color:#C7D5E4"/>
						<stop  offset="0.2" style="stop-color:#FFFFFF"/>
						<stop  offset="0.8" style="stop-color:#FFFFFF"/>
						<stop  offset="1" style="stop-color:#C7D5E4"/>
					</linearGradient>
					<line class="st44" x1="141" y1="28.7" x2="82.8" y2="114"/>
					<linearGradient id="SVGID_45_" gradientUnits="userSpaceOnUse" x1="117.0712" y1="28.523" x2="117.0712" y2="112.7474">
						<stop  offset="0" style="stop-color:#C7D5E4"/>
						<stop  offset="0.2" style="stop-color:#FFFFFF"/>
						<stop  offset="0.8" style="stop-color:#FFFFFF"/>
						<stop  offset="1" style="stop-color:#C7D5E4"/>
					</linearGradient>
					<line class="st45" x1="145.4" y1="28.5" x2="88.7" y2="112.7"/>
					<linearGradient id="SVGID_46_" gradientUnits="userSpaceOnUse" x1="122.1648" y1="28.3334" x2="122.1648" y2="111.5559">
						<stop  offset="0" style="stop-color:#C7D5E4"/>
						<stop  offset="0.2" style="stop-color:#FFFFFF"/>
						<stop  offset="0.8" style="stop-color:#FFFFFF"/>
						<stop  offset="1" style="stop-color:#C7D5E4"/>
					</linearGradient>
					<line class="st46" x1="149.8" y1="28.3" x2="94.5" y2="111.6"/>
				</g>
			</g>
			<polygon class="st24" points="24.2,52.5 24,50.6 99.1,45.1 99.3,46.8 			"/>
			<polygon class="st47" points="99.8,51.5 24.7,57.9 24.2,52.5 99.3,46.8 			"/>
		</g>
		<path class="st47" d="M96.4,22.6l2.7,22.5l-12.9,0.9c3.2-0.2,5.5-3.5,5-7.2l-0.5-4.4c-0.4-3.7-3.4-6.6-6.6-6.5L70,28.6
			c-1.8-3-5-5.1-8.4-5c-3.5,0.1-6.3,2.3-7.5,5.6l-15.8,0.6c-3.9,0.1-6.8,3.6-6.4,7.7l0.5,4.9c0.4,4.2,3.9,7.3,7.8,7L24,50.6
			l-2.4-25.9c-0.3-3.8,2-6.9,5.4-7.5l64.6-0.9c0,0,0,0.1,0,0.1c0,0,0,0.1,0,0.1C94.1,17.2,96,19.7,96.4,22.6z"/>
	</g>
</g>
</svg>
