<?xml version="1.0" encoding="utf-8"?>
<!-- Generator: Adobe Illustrator 21.1.0, SVG Export Plug-In . SVG Version: 6.00 Build 0)  -->
<svg version="1.1" id="Layer_1" xmlns="http://www.w3.org/2000/svg" xmlns:xlink="http://www.w3.org/1999/xlink" x="0px" y="0px"
	 width="108px" height="108px" viewBox="0 0 108 108" style="enable-background:new 0 0 108 108;" xml:space="preserve">
<style type="text/css">
	.st0{fill:#FFFFFF;}
	.st1{fill:none;stroke:#231F20;stroke-width:0.75;stroke-linecap:round;}
	.st2{fill:none;stroke:#231F20;stroke-width:0.75;}
	.st3{fill:#CCCCCC;stroke:#231F20;stroke-width:0.75;}
	.st4{clip-path:url(#SVGID_2_);}
	.st5{fill:url(#SVGID_3_);stroke:#231F20;stroke-width:0.75;}
	.st6{fill:url(#SVGID_4_);stroke:#231F20;stroke-width:0.75;}
	.st7{fill:url(#SVGID_5_);stroke:#231F20;stroke-width:0.75;}
	.st8{fill:url(#SVGID_6_);stroke:#231F20;stroke-width:0.75;}
	.st9{fill:url(#SVGID_7_);stroke:#231F20;stroke-width:0.75;}
	.st10{fill:url(#SVGID_8_);stroke:#231F20;stroke-width:0.75;}
	.st11{fill:url(#SVGID_9_);stroke:#231F20;stroke-width:0.75;}
	.st12{fill:url(#SVGID_10_);stroke:#231F20;stroke-width:0.75;}
	.st13{fill:url(#SVGID_11_);stroke:#231F20;stroke-width:0.75;}
	.st14{fill:url(#SVGID_12_);stroke:#231F20;stroke-width:0.75;}
	.st15{fill:url(#SVGID_13_);stroke:#231F20;stroke-width:0.75;}
	.st16{fill:url(#SVGID_14_);stroke:#231F20;stroke-width:0.75;}
	.st17{fill:url(#SVGID_15_);stroke:#231F20;stroke-width:0.75;}
	.st18{fill:url(#SVGID_16_);stroke:#231F20;stroke-width:0.75;}
	.st19{fill:url(#SVGID_17_);stroke:#231F20;stroke-width:0.75;}
	.st20{fill:url(#SVGID_18_);stroke:#231F20;stroke-width:0.75;}
	.st21{fill:url(#SVGID_19_);stroke:#231F20;stroke-width:0.75;}
	.st22{fill:url(#SVGID_20_);stroke:#231F20;stroke-width:0.75;}
	.st23{fill:url(#SVGID_21_);stroke:#231F20;stroke-width:0.75;}
	.st24{fill:url(#SVGID_22_);stroke:#231F20;stroke-width:0.75;}
	.st25{fill:url(#SVGID_23_);stroke:#231F20;stroke-width:0.75;}
</style>
<g>
	<g>
		<g>
			<path class="st0" d="M45.6,49.2c-0.3,4.4-1,8.5,2,12.1c1.9,2.3,4.1,2.7,6.9,2.9c5.4,0.2,10.9,0.5,16.3,0.7
				c-16.9-0.1-33.9-0.1-50.8-0.2c3.5-1.6,4.4-5.1,5.6-8.4c1.7-4.5,3.4-9.1,5.3-13.5c1.2-2.9,2.7-7.7,6.1-8.7
				c4.1-1.1,8.7-1.1,12.9-0.9c4.3,0.1,11.1-0.2,12.4,5.3c1,4.5,1.4,9,0.4,13.5c-0.7,3.2-5.9,6.4-8.4,2.9c-1.8-2.6-0.6-4.6-3.5-6.6
				C49,46.9,46.7,47.2,45.6,49.2"/>
		</g>
		<g>
			<path class="st1" d="M45.6,49.2c-0.3,4.4-1,8.5,2,12.1c1.9,2.3,4.1,2.7,6.9,2.9c5.4,0.2,10.9,0.5,16.3,0.7
				c-16.9-0.1-33.9-0.1-50.8-0.2c3.5-1.6,4.4-5.1,5.6-8.4c1.7-4.5,3.4-9.1,5.3-13.5c1.2-2.9,2.7-7.7,6.1-8.7
				c4.1-1.1,8.7-1.1,12.9-0.9c4.3,0.1,11.1-0.2,12.4,5.3c1,4.5,1.4,9,0.4,13.5c-0.7,3.2-5.9,6.4-8.4,2.9c-1.8-2.6-0.6-4.6-3.5-6.6
				C49,46.9,46.7,47.2,45.6,49.2"/>
		</g>
		<g>
			<path class="st2" d="M45.6,49.2c-0.3,4.4-1,8.5,2,12.1c1.9,2.3,4.1,2.7,6.9,2.9c5.4,0.2,10.9,0.5,16.3,0.7
				c-16.9-0.1-33.9-0.1-50.8-0.2c3.5-1.6,4.4-5.1,5.6-8.4c1.7-4.5,3.4-9.1,5.3-13.5c1.2-2.9,2.7-7.7,6.1-8.7
				c4.1-1.1,8.7-1.1,12.9-0.9c4.3,0.1,11.1-0.2,12.4,5.3c1,4.5,1.4,9,0.4,13.5c-0.7,3.2-5.9,6.4-8.4,2.9c-1.8-2.6-0.6-4.6-3.5-6.6
				C49,46.9,46.7,47.2,45.6,49.2"/>
		</g>
	</g>
	<rect x="6.9" y="64.4" class="st3" width="94.2" height="10.6"/>
	<g>
		<defs>
			<rect id="SVGID_1_" x="6.9" y="64.4" width="94.2" height="10.6"/>
		</defs>
		<clipPath id="SVGID_2_">
			<use xlink:href="#SVGID_1_"  style="overflow:visible;"/>
		</clipPath>
		<g class="st4">
			<linearGradient id="SVGID_3_" gradientUnits="userSpaceOnUse" x1="-17.7011" y1="26.0374" x2="-17.7011" y2="119.8499">
				<stop  offset="0" style="stop-color:#C7D5E4"/>
				<stop  offset="0.2" style="stop-color:#FFFFFF"/>
				<stop  offset="0.8" style="stop-color:#FFFFFF"/>
				<stop  offset="1" style="stop-color:#C7D5E4"/>
			</linearGradient>
			<line class="st5" x1="33.5" y1="26" x2="-68.9" y2="119.8"/>
			<linearGradient id="SVGID_4_" gradientUnits="userSpaceOnUse" x1="-9.8266" y1="26.0374" x2="-9.8266" y2="119.8499">
				<stop  offset="0" style="stop-color:#C7D5E4"/>
				<stop  offset="0.2" style="stop-color:#FFFFFF"/>
				<stop  offset="0.8" style="stop-color:#FFFFFF"/>
				<stop  offset="1" style="stop-color:#C7D5E4"/>
			</linearGradient>
			<line class="st6" x1="41.4" y1="26" x2="-61" y2="119.8"/>
			<linearGradient id="SVGID_5_" gradientUnits="userSpaceOnUse" x1="-1.9516" y1="26.0374" x2="-1.9516" y2="119.8499">
				<stop  offset="0" style="stop-color:#C7D5E4"/>
				<stop  offset="0.2" style="stop-color:#FFFFFF"/>
				<stop  offset="0.8" style="stop-color:#FFFFFF"/>
				<stop  offset="1" style="stop-color:#C7D5E4"/>
			</linearGradient>
			<line class="st7" x1="49.2" y1="26" x2="-53.1" y2="119.8"/>
			<linearGradient id="SVGID_6_" gradientUnits="userSpaceOnUse" x1="5.9232" y1="26.0374" x2="5.9232" y2="119.8499">
				<stop  offset="0" style="stop-color:#C7D5E4"/>
				<stop  offset="0.2" style="stop-color:#FFFFFF"/>
				<stop  offset="0.8" style="stop-color:#FFFFFF"/>
				<stop  offset="1" style="stop-color:#C7D5E4"/>
			</linearGradient>
			<line class="st8" x1="57.1" y1="26" x2="-45.3" y2="119.8"/>
			<linearGradient id="SVGID_7_" gradientUnits="userSpaceOnUse" x1="13.7979" y1="26.0374" x2="13.7979" y2="119.8499">
				<stop  offset="0" style="stop-color:#C7D5E4"/>
				<stop  offset="0.2" style="stop-color:#FFFFFF"/>
				<stop  offset="0.8" style="stop-color:#FFFFFF"/>
				<stop  offset="1" style="stop-color:#C7D5E4"/>
			</linearGradient>
			<line class="st9" x1="65" y1="26" x2="-37.4" y2="119.8"/>
			<linearGradient id="SVGID_8_" gradientUnits="userSpaceOnUse" x1="21.6727" y1="26.0374" x2="21.6727" y2="119.8499">
				<stop  offset="0" style="stop-color:#C7D5E4"/>
				<stop  offset="0.2" style="stop-color:#FFFFFF"/>
				<stop  offset="0.8" style="stop-color:#FFFFFF"/>
				<stop  offset="1" style="stop-color:#C7D5E4"/>
			</linearGradient>
			<line class="st10" x1="72.9" y1="26" x2="-29.5" y2="119.8"/>
			<linearGradient id="SVGID_9_" gradientUnits="userSpaceOnUse" x1="29.5469" y1="26.0374" x2="29.5469" y2="119.8499">
				<stop  offset="0" style="stop-color:#C7D5E4"/>
				<stop  offset="0.2" style="stop-color:#FFFFFF"/>
				<stop  offset="0.8" style="stop-color:#FFFFFF"/>
				<stop  offset="1" style="stop-color:#C7D5E4"/>
			</linearGradient>
			<line class="st11" x1="80.7" y1="26" x2="-21.6" y2="119.8"/>
			<linearGradient id="SVGID_10_" gradientUnits="userSpaceOnUse" x1="37.4222" y1="26.0374" x2="37.4222" y2="119.8499">
				<stop  offset="0" style="stop-color:#C7D5E4"/>
				<stop  offset="0.2" style="stop-color:#FFFFFF"/>
				<stop  offset="0.8" style="stop-color:#FFFFFF"/>
				<stop  offset="1" style="stop-color:#C7D5E4"/>
			</linearGradient>
			<line class="st12" x1="88.6" y1="26" x2="-13.8" y2="119.8"/>
			<linearGradient id="SVGID_11_" gradientUnits="userSpaceOnUse" x1="45.2972" y1="26.0374" x2="45.2972" y2="119.8499">
				<stop  offset="0" style="stop-color:#C7D5E4"/>
				<stop  offset="0.2" style="stop-color:#FFFFFF"/>
				<stop  offset="0.8" style="stop-color:#FFFFFF"/>
				<stop  offset="1" style="stop-color:#C7D5E4"/>
			</linearGradient>
			<line class="st13" x1="96.5" y1="26" x2="-5.9" y2="119.8"/>
			<linearGradient id="SVGID_12_" gradientUnits="userSpaceOnUse" x1="53.172" y1="26.0374" x2="53.172" y2="119.8499">
				<stop  offset="0" style="stop-color:#C7D5E4"/>
				<stop  offset="0.2" style="stop-color:#FFFFFF"/>
				<stop  offset="0.8" style="stop-color:#FFFFFF"/>
				<stop  offset="1" style="stop-color:#C7D5E4"/>
			</linearGradient>
			<line class="st14" x1="104.4" y1="26" x2="2" y2="119.8"/>
			<linearGradient id="SVGID_13_" gradientUnits="userSpaceOnUse" x1="61.046" y1="26.0374" x2="61.046" y2="119.8499">
				<stop  offset="0" style="stop-color:#C7D5E4"/>
				<stop  offset="0.2" style="stop-color:#FFFFFF"/>
				<stop  offset="0.8" style="stop-color:#FFFFFF"/>
				<stop  offset="1" style="stop-color:#C7D5E4"/>
			</linearGradient>
			<line class="st15" x1="112.2" y1="26" x2="9.9" y2="119.8"/>
			<linearGradient id="SVGID_14_" gradientUnits="userSpaceOnUse" x1="68.9217" y1="26.0374" x2="68.9217" y2="119.8499">
				<stop  offset="0" style="stop-color:#C7D5E4"/>
				<stop  offset="0.2" style="stop-color:#FFFFFF"/>
				<stop  offset="0.8" style="stop-color:#FFFFFF"/>
				<stop  offset="1" style="stop-color:#C7D5E4"/>
			</linearGradient>
			<line class="st16" x1="120.1" y1="26" x2="17.7" y2="119.8"/>
			<linearGradient id="SVGID_15_" gradientUnits="userSpaceOnUse" x1="76.7962" y1="26.0374" x2="76.7962" y2="119.8499">
				<stop  offset="0" style="stop-color:#C7D5E4"/>
				<stop  offset="0.2" style="stop-color:#FFFFFF"/>
				<stop  offset="0.8" style="stop-color:#FFFFFF"/>
				<stop  offset="1" style="stop-color:#C7D5E4"/>
			</linearGradient>
			<line class="st17" x1="128" y1="26" x2="25.6" y2="119.8"/>
			<linearGradient id="SVGID_16_" gradientUnits="userSpaceOnUse" x1="84.6705" y1="26.0374" x2="84.6705" y2="119.8499">
				<stop  offset="0" style="stop-color:#C7D5E4"/>
				<stop  offset="0.2" style="stop-color:#FFFFFF"/>
				<stop  offset="0.8" style="stop-color:#FFFFFF"/>
				<stop  offset="1" style="stop-color:#C7D5E4"/>
			</linearGradient>
			<line class="st18" x1="135.9" y1="26" x2="33.5" y2="119.8"/>
			<linearGradient id="SVGID_17_" gradientUnits="userSpaceOnUse" x1="92.5452" y1="26.0374" x2="92.5452" y2="119.8499">
				<stop  offset="0" style="stop-color:#C7D5E4"/>
				<stop  offset="0.2" style="stop-color:#FFFFFF"/>
				<stop  offset="0.8" style="stop-color:#FFFFFF"/>
				<stop  offset="1" style="stop-color:#C7D5E4"/>
			</linearGradient>
			<line class="st19" x1="143.7" y1="26" x2="41.4" y2="119.8"/>
			<linearGradient id="SVGID_18_" gradientUnits="userSpaceOnUse" x1="100.4212" y1="26.0374" x2="100.4212" y2="119.8499">
				<stop  offset="0" style="stop-color:#C7D5E4"/>
				<stop  offset="0.2" style="stop-color:#FFFFFF"/>
				<stop  offset="0.8" style="stop-color:#FFFFFF"/>
				<stop  offset="1" style="stop-color:#C7D5E4"/>
			</linearGradient>
			<line class="st20" x1="151.6" y1="26" x2="49.2" y2="119.8"/>
			<linearGradient id="SVGID_19_" gradientUnits="userSpaceOnUse" x1="108.2952" y1="26.0374" x2="108.2952" y2="119.8499">
				<stop  offset="0" style="stop-color:#C7D5E4"/>
				<stop  offset="0.2" style="stop-color:#FFFFFF"/>
				<stop  offset="0.8" style="stop-color:#FFFFFF"/>
				<stop  offset="1" style="stop-color:#C7D5E4"/>
			</linearGradient>
			<line class="st21" x1="159.5" y1="26" x2="57.1" y2="119.8"/>
			<linearGradient id="SVGID_20_" gradientUnits="userSpaceOnUse" x1="116.17" y1="26.0374" x2="116.17" y2="119.8499">
				<stop  offset="0" style="stop-color:#C7D5E4"/>
				<stop  offset="0.2" style="stop-color:#FFFFFF"/>
				<stop  offset="0.8" style="stop-color:#FFFFFF"/>
				<stop  offset="1" style="stop-color:#C7D5E4"/>
			</linearGradient>
			<line class="st22" x1="167.4" y1="26" x2="65" y2="119.8"/>
			<linearGradient id="SVGID_21_" gradientUnits="userSpaceOnUse" x1="124.0443" y1="26.0374" x2="124.0443" y2="119.8499">
				<stop  offset="0" style="stop-color:#C7D5E4"/>
				<stop  offset="0.2" style="stop-color:#FFFFFF"/>
				<stop  offset="0.8" style="stop-color:#FFFFFF"/>
				<stop  offset="1" style="stop-color:#C7D5E4"/>
			</linearGradient>
			<line class="st23" x1="175.2" y1="26" x2="72.9" y2="119.8"/>
			<linearGradient id="SVGID_22_" gradientUnits="userSpaceOnUse" x1="131.9193" y1="26.0374" x2="131.9193" y2="119.8499">
				<stop  offset="0" style="stop-color:#C7D5E4"/>
				<stop  offset="0.2" style="stop-color:#FFFFFF"/>
				<stop  offset="0.8" style="stop-color:#FFFFFF"/>
				<stop  offset="1" style="stop-color:#C7D5E4"/>
			</linearGradient>
			<line class="st24" x1="183.1" y1="26" x2="80.7" y2="119.8"/>
			<linearGradient id="SVGID_23_" gradientUnits="userSpaceOnUse" x1="139.7938" y1="26.0374" x2="139.7938" y2="119.8499">
				<stop  offset="0" style="stop-color:#C7D5E4"/>
				<stop  offset="0.2" style="stop-color:#FFFFFF"/>
				<stop  offset="0.8" style="stop-color:#FFFFFF"/>
				<stop  offset="1" style="stop-color:#C7D5E4"/>
			</linearGradient>
			<line class="st25" x1="191" y1="26" x2="88.6" y2="119.8"/>
		</g>
	</g>
</g>
</svg>
