<?xml version="1.0" encoding="utf-8"?>
<!-- Generator: Adobe Illustrator 21.1.0, SVG Export Plug-In . SVG Version: 6.00 Build 0)  -->
<svg version="1.1" id="Layer_1" xmlns="http://www.w3.org/2000/svg" xmlns:xlink="http://www.w3.org/1999/xlink" x="0px" y="0px"
	 width="108px" height="108px" viewBox="0 0 108 108" style="enable-background:new 0 0 108 108;" xml:space="preserve">
<style type="text/css">
	
		.st0{clip-path:url(#SVGID_2_);fill:#FFFFFF;stroke:#000000;stroke-width:0.75;stroke-linecap:round;stroke-linejoin:round;stroke-miterlimit:10;}
</style>
<g>
	<defs>
		<path id="SVGID_1_" d="M97.6,36.9H10.4c-4.1,0-7.4,3.3-7.4,7.4v19.5c0,4.1,3.3,7.4,7.4,7.4c3.5,0,6.5-2.5,7.2-5.7v-9
			c0-4.1,3.4-6.6,7.5-7.5c0,0,22.7-5.8,28.6-5.8c6,0,29.2,5.8,29.2,5.8c4.6,1.2,7.5,3.4,7.5,7.5v9c0.7,3.3,3.7,5.7,7.2,5.7
			c4.1,0,7.4-3.3,7.4-7.4V44.2C105,40.2,101.7,36.9,97.6,36.9z"/>
	</defs>
	<use xlink:href="#SVGID_1_"  style="overflow:visible;fill:#CACACA;"/>
	<clipPath id="SVGID_2_">
		<use xlink:href="#SVGID_1_"  style="overflow:visible;"/>
	</clipPath>
	<line class="st0" x1="16.8" y1="33.2" x2="-22" y2="72"/>
	<line class="st0" x1="23" y1="33.2" x2="-15.8" y2="72"/>
	<line class="st0" x1="29.2" y1="33.2" x2="-9.6" y2="72"/>
	<line class="st0" x1="35.4" y1="33.2" x2="-3.4" y2="72"/>
	<line class="st0" x1="41.6" y1="33.2" x2="2.8" y2="72"/>
	<line class="st0" x1="47.8" y1="33.2" x2="9" y2="72"/>
	<line class="st0" x1="54" y1="33.2" x2="15.3" y2="72"/>
	<line class="st0" x1="60.2" y1="33.2" x2="21.5" y2="72"/>
	<line class="st0" x1="66.5" y1="33.2" x2="27.7" y2="72"/>
	<line class="st0" x1="72.7" y1="33.2" x2="33.9" y2="72"/>
	<line class="st0" x1="78.9" y1="33.2" x2="40.1" y2="72"/>
	<line class="st0" x1="85.1" y1="33.2" x2="46.3" y2="72"/>
	<line class="st0" x1="91.3" y1="33.2" x2="52.5" y2="72"/>
	<line class="st0" x1="97.5" y1="33.2" x2="58.7" y2="72"/>
	<line class="st0" x1="103.7" y1="33.2" x2="64.9" y2="72"/>
	<line class="st0" x1="109.9" y1="33.2" x2="71.1" y2="72"/>
	<line class="st0" x1="116.1" y1="33.2" x2="77.3" y2="72"/>
	<line class="st0" x1="122.3" y1="33.2" x2="83.5" y2="72"/>
	<line class="st0" x1="128.5" y1="33.2" x2="89.7" y2="72"/>
	<line class="st0" x1="134.7" y1="33.2" x2="95.9" y2="72"/>
	
		<use xlink:href="#SVGID_1_"  style="overflow:visible;fill:none;stroke:#000000;stroke-width:0.75;stroke-linecap:round;stroke-linejoin:round;stroke-miterlimit:10;"/>
</g>
</svg>
