<?xml version="1.0" encoding="utf-8"?>
<!-- Generator: Adobe Illustrator 21.1.0, SVG Export Plug-In . SVG Version: 6.00 Build 0)  -->
<svg version="1.1" id="Layer_1" xmlns="http://www.w3.org/2000/svg" xmlns:xlink="http://www.w3.org/1999/xlink" x="0px" y="0px"
	 width="108px" height="108px" viewBox="0 0 108 108" style="enable-background:new 0 0 108 108;" xml:space="preserve">
<style type="text/css">
	.st0{fill:#FFFFFF;}
	.st1{fill:#F2F2F2;}
	.st2{fill:none;stroke:#000000;stroke-width:0.75;stroke-linecap:round;stroke-linejoin:round;stroke-miterlimit:10;}
	.st3{fill:none;stroke:#000000;stroke-width:0.75;stroke-linecap:round;stroke-linejoin:round;}
	.st4{fill:none;stroke:#000000;stroke-width:0.75;stroke-linecap:round;stroke-linejoin:round;stroke-dasharray:2.8858,2.8858;}
</style>
<g>
	<g>
		<g>
			<path class="st0" d="M78.5,10.3C74.3,6,68.9,6,68.9,6H39.1c0,0-5.3,0-9.6,4.3s-4.3,8.5-4.3,8.5s0,11.7,0,13.9s2.1,2.1,4.3,2.1
				s4.3,3.2,4.3,6.4c0,3.2-2.1,6.4-4.3,6.4s-4.3,2.1-4.3,4.3v15.8C46.1,51.5,64.9,35,82.1,15.7C81.5,14.1,80.5,12.2,78.5,10.3z
				 M72.9,22.2c-0.5,1.2-1.8,2-3.2,2H38.3c-1.4,0-2.7-0.7-3.2-2c-0.2-0.4-0.3-0.8-0.3-1.2c0-2.1,2.1-3.2,2.1-3.2s14.9-4.3,17.1-4.3
				s17.1,4.3,17.1,4.3s2.1,1.1,2.1,3.2C73.2,21.4,73.1,21.8,72.9,22.2z"/>
			<path class="st1" d="M78.5,34.8c2.1,0,4.3,0,4.3-2.1s0-13.9,0-13.9s0-1.3-0.7-3.1C64.9,35,46.1,51.5,25.2,67.6v7.7
				c0,2.1,3.2,26.7,28.8,26.7s28.8-24.6,28.8-26.7V51.8c0-2.1-2.1-4.3-4.3-4.3s-4.3-3.2-4.3-6.4C74.3,38,76.4,34.8,78.5,34.8z
				 M54,92.4L36.9,75.3L54,58.2l17.1,17.1L54,92.4z"/>
			<g>
				<path class="st2" d="M78.5,34.8c2.1,0,4.3,0,4.3-2.1s0-13.9,0-13.9s0-4.3-4.3-8.5C74.3,6,68.9,6,68.9,6H39.1c0,0-5.3,0-9.6,4.3
					s-4.3,8.5-4.3,8.5s0,11.7,0,13.9s2.1,2.1,4.3,2.1s4.3,3.2,4.3,6.4c0,3.2-2.1,6.4-4.3,6.4s-4.3,2.1-4.3,4.3v23.5
					c0,2.1,3.2,26.7,28.8,26.7s28.8-24.6,28.8-26.7V51.8c0-2.1-2.1-4.3-4.3-4.3s-4.3-3.2-4.3-6.4C74.3,38,76.4,34.8,78.5,34.8z"/>
			</g>
			
				<rect x="41.9" y="63.2" transform="matrix(0.7071 -0.7071 0.7071 0.7071 -37.4307 60.2394)" class="st2" width="24.1" height="24.1"/>
			<path class="st2" d="M69.7,24.1H38.3c-1.4,0-2.7-0.7-3.2-2c-0.2-0.4-0.3-0.8-0.3-1.2c0-2.1,2.1-3.2,2.1-3.2s14.9-4.3,17.1-4.3
				s17.1,4.3,17.1,4.3s2.1,1.1,2.1,3.2c0,0.5-0.1,0.9-0.3,1.2C72.4,23.4,71.1,24.1,69.7,24.1z"/>
		</g>
	</g>
	<g>
		<line class="st0" x1="33.7" y1="41.2" x2="74.3" y2="41.2"/>
		<g>
			<line class="st3" x1="33.7" y1="41.2" x2="35.2" y2="41.2"/>
			<line class="st4" x1="38.1" y1="41.2" x2="71.3" y2="41.2"/>
			<line class="st3" x1="72.8" y1="41.2" x2="74.3" y2="41.2"/>
		</g>
	</g>
</g>
</svg>
