<?xml version="1.0" encoding="utf-8"?>
<!-- Generator: Adobe Illustrator 21.1.0, SVG Export Plug-In . SVG Version: 6.00 Build 0)  -->
<svg version="1.1" id="Layer_1" xmlns="http://www.w3.org/2000/svg" xmlns:xlink="http://www.w3.org/1999/xlink" x="0px" y="0px"
	 width="108px" height="108px" viewBox="0 0 108 108" style="enable-background:new 0 0 108 108;" xml:space="preserve">
<style type="text/css">
	.st0{clip-path:url(#SVGID_2_);fill:#F2F2F2;}
	.st1{fill:none;stroke:#000000;stroke-width:0.75;stroke-linecap:round;stroke-linejoin:round;stroke-miterlimit:10;}
</style>
<g>
	<g>
		<defs>
			<path id="SVGID_1_" d="M86.5,14.1c0,0,0-1.5-1.3-2.9c-1.3-1.4-2.5-1.7-2.5-1.7l-57.4,0.6c0,0-2.3-0.1-3.4,0.8
				c-1.1,0.9-0.9,1.9-0.9,1.9s0.5,63.8,0.5,65.9s1.9,7.3,5.5,11.1c3.5,3.9,8.2,6.8,15.6,8C49.9,99,71.3,99,77,93.7
				c5.7-5.3,9.3-10,9.9-15.4C87.4,73,86.5,14.1,86.5,14.1z M37.3,22c1.2-0.6,12.8-4.6,15.4-4.6c2.8,0,14.6,3.4,15.8,3.9
				c1.7,0.7,2.5,1.8,2.5,3.2c0,1.4-1.4,2.3-2.3,2.5c-0.7,0.2-14.4,0.3-14.4,0.3s-13.7,0.4-15.6,0.1c-2-0.3-2.8-1.8-2.8-2.9
				C35.7,23.6,36.2,22.5,37.3,22z M54,88.5c-9.9,0-17.9-8-17.9-17.9c0-9.9,8-17.9,17.9-17.9c9.9,0,17.9,8,17.9,17.9
				C71.9,80.5,63.9,88.5,54,88.5z"/>
		</defs>
		<use xlink:href="#SVGID_1_"  style="overflow:visible;fill:#FFFFFF;"/>
		<clipPath id="SVGID_2_">
			<use xlink:href="#SVGID_1_"  style="overflow:visible;"/>
		</clipPath>
		<polygon class="st0" points="118.7,12.3 -17,75.3 -17,143.3 122.3,143.3 		"/>
		
			<use xlink:href="#SVGID_1_"  style="overflow:visible;fill:none;stroke:#000000;stroke-width:0.75;stroke-linecap:round;stroke-linejoin:round;stroke-miterlimit:10;"/>
	</g>
	<path class="st1" d="M77.6,71.4V61.2l-7.8-18.4c-0.6-1.3-1.6-2.3-2.9-2.8c-3.2-1.3-10.4-1.4-13.5-1.4c-3.1,0-10.3,0.1-13.5,1.4
		c-1.3,0.5-2.4,1.5-2.9,2.8l-7.8,18.4v10.2"/>
	<line class="st1" x1="54" y1="52.7" x2="54" y2="45.3"/>
</g>
</svg>
