<?xml version="1.0" encoding="utf-8"?>
<!-- Generator: Adobe Illustrator 21.1.0, SVG Export Plug-In . SVG Version: 6.00 Build 0)  -->
<svg version="1.1" id="Layer_1" xmlns="http://www.w3.org/2000/svg" xmlns:xlink="http://www.w3.org/1999/xlink" x="0px" y="0px"
	 width="108px" height="108px" viewBox="0 0 108 108" style="enable-background:new 0 0 108 108;" xml:space="preserve">
<style type="text/css">
	.st0{fill:none;stroke:#000000;stroke-width:0.75;stroke-linecap:round;stroke-linejoin:round;stroke-miterlimit:10;}
	.st1{clip-path:url(#SVGID_2_);fill:#F2F2F2;}
</style>
<g>
	<g>
		<line class="st0" x1="53.6" y1="57.4" x2="53.6" y2="49.3"/>
		<line class="st0" x1="40.3" y1="48.7" x2="44.1" y2="44.8"/>
		<line class="st0" x1="67.5" y1="48.9" x2="64" y2="45.3"/>
	</g>
	<g>
		<line class="st0" x1="53.9" y1="69.3" x2="53.9" y2="74.1"/>
		<line class="st0" x1="45.9" y1="74.5" x2="48.2" y2="76.8"/>
		<line class="st0" x1="62.2" y1="74.4" x2="60.1" y2="76.5"/>
	</g>
	<g>
		<defs>
			<path id="SVGID_1_" d="M54.5,10.2h-1.1c-14.6,0-26.4,10.7-26.4,24l9.8,43.9c2.7,13.1,6.8,19.7,16.6,19.7h1.1
				c8.4,0.1,14.2-6.8,16.7-19.7l9.7-43.9C80.9,20.9,69.1,10.2,54.5,10.2z M54.3,90.6c-4.5,0-8.2-3.7-8.2-8.2c0-4.5,3.7-8.2,8.2-8.2
				c2.3,0,4.3,0.9,5.8,2.4c1.5,1.5,2.4,3.6,2.4,5.9C62.6,86.9,58.9,90.6,54.3,90.6z M64,45.3c-2.5,2.5-5.9,4-9.6,4
				c-7.6,0-13.7-6.1-13.7-13.7c0-7.6,6.1-13.7,13.7-13.7S68.1,28,68.1,35.6C68.1,39.4,66.5,42.9,64,45.3z"/>
		</defs>
		<use xlink:href="#SVGID_1_"  style="overflow:visible;fill:#FFFFFF;"/>
		<clipPath id="SVGID_2_">
			<use xlink:href="#SVGID_1_"  style="overflow:visible;"/>
		</clipPath>
		<polygon class="st1" points="118.7,12.3 -17,75.3 -17,143.3 122.3,143.3 		"/>
		
			<use xlink:href="#SVGID_1_"  style="overflow:visible;fill:none;stroke:#000000;stroke-width:0.75;stroke-linecap:round;stroke-linejoin:round;stroke-miterlimit:10;"/>
	</g>
</g>
</svg>
