<?xml version="1.0" encoding="utf-8"?>
<!-- Generator: Adobe Illustrator 21.1.0, SVG Export Plug-In . SVG Version: 6.00 Build 0)  -->
<svg version="1.1" id="Layer_1" xmlns="http://www.w3.org/2000/svg" xmlns:xlink="http://www.w3.org/1999/xlink" x="0px" y="0px"
	 width="108px" height="108px" viewBox="0 0 108 108" style="enable-background:new 0 0 108 108;" xml:space="preserve">
<style type="text/css">
	.st0{clip-path:url(#SVGID_2_);fill:#F2F2F2;}
	.st1{fill:#FFFFFF;stroke:#000000;stroke-width:0.75;stroke-linecap:round;stroke-linejoin:round;stroke-miterlimit:10;}
</style>
<g>
	<g>
		<defs>
			<path id="SVGID_1_" d="M96.8,42.9c-0.9-0.2-34.6-8.4-43-8.4c-8.4,0-40.8,8-42.2,8.3c-5,1.2-8.8,5.7-8.8,11.1
				c0,5.5,3.9,10.1,9,11.2c0.8,0.2,34.2,8.2,42,8.2c7.9,0,42.2-8.1,43.2-8.4c4.8-1.3,8.3-5.8,8.3-11
				C105.3,48.7,101.7,44.2,96.8,42.9z M18.8,58.6c-1.2,1.1-2.7,1.8-4.5,1.8c-3.5,0-6.4-2.9-6.4-6.4c0-3.5,2.9-6.4,6.4-6.4
				c1.7,0,3.3,0.7,4.5,1.8c1.2,1.2,1.9,2.8,1.9,4.6C20.7,55.8,20,57.4,18.8,58.6z M61.7,61.7c-2,2-4.7,3.2-7.7,3.2
				c-3,0-5.7-1.2-7.7-3.2c-2-2-3.2-4.7-3.2-7.7c0-3,1.2-5.7,3.2-7.7c2-2,4.7-3.2,7.7-3.2s5.7,1.2,7.7,3.2c2,2,3.2,4.7,3.2,7.7
				C64.9,57,63.7,59.7,61.7,61.7z M94,60.4c-1.8,0-3.5-0.8-4.6-2c-1.1-1.1-1.8-2.7-1.8-4.4v-0.1c0-1.7,0.7-3.3,1.9-4.4
				c1.2-1.2,2.8-1.9,4.5-1.9c3.5,0,6.4,2.9,6.4,6.4C100.4,57.5,97.5,60.4,94,60.4z"/>
		</defs>
		<use xlink:href="#SVGID_1_"  style="overflow:visible;fill:#FFFFFF;"/>
		<clipPath id="SVGID_2_">
			<use xlink:href="#SVGID_1_"  style="overflow:visible;"/>
		</clipPath>
		<polygon class="st0" points="118.7,12.3 -17,75.3 -17,143.3 122.3,143.3 		"/>
		
			<use xlink:href="#SVGID_1_"  style="overflow:visible;fill:none;stroke:#000000;stroke-width:0.75;stroke-linecap:round;stroke-linejoin:round;stroke-miterlimit:10;"/>
	</g>
	<g>
		<line class="st1" x1="63.8" y1="63.8" x2="61.7" y2="61.7"/>
		<line class="st1" x1="46.3" y1="46.3" x2="44.2" y2="44.2"/>
		<line class="st1" x1="46.3" y1="61.7" x2="44.1" y2="63.9"/>
		<line class="st1" x1="63.9" y1="44.1" x2="61.7" y2="46.3"/>
		<line class="st1" x1="20.4" y1="60.2" x2="18.8" y2="58.6"/>
		<line class="st1" x1="20.5" y1="47.7" x2="18.8" y2="49.4"/>
		<line class="st1" x1="23.1" y1="54" x2="20.7" y2="54"/>
		<line class="st1" x1="89.4" y1="49.5" x2="87.6" y2="47.7"/>
		<line class="st1" x1="89.4" y1="58.4" x2="87.6" y2="60.2"/>
		<line class="st1" x1="87.6" y1="53.9" x2="84.9" y2="53.9"/>
	</g>
</g>
</svg>
