<?xml version="1.0" encoding="utf-8"?>
<!-- Generator: Adobe Illustrator 21.1.0, SVG Export Plug-In . SVG Version: 6.00 Build 0)  -->
<svg version="1.1" id="Layer_1" xmlns="http://www.w3.org/2000/svg" xmlns:xlink="http://www.w3.org/1999/xlink" x="0px" y="0px"
	 width="108px" height="108px" viewBox="0 0 108 108" style="enable-background:new 0 0 108 108;" xml:space="preserve">
<style type="text/css">
	.st0{fill:#FFFFFF;stroke:#000000;stroke-width:0.75;stroke-linecap:round;stroke-linejoin:round;stroke-miterlimit:10;}
	.st1{fill:none;stroke:#000000;stroke-width:0.75;stroke-linecap:round;stroke-linejoin:round;stroke-miterlimit:10;}
	.st2{fill:#E6E6E6;stroke:#000000;stroke-width:0.75;stroke-linecap:round;stroke-linejoin:round;stroke-miterlimit:10;}
</style>
<g>
	<path class="st0" d="M73.3,3.3H34.6c-1,0-1.9,0.9-1.9,2.1v87.8h42.5V5.4C75.2,4.3,74.4,3.3,73.3,3.3z M64,33.8
		c-2.5,2.9-6.2,4.7-10.3,4.7c-4.2,0-8-1.9-10.5-5c-1.9-2.3-3.1-5.3-3.1-8.6c0-7.5,6.1-13.6,13.6-13.6c4,0,7.7,1.8,10.1,4.6
		c2.1,2.4,3.4,5.6,3.4,9C67.3,28.3,66.1,31.4,64,33.8z"/>
	<g>
		<line class="st1" x1="69.8" y1="10.9" x2="64.4" y2="16.4"/>
		<line class="st1" x1="69.6" y1="39.3" x2="63.8" y2="33.6"/>
		<line class="st1" x1="37.6" y1="39.1" x2="43.4" y2="33.3"/>
		<line class="st1" x1="37.9" y1="10.4" x2="43.2" y2="15.7"/>
	</g>
	<path class="st2" d="M75.3,93.2v9c0,0.3,0,0.5-0.1,0.8c-0.1,1-0.9,1.8-1.9,1.8H34.6c-1,0-1.9-0.9-1.9-2.1v-9.4H75.3z"/>
</g>
</svg>
