<?xml version="1.0" encoding="utf-8"?>
<!-- Generator: Adobe Illustrator 21.1.0, SVG Export Plug-In . SVG Version: 6.00 Build 0)  -->
<svg version="1.1" id="Layer_1" xmlns="http://www.w3.org/2000/svg" xmlns:xlink="http://www.w3.org/1999/xlink" x="0px" y="0px"
	 width="108px" height="108px" viewBox="0 0 108 108" style="enable-background:new 0 0 108 108;" xml:space="preserve">
<style type="text/css">
	.st0{fill:#FFFFFF;stroke:#000000;stroke-width:0.75;stroke-linecap:round;stroke-linejoin:round;stroke-miterlimit:10;}
	.st1{fill:#E6E6E6;stroke:#000000;stroke-width:0.75;stroke-linecap:round;stroke-linejoin:round;stroke-miterlimit:10;}
	.st2{fill:none;stroke:#000000;stroke-width:0.75;stroke-linecap:round;stroke-linejoin:round;stroke-miterlimit:10;}
</style>
<g>
	<path class="st0" d="M73.4,3.3H34.6c-1,0-1.9,0.9-1.9,2.1v97.2c0,1.2,0.8,2.1,1.9,2.1h38.8c0.8,0,1.4-0.5,1.7-1.2
		c0.1-0.3,0.2-0.6,0.2-0.9V5.4C75.3,4.3,74.4,3.3,73.4,3.3z M63.2,93.7c-2.1,2.4-5.1,3.9-8.6,3.9c-3.5,0-6.7-1.6-8.8-4.1
		c-1.6-2-2.6-4.5-2.6-7.2c0-6.2,5.1-11.3,11.3-11.3c3.4,0,6.4,1.5,8.5,3.8c1.8,2,2.9,4.6,2.9,7.5C65.9,89.1,64.9,91.7,63.2,93.7z
		 M40.4,12.4c1-0.5,10.6-3.8,12.8-3.8c2.4,0,12.2,2.8,13.2,3.2c1.4,0.6,2.1,1.5,2.1,2.6c0,1.1-1.2,1.9-1.9,2.1
		c-0.6,0.2-12,0.2-12,0.2s-11.4,0.3-13,0.1c-1.6-0.2-2.3-1.5-2.4-2.4C39.1,13.7,39.6,12.8,40.4,12.4z"/>
	<path class="st1" d="M32.7,70.1v33c0,0.9,0.7,1.6,1.6,1.6h39.3c0.9,0,1.6-0.7,1.6-1.6v-33H32.7z M63.2,93.7
		c-2.1,2.4-5.1,3.9-8.6,3.9c-3.5,0-6.7-1.6-8.8-4.1c-1.6-2-2.6-4.5-2.6-7.2c0-6.2,5.1-11.3,11.3-11.3c3.4,0,6.4,1.5,8.5,3.8
		c1.8,2,2.9,4.6,2.9,7.5C65.9,89.1,64.9,91.7,63.2,93.7z"/>
	<line class="st2" x1="68" y1="74.7" x2="63.5" y2="79.2"/>
	<line class="st2" x1="67.8" y1="98.3" x2="63" y2="93.5"/>
	<line class="st2" x1="41.2" y1="98.1" x2="46" y2="93.3"/>
	<line class="st2" x1="41.4" y1="74.2" x2="45.8" y2="78.6"/>
</g>
</svg>
