<?xml version="1.0" encoding="utf-8"?>
<!-- Generator: Adobe Illustrator 21.1.0, SVG Export Plug-In . SVG Version: 6.00 Build 0)  -->
<svg version="1.1" id="Layer_1" xmlns="http://www.w3.org/2000/svg" xmlns:xlink="http://www.w3.org/1999/xlink" x="0px" y="0px"
	 width="108px" height="108px" viewBox="0 0 108 108" style="enable-background:new 0 0 108 108;" xml:space="preserve">
<style type="text/css">
	.st0{fill:#CCCCCC;stroke:#000000;stroke-width:0.75;stroke-linecap:round;stroke-linejoin:round;stroke-miterlimit:10;}
	.st1{fill:#FFFFFF;stroke:#000000;stroke-width:0.75;stroke-linecap:round;stroke-linejoin:round;stroke-miterlimit:10;}
	.st2{fill:#CCCCCC;stroke:#000000;stroke-width:0.5;stroke-linecap:round;stroke-linejoin:round;stroke-miterlimit:10;}
	.st3{fill:#FFFFFF;stroke:#000000;stroke-width:0.5;stroke-linecap:round;stroke-linejoin:round;stroke-miterlimit:10;}
	.st4{fill:#E6E6E6;stroke:#000000;stroke-width:0.75;stroke-linecap:round;stroke-linejoin:round;stroke-miterlimit:10;}
	.st5{fill:#E6E6E6;stroke:#000000;stroke-width:0.5;stroke-linecap:round;stroke-linejoin:round;stroke-miterlimit:10;}
</style>
<g>
	<path class="st0" d="M21.1,7.4c-0.8,0.1-2.4,3.1-2.4,3.1s-2.9-3.3-3.5-2.7C15,7.9,14,8.9,12.6,10.1l2.8-2.7l0,0l0,0l5.3-0.2l0.1,0
		l0.1,0L21,7.3L21.1,7.4z"/>
	<path class="st1" d="M21,7.3L21,7.3l-0.1,0.1l-0.1,0c-0.4,0-1.7,0-2.9,0c-1.2,0-2.2,0.1-2.4,0.2c0,0,0,0,0,0l3.1-2.9L21,7.3z"/>
	<path class="st1" d="M15.5,7.5C15.5,7.5,15.5,7.5,15.5,7.5L15.5,7.5L15.5,7.5z"/>
	<path class="st1" d="M20.8,7.3l-5.3,0.2c0.2,0,1.2-0.1,2.4-0.2C19.1,7.3,20.4,7.3,20.8,7.3z"/>
	<path class="st1" d="M94.2,96.6l6.6,6.1l-95.2-86l6.8,6.1l12.4-11.2c0,0-0.2-0.2-0.5-0.6l78.3,87.7c-1-1.1-2.5-2.8-3.1-3.5
		c-0.1-0.1-0.2-0.2-0.3-0.2c0,0,0,0,0,0c-1.5-0.9-2.6-0.5-2.8-0.4l0,0c-0.1-0.1-0.3,0-0.4,0.1C95.4,95.3,94.2,96.6,94.2,96.6z"/>
	<path class="st2" d="M99.2,95c-0.1,0-0.3,0-0.5,0.1c-0.6,0.3-1.2,1.4-1.2,1.4s-0.6-1.7-1.1-1.9C96.6,94.5,97.7,94.1,99.2,95z"/>
	<path class="st3" d="M99.6,95.2l-0.8-0.2c0.1-0.1,0.3-0.1,0.5-0.1c0,0,0,0,0,0C99.3,95,99.5,95.1,99.6,95.2z"/>
	<path class="st4" d="M24.8,11.6L12.5,22.7l-6.8-6.1c0,0,2-1.8,4.1-3.9c0.5-0.4,0.9-0.9,1.4-1.3c0.3-0.3,0.6-0.6,0.9-0.8
		c0.2-0.2,0.4-0.4,0.6-0.6c0.3-0.3,0.7-0.6,0.9-0.9c0.1-0.1,0.2-0.2,0.3-0.3c0.7-0.7,1.2-1.2,1.4-1.3c0.6-0.6,3.5,2.7,3.5,2.7
		s1.6-3,2.4-3.1l3,3.4c0.1,0.1,0.2,0.2,0.2,0.3C24.7,11.3,24.8,11.6,24.8,11.6z"/>
	<path class="st1" d="M24.2,10.7l-3-3.4c0.1,0,0.2,0,0.2,0.1C21.8,7.9,23.3,9.7,24.2,10.7z"/>
	<path class="st1" d="M15.5,7.5L15.5,7.5L15.5,7.5C15.5,7.5,15.5,7.5,15.5,7.5z"/>
	<path class="st1" d="M20.8,7.3l-5.3,0.2c0.2,0,1.2-0.1,2.4-0.2C19.1,7.3,20.4,7.3,20.8,7.3z"/>
	<path class="st5" d="M103.6,99.7l-2.8,3l-6.6-6.1c0,0,1.2-1.3,1.9-2c0.1-0.1,0.3-0.1,0.4-0.1l0,0c0.6,0.2,1.1,1.9,1.1,1.9
		s0.5-1.1,1.2-1.4l0.8,0.2c0.6,0.7,2.1,2.4,3.1,3.5c0.1,0.1,0.2,0.2,0.3,0.3C103.2,99.3,103.4,99.5,103.6,99.7
		C103.5,99.6,103.6,99.6,103.6,99.7C103.6,99.7,103.6,99.7,103.6,99.7z"/>
	<path class="st3" d="M99.6,95.2l-0.8-0.2c0.1-0.1,0.3-0.1,0.5-0.1c0,0,0,0,0,0C99.3,95,99.5,95.1,99.6,95.2z"/>
</g>
</svg>
