<?xml version="1.0" encoding="utf-8"?>
<!-- Generator: Adobe Illustrator 21.1.0, SVG Export Plug-In . SVG Version: 6.00 Build 0)  -->
<svg version="1.1" id="Layer_1" xmlns="http://www.w3.org/2000/svg" xmlns:xlink="http://www.w3.org/1999/xlink" x="0px" y="0px"
	 width="108px" height="108px" viewBox="0 0 108 108" style="enable-background:new 0 0 108 108;" xml:space="preserve">
<style type="text/css">
	.st0{fill:#FFFFFF;stroke:#000000;stroke-width:0.75;stroke-linecap:round;stroke-linejoin:round;stroke-miterlimit:10;}
	.st1{fill:#CCCCCC;stroke:#000000;stroke-width:0.75;stroke-linecap:round;stroke-linejoin:round;stroke-miterlimit:10;}
	.st2{fill:#E6E6E6;stroke:#000000;stroke-width:0.75;stroke-linecap:round;stroke-linejoin:round;stroke-miterlimit:10;}
	.st3{fill:none;stroke:#000000;stroke-width:0.75;stroke-linecap:round;stroke-linejoin:round;stroke-miterlimit:10;}
</style>
<g>
	<path class="st0" d="M19.8,11L19.8,11c0,0-2.5-2.5-3.7-3.5c-0.2-0.1-0.3-0.2-0.5-0.1L10,7.2L9.9,7.1l3-3L19.8,11z"/>
	<path class="st1" d="M15.6,7.3c-1.2,0.3-2.7,3.8-2.7,3.8S10.5,7,9.4,7.6l0.5-0.5L10,7.2L15.6,7.3z"/>
	<path class="st0" d="M103.8,95.3l-8.6,8.6l-84-84.3l8.6-8.6l0,0l81.9,82.1c-0.6-0.6-1.2-1.2-1.7-1.6c-0.2-0.1-0.3-0.2-0.5-0.1h0
		l-5.5,0.2l0,0.1c-0.3-0.1-0.5-0.1-0.7,0.1c-1,1.1-5.1,4.9-5.1,4.9l7,7l8.6-8.6L103.8,95.3z"/>
	<path class="st2" d="M19.8,11l-8.6,8.6l-6.9-6.9l4.3-4.3c0.1-0.1,0.2-0.2,0.3-0.3l0.3-0.3l0.1-0.1c0,0,0.1-0.1,0.1-0.1
		c1.1-0.7,3.5,3.5,3.5,3.5s1.5-3.5,2.7-3.8c0.2,0,0.4,0,0.5,0.1C17.3,8.5,19.8,11,19.8,11z"/>
	<path class="st0" d="M9.3,7.7L9.2,7.8C9.2,7.8,9.2,7.8,9.3,7.7L9.3,7.7z"/>
	<path class="st0" d="M11.2,19.6L11.2,19.6l-7-7c0,0,2.9-2.7,4.4-4.2l-4.3,4.3L11.2,19.6z"/>
	<line class="st3" x1="15.7" y1="7.3" x2="15.6" y2="7.3"/>
	<path class="st2" d="M103.7,95.1l-8.6,8.6l-7-7c0,0,4.1-3.8,5.1-4.9c0.2-0.2,0.4-0.2,0.7-0.1c1.2,0.5,2.9,3.5,2.9,3.5
		s1.5-3.5,2.7-3.8h0c0.2-0.1,0.4,0,0.5,0.1c0.4,0.4,1.1,1,1.7,1.6c0,0,0,0,0,0L103.7,95.1z"/>
	<path class="st0" d="M103.7,95.1L103.7,95.1l-2-2C102.7,94.2,103.7,95.1,103.7,95.1z"/>
	<path class="st1" d="M99.4,91.4c-1.2,0.3-2.7,3.8-2.7,3.8s-1.7-2.9-2.9-3.5l0-0.1L99.4,91.4z"/>
	<line class="st3" x1="99.6" y1="91.4" x2="99.4" y2="91.4"/>
	<line class="st3" x1="93.9" y1="91.6" x2="93.8" y2="91.6"/>
</g>
</svg>
