<?xml version="1.0" encoding="utf-8"?>
<!-- Generator: Adobe Illustrator 21.1.0, SVG Export Plug-In . SVG Version: 6.00 Build 0)  -->
<svg version="1.1" id="Layer_1" xmlns="http://www.w3.org/2000/svg" xmlns:xlink="http://www.w3.org/1999/xlink" x="0px" y="0px"
	 width="108px" height="108px" viewBox="0 0 108 108" style="enable-background:new 0 0 108 108;" xml:space="preserve">
<style type="text/css">
	.st0{fill:#FFFFFF;stroke:#000000;stroke-linecap:round;stroke-linejoin:round;stroke-miterlimit:10;}
</style>
<g>
	<path class="st0" d="M36.1,85.4c-0.5-1.8-0.8-3.7-0.8-5.7l-0.5-50.7c0-3.4,0.6-6.3,1.9-8.8c2.6-5,7.6-8.6,13.2-9.4
		c3.4-0.4,8.4-0.6,12.6,1.4c5.1,2.4,8.9,7.3,9.9,12.8c0.3,1.9,0.3,3.8,0.3,5.7c0,0.5,0,1.1,0,1.6l0.1,6.2c0,1.2-0.9,2.1-2.1,2.2
		c-1.2,0-2.1-0.9-2.2-2.1l-0.1-6.2c0-0.6,0-1.1,0-1.7c0-1.7,0-3.4-0.2-4.9c-0.7-4.2-3.6-7.9-7.4-9.6c-2.6-1.2-6.3-1.6-10.3-1
		c-4.2,0.6-8,3.3-9.9,7.1c-1,1.9-1.4,4.1-1.4,6.8l0.5,50.7c0,2.9,0.6,5.2,1.9,7.3c2.2,3.7,6.2,6.1,10.5,6.3c3.3,0.2,7,0.1,10.2-1.6
		c3.7-2.1,6.3-6,6.7-10.2c0.2-1.8,0.1-3.6,0-5.5c0-0.8,0-1.6-0.1-2.4l-0.1-7.7c0-1.2,0.9-2.1,2.1-2.2c1.2,0,2.1,0.9,2.2,2.1l0.1,7.7
		c0,0.8,0,1.5,0.1,2.3c0.1,2,0.1,4-0.1,6c-0.5,5.6-3.9,10.8-8.9,13.6c-4.1,2.3-8.8,2.4-12.5,2.2c-5.6-0.3-11-3.5-13.9-8.3
		C37.1,88,36.6,86.7,36.1,85.4z"/>
	<path class="st0" d="M44.2,69.4c-0.3-1-0.4-2-0.5-3.1l-0.2-24.5c0-1.8,0.3-3.4,1-4.8c1.4-2.8,4.2-4.7,7.2-5.1
		c1.8-0.2,4.4-0.3,6.7,0.8c2.8,1.3,4.9,4,5.4,7c0.2,1,0.2,2,0.2,2.9c0,0.3,0,0.5,0,0.8l0,3c0,1.2-0.9,2.1-2.1,2.2
		c-1.2,0-2.1-0.9-2.2-2.1l0-3c0-0.3,0-0.6,0-0.8c0-0.8,0-1.5-0.1-2.2c-0.3-1.7-1.4-3.1-3-3.8c-1.1-0.5-2.6-0.6-4.4-0.4
		c-1.7,0.2-3.2,1.3-4,2.8c-0.4,0.8-0.6,1.7-0.6,2.8L48,66.3c0,1.2,0.3,2.1,0.8,3c0.9,1.5,2.5,2.4,4.2,2.5c1.4,0.1,3,0.1,4.3-0.7
		c1.5-0.8,2.5-2.4,2.7-4.1c0.1-0.8,0-1.6,0-2.5c0-0.4,0-0.8,0-1.2l0-3.7c0-1.2,0.9-2.1,2.1-2.2c1.2,0,2.1,0.9,2.2,2.1l0,3.7
		c0,0.4,0,0.7,0,1.1c0,1,0.1,2,0,3c-0.3,3.1-2.1,5.9-4.8,7.4c-2.2,1.2-4.7,1.3-6.6,1.2c-3.1-0.2-6-1.9-7.6-4.5
		C44.7,70.8,44.4,70.1,44.2,69.4z"/>
</g>
</svg>
