<?xml version="1.0" encoding="utf-8"?>
<!-- Generator: Adobe Illustrator 21.1.0, SVG Export Plug-In . SVG Version: 6.00 Build 0)  -->
<svg version="1.1" id="Layer_1" xmlns="http://www.w3.org/2000/svg" xmlns:xlink="http://www.w3.org/1999/xlink" x="0px" y="0px"
	 width="108px" height="108px" viewBox="0 0 108 108" style="enable-background:new 0 0 108 108;" xml:space="preserve">
<style type="text/css">
	.st0{fill:#FFFFFF;stroke:#000000;stroke-linecap:round;stroke-linejoin:round;stroke-miterlimit:10;}
</style>
<path class="st0" d="M58.4,93.6c-0.9,0-2-0.2-3.2-0.6c-2.1-0.8-3.6-2.3-4.4-4.3c-0.9-2.5-0.6-5.6,0.9-8.5c1.3-2.4,2.7-5.1,4.3-8.1
	c3.6-6.7,8-15,12.4-23.8c5.5-11,3.1-22-5.8-26.9c-5.2-2.9-11.2-3.5-15.9-1.7c-3.5,1.3-6.1,4-7.4,7.6c-1.1,3.1-2.9,7.5-2.9,7.7
	c-0.4,1.1-1.7,1.6-2.8,1.2c-1.1-0.4-1.6-1.7-1.2-2.8c0,0,1.8-4.5,2.9-7.5c1.7-4.9,5.2-8.4,9.9-10.2c5.8-2.2,13.1-1.5,19.4,2
	c11,6,14.2,19.4,7.6,32.6c-4.4,8.8-8.9,17.2-12.4,23.9c-1.6,3-3,5.7-4.3,8.1c-0.9,1.8-1.2,3.7-0.7,5c0.3,0.8,0.9,1.4,1.9,1.8
	c1.2,0.5,2.1,0.5,2.7,0.1c1.1-0.8,1.9-3.5,1.8-6.8c0-2.2,0-4.1,0-5.7c0-1.7,0.8-4,2.9-5.5c2.5-1.8,5.9-4.2,8-5.6
	c1-0.7,2.3-0.5,3,0.5l0,0c0.7,1,0.5,2.3-0.5,3c-2,1.4-5.5,3.9-8,5.6c-0.9,0.6-1.1,1.6-1.1,2c0,1.6,0,3.5,0,5.6c0,2.9-0.4,8-3.6,10.3
	C61.1,93.1,60,93.6,58.4,93.6z"/>
</svg>
