<?xml version="1.0" encoding="utf-8"?>
<!-- Generator: Adobe Illustrator 21.1.0, SVG Export Plug-In . SVG Version: 6.00 Build 0)  -->
<svg version="1.1" id="Layer_1" xmlns="http://www.w3.org/2000/svg" xmlns:xlink="http://www.w3.org/1999/xlink" x="0px" y="0px"
	 width="108px" height="108px" viewBox="0 0 108 108" style="enable-background:new 0 0 108 108;" xml:space="preserve">
<style type="text/css">
	.st0{fill:#FFFFFF;stroke:#000000;stroke-linecap:round;stroke-linejoin:round;stroke-miterlimit:10;}
</style>
<path class="st0" d="M54,105c-16.5,0-29.9-13.4-29.9-29.9c0-10.7,5.9-20.8,15.2-26c1.7-17.8,4-39.1,5.2-41.7c1.4-2.8,4.9-4,7.8-4.2
	c3.7-0.2,6.8,1.1,8.4,3.6C62.8,10,68.3,30,70,36.1c0.3,1.1-0.3,2.1-1.4,2.4c-1.1,0.3-2.1-0.3-2.4-1.4c-3.3-12.2-7.4-26.2-8.8-28.3
	c-0.8-1.2-2.6-1.9-4.8-1.8c-1.8,0.1-3.9,0.8-4.5,2c-0.8,1.8-2.8,18.5-4.9,41.5c-0.1,0.7-0.5,1.3-1.1,1.6
	c-8.5,4.4-14.1,13.5-14.1,23.1C28.1,89.4,39.7,101,54,101c14.3,0,25.9-11.6,25.9-25.9c0-6-2.1-11.8-5.8-16.4
	c-0.3-0.4-0.5-0.9-0.4-1.4c0.7-6.7,2.8-28.9,2.9-30.8c0.1-1.1,1-1.9,2.1-1.9c1.1,0.1,1.9,1,1.9,2.1c-0.1,1.9-2,21.1-2.9,30.2
	c4,5.2,6.2,11.7,6.2,18.3C83.9,91.5,70.5,105,54,105z"/>
</svg>
