<?xml version="1.0" encoding="utf-8"?>
<!-- Generator: Adobe Illustrator 21.1.0, SVG Export Plug-In . SVG Version: 6.00 Build 0)  -->
<svg version="1.1" id="Layer_1" xmlns="http://www.w3.org/2000/svg" xmlns:xlink="http://www.w3.org/1999/xlink" x="0px" y="0px"
	 width="108px" height="108px" viewBox="0 0 108 108" style="enable-background:new 0 0 108 108;" xml:space="preserve">
<style type="text/css">
	.st0{fill:#FFFFFF;stroke:#000000;stroke-linecap:round;stroke-linejoin:round;stroke-miterlimit:10;}
</style>
<path class="st0" d="M59.3,94.2c-1.4,0-2.9-0.4-4.5-1.1c-2-0.9-3.5-2.4-4.1-4.4c-0.8-2.5-0.4-5.4,1.1-8.4c1.3-2.4,2.7-5.2,4.3-8.2
	c3.6-6.7,8.1-15.1,12.5-24c5.6-11.1,3.1-22.3-5.9-27.2c-5.3-2.9-11.3-3.6-16.1-1.7c-3.6,1.4-6.2,4-7.5,7.7c-1.1,3.1-2.9,7.6-3,7.8
	c-0.4,1.1-1.7,1.6-2.8,1.2c-1.1-0.4-1.6-1.7-1.2-2.8c0,0,1.8-4.6,2.9-7.6c1.8-4.9,5.2-8.5,10-10.3c5.9-2.2,13.2-1.5,19.6,2
	c11.2,6.1,14.3,19.6,7.7,32.9c-4.5,8.9-8.9,17.3-12.5,24.1c-1.6,3-3.1,5.7-4.3,8.2c-1,1.9-1.3,3.7-0.9,5.1c0.3,0.8,0.9,1.5,1.9,1.9
	c1.7,0.8,3.1,0.9,4,0.4c1.1-0.6,2-2.3,2.3-4.7c1.3-8.4,2-12.2,2-12.4c0.2-1.2,1.3-1.9,2.5-1.7c1.2,0.2,1.9,1.3,1.7,2.5
	c0,0-0.7,3.9-2,12.2c-0.6,3.8-2.1,6.5-4.5,7.8C61.6,93.9,60.5,94.2,59.3,94.2z"/>
</svg>
