<?xml version="1.0" encoding="utf-8"?>
<!-- Generator: Adobe Illustrator 21.1.0, SVG Export Plug-In . SVG Version: 6.00 Build 0)  -->
<svg version="1.1" id="Layer_1" xmlns="http://www.w3.org/2000/svg" xmlns:xlink="http://www.w3.org/1999/xlink" x="0px" y="0px"
	 width="108px" height="108px" viewBox="0 0 108 108" style="enable-background:new 0 0 108 108;" xml:space="preserve">
<style type="text/css">
	.st0{fill:#FFFFFF;stroke:#000000;stroke-linecap:round;stroke-linejoin:round;stroke-miterlimit:10;}
</style>
<path class="st0" d="M53.9,92.5c-1.5,0-3-0.1-4.5-0.5c-6.1-1.6-11.3-6.4-13.7-12.7c-3.7-9.9-4.6-14.7-4.6-14.9
	c-0.2-1.2,0.6-2.3,1.7-2.5c1.2-0.2,2.3,0.6,2.5,1.7c0,0.1,0.9,4.8,4.4,14.1c1.8,4.9,6,8.9,10.7,10.1c2.8,0.7,7.1,0.8,11.4-2.9
	c3.4-2.9,4.9-5.9,4.7-9.3c-0.3-5.9-5.9-12.9-16.3-20.2c-10.2-7.2-16.2-16.2-16.3-24.2c0-4.9,2.3-9.1,6.6-12.2
	c4.7-3.3,10.2-4.4,15.5-2.9c5.9,1.6,10.8,6.2,13.6,12.4c2.5,5.6,6.9,17.7,7.1,18.2c0.4,1.1-0.2,2.3-1.3,2.7
	c-1.1,0.4-2.3-0.2-2.7-1.3c0-0.1-4.6-12.5-7-18c-2.2-5.1-6.1-8.7-10.8-10c-4-1.1-8.2-0.3-11.9,2.3c-3.2,2.3-4.8,5.2-4.8,8.7
	c0,6.5,5.6,14.5,14.5,20.8c11.7,8.3,17.8,16.2,18.1,23.5c0.2,4.7-1.9,9-6.2,12.7C61.5,90.9,57.8,92.4,53.9,92.5z"/>
</svg>
