<?xml version="1.0" encoding="utf-8"?>
<!-- Generator: Adobe Illustrator 21.1.0, SVG Export Plug-In . SVG Version: 6.00 Build 0)  -->
<svg version="1.1" id="Layer_1" xmlns="http://www.w3.org/2000/svg" xmlns:xlink="http://www.w3.org/1999/xlink" x="0px" y="0px"
	 width="108px" height="108px" viewBox="0 0 108 108" style="enable-background:new 0 0 108 108;" xml:space="preserve">
<style type="text/css">
	.st0{fill:#FFFFFF;stroke:#000000;stroke-width:0.75;stroke-linecap:round;stroke-linejoin:round;stroke-miterlimit:10;}
	.st1{fill:#F2F2F2;stroke:#000000;stroke-width:0.75;stroke-linecap:round;stroke-linejoin:round;stroke-miterlimit:10;}
	.st2{fill:#B3B3B3;stroke:#000000;stroke-width:0.75;stroke-linecap:round;stroke-linejoin:round;stroke-miterlimit:10;}
	.st3{fill:#FFFFFF;stroke:#000000;stroke-width:0.5;stroke-linecap:round;stroke-linejoin:round;stroke-miterlimit:10;}
	.st4{fill:#CCCCCC;stroke:#000000;stroke-width:0.75;stroke-linecap:round;stroke-linejoin:round;stroke-miterlimit:10;}
</style>
<g>
	<g>
		<path class="st0" d="M52.8,90.4c0,0-0.3,0.1-0.5,0.1c0,0,0,0-0.1,0C52.2,90.6,52.3,90.5,52.8,90.4L52.8,90.4L52.8,90.4z"/>
		<path class="st0" d="M52.7,90.3L52.7,90.3c0.3-0.1,0.7-0.2,1.3-0.4L52.7,90.3z"/>
		<path class="st0" d="M90.5,42.3c-0.7-1.7-1.6-3.2-2.5-4c-2.1-1.8-33.3-27.2-33.3-27.2l-0.6-7.6L49.8,5l-0.3,4.3L23.8,23l-3.4-4.6
			l-4,1.2l0.3,11.3c0,0,33.3,28.4,34.2,30.5c0.2,0.4,0.3,1.7,0.5,3.5 M31.6,36.2c-2.7,0.1-5.4-1.7-6-3.9c-0.6-2.2,1.1-4.1,3.9-4.2
			s5.4,1.7,6,3.9C36.1,34.3,34.4,36.2,31.6,36.2z M54.5,23.7c-2.7,0.1-5.4-1.7-6-3.9c-0.6-2.3,1.1-4.1,3.9-4.2
			c2.7-0.1,5.4,1.7,6,3.9C59,21.8,57.2,23.7,54.5,23.7z M73.4,42.3l-1.4,0.9c0.2,1.1-0.5,2.4-2.1,3.4c-1.6,1-3.5,1.4-5,1.2l-1.4,0.9
			c-0.8,0.5-2,0.5-2.7,0c-0.7-0.5-0.6-1.4,0.2-1.9l1.5-1c-0.1-1,0.7-2.2,2.1-3.1c1.4-0.9,3.2-1.3,4.7-1.2l1.5-1c0.8-0.5,2-0.5,2.7,0
			C74.3,40.9,74.2,41.8,73.4,42.3z"/>
		<path class="st1" d="M51.5,64.9c0.2,2.6,0.4,6.2,0.6,9.8c0,0.1,0,0.3,0,0.4c0.1,1.5,0.1,3.1,0.2,4.5c0.1,1.6,0.1,3.1,0.2,4.3
			c0.1,2.2,0.1,3.6,0.1,3.6s-0.3,1-0.7,1.9c-0.4,0.8-0.9,1.6-1.4,1.8c0.7-0.2,1.3-0.3,1.9-0.5c-0.1,0,0-0.1,0.5-0.2l0,0l1.3-0.4
			l1.2-0.4l0,0c2.2-0.7,35.1-24.4,36.6-25.6c1.5-1.2,0.6-10.7,0.3-14.6c-0.2-2.1-0.8-4.7-1.7-6.9 M60.9,79.7c0,0.6-0.5,1.4-1.1,1.8
			c-0.2,0.2-0.4,0.3-0.6,0.3c-0.3,0-0.4-0.2-0.4-0.6V69.1c0-0.6,0.5-1.4,1.1-1.8c0.2-0.2,0.4-0.2,0.6-0.2c0.3,0,0.4,0.2,0.4,0.5
			V79.7z M67,70.6l-2.1,0.6v-4.9c0-0.6,0.5-1.4,1.1-1.8c0.2-0.2,0.4-0.3,0.6-0.3c0.3,0,0.4,0.2,0.4,0.6V70.6z M80.5,67
			c-0.5,2.9-2.5,5.2-4.9,5.2c-1.7,0-3.2-1.1-4.1-2.7c-0.6-1.1-1-2.4-1-3.8c0-3.6,2.3-6.6,5-6.6c2.8,0,5,2.9,5,6.6
			C80.6,66.1,80.6,66.5,80.5,67z M85,64.5c0,0.4-0.3,1-0.7,1.5c-0.1,0.1-0.3,0.3-0.4,0.4c-0.2,0.2-0.4,0.3-0.6,0.3
			c-0.2,0-0.3-0.1-0.4-0.2c-0.1-0.1-0.1-0.2-0.1-0.3V53.8c0-0.6,0.5-1.4,1.1-1.8c0.2-0.2,0.4-0.2,0.6-0.2c0.3,0,0.4,0.2,0.4,0.5
			V64.5z M89.9,60.8c0,0.6-0.5,1.4-1.1,1.8c-0.2,0.2-0.4,0.2-0.6,0.2c-0.3,0-0.4-0.2-0.4-0.5V50.1c0-0.6,0.5-1.4,1.1-1.8
			c0.2-0.2,0.4-0.3,0.6-0.3c0.3,0,0.4,0.2,0.4,0.6V60.8z"/>
	</g>
	<path class="st2" d="M60.9,72.3v7.4c0,0.6-0.5,1.4-1.1,1.8c-0.2,0.2-0.4,0.3-0.6,0.3c-0.3,0-0.4-0.2-0.4-0.6v-8.4L60.9,72.3z"/>
	<path class="st2" d="M67,70.6V77c0,0.6-0.5,1.4-1.1,1.8c-0.2,0.2-0.4,0.2-0.6,0.2c-0.3,0-0.4-0.2-0.4-0.5v-7.3L67,70.6z"/>
	<line class="st0" x1="16.8" y1="30.9" x2="54.7" y2="11.1"/>
	<g>
		<line class="st3" x1="56.8" y1="57.5" x2="87" y2="41"/>
		<line class="st3" x1="54.7" y1="60.2" x2="84.9" y2="43.8"/>
		<line class="st3" x1="56.2" y1="61.2" x2="86.4" y2="44.7"/>
	</g>
	<path class="st2" d="M80.5,67c-0.5,2.9-2.5,5.2-4.9,5.2c-1.7,0-3.2-1.1-4.1-2.7L80.5,67z"/>
	<path class="st4" d="M52.5,87.4c0,0-0.3,1-0.7,1.9c-0.4,0.8-0.9,1.6-1.4,1.8c-1.2,0.3-24.2,3.4-26.3,3.7C22,95.1,21,96.6,21,98.1
		c0,1.5-0.6,3.4-0.6,3.4l-5.2,3l0.3-9.5l19.2-13l0,0l7-4.6l10.4-2.8c0,0.1,0,0.3,0,0.4c0.1,1.5,0.1,3.1,0.2,4.5l-0.3,0l-9.4,1.6
		c0,0-5.3,1.2-7.1,2.7c-1.9,1.4,3,2.4,4.2,2.2l12.7-2.2h0C52.5,86,52.5,87.4,52.5,87.4z"/>
	<line class="st0" x1="67" y1="70.6" x2="64.9" y2="71.2"/>
	<path class="st0" d="M55.2,89.5c-0.2,0.1-1.1,0.5-2.4,0.9c-0.2,0.1-0.3,0.1-0.5,0.2c0,0,0,0-0.1,0c-0.1,0,0-0.1,0.5-0.2l0,0
		l1.3-0.4L55.2,89.5z"/>
</g>
</svg>
