<?xml version="1.0" encoding="utf-8"?>
<!-- Generator: Adobe Illustrator 21.1.0, SVG Export Plug-In . SVG Version: 6.00 Build 0)  -->
<svg version="1.1" id="Layer_1" xmlns="http://www.w3.org/2000/svg" xmlns:xlink="http://www.w3.org/1999/xlink" x="0px" y="0px"
	 width="108px" height="108px" viewBox="0 0 108 108" style="enable-background:new 0 0 108 108;" xml:space="preserve">
<style type="text/css">
	.st0{fill:#808080;stroke:#000000;stroke-width:0.5;stroke-linecap:round;stroke-linejoin:round;stroke-miterlimit:10;}
	.st1{fill:#B3B3B3;stroke:#000000;stroke-width:0.5;stroke-linecap:round;stroke-linejoin:round;stroke-miterlimit:10;}
	.st2{fill:#808080;stroke:#000000;stroke-width:0.75;stroke-linecap:round;stroke-linejoin:round;stroke-miterlimit:10;}
	.st3{fill:#CCCCCC;stroke:#000000;stroke-width:0.5;stroke-linecap:round;stroke-linejoin:round;stroke-miterlimit:10;}
	.st4{fill:#999999;stroke:#000000;stroke-width:0.75;stroke-linecap:round;stroke-linejoin:round;stroke-miterlimit:10;}
	.st5{fill:none;stroke:#000000;stroke-width:0.75;stroke-linecap:round;stroke-linejoin:round;stroke-miterlimit:10;}
	.st6{fill:#E6E6E6;stroke:#000000;stroke-width:0.75;stroke-linecap:round;stroke-linejoin:round;stroke-miterlimit:10;}
	.st7{fill:#F2F2F2;stroke:#000000;stroke-width:0.75;stroke-linecap:round;stroke-linejoin:round;stroke-miterlimit:10;}
	.st8{fill:#FFFFFF;stroke:#000000;stroke-width:0.75;stroke-linecap:round;stroke-linejoin:round;stroke-miterlimit:10;}
	.st9{fill:#CCCCCC;stroke:#000000;stroke-width:0.75;stroke-linecap:round;stroke-linejoin:round;stroke-miterlimit:10;}
	.st10{fill:none;stroke:#000000;stroke-width:0.5;stroke-linecap:round;stroke-linejoin:round;stroke-miterlimit:10;}
</style>
<g>
	<path class="st0" d="M34,70L34,70.3c0,0-0.1,1.3-0.1,2.7c0.8-0.7,1.6-1.5,2.4-2.2C35.6,70.5,34.9,70.3,34,70z"/>
	<path class="st1" d="M39.6,75.3l-0.4,0c0,0-2.3,0.7-3.4,1.6c-1.1,0.9-2.1,0.7-2.1-1.2c0-1.8,0.2-5.4,0.2-5.4L34,70
		c-0.4-0.1-0.9-0.3-1.4-0.4c0,0-0.6,5.2-0.4,6.7c0.2,1.5,1.3,2.9,2.4,2.9c1.4,0,4.1-2.8,4.8-2.3h0.3C39.7,76.4,39.7,75.8,39.6,75.3z
		 M97.4,12.6C97.4,12.6,97.4,12.6,97.4,12.6c-0.1,0-0.2,0.1-0.2,0.1C97.4,12.8,97.4,12.7,97.4,12.6z"/>
	<path class="st2" d="M27.5,68.1L27.5,68.1c-0.6-0.2-1.2-0.4-1.9-0.6c-0.1,0-0.1,0-0.2-0.1c-0.4-0.1-0.8-0.2-1.2-0.3
		c0,0-0.1,0-0.1,0c-0.1,0-0.1,0-0.2,0c-0.5-0.1-0.9-0.3-1.4-0.4c-1.8-0.5-3.5-1-5.1-1.4c-0.3-0.1-0.6-0.2-0.9-0.3
		c-0.5-0.1-1-0.3-1.5-0.4c-0.6-0.2-1.3-0.3-1.8-0.5c0,0,0,0-0.1,0c-0.2-0.1-0.4-0.1-0.6-0.2c-0.1,0-0.2-0.1-0.3-0.1c0,0,0,0-0.1,0
		c0,0-0.1,0-0.1,0c-0.2,0-0.4-0.1-0.6-0.2c-0.1,0-0.3-0.1-0.4-0.1c-0.2,0-0.4-0.1-0.6-0.1c-0.2-0.1-0.4-0.1-0.6-0.2
		c-0.3-0.1-0.6-0.2-0.8-0.2c-0.2,0-0.4-0.1-0.5-0.1c-0.1,0-0.1,0-0.2,0c-0.1,0-0.1,0-0.2,0c0,0,0,0,0,0c0,0,0,0,0,0l0.4,31.2l-0.6,0
		c0.1,0.1,0.2,0.2,0.4,0.3c0,0,0,0,0,0c0.8,0.5,2,0.3,4-1.6c3-2.8,13.8-12.9,13.8-12.9s-2.8-2.8-3.5-4.4c-0.7-1.7-1.3-2.9-0.4-3.5
		c0.1,0,0.2-0.1,0.3-0.1c0-0.1,0-0.3,0-0.4c0-1.7,1-3,2.2-3c0.1,0,0.2,0,0.3,0c0,0,0.1,0,0.1,0h0c0.1,0,0.1,0,0.2,0.1
		c0.1,0,0.1,0.1,0.2,0.1c0.1,0,0.1,0.1,0.2,0.1c0.1,0,0.2,0.1,0.2,0.2c0.1,0.1,0.2,0.2,0.3,0.3c0,0,0,0,0,0c0.1,0.1,0.1,0.2,0.2,0.3
		c0,0.1,0.1,0.1,0.1,0.2c0,0.1,0,0.1,0.1,0.2c0,0,0,0.1,0,0.1c0,0,0,0,0,0c0,0.1,0,0.1,0.1,0.2c0,0.2,0.1,0.3,0.1,0.5
		c0,0.2,0,0.4,0,0.6c0,1.3-0.6,2.4-1.4,2.8l-0.4-0.4c0.1,0.2,0.2,0.4,0.3,0.6c0.7,1.5,1.6,2.9,2.5,1.1C29,73.4,27.5,68.1,27.5,68.1z
		 M14.6,83c-1.2,0-2.2-1.4-2.2-3c0-1.7,1-3,2.2-3c1.2,0,2.2,1.4,2.2,3C16.8,81.6,15.8,83,14.6,83z"/>
	<path class="st3" d="M39.7,76.9c0,0.4,0,0.7,0,1c-0.3,0.3-2.5,2.6-3.3,3.3c-1.5,1.3-4.3,1.6-6.1,0.9c-1.6-0.6-4.1-2.4-4.1-2.4
		s-2.8-2.8-3.5-4.4c-0.7-1.7-1.3-2.9-0.4-3.5c0.1,0,0.2-0.1,0.3-0.1c0.8-0.1,1.8,0.9,2.5,2.1c0.1,0.2,0.2,0.4,0.3,0.6
		c0.7,1.5,1.6,2.9,2.5,1.1c1-1.9-0.5-7.2-0.5-7.2l0,0c0.1,0,0.2,0.1,0.3,0.1h0c1.7,0.5,3.3,1,4.8,1.4c0,0-0.6,5.2-0.4,6.7
		c0.2,1.5,1.3,2.9,2.4,2.9c1.4,0,4.1-2.8,4.8-2.3H39.7z"/>
	<path class="st4" d="M40.2,45.3L40,45.7v16L40,62l-18.9-5.4c-1.4-0.5-1.9-1.7-1.1-2.7l10.8-9.3c0.8-1,2.7-1.5,4.1-1L40.2,45.3z"/>
	<path class="st5" d="M39.7,77.9c0,0.3,0,0.5,0,0.5"/>
	<path class="st6" d="M95,11.2c-0.1,0-0.3-0.1-0.4-0.1c-1.6-0.5-4.4-1.3-4.4-1.3S81.7,8,76.3,6.9c-0.7-0.2-1.4-0.3-2-0.4
		c-1.1-0.2-1.8-0.4-2.2-0.5c-0.5-0.1-1.1-0.3-1.7-0.4c0,0,0,0,0,0c-1.7-0.3-3.8-0.2-5.7,1.7c-2.6,2.6-26.6,25.1-26.6,25.1l-0.9-0.2
		l-28,26.4c0,0-1.7,1.3-2.6,2.2c0,0,2.4,0.5,5.2,1.1c2.8,0.6,22.1,6.5,24.5,7.2c1.8,0.5,3.2,1.3,4.1,2.6c0.3,0.4,0.5,0.9,0.7,1.5
		c0.6,1.9,0.6,23.8,0.6,30.6c0,1.3,0,2,0,2c0.5,0,1.1-0.3,1.8-0.9c2.2-1.8,26.6-29.7,26.9-30.6c0.4-0.9,0.2-6.6,0.2-12.4
		c0-4.2,0.3-12,0.4-16.2c0-1.5,0-2.5,0-2.8c-0.1-0.5-0.4-1-0.6-1.5c-0.3-0.7-0.4-1.4,0.4-2.3c1.5-1.7,24.7-25.1,24.7-25.1
		s0.9-1.3,1.7-1.1c0,0,0.1,0,0.2-0.1C97.2,12.4,96.1,11.7,95,11.2z M74.9,12.8c1.5,0,2.7,1.2,2.7,2.7c0,1.5-1.2,2.7-2.7,2.7
		s-2.7-1.2-2.7-2.7S73.4,12.8,74.9,12.8z M35.2,38.8L68.9,7.3C69.1,7.1,69.4,7,69.7,7c0.4,0,0.9,0.2,1.2,0.6c0.6,0.6,0.6,1.5,0.1,2
		L37.4,41c-0.2,0.2-0.5,0.3-0.8,0.3c-0.4,0-0.9-0.2-1.2-0.6C34.8,40.2,34.7,39.2,35.2,38.8z M54,39.6c-1.5,0-2.7-1.2-2.7-2.7
		c0-1.5,1.2-2.7,2.7-2.7c1.5,0,2.7,1.2,2.7,2.7C56.6,38.4,55.4,39.6,54,39.6z M40,62l-18.9-5.4c-1.4-0.5-1.9-1.7-1.1-2.7l10.8-9.3
		c0.8-1,2.7-1.5,4.1-1l5.3,1.8l12.9,4.3c1.4,0.5,1.9,1.7,1.1,2.7l-9.5,8.9c-0.8,1-2.7,1.5-4.1,1L40,62z M46.3,92.8
		c-1.2,0-2.2-1.2-2.2-2.7c0-1.5,1-2.7,2.2-2.7c1.2,0,2.2,1.2,2.2,2.7C48.5,91.6,47.5,92.8,46.3,92.8z M55.2,82.5
		c-1.2,0-2.2-1.2-2.2-2.7c0-1.5,1-2.7,2.2-2.7c1.2,0,2.2,1.2,2.2,2.7C57.4,81.3,56.4,82.5,55.2,82.5z M64.2,72.3
		c-1.2,0-2.2-1.2-2.2-2.7s1-2.7,2.2-2.7c1.2,0,2.2,1.2,2.2,2.7S65.4,72.3,64.2,72.3z M92.2,14.2L59.4,46.7c-0.2,0.2-0.5,0.3-0.8,0.3
		c-0.4,0-0.8-0.2-1.2-0.5c-0.6-0.6-0.7-1.5-0.2-2L90,12c0.2-0.2,0.5-0.3,0.8-0.3c0.4,0,0.8,0.2,1.2,0.5
		C92.6,12.8,92.7,13.7,92.2,14.2z"/>
	<path class="st7" d="M8.6,62.8c-0.1,0-0.1,0-0.2,0c-0.1,0-0.1,0-0.2,0c0,0,0,0,0,0c0,0,0,0,0,0l0.4,31.2l-0.6,0
		c-0.2-0.2-0.4-0.4-0.6-0.6c-0.9-1.1-0.7-32.6-0.7-32.6s2.4,0.5,5.2,1.1c2.8,0.6,22.1,6.5,24.5,7.2c1.8,0.5,3.2,1.3,4.1,2.6
		c0.3,0.4,0.5,0.9,0.7,1.5c0.6,1.9,0.6,23.8,0.6,30.6c0,1.3,0,2,0,2c-1,0-1.5-1.1-1.7-2.7c-0.2-2.4-0.4-25.1-0.4-25.1s0,0,0,0
		c0-0.2,0-0.6,0-1c0-0.5,0-1,0-1.6c-0.1-1.5-0.4-3.2-1.2-3.7L8.6,62.8z"/>
	<path class="st7" d="M27.9,68.2"/>
	<path class="st8" d="M71,9.5L37.4,41c-0.2,0.2-0.5,0.3-0.8,0.3c-0.4,0-0.9-0.2-1.2-0.6c-0.6-0.6-0.6-1.5-0.1-2L68.9,7.3
		C69.1,7.1,69.4,7,69.7,7c0.4,0,0.9,0.2,1.2,0.6C71.5,8.1,71.5,9,71,9.5z"/>
	<path class="st8" d="M92.2,14.2L59.4,46.7c-0.2,0.2-0.5,0.3-0.8,0.3c-0.4,0-0.8-0.2-1.2-0.5c-0.6-0.6-0.7-1.5-0.2-2L90,12
		c0.2-0.2,0.5-0.3,0.8-0.3c0.4,0,0.8,0.2,1.2,0.5C92.6,12.8,92.7,13.7,92.2,14.2z"/>
	<path class="st6" d="M100,11.1c-0.9,0.7-2.2,1.4-2.6,1.6c0,0,0,0,0,0c-0.2-0.3-1.3-1-2.4-1.4c-0.1,0-0.3-0.1-0.4-0.1
		c0,0,0.2-1.1,1.2-1.9c0.9-0.7,1.8-1.1,3.7-0.9c0.3,0,0.5,0.1,0.8,0.2C100.3,8.8,101,10.2,100,11.1z"/>
	<path class="st9" d="M100.9,12.5c-0.9,1.7-3.9,2-3.9,2L70.7,41.1l-0.3,0.1c-0.3-0.7-0.4-1.4,0.4-2.3c1.5-1.7,24.7-25.1,24.7-25.1
		s0.9-1.3,1.7-1.1c0.2,0,0.2,0,0.2-0.1c0.4-0.2,1.7-0.8,2.6-1.6c1-0.8,0.3-2.3,0.2-2.5C101.4,9.2,101.7,11.1,100.9,12.5z"/>
	<path class="st6" d="M76.4,4.8c-0.7,0.7-1.5,1.1-1.5,1.1l-0.5,0.4l0,0.1c-1.1-0.2-1.8-0.4-2.2-0.5c-0.5-0.1-1.1-0.3-1.7-0.4l0-0.2
		c0.4-0.3,3.9-3.1,4.9-2.9c0.5,0.1,0.9,0.3,1.3,0.5l0,0C76.7,3,77.1,4.1,76.4,4.8z"/>
	<path class="st8" d="M77.5,4.6c-0.1,1.6-1.2,2.3-1.2,2.3c-0.7-0.2-1.4-0.3-2-0.4l0-0.1l0.5-0.4c0,0,0.7-0.4,1.5-1.1
		C77.1,4.1,76.7,3,76.7,3l0,0C77.3,3.3,77.6,3.9,77.5,4.6z"/>
	<path class="st5" d="M70.5,5.3C70.5,5.3,70.5,5.4,70.5,5.3"/>
	<path class="st5" d="M100.2,8.5C100.2,8.5,100.2,8.5,100.2,8.5"/>
	<g>
		<line class="st10" x1="10.9" y1="61.4" x2="19.4" y2="52.6"/>
		<line class="st10" x1="9.4" y1="61" x2="13.5" y2="57"/>
		<line class="st10" x1="68.1" y1="45.5" x2="42.6" y2="70.1"/>
		<line class="st10" x1="67" y1="49.8" x2="43.7" y2="72.1"/>
		<line class="st10" x1="66" y1="49" x2="42.8" y2="71.4"/>
		<line class="st10" x1="41.7" y1="103.6" x2="52.6" y2="91.8"/>
		<line class="st10" x1="8.7" y1="91.3" x2="16.6" y2="84.4"/>
		<line class="st10" x1="8.7" y1="93.1" x2="16.6" y2="86.3"/>
	</g>
</g>
</svg>
