<?xml version="1.0" encoding="utf-8"?>
<!-- Generator: Adobe Illustrator 21.1.0, SVG Export Plug-In . SVG Version: 6.00 Build 0)  -->
<svg version="1.1" id="Layer_1" xmlns="http://www.w3.org/2000/svg" xmlns:xlink="http://www.w3.org/1999/xlink" x="0px" y="0px"
	 width="108px" height="108px" viewBox="0 0 108 108" style="enable-background:new 0 0 108 108;" xml:space="preserve">
<style type="text/css">
	.st0{fill:#FFFFFF;stroke:#000000;stroke-width:0.75;stroke-linecap:round;stroke-linejoin:round;stroke-miterlimit:10;}
	.st1{fill:#E6E6E6;stroke:#000000;stroke-width:0.75;stroke-linecap:round;stroke-linejoin:round;stroke-miterlimit:10;}
	.st2{fill:#CCCCCC;stroke:#000000;stroke-width:0.75;stroke-linecap:round;stroke-linejoin:round;stroke-miterlimit:10;}
	.st3{fill:#808080;stroke:#000000;stroke-width:0.5;stroke-linecap:round;stroke-linejoin:round;stroke-miterlimit:10;}
	.st4{fill:#F2F2F2;stroke:#000000;stroke-width:0.5;stroke-linecap:round;stroke-linejoin:round;stroke-miterlimit:10;}
	.st5{fill:#E6E6E6;stroke:#000000;stroke-width:0.5;stroke-linecap:round;stroke-linejoin:round;stroke-miterlimit:10;}
	.st6{fill:#FFFFFF;stroke:#000000;stroke-width:0.5;stroke-linecap:round;stroke-linejoin:round;stroke-miterlimit:10;}
	.st7{fill:#999999;stroke:#000000;stroke-width:0.5;stroke-linecap:round;stroke-linejoin:round;stroke-miterlimit:10;}
	.st8{fill:#B3B3B3;stroke:#000000;stroke-width:0.5;stroke-linecap:round;stroke-linejoin:round;stroke-miterlimit:10;}
	.st9{fill:#999999;stroke:#000000;stroke-width:0.75;stroke-linecap:round;stroke-linejoin:round;stroke-miterlimit:10;}
	.st10{fill:#F2F2F2;stroke:#000000;stroke-width:0.75;stroke-linecap:round;stroke-linejoin:round;stroke-miterlimit:10;}
	.st11{fill:#B3B3B3;stroke:#000000;stroke-width:0.75;stroke-linecap:round;stroke-linejoin:round;stroke-miterlimit:10;}
</style>
<g>
	<path class="st0" d="M31.2,11.8c0,0,4.2-1.6,6-2.4c1.8-0.8,4.2-0.3,6.1,1.5c1.9,1.8,7.5,7.4,7.5,7.4L31.2,11.8z"/>
	<path class="st1" d="M81.6,83.5c-0.6,2.3-4.4,5.8-4.3,9.4c0.1,2.2,0.5,3.9,1.9,4.9c-2-0.7-4.4-1.5-6.3-2.3c0.6-0.1,1-0.2,1-0.2
		l1.2-3.8L72.5,90c0,0-1.8,0.2-3-0.6c-0.7-0.4-1.3-1.8-1.7-2.8c0,0,0,0,0,0c1-2.7,3.4-5.1,3.8-6.9c0.4-1.8-0.3-3.3-0.6-3.9l10.4,4.6
		v0C81.7,81.2,81.9,82.3,81.6,83.5z"/>
	<path class="st0" d="M85.5,85c-0.2-0.3-0.4-0.5-0.6-0.7c-0.3-0.4-0.5-0.9-0.5-1.5"/>
	<path class="st2" d="M85.5,85L85.5,85c-0.2-0.3-0.4-0.5-0.6-0.8c-0.3-0.4-0.5-0.9-0.5-1.5c0-0.3,0-0.6,0-1l-0.6-0.3l-2.3-1
		c0.3,0.8,0.5,1.9,0.2,3.1c-0.6,2.3-4.4,5.8-4.3,9.4c0.1,2.2,0.5,3.9,1.9,4.9c0.9,0.6,2.1,1,3.8,1.1c0.1,0,0.1,0,0.2,0
		c0.1,0,0.2,0,0.3,0c4.3,0.1,5.6-3.5,5.7-6.6C89.4,89.6,87,86.9,85.5,85z M83.2,96.5c-1.2,0-2.3-0.7-3-1.7c-0.4-0.6-0.6-1.4-0.6-2.2
		c0-1.7,1-3.1,2.5-3.6c0.4-0.1,0.8-0.2,1.2-0.2c2,0,3.6,1.7,3.6,3.8C86.9,94.8,85.2,96.5,83.2,96.5z"/>
	<path class="st3" d="M86.9,92.7c0,2.1-1.6,3.8-3.6,3.8c-1.2,0-2.3-0.7-3-1.7c-0.4-0.6-0.6-1.4-0.6-2.2c0-1.7,1-3.1,2.5-3.6
		c0.4-0.1,0.8-0.2,1.2-0.2C85.2,88.9,86.9,90.6,86.9,92.7z"/>
	<path class="st4" d="M75.2,91.6l-1.2,3.8c0,0-0.4,0.1-1,0.2c-1.1,0.1-3,0-4.8-1.3c-1.4-1-2.7-4.5-2.5-6.6c0.1-1.3,0.9-2,1.3-2.3
		c0.2-0.1,0.5,0,0.5,0.3c0.1,0.2,0.2,0.6,0.3,0.9c0,0,0,0,0,0c0.4,1.1,1,2.4,1.7,2.8c1.3,0.7,3,0.6,3,0.6L75.2,91.6z"/>
	<path class="st0" d="M69.8,24.1l-0.8,1.3c0,0-41.9-13.9-42.9-14.2c-0.4-0.1-0.7-0.2-1-0.1c0.9-0.5,2.8-0.9,3.6-0.7
		C29.8,10.7,67.2,23.3,69.8,24.1z"/>
	<path class="st5" d="M99.9,24.1c-0.2-4.7-2.5-6.9-6.6-8c-4.1-1.1-13.1-3.5-13.1-3.5L75,15.1l0,0c0.7,0.2,8.4,2.6,12,3.7
		c3.8,1.2,5.9,3.5,6,8.1c0.1,4.7,0.1,12.2,0.1,12.2l2.1-0.8l-0.2,40c-0.1,5-1.9,6.3-4,6.1c0,0,0.1,0,0.1,0c1.4,0.3,2.6-0.6,3.9-1.5
		c1.7-1.1,2-3.7,2-5.5c0-3.2,0.5-33.1,0.6-39.1c0-0.7,0-1.1,0-1.1l2.5-1C100.2,36.3,100.1,28.8,99.9,24.1z M99,29l-2.3,1l0,1.2
		l2.3-1l0,2.7h0l-4.2,1.7c0,0-0.1-1.5-0.2-3.5c0-0.3,0-0.5,0-0.8c0-0.4,0-0.8-0.1-1.3c0,0,0,0,0,0c0-0.7-0.1-1.4-0.1-2
		c0-0.6-0.1-1.2-0.1-1.7c0-0.3,0-0.6-0.1-0.8c0-0.1,0-0.3,0-0.4c-0.1-0.8-0.3-1.4-0.6-2c-0.8-1.6-2.2-2.5-3.8-3.1
		c-2.4-0.8-13.4-4.3-13.4-4.3l1.2-0.4c14.5,4.6,14.4,4.6,15.7,5c1.4,0.4,1.4,0.4,1.8,0.3c0.4-0.2,1-0.5,1-0.5s2.7,0.9,3,5.1
		l-2.3,0.9l0,1.1l2.4-0.8L99,29L99,29z"/>
	<path class="st0" d="M91.1,84.5C91.1,84.5,91.1,84.5,91.1,84.5L91.1,84.5"/>
	<polyline class="st0" points="95.2,38.4 93.2,39.2 91,38.4 	"/>
	<g>
		<path class="st0" d="M93.2,39.2l-2-0.7L91,38.4l-10.3-3.7l-1.5-0.5l-2.4-0.9l-1.5-0.5L70.3,31l-1.5-0.5l-2.4-0.9L64.9,29l-3.8-1.4
			l-1.5-0.5l-2.4-0.9l-1.5-0.5l-1.3-0.5L48.1,23L48,23l-3.8-1.4l-0.3,0.9v0l-0.1,0.1l-0.6,1.8l0.2,1.1L48,51.1
			c0.3,1.8,0.6,4.7,0.6,6.5l0.1,5c0,1.8,1.4,3.8,3,4.6L71,75.8l10.4,4.6v0l2.3,1l0.6,0.3l5,2.2c0.6,0.3,1.1,0.4,1.7,0.5c0,0,0,0,0,0
			h0c2,0.2,3.8-1.1,4-6.1l0.2-40L93.2,39.2z M93,79.8c-1.1-0.3-2.1-1.5-2.7-3.1c-0.4-1.2-0.4-2.5-0.1-3.4c1.1,0.3,2.1,1.5,2.7,3.1
			C93.3,77.7,93.3,78.9,93,79.8z"/>
	</g>
	<line class="st6" x1="96.7" y1="31.2" x2="96.7" y2="31.2"/>
	<line class="st6" x1="98.9" y1="32.9" x2="98.9" y2="32.9"/>
	<path class="st3" d="M98.9,32.9l-4.2,1.7c0,0-0.1-1.5-0.2-3.5L98.9,32.9z"/>
	<path class="st7" d="M98.9,30.2l0,2.7h0l-4.4-1.8c0-0.3,0-0.5,0-0.8l2.2,0.9L98.9,30.2z"/>
	<path class="st7" d="M96.7,30l0,1.2l-2.2-0.9c0-0.4,0-0.8-0.1-1.3L96.7,30L96.7,30z"/>
	<path class="st5" d="M99,28.9L99,28.9L96.7,30l0,0l-2.3-0.9c0,0,0,0,0,0c0-0.7-0.1-1.4-0.1-2L99,28.9L99,28.9z"/>
	<path class="st8" d="M96.5,25.1l0,1.1l-2.3-0.9c0-0.3,0-0.6-0.1-0.8c0-0.1,0-0.3,0-0.4L96.5,25.1L96.5,25.1z"/>
	<path class="st7" d="M99,28.9L99,28.9L94.3,27c0-0.6-0.1-1.2-0.1-1.7l2.3,0.9l2.4-0.8L99,28.9z"/>
	<path class="st9" d="M76.9,31.2c0,0,0,3.2,0.1,4.2c0,0.9-0.8,3.1,0.6,3.5c0.4,0.1,1.9-0.7,2.2-0.8c0.7-0.3,1-1.2,1-2
		c0-1.1,0-3.4,0-3.4L76.9,31.2z"/>
	<path class="st2" d="M75.4,31.9c0,0,0,3.2,0.1,4.1c0,0.9,0.4,2.4,1.8,2.8c1.4,0.4,2-1,2-2s0-3.4,0-3.4L75.4,31.9z"/>
	<path class="st5" d="M98.8,24.2l-2.3,0.9h0l-2.4-1c-0.1-0.8-0.3-1.4-0.6-2L98.8,24.2z"/>
	<path class="st8" d="M98.8,24.2L93.5,22c-0.8-1.6-2.2-2.5-3.8-3.1c-2.4-0.8-13.4-4.3-13.4-4.3l1.2-0.4c14.5,4.6,14.4,4.6,15.7,5
		c1.4,0.4,1.4,0.4,1.8,0.3c0.4-0.2,1-0.5,1-0.5S98.6,19.9,98.8,24.2z"/>
	<path class="st9" d="M66.4,27.6c0,0,0,3.2,0.1,4.2c0,0.9-0.8,3.1,0.6,3.5c0.4,0.1,1.9-0.7,2.2-0.8c0.7-0.3,1-1.2,1-2
		c0-1.1,0-3.4,0-3.4L66.4,27.6z"/>
	<path class="st2" d="M64.9,28.3c0,0,0,3.2,0.1,4.2c0,0.9,0.4,2.4,1.8,2.8c1.4,0.4,2-1,2-2c0-1.1,0-3.4,0-3.4L64.9,28.3z"/>
	<path class="st9" d="M57.2,24.4c0,0,0,3.2,0.1,4.2c0,0.9-0.8,3.1,0.6,3.5c0.4,0.1,1.9-0.7,2.2-0.8c0.7-0.3,1-1.2,1-2
		c0-1.1,0-3.4,0-3.4L57.2,24.4z"/>
	<path class="st2" d="M55.7,25.1c0,0,0,3.2,0.1,4.2c0,0.9,0.4,2.4,1.8,2.8c1.4,0.4,2-1,2-2c0-1.1,0-3.4,0-3.4L55.7,25.1z"/>
	<path class="st10" d="M93.1,39.1l-1.9-0.6L91,38.4L80.8,35l-1.5-0.5l-2.4-0.8l-1.5-0.5l-5.1-1.7L68.8,31l-2.4-0.8L65,29.7l-3.9-1.3
		l-1.5-0.5l-2.4-0.8l-1.5-0.5l-1.3-0.4l-10.6-3.5l-0.7-0.2l-0.1,0l-19.4-6.5c0,0,0.2-1.3,0.4-2.4c0.1-0.8,0.3-1.5,0.4-1.7
		c0.1-0.4,0.3-0.6,0.7-0.6c0.3,0,0.6,0,1,0.1c1,0.3,42.9,14.2,42.9,14.2l0.8-1.3c0.1,0,0.1,0,0.1,0l5-9.1c0.7,0.2,8.4,2.6,12,3.7
		c3.8,1.2,5.9,3.5,6,8.1C93.1,31.6,93.1,39.1,93.1,39.1z"/>
	<path class="st0" d="M75,15.1l-5,9.1c0,0,0,0-0.1,0L75,15.1C74.9,15.1,75,15.1,75,15.1z"/>
	<g>
		<path class="st0" d="M24.3,13.4c0,0-7.9,3.4-8.7,3.8c-0.8,0.4-1.7,1.7-1.7,1.7l40.4,4.9L24.3,13.4z"/>
		<path class="st1" d="M54.5,23.7L54.4,27l-38.1-5.3l-0.1,0.8c0,0,0.1,1.1,0,1.7c-0.1,1.5-0.5,2.7-3.3,1.4c-3.6-1.6-3.4-1.7-4.6-2.3
			c-1.2-0.6-0.5-3.1,1.3-2.2c2.7,1.3,4.1,1.8,4.1,1.8v-1.1l0.1-2.9L54.5,23.7z"/>
	</g>
	<polygon class="st0" points="13.8,21.8 13.8,22 13.8,22 	"/>
	<line class="st0" x1="13.8" y1="21.8" x2="13.8" y2="21.4"/>
	<path class="st0" d="M14.1,23.9c0,0-0.3-0.4-0.3-1.2"/>
	<g>
		<path class="st11" d="M60.7,66.8c0,0,0.1-2.9,0.1-3.8c0-0.9-0.3-2.2-1.5-2.6c-0.1,0-0.2,0-0.2-0.1c0,0-0.3,0-0.5,0
			c0,0-1.3,0.5-1.5,0.6c-0.6,0.3-0.9,1.1-1,1.8c-0.1,1-0.1,3.1-0.1,3.1l3.5,1.5L60.7,66.8z"/>
	</g>
	<path class="st1" d="M59.3,67.4c0,0,0.1-2.9,0.1-3.8c0-0.9-0.3-2.2-1.5-2.6c-1.3-0.4-1.8,0.8-1.9,1.8c-0.1,1-0.1,3.1-0.1,3.1
		L59.3,67.4z"/>
	<g>
		<path class="st11" d="M69.9,71.1c0,0,0.1-3,0.1-3.9c0-0.9-0.3-2.2-1.6-2.6c-0.1,0-0.2,0-0.2-0.1c0,0-0.4,0-0.6,0
			c0,0-1.4,0.6-1.6,0.7c-0.6,0.3-0.9,1.1-1,1.8C65,68,65,70.2,65,70.2l3.6,1.5L69.9,71.1z"/>
	</g>
	<path class="st1" d="M68.5,71.7c0,0,0.1-3,0.1-3.9c0-0.9-0.3-2.2-1.6-2.6c-1.3-0.4-1.9,0.9-2,1.8C65,68,65,70.2,65,70.2L68.5,71.7z
		"/>
	<g>
		<path class="st11" d="M80.1,75.6c0,0,0.1-3.1,0.1-4.1c0-0.9-0.3-2.3-1.6-2.8c-0.1,0-0.2,0-0.3-0.1c0,0-0.4,0-0.6,0
			c0,0-1.4,0.6-1.6,0.7c-0.6,0.3-1,1.2-1,1.9c-0.1,1-0.1,3.3-0.1,3.3l3.7,1.6L80.1,75.6z"/>
	</g>
	<path class="st1" d="M78.6,76.2c0,0,0.1-3.1,0.1-4.1c0-0.9-0.3-2.3-1.6-2.8c-1.4-0.4-2,0.9-2.1,1.9c-0.1,1-0.1,3.3-0.1,3.3
		L78.6,76.2z"/>
	<path class="st3" d="M93,79.8c-0.3,0.7-0.7,1.2-1.3,1.4c-1.4,0.5-3.1-0.9-3.8-3.1c-0.7-2.2-0.2-4.3,1.2-4.8c0.4-0.1,0.7-0.1,1.1,0
		c-0.3,0.9-0.3,2.1,0.1,3.4C90.8,78.3,91.9,79.5,93,79.8z"/>
	<path class="st0" d="M93,79.8C93,79.8,93,79.8,93,79.8"/>
</g>
</svg>
