<?xml version="1.0" encoding="utf-8"?>
<!-- Generator: Adobe Illustrator 21.1.0, SVG Export Plug-In . SVG Version: 6.00 Build 0)  -->
<svg version="1.1" id="Layer_1" xmlns="http://www.w3.org/2000/svg" xmlns:xlink="http://www.w3.org/1999/xlink" x="0px" y="0px"
	 width="108px" height="108px" viewBox="0 0 108 108" style="enable-background:new 0 0 108 108;" xml:space="preserve">
<style type="text/css">
	.st0{fill:#FFFFFF;stroke:#000000;stroke-linecap:round;stroke-linejoin:round;stroke-miterlimit:10;}
</style>
<path class="st0" d="M91.4,82.9c-0.7-0.1-1.3-0.3-1.9-0.6c-1.2-0.7-1.9-1.9-2-3.3c-0.1-1.7-0.6-7.4-0.8-10.8
	c-0.1-0.1-0.2-0.3-0.3-0.4L23.3,49.3l0.3,6c0.1,1-0.2,2.1-0.9,2.8c-1,1.1-2.5,1.4-3.9,0.9L3.5,53.4c-1-0.4-1.4-1.5-0.9-2.4
	c0.4-0.7,1.4-1,2.1-0.7L20,55.9c0.1,0,0.1,0,0.2,0c0.1,0,0.1-0.1,0.1-0.2l-0.5-8.6c0-0.6,0.2-1.1,0.6-1.4c0.4-0.3,1-0.5,1.5-0.3
	l65.5,19.2c1.4,0.4,2.6,2,2.7,3.2c0.3,4.1,0.7,9.3,0.8,11c0,0.2,0.1,0.5,0.4,0.6c0.2,0.1,0.4,0.2,0.8,0.1c1.3-0.1,3.8-1.3,6.1-3
	c2.6-1.9,4.1-3.7,4-5l-0.8-14.4c0-0.1,0-0.1-0.1-0.2L40.1,28.5c-0.1,0-0.1,0-0.2,0c-0.1,0-0.1,0.1-0.1,0.2l0.4,8.8
	c0,0.6-0.2,1.1-0.7,1.5c-0.5,0.3-1.1,0.4-1.6,0.2l-9.7-4c-0.9-0.4-1.3-1.3-0.9-2.2l0,0c0.4-0.9,1.3-1.3,2.2-0.9l7.2,3l-0.3-6
	c0-0.6,0.1-1.3,0.3-1.8c0.9-1.9,3.1-2.5,4.8-1.7l61.1,28.5c1.2,0.6,2,1.7,2.1,3.1l0.8,14.4c0.1,2.6-1.6,5.1-5.4,7.9
	c-1.1,0.8-5,3.5-8,3.7C92,83,91.7,82.9,91.4,82.9z M86.7,68.2L86.7,68.2L86.7,68.2z M86.7,68C86.7,68,86.7,68,86.7,68
	C86.7,68,86.7,68,86.7,68z"/>
</svg>
