<?xml version="1.0" encoding="utf-8"?>
<!-- Generator: Adobe Illustrator 21.1.0, SVG Export Plug-In . SVG Version: 6.00 Build 0)  -->
<svg version="1.1" id="Layer_1" xmlns="http://www.w3.org/2000/svg" xmlns:xlink="http://www.w3.org/1999/xlink" x="0px" y="0px"
	 width="108px" height="108px" viewBox="0 0 108 108" style="enable-background:new 0 0 108 108;" xml:space="preserve">
<style type="text/css">
	.st0{fill:#CCCCCC;stroke:#000000;stroke-width:0.75;stroke-linecap:round;stroke-linejoin:round;stroke-miterlimit:10;}
	.st1{fill:#F2F2F2;stroke:#000000;stroke-width:0.75;stroke-linecap:round;stroke-linejoin:round;stroke-miterlimit:10;}
	.st2{fill:#E6E6E6;stroke:#000000;stroke-width:0.75;stroke-linecap:round;stroke-linejoin:round;stroke-miterlimit:10;}
	.st3{fill:#FFFFFF;}
	.st4{fill:#F2F2F2;}
	.st5{fill:none;stroke:#000000;stroke-width:0.75;stroke-linecap:round;stroke-linejoin:round;stroke-miterlimit:10;}
	.st6{fill:#999999;stroke:#000000;stroke-width:0.75;stroke-linecap:round;stroke-linejoin:round;stroke-miterlimit:10;}
	.st7{fill:#FFFFFF;stroke:#000000;stroke-width:0.75;stroke-linecap:round;stroke-linejoin:round;stroke-miterlimit:10;}
	.st8{fill:none;stroke:#000000;stroke-width:0.5;stroke-linecap:round;stroke-linejoin:round;stroke-miterlimit:10;}
</style>
<g>
	<path class="st0" d="M92.6,42.3c5.4-0.7,10.3,2.6,10.9,7.3c0.1,0.6,0.2,3.3,0.2,3.6c0,4.4-3.7,8.2-8.8,8.9
		c-4.3,0.5-8.3-1.4-10.1-4.7l0,0L84.4,48C85.7,45,88.8,42.7,92.6,42.3z"/>
	<path class="st1" d="M84.3,48.4c0.1-0.1,0.1-0.3,0.2-0.4l0.3,9.3l-60.6,7.5l-0.6-8.7L84.3,48.4z"/>
	<path class="st2" d="M23.9,62.2l-0.4-6.1l-0.9,0.1c-2-2.6-5.5-4.2-9.4-3.7c-4.8,0.6-8.3,4-8.8,8c0,0.3,0,0.5,0,0.8v0.1
		c0,0.3,0.1,2.9,0.2,3.5c0.6,4.7,5.5,8,10.9,7.3c4.5-0.6,8-3.7,8.7-7.4l0,0L23.9,62.2z M13.8,59.5c1.6-0.2,3.1,0.5,3.7,1.6
		c-0.5,0.9-1.6,1.6-2.9,1.7c-1.6,0.2-3.1-0.5-3.7-1.5C11.4,60.4,12.5,59.7,13.8,59.5z"/>
	<path class="st3" d="M82.4,48.5C73.2,49.7,64,50.9,54.9,52c-6.7,0.8-13.3,1.7-20,2.5c-2.5,0.3-5,0.6-7.5,0.9
		c-1.4,0.2-2.9,0.6-4.2,0.5c-0.6,0-0.3,0.1-0.8-0.2c-0.9-0.7-1.6-1.6-2.7-2.2c-1.2-0.7-2.5-1.1-3.9-1.2c-4.5-0.5-9.4,1.8-11,6.2
		c-1.7,4.7,1.6,9.2,6.1,10.5c5.1,1.4,11.3-1.1,12.9-6.4c0.3-0.9,0-0.6,0.6-0.8c0.5-0.2,1.1-0.1,1.6-0.2c2-0.2,4-0.5,6-0.7
		c6.2-0.8,12.5-1.5,18.7-2.3c6.7-0.8,13.4-1.6,20-2.5c2.5-0.3,5-0.6,7.6-0.9c1.4-0.2,3-0.2,4.3-0.5c0.2-0.1,0.4,0,0.6-0.1
		C82.7,52.7,82.4,50.6,82.4,48.5z M14.6,62.8c-1,0.1-3-0.2-3.5-1.3c-0.5-1.1,1.8-1.9,2.7-2c1.1-0.1,2.7,0.2,3.4,1.1
		C18,61.8,15.5,62.7,14.6,62.8z"/>
	<path class="st4" d="M103.5,49.5c-0.6-4.7-5.5-8-10.9-7.3c-4,0.5-7.1,3-8.3,6.1l-1.9,0.2c0,2.1,0.3,4.2,0.9,6.2l1.4-0.2
		c1.7,3.2,5.7,5.2,10.1,4.7C100.1,58.5,104.1,54.2,103.5,49.5z"/>
	<path class="st5" d="M103.5,49.5c-0.8-6.3-8.4-8.7-13.7-6.5c-1.3,0.5-2.5,1.3-3.5,2.3c-0.4,0.4-0.8,0.9-1.2,1.4
		c-0.3,0.5-0.6,1.4-1,1.6c-0.5,0.3-1.4,0.2-2,0.3c-4.8,0.6-9.7,1.2-14.5,1.8C53.2,52.2,39,54,24.7,55.8c-0.5,0.1-1.3,0.3-1.8,0.2
		c-0.1,0-0.2,0.1-0.3,0c-0.3-0.1-0.7-0.8-0.9-1c-0.6-0.6-1.3-1.1-2-1.5c-4.9-2.7-12-1-14.5,4.2c-2.8,5.7,2,11.2,7.7,11.7
		c3.4,0.3,6.9-0.9,9.2-3.5c0.9-1.1,1.3-2.1,1.8-3.4c0.2-0.6,0-0.4,0.3-0.6c0.3-0.2,1.2-0.1,1.5-0.2c1-0.1,2-0.2,2.9-0.4
		c3.1-0.4,6.2-0.8,9.3-1.1c8.1-1,16.2-2,24.3-3c6.2-0.8,12.5-1.5,18.7-2.3c0.6-0.1,3.1-0.7,3.7-0.5c0.4,0.2,0.9,1.3,1.2,1.7
		c0.5,0.5,1,1,1.6,1.4c1.4,0.9,3,1.4,4.6,1.6c3.1,0.3,6.3-0.6,8.6-2.7C102.6,54.7,103.8,52.1,103.5,49.5z M14.6,62.8
		c-1,0.1-3-0.2-3.5-1.3c-0.5-1.1,1.8-1.9,2.7-2c1.1-0.1,2.7,0.2,3.4,1.1C18,61.8,15.5,62.7,14.6,62.8z"/>
	<path class="st0" d="M90,40.7c0-1.6,1.3-2.9,3.2-3.2c1.9-0.2,3.7,0.9,3.9,2.6c0,0.4,0,9.8,0,9.9c0,1.6-1.3,3-3.2,3.2
		c-1.9,0.2-3.7-0.9-3.9-2.6C90,50.2,90,40.8,90,40.7z"/>
	<path class="st2" d="M89.2,39.7c0-1.9,1.7-3.7,3.9-3.9c2.4-0.3,4.6,1.2,4.9,3.2c0.1,0.5,0,2.1,0,2.2c0,2-1.7,3.7-3.9,4
		c-2.4,0.3-4.6-1.2-4.9-3.2C89.2,41.5,89.2,39.8,89.2,39.7z"/>
	<path class="st6" d="M17.8,59.7c0,0.2,0,0.4,0,0.6c0,0.1,0,0.1,0,0.2c0,0.1-0.1,0.3-0.1,0.4c0,0,0,0.1-0.1,0.1
		c0,0.1-0.1,0.1-0.1,0.2c-0.6-1.1-2.1-1.7-3.7-1.6c-1.3,0.2-2.4,0.8-2.9,1.8c0-0.1-0.1-0.1-0.1-0.2c0-0.1-0.1-0.1-0.1-0.2
		c0-0.1-0.1-0.3-0.1-0.4c-0.2-1.5,1.2-3,3.2-3.2c0.7-0.1,1.5,0,2.1,0.3c0.2,0.1,0.4,0.2,0.5,0.3c0.2,0.1,0.3,0.2,0.5,0.3
		c0.1,0.1,0.1,0.1,0.2,0.2C17.5,58.7,17.7,59.1,17.8,59.7z"/>
	<ellipse transform="matrix(0.9923 -0.1239 0.1239 0.9923 -4.1817 11.9118)" class="st7" cx="93.6" cy="39.6" rx="4.4" ry="3.8"/>
	<path class="st0" d="M17.8,59.7c0,0.2,0,0.4,0,0.6c0,0.1,0,0.1,0,0.2c0,0.1-0.1,0.3-0.1,0.4c0,0,0,0.1-0.1,0.1
		c0,0.1-0.1,0.1-0.1,0.2c-0.6-1.1-2.1-1.7-3.7-1.6c-1.3,0.2-2.4,0.8-2.9,1.8c0-0.1-0.1-0.1-0.1-0.2c0-0.1-0.1-0.1-0.1-0.2
		c0-0.1-0.1-0.3-0.1-0.4c-0.2-1.5,1.2-3,3.2-3.2c0.7-0.1,1.5,0,2.1,0.3c0.2,0.1,0.4,0.2,0.5,0.3c0.2,0.1,0.3,0.2,0.5,0.3
		c0.1,0.1,0.1,0.1,0.2,0.2C17.5,58.7,17.7,59.1,17.8,59.7z"/>
	<g>
		<line class="st8" x1="67.5" y1="55.2" x2="66.5" y2="51.5"/>
		<line class="st8" x1="63.5" y1="55.1" x2="63" y2="52.9"/>
		<line class="st8" x1="60" y1="56.5" x2="59" y2="52.8"/>
		<line class="st8" x1="56" y1="56.4" x2="55.5" y2="54.2"/>
	</g>
</g>
</svg>
