<?xml version="1.0" encoding="utf-8"?>
<!-- Generator: Adobe Illustrator 21.1.0, SVG Export Plug-In . SVG Version: 6.00 Build 0)  -->
<svg version="1.1" id="Layer_1" xmlns="http://www.w3.org/2000/svg" xmlns:xlink="http://www.w3.org/1999/xlink" x="0px" y="0px"
	 width="108px" height="108px" viewBox="0 0 108 108" style="enable-background:new 0 0 108 108;" xml:space="preserve">
<style type="text/css">
	.st0{fill:#CCCCCC;stroke:#000000;stroke-width:0.75;stroke-linecap:round;stroke-linejoin:round;stroke-miterlimit:10;}
	.st1{fill:#FFFFFF;}
	.st2{fill:#E6E6E6;}
	.st3{fill:#F2F2F2;}
	.st4{fill:none;stroke:#000000;stroke-width:0.75;stroke-linecap:round;stroke-linejoin:round;stroke-miterlimit:10;}
	.st5{fill:#FFFFFF;stroke:#000000;stroke-width:0.75;stroke-linecap:round;stroke-linejoin:round;stroke-miterlimit:10;}
	.st6{fill:none;stroke:#000000;stroke-width:0.5;stroke-linecap:round;stroke-linejoin:round;stroke-miterlimit:10;}
</style>
<g>
	<g>
		<path class="st0" d="M40.6,28l-0.2,11.1c0-0.4-0.1-4.5-4.1-5c-2.1-0.3-4.4,0.6-5.5,3.5l0.2-9.5h0.1c0,2.5,3.1,4.1,4.7,4.1
			C40,32.2,40.5,28.8,40.6,28L40.6,28z"/>
		<path class="st1" d="M39.8,70.7l0.7-31.5c0,0,0,0,0,0c0-0.4-0.1-4.5-4.1-5c-2.1-0.3-4.4,0.6-5.5,3.5L30.4,57
			C32.5,62.1,35.7,66.9,39.8,70.7z"/>
		<path class="st1" d="M35.9,32.2c4.1,0,4.6-3.3,4.6-4.2h0.1l0.1-2.7c0,0,4.2-14.2,15.6-12.2C67.7,15.1,68,27.9,68,27.9
			s0.1,23.7,0.1,39.6c3.7-4.3,6.8-9.1,10-13.9c0.1-13.7,0.1-27.4,0-28.3C77.8,23.6,77.1,4,55.7,3.7C34.3,3.3,31.2,25,31.2,25
			l-0.1,3.1h0.1C31.2,30.6,34.3,32.2,35.9,32.2z"/>
		<path class="st2" d="M29.9,84.7c0.7,3.3,5.1,21.2,24.1,19.5c11.9-1.1,17.9-8,21-13.8c-6.5,4.9-13.8,8.2-22.7,8.2
			C41.9,98.6,35.3,92.3,29.9,84.7z"/>
		<path class="st3" d="M78.1,53.6c-3.2,4.8-6.4,9.6-10,13.9c0,7.6,0,13.5,0,14c-0.1,1.6-3.2,12.2-15,12.6
			c-11.8,0.4-13.6-12.5-13.6-12.5l0.2-10.9c-4.1-3.8-7.2-8.5-9.3-13.7l-0.6,27.2c0,0,0,0.2,0.1,0.5c5.4,7.6,12,13.9,22.5,13.9
			c8.9,0,16.2-3.3,22.7-8.2c2.3-4.4,2.9-8.2,2.9-8.2S78,67.9,78.1,53.6z"/>
		<path class="st4" d="M77.9,82.3c0,0-2.9,20.1-23.8,22c-20.9,1.9-24.2-20-24.2-20l1-46.6c1-2.9,3.3-3.7,5.5-3.5
			c4,0.5,4.1,4.6,4.1,5c0,0,0,0,0,0l-0.9,42.5c0,0,1.8,12.9,13.6,12.5c11.7-0.4,14.9-11,15-12.6c0.1-1.6-0.1-53.6-0.1-53.6
			s-0.3-12.8-11.7-14.8c-11.4-2-15.6,12.2-15.6,12.2L40.6,28h-0.1c-0.1,0.8-0.6,4.2-4.6,4.2c-1.6,0-4.7-1.6-4.7-4.1h-0.1l0.1-3.1
			c0,0,3.2-21.6,24.6-21.3c21.4,0.3,22,19.9,22.3,21.6C78.4,27,77.9,82.3,77.9,82.3z"/>
	</g>
	<path class="st5" d="M31.2,28.1c0,0,0-0.1,0-0.1"/>
	<path class="st5" d="M40.6,27.8c0,0,0,0.1,0,0.2"/>
	<path class="st5" d="M30.9,37.6c-0.1,0.2-0.1,0.4-0.2,0.7"/>
	<g>
		<path class="st6" d="M34.9,21.8c0,0,4.4-14.5,19.8-15.2"/>
		<line class="st6" x1="71.8" y1="25.3" x2="71.9" y2="62.4"/>
		<path class="st6" d="M37.5,87.5c0,0,5.5,12.3,16.9,10.3"/>
		<path class="st6" d="M36.1,38.1c0,0-4,2.4-3.4,5.3"/>
	</g>
</g>
</svg>
