<?xml version="1.0" encoding="utf-8"?>
<!-- Generator: Adobe Illustrator 21.1.0, SVG Export Plug-In . SVG Version: 6.00 Build 0)  -->
<svg version="1.1" id="Layer_1" xmlns="http://www.w3.org/2000/svg" xmlns:xlink="http://www.w3.org/1999/xlink" x="0px" y="0px"
	 width="108px" height="108px" viewBox="0 0 108 108" style="enable-background:new 0 0 108 108;" xml:space="preserve">
<style type="text/css">
	.st0{fill:#E6E6E6;}
	.st1{fill:#CCCCCC;}
	.st2{fill:none;stroke:#000000;stroke-width:0.75;stroke-linecap:round;stroke-linejoin:round;stroke-miterlimit:10;}
	.st3{fill:#FFFFFF;}
	.st4{fill:#F2F2F2;}
	.st5{fill:none;stroke:#000000;stroke-width:0.5;stroke-linecap:round;stroke-linejoin:round;stroke-miterlimit:10;}
	.st6{fill:#F2F2F2;stroke:#000000;stroke-width:0.5;stroke-linecap:round;stroke-linejoin:round;stroke-miterlimit:10;}
</style>
<g>
	<path class="st0" d="M84,32.7c0,0-8.5-14.4-24-17.3l-0.2,0c-0.1,0-0.1,0-0.2,0c-0.2-0.1-0.5-0.1-0.7-0.1C57.6,15.1,56.3,15,55,15
		c-1.9,0-3.8,0.1-5.9,0.5c0,0,0.7,0,1.8,0.2h0c6.8,1,30.5,6.8,31.1,38.3c0,0,0,1.6-0.4,4.2c2.7-7,4.2-14.7,4.2-22.2
		C85.3,34.9,84.7,33.8,84,32.7z"/>
	<path class="st1" d="M85.8,35.9c0,7.5-1.5,15.1-4.2,22.2c-1.3,8.4-6.5,26.6-27,28c0,0-5.9,1.6-5.2,4.9c0,0,5.7,1.4,12.9-0.1
		c0,0,0,0,0,0c0.2,0,0.3-0.1,0.5-0.1c0.1,0,0.2,0,0.2-0.1c7.7-1.9,16.9-7.3,22.9-21.6c0.5-1.3,1-2.7,1.5-4.1
		C87.5,65,92.3,49.5,85.8,35.9z"/>
	<path class="st2" d="M87.5,65c-0.5,1.4-1,2.8-1.5,4.1C80,83.4,70.7,88.8,63,90.7c-0.1,0-0.2,0-0.2,0.1c-0.2,0-0.3,0.1-0.5,0.1
		c0,0,0,0,0,0C55.1,92.5,49.4,91,49.4,91c-0.7-3.4,5.2-4.9,5.2-4.9C81.3,84.3,82,53.9,82,53.9C81.4,22.4,57.8,16.6,51,15.6h0
		c-1.2-0.2-1.8-0.2-1.8-0.2c2-0.4,4-0.5,5.9-0.5c1.3,0,2.6,0.1,3.8,0.3c0.2,0,0.5,0.1,0.7,0.1c0.1,0,0.1,0,0.2,0l0.2,0
		c15.6,2.9,24,17.3,24,17.3C93.1,47,87.5,65,87.5,65z"/>
	<g>
		<path class="st0" d="M82.7,89.1C75.1,97.1,65.1,102,54,102c-10.3,0-19.7-4.2-27.1-11.3c12.3,5.6,26.1,7.5,39.5,4.8
			C72.2,94.2,77.6,92,82.7,89.1z"/>
		<path class="st3" d="M96.1,54c0,1.4-0.1,2.7-0.2,4c-3.2,4.1-6.9,7.7-11.1,10.6c1.7-4.7,2.6-9.8,2.6-15.2c0-3.6-0.4-7-1.2-10.3
			c-0.1-0.4-0.2-0.7-0.3-1.1c-2.1-8.4-6.8-15.5-12.9-20.3c-0.4-0.3-0.8-0.6-1.2-0.9c-0.5-0.3-0.9-0.6-1.4-0.9
			c-0.4-0.2-0.7-0.5-1.1-0.7c-0.3-0.2-0.6-0.3-0.9-0.5c-0.4-0.2-0.8-0.4-1.2-0.6c-0.5-0.2-0.9-0.5-1.4-0.7c-0.1,0-0.2-0.1-0.2-0.1
			c-0.4-0.2-0.9-0.4-1.3-0.5c-0.5-0.2-1-0.4-1.5-0.5c-0.5-0.2-1-0.3-1.6-0.4c-0.5-0.1-0.9-0.2-1.4-0.3l-0.2,0c-0.1,0-0.1,0-0.2,0
			c-0.2,0-0.4-0.1-0.5-0.1c-0.8-0.1-1.6-0.2-2.4-0.3c-0.5,0-0.9-0.1-1.4-0.1c-0.1,0-0.2,0-0.3,0c-2.7-0.1-5.3,0.1-7.6,0.5
			c-17,3.2-24.9,19.3-24.9,38c0,3,0.3,6,0.9,8.8c-0.2-0.3-0.5-0.6-0.7-0.9C17.9,55,15,46.9,14.1,38.6C19.8,19.6,35.5,6,54,6
			C77.2,6,96.1,27.5,96.1,54z"/>
		<path class="st4" d="M95.9,58C95,70.3,90.1,81.2,82.7,89.1c-5.1,2.8-10.4,5.1-16.2,6.4c-13.4,2.7-27.3,0.8-39.5-4.8
			c-9.2-8.8-15-22-15-36.8c0-5.4,0.8-10.6,2.2-15.4c0.9,8.3,3.7,16.4,8.5,22.7c0.2,0.3,0.5,0.6,0.7,0.9v0
			c2.1,10.5,7.8,19.4,15.5,24.6c4.8,3.2,10.3,5.1,16.2,5.1c0.9,0,1.7,0,2.6-0.1c0.8-0.1,1.6-0.2,2.3-0.3c0,0,0,0,0,0
			c0.4-0.1,0.7-0.1,1.1-0.2c0,0,0.1,0,0.1,0c0.4-0.1,0.8-0.2,1.2-0.3h0c0.2,0,0.3-0.1,0.5-0.1c0.1,0,0.2,0,0.2-0.1
			c0.2-0.1,0.5-0.2,0.7-0.3c0.1,0,0.2-0.1,0.4-0.1c0.7-0.3,1.5-0.5,2.2-0.9c0.6-0.3,1.2-0.6,1.8-0.9c0.1,0,0.2-0.1,0.3-0.2
			c0.2-0.1,0.4-0.2,0.6-0.3c0.4-0.2,0.8-0.5,1.2-0.7c6.5-4.1,11.7-10.7,14.6-18.8v0C89.1,65.7,92.8,62.2,95.9,58z"/>
		<path class="st2" d="M54,6C30.8,6,11.9,27.5,11.9,54c0,26.5,18.8,48,42.1,48c23.3,0,42.1-21.5,42.1-48C96.1,27.5,77.2,6,54,6z
			 M22.4,53.4c0-18.7,7.9-34.8,24.9-38c2.4-0.4,4.9-0.6,7.6-0.5c0.1,0,0.2,0,0.3,0c0.5,0,0.9,0,1.4,0.1c1,0.1,1.9,0.2,2.9,0.4
			c0.1,0,0.1,0,0.2,0l0.2,0c1,0.2,2,0.5,2.9,0.8c0.5,0.2,1,0.3,1.5,0.5c0.4,0.2,0.9,0.3,1.3,0.5c0.1,0,0.2,0.1,0.2,0.1
			c0.5,0.2,0.9,0.4,1.4,0.7c0.4,0.2,0.8,0.4,1.2,0.6c0.3,0.2,0.6,0.3,0.9,0.5c0.4,0.2,0.7,0.4,1.1,0.7c7.4,4.8,13,12.6,15.6,22.2
			c0.1,0.4,0.2,0.7,0.3,1.1c0.8,3.3,1.2,6.7,1.2,10.3c0,14.7-7,27.5-17.2,34c-0.4,0.2-0.8,0.5-1.2,0.7c-0.2,0.1-0.4,0.2-0.6,0.3
			c-0.1,0.1-0.2,0.1-0.3,0.2c-0.6,0.3-1.2,0.6-1.8,0.9c-0.7,0.3-1.5,0.6-2.2,0.9c-0.1,0-0.2,0.1-0.4,0.1c-0.5,0.2-1,0.3-1.5,0.4
			c0,0,0,0,0,0c-0.8,0.2-1.6,0.4-2.4,0.5c0,0,0,0,0,0c-0.8,0.1-1.5,0.2-2.3,0.3c-0.9,0.1-1.7,0.1-2.6,0.1c-5.9,0-11.4-1.9-16.2-5.1
			C29,80.1,22.4,67.7,22.4,53.4z"/>
	</g>
	<g>
		<path class="st5" d="M37.5,88.6c5.4,6.2,37.3,18.5,54.4-28.2"/>
		<path class="st5" d="M36.8,15.6c-5.3,3.3-19.2,15-17.5,33.5"/>
	</g>
	<path class="st6" d="M59.7,10.9c0.1,1.6-1.7,3.1-4.4,4c-0.1,0-0.2,0.1-0.2,0.1c-1.2,0.4-2.6,0.6-4.1,0.7h0c-1.3,0.1-2.5,0-3.6-0.2
		c-3.1-0.5-5.4-1.9-5.5-3.7c-0.1-2.4,3.8-4.5,8.7-4.7C55.5,6.8,59.5,8.5,59.7,10.9z"/>
</g>
</svg>
