<?xml version="1.0" encoding="utf-8"?>
<!-- Generator: Adobe Illustrator 21.1.0, SVG Export Plug-In . SVG Version: 6.00 Build 0)  -->
<svg version="1.1" id="Layer_1" xmlns="http://www.w3.org/2000/svg" xmlns:xlink="http://www.w3.org/1999/xlink" x="0px" y="0px"
	 width="108px" height="108px" viewBox="0 0 108 108" style="enable-background:new 0 0 108 108;" xml:space="preserve">
<style type="text/css">
	.st0{fill:#CCCCCC;stroke:#000000;stroke-width:0.75;stroke-linecap:round;stroke-linejoin:round;stroke-miterlimit:10;}
	.st1{fill:#FFFFFF;}
	.st2{fill:#E6E6E6;}
	.st3{fill:#F2F2F2;}
	.st4{fill:none;stroke:#000000;stroke-width:0.75;stroke-linecap:round;stroke-linejoin:round;stroke-miterlimit:10;}
	.st5{fill:#FFFFFF;stroke:#000000;stroke-width:0.75;stroke-linecap:round;stroke-linejoin:round;stroke-miterlimit:10;}
	.st6{fill:none;stroke:#000000;stroke-width:0.5;stroke-linecap:round;stroke-linejoin:round;stroke-miterlimit:10;}
</style>
<g>
	<g>
		<path class="st0" d="M57.2,21.3c-1.1-0.1-2.2-0.2-3.4-0.2c-1.5,0-2.9,0.1-4.4,0.3c2.3-0.7,3.9-3.6,3.5-6.1
			c-0.7-4.3-3.7-5.1-4.7-5.2c1.6-0.2,3.2-0.4,4.9-0.4c2.1-0.1,4.1,0,6.2,0.3c-0.5,0.1-4.3,0.7-4.8,5.6
			C54.4,17.1,54.9,20.1,57.2,21.3z"/>
		<path class="st1" d="M22.3,53.6c0-16.1,11.3-29.4,26.2-32.1h0c0.3-0.1,0.6-0.1,1-0.2c2.3-0.7,3.9-3.6,3.5-6.1
			c-0.7-4.3-3.7-5.1-4.7-5.2C33,12.3,20.4,21.8,14.4,35.3C13,47,17.3,58.9,25.3,67.5C23.4,63.3,22.3,58.6,22.3,53.6z"/>
		<path class="st1" d="M57.2,21.3C73,23,85.4,36.8,85.4,53.6c0,3.3-0.5,6.4-1.3,9.4c5.4-6.2,9.5-14,11.4-22.2
			C90,24.6,75.2,12.2,59.3,10c-0.5,0.1-4.3,0.7-4.8,5.6C54.4,17.1,54.9,20.1,57.2,21.3z"/>
		<path class="st2" d="M46.6,91.4c-12.4-0.8-23.8-7.9-31.5-17.7C22.2,88.3,37,98.3,54,98.3c13.3,0,25.2-6.1,33.1-15.7
			C75,89.2,59.6,92,46.6,91.4z"/>
		<path class="st3" d="M95.4,40.8c-1.8,8.2-6,16-11.4,22.2c-3.9,13.4-15.9,23.2-30.2,23.2c-12.6,0-23.5-7.6-28.5-18.7
			C17.3,58.9,13,47,14.4,35.3c-2.5,5.6-3.9,11.8-3.9,18.5c0,7.2,1.7,13.9,4.6,19.9c7.8,9.8,19.1,17,31.5,17.7
			c13,0.6,28.4-2.2,40.5-8.8c6.5-7.8,10.4-17.8,10.4-28.8C97.5,49.3,96.8,44.9,95.4,40.8z"/>
		<path class="st4" d="M97.5,53.8C97.5,78.4,78,98.3,54,98.3c-24,0-43.5-19.9-43.5-44.5c0-22.9,16.2-40.6,37.8-43.7
			c1,0.1,4,0.9,4.7,5.2c0.4,2.5-1.2,5.4-3.5,6.1c-0.3,0-0.7,0.1-1,0.2h0c-14.9,2.6-26.2,16-26.2,32.1c0,18,14.1,32.5,31.5,32.5
			c17.4,0,31.5-14.6,31.5-32.5C85.4,36.8,73,23,57.2,21.3c-2.3-1.2-2.8-4.2-2.7-5.7c0.5-4.9,4.3-5.5,4.8-5.6
			C79.2,12.7,97.5,31.5,97.5,53.8z"/>
		<path class="st5" d="M49.5,21.4c-0.3,0.1-0.6,0.2-1,0.2C48.8,21.5,49.1,21.5,49.5,21.4z"/>
	</g>
	<g>
		<path class="st6" d="M36.1,23.1c0,0-21.8,12.5-16.5,36.8"/>
		<path class="st6" d="M58.6,94.3c0,0,29.6-0.5,35.1-37.4"/>
		<path class="st6" d="M61.2,14.1c0,0,1.2,0.7,1,1.6c-0.1,0.4-0.5,1.3-1.5,1.3"/>
		<path class="st6" d="M46.5,14.7c0.8,0,1.5,0.7,1.5,1.5c0,0.8-0.7,1.5-1.5,1.5c-0.8,0-1.5-0.7-1.5-1.5"/>
	</g>
</g>
</svg>
