<?xml version="1.0" encoding="utf-8"?>
<!-- Generator: Adobe Illustrator 21.1.0, SVG Export Plug-In . SVG Version: 6.00 Build 0)  -->
<svg version="1.1" id="Layer_1" xmlns="http://www.w3.org/2000/svg" xmlns:xlink="http://www.w3.org/1999/xlink" x="0px" y="0px"
	 width="108px" height="108px" viewBox="0 0 108 108" style="enable-background:new 0 0 108 108;" xml:space="preserve">
<style type="text/css">
	.st0{fill:#FFFFFF;stroke:#231F20;stroke-width:0.7;}
	.st1{fill:#CCCCCC;stroke:#231F20;stroke-width:0.4;}
	.st2{fill:#CCCCCC;stroke:#231F20;stroke-width:0.7;}
	.st3{fill:url(#SVGID_1_);stroke:#231F20;stroke-width:0.7;stroke-linecap:round;stroke-linejoin:round;}
	.st4{fill:#FFFFFF;stroke:#231F20;stroke-width:0.7;stroke-linecap:round;stroke-linejoin:round;}
</style>
<g>
	<path class="st0" d="M98.4,26.1c-3.4-5.4-8.5-8.5-15.2-9.3c-5-0.6-10.3,0.4-14.6,2.4C55.6,23.6,46.4,37.8,43,42.1
		c-4.3,5.5-27.6,45.4-27.6,45.4l-3.7,8c-1.4,1.8-2.4,3.2-2.4,3.2l1.1,0.8l9.1-12.3c0.2-0.3,11.4-19.5,19.7-33l3.2-4.9
		c0,0,13.8,8.9,24.1,10.2c3.6,0.5,7.2,1.3,10,1.1c19.9,0.4,23.7-12.5,25.1-16.8l0.1-0.2C102.7,41,102.6,32.9,98.4,26.1z M82.3,58.4
		c-13,4-31.1-6.9-35.4-9.1c-4.3-2.2-7.4-0.9,3.1-12.7s16.6-14.4,22.3-16.3s21.1-1.4,25.7,13.6C103.9,53.4,82.3,58.4,82.3,58.4z"/>
</g>
<g>
	<path class="st1" d="M90.5,23.2l3.5-2.2c-0.5-0.4-1-0.7-1.5-1.1l-3.4,2.3C89.6,22.6,90,22.9,90.5,23.2z"/>
	<path class="st1" d="M89.1,22.3l3.4-2.3c-0.5-0.4-1.1-0.7-1.7-1l-3.4,2.4C88,21.7,88.5,22,89.1,22.3z"/>
	<path class="st1" d="M91.8,24.2l3.5-2c-0.4-0.4-0.8-0.8-1.3-1.1l-3.5,2.2C90.9,23.5,91.4,23.9,91.8,24.2z"/>
	<path class="st1" d="M92.9,25.2l3.5-1.9c-0.4-0.4-0.7-0.8-1.1-1.2l-3.5,2C92.2,24.5,92.5,24.9,92.9,25.2z"/>
	<path class="st1" d="M87.4,21.5l3.4-2.4c-0.6-0.3-1.3-0.6-2-0.9l-3.3,2.6C86.1,20.9,86.8,21.2,87.4,21.5z"/>
	<path class="st1" d="M83.4,20.1l3.2-2.7c-0.8-0.2-1.7-0.4-2.6-0.5l-3,2.8C81.7,19.8,82.5,19.9,83.4,20.1z"/>
	<path class="st1" d="M85.5,20.7l3.3-2.6c-0.7-0.3-1.5-0.5-2.3-0.7l-3.2,2.7C84.1,20.3,84.8,20.5,85.5,20.7z"/>
	<path class="st1" d="M96.7,30.7l3.4-1.3c-0.2-0.4-0.4-0.8-0.6-1.2l-3.4,1.4C96.3,29.9,96.5,30.3,96.7,30.7z"/>
	<path class="st1" d="M97.2,31.8l3.4-1.2c-0.1-0.4-0.3-0.8-0.5-1.2l-3.4,1.3C96.9,31,97.1,31.4,97.2,31.8z"/>
	<path class="st1" d="M80.9,19.7l3-2.8c-0.2,0-0.5-0.1-0.7-0.1c-0.8-0.1-1.5-0.1-2.3-0.1l-2.7,2.8C79.1,19.5,80,19.5,80.9,19.7z"/>
	<path class="st1" d="M93.9,26.3l3.4-1.7c-0.3-0.4-0.6-0.8-1-1.2l-3.5,1.9C93.2,25.6,93.6,25.9,93.9,26.3z"/>
	<path class="st1" d="M97.9,33.8c0,0.1,0,0.2,0.1,0.3l3.3-1c-0.1-0.4-0.2-0.8-0.4-1.3l-3.4,1.1C97.7,33.2,97.8,33.5,97.9,33.8z"/>
	<path class="st1" d="M97.6,32.9l3.4-1.1c-0.1-0.4-0.3-0.8-0.4-1.2l-3.4,1.2C97.4,32.2,97.5,32.6,97.6,32.9z"/>
	<path class="st1" d="M96.1,29.6l3.4-1.4c-0.2-0.4-0.4-0.8-0.6-1.2l-3.4,1.5C95.7,28.8,95.9,29.2,96.1,29.6z"/>
	<path class="st1" d="M94.7,27.4l3.4-1.6c-0.3-0.4-0.5-0.8-0.8-1.2l-3.4,1.7C94.2,26.6,94.5,27,94.7,27.4z"/>
	<path class="st1" d="M95.5,28.4l3.4-1.5c-0.2-0.3-0.3-0.6-0.5-0.9c-0.1-0.1-0.1-0.2-0.2-0.3l-3.4,1.6C95,27.7,95.2,28.1,95.5,28.4z
		"/>
	<path class="st1" d="M96.3,49.3l3.2,0c0.3-0.6,0.6-1.2,0.8-1.7l-3.1,0.1C96.9,48.2,96.6,48.7,96.3,49.3z"/>
	<path class="st1" d="M98.9,39l3.3-0.7c0-0.4-0.1-0.9-0.1-1.4l-3.3,0.8C98.8,38.2,98.9,38.6,98.9,39z"/>
	<path class="st1" d="M98.4,44.5l3.1-0.3c0-0.1,0.1-0.2,0.1-0.4l0.1-0.2c0.1-0.3,0.2-0.6,0.3-1l-3.3,0.4
		C98.7,43.6,98.6,44.1,98.4,44.5z"/>
	<path class="st1" d="M99,40.3l3.3-0.6c0-0.4,0-0.9,0-1.4L98.9,39C99,39.4,99,39.9,99,40.3z"/>
	<path class="st1" d="M98.7,43.1l3.3-0.4c0.1-0.4,0.1-0.9,0.2-1.5l-3.3,0.5C98.9,42.1,98.8,42.6,98.7,43.1z"/>
	<path class="st1" d="M98.9,41.7l3.3-0.5c0-0.5,0.1-0.9,0.1-1.4L99,40.3C99,40.8,98.9,41.2,98.9,41.7z"/>
	<path class="st1" d="M98,34.1c0.1,0.4,0.2,0.8,0.3,1.2l3.3-0.9c-0.1-0.4-0.2-0.8-0.3-1.3L98,34.1z"/>
	<path class="st1" d="M98.8,37.7l3.3-0.8c0-0.4-0.1-0.9-0.2-1.3l-3.3,0.8C98.7,36.9,98.7,37.3,98.8,37.7z"/>
	<path class="st1" d="M98.6,36.5l3.3-0.8c-0.1-0.4-0.1-0.9-0.2-1.3l-3.3,0.9C98.4,35.7,98.5,36.1,98.6,36.5z"/>
	<path class="st1" d="M97.2,47.6l3.1-0.1c0.3-0.6,0.5-1.2,0.7-1.7l-3,0.2C97.7,46.6,97.5,47.1,97.2,47.6z"/>
	<path class="st1" d="M88.5,55.9l4.4,0.7c0.9-0.6,1.6-1.2,2.3-1.8l-4.1-0.4C90.3,54.9,89.4,55.4,88.5,55.9z"/>
	<path class="st1" d="M91.2,54.3l4.1,0.4c0.7-0.6,1.2-1.2,1.8-1.9l-3.7-0.3C92.6,53.2,91.9,53.8,91.2,54.3z"/>
	<path class="st1" d="M85.4,57.4l4.5,0.9c1.1-0.5,2.1-1.1,3.1-1.7l-4.4-0.7C87.4,56.5,86.3,57,85.4,57.4z"/>
	<path class="st1" d="M82.3,58.4c-0.3,0.1-0.5,0.1-0.8,0.2l4.3,1.1c1.5-0.4,2.9-0.9,4.1-1.4l-4.5-0.9C83.5,58.1,82.3,58.4,82.3,58.4
		z"/>
	<path class="st1" d="M97.9,46.1l3-0.2c0.2-0.6,0.4-1.2,0.6-1.6l-3.1,0.3C98.3,45.1,98.1,45.6,97.9,46.1z"/>
	<path class="st1" d="M93.5,52.5l3.7,0.3c0.5-0.6,1-1.2,1.4-1.8l-3.4-0.1C94.6,51.5,94.1,52,93.5,52.5z"/>
	<path class="st1" d="M95.1,50.9l3.4,0.1c0.4-0.6,0.8-1.2,1.1-1.8l-3.2,0C96,49.8,95.6,50.3,95.1,50.9z"/>
</g>
<path class="st2" d="M47.7,39.4l-1.1,1.4C42.4,46.2,20,84.6,19,86.2c0-0.1-9.1,12.3-9.1,12.3l1.1,0.8L20.1,87
	c0.3-0.5,23.4-40,27.6-45.3l1.1-1.4c5-6.6,18.3-24.2,34.9-22.3c6.3,0.7,11,3.6,14.2,8.7c4.1,6.5,4,14.3,3.2,16.5l-0.1,0.2
	c-1.5,4.4-6.1,17.8-30.2,14.7c-10.1-1.3-23.7-10-23.8-10.1l-0.7,1.1c0.6,0.4,14,9,24.4,10.3c25.1,3.2,30-10.9,31.6-15.5l0.1-0.2
	c0.9-2.7,0.9-10.8-3.4-17.6c-3.4-5.4-8.5-8.5-15.2-9.3C66.5,14.6,52.9,32.6,47.7,39.4z"/>
<linearGradient id="SVGID_1_" gradientUnits="userSpaceOnUse" x1="41.4518" y1="44.2241" x2="50.6229" y2="44.2241" gradientTransform="matrix(0.957 -0.29 0.29 0.957 -14.4295 17.9211)">
	<stop  offset="0" style="stop-color:#FFFFFF"/>
	<stop  offset="0.3053" style="stop-color:#FCFDFE"/>
	<stop  offset="0.5468" style="stop-color:#F2F5FB"/>
	<stop  offset="0.7663" style="stop-color:#E1E9F6"/>
	<stop  offset="0.9718" style="stop-color:#CAD8EE"/>
	<stop  offset="1" style="stop-color:#C6D5ED"/>
</linearGradient>
<polygon class="st3" points="39.4,43.4 43.4,44.2 47.5,47.7 45.6,50.3 41.8,46.7 37.4,46.1 "/>
<polygon class="st4" points="39.7,47.7 39.2,47.1 41.7,47.3 43.9,49.5 42.5,49.3 41.9,50.2 45.3,50.9 45.9,49.9 42.2,46.4 
	37.6,45.8 37.2,46.6 39.2,48.4 "/>
<line class="st4" x1="42.5" y1="45.9" x2="43.3" y2="44.8"/>
<line class="st4" x1="45.8" y1="48.9" x2="46.6" y2="47.8"/>
</svg>
