<?xml version="1.0" encoding="utf-8"?>
<!-- Generator: Adobe Illustrator 21.1.0, SVG Export Plug-In . SVG Version: 6.00 Build 0)  -->
<svg version="1.1" id="Layer_1" xmlns="http://www.w3.org/2000/svg" xmlns:xlink="http://www.w3.org/1999/xlink" x="0px" y="0px"
	 width="108px" height="108px" viewBox="0 0 108 108" style="enable-background:new 0 0 108 108;" xml:space="preserve">
<style type="text/css">
	.st0{fill:#FFFFFF;stroke:#000000;stroke-width:0.75;stroke-linecap:round;stroke-linejoin:round;stroke-miterlimit:10;}
	.st1{fill:#E6E6E6;}
	.st2{fill:#FFFFFF;}
	.st3{fill:#F2F2F2;}
	.st4{fill:none;stroke:#000000;stroke-width:0.75;stroke-linecap:round;stroke-linejoin:round;stroke-miterlimit:10;}
	.st5{fill:#F2F2F2;stroke:#000000;stroke-width:0.5;stroke-linecap:round;stroke-linejoin:round;stroke-miterlimit:10;}
	.st6{fill:#CCCCCC;}
	.st7{fill:none;stroke:#000000;stroke-width:0.5;stroke-linecap:round;stroke-linejoin:round;stroke-miterlimit:10;}
</style>
<g>
	<path class="st0" d="M23.7,67.8"/>
	<path class="st1" d="M62,86.6c-0.3-0.8-0.6-1.5-1-1.9c-1.1-1.5-2.5-1.5-4.1-1.5c-1.3,0-4.8-0.1-7.6,0c-2,0.1-3.8,0.3-4.2,0.7
		c-1.9-0.6-3.7-1.4-5.5-2.4c-6.8-1.7-13.3-4.8-19.2-8.6c4.6,8.3,12.2,14.7,21.2,17.8c0,0,1.7,3.4,4.1,4.1c2.4,0.7,11,0.5,13.2-0.3
		c1.4-0.5,2.9-1.1,3.5-2.6c0.3-0.9,0.4-2.1-0.1-3.8C62.3,87.4,62.1,86.9,62,86.6z"/>
	<path class="st2" d="M60.8,15.8c-0.1,0-0.2-0.1-0.3-0.1c-0.4-0.1-0.8-0.2-1.2-0.2c-1.9,0-4.9,0-4.9,0s-0.5,2.6-2.6,2.6h-5.3
		c-0.5,0-1.9-1.4-2.4-2.4c-11.2,3-20.3,11-25.1,21.5c0.4,6.7,1.4,13.5,4.5,18.6c-0.1-0.8-0.1-1.6-0.1-2.4c0-17.6,14-31.9,31.4-31.9
		c1.5,0,3,0.1,4.5,0.3c0,0,2.9,0.5,3.4-2.4C63,17.4,62.1,16.3,60.8,15.8z"/>
	<path class="st3" d="M15.5,53.5c0,7,1.8,13.6,5,19.3c5.9,3.8,12.4,6.9,19.2,8.6c-9.1-5-15.4-14.5-16.3-25.5
		c-3-5.1-4.1-11.9-4.5-18.6C16.7,42.2,15.5,47.7,15.5,53.5z"/>
	<path class="st4" d="M62.4,87.8c-0.1-0.5-0.3-0.9-0.4-1.3c-0.3-0.8-0.6-1.5-1-1.9c-1.1-1.5-2.5-1.5-4.1-1.5c-1.3,0-4.8-0.1-7.6,0
		c-2,0.1-3.8,0.3-4.2,0.7c-12.7-4.1-21.8-16.1-21.8-30.3c0-17.6,14-31.9,31.4-31.9c1.5,0,3,0.1,4.5,0.3c0,0,2.9,0.5,3.4-2.4
		c0.3-2.1-0.6-3.2-1.8-3.6c-0.1,0-0.2-0.1-0.3-0.1c-0.4-0.1-0.8-0.2-1.2-0.2c-1.9,0-4.9,0-4.9,0s-0.5,2.6-2.6,2.6h-5.3
		c-0.5,0-1.9-1.4-2.4-2.4c-16.5,4.4-28.6,19.7-28.6,37.7c0,17.2,11,31.8,26.2,37c0,0,1.7,3.4,4.1,4.1c2.4,0.7,11,0.5,13.2-0.3
		c1.4-0.5,2.9-1.1,3.5-2.6C62.8,90.8,62.8,89.5,62.4,87.8z"/>
	<path class="st0" d="M56.7,92.5c-0.6,0.4-1.3,0.6-2.1,0.6c-0.7,0-1.4-0.2-2-0.5h0c-1.3-0.7-2.1-2-2.1-3.6c0-1.6,1-3.1,2.4-3.7
		c0.5-0.3,1.1-0.4,1.7-0.4c0.6,0,1.2,0.1,1.7,0.4c0,0,0,0,0,0c1.4,0.6,2.4,2.1,2.4,3.7C58.7,90.4,57.9,91.8,56.7,92.5z"/>
	<path class="st5" d="M58.7,88.9c0,1.5-0.8,2.8-2,3.5c-0.6,0.4-1.3,0.6-2.1,0.6c-0.7,0-1.4-0.2-2-0.5h0c-1.3-0.7-2.1-2-2.1-3.6
		c0-1.6,1-3.1,2.4-3.7c0.5-0.3,1.1-0.4,1.7-0.4c0.6,0,1.2,0.1,1.7,0.4c0,0,0,0,0,0C57.8,85.9,58.7,87.3,58.7,88.9z"/>
	<path class="st6" d="M74.5,78.1c-2.6,2.1-5.4,3.9-8.6,5.1c-0.2-0.5-0.4-0.9-0.7-1.2c-1.1-1.1-7.3-2.4-11.2-2.4
		c-2.7,0-4.2,2-4.8,3.5c2.8-0.1,6.2,0,7.6,0c1.6,0,3,0,4.1,1.5c0.4,0.5,0.7,1.1,1,1.9c0.1,0.4,0.2,0.8,0.4,1.2
		C67.1,85.4,71.3,82.2,74.5,78.1z"/>
	<path class="st2" d="M61,15.1c-0.1,0-0.2,0-0.3-0.1l-0.2,0.7c0.1,0,0.2,0.1,0.3,0.1c1.3,0.5,2.2,1.5,1.8,3.6
		c-0.5,2.9-3.4,2.4-3.4,2.4C68.7,23.3,76.8,29,81.6,37c6.2,8,8.9,17.5,9.4,27.4c1-3.5,1.5-7.1,1.5-10.9C92.5,34.3,78.9,18.4,61,15.1
		z"/>
	<path class="st1" d="M74.5,78.1c-3.2,4.1-7.5,7.3-12.2,9.7c0,0,0,0.1,0,0.1c0.4,1.7,0.4,2.9,0.1,3.8c2.8-0.6,5.4-1.6,7.9-2.8
		c2.6-4.6,5.2-9.1,7.3-13.8C76.7,76.1,75.7,77.1,74.5,78.1z"/>
	<path class="st3" d="M91,64.4C90.5,54.5,87.7,45,81.6,37c2.8,4.8,4.5,10.4,4.5,16.4c0,8.4-3.2,15.9-8.4,21.6
		c-2.1,4.7-4.7,9.2-7.3,13.8C80.3,84.1,87.9,75.2,91,64.4z"/>
	<path class="st4" d="M92.5,53.5c0,18.6-12.9,34.2-30.1,38.1c0.3-0.9,0.4-2.1-0.1-3.8c-0.1-0.5-0.3-0.9-0.4-1.3
		c-0.3-0.8-0.6-1.5-1-1.9c-1.1-1.5-2.5-1.5-4.1-1.5c-1.3,0-4.8-0.1-7.6,0c0.6-1.6,2.1-3.5,4.8-3.5c3.9,0,10.1,1.3,11.2,2.4
		c0.2,0.2,0.5,0.7,0.7,1.2C77.7,78.6,86.1,67,86.1,53.4c0-16-11.7-29.3-26.9-31.5c0,0,2.9,0.5,3.4-2.4c0.3-2.1-0.6-3.2-1.8-3.6
		c-0.1,0-0.2-0.1-0.3-0.1l0.2-0.7c0.1,0,0.2,0,0.3,0.1C78.9,18.4,92.5,34.3,92.5,53.5z"/>
	<path class="st0" d="M60.7,14.9l0,0.2l-0.2,0.7c-0.4-0.1-0.8-0.2-1.2-0.2c-1.9,0-4.9,0-4.9,0s-0.5,2.6-2.6,2.6h-5.3
		c-0.5,0-1.9-1.4-2.4-2.4c-0.2-0.4-0.3-0.8-0.1-1c0.7-0.7,3.4-1.8,7-1.8C54.3,13,60,14.7,60.7,14.9z"/>
	<path class="st0" d="M60.8,14.9C60.8,14.9,60.7,14.9,60.8,14.9"/>
	<g>
		<path class="st7" d="M45.8,90.7c-0.7-0.7-1.2-1.8-1.2-2.9c0-0.8,0.3-1.6,0.7-2.3"/>
		<path class="st7" d="M23.9,68.3c-2.1-4.5-3.3-9.5-3.3-14.7c0-14.2,8.6-26.4,20.8-31.4"/>
	</g>
</g>
</svg>
