<?xml version="1.0" encoding="utf-8"?>
<!-- Generator: Adobe Illustrator 21.1.0, SVG Export Plug-In . SVG Version: 6.00 Build 0)  -->
<svg version="1.1" id="Layer_1" xmlns="http://www.w3.org/2000/svg" xmlns:xlink="http://www.w3.org/1999/xlink" x="0px" y="0px"
	 width="108px" height="108px" viewBox="0 0 108 108" style="enable-background:new 0 0 108 108;" xml:space="preserve">
<style type="text/css">
	.st0{fill:#FFFFFF;stroke:#231F20;stroke-width:0.7;}
</style>
<g>
	<path class="st0" d="M102,36.9C95,14.9,82,14.6,70.2,17.2c-9.7,2.1-23.1,15.9-32,28.6C31.5,55.3,23.9,66.9,23.8,67l-0.2,0.3
		l0.3,0.2c0,0,0.7,0.5,0.7,0.5l0.2-0.3c0.8-1.2,8-12.1,14.4-21.2c6.1-8.7,20.5-25.8,31.3-28.1c11.9-2.6,23.8-2.1,30.4,18.9
		c3,9.6,0.7,20.9-5.9,29.5c-6.1,7.9-15.3,14.1-25.3,17c-25.2,7.2-49.1-2-49.3-2.1L20,81.5l-0.4,1.1l0.3,0.1
		c0.2,0.1,24.5,9.5,50.1,2.2c10.2-2.9,19.7-9.3,25.9-17.4C102.7,58.5,105.1,46.8,102,36.9z"/>
	<path class="st0" d="M23.1,66.2c-1.1,0.3-1.8,1.5-1.6,2.6c0,0.1,0,0.2,0,0.3c0,0.1,0,0.1,0,0.2c0,0.1-3.4,5.2-3.4,5.2l2.8,0.9
		c0,0,2.9-4.8,3-4.9c0-0.1,0.2-0.1,0.2-0.1c1.1-0.3,1.8-1.5,1.6-2.6C25.4,66.6,24.3,65.9,23.1,66.2z"/>
	<path class="st0" d="M13.4,78.2c2.2-3.5,4-4.6,4.3-4.7c0.1,0,1.8,0.3,2.8,0.9c1.1,0.7,1.5,1.6,1.6,1.9c0.1,0.4-1.1,4.3-2,5.8
		c-1.3,2.3-3.6,4.8-4,4.9c-0.2,0.1-1.9,0.4-3.1-0.2c-1.8-1-2-2.3-2.1-2.6C10.7,83.5,12.5,79.6,13.4,78.2z"/>
	<path class="st0" d="M13.8,85c-0.3-0.3-1.6-0.6-1.8,0.2c-0.1,0.4-0.5,1.1-0.9,1.7c-0.1,0.1-0.5,0.3-0.6,0.3
		c-1.2,0.3-1.9,1.5-1.6,2.7c0.3,1.2,1.5,1.9,2.7,1.6c1.2-0.3,1.9-1.5,1.6-2.7c0-0.1,0-0.4,0-0.5c0.3-0.5,0.7-1,0.9-1.4
		C14.8,86,14.2,85.3,13.8,85z"/>
	<path class="st0" d="M23.1,69.6c0.6,0.3,1.5-0.3,1.8-0.8"/>
	<path class="st0" d="M10.8,90.5c0.8,0.2,1.5-0.4,1.6-1.1"/>
	<path class="st0" d="M16.2,86.6c0,0,0.8-1.5-1.9-3.1c-2.8-1.6-3.7,0.2-3.5,0.8c0.2,0.6,0.9,1.5,0.9,1.5s-0.4-0.7-0.1-1.2
		c0.2-0.4,1-0.8,2-0.5c2,0.8,1.3,3.2,0.3,2.8"/>
	<path class="st0" d="M15.6,83.1c0,0,2.4-3.1,2.9-3.9c0.5-0.8,1.7-2.8,1.7-2.8"/>
</g>
</svg>
