<?xml version="1.0" encoding="utf-8"?>
<!-- Generator: Adobe Illustrator 21.1.0, SVG Export Plug-In . SVG Version: 6.00 Build 0)  -->
<svg version="1.1" id="Layer_1" xmlns="http://www.w3.org/2000/svg" xmlns:xlink="http://www.w3.org/1999/xlink" x="0px" y="0px"
	 width="108px" height="108px" viewBox="0 0 108 108" style="enable-background:new 0 0 108 108;" xml:space="preserve">
<style type="text/css">
	.st0{fill:#FFFFFF;stroke:#231F20;stroke-width:0.75;}
	.st1{fill:#CCCCCC;stroke:#231F20;stroke-width:0.75;}
</style>
<g>
	<path class="st0" d="M23.3,40.8c-0.9-1.6,0.7-4.2,2.9-4.5c2.2-0.2,4.6,2,6.8,3.8c2.2,1.8,3.9,4.8,5.2,6.9c1.2,2,2.3,3.7,2.3,3.7
		l-1.8,1.8"/>
	<path class="st1" d="M38.7,52.3c0,0-3.1-5.3-4.9-7.8c-1.9-2.5-6.7-7.3-8.4-6.4c-1.7,0.9-2.8,1.9-1.7,3.6c1.1,1.7,6.7,6.9,8.5,7.5
		c1.8,0.6,2.8,0.3,4,1.9c1.2,1.5,1.3,1.6,1.6,1.9s1,0.3,1,0.3L38.7,52.3z"/>
	<path class="st0" d="M28.3,41.6c-0.8,0-1.4,0.6-1.4,1.4c0,0.4,0.2,0.8,0.5,1c-0.3,0.6-0.6,1.1-0.9,1.3c-1.1,0-1.9,1.1-1.6,2.1
		c0.3,1.1,0.4,0.8-0.1,2c-0.5,1.1-1,0.6-1.7,1.5c-0.7,1,0.4,1.6,0.1,2.5c-0.3,0.7-0.5,1.4-0.8,2.1c-0.4,0.9-0.6,0.4-1.3,0.9
		c-1.5,1.1,0.2,2-0.1,2.9c-0.2,0.6-0.4,1.2-0.6,1.8c-0.2,0.6-1.5,0.3-1.9,1.4c-0.4,1,0.8,1.5,0.5,2.3c-0.3,0.7-0.5,1.6-1,1.9
		c-1.1,0-1.9,1.1-1.6,2.2c0.4,1.1,0.6,0.7,0.1,2c-0.1,0.4-0.3,0.7-0.4,1.1c-0.1,0.4-0.3,0-0.5,0.1c-1.4,0-2.2,1.7-1.3,2.7
		c0.6,0.7,0.2,0.9-0.1,1.8c-0.2,0.5-0.4,1.5-0.9,1.4c-1-0.2-1.8,0.7-1.8,1.6c0,0.6,0.4,1.1,0.9,1.4c-0.1,0.4-0.3,0.7-0.4,1.1
		c-0.3,0.6-0.5,1.3-0.8,1.9c-0.9-0.2-1.7,0.1-2,1c-0.4,1.2,1,1.5,0.6,2.4c-0.2,0.4-0.3,0.7-0.5,1.1C8.9,89,9,88.5,8.5,88.7
		c-1.1,0-2,1.2-1.5,2.2c0.5,1.2,0.9,0.6,0.3,1.9c-0.2,0.4-0.3,1.4-0.8,1.3c-1.2-0.2-2.1,1.1-1.7,2.2c0.4,1.1,1.7,1.5,2.6,0.8
		C7.7,96.8,8,96.3,8,95.7c0-0.4-0.5-1-0.4-1.3c0.3-0.7,0.6-1.4,0.9-2.1c0.4-0.9,1.7-0.6,1.7-2c0-0.4-0.5-0.9-0.4-1.2
		c0.1-0.3,0.3-0.7,0.4-1c0.5-1.1,0.5-0.8,1.4-1.5c0.4-0.3,0.6-0.8,0.6-1.3c0-0.3-0.5-1-0.4-1.2c0.3-0.8,0.7-1.6,1-2.4
		c0.4-0.9,1-0.6,1.6-1.3c0.7-1-0.3-1.6,0-2.4c0.3-0.7,0.6-1.4,0.9-2.2c0.4-0.9,1.4-0.7,1.8-1.8c0.3-1-0.5-1.4-0.1-2.3
		c0.3-0.6,0.5-1.2,0.8-1.9c1,0.1,1.8-0.7,1.8-1.6c0-0.5-0.3-1-0.6-1.3c0.2-0.4,0.3-0.8,0.5-1.2c0.4-1,0.3-1,1.1-1.3
		c1-0.3,1.5-1.6,0.8-2.5c-0.5-0.6-0.1-1,0.2-1.8c0.4-1.2,1.1-0.5,1.8-1.5c0.8-1.1-0.6-1.8-0.3-2.4c0.3-0.7,0.5-1.4,0.8-2.1
		c0.4-0.9,0.3-0.4,1.2-0.7c1.3-0.4,1.5-2.2,0.3-3c0.3-0.6,0.5-1.2,0.8-1.8c0.1-0.3,1.3-0.2,1.7-0.8c0.3-0.4,0.4-1,0.2-1.5
		c-0.3-0.9-0.8-0.4-0.3-1.5c0.1-0.2,0.2-0.4,0.3-0.6c0.1,0,0.2,0,0.2,0c0.8,0,1.4-0.6,1.4-1.4C29.7,42.2,29.1,41.6,28.3,41.6z"/>
	<path class="st0" d="M104,37.8c0-1.3-1.3-1.3-1.5-2.3c-0.3-1.4-0.8-2.9-1.4-4.2c0.7-0.7,0.7-1.9-0.1-2.5c-0.3-0.2-0.7-0.4-1.1-0.3
		c-0.5,0.1-1.2-1.4-1.5-1.9c-0.5-0.6-0.9-1.2-1.5-1.8c0.3-0.4,0.4-0.9,0.2-1.4c-0.3-1-1.4-1.4-2.3-0.9c-1.1-1-2.2-2-3.4-2.9
		c0.5-1.3-0.7-2.7-2.1-2.1c-0.8,0.3-0.9,0.1-1.7-0.4c-0.6-0.4-1.2-0.7-1.8-1c0.4-1.1-0.3-2.2-1.5-2.2c-1.2,0-1,1-2.1,0.5
		c-0.4-0.2-1.9-0.5-1.9-1c0.1-0.9-0.8-1.8-1.6-1.8c-0.5,0-0.9,0.2-1.2,0.6c-0.5,0.6-0.9,0.2-1.7,0.1c-1.1-0.2-3.4-0.2-3.7-1.1
		c-0.5-1.2-2.2-1.4-2.9-0.3c-0.5,0.8-0.8,0.5-1.7,0.5c-0.8,0-1.5,0-2.3,0.1c-1.2,0.1-0.5-0.2-1.3-0.9c-0.4-0.3-1-0.4-1.5-0.3
		c-1.1,0.4-0.7,1.5-1.7,1.7c-0.6,0.1-1.2,0.2-1.8,0.4c-0.9,0.2-1.3,0.6-2,0c-0.9-0.7-2.2-0.3-2.6,0.8c-0.3,0.9-0.2,0.8-1.3,1.3
		c-0.3,0.2-0.7,0.3-1,0.5c-0.4,0.2-1.1-0.5-1.8-0.3c-0.9,0.3-1.2,1.1-1.1,1.9c-0.6,0.3-1.1,0.7-1.6,1.1c-0.8,0.5-0.7,0.8-1.5,0.4
		c-1.1-0.4-2.2,0.4-2.2,1.5c0,0.3,0.4,0.7,0.2,0.9c-0.3,0.3-0.7,0.6-1,1c-0.6,0.5-0.9,1.2-1.5,0.8c-0.9-0.6-2.1-0.1-2.4,0.9
		c-0.3,0.9,0.8,1.5,0.3,2.1c-0.5,0.6-1.1,1.3-1.6,1.9c-0.3,0.3-1.4,0-1.9,0.7c-0.6,0.8,0.2,1.5-0.2,2.1c-0.4,0.6-0.9,1.3-1.3,1.9
		c-0.4,0.6-1.4,0.2-1.9,0.9c-0.7,0.9,0.3,1.6-0.1,2.3c-0.4,0.6-0.7,1.2-1.1,1.8c-0.2,0.4-0.9,0.3-1.4,0.7c-0.1,0.1,0.7,0.4,1.2,1
		c0.7,0.6,1.3,1.1,1.3,1.1c0.1-0.1,0.1-0.3,0.2-0.4c0.3-1-0.8-1.5-0.4-2.2c0.3-0.6,0.7-1.2,1-1.7c1.1,0.3,2.2-0.3,2.2-1.5
		c0-0.4-0.6-1.1-0.4-1.3c0.2-0.3,0.4-0.6,0.6-0.9c0.4-0.5,0.6-1.4,1.3-1.2c1,0.3,2-0.6,2-1.6c0-0.4-0.5-1-0.4-1.2
		c0.3-0.4,0.6-0.7,0.9-1.1c0.4-0.5,0.7-0.9,1.2-1.2c0.9,0,1.8-0.8,1.6-1.8c-0.1-0.7,1.9-2.1,2.4-2.5c0.9,0.5,2,0.1,2.4-0.9
		c0.1-0.4,0.1-0.6,0-1c0.6-0.5,1.3-0.9,1.9-1.4c1.1-0.8,0.7,0.1,1.8,0.1c0.5,0,1-0.3,1.3-0.7c0.7-1-0.1-1.2,1-1.8
		c0.8-0.3,1.2-0.8,1.9-0.3c0.9,0.6,2.2,0.2,2.5-0.8c0.3-1,2-1,3.1-1.2c0.3-0.1,0.7-0.1,1-0.2c0.3,0.5,0.8,0.8,1.4,0.8
		c0.5,0,1-0.3,1.3-0.7c0.5-0.7,0.9-0.5,1.7-0.6c0.8,0,1.5,0,2.3,0c1.2,0,0.6,0.3,1.4,0.8c0.4,0.3,1,0.4,1.5,0.2
		c0.4-0.2,0.7-0.4,0.8-0.8c0.5,0.1,1,0.1,1.5,0.2c1.1,0.2,3.3,0.2,3.8,1.2c0.4,0.9,1.5,1.3,2.4,0.7c0.6-0.4,1-0.1,1.7,0.2
		c0.3,0.1,0.7,0.3,1,0.4c0.6,0.2,0.3,0.6,0.7,1.1c0.9,1.2,2,0.1,2.9,0.6c0.6,0.3,1.2,0.7,1.8,1.1c1.2,0.8,0.2,0.2,0.5,0.9
		c0,1.1,1.1,2,2.2,1.6c1.1-0.4,2.9,1.7,3.7,2.6c-0.5,0.9-0.2,2.1,0.9,2.4c0.5,0.2,0.8,0.1,1.3-0.1c0.5,0.6,0.9,1.2,1.4,1.8
		c0.4,0.6,0.8,1.2,1.2,1.8c-0.4,0.4-0.6,1.1-0.4,1.7c0.4,1.3,1.8,0.7,2.2,1.7c0.5,1.3,0.9,2.6,1.2,3.9c-1,0.4-1.4,1.7-0.7,2.5
		c0.2,0.3,0.8,0.4,0.9,0.7c0,0.7,0,1.5-0.1,2.2c-0.1,0.8,0.1,1.3-0.7,1.6c-0.6,0.3-1,0.8-1,1.5c0,0.5,0.3,1,0.7,1.3
		c-0.2,0.7-0.5,1.3-0.9,1.9c-0.2,0.4-0.5,1-0.9,1.2c-0.5,0-1,0.3-1.3,0.7c-0.2,0.3-0.4,0.7-0.3,1.1c0.1,0.5-0.5,0.8-0.9,1.1
		c-1,0.8-1.7,1.2-2.9,1.6c-0.5,0.1-0.8,0.5-1,0.9c-0.6,0.3-1.3,0.6-1.9,0.9c-0.7,0.3-1.4,0.5-2.1,0.8c-0.4-0.3-0.9-0.4-1.4-0.3
		c-0.5,0.1-0.8,0.5-1,0.9c-0.6,0.2-1.3,0.3-1.9,0.4c-0.7,0.1-1.4,0.3-2.1,0.4c-0.4-0.5-1.1-0.8-1.8-0.6c-0.8,0.3-0.7,1-1.6,1
		c-0.8,0.1-1.6,0.1-2.3,0.2c-1,0.1-0.7-0.1-1.5-0.6c-0.4-0.3-0.9-0.4-1.4-0.2c-0.4,0.1-0.9,1-1.2,1c-1.2,0-2.3,0-3.5,0
		c0-1.1-1.1-1.9-2.1-1.6c-0.4,0.1-0.8,0.5-1,0.9c-0.4,0.8-1.4,0.3-2.3,0.2c-0.7-0.1-1.5-0.2-2.2-0.3c-0.1-0.5-0.5-1-1-1.2
		c-1-0.4-1.4,0.7-2.1,0.6c-1.3-0.3-2.7-0.7-4-1c0-0.9-0.7-1.7-1.7-1.7c-1,0-1,0.9-1.9,0.6c-0.8-0.3-1.5-0.5-2.3-0.8
		c-1.2-0.4-0.5-0.4-1.3-1.3c-0.5-0.7-1.5-0.9-2.2-0.4c-0.6,0.4-0.9,0.1-1.5-0.2c-0.5-0.2-1.1-0.5-1.6-0.7c-0.6-0.3-0.6-1.2-1.4-1.4
		c-2.4-0.7-2.9,3.3-0.5,3.3c0.9,0,1.2-1.1,1.9-0.8c0.7,0.3,1.4,0.6,2.1,0.9c0.5,0.2,0.2,0.4,0.4,1c0.4,1.1,1.7,1.5,2.6,0.8
		c0.8-0.7,2.5,0.3,3.6,0.7c1.1,0.4,1.5,3.1,3.3,1.5c0.9-0.8,2.8,0.2,4,0.5c1.1,0.3,1.3,3.1,3.2,1.6c0.3-0.2,0.5-0.5,0.6-0.8
		c0.8,0.1,1.5,0.2,2.3,0.3c0.7,0.1,1.5,0.2,2.2,0.2c0.2,0.4,0.6,0.8,1,0.9c1,0.3,1.3-0.8,2.1-0.7c0.5,0,1.1,0,1.6,0
		c0.7,0,1.4,0,2.1,0c0.2,1.1,1.5,1.7,2.5,1c0.6-0.4,0.4-1.1,1.1-1.2c0.8-0.1,1.6-0.1,2.4-0.2c1.1-0.1,0.6,0.5,1.5,1.1
		c0.9,0.6,2.1,0.1,2.5-0.9c0.1-0.2,0.1-0.4,0.1-0.7c0.8-0.1,1.5-0.3,2.3-0.4c0.8-0.2,1.2-0.6,1.5,0.1c0.2,0.4,0.6,0.7,1,0.9
		c1,0.3,2.1-0.5,2.1-1.6c0-1,0.3-0.7,1.3-1.1c0.7-0.3,1.3-0.5,1.9-0.8c0.6,2.7,4.8,0.5,2.7-1.5c0.9-0.6,1.8-1.3,2.7-2.1
		c0.7,0.7,1.9,0.6,2.5-0.2c0.5-0.7,0.3-1.7-0.4-2.3c0.7-1,1.2-2,1.6-3.1c1.8,0.2,2.5-2.3,0.8-3.1c0.2-1.3,0.3-2.5,0.3-3.8
		C102.9,39.1,104,38.6,104,37.8"/>
	<path class="st0" d="M28.3,41.6c-0.8,0-1.4,0.6-1.4,1.4c0,0.4,0.2,0.8,0.5,1c-0.3,0.6-0.6,1.1-0.9,1.3c-1.1,0-1.9,1.1-1.6,2.1
		c0.3,1.1,0.4,0.8-0.1,2c-0.5,1.1-1,0.6-1.7,1.5c-0.7,1,0.4,1.6,0.1,2.5c-0.3,0.7-0.5,1.4-0.8,2.1c-0.4,0.9-0.6,0.4-1.3,0.9
		c-1.5,1.1,0.2,2-0.1,2.9c-0.2,0.6-0.4,1.2-0.6,1.8c-0.2,0.6-1.5,0.3-1.9,1.4c-0.4,1,0.8,1.5,0.5,2.3c-0.3,0.7-0.5,1.6-1,1.9
		c-1.1,0-1.9,1.1-1.6,2.2c0.4,1.1,0.6,0.7,0.1,2c-0.1,0.4-0.3,0.7-0.4,1.1c-0.1,0.4-0.3,0-0.5,0.1c-1.4,0-2.2,1.7-1.3,2.7
		c0.6,0.7,0.2,0.9-0.1,1.8c-0.2,0.5-0.4,1.5-0.9,1.4c-1-0.2-1.8,0.7-1.8,1.6c0,0.6,0.4,1.1,0.9,1.4c-0.1,0.4-0.3,0.7-0.4,1.1
		c-0.3,0.6-0.5,1.3-0.8,1.9c-0.9-0.2-1.7,0.1-2,1c-0.4,1.2,1,1.5,0.6,2.4c-0.2,0.4-0.3,0.7-0.5,1.1C8.9,89,9,88.5,8.5,88.7
		c-1.1,0-2,1.2-1.5,2.2c0.5,1.2,0.9,0.6,0.3,1.9c-0.2,0.4-0.3,1.4-0.8,1.3c-1.2-0.2-2.1,1.1-1.7,2.2c0.4,1.1,1.7,1.5,2.6,0.8
		C7.7,96.8,8,96.3,8,95.7c0-0.4-0.5-1-0.4-1.3c0.3-0.7,0.6-1.4,0.9-2.1c0.4-0.9,1.7-0.6,1.7-2c0-0.4-0.5-0.9-0.4-1.2
		c0.1-0.3,0.3-0.7,0.4-1c0.5-1.1,0.5-0.8,1.4-1.5c0.4-0.3,0.6-0.8,0.6-1.3c0-0.3-0.5-1-0.4-1.2c0.3-0.8,0.7-1.6,1-2.4
		c0.4-0.9,1-0.6,1.6-1.3c0.7-1-0.3-1.6,0-2.4c0.3-0.7,0.6-1.4,0.9-2.2c0.4-0.9,1.4-0.7,1.8-1.8c0.3-1-0.5-1.4-0.1-2.3
		c0.3-0.6,0.5-1.2,0.8-1.9c1,0.1,1.8-0.7,1.8-1.6c0-0.5-0.3-1-0.6-1.3c0.2-0.4,0.3-0.8,0.5-1.2c0.4-1,0.3-1,1.1-1.3
		c1-0.3,1.5-1.6,0.8-2.5c-0.5-0.6-0.1-1,0.2-1.8c0.4-1.2,1.1-0.5,1.8-1.5c0.8-1.1-0.6-1.8-0.3-2.4c0.3-0.7,0.5-1.4,0.8-2.1
		c0.4-0.9,0.3-0.4,1.2-0.7c1.3-0.4,1.5-2.2,0.3-3c0.3-0.6,0.5-1.2,0.8-1.8c0.1-0.3,1.3-0.2,1.7-0.8c0.3-0.4,0.4-1,0.2-1.5
		c-0.3-0.9-0.8-0.4-0.3-1.5c0.1-0.2,0.2-0.4,0.3-0.6c0.1,0,0.2,0,0.2,0c0.8,0,1.4-0.6,1.4-1.4C29.7,42.2,29.1,41.6,28.3,41.6z"/>
	<path class="st1" d="M27,39.7c0,0-1-0.4-1.4,0c-0.4,0.4,0.2,1,0.2,1"/>
	<path class="st1" d="M29.8,45.4c0,0,0.9,0.8,1.7,0c0.8-0.8-0.2-1.7-0.2-1.7"/>
	<path class="st0" d="M30.5,47.8c0,0,1.2-0.5,2-1.3c0.8-0.8,1.5-1.8,1.5-1.8l1.3-1.7"/>
	<path class="st0" d="M104,37.8c0-1.3-1.3-1.3-1.5-2.3c-0.3-1.4-0.8-2.9-1.4-4.2c0.7-0.7,0.7-1.9-0.1-2.5c-0.3-0.2-0.7-0.4-1.1-0.3
		c-0.5,0.1-1.2-1.4-1.5-1.9c-0.5-0.6-0.9-1.2-1.5-1.8c0.3-0.4,0.4-0.9,0.2-1.4c-0.3-1-1.4-1.4-2.3-0.9c-1.1-1-2.2-2-3.4-2.9
		c0.5-1.3-0.7-2.7-2.1-2.1c-0.8,0.3-0.9,0.1-1.7-0.4c-0.6-0.4-1.2-0.7-1.8-1c0.4-1.1-0.3-2.2-1.5-2.2c-1.2,0-1,1-2.1,0.5
		c-0.4-0.2-1.9-0.5-1.9-1c0.1-0.9-0.8-1.8-1.6-1.8c-0.5,0-0.9,0.2-1.2,0.6c-0.5,0.6-0.9,0.2-1.7,0.1c-1.1-0.2-3.4-0.2-3.7-1.1
		c-0.5-1.2-2.2-1.4-2.9-0.3c-0.5,0.8-0.8,0.5-1.7,0.5c-0.8,0-1.5,0-2.3,0.1c-1.2,0.1-0.5-0.2-1.3-0.9c-0.4-0.3-1-0.4-1.5-0.3
		c-1.1,0.4-0.7,1.5-1.7,1.7c-0.6,0.1-1.2,0.2-1.8,0.4c-0.9,0.2-1.3,0.6-2,0c-0.9-0.7-2.2-0.3-2.6,0.8c-0.3,0.9-0.2,0.8-1.3,1.3
		c-0.3,0.2-0.7,0.3-1,0.5c-0.4,0.2-1.1-0.5-1.8-0.3c-0.9,0.3-1.2,1.1-1.1,1.9c-0.6,0.3-1.1,0.7-1.6,1.1c-0.8,0.5-0.7,0.8-1.5,0.4
		c-1.1-0.4-2.2,0.4-2.2,1.5c0,0.3,0.4,0.7,0.2,0.9c-0.3,0.3-0.7,0.6-1,1c-0.6,0.5-0.9,1.2-1.5,0.8c-0.9-0.6-2.1-0.1-2.4,0.9
		c-0.3,0.9,0.8,1.5,0.3,2.1c-0.5,0.6-1.1,1.3-1.6,1.9c-0.3,0.3-1.4,0-1.9,0.7c-0.6,0.8,0.2,1.5-0.2,2.1c-0.4,0.6-0.9,1.3-1.3,1.9
		c-0.4,0.6-1.4,0.2-1.9,0.9c-0.7,0.9,0.3,1.6-0.1,2.3c-0.4,0.6-0.7,1.2-1.1,1.8c-0.2,0.4-0.9,0.3-1.4,0.7c-0.1,0.1,0.7,0.4,1.2,1
		c0.7,0.6,1.3,1.1,1.3,1.1c0.1-0.1,0.1-0.3,0.2-0.4c0.3-1-0.8-1.5-0.4-2.2c0.3-0.6,0.7-1.2,1-1.7c1.1,0.3,2.2-0.3,2.2-1.5
		c0-0.4-0.6-1.1-0.4-1.3c0.2-0.3,0.4-0.6,0.6-0.9c0.4-0.5,0.6-1.4,1.3-1.2c1,0.3,2-0.6,2-1.6c0-0.4-0.5-1-0.4-1.2
		c0.3-0.4,0.6-0.7,0.9-1.1c0.4-0.5,0.7-0.9,1.2-1.2c0.9,0,1.8-0.8,1.6-1.8c-0.1-0.7,1.9-2.1,2.4-2.5c0.9,0.5,2,0.1,2.4-0.9
		c0.1-0.4,0.1-0.6,0-1c0.6-0.5,1.3-0.9,1.9-1.4c1.1-0.8,0.7,0.1,1.8,0.1c0.5,0,1-0.3,1.3-0.7c0.7-1-0.1-1.2,1-1.8
		c0.8-0.3,1.2-0.8,1.9-0.3c0.9,0.6,2.2,0.2,2.5-0.8c0.3-1,2-1,3.1-1.2c0.3-0.1,0.7-0.1,1-0.2c0.3,0.5,0.8,0.8,1.4,0.8
		c0.5,0,1-0.3,1.3-0.7c0.5-0.7,0.9-0.5,1.7-0.6c0.8,0,1.5,0,2.3,0c1.2,0,0.6,0.3,1.4,0.8c0.4,0.3,1,0.4,1.5,0.2
		c0.4-0.2,0.7-0.4,0.8-0.8c0.5,0.1,1,0.1,1.5,0.2c1.1,0.2,3.3,0.2,3.8,1.2c0.4,0.9,1.5,1.3,2.4,0.7c0.6-0.4,1-0.1,1.7,0.2
		c0.3,0.1,0.7,0.3,1,0.4c0.6,0.2,0.3,0.6,0.7,1.1c0.9,1.2,2,0.1,2.9,0.6c0.6,0.3,1.2,0.7,1.8,1.1c1.2,0.8,0.2,0.2,0.5,0.9
		c0,1.1,1.1,2,2.2,1.6c1.1-0.4,2.9,1.7,3.7,2.6c-0.5,0.9-0.2,2.1,0.9,2.4c0.5,0.2,0.8,0.1,1.3-0.1c0.5,0.6,0.9,1.2,1.4,1.8
		c0.4,0.6,0.8,1.2,1.2,1.8c-0.4,0.4-0.6,1.1-0.4,1.7c0.4,1.3,1.8,0.7,2.2,1.7c0.5,1.3,0.9,2.6,1.2,3.9c-1,0.4-1.4,1.7-0.7,2.5
		c0.2,0.3,0.8,0.4,0.9,0.7c0,0.7,0,1.5-0.1,2.2c-0.1,0.8,0.1,1.3-0.7,1.6c-0.6,0.3-1,0.8-1,1.5c0,0.5,0.3,1,0.7,1.3
		c-0.2,0.7-0.5,1.3-0.9,1.9c-0.2,0.4-0.5,1-0.9,1.2c-0.5,0-1,0.3-1.3,0.7c-0.2,0.3-0.4,0.7-0.3,1.1c0.1,0.5-0.5,0.8-0.9,1.1
		c-1,0.8-1.7,1.2-2.9,1.6c-0.5,0.1-0.8,0.5-1,0.9c-0.6,0.3-1.3,0.6-1.9,0.9c-0.7,0.3-1.4,0.5-2.1,0.8c-0.4-0.3-0.9-0.4-1.4-0.3
		c-0.5,0.1-0.8,0.5-1,0.9c-0.6,0.2-1.3,0.3-1.9,0.4c-0.7,0.1-1.4,0.3-2.1,0.4c-0.4-0.5-1.1-0.8-1.8-0.6c-0.8,0.3-0.7,1-1.6,1
		c-0.8,0.1-1.6,0.1-2.3,0.2c-1,0.1-0.7-0.1-1.5-0.6c-0.4-0.3-0.9-0.4-1.4-0.2c-0.4,0.1-0.9,1-1.2,1c-1.2,0-2.3,0-3.5,0
		c0-1.1-1.1-1.9-2.1-1.6c-0.4,0.1-0.8,0.5-1,0.9c-0.4,0.8-1.4,0.3-2.3,0.2c-0.7-0.1-1.5-0.2-2.2-0.3c-0.1-0.5-0.5-1-1-1.2
		c-1-0.4-1.4,0.7-2.1,0.6c-1.3-0.3-2.7-0.7-4-1c0-0.9-0.7-1.7-1.7-1.7c-1,0-1,0.9-1.9,0.6c-0.8-0.3-1.5-0.5-2.3-0.8
		c-1.2-0.4-0.5-0.4-1.3-1.3c-0.5-0.7-1.5-0.9-2.2-0.4c-0.6,0.4-0.9,0.1-1.5-0.2c-0.5-0.2-1.1-0.5-1.6-0.7c-0.6-0.3-0.6-1.2-1.4-1.4
		c-2.4-0.7-2.9,3.3-0.5,3.3c0.9,0,1.2-1.1,1.9-0.8c0.7,0.3,1.4,0.6,2.1,0.9c0.5,0.2,0.2,0.4,0.4,1c0.4,1.1,1.7,1.5,2.6,0.8
		c0.8-0.7,2.5,0.3,3.6,0.7c1.1,0.4,1.5,3.1,3.3,1.5c0.9-0.8,2.8,0.2,4,0.5c1.1,0.3,1.3,3.1,3.2,1.6c0.3-0.2,0.5-0.5,0.6-0.8
		c0.8,0.1,1.5,0.2,2.3,0.3c0.7,0.1,1.5,0.2,2.2,0.2c0.2,0.4,0.6,0.8,1,0.9c1,0.3,1.3-0.8,2.1-0.7c0.5,0,1.1,0,1.6,0
		c0.7,0,1.4,0,2.1,0c0.2,1.1,1.5,1.7,2.5,1c0.6-0.4,0.4-1.1,1.1-1.2c0.8-0.1,1.6-0.1,2.4-0.2c1.1-0.1,0.6,0.5,1.5,1.1
		c0.9,0.6,2.1,0.1,2.5-0.9c0.1-0.2,0.1-0.4,0.1-0.7c0.8-0.1,1.5-0.3,2.3-0.4c0.8-0.2,1.2-0.6,1.5,0.1c0.2,0.4,0.6,0.7,1,0.9
		c1,0.3,2.1-0.5,2.1-1.6c0-1,0.3-0.7,1.3-1.1c0.7-0.3,1.3-0.5,1.9-0.8c0.6,2.7,4.8,0.5,2.7-1.5c0.9-0.6,1.8-1.3,2.7-2.1
		c0.7,0.7,1.9,0.6,2.5-0.2c0.5-0.7,0.3-1.7-0.4-2.3c0.7-1,1.2-2,1.6-3.1c1.8,0.2,2.5-2.3,0.8-3.1c0.2-1.3,0.3-2.5,0.3-3.8
		C102.9,39.1,104,38.6,104,37.8"/>
</g>
</svg>
