<?xml version="1.0" encoding="utf-8"?>
<!-- Generator: Adobe Illustrator 21.1.0, SVG Export Plug-In . SVG Version: 6.00 Build 0)  -->
<svg version="1.1" id="Layer_1" xmlns="http://www.w3.org/2000/svg" xmlns:xlink="http://www.w3.org/1999/xlink" x="0px" y="0px"
	 width="108px" height="108px" viewBox="0 0 108 108" style="enable-background:new 0 0 108 108;" xml:space="preserve">
<style type="text/css">
	.st0{fill:#FFFFFF;stroke:#000000;stroke-width:0.5;stroke-linecap:round;stroke-linejoin:round;stroke-miterlimit:10;}
	.st1{fill:#F2F2F2;stroke:#000000;stroke-width:0.5;stroke-linecap:round;stroke-linejoin:round;stroke-miterlimit:10;}
	.st2{fill:#E6E6E6;stroke:#000000;stroke-width:0.5;stroke-linecap:round;stroke-linejoin:round;stroke-miterlimit:10;}
	.st3{fill:#CCCCCC;stroke:#000000;stroke-width:0.5;stroke-linecap:round;stroke-linejoin:round;stroke-miterlimit:10;}
	.st4{fill:#B3B3B3;stroke:#000000;stroke-width:0.5;stroke-linecap:round;stroke-linejoin:round;stroke-miterlimit:10;}
	.st5{fill:#999999;stroke:#000000;stroke-width:0.5;stroke-linecap:round;stroke-linejoin:round;stroke-miterlimit:10;}
	.st6{fill:#808080;stroke:#000000;stroke-width:0.5;stroke-linecap:round;stroke-linejoin:round;stroke-miterlimit:10;}
	.st7{fill:none;stroke:#000000;stroke-width:0.75;stroke-linecap:round;stroke-linejoin:round;}
</style>
<g>
	<g>
		<line class="st0" x1="97.3" y1="22" x2="97.2" y2="21.9"/>
		<line class="st0" x1="80.1" y1="18.5" x2="79.4" y2="18.9"/>
		<path class="st1" d="M81.8,72.9c-0.5,2-2.5,8.8-5.5,5.6c-0.2-0.2-0.4-0.4-0.6-0.7l-1.2-1.6L72.2,73c0,0,0,0,0,0
			c2.1,2.5,3.8-2,4.2-3.5c1.4-5.4,1.5-11.4,1-16.9c-0.2-3-0.6-6-1.2-8.9c-0.6-2.5-1.3-5.1-2.9-7.1c-0.9-0.8-1.9-0.8-2.6,0.2
			c0,0,0,0,0,0l2-3.4l0,0l1-1.7c1-1.4,2.2-2.4,3.7-1c1.5,1.3,2.3,3.7,2.9,5.6c2.5,7.8,3,16.4,2.9,24.5C83.1,64.7,82.8,69,81.8,72.9z
			"/>
		<line class="st0" x1="70.7" y1="36.7" x2="70.7" y2="36.7"/>
		<line class="st0" x1="72.2" y1="73" x2="72.2" y2="72.9"/>
		<path class="st0" d="M72.3,73C72.3,73,72.3,73,72.3,73"/>
		<path class="st2" d="M76.4,69.4c-0.4,1.5-2,6.1-4.2,3.5c0,0,0,0,0,0c-0.1,0-0.1,0-0.2,0l-2.5,0.1l0,0c1.5-0.1,2.4-3.3,2.7-4.4
			c0.8-3.2,1.1-6.6,1.1-9.9c0-3.8-0.2-7.7-0.8-11.5c-0.5-3-1-6.7-2.8-9.2c-0.6-0.8-1.1-1.1-1.6-1.1l0-0.1l2.4-0.1c0.1,0,0.1,0,0.2,0
			l0,0c0,0,0,0,0,0c0.7-1,1.7-1,2.6-0.2c1.6,2.1,2.3,4.6,2.9,7.1c0.6,2.9,1,5.9,1.2,8.9C77.9,58,77.9,64,76.4,69.4z"/>
		<path class="st0" d="M70.8,36.6C70.8,36.6,70.8,36.6,70.8,36.6"/>
		<line class="st0" x1="68.2" y1="36.8" x2="68.1" y2="36.8"/>
		<path class="st3" d="M70.8,45.6c-0.3-1.1-1-4-2.6-4.1l-3.1,0.1l-1.5,0.1c0.3,0.7,0.4,1.5,0.4,2c-0.7,0-4.5-0.6-4.1-1.7l0-0.1
			c0,0,0.1-0.1,0.1-0.1L58.9,42c0,0.2,0.1,0.3,0.1,0.5l0,0c1.2,1.3,1.6,3.2,2,4.8c0.8,3.4,1.1,7,1.1,10.5c0,2.1-0.1,4.1-0.5,6.2
			c-0.2,1.4-0.6,3.1-1.5,4.2c0,0.2,0,0.3-0.1,0.5l2.4-0.1c0.3,0,0.6,0,0.9,0l0,0l2.9-0.1l3.1-0.1c1.3-0.3,1.8-2.2,2-3.3
			c0.5-2.2,0.8-4.5,0.8-6.7C72.2,54,72,49.7,70.8,45.6z M65.9,62.1c-4.1,0.1-3.6-7.1,0.2-7.2C66.5,57.1,66.9,59.9,65.9,62.1z"/>
		<path class="st4" d="M65.9,62.1c-4.1,0.1-3.6-7.1,0.2-7.2C66.5,57.1,66.9,59.9,65.9,62.1z"/>
		<line class="st0" x1="63.7" y1="41.8" x2="63.6" y2="41.8"/>
		<path class="st0" d="M79.1,15.7c-0.5,1.4-0.8,2.8-1.2,4.2"/>
		<path class="st0" d="M74,27.8c-0.1,0.4-0.2,0.8-0.3,1.2"/>
		<path class="st0" d="M75.9,80.5c0.4,1.2,0.8,2.3,1.3,3.5"/>
		<path class="st0" d="M70.8,36.7C70.8,36.7,70.8,36.7,70.8,36.7"/>
		<path class="st1" d="M103.5,80.4c-0.5,4.9-1.4,9.8-2.9,14.5c-1,3-3.5,10.4-8,8.6l-2.5-1l0,0c-5.1-1.8-7.9-8.8-9.2-13.5
			c0.7,2.4,1.7,4.9,3,7.1c1.1,1.9,2.9,4.6,5.3,4.4c2.5-0.2,3.9-3.1,4.8-5c1-2.3,1.8-4.8,2.3-7.2c1.2-5.2,1.8-10.5,2.2-15.8
			c0.4-5.5,0.5-11,0.3-16.5c-0.2-5.3-0.5-10.6-1.2-15.9c-0.1-0.7-0.2-1.4-0.3-2c0.5-1,1.6-1.8,2.6-2.1c0.9-0.3,1.7-0.7,2.6-1
			c0.8,5.5,1.3,11,1.6,16.5C104.7,61.2,104.5,70.8,103.5,80.4z"/>
		<path class="st2" d="M103.8,28.7l-5.5,0.2c0.3-1.5,0.2-3.2,0-4.7c-0.1-0.3-0.4-2.3-1-2.3l0,0l2.9-0.1l2.6-0.1c0.8,0.2,1,2,1.1,2.6
			C104,25.7,104,27.3,103.8,28.7z"/>
		<path class="st1" d="M98.3,28.9l-0.2,1.3c0.3,2.7,0,5.2-0.7,7.9c-0.5-4.6-1.2-9.3-2.5-13.8c0.7-0.4,1.8-1.1,1.7-2l0.4-0.3
			c0.1-0.1,0.1-0.1,0.2-0.1c0.6,0,0.9,2,1,2.3C98.5,25.8,98.7,27.5,98.3,28.9z"/>
		<path class="st0" d="M98.5,72.5c-0.4,5.3-1,10.6-2.2,15.8c-0.6,2.4-1.3,4.9-2.3,7.2c-0.9,2-2.4,4.8-4.8,5
			c-2.5,0.2-4.3-2.5-5.3-4.4c-1.3-2.2-2.2-4.7-3-7.1c0.2,0.1,0.3,0.2,0.5,0.3l1,0.5l0,0c0.3,0.4,0.8,0.8,1.2,1.1
			c4.8,3.3,7.2-7.6,7.8-10.3c1.1-5.2,1.5-10.6,1.7-15.9c0.2-5.5,0.1-11-0.4-16.5c-0.4-5.4-1.1-10.8-2.3-16c-0.6-2.6-1.2-5.2-2.1-7.6
			c-0.8-2.3-1.8-4.7-3.6-6.5c-2-2-3.8-1.2-5.4,0.7l0,0l-0.9,0.6c-0.2,0.1-0.3,0.2-0.5,0.3c0.4-1.3,0.7-2.8,1.2-4.2
			c0.4-1.1,0.8-2.2,1.3-3.2c0.9-1.8,2.1-4.1,4.2-4.6c2.3-0.6,4.1,1.7,5.2,3.4c2.6,3.9,3.9,8.7,5,13.2c1.1,4.6,1.8,9.1,2.5,13.8
			c0.1,0.7,0.2,1.4,0.3,2c0.7,5.3,1,10.6,1.2,15.9C99,61.6,98.9,67.1,98.5,72.5z"/>
		<path class="st0" d="M100.1,21.8L100.1,21.8L97.3,22l0,0c-0.1,0-0.1,0-0.2,0.1l-0.4,0.3c0.1,0.9-1.1,1.6-1.7,2
			c-1.1-4.5-2.5-9.2-5-13.2c-1.1-1.7-2.9-3.9-5.2-3.4c-2.1,0.5-3.4,2.8-4.2,4.6c-0.5,1-0.9,2.1-1.3,3.2c1.2-4.1,3.1-8.2,6.9-10l0,0
			l2.4-1.2c1.4-0.6,2.7-0.3,3.9,0.6c2.4,1.8,3.7,4.9,4.9,7.6C98.5,15.6,99.4,18.7,100.1,21.8z"/>
		<path class="st3" d="M103.8,28.7l-1.1,6.3c-0.9,0.3-1.8,0.7-2.6,1c-1,0.4-2.1,1.2-2.6,2.1c0.7-2.6,1-5.2,0.7-7.9l0.2-1.3
			L103.8,28.7z"/>
		<line class="st0" x1="81.4" y1="89.4" x2="81.4" y2="89.4"/>
		<line class="st0" x1="78.5" y1="19.6" x2="78.5" y2="19.6"/>
		<path class="st1" d="M93.2,64.9c-0.2,5.3-0.6,10.7-1.7,15.9c-0.6,2.8-3,13.7-7.8,10.3c-0.4-0.3-0.9-0.7-1.2-1.1l0,0l-1-0.5
			c-0.2-0.1-0.4-0.2-0.5-0.3c-0.3-0.2-0.6-0.5-0.9-0.8c-1-1.2-1.8-2.4-2.5-3.9c0,0,0-0.1,0-0.1c0.6,1.2,1.3,2.4,2.2,3.4
			c5,5,7.7-7.4,8.3-10.4c1.1-5.9,1.4-12,1.4-18c0-6-0.4-12-1.2-17.9c-0.8-5.6-1.8-11.4-4.2-16.6c-0.9-1.9-2.8-5.9-5.5-4.8
			c-2.4,0.9-3.4,4.5-4.1,6.7c-0.1,0.3-0.2,0.6-0.2,0.8c0.7-2.8,1.7-6.1,3.9-7.8l0,0c0.2-0.1,0.3-0.2,0.5-0.3l0.9-0.6l0,0
			c1.6-1.9,3.4-2.7,5.4-0.7c1.7,1.8,2.7,4.2,3.6,6.5c0.9,2.5,1.6,5.1,2.1,7.6c1.2,5.3,1.9,10.6,2.3,16
			C93.2,53.8,93.4,59.4,93.2,64.9z"/>
		<path class="st0" d="M87.9,77.4c-0.5,3-3.2,15.3-8.3,10.4c-0.9-1-1.6-2.2-2.2-3.4c-0.1-0.1-0.1-0.3-0.2-0.4
			c-0.5-1.1-0.8-2.3-1.3-3.5l-0.1-0.3l-1.3-4l1.2,1.6c0.2,0.3,0.4,0.5,0.6,0.7c3.1,3.2,5-3.5,5.5-5.6c1-4,1.3-8.2,1.4-12.3
			c0.1-8.2-0.4-16.7-2.9-24.5c-0.6-1.9-1.4-4.2-2.9-5.6c-1.5-1.3-2.7-0.3-3.7,1l-1,1.7l0.9-4.1l0.1-0.3c0.1-0.4,0.2-0.8,0.3-1.2
			c0,0,0,0,0-0.1c0.1-0.3,0.2-0.6,0.2-0.8c0.7-2.2,1.7-5.8,4.1-6.7c2.7-1.1,4.6,2.9,5.5,4.8c2.4,5.2,3.4,11,4.2,16.6
			c0.8,5.9,1.2,11.9,1.2,17.9C89.3,65.4,89,71.5,87.9,77.4z"/>
		<path class="st4" d="M72.3,68.6c-0.3,1.2-1.3,4.3-2.7,4.4c-0.4,0-0.8-0.1-1.3-0.6c-1-1.1-1.5-2.6-2-4l0,0l3.1-0.1
			c1.3-0.3,1.8-2.2,2-3.3c0.5-2.2,0.8-4.5,0.8-6.7c0-4.2-0.2-8.6-1.3-12.7c-0.3-1.1-1-4-2.6-4.1l-3.1,0.1c0.2-1.6,1.4-4.8,3-4.8
			c0.5,0,1,0.3,1.6,1.1c1.8,2.5,2.4,6.2,2.8,9.2c0.6,3.8,0.8,7.6,0.8,11.5C73.4,62,73.1,65.4,72.3,68.6z"/>
		<path class="st4" d="M64.1,43.7c-0.7,0-4.5-0.6-4.1-1.7l0-0.1c0,0,0.1-0.1,0.1-0.1l0,0c0.8-0.6,1.8-1.1,2.8-1
			c0.4,0.1,0.6,0.4,0.8,0.9C63.9,42.4,64,43.3,64.1,43.7z"/>
		<path class="st4" d="M63.4,68.5c-0.1,0.4-0.3,0.8-0.7,0.9l0,0c-0.9,0.1-1.9-0.2-2.7-0.7c0,0,0-0.1,0-0.1l2.4-0.1
			C62.8,68.6,63.1,68.6,63.4,68.5L63.4,68.5z"/>
	</g>
	<g>
		<g>
			
				<ellipse transform="matrix(0.9987 -5.031842e-02 5.031842e-02 0.9987 -2.7364 2.9519)" class="st0" cx="57.3" cy="55.8" rx="3" ry="11.1"/>
			
				<ellipse transform="matrix(0.9987 -5.031842e-02 5.031842e-02 0.9987 -2.7117 3.0139)" class="st2" cx="58.5" cy="55.4" rx="3.6" ry="13.7"/>
			
				<ellipse transform="matrix(0.9987 -5.031842e-02 5.031842e-02 0.9987 -2.7364 2.9519)" class="st1" cx="57.3" cy="55.8" rx="3" ry="11.1"/>
		</g>
		<g>
			<path class="st3" d="M54.2,56.4c0.1,1.6,0.9,2.7,1.8,2.5c0.9-0.2,1.5-1.7,1.4-3.2c-0.1-1.6-0.9-2.7-1.8-2.5
				C54.7,53.3,54.1,54.8,54.2,56.4z"/>
			<path class="st3" d="M52.9,56.4c0.1,1.6,0.9,2.7,1.8,2.5c0.9-0.2,1.5-1.7,1.4-3.2c-0.1-1.6-0.9-2.7-1.8-2.5
				C53.4,53.4,52.8,54.9,52.9,56.4z"/>
			<path class="st3" d="M51.5,56.5c0.1,1.6,0.9,2.7,1.8,2.5c0.9-0.2,1.5-1.7,1.4-3.2c-0.1-1.6-0.9-2.7-1.8-2.5
				C52,53.5,51.4,54.9,51.5,56.5z"/>
			<path class="st3" d="M50.1,56.6c0.1,1.6,0.9,2.7,1.8,2.5c0.9-0.2,1.5-1.7,1.4-3.2c-0.1-1.6-0.9-2.7-1.8-2.5
				C50.6,53.5,50,55,50.1,56.6z"/>
			<path class="st3" d="M48.8,56.6c0.1,1.6,0.9,2.7,1.8,2.5c0.9-0.2,1.5-1.7,1.4-3.2c-0.1-1.6-0.9-2.7-1.8-2.5
				C49.3,53.6,48.6,55,48.8,56.6z"/>
			<path class="st3" d="M47.4,56.7c0.1,1.6,0.9,2.7,1.8,2.5c0.9-0.2,1.5-1.7,1.4-3.2c-0.1-1.6-0.9-2.7-1.8-2.5
				C47.9,53.7,47.3,55.1,47.4,56.7z"/>
			<path class="st3" d="M46,56.7c0.1,1.6,0.9,2.7,1.8,2.5c0.9-0.2,1.5-1.7,1.4-3.2c-0.1-1.6-0.9-2.7-1.8-2.5
				C46.5,53.7,45.9,55.2,46,56.7z"/>
			<path class="st3" d="M44.7,56.8c0.1,1.6,0.9,2.7,1.8,2.5c0.9-0.2,1.5-1.7,1.4-3.2c-0.1-1.6-0.9-2.7-1.8-2.5
				C45.2,53.8,44.5,55.2,44.7,56.8z"/>
			<path class="st3" d="M43.3,56.7c-0.1,1.6,0.6,2.9,1.5,2.8c0.9-0.1,1.7-1.5,1.7-3.1c0.1-1.6-0.6-2.9-1.5-2.8
				C44.1,53.7,43.3,55.1,43.3,56.7z"/>
		</g>
	</g>
	<g>
		<g>
			<path class="st5" d="M21,65.6c2.1-0.5,4.9-3.4,4.9-8.7c0-5.2-2.8-8.1-4.8-8.7L21,65.6z"/>
			<path class="st1" d="M15.1,56.9c0,4.8,0.3,7,2.6,7c0.2,0,3,1.8,3.2,1.8c2.1-0.5,3.7-4.2,3.7-8.7c0-4.4-1.6-8.1-3.6-8.7
				c-0.2-0.1-3.1,1.7-3.3,1.7C15.4,50,15.1,52.1,15.1,56.9z"/>
		</g>
		<g>
			<ellipse class="st0" cx="12.9" cy="56.9" rx="4.2" ry="10.6"/>
			<path class="st0" d="M10.1,57.2c0,3.7,0.2,6.7,1.6,6.7c0.1,0,1.2,0,1.3-0.1c1.3-0.4,2.3-3.2,2.3-6.6c0-3.4-1-6.1-2.3-6.6
				c-0.1,0-1.3-0.1-1.4-0.1C10.3,50.5,10.1,53.5,10.1,57.2z"/>
			<path class="st2" d="M5.7,57.2c0,7.9,0.4,14.4,3.5,14.4c0.2,0,2.7,0,2.9-0.1c2.8-0.9,5-6.9,5-14.2c0-7.2-2.1-13.2-4.9-14.2
				c-0.3-0.1-2.7-0.1-3-0.1C6.1,42.8,5.7,49.2,5.7,57.2z"/>
			<ellipse class="st1" cx="9.2" cy="57.2" rx="5.7" ry="14.4"/>
			<ellipse class="st3" cx="9.2" cy="57.2" rx="2.7" ry="6.7"/>
			<g>
				<path class="st6" d="M9,57.2c0-2.6,0.6-4.8,1.4-6c0.8,1.1,1.4,3.4,1.4,6c0,2.6-0.6,4.8-1.4,6C9.5,62,9,59.7,9,57.2z"/>
			</g>
		</g>
	</g>
	<g>
		<g>
			<line class="st7" x1="28.7" y1="56.5" x2="37.1" y2="56.5"/>
			<g>
				<path d="M40.3,56.5c-1.5,0.6-3.3,1.5-4.5,2.5l0.9-2.5L35.8,54C36.9,55,38.8,56,40.3,56.5z"/>
			</g>
		</g>
	</g>
</g>
</svg>
