<?xml version="1.0" encoding="utf-8"?>
<!-- Generator: Adobe Illustrator 21.1.0, SVG Export Plug-In . SVG Version: 6.00 Build 0)  -->
<svg version="1.1" id="Layer_1" xmlns="http://www.w3.org/2000/svg" xmlns:xlink="http://www.w3.org/1999/xlink" x="0px" y="0px"
	 width="108px" height="108px" viewBox="0 0 108 108" style="enable-background:new 0 0 108 108;" xml:space="preserve">
<style type="text/css">
	.st0{fill:#FFFFFF;stroke:#000000;stroke-width:0.75;stroke-miterlimit:10;}
	.st1{fill:#F2F2F2;stroke:#000000;stroke-width:0.75;stroke-miterlimit:10;}
	.st2{fill:#E6E6E6;stroke:#000000;stroke-width:0.75;stroke-miterlimit:10;}
	.st3{fill:#CCCCCC;stroke:#000000;stroke-width:0.75;stroke-miterlimit:10;}
</style>
<g>
	<ellipse class="st0" cx="71.5" cy="54" rx="16.9" ry="46.9"/>
	<ellipse class="st1" cx="67.1" cy="54" rx="15.9" ry="44.4"/>
	<ellipse class="st2" cx="62.9" cy="54" rx="12.8" ry="36.9"/>
	<ellipse class="st2" cx="59.9" cy="54" rx="12.7" ry="35.8"/>
	<path class="st1" d="M58.4,54.6c0,11.8-3.7,21.3-8.3,21.3h-5.9c1,0,2-0.5,2.9-1.4c3.1-3,5.4-10.8,5.4-19.9c0-9.1-2.2-16.9-5.4-19.9
		c-0.9-0.9-1.9-1.4-2.9-1.4h5.9C54.7,33.3,58.4,42.8,58.4,54.6z"/>
	<path class="st0" d="M52.5,54.6c0,9.1-2.2,16.9-5.4,19.9c-3.1-3-5.3-10.8-5.3-19.9c0-9.1,2.2-16.9,5.3-19.9
		C50.3,37.7,52.5,45.5,52.5,54.6z"/>
	<path class="st2" d="M52.5,54.6c0,9.1-2.2,16.9-5.4,19.9c-0.9,0.9-1.9,1.4-2.9,1.4c-4.6,0-8.3-9.5-8.3-21.3
		c0-11.8,3.7-21.3,8.3-21.3c1,0,2,0.5,2.9,1.4C50.3,37.7,52.5,45.5,52.5,54.6z"/>
	<path class="st3" d="M47.4,54.6c0,4.5-1.5,8.2-3.4,8.2c-0.1,0-0.1,0-0.2,0h-8.7V46.4H44C45.9,46.4,47.4,50.1,47.4,54.6z"/>
	<ellipse class="st2" cx="30" cy="54.4" rx="9.8" ry="16.7"/>
	<ellipse class="st1" cx="26.3" cy="54" rx="5.7" ry="13.9"/>
	<ellipse class="st0" cx="22.8" cy="54.4" rx="3.3" ry="8.1"/>
</g>
</svg>
