<?xml version="1.0" encoding="utf-8"?>
<!-- Generator: Adobe Illustrator 21.1.0, SVG Export Plug-In . SVG Version: 6.00 Build 0)  -->
<svg version="1.1" id="Layer_1" xmlns="http://www.w3.org/2000/svg" xmlns:xlink="http://www.w3.org/1999/xlink" x="0px" y="0px"
	 width="108px" height="108px" viewBox="0 0 108 108" style="enable-background:new 0 0 108 108;" xml:space="preserve">
<style type="text/css">
	.st0{fill:none;stroke:#000000;stroke-width:0.5;stroke-linecap:round;stroke-linejoin:round;stroke-miterlimit:10;}
	.st1{fill:#F2F2F2;stroke:#000000;stroke-width:0.5;stroke-linecap:round;stroke-linejoin:round;stroke-miterlimit:10;}
	.st2{fill:#FFFFFF;stroke:#000000;stroke-width:0.5;stroke-linecap:round;stroke-linejoin:round;stroke-miterlimit:10;}
	.st3{fill:#E6E6E6;stroke:#000000;stroke-width:0.5;stroke-linecap:round;stroke-linejoin:round;stroke-miterlimit:10;}
	.st4{fill:#CCCCCC;stroke:#000000;stroke-width:0.5;stroke-linecap:round;stroke-linejoin:round;stroke-miterlimit:10;}
	.st5{fill:#B3B3B3;stroke:#000000;stroke-width:0.5;stroke-linecap:round;stroke-linejoin:round;stroke-miterlimit:10;}
</style>
<g>
	<g>
		<line class="st0" x1="77.5" y1="23.3" x2="77.4" y2="23.2"/>
		<line class="st0" x1="60.9" y1="19.9" x2="60.3" y2="20.3"/>
		<path class="st1" d="M62.6,72.2c-0.5,1.9-2.4,8.5-5.3,5.4c-0.2-0.2-0.4-0.4-0.6-0.7l-1.2-1.5l-2.2-3.1l0,0c2,2.4,3.7-1.9,4-3.4
			c1.3-5.2,1.4-11,1-16.3c-0.2-2.9-0.6-5.8-1.2-8.6c-0.6-2.4-1.3-4.9-2.8-6.8c-0.9-0.8-1.8-0.8-2.5,0.2l0,0l1.9-3.3l0,0l1-1.6
			c1-1.3,2.1-2.3,3.6-1c1.4,1.3,2.2,3.6,2.8,5.4c2.4,7.5,2.9,15.8,2.8,23.6C63.8,64.4,63.5,68.5,62.6,72.2z"/>
		<line class="st0" x1="51.9" y1="37.4" x2="51.9" y2="37.4"/>
		<line class="st0" x1="53.3" y1="72.3" x2="53.3" y2="72.2"/>
		<path class="st2" d="M53.4,72.3L53.4,72.3"/>
		<path class="st3" d="M57.4,68.9c-0.4,1.4-1.9,5.9-4,3.4l0,0c-0.1,0-0.1,0-0.2,0l-2.4,0.1l0,0c1.4-0.1,2.3-3.2,2.6-4.2
			c0.8-3.1,1.1-6.3,1.1-9.5c0-3.7-0.2-7.4-0.8-11.1c-0.5-2.9-1-6.4-2.7-8.9c-0.6-0.8-1.1-1.1-1.5-1.1v-0.1l2.3-0.1
			c0.1,0,0.1,0,0.2,0l0,0l0,0c0.7-1,1.6-1,2.5-0.2c1.5,2,2.2,4.4,2.8,6.8c0.6,2.8,1,5.7,1.2,8.6C58.8,57.9,58.8,63.7,57.4,68.9z"/>
		<path class="st2" d="M52,37.3L52,37.3"/>
		<path class="st2" d="M60,17.2c-0.5,1.3-0.8,2.7-1.2,4"/>
		<path class="st2" d="M55.1,28.9c-0.1,0.4-0.2,0.8-0.3,1.2"/>
		<path class="st2" d="M56.9,79.6c0.4,1.2,0.8,2.2,1.3,3.4"/>
		<path class="st2" d="M52,37.4L52,37.4"/>
		<path class="st1" d="M83.4,79.5c-0.5,4.7-1.3,9.4-2.8,13.9c-1,2.9-3.4,10-7.7,8.3l-2.4-1l0,0c-4.9-1.7-7.6-8.5-8.9-13
			c0.7,2.3,1.6,4.7,2.9,6.8c1.1,1.8,2.8,4.4,5.1,4.2c2.4-0.2,3.8-3,4.6-4.8c1-2.2,1.7-4.6,2.2-6.9c1.2-5,1.7-10.1,2.1-15.2
			c0.4-5.3,0.5-10.6,0.3-15.9c-0.2-5.1-0.5-10.2-1.2-15.3c-0.1-0.7-0.2-1.3-0.3-1.9c0.5-1,1.5-1.7,2.5-2c0.9-0.3,1.6-0.7,2.5-1
			c0.8,5.3,1.3,10.6,1.5,15.9C84.6,61,84.4,70.2,83.4,79.5z"/>
		<path class="st3" d="M83.7,29.7l-5.3,0.2c0.3-1.4,0.2-3.1,0-4.5c-0.1-0.3-0.4-2.2-1-2.2l0,0l2.8-0.1l2.5-0.1
			c0.8,0.2,1,1.9,1.1,2.5C83.9,26.8,83.9,28.4,83.7,29.7z"/>
		<path class="st1" d="M78.4,29.9l-0.2,1.3c0.3,2.6,0,5-0.7,7.6c-0.5-4.4-1.2-8.9-2.4-13.3c0.7-0.4,1.7-1.1,1.6-1.9l0.4-0.3
			c0.1-0.1,0.1-0.1,0.2-0.1c0.6,0,0.9,1.9,1,2.2C78.6,26.9,78.8,28.6,78.4,29.9z"/>
		<path class="st2" d="M78.6,71.9c-0.4,5.1-1,10.2-2.1,15.2c-0.6,2.3-1.3,4.7-2.2,6.9c-0.9,1.9-2.3,4.6-4.6,4.8
			c-2.4,0.2-4.1-2.4-5.1-4.2c-1.3-2.1-2.1-4.5-2.9-6.8c0.2,0.1,0.3,0.2,0.5,0.3l1,0.5l0,0c0.3,0.4,0.8,0.8,1.2,1.1
			c4.6,3.2,6.9-7.3,7.5-9.9c1.1-5,1.4-10.2,1.6-15.3c0.2-5.3,0.1-10.6-0.4-15.9c-0.4-5.2-1.1-10.4-2.2-15.4c-0.6-2.5-1.2-5-2-7.3
			c-0.8-2.2-1.7-4.5-3.5-6.3c-1.9-1.9-3.7-1.2-5.2,0.7l0,0l-0.9,0.6c-0.2,0.1-0.3,0.2-0.5,0.3c0.4-1.3,0.7-2.7,1.2-4
			c0.4-1.1,0.8-2.1,1.3-3.1c0.9-1.7,2-3.9,4-4.4c2.2-0.6,3.9,1.6,5,3.3c2.5,3.8,3.8,8.4,4.8,12.7c1.1,4.4,1.7,8.8,2.4,13.3
			c0.1,0.7,0.2,1.3,0.3,1.9c0.7,5.1,1,10.2,1.2,15.3C79.1,61.4,79,66.7,78.6,71.9z"/>
		<path class="st2" d="M80.2,23.1L80.2,23.1l-2.7,0.2l0,0c-0.1,0-0.1,0-0.2,0.1l-0.4,0.3c0.1,0.9-1.1,1.5-1.6,1.9
			c-1.1-4.3-2.4-8.9-4.8-12.7c-1.1-1.6-2.8-3.8-5-3.3c-2,0.5-3.3,2.7-4,4.4c-0.5,1-0.9,2-1.3,3.1c1.2-3.9,3-7.9,6.6-9.6l0,0l2.3-1.2
			c1.3-0.6,2.6-0.3,3.8,0.6c2.3,1.7,3.6,4.7,4.7,7.3C78.6,17.1,79.5,20.1,80.2,23.1z"/>
		<path class="st4" d="M83.7,29.7l-1.1,6.1c-0.9,0.3-1.7,0.7-2.5,1c-1,0.4-2,1.2-2.5,2c0.7-2.5,1-5,0.7-7.6l0.2-1.3L83.7,29.7z"/>
		<line class="st0" x1="62.2" y1="88.1" x2="62.2" y2="88.1"/>
		<line class="st0" x1="59.4" y1="21" x2="59.4" y2="21"/>
		<path class="st1" d="M73.5,64.6c-0.2,5.1-0.6,10.3-1.6,15.3c-0.6,2.7-2.9,13.2-7.5,9.9c-0.4-0.3-0.9-0.7-1.2-1.1l0,0l-1-0.5
			c-0.2-0.1-0.4-0.2-0.5-0.3c-0.3-0.2-0.6-0.5-0.9-0.8c-1-1.2-1.7-2.3-2.4-3.8v-0.1c0.6,1.2,1.3,2.3,2.1,3.3c4.8,4.8,7.4-7.1,8-10
			C69.7,70.9,70,65,70,59.3S69.6,47.7,68.8,42c-0.8-5.4-1.7-11-4-16c-0.9-1.8-2.7-5.7-5.3-4.6c-2.3,0.9-3.3,4.3-3.9,6.4
			c-0.1,0.3-0.2,0.6-0.2,0.8c0.7-2.7,1.6-5.9,3.8-7.5l0,0c0.2-0.1,0.3-0.2,0.5-0.3l0.9-0.6l0,0c1.5-1.8,3.3-2.6,5.2-0.7
			c1.6,1.7,2.6,4,3.5,6.3c0.9,2.4,1.5,4.9,2,7.3c1.2,5.1,1.8,10.2,2.2,15.4C73.5,53.9,73.7,59.3,73.5,64.6z"/>
		<path class="st2" d="M68.4,76.6c-0.5,2.9-3.1,14.7-8,10c-0.9-1-1.5-2.1-2.1-3.3c-0.1-0.1-0.1-0.3-0.2-0.4
			c-0.5-1.1-0.8-2.2-1.3-3.4l-0.1-0.3l-1.3-3.8l1.2,1.5c0.2,0.3,0.4,0.5,0.6,0.7c3,3.1,4.8-3.4,5.3-5.4c1-3.8,1.3-7.9,1.3-11.8
			c0.1-7.9-0.4-16.1-2.8-23.6c-0.6-1.8-1.3-4-2.8-5.4c-1.4-1.3-2.6-0.3-3.6,1l-1,1.6l0.9-3.9l0.1-0.3c0.1-0.4,0.2-0.8,0.3-1.2
			c0,0,0,0,0-0.1c0.1-0.3,0.2-0.6,0.2-0.8c0.7-2.1,1.6-5.6,3.9-6.4c2.6-1.1,4.4,2.8,5.3,4.6c2.3,5,3.3,10.6,4,16
			c0.8,5.7,1.2,11.4,1.2,17.2C69.8,65,69.5,70.9,68.4,76.6z"/>
		
			<ellipse transform="matrix(0.9996 -2.891782e-02 2.891782e-02 0.9996 -1.5676 1.4667)" class="st5" cx="49.9" cy="54.9" rx="4.5" ry="17.4"/>
	</g>
	<g>
		<path class="st2" d="M48.8,41.3H29.5c0.8,0,1.5,1.8,2,4.7c0.4,2.4,0.6,5.6,0.6,9.1c0,1.6,0,3.2-0.2,4.6c-0.4,5.3-1.3,9.2-2.5,9.2
			h19.3c1.3,0,2.4-5.1,2.6-11.7v0c0-0.7,0-1.4,0-2.1C51.4,47.5,50.2,41.3,48.8,41.3z M42,64.7c-3,0-5.7-1.8-6.9-4.4
			c-0.5-1-0.7-2-0.7-3.2c0-4.1,3.3-7.5,7.4-7.6c0.1,0,0.1,0,0.2,0c4.2,0,7.6,3.4,7.6,7.6S46.2,64.7,42,64.7z"/>
		<path class="st3" d="M32.1,55.1c0,7.6-1.2,13.8-2.6,13.8c-0.7,0-2-0.7-3.3-2.6c0.1-0.2,2.3-3.6,2.3-11.6S26.3,44,26.2,43.8
			c1.2-1.9,2.6-2.6,3.3-2.6C30.9,41.3,32.1,47.5,32.1,55.1z"/>
		<path class="st2" d="M28.5,54.7c0,7.9-2.2,11.4-2.3,11.6h0c-1.3-2.1-2.5-5.6-2.5-11.2s1.2-9.2,2.5-11.2l0,0
			C26.3,44,28.5,46.8,28.5,54.7z"/>
		<path class="st2" d="M26.2,43.8L26.2,43.8L26.2,43.8C26.2,43.8,26.2,43.8,26.2,43.8z"/>
		<path class="st2" d="M26.2,66.3L26.2,66.3C26.2,66.3,26.2,66.3,26.2,66.3L26.2,66.3z"/>
		<path class="st5" d="M49.6,57.1c0,4.2-3.4,7.6-7.6,7.6c-3,0-5.7-1.8-6.9-4.4c4.1-0.1,7.4-3.5,7.4-7.6c0-1.1-0.3-2.2-0.7-3.2
			c0.1,0,0.1,0,0.2,0C46.2,49.6,49.6,53,49.6,57.1z"/>
	</g>
</g>
</svg>
