<?xml version="1.0" encoding="utf-8"?>
<!-- Generator: Adobe Illustrator 21.1.0, SVG Export Plug-In . SVG Version: 6.00 Build 0)  -->
<svg version="1.1" id="Layer_1" xmlns="http://www.w3.org/2000/svg" xmlns:xlink="http://www.w3.org/1999/xlink" x="0px" y="0px"
	 width="108px" height="108px" viewBox="0 0 108 108" style="enable-background:new 0 0 108 108;" xml:space="preserve">
<style type="text/css">
	.st0{fill:#FFFFFF;stroke:#000000;stroke-width:0.5;stroke-linecap:round;stroke-linejoin:round;stroke-miterlimit:10;}
	.st1{fill:#F2F2F2;stroke:#000000;stroke-width:0.5;stroke-linecap:round;stroke-linejoin:round;stroke-miterlimit:10;}
	.st2{fill:#E6E6E6;stroke:#000000;stroke-width:0.5;stroke-linecap:round;stroke-linejoin:round;stroke-miterlimit:10;}
	.st3{fill:#CCCCCC;stroke:#000000;stroke-width:0.5;stroke-linecap:round;stroke-linejoin:round;stroke-miterlimit:10;}
	.st4{fill:#B3B3B3;stroke:#000000;stroke-width:0.5;stroke-linecap:round;stroke-linejoin:round;stroke-miterlimit:10;}
	.st5{fill:#999999;stroke:#000000;stroke-width:0.5;stroke-linecap:round;stroke-linejoin:round;stroke-miterlimit:10;}
	.st6{fill:#808080;stroke:#000000;stroke-width:0.5;stroke-linecap:round;stroke-linejoin:round;stroke-miterlimit:10;}
	.st7{fill:none;stroke:#000000;stroke-width:0.5;stroke-linecap:round;stroke-linejoin:round;stroke-miterlimit:10;}
</style>
<g>
	<line class="st0" x1="87.3" y1="14.6" x2="87.2" y2="14.6"/>
	<line class="st0" x1="74.6" y1="12.4" x2="74.1" y2="12.8"/>
	<path class="st1" d="M76.9,52.3c-0.3,1.5-1.6,6.5-3.9,4.2c-0.2-0.1-0.3-0.3-0.4-0.5l-0.9-1.2l-1.7-2.3c0,0,0,0,0,0
		c1.6,1.8,2.7-1.6,3-2.7c1-4,0.9-8.4,0.4-12.4c-0.2-2.2-0.6-4.4-1.1-6.5c-0.5-1.8-1-3.7-2.3-5.2c-0.7-0.6-1.4-0.6-1.9,0.2
		c0,0,0,0,0,0l1.4-2.5v0l0.7-1.3c0.7-1,1.5-1.8,2.7-0.8c1.1,1,1.8,2.7,2.2,4c2,5.7,2.5,11.9,2.6,17.9C77.7,46.3,77.6,49.4,76.9,52.3
		z"/>
	<line class="st0" x1="68.1" y1="26" x2="68.1" y2="26"/>
	<line class="st0" x1="69.9" y1="52.5" x2="69.9" y2="52.5"/>
	<path class="st0" d="M70,52.6C70,52.6,70,52.5,70,52.6"/>
	<path class="st2" d="M72.9,49.9c-0.3,1.1-1.4,4.5-3,2.7c0,0,0,0,0,0c0,0-0.1,0-0.1,0L68,52.7v0c1.1-0.1,1.7-2.4,1.9-3.3
		c0.5-2.4,0.6-4.9,0.6-7.3c-0.1-2.8-0.3-5.6-0.8-8.4c-0.4-2.2-0.9-4.9-2.3-6.7c-0.4-0.6-0.8-0.8-1.2-0.8l0-0.1L68,26
		c0,0,0.1,0,0.1,0v0c0,0,0,0,0,0c0.5-0.8,1.2-0.7,1.9-0.2c1.2,1.5,1.8,3.3,2.3,5.2c0.5,2.1,0.8,4.3,1.1,6.5
		C73.8,41.5,73.9,45.9,72.9,49.9z"/>
	<path class="st0" d="M68.2,25.9C68.1,25.9,68.1,26,68.2,25.9"/>
	<line class="st0" x1="66.2" y1="26.1" x2="66.1" y2="26.1"/>
	<path class="st3" d="M68.3,32.5c-0.3-0.8-0.8-2.9-2-2.9l-2.2,0.2L63,29.8c0.2,0.5,0.3,1.1,0.3,1.4c-0.5,0.1-3.3-0.3-3.1-1.1l0,0
		c0,0,0.1-0.1,0.1-0.1l-0.8,0.1c0,0.1,0.1,0.2,0.1,0.4v0c0.9,0.9,1.2,2.3,1.5,3.5c0.7,2.5,0.9,5.1,1,7.7c0,1.5,0,3-0.2,4.5
		c-0.1,1-0.3,2.3-1,3.1c0,0.1,0,0.2,0,0.4l1.8-0.1c0.2,0,0.4,0,0.7-0.1h0l2.1-0.1l2.3-0.2c1-0.2,1.2-1.7,1.4-2.5
		c0.3-1.6,0.5-3.3,0.4-4.9C69.5,38.7,69.3,35.5,68.3,32.5z M65.1,44.7c-3,0.2-2.8-5.1,0-5.3C65.4,41,65.8,43.1,65.1,44.7z"/>
	<path class="st4" d="M65.1,44.7c-3,0.2-2.8-5.1,0-5.3C65.4,41,65.8,43.1,65.1,44.7z"/>
	<line class="st0" x1="60.4" y1="30" x2="60.4" y2="30"/>
	<line class="st0" x1="63" y1="29.8" x2="63" y2="29.8"/>
	<path class="st0" d="M50.2,61.7C50.2,61.7,50.2,61.7,50.2,61.7"/>
	<polygon class="st2" points="49.5,82.9 49.2,83.3 48.5,83.5 46.7,81.3 48.5,80.1 48.7,80.7 48.7,80.8 	"/>
	<path class="st5" d="M40.3,59.6l-2.4,0.7L37.8,60l-0.6-0.6l-0.7-0.8c0,0,0,0,0,0L36,57.9l-4.7-5.3l-0.2-0.2L30,51.1
		c-0.4-0.6-0.8-1.2-1.2-1.7c-0.4-0.6-0.8-1.1-1.2-1.7c0.4-0.2,1-0.6,1.1-1.1c0-0.1,0-0.2,0-0.3c0,0,0,0,0,0l0,0l4.8,5.5l0.2,0.2
		l2.4,2.7l1.2,1.4v0l1.2,1.3l1.2,1.4v0l0.6,0.7L40.3,59.6z"/>
	<line class="st0" x1="28.7" y1="46.3" x2="28.7" y2="46.2"/>
	<path class="st0" d="M38.5,57.3C38.5,57.3,38.5,57.3,38.5,57.3"/>
	<path class="st3" d="M48.7,55c-2.4-1.1-5.4-1-7.3,0.8c-0.8,0.8-1.5,1.8-1.8,3l-1.2-1.4c0.3-1,0.9-2,1.6-2.7c2.1-2,5.3-2.2,7.5-0.7
		C48,54.2,48.4,54.6,48.7,55z"/>
	<line class="st0" x1="45.8" y1="51.9" x2="45.8" y2="51.9"/>
	<path class="st0" d="M51.4,45.6C51.4,45.6,51.4,45.6,51.4,45.6"/>
	<path class="st2" d="M56.7,100L35.1,79.3c-0.8-0.8-1.6-1.7-2.1-2.8c-0.3-0.6-0.5-1.3-0.7-1.9c-0.2-0.9-0.2-2,0.2-2.8
		c0.1-0.3,0.4-0.7,0.7-0.8c0,0,0,0,0,0c0.2-0.1,0.4-0.1,0.5,0.1l8.2,7.9l1.2,1.1l9.4,9c0.7,0.7,0.7,2.2,0.8,3.1
		c0.2,1.2,0.4,2.3,0.8,3.4c0.2,0.7,0.5,1.4,0.9,2.1C55.5,98.6,56,99.4,56.7,100z"/>
	<line class="st0" x1="34" y1="65.3" x2="33.9" y2="65.3"/>
	<path class="st6" d="M42.1,78.9L33.9,71c-0.2-0.2-0.4-0.2-0.5-0.1l0.7-0.5l0.1-0.1c0.1,0.1,0.2,0.1,0.3,0.2l5.8,5.6l0,0
		c0.1,0.2,0.2,0.3,0.4,0.5C40.8,76.9,41.9,78.7,42.1,78.9z"/>
	<path class="st0" d="M39.9,75.6C39.9,75.6,39.9,75.6,39.9,75.6"/>
	<line class="st0" x1="33.3" y1="70.9" x2="33.2" y2="71"/>
	<line class="st0" x1="49.5" y1="68.9" x2="49.5" y2="68.8"/>
	<line class="st0" x1="52.5" y1="22.8" x2="52.4" y2="22.8"/>
	<line class="st0" x1="44.6" y1="66.2" x2="44.8" y2="66.4"/>
	<path class="st7" d="M49.7,70.1C49.7,70.1,49.7,70,49.7,70.1"/>
	<path class="st0" d="M73.8,10.4c-0.3,1-0.6,2.1-0.8,3.1"/>
	<path class="st0" d="M70.3,19.4c-0.1,0.3-0.1,0.6-0.2,0.9"/>
	<path class="st0" d="M72.8,58c0.3,0.8,0.6,1.7,1,2.5"/>
	<path class="st0" d="M68.1,26C68.1,26,68.1,26,68.1,26"/>
	<path class="st1" d="M93,57.4c-0.3,3.6-0.8,7.2-1.8,10.7c-0.7,2.2-2.4,7.7-5.7,6.5l-1.8-0.7h0c-3.8-1.2-5.9-6.3-7-9.7
		c0.6,1.8,1.4,3.5,2.3,5.1c0.8,1.3,2.2,3.3,4,3.1c1.8-0.2,2.8-2.3,3.4-3.8c0.7-1.7,1.2-3.5,1.5-5.3c0.8-3.8,1.1-7.7,1.3-11.6
		c0.2-4,0.1-8.1-0.1-12.1c-0.2-3.9-0.6-7.8-1.2-11.6c-0.1-0.5-0.2-1-0.2-1.5c0.4-0.7,1.1-1.3,1.9-1.6c0.6-0.3,1.3-0.5,1.9-0.8
		c0.7,4,1.2,8,1.5,12.1C93.5,43.2,93.6,50.3,93,57.4z"/>
	<path class="st2" d="M92.2,19.5l-4,0.3c0.2-1.1,0.1-2.3-0.1-3.4c0-0.2-0.3-1.7-0.8-1.7v0l2.1-0.1l1.9-0.1c0.6,0.1,0.8,1.4,0.8,1.9
		C92.3,17.3,92.3,18.4,92.2,19.5z"/>
	<path class="st1" d="M88.2,19.7l-0.1,1c0.3,2,0.1,3.8-0.3,5.8c-0.4-3.4-1-6.8-2.1-10c0.5-0.3,1.3-0.9,1.2-1.5l0.3-0.2
		c0.1,0,0.1-0.1,0.2-0.1c0.4,0,0.7,1.4,0.8,1.7C88.2,17.4,88.4,18.7,88.2,19.7z"/>
	<path class="st0" d="M89.2,51.7c-0.2,3.9-0.5,7.8-1.3,11.6c-0.4,1.8-0.8,3.6-1.5,5.3c-0.6,1.5-1.6,3.6-3.4,3.8
		c-1.8,0.2-3.2-1.8-4-3.1c-1-1.6-1.7-3.4-2.3-5.1c0.1,0.1,0.3,0.2,0.4,0.2l0.7,0.4l0,0c0.3,0.3,0.6,0.6,0.9,0.8
		c3.6,2.3,5.2-5.7,5.5-7.7c0.7-3.8,0.9-7.8,1-11.7c0.1-4-0.2-8.1-0.6-12.1c-0.4-3.9-1-7.9-2-11.7c-0.5-1.9-1-3.8-1.7-5.6
		c-0.7-1.6-1.4-3.4-2.7-4.7c-1.5-1.4-2.8-0.8-3.9,0.6l0,0l-0.7,0.5c-0.1,0.1-0.2,0.2-0.4,0.3c0.2-1,0.5-2,0.8-3.1
		c0.2-0.8,0.5-1.6,0.9-2.4c0.6-1.3,1.5-3.1,3-3.5c1.7-0.4,3,1.1,3.9,2.4c2,2.8,3,6.3,4,9.5c0.9,3.3,1.5,6.7,2.1,10
		c0.1,0.5,0.2,1,0.2,1.5c0.6,3.8,0.9,7.7,1.2,11.6C89.3,43.6,89.3,47.7,89.2,51.7z"/>
	<path class="st0" d="M89.3,14.5L89.3,14.5l-2.1,0.2v0c-0.1,0-0.1,0-0.2,0.1L86.8,15c0.1,0.7-0.8,1.2-1.2,1.5c-0.9-3.3-2-6.7-4-9.5
		c-0.8-1.2-2.2-2.8-3.9-2.4c-1.5,0.4-2.4,2.1-3,3.5c-0.3,0.8-0.6,1.6-0.9,2.4c0.8-3,2.1-6.1,4.8-7.5h0L80.4,2c1-0.5,2-0.3,2.9,0.4
		c1.8,1.3,2.8,3.5,3.7,5.5C88,10,88.7,12.3,89.3,14.5z"/>
	<path class="st3" d="M92.2,19.5l-0.7,4.6c-0.6,0.3-1.3,0.5-1.9,0.8c-0.7,0.3-1.5,0.9-1.9,1.6c0.5-1.9,0.6-3.8,0.3-5.8l0.1-1
		L92.2,19.5z"/>
	<line class="st0" x1="77" y1="64.4" x2="77" y2="64.4"/>
	<line class="st0" x1="73.4" y1="13.3" x2="73.4" y2="13.3"/>
	<path class="st1" d="M85.1,46.2c-0.1,3.9-0.2,7.8-1,11.7c-0.4,2-2,10.1-5.5,7.7c-0.3-0.2-0.6-0.5-0.9-0.8l0,0L77,64.4
		c-0.1-0.1-0.3-0.1-0.4-0.2c-0.2-0.2-0.5-0.3-0.7-0.6c-0.7-0.9-1.4-1.7-1.9-2.8c0,0,0,0,0-0.1c0.5,0.9,1,1.7,1.7,2.5
		c3.8,3.5,5.5-5.6,5.8-7.8c0.7-4.4,0.8-8.8,0.7-13.2c-0.1-4.4-0.5-8.8-1.3-13.1c-0.7-4.1-1.6-8.3-3.4-12.1c-0.7-1.4-2.2-4.2-4.1-3.4
		c-1.7,0.7-2.4,3.4-2.8,5c-0.1,0.2-0.1,0.4-0.2,0.6c0.4-2,1.1-4.5,2.7-5.8v0c0.1-0.1,0.2-0.2,0.4-0.3l0.7-0.5l0,0
		c1.1-1.4,2.4-2,3.9-0.6c1.3,1.3,2.1,3,2.7,4.7c0.7,1.8,1.2,3.7,1.7,5.6c1,3.8,1.6,7.8,2,11.7C84.9,38.1,85.1,42.1,85.1,46.2z"/>
	<path class="st0" d="M81.5,55.5c-0.3,2.2-2.1,11.3-5.8,7.8c-0.7-0.7-1.2-1.6-1.7-2.5c-0.1-0.1-0.1-0.2-0.1-0.3
		c-0.4-0.8-0.7-1.7-1-2.5l-0.1-0.2l-1-2.9l0.9,1.2c0.1,0.2,0.3,0.4,0.4,0.5c2.3,2.3,3.6-2.7,3.9-4.2c0.6-2.9,0.8-6.1,0.8-9.1
		c-0.1-6-0.6-12.2-2.6-17.9c-0.5-1.4-1.1-3.1-2.2-4c-1.1-0.9-2-0.2-2.7,0.8l-0.7,1.3l0.6-3l0.1-0.2c0.1-0.3,0.1-0.6,0.2-0.9
		c0,0,0,0,0,0c0.1-0.2,0.1-0.4,0.2-0.6c0.4-1.6,1.1-4.3,2.8-5c2-0.8,3.5,2,4.1,3.4c1.8,3.7,2.7,8,3.4,12.1c0.7,4.3,1.1,8.7,1.3,13.1
		C82.2,46.7,82.1,51.1,81.5,55.5z"/>
	<path class="st4" d="M69.9,49.4c-0.2,0.9-0.8,3.2-1.9,3.3c-0.3,0-0.6-0.1-0.9-0.4c-0.8-0.8-1.1-1.9-1.6-2.9v0l2.3-0.2
		c1-0.2,1.2-1.7,1.4-2.5c0.3-1.6,0.5-3.3,0.4-4.9c-0.1-3.1-0.3-6.3-1.2-9.2c-0.3-0.8-0.8-2.9-2-2.9l-2.2,0.2
		c0.1-1.2,0.9-3.6,2.1-3.6c0.4,0,0.8,0.2,1.2,0.8c1.4,1.8,1.9,4.5,2.3,6.7c0.5,2.8,0.8,5.6,0.8,8.4C70.5,44.5,70.4,47,69.9,49.4z"/>
	<path class="st4" d="M63.4,31.3c-0.5,0.1-3.3-0.3-3.1-1.1l0,0c0,0,0.1-0.1,0.1-0.1h0c0.5-0.4,1.3-0.8,2-0.8
		c0.3,0.1,0.5,0.3,0.6,0.6C63.2,30.3,63.3,31,63.4,31.3z"/>
	<path class="st4" d="M63.4,49.5c-0.1,0.3-0.2,0.6-0.5,0.7l0,0c-0.7,0.1-1.4-0.1-2-0.4c0,0,0-0.1,0-0.1l1.8-0.1
		C62.9,49.5,63.1,49.5,63.4,49.5L63.4,49.5z"/>
	<path class="st0" d="M60.9,49.7C60.9,49.7,60.9,49.7,60.9,49.7"/>
	<line class="st7" x1="27.2" y1="47.1" x2="27.2" y2="47.1"/>
	<path class="st0" d="M28.7,46.6c-0.1,0.4-0.7,0.9-1.1,1.1h0c-0.1-0.2-0.3-0.4-0.4-0.6c0.1-0.1,0.2-0.3,0.3-0.4
		c0.2-0.2,0.9-0.7,1.1-0.5c0,0,0,0,0,0.1c0,0,0,0,0,0C28.7,46.4,28.7,46.5,28.7,46.6z"/>
	<path class="st1" d="M51.8,42.7c-0.1,0.3-0.2,0.7-0.2,1c-0.2-0.4-0.5-0.8-0.7-1.2c-0.1,0-0.3-0.1-0.4-0.1c0,0.3,0,0.6,0.1,0.9
		c-0.2-0.7-0.3-1.4-0.4-2.1c0,0,0-0.1,0-0.1c0-0.5-0.1-1-0.1-1.5c0-0.3,0-0.6,0-1c0-0.1,0-0.2,0-0.3c0,0,0-0.1,0-0.1
		c0,0,0-0.1,0-0.1c0,0,0,0,0,0c0-0.3,0.1-0.6,0.2-0.9c0,0.4,0,0.9,0,1.3c0.1,0,0.3,0.1,0.4,0.1c0.2-0.4,0.4-0.7,0.6-1.1
		c0.1,0.4,0.2,0.8,0.3,1.2c-0.2,0.4-0.4,0.8-0.6,1.2c0,0.5,0,1,0.1,1.5C51.3,41.9,51.6,42.3,51.8,42.7z"/>
	<path class="st2" d="M53,45.2c-0.1,0.3-0.3,1-0.7,1.2c-0.3,0.1-0.5,0-0.7-0.2c0,0,0,0,0,0c-0.1-0.1-0.1-0.1-0.1-0.2c0,0,0,0,0-0.1
		c0,0,0,0,0-0.1c0,0,0-0.1-0.1-0.1c0,0,0-0.1,0-0.1h0c-0.3-0.7-0.6-1.5-0.8-2.3c0,0,0,0,0,0c0-0.3-0.1-0.6-0.1-0.9
		c0.1,0,0.2,0.1,0.4,0.1c0.2,0.4,0.5,0.8,0.7,1.2c0.1-0.3,0.2-0.7,0.2-1c-0.3-0.4-0.5-0.9-0.7-1.3c0-0.5-0.1-1-0.1-1.5
		c0.1-0.4,0.4-0.8,0.6-1.2c-0.1-0.4-0.3-0.8-0.3-1.2c-0.2,0.3-0.4,0.7-0.6,1.1c-0.1,0-0.3-0.1-0.4-0.1c-0.1-0.4-0.1-0.9,0-1.3
		c-0.1,0.3-0.2,0.6-0.2,0.9c0.1-0.9,0.3-1.8,0.6-2.7c0,0,0-0.1,0-0.1c0.1-0.2,0.2-0.4,0.3-0.5c0.2-0.2,0.4-0.4,0.8-0.2
		c0.6,0.4,0.8,1.4,1,2c0.3,1,0.4,2.1,0.5,3.2C53.4,41.5,53.5,43.5,53,45.2z"/>
	<line class="st0" x1="50.3" y1="38.3" x2="50.1" y2="38.3"/>
	<path class="st3" d="M48.5,83.5c-0.4-0.2-0.8-0.4-1.2-0.6c-1.5-0.8-2.8-1.7-4-2.9l-1.2-1.1c-0.1-0.3-1.3-2-1.4-2.2
		c-0.2-0.4-0.5-0.7-0.7-1.1c0,0,0-0.1-0.1-0.1l-7.3-11.3c0.1,0.1,0.3,0.3,0.4,0.4c0.3,0.3,0.8,0.8,1,0.6l0,0.1l0.3-0.2
		c0.9-0.6-0.6-3.6-0.9-4.3l13.3,20.5L48.5,83.5z"/>
	<path class="st2" d="M33.9,65.2c-0.1,0.2-0.7-0.3-1-0.6c-0.1-0.1-0.3-0.3-0.4-0.4c-0.3-0.3-0.5-0.5-0.7-0.8
		c-3.2-3.6-5.9-7.6-8.7-11.6c-2.7-3.8-5.3-7.8-7.5-11.9c-0.2-0.4-1.2-2-1-2.4c0,0,0-0.1,0.1-0.1c0.4-0.2,1.3,1,1.5,1.2
		c1.6,1.7,3,3.5,4.4,5.4c2.9,3.9,5.8,8,8.4,12.1c1.3,2,2.5,4,3.6,6c0.4,0.8,1,1.7,1.2,2.6C34,65,34,65.1,33.9,65.2z"/>
	<path class="st1" d="M33.4,60.8c0.3,0.7,1.8,3.7,0.9,4.3L34,65.3l0-0.1c0.1-0.1,0.1-0.2,0-0.4c-0.2-0.9-0.8-1.8-1.2-2.6
		c-1.1-2-2.4-4-3.6-6c-2.6-4.2-5.5-8.2-8.4-12.1c-1.4-1.9-2.8-3.7-4.4-5.4c-0.2-0.2-1.2-1.3-1.5-1.2l0,0l2.5-2.5
		c0.5-0.1,1.4,1,1.7,1.3c0.8,0.8,1.5,1.7,2.2,2.6c2.1,2.7,4.1,5.4,6.1,8.2c0.1,0.2,0.3,0.4,0.4,0.6h0c0.4,0.6,0.8,1.1,1.2,1.7
		c0.4,0.6,0.8,1.2,1.2,1.7c0.3,0.5,0.6,0.9,0.9,1.4c1.6,2.4,3.1,4.8,4.5,7.2c0.1,0.2,0.2,0.3,0.3,0.5C34.9,60.4,34.2,60.6,33.4,60.8
		z"/>
	<path class="st5" d="M65.1,105.8l-0.6,0.4l-2.2-3.6c-0.6-0.1-1.3-0.2-1.9-0.4c-1.3-0.4-2.5-1-3.5-1.9c0,0,0,0-0.1-0.1
		c-0.1-0.1-0.1-0.1-0.2-0.2c-0.6-0.6-1.2-1.4-1.6-2.3c-0.3-0.7-0.7-1.4-0.9-2.1c-0.3-1.1-0.6-2.3-0.8-3.4c-0.2-0.9-0.2-2.4-0.8-3.1
		l-9.4-9c1.2,1.1,2.6,2.1,4,2.9l6,5.8c0.2,0.2,0.4,0.5,0.7,0.7c0,0,0,0,0,0.1c0.3,1.5,0.4,3,0.7,4.6c0.1,0.4,0.2,0.8,0.3,1.2
		c0.2,0.7,0.5,1.5,0.8,2.1c1.3,2.8,4,4.5,7.1,4.6c0,0.1,0.1,0.2,0.1,0.2l1.9,3.1l0,0L65.1,105.8z"/>
	<path class="st7" d="M64.5,106.2l-4.1-4l0-0.1c0.6,0.2,1.2,0.3,1.9,0.4L64.5,106.2z"/>
	<path class="st0" d="M40.3,76.1c-0.1-0.2-0.2-0.3-0.3-0.5"/>
	<line class="st0" x1="35.4" y1="59.8" x2="35.4" y2="59.7"/>
	<path class="st0" d="M50,61.3c-0.1-0.1-0.1-0.2-0.2-0.3"/>
	<path class="st0" d="M49.8,61C49.8,61,49.8,61,49.8,61"/>
	<line class="st0" x1="31" y1="52.7" x2="31.3" y2="52.6"/>
	<line class="st0" x1="33.7" y1="51.9" x2="33.7" y2="52"/>
	<line class="st7" x1="49" y1="69.4" x2="49" y2="69.4"/>
	<line class="st7" x1="59.7" y1="79.7" x2="59.7" y2="79.7"/>
	<path class="st5" d="M57.4,77.5l-6.8-5.8L50,71.6l-0.2-1.2l-0.1-0.5l1.5-0.1c2.2,1.4,4.3,3,5.9,5V77L57.4,77.5z"/>
	<path class="st3" d="M65.9,101.1l-12-11.6c0,0,0,0,0-0.1c-0.2-0.3-0.4-0.5-0.7-0.7l-6-5.8c0.4,0.2,0.8,0.4,1.2,0.6l0.7-0.2l0.3-0.4
		l-0.8-2.1l0,0l-0.1-0.7l-1.6-2.5c1-1.8,1.1-4.3,0.9-6.3l0-0.3l1.2-1.6l0.7,0.7l0,0c0,0.1,0.1,0.2,0.1,0.3l0.2,1.2l0.6,0.1l6.8,5.8
		L57.1,77l0.2,0.2l1.9,2.8l0.4-0.2l0-0.1l6,5.8c1.4,1.5,2.8,2.9,3.6,4.9c0.3,0.7,0.4,1.5,0.6,2.2C70.2,95.8,68.5,99.2,65.9,101.1z"
		/>
	<path class="st5" d="M66.6,101.3l-0.4,4.6l-0.7,0.1l0.4-4.6c0-0.1,0-0.2,0-0.3c2.6-1.9,4.2-5.3,4-8.5c-0.2-0.8-0.3-1.5-0.6-2.2
		c-0.8-2-2.2-3.4-3.6-4.9l-6-5.8l-0.1-1.1l6.3,6.1c0.1,0.1,0.2,0.2,0.3,0.3c1.6,1.5,3.1,3.2,3.8,5.3c0.3,0.7,0.4,1.5,0.6,2.2
		C70.9,95.8,69.2,99.3,66.6,101.3z"/>
	<line class="st7" x1="49.2" y1="69.2" x2="49.5" y2="69.6"/>
	<path class="st4" d="M62.8,101.9c-3.1-0.1-5.7-1.9-7.1-4.6c-0.4-0.7-0.6-1.4-0.8-2.1c-0.1-0.4-0.2-0.8-0.3-1.2L62.8,101.9z"/>
	<path class="st6" d="M65.9,101.1c0,0.1,0,0.2,0,0.3l-0.4,4.6l-0.7-0.6l0,0l-1.9-3.1c-0.1-0.1-0.1-0.2-0.1-0.2l-8.2-7.9
		c-0.3-1.5-0.3-3.1-0.7-4.6L65.9,101.1z"/>
	<path class="st5" d="M61.9,46.1c-0.1,1-0.3,2.3-1,3.1c0-0.3,0-0.5,0.1-0.8c0.4-4.7,0.2-9.5-0.6-14.2c-0.2-1.3-0.5-2.6-0.8-3.9
		c0.9,0.9,1.2,2.3,1.5,3.5c0.7,2.5,0.9,5.1,1,7.7C62.2,43.1,62.1,44.6,61.9,46.1z"/>
	<path class="st1" d="M61,48.5c0,0.3,0,0.5-0.1,0.8c0,0.1,0,0.2,0,0.4c0,0,0,0.1,0,0.1c-0.2,2-0.4,4.2-1.4,5.9v-3.8
		c-0.7,0.3-1.4,0.6-2.2,0.9c0.8-3.6,0.8-7.7,0.6-11.4c-0.2-3.4-0.6-6.9-1.3-10.2c-0.1-0.4-0.2-0.9-0.3-1.3c-0.3-1.1-0.6-2.2-1-3.3
		c-0.3-0.7-0.6-1.5-1-2.2c-0.3-0.5-0.7-1-1.2-1.3c-0.2-0.1-0.3-0.2-0.5-0.2l3.3,0.4c1.7,0.2,2.6,3.2,3.1,4.6
		c0.2,0.8,0.5,1.5,0.7,2.3c0,0.1,0.1,0.2,0.1,0.4v0c0.3,1.3,0.5,2.6,0.8,3.9C61.2,39,61.4,43.8,61,48.5z"/>
	<path class="st3" d="M54.3,24.4l-0.4,0.2c-1.7,2.4-1.8,5.9-1.9,8.7l0,0c-0.6-0.2-1.4-0.4-1.5-0.2l0,0L49,39.1
		c0-3.3-0.1-6.6,0.4-9.9c0.2-1.3,1-6.8,3.2-6.3c0.2,0,0.3,0.1,0.5,0.2C53.5,23.4,53.9,23.8,54.3,24.4z"/>
	<path class="st0" d="M49.8,45.4C49.8,45.4,49.7,45.4,49.8,45.4"/>
	<path class="st0" d="M48.4,64c0.1,0,0.2,0,0.3,0"/>
	<path class="st0" d="M50.4,62.1C50.4,62.1,50.4,62.1,50.4,62.1"/>
	<line class="st0" x1="49.8" y1="45.4" x2="49.7" y2="45.5"/>
	<path class="st4" d="M55,54.5l-2.4,1.1c-0.9-1.5-1.4-3.2-1.8-4.9c-0.4-1.7-0.7-3.5-1-5.2l0.6-2.6h0c0.1,0.2,0.1,0.4,0.2,0.6
		c0,0,0,0,0-0.1c0.2,0.8,0.5,1.5,0.8,2.3h0c0,0,0,0.1,0,0.1c0,0,0,0.1,0.1,0.1c0,0,0,0,0,0.1c0,0,0,0,0,0.1c0,0.1,0.1,0.1,0.1,0.2
		c0,0,0,0,0,0c0.3,0.4,0.6,0.7,1.1,0.7c0.6,2.5,1,5.1,2.2,7.4L55,54.5z"/>
	<path class="st0" d="M37.9,60.3l-0.2,0.1c-0.7,0.2-1.7,0-2.3-0.6c0,0,0,0,0,0l0,0c-1.4-2.5-2.9-4.8-4.5-7.2l0.2-0.1l0.2,0.2
		l4.7,5.3l0.7,0.7c0,0,0,0,0,0l0.7,0.8l0.6,0.6L37.9,60.3z"/>
	<path class="st2" d="M49.8,68.4L49.8,68.4l-0.3,0.4l-0.3,0.4L49,69.4v0L47.8,71l-1.7,2.3c-0.6,0.8-0.7,1.9-0.2,2.7l1,1.5l1.6,2.5
		l-1.8,1.3L33.4,60.8c0.7-0.2,1.5-0.4,2.2-0.6c-0.1-0.2-0.2-0.3-0.3-0.5l0,0c0,0,0,0,0,0c0.5,0.6,1.5,0.8,2.3,0.6l0.2-0.1l2.4-0.7
		l6.3-1.5c-3.2,1-4.3,5.6-2.2,8c0.1,0.1,0.1,0.2,0.2,0.2c0.5,0.5,1.2,1,1.9,1.1L49.8,68.4z"/>
	<path class="st3" d="M50.6,56.4l-4,1.7l-6.3,1.5l-0.1-0.2l-0.6-0.7v0c0.3-1.1,0.9-2.2,1.8-3c1.8-1.7,4.9-1.9,7.3-0.8l0,0
		C49.4,55.3,50.1,55.8,50.6,56.4z"/>
	<path class="st1" d="M57.3,52.8c0,0-0.6,1-1.6,1.4L55,54.5l-2.4,1.1l-1.3,0.6l-0.7,0.3l-4,1.7c-3.2,1-4.3,5.6-2.2,8
		c0.1,0.1,0.1,0.2,0.2,0.2c0.5,0.5,1.2,1,1.9,1.1l3.1,0.9l1.5,0.4l4.5,1.3c1,0.2,1.6,1.2,1.6,2.1v4.9l2.2-0.2V51.9
		C58.8,52.2,58.1,52.5,57.3,52.8z M50.2,65.6L48.4,64c-0.5-0.1-0.9-0.4-1.1-0.8c-0.5-0.9,0.1-2.1,1-2.4c0.5-0.2,1.1-0.1,1.5,0.2h0
		c0,0,0,0,0,0c0,0,0,0,0.1,0c0,0,0,0,0,0c0.3,0.3,0.5,0.6,0.5,1.1c0.3,0.5,0.4,1.2,0.8,1.6l0.4,0.3C51.5,64.8,50.9,65.5,50.2,65.6z"
		/>
	<path class="st3" d="M51.8,63.9c-0.1,0.8-0.8,1.5-1.6,1.7l-2-1.8L47,62.7c0.2-0.8,0.8-1.5,1.6-1.7l2.8,2.6L51.8,63.9z"/>
	<path class="st5" d="M47.2,62.9l1.2,1.1c-0.5-0.1-0.9-0.4-1.1-0.8c-0.5-0.9,0.1-2.1,1-2.4c0.5-0.2,1.1-0.1,1.5,0.2h0c0,0,0,0,0,0
		c0,0,0,0,0.1,0c0,0,0,0,0,0c0.2,0.2,0.3,0.4,0.3,0.6c0.1,0.2,0.1,0.3,0.2,0.4c0.3,0.5,0.4,1.2,0.8,1.6l-2.6-2.4
		C47.9,61.5,47.4,62.2,47.2,62.9z"/>
	<line class="st0" x1="53.4" y1="46.8" x2="53.4" y2="46.8"/>
	<path class="st4" d="M56.3,29.9L56.1,30c-0.5-1-1.5-2-2.3-0.8c-0.9,1.2-1,2.9-1.2,4.4h0c-0.1,0-0.3-0.1-0.6-0.2l0,0
		c0.1-2.8,0.3-6.3,1.9-8.7l0.4-0.2c0.4,0.7,0.7,1.5,1,2.2C55.7,27.7,56,28.8,56.3,29.9z"/>
	<path class="st4" d="M56.8,42.4c-0.1,1.2-0.1,4.2-1.8,4.3l-1.6,0.1l-0.4,0c-0.1,0-0.1,0-0.2,0c-0.4,0-0.8-0.3-1.1-0.7
		c0.2,0.2,0.4,0.3,0.7,0.2c0.4-0.1,0.6-0.8,0.7-1.2c0.5-1.7,0.4-3.7,0.2-5.5c-0.1-1.1-0.3-2.1-0.5-3.2c-0.2-0.6-0.4-1.6-1-2
		c-0.3-0.2-0.6-0.1-0.8,0.2c0.2-0.4,0.6-0.8,1.1-0.8l0.4,0l1.6-0.1c0.9,0,1.4,0.8,1.7,1.6C56.7,37.6,56.9,40.1,56.8,42.4z"/>
	<path class="st3" d="M46.2,52.4l-0.1,0.2c-2.2-1.3-5.1-1.1-7.1,0.8c-0.8,0.7-1.4,1.6-1.7,2.7l-1.2-1.4h0c0.4-1,1-2,1.8-2.7
		c2.1-1.8,5.8-2.1,7.9-0.1C45.9,52,46.1,52.2,46.2,52.4z"/>
	<path class="st3" d="M47.7,53.6l0,0.1l-0.1,0.2c-2.1-1.5-5.4-1.3-7.5,0.7c-0.8,0.8-1.3,1.7-1.6,2.7L37.3,56v0
		c0.3-1,0.9-1.9,1.7-2.7c2.1-1.9,4.9-2.1,7.1-0.8c0.5,0.3,0.9,0.6,1.3,1L47.7,53.6z"/>
	<path class="st5" d="M52.5,33.6c0,0.1,0,0.1,0,0.2c0,0.1,0,0.1,0,0.2v0l-0.4,0c-0.5,0-0.9,0.4-1.1,0.8c-0.1,0.1-0.2,0.3-0.3,0.5
		c0,0,0,0.1,0,0.1l0,0c-0.3,0.9-0.5,1.8-0.6,2.7c0,0,0,0,0,0c0,0,0,0.1,0,0.1c0,0,0,0.1,0,0.1c0,0.1,0,0.2,0,0.3
		c-0.1,0.9,0,1.7,0.1,2.6c0,0.3,0.1,0.7,0.1,1c0.1,0.2,0.1,0.4,0.1,0.6h0l-0.6,2.6l0,0.1l-2,8.2l-0.2-0.1c-0.4-0.4-0.9-0.8-1.3-1
		l0.1-0.2c-0.1-0.2-0.3-0.3-0.4-0.5l1.1-4.5l0.1-0.3l2-8v0l1.5-5.9l0,0c0-0.2,0.8,0,1.5,0.2C52.2,33.4,52.5,33.5,52.5,33.6
		L52.5,33.6z"/>
	<path class="st3" d="M57.3,52.8c-0.3,0.1-1-0.4-1.2-0.6l-0.7-0.7l0,0c-1.2-1.2-1.5-3.1-2-4.7l1.6-0.1c1.7-0.1,1.8-3.1,1.8-4.3
		c0.1-2.3-0.1-4.8-1-7c-0.3-0.8-0.8-1.6-1.7-1.6l-1.6,0.1v0c0-0.1,0-0.1,0-0.2c0-0.1,0-0.1,0-0.2c0.2-1.5,0.3-3.2,1.2-4.4
		c0.8-1.2,1.9-0.2,2.3,0.8l0.2-0.1c0.1,0.4,0.2,0.9,0.3,1.3c0.7,3.4,1.1,6.8,1.3,10.2C58.1,45.1,58.2,49.2,57.3,52.8z"/>
	<path class="st6" d="M57.3,52.8c0,0-0.6,1-1.6,1.4L55,54.5l-0.1-0.2c-1.2-2.3-1.6-4.9-2.2-7.4c0.1,0,0.1,0,0.2,0l0.4,0
		c0.5,1.6,0.8,3.5,2,4.7l0,0l0.7,0.7C56.3,52.4,57,52.8,57.3,52.8z"/>
	<path class="st0" d="M56.6,70.6c0.4,0.4,0.6,1,0.6,1.5"/>
	<polygon class="st2" points="59.7,79.8 59.2,80 57.3,77.2 59.5,77 59.6,78.6 59.7,79.7 	"/>
	<path class="st6" d="M57.3,72.3l-0.2-0.2v2.6c-1.6-2-3.7-3.6-5.9-5l-1.5,0.1l0.1,0.5c0-0.1,0-0.2-0.1-0.3l0,0L49,69.4v0l0.1-0.2
		l0.3-0.4l0.3-0.4v0l1.5,0.4l4.5,1.3C56.7,70.4,57.3,71.4,57.3,72.3z"/>
	<path class="st4" d="M47,47.1l-0.1,0.3l-1.1,4.5c-2.1-2-5.7-1.7-7.9,0.1c-0.8,0.7-1.5,1.6-1.8,2.7h0l-2.4-2.7l-0.2-0.2L47,47.1z"/>
</g>
</svg>
