<?xml version="1.0" encoding="utf-8"?>
<!-- Generator: Adobe Illustrator 21.1.0, SVG Export Plug-In . SVG Version: 6.00 Build 0)  -->
<svg version="1.1" id="Layer_1" xmlns="http://www.w3.org/2000/svg" xmlns:xlink="http://www.w3.org/1999/xlink" x="0px" y="0px"
	 width="108px" height="108px" viewBox="0 0 108 108" style="enable-background:new 0 0 108 108;" xml:space="preserve">
<style type="text/css">
	.st0{fill:none;stroke:#000000;stroke-width:0.5;stroke-linecap:round;stroke-linejoin:round;stroke-miterlimit:10;}
	.st1{fill:#F2F2F2;stroke:#000000;stroke-width:0.5;stroke-linecap:round;stroke-linejoin:round;stroke-miterlimit:10;}
	.st2{fill:#FFFFFF;stroke:#000000;stroke-width:0.5;stroke-linecap:round;stroke-linejoin:round;stroke-miterlimit:10;}
	.st3{fill:#E6E6E6;stroke:#000000;stroke-width:0.5;stroke-linecap:round;stroke-linejoin:round;stroke-miterlimit:10;}
	.st4{fill:#CCCCCC;stroke:#000000;stroke-width:0.5;stroke-linecap:round;stroke-linejoin:round;stroke-miterlimit:10;}
	.st5{fill:#B3B3B3;stroke:#000000;stroke-width:0.5;stroke-linecap:round;stroke-linejoin:round;stroke-miterlimit:10;}
</style>
<g>
	<g>
		<g>
			<line class="st0" x1="74.1" y1="17.7" x2="74" y2="17.6"/>
			<line class="st0" x1="59.3" y1="14.7" x2="58.7" y2="15.1"/>
			<path class="st1" d="M60.8,61.4c-0.4,1.7-2.1,7.6-4.7,4.8c-0.2-0.2-0.3-0.3-0.5-0.6l-1-1.4l-2-2.7l0,0c1.8,2.1,3.3-1.7,3.6-3
				c1.2-4.6,1.3-9.8,0.9-14.5c-0.2-2.6-0.5-5.1-1-7.6c-0.5-2.1-1.1-4.4-2.5-6.1c-0.8-0.7-1.6-0.7-2.2,0.2l0,0l1.7-2.9l0,0l0.9-1.5
				c0.9-1.2,1.9-2.1,3.2-0.9c1.3,1.1,2,3.2,2.5,4.8c2.1,6.7,2.6,14.1,2.5,21C61.9,54.4,61.6,58.1,60.8,61.4z"/>
			<line class="st0" x1="51.3" y1="30.3" x2="51.3" y2="30.3"/>
			<line class="st0" x1="52.5" y1="61.5" x2="52.5" y2="61.4"/>
			<path class="st2" d="M52.6,61.5L52.6,61.5"/>
			<path class="st3" d="M56.1,58.4c-0.3,1.3-1.7,5.2-3.6,3l0,0c-0.1,0-0.1,0-0.2,0l-2.1,0.1l0,0c1.3-0.1,2.1-2.8,2.3-3.8
				c0.7-2.7,0.9-5.7,0.9-8.5c0-3.3-0.2-6.6-0.7-9.9c-0.4-2.6-0.9-5.8-2.4-7.9c-0.5-0.7-0.9-0.9-1.4-0.9v-0.1l2.1-0.1
				c0.1,0,0.1,0,0.2,0l0,0l0,0c0.6-0.9,1.5-0.9,2.2-0.2c1.4,1.8,2,3.9,2.5,6.1c0.5,2.5,0.9,5.1,1,7.6C57.4,48.6,57.4,53.8,56.1,58.4
				z"/>
			<path class="st2" d="M51.3,30.2L51.3,30.2"/>
			<path class="st2" d="M58.5,12.3c-0.4,1.2-0.7,2.4-1,3.6"/>
			<path class="st2" d="M54.1,22.7c-0.1,0.3-0.2,0.7-0.3,1"/>
			<path class="st2" d="M55.7,67.9c0.3,1,0.7,2,1.1,3"/>
			<path class="st2" d="M51.3,30.3L51.3,30.3"/>
			<path class="st1" d="M79.4,67.8c-0.4,4.2-1.2,8.4-2.5,12.4c-0.9,2.6-3,8.9-6.9,7.4l-2.1-0.9l0,0c-4.4-1.5-6.8-7.6-7.9-11.6
				c0.6,2.1,1.5,4.2,2.6,6.1c0.9,1.6,2.5,3.9,4.5,3.8c2.1-0.2,3.3-2.7,4.1-4.3c0.9-2,1.5-4.1,2-6.2c1-4.5,1.5-9,1.9-13.6
				c0.3-4.7,0.4-9.4,0.3-14.2c-0.2-4.5-0.4-9.1-1-13.6c-0.1-0.6-0.2-1.2-0.3-1.7c0.4-0.9,1.4-1.5,2.2-1.8c0.8-0.3,1.5-0.6,2.2-0.9
				c0.7,4.7,1.1,9.4,1.4,14.2C80.4,51.4,80.3,59.6,79.4,67.8z"/>
			<path class="st3" d="M79.7,23.5l-4.7,0.2c0.3-1.3,0.2-2.7,0-4c-0.1-0.3-0.3-2-0.9-2l0,0l2.5-0.1l2.2-0.1c0.7,0.2,0.9,1.7,0.9,2.2
				C79.8,20.9,79.8,22.3,79.7,23.5z"/>
			<path class="st1" d="M74.9,23.6l-0.2,1.1c0.3,2.3,0,4.5-0.6,6.8c-0.4-3.9-1-8-2.1-11.8c0.6-0.3,1.5-0.9,1.5-1.7l0.3-0.3
				c0.1-0.1,0.1-0.1,0.2-0.1c0.5,0,0.8,1.7,0.9,2C75.1,21,75.3,22.4,74.9,23.6z"/>
			<path class="st2" d="M75.1,61.1c-0.3,4.5-0.9,9.1-1.9,13.6c-0.5,2.1-1.1,4.2-2,6.2c-0.8,1.7-2.1,4.1-4.1,4.3
				c-2.1,0.2-3.7-2.1-4.5-3.8c-1.1-1.9-1.9-4-2.6-6.1c0.2,0.1,0.3,0.2,0.4,0.3l0.9,0.4l0,0c0.3,0.3,0.7,0.7,1,0.9
				c4.1,2.8,6.2-6.5,6.7-8.8c0.9-4.5,1.3-9.1,1.5-13.6c0.2-4.7,0.1-9.4-0.3-14.2c-0.3-4.6-0.9-9.3-2-13.7c-0.5-2.2-1-4.5-1.8-6.5
				c-0.7-2-1.5-4-3.1-5.6c-1.7-1.7-3.3-1-4.6,0.6l0,0l-0.8,0.5c-0.2,0.1-0.3,0.2-0.4,0.3c0.3-1.1,0.6-2.4,1-3.6
				c0.3-0.9,0.7-1.9,1.1-2.7c0.8-1.5,1.8-3.5,3.6-3.9c2-0.5,3.5,1.5,4.5,2.9c2.2,3.3,3.3,7.5,4.3,11.3c0.9,3.9,1.5,7.8,2.1,11.8
				c0.1,0.6,0.2,1.2,0.3,1.7c0.6,4.5,0.9,9.1,1,13.6C75.5,51.7,75.5,56.4,75.1,61.1z"/>
			<path class="st2" d="M76.5,17.5L76.5,17.5l-2.4,0.2l0,0c-0.1,0-0.1,0-0.2,0.1l-0.3,0.3c0.1,0.8-0.9,1.4-1.5,1.7
				c-0.9-3.9-2.1-7.9-4.3-11.3c-0.9-1.5-2.5-3.3-4.5-2.9c-1.8,0.4-2.9,2.4-3.6,3.9c-0.4,0.9-0.8,1.8-1.1,2.7c1-3.5,2.7-7,5.9-8.6
				l0,0l2.1-1c1.2-0.5,2.3-0.3,3.3,0.5c2.1,1.5,3.2,4.2,4.2,6.5C75.1,12.2,75.9,14.9,76.5,17.5z"/>
			<path class="st4" d="M79.7,23.5l-0.9,5.4c-0.8,0.3-1.5,0.6-2.2,0.9c-0.9,0.3-1.8,1-2.2,1.8c0.6-2.2,0.9-4.5,0.6-6.8l0.2-1.1
				L79.7,23.5z"/>
			<line class="st0" x1="60.4" y1="75.6" x2="60.4" y2="75.6"/>
			<line class="st0" x1="57.9" y1="15.7" x2="57.9" y2="15.7"/>
			<path class="st1" d="M70.6,54.5c-0.2,4.5-0.5,9.2-1.5,13.6c-0.5,2.4-2.6,11.8-6.7,8.8c-0.3-0.3-0.8-0.6-1-0.9l0,0l-0.9-0.4
				c-0.2-0.1-0.3-0.2-0.4-0.3c-0.3-0.2-0.5-0.4-0.8-0.7c-0.9-1-1.5-2.1-2.1-3.3v-0.1c0.5,1,1.1,2.1,1.9,2.9c4.3,4.3,6.6-6.4,7.1-8.9
				c0.9-5.1,1.2-10.3,1.2-15.4s-0.3-10.3-1-15.4c-0.7-4.8-1.5-9.8-3.6-14.2c-0.8-1.6-2.4-5.1-4.7-4.1c-2.1,0.8-2.9,3.9-3.5,5.8
				c-0.1,0.3-0.2,0.5-0.2,0.7c0.6-2.4,1.5-5.2,3.3-6.7l0,0c0.2-0.1,0.3-0.2,0.4-0.3l0.8-0.5l0,0c1.4-1.6,2.9-2.3,4.6-0.6
				c1.5,1.5,2.3,3.6,3.1,5.6c0.8,2.1,1.4,4.4,1.8,6.5c1,4.5,1.6,9.1,2,13.7C70.6,45,70.7,49.8,70.6,54.5z"/>
			<path class="st2" d="M66,65.3c-0.4,2.6-2.7,13.1-7.1,8.9c-0.8-0.9-1.4-1.9-1.9-2.9c-0.1-0.1-0.1-0.3-0.2-0.3
				c-0.4-0.9-0.7-2-1.1-3l-0.1-0.3l-1.1-3.4l1,1.4c0.2,0.3,0.3,0.4,0.5,0.6c2.7,2.7,4.3-3,4.7-4.8c0.9-3.4,1.1-7,1.2-10.6
				c0.1-7-0.3-14.3-2.5-21C59,28.2,58.3,26.2,57,25c-1.3-1.1-2.3-0.3-3.2,0.9L53,27.3l0.8-3.5l0.1-0.3c0.1-0.3,0.2-0.7,0.3-1
				c0,0,0,0,0-0.1c0.1-0.3,0.2-0.5,0.2-0.7c0.6-1.9,1.5-5,3.5-5.8c2.3-0.9,3.9,2.5,4.7,4.1c2.1,4.5,2.9,9.4,3.6,14.2
				c0.7,5.1,1,10.2,1,15.4C67.2,55,67,60.2,66,65.3z"/>
			
				<ellipse transform="matrix(0.9996 -2.891782e-02 2.891782e-02 0.9996 -1.3082 1.4506)" class="st5" cx="49.5" cy="46" rx="4" ry="15.5"/>
		</g>
	</g>
	<g>
		<path class="st2" d="M27.8,88.5c0,0-1.5,17.2,13.3,17.2C53,105.7,53.9,93,53.9,93l-0.3-19.8c0,0-1.1-2.9-3.2-5s-2.1-4.5-2.1-4.5
			v-9H45v10.3c0,0,0,2.4,2.1,4.5c2.1,2.1,3.2,4.1,3.2,4.1l0.3,19.7c0,0-0.4,9.5-9.9,9.5c-11.4,0-9.9-14.4-9.9-14.4L27.8,88.5z"/>
		<path class="st1" d="M50.3,58.1h-3.6c0,0-1.3-2.3-0.6-3.3h-0.7c-1.2,0-2.4-3.9-2.5-8.8c-0.1-4.9,0.8-8.9,2-8.9h3.2
			c1.3,0,2.4,3.9,2.5,8.8c0.1,3.6-0.4,6.7-1.1,8.1c0,0,0,0,0,0C48.5,56.1,50.3,58.1,50.3,58.1z"/>
		<ellipse class="st5" cx="48.5" cy="58.2" rx="1.8" ry="0.7"/>
		<ellipse class="st2" cx="29.3" cy="88.3" rx="1.5" ry="0.4"/>
		<path class="st0" d="M30.8,88.3"/>
	</g>
	<g>
		<path class="st1" d="M45.4,56.7L45.4,56.7l-3.5,0.2c-1.3,0-9.2-2-9.2-11s7.3-10.5,8.6-10.5l3.5-0.2c1.3,0,2.5,4.7,2.6,10.7
			C47.5,51.8,46.6,56.7,45.4,56.7z"/>
		<path class="st2" d="M36.6,54.7c-2.1-1.6-4-4.4-4-8.8c0-4.6,2-7.3,4-8.8C36.6,37.1,41.3,45.7,36.6,54.7z"/>
	</g>
</g>
</svg>
