<?xml version="1.0" encoding="utf-8"?>
<!-- Generator: Adobe Illustrator 21.1.0, SVG Export Plug-In . SVG Version: 6.00 Build 0)  -->
<svg version="1.1" id="Layer_1" xmlns="http://www.w3.org/2000/svg" xmlns:xlink="http://www.w3.org/1999/xlink" x="0px" y="0px"
	 width="108px" height="108px" viewBox="0 0 108 108" style="enable-background:new 0 0 108 108;" xml:space="preserve">
<style type="text/css">
	.st0{fill:#F2F2F2;}
	.st1{fill:#FFFFFF;}
	.st2{fill:#E6E6E6;}
	.st3{fill:#B3B3B3;}
	.st4{fill:none;stroke:#000000;stroke-width:0.75;stroke-linecap:round;stroke-linejoin:round;stroke-miterlimit:10;}
	.st5{fill:#CCCCCC;stroke:#000000;stroke-width:0.75;stroke-linecap:round;stroke-linejoin:round;stroke-miterlimit:10;}
	.st6{fill:#FFFFFF;stroke:#000000;stroke-width:0.75;stroke-linecap:round;stroke-linejoin:round;stroke-miterlimit:10;}
	.st7{fill:#FFFFFF;stroke:#000000;stroke-width:0.5;stroke-linecap:round;stroke-linejoin:round;stroke-miterlimit:10;}
</style>
<g>
	<path class="st0" d="M66.7,6.8c0-0.8-0.7-1.4-1.5-1.4c-0.8,0-47.8,1.5-47.8,2.3c0,0,0.7,23.1,0.8,26.4c16.3-2.5,32.9-1.5,49-3.1
		C67.2,28,66.7,6.8,66.7,6.8z"/>
	<path class="st1" d="M78.9,36.3c0,0-10.2-4.5-11.7-5.2c0-0.1,0-0.1,0-0.2c-16.1,1.6-32.7,0.6-49,3.1c0,0.3,0,0.4,0,0.4
		c0,0.6,11.6,5,12.4,5.4c16.4-0.8,32.4-2.5,49-2.9C79.5,36.7,79.2,36.4,78.9,36.3z"/>
	<path class="st2" d="M75.6,80.3c3.9-4.7,6.4-9.5,6.1-13.6c-0.1-1.7-0.2-3.3-0.3-5c-16.5,1.1-32.9,0.7-49.4,1.6
		c0.3,5.7,0.7,11.7,1.1,17.2C47.2,80.6,61.4,80.4,75.6,80.3z"/>
	<path class="st3" d="M33.1,80.5c0.7,10.4,1.5,18.8,2,19c0.1,1.9,3.5,2.1,8.3,1.6c8.9-1.1,23.9-10.7,32.2-20.8
		C61.4,80.4,47.2,80.6,33.1,80.5z"/>
	<path class="st0" d="M79.8,37.6c0-0.2-0.1-0.4-0.2-0.6c-16.5,0.4-32.6,2.1-49,2.9c0,0,0,0,0,0c0,0,0.5,10.9,1.3,23.4
		c16.5-0.9,32.9-0.5,49.4-1.6C80.5,49.2,79.8,37.8,79.8,37.6z"/>
	<path class="st4" d="M81.7,66.7c-0.9-14.3-1.9-28.8-1.9-29.1c0-0.5-0.4-1-0.9-1.2c0,0-10.2-4.5-11.7-5.2c0-1.7-0.6-24.4-0.6-24.4
		c0-0.8-0.7-1.4-1.5-1.4c-0.8,0-47.8,1.5-47.8,2.3c0,0,0.8,26.8,0.8,26.8c0,0.6,11.9,5.2,12.4,5.4c0,0,3,59,4.4,59.6
		c0.1,1.9,3.5,2.1,8.3,1.6C56.5,99.4,82.5,79.6,81.7,66.7z"/>
	<path class="st0" d="M87.2,74.3c0.1-0.8,2.4-5.2,4.4-8.8c0.4-0.7,0.1-1.6-0.6-2c-0.7-0.4-48.5,0.7-48.5,2.1L37.9,76l0.1,0.3
		c16.5-0.9,32.5-1.6,49.2-1.6C87.2,74.5,87.2,74.4,87.2,74.3z"/>
	<path class="st1" d="M88.7,79.8c-0.6-2-1.2-4.1-1.4-5.1c-16.7,0.1-32.7,0.8-49.2,1.6l4.7,18.4c0,0,0,0.1,0,0.2
		c16.4-0.4,32.7-0.9,49.3-2C91.8,90.5,90.4,85.5,88.7,79.8z"/>
	<path class="st2" d="M42.7,95c-0.2,1-1,5.5-2.4,5.9c-1.6,0.5-5,1.8-1.2,1.8c3.8,0,46-2.3,47.2-2.3c2.3,0,5.6-2.4,5.6-6.9
		c0-0.2,0-0.3,0-0.5C75.4,94.1,59.1,94.5,42.7,95z"/>
	<path class="st4" d="M86.4,100.4c2.3,0,5.6-2.4,5.6-6.9c0-2.3-1.5-7.6-3.3-13.7c-0.7-2.3-1.5-4.9-1.5-5.4c0.1-0.8,2.4-5.2,4.4-8.8
		c0.4-0.7,0.1-1.6-0.6-2c-0.7-0.4-48.5,0.7-48.5,2.1L37.9,76l4.8,18.8c0,0-0.8,5.6-2.4,6.1c-1.6,0.5-5,1.8-1.2,1.8
		C43,102.7,85.2,100.4,86.4,100.4z"/>
	<path class="st5" d="M17.4,7.6c-0.8,0-1.4,0.7-1.4,1.5c0,0,0.6,25.4,0.6,25.4c0,0.6,0.4,1.1,0.9,1.3c0,0,10.3,4.5,11.7,5.2
		c0.4,7.1,3.3,52.2,3.8,55.8c0.6,5.5,4.5,5.9,5.7,5.9c2.3,0,5.6-2.4,5.6-6.9c0-2.3-1.5-7.6-3.3-13.7c-0.7-2.3-1.5-4.9-1.5-5.4
		c0.1-0.8,2.4-5.2,4.4-8.8c0.4-0.7,0.1-1.6-0.6-2c-0.7-0.4-1.6-0.1-2,0.6c-2.2,3.9-4.8,8.8-4.8,10.3c0,0.7,0.4,2.1,1.6,6.2
		c1.3,4.3,3.2,10.8,3.2,12.9c0,2.8-1.9,4-2.7,4c-1.6,0-2.5-1.1-2.8-3.3c-0.5-3.8-3.8-56-3.8-56.6c0-0.5-0.4-1-0.9-1.2
		c0,0-10.2-4.5-11.7-5.2c0-1.7-0.6-24.4-0.6-24.4C18.9,8.3,18.2,7.6,17.4,7.6z"/>
	<path class="st6" d="M84.3,74.4"/>
	<line class="st7" x1="22.9" y1="33.4" x2="62.2" y2="31.2"/>
	<line class="st7" x1="75.2" y1="37.5" x2="35.1" y2="39.3"/>
	<line class="st7" x1="42.6" y1="76.4" x2="84.3" y2="74.4"/>
</g>
</svg>
