<?xml version="1.0" encoding="utf-8"?>
<!-- Generator: Adobe Illustrator 21.1.0, SVG Export Plug-In . SVG Version: 6.00 Build 0)  -->
<svg version="1.1" id="Layer_1" xmlns="http://www.w3.org/2000/svg" xmlns:xlink="http://www.w3.org/1999/xlink" x="0px" y="0px"
	 width="108px" height="108px" viewBox="0 0 108 108" style="enable-background:new 0 0 108 108;" xml:space="preserve">
<style type="text/css">
	.st0{fill:#FFFFFF;}
	.st1{fill:#E6E6E6;}
	.st2{fill:none;stroke:#000000;stroke-width:0.75;stroke-linecap:round;stroke-linejoin:round;stroke-miterlimit:10;}
	.st3{fill:#B3B3B3;}
	.st4{fill:#F2F2F2;}
	.st5{fill:#CCCCCC;stroke:#000000;stroke-width:0.75;stroke-linecap:round;stroke-linejoin:round;stroke-miterlimit:10;}
	.st6{fill:#FFFFFF;stroke:#000000;stroke-width:0.75;stroke-linecap:round;stroke-linejoin:round;stroke-miterlimit:10;}
	.st7{fill:#FFFFFF;stroke:#000000;stroke-width:0.5;stroke-linecap:round;stroke-linejoin:round;stroke-miterlimit:10;}
</style>
<g>
	<path class="st0" d="M84.4,39.6l2.3-5.4c0-1.3-1.1-3.4-2.3-3.6c-6.2-0.8-10.9-3.8-10.9-7.9c0-4.8,0-10.1,0-13.5c0-3-1.4-4.9-3.4-5
		c-2-0.1-4.4,1.8-4.4,4.4c0,3-0.5,12.2-0.6,15.1C70.3,30.5,76.9,36,84.4,39.6z"/>
	<path class="st1" d="M65.1,23.8c0,0.2,0,0.3,0,0.4c0,2.3,0.6,7.5,4.7,10c4.1,2.4,14.4,6.3,14.4,6.3l0.3-0.8
		C76.9,36,70.3,30.5,65.1,23.8z"/>
	<path class="st2" d="M86.7,34.2c0-1.3-1.1-3.4-2.3-3.6c-6.2-0.8-10.9-3.8-10.9-7.9c0-4.8,0-10.1,0-13.5c0-3-1.4-4.9-3.4-5
		c-2-0.1-4.4,1.8-4.4,4.4c0,3.1-0.6,13.2-0.6,15.5s0.6,7.5,4.7,10c4.1,2.4,14.4,6.3,14.4,6.3L86.7,34.2z"/>
	<path class="st0" d="M86.7,37.1c0-2.9,0.4-4.7-4.7-4.1c-5.1,0.6-43.1,5.7-45.2,6s-5.1,0.5-5.1,4.5c0,1.5-0.1,9.9-0.2,19.6
		c18.2-2.6,36.4-5.4,54.6-8.6C86.4,47.5,86.6,38.8,86.7,37.1z"/>
	<path class="st3" d="M31.3,81c-0.1,9.3-0.2,16.7-0.2,16.7s-0.2,4.3,1.9,3.7c1.2-0.3,17.6-12,31.8-22.2C53.6,79.3,42.4,79.6,31.3,81
		z"/>
	<path class="st1" d="M85.8,64c0,0,0.1-4.3,0.3-9.5c-18.2,3.1-36.4,5.9-54.6,8.6C31.4,69,31.4,75.3,31.3,81
		c11.1-1.3,22.3-1.7,33.5-1.8C76,71.1,85.8,64,85.8,64z"/>
	<path class="st2" d="M85.8,64c0,0,0.8-23.9,0.9-26.9c0-2.9,0.4-4.7-4.7-4.1c-5.1,0.6-43.1,5.7-45.2,6c-2.1,0.3-5.1,0.5-5.1,4.5
		c0,4-0.6,54.2-0.6,54.2s-0.2,4.3,1.9,3.7C35.2,100.8,85.8,64,85.8,64z"/>
	<path class="st0" d="M91.2,82.9c-1.3-4.8-2.6-9.5-2.8-12.3c-18,3-36.4,3.9-54.1,7.7c0.9,4.5,2.8,12.6,2.8,15.9c0,0.5-0.1,1-0.1,1.6
		c17.8-2.7,36.3-4.5,54.4-7.4C91.8,86.7,91.7,84.9,91.2,82.9z"/>
	<path class="st1" d="M37,95.7c-0.7,3.9-3.5,8-3.5,8s49.2-7.8,52.6-8.7c2.4-0.6,4.7-3.1,5.4-6.7C73.3,91.2,54.9,93,37,95.7z"/>
	<path class="st4" d="M88.7,68.4c0.9-1.8,3.4-6.8,4.7-8.1s0.1-3.6-3.7-2.8C85.8,58.2,40,64.8,40,64.8s-6.1,8.5-6.1,10.5
		c0,0.5,0.2,1.5,0.5,2.9c17.7-3.8,36.1-4.7,54.1-7.7C88.4,69.6,88.4,68.9,88.7,68.4z"/>
	<path class="st2" d="M33.5,103.7c0,0,49.2-7.8,52.6-8.7c3.4-0.9,6.8-5.7,5.1-12.1c-1.7-6.4-3.4-12.7-2.6-14.5s3.4-6.8,4.7-8.1
		c1.3-1.3,0.1-3.6-3.7-2.8C85.8,58.2,40,64.8,40,64.8s-6.1,8.5-6.1,10.5c0,2,3.3,14.5,3.3,18.8S33.5,103.7,33.5,103.7z"/>
	<path class="st0" d="M29.5,45.6c0.8-2.5,2-4.6,4.2-6.3c-1.2-0.1-2.6-0.3-4-0.9c-3.6-1.4-7.1-4.9-7.1-7.1V17.8c0-3-1.4-4.9-3.4-5
		c-2-0.1-4.4,1.8-4.4,4.4c0,2.1-0.3,7.4-0.4,11.3C15.9,36.1,22.1,42.5,29.5,45.6z"/>
	<path class="st1" d="M14.3,28.5c-0.1,1.9-0.1,3.5-0.1,4.2c0,2.3,0.6,7.5,4.7,10c2.4,1.4,6.8,3.3,10.2,4.6c0.1-0.6,0.3-1.2,0.5-1.7
		C22.1,42.5,15.9,36.1,14.3,28.5z"/>
	<path class="st2" d="M33.6,39.2c-1.2-0.1-2.6-0.3-4-0.9c-3.6-1.4-7.1-4.9-7.1-7.1V17.8c0-3-1.4-4.9-3.4-5c-2-0.1-4.4,1.8-4.4,4.4
		c0,3.1-0.6,13.2-0.6,15.5s0.6,7.5,4.7,10c2.4,1.4,6.8,3.3,10.2,4.6C29.7,44.1,31,41.3,33.6,39.2z"/>
	<path class="st5" d="M37.2,39.1c-0.4,0-0.7,0.1-1.1,0.2C37.3,39.2,37.8,39,37.2,39.1z"/>
	<path class="st5" d="M40.9,65.1c-0.6-0.5-1.5-0.4-2,0.3c-1.4,1.8-6,8-6,11c0,1.4,0.6,4.5,1.2,8.1c0.8,4.1,1.6,8.7,1.6,10.7
		c0,3.5-1.2,5.7-2.2,5.7c-1.6,0-2.4,0-2.4-4.4c0-3.7,1-50.8,1-53.2c0-2,1.9-3.4,4-4c-0.7,0-1.5,0.1-2.5,0c-2.7,2-3.9,4.9-4.6,8
		c0,0,0.1,0,0.1,0.1c-0.2,10.4-0.9,45.2-0.9,49.1c0,3.7,0.4,7.3,5.3,7.3c3.1,0,5.1-3.4,5.1-8.6c0-2.3-0.8-6.9-1.6-11.2
		c-0.6-3.2-1.2-6.4-1.2-7.5c0-1.4,2.8-5.8,5.4-9.2C41.7,66.5,41.5,65.6,40.9,65.1z"/>
	<line class="st6" x1="89.4" y1="60.4" x2="41.2" y2="67.2"/>
	<line class="st7" x1="39.9" y1="77.4" x2="82.2" y2="71.4"/>
</g>
</svg>
