<?xml version="1.0" encoding="utf-8"?>
<!-- Generator: Adobe Illustrator 21.1.0, SVG Export Plug-In . SVG Version: 6.00 Build 0)  -->
<svg version="1.1" id="Layer_1" xmlns="http://www.w3.org/2000/svg" xmlns:xlink="http://www.w3.org/1999/xlink" x="0px" y="0px"
	 width="108px" height="108px" viewBox="0 0 108 108" style="enable-background:new 0 0 108 108;" xml:space="preserve">
<style type="text/css">
	.st0{fill:#999999;stroke:#000000;stroke-width:0.75;stroke-linecap:round;stroke-linejoin:round;stroke-miterlimit:10;}
	.st1{fill:#FFFFFF;}
	.st2{fill:#F2F2F2;}
	.st3{fill:#E6E6E6;}
	.st4{fill:none;stroke:#000000;stroke-width:0.75;stroke-linecap:round;stroke-linejoin:round;stroke-miterlimit:10;}
	.st5{fill:#CCCCCC;}
	.st6{fill:#CCCCCC;stroke:#000000;stroke-width:0.75;stroke-linecap:round;stroke-linejoin:round;stroke-miterlimit:10;}
</style>
<g>
	<path class="st0" d="M23.6,33.9c0.2-0.3,0.9-1.7,0.5-4.5c-0.2-1.3-0.5-2.1-0.8-2.8c-0.4-0.9-0.7-1.8-1-4.1c-0.2-1.4,0-2.9,0.6-3.8
		c0.3-0.5,0.7-0.8,1.1-0.8c1.1-0.1,2.8,1.8,3,3.3c0.2,1.2,0.9,5.8,2,12.1L23,34.6C23.2,34.4,23.5,34.2,23.6,33.9z"/>
	<path class="st1" d="M68.6,14.8c-0.5-3.3-3.4-6.4-5.9-6.2c-1.1,0.1-33.6,4.5-39,6.2c0,0,0.1,0,0.1,0c1-0.1,2,0.3,2.9,1.1
		c1.2,1,2.3,2.5,2.8,4.1c13.1-1.3,26-3.4,39.1-5C68.6,14.8,68.6,14.8,68.6,14.8z"/>
	<path class="st2" d="M73.7,45.7c-2.5-14.6-4.8-28.3-5.2-30.9c-13.2,1.6-26.1,3.6-39.1,5c0.1,0.3,0.2,0.7,0.2,1
		c0.2,1.2,0.9,5.7,2,12c0.9,5.4,2,12.1,3.2,19c1.7,10.2,3.5,20.6,4.7,28.1c12.9-2.1,26.1-4.3,38.9-5.9C77.3,66.5,75.5,56,73.7,45.7z
		"/>
	<path class="st3" d="M45.9,82.3L45.9,82.3c2.6-0.8,22.5-3.8,33.1-5.2c-0.2-0.9-0.3-1.9-0.5-3c-12.9,1.6-26,3.8-38.9,5.9
		c0.9,5.4,1.5,9.3,1.7,10.7c0.8,5.5,3.2,5.5,3.9,5.5c0.9-0.1,1.8-1.1,1.7-2.1c-0.1-0.6-0.6-1.4-1-2.3c-0.7-1.3-1.5-2.7-1.7-4.4
		c-0.4-3,0.6-4.2,0.8-4.5C45.2,82.5,45.5,82.3,45.9,82.3z"/>
	<path class="st4" d="M46.9,94.1c0.1,1-0.8,2-1.7,2.1c-0.7,0.1-3.1,0-3.9-5.5c-0.5-3.3-3.5-21.4-6.5-38.8c-1.2-6.9-2.3-13.6-3.2-19
		c-1.1-6.3-1.8-10.8-2-12c-0.3-2-1.5-4-3-5.1c-0.9-0.7-2-1.1-2.9-1.1c0,0-0.1,0-0.1,0c5.4-1.6,37.9-6.1,39-6.2
		c2.5-0.2,5.5,2.9,5.9,6.2c0.3,2.1,2.7,16.2,5.2,31c2,11.7,4,23.7,5.3,31.3c-10.6,1.4-30.5,4.4-33.1,5.2h0c-0.4,0-0.8,0.2-1,0.6
		c-0.2,0.3-1.2,1.5-0.8,4.5c0.2,1.7,1,3.1,1.7,4.4C46.3,92.6,46.8,93.5,46.9,94.1z"/>
	<path class="st1" d="M86,78.7c0.4-0.7,0.3-1.7-0.4-2.3c-0.2-0.1-2.8,0.1-6.6,0.6c-10.6,1.4-30.5,4.4-33.1,5.2
		c0.3,0,0.6,0.1,0.9,0.3c0.6,0.5,0.8,1.6,0.4,2.3c-0.1,0.2-0.2,0.3-0.3,0.5c13.1-2.1,25.8-3.8,38.7-5.7C85.7,79.3,85.9,79,86,78.7z"
		/>
	<path class="st3" d="M88.4,87.6c-0.2-1.3-0.8-2.5-1.4-3.6c-0.6-1-1.2-1.9-1.3-2.8c-0.1-0.7-0.1-1.1,0-1.5c-13,2-25.6,3.6-38.7,5.7
		c-0.2,0.4-0.3,0.9-0.2,1.9c0.1,0.9,0.8,1.8,1.3,2.8c0.6,1.2,1.3,2.3,1.4,3.6c0,0.3,0.1,0.6,0,0.9c12.8-2.6,25.6-5.1,38.9-6.7
		C88.4,87.8,88.4,87.7,88.4,87.6z"/>
	<path class="st5" d="M49.6,94.6c0,0.6-0.1,1.1-0.2,1.6c-0.5,1.5-1.6,2.5-2.8,3c9.4-1.6,35.5-5.6,38-5.9c2.1-0.3,4.1-2.5,3.9-5.4
		C75.2,89.5,62.3,92,49.6,94.6z"/>
	<path class="st4" d="M84.5,93.3c-2.5,0.3-28.6,4.4-38,5.9c1.2-0.5,2.3-1.6,2.8-3c0.2-0.7,0.3-1.6,0.2-2.4c-0.2-1.3-0.8-2.5-1.4-3.6
		c-0.6-1-1.2-1.9-1.3-2.8c-0.2-1.5,0.1-1.9,0.4-2.4c0.4-0.7,0.2-1.7-0.4-2.3c-0.3-0.2-0.6-0.3-0.9-0.3c2.6-0.8,22.5-3.8,33.1-5.2
		c3.9-0.5,6.5-0.8,6.6-0.6c0.6,0.5,0.8,1.6,0.4,2.3c-0.3,0.5-0.6,0.9-0.4,2.4c0.1,0.9,0.8,1.8,1.3,2.8c0.6,1.1,1.3,2.3,1.4,3.6
		C88.8,90.6,86.7,93,84.5,93.3z"/>
	<path class="st6" d="M49.3,96.2c-0.5,1.5-1.6,2.5-2.8,3c-0.3,0.1-0.6,0.2-0.9,0.2c-2.6,0.4-6-1.6-7-8.3c-0.5-3.3-3.6-22.1-6.4-38.7
		c-1.2-6.9-2.3-13.6-3.2-19c-1.1-6.3-1.8-10.9-2-12.1c-0.2-1.6-1.9-3.4-3-3.3c-0.4,0-0.8,0.3-1.1,0.8c-0.6,0.9-0.8,2.3-0.6,3.8
		c0.3,2.3,0.7,3.2,1,4.1c0.3,0.7,0.6,1.5,0.8,2.8c0.4,2.8-0.4,4.2-0.5,4.5c-0.1,0.2-0.4,0.5-0.6,0.6c-0.5,0.3-1.1,0.4-1.5,0
		c-0.6-0.5-0.8-1.6-0.3-2.3c0,0,0.6-0.8,0.3-2.5C21.4,29,21.2,28.6,21,28c-0.4-1-0.9-2.2-1.3-5c-0.3-2.4,0.1-4.6,1.1-6.3
		c0.8-1.2,1.8-1.9,2.9-2c0,0,0.1,0,0.1,0c1-0.1,2,0.3,2.9,1.1c1.5,1.2,2.7,3.1,3,5.1c0.2,1.2,0.9,5.7,2,12c0.9,5.4,2,12.1,3.2,19
		c3,17.5,6,35.5,6.5,38.8c0.8,5.5,3.2,5.5,3.9,5.5c0.9-0.1,1.8-1.1,1.7-2.1c-0.1-0.6-0.6-1.4-1-2.3c-0.7-1.3-1.5-2.7-1.7-4.4
		c-0.4-3,0.6-4.2,0.8-4.5c0.2-0.4,0.6-0.6,1-0.6h0c0.3,0,0.6,0.1,0.9,0.3c0.6,0.5,0.8,1.6,0.4,2.3c-0.3,0.5-0.6,0.9-0.4,2.4
		c0.1,0.9,0.8,1.8,1.3,2.8c0.6,1.2,1.3,2.3,1.4,3.6C49.6,94.6,49.5,95.4,49.3,96.2z"/>
</g>
</svg>
