<?xml version="1.0" encoding="utf-8"?>
<!-- Generator: Adobe Illustrator 21.1.0, SVG Export Plug-In . SVG Version: 6.00 Build 0)  -->
<svg version="1.1" id="Layer_1" xmlns="http://www.w3.org/2000/svg" xmlns:xlink="http://www.w3.org/1999/xlink" x="0px" y="0px"
	 width="108px" height="108px" viewBox="0 0 108 108" style="enable-background:new 0 0 108 108;" xml:space="preserve">
<style type="text/css">
	.st0{fill:#FFFFFF;}
	.st1{fill:#F2F2F2;}
	.st2{fill:#E6E6E6;}
	.st3{fill:none;stroke:#000000;stroke-width:0.75;stroke-linecap:round;stroke-linejoin:round;stroke-miterlimit:10;}
	.st4{fill:#999999;stroke:#000000;stroke-width:0.75;stroke-linecap:round;stroke-linejoin:round;stroke-miterlimit:10;}
	.st5{fill:#FFFFFF;stroke:#000000;stroke-width:0.75;stroke-linecap:round;stroke-linejoin:round;stroke-miterlimit:10;}
	.st6{fill:#CCCCCC;}
	.st7{fill:#CCCCCC;stroke:#000000;stroke-width:0.75;stroke-linecap:round;stroke-linejoin:round;stroke-miterlimit:10;}
	.st8{fill:none;stroke:#000000;stroke-width:0.5;stroke-linecap:round;stroke-linejoin:round;stroke-miterlimit:10;}
</style>
<g>
	<path class="st0" d="M73.2,17.3c-0.7-4.4-3.5-6.2-5.8-5.9c-2,0.2-36.4,4.9-44.7,6.5c2.2,0.1,4.7,2,5.3,6.1l0.2,1.2
		c15.1-3,30.1-5.2,45.2-7.6L73.2,17.3z"/>
	<path class="st1" d="M73.2,17.6c-15.1,2.3-30.1,4.6-45.2,7.6l5.8,38.6C48.8,60.8,64,59,79.2,57L73.2,17.6z"/>
	<path class="st2" d="M33.9,63.8L38,91.3c0.3,2.3,1.4,3.4,3,3.4c0.5,0,1.8,0,1.8-4c0-2.9-1.7-7.2-3.1-10.7c-1.2-2.8-1.8-4.5-1.8-5.6
		c0-2.4,2.5-8,3-9.1c0.1-0.3,0.4-0.5,0.6-0.5c0.2-0.1,0.5,0,0.7,0.1c0,0,0.1,0.1,0.1,0.1c0,0,0,0,0-0.1l-0.2-0.4l1-0.1l0.2,0l0,0
		c4.2-0.6,24.5-3.6,36-5.2L79.2,57C64,59,48.8,60.8,33.9,63.8z"/>
	<path class="st3" d="M79.5,59.3c-11.6,1.6-31.8,4.6-36,5.2l0,0l-0.2,0l-1,0.1l0.2,0.4c0,0,0,0,0,0.1c0,0-0.1-0.1-0.1-0.1
		c-0.2-0.2-0.5-0.2-0.7-0.1c-0.3,0.1-0.5,0.3-0.6,0.5c-0.5,1.1-3,6.6-3,9.1c0,1.1,0.6,2.8,1.8,5.6c1.4,3.5,3.1,7.7,3.1,10.7
		c0,4-1.3,4-1.8,4c-1.7,0-2.7-1.2-3-3.4L27.9,24c-0.6-4.1-3.1-5.9-5.3-6.1c8.3-1.7,42.7-6.3,44.7-6.5c2.3-0.3,5.2,1.5,5.8,5.9
		L79.5,59.3z"/>
	<path class="st4" d="M21.5,51.9c0.7-0.8,3.8-5,3.8-9c0-2.1-1.2-5.5-2.6-9.5c-1.4-3.9-2.9-8.2-2.9-10.6c0-1.6,1.1-2.5,2.3-2.6
		c1.6-0.2,3.5,1,4,4.2L30,50.5C28.7,50.8,26,51.3,21.5,51.9z"/>
	<path class="st5" d="M88,59.6c-0.1,0.2-0.2,0.5-0.3,0.7l-1.8,0.2c0,0,0,0,0,0.1l-6,0.8l-36.5,5L42.5,65c0.1-0.2,0.2-0.4,0.2-0.4
		s0.2,0,0.6-0.1l0.2,0l0,0c4.2-0.6,24.5-3.6,36-5.2c3.4-0.5,6.1-0.8,7.4-1c0.5,0,0.8-0.1,0.8,0C88,58.6,88.2,59.2,88,59.6z"/>
	<path class="st6" d="M85.2,67.7c0-1.3,1.4-5,2.5-7.3l-1.9,0.3l-6,0.8l-36.5,5L42.5,65c0,0,0,0,0,0.1c0.4,0.3,0.5,0.9,0.2,1.4
		c-1.1,2.3-2.8,6.5-2.8,8c0,0,0,0.1,0,0.1c15.2-2.4,30.4-4.2,45.3-6.4C85.2,67.9,85.2,67.8,85.2,67.7z"/>
	<path class="st2" d="M86.8,72.4c-0.6-1.6-1.4-3.3-1.6-4.3c-14.9,2.3-30.1,4-45.3,6.4c0,0,0,0,0,0c0.1,0.8,0.9,2.8,1.6,4.5
		c1.4,3.4,3,7.6,3.3,10.9c15.1-2.2,30.4-3.6,45.3-6.6C89.9,80,88.2,75.8,86.8,72.4z"/>
	<path class="st6" d="M44.8,90c0,0.2,0,0.5,0,0.7c0,3.6-1,5.1-2.1,5.8c0.2,0,0.3-0.1,0.5-0.1c0,0,43-6.4,43.3-6.4
		c1.3,0,3.6-0.8,3.6-6.1c0-0.2,0-0.4,0-0.6C75.2,86.3,59.8,87.8,44.8,90z"/>
	<path class="st3" d="M90.1,83.9c0,5.3-2.2,6.1-3.6,6.1c-0.3,0-43.3,6.4-43.3,6.4c-0.2,0-0.4,0.1-0.5,0.1c1.1-0.7,2.1-2.2,2.1-5.8
		c0-3.5-1.8-8-3.3-11.6c-0.7-1.7-1.5-3.7-1.6-4.5c0,0,0-0.1,0-0.1c0-1.4,1.7-5.7,2.8-8c0.2-0.5,0.1-1.1-0.2-1.4c0,0,0,0,0-0.1
		l0.9,1.4l36.5-5l6-0.8l1.9-0.3c-1.1,2.4-2.5,6-2.5,7.3c0,0.7,0.9,2.8,1.6,4.7C88.3,76,90.1,80.5,90.1,83.9z"/>
	<path class="st7" d="M44.8,90.7c0,3.6-1,5.1-2.1,5.8c-0.4,0.1-0.4,0.1-0.1,0.1c-0.5,0.3-1.1,0.4-1.5,0.4c-2.6,0-4.4-1.9-4.9-5.3
		L30,50.5L26,24.4c-0.5-3.2-2.4-4.4-4-4.2c-1.1,0.1-2.3,1-2.3,2.6c0,2.3,1.5,6.7,2.9,10.6c1.4,4,2.6,7.4,2.6,9.5c0,4-3.2,8.2-3.8,9
		c-0.1,0.1-0.1,0.1-0.1,0.1c-0.2,0.2-0.4,0.3-0.7,0.3c-0.3,0-0.5-0.1-0.7-0.3c-0.3-0.5-0.3-1.1,0-1.6c0,0,3.4-4.2,3.4-7.6
		c0-1.7-1.3-5.2-2.5-8.7c-1.5-4.3-3-8.6-3-11.4c0-2.6,1.6-4.6,4-4.9c0.3,0,0.5,0,0.8,0c2.2,0.1,4.7,2,5.3,6.1L38,91.3
		c0.3,2.3,1.4,3.4,3,3.4c0.5,0,1.8,0,1.8-4c0-2.9-1.7-7.2-3.1-10.7c-1.2-2.8-1.8-4.5-1.8-5.6c0-2.4,2.5-8,3-9.1
		c0.1-0.3,0.4-0.5,0.6-0.5c0.2-0.1,0.5,0,0.7,0.1c0,0,0.1,0.1,0.1,0.1c0.4,0.3,0.5,0.9,0.2,1.4c-1.1,2.3-2.8,6.5-2.8,8
		c0,0,0,0.1,0,0.1c0.1,0.8,0.9,2.8,1.6,4.5C43,82.7,44.8,87.2,44.8,90.7z"/>
	<line class="st8" x1="30.4" y1="19.2" x2="67.8" y2="13.9"/>
	<line class="st8" x1="42.7" y1="74.4" x2="81.7" y2="68.6"/>
</g>
</svg>
