<?xml version="1.0" encoding="utf-8"?>
<!-- Generator: Adobe Illustrator 21.1.0, SVG Export Plug-In . SVG Version: 6.00 Build 0)  -->
<svg version="1.1" id="Layer_1" xmlns="http://www.w3.org/2000/svg" xmlns:xlink="http://www.w3.org/1999/xlink" x="0px" y="0px"
	 width="108px" height="108px" viewBox="0 0 108 108" style="enable-background:new 0 0 108 108;" xml:space="preserve">
<style type="text/css">
	.st0{fill:#999999;stroke:#000000;stroke-width:0.75;stroke-linecap:round;stroke-linejoin:round;stroke-miterlimit:10;}
	.st1{fill:#F2F2F2;}
	.st2{fill:#E6E6E6;}
	.st3{fill:#FFFFFF;}
	.st4{fill:none;stroke:#000000;stroke-width:0.75;stroke-linecap:round;stroke-linejoin:round;stroke-miterlimit:10;}
	.st5{fill:#CCCCCC;stroke:#000000;stroke-width:0.75;stroke-linecap:round;stroke-linejoin:round;stroke-miterlimit:10;}
	.st6{fill:#FFFFFF;stroke:#000000;stroke-width:0.5;stroke-linecap:round;stroke-linejoin:round;stroke-miterlimit:10;}
</style>
<g>
	<path class="st0" d="M24,37.1l0.3-1.7c-0.2-1-1.1-1.7-1.6-2c-2.1-1.3-3.9-2.8-5.5-4.3c-1.2-1.2-1.9-2.7-1.9-4.2
		c0-1.6,0.6-3.3,1.9-4.8c1.3-1.5,3.4-2.3,6.2-2.3c4.6,0,5.7,4.5,6.3,9.3c0.1,0.8,0.8,8.4,1.7,18l-13.5,1.5c0.2,0,0.4-0.1,0.5-0.3
		l0,0c0.2-0.2,0.8-1.3,0.8-1.3L24,37.1z"/>
	<path class="st1" d="M74.2,18.6c0-0.3,0-0.5-0.1-0.8c-15.2,0.7-30.2,3.6-45.1,5.5c0.3,1.2,0.5,2.5,0.6,3.9c0.1,0.8,0.8,8.4,1.7,18
		l1.3-0.1c0,0,0.5,6,1.2,13.6c14.4-2.5,29.1-4.1,43.7-5.4C76.4,42.5,74.4,23.6,74.2,18.6z"/>
	<path class="st2" d="M33.9,58.7c0.9,10.2,2.1,23.3,2.5,28.4c0.8,8.9,5,7.8,6.6,7.8c0.8,0,3.6-0.4,6.2-0.7c2.5-0.3,4.8-0.7,4.8-0.7
		l24.4-32.8c0,0-0.3-3.1-0.8-7.5C63,54.5,48.3,56.2,33.9,58.7z"/>
	<path class="st3" d="M65.9,11.7l-41.8,3.8c0,0,0,0,0,0c-1.4,0-2.6,0.3-3.7,0.9c0.2,0.6,0.5,1.2,0.7,1.8c0.7-0.1,1.5-0.2,2.3-0.2
		c3.3,0,4.8,2.3,5.6,5.4c14.9-1.9,29.9-4.8,45.1-5.5C73.8,13.3,71.3,11.4,65.9,11.7z"/>
	<path class="st4" d="M74.2,18.6c-0.2-5-2.7-7.2-8.3-6.8l-41.8,3.8c0,0,0,0,0,0c-1.4,0-2.6,0.3-3.7,0.9c0.2,0.6,0.5,1.2,0.7,1.8
		c0.7-0.1,1.5-0.2,2.3-0.2c4.6,0,5.7,4.5,6.3,9.3c0.1,0.8,0.8,8.4,1.7,18l1.3-0.1c0,0,2.9,33.2,3.7,42c0.8,8.9,5,7.8,6.6,7.8
		c0.8,0,3.6-0.4,6.2-0.7c2.5-0.3,4.8-0.7,4.8-0.7l24.4-32.8C78.4,60.8,74.5,25.7,74.2,18.6z"/>
	<path class="st3" d="M93.9,80.8c-1.3-3.7-5.5-14.8-6.1-17.1c-14.6,1.4-29.7,2.5-44.2,4.7c0.7,3.9,6.1,15.7,6.1,20.3
		c0,0.1,0,0.2,0,0.3c15-1.2,29.8-2,45-4.4C94.6,83.3,94.3,81.9,93.9,80.8z"/>
	<path class="st2" d="M49.7,89c-0.2,4.8-4.4,7.2-4.4,7.2s39.2-4.8,44.8-4.8c4,0,5-3.4,4.7-6.8C79.5,87,64.7,87.8,49.7,89z"/>
	<path class="st1" d="M87.7,63.3c0-0.8,1.4-4.4,1.8-5.5l-43.1,3.5l-0.4-1.7c0,0-2.6,5.1-2.6,8.1c0,0.2,0,0.4,0.1,0.7
		c14.5-2.2,29.6-3.3,44.2-4.7C87.8,63.5,87.7,63.3,87.7,63.3z"/>
	<path class="st4" d="M90.1,91.4c-5.6,0-44.8,4.8-44.8,4.8s4.5-2.5,4.5-7.5c0-5-6.2-18-6.2-21c0-3,2.6-8.1,2.6-8.1l0.4,1.7l43.1-3.5
		c-0.4,1.1-1.8,4.7-1.8,5.5c0,0.9,4.7,13.5,6.1,17.5C95.3,84.7,95.7,91.4,90.1,91.4z"/>
	<path class="st5" d="M89.7,57.5c0,0,0,0.1-0.1,0.2c0,0,0,0,0,0.1l-43.1,3.5l-0.4-1.7L89,56.1L89.7,57.5z"/>
	<line class="st6" x1="48.6" y1="67.6" x2="84.7" y2="64.4"/>
	<line class="st6" x1="33.3" y1="17.5" x2="66.5" y2="14.2"/>
	<path class="st5" d="M50.4,92.9c-0.3,0.5-0.8,0.9-1.2,1.3c-1.8,1.5-3.9,2.1-5.2,2.1c-2.7,0-7.2-1.9-8.1-7.1
		c-0.5-2.8-2.8-26.8-4.5-44c-0.9-9.6-1.7-17.2-1.7-18c-0.5-4.8-1.6-9.3-6.3-9.3c-2.8,0-4.9,0.8-6.2,2.3c-1.3,1.4-1.9,3.1-1.9,4.8
		c0,1.5,0.7,3,1.9,4.2c1.5,1.5,3.3,3,5.5,4.3c0.5,0.3,1.4,1,1.6,2L24,37.1l-4.8,8c0,0-0.6,1.1-0.8,1.3l0,0c-0.1,0.1-0.3,0.2-0.5,0.3
		c-0.1,0-0.1,0-0.2,0c-0.6,0-1.1-0.5-1.1-1.2c0-0.2,0.1-0.5,0.1-0.5c0,0,0,0,0,0c0,0,0,0,0,0c0.1-0.2,4.7-7.8,5.5-9.1
		c-0.1-0.1-0.2-0.2-0.4-0.3c-2.2-1.4-4.2-3-5.8-4.6c-1.7-1.7-2.6-3.8-2.7-6v-0.2c0-2.3,0.9-4.5,2.5-6.4c1.7-2,4.3-3,7.7-3
		c0.2,0,0.4,0,0.7,0c0,0,0,0,0,0c6.6,0.5,7.4,8.1,7.7,11.4c0,0.6,5.5,57.5,6.2,61.8c0.7,3.8,4.3,5.1,6,5.1c1.2,0,3.5-0.8,4.7-2.5
		c0.8-1.1,1-2.4,0.8-3.9c-0.5-3.1-2.8-8.7-4.6-13.2c-1.9-4.7-2.6-6.5-2.6-7.4c0-2.1,1.9-5.9,2.3-6.7c0.3-0.6,1-0.8,1.5-0.5
		c0.5,0.3,0.7,1.1,0.4,1.7c-0.8,1.7-2,4.4-2,5.4c0.1,0.7,1.3,3.9,2.4,6.4c1.9,4.6,4.2,10.4,4.8,13.8C52,89.2,51.5,91.2,50.4,92.9z"
		/>
</g>
</svg>
