<?xml version="1.0" encoding="utf-8"?>
<!-- Generator: Adobe Illustrator 21.1.0, SVG Export Plug-In . SVG Version: 6.00 Build 0)  -->
<svg version="1.1" id="Layer_1" xmlns="http://www.w3.org/2000/svg" xmlns:xlink="http://www.w3.org/1999/xlink" x="0px" y="0px"
	 width="108px" height="108px" viewBox="0 0 108 108" style="enable-background:new 0 0 108 108;" xml:space="preserve">
<style type="text/css">
	.st0{fill:#999999;stroke:#000000;stroke-width:0.75;stroke-linecap:round;stroke-linejoin:round;stroke-miterlimit:10;}
	.st1{fill:#E6E6E6;stroke:#000000;stroke-width:0.75;stroke-linecap:round;stroke-linejoin:round;stroke-miterlimit:10;}
	.st2{fill:#FFFFFF;stroke:#000000;stroke-width:0.75;stroke-linecap:round;stroke-linejoin:round;stroke-miterlimit:10;}
	.st3{fill:#E6E6E6;}
	.st4{fill:#FFFFFF;}
	.st5{fill:none;stroke:#000000;stroke-width:0.75;stroke-linecap:round;stroke-linejoin:round;stroke-miterlimit:10;}
	.st6{fill:#CCCCCC;stroke:#000000;stroke-width:0.75;stroke-linecap:round;stroke-linejoin:round;stroke-miterlimit:10;}
	.st7{fill:none;stroke:#4D4D4D;stroke-width:0.5;stroke-linecap:round;stroke-linejoin:round;stroke-miterlimit:10;}
</style>
<g>
	<path class="st0" d="M26.9,64.2l-13.6,1.2c0,0,0,0,0,0c0.3,0,0.7-0.1,1-0.4c0.2-0.2,4.9-4.7,4.9-12.2L19,47.3
		c-0.3-4.9-0.8-11.5,0.9-13.6c0.3-0.4,0.8-0.6,1.4-0.6c2.3,0,2.8,5.4,3.1,8.6l0.1,0.8C24.5,43.9,25.7,53.6,26.9,64.2z"/>
	<path class="st1" d="M37.8,83.9c0,1.3,0,3-0.1,4.6c-0.1,1.6-0.3,3.1-0.6,4.1c-1,2.5-1.5,2.5-2,2.5c-0.8-0.1-1.8-1.8-2-2.8
		c-0.4-2.7-5.6-46.8-6-50.2l-0.1-0.7C26.7,37.1,26,30,21.3,30c-0.3,0-0.7,0-1,0.1c0.1-0.2,0.2-0.3,0.2-0.3l5.4-0.6
		c0.8,2.7,1.7,5.8,2.6,8.9c3.1,11.2,5.9,23.4,6.5,26.6l0.7,3.9c0.7,3.7,1.5,8.4,1.9,12.1C37.7,81.9,37.8,83,37.8,83.9z"/>
	<path class="st2" d="M39.3,90.5L39,91.1c0.1-0.8,0.1-1.6,0.1-2.5L39.3,90.5z"/>
	<path class="st3" d="M40.3,90.7c-0.2,1.2-0.4,2.3-0.7,3.2c-0.9,2.4-1.8,3.6-3.1,4.1c-0.3,0.2-0.5,0.3-0.7,0.3l55-6.2c0,0,0,0,0-0.1
		c1.8-0.2,3-1.3,4.2-4.2c0.7-1.8,0.9-4.6,1-7.1c-18.6,1.7-37.1,4-55.4,6.6C40.5,88.4,40.4,89.6,40.3,90.7z"/>
	<path class="st4" d="M93.8,62.4l-0.7-3.8c-0.6-3.7-3.7-16.3-6.6-26.5c-3.3-11.5-6.6-21.3-6.6-21.4c-0.3-0.8-1.1-1.2-1.8-0.9
		l-54.5,4.7c0.4,0.1,0.8,0.5,1,1c0,0.1,3.3,10,6.5,21.8c2.9,10.4,5.9,23.3,6.6,27l0.7,3.8c1,5.3,2.2,12,2.2,16c0,1,0,2.1,0,3.3
		c18.4-2.5,36.8-4.9,55.4-6.6c0-0.9,0-1.8,0-2.6C95.9,74.2,94.7,67.7,93.8,62.4z"/>
	<path class="st5" d="M93.8,62.4l-0.7-3.8c-0.6-3.7-3.7-16.3-6.6-26.5c-3.3-11.5-6.6-21.3-6.6-21.4c-0.3-0.8-1.1-1.2-1.8-0.9
		l-54.5,4.7c0.4,0.1,0.8,0.5,1,1c0,0.1,3.3,10,6.5,21.8c2.9,10.4,5.9,23.3,6.6,27l0.7,3.8c1,5.3,2.2,12,2.2,16c0,2,0,4.5-0.3,6.7
		c-0.2,1.2-0.4,2.3-0.7,3.2c-0.9,2.4-1.8,3.6-3.1,4.1c-0.3,0.2-0.5,0.3-0.7,0.3l55-6.2c0,0,0,0,0-0.1c1.8-0.2,3-1.3,4.2-4.2
		c1-2.5,1-6.7,1-9.7C95.9,74.2,94.7,67.7,93.8,62.4z"/>
	<path class="st2" d="M35.3,98.3c0,0,0.2,0,0.4,0L35.3,98.3z"/>
	<path class="st6" d="M38.4,68l-0.7-3.8c-0.6-3.7-3.7-16.6-6.6-27c-3.2-11.7-6.5-21.7-6.5-21.8c-0.2-0.5-0.5-0.9-1-1
		c-0.3-0.1-0.5-0.1-0.8,0c-0.7,0.3-1.1,1.2-0.8,2c0,0.1,1.8,5.3,3.9,12.7c0.8,2.7,1.7,5.8,2.6,8.9c3.1,11.2,5.9,23.4,6.5,26.6
		l0.7,3.9c0.7,3.7,1.5,8.4,1.9,12.1c0.1,1.2,0.2,2.3,0.2,3.2c0,1.3,0,3-0.1,4.6c-0.1,1.6-0.3,3.1-0.6,4.1c-1,2.5-1.5,2.5-2,2.5
		c-0.8-0.1-1.8-1.8-2-2.8c-0.4-2.7-5.6-46.8-6-50.2l-0.1-0.7C26.7,37.1,26,30,21.3,30c-0.3,0-0.7,0-1,0.1c-0.9,0.2-1.8,0.7-2.4,1.5
		c-2.5,3.1-2.1,9.9-1.7,16l0.3,5.3c0,6.1-3.9,9.8-3.9,9.9c-0.6,0.5-0.6,1.5-0.1,2.2c0.2,0.3,0.6,0.5,0.9,0.5c0.3,0,0.7-0.1,1-0.4
		c0.2-0.2,4.9-4.7,4.9-12.2L19,47.3c-0.3-4.9-0.8-11.5,0.9-13.6c0.3-0.4,0.8-0.6,1.4-0.6c2.3,0,2.8,5.4,3.1,8.6l0.1,0.8
		c0.1,1.5,1.3,11.3,2.5,21.8c1.5,12.9,3.2,27.1,3.5,28.6c0.3,2.1,2.1,5.2,4.5,5.4c0.6,0,1.1,0,1.6-0.2c1.2-0.5,2.2-1.8,3.1-4.1
		c0.3-0.9,0.6-2,0.7-3.2c0.3-2.2,0.3-4.7,0.3-6.7C40.5,80,39.3,73.3,38.4,68z"/>
	<path class="st7" d="M89.6,89.2c-2.4,0-3.1-2.2-3.3-3.2c-0.4-2.6-5.7-45.8-6-49.1l-0.1-0.7c-0.4-4.1-1-11.1-5.9-11.1"/>
	<line class="st7" x1="31.9" y1="28.8" x2="72" y2="25.4"/>
</g>
</svg>
