<?xml version="1.0" encoding="utf-8"?>
<!-- Generator: Adobe Illustrator 21.1.0, SVG Export Plug-In . SVG Version: 6.00 Build 0)  -->
<svg version="1.1" id="Layer_1" xmlns="http://www.w3.org/2000/svg" xmlns:xlink="http://www.w3.org/1999/xlink" x="0px" y="0px"
	 width="108px" height="108px" viewBox="0 0 108 108" style="enable-background:new 0 0 108 108;" xml:space="preserve">
<style type="text/css">
	.st0{fill:#999999;stroke:#000000;stroke-width:0.75;stroke-linecap:round;stroke-linejoin:round;stroke-miterlimit:10;}
	.st1{fill:#FFFFFF;}
	.st2{fill:#E6E6E6;}
	.st3{fill:#F2F2F2;}
	.st4{fill:none;stroke:#000000;stroke-width:0.75;stroke-linecap:round;stroke-linejoin:round;stroke-miterlimit:10;}
	.st5{fill:#CCCCCC;stroke:#000000;stroke-width:0.75;stroke-linecap:round;stroke-linejoin:round;stroke-miterlimit:10;}
	.st6{fill:#FFFFFF;stroke:#000000;stroke-width:0.5;stroke-linecap:round;stroke-linejoin:round;stroke-miterlimit:10;}
</style>
<g>
	<path class="st0" d="M24.5,49.4l10.7-1.9l-3.7-31.3l-10.2,2.1c0,0-0.8,5.4,2.4,11.2c3.2,5.9,5.4,14.7,2.4,16.9
		C23.2,48.6,24.5,49.4,24.5,49.4z"/>
	<path class="st0" d="M35.5,94.2l3.1,3.7l14.8-4.1c-6.7-4-12.7-9.1-19.1-14.2C34.9,87.1,35.4,92.7,35.5,94.2z"/>
	<path class="st1" d="M69.2,10c-1.3-0.2-47,6-46.9,7.4c0.1,0.6,5.2,1.5,6.2,4.2c0.1,0.2,0.1,0.5,0.2,0.8c15.5-3,30.5-5.5,45.9-7.3
		C74.2,12.7,71.9,10.5,69.2,10z"/>
	<path class="st2" d="M31.3,44c1.1,11.6,2.2,25.3,3,35.5c6.4,5.1,42.3-42.3,42.3-42.3C61.4,39.5,46.1,40.6,31.3,44z"/>
	<path class="st3" d="M74.7,15.6c0-0.2-0.1-0.3-0.1-0.5c-15.4,1.8-30.4,4.3-45.9,7.3c0.6,2.9,1.6,11.4,2.5,21.6
		c14.8-3.4,30.2-4.5,45.3-6.8L74.7,15.6z"/>
	<path class="st4" d="M74.7,15.6C74.5,13,72,10.5,69.2,10c-1.3-0.2-47,6-46.9,7.4c0.1,0.6,5.2,1.5,6.2,4.2
		c1.3,3.3,4.1,37.6,5.8,57.9c6.4,5.1,12.4,10.2,19.1,14.2l27.5-7.6L74.7,15.6z"/>
	<path class="st3" d="M82.4,39.6c0-0.1,0-0.2,0-0.3c0-0.4-0.4-0.9-0.9-1.1c-0.6-0.3-45.3,6.8-45.3,6.8l-1.2,3.6
		c15.7-2.6,31.4-4.9,47-7.7C82.3,40.1,82.4,39.6,82.4,39.6z"/>
	<path class="st2" d="M82.1,40.8c-15.7,2.8-31.4,5.1-47,7.7l-1.7,5l0.1,0.9c15.6-1.7,31.2-4,46.8-7c0-0.2,0-0.3,0-0.3
		C80.4,46.9,81.5,42.9,82.1,40.8z"/>
	<path class="st3" d="M83.1,78.9c0-0.5-2.5-28.3-2.8-31.5c-15.6,2.9-31.2,5.2-46.8,7l3.9,31.2c0,0,0.1,0.1,0.1,0.3
		c15.3-0.9,30.6-5.5,45.8-6.6C83.2,79.1,83.2,78.9,83.1,78.9z"/>
	<path class="st1" d="M87.8,87l0-0.1c0,0-3.5-6.1-4.4-7.7c-15.3,1.1-30.6,5.7-45.8,6.6c0.5,1,2.5,4.7,3.9,7.5
		c0.2,0.4,0.3,0.8,0.4,1.1c15.4-2.3,30.5-4.7,46.1-7C87.8,87.3,87.8,87.2,87.8,87z"/>
	<path class="st2" d="M41.8,94.5c0.7,2.3-1,3.2-1,3.2s43.8-6.4,44.9-6.7c1-0.3,1.6-0.7,1.8-1.1c0.2-0.4,0.6-1,0.5-1.8
		c0-0.2-0.1-0.4-0.1-0.6C72.3,89.8,57.3,92.1,41.8,94.5z"/>
	<path class="st4" d="M81.6,38.1c0.5,0.2,0.8,0.7,0.9,1.1c0,0.1,0,0.2,0,0.3c0,0-2,7.2-2.1,7.5c0,0.3,2.8,31.3,2.8,31.8
		c0.3,0.5,4.6,8,4.6,8l0,0.1c0.1,0.4,0.2,0.7,0.2,1c0.1,0.8-0.3,1.4-0.5,1.8c-0.2,0.4-0.8,0.8-1.8,1.1c-1,0.3-44.9,6.7-44.9,6.7
		s2.1-1.1,0.5-4.3c-1.6-3.2-4-7.8-4-7.8l-4-32.1l2.9-8.6C36.3,44.9,81,37.8,81.6,38.1z"/>
	<path class="st5" d="M20,20.9c0.1,0.6,0.5,1.9,1.5,4.6c1.7,4.6,4.6,12.2,5.1,17.4c0.4,4.8-4.7,4.6-4.9,4.5c-0.6,0-1,0.4-0.9,1
		c0.1,0.6,0.7,1.1,1.4,1.2c2.5,0.2,7.2-0.9,6.8-6.3c-0.5-5.5-3.3-13-5.2-18c-0.7-1.8-1.4-3.6-1.4-4c-0.1-1.4,1-2.3,2.5-2.1
		c1.5,0.3,2.9,1.6,3,3L34,92.8c0.2,2.4,2.4,4.6,5,5.1c1.6,0.3,3.1-0.1,3.9-1c0.3-0.4,0.6-0.9,0.5-1.8c0-0.3-0.1-0.7-0.2-1l0-0.1
		c0,0-4.3-7.6-4.6-8c0-0.5-2.8-31.5-2.8-31.8c0.1-0.3,2.1-7.5,2.1-7.5c0-0.1,0-0.2,0-0.3c0-0.4-0.4-0.9-0.9-1.1
		c-0.6-0.3-1.2-0.1-1.4,0.4l-2.2,7.8l2.9,32.6c0,0,4.6,8,4.7,8.3c0,0.1,0.1,0.3,0.1,0.4c0,0.3-0.1,0.5-0.2,0.6
		c-0.3,0.4-1.2,0.6-2.1,0.4c-1.3-0.2-2.4-1.4-2.5-2.6l-6.2-70.6c-0.2-2.6-2.7-5.1-5.5-5.6C21.8,16.6,19.8,18.3,20,20.9z"/>
	<line class="st6" x1="39" y1="54" x2="77.5" y2="48.2"/>
	<line class="st6" x1="41.6" y1="85.3" x2="79.5" y2="79.6"/>
</g>
</svg>
