<?xml version="1.0" encoding="utf-8"?>
<!-- Generator: Adobe Illustrator 21.1.0, SVG Export Plug-In . SVG Version: 6.00 Build 0)  -->
<svg version="1.1" id="Layer_1" xmlns="http://www.w3.org/2000/svg" xmlns:xlink="http://www.w3.org/1999/xlink" x="0px" y="0px"
	 width="108px" height="108px" viewBox="0 0 108 108" style="enable-background:new 0 0 108 108;" xml:space="preserve">
<style type="text/css">
	.st0{fill:#B3B3B3;stroke:#000000;stroke-width:0.75;stroke-linecap:round;stroke-linejoin:round;stroke-miterlimit:10;}
	.st1{fill:#CCCCCC;stroke:#000000;stroke-width:0.75;stroke-linecap:round;stroke-linejoin:round;stroke-miterlimit:10;}
	.st2{fill:#FFFFFF;}
	.st3{fill:#F2F2F2;}
	.st4{fill:#B3B3B3;}
	.st5{fill:#E6E6E6;}
	.st6{fill:none;stroke:#000000;stroke-width:0.75;stroke-linecap:round;stroke-linejoin:round;stroke-miterlimit:10;}
	.st7{fill:#FFFFFF;stroke:#000000;stroke-width:0.5;stroke-linecap:round;stroke-linejoin:round;stroke-miterlimit:10;}
</style>
<g>
	<path class="st0" d="M19.8,36.3l10.9-0.5c0,0,0.1-22.3-1.1-23.6c-1.1-1.3-6.5-2.4-7.2,3.4c-0.8,5.8,1.7,11.6,1.4,13.6
		C23.5,31.2,19.8,36.3,19.8,36.3z"/>
	<polygon class="st0" points="61.3,35.8 71.5,35.4 70.1,13.1 66.9,10.4 63.6,12.9 65.5,27.7 	"/>
	<path class="st1" d="M80.9,78.5c-1-4.5-2.2-10.2-2-11.2c0.2-1.7,2.4-5.2,3.7-7c0.5-0.6,0.3-1.5-0.3-1.9c-0.6-0.5-1.5-0.3-1.9,0.3
		c-0.4,0.5-3.9,5.3-4.2,8.2c-0.2,1.4,0.7,5.5,2.1,12.1c1.2,5.5,2.6,12.2,2.4,13.8c-0.2,1.9-1.5,3-2.5,2.9c-0.9-0.1-2.1-1.4-2.5-2.7
		c-0.7-2.6-1.9-42.2-2.4-61.3c-0.3-8.8-0.4-14.6-0.5-15.5c-0.3-4-2.2-6.8-4.9-7.1c-2.8-0.4-5.4,1.9-5.8,5.1
		c-0.2,1.4,0.4,4.3,1.4,8.4c0.4,1.8,1,4.3,1,4.9c-0.1,0.7-2.2,3.6-3.9,5.8c-0.5,0.6-0.4,1.5,0.2,1.9c0.6,0.5,1.5,0.4,1.9-0.2
		c1.3-1.6,4.3-5.5,4.5-7.2c0.1-0.8-0.2-2.3-1-5.8c-0.6-2.5-1.5-6.4-1.3-7.4c0.2-1.5,1.3-3,2.7-2.8c1.5,0.2,2.4,2.5,2.5,4.6
		c0.1,0.8,0.3,7.2,0.5,15.3c0,1.6,0.1,3.1,0.1,4.7c0,0,0,0,0,0c0,1.7,0.2,6-3.4,6.3c-3.6,0.3-14.3,0.4-19.9,0.4
		c-5.6,0-5.5-3-5.6-5.1c-0.1-2.6-1.5-5-1.5-5l-0.4,11.2l4.1,2.9c0,0,23.1,0.8,27,0.8c0,0,0,0,0.1,0C71.8,75.9,72.4,92.1,73,94
		c0.6,2.1,2.5,4.4,4.8,4.6c2.6,0.3,5.1-2.1,5.5-5.3C83.6,91.4,82.5,86.2,80.9,78.5z"/>
	<path class="st2" d="M41.4,17.1c-0.2-6.5-3.1-8-5.8-8c-2.8,0-10.1,0.7-10.1,0.7l4.5,5.9l0.1,2.3c3.8,0.1,7.6,0.1,11.3,0.2
		C41.4,17.8,41.4,17.5,41.4,17.1z"/>
	<path class="st3" d="M82.3,33.9c0.1-6.8,0-11.3-0.2-16.2c-3.1,0.1-6.3,0.2-9.4,0.3c0.2,5.3,0.6,18.3,0.6,21c0.1,3-2.2,5.6-5.6,6
		c-2.6,0.3-14.4,0.5-20.4,0.2c-6-0.3-4.9-3.7-5.5-5.6c-0.5-1.8-0.3-14.6-0.4-21.5c-3.8-0.1-7.5-0.1-11.3-0.2l1.1,35.7
		c17.2-1.6,34.5-2,51.7-2.5C82.6,45,82.3,37.8,82.3,33.9z"/>
	<path class="st4" d="M31.9,76.2l0.5,16l3,5.9l8.7-0.6l20.1-18c-7.9-0.9-15.8-1.9-23.7-2.8C37.6,76.3,34.8,76.2,31.9,76.2z"/>
	<path class="st5" d="M82.8,51.2c-17.2,0.6-34.4,1-51.7,2.5l0.7,22.5c2.9-0.1,5.8,0,8.6,0.4c7.9,0.9,15.8,1.8,23.7,2.8l19.2-17.2
		C83.4,62.2,83.1,57.2,82.8,51.2z"/>
	<path class="st2" d="M82,16c-0.3-5.6-3.2-6.9-4.9-7.1c-1.7-0.2-3.3-0.1-9.9,0.2c3.4,0,5.4,4.3,5.5,7.4c0,0.4,0,0.9,0.1,1.6
		c3.1-0.1,6.3-0.2,9.4-0.3C82.1,17.2,82.1,16.6,82,16z"/>
	<path class="st6" d="M35.6,9.1c2.8,0,5.7,1.5,5.8,8c0.2,6.5-0.1,20.7,0.4,22.6c0.6,1.9-0.4,5.3,5.5,5.6c6,0.3,17.8,0,20.4-0.2
		c3.5-0.3,5.7-3,5.6-6c-0.1-3-0.6-19.3-0.7-22.6c-0.1-3.1-2.1-7.4-5.5-7.4c6.6-0.4,8.2-0.4,9.9-0.2c1.7,0.2,4.6,1.6,4.9,7.1
		c0.3,5.7,0.4,10.3,0.3,17.9c-0.1,7.6,1.1,28.3,1.1,28.3L44.1,97.5l-8.7,0.6l-3-5.9L30,15.7l-4.5-5.9C25.5,9.8,32.8,9.1,35.6,9.1z"
		/>
	<path class="st2" d="M89.6,90.5c0-0.6,0-1.2-0.1-1.8c-0.6-5.6-4-19-3.9-20.1c0-0.3,0-0.6,0.1-0.9c-16.5,0.2-33.5,1-49.8,1.8
		c0.6,4.3,4.1,17.8,4.6,22.4C56.8,90.5,73.2,90.4,89.6,90.5z"/>
	<path class="st5" d="M40.4,91.9c0.1,0.5,0.1,1,0.1,1.2c-0.4,2.7-3.4,6.1-3.4,6.1l46.9-0.7c3.8-0.1,5.7-3.3,5.6-8
		C73.2,90.4,56.8,90.5,40.4,91.9z"/>
	<path class="st3" d="M87.7,62.5c2.4-3.3,2-5.5-1.2-5.3c-3.2,0.2-46.8,1.4-46.8,1.4s-3.8,7.7-4,9.7c0,0.2,0,0.6,0.1,1.2
		c16.4-0.8,33.3-1.6,49.8-1.8C85.7,66.6,85.9,65.1,87.7,62.5z"/>
	<path class="st6" d="M83.9,98.5c4.3-0.1,6.2-4.2,5.5-9.8c-0.6-5.6-4-19-3.9-20.1c0.1-1.1-0.3-2.8,2.2-6.1c2.4-3.3,2-5.5-1.2-5.3
		c-3.2,0.2-46.8,1.4-46.8,1.4s-3.8,7.7-4,9.7c-0.3,2,5.1,22,4.8,24.8c-0.4,2.7-3.4,6.1-3.4,6.1L83.9,98.5z"/>
	<path class="st1" d="M20.3,15c-0.2,1.4,0.4,4.3,1.4,8.4c0.4,1.8,1,4.3,1,4.9c-0.1,0.7-2.2,3.6-3.9,5.8c-0.5,0.6-0.4,1.5,0.2,1.9
		c0.6,0.5,1.5,0.4,1.9-0.2c1.3-1.6,4.3-5.5,4.5-7.2c0.1-0.8-0.2-2.3-1-5.8c-0.6-2.5-1.5-6.4-1.3-7.4c0.2-1.5,1.3-3,2.7-2.8
		c1.5,0.2,2.4,2.5,2.5,4.6c0.1,0.8,0.3,7.2,0.5,15.3c1.1,37.5,1.9,59.7,2.5,62c0.6,2.1,2.5,4.4,4.8,4.6c2.6,0.3,5.1-2.1,5.5-5.3
		c0.2-1.9-0.8-7.1-2.5-14.8c-1-4.5-2.2-10.2-2-11.2c0.2-1.7,2.4-5.2,3.7-7c0.5-0.6,0.3-1.5-0.3-1.9c-0.6-0.5-1.5-0.3-1.9,0.3
		c-0.4,0.5-3.9,5.3-4.2,8.2c-0.2,1.4,0.7,5.5,2.1,12.1c1.2,5.5,2.6,12.2,2.4,13.8c-0.2,1.9-1.5,3-2.5,2.9c-0.9-0.1-2.1-1.4-2.5-2.7
		c-0.7-2.6-1.9-42.2-2.4-61.3C31.2,23.7,31.1,17.9,31,17c-0.3-4-2.2-6.8-4.9-7.1C23.2,9.5,20.7,11.7,20.3,15z"/>
	<line class="st7" x1="41.7" y1="69.3" x2="80.5" y2="68.1"/>
</g>
</svg>
