<?xml version="1.0" encoding="utf-8"?>
<!-- Generator: Adobe Illustrator 21.1.0, SVG Export Plug-In . SVG Version: 6.00 Build 0)  -->
<svg version="1.1" id="Layer_1" xmlns="http://www.w3.org/2000/svg" xmlns:xlink="http://www.w3.org/1999/xlink" x="0px" y="0px"
	 width="108px" height="108px" viewBox="0 0 108 108" style="enable-background:new 0 0 108 108;" xml:space="preserve">
<style type="text/css">
	.st0{fill:#F2F2F2;stroke:#000000;stroke-width:0.75;stroke-linejoin:round;stroke-miterlimit:10;}
	.st1{fill:#B3B3B3;stroke:#000000;stroke-width:0.75;stroke-linejoin:round;stroke-miterlimit:10;}
	.st2{fill:#E6E6E6;stroke:#000000;stroke-width:0.75;stroke-linejoin:round;stroke-miterlimit:10;}
	.st3{fill:#CCCCCC;stroke:#000000;stroke-width:0.75;stroke-linejoin:round;stroke-miterlimit:10;}
	.st4{fill:#FFFFFF;stroke:#000000;stroke-width:0.75;stroke-linejoin:round;stroke-miterlimit:10;}
	.st5{fill:#FFFFFF;stroke:#000000;stroke-width:0.5;stroke-linecap:round;stroke-linejoin:round;stroke-miterlimit:10;}
</style>
<g>
	<path class="st0" d="M13.8,58c-2.3-8-6.2-13.2-6.2-13.2l4.5-1.1L13.8,58z"/>
	<path class="st0" d="M37,80.8c0,0.4-0.1,0.7-0.4,1c-0.5,0.5-1.4,0.5-1.9-0.1l-0.1-0.1l-12-16.7c-0.2-0.2-0.3-0.4-0.3-0.7
		c0-0.1,0-0.2,0-0.3c0-0.2,0-0.3,0.1-0.5c0,0,6.8-23.3,7.5-25.3c-1.5-0.9-10.1-5.5-13.4-7.4c0.1,1.2,0.6,5.6,1.3,11.5
		c0.7,6.3,1.7,14.2,2.5,21.9c0,0.1,0,0.2,0,0.2c1.4,11.8,2.7,22.9,3,26c0.1,0.5,0.1,0.8,0.1,0.8c0,0,0,0.1,0,0.1
		c0,0.5-0.3,0.9-0.7,1.1c-0.2,0.1-0.3,0.2-0.5,0.2c-0.7,0.1-1.4-0.4-1.5-1.2L19.3,78l-2.8-24.5l-1.2-10.5l-0.6-4.8l-0.2-1.9
		l-0.2-1.4l-0.7-6.3c-0.1-0.5,0.2-1,0.6-1.3c0,0,0,0,0,0c0.1,0,0.4-0.1,0.9-0.2c0,0,0,0,0,0c0.2,0,0.3,0.1,0.5,0.2l1.3,0.7l0.5,0.3
		l14.8,8.3c0.4,0.3,0.7,0.7,0.7,1.1c0,0.2,0,0.3-0.1,0.5c0,0-6.1,20.7-7.4,24.9c0,0.1,0,0.1,0,0.1c-0.1,0.3-0.1,0.4-0.2,0.5
		c1,1.1,11.6,16.2,11.6,16.2C36.9,80.1,37,80.4,37,80.8z"/>
	<path class="st1" d="M86.5,79.8C82,80.5,29.6,91.2,22.9,92.5c0.4-0.2,0.7-0.7,0.7-1.1c0,0,0-0.1,0-0.1c0,0,0-0.3-0.1-0.8
		c-0.4-3-6.8-58.4-6.9-59.6c3.3,1.9,11.9,6.5,13.4,7.4c-0.7,1.9-7.5,25.3-7.5,25.3c-0.1,0.2-0.1,0.3-0.1,0.5c0,0.1,0,0.2,0,0.3
		c0,0.3,0.2,0.5,0.3,0.7l12,16.7l0.1,0.1c0.5,0.5,1.3,0.6,1.9,0.1c0.2-0.2,33.6-7.4,52-11.5C89.9,75.7,90.5,79,86.5,79.8z"/>
	<polygon class="st2" points="19.3,78 16,76.9 13.8,58 12,43.7 11.1,35.7 11.5,35.7 11.5,35.7 14.7,38.1 15.2,42.9 16.5,53.5 	"/>
	<polygon class="st3" points="14.7,38.1 11.5,35.7 11.5,35.7 11.4,35.7 14.3,34.8 14.5,36.2 	"/>
	<path class="st3" d="M96.2,24.4c0,0.1,0,0.3-0.1,0.4c0,0-7.1,24.1-7.6,25.5l-11,2.2L25.3,63.2c0,0,0-0.1,0-0.1
		c1.3-4.2,7.4-24.9,7.4-24.9c0.1-0.2,0.1-0.3,0.1-0.5"/>
	<path class="st4" d="M96.2,24.4"/>
	<path class="st4" d="M32.8,37.7"/>
	<path class="st0" d="M100.4,67.5c0,0.1-4.8,1.2-11.8,2.8c-18.4,4.1-51.8,11.3-52,11.5c0.3-0.3,0.4-0.6,0.4-1c0-0.3-0.1-0.7-0.4-0.9
		c0,0-10.5-15.1-11.6-16.2c0-0.1,0.1-0.3,0.2-0.5l52.2-10.5l11-2.2c1,1.1,11.6,16.2,11.6,16.2C100.3,66.8,100.4,67.2,100.4,67.5z"/>
	<path class="st4" d="M32.8,37.7c0-0.5-0.2-0.9-0.7-1.1c0,0-16.9-9.5-17.1-9.5c7.8-1.6,63.5-12,63.9-11.8l16.6,8
		c0.4,0.3,0.6,0.7,0.6,1.2"/>
	<line class="st5" x1="89.6" y1="25.8" x2="32.8" y2="37.7"/>
</g>
</svg>
