<?xml version="1.0" encoding="utf-8"?>
<!-- Generator: Adobe Illustrator 21.1.0, SVG Export Plug-In . SVG Version: 6.00 Build 0)  -->
<svg version="1.1" id="Layer_1" xmlns="http://www.w3.org/2000/svg" xmlns:xlink="http://www.w3.org/1999/xlink" x="0px" y="0px"
	 width="108px" height="108px" viewBox="0 0 108 108" style="enable-background:new 0 0 108 108;" xml:space="preserve">
<style type="text/css">
	.st0{fill:#CCCCCC;stroke:#000000;stroke-width:0.75;stroke-linecap:round;stroke-linejoin:round;stroke-miterlimit:10;}
	.st1{fill:#E6E6E6;stroke:#000000;stroke-width:0.75;stroke-linecap:round;stroke-linejoin:round;stroke-miterlimit:10;}
	.st2{fill:#F2F2F2;stroke:#000000;stroke-width:0.5;stroke-linecap:round;stroke-linejoin:round;stroke-miterlimit:10;}
	.st3{fill:#FFFFFF;stroke:#000000;stroke-width:0.5;stroke-linecap:round;stroke-linejoin:round;stroke-miterlimit:10;}
	.st4{fill:#FFFFFF;stroke:#000000;stroke-width:0.75;stroke-linecap:round;stroke-linejoin:round;stroke-miterlimit:10;}
	.st5{fill:#E6E6E6;stroke:#000000;stroke-width:0.5;stroke-linecap:round;stroke-linejoin:round;stroke-miterlimit:10;}
	.st6{fill:#CCCCCC;stroke:#000000;stroke-width:0.5;stroke-linejoin:round;stroke-miterlimit:10;}
	.st7{fill:none;stroke:#000000;stroke-width:0.5;stroke-linecap:round;stroke-linejoin:round;stroke-miterlimit:10;}
	.st8{fill:#B3B3B3;stroke:#000000;stroke-width:0.25;stroke-linecap:round;stroke-linejoin:round;stroke-miterlimit:10;}
</style>
<g>
	<path class="st0" d="M95.7,72.7c-2.6,0.4-48.1,7.4-65.7,8.8c-2.6,0.2-3.7,0.3-4.1,0.2h0c-0.4-0.1-0.4-0.2-0.4-0.5
		c0-0.9-0.1-16.9-0.1-20.4v-0.2h0.1v0.2l0.1,17.7l1.6,0.8h0l0,0v0l1.4-0.2l69.6-10l0.2,0.2C98.4,69.1,99,72.2,95.7,72.7z"/>
	<path class="st1" d="M80.1,27.7c-1-0.4-2.2-0.3-3.5-0.2c-3,0.2-56.8,5.5-61.6,5.9c-4.8,0.4-5,2.4-5,3.8c0,1.4,0.1,10.6,0,12.9
		c0,1,0,1.7,0.2,2.3c0.2,0.7,0.7,1.1,1.7,1.3c1.7,0.5,7.7,2.1,10.3,3c1.3,0.4,2.2,0.8,2.7,1.2c0.5,0.5,0.7,1.2,0.7,2.3v0.4
		c0,3.5,0.1,19.6,0.1,20.4c0,0.3,0,0.5,0.4,0.5c0,0,0,0,0,0c-2.2-0.6-3.6-1.1-3.8-4.3C21.9,74.3,21.7,61,21.7,61s-8.9-3-11.5-3.8
		c-2.6-0.8-3.4-1.1-3.4-5.8S6.9,36.8,7,34.6c0.1-2.2,1.6-2.4,5.1-2.8c3.5-0.4,58.7-5.2,61.1-5.5C75.6,26.2,79,27,80.1,27.7z"/>
	<path class="st2" d="M100.9,52.7c0,0-0.2,0-0.4-0.1L49.3,59l-9.9,1.2l0,0.2c-1.9,4.4-0.2,6.5,1,7.2c0.1,0,0.2,0.1,0.2,0.1L37.9,70
		l-10.5,8.8h-0.2v0.4l1.4-0.2l69.6-10l0.2,0.2c0,0,2.8-0.6,2.8-1.8C101.2,66.1,100.9,52.7,100.9,52.7z"/>
	<polygon class="st3" points="39.5,60.4 27.4,78.8 27.3,78.8 27.1,62 26.9,61.8 27,61.8 39.4,60.2 	"/>
	<path class="st4" d="M98.5,51.2L98.5,51.2L51,57.4l-25.3,3.3l-0.2-0.2h-0.1v-0.2c0-1.1-0.2-1.8-0.7-2.3c-0.5-0.5-1.4-0.8-2.7-1.2
		c-2.6-0.9-8.7-2.5-10.3-3c-0.9-0.3-1.4-0.6-1.7-1.3c-0.2-0.5-0.2-1.3-0.2-2.3c0.1-2.3,0-11.5,0-12.9c0-1.4,0.2-3.4,5-3.8
		c4.8-0.4,58.7-5.7,61.6-5.9c1.3-0.1,2.6-0.1,3.5,0.2h0c1.2,0.4,2,1.3,2,3.3c0.1,3.5,0,13.1,0,13.1s10.8,3.3,14.1,4.3
		c0.4,0.1,0.6,0.2,0.8,0.2C98.5,49.1,98.5,50.5,98.5,51.2z"/>
	<path class="st5" d="M100.5,52.6L49.3,59l-9.9,1.2L27,61.8l0,0l-1.3-1.1L51,57.4l47.5-6.2h0.1v0.1C98.5,51.8,99.9,52.3,100.5,52.6z
		"/>
	<path class="st4" d="M40.7,67.7L37.9,70l-10.5,8.8l12-18.3c-1.9,4.4-0.2,6.5,1,7.2C40.5,67.6,40.6,67.7,40.7,67.7z"/>
	<polygon class="st6" points="27.3,78.8 27.3,79.2 27.3,79.2 27.2,79.2 25.6,78.4 25.5,60.7 25.5,60.5 25.7,60.7 26.9,61.8 27.1,62 
			"/>
	<line class="st7" x1="100.7" y1="52.6" x2="100.5" y2="52.6"/>
	<path class="st8" d="M40.7,67.7L37.9,70l-10.5,8.8l12-18.3c-1.9,4.4-0.2,6.5,1,7.2C40.5,67.6,40.6,67.7,40.7,67.7z"/>
	<line class="st3" x1="76.2" y1="44.7" x2="10.1" y2="52.4"/>
</g>
</svg>
