<?xml version="1.0" encoding="utf-8"?>
<!-- Generator: Adobe Illustrator 21.1.0, SVG Export Plug-In . SVG Version: 6.00 Build 0)  -->
<svg version="1.1" id="Layer_1" xmlns="http://www.w3.org/2000/svg" xmlns:xlink="http://www.w3.org/1999/xlink" x="0px" y="0px"
	 width="108px" height="108px" viewBox="0 0 108 108" style="enable-background:new 0 0 108 108;" xml:space="preserve">
<style type="text/css">
	.st0{fill:#CCCCCC;stroke:#000000;stroke-width:0.75;stroke-linecap:round;stroke-linejoin:round;stroke-miterlimit:10;}
	.st1{fill:#F2F2F2;}
	.st2{fill:#FFFFFF;}
	.st3{fill:#E6E6E6;}
	.st4{fill:none;stroke:#000000;stroke-width:0.75;stroke-linecap:round;stroke-linejoin:round;stroke-miterlimit:10;}
</style>
<g>
	<path class="st0" d="M36.2,99.4l0,0.2L33,98.8c0,0-1.6-45.1-1.7-47.7c-0.1-2.5-2.9-4.2-5.5-4.6c-2.5-0.4-6.3-0.2-9.1-3.6
		c-2.8-3.4-2.8-6.7-2.8-9.8c0-3.1,0.1-6.5,0.1-9.7c0-3.2,2.4-4.3,4.3-4.4c0.8-0.1,1.9,0.1,3,0.4c-0.3,0-0.6,0-0.9,0.1
		c-3.6,0.5-4.4,3.2-4.4,6c0,2.2,0.5,9.8,0.5,10.9c0,4.7,2.9,6.2,7.9,6.8c5,0.6,9.9,3.5,9.9,7.8c0,4.2,1.7,48.5,1.7,48.5L36.2,99.4z"
		/>
	<path class="st0" d="M84.3,40.7v6l-41.5,8.9c0-0.7,0-1.5-0.1-2.5l38.7-8.7c0,0-0.1-1.2-0.1-3.2c0-2-1.6-4.4-4.4-4.9
		c-2.8-0.5-6.8-0.7-10.2-3.7c-3.4-3-2.9-7.4-2.9-10.4s-0.5-8.6,0.1-10.9c0.6-2.3,4.6-3.6,7.8-2.6c0.3,0.1,0.5,0.3,0.6,0.5
		c-0.6-0.1-1.2-0.2-2-0.1c-3.6,0.5-4.4,3.2-4.4,6c0,2.2,0.5,9.8,0.5,10.9c0,4.7,2.9,6.2,7.9,6.8c2.8,0.3,5.6,1.4,7.5,3
		C83.3,37.3,84.3,38.9,84.3,40.7z"/>
	<path class="st1" d="M25.2,32.2c0-5.4,1.4-12.8-3.9-12.8c-0.3,0-0.6,0-0.9,0.1c-3.6,0.5-4.4,3.2-4.4,6c0,2.2,0.5,9.8,0.5,10.9
		c0,1.1,0.2,2,0.4,2.7c2.9-0.8,5.8-1.6,8.8-2.3C25.3,35.6,25.2,34.2,25.2,32.2z"/>
	<path class="st2" d="M82.3,30.3c-3.9-0.7-5.7-1.5-6.5-3.3c-3,0.6-6,1.1-9,1.8c1,2.7,3.6,3.7,7.5,4.2c2.8,0.3,5.6,1.4,7.5,3
		c0.8,0.7,1.5,1.5,1.9,2.4c2.9-0.6,5.8-1.2,8.7-1.8C91.6,33,87.9,31.3,82.3,30.3z"/>
	<path class="st3" d="M92.5,36.6c-2.9,0.7-5.8,1.2-8.7,1.8c0.3,0.7,0.5,1.5,0.5,2.3v6l-41.5,8.9c0-0.7,0-1.5-0.1-2.5
		c0-1.4,0-3.1,0-4.8c0-0.9-0.1-1.7-0.4-2.4c-2.9,0.8-5.7,1.6-8.6,2.4c0.4,0.8,0.6,1.6,0.6,2.5c0,4.2,1.7,48.5,1.7,48.5l0.3-0.1
		l57.8-14.9c0,0-1.5-43.7-1.5-46.3C92.6,37.6,92.6,37.1,92.5,36.6z"/>
	<path class="st2" d="M32.3,40.5c-4.1-0.7-5.9-1.6-6.7-3.7c-2.9,0.8-5.8,1.6-8.8,2.3c1,2.6,3.6,3.6,7.4,4.1c3.9,0.5,7.8,2.4,9.3,5.3
		c2.9-0.8,5.7-1.6,8.6-2.4C41.1,42.9,37.5,41.4,32.3,40.5z"/>
	<path class="st1" d="M75.2,22.1c0-5,1.2-11.7-2.9-12.7c-0.6-0.1-1.2-0.2-2-0.1c-3.6,0.5-4.4,3.2-4.4,6c0,2.2,0.5,9.8,0.5,10.9
		c0,1,0.1,1.9,0.4,2.6c3-0.7,6-1.2,9-1.8C75.3,25.8,75.2,24.3,75.2,22.1z"/>
	<path class="st4" d="M94.1,84.4L36.2,99.4L36,99.4c0,0-1.7-44.3-1.7-48.5c0-4.3-5-7.2-9.9-7.8c-5-0.6-7.9-2.1-7.9-6.8
		c0-1.1-0.5-8.8-0.5-10.9c0-2.8,0.8-5.5,4.4-6c0.3,0,0.6-0.1,0.9-0.1c5.4,0,3.9,7.4,3.9,12.8c0,5.7,0.9,7.1,7.2,8.2
		c6.3,1.1,10.3,3.2,10.3,7.9c0,1.7,0,3.4,0,4.8c0,0.9,0,1.8,0.1,2.5l41.5-8.9v-6c0-1.9-1-3.5-2.4-4.7c-1.9-1.6-4.7-2.7-7.5-3
		c-5-0.6-7.9-2.1-7.9-6.8c0-1.1-0.5-8.8-0.5-10.9c0-2.8,0.8-5.5,4.4-6c0.8-0.1,1.4-0.1,2,0.1c4.1,1,2.9,7.7,2.9,12.7
		c0,5.7,0.9,7.1,7.2,8.2c6.3,1.1,10.3,3.2,10.3,7.9C92.6,40.8,94.1,84.4,94.1,84.4z"/>
</g>
</svg>
