<?xml version="1.0" encoding="utf-8"?>
<!-- Generator: Adobe Illustrator 22.1.0, SVG Export Plug-In . SVG Version: 6.00 Build 0)  -->
<svg version="1.1" id="Layer_1" xmlns="http://www.w3.org/2000/svg" xmlns:xlink="http://www.w3.org/1999/xlink" x="0px" y="0px"
	 width="108px" height="108px" viewBox="0 0 108 108" style="enable-background:new 0 0 108 108;" xml:space="preserve">
<style type="text/css">
	.st0{fill:#FFFFFF;stroke:#000000;stroke-width:0.75;stroke-linecap:round;stroke-linejoin:round;stroke-miterlimit:10;}
	.st1{fill:#CCCCCC;stroke:#000000;stroke-width:0.75;stroke-linecap:round;stroke-linejoin:round;stroke-miterlimit:10;}
	.st2{fill:#E6E6E6;stroke:#000000;stroke-width:0.75;stroke-linecap:round;stroke-linejoin:round;stroke-miterlimit:10;}
	.st3{fill:#F2F2F2;stroke:#000000;stroke-width:0.75;stroke-linecap:round;stroke-linejoin:round;stroke-miterlimit:10;}
	.st4{fill:#F2F2F2;stroke:#000000;stroke-width:0.5;stroke-linecap:round;stroke-linejoin:round;stroke-miterlimit:10;}
	.st5{fill:#CCCCCC;stroke:#000000;stroke-width:0.5;stroke-linecap:round;stroke-linejoin:round;stroke-miterlimit:10;}
	.st6{fill:#E6E6E6;stroke:#000000;stroke-width:0.5;stroke-linecap:round;stroke-linejoin:round;stroke-miterlimit:10;}
	.st7{fill:#FFFFFF;stroke:#000000;stroke-width:0.5;stroke-linecap:round;stroke-linejoin:round;stroke-miterlimit:10;}
</style>
<g>
	<path class="st0" d="M89.7,14.4L87,21L85.3,20l-1.5,1.8l-5.4-3.3l0.9-2l-1-0.9l2.4-6.9c0,0,1.9-3.7,6.7-1.7c0.6,0.2,1,0.5,1.4,0.8
		C91.6,10.2,89.7,14.4,89.7,14.4z"/>
	<path class="st1" d="M91.9,15c-1.3,3.2-2.6,6.3-2.6,6.3L87,21l2.7-6.6c0,0,1.9-4.2-0.9-6.6l0,0l2.9,2.3
		C91.7,10.1,93.2,11.7,91.9,15z"/>
	<path class="st2" d="M87,21l-0.9-0.1L51,70.5c0,0-2.9,8.7-3.6,12.7l-1.3-5.3l-2.9-1.7l36.9-51.6l3.6-2.8l1.5-1.8L87,21z"/>
	<polygon class="st3" points="83.7,21.8 80.1,24.5 72.6,19.6 78.4,18.5 	"/>
	<path class="st4" d="M42.3,81.1l-13,19.5l-0.1,0.3l-4.9-2.5l9.7-9.1c0,0,1.4-0.8-0.2-1.8c-1.6-1-3.1,0.9-3.1,0.9l-8.7,8.5l-5.2-2.9
		L35.3,77L42.3,81.1z"/>
	<polygon class="st0" points="80.1,24.5 43.2,76.2 35.4,71.9 72.6,19.6 	"/>
	<polygon class="st5" points="44.2,78.2 42.3,81.1 35.3,77 33.7,72.3 	"/>
	<polygon class="st6" points="35.3,77 16.6,93.9 33.7,72.3 	"/>
	<path class="st6" d="M76.6,27.5L44.2,72.4c0,0-1.5,2.1-4.3,0.6c-2.9-1.5-0.6-4.2-0.6-4.2l31.7-45c0,0,1.9-3,4.9-1
		C78.2,24.4,76.6,27.5,76.6,27.5z"/>
	<polygon class="st3" points="48,85.3 30.7,101.4 30.7,101.4 30.5,101.2 46.1,77.9 47.4,83.2 	"/>
	<polygon class="st7" points="30.5,101.2 30.7,101.4 30.5,101.5 29.2,100.9 29.3,100.6 42.3,81.1 44.2,78.2 33.7,72.3 16.6,93.9 
		15.5,93.3 33,70.8 35.4,71.9 43.2,76.2 46.1,77.9 	"/>
</g>
</svg>
