<?xml version="1.0" encoding="utf-8"?>
<!-- Generator: Adobe Illustrator 21.1.0, SVG Export Plug-In . SVG Version: 6.00 Build 0)  -->
<svg version="1.1" id="Layer_1" xmlns="http://www.w3.org/2000/svg" xmlns:xlink="http://www.w3.org/1999/xlink" x="0px" y="0px"
	 width="108px" height="108px" viewBox="0 0 108 108" style="enable-background:new 0 0 108 108;" xml:space="preserve">
<style type="text/css">
	.st0{fill:#B3B3B3;stroke:#000000;stroke-width:0.75;stroke-linecap:round;stroke-linejoin:round;stroke-miterlimit:10;}
	.st1{fill:#FFFFFF;stroke:#000000;stroke-width:0.75;stroke-linecap:round;stroke-linejoin:round;stroke-miterlimit:10;}
	.st2{fill:#F2F2F2;stroke:#000000;stroke-width:0.75;stroke-linecap:round;stroke-linejoin:round;stroke-miterlimit:10;}
	.st3{fill:#CCCCCC;stroke:#000000;stroke-width:0.75;stroke-linecap:round;stroke-linejoin:round;stroke-miterlimit:10;}
</style>
<g>
	<g>
		<polygon class="st0" points="99.4,22.3 96.1,17.9 50.7,64.8 50.7,64.8 49.8,72.1 49.8,72.1 33.2,88.6 13,94.3 12.4,93.2 
			12.4,94.4 13,95.5 36.3,91.7 52.5,74.2 58.4,73.3 99.4,29.1 97.3,26.2 		"/>
	</g>
	<g>
		<polygon class="st0" points="22.7,86.8 20.5,88.1 20.5,88.1 9.3,89 8.6,87.9 8.6,86.7 9.3,87.8 		"/>
	</g>
	<g>
		<polygon class="st1" points="50.7,64.8 50.7,64.8 50.7,64.8 		"/>
		<polygon class="st1" points="50.7,64.8 50.7,64.8 50.7,64.8 		"/>
	</g>
	<g>
		<g>
			<g>
				<polygon class="st1" points="33.2,88.6 13,94.3 12.4,93.2 12.4,93.2 20.5,88.1 20.5,88.1 22.7,86.8 9.3,87.8 8.6,86.7 29,81.3 
					31.5,85.6 31.5,85.6 				"/>
			</g>
		</g>
	</g>
	<g>
		<g>
			<g>
				<polygon class="st1" points="50.7,64.8 50.7,64.8 50.7,64.8 				"/>
				<polygon class="st1" points="50.7,64.8 50.7,64.8 50.7,64.8 				"/>
			</g>
		</g>
		<g>
			<polygon class="st2" points="49.8,72.1 49.8,72.1 33.2,88.6 31.5,85.6 31.5,85.6 29,81.3 45.4,64.9 45.5,64.5 47.7,68.4 			"/>
		</g>
		<g>
			<polygon class="st3" points="50.7,64.8 49.8,72.1 47.7,68.4 45.5,64.5 46.5,58.5 50.7,64.8 			"/>
		</g>
		<g>
			<polygon class="st1" points="96.1,17.9 50.7,64.8 50.7,64.8 50.7,64.8 46.5,58.5 46.6,58 90.6,12.5 			"/>
		</g>
		<g>
			<polygon class="st1" points="50.7,64.8 50.7,64.8 50.7,64.8 			"/>
			<polygon class="st1" points="50.7,64.8 50.7,64.8 50.7,64.8 			"/>
		</g>
	</g>
</g>
</svg>
