<?xml version="1.0" encoding="utf-8"?>
<!-- Generator: Adobe Illustrator 21.1.0, SVG Export Plug-In . SVG Version: 6.00 Build 0)  -->
<svg version="1.1" id="Layer_1" xmlns="http://www.w3.org/2000/svg" xmlns:xlink="http://www.w3.org/1999/xlink" x="0px" y="0px"
	 width="108px" height="108px" viewBox="0 0 108 108" style="enable-background:new 0 0 108 108;" xml:space="preserve">
<style type="text/css">
	.st0{fill:#B3B3B3;stroke:#000000;stroke-width:0.75;stroke-linecap:round;stroke-linejoin:round;stroke-miterlimit:10;}
	.st1{fill:#FFFFFF;}
	.st2{fill:#E6E6E6;}
	.st3{fill:none;stroke:#000000;stroke-width:0.75;stroke-linecap:round;stroke-linejoin:round;stroke-miterlimit:10;}
	.st4{fill:#E6E6E6;stroke:#000000;stroke-width:0.75;stroke-linecap:round;stroke-linejoin:round;stroke-miterlimit:10;}
	.st5{fill:#FFFFFF;stroke:#000000;stroke-width:0.75;stroke-linecap:round;stroke-linejoin:round;stroke-miterlimit:10;}
	.st6{fill:#F2F2F2;stroke:#000000;stroke-width:0.75;stroke-linejoin:round;stroke-miterlimit:10;}
	.st7{fill:#E6E6E6;stroke:#000000;stroke-width:0.75;stroke-linejoin:round;stroke-miterlimit:10;}
	.st8{fill:#F2F2F2;stroke:#000000;stroke-width:0.75;stroke-linecap:round;stroke-linejoin:round;stroke-miterlimit:10;}
</style>
<g>
	<path class="st0" d="M26.9,37.6c0,1.4-0.2,21.9-0.4,36.3l-10,2.1c0.1,0,0.1-0.1,0.2-0.2l7.7-10c0.3-0.3,0.4-0.6,0.4-1
		c0-0.2,0-0.3-0.1-0.5c0,0-9.6-25.2-11.4-29.6C17.1,35.7,25.2,37.2,26.9,37.6z"/>
	<path class="st1" d="M94.7,23l-17.9-4.6c-0.5-0.1-66.1,12.6-66.5,13c0,0-0.1,0.1-0.1,0.1c0.3-0.2,0.7-0.3,1.1-0.2l10.3,2.3l7,1.6
		c0.1,0,0.3,0.1,0.4,0.2c22.2-4.5,44.4-6.8,66.7-11.3C95.6,23.5,95.2,23.1,94.7,23z"/>
	<path class="st2" d="M29,35.3c0.4,0.3,0.7,0.7,0.7,1.2l-0.1,14.3c0.1,0,0.1,0.1,0.2,0.1l4.4-1l61-13.3l0.4,0.2l0.1-12.7
		c0-0.1,0-0.1,0-0.2C73.5,28.5,51.3,30.8,29,35.3z"/>
	<path class="st3" d="M94.7,23l-17.9-4.6c-0.5-0.1-66.1,12.6-66.5,13c0,0-0.1,0.1-0.1,0.1c0.3-0.2,0.7-0.3,1.1-0.2l10.3,2.3l7,1.6
		c0.6,0.2,1.1,0.7,1.1,1.4l-0.1,14.3c0.1,0,0.1,0.1,0.2,0.1l4.4-1l61-13.3l0.4,0.2l0.1-12.7C95.7,23.7,95.3,23.1,94.7,23z"/>
	<path class="st4" d="M32.3,82.7l-2.8-1.5l0-0.1c-0.1,0-0.2,0-0.2,0.1l-0.1,7c0,0.6-0.3,1-0.8,1.3c6.8-1.7,66.8-18.6,66.9-19.3
		l0.1-6.5L32.3,82.7z"/>
	<path class="st5" d="M32.3,82.7l13.3-33.1l0-0.1c0,0,0,0.1,0,0.1c1.1,7.9,8.9,4.8,13.2,3.1C55,59.7,39.9,75.5,32.3,82.7z"/>
	<path class="st6" d="M29.7,36.6l-0.4,36.8l-0.1,14.9c0,0.6-0.3,1-0.8,1.3c-0.3,0.1-0.4,0.1-0.5,0.1c0,0-0.1,0-0.1,0
		c-0.8,0-1.4-0.7-1.4-1.4c0,0,0.1-6.2,0.2-14.3c0.2-14.5,0.4-34.9,0.4-36.3c-1.6-0.4-9.8-1.9-13.5-2.9c1.8,4.5,11.4,29.6,11.4,29.6
		c0.1,0.2,0.1,0.3,0.1,0.5c0,0.4-0.1,0.7-0.4,1l-7.7,10c-0.1,0.1-0.1,0.1-0.2,0.2c-0.6,0.4-1.3,0.3-1.8-0.2c-0.3-0.3-0.4-0.6-0.4-1
		c0-0.4,0.1-0.7,0.4-1c0,0,5.9-8.2,7-9.3C21.1,62.9,9.7,33.2,9.7,33.2c-0.1-0.2-0.1-0.3-0.1-0.5c0-0.3,0.4-0.9,0.6-1.2c0,0,0,0,0,0
		c0.3-0.2,0.7-0.3,1.1-0.2l10.3,2.3l7,1.6C29.3,35.3,29.7,35.9,29.7,36.6z"/>
	<path class="st5" d="M10.2,31.5c-0.3,0.3-0.6,0.9-0.6,1.2c0-0.3,0.1-0.7,0.4-0.9C10,31.6,10.1,31.6,10.2,31.5z"/>
	<path class="st5" d="M28.4,89.5c-0.2,0.1-0.3,0.1-0.5,0.1C27.9,89.6,28.1,89.6,28.4,89.5z"/>
	<polygon class="st7" points="32.5,52.5 32.3,72.7 32.3,82.7 29.5,81.2 29.6,73.3 29.7,51 	"/>
	<path class="st8" d="M98,38.3l-2.4,0.5L45.7,49.6c0,0,0-0.1,0-0.1l0,0.1l-11.3,2.5l-1.8,0.4L29.7,51l4.5-1l61-13.3l0.4,0.2L98,38.3
		z"/>
	<path class="st5" d="M58.9,52.7c-3.8,7-18.9,22.8-26.6,30l13.3-33.1l0-0.1c0,0,0,0.1,0,0.1C46.8,57.6,54.6,54.4,58.9,52.7z"/>
	<polygon class="st5" points="45.6,49.6 32.3,82.7 32.3,72.7 32.5,52.5 34.3,52.1 	"/>
	<path class="st5" d="M98.4,62.7l-3.1,0.9l-63,19.1c7.7-7.2,22.8-23,26.6-30c-4.2,1.7-12,4.9-13.2-3.1l49.9-10.9l2.4-0.5L98.4,62.7z
		"/>
	<path class="st5" d="M58.9,52.7c-3.8,7-18.9,22.8-26.6,30l13.3-33.1l0.1,0C46.8,57.6,54.6,54.4,58.9,52.7z"/>
	<path class="st4" d="M58.9,52.7c-3.8,7-18.9,22.8-26.6,30l13.3-33.1l0-0.1c0,0,0,0.1,0,0.1C46.8,57.6,54.6,54.4,58.9,52.7z"/>
</g>
</svg>
