<?xml version="1.0" encoding="utf-8"?>
<!-- Generator: Adobe Illustrator 21.1.0, SVG Export Plug-In . SVG Version: 6.00 Build 0)  -->
<svg version="1.1" id="Layer_1" xmlns="http://www.w3.org/2000/svg" xmlns:xlink="http://www.w3.org/1999/xlink" x="0px" y="0px"
	 width="108px" height="108px" viewBox="0 0 108 108" style="enable-background:new 0 0 108 108;" xml:space="preserve">
<style type="text/css">
	.st0{fill:#B3B3B3;stroke:#000000;stroke-width:0.75;stroke-linecap:round;stroke-linejoin:round;stroke-miterlimit:10;}
	.st1{fill:#FFFFFF;stroke:#000000;stroke-width:0.75;stroke-linecap:round;stroke-linejoin:round;stroke-miterlimit:10;}
	.st2{fill:#E6E6E6;stroke:#000000;stroke-width:0.75;stroke-linecap:round;stroke-linejoin:round;stroke-miterlimit:10;}
	.st3{fill:#CCCCCC;stroke:#000000;stroke-width:0.75;stroke-linecap:round;stroke-linejoin:round;stroke-miterlimit:10;}
	.st4{fill:#CCCCCC;stroke:#000000;stroke-width:0.5;stroke-linecap:round;stroke-linejoin:round;stroke-miterlimit:10;}
	.st5{fill:#F2F2F2;stroke:#000000;stroke-width:0.75;stroke-linecap:round;stroke-linejoin:round;stroke-miterlimit:10;}
	.st6{fill:#FFFFFF;stroke:#000000;stroke-width:0.5;stroke-linecap:round;stroke-linejoin:round;stroke-miterlimit:10;}
	.st7{fill:#E6E6E6;}
	.st8{fill:#F2F2F2;}
	.st9{fill:#FFFFFF;}
	.st10{fill:none;stroke:#000000;stroke-width:0.75;stroke-linecap:round;stroke-linejoin:round;stroke-miterlimit:10;}
	.st11{fill:none;stroke:#000000;stroke-linecap:round;stroke-linejoin:round;}
</style>
<g>
	<g>
		<path class="st0" d="M52.9,83.5l9.7-2.1c0,0-3.1-16.3-3.9-22.6c-0.9-6.3-2.2-11.5-8.2-10.6c-6,1-2,13.3-2,13.3l3.2,12.2L52.9,83.5
			z"/>
		<line class="st1" x1="54.6" y1="57.8" x2="50.6" y2="51.4"/>
		<path class="st2" d="M51.8,84.4l2.5,0.6c0,0,0-5.1-1.5-12.1c-1.5-7-3.5-12.3-3.5-12.3l-1.6,0.6c0,0,1.7,6.2,3,11.8
			C52,78.6,51.8,84.4,51.8,84.4z"/>
		<path class="st3" d="M59,59.7c0,0-0.1-15.5,0-16.6c0-1-3-3.5-3-3.5l8.4,0.2l-1.1,22.5L59,59.7z"/>
		<g>
			
				<ellipse transform="matrix(2.573877e-02 -0.9997 0.9997 2.573877e-02 -4.9516 116.8296)" class="st4" cx="57.5" cy="61" rx="4.4" ry="3.5"/>
			
				<ellipse transform="matrix(2.573877e-02 -0.9997 0.9997 2.573877e-02 -6.5208 115.7126)" class="st4" cx="56.1" cy="61.2" rx="4.4" ry="3.5"/>
			
				<ellipse transform="matrix(2.573877e-02 -0.9997 0.9997 2.573877e-02 -8.09 114.5956)" class="st4" cx="54.7" cy="61.4" rx="4.4" ry="3.5"/>
			
				<ellipse transform="matrix(2.573877e-02 -0.9997 0.9997 2.573877e-02 -9.6592 113.4785)" class="st4" cx="53.4" cy="61.7" rx="4.4" ry="3.5"/>
			
				<ellipse transform="matrix(2.573877e-02 -0.9997 0.9997 2.573877e-02 -11.2285 112.3615)" class="st4" cx="52" cy="61.9" rx="4.4" ry="3.5"/>
		</g>
		<path class="st5" d="M58.7,41.8c0,0-0.1,0.1-0.3,0.3c-0.4,0.3-1.1,0.7-1.9,1c-0.2,0.1-0.4,0.1-0.7,0.2c-0.5,0.1-0.9,0-1.2-0.1
			c-0.9-0.3-1.3-1-1.3-1l0.1-4c0,0,0.2,0.1,0.4,0.2c0.5,0.2,1.3,0.4,2.2,0.3c1.5-0.2,2.6-0.9,2.6-0.9l0,2.1L58.7,41.8z"/>
		<path class="st6" d="M54.5,40.6c0,0,0.2,2.8,0.1,3.8c0,1,1.8,1.7,1.8-0.3s0-3.7,0-3.7L54.5,40.6z"/>
		<path class="st1" d="M51.3,60.8c0-4.3-0.1-14.6,0-16.4c0.1-2.3,2.1-2.3,2.1-2.3l0-4L46,38.4l0.4,28l3.7-0.7c0.4,0,0.7-0.1,1.1-0.3
			c1.2-0.8,1.4-2.7,0.4-4.2C51.5,61,51.4,60.9,51.3,60.8z"/>
		<path class="st2" d="M64.6,41l-0.3-0.1l-1.8-1l-3.9-2.2c0,0-1.1,0.7-2.6,0.9c-0.9,0.1-1.8-0.1-2.2-0.3l-0.5,0.1l-0.1,0l-3.4,0.4
			l0,0c-0.1,0-0.1,0-0.2,0c-2.2,0.4-2.6,1.1-2.6,3.2c0,1.8-0.1,14.7-0.1,18.8c0.3,0.3,0.7,0.6,0.9,1c1,1.5,0.8,3.4-0.4,4.2
			c-0.3,0.2-0.7,0.3-1.1,0.3c-1,0.1-2.2-0.6-2.9-1.7c-1-1.5-0.8-3.4,0.4-4.2c0,0,0,0,0.1,0c0-2.4-0.2-17.3-0.1-21c0.1-4,5-4,5-4
			l0.2,0l1.3-0.2l8.5-1.1l1.2-0.1c0,0,0.3,0.2,0.7,0.4c1.3,0.7,3.8,2.2,4.3,2.9c0,0,0.1,0.1,0.1,0.1c0,0,0,0,0,0.1
			C65.5,38.5,64.6,41,64.6,41z"/>
		<path class="st2" d="M47.2,26.5L45,26.5c0,0-2.4-2.3-0.1-5.4c1.9-2.7,3.9-5,10-4.1s7.6,8.4,7,10.7c-0.6,2.3-3.1,10.2-9,9.2
			c-5.9-1-6.6-6-6.6-6l2.8-0.4c0,0,1.7,2.7,5.6,1.5c4-1.2,4.6-3.9,3.3-8.1s-8.6-3.2-9.6-2.1C47.2,22.8,47.2,26.5,47.2,26.5z"/>
		<g>
			<g>
				<path class="st1" d="M58.2,22.2c-0.6-0.6-1.4-1.1-2.1-1.4C56.9,21.1,57.6,21.6,58.2,22.2z"/>
			</g>
			<g>
				<path class="st1" d="M58.2,22.2c-0.6-0.6-1.4-1.1-2.1-1.4C56.9,21.1,57.6,21.6,58.2,22.2z"/>
				<path class="st1" d="M56.8,36.8c-0.8,0.2-1.6,0.3-2.3,0.3c-0.9,0-1.7-0.2-2.5-0.4c-0.7-0.5-1.5-1.3-2.1-2.3
					c-1-1.7-1-3.1-0.8-4.1c1.1,1.9,3.1,3.2,5.2,3.2c0.5,0,1,0,1.6-0.2c3.3-0.9,5.2-4.4,4.3-7.9c-0.3-1.3-1-2.4-1.9-3.2
					c-0.6-0.6-1.3-1.1-2.1-1.4c-0.6-0.2-1.3-0.4-2-0.4c-0.5,0-1.1,0-1.6,0.2c-2.6,0.7-5,3.2-5.1,5.9l-1.8-2.8c1-2.9,3.2-5.2,6.2-6
					c0.8-0.2,1.6-0.3,2.4-0.3c4.1,0.1,7.8,3.1,9,7.5C64.5,30.3,61.7,35.6,56.8,36.8z"/>
			</g>
		</g>
		<path class="st1" d="M65.5,39c0.1-2.5-1.9-2.3-3.7-2c-1.8,0.3-3.1,0.7-3.1,0.7l0,4.1c0,0,3.1-1,3,1.8c-0.1,2.7-0.3,16.6-0.3,16.6
			l3.8-0.9C65.2,59.3,65.5,41.5,65.5,39z"/>
		<path class="st2" d="M54.3,85.6l2.3,1.6l5.8-2.4c0,0-0.4-7.6,1.2-16.5c1.1-5.9,6-10.6,6.1-13.5c0.1-1.5-2.3-2.6-4.3-3.1
			C59.8,50.1,57,62.1,56,66.8C54.9,71.6,54.3,85.6,54.3,85.6z"/>
		<path class="st7" d="M67.7,52.7c-3.7-1-6.2,3.9-7.7,8.7c2.8-0.1,5.6-0.1,8.5,0C70.3,56.8,71.7,53.8,67.7,52.7z"/>
		<path class="st8" d="M65.4,72.7c0.1-1.1,0.3-2.2,0.5-3.4c0.5-3,1.6-5.7,2.5-8c-2.9-0.1-5.7-0.1-8.5,0c-0.8,2.5-1.4,4.9-1.7,6.5
			c-0.3,1.3-0.5,3.2-0.8,5.4C60.1,72.9,62.7,72.6,65.4,72.7z"/>
		<path class="st9" d="M65.4,72.7c-2.7-0.1-5.3,0.2-7.9,0.6c-0.6,5.9-0.9,13.4-0.9,13.4l8.1-0.8C64.8,85.8,64.4,80.1,65.4,72.7z"/>
		<path class="st10" d="M56.6,86.7l8.1-0.8c0,0-0.4-7.6,1.2-16.5c1.6-8.9,7.8-15,1.8-16.6c-5.7-1.5-8.4,10.5-9.4,15.2
			C57.2,72.6,56.6,86.7,56.6,86.7z"/>
	</g>
	<g>
		<g>
			<path class="st11" d="M44.6,11c-4.2-0.8-6.9-2.2-6.9-3.7c0-2.5,7-4.5,15.6-4.5s15.6,2,15.6,4.5c0,2-4.5,3.7-10.7,4.3"/>
			<g>
				<polygon points="53.3,11.7 60.1,8.5 58.6,11.4 60.4,14.2 				"/>
			</g>
		</g>
	</g>
	<g>
		<g>
			<path class="st11" d="M63.8,97.5c-1.6,6.7-5.6,9.6-9.8,6.5c-4.2-3.1-7.3-11.4-7.6-19.7"/>
			<g>
				<path d="M64.5,93.4c-1.1,1.8-2.7,4.1-4.3,5.3l3.5-0.6l3.1,1.7C65.7,98.1,64.9,95.4,64.5,93.4z"/>
			</g>
			<g>
				<path d="M46.6,80.1c0.7,2,1.9,4.5,3.3,6l-3.3-1.2l-3.3,1.2C44.5,84.6,45.8,82.1,46.6,80.1z"/>
			</g>
		</g>
	</g>
</g>
</svg>
