<?xml version="1.0" encoding="utf-8"?>
<!-- Generator: Adobe Illustrator 21.1.0, SVG Export Plug-In . SVG Version: 6.00 Build 0)  -->
<svg version="1.1" id="Layer_1" xmlns="http://www.w3.org/2000/svg" xmlns:xlink="http://www.w3.org/1999/xlink" x="0px" y="0px"
	 width="108px" height="108px" viewBox="0 0 108 108" style="enable-background:new 0 0 108 108;" xml:space="preserve">
<style type="text/css">
	.st0{fill:#F2F2F2;}
	.st1{fill:#FFFFFF;}
	.st2{fill:none;stroke:#000000;stroke-width:0.75;stroke-linecap:round;stroke-linejoin:round;stroke-miterlimit:10;}
	.st3{fill:#F2F2F2;stroke:#000000;stroke-width:0.75;stroke-linecap:round;stroke-linejoin:round;stroke-miterlimit:10;}
	.st4{fill:#B3B3B3;stroke:#000000;stroke-width:0.5;stroke-linecap:round;stroke-linejoin:round;stroke-miterlimit:10;}
	.st5{fill:#FFFFFF;stroke:#000000;stroke-width:0.75;stroke-linecap:round;stroke-linejoin:round;stroke-miterlimit:10;}
	.st6{fill:#CCCCCC;stroke:#000000;stroke-width:0.75;stroke-linecap:round;stroke-linejoin:round;stroke-miterlimit:10;}
	.st7{fill:#E6E6E6;stroke:#000000;stroke-width:0.75;stroke-linecap:round;stroke-linejoin:round;stroke-miterlimit:10;}
	.st8{fill:#CCCCCC;stroke:#000000;stroke-width:0.5;stroke-linecap:round;stroke-linejoin:round;stroke-miterlimit:10;}
	.st9{fill:#E6E6E6;}
	.st10{fill:#FFFFFF;stroke:#000000;stroke-width:0.5;stroke-linecap:round;stroke-linejoin:round;stroke-miterlimit:10;}
</style>
<g>
	<polygon class="st0" points="41.4,33 41.4,37.6 41.3,37.6 41.4,33 	"/>
	<polygon class="st1" points="41.2,49.9 41.3,49.9 40.9,101.3 	"/>
	<polygon class="st1" points="41.4,37.6 41.3,47.4 41.3,47.4 41.3,37.6 	"/>
	<polygon class="st2" points="41.2,49.9 41.3,49.9 40.9,101.3 	"/>
	<polygon class="st2" points="41.4,33 41.4,37.6 41.3,47.4 41.3,47.4 41.3,37.6 41.4,33 	"/>
	<path class="st1" d="M72.5,8.7c0.1-2,0-4.3-2.5-4.4c-2.8,0-29.4,0-29.4,0c0.6,0,1,0.5,1,1L41.5,18c10.4,0,20.6,0,30.9,0
		C72.5,14,72.5,10.8,72.5,8.7z"/>
	<path class="st0" d="M72.4,23.3c0-1.9,0-3.6,0.1-5.3c-10.3,0-20.5,0-30.9,0l-0.2,30c10.2,0,20.5,0,30.7,0
		C72.2,39.1,72.3,30.4,72.4,23.3z"/>
	<path class="st0" d="M72,50.1c0-0.7,0-1.4,0-2.1c-10.2,0-20.5,0-30.7,0l-0.1,7.8C51.5,55.5,61.7,55.2,72,55
		C72,53.4,72,51.7,72,50.1z"/>
	<path class="st1" d="M72,55c-10.2,0.1-20.5,0.4-30.7,0.7l-0.3,45.6l0,1.4c0,0.4-0.2,0.7-0.5,0.9c3.8-0.2,26.5-1.1,29-1.2
		c2.6-0.1,2.1-2,2.1-5.5C71.4,96.7,71.7,73.9,72,55z"/>
	<path class="st2" d="M41.6,5.3c0-0.6-0.5-1-1-1c0,0,26.7,0,29.4,0c2.5,0,2.6,2.4,2.5,4.4c0,3-0.1,8.2-0.2,14.6
		C72.3,31,72.2,40.5,72,50.1c-0.3,19.6-0.6,46.6-0.6,46.8c0,3.5,0.6,5.4-2.1,5.5c-2.4,0.1-25.2,1-29,1.2c0.3-0.2,0.5-0.5,0.5-0.9
		l0-1.4L41.6,5.3z"/>
	<polygon class="st3" points="41.6,5.3 41.4,31 41.4,31 	"/>
	<path class="st4" d="M38.9,96.4l0,4.9l-5.3,0c0,0,0,0,0-0.1c0.4,0,0.8-0.3,0.9-0.7c0.3-1,0.1-2.3-0.1-3.6c-0.2-1.4-0.5-3,0.1-3.5
		c0.9-0.6,1.8-0.3,2.2-0.1C37.7,93.7,38.7,94.8,38.9,96.4z"/>
	<path class="st4" d="M39,77.6v0.4l0,1.8l0,4.2l-4.9-0.2c0.1-0.1,0.2-0.2,0.3-0.4c0.8-1.6,0.5-3.5,0.3-5.1c-0.2-1.3-0.4-2.7,0.2-3
		c0.9-0.6,1.8-0.3,2.2-0.1C37.8,75.4,38.7,76.3,39,77.6z"/>
	<path class="st5" d="M39.1,72.8l0,1.2c-0.4-0.3-0.8-0.5-1.2-0.7c-0.6-0.3-1.2-0.4-1.8-0.4l-0.2-0.1L39.1,72.8z"/>
	<path class="st5" d="M38.9,91.5l0,0.8c-0.4-0.3-0.8-0.7-1.3-0.9c-0.1,0-0.1,0-0.2-0.1c-0.2-0.1-0.3-0.1-0.5-0.2c0,0-0.1,0-0.1,0
		L38.9,91.5z"/>
	<path class="st6" d="M41.4,31L41.4,31l0.3-25.7L41.4,31z M41.3,37.6l-0.1,9.8l0,0L41.3,37.6l0.1-4.6h-0.1L41.3,37.6z M40.9,101.3
		l0.4-51.4l0,0L40.9,101.3z"/>
	<path class="st7" d="M47.5,24.7V49l-0.1,0.4l-0.1,0.4l-0.2,0.4l-0.3,0.3l-0.3,0.3l-0.4,0.2l-0.4,0.1l-0.4,0l-0.4,0l-3.7-1.2l0,0
		l-0.3,51.5l0,1.4c0,0.4-0.2,0.7-0.5,0.9c-0.2,0.1-0.3,0.1-0.5,0.1c-0.6,0-1-0.5-1-1l0-1.4l0-4.9c-0.2-1.7-1.2-2.7-2.1-3.1
		c-0.5-0.2-1.4-0.5-2.2,0.1c-0.7,0.5-0.4,2.1-0.1,3.5c0.2,1.3,0.5,2.5,0.1,3.6c-0.1,0.4-0.5,0.7-0.9,0.7c-0.1,0-0.2,0-0.4,0
		c-0.5-0.2-0.9-0.7-0.7-1.3c0.2-0.6,0-1.6-0.2-2.7c-0.3-1.9-0.7-4.3,1-5.5c0.7-0.5,1.5-0.8,2.4-0.7h0c0,0,0.1,0,0.1,0
		c0,0,0.1,0,0.1,0H36l0.7,0.1c0,0,0,0,0,0h0c0,0,0,0,0,0s0,0,0.1,0c0,0,0.1,0,0.1,0c0.1,0,0.3,0.1,0.5,0.2c0.1,0,0.1,0,0.2,0.1
		c0.5,0.2,0.9,0.5,1.3,0.9l0-0.8l0-7.6l0-4.2l0-1.8v-0.4c-0.4-1.3-1.2-2.2-2-2.5c-0.5-0.2-1.4-0.5-2.2,0.1c-0.5,0.4-0.3,1.7-0.2,3
		c0.2,1.7,0.5,3.5-0.3,5.1c-0.1,0.1-0.2,0.3-0.3,0.4c-0.3,0.2-0.7,0.3-1,0.1c-0.5-0.3-0.7-0.9-0.5-1.4c0.5-1,0.3-2.5,0.1-3.9
		c-0.3-1.9-0.6-3.9,1-5c0.7-0.5,1.5-0.8,2.4-0.7c0.6,0,1.2,0.1,1.8,0.4c0.4,0.2,0.8,0.4,1.2,0.7l0-1.2l0.5-67.5c0-0.6,0.5-1,1-1
		s1,0.5,1,1l-0.4,42.1l0,0v0l3.3,1.1l0.2,0l0.2,0l0.2-0.1l0.2-0.1l0.2-0.1l0.1-0.2l0-0.2l0-0.2V25.3l0-0.8v0l0-0.1l0.1-0.2l0.2-0.2
		l0.2-0.1l0.2,0l0.2,0h0L47,24l0.2,0.1l0.2,0.2l0.1,0.2L47.5,24.7z"/>
	<g>
		<path class="st8" d="M45.7,30.4c-0.8,0.7-1.8,0.9-2.8,0.6c0.6-1,1.6-1.5,2.8-1.6V30.4z"/>
	</g>
	<path class="st8" d="M45.7,35.1c-1.2,0.1-2.1,0.5-2.8,1.6c1.1,0.3,1.9,0,2.8-0.6V35.1z"/>
	<path class="st8" d="M41.5,33.5c0.9,0.8,2,1,3.1,0.5c-0.7-1.1-1.9-1.6-3.1-1.5V33.5z"/>
	<path class="st8" d="M41.6,26.9c1.2,0,2.2,0.5,2.9,1.5c-1,0.5-2,0.4-2.9-0.3L41.6,26.9z"/>
	<path class="st8" d="M45.7,24.5c-1.3-0.1-2.3,0.5-3,1.6c1.2,0.3,2.1,0,3-0.7L45.7,24.5z"/>
	<path class="st1" d="M75.9,46.2V25.1l0-0.3l0-0.3l-0.1-0.3l-0.2-0.3l-0.2-0.3l-0.3-0.2l-0.3-0.1l-0.3-0.1l-0.3,0l-1.5,0.1l-0.3,0
		l-25.6,0.7L47,24l0.2,0.1l0.2,0.2l0.1,0.2l0.1,0.2v23.7c9.5-0.4,18.9-1.4,28.4-1.6l0-0.2L75.9,46.2z"/>
	<path class="st9" d="M47.5,49l-0.1,0.4l-0.1,0.4l-0.2,0.4l-0.3,0.3l-0.3,0.3l-0.4,0.2l-0.4,0.1l-0.4,0l-0.4,0l0.6,0.2L72,50.1h0
		l0.5,0l0.5,0l0.5-0.1l0.5-0.2l0.4-0.3l0.4-0.3l0.4-0.4l0.3-0.4l0.2-0.4l0.2-0.5l0.1-0.5l0-0.3C66.4,47,57,48.1,47.5,48.5V49z"/>
	<polygon class="st2" points="75.9,46.7 75.9,47.2 75.8,47.6 75.6,48.1 75.4,48.5 75.1,48.9 74.7,49.3 74.4,49.6 73.9,49.8 73.5,50 
		73,50.1 72.5,50.2 72,50.1 72,50.1 45.6,51.3 45,51.1 45.4,51.1 45.8,51.1 46.1,50.9 46.5,50.7 46.8,50.5 47.1,50.2 47.3,49.8 
		47.4,49.4 47.5,49 47.5,24.7 47.4,24.5 47.3,24.3 47.2,24.1 47,24 46.8,23.9 72.4,23.3 72.7,23.2 74.1,23.2 74.5,23.2 74.8,23.3 
		75.1,23.4 75.3,23.6 75.6,23.9 75.7,24.1 75.9,24.4 75.9,24.7 75.9,25.1 75.9,46.2 	"/>
	<line class="st10" x1="50.9" y1="29.4" x2="73.6" y2="28.7"/>
	<line class="st10" x1="50.9" y1="35.7" x2="73.6" y2="34.9"/>
</g>
</svg>
