<?xml version="1.0" encoding="utf-8"?>
<!-- Generator: Adobe Illustrator 21.1.0, SVG Export Plug-In . SVG Version: 6.00 Build 0)  -->
<svg version="1.1" id="Layer_1" xmlns="http://www.w3.org/2000/svg" xmlns:xlink="http://www.w3.org/1999/xlink" x="0px" y="0px"
	 width="108px" height="108px" viewBox="0 0 108 108" style="enable-background:new 0 0 108 108;" xml:space="preserve">
<style type="text/css">
	.st0{fill:#F2F2F2;}
	.st1{fill:#FFFFFF;}
	.st2{fill:none;stroke:#000000;stroke-width:0.75;stroke-linecap:round;stroke-linejoin:round;stroke-miterlimit:10;}
	.st3{fill:#F2F2F2;stroke:#000000;stroke-width:0.75;stroke-linecap:round;stroke-linejoin:round;stroke-miterlimit:10;}
	.st4{fill:#B3B3B3;stroke:#000000;stroke-width:0.5;stroke-linecap:round;stroke-linejoin:round;stroke-miterlimit:10;}
	.st5{fill:#E6E6E6;}
	.st6{fill:#FFFFFF;stroke:#000000;stroke-width:0.75;stroke-linecap:round;stroke-linejoin:round;stroke-miterlimit:10;}
	.st7{fill:#CCCCCC;stroke:#000000;stroke-width:0.75;stroke-linecap:round;stroke-linejoin:round;stroke-miterlimit:10;}
</style>
<g>
	<path class="st0" d="M72,34.1c-5,0.1-26,0.3-26,0.3c0,0,0,0,0-0.1c-0.8,0.1-1.7-0.3-2.4-0.6c-1.3-0.6-1.8-0.7-2-0.7l0,4.6
		c10,0,20.2,0,30.4,0C71.9,36.3,72,35.1,72,34.1z"/>
	<path class="st1" d="M71.9,37.6c-10.2,0-20.4,0-30.4,0l-0.4,65.1c0,0.4-0.2,0.7-0.5,0.9c3.8-0.2,26.5-1.1,29-1.2
		c2.6-0.1,2.1-2,2.1-5.5C71.6,94.2,71.8,55,71.9,37.6z"/>
	<path class="st2" d="M71.6,96.9c0,3.5,0.6,5.4-2.1,5.5c-2.4,0.1-25.2,1-29,1.2c0.3-0.2,0.5-0.5,0.5-0.9L41.5,33c0.2,0,0.7,0,2,0.7
		c0.7,0.4,1.6,0.7,2.4,0.6c0,0,0,0.1,0,0.1c0,0,21.1-0.2,26-0.3C71.9,49,71.6,94,71.6,96.9z"/>
	<path class="st3" d="M72.7,8.7c-0.5,0-1.1,0.1-1.7,0.2c-2,0.1-21.5,0.3-23.9,0.4c0,0-0.1,0-0.1,0c-0.2-0.1-0.4-0.2-0.7-0.1
		c-0.2,0-1.8,0.3-2.8,1.8c-0.5,0.7-0.7,1.6-0.7,2.6c0,0.4,0.1,0.7,0.2,1.1c0.5,2.2,1.6,8.7,2.2,13.1c0.2,1.4,0.4,2.8,0.5,3.8
		c0,0.4,0,0.7-0.1,0.9c0,0-0.3-0.1-1.2-0.5c-1.2-0.6-2.1-0.8-2.9-0.8l0.3-25.7c0-0.6-0.5-1-1-1c0,0,26.7,0,29.4,0
		C72.7,4.4,72.8,6.7,72.7,8.7z"/>
	<path class="st4" d="M39.1,96.4l0,4.9l-5.3,0c0,0,0,0,0-0.1c0.4,0,0.8-0.3,0.9-0.7c0.3-1,0.1-2.3-0.1-3.6c-0.2-1.4-0.5-3,0.1-3.5
		c0.9-0.6,1.8-0.4,2.2-0.1C37.8,93.7,38.9,94.8,39.1,96.4z"/>
	<path class="st4" d="M39.2,77.6l0,6.4l-4.9-0.2c0.1-0.1,0.2-0.2,0.3-0.4c0.8-1.6,0.5-3.5,0.3-5.1c-0.2-1.3-0.4-2.7,0.2-3
		c0.9-0.6,1.8-0.3,2.2-0.1C38,75.4,38.9,76.3,39.2,77.6z"/>
	<path class="st1" d="M74.8,9.7c-0.3-1.1-1-1.1-2.1-1c-0.5,0-1.1,0.1-1.7,0.2c-2,0.1-21.5,0.3-23.9,0.4c0,0-0.1,0-0.1,0
		c0.3,0.1,0.4,0.4,0.5,0.7c0.1,0.5-0.3,1.1-0.8,1.2c0,0-0.6,0.1-1.1,0.5c9.9,0,19.3,0,28.9-0.2C74.8,10.8,75,10.3,74.8,9.7z"/>
	<path class="st5" d="M74.1,18.6c-0.3-1.9-0.6-3.4-0.6-4.2c-0.1-1.2,0.6-2.1,1.1-3.1c-9.6,0.2-19.1,0.2-28.9,0.2
		c-0.2,0.1-0.3,0.3-0.4,0.5c-0.4,0.5-0.4,1.2-0.2,2.1c0.2,0.9,0.5,2.5,0.8,4.4C55.4,18.6,64.7,18.9,74.1,18.6z"/>
	<path class="st5" d="M47.7,31.6c0,1.1-0.2,1.9-0.9,2.4c-0.3,0.2-0.6,0.3-0.9,0.3c0,0,0,0.1,0,0.1c0,0,21.1-0.2,26-0.3
		c0.3,0,0.5,0,0.7,0c1.8-0.1,2.7-0.8,3-2.5C66.2,31.6,57,31.6,47.7,31.6z"/>
	<path class="st0" d="M75.4,27c-0.4-2.9-0.9-6-1.3-8.4c-9.4,0.3-18.7,0-28.3,0c0.5,2.8,1,6.1,1.4,8.9c0.3,1.7,0.5,3,0.5,4.1
		c9.3,0,18.5,0,27.9,0C75.8,30.5,75.7,29,75.4,27z"/>
	<path class="st2" d="M72.7,34c-0.2,0-0.4,0-0.7,0c-5,0.1-26,0.3-26,0.3c0,0,0,0,0-0.1c0.3,0,0.6-0.1,0.9-0.3
		c1.2-0.9,0.9-2.9,0.4-6.5c-0.7-4.7-1.8-11.1-2.3-13.3c-0.2-0.9-0.1-1.6,0.2-2.1c0.5-0.8,1.5-0.9,1.5-0.9c0.5-0.1,0.9-0.6,0.8-1.2
		c0-0.3-0.2-0.6-0.5-0.7c0,0,0.1,0,0.1,0C49.5,9.1,69,8.9,71,8.8c0.6,0,1.2-0.1,1.7-0.2c1.1-0.1,1.8-0.1,2.1,1
		c0.4,1.6-1.5,2.8-1.3,4.7c0.2,1.9,1.3,7.5,2,12.6C76.1,32.2,75.7,33.9,72.7,34z"/>
	<path class="st6" d="M39.2,72.8l0,1.2c-0.4-0.3-0.8-0.5-1.2-0.7c-0.6-0.3-1.2-0.4-1.8-0.4L36,72.7L39.2,72.8z"/>
	<path class="st6" d="M39.1,91.5l0,0.8c-0.4-0.4-0.8-0.7-1.3-0.9c-0.3-0.1-0.5-0.2-0.8-0.3L39.1,91.5z"/>
	<path class="st7" d="M47.2,27.5c-0.7-4.7-1.8-11.1-2.3-13.3c-0.2-0.9-0.1-1.6,0.2-2.1c0.5-0.8,1.5-0.9,1.5-0.9
		c0.5-0.1,0.9-0.6,0.8-1.2c0-0.3-0.2-0.6-0.5-0.7c-0.2-0.1-0.4-0.2-0.7-0.1c-0.2,0-1.8,0.3-2.8,1.8c-0.5,0.7-0.7,1.6-0.7,2.6
		c0,0.4,0.1,0.7,0.2,1.1c0.5,2.2,1.6,8.7,2.2,13.1c0.2,1.4,0.4,2.8,0.5,3.8c0,0.4,0,0.7-0.1,0.9c0,0-0.3-0.1-1.2-0.5
		c-1.2-0.6-2.1-0.8-2.9-0.8l0.3-25.7c0-0.6-0.5-1-1-1s-1,0.5-1,1l-0.5,67.5l0,1.2c-0.4-0.3-0.8-0.5-1.2-0.7
		c-0.6-0.3-1.2-0.4-1.8-0.4c-0.8,0-1.7,0.2-2.4,0.7c-1.6,1.1-1.3,3.1-1,5c0.2,1.4,0.4,2.9-0.1,3.9c-0.3,0.5,0,1.1,0.5,1.4
		c0.3,0.2,0.8,0.1,1-0.1c0.1-0.1,0.2-0.2,0.3-0.4c0.8-1.6,0.5-3.5,0.3-5.1c-0.2-1.3-0.4-2.7,0.2-3c0.9-0.6,1.8-0.3,2.2-0.1
		c0.8,0.4,1.6,1.2,2,2.5v0.4l0,1.8l0,4.2l0,7.6l0,0.8c-0.4-0.4-0.8-0.7-1.3-0.9c-0.3-0.1-0.8-0.3-0.8-0.3c0,0,0,0,0,0h0c0,0,0,0,0,0
		l-0.7-0.1h-0.1c0,0,0,0-0.1,0c0,0-0.1,0-0.1,0h0c-0.9,0-1.7,0.2-2.4,0.7c-1.7,1.2-1.3,3.6-1,5.5c0.2,1,0.4,2.1,0.2,2.7
		c-0.2,0.5,0.1,1.1,0.7,1.3c0.1,0,0.2,0,0.4,0c0.4,0,0.8-0.3,0.9-0.7c0.3-1,0.1-2.3-0.1-3.6c-0.2-1.4-0.5-3,0.1-3.5
		c0.9-0.6,1.8-0.4,2.2-0.1c0.9,0.4,1.9,1.4,2.1,3.1l0,4.9l0,1.3c0,0.6,0.5,1,1,1c0.2,0,0.4,0,0.5-0.1c0.3-0.2,0.5-0.5,0.5-0.9
		L41.5,33c0.2,0,0.7,0,2,0.7c0.7,0.4,1.6,0.7,2.4,0.6c0.3,0,0.6-0.1,0.9-0.3C48.1,33.1,47.8,31.1,47.2,27.5z"/>
</g>
</svg>
