<?xml version="1.0" encoding="utf-8"?>
<!-- Generator: Adobe Illustrator 21.1.0, SVG Export Plug-In . SVG Version: 6.00 Build 0)  -->
<svg version="1.1" id="Layer_1" xmlns="http://www.w3.org/2000/svg" xmlns:xlink="http://www.w3.org/1999/xlink" x="0px" y="0px"
	 width="108px" height="108px" viewBox="0 0 108 108" style="enable-background:new 0 0 108 108;" xml:space="preserve">
<style type="text/css">
	.st0{fill:#FFFFFF;stroke:#000000;stroke-width:0.75;stroke-linecap:round;stroke-linejoin:round;stroke-miterlimit:10;}
</style>
<g>
	<path class="st0" d="M39.6,65.9c-0.2,0.5-0.5,0.7-0.6,0.7c-1.1,0.6-3.5-0.5-5.5-1.3c0,0-0.2-0.1-0.6-0.3c-0.4-0.2-1.3,1.4-0.7,1.7
		c0.6,0.3,0.6,0.3,0.6,0.3c2.6,1.1,5.2,2.3,7.1,1.3c0.7-0.4,1.1-1,1.4-1.8"/>
	<path class="st0" d="M80.1,30.6c-0.2,0.5-0.5,0.7-0.6,0.7c-1.1,0.6-3.5-0.5-5.5-1.3c0,0-0.2-0.1-0.6-0.3c-0.4-0.2-1.3,1.4-0.7,1.7
		c0.6,0.3,0.6,0.3,0.6,0.3c2.6,1.1,5.2,2.3,7.1,1.3c0.7-0.4,1.1-1,1.4-1.8"/>
	<path class="st0" d="M53.4,32.3c0,0,0.3,0.1,0.4,0.1C53.7,32.4,53.6,32.4,53.4,32.3z"/>
	<path class="st0" d="M53.7,32.4C53.8,32.5,53.8,32.5,53.7,32.4L53.7,32.4z"/>
	<path class="st0" d="M99.5,16.5l3.9-1.9c1.2-0.5,1.6-1.3,1.8-1.9c0.2-0.9,0.1-1.8-0.5-2.7c-0.4-0.6-1-1-1.7-1.1
		c-1.3-0.2-3,0.4-4.8,1.8C97.4,11.4,5.8,90.1,4.1,92.6c-0.9,1.2-1.7,2.6-1.3,3.9C3,97.4,3.7,98.1,5,98.8C5.6,99.2,6.4,99.2,7,99
		c1.6-0.5,2.5-2.6,3.3-4.3c0.2-0.6,0.1-0.8,0.7-1.4c0.5-0.6-1.2-1.3-1.5-0.9c-0.3,0.4-0.5,1-0.8,1.6c-0.5,1.2-1.4,3.1-2.2,3.3
		c-0.1,0-0.3,0.1-0.7-0.1c-0.7-0.4-1.2-0.8-1.3-1.2c-0.1-0.5,0.3-1.4,1.1-2.5c2-2.4,89-77.7,93.7-81.4c2-1.5,3.1-1.5,3.4-1.5
		c0.3,0.1,0.4,0.2,0.5,0.3c0.3,0.4,0.4,0.9,0.3,1.2c-0.1,0.3-0.4,0.6-0.8,0.8l-3.9,1.8l0.4,0.8l0,0l0,0L99.5,16.5z"/>
	<path class="st0" d="M81.8,31.1c0.1-0.3,0.2-0.6,0.2-0.9c0.1-1-0.2-1.6-0.5-2c-1.1-1.3-3.5-1.5-6-1.7l-0.9-0.1
		c-2.3-0.2-5.2-0.1-7.3-0.1c-0.9,0-1.8,0-2.2,0c-1.7,0-2.4,0.7-3.3,1.7c-0.2,0.2-0.5,0.5-0.8,0.8c-0.3,0.3-0.5,0.5-0.7,0.7
		c-1.1,1.2-1.7,1.8-3.4,1.5c-1.6-0.4-2.7-0.5-3.4-0.6c-0.7-0.1-1.3,1.5-0.3,1.8c0,0,1.8,0.3,3.3,0.6c2.7,0.6,3.9-0.8,5.1-2
		c0.2-0.2,0.4-0.5,0.7-0.7c0.3-0.3,0.6-0.6,0.8-0.9c0.8-0.9,1.1-1.2,1.9-1.1c0.5,0,1.3,0,2.3,0c2.1,0,4.9-0.1,7.1,0l0.9,0.1
		c1.9,0.1,4.2,0.3,4.7,1c0.1,0.1,0.2,0.3,0.1,0.6c0,0.3-0.1,0.5-0.2,0.7"/>
	<path class="st0" d="M41.3,66.4c0.1-0.3,0.2-0.6,0.2-0.9c0.1-1-0.2-1.6-0.5-2c-1.1-1.3-3.5-1.5-6-1.7l-0.9-0.1
		c-2.3-0.2-5.2-0.1-7.3-0.1c-0.9,0-1.8,0-2.2,0c-1.7,0-2.4,0.7-3.3,1.7c-0.2,0.2-0.5,0.5-0.8,0.8c-0.3,0.3-0.5,0.5-0.7,0.7
		c-1.1,1.2-1.7,1.8-3.4,1.5c-1.6-0.4-2.7-0.5-3.4-0.6c-0.7-0.1-1.3,1.5-0.3,1.8c0,0,1.8,0.3,3.3,0.6c2.7,0.6,3.9-0.8,5.1-2
		c0.2-0.2,0.4-0.5,0.7-0.7c0.3-0.3,0.6-0.6,0.8-0.9c0.8-0.9,1.1-1.2,1.9-1.1c0.5,0,1.3,0,2.3,0c2.1,0,4.9-0.1,7.1,0l0.9,0.1
		c1.9,0.1,4.2,0.3,4.7,1c0.1,0.1,0.2,0.3,0.1,0.6c0,0.3-0.1,0.5-0.2,0.7"/>
</g>
</svg>
