<?xml version="1.0" encoding="utf-8"?>
<!-- Generator: Adobe Illustrator 21.1.0, SVG Export Plug-In . SVG Version: 6.00 Build 0)  -->
<svg version="1.1" id="Layer_1" xmlns="http://www.w3.org/2000/svg" xmlns:xlink="http://www.w3.org/1999/xlink" x="0px" y="0px"
	 width="108px" height="108px" viewBox="0 0 108 108" style="enable-background:new 0 0 108 108;" xml:space="preserve">
<style type="text/css">
	.st0{fill:#666666;stroke:#000000;stroke-width:0.75;}
	.st1{fill:#FFFFFF;stroke:#000000;stroke-width:0.75;}
	.st2{fill:#E6E6E6;stroke:#000000;stroke-width:0.75;}
	.st3{fill:none;stroke:#000000;stroke-width:0.75;}
	.st4{fill:#F2F2F2;stroke:#000000;stroke-width:0.75;}
	.st5{fill:none;stroke:#000000;stroke-width:0.25;}
	.st6{fill:none;stroke:#000000;stroke-width:0.5;}
	.st7{fill:#4D4D4D;stroke:#000000;stroke-width:0.5;}
	.st8{fill:#808080;stroke:#000000;stroke-width:0.5;}
</style>
<g>
	<path class="st0" d="M52.7,99.5l-12,1.7l0-0.1c0,0-2.3-10.1-3.1-13.6c-0.8-3.5-3.5-11.3-4.2-13l-0.2,0c-1-3.3-2.9-7.9-4.9-13.1
		c0-0.1,0-0.1-0.1-0.2c-1.4-3.6-2.8-7.4-4-11.2c-3.1-10.1-3.5-15.6,0.1-21.8c3.8-6.6,10.3-8.6,10.3-8.6l0.2,0
		c-0.1,2.3-0.3,9.3,0.1,10.6c0.1,0.2,0.2,0.4,0.3,0.5l0,0.1c0,0-1.3-0.1-3,1.1c-0.7,0.5-1.3,1.1-1.6,1.7c-0.4,0.2-2.1,1.4-1.9,5
		c0.2,2.6,6.5,15.1,7.7,17.8c1.2,2.7,7.1,14.5,9.3,19.5c1.7,3.7,4.6,13,5.8,17.2C51.7,94.5,51.9,94.5,52.7,99.5z"/>
	<path class="st1" d="M54.2,99.3l-1.6,0.2c-0.8-5-0.9-5-1.3-6.2c-1.2-4.2-4.1-13.5-5.8-17.2c-2.2-5-8.1-16.7-9.3-19.5
		c-1.2-2.7-7.5-15.2-7.7-17.8c-0.2-3.6,1.5-4.8,1.9-5c-0.5,0.9-0.8,2.1-0.7,3.6c0.1,3.6,4.9,12.7,6.9,16.8
		c1.9,4,10.5,21.7,12.5,27.3C51.1,87.1,54.2,99.3,54.2,99.3z"/>
	<path class="st0" d="M34.5,86.4c0.4,3.9,0.9,18.6,0.9,19l-13.8,1.4l0-0.1c0,0,0.4-16,0.6-23.8c0.3-7.8-1.4-23.5-2.2-27.9
		c-0.8-4.4-3-17.4-2.7-21.2s1.6-10.4,6.1-16.5c4.3-5.9,12.4-9.4,12.4-9.4L35.8,8c-0.8,0.9-1.2,1.8-1.2,2.8c0,0.4,0,0.7,0.1,1.1h0
		c0,1.9,0.1,5.2,0.1,6.8c0,0.1,0,0.3,0,0.4h0c0,0,0,0.3,0,0.7l-0.2,0c0,0-6.4,2-10.3,8.6c-3.6,6.2-3.2,11.7-0.1,21.8
		c1.2,3.8,2.6,7.6,4,11.2c0,0.1,0,0.1,0.1,0.2l0,0c0.4,1.2,2.6,7.7,3.1,10.1C31.8,74.2,34,82.4,34.5,86.4z"/>
	<path class="st1" d="M40.7,101.2L40.7,101.2l-1.6,0.3l-3.4-16l0-0.1c0,0,0-0.1,0-0.2c0,0,0,0,0,0l-0.1-0.3c0,0,0,0,0,0.1v0
		c0,0.3,0.1,1,0.1,2.1c0,1.4,0.9,18.2,0.9,18.2l-1.2,0.1c0-0.4-0.5-15-0.9-19c-0.4-4.1-2.6-12.2-3.1-14.8c-0.5-2.4-2.6-8.9-3.1-10.1
		l0,0c2,5.1,4,9.8,4.9,13.1l0.2,0c0.6,1.7,3.4,9.5,4.2,13C38.3,91,40.7,101.2,40.7,101.2z"/>
	<path class="st1" d="M47.2,2.7l-1,2.4L45,8.1l-2.6,6l-1.3,3v0l-2.8,6.5l-3.1,7.3c-0.1-0.2-0.2-0.4-0.3-0.5
		c-0.5-1.3-0.2-8.4-0.1-10.6c0-0.4,0-0.7,0-0.7h0c0-0.1,0-0.3,0-0.4c0-1.5-0.1-4.9-0.1-6.8h0c-0.1-0.4-0.2-0.7-0.1-1.1
		c0-1,0.4-1.9,1.2-2.8l-0.1-0.1c0,0-8.1,3.5-12.4,9.4c-4.5,6.1-5.9,12.7-6.1,16.5s1.9,16.8,2.7,21.2c0.8,4.4,2.5,20.1,2.2,27.9
		c-0.3,7.8-0.6,23.8-0.6,23.8l0,0.1l-1.7,0.2c0,0,0.5-19.3,0.5-23.2c0-3.9-0.3-17.4-2.7-31.2s-3.8-20.3,2.2-32.8
		C24.1,10.9,36.3,6,42.9,3.9c0,0,0.1,0,0.2-0.1C45.6,3.1,47.2,2.7,47.2,2.7z"/>
	<path class="st2" d="M92.3,20.1c0,2.5-0.1,7.3-0.2,8.5C92,34,79,38.1,63,38c-10.4-0.1-20.6-2.3-25.4-5.2c0,0-1.6-0.7-2.4-2
		c-0.1-0.2-0.2-0.4-0.3-0.5c-0.5-1.3-0.2-8.4-0.1-10.6c0-0.4,0-0.7,0-0.7h0c0,0.1,0,0.3,0.1,0.5c0,0,0,0,0,0.1c0,0,0,0.1,0,0.1
		c0,0.1,0.1,0.3,0.1,0.4c0,0.1,0.1,0.2,0.1,0.3c0.2,0.3,0.4,0.7,0.6,1c0.1,0.1,0.2,0.3,0.3,0.4c0.4,0.4,0.8,0.8,1.4,1.2
		c0.1,0.1,0.2,0.2,0.4,0.3c0.1,0.1,0.2,0.2,0.4,0.3c0.7,0.5,1.6,1,2.6,1.4c0.4,0.2,0.7,0.3,1.1,0.5c0.2,0.1,0.4,0.2,0.6,0.2
		c0.2,0.1,0.4,0.2,0.6,0.2c0.6,0.2,1.3,0.4,2,0.6c0.5,0.1,1,0.3,1.4,0.4c0.2,0,0.3,0.1,0.5,0.1c0.3,0.1,0.7,0.2,1,0.2
		c0.1,0,0.3,0.1,0.4,0.1c0.4,0.1,0.8,0.2,1.2,0.2c0.5,0.1,1.1,0.2,1.7,0.3c0.1,0,0.2,0,0.4,0.1c0.5,0.1,0.9,0.1,1.4,0.2
		c1,0.1,2.1,0.3,3.2,0.3c0.2,0,0.4,0,0.6,0c0.7,0.1,1.4,0.1,2.1,0.1c0.5,0,1,0,1.5,0.1c0.7,0,1.3,0,2,0
		C78.7,28.9,92.1,25.5,92.3,20.1z"/>
	<path class="st3" d="M92.3,18.9c0,0.3,0,0.7,0,1.2"/>
	<path class="st4" d="M92.3,19.4c0,0.2,0,0.4,0,0.6v0c-0.2,5.5-13.6,8.8-29.5,8.7c-0.7,0-1.3,0-2,0c-0.5,0-1,0-1.5-0.1
		c-0.7,0-1.4-0.1-2.1-0.1c-0.2,0-0.4,0-0.6,0c-1.1-0.1-2.2-0.2-3.2-0.3c-0.5-0.1-0.9-0.1-1.4-0.2c-0.1,0-0.2,0-0.4-0.1
		c-0.6-0.1-1.1-0.2-1.7-0.3c-0.4-0.1-0.8-0.1-1.2-0.2c-0.1,0-0.3-0.1-0.4-0.1c-0.4-0.1-0.7-0.2-1-0.2c-0.2,0-0.3-0.1-0.5-0.1
		c-0.5-0.1-1-0.3-1.4-0.4c-0.7-0.2-1.4-0.4-2-0.6c-0.2-0.1-0.4-0.1-0.6-0.2c-0.2-0.1-0.4-0.2-0.6-0.2c-0.4-0.1-0.7-0.3-1.1-0.5
		c-1-0.4-1.8-0.9-2.6-1.4c-0.1-0.1-0.3-0.2-0.4-0.3c-0.1-0.1-0.2-0.2-0.4-0.3c-0.5-0.4-1-0.8-1.4-1.2c-0.1-0.1-0.2-0.3-0.3-0.4
		c-0.3-0.3-0.5-0.7-0.6-1c-0.1-0.1-0.1-0.2-0.1-0.3C35,20,35,19.8,35,19.7c0,0,0-0.1,0-0.1c0,0,0,0,0-0.1c0-0.1-0.1-0.3-0.1-0.5
		c0-0.1,0-0.3,0-0.4c0-1.5-0.1-4.9-0.1-6.8h0c0.6,2,2.9,3.8,6.3,5.3v0c5.3,2.2,13.3,3.7,22.2,3.7c14.8,0.1,27.2-3.7,28.9-8.6
		C92.4,13.6,92.3,17.6,92.3,19.4z"/>
	<line class="st3" x1="92.3" y1="12.2" x2="92.3" y2="12.2"/>
	<path class="st4" d="M92.5,11.1c0,0.4-0.1,0.8-0.2,1.1v0c-1.8,4.9-14.1,8.7-28.9,8.6c-9,0-17-1.5-22.2-3.7v0
		c-3.5-1.5-5.8-3.3-6.3-5.3c-0.1-0.4-0.2-0.7-0.1-1.1c0-1,0.4-1.9,1.2-2.8c1.4-1.6,3.8-3,7.1-4.1c0,0,0.1,0,0.2-0.1
		C48.3,2.1,55.7,1,63.8,1C79.7,1.1,92.6,5.6,92.5,11.1z"/>
	<path class="st5" d="M56,13.4c-2.5-0.8-4-1.9-3.9-3c0.1-2.1,5.3-3.6,11.5-3.5c6.2,0.2,11.2,2,11.1,4.1c0,0.8-0.9,1.6-2.3,2.2"/>
	<path class="st5" d="M51.7,12.8c-1.3-0.7-2-1.6-1.9-2.5c0.1-2.5,6.3-4.4,13.8-4.2c2.7,0.1,5.2,0.4,7.3,0.9"/>
	<path class="st5" d="M51.7,12.8"/>
	<path class="st5" d="M74.6,8.4c1.5,0.8,2.4,1.7,2.4,2.7c-0.1,2.5-6.3,4.4-13.8,4.2c-1.1,0-2.2-0.1-3.3-0.2"/>
	<path class="st5" d="M47.1,10.2c0.2-3,7.6-5.2,16.6-5c9,0.3,16.2,2.9,16,5.9"/>
	<path class="st5" d="M75.7,14.5c-3.1,1.1-7.6,1.8-12.7,1.6c-5.9-0.2-11-1.3-13.8-3"/>
	<path class="st5" d="M70.2,4.7c7.5,1.1,12.9,3.7,12.7,6.5c0,0.6-0.3,1.1-0.8,1.7"/>
	<path class="st5" d="M43.8,10.5c0-0.1,0-0.3,0-0.4c0.2-3.6,9.1-6.3,19.9-6c0.7,0,1.4,0.1,2.1,0.1"/>
	<path class="st5" d="M49.9,15.1c-1.8-0.6-3.3-1.3-4.4-2.1"/>
	<path class="st5" d="M78.2,15.3c-3.7,1.4-9.1,2.1-15.2,2c-4.3-0.1-8.3-0.7-11.5-1.6"/>
	<path class="st5" d="M86.6,11c0.1,0.2,0.1,0.5,0.1,0.7c-0.2,4.3-10.9,7.6-23.9,7.2c-6.5-0.2-12.3-1.2-16.4-2.7"/>
	<path class="st5" d="M42.6,14.2c-1.9-1.2-2.9-2.5-2.8-3.9C40,5.9,50.7,2.7,63.6,3.1C72.5,3.3,80.2,5.2,84,7.8"/>
	<path class="st3" d="M35.7,85.5c0,0,0,0,0-0.1c0,0,0-0.1,0-0.2c0,0,0,0,0,0c0,0,0-0.1,0-0.2v0c-0.3-1.2-1-4.7-2-9
		c-0.1-0.4-0.2-0.9-0.4-1.4"/>
	<path class="st6" d="M35.4,105.4C35.4,105.4,35.4,105.4,35.4,105.4"/>
	<path class="st6" d="M28.3,61.5c0-0.1-0.1-0.2-0.1-0.2"/>
	<path class="st6" d="M52.7,99.5C52.7,99.5,52.7,99.5,52.7,99.5"/>
	<path class="st6" d="M30.6,33.8C30.6,33.8,30.6,33.8,30.6,33.8"/>
	<g>
		<path class="st7" d="M71.9,11.2c-0.1,1.6-3.9,2.7-8.6,2.6c-4.7-0.1-8.4-1.5-8.3-3.1c0.1-1.6,3.9-2.7,8.6-2.6
			C68.3,8.2,72,9.6,71.9,11.2z"/>
		<path class="st8" d="M71.9,11.2c0,0.7-0.9,1.3-2.2,1.8c-1.5-0.6-3.7-1-6.1-1.1c-2.5-0.1-4.8,0.2-6.4,0.8c-1.4-0.5-2.3-1.2-2.2-2
			c0.1-1.6,3.9-2.7,8.6-2.6C68.3,8.2,72,9.6,71.9,11.2z"/>
	</g>
	<g>
		<line class="st6" x1="48.4" y1="83.7" x2="37.2" y2="85.5"/>
		<line class="st6" x1="43.4" y1="71.4" x2="32.6" y2="72.6"/>
		<line class="st6" x1="38.7" y1="61.7" x2="28.9" y2="62.9"/>
		<line class="st6" x1="34.4" y1="52.6" x2="25.4" y2="53.8"/>
		<line class="st6" x1="31.1" y1="45.5" x2="23.1" y2="46.1"/>
		<line class="st6" x1="28.8" y1="39.8" x2="21.8" y2="38.6"/>
		<line class="st6" x1="29.3" y1="35.2" x2="24" y2="28.9"/>
		<line class="st6" x1="33.2" y1="31.5" x2="30.9" y2="21.5"/>
		<line class="st6" x1="30.8" y1="10.6" x2="33" y2="20.4"/>
		<line class="st6" x1="21.8" y1="18.9" x2="24.9" y2="27.4"/>
		<line class="st6" x1="17.6" y1="30.8" x2="22" y2="34.8"/>
		<line class="st6" x1="18" y1="43" x2="22.5" y2="43.8"/>
		<line class="st6" x1="19.4" y1="52" x2="24.4" y2="52.2"/>
		<line class="st6" x1="20.7" y1="60.6" x2="27.9" y2="60.5"/>
		<line class="st6" x1="21.7" y1="70.4" x2="30.9" y2="69.9"/>
		<line class="st6" x1="22.2" y1="80" x2="33" y2="79"/>
		<line class="st6" x1="21.8" y1="91.8" x2="34.8" y2="90.9"/>
	</g>
</g>
</svg>
