<?xml version="1.0" encoding="utf-8"?>
<!-- Generator: Adobe Illustrator 21.1.0, SVG Export Plug-In . SVG Version: 6.00 Build 0)  -->
<svg version="1.1" id="Layer_1" xmlns="http://www.w3.org/2000/svg" xmlns:xlink="http://www.w3.org/1999/xlink" x="0px" y="0px"
	 width="108px" height="108px" viewBox="0 0 108 108" style="enable-background:new 0 0 108 108;" xml:space="preserve">
<style type="text/css">
	.st0{fill:#E6E6E6;stroke:#000000;stroke-width:0.75;}
	.st1{fill:none;stroke:#000000;}
	.st2{fill:#F2F2F2;stroke:#000000;stroke-width:0.75;}
	.st3{fill:#4D4D4D;stroke:#000000;stroke-width:0.5;}
	.st4{fill:none;stroke:#000000;stroke-width:0.25;}
	.st5{fill:#FFFFFF;stroke:#000000;stroke-width:0.75;}
	.st6{fill:none;stroke:#000000;stroke-width:0.75;}
	.st7{fill:#CCCCCC;stroke:#000000;stroke-width:0.75;}
	.st8{fill:#CCCCCC;stroke:#000000;}
	.st9{fill:#CCCCCC;stroke:#000000;stroke-width:0.25;stroke-linecap:round;stroke-linejoin:round;}
	.st10{fill:#808080;stroke:#000000;stroke-width:0.5;}
</style>
<g>
	<path class="st0" d="M94.6,33.9C94.5,40.5,80.7,47.1,61.6,47c-12.3-0.1-22.6-2.4-28.4-5.8C31.7,36,30.3,31,29.8,29.5
		c-0.4-1.2-0.8-2.1-1.1-2.9c3.3,5.3,16.3,9.3,32.6,9.4c14.9,0.1,28-3.2,33-7.8l0,0C94.6,30.1,94.6,32.3,94.6,33.9z"/>
	<path class="st1" d="M33.2,41.2c-0.1,0-0.2-0.1-0.2-0.1"/>
	<path class="st2" d="M96.6,24.1c0,1.4-0.8,2.8-2.3,4.1c-5.1,4.6-18.1,7.8-33,7.8c-16.3-0.1-29.3-4.2-32.6-9.4
		c-0.5-1.2-0.8-2.3-0.8-4l-0.1-6.9c1.7,6,16.3,10.7,34.2,10.8c17.7,0.1,32.5-4.4,34.6-10.3C96.8,18,96.6,22.5,96.6,24.1z"/>
	<path class="st1" d="M28.7,26.5c-0.6-0.9-0.9-1.8-0.8-2.8c0-1.8-0.2-5.9-0.1-8.1"/>
	<path class="st1" d="M96.5,16.2C96.5,16.2,96.5,16.2,96.5,16.2"/>
	<path class="st2" d="M96.8,14.8c0,0.5-0.1,0.9-0.3,1.4c-2.1,5.9-16.8,10.4-34.6,10.3c-17.9-0.1-32.5-4.8-34.2-10.8
		c-0.1-0.4-0.2-0.8-0.2-1.2c0-0.3,0.1-0.6,0.1-1C29.3,7.3,44.3,2.6,62.4,2.7C81.6,2.8,96.9,8.3,96.8,14.8z"/>
	<path class="st3" d="M73.2,14.6c-0.1,2.1-5.2,3.6-11.5,3.5c-6.2-0.2-11.2-2-11.1-4.1c0.1-2.1,5.2-3.6,11.5-3.5
		C68.4,10.7,73.3,12.5,73.2,14.6z"/>
	<path class="st4" d="M53.1,17.6c-2.9-0.9-4.8-2.2-4.7-3.6c0.1-2.5,6.3-4.4,13.8-4.2c7.5,0.2,13.4,2.4,13.3,4.9
		c-0.1,1-1.1,1.9-2.8,2.6"/>
	<path class="st4" d="M48,16.8c-1.5-0.9-2.4-1.9-2.3-2.9c0.2-3,7.6-5.2,16.5-5C65.5,9,68.5,9.4,71,10"/>
	<path class="st4" d="M48,16.8"/>
	<path class="st4" d="M75.4,11.5c1.8,0.9,2.9,2.1,2.8,3.2c-0.2,3-7.6,5.2-16.5,5c-1.3,0-2.7-0.1-3.9-0.3"/>
	<path class="st4" d="M42.5,13.8c0.2-3.6,9.1-6.3,19.8-6c10.8,0.3,19.3,3.5,19.2,7.1"/>
	<path class="st4" d="M76.8,18.9c-3.7,1.3-9.1,2.1-15.2,1.9c-7-0.2-13.1-1.6-16.5-3.6"/>
	<path class="st4" d="M70.1,7.1c9,1.3,15.4,4.4,15.2,7.8c0,0.7-0.3,1.4-0.9,2"/>
	<path class="st4" d="M38.6,14.1c0-0.2,0-0.3,0-0.5c0.2-4.3,10.9-7.5,23.8-7.2c0.9,0,1.7,0.1,2.6,0.1"/>
	<path class="st4" d="M45.9,19.6c-2.2-0.7-4-1.6-5.2-2.6"/>
	<path class="st4" d="M79.8,19.8c-4.4,1.6-10.9,2.6-18.2,2.4c-5.2-0.1-9.9-0.8-13.8-1.9"/>
	<path class="st4" d="M89.8,14.7c0.1,0.3,0.1,0.6,0.1,0.9c-0.3,5.2-13.1,9-28.6,8.6c-7.7-0.2-14.7-1.5-19.6-3.3"/>
	<path class="st4" d="M37.1,18.5c-2.2-1.4-3.5-3-3.4-4.7c0.3-5.2,13.1-9,28.6-8.6c10.7,0.3,19.8,2.5,24.4,5.6"/>
	<path class="st5" d="M41.8,104l-14.1,0.3c0,0-0.3-1-0.2-4.5c0.2-3.4-1.9-23.9-1.9-23.9s0.2,9.1,0.2,11.8c0,2.7,0,16.5,0,16.5
		s-4.8,0.3-6.9,0.7c-2.1,0.3-7.6,0.2-7.6,0.2s0-3.8,0-6c0-2.2,0.3-12.5,0.3-18.9c0-6.4-0.3-22.7-0.5-28C11,47,12.2,36.9,13.1,35
		c0.9-1.9,4.8-7.7,6-8.9c1.2-1.2,0.7-1.5,1.4-2.7c0.7-1.2,2.1-4.1,3.9-6.2c1.9-2.1,3.3-4.3,3.3-4.3l0,0.6l0,2.2l0.1,6.9
		c0,1.8,0.3,2.8,0.8,4c0.3,0.8,0.7,1.7,1.1,2.9c0.5,1.5,1.9,6.5,3.4,11.7c1.6,5.6,3.1,11.6,3.5,13.7c0.7,4.1,2.9,23,3.6,29.2
		C40.9,90.3,41.8,104,41.8,104z"/>
	<path class="st6" d="M19.7,25.2c0,0-0.1,6.3,0.4,9.1c0.5,2.7,2.4,12,2.9,15.3c0.5,3.3,1.5,10.5,1.5,13.4c0,2.9,1,13.1,1,13.1"/>
	<g>
		<circle class="st7" cx="47.3" cy="40.6" r="3.3"/>
		<circle class="st7" cx="38.2" cy="38.1" r="3.3"/>
		<path class="st7" d="M30.4,31.3c1.8,0,3.3,1.5,3.3,3.3c0,1.1-0.6,2.1-1.4,2.7"/>
		<circle class="st7" cx="57.1" cy="42" r="3.3"/>
		<circle class="st7" cx="67.4" cy="42" r="3.3"/>
		<circle class="st7" cx="76.8" cy="40.5" r="3.3"/>
		<path class="st7" d="M86.8,37.9c0.2,1.6-0.6,3-1.9,3.2c-1.3,0.2-2.5-1-2.7-2.5c-0.2-1.6,0.6-3,1.9-3.2
			C85.4,35.2,86.6,36.3,86.8,37.9z"/>
		<path class="st7" d="M92.5,34.9c0.2,1.5-0.6,2.8-1.7,3c-1.2,0.2-2.3-0.9-2.5-2.4c-0.2-1.5,0.6-2.8,1.7-3
			C91.2,32.4,92.3,33.4,92.5,34.9z"/>
		<circle class="st8" cx="18.3" cy="97.5" r="5.1"/>
		<circle class="st8" cx="18.6" cy="84.7" r="5.1"/>
		<ellipse class="st8" cx="18.4" cy="73" rx="5.1" ry="4.1"/>
		<ellipse class="st8" cx="17.8" cy="62.8" rx="5.1" ry="3.7"/>
		
			<ellipse transform="matrix(0.9989 -4.788417e-02 4.788417e-02 0.9989 -2.5502 0.8895)" class="st8" cx="17.3" cy="53.7" rx="4.8" ry="3.3"/>
		<ellipse transform="matrix(0.9824 -0.187 0.187 0.9824 -7.327 3.8224)" class="st8" cx="16.6" cy="40.8" rx="3.3" ry="1.9"/>
		<path class="st8" d="M18.7,35.1c0.3,0.6-0.6,1.4-1.9,1.8c-1.3,0.4-2.6,0.1-2.8-0.5c-0.3-0.6,0.6-1.4,1.9-1.8
			C17.2,34.2,18.5,34.5,18.7,35.1z"/>
		<ellipse transform="matrix(0.9824 -0.1869 0.1869 0.9824 -8.4141 3.9187)" class="st8" cx="16.6" cy="46.6" rx="4" ry="2.1"/>
	</g>
	<g>
		<g>
			<circle class="st7" cx="40.6" cy="28.7" r="3.3"/>
			<line class="st9" x1="38.2" y1="26.9" x2="38.2" y2="30.7"/>
			<line class="st9" x1="40.9" y1="25.6" x2="40.9" y2="31.9"/>
			<line class="st9" x1="41.6" y1="25.5" x2="41.6" y2="31.9"/>
			<line class="st9" x1="42.3" y1="25.5" x2="42.3" y2="31.8"/>
			<line class="st9" x1="42.9" y1="26" x2="42.9" y2="31.3"/>
			<line class="st9" x1="40.2" y1="25.5" x2="40.2" y2="31.8"/>
			<line class="st9" x1="39.5" y1="25.5" x2="39.5" y2="31.8"/>
			<line class="st9" x1="38.8" y1="25.7" x2="38.8" y2="31.6"/>
		</g>
		<g>
			<circle class="st7" cx="49.6" cy="30.5" r="3.3"/>
			<line class="st9" x1="47.2" y1="28.7" x2="47.2" y2="32.5"/>
			<line class="st9" x1="49.9" y1="27.4" x2="49.9" y2="33.7"/>
			<line class="st9" x1="50.6" y1="27.3" x2="50.6" y2="33.7"/>
			<line class="st9" x1="51.3" y1="27.3" x2="51.3" y2="33.6"/>
			<line class="st9" x1="52" y1="27.8" x2="52" y2="33.1"/>
			<line class="st9" x1="49.3" y1="27.3" x2="49.3" y2="33.6"/>
			<line class="st9" x1="48.6" y1="27.3" x2="48.6" y2="33.6"/>
			<line class="st9" x1="47.9" y1="27.5" x2="47.9" y2="33.4"/>
		</g>
		<g>
			<circle class="st7" cx="59.4" cy="31.2" r="3.3"/>
			<line class="st9" x1="57" y1="29.4" x2="57" y2="33.2"/>
			<line class="st9" x1="59.7" y1="28.1" x2="59.7" y2="34.4"/>
			<line class="st9" x1="60.4" y1="28" x2="60.4" y2="34.4"/>
			<line class="st9" x1="61.1" y1="28" x2="61.1" y2="34.3"/>
			<line class="st9" x1="61.8" y1="28.5" x2="61.8" y2="33.8"/>
			<line class="st9" x1="59" y1="28" x2="59" y2="34.3"/>
			<line class="st9" x1="58.3" y1="28" x2="58.3" y2="34.3"/>
			<line class="st9" x1="57.7" y1="28.2" x2="57.7" y2="34.1"/>
		</g>
		<g>
			<circle class="st7" cx="68.9" cy="30.9" r="3.3"/>
			<line class="st9" x1="66.4" y1="29.1" x2="66.4" y2="32.9"/>
			<line class="st9" x1="69.2" y1="27.8" x2="69.2" y2="34.1"/>
			<line class="st9" x1="69.9" y1="27.8" x2="69.9" y2="34.1"/>
			<line class="st9" x1="70.6" y1="27.7" x2="70.6" y2="34.1"/>
			<line class="st9" x1="71.2" y1="28.2" x2="71.2" y2="33.5"/>
			<line class="st9" x1="68.5" y1="27.7" x2="68.5" y2="34"/>
			<line class="st9" x1="67.8" y1="27.7" x2="67.8" y2="34.1"/>
			<line class="st9" x1="67.1" y1="27.9" x2="67.1" y2="33.8"/>
		</g>
		<g>
			<circle class="st7" cx="34.3" cy="96.5" r="4.8"/>
			<line class="st9" x1="36.9" y1="93" x2="31.4" y2="93"/>
			<line class="st9" x1="38.7" y1="97" x2="29.6" y2="97"/>
			<line class="st9" x1="38.8" y1="97.9" x2="29.7" y2="97.9"/>
			<line class="st9" x1="38.5" y1="98.9" x2="30" y2="98.9"/>
			<line class="st9" x1="37.8" y1="99.9" x2="30.6" y2="99.9"/>
			<line class="st9" x1="38.9" y1="96" x2="29.8" y2="96"/>
			<line class="st9" x1="38.8" y1="95" x2="29.8" y2="95"/>
			<line class="st9" x1="38.6" y1="94" x2="30" y2="94"/>
		</g>
		<g>
			<circle class="st7" cx="33" cy="83.5" r="4.8"/>
			<line class="st9" x1="35.9" y1="80" x2="30.1" y2="80"/>
			<line class="st9" x1="37.4" y1="83.9" x2="28.3" y2="83.9"/>
			<line class="st9" x1="37.5" y1="84.9" x2="28.4" y2="84.9"/>
			<line class="st9" x1="37.2" y1="85.9" x2="28.7" y2="85.9"/>
			<line class="st9" x1="36.3" y1="86.9" x2="29.3" y2="86.9"/>
			<line class="st9" x1="37.6" y1="83" x2="28.5" y2="83"/>
			<line class="st9" x1="37.5" y1="82" x2="28.5" y2="82"/>
			<line class="st9" x1="37.3" y1="81" x2="28.7" y2="81"/>
		</g>
		<g>
			<ellipse class="st7" cx="32.1" cy="72.2" rx="4.8" ry="4"/>
			<line class="st9" x1="34.7" y1="69.3" x2="29.2" y2="69.3"/>
			<line class="st9" x1="36.5" y1="72.5" x2="27.4" y2="72.5"/>
			<line class="st9" x1="36.6" y1="73.4" x2="27.5" y2="73.4"/>
			<line class="st9" x1="36.1" y1="74.2" x2="28" y2="74.2"/>
			<line class="st9" x1="35.6" y1="75" x2="28.3" y2="75"/>
			<line class="st9" x1="36.7" y1="71.7" x2="27.6" y2="71.7"/>
			<line class="st9" x1="36.6" y1="70.9" x2="27.5" y2="70.9"/>
			<line class="st9" x1="36.3" y1="70.1" x2="27.8" y2="70.1"/>
		</g>
		<g>
			<ellipse class="st7" cx="30.9" cy="61.6" rx="4.8" ry="4"/>
			<line class="st9" x1="33.8" y1="58.7" x2="28" y2="58.7"/>
			<line class="st9" x1="35.3" y1="62" x2="26.3" y2="62"/>
			<line class="st9" x1="35.4" y1="62.8" x2="26.3" y2="62.8"/>
			<line class="st9" x1="35.1" y1="63.6" x2="26.6" y2="63.6"/>
			<line class="st9" x1="34.5" y1="64.4" x2="27.2" y2="64.4"/>
			<line class="st9" x1="35.5" y1="61.2" x2="26.4" y2="61.2"/>
			<line class="st9" x1="35.5" y1="60.4" x2="26.4" y2="60.4"/>
			<line class="st9" x1="35.2" y1="59.5" x2="26.7" y2="59.5"/>
		</g>
		<g>
			<ellipse transform="matrix(0.981 -0.1941 0.1941 0.981 -9.6298 6.7427)" class="st7" cx="29.6" cy="52.5" rx="4.8" ry="3"/>
			<line class="st9" x1="31.7" y1="49.9" x2="26.3" y2="50.9"/>
			<line class="st9" x1="34" y1="51.9" x2="25.1" y2="53.7"/>
			<line class="st9" x1="34.2" y1="52.5" x2="25.3" y2="54.3"/>
			<line class="st9" x1="33.9" y1="53.2" x2="25.5" y2="54.9"/>
			<line class="st9" x1="33.6" y1="53.9" x2="26.3" y2="55.3"/>
			<line class="st9" x1="34.1" y1="51.3" x2="25.1" y2="53.1"/>
			<line class="st9" x1="33.9" y1="50.7" x2="24.9" y2="52.5"/>
			<line class="st9" x1="33.5" y1="50.2" x2="25.1" y2="51.8"/>
		</g>
		<g>
			<path class="st7" d="M29,47.6c-2.3,0.7-4.5,0-4.9-1.6c-0.4-1.6,1.1-3.4,3.4-4.1c2.3-0.7,4.5,0,4.9,1.6C32.8,45,31.3,46.9,29,47.6
				z"/>
			<line class="st9" x1="30" y1="41.9" x2="25.3" y2="43.4"/>
			<line class="st9" x1="32.2" y1="43.8" x2="24.3" y2="46.2"/>
			<line class="st9" x1="32.4" y1="44.4" x2="24.6" y2="46.8"/>
			<line class="st9" x1="32.6" y1="45" x2="24.7" y2="47.4"/>
			<line class="st9" x1="32.2" y1="45.7" x2="25.6" y2="47.7"/>
			<line class="st9" x1="32.2" y1="43.2" x2="24.3" y2="45.6"/>
			<line class="st9" x1="32" y1="42.6" x2="24.1" y2="45"/>
			<line class="st9" x1="31.6" y1="42.1" x2="24.2" y2="44.3"/>
		</g>
		<g>
			<path class="st7" d="M25.4,32.9c-1.9,0.7-3.8,0.5-4.1-0.6c-0.3-1.1,0.9-2.5,2.9-3.2c1.9-0.7,3.8-0.5,4.1,0.6
				C28.6,30.7,27.3,32.1,25.4,32.9z"/>
			<line class="st9" x1="26.2" y1="28.8" x2="22.2" y2="30.3"/>
			<line class="st9" x1="28.1" y1="29.9" x2="21.4" y2="32.4"/>
			<line class="st9" x1="28.3" y1="30.3" x2="21.6" y2="32.8"/>
			<line class="st9" x1="28.4" y1="30.7" x2="21.8" y2="33.2"/>
			<line class="st9" x1="28.1" y1="31.3" x2="22.5" y2="33.4"/>
			<line class="st9" x1="28.1" y1="29.5" x2="21.4" y2="32"/>
			<line class="st9" x1="27.9" y1="29.1" x2="21.3" y2="31.6"/>
			<line class="st9" x1="27.6" y1="28.8" x2="21.3" y2="31.1"/>
		</g>
		<g>
			<path class="st7" d="M24.6,27c-1.7,0.8-3.3,0.8-3.7-0.2c-0.4-0.9,0.6-2.3,2.3-3.2c1.7-0.8,3.3-0.8,3.7,0.2
				C27.3,24.8,26.2,26.2,24.6,27z"/>
			<line class="st9" x1="24.9" y1="23.4" x2="21.5" y2="25.1"/>
			<line class="st9" x1="26.7" y1="24.1" x2="21" y2="27"/>
			<line class="st9" x1="26.9" y1="24.5" x2="21.2" y2="27.3"/>
			<line class="st9" x1="27.1" y1="24.8" x2="21.4" y2="27.7"/>
			<line class="st9" x1="26.8" y1="25.3" x2="22" y2="27.7"/>
			<line class="st9" x1="26.7" y1="23.7" x2="20.9" y2="26.6"/>
			<line class="st9" x1="26.5" y1="23.4" x2="20.7" y2="26.3"/>
			<line class="st9" x1="26.2" y1="23.2" x2="20.8" y2="25.8"/>
		</g>
		<g>
			<path class="st7" d="M27.3,40.5c-2.2,0.8-4.5,0.2-5-1.3c-0.5-1.6,0.9-3.5,3.1-4.3c2.2-0.8,4.5-0.2,5,1.3
				C31,37.7,29.6,39.6,27.3,40.5z"/>
			<line class="st9" x1="27.9" y1="34.8" x2="23.3" y2="36.5"/>
			<line class="st9" x1="30.3" y1="36.5" x2="22.6" y2="39.4"/>
			<line class="st9" x1="30.5" y1="37.1" x2="22.8" y2="39.9"/>
			<line class="st9" x1="30.7" y1="37.6" x2="23" y2="40.5"/>
			<line class="st9" x1="30.4" y1="38.4" x2="23.9" y2="40.8"/>
			<line class="st9" x1="30.2" y1="35.9" x2="22.5" y2="38.7"/>
			<line class="st9" x1="30" y1="35.3" x2="22.3" y2="38.2"/>
			<line class="st9" x1="29.5" y1="34.8" x2="22.3" y2="37.5"/>
		</g>
		<g>
			<circle class="st7" cx="78" cy="29.9" r="3.3"/>
			<line class="st9" x1="75.6" y1="28.1" x2="75.6" y2="31.9"/>
			<line class="st9" x1="78.3" y1="26.9" x2="78.3" y2="33.2"/>
			<line class="st9" x1="79" y1="26.8" x2="79" y2="33.1"/>
			<line class="st9" x1="79.7" y1="26.8" x2="79.7" y2="33.1"/>
			<line class="st9" x1="80.4" y1="27.2" x2="80.4" y2="32.5"/>
			<line class="st9" x1="77.7" y1="26.7" x2="77.7" y2="33"/>
			<line class="st9" x1="77" y1="26.8" x2="77" y2="33.1"/>
			<line class="st9" x1="76.3" y1="27" x2="76.3" y2="32.9"/>
		</g>
		<g>
			<path class="st7" d="M89.1,27.3c0.2,1.8-0.9,3.4-2.4,3.5c-1.5,0.1-2.8-1.2-3-3c-0.2-1.8,0.9-3.4,2.4-3.5
				C87.6,24.2,89,25.5,89.1,27.3z"/>
			<line class="st9" x1="84.3" y1="26" x2="84.6" y2="29.7"/>
			<line class="st9" x1="86.4" y1="24.5" x2="87" y2="30.7"/>
			<line class="st9" x1="87" y1="24.4" x2="87.5" y2="30.6"/>
			<line class="st9" x1="87.5" y1="24.3" x2="88.1" y2="30.5"/>
			<line class="st9" x1="88.1" y1="24.7" x2="88.6" y2="29.9"/>
			<line class="st9" x1="85.8" y1="24.4" x2="86.4" y2="30.6"/>
			<line class="st9" x1="85.3" y1="24.5" x2="85.9" y2="30.7"/>
			<line class="st9" x1="84.7" y1="24.8" x2="85.3" y2="30.6"/>
		</g>
		<g>
			<path class="st7" d="M95.5,24c0.2,1.6-0.8,3-2.2,3.2c-1.3,0.1-2.6-1.1-2.7-2.7c-0.2-1.6,0.8-3,2.2-3.2
				C94.1,21.2,95.4,22.4,95.5,24z"/>
			<line class="st9" x1="91.1" y1="22.8" x2="91.5" y2="26.2"/>
			<line class="st9" x1="93.1" y1="21.5" x2="93.6" y2="27.1"/>
			<line class="st9" x1="93.6" y1="21.4" x2="94.1" y2="27"/>
			<line class="st9" x1="94.1" y1="21.3" x2="94.6" y2="26.9"/>
			<line class="st9" x1="94.6" y1="21.7" x2="95" y2="26.4"/>
			<line class="st9" x1="92.5" y1="21.4" x2="93.1" y2="27"/>
			<line class="st9" x1="92" y1="21.5" x2="92.6" y2="27.1"/>
			<line class="st9" x1="91.6" y1="21.7" x2="92" y2="26.9"/>
		</g>
		<g>
			<path class="st7" d="M35.7,24.9c0,1.5-1.2,2.9-2.7,3.1c-1.5,0.2-2.7-0.8-2.7-2.3c0-1.5,1.2-2.9,2.7-3.1
				C34.5,22.4,35.7,23.4,35.7,24.9z"/>
			<line class="st9" x1="31.1" y1="24.2" x2="31.1" y2="27.2"/>
			<line class="st9" x1="33.3" y1="22.8" x2="33.3" y2="27.9"/>
			<line class="st9" x1="33.9" y1="22.6" x2="33.9" y2="27.8"/>
			<line class="st9" x1="34.4" y1="22.5" x2="34.4" y2="27.7"/>
			<line class="st9" x1="35" y1="22.8" x2="35" y2="27.1"/>
			<line class="st9" x1="32.7" y1="22.8" x2="32.8" y2="27.9"/>
			<line class="st9" x1="32.2" y1="22.9" x2="32.2" y2="28"/>
			<line class="st9" x1="31.6" y1="23.1" x2="31.6" y2="27.9"/>
		</g>
	</g>
	<path class="st10" d="M73.2,14.6c-0.1,1-1.2,1.8-3,2.4c-2-0.8-4.9-1.3-8.1-1.4c-3.4-0.1-6.4,0.3-8.5,1c-1.9-0.7-3-1.7-3-2.7
		c0.1-2.1,5.2-3.6,11.5-3.5C68.4,10.7,73.3,12.5,73.2,14.6z"/>
</g>
</svg>
