<?xml version="1.0" encoding="utf-8"?>
<!-- Generator: Adobe Illustrator 21.1.0, SVG Export Plug-In . SVG Version: 6.00 Build 0)  -->
<svg version="1.1" id="Layer_1" xmlns="http://www.w3.org/2000/svg" xmlns:xlink="http://www.w3.org/1999/xlink" x="0px" y="0px"
	 width="108px" height="108px" viewBox="0 0 108 108" style="enable-background:new 0 0 108 108;" xml:space="preserve">
<style type="text/css">
	.st0{fill:#FFFFFF;stroke:#000000;stroke-width:0.75;}
	.st1{fill:#E6E6E6;stroke:#000000;stroke-width:0.75;}
	.st2{fill:none;stroke:#000000;stroke-width:0.75;}
	.st3{fill:#F2F2F2;stroke:#000000;stroke-width:0.75;}
	.st4{fill:none;stroke:#000000;stroke-width:0.25;}
	.st5{fill:none;stroke:#000000;stroke-width:0.5;}
	.st6{fill:#4D4D4D;stroke:#000000;stroke-width:0.5;}
	.st7{fill:#808080;stroke:#000000;stroke-width:0.5;}
</style>
<g>
	<path class="st0" d="M47.1,3.8c0,0-21.8,4.7-27.9,17.4c-6.1,12.7-4.8,19.3-2.2,33.3c2.5,14,2.8,27.7,2.8,31.7
		c0,4-0.7,19.8-0.7,19.8l17-1.7c0,0-0.8-13.3-0.8-14.8c0-1.5-0.1-2.2-0.1-2.2l3.6,16.9l15.5-2.2c0,0-3.1-12.4-5.1-18
		c-2-5.7-10.7-23.7-12.7-27.8c-2-4.1-6.9-13.3-7-17c-0.1-2.7,0.7-4.2,2.4-5.4c1.7-1.2,3.1-1.1,3.1-1.1L47.1,3.8z"/>
	<path class="st1" d="M92.9,21.4c0,2.6-0.2,7.4-0.2,8.6c-0.1,5.6-13.3,9.7-29.6,9.6c-10.6-0.1-20.9-2.3-25.8-5.3c0,0-2.1-1-2.7-2.5
		c-0.6-1.6-0.1-11.5-0.1-11.5h0c0.5,5.4,12.6,9.8,28.4,9.9C79.1,30.3,92.7,26.9,92.9,21.4z"/>
	<path class="st2" d="M92.9,20.2c0,0.3,0,0.7,0,1.2"/>
	<path class="st3" d="M92.9,20.7c0,0.2,0,0.5,0,0.6v0c-0.2,5.6-13.8,9-30,8.9c-15.8-0.1-27.9-4.6-28.4-9.9c0-0.1,0-0.3,0-0.4
		c0-1.5-0.1-5-0.1-6.9h0c1.5,5.1,13.9,9.1,29,9.2c15.1,0.1,27.6-3.7,29.4-8.7C93,14.8,92.9,18.9,92.9,20.7z"/>
	<line class="st2" x1="92.9" y1="13.4" x2="92.9" y2="13.4"/>
	<path class="st3" d="M93.1,12.3c0,0.4-0.1,0.8-0.2,1.2v0c-1.8,5-14.3,8.8-29.4,8.7c-15.2-0.1-27.6-4.1-29-9.2
		c-0.1-0.4-0.2-0.7-0.2-1.1c0.1-5.6,13.4-10,29.6-9.9C80.1,2.1,93.2,6.7,93.1,12.3z"/>
	<path class="st4" d="M56,14.6c-2.5-0.8-4.1-1.9-4-3.1c0.1-2.1,5.3-3.7,11.7-3.5c6.3,0.2,11.4,2,11.3,4.2c0,0.9-0.9,1.6-2.4,2.2"/>
	<path class="st4" d="M51.7,14c-1.3-0.7-2-1.6-1.9-2.5c0.1-2.5,6.4-4.4,14-4.2c2.8,0.1,5.3,0.4,7.5,0.9"/>
	<path class="st4" d="M51.7,14"/>
	<path class="st4" d="M74.9,9.5c1.6,0.8,2.4,1.7,2.4,2.7c-0.1,2.5-6.4,4.4-14,4.2c-1.1,0-2.3-0.1-3.3-0.2"/>
	<path class="st4" d="M46.9,11.4c0.2-3.1,7.7-5.3,16.8-5.1c9.1,0.3,16.4,2.9,16.3,6"/>
	<path class="st4" d="M76.1,15.7c-3.1,1.1-7.7,1.8-12.9,1.7c-6-0.2-11.2-1.4-14-3"/>
	<path class="st4" d="M70.4,5.8c7.7,1.1,13.1,3.7,12.9,6.6c0,0.6-0.3,1.2-0.8,1.7"/>
	<path class="st4" d="M43.6,11.7c0-0.1,0-0.3,0-0.4c0.2-3.7,9.2-6.4,20.2-6.1c0.7,0,1.5,0.1,2.2,0.1"/>
	<path class="st4" d="M49.8,16.4c-1.9-0.6-3.4-1.4-4.4-2.2"/>
	<path class="st4" d="M78.6,16.5c-3.7,1.4-9.3,2.2-15.5,2c-4.4-0.1-8.4-0.7-11.7-1.6"/>
	<path class="st4" d="M87.1,12.2c0.1,0.2,0.1,0.5,0.1,0.7C87,17.3,76.1,20.6,63,20.2C56.4,20,50.5,19,46.3,17.4"/>
	<path class="st4" d="M42.4,15.5c-1.9-1.2-3-2.6-2.9-4C39.8,7,50.6,3.8,63.8,4.1c9.1,0.3,16.8,2.2,20.7,4.8"/>
	<path class="st2" d="M34.3,21c0,0-6.5,2-10.4,8.7c-3.7,6.3-3.3,11.9-0.1,22.2c3.2,10.3,8.3,20.9,9.5,26.3c1.2,5.4,2.1,9.6,2.1,9.6"
		/>
	<path class="st5" d="M35.4,9c0,0-8.2,3.6-12.6,9.5c-4.6,6.2-5.9,12.9-6.2,16.8c-0.3,3.8,2,17,2.8,21.5c0.8,4.5,2.5,20.5,2.2,28.4
		c-0.3,7.9-0.8,20.5-0.8,20.5"/>
	<path class="st5" d="M27.8,63.3c0,0,2.6,7.8,3.2,10.4c0.5,2.6,2.8,11,3.2,15.1c0.4,4.1,0.8,15.5,0.8,15.5"/>
	<path class="st5" d="M40.4,103.8c0,0-2.4-10.3-3.2-13.9c-0.8-3.6-3.6-11.5-4.2-13.2"/>
	<path class="st5" d="M30.2,35.3c0,0-2.2,1.1-2,5.2c0.2,2.6,6.6,15.3,7.8,18.1c1.2,2.8,7.2,14.7,9.5,19.8c1.7,3.8,4.6,13.2,5.9,17.5
		c0.4,1.3,0.5,1.3,1.3,6.3"/>
	<g>
		<line class="st4" x1="40.3" y1="102.9" x2="52.4" y2="101.2"/>
		<line class="st4" x1="40.1" y1="102.3" x2="52.2" y2="100.5"/>
		<line class="st4" x1="40.1" y1="101.7" x2="52.2" y2="99.9"/>
		<line class="st4" x1="40" y1="101.1" x2="52.1" y2="99.3"/>
		<line class="st4" x1="39.8" y1="100.4" x2="51.9" y2="98.7"/>
		<line class="st4" x1="39.6" y1="99.8" x2="51.7" y2="98"/>
		<line class="st4" x1="39.4" y1="99.1" x2="51.5" y2="97.4"/>
		<line class="st4" x1="39.4" y1="98.5" x2="51.5" y2="96.8"/>
		<line class="st4" x1="39.2" y1="97.9" x2="51.3" y2="96.2"/>
		<line class="st4" x1="39.1" y1="97.3" x2="51.2" y2="95.5"/>
		<line class="st4" x1="38.8" y1="96.7" x2="50.9" y2="94.9"/>
		<line class="st4" x1="38.6" y1="96" x2="50.7" y2="94.3"/>
		<line class="st4" x1="38.6" y1="95.4" x2="50.7" y2="93.6"/>
		<line class="st4" x1="38.4" y1="94.8" x2="50.5" y2="93"/>
		<line class="st4" x1="38.3" y1="94.2" x2="50.4" y2="92.4"/>
		<line class="st4" x1="38.1" y1="93.5" x2="50.2" y2="91.7"/>
		<line class="st4" x1="37.9" y1="92.9" x2="50" y2="91.1"/>
		<line class="st4" x1="37.8" y1="92.3" x2="49.9" y2="90.5"/>
		<line class="st4" x1="37.7" y1="91.7" x2="49.6" y2="89.9"/>
		<line class="st4" x1="37.5" y1="91" x2="49.5" y2="89.2"/>
	</g>
	<g>
		<line class="st4" x1="37.3" y1="90.4" x2="49.2" y2="88.5"/>
		<line class="st4" x1="37.1" y1="89.7" x2="49" y2="87.8"/>
		<line class="st4" x1="37" y1="89.1" x2="48.8" y2="87.2"/>
		<line class="st4" x1="36.9" y1="88.5" x2="48.5" y2="86.6"/>
		<line class="st4" x1="36.7" y1="87.9" x2="48.4" y2="86"/>
		<line class="st4" x1="36.5" y1="87.3" x2="48.2" y2="85.3"/>
		<line class="st4" x1="36.3" y1="86.6" x2="48" y2="84.7"/>
		<line class="st4" x1="36.2" y1="86" x2="47.8" y2="84.1"/>
		<line class="st4" x1="36.1" y1="85.4" x2="47.5" y2="83.5"/>
		<line class="st4" x1="35.9" y1="84.8" x2="47.3" y2="82.9"/>
		<line class="st4" x1="35.7" y1="84.2" x2="47.1" y2="82.3"/>
		<line class="st4" x1="35.5" y1="83.5" x2="46.9" y2="81.7"/>
		<line class="st4" x1="35.4" y1="82.9" x2="46.6" y2="81.1"/>
		<line class="st4" x1="35.1" y1="82.3" x2="46.4" y2="80.5"/>
		<line class="st4" x1="34.9" y1="81.7" x2="46.2" y2="79.8"/>
		<line class="st4" x1="34.7" y1="81" x2="46" y2="79.1"/>
		<line class="st4" x1="34.4" y1="80.4" x2="45.7" y2="78.6"/>
		<line class="st4" x1="34.2" y1="79.8" x2="45.4" y2="78"/>
		<line class="st4" x1="34" y1="79.2" x2="45.2" y2="77.4"/>
		<line class="st4" x1="33.8" y1="78.5" x2="44.9" y2="76.7"/>
	</g>
	<g>
		<line class="st4" x1="33.2" y1="77.9" x2="44.6" y2="76"/>
		<line class="st4" x1="33" y1="77.2" x2="44.3" y2="75.4"/>
		<line class="st4" x1="33" y1="76.6" x2="44" y2="74.8"/>
		<line class="st4" x1="32.8" y1="76" x2="43.6" y2="74.3"/>
		<line class="st4" x1="32.6" y1="75.4" x2="43.3" y2="73.6"/>
		<line class="st4" x1="32.5" y1="74.7" x2="43" y2="73"/>
		<line class="st4" x1="32.2" y1="74.1" x2="42.7" y2="72.4"/>
		<line class="st4" x1="32.2" y1="73.5" x2="42.5" y2="71.8"/>
		<line class="st4" x1="32" y1="72.9" x2="42.2" y2="71.2"/>
		<line class="st4" x1="31.9" y1="72.2" x2="41.9" y2="70.6"/>
		<line class="st4" x1="31.4" y1="71.7" x2="41.5" y2="70"/>
		<line class="st4" x1="31.2" y1="71" x2="41.3" y2="69.4"/>
		<line class="st4" x1="31" y1="70.4" x2="41.1" y2="68.8"/>
		<line class="st4" x1="30.7" y1="69.8" x2="40.7" y2="68.2"/>
		<line class="st4" x1="30.4" y1="69.2" x2="40.4" y2="67.6"/>
		<line class="st4" x1="30.1" y1="68.6" x2="40.1" y2="66.9"/>
		<line class="st4" x1="29.9" y1="68" x2="39.8" y2="66.4"/>
		<line class="st4" x1="29.7" y1="67.4" x2="39.4" y2="65.8"/>
		<line class="st4" x1="29.4" y1="66.7" x2="39.2" y2="65.2"/>
		<line class="st4" x1="29" y1="66.1" x2="38.9" y2="64.6"/>
	</g>
	<g>
		<line class="st4" x1="28.6" y1="65.5" x2="38.5" y2="63.9"/>
		<line class="st4" x1="28.3" y1="64.9" x2="38.3" y2="63.3"/>
		<line class="st4" x1="28.3" y1="64.3" x2="38" y2="62.6"/>
		<line class="st4" x1="28.1" y1="63.7" x2="37.8" y2="62"/>
		<line class="st4" x1="27.9" y1="63" x2="37.5" y2="61.5"/>
		<line class="st4" x1="27.8" y1="62.4" x2="37.2" y2="60.8"/>
		<line class="st4" x1="27.5" y1="61.7" x2="36.9" y2="60.2"/>
		<line class="st4" x1="27.3" y1="61.2" x2="36.6" y2="59.7"/>
		<line class="st4" x1="27" y1="60.6" x2="36.3" y2="59.1"/>
		<line class="st4" x1="26.8" y1="59.9" x2="36.1" y2="58.4"/>
		<line class="st4" x1="26.5" y1="59.4" x2="35.8" y2="57.8"/>
		<line class="st4" x1="26.1" y1="58.7" x2="35.5" y2="57.2"/>
		<line class="st4" x1="26.1" y1="58.1" x2="35.2" y2="56.6"/>
		<line class="st4" x1="25.8" y1="57.5" x2="35" y2="56"/>
		<line class="st4" x1="25.6" y1="56.9" x2="34.6" y2="55.4"/>
		<line class="st4" x1="25.4" y1="56.3" x2="34.4" y2="54.7"/>
		<line class="st4" x1="25.2" y1="55.7" x2="34.1" y2="54.2"/>
		<line class="st4" x1="25" y1="55" x2="33.9" y2="53.5"/>
		<line class="st4" x1="24.8" y1="54.4" x2="33.5" y2="53"/>
		<line class="st4" x1="24.7" y1="53.7" x2="33.2" y2="52.4"/>
	</g>
	<g>
		<line class="st4" x1="24.5" y1="53" x2="32.9" y2="51.6"/>
		<line class="st4" x1="24.3" y1="52.4" x2="32.6" y2="51"/>
		<line class="st4" x1="24.2" y1="51.8" x2="32.3" y2="50.4"/>
		<line class="st4" x1="23.8" y1="51.2" x2="32" y2="49.9"/>
		<line class="st4" x1="23.6" y1="50.6" x2="31.7" y2="49.2"/>
		<line class="st4" x1="23.4" y1="49.9" x2="31.4" y2="48.6"/>
		<line class="st4" x1="23.2" y1="49.2" x2="31.1" y2="47.9"/>
		<line class="st4" x1="23.1" y1="48.6" x2="30.7" y2="47.4"/>
		<line class="st4" x1="22.9" y1="48.1" x2="30.6" y2="46.8"/>
		<line class="st4" x1="22.7" y1="47.4" x2="30.4" y2="46.2"/>
		<line class="st4" x1="22.6" y1="46.8" x2="30" y2="45.6"/>
		<line class="st4" x1="22.4" y1="46.2" x2="29.8" y2="45"/>
		<line class="st4" x1="22.2" y1="45.6" x2="29.6" y2="44.4"/>
		<line class="st4" x1="22" y1="45" x2="29.3" y2="43.8"/>
		<line class="st4" x1="21.7" y1="44.3" x2="29.1" y2="43.3"/>
		<line class="st4" x1="21.4" y1="43.7" x2="28.9" y2="42.8"/>
		<line class="st4" x1="21.1" y1="43.2" x2="28.7" y2="42.3"/>
		<line class="st4" x1="21.3" y1="42.4" x2="28.5" y2="41.9"/>
		<line class="st4" x1="21.3" y1="41.8" x2="28.4" y2="41.3"/>
		<line class="st4" x1="21.3" y1="41.1" x2="28.3" y2="40.9"/>
	</g>
	<g>
		<line class="st4" x1="21.1" y1="40.4" x2="28.2" y2="40.5"/>
		<line class="st4" x1="21.3" y1="39.7" x2="28.4" y2="39.9"/>
		<line class="st4" x1="21" y1="39" x2="28.3" y2="39.5"/>
		<line class="st4" x1="21.2" y1="38.4" x2="28.3" y2="39"/>
		<line class="st4" x1="21.3" y1="37.7" x2="28.4" y2="38.5"/>
		<line class="st4" x1="21.5" y1="37" x2="28.5" y2="38"/>
		<line class="st4" x1="21.6" y1="36.3" x2="28.5" y2="37.5"/>
		<line class="st4" x1="21.9" y1="35.7" x2="28.9" y2="36.8"/>
		<line class="st4" x1="22.1" y1="35" x2="29.2" y2="36.3"/>
		<line class="st4" x1="22.1" y1="34.2" x2="29.6" y2="35.9"/>
		<line class="st4" x1="22.4" y1="33.6" x2="30" y2="35.5"/>
		<line class="st4" x1="22.6" y1="33" x2="30.3" y2="35"/>
		<line class="st4" x1="23" y1="32.1" x2="30.6" y2="34.5"/>
		<line class="st4" x1="23.4" y1="31.6" x2="30.8" y2="34.1"/>
		<line class="st4" x1="23.5" y1="30.7" x2="31.4" y2="33.8"/>
		<line class="st4" x1="24" y1="30.2" x2="31.8" y2="33.3"/>
		<line class="st4" x1="24.4" y1="29.5" x2="32.2" y2="33"/>
		<line class="st4" x1="24.8" y1="28.7" x2="32.8" y2="32.8"/>
		<line class="st4" x1="25.4" y1="28" x2="33.2" y2="32.5"/>
		<line class="st4" x1="25.9" y1="27.2" x2="33.9" y2="32.6"/>
	</g>
	<line class="st4" x1="28" y1="25.2" x2="34.6" y2="31.9"/>
	<line class="st4" x1="27.4" y1="25.9" x2="34.4" y2="32.1"/>
	<line class="st4" x1="26.7" y1="26.5" x2="34.1" y2="32.4"/>
	<line class="st4" x1="28.5" y1="24.8" x2="34.2" y2="30.7"/>
	<line class="st4" x1="29.2" y1="24.2" x2="34.2" y2="30.1"/>
	<line class="st4" x1="29.7" y1="23.7" x2="34.6" y2="29.7"/>
	<line class="st4" x1="30.4" y1="23.3" x2="34.4" y2="28.3"/>
	<line class="st4" x1="31" y1="22.8" x2="34.3" y2="27.1"/>
	<line class="st4" x1="31.6" y1="22.5" x2="34.2" y2="25.9"/>
	<line class="st4" x1="32.3" y1="22.1" x2="34.3" y2="24.8"/>
	<line class="st4" x1="32.8" y1="21.8" x2="34.6" y2="24.2"/>
	<g>
		<path class="st6" d="M72.2,12.3c-0.1,1.6-4,2.8-8.7,2.6c-4.7-0.1-8.5-1.5-8.4-3.1c0.1-1.6,4-2.8,8.7-2.6
			C68.5,9.4,72.3,10.8,72.2,12.3z"/>
		<path class="st7" d="M72.2,12.4c0,0.7-0.9,1.4-2.3,1.8c-1.5-0.6-3.7-1-6.2-1.1c-2.6-0.1-4.9,0.2-6.5,0.8c-1.4-0.6-2.3-1.3-2.2-2
			c0.1-1.6,4-2.8,8.7-2.6C68.5,9.4,72.3,10.8,72.2,12.4z"/>
	</g>
</g>
</svg>
