<?xml version="1.0" encoding="utf-8"?>
<!-- Generator: Adobe Illustrator 21.1.0, SVG Export Plug-In . SVG Version: 6.00 Build 0)  -->
<svg version="1.1" id="Layer_1" xmlns="http://www.w3.org/2000/svg" xmlns:xlink="http://www.w3.org/1999/xlink" x="0px" y="0px"
	 width="108px" height="108px" viewBox="0 0 108 108" style="enable-background:new 0 0 108 108;" xml:space="preserve">
<style type="text/css">
	.st0{fill:#CCCCCC;stroke:#000000;stroke-width:0.75;stroke-linecap:round;stroke-linejoin:round;stroke-miterlimit:10;}
	.st1{fill:#F2F2F2;stroke:#000000;stroke-width:0.75;stroke-linecap:round;stroke-linejoin:round;stroke-miterlimit:10;}
	.st2{fill:#FFFFFF;stroke:#000000;stroke-width:0.75;stroke-linecap:round;stroke-linejoin:round;stroke-miterlimit:10;}
	.st3{fill:#E6E6E6;stroke:#000000;stroke-width:0.5;stroke-linecap:round;stroke-linejoin:round;stroke-miterlimit:10;}
	.st4{fill:#FFFFFF;stroke:#000000;stroke-width:0.5;stroke-linecap:round;stroke-linejoin:round;stroke-miterlimit:10;}
	.st5{fill:#F2F2F2;stroke:#000000;stroke-width:0.5;stroke-linecap:round;stroke-linejoin:round;stroke-miterlimit:10;}
</style>
<g>
	<path class="st0" d="M86.7,11.8c-0.6,2.8-18.4,3.6-32.8,3.6c-14.3,0-29.5-0.5-32.6-3.5C23,7.1,37,3.3,54,3.3c0.3,0,0.6,0,0.9,0
		C71.4,3.5,84.9,7.1,86.7,11.8z"/>
	<path class="st1" d="M71.8,46.5L68,5.8H40l-3.8,40.7c0,0-1.1,2,1,8.6c2.1,6.6,9.6,38,9.6,38c-1.8,2.4-1.1,11.5,7.2,11.5
		s9.1-9.1,7.2-11.5c0,0,7.5-31.5,9.6-38C72.9,48.5,71.8,46.5,71.8,46.5z M60.1,41.5c0,0-2.5,2.1-2.9,2.7c-0.4,0.7,1.4,30,0.3,32
		s-2.2,2.6-3.4,2.6c-1.2,0-2.3-0.7-3.4-2.6c-1.1-1.9,0.7-31.3,0.3-32c-0.4-0.7-2.9-2.7-2.9-2.7s-2.1-1.4-2.1-13S47,15.6,50,14.6
		c2.9-1,4-0.8,4-0.8s1.1-0.1,4,0.8c3,1,4.3,2.2,4.3,13.9S60.1,41.5,60.1,41.5z"/>
	<path class="st2" d="M86.7,11.8c-5-3.1-15.3-4.1-31.9-4.2c-0.3,0-0.6,0-0.9,0c-17,0-28.3,1.3-32.7,4.3C23,7.1,37,3.3,54,3.3
		c0.3,0,0.6,0,0.9,0C71.4,3.5,84.9,7.1,86.7,11.8z"/>
	<path class="st3" d="M50.2,11.9L50,14.6c-1.9,2.7-0.8,8.6,4,8.6s5.9-5.9,4-8.6l-0.1-2.7"/>
	<circle class="st4" cx="54" cy="84.5" r="3.6"/>
	<circle class="st5" cx="54" cy="18.4" r="3.6"/>
	<g>
		<line class="st4" x1="39.9" y1="21.3" x2="39.9" y2="44.9"/>
		<polyline class="st4" points="37.8,48.3 40.6,48.3 44.4,44.9 		"/>
		<line class="st4" x1="41.1" y1="50.5" x2="45.8" y2="61.9"/>
		<line class="st4" x1="68.1" y1="21.3" x2="68.1" y2="44.9"/>
		<polyline class="st4" points="70.2,48.3 67.4,48.3 63.6,44.9 		"/>
		<line class="st4" x1="66.9" y1="50.5" x2="62.2" y2="61.9"/>
	</g>
</g>
</svg>
