<?xml version="1.0" encoding="utf-8"?>
<!-- Generator: Adobe Illustrator 21.1.0, SVG Export Plug-In . SVG Version: 6.00 Build 0)  -->
<svg version="1.1" id="Layer_1" xmlns="http://www.w3.org/2000/svg" xmlns:xlink="http://www.w3.org/1999/xlink" x="0px" y="0px"
	 width="108px" height="108px" viewBox="0 0 108 108" style="enable-background:new 0 0 108 108;" xml:space="preserve">
<style type="text/css">
	.st0{fill:#FFFFFF;stroke:#000000;stroke-width:0.75;stroke-linecap:round;stroke-linejoin:round;stroke-miterlimit:10;}
	.st1{fill:#E6E6E6;stroke:#000000;stroke-width:0.75;stroke-linecap:round;stroke-linejoin:round;stroke-miterlimit:10;}
	.st2{fill:#F2F2F2;stroke:#000000;stroke-width:0.75;stroke-linecap:round;stroke-linejoin:round;stroke-miterlimit:10;}
	.st3{fill:none;stroke:#000000;stroke-width:0.75;stroke-linecap:round;stroke-linejoin:round;stroke-miterlimit:10;}
</style>
<g>
	<path class="st0" d="M22,24.4h23.6H86c0,0-10.5-14.7-31.5-14.9C33.3,9.4,22,24.4,22,24.4z"/>
	<path class="st1" d="M45.5,25.1v9.5h-1.4l4.2,7.1h-3.7l2.8,6.1h-3l3.1,6.2h-3.5l3.7,6.5h-3.7l3.5,5.4h-3.5l3.5,6.4h-3.5l3.4,5.9
		h-3.8l4.2,8.1c0,0,1.6,7.4,1.9,8.3c0.3,1,1.4,4.1,4.8,4c3.5-0.1,3.8-3,4.1-4.3c0.4-1.5,2.1-7.8,2.1-7.8l4.3-7.6h-3.3l3.3-6.5h-3.3
		l3.8-5.9h-3.5l3.5-5.7h-3.5l3.5-5.9h-2.8l2.8-6.2h-3.3l3.3-6.2h-3.5l3.5-7.6H64l0-10.1"/>
	
		<rect x="24.1" y="53.3" transform="matrix(1.557759e-02 -0.9999 0.9999 1.557759e-02 -1.4728 109.2561)" class="st2" width="61.4" height="4.2"/>
	<line class="st0" x1="47.5" y1="78.3" x2="52.1" y2="78.3"/>
	<line class="st0" x1="47.4" y1="72.4" x2="52" y2="72.4"/>
	<line class="st0" x1="47.4" y1="66" x2="52" y2="66"/>
	<line class="st0" x1="47.5" y1="60.6" x2="52.1" y2="60.6"/>
	<line class="st0" x1="47.7" y1="54.1" x2="52.3" y2="54.1"/>
	<line class="st0" x1="47.6" y1="47.9" x2="52.2" y2="47.9"/>
	<line class="st0" x1="47.6" y1="41.8" x2="52.2" y2="41.8"/>
	<line class="st3" x1="57.1" y1="42.4" x2="62.7" y2="42.4"/>
	<line class="st3" x1="57.2" y1="48.6" x2="63.1" y2="48.6"/>
	<line class="st3" x1="57.3" y1="54.8" x2="63.5" y2="54.8"/>
	<line class="st3" x1="57.1" y1="60.8" x2="62.8" y2="60.8"/>
	<line class="st3" x1="57.1" y1="66.4" x2="62.8" y2="66.4"/>
	<line class="st3" x1="57.3" y1="72.4" x2="62" y2="72.4"/>
	<line class="st3" x1="57" y1="78.9" x2="62.5" y2="78.9"/>
</g>
</svg>
