<?xml version="1.0" encoding="utf-8"?>
<!-- Generator: Adobe Illustrator 21.1.0, SVG Export Plug-In . SVG Version: 6.00 Build 0)  -->
<svg version="1.1" id="Layer_1" xmlns="http://www.w3.org/2000/svg" xmlns:xlink="http://www.w3.org/1999/xlink" x="0px" y="0px"
	 width="108px" height="108px" viewBox="0 0 108 108" style="enable-background:new 0 0 108 108;" xml:space="preserve">
<style type="text/css">
	.st0{fill:#FFFFFF;stroke:#000000;stroke-width:0.75;stroke-linecap:round;stroke-linejoin:round;stroke-miterlimit:10;}
	.st1{fill:#CCCCCC;stroke:#000000;stroke-width:0.75;stroke-linecap:round;stroke-linejoin:round;stroke-miterlimit:10;}
	.st2{fill:#F2F2F2;stroke:#000000;stroke-width:0.75;stroke-linecap:round;stroke-linejoin:round;stroke-miterlimit:10;}
	.st3{fill:#E6E6E6;stroke:#000000;stroke-width:0.75;stroke-linecap:round;stroke-linejoin:round;stroke-miterlimit:10;}
</style>
<g>
	<path class="st0" d="M23.2,20.6c2.5-4.6,15.3-8.1,30.7-8.1c14.2,0,26.8,3.9,30.4,8L23.2,20.6z"/>
	<ellipse transform="matrix(2.991308e-03 -1 1 2.991308e-03 28.4926 79.27)" class="st1" cx="54" cy="25.3" rx="8.8" ry="35.9"/>
	<path class="st2" d="M78.6,25.8l-0.4,18l-20.1-1.4l-4.9-0.3l0.5-20.8l0-0.3c6.8,0.2,19.4,0.7,21.3,1.2C77.8,23,78.6,25.8,78.6,25.8
		z"/>
	<polygon class="st2" points="82.2,47.6 82.1,47.7 58.9,46.5 58.2,46.4 58.1,46.5 53.2,42.1 58.1,42.4 78.2,43.8 	"/>
	<path class="st0" d="M84.6,50c0,0-1.6,32.7-3.6,37.8c-2,4.9-6.7,7.9-11.9,7.7c0,0-2.6-2.1-5.4-6.9c-2.5-4.2-2.9-6.3-4-12.8
		C58.8,71.2,58.8,47,58.8,47l-0.6-0.5l0,0l0.7,0l23.1,1.3l0.1-0.1L84.6,50z"/>
	<path class="st3" d="M69,95.5c-0.9,0-1.9-0.2-2.8-0.4c-4.6-1.2-8.9-6.4-10.8-9.1l0,0c-0.2-0.3-0.4-0.5-0.5-0.7c0,0,0,0,0,0
		c-0.5-0.9-1.2-2.5-2.2-4.6c-1.6-3.8-3.2-19.1-3.7-27.4c-0.5-8.3-0.9-28.5-0.9-28.5l0-0.7h0l1.3-3.1c0,0,1.7,0,4.3,0.1l0,0.3
		l-0.5,20.8l4.9,4.4l0.6,0.5c0,0,0.1,24.2,0.9,28.8c1.1,6.6,1.5,8.6,4,12.8C66.3,93.4,69,95.5,69,95.5z"/>
	<path class="st1" d="M54.8,85.1c-0.3-0.5-0.5-0.8-0.5-0.8S50.9,90,48.3,92c-2.1,1.7-5.2,3.8-9.3,3.4c0,0,0,0,0,0c0,0-0.1,0-0.1,0h0
		c0,0-0.1,0-0.1,0l0-0.5c-1.2-1.6-2.8-6.3-3.5-10.3c-0.7-4.3-0.8-18.1-1.1-24.8C34,53,33.7,24.5,33.7,24.5l0-0.6L48.1,24l0,0.7
		c0,0,0.4,20.2,0.9,28.5c0.5,8.3,2,23.7,3.7,27.4C53.5,82.7,54.3,84.2,54.8,85.1z"/>
	<path class="st3" d="M38.8,94.8l0,0.5c-0.7-0.1-1.4-0.2-2.2-0.4c-5.4-1.5-9.7-7.3-10.9-12.8c-0.9-4-2.2-32.2-2.2-32.2l5.5-5.5
		l0.2-20.6l4.6,0.1l0,0.6c0,0,0.3,28.4,0.5,35.2c0.2,6.7,0.4,20.5,1.1,24.8C35.9,88.6,37.6,93.2,38.8,94.8z"/>
	<path class="st0" d="M55.4,86.2c0,0-0.2-0.3-0.6-1c0.2,0.2,0.3,0.5,0.5,0.7l0,0L55.4,86.2z"/>
</g>
</svg>
