<?xml version="1.0" encoding="utf-8"?>
<!-- Generator: Adobe Illustrator 21.1.0, SVG Export Plug-In . SVG Version: 6.00 Build 0)  -->
<svg version="1.1" id="Layer_1" xmlns="http://www.w3.org/2000/svg" xmlns:xlink="http://www.w3.org/1999/xlink" x="0px" y="0px"
	 width="108px" height="108px" viewBox="0 0 108 108" style="enable-background:new 0 0 108 108;" xml:space="preserve">
<style type="text/css">
	.st0{fill:#F2F2F2;stroke:#000000;stroke-width:0.75;stroke-linecap:round;stroke-linejoin:round;stroke-miterlimit:10;}
	.st1{fill:#FFFFFF;stroke:#000000;stroke-width:0.75;stroke-linecap:round;stroke-linejoin:round;stroke-miterlimit:10;}
	.st2{fill:#E6E6E6;stroke:#000000;stroke-width:0.75;stroke-linecap:round;stroke-linejoin:round;stroke-miterlimit:10;}
	.st3{fill:#CCCCCC;stroke:#000000;stroke-width:0.75;stroke-linecap:round;stroke-linejoin:round;stroke-miterlimit:10;}
	.st4{fill:#FFFFFF;}
	.st5{fill:#F2F2F2;}
	.st6{fill:#E6E6E6;}
	.st7{fill:none;stroke:#000000;stroke-width:0.75;stroke-linecap:round;stroke-linejoin:round;stroke-miterlimit:10;}
	.st8{fill:#B3B3B3;stroke:#000000;stroke-width:0.75;stroke-linecap:round;stroke-linejoin:round;stroke-miterlimit:10;}
	.st9{fill:none;stroke:#000000;stroke-width:0.5;stroke-linecap:round;stroke-linejoin:round;stroke-miterlimit:10;}
	.st10{fill:#CCCCCC;}
	.st11{fill:#B3B3B3;}
</style>
<g>
	<path class="st0" d="M99.6,89.6l-11.2-11c1-1.4,1.8-2.7,2.5-4c0.6-1.1,1.2-2.3,1.6-3.3c0,0,0,0,0-0.1l1.1-2.3c0,0,1,0.9,2.3,2.3
		c0.1,0.1,0.2,0.2,0.3,0.3c0.3,0.3,0.6,0.6,0.9,1c0.3,0.3,0.6,0.6,0.8,0.9c1.3,1.4,2.7,3,3.8,4.3c3,3.7,3.4,6.2,2.3,8.3c0,0,0,0,0,0
		C103.3,87.5,99.6,89.6,99.6,89.6z"/>
	<path class="st1" d="M93.6,68.9l-1.1,2.3c0.4-0.9,0.7-1.8,0.9-2.7c0.8,0.8,1.7,1.8,2.5,2.7C94.6,69.9,93.6,68.9,93.6,68.9z"/>
	<path class="st1" d="M90.9,74.7l1.6-3.3C92,72.4,91.5,73.5,90.9,74.7z"/>
	<path class="st1" d="M104,86c1-2.1,0.6-4.6-2.3-8.3c-1.1-1.4-2.5-2.9-3.8-4.3c-0.3-0.3-0.6-0.6-0.8-0.9c-0.3-0.3-0.6-0.7-0.9-1
		c-0.1-0.1-0.2-0.2-0.3-0.3c-0.8-0.9-1.7-1.9-2.5-2.7c0.4-1.6,0.5-3,0.2-4.1c-0.1-0.6-0.4-1.1-0.7-1.5c0.9,0.9,9.1,9.9,10.2,11.2
		c1.2,1.4,2.9,4.2,2.7,6.9C105.6,83.8,104.2,85.8,104,86z"/>
	<path class="st1" d="M93.6,68.9l-1.1,2.3c0.4-0.9,0.7-1.8,0.9-2.7c0.8,0.8,1.7,1.8,2.5,2.7C94.6,69.9,93.6,68.9,93.6,68.9z"/>
	<path class="st1" d="M92.9,63c0.3,0.4,0.6,0.9,0.7,1.5L92.9,63C92.9,62.9,92.9,62.9,92.9,63z"/>
	<path class="st2" d="M88.9,98.1L78.8,89l-0.2-0.3c1.4-1,2.8-2.2,4.2-3.5l8.2,7.8L88.9,98.1z"/>
	<path class="st3" d="M88.9,98.1c0,0-3.3,2.5-5.7,2.4c-3-0.1-7.1-1.2-10.2-3.7c-2.9-2.3-4.8-4-5.1-4.2c2.6,0.4,6.4-0.9,10.6-3.9
		l0.2,0.3L88.9,98.1z"/>
	<path class="st4" d="M90.9,74.7l1.6-3.3c0,0,0,0,0-0.1c0.4-0.9,0.7-1.8,0.9-2.7c0.4-1.6,0.5-3,0.2-4.1c-0.1-0.6-0.4-1.1-0.7-1.5
		l-0.1-0.1c-0.1-0.1-0.1-0.2-0.2-0.2l-6-5.3l-0.1,0.1L77.3,68c3.8,3.4,7.1,7.5,11.3,10.3C89.5,77.1,90.2,75.8,90.9,74.7z"/>
	<path class="st5" d="M84.6,83.3c1.4-1.5,2.6-3.1,3.7-4.6c0.1-0.1,0.2-0.3,0.3-0.4c-4.2-2.8-7.6-6.9-11.3-10.3l-9.4,10.7
		c3.7,3.3,6.8,7.2,10.6,10.1c0,0,0,0,0,0c1.4-1,2.8-2.2,4.2-3.5C83.4,84.6,84,84,84.6,83.3z"/>
	<path class="st6" d="M67.9,78.6l-7.6,8.6l5.9,4.7c0.5,0.4,1.1,0.6,1.8,0.7c2.6,0.4,6.4-0.9,10.5-3.9C74.7,85.9,71.5,82,67.9,78.6z"
		/>
	<path class="st7" d="M78.5,88.7c-4.2,3-8,4.3-10.6,3.9c-0.7-0.1-1.3-0.4-1.8-0.7l-5.9-4.7l26.3-29.7l0.1-0.1l6,5.3
		c0.1,0.1,0.2,0.2,0.2,0.2l0.1,0.1c0.3,0.4,0.6,0.9,0.7,1.5c0.3,1.1,0.2,2.5-0.2,4.1c-0.2,0.9-0.5,1.8-0.9,2.7c0,0,0,0,0,0.1
		l-1.6,3.3c-0.7,1.3-1.6,2.7-2.5,4c-1.1,1.6-2.4,3.1-3.7,4.6c-0.6,0.7-1.3,1.3-1.9,2C81.3,86.6,79.9,87.8,78.5,88.7z"/>
	<path class="st1" d="M90.9,74.7l1.6-3.3C92,72.4,91.5,73.5,90.9,74.7z"/>
	<ellipse transform="matrix(0.6763 -0.7367 0.7367 0.6763 -29.4678 77.4266)" class="st0" cx="73.4" cy="72.2" rx="19.8" ry="9.7"/>
	<ellipse transform="matrix(0.7051 -0.7091 0.7091 0.7051 -29.7285 73.5557)" class="st8" cx="73.6" cy="72.5" rx="6.2" ry="2.9"/>
	<path class="st9" d="M77.9,70.9c0,0-2.1,0.5-3.3,1.9c-1.4,1.6-1.2,3.6-1.2,3.6"/>
	<path class="st9" d="M78,69c0,0-2.7,0.5-4.7,2.8c-2.3,2.5-2,5-2,5"/>
	<path class="st9" d="M76.1,68.1c0,0-2.6,1-4.4,3.4c-2,2.7-1.6,5.2-1.6,5.2"/>
	<g>
		<path class="st5" d="M68.4,67.5c1.9-2.2,1.8-5.2,1.8-5.2L31.4,25.9l-5.6,5.8C39,44.6,52.6,56.8,66.6,69.3
			C67.2,68.8,67.8,68.2,68.4,67.5z"/>
		<path class="st6" d="M25.9,31.7l-2,2.1c0,0,38.9,37,39.7,37.2c0.5,0.1,1.7-0.6,3.1-1.7C52.6,56.8,39,44.6,25.9,31.7z"/>
		<path class="st7" d="M31.4,25.9l38.7,36.4c0,0,0.1,3-1.8,5.2c-1.9,2.2-4.1,3.6-4.9,3.4c-0.8-0.1-39.7-37.2-39.7-37.2L31.4,25.9z"
			/>
		<path class="st7" d="M32.9,27.4c0,0-0.4,1.6-1.2,3c-0.6,1.1-2,2.8-3.3,3.8c-1.4,1-1.3,0.9-2.5,1.5"/>
		<path class="st5" d="M33.6,24.2c4-6.6,4.8-13.2,1.4-16.3c-2.7-2.5-7.4-2.1-12.4,0.5C27.3,12.7,31,18.3,33.6,24.2z"/>
		<path class="st10" d="M33.6,24.2c-2.6-5.9-6.3-11.5-11-15.8c-3,1.5-6.1,3.9-8.8,6.9c-1.9,2.1-3.5,4.4-4.8,6.6
			c2.6,6,6.8,11.3,12.8,14.1c2.6-1.5,5.2-3.6,7.6-6.3C31.1,27.9,32.4,26.1,33.6,24.2z"/>
		<path class="st11" d="M9,21.9c-3.4,6.2-4,12.3-0.8,15.2c2.9,2.7,8.2,2,13.6-1.1C15.8,33.2,11.6,27.9,9,21.9z"/>
		<path class="st7" d="M34.7,29.2c0,0-0.4,1.6-1.2,3c-0.6,1.1-2,2.8-3.3,3.8c-1.4,1-1.3,0.9-2.5,1.5"/>
		<path class="st7" d="M36.5,30.8c0,0-0.4,1.6-1.2,3c-0.6,1.1-2,2.8-3.3,3.8c-1.4,1-1.3,0.9-2.5,1.5"/>
		<path class="st7" d="M38.4,32.4c0,0-0.4,1.6-1.2,3c-0.6,1.1-2,2.8-3.3,3.8c-1.4,1-1.3,0.9-2.5,1.5"/>
		<path class="st7" d="M40.1,34.2c0,0-0.4,1.6-1.2,3c-0.6,1.1-2,2.8-3.3,3.8c-1.4,1-1.3,0.9-2.5,1.5"/>
		<path class="st7" d="M42,36c0,0-0.3,1.4-1.1,2.7c-0.6,1.1-2,2.8-3.3,3.8c-1.4,1-1.3,0.9-2.5,1.5"/>
		<path class="st7" d="M43.9,37.7c0,0-0.3,1.2-1.1,2.6c-0.6,1.1-2,2.8-3.3,3.8c-1.4,1-1.3,0.9-2.5,1.5"/>
		<path class="st7" d="M45.7,39.3c0,0-0.3,1.3-1.1,2.6c-0.6,1.1-2,2.8-3.3,3.8c-1.4,1-1.3,0.9-2.5,1.5"/>
		<path class="st7" d="M47.5,41c0,0-0.3,1.3-1.1,2.7c-0.6,1.1-2,2.8-3.3,3.8c-1.4,1-1.3,0.9-2.5,1.5"/>
		<path class="st7" d="M49.1,42.7c0,0-0.3,1.4-1.1,2.8c-0.6,1.1-2,2.8-3.3,3.8c-1.4,1-1.3,0.9-2.5,1.5"/>
		<path class="st7" d="M51,44.4c0,0-0.2,1.2-1,2.6c-0.6,1.1-2,2.8-3.3,3.8c-1.4,1-1.3,0.9-2.5,1.5"/>
		<path class="st7" d="M52.8,45.9c0,0-0.3,1.5-1.1,2.8c-0.6,1.1-2,2.8-3.3,3.8c-1.4,1-1.3,0.9-2.5,1.5"/>
		<path class="st7" d="M54.5,47.7c0,0-0.3,1.4-1.1,2.8c-0.6,1.1-2,2.8-3.3,3.8c-1.4,1-1.3,0.9-2.5,1.5"/>
		<path class="st7" d="M56.3,49.3c0,0-0.4,1.6-1.2,3c-0.6,1.1-2,2.8-3.3,3.8c-1.4,1-1.3,0.9-2.5,1.5"/>
		<path class="st7" d="M58,51.1c0,0-0.3,1.4-1,2.8c-0.6,1.1-2,2.8-3.3,3.8c-1.4,1-1.3,0.9-2.5,1.5"/>
		<path class="st7" d="M59.9,52.6c0,0-0.4,1.6-1.2,3c-0.6,1.1-2,2.8-3.3,3.8c-1.4,1-1.3,0.9-2.5,1.5"/>
		<path class="st7" d="M61.8,54.3c0,0-0.4,1.6-1.2,3c-0.6,1.1-2,2.8-3.3,3.8c-1.4,1-1.3,0.9-2.5,1.5"/>
		<path class="st7" d="M63.5,56.1c0,0-0.4,1.6-1.2,3c-0.6,1.1-2,2.8-3.3,3.8c-1.4,1-1.3,0.9-2.5,1.5"/>
		<path class="st7" d="M65.1,57.9c0,0-0.4,1.6-1.2,3c-0.6,1.1-2,2.8-3.3,3.8c-1.4,1-1.3,0.9-2.5,1.5"/>
		<path class="st7" d="M66.9,59.6c0,0-0.4,1.6-1.2,3c-0.6,1.1-2,2.8-3.3,3.8c-1.4,1-1.2,0.8-2.4,1.4"/>
		<path class="st7" d="M68.8,61.1c0,0-0.4,1.6-1.2,3c-0.6,1.1-2,2.8-3.3,3.8c-1.4,1-1.3,0.9-2.5,1.5"/>
		
			<ellipse transform="matrix(0.6763 -0.7366 0.7366 0.6763 -9.5839 23.2061)" class="st7" cx="21.6" cy="22.5" rx="19.8" ry="10.6"/>
		<path class="st6" d="M8.2,19.8c-4,6.5-4.7,13.1-1.4,16.2c2.9,2.6,8,2.1,13.2-0.9C14.3,31.8,10.4,26.1,8.2,19.8z"/>
		<path class="st4" d="M32.7,22.3c3.6-6.3,4.2-12.5,0.9-15.5c-2.7-2.5-7.4-2.1-12.3,0.4C26.1,11.2,29.9,16.6,32.7,22.3z"/>
		<path class="st5" d="M32.7,22.3c-2.8-5.7-6.6-11.1-11.4-15c-3,1.5-6.1,3.9-8.9,7c-1.7,1.8-3,3.7-4.2,5.6c2.2,6.3,6.1,12,11.9,15.3
			c2.7-1.5,5.5-3.7,8-6.5C29.9,26.6,31.5,24.4,32.7,22.3z"/>
		
			<ellipse transform="matrix(0.6763 -0.7366 0.7366 0.6763 -9.2206 21.8146)" class="st7" cx="20.2" cy="21.4" rx="19.8" ry="10.6"/>
	</g>
</g>
</svg>
