<?xml version="1.0" encoding="utf-8"?>
<!-- Generator: Adobe Illustrator 21.1.0, SVG Export Plug-In . SVG Version: 6.00 Build 0)  -->
<svg version="1.1" id="Layer_1" xmlns="http://www.w3.org/2000/svg" xmlns:xlink="http://www.w3.org/1999/xlink" x="0px" y="0px"
	 width="108px" height="108px" viewBox="0 0 108 108" style="enable-background:new 0 0 108 108;" xml:space="preserve">
<style type="text/css">
	.st0{fill:#FFFFFF;stroke:#000000;stroke-width:0.75;stroke-linecap:round;stroke-linejoin:round;stroke-miterlimit:10;}
	.st1{fill:#CCCCCC;stroke:#000000;stroke-width:0.5;stroke-linecap:round;stroke-linejoin:round;stroke-miterlimit:10;}
	.st2{fill:#E6E6E6;}
	.st3{fill:#F2F2F2;}
	.st4{fill:none;stroke:#000000;stroke-width:0.75;stroke-linecap:round;stroke-linejoin:round;stroke-miterlimit:10;}
	.st5{fill:#CCCCCC;}
	.st6{fill:#FFFFFF;}
	.st7{fill:#CCCCCC;stroke:#000000;stroke-width:0.75;stroke-linecap:round;stroke-linejoin:round;stroke-miterlimit:10;}
	.st8{fill:#F2F2F2;stroke:#000000;stroke-width:0.75;stroke-linecap:round;stroke-linejoin:round;stroke-miterlimit:10;}
</style>
<path class="st0" d="M130.8,52.7"/>
<g>
	<g>
		<polygon class="st1" points="51.8,52.6 39.1,53.3 41.5,49.1 42.5,47.4 43.6,48.7 44.6,47.3 45.7,48.6 45.7,48.2 46.8,47 
			49.2,49.7 		"/>
		<line class="st1" x1="43.6" y1="48.7" x2="44.5" y2="49.8"/>
		<line class="st1" x1="45.5" y1="48.4" x2="46.4" y2="49.5"/>
	</g>
	<path class="st2" d="M57.1,53.1c-5,0.5-9.8,1-14.7,1.5l0.6,8.2l2,0.9l1.2-1.4l1.3,0.7l1.6-1.3l1.4,1.2l1.3-1.7l1.9,1.3l1.2-1.7
		l1.3,1c0,0,1.8-3.3,1.5-6.8C57.5,54.2,57.3,53.7,57.1,53.1z"/>
	<path class="st3" d="M52.5,48.5l-0.9,2.2l-2.2-1.2L48.6,51l-2.2-0.7l-1,1.4l-1.7-1l-1.4,1.9l0.1,2c4.9-0.5,9.7-1,14.7-1.5
		C55.8,50.3,52.5,48.5,52.5,48.5z"/>
	<path class="st4" d="M43,62.8l2,0.9l1.2-1.4l1.3,0.7l1.6-1.3l1.4,1.2l1.3-1.7l1.9,1.3l1.2-1.7l1.3,1c0,0,1.8-3.3,1.5-6.8
		c-0.4-3.9-5.1-6.3-5.1-6.3l-0.9,2.2l-2.2-1.2L48.6,51l-2.2-0.7l-1,1.4l-1.7-1l-1.4,1.9L43,62.8z"/>
	<path class="st2" d="M45.6,53.9c-1.1-5.9-3.4-11.1-6.4-15.2c-6.1-0.7-12-0.6-17.8,0.2l5,36.5c6.4-1.4,12.8-3.4,19.1-5.6
		C46.5,65,46.7,59.6,45.6,53.9z"/>
	<path class="st3" d="M39.1,38.8C34,31.8,27,28,20,29.4l1.3,9.6C27.1,38.2,33.1,38.1,39.1,38.8z"/>
	<path class="st5" d="M26.3,75.4l1.5,11.1c1.1,0,2.2,0,3.3-0.3c7.1-1.4,12.3-7.9,14.3-16.5C39.1,72,32.7,74,26.3,75.4z"/>
	<path class="st3" d="M87.5,22.2c5.1,2.4,9.7,7.3,12.7,13.7c0.6,0.3,1.2,0.5,1.7,0.8C98.6,29.5,93.3,24.3,87.5,22.2z"/>
	<path class="st2" d="M104.5,45c-0.6-3-1.5-5.8-2.7-8.4c-0.6-0.3-1.1-0.5-1.7-0.8c1.2,2.6,2.1,5.4,2.7,8.5c0.5,2.6,0.7,5.1,0.7,7.6
		c0.6-0.2,1.1-0.5,1.7-0.7C105.1,49.2,104.9,47.1,104.5,45z"/>
	<path class="st5" d="M103.5,51.9c-0.1,12-6.2,21.9-15.4,23.7c-2.8,0.5-5.6,0.3-8.3-0.7c3.2,1.5,6.6,2,9.9,1.3
		c9.5-1.8,15.7-12.5,15.3-25.1C104.6,51.4,104.1,51.7,103.5,51.9z"/>
	<path class="st6" d="M100.1,35.9c-2.9-6.4-7.5-11.3-12.7-13.7c-0.1,0-0.2-0.1-0.3-0.1c-2.6-0.8-5.3-1.1-7.9-0.5
		c-4.9,0.9-8.9,4.2-11.6,8.9C78.5,28.9,90.1,31.4,100.1,35.9z"/>
	<path class="st3" d="M103.5,51.9c0-2.5-0.2-5-0.7-7.6c-0.6-3-1.5-5.9-2.7-8.5c-10-4.5-21.6-6.9-32.5-5.5c-3.4,5.9-4.7,14-3.1,22.4
		c0.2,1.2,0.5,2.4,0.9,3.5C78.2,58.4,91.4,57.1,103.5,51.9z"/>
	<path class="st2" d="M65.4,56.3c2.4,8.2,7.3,14.7,13.2,17.9c0.4,0.3,0.9,0.5,1.3,0.7c2.7,0.9,5.5,1.2,8.3,0.7
		c9.2-1.8,15.2-11.7,15.4-23.7C91.4,57.1,78.2,58.4,65.4,56.3z"/>
	<path class="st0" d="M78.6,74.3c0.4,0.3,0.9,0.5,1.3,0.7c-0.5-0.2-0.9-0.3-1.4-0.5L78.6,74.3z"/>
	<path class="st0" d="M87.5,22.2c-0.1,0-0.2-0.1-0.3-0.1l0,0C87.2,22.1,87.3,22.2,87.5,22.2z"/>
	<path class="st4" d="M88.2,75.6c-2.8,0.5-5.6,0.3-8.3-0.7c-0.5-0.2-0.9-0.4-1.3-0.7c-6.6-3.7-12.1-11.6-14-21.5
		c-2.9-15.1,3.6-29.1,14.7-31.3c2.7-0.5,5.3-0.3,7.9,0.5c0.1,0,0.2,0.1,0.3,0.1c7.2,3.3,13.3,11.6,15.4,22.2
		C105.8,59.5,99.2,73.5,88.2,75.6z"/>
	<g>
		<path class="st7" d="M88.2,56.2c-0.8,0.5-15.5,3.3-17.7,3.2l0-0.1c3.3-0.6,4.4-2.7,4.4-2.7l-5.2-4.4l-0.1-0.7l0.3-0.6l1.2,0.5
			l0.8-0.9l1.4,0.6l0.6-0.8l1.5,0.7l0.7-0.8l1.6,0.7l0.7-1l1.3,0.7l0.6-0.8c0,0,6.9,4.8,7.3,5.1S89.1,55.8,88.2,56.2z"/>
		<line class="st4" x1="77.8" y1="56.3" x2="71.3" y2="51.5"/>
		<line class="st4" x1="79.6" y1="55.9" x2="73.2" y2="51.1"/>
		<line class="st4" x1="81.6" y1="55.6" x2="75.2" y2="50.8"/>
		<line class="st4" x1="84.2" y1="55.7" x2="77.8" y2="50.9"/>
		<line class="st4" x1="85.8" y1="55.3" x2="79.4" y2="50.5"/>
		<path class="st8" d="M74.9,56.7c0,0-1.1,2-4.4,2.7c-0.5,0.1-1,0.2-1.6,0.2c-3.1,0.1-4.9-1.4-4.9-1.4l3.6-6c0,0,0.5-0.6,0.8-0.6
			c0.4,0,0.7,0.2,0.7,0.2l0.2,0.1l0.5,0.4L74.9,56.7z"/>
	</g>
	<g>
		<path class="st6" d="M86,41.8c0.4-0.4,1.1-1.4,0.2-1.6C85.3,40,70.3,41,68.2,41.6l0,0.1c3.3-0.2,5,1.4,5,1.4l-0.2,0.2
			c4.3-0.2,8.7-0.5,12.8-1.4C86,41.9,86,41.8,86,41.8z"/>
		<path class="st3" d="M73.1,43.3l-3.7,5.4l0.1,0.7l0.4,0.5l1.1-0.8l1.1,0.7l1.2-0.9l0.8,0.6l1.3-1l0.9,0.7l1.4-1l0.9,0.8l1.1-1
			l0.7,0.6c0,0,4.8-5.6,5.7-6.6C81.8,42.8,77.4,43.2,73.1,43.3z"/>
		<path class="st4" d="M86,41.8c-0.4,0.4-5.8,6.8-5.8,6.8L79.5,48l-1.1,1l-0.9-0.8l-1.4,1l-0.9-0.7l-1.3,1L73.2,49L72,49.9l-1.1-0.7
			l-1.1,0.8l-0.4-0.5l-0.1-0.7l3.9-5.6c0,0-1.6-1.7-5-1.4l0-0.1c2.1-0.6,17-1.6,17.9-1.4C87.1,40.4,86.4,41.4,86,41.8z"/>
		<line class="st4" x1="76.1" y1="42.8" x2="71.1" y2="49"/>
		<line class="st4" x1="78" y1="42.7" x2="73" y2="48.9"/>
		<line class="st4" x1="79.9" y1="42.5" x2="75" y2="48.7"/>
		<line class="st4" x1="82.4" y1="41.8" x2="77.4" y2="48"/>
		<line class="st4" x1="84.1" y1="41.8" x2="79.1" y2="48"/>
		<path class="st8" d="M73.2,43.1l-3.9,5.6L69,49.2l-0.1,0.2c0,0-0.2,0.3-0.6,0.3c-0.4,0.1-1-0.3-1-0.3l-5-4.9c0,0,1.4-1.9,4.4-2.6
			c0.6-0.1,1.1-0.2,1.6-0.2C71.6,41.4,73.2,43.1,73.2,43.1z"/>
	</g>
	<path class="st4" d="M20,29.4c11-2.1,22.5,8.9,25.5,24.6c3.1,15.7-3.4,30.2-14.5,32.4c-1.1,0.2-2.2,0.3-3.3,0.3L20,29.4z"/>
	<path class="st6" d="M36.8,38.6c-5-6.7-12-10.4-18.8-9c-6.5,1.3-11.4,6.8-13.7,14.3C14.5,39.3,25.4,37.6,36.8,38.6z"/>
	<path class="st3" d="M36.8,38.6c-11.4-0.9-22.3,0.8-32.5,5.3c-1.6,5.3-2,11.6-0.7,18.1c1.2,6.2,3.7,11.6,6.9,15.8
		c11.1-0.6,22-3.5,32.7-7.1c1.2-4.9,1.4-10.6,0.3-16.5C42.4,48.1,39.9,42.7,36.8,38.6z"/>
	<path class="st2" d="M10.5,77.7c5,6.5,11.9,10.1,18.6,8.8c6.9-1.3,12.1-7.6,14.2-15.9C32.5,74.2,21.6,77.1,10.5,77.7z"/>
	<ellipse transform="matrix(0.9816 -0.1909 0.1909 0.9816 -10.6347 5.5602)" class="st4" cx="23.5" cy="58" rx="20.4" ry="29"/>
	<path class="st4" d="M89.8,76.3c-3.4,0.7-6.8,0.1-9.9-1.3c2.7,0.9,5.5,1.2,8.3,0.7c11-2.1,17.6-16.1,14.7-31.3
		c-2-10.5-8.1-18.8-15.4-22.2c8,2.8,14.9,11.5,17.1,22.8C107.4,60.2,100.9,74.2,89.8,76.3z"/>
</g>
</svg>
