<?xml version="1.0" encoding="utf-8"?>
<!-- Generator: Adobe Illustrator 21.1.0, SVG Export Plug-In . SVG Version: 6.00 Build 0)  -->
<svg version="1.1" id="Layer_1" xmlns="http://www.w3.org/2000/svg" xmlns:xlink="http://www.w3.org/1999/xlink" x="0px" y="0px"
	 width="108px" height="108px" viewBox="0 0 108 108" style="enable-background:new 0 0 108 108;" xml:space="preserve">
<style type="text/css">
	.st0{fill:#FFFFFF;}
	.st1{fill:#E6E6E6;stroke:#000000;stroke-width:0.75;stroke-linecap:round;stroke-linejoin:round;stroke-miterlimit:10;}
	.st2{fill:#F2F2F2;stroke:#000000;stroke-width:0.75;stroke-linecap:round;stroke-linejoin:round;stroke-miterlimit:10;}
	.st3{fill:#B3B3B3;stroke:#000000;stroke-width:0.75;stroke-linecap:round;stroke-linejoin:round;stroke-miterlimit:10;}
	.st4{fill:#CCCCCC;stroke:#000000;stroke-width:0.75;stroke-linecap:round;stroke-linejoin:round;stroke-miterlimit:10;}
	.st5{fill:#F2F2F2;}
	.st6{fill:none;stroke:#000000;stroke-width:0.75;stroke-linecap:round;stroke-linejoin:round;stroke-miterlimit:10;}
</style>
<g>
	<path class="st0" d="M19.8,23l-0.5,0.1c0,0-0.1,0-0.2-0.1C19.3,22.9,19.6,22.9,19.8,23z"/>
	<ellipse transform="matrix(0.644 -0.765 0.765 0.644 -29.6197 85.4383)" class="st1" cx="77" cy="74.5" rx="26.2" ry="22.7"/>
	<ellipse transform="matrix(0.644 -0.765 0.765 0.644 -29.0271 83.5173)" class="st2" cx="75.2" cy="72.9" rx="26" ry="18.7"/>
	<ellipse transform="matrix(0.644 -0.765 0.765 0.644 -28.305 81.2533)" class="st3" cx="73.2" cy="71" rx="23.8" ry="18.1"/>
	<path class="st4" d="M71.7,76.9c0,0,5.3,4.9,6.9,6.3s5.8,1.5,8.1-1.5c2.3-3,1.6-6.5-0.9-8.5s-8.1-6.3-8.1-6.3L71.7,76.9z"/>
	<path class="st1" d="M77.9,74.7c-7.3,8.6-18.5,11.2-25.1,5.6c-0.4-0.4-5.4-5.4-5.8-5.8C41.8,68.6,42.7,58,49.5,50
		c6.9-8.2,17.4-10.9,24.1-6.4c0.3,0.2,5.2,5.1,5.5,5.4C85.7,54.5,85.2,66.1,77.9,74.7z"/>
	<ellipse transform="matrix(0.644 -0.765 0.765 0.644 -23.9873 67.976)" class="st2" cx="61" cy="59.8" rx="20.5" ry="15.6"/>
	<path class="st0" d="M69.5,66.2c3.4-4.4,4.8-9.6,2-12.6c-2.1-2.4-24.9-24.1-35.7-34.2c-2.8-2.7-4.1-6-4.7-6.5
		c-1.7-1.5-4.1-2.1-6.3-1.6h0c-0.1-0.4-0.7-2.5-3.3-2.6c-2.8-0.1-6.6,1.3-7.1,4.6c-0.2,1.7-0.5,4.8,2.3,7c0.9,0.7,1.8,1.5,2.4,2
		C37.9,34.6,53.6,50.1,69.5,66.2z"/>
	<path class="st5" d="M19.3,22.2c0.5,0.4,0.8,0.7,0.8,0.7l-0.2,0l-0.5,0.1c0,0-0.1,0-0.2-0.1c-0.6-0.3-2.1-1.2-3.9-2.2
		c-2-1.1-4.4-0.7-5.6-0.3c-2.9,1-4.6,7.8,0.5,10.5c0.9,0.5,4.9,2.7,8.8,6.2c12.8,11.6,37.5,33.5,37.5,33.5c2.8,2.6,9.6,0,13.1-4.4
		c0,0,0,0,0-0.1C53.6,50.1,37.9,34.6,19.3,22.2z"/>
	<path class="st6" d="M31.1,45.4c0.1-1.1-0.6-2.1-1.6-2.8s-2.6-2.4-7.9-7.1c-3.4-3.1-8.1-1.7-7.5-9.4c0.2-2.5,4.3-3.9,7.4-2.7
		c3,1.2,13.2,11.1,16.2,13.8s3.1-0.7,1.4-2.2s-8.9-8.6-11-10.6s-4.2-4.2-6.4-6.1c-2-1.7-1.7-3.8,0.3-5.5c2.7-2.3,6.7-2.1,9.2,0.2
		c0.5,0.5,1.8,3.8,4.7,6.5c10.7,10.1,33.5,31.8,35.7,34.2c2.7,3.1,1.4,8.3-2.1,12.7s-10.2,7-13.1,4.4c0,0-24.7-21.9-37.5-33.6
		c-3.9-3.5-7.9-5.7-8.8-6.2c-5-2.7-3.4-9.5-0.5-10.5c1.2-0.4,3.7-0.8,5.6,0.3c2.2,1.3,4.1,2.3,4.1,2.3l0.7-0.1c0,0-1.4-1.3-3.1-2.7
		c-2.8-2.2-2.6-5.3-2.3-7c0.5-3.3,4.2-4.7,7-4.5s3.3,2.7,3.3,2.7"/>
</g>
</svg>
