<?xml version="1.0" encoding="utf-8"?>
<!-- Generator: Adobe Illustrator 21.1.0, SVG Export Plug-In . SVG Version: 6.00 Build 0)  -->
<svg version="1.1" id="Layer_1" xmlns="http://www.w3.org/2000/svg" xmlns:xlink="http://www.w3.org/1999/xlink" x="0px" y="0px"
	 width="108px" height="108px" viewBox="0 0 108 108" style="enable-background:new 0 0 108 108;" xml:space="preserve">
<style type="text/css">
	.st0{fill:#FFFFFF;stroke:#000000;stroke-width:0.75;stroke-linecap:round;stroke-linejoin:round;stroke-miterlimit:10;}
	.st1{fill:#E6E6E6;stroke:#000000;stroke-width:0.75;stroke-linecap:round;stroke-linejoin:round;stroke-miterlimit:10;}
	.st2{fill:#FFFFFF;}
	.st3{fill:none;stroke:#000000;stroke-width:0.75;stroke-linecap:round;stroke-linejoin:round;stroke-miterlimit:10;}
	.st4{fill:#F2F2F2;}
	.st5{fill:#E6E6E6;}
	.st6{fill:#B3B3B3;stroke:#000000;stroke-width:0.75;stroke-miterlimit:10;}
</style>
<path class="st0" d="M130.8,52.7"/>
<g>
	<path class="st1" d="M35.5,84.9c-0.2,5.7,1.8,11.1,5.1,13.6c2,1.6,4.4,2,6.7,1.4c3.9-1.1,6.4-3.7,7-7.3c0.9-5.2-2.4-11.8-7.8-15.7
		c-0.8-0.6-2-0.4-2.6,0.4c-0.6,0.8-0.4,2,0.4,2.6c4.3,3.1,7,8.3,6.3,12.1c-0.4,2.2-1.9,3.7-4.4,4.4c-1.2,0.4-2.4,0.1-3.5-0.7
		c-2.4-1.8-3.8-6.1-3.7-10.6c0-1.2,0.1-3.5,0.2-6.4c-1.2-0.5-2.4-0.7-3.7-0.9C35.6,81,35.6,83.5,35.5,84.9z"/>
	<path class="st0" d="M63,82.5l0.6-16C64.3,49,65,29.2,65,24.3c0-9.1-4.5-17.4-10.7-19.7c-3.3-1.2-6.9-0.7-9.9,1.3
		c-3.7,2.5-6,6.8-6.3,12.2c-0.4,8.1-1.8,43.3-2.4,59.6c1.2,0.2,2.4,0.4,3.7,0.9c0.6-15.9,2-52,2.4-60.2c0.2-4.2,1.9-7.5,4.6-9.3
		c2-1.3,4.5-1.7,6.6-0.9c4.7,1.7,8.3,8.7,8.3,16.2c0,4.8-0.8,24.6-1.5,42.1l-0.6,15.5C60.5,82.2,61.8,82.5,63,82.5z"/>
	<path class="st1" d="M70.2,82.5c-0.8-0.7-1.9-0.6-2.6,0.2c-0.7,0.8-0.6,1.9,0.2,2.6c5.7,4.9,5.6,9.4,5.2,11.1
		c-0.4,2.1-1.6,3.3-2.5,3.6c-1.3,0.4-3.4,0.5-5.1-0.8c-1.9-1.4-2.9-4.2-2.8-8l0.3-8.8c-1.2,0-2.4-0.3-3.7-0.6L59,91.2
		c-0.2,6.4,2.2,9.5,4.3,11c2.4,1.8,5.6,2.3,8.4,1.3c2.4-0.8,4.3-3.3,4.9-6.4C77.1,94.8,77.4,88.6,70.2,82.5z"/>
	<path class="st0" d="M29.9,78.1"/>
	<g>
		<g>
			<g>
				<path class="st2" d="M80,75.3c-0.1,0-0.2,0-0.3-0.1C79.9,75.3,80,75.3,80,75.3z"/>
			</g>
			<g>
				<path class="st3" d="M80,75.3c-0.1,0-0.2,0-0.3-0.1C79.9,75.3,80,75.3,80,75.3z"/>
				<path class="st4" d="M74.7,78.8c-0.3,2-0.4,4.5-0.6,7.3c-0.2,2.3-0.6,4.3-0.8,6.1c2.8,0.5,5.6,0.6,8.4,0.1l0.9-2.3l0.8-0.2
					c0.2-0.8,0.3-1.7,0.4-2.6c0.2-2,0.2-4,0-5.7C80.7,80,77.8,79.2,74.7,78.8z"/>
				<path class="st2" d="M80.1,75.3C80.1,75.3,80.1,75.3,80.1,75.3c-0.1,0-0.2,0-0.3-0.1c-0.3-0.1-0.8-0.1-1.3-0.2
					C78.3,75,78.1,75,78,75c-0.5-0.1-1-0.1-1.1-0.1c-1.3,0.2-1.9,1.7-2.2,4c3.1,0.3,6,1.2,8.9,2.6C83.2,78,81.9,75.5,80.1,75.3z"/>
				<path class="st5" d="M81.6,92.2c-2.7,0.5-5.6,0.4-8.4-0.1c-0.3,2.8-0.3,4.7,1.1,5.2c0.2,0.1,3.1,0.6,3.3,0.6c0.1,0,0.2,0,0.2,0
					c0.6,0,1.1-0.2,1.6-0.6c0.2-0.1,0.3-0.3,0.5-0.5c0.3-0.3,0.5-0.6,0.7-0.9c0.2-0.2,0.3-0.4,0.5-0.7c0.1-0.1,0.2-0.3,0.3-0.4
					c0.1-0.1,0.2-0.3,0.2-0.4c0.1-0.2,0.2-0.3,0.2-0.5L81,93.7L81.6,92.2z"/>
			</g>
		</g>
		<path class="st3" d="M83.7,87.1c-0.1,0.9-0.3,1.8-0.4,2.6l-0.8,0.2L81,93.7l0.9,0.3c-0.1,0.2-0.1,0.3-0.2,0.5
			c-0.1,0.2-0.1,0.3-0.2,0.4c-0.1,0.2-0.2,0.3-0.3,0.4c-0.1,0.3-0.3,0.5-0.5,0.7c-0.2,0.4-0.5,0.7-0.7,0.9c-0.2,0.2-0.4,0.3-0.5,0.5
			c-0.5,0.4-1.1,0.6-1.6,0.6c-0.1,0-0.2,0-0.2,0c-0.2,0-3.1-0.5-3.3-0.6c-2.3-0.9-1-5.4-0.3-11.3c0.6-5.9,0.3-11,2.8-11.3
			c0.1,0,0.6,0.1,1.1,0.1c0.2,0,0.4,0.1,0.5,0.1c0.5,0.1,0.9,0.1,1.3,0.2c0.2,0,0.3,0.1,0.3,0.1c0,0,0,0,0,0
			C82.7,75.6,84.3,80.9,83.7,87.1z"/>
		<g>
			<path class="st2" d="M77.2,74.8c-0.1,0-0.1,0-0.2,0c-1.6,0-3.1,1.8-4.2,4.5c2.9,0.2,5.7,0.9,8.1,2.6C80.5,77.9,79.1,75,77.2,74.8
				z"/>
			<path class="st4" d="M72.7,79.3c-0.7,1.8-1.3,4-1.5,6.4c-0.2,2.2-0.2,4.3,0.1,6.1c2.8,0.4,5.7,0.4,8.5-0.1c0.5-1.5,0.8-3.2,1-5
				c0.2-1.7,0.2-3.3,0.1-4.8C78.4,80.2,75.7,79.5,72.7,79.3z"/>
			<path class="st5" d="M71.3,91.7c0.5,3.3,1.8,5.6,3.5,5.8H75c1.8,0,3.6-2.4,4.8-5.9C76.9,92.2,74.1,92.2,71.3,91.7z"/>
		</g>
		<g>
			<path class="st3" d="M80.8,86.7c-0.7,6.1-3.2,10.8-5.8,10.8h-0.2c-2.6-0.3-4.3-5.6-3.6-11.9c0.7-6.1,3.2-10.8,5.8-10.8
				c0.1,0,0.2,0,0.2,0C79.8,75.1,81.4,80.4,80.8,86.7z"/>
		</g>
		<g>
			<g>
				<g>
					<path class="st1" d="M52.1,74.6c-0.1,0-0.1,0-0.1,0c-1.7,0.2-3.3,3.3-3.7,7.3c-0.4,3.8,0.4,7.1,1.9,7.9c0,0,0.1,0,0.1,0
						c1.7,0,3.4-3.2,3.9-7.3C54.6,78.5,53.7,75.2,52.1,74.6z M52.7,82.3c-0.3,2.4-1,4-1.5,4.7c0,0,0,0,0,0.1
						c-0.2,0.4-0.4,0.6-0.5,0.8c-0.1-0.2-0.2-0.4-0.3-0.7c-0.5-0.7-0.9-2.6-0.7-5.1c0.3-2.9,1.3-4.6,1.8-5c0.1-0.1,0.2-0.1,0.2-0.1
						c0.1,0,0.3,0.1,0.4,0.4c0,0,0,0,0,0c0.1,0.2,0.3,0.5,0.4,1C52.8,79.4,52.9,80.8,52.7,82.3z M52.1,74.6c-0.1,0-0.1,0-0.1,0
						c-1.7,0.2-3.3,3.3-3.7,7.3c-0.4,3.8,0.4,7.1,1.9,7.9c0,0,0.1,0,0.1,0c1.7,0,3.4-3.2,3.9-7.3C54.6,78.5,53.7,75.2,52.1,74.6z
						 M52.7,82.3c-0.3,2.4-1,4-1.5,4.7c0,0,0,0,0,0.1c-0.2,0.4-0.4,0.6-0.5,0.8c-0.1-0.2-0.2-0.4-0.3-0.7c-0.5-0.7-0.9-2.6-0.7-5.1
						c0.3-2.9,1.3-4.6,1.8-5c0.1-0.1,0.2-0.1,0.2-0.1c0.1,0,0.3,0.1,0.4,0.4c0,0,0,0,0,0c0.1,0.2,0.3,0.5,0.4,1
						C52.8,79.4,52.9,80.8,52.7,82.3z"/>
				</g>
				<g>
					<path class="st2" d="M76.4,78.5c-0.3-0.3-0.6-0.5-1-0.5c0,0-0.2,0-0.6-0.1h0c-0.2,0-0.4-0.1-0.7-0.1c-0.2,0-0.4-0.1-0.7-0.1
						c-5.4-0.8-20-2.9-21.4-3.1c1.1,0.4,1.9,2.2,2.1,4.7c7.9,1.2,15.8,2.7,23.7,3.6C77.8,80.9,77.2,79.3,76.4,78.5z"/>
					<path class="st4" d="M54.2,79.3c0.1,1,0.1,2.1-0.1,3.2c-0.1,1.2-0.4,2.3-0.7,3.3c7.8,1.3,15.6,2.7,23.4,4.5
						c0-0.1,0.1-0.1,0.1-0.2c0.2-0.4,0.3-0.8,0.4-1.1c0.3-0.9,0.5-1.9,0.6-2.9c0.1-1.1,0.1-2.2,0.1-3.1C70,82,62.1,80.5,54.2,79.3z"
						/>
					<path class="st5" d="M53.5,85.8c-0.8,2.4-2,4-3.2,4c1.5,0.3,15.6,2.4,21.2,3.2c0.2,0,0.5,0.1,0.7,0.1c0.3,0,0.5,0.1,0.7,0.1
						c0.1,0,0.2,0,0.3,0c0.4,0.1,0.7,0.1,0.7,0.1c0.1,0,0.1,0,0.2,0c0.3,0,0.6-0.1,0.9-0.3c0.8-0.4,1.5-1.5,2-2.8
						C69.1,88.5,61.3,87.1,53.5,85.8z"/>
				</g>
			</g>
		</g>
		<g>
			<path class="st6" d="M52.7,82.3c-0.3,2.4-1,4-1.5,4.7c0,0,0,0,0,0.1c-0.2,0.4-0.4,0.6-0.5,0.8c-0.1-0.2-0.2-0.4-0.3-0.7
				c-0.5-0.7-0.9-2.6-0.7-5.1c0.3-2.9,1.3-4.6,1.8-5c0.1-0.1,0.2-0.1,0.2-0.1c0.1,0,0.3,0.1,0.4,0.4c0,0,0,0,0,0
				c0.1,0.2,0.3,0.5,0.4,1C52.8,79.4,52.9,80.8,52.7,82.3z"/>
		</g>
		<g>
			<path class="st3" d="M77.9,86c-0.1,1-0.3,2-0.6,2.9c-0.1,0.4-0.2,0.8-0.4,1.1c-0.6,1.5-1.3,2.6-2.1,3.1c-0.3,0.2-0.6,0.3-0.9,0.3
				c-0.1,0-0.1,0-0.2,0c0,0-0.3,0-0.7-0.1c-0.1,0-0.2,0-0.3,0c-0.2,0-0.4-0.1-0.7-0.1c-0.2,0-0.4-0.1-0.7-0.1
				c-5.7-0.9-19.8-3-21.2-3.2c1.7,0,3.4-3.2,3.9-7.3c0.4-4-0.5-7.3-2.1-7.9c1.4,0.2,16,2.3,21.4,3.1c0.2,0.1,0.5,0.1,0.7,0.1
				c0.3,0.1,0.5,0.1,0.7,0.1h0c0.4,0.1,0.6,0.1,0.6,0.1c0.4,0,0.7,0.2,1,0.5C77.6,79.7,78.3,82.6,77.9,86z"/>
		</g>
	</g>
	<g>
		<g>
			
				<ellipse transform="matrix(8.157101e-02 -0.9967 0.9967 8.157101e-02 -36.168 125.024)" class="st0" cx="49.8" cy="82.1" rx="5.3" ry="1.9"/>
			
				<ellipse transform="matrix(8.157100e-02 -0.9967 0.9967 8.157100e-02 -37.6556 122.4371)" class="st0" cx="47.6" cy="81.7" rx="5.3" ry="1.9"/>
			
				<ellipse transform="matrix(8.161901e-02 -0.9967 0.9967 8.161901e-02 -39.145 119.8462)" class="st0" cx="45.5" cy="81.2" rx="5.3" ry="1.9"/>
			
				<ellipse transform="matrix(8.157393e-02 -0.9967 0.9967 8.157393e-02 -40.6308 117.2631)" class="st0" cx="43.3" cy="80.7" rx="5.3" ry="1.9"/>
			
				<ellipse transform="matrix(8.157757e-02 -0.9967 0.9967 8.157757e-02 -42.1185 114.6759)" class="st0" cx="41.2" cy="80.2" rx="5.3" ry="1.9"/>
			
				<ellipse transform="matrix(8.157393e-02 -0.9967 0.9967 8.157393e-02 -43.6058 112.0894)" class="st0" cx="39" cy="79.7" rx="5.3" ry="1.9"/>
			
				<ellipse transform="matrix(8.157393e-02 -0.9967 0.9967 8.157393e-02 -45.0935 109.5025)" class="st0" cx="36.9" cy="79.2" rx="5.3" ry="1.9"/>
		</g>
		<path class="st4" d="M27.7,78.4c-0.3,2.5-0.7,4.7-1,6.4c3.3-0.2,6.6-0.7,9.7-1.1c0.4-1.3,0.7-2.7,0.8-4.3c0.2-2.2,0.2-4.2-0.1-6
			c-2.5-2.1-5.6-3.1-8.9-3.5C28,72.1,28.1,75.2,27.7,78.4z"/>
		<path class="st2" d="M33.7,67.6c-0.2,0-3.3-0.8-3.5-0.8c-1.1,0.1-1.6,1.3-1.9,3.1c3.3,0.4,6.4,1.4,8.9,3.5
			C36.7,70.1,35.5,67.7,33.7,67.6z"/>
		<path class="st5" d="M26.8,84.8c-0.3,2.4-0.3,4.1,1,4.5c0.2,0.1,3.3,0.9,3.5,0.9c2,0.2,4-2.5,5.2-6.6C33.3,84.1,30,84.6,26.8,84.8
			z"/>
		<path class="st3" d="M37.3,79.4c-0.7,6.3-3.4,11.1-6,10.8c-0.2,0-3.3-0.8-3.5-0.9c-2.4-0.8-0.7-5.1-0.1-11
			c0.6-5.9,0-11.3,2.5-11.6c0.2,0,3.4,0.8,3.5,0.8C36.4,67.8,38,73.1,37.3,79.4z"/>
		<g>
			<g>
				<g>
					<path class="st2" d="M28.2,67.6c0.3-0.3,0.6-0.5,0.9-0.6C28.9,67.1,28.5,67.3,28.2,67.6z"/>
					<path class="st2" d="M30.3,66.8c-0.1,0-0.2,0-0.3,0c0,0,0.1,0,0.1,0H30.3z"/>
					<path class="st2" d="M29.2,67c0.2-0.1,0.3-0.1,0.5-0.2C29.5,66.8,29.3,66.9,29.2,67z"/>
					<path class="st2" d="M29.7,66.8c0.1,0,0.3,0,0.4,0C29.9,66.8,29.8,66.8,29.7,66.8z"/>
				</g>
			</g>
			<g>
				<g>
					<path class="st3" d="M28.2,67.6c0.3-0.3,0.6-0.5,0.9-0.6C28.9,67.1,28.5,67.3,28.2,67.6z"/>
					<path class="st3" d="M29.2,67c0.2-0.1,0.3-0.1,0.5-0.2C29.5,66.8,29.3,66.9,29.2,67z"/>
					<path class="st3" d="M29.7,66.8c0.1,0,0.3,0,0.4,0C29.9,66.8,29.8,66.8,29.7,66.8z"/>
					<path class="st3" d="M30.3,66.8c-0.1,0-0.2,0-0.3,0c0,0,0.1,0,0.1,0H30.3z"/>
					<path class="st0" d="M34,74.3c-0.7,0.4-6.9,3.7-9.8,5.2c0-0.6,0.1-1.3,0.1-1.9c0.1-1.1,0.3-2.2,0.6-3.3
						c0.1-0.4,0.2-0.8,0.3-1.2c0.1-0.5,0.3-0.9,0.5-1.4c0.3-0.7,0.5-1.3,0.8-1.8c0.1-0.2,0.3-0.5,0.4-0.7c0,0,0,0,0,0
						c0.2-0.2,0.3-0.4,0.4-0.6c0,0,0,0,0,0c0.2-0.2,0.3-0.4,0.4-0.5c0.2-0.2,0.3-0.3,0.5-0.5c0,0,0,0,0,0c0.3-0.3,0.6-0.5,0.9-0.6
						c0,0,0,0,0,0c0.3-0.1,0.6-0.2,1-0.2h0.2C32.3,67,33.8,70.1,34,74.3z"/>
				</g>
				<g>
					<path class="st1" d="M34,78c0,0.2,0,0.4-0.1,0.6c-0.1,0.9-0.3,1.8-0.4,2.7c-0.1,0.5-0.2,1.1-0.4,1.5c-0.2,0.7-0.4,1.3-0.6,1.8
						c-1.1,2.9-2.7,4.7-4.3,4.7c-0.1,0-0.2,0-0.2,0c-1.8-0.2-3.2-2.8-3.6-6.4L34,78L34,78z"/>
				</g>
			</g>
		</g>
		<g>
			<g>
				<path class="st6" d="M35.4,74.3l0,3.7H34l-8.2,4.3l-0.1-2.6l-1.4-0.1v0c2.9-1.5,9.1-4.8,9.8-5.2c0,0,0.1-0.1,0.1-0.1L35.4,74.3z
					"/>
			</g>
		</g>
	</g>
	<g>
		<path class="st0" d="M54.4,92.2c0.7-5.1-2.5-11.5-7.8-15.3c-0.8-0.6-2-0.4-2.6,0.4c-0.6,0.8-0.4,2,0.4,2.6c4.2,3.1,6.9,8.2,6.3,12
			"/>
		<path class="st0" d="M75.8,99.6c0.4-0.8,0.7-1.6,0.8-2.5c0.5-2.3,0.8-8.5-6.4-14.6c-0.8-0.7-1.9-0.6-2.6,0.2
			c-0.7,0.8-0.6,1.9,0.2,2.6c5.7,4.9,5.6,9.4,5.2,11.1c-0.1,0.6-0.3,1.1-0.5,1.5"/>
	</g>
</g>
</svg>
