<?xml version="1.0" encoding="utf-8"?>
<!-- Generator: Adobe Illustrator 21.1.0, SVG Export Plug-In . SVG Version: 6.00 Build 0)  -->
<svg version="1.1" id="Layer_1" xmlns="http://www.w3.org/2000/svg" xmlns:xlink="http://www.w3.org/1999/xlink" x="0px" y="0px"
	 width="108px" height="108px" viewBox="0 0 108 108" style="enable-background:new 0 0 108 108;" xml:space="preserve">
<style type="text/css">
	.st0{fill:#FFFFFF;stroke:#000000;stroke-width:0.75;stroke-linecap:round;stroke-linejoin:round;stroke-miterlimit:10;}
	.st1{fill:#F2F2F2;stroke:#000000;stroke-width:0.75;stroke-linecap:round;stroke-linejoin:round;stroke-miterlimit:10;}
	.st2{fill:#B3B3B3;stroke:#000000;stroke-width:0.5;stroke-linecap:round;stroke-linejoin:round;stroke-miterlimit:10;}
	.st3{fill:#CCCCCC;}
	.st4{fill:#B3B3B3;stroke:#000000;stroke-width:0.75;stroke-linecap:round;stroke-linejoin:round;stroke-miterlimit:10;}
	.st5{fill:#FFFFFF;stroke:#000000;stroke-width:0.5;stroke-linecap:round;stroke-linejoin:round;stroke-miterlimit:10;}
	.st6{fill:none;stroke:#000000;stroke-width:0.5;stroke-linecap:round;stroke-linejoin:round;stroke-miterlimit:10;}
	.st7{fill:#808080;stroke:#000000;stroke-width:0.75;stroke-linecap:round;stroke-linejoin:round;stroke-miterlimit:10;}
</style>
<g>
	<g>
		<path class="st0" d="M45.5,42.1c-0.1,0-0.3,0-0.7,0h0c-0.6,0-1.5,0-1.6,0c-3.1,0-5.6,7-5.6,15.5c0,8.6,2.5,15.5,5.6,15.5
			c0.1,0,0.9,0,1.6,0c0.4,0,0.7,0,0.8,0c2.8-0.8,3.2-7.4,3.2-15.5C48.8,49.5,48.4,42.8,45.5,42.1z M44.3,64.3c-0.6-1.2-1-4-1-7.3
			c0-3.3,0.4-6.1,1-7.3c0.6,1.2,1.1,4,1.1,7.3C45.4,60.3,44.9,63.1,44.3,64.3z"/>
		<path class="st1" d="M45.5,42.1c-0.1,0-0.3-0.1-0.4-0.1c-0.1,0-0.2,0-0.3,0h0c-3,0.4-5.3,7.2-5.3,15.5c0,8.3,2.3,15.1,5.3,15.5
			c0.1,0,0.2,0,0.3,0c3.1,0,5.6-7,5.6-15.5C50.7,49.4,48.4,42.7,45.5,42.1z M43.3,57c0-3.3,0.4-6.1,1-7.3c0.6,1.2,1.1,4,1.1,7.3
			c0,3.3-0.4,6.1-1.1,7.3C43.7,63.1,43.3,60.3,43.3,57z"/>
		<path class="st2" d="M44.3,64.3c1.6-5.1,1.4-10.3,0-14.6c0.3-1.6,2.3,0.8,2.3,7.3S44.8,65.8,44.3,64.3z"/>
	</g>
	<g>
		<g>
			<path class="st3" d="M58.7,63.7c-0.9,0-2.2-2.7-2.7-6.6c-0.2-1.9-0.2-3.6,0.1-5c0.3-1.4,0.7-1.9,1.1-2c0,0,0,0,0,0
				c1,0,2.3,2.7,2.7,6.5C60.4,60.9,59.5,63.6,58.7,63.7L58.7,63.7z"/>
			<path d="M57.2,50.5c0.5,0,1.8,2.1,2.3,6.2c0.5,4.4-0.5,6.5-0.9,6.6c-0.5,0-1.8-2.1-2.3-6.2c-0.2-1.8-0.2-3.6,0.1-4.9
				C56.8,50.8,57.2,50.5,57.2,50.5L57.2,50.5 M57.2,49.8C57.2,49.8,57.2,49.8,57.2,49.8c-1.4,0.1-2,3.5-1.6,7.4
				c0.4,3.9,1.8,6.9,3,6.9c0,0,0.1,0,0.1,0c1.3-0.1,2-3.5,1.5-7.4C59.8,52.8,58.5,49.7,57.2,49.8L57.2,49.8z"/>
		</g>
		<g>
			<path class="st3" d="M60.9,63.7c-0.9,0-2.2-2.7-2.7-6.6c-0.2-1.9-0.2-3.6,0.1-5c0.3-1.4,0.7-1.9,1.1-2c0,0,0,0,0,0
				c1,0,2.3,2.7,2.7,6.5C62.6,60.9,61.8,63.6,60.9,63.7L60.9,63.7z"/>
			<path d="M59.5,50.5c0.5,0,1.8,2.1,2.3,6.2c0.5,4.4-0.5,6.5-0.9,6.6c-0.5,0-1.8-2.1-2.3-6.2c-0.2-1.8-0.2-3.6,0.1-4.9
				C59,50.8,59.4,50.5,59.5,50.5L59.5,50.5 M59.5,49.8C59.4,49.8,59.4,49.8,59.5,49.8c-1.4,0.1-2,3.5-1.6,7.4c0.4,3.9,1.8,6.9,3,6.9
				c0,0,0.1,0,0.1,0c1.3-0.1,2-3.5,1.5-7.4C62.1,52.8,60.7,49.7,59.5,49.8L59.5,49.8z"/>
		</g>
		<g>
			<path class="st3" d="M63.1,63.7c-0.9,0-2.2-2.7-2.7-6.6c-0.2-1.9-0.2-3.6,0.1-5c0.3-1.4,0.7-1.9,1.1-2c0,0,0,0,0,0
				c1,0,2.3,2.7,2.7,6.5C64.8,60.9,64,63.6,63.1,63.7L63.1,63.7z"/>
			<path d="M61.7,50.5c0.5,0,1.8,2.1,2.3,6.2c0.5,4.4-0.5,6.5-0.9,6.6c-0.5,0-1.8-2.1-2.3-6.2c-0.2-1.8-0.2-3.6,0.1-4.9
				C61.2,50.8,61.6,50.5,61.7,50.5L61.7,50.5 M61.7,49.8C61.7,49.8,61.6,49.8,61.7,49.8c-1.4,0.1-2,3.5-1.6,7.4
				c0.4,3.9,1.8,6.9,3,6.9c0,0,0.1,0,0.1,0c1.3-0.1,2-3.5,1.5-7.4C64.3,52.8,62.9,49.7,61.7,49.8L61.7,49.8z"/>
		</g>
		<g>
			<path class="st3" d="M65.3,63.7c-0.9,0-2.2-2.7-2.7-6.6c-0.2-1.9-0.2-3.6,0.1-5c0.3-1.4,0.7-1.9,1.1-2c0,0,0,0,0,0
				c1,0,2.3,2.7,2.7,6.5C67,60.9,66.2,63.6,65.3,63.7L65.3,63.7z"/>
			<path d="M63.9,50.5c0.5,0,1.8,2.1,2.3,6.2c0.5,4.4-0.5,6.5-0.9,6.6c-0.5,0-1.8-2.1-2.3-6.2c-0.2-1.8-0.2-3.6,0.1-4.9
				C63.4,50.8,63.8,50.5,63.9,50.5L63.9,50.5 M63.9,49.8C63.9,49.8,63.8,49.8,63.9,49.8c-1.4,0.1-2,3.5-1.6,7.4
				c0.4,3.9,1.8,6.9,3,6.9c0,0,0.1,0,0.1,0c1.3-0.1,2-3.5,1.5-7.4C66.5,52.8,65.2,49.7,63.9,49.8L63.9,49.8z"/>
		</g>
		<g>
			<path class="st3" d="M67.6,63.7c-0.9,0-2.2-2.7-2.7-6.6c-0.2-1.9-0.2-3.6,0.1-5c0.3-1.4,0.7-1.9,1.1-2c0,0,0,0,0,0
				c1,0,2.3,2.7,2.7,6.5C69.3,60.9,68.4,63.6,67.6,63.7L67.6,63.7z"/>
			<path d="M66.1,50.5c0.5,0,1.8,2.1,2.3,6.2c0.5,4.4-0.5,6.5-0.9,6.6c-0.5,0-1.8-2.1-2.3-6.2c-0.2-1.8-0.2-3.6,0.1-4.9
				C65.6,50.8,66.1,50.5,66.1,50.5L66.1,50.5 M66.1,49.8C66.1,49.8,66.1,49.8,66.1,49.8c-1.4,0.1-2,3.5-1.6,7.4
				c0.4,3.9,1.8,6.9,3,6.9c0,0,0.1,0,0.1,0c1.3-0.1,2-3.5,1.5-7.4C68.7,52.8,67.4,49.7,66.1,49.8L66.1,49.8z"/>
		</g>
		<g>
			<path class="st3" d="M69.8,63.7c-0.9,0-2.2-2.7-2.7-6.6c-0.2-1.9-0.2-3.6,0.1-5c0.3-1.4,0.7-1.9,1.1-2c0,0,0,0,0,0
				c1,0,2.3,2.7,2.7,6.5C71.5,60.9,70.6,63.6,69.8,63.7L69.8,63.7z"/>
			<path d="M68.3,50.5c0.5,0,1.8,2.1,2.3,6.2c0.5,4.4-0.5,6.5-0.9,6.6c-0.5,0-1.8-2.1-2.3-6.2c-0.2-1.8-0.2-3.6,0.1-4.9
				C67.9,50.8,68.3,50.5,68.3,50.5L68.3,50.5 M68.3,49.8C68.3,49.8,68.3,49.8,68.3,49.8c-1.4,0.1-2,3.5-1.6,7.4
				c0.4,3.9,1.8,6.9,3,6.9c0,0,0.1,0,0.1,0c1.3-0.1,2-3.5,1.5-7.4C70.9,52.8,69.6,49.7,68.3,49.8L68.3,49.8z"/>
		</g>
		<g>
			<path class="st3" d="M72,63.7c-0.9,0-2.2-2.7-2.7-6.6c-0.2-1.9-0.2-3.6,0.1-5c0.3-1.4,0.7-1.9,1.1-2c0,0,0,0,0,0
				c1,0,2.3,2.7,2.7,6.5C73.7,60.9,72.8,63.6,72,63.7L72,63.7z"/>
			<path d="M70.6,50.5c0.5,0,1.8,2.1,2.3,6.2c0.5,4.4-0.5,6.5-0.9,6.6c-0.5,0-1.8-2.1-2.3-6.2c-0.2-1.8-0.2-3.6,0.1-4.9
				C70.1,50.8,70.5,50.5,70.6,50.5L70.6,50.5 M70.6,49.8C70.5,49.8,70.5,49.8,70.6,49.8c-1.4,0.1-2,3.5-1.6,7.4
				c0.4,3.9,1.8,6.9,3,6.9c0,0,0.1,0,0.1,0c1.3-0.1,2-3.5,1.5-7.4C73.2,52.8,71.8,49.7,70.6,49.8L70.6,49.8z"/>
		</g>
		<g>
			<path class="st3" d="M74.2,63.7c-0.9,0-2.2-2.7-2.7-6.6c-0.2-1.9-0.2-3.6,0.1-5c0.3-1.4,0.7-1.9,1.1-2c0,0,0,0,0,0
				c1,0,2.3,2.7,2.7,6.5C75.9,60.9,75.1,63.6,74.2,63.7L74.2,63.7z"/>
			<path d="M72.8,50.5c0.5,0,1.8,2.1,2.3,6.2c0.5,4.4-0.5,6.5-0.9,6.6c-0.5,0-1.8-2.1-2.3-6.2c-0.2-1.8-0.2-3.6,0.1-4.9
				C72.3,50.8,72.7,50.5,72.8,50.5L72.8,50.5 M72.8,49.8C72.8,49.8,72.7,49.8,72.8,49.8c-1.4,0.1-2,3.5-1.6,7.4
				c0.4,3.9,1.8,6.9,3,6.9c0,0,0.1,0,0.1,0c1.3-0.1,2-3.5,1.5-7.4C75.4,52.8,74,49.7,72.8,49.8L72.8,49.8z"/>
		</g>
		<g>
			<path class="st3" d="M76.4,63.7c-0.9,0-2.2-2.7-2.7-6.6c-0.2-1.9-0.2-3.6,0.1-5c0.3-1.4,0.7-1.9,1.1-2c0,0,0,0,0,0
				c1,0,2.3,2.7,2.7,6.5C78.1,60.9,77.3,63.6,76.4,63.7L76.4,63.7z"/>
			<path d="M75,50.5c0.5,0,1.8,2.1,2.3,6.2c0.5,4.4-0.5,6.5-0.9,6.6c-0.5,0-1.8-2.1-2.3-6.2c-0.2-1.8-0.2-3.6,0.1-4.9
				C74.5,50.8,74.9,50.5,75,50.5L75,50.5 M75,49.8C75,49.8,74.9,49.8,75,49.8c-1.4,0.1-2,3.5-1.6,7.4c0.4,3.9,1.8,6.9,3,6.9
				c0,0,0.1,0,0.1,0c1.3-0.1,2-3.5,1.5-7.4C77.6,52.8,76.3,49.7,75,49.8L75,49.8z"/>
		</g>
		<g>
			<path class="st3" d="M78.6,63.7c-0.9,0-2.2-2.7-2.7-6.6c-0.2-1.9-0.2-3.6,0.1-5c0.3-1.4,0.7-1.9,1.1-2c0,0,0,0,0,0
				c1,0,2.3,2.7,2.7,6.5C80.3,60.9,79.5,63.6,78.6,63.7L78.6,63.7z"/>
			<path d="M77.2,50.5c0.5,0,1.8,2.1,2.3,6.2c0.5,4.4-0.5,6.5-0.9,6.6c-0.5,0-1.8-2.1-2.3-6.2c-0.2-1.8-0.2-3.6,0.1-4.9
				C76.7,50.8,77.1,50.5,77.2,50.5L77.2,50.5 M77.2,49.8C77.2,49.8,77.2,49.8,77.2,49.8c-1.4,0.1-2,3.5-1.6,7.4
				c0.4,3.9,1.8,6.9,3,6.9c0,0,0.1,0,0.1,0c1.3-0.1,2-3.5,1.5-7.4C79.8,52.8,78.5,49.7,77.2,49.8L77.2,49.8z"/>
		</g>
		<g>
			<path class="st3" d="M80.9,63.7c-0.9,0-2.2-2.7-2.7-6.6c-0.2-1.9-0.2-3.6,0.1-5c0.3-1.4,0.7-1.9,1.1-2c0,0,0,0,0,0
				c1,0,2.3,2.7,2.7,6.5C82.6,60.9,81.7,63.6,80.9,63.7L80.9,63.7z"/>
			<path d="M79.4,50.5c0.5,0,1.8,2.1,2.3,6.2c0.5,4.4-0.5,6.5-0.9,6.6c-0.5,0-1.8-2.1-2.3-6.2c-0.2-1.8-0.2-3.6,0.1-4.9
				C79,50.8,79.4,50.5,79.4,50.5L79.4,50.5 M79.4,49.8C79.4,49.8,79.4,49.8,79.4,49.8c-1.4,0.1-2,3.5-1.6,7.4c0.4,3.9,1.8,6.9,3,6.9
				c0,0,0.1,0,0.1,0c1.3-0.1,2-3.5,1.5-7.4C82,52.8,80.7,49.7,79.4,49.8L79.4,49.8z"/>
		</g>
		<g>
			<path class="st3" d="M83.1,63.7c-0.9,0-2.2-2.7-2.7-6.6c-0.2-1.9-0.2-3.6,0.1-5c0.3-1.4,0.7-1.9,1.1-2c0,0,0,0,0,0
				c1,0,2.3,2.7,2.7,6.5C84.8,60.9,83.9,63.6,83.1,63.7L83.1,63.7z"/>
			<path d="M81.7,50.5c0.5,0,1.8,2.1,2.3,6.2c0.5,4.4-0.5,6.5-0.9,6.6c-0.5,0-1.8-2.1-2.3-6.2c-0.2-1.8-0.2-3.6,0.1-4.9
				C81.2,50.8,81.6,50.5,81.7,50.5L81.7,50.5 M81.7,49.8C81.6,49.8,81.6,49.8,81.7,49.8c-1.4,0.1-2,3.5-1.6,7.4
				c0.4,3.9,1.8,6.9,3,6.9c0,0,0.1,0,0.1,0c1.3-0.1,2-3.5,1.5-7.4C84.3,52.8,82.9,49.7,81.7,49.8L81.7,49.8z"/>
		</g>
		<g>
			<path class="st3" d="M85.3,63.7c-0.9,0-2.2-2.7-2.7-6.6c-0.2-1.9-0.2-3.6,0.1-5c0.3-1.4,0.7-1.9,1.1-2c0,0,0,0,0,0
				c1,0,2.3,2.7,2.7,6.5C87,60.9,86.2,63.6,85.3,63.7L85.3,63.7z"/>
			<path d="M83.9,50.5c0.5,0,1.8,2.1,2.3,6.2c0.5,4.4-0.5,6.5-0.9,6.6c-0.5,0-1.8-2.1-2.3-6.2c-0.2-1.8-0.2-3.6,0.1-4.9
				C83.4,50.8,83.8,50.5,83.9,50.5L83.9,50.5 M83.9,49.8C83.8,49.8,83.8,49.8,83.9,49.8c-1.4,0.1-2,3.5-1.6,7.4
				c0.4,3.9,1.8,6.9,3,6.9c0,0,0.1,0,0.1,0c1.3-0.1,2-3.5,1.5-7.4C86.5,52.8,85.1,49.7,83.9,49.8L83.9,49.8z"/>
		</g>
		<g>
			<path class="st3" d="M87.5,63.7c-0.9,0-2.2-2.7-2.7-6.6c-0.2-1.9-0.2-3.6,0.1-5c0.3-1.4,0.7-1.9,1.1-2c0,0,0,0,0,0
				c1,0,2.3,2.7,2.7,6.5C89.2,60.9,88.4,63.6,87.5,63.7L87.5,63.7z"/>
			<path d="M86.1,50.5c0.5,0,1.8,2.1,2.3,6.2c0.5,4.4-0.5,6.5-0.9,6.6c-0.5,0-1.8-2.1-2.3-6.2c-0.2-1.8-0.2-3.6,0.1-4.9
				C85.6,50.8,86,50.5,86.1,50.5L86.1,50.5 M86.1,49.8C86.1,49.8,86,49.8,86.1,49.8c-1.4,0.1-2,3.5-1.6,7.4c0.4,3.9,1.8,6.9,3,6.9
				c0,0,0.1,0,0.1,0c1.3-0.1,2-3.5,1.5-7.4C88.7,52.8,87.3,49.7,86.1,49.8L86.1,49.8z"/>
		</g>
		<g>
			<path class="st3" d="M89.7,63.7c-0.9,0-2.2-2.7-2.7-6.6c-0.2-1.9-0.2-3.6,0.1-5c0.3-1.4,0.7-1.9,1.1-2c0,0,0,0,0,0
				c1,0,2.3,2.7,2.7,6.5C91.4,60.9,90.6,63.6,89.7,63.7L89.7,63.7z"/>
			<path d="M88.3,50.5c0.5,0,1.8,2.1,2.3,6.2c0.5,4.4-0.5,6.5-0.9,6.6c-0.5,0-1.8-2.1-2.3-6.2c-0.2-1.8-0.2-3.6,0.1-4.9
				C87.8,50.8,88.2,50.5,88.3,50.5L88.3,50.5 M88.3,49.8C88.3,49.8,88.3,49.8,88.3,49.8c-1.4,0.1-2,3.5-1.6,7.4
				c0.4,3.9,1.8,6.9,3,6.9c0,0,0.1,0,0.1,0c1.3-0.1,2-3.5,1.5-7.4C90.9,52.8,89.6,49.7,88.3,49.8L88.3,49.8z"/>
		</g>
		<g>
			<path class="st3" d="M92,63.7c-0.9,0-2.2-2.7-2.7-6.6c-0.2-1.9-0.2-3.6,0.1-5c0.3-1.4,0.7-1.9,1.1-2c0,0,0,0,0,0
				c1,0,2.3,2.7,2.7,6.5C93.7,60.9,92.8,63.6,92,63.7L92,63.7z"/>
			<path d="M90.5,50.5c0.5,0,1.8,2.1,2.3,6.2c0.5,4.4-0.5,6.5-0.9,6.6c-0.5,0-1.8-2.1-2.3-6.2c-0.2-1.8-0.2-3.6,0.1-4.9
				C90.1,50.8,90.5,50.5,90.5,50.5L90.5,50.5 M90.5,49.8C90.5,49.8,90.5,49.8,90.5,49.8c-1.4,0.1-2,3.5-1.6,7.4
				c0.4,3.9,1.8,6.9,3,6.9c0,0,0.1,0,0.1,0c1.3-0.1,2-3.5,1.5-7.4C93.1,52.8,91.8,49.7,90.5,49.8L90.5,49.8z"/>
		</g>
		<g>
			<path class="st3" d="M94.2,63.7c-0.9,0-2.2-2.7-2.7-6.6c-0.2-1.9-0.2-3.6,0.1-5c0.3-1.4,0.7-1.9,1.1-2c0,0,0,0,0,0
				c1,0,2.3,2.7,2.7,6.5C95.9,60.9,95,63.6,94.2,63.7L94.2,63.7z"/>
			<path d="M92.8,50.5c0.5,0,1.8,2.1,2.3,6.2c0.5,4.4-0.5,6.5-0.9,6.6c-0.5,0-1.8-2.1-2.3-6.2c-0.2-1.8-0.2-3.6,0.1-4.9
				C92.3,50.8,92.7,50.5,92.8,50.5L92.8,50.5 M92.8,49.8C92.7,49.8,92.7,49.8,92.8,49.8c-1.4,0.1-2,3.5-1.6,7.4
				c0.4,3.9,1.8,6.9,3,6.9c0,0,0.1,0,0.1,0c1.3-0.1,2-3.5,1.5-7.4C95.3,52.8,94,49.7,92.8,49.8L92.8,49.8z"/>
		</g>
		<path class="st0" d="M94.5,44c-1.2,1.4-3.2,3.3-3.3,12.9s1.8,12.4,3.3,13.2c1.5,0.8,8.2-0.2,8.2-13.2S94.5,44,94.5,44z"/>
		<path class="st2" d="M95.3,47.7c-0.6-0.1-1.2,2.3-0.6,2.6c0.6,0.2,7.6,3.2,6.7,14.5c0,0,1.1-1.9,0.8-5.3
			C102,56,101,48.5,95.3,47.7z"/>
	</g>
	<g>
		<path class="st4" d="M14.5,39.7c0,0-1.6,4.3,1.5,6.3c3.1,2,6.6,0.9,6.6,0.9s2.5-5.9-1.8-7.2C16.6,38.4,14.5,39.7,14.5,39.7z"/>
		<path class="st1" d="M30.9,48.8c0.1-3.2,0.9-7.4-3.9-10.9c-4.8-3.5-9.7-4.1-11.5-4.6c-1.8-0.5-3.5,0.7-2.9,3.5
			c0.5,2.8,1.4,4.8,4,5.6c2.6,0.8,5.3,1.8,5.3,1.8s-2.6,2.6-3.1,8.2c-0.5,5.6,0.3,8.3,0.3,8.3s-4-0.1-7,0.8c-3,0.8-5.5,2.8-6.4,6.3
			c-0.9,3.5,0.4,6.9,2.6,6.9c1.7,0,7.2,0.1,10.7-0.5c3.5-0.6,6.5-3.6,7.9-4.2c1.4-0.6,5.1-3.2,5.1-10.2C31.9,54,30.8,52,30.9,48.8z"
			/>
		<path class="st5" d="M23.8,49.4c0.6-2,1.5-2.9,2.7-3.2"/>
		<path class="st5" d="M23.4,58.9c-0.1-1.6-0.2-3.2-0.2-4.7c0-1,0.1-2,0.2-2.8"/>
		<path class="st6" d="M8.5,71.6c0,0,10.9-0.1,13.6-3.1c1.4-1.5,1.6-3.9,1.5-6.5"/>
		<path class="st6" d="M22.8,44c0,0,4.9,1.4,5.8-1.5"/>
		<ellipse class="st7" cx="27.6" cy="57" rx="1.7" ry="7.9"/>
	</g>
</g>
</svg>
