<?xml version="1.0" encoding="utf-8"?>
<!-- Generator: Adobe Illustrator 21.1.0, SVG Export Plug-In . SVG Version: 6.00 Build 0)  -->
<svg version="1.1" id="Layer_1" xmlns="http://www.w3.org/2000/svg" xmlns:xlink="http://www.w3.org/1999/xlink" x="0px" y="0px"
	 width="108px" height="108px" viewBox="0 0 108 108" style="enable-background:new 0 0 108 108;" xml:space="preserve">
<style type="text/css">
	.st0{fill:#E6E6E6;stroke:#000000;stroke-width:0.75;stroke-linecap:round;stroke-linejoin:round;stroke-miterlimit:10;}
	.st1{fill:#B3B3B3;stroke:#000000;stroke-width:0.75;stroke-linecap:round;stroke-linejoin:round;stroke-miterlimit:10;}
	.st2{fill:none;stroke:#000000;stroke-width:0.5;stroke-linecap:round;stroke-linejoin:round;stroke-miterlimit:10;}
	.st3{fill:#CCCCCC;stroke:#000000;stroke-width:0.75;stroke-linecap:round;stroke-linejoin:round;stroke-miterlimit:10;}
	.st4{fill:#FFFFFF;stroke:#000000;stroke-width:0.75;stroke-linecap:round;stroke-linejoin:round;stroke-miterlimit:10;}
	.st5{fill:#F2F2F2;stroke:#000000;stroke-width:0.75;stroke-linecap:round;stroke-linejoin:round;stroke-miterlimit:10;}
	.st6{fill:#808080;stroke:#000000;stroke-width:0.5;stroke-linecap:round;stroke-linejoin:round;stroke-miterlimit:10;}
</style>
<g>
	<g>
		<path class="st0" d="M42.6,103.5c-2.4,1.8-5.6,1.1-7.7-0.6c-2.2-1.7-3.5-4.3-3.8-7.1c-0.1-1.4,0.1-2.8,0.7-4.1
			c0.6-1.3,1.6-2.2,2.8-3c0.6-0.7,0.8-1.4,0.6-2.3l0-0.1c1.1,0.8,3.1,0.9,4.7,0.1l0.1,0.1c0.3,2.6-1.1,4.7-3.3,6.2
			c0,0-1.2,0.8-1.4,1.5c-0.4,1.2-0.1,2.5,0.6,3.5c0.8,1.2,2.1,2.1,3.5,1.4c1.5-1.2,1.3-3.3,0.3-4.8c-0.3-0.4-0.4-0.8-0.4-1.3
			c0-0.6,0.3-1.3,0.8-1.7c1-0.9,2.6-0.7,3.4,0.4c0.9,1.2,1.5,2.7,1.7,4.2C45.7,98.7,45,101.7,42.6,103.5z"/>
		<path class="st1" d="M40.9,85.9c-0.3,0.3-0.6,0.5-1,0.7c-1.5,0.7-3.6,0.6-4.7-0.1c-0.1-0.1-0.3-0.2-0.4-0.3v-14l0,0
			c0.2,0.1,0.4,0.2,0.7,0.3c1.3,0.4,2.8,0.5,4.2,0.3c0.4-0.1,0.7-0.2,1-0.3l0,0L40.9,85.9z"/>
		<g>
			<path class="st2" d="M40.9,83.4c-1.6,1.6-4.9,2.5-6,1.2"/>
			<path class="st2" d="M40.9,81.7c-1.6,1.6-4.9,2.5-6,1.2"/>
			<path class="st2" d="M40.9,80c-1.6,1.6-4.9,2.5-6,1.2"/>
			<path class="st2" d="M40.9,78.4c-1.6,1.6-4.9,2.5-6,1.2"/>
			<path class="st2" d="M40.9,76.7c-1.6,1.6-4.9,2.5-6,1.2"/>
			<path class="st2" d="M40.9,75c-1.6,1.6-4.9,2.5-6,1.2"/>
			<path class="st2" d="M40.9,73.4c-1.6,1.6-4.9,2.5-6,1.2"/>
		</g>
	</g>
	<path class="st3" d="M68.5,61.2v16.7l-45.6-9.2c0.6-1,1.2-1.9,2-2.8c1.4-1.7,2.9-3.1,4.6-4.4c1.7-1.3,6-3.9,7.9-4.7l0.7-0.3
		C38.1,56.5,67.7,61.1,68.5,61.2z"/>
	<g>
		<path class="st4" d="M85.2,10.5l-12.8,13c0,0-49.5-8.3-49.5-8.3c0.9-1.5,1.9-2.9,3.1-4.3c2.1-2.3,4.7-4.2,7.5-5.5
			c2.8-1.3,5.7-1.9,8.7-2L85.2,10.5z"/>
	</g>
	<path class="st0" d="M72.4,23.4v58.5L22.8,72l0.1-3.3l45.6,9.2V26.4c-0.2,0.1-45.7-7.9-45.8-7.9c0.1-1.1,0.1-2.2,0.2-3.3
		C22.9,15.2,72.4,23.4,72.4,23.4z"/>
	<path class="st4" d="M85.2,10.5"/>
	<polygon class="st5" points="85.2,10.5 85.2,67.5 72.4,81.9 72.4,23.4 	"/>
	<line class="st4" x1="72.4" y1="81.9" x2="72.4" y2="81.9"/>
	<g>
		<path class="st5" d="M45.4,44.4c-0.1,0.3-0.1,0.6-0.2,0.9c-0.1,0.3-0.4,0.5-0.7,0.6c-0.9,0.2-1.7,0.4-2.6,0.6
			c-1.7,0.2-3.4,0.3-5,0.1c-1.6-0.2-3.1-0.6-4.6-1.2c-0.6-0.5-1.1-1-1.3-1.7c-0.2-0.8-0.1-1.5,0.1-2.3l0,0c0,0.9,0.9,1.5,1.7,1.9
			c0.9,0.5,2,0.8,3,1c2.1,0.4,4.5,0.5,6.6,0.1c0.9-0.2,2.1-0.5,2.8-1.3c0.2-0.2,0.2-0.4,0.3-0.6h0C45.5,43.1,45.5,43.7,45.4,44.4z"
			/>
		<path class="st4" d="M45.5,42.5c0,0.2-0.1,0.4-0.3,0.6c-0.6,0.8-1.8,1.1-2.8,1.3c-2.2,0.5-4.5,0.3-6.6-0.1c-1-0.2-2.1-0.5-3-1
			c-0.8-0.4-1.7-1-1.7-1.9c0-0.1,0-0.2,0-0.3c0.1-0.2,0.2-0.4,0.4-0.6c0.7-0.7,2-1,2.9-1.2c1.1-0.2,2.2-0.2,3.3-0.2
			c2.2,0.1,4.5,0.4,6.4,1.5C44.8,41,45.6,41.7,45.5,42.5z"/>
		<path class="st0" d="M44.5,45.9c-0.1,1.6-0.2,3.1-1.3,4.4c-0.7,0.8-1.5,1.4-2.4,1.8c-0.3,0.1-0.7,0.2-1,0.3
			c-1.3,0.2-2.9,0.1-4.2-0.3c-0.2-0.1-0.5-0.2-0.7-0.3c-0.9-0.5-1.6-1.4-2-2.3c-0.6-1.3-0.7-2.6-0.7-4.1c1.5,0.5,3,1,4.6,1.2
			c1.7,0.2,3.4,0.1,5-0.1C42.7,46.4,43.6,46.1,44.5,45.9z"/>
		<path class="st1" d="M40.9,65.6c-1.6,1.6-4.9,1.5-6,0.2v-14l0,0c0.2,0.1,0.4,0.2,0.7,0.3c1.3,0.4,2.8,0.5,4.2,0.3
			c0.4-0.1,0.7-0.2,1-0.3l0,0L40.9,65.6z"/>
		<g>
			<path class="st2" d="M40.9,63.9c-1.6,1.6-4.9,2.5-6,1.2"/>
			<path class="st2" d="M40.9,62.3c-1.6,1.6-4.9,2.5-6,1.2"/>
			<path class="st2" d="M40.9,60.6c-1.6,1.6-4.9,2.5-6,1.2"/>
			<path class="st2" d="M40.9,58.9c-1.6,1.6-4.9,2.5-6,1.2"/>
			<path class="st2" d="M40.9,57.3c-1.6,1.6-4.9,2.5-6,1.2"/>
			<path class="st2" d="M40.9,55.6c-1.6,1.6-4.9,2.5-6,1.2"/>
			<path class="st2" d="M40.9,53.9c-1.6,1.6-4.9,2.5-6,1.2"/>
			<path class="st2" d="M40.9,52.3c-1.6,1.6-4.9,2.5-6,1.2"/>
		</g>
	</g>
	<g>
		<ellipse class="st6" cx="79.7" cy="31.2" rx="1.6" ry="4.5"/>
		<ellipse class="st6" cx="79.7" cy="62.9" rx="1.6" ry="4.5"/>
	</g>
</g>
</svg>
