<?xml version="1.0" encoding="utf-8"?>
<!-- Generator: Adobe Illustrator 21.1.0, SVG Export Plug-In . SVG Version: 6.00 Build 0)  -->
<svg version="1.1" id="Layer_1" xmlns="http://www.w3.org/2000/svg" xmlns:xlink="http://www.w3.org/1999/xlink" x="0px" y="0px"
	 width="108px" height="108px" viewBox="0 0 108 108" style="enable-background:new 0 0 108 108;" xml:space="preserve">
<style type="text/css">
	.st0{fill:#E6E6E6;stroke:#000000;stroke-width:0.75;stroke-linecap:round;stroke-linejoin:round;stroke-miterlimit:10;}
	.st1{fill:#CCCCCC;stroke:#000000;stroke-width:0.5;stroke-linecap:round;stroke-linejoin:round;stroke-miterlimit:10;}
	.st2{fill:#B3B3B3;stroke:#000000;stroke-width:0.75;stroke-linecap:round;stroke-linejoin:round;stroke-miterlimit:10;}
	.st3{fill:#FFFFFF;stroke:#000000;stroke-width:0.75;stroke-linecap:round;stroke-linejoin:round;stroke-miterlimit:10;}
</style>
<g>
	<g>
		<path class="st0" d="M58.8,86l-0.1-0.1c-0.4-0.2-1.6-0.6-1.5-5.3c0.3-0.1,0.3-0.3,0.3-0.3l0-3.4L53,77.8l0,2.5c0,0,0,0,0,0
			c-0.2,6.8,2.1,8.6,4.1,9.4l0.1,0c1.9,0.8,3.1,2.6,3.2,4.6c0,1.4-0.5,2.6-1.4,3.6c-0.9,1-2.2,1.5-3.6,1.5c-2.8,0-5.1-2.2-5.1-5
			c0-1.6,0.7-3.1,2-4.1c0.9-0.7,1.1-2,0.4-2.9c-0.7-0.9-2-1.1-2.9-0.4c-2.3,1.8-3.7,4.6-3.6,7.5c0.1,5.1,4.3,9.1,9.3,9
			c2.5,0,4.7-1,6.5-2.8c1.7-1.8,2.6-4.1,2.6-6.5C64.5,90.7,62.2,87.4,58.8,86z"/>
		<g>
			<path class="st1" d="M53.6,76.4L52.3,78c0,0,1.1,0.7,3.4,0.4c2.2-0.3,2.7-1.3,2.7-1.3L56.8,76L53.6,76.4z"/>
			<path class="st1" d="M53.6,74.6l-1.4,1.5c0,0,1.1,0.7,3.4,0.4c2.2-0.3,2.7-1.3,2.7-1.3l-1.5-1.1L53.6,74.6z"/>
			<path class="st1" d="M53.6,72.9l-1.4,1.5c0,0,1.1,0.7,3.4,0.4c2.2-0.3,2.7-1.3,2.7-1.3l-1.5-1.1L53.6,72.9z"/>
			<path class="st1" d="M53.7,71.1l-1.4,1.5c0,0,1.1,0.7,3.4,0.4c2.2-0.3,2.7-1.3,2.7-1.3l-1.5-1.1L53.7,71.1z"/>
			<path class="st1" d="M53.7,69.3l-1.4,1.5c0,0,1.1,0.7,3.4,0.4c2.2-0.3,2.7-1.3,2.7-1.3l-1.5-1.1L53.7,69.3z"/>
			<path class="st1" d="M53.7,67.5l-1.4,1.5c0,0,1.1,0.7,3.4,0.4c2.2-0.3,2.7-1.3,2.7-1.3l-1.5-1.1L53.7,67.5z"/>
			<path class="st1" d="M53.7,65.7l-1.4,1.5c0,0,1.1,0.7,3.4,0.4c2.2-0.3,2.7-1.3,2.7-1.3l-1.5-1.1L53.7,65.7z"/>
			<path class="st1" d="M53.7,64l-1.4,1.5c0,0,1.1,0.7,3.4,0.4c2.2-0.3,2.7-1.3,2.7-1.3l-1.5-1.1L53.7,64z"/>
			<path class="st1" d="M53.7,62.2l-1.4,1.5c0,0,1.1,0.7,3.4,0.4c2.2-0.3,2.7-1.3,2.7-1.3l-1.5-1.1L53.7,62.2z"/>
			<path class="st1" d="M53.7,60.4l-1.4,1.5c0,0,1.1,0.7,3.4,0.4c2.2-0.3,2.7-1.3,2.7-1.3L56.9,60L53.7,60.4z"/>
			<path class="st1" d="M53.7,58.6l-1.4,1.5c0,0,1.1,0.7,3.4,0.4c2.2-0.3,2.7-1.3,2.7-1.3l-1.5-1.1L53.7,58.6z"/>
			<path class="st1" d="M53.7,56.8l-1.4,1.5c0,0,1.1,0.7,3.4,0.4c2.2-0.3,2.7-1.3,2.7-1.3l-1.5-1.1L53.7,56.8z"/>
			<path class="st1" d="M53.8,55.1l-1.4,1.5c0,0,1.1,0.7,3.4,0.4c2.2-0.3,2.7-1.3,2.7-1.3l-1.5-1.1L53.8,55.1z"/>
			<path class="st1" d="M53.8,53.3l-1.4,1.5c0,0,1.1,0.7,3.4,0.4c2.2-0.3,2.7-1.3,2.7-1.3l-1.5-1.1L53.8,53.3z"/>
			<path class="st1" d="M53.8,51.5L52.4,53c0,0,1.1,0.7,3.4,0.4c2.2-0.3,2.7-1.3,2.7-1.3L57,51.1L53.8,51.5z"/>
			<path class="st1" d="M53.8,49.7l-1.4,1.5c0,0,1.1,0.7,3.4,0.4c2.2-0.3,2.7-1.3,2.7-1.3L57,49.3L53.8,49.7z"/>
			<path class="st1" d="M53.8,47.9l-1.4,1.5c0,0,1.1,0.7,3.4,0.4c2.2-0.3,2.7-1.3,2.7-1.3L57,47.5L53.8,47.9z"/>
			<path class="st1" d="M53.8,46.2l-1.4,1.5c0,0,1.1,0.7,3.4,0.4c2.2-0.3,2.7-1.3,2.7-1.3L57,45.8L53.8,46.2z"/>
			<path class="st1" d="M53.8,44.4l-1.4,1.5c0,0,1.1,0.7,3.4,0.4C58,46,58.5,45,58.5,45L57,44L53.8,44.4z"/>
			<path class="st1" d="M53.8,42.6l-1.4,1.5c0,0,1.1,0.7,3.4,0.4c2.2-0.3,2.7-1.3,2.7-1.3L57,42.2L53.8,42.6z"/>
			<path class="st1" d="M53.8,40.8l-1.4,1.5c0,0,1.1,0.7,3.4,0.4c2.2-0.3,2.7-1.3,2.7-1.3L57,40.4L53.8,40.8z"/>
			<path class="st1" d="M53.9,39l-1.4,1.5c0,0,1.1,0.7,3.4,0.4c2.2-0.3,2.7-1.3,2.7-1.3L57,38.6L53.9,39z"/>
			<path class="st1" d="M53.9,37.3l-1.4,1.5c0,0,1.1,0.7,3.4,0.4c2.2-0.3,2.7-1.3,2.7-1.3L57,36.9L53.9,37.3z"/>
			<path class="st1" d="M53.9,35.5L52.5,37c0,0,1.1,0.7,3.4,0.4c2.2-0.3,2.7-1.3,2.7-1.3l-1.5-1.1L53.9,35.5z"/>
			<path class="st1" d="M53.9,33.7l-1.4,1.5c0,0,1.1,0.7,3.4,0.4c2.2-0.3,2.7-1.3,2.7-1.3l-1.5-1.1L53.9,33.7z"/>
			<path class="st1" d="M53.9,31.9l-1.4,1.5c0,0,1.1,0.7,3.4,0.4c2.2-0.3,2.7-1.3,2.7-1.3l-1.5-1.1L53.9,31.9z"/>
			<path class="st1" d="M53.9,30.1l-1.4,1.5c0,0,1.1,0.7,3.4,0.4c2.2-0.3,2.7-1.3,2.7-1.3l-1.5-1.1L53.9,30.1z"/>
			<path class="st1" d="M53.9,28.4l-1.4,1.5c0,0,1.1,0.7,3.4,0.4c2.2-0.3,2.7-1.3,2.7-1.3L57.1,28L53.9,28.4z"/>
			<path class="st1" d="M53.9,26.6l-1.4,1.5c0,0,1.1,0.7,3.4,0.4c2.2-0.3,2.7-1.3,2.7-1.3l-1.5-1.1L53.9,26.6z"/>
			<path class="st1" d="M53.9,24.8l-1.4,1.5c0,0,1.1,0.7,3.4,0.4c2.2-0.3,2.7-1.3,2.7-1.3l-1.5-1.1L53.9,24.8z"/>
			<path class="st1" d="M53.9,17.2l-1.4,1.5c0,0,1.1,0.7,3.4,0.4c2.2-0.3,2.7-1.3,2.7-1.3l-1.5-1.1L53.9,17.2z"/>
			<path class="st1" d="M53.9,15.4l-1.4,1.5c0,0,1.1,0.7,3.4,0.4c2.2-0.3,2.7-1.3,2.7-1.3L57.1,15L53.9,15.4z"/>
			<path class="st1" d="M53.9,13.6l-1.4,1.5c0,0,1.1,0.7,3.4,0.4c2.2-0.3,2.7-1.3,2.7-1.3l-1.5-1.1L53.9,13.6z"/>
			<path class="st1" d="M53.9,11.8l-1.4,1.5c0,0,1.1,0.7,3.4,0.4c2.2-0.3,2.7-1.3,2.7-1.3l-1.5-1.1L53.9,11.8z"/>
			<path class="st1" d="M54,10l-1.4,1.5c0,0,1.1,0.7,3.4,0.4c2.2-0.3,2.7-1.3,2.7-1.3l-1.5-1.1L54,10z"/>
			<path class="st1" d="M54,8.3l-1.4,1.5c0,0,1.1,0.7,3.4,0.4c2.2-0.3,2.7-1.3,2.7-1.3l-1.5-1.1L54,8.3z"/>
			<path class="st1" d="M54,6.5L52.6,8c0,0,1.1,0.7,3.4,0.4c2.2-0.3,2.7-1.3,2.7-1.3l-1.5-1.1L54,6.5z"/>
			<path class="st1" d="M54,4.7l-1.4,1.5c0,0,1.1,0.7,3.4,0.4c2.2-0.3,2.7-1.3,2.7-1.3l-1.5-1.1L54,4.7z"/>
			<g>
				
					<ellipse transform="matrix(0.9989 -4.732332e-02 4.732332e-02 0.9989 -0.8449 2.7265)" class="st1" cx="57.2" cy="19.2" rx="3" ry="3"/>
			</g>
		</g>
	</g>
	<g>
		
			<rect x="55.6" y="14.3" transform="matrix(9.411224e-03 -1 1 9.411224e-03 37.5396 75.9346)" class="st2" width="2.9" height="9.5"/>
		<g>
			<path class="st3" d="M53.7,21.4l-1-5.9l-2.3-2.6c0,0-23,13.6-28.9,17.1c1.4,3.1,4.7,5.1,5.6,5c1-0.1,25.7-6.8,26.8-7.4
				c1.2-0.7,2.1-3.1,2.1-3.1L53.7,21.4z M46.2,26.5c-0.3,0.1-0.6,0.2-0.9,0.2c-1.3,0.1-2.3-0.9-2.4-2.2c0-1,0.5-1.8,1.4-2.2l6.1-3.3
				l2,4.3L46.2,26.5z"/>
		</g>
		<path class="st3" d="M59.8,13C59.8,13,59.8,13,59.8,13L59.8,13L59.8,13c-1.1-0.5-2.2-0.8-3.4-0.7c-3.9,0.2-6.9,3.5-6.7,7.4
			c0.1,3,2.2,5.5,4.9,6.4l0,0l0.3,0.1c0.1,0,0.2,0.1,0.4,0.1l27.1,6c0,0,2.2-1.9,2.9-3.5c0.7-1.6,1.1-2.8,1.1-2.8L59.8,13z
			 M57.3,22.2c-1.6,0.1-3-1.2-3.1-2.8c-0.1-1.6,1.2-3,2.8-3.1c1.6-0.1,3,1.2,3.1,2.8C60.2,20.7,58.9,22.1,57.3,22.2z"/>
	</g>
</g>
</svg>
