<?xml version="1.0" encoding="utf-8"?>
<!-- Generator: Adobe Illustrator 21.1.0, SVG Export Plug-In . SVG Version: 6.00 Build 0)  -->
<svg version="1.1" id="Layer_1" xmlns="http://www.w3.org/2000/svg" xmlns:xlink="http://www.w3.org/1999/xlink" x="0px" y="0px"
	 width="108px" height="108px" viewBox="0 0 108 108" style="enable-background:new 0 0 108 108;" xml:space="preserve">
<style type="text/css">
	.st0{fill:#FFFFFF;}
	.st1{fill:#F2F2F2;}
	.st2{fill:none;stroke:#000000;stroke-linecap:round;stroke-linejoin:round;stroke-miterlimit:10;}
	.st3{fill:#E6E6E6;}
	.st4{fill:#CCCCCC;}
	.st5{fill:#E6E6E6;stroke:#000000;stroke-width:0.75;stroke-linecap:round;stroke-linejoin:round;stroke-miterlimit:10;}
	.st6{fill:#F2F2F2;stroke:#000000;stroke-width:0.75;stroke-linecap:round;stroke-linejoin:round;stroke-miterlimit:10;}
</style>
<g>
	<path class="st0" d="M57.8,11.9c-19.6,0-36,7.2-40.4,16.8C31.4,16,53.2,13.6,72,17c7.8,1.6,16.4,3.7,23.5,7.7
		C88.9,17.1,74.5,11.9,57.8,11.9z"/>
	<path class="st1" d="M17.4,28.7c-0.8,1.7-1.2,3.4-1.2,5.2c0,12.2,18.6,22,41.6,22s41.6-9.9,41.6-22c0-3.3-1.4-6.4-3.8-9.2
		c-7.2-4-15.8-6.1-23.5-7.7C53.2,13.6,31.4,16,17.4,28.7z"/>
	<ellipse class="st2" cx="57.8" cy="33.9" rx="41.6" ry="22"/>
	<path class="st3" d="M44.8,53.8l-0.8,25.4c8.4-4.4,18.2-5.2,27.4-3l-0.8-25.2C61.9,48.9,52.5,49.6,44.8,53.8z"/>
	<path class="st4" d="M57.7,30.7c-5.1,0-9.6,1.5-12.3,3.8l-0.6,19.4c7.7-4.2,17.1-4.9,25.8-2.9l-0.5-16.3
		C67.5,32.3,62.9,30.7,57.7,30.7z"/>
	<path class="st0" d="M44.1,79.2L44,81.5c-0.2,7.5,6,13.8,13.8,13.8c7.8,0,14-6.3,13.8-13.8l-0.2-5.3C62.3,74,52.5,74.8,44.1,79.2z"
		/>
	<path class="st2" d="M71.6,81.5c0.2,7.5-6,13.8-13.8,13.8c-7.8,0-14-6.3-13.8-13.8l1.4-47c2.7-2.3,7.2-3.8,12.3-3.8
		c5.2,0,9.9,1.6,12.5,4L71.6,81.5z"/>
	<g>
		<path class="st5" d="M40.7,43.4c-0.1,2.2,5.2,3.7,12.4,3.8V43c0-2.6-2.4-4.5-4.9-3.9C43.7,40.2,40.8,41.8,40.7,43.4z"/>
		<path class="st6" d="M72.9,41.4c-0.1-1.8-3-3.2-8.2-3.6c-2.3-0.2-4.3,1.6-4.3,4v5.1C68.3,46,72.9,43.7,72.9,41.4z"/>
		<path class="st5" d="M40.5,48.9c-0.1,2.2,5.3,3.8,12.6,3.9v-4.5c0-2.6-2.4-4.5-4.9-3.9C43.6,45.7,40.5,47.3,40.5,48.9z"/>
		<path class="st6" d="M75,46.9c-0.1-1.9-4.4-3.4-10.4-3.7c-2.3-0.1-4.2,1.7-4.2,4v5.4C68.8,51.7,75.1,49.3,75,46.9z"/>
		<path class="st5" d="M40.2,54.7c-0.1,2.3,5.4,3.9,12.9,4c0,0,0-2.4,0-4.7c0-2.6-2.4-4.5-4.9-3.8C43.5,51.3,40.3,53,40.2,54.7z"/>
		<path class="st6" d="M75.3,52.6c-0.1-2-4.5-3.5-10.6-3.8c-2.3-0.1-4.2,1.7-4.2,4v5.7C68.9,57.5,75.4,55,75.3,52.6z"/>
		<path class="st5" d="M40,60.5c-0.1,2.4,5.5,4,13.1,4.1v-5c0-2.6-2.4-4.5-4.9-3.8C43.3,57,40.1,58.8,40,60.5z"/>
		<path class="st6" d="M75.5,58.4c-0.1-2.1-4.6-3.6-10.9-3.9c-2.3-0.1-4.2,1.7-4.2,4v5.9C69,63.5,75.6,60.9,75.5,58.4z"/>
		<path class="st5" d="M39.8,66.6c-0.1,2.4,5.6,4.1,13.3,4.3v-5.3c0-2.6-2.4-4.5-4.9-3.8C43.2,62.9,39.8,64.7,39.8,66.6z"/>
		<path class="st6" d="M75.7,64.4c-0.1-2.1-4.7-3.7-11.1-4c-2.3-0.1-4.2,1.7-4.2,4v6.2C69.2,69.6,75.8,67,75.7,64.4z"/>
		<path class="st6" d="M60.4,70.3v1.2c7.6-0.2,11.2,2.8,11.2,2.8c2.8-1.1,4.4-2.5,4.4-3.8c-0.1-2.2-4.8-3.8-11.4-4.2
			C62.3,66.2,60.4,68,60.4,70.3z"/>
		<path class="st5" d="M41.6,72.8c0,1.2,0.9,2.2,2.6,2.9c0,0,2.8-1.9,8.9-3.2v-0.7c0-2.6-2.6-4.6-5.1-3.8C44,69.2,41.7,71,41.6,72.8
			z"/>
	</g>
</g>
</svg>
