<?xml version="1.0" encoding="utf-8"?>
<!-- Generator: Adobe Illustrator 21.1.0, SVG Export Plug-In . SVG Version: 6.00 Build 0)  -->
<svg version="1.1" id="Layer_1" xmlns="http://www.w3.org/2000/svg" xmlns:xlink="http://www.w3.org/1999/xlink" x="0px" y="0px"
	 width="108px" height="108px" viewBox="0 0 108 108" style="enable-background:new 0 0 108 108;" xml:space="preserve">
<style type="text/css">
	.st0{fill:#FFFFFF;stroke:#000000;stroke-width:0.75;stroke-linecap:round;stroke-linejoin:round;stroke-miterlimit:10;}
	.st1{fill:#CCCCCC;stroke:#000000;stroke-width:0.75;stroke-linecap:round;stroke-linejoin:round;stroke-miterlimit:10;}
</style>
<g>
	<line class="st0" x1="56.4" y1="33.8" x2="56.4" y2="33.7"/>
	<g>
		<path class="st0" d="M106.6,37.4c0.1,1.3-2.4,1.8-3.2,2.2c-3.2,1.4-6.4,2.8-9.6,4.2c-8.1,3.5-16.3,7.1-24.4,10.6c-2.3,1-4.6,2-7,3
			c-1.5,0.7-3.5,1-4.1-1c-0.3-0.9-0.2-2.1-0.3-3c-0.2-2.2-0.4-4.4-0.5-6.6c-0.2-2.9-0.5-5.8-0.6-8.8c0-2.8-0.6-5.4-0.8-8.2
			c-0.2-2-0.2-4-0.5-5.9c-0.1-0.9-0.8-1.5-1.8-1.4c-0.5,0.1-1.1,0.3-1.2,0.9c-0.2-0.5-1-1.9-0.8-2.3c0.1-0.5,1.3-0.7,1.8-0.7
			c1.5-0.1,2.9,0.6,3.7,1.8c0.5,0.7,0.5,1.2,0.5,2c0.1,1.4,0.2,2.8,0.3,4.1c0.7,8.3,1.3,16.6,2,24.9c0,0.5-0.1,2,0.2,2.5
			c0.3,0.4,0.4,0.2,0.8,0c2.3-0.8,4.5-1.9,6.7-2.9c8.1-3.5,16.3-7.1,24.4-10.6c3.3-1.4,6.5-2.9,9.8-4.3c0.9-0.4,2.9-1.8,4-1.3
			C106.3,36.6,106.6,37,106.6,37.4z"/>
		<path class="st1" d="M3.2,84.9c0,1.5-1.9,1.2-1.9-0.2C1.3,83.1,3.2,83.4,3.2,84.9z"/>
		<path class="st0" d="M51.5,26.6c-1.1,3-2.2,5.9-3.2,8.9c-0.6,1.6-0.5,3.2-0.5,4.9c-0.1,6.9-0.3,13.7-0.2,20.6
			c0,1.4-0.1,3.3-1.4,4.1c-1.7,1.1-3.7,1.8-5.5,2.6c-7.3,3.5-14.5,6.9-21.8,10.4c-5.3,2.5-10.6,5-15.8,7.5c0.6-0.7,0.2-2.2-0.9-2.1
			C13.9,78,25.7,72.4,37.5,66.8c2.2-1,4.4-2.1,6.6-3.1c1.3-0.6,1.2-1.8,1.2-3.2c0.1-7,0.2-14,0.2-21c0-2,0.3-3.9,1-5.8
			c1.3-3.5,2.5-6.9,3.8-10.4C50.7,24.4,51.1,25.5,51.5,26.6z"/>
	</g>
	<g>
		<path class="st1" d="M101.1,87.7c0.1,1.3-1.7,2-1.9,0.5C99.1,86.8,101,86.1,101.1,87.7z"/>
		<path class="st0" d="M100.4,86.7c-1.1-0.1-1.4,1.4-0.9,2.1C87.8,82,76.1,75.2,64.4,68.5c-2.4-1.4-4.7-2.7-7.1-4.1
			c-1.4-0.8-2.1-1.7-2.3-3.4c-0.2-2.3,0-4.7-0.1-7c0-4.3-0.1-8.5-0.1-12.8c0-2.1,0.3-4.5-0.3-6.5c-0.9-2.7-2-5.4-2.9-8.1
			c-0.5-1.5-0.9-3.2-1.7-4.6c-0.5-0.9-1.6-1.1-2.4-0.5c-0.8,0.6-0.6,1.6-0.7,2.4c-0.2,2-0.3,4-0.5,6.1c-0.5,6-1,12-1.5,18
			c-0.2,1.9-0.3,3.8-0.5,5.6c-0.1,0.8-0.1,1.6-0.6,2.3c-1.2,1.4-2.7,0.7-4-0.1C27.5,49,15.3,42.1,3.1,35.2c-0.4-0.2-0.8-0.4-1-0.8
			c-0.4-0.8,0.3-1.7,1.2-1.6c0.4,0.1,0.8,0.4,1.1,0.6c1,0.5,1.9,1.1,2.9,1.6c7.1,4,14.2,8,21.3,12.1c3.2,1.8,6.4,3.6,9.6,5.4
			c0.5,0.3,3.2,2.3,3.7,1.9c0.2-0.2,0.1-1.3,0.2-1.6c0.1-1.5,0.2-3,0.4-4.4c0.3-4.2,0.7-8.4,1-12.6c0.3-3.8,0.6-7.6,0.9-11.4
			c0.2-2,0.1-3.8,2.1-4.9c1.3-0.7,2.8-0.6,4,0.2c1.2,0.8,1.5,2.4,2,3.7c1.2,3.2,2.3,6.4,3.5,9.5c0.9,2.4,0.8,4.6,0.8,7.1
			c0,2.8,0.1,5.6,0.1,8.4c0,3.7,0.1,7.3,0.1,11c0,1.6,0.1,2.4,1.5,3.2c12.7,7.4,25.5,14.7,38.2,22.1C98,85.3,99.2,86,100.4,86.7z"/>
	</g>
</g>
</svg>
