<?xml version="1.0" encoding="utf-8"?>
<!-- Generator: Adobe Illustrator 21.1.0, SVG Export Plug-In . SVG Version: 6.00 Build 0)  -->
<svg version="1.1" id="Layer_1" xmlns="http://www.w3.org/2000/svg" xmlns:xlink="http://www.w3.org/1999/xlink" x="0px" y="0px"
	 width="108px" height="108px" viewBox="0 0 108 108" style="enable-background:new 0 0 108 108;" xml:space="preserve">
<style type="text/css">
	.st0{fill:#FFFFFF;}
	.st1{fill:#F2F2F2;}
	.st2{fill:none;stroke:#000000;stroke-width:0.75;stroke-linecap:round;stroke-linejoin:round;stroke-miterlimit:10;}
	.st3{fill:none;stroke:#000000;stroke-width:0.5;stroke-linecap:round;stroke-linejoin:round;stroke-miterlimit:10;}
	.st4{fill:#CCCCCC;stroke:#000000;stroke-width:0.75;stroke-linecap:round;stroke-linejoin:round;stroke-miterlimit:10;}
	.st5{fill:#808080;stroke:#000000;stroke-width:0.5;stroke-linecap:round;stroke-linejoin:round;stroke-miterlimit:10;}
	.st6{fill:#E6E6E6;}
</style>
<g>
	<g>
		<path class="st0" d="M89.5,21.3c-1-1.9-3-2.6-3.8-2.2c-0.1,0-0.1,0.1-0.2,0.1L4,70.8l2.4,3.8c28.9-16.8,55.3-36,83.4-52.7
			C89.7,21.7,89.6,21.5,89.5,21.3z"/>
		<path class="st1" d="M89.8,21.9C61.7,38.5,35.3,57.7,6.4,74.5l1.8,2.8l81.4-51.8c0.1,0,0.1,0,0.2-0.1c0.1-0.1,0.2-0.1,0.3-0.2
			l0.1-0.1l0-0.1C90.5,24.5,90.4,23.2,89.8,21.9z"/>
		<path class="st2" d="M90.2,25.1c0.4-0.7,0.2-2.3-0.7-3.8c-1-1.9-3-2.6-3.8-2.2c-0.1,0-0.1,0.1-0.2,0.1L4,70.8l4.2,6.6l81.4-51.8
			c0.1,0,0.1,0,0.2-0.1c0.1-0.1,0.2-0.1,0.3-0.2L90.2,25.1L90.2,25.1z"/>
		<g>
			<path class="st3" d="M8.3,68.1c3.4-2.1,6.8,4.8,9.8,2.9"/>
			<path class="st3" d="M19.3,61.1c3.4-2.1,6.8,4.8,9.8,2.9"/>
			<path class="st3" d="M30.3,54.2c3.4-2.1,6.8,4.8,9.8,2.9"/>
			<path class="st3" d="M41.3,47.2c3.4-2.1,6.8,4.8,9.8,2.9"/>
			<path class="st3" d="M52.3,40.2c3.4-2.1,6.8,4.8,9.8,2.9"/>
			<path class="st3" d="M63.3,33.2c3.4-2.1,6.8,4.8,9.8,2.9"/>
			<path class="st3" d="M74.3,26.3c3.4-2.1,6.8,4.8,9.8,2.9"/>
		</g>
		<ellipse transform="matrix(0.8808 -0.4735 0.4735 0.8808 -34.4456 11.642)" class="st4" cx="5.9" cy="74.2" rx="1.7" ry="3.9"/>
		<ellipse transform="matrix(0.8808 -0.4735 0.4735 0.8808 -34.4456 11.642)" class="st5" cx="5.9" cy="74.2" rx="1.1" ry="2.6"/>
	</g>
	<g>
		<path class="st1" d="M103.9,32.5c-0.7-1.3-2.1-1.8-2.7-1.5c0,0-0.1,0.1-0.1,0.1L54.9,60l1.8,2.8c15.9-9.9,31.8-19.7,47.5-29.7
			C104.1,32.9,104,32.7,103.9,32.5z"/>
		<path class="st6" d="M104.2,33.1c-15.6,10-31.6,19.8-47.5,29.7l1.1,1.7L104,35.4c0,0,0.1,0,0.1,0c0.1,0,0.1-0.1,0.2-0.2l0.1-0.1
			l0,0C104.6,34.7,104.5,34,104.2,33.1z"/>
		<path class="st2" d="M104.4,35.2c0.3-0.5,0.1-1.6-0.5-2.7c-0.7-1.3-2.1-1.8-2.7-1.5c0,0-0.1,0.1-0.1,0.1L54.9,60l2.9,4.6L104,35.4
			c0,0,0.1,0,0.1,0C104.2,35.4,104.3,35.3,104.4,35.2L104.4,35.2L104.4,35.2z"/>
		<path class="st0" d="M88,42.5c-1-1.9-3-2.6-3.8-2.2c-0.1,0-0.1,0.1-0.2,0.1L17.5,82l2.7,4.3c22.5-15.1,45.4-29,68.1-43.2
			C88.2,42.9,88.1,42.7,88,42.5z"/>
		<path class="st1" d="M88.3,43.1C65.7,57.3,42.7,71.2,20.2,86.3l1.5,2.3l66.4-41.9c0.1,0,0.1,0,0.2-0.1c0.1-0.1,0.2-0.1,0.3-0.2
			l0.1-0.1l0-0.1C89,45.7,88.9,44.4,88.3,43.1z"/>
		<path class="st2" d="M88.7,46.3c0.4-0.7,0.2-2.3-0.7-3.8c-1-1.9-3-2.6-3.8-2.2c-0.1,0-0.1,0.1-0.2,0.1L17.5,82l4.2,6.6l66.4-41.9
			c0.1,0,0.1,0,0.2-0.1c0.1-0.1,0.2-0.1,0.3-0.2L88.7,46.3L88.7,46.3z"/>
		<g>
			<path class="st3" d="M88.4,38.7c2.3-1.5,4.8,3.3,6.8,2"/>
			<path class="st3" d="M96.3,34.1c2.2-1.4,4.5,3.2,6.5,1.9"/>
			<path class="st3" d="M21.8,79.4c3.4-2.1,6.8,4.8,9.8,2.9"/>
			<path class="st3" d="M32.8,72.4c3.4-2.1,6.8,4.8,9.8,2.9"/>
			<path class="st3" d="M43.8,65.4c3.4-2.1,6.8,4.8,9.8,2.9"/>
			<path class="st3" d="M54.8,58.4c3.4-2.1,6.8,4.8,9.8,2.9"/>
			<path class="st3" d="M65.8,51.5c3.4-2.1,6.8,4.8,9.8,2.9"/>
			<path class="st3" d="M77,44.8c3.2-2,6.5,4.5,9.4,2.7"/>
		</g>
		<ellipse transform="matrix(0.8808 -0.4735 0.4735 0.8808 -38.1681 19.3735)" class="st4" cx="19.4" cy="85.5" rx="1.7" ry="3.9"/>
		<ellipse transform="matrix(0.8808 -0.4735 0.4735 0.8808 -38.1682 19.3735)" class="st5" cx="19.4" cy="85.5" rx="1.1" ry="2.6"/>
	</g>
</g>
</svg>
