<?xml version="1.0" encoding="utf-8"?>
<!-- Generator: Adobe Illustrator 22.1.0, SVG Export Plug-In . SVG Version: 6.00 Build 0)  -->
<svg version="1.1" id="Layer_1" xmlns="http://www.w3.org/2000/svg" xmlns:xlink="http://www.w3.org/1999/xlink" x="0px" y="0px"
	 width="108px" height="108px" viewBox="0 0 108 108" style="enable-background:new 0 0 108 108;" xml:space="preserve">
<style type="text/css">
	.st0{fill:#CCCCCC;stroke:#000000;stroke-width:0.75;stroke-linecap:round;stroke-linejoin:round;stroke-miterlimit:10;}
	.st1{fill:#FFFFFF;}
	.st2{fill:#F2F2F2;}
	.st3{fill:#E6E6E6;}
	.st4{fill:none;stroke:#000000;stroke-width:0.75;stroke-linecap:round;stroke-linejoin:round;stroke-miterlimit:10;}
	.st5{fill:#E6E6E6;stroke:#000000;stroke-width:0.75;stroke-linecap:round;stroke-linejoin:round;stroke-miterlimit:10;}
	.st6{fill:#B3B3B3;stroke:#000000;stroke-width:0.75;stroke-linecap:round;stroke-linejoin:round;stroke-miterlimit:10;}
	.st7{fill:#FFFFFF;stroke:#000000;stroke-width:0.5;stroke-linecap:round;stroke-linejoin:round;stroke-miterlimit:10;}
</style>
<g>
	<path class="st0" d="M80.5,93.6c-1,1-40.8,6.8-40.8,6.8s-1.2,0.3-1.5-1.3l30.6-5.2c0.6,0.2,1.3-0.3,1.7-1.4c1-2.7,1.8-7,1.7-10.7
		c-0.2-3.7,2.7-2.5,2.7-4.3c0,2.2,1.2,1.2,1.7,3.5c0.5,2.3,0.2,3.8,0.7,6.3S78.5,94.4,80.5,93.6z"/>
	<path class="st1" d="M65.5,42.7c-0.7-3.7-1.2-19-1.7-25c-0.5-6,0.8-8.5,0.8-8.5l-38,16c0,0,0,0-1,1.8c-1,1.8,0,9,0,18.5
		c0,5.2,0.3,8.7,0.6,10.9c13.2-3.8,26.6-7,39.6-11.4C65.7,44,65.6,43.2,65.5,42.7z"/>
	<path class="st2" d="M69.2,73.4c0,0-2.3-20.7-3.3-28.3c-13,4.3-26.4,7.6-39.6,11.4c0.2,1.8,0.4,2.6,0.4,2.6l3.7,24.8l1.7,1.7
		l-0.4,0.6c12.7-2.8,25.6-5.1,38.3-7.9c0.3-0.6,0.6-1,0.6-1C69.4,76.6,69.2,73.4,69.2,73.4z"/>
	<path class="st3" d="M69.2,81.7c-0.3-1.2,0.2-2.6,0.7-3.5c-12.7,2.8-25.6,5.1-38.3,7.9l-0.8,1.3c0.3,6.2-2,13-2,13l9.3-1.4
		l30.6-5.2c-0.7-0.2-1.2-1.3-0.6-2.8C69.2,88.4,69.7,83.7,69.2,81.7z"/>
	<path class="st4" d="M68.2,91.1c-0.6,1.5-0.1,2.6,0.6,2.8l-30.6,5.2l-9.3,1.4c0,0,2.3-6.9,2-13l1.2-1.8l-1.7-1.7l-3.7-24.8
		c0,0-1-4-1-13.5s-1-16.7,0-18.5c1-1.8,1-1.8,1-1.8l38-16c0,0-1.3,2.5-0.8,8.5c0.5,6,1,21.3,1.7,25c0.7,3.7,3.7,30.7,3.7,30.7
		s0.2,3.2,1.3,3.8c0,0-1.8,2.5-1.3,4.5S69.2,88.4,68.2,91.1z"/>
	<path class="st5" d="M82.7,14.2l-2.5,58.3c0,0,0.2,4.2-1.5,5.3c0,0,1.2,2.8,1.2,7.5c0,4.7,1.7,7.2,0.7,8.2c-2,0.8-2.8-3.8-3.3-6.3
		s-0.2-4-0.7-6.3c-0.5-2.3-1.7-1.3-1.7-3.5c0-2.2,1.5-0.7,2.3-2.8c0.8-2.2,2.7-59,2.7-59s1.6-4.5-6.5-5.2c-8.1-0.7-6.8,3.7-7,7.8
		c-0.2,4.2,1.3,19.8,1.7,23.2c0.3,3.3,4,30.3,4.2,32.7c0.2,2.3,2.7,1.5,2.7,3.3c0,1.8-2.8,0.7-2.7,4.3c0.2,3.7-0.7,8-1.7,10.7
		c-0.4,1.2-1.1,1.6-1.7,1.4c-0.7-0.2-1.2-1.3-0.6-2.8c1-2.7,1.5-7.3,1-9.3s1.3-4.5,1.3-4.5c-1.2-0.7-1.3-3.8-1.3-3.8s-3-27-3.7-30.7
		c-0.7-3.7-1.2-19-1.7-25c-0.5-6,0.8-8.5,0.8-8.5s3-3,11-1S82.7,14.2,82.7,14.2z"/>
	<path class="st6" d="M79.9,15.6c0,0-1.8,56.8-2.7,59c-0.8,2.2-2.3,0.7-2.3,2.8c0-1.8-2.5-1-2.7-3.3C72,71.7,68.4,44.7,68,41.4
		c-0.3-3.3-1.8-19-1.7-23.2c0.2-4.2-1.1-8.5,7-7.8C81.5,11.1,79.9,15.6,79.9,15.6z"/>
	<line class="st7" x1="34" y1="85.2" x2="47.7" y2="82.1"/>
	<line class="st7" x1="53.5" y1="81.1" x2="63.8" y2="78.7"/>
</g>
</svg>
