<?xml version="1.0" encoding="utf-8"?>
<!-- Generator: Adobe Illustrator 21.1.0, SVG Export Plug-In . SVG Version: 6.00 Build 0)  -->
<svg version="1.1" id="Layer_1" xmlns="http://www.w3.org/2000/svg" xmlns:xlink="http://www.w3.org/1999/xlink" x="0px" y="0px"
	 width="108px" height="108px" viewBox="0 0 108 108" style="enable-background:new 0 0 108 108;" xml:space="preserve">
<style type="text/css">
	.st0{fill:#F2F2F2;stroke:#000000;stroke-width:0.75;stroke-linecap:round;stroke-linejoin:round;stroke-miterlimit:10;}
	.st1{fill:#E6E6E6;stroke:#000000;stroke-width:0.75;stroke-linecap:round;stroke-linejoin:round;stroke-miterlimit:10;}
	.st2{fill:#FFFFFF;stroke:#000000;stroke-width:0.75;stroke-linecap:round;stroke-linejoin:round;stroke-miterlimit:10;}
	.st3{fill:#B3B3B3;stroke:#000000;stroke-width:0.75;stroke-linecap:round;stroke-linejoin:round;stroke-miterlimit:10;}
	.st4{fill:#999999;stroke:#000000;stroke-width:0.75;stroke-linecap:round;stroke-linejoin:round;stroke-miterlimit:10;}
</style>
<g>
	<polygon class="st0" points="99.5,49.5 99.5,54.5 64.5,65.6 55.5,68.5 55.5,63.5 	"/>
	<polygon class="st1" points="55.5,63.5 55.5,68.5 20.5,59.5 20.5,104.5 16.5,103.5 16.3,71.5 16.3,71.5 16.3,58.5 12.5,57.5 
		12.5,72.5 8.5,71.5 8.5,17.5 12.5,18.5 12.5,53.5 21.5,55.5 21.5,20.5 25.5,21.5 25.5,56.5 	"/>
	<polygon class="st0" points="69.5,7.5 69.5,42.5 25.5,56.5 25.5,21.5 	"/>
	<polygon class="st2" points="56.5,4.5 12.5,18.5 8.5,17.5 52.5,3.5 	"/>
	<polygon class="st2" points="99.5,49.5 55.5,63.5 25.5,56.5 69.5,42.5 	"/>
	<polygon class="st2" points="69.5,7.5 25.5,21.5 21.5,20.5 56.5,9.4 65.5,6.5 	"/>
	<polygon class="st3" points="56.5,4.5 56.5,9.4 21.5,20.5 21.5,55.5 12.5,53.5 12.5,18.5 	"/>
	<polygon class="st4" points="16.3,71.5 16.3,71.5 12.5,72.5 12.5,57.5 16.3,58.5 	"/>
	<polygon class="st3" points="64.5,65.6 64.5,90.5 20.5,104.5 20.5,59.5 55.5,68.5 	"/>
</g>
</svg>
