<?xml version="1.0" encoding="utf-8"?>
<!-- Generator: Adobe Illustrator 21.1.0, SVG Export Plug-In . SVG Version: 6.00 Build 0)  -->
<svg version="1.1" id="Layer_1" xmlns="http://www.w3.org/2000/svg" xmlns:xlink="http://www.w3.org/1999/xlink" x="0px" y="0px"
	 width="108px" height="108px" viewBox="0 0 108 108" style="enable-background:new 0 0 108 108;" xml:space="preserve">
<style type="text/css">
	.st0{fill:#FFFFFF;stroke:#000000;stroke-width:0.75;stroke-linecap:round;stroke-linejoin:round;stroke-miterlimit:10;}
	.st1{fill:#E6E6E6;stroke:#000000;stroke-width:0.75;stroke-linecap:round;stroke-linejoin:round;stroke-miterlimit:10;}
	.st2{fill:#CCCCCC;}
	.st3{fill:#F2F2F2;stroke:#000000;stroke-width:0.5;stroke-linecap:round;stroke-linejoin:round;stroke-miterlimit:10;}
	.st4{fill:none;stroke:#000000;stroke-width:0.75;stroke-linecap:round;stroke-linejoin:round;stroke-miterlimit:10;}
	.st5{fill:#B3B3B3;stroke:#000000;stroke-width:0.5;stroke-linecap:round;stroke-linejoin:round;stroke-miterlimit:10;}
	.st6{fill:#CCCCCC;stroke:#000000;stroke-width:0.5;stroke-linecap:round;stroke-linejoin:round;stroke-miterlimit:10;}
	.st7{fill:#CCCCCC;stroke:#000000;stroke-width:0.75;stroke-linecap:round;stroke-linejoin:round;stroke-miterlimit:10;}
	.st8{fill:#999999;stroke:#000000;stroke-width:0.5;stroke-linecap:round;stroke-linejoin:round;stroke-miterlimit:10;}
	.st9{fill:#E6E6E6;stroke:#000000;stroke-width:0.5;stroke-linecap:round;stroke-linejoin:round;stroke-miterlimit:10;}
	.st10{fill:#F2F2F2;stroke:#000000;stroke-width:0.75;stroke-linecap:round;stroke-linejoin:round;stroke-miterlimit:10;}
	.st11{fill:none;stroke:#000000;stroke-width:0.75;stroke-linecap:round;stroke-linejoin:round;}
</style>
<g>
	<g>
		<path class="st0" d="M5.5,11c0,8.1,0,16.1,0,24.2c0,12.9,0,25.8,0,38.7c0,3,0,5.9,0,8.9c-0.5-0.4-1.8-1-2-1.6
			c-0.1-0.2,0-0.6,0-0.8c0-1.5,0-3,0-4.4c0-5.5,0-11.1,0-16.6c0-13.4,0-26.7,0-40.1c0-3.1,0-6.3,0-9.4C4.1,10.3,4.8,10.7,5.5,11z"/>
		<path class="st0" d="M29.1,4.5c-7.4,2-14.9,4.1-22.3,6.1c-0.3,0.1-0.9,0.4-1.3,0.4c-0.6-0.1-1.5-0.8-2-1.1C11,7.8,18.5,5.7,26,3.6
			c0.4-0.1,1.1-0.5,1.5-0.4C28,3.2,28.7,4.1,29.1,4.5z"/>
		<path class="st1" d="M29.1,6.5c0-0.4,0.2-1.4,0-1.7c0,0,0-0.2,0-0.2c-6.9,1.9-13.7,3.8-20.6,5.7c-1,0.3-2,0.5-3,0.8v71.8
			c6.8-1.8,13.6-3.7,20.5-5.5c0.7-0.2,2.6-0.3,3-0.8c0.2-0.2,0.1-0.3,0.1-0.6c0.1-1.9,0-3.9,0-5.8V6.5z M28,34.1
			c0,12.1,0,24.2,0,36.3v0.8c-1.4,4.8-6.8,6.4-11.1,5c-2-0.6-3.7-1.8-5-3.5c-0.9-1.1-1-1.6-1-2.9V17c0-0.3-0.1-1,0-1.2
			c0.2-0.3,1-0.4,1-0.4c0.6,0.8,1.1,1.5,1.7,2.3c0.5,0.6,1.2,2.2,1.9,2.5c0.6,0.3,1.4-0.1,2.1,0.4c0.8,0.6,1.6,1.7,1.8,2.7
			c0.3,3.4,0,6.9,0,10.3v36.7c0,0.1-0.1,0.6,0,0.7c0.3,0.4,1.3,0.3,1.7,0.1c1-0.4,1.1-1,1.1-1.9v-4.2c0-10.9,0-21.8,0-32.7
			c0-3.6,0-7.3,0-10.9c0-0.8,0.2-1.5,0.3-2.4c0.3-2.1,0-4.4,0-6.5c0,0,0.5-0.3,0.8-0.2c0.3,0.1,0.7,0.9,0.9,1.2
			c0.6,0.7,1.1,1.5,1.7,2.2c0.9,1.2,2,2,2,3.5C28,24.3,28,29.2,28,34.1z"/>
		<path class="st2" d="M22.6,12.6c0,2.1,0.2,4.4,0,6.5c-0.1,0.8-0.3,1.5-0.3,2.4c0,3.6,0,7.3,0,10.9c0,10.9,0,21.8,0,32.7
			c0,1.4,0,2.8,0,4.2c0,0.9-0.1,1.5-1.1,1.9c-0.4,0.2-1.4,0.3-1.7-0.1c-0.1-0.1,0-0.6,0-0.7c0-1.4,0-2.8,0-4.2c0-10.8,0-21.7,0-32.5
			c0-3.4,0.3-6.9,0-10.3c-0.1-1-0.9-2.1-1.7-2.7c-0.7-0.5-1.4-0.1-2.1-0.4c-0.7-0.4-1.4-1.9-1.9-2.5c-0.6-0.8-1.1-1.5-1.7-2.3"/>
		<path class="st3" d="M28,18.5c-1.7,0.5-4,0.2-4.5,2.5c-0.1,0.7,0,1.5,0,2.2c0,4.5,0,8.9,0,13.4c0,10.7,0,21.4-0.1,32.1
			c0,0.8,0.2,2.1,0,2.8c-0.3,0.8-1.4,1.3-2.1,1.4c-0.5,0.1-1.1,0-1.5-0.2c-0.6-0.4-0.4-0.7-0.4-1.5c1,0.5,2.5,0.2,2.8-1
			c0.2-0.8,0-2,0-2.8c0-4.5,0-9.1,0-13.6c0-10.2,0-20.3,0-30.5c0-0.8-0.1-1.7,0-2.5c0.2-2.1,1.9-3.6,4-3.4c-1.2-1.6-2.4-3.1-3.6-4.7
			c0.8-0.2,0.6-0.2,1.1,0.2c0.6,0.5,1.1,1.4,1.6,2.1C26.1,16.1,27.1,17.3,28,18.5z"/>
		<path class="st1" d="M28,18.5c0,7.2,0,14.4,0,21.6c0,9.6,0,19.3,0,28.9c0,0.7,0.1,1.5,0,2.1c-0.2,1.6-1.5,3.2-2.8,4
			c-1.5,1-3.3,1.5-5.1,1.3c-1.2-0.2-3.6-0.9-4.2-2.1c-0.2-0.6,0-1.7,0-2.3c0-1.7,0-3.5,0-5.2c0-5.2-0.1-10.4-0.1-15.5
			c-0.1-9.2-0.1-18.5-0.2-27.7c0-0.9-0.2-1.3,0.7-1.6c1.1-0.4,2.8,0,3.1,1.2c0.2,0.8,0,1.8,0,2.6c0,1.8,0,3.7,0,5.5
			c0,10.8,0,21.5,0,32.3c0,1.9,0,3.9,0,5.8c0,0.8-0.3,2.2,0,3c0.4,1.1,2.5,0.7,3.3,0.1c0.8-0.6,0.8-1.1,0.8-2c0-9.2,0-18.5,0-27.7
			c0-5.1,0-10.1,0-15.2c0-1.6,0-3.2,0-4.8c0-0.6-0.1-1.3,0.1-1.9C24.3,18.6,26.3,18.9,28,18.5z"/>
		<path class="st0" d="M20.5,76.5c-0.5,0.4-2,0.1-2.7-0.1c-0.9-0.2-1.9-0.5-2.7-0.9c-1.6-0.8-3.1-2.2-4-3.8
			c-0.4-0.8-0.3-1.5-0.3-2.4c0-1.9,0-3.8,0-5.7c0-12.5,0-24.9,0-37.4c0-3.4,0-6.9,0-10.3c1.4,1.9,2.8,3.8,4.2,5.7
			c0.5,0.7,0.5,1,0.5,1.9c0,4.2,0,8.3,0.1,12.5c0.1,11.4,0.1,22.8,0.2,34.2c0,1.1-0.3,2.8,0,3.9C16.3,75.6,19.2,76.4,20.5,76.5z"/>
		<path class="st4" d="M22.6,12.6L22.6,12.6 M22.6,12.6L22.6,12.6 M11.9,15.5L11.9,15.5"/>
		<path class="st3" d="M19.4,23c-0.7-1.4-2.6-1.7-3.8-0.7c-1.2-1.6-2.3-3.2-3.5-4.8c-0.2-0.2-1.3-1.4-1.2-1.7c0-0.1,0.9-0.4,1-0.3
			c0.2,0.1,0.4,0.5,0.5,0.6c0.7,1,1.5,2,2.2,2.9c0.2,0.3,0.5,0.9,0.8,1.1c0.3,0.2,0.2,0.1,0.6,0.2c0.9,0.1,1.3,0.1,2,0.8
			C18.5,21.6,19,22.3,19.4,23z"/>
		<path class="st5" d="M26.2,17.3c-1.5-0.1-3,0.7-3.7,2.1c0-2.3,0-4.5,0-6.8C23.8,14.2,25,15.8,26.2,17.3z"/>
	</g>
	<g>
		<path class="st6" d="M64,22.8c0,0.6,0,1.2,0,1.7c-1.7-1.1-3.3-2.2-5-3.2C60.8,20.8,63.2,20.9,64,22.8z"/>
		<path class="st7" d="M57.4,22.6c0,6,0,12,0,18.1c0,9.6,0,19.2,0,28.8c0,2.2,0,4.4,0,6.6c-0.8-0.1-2.9-0.5-3.3-1.3
			c-0.3-0.6,0-2,0-2.7c0-4.5,0-9.1,0-13.6c0-10.3,0-20.6,0-30.9c0-0.8-0.1-1.7,0-2.5c0.1-0.8,0.5-1.5,1.1-2.1
			C55.9,22.3,56.6,22.1,57.4,22.6z"/>
		<path class="st8" d="M53,21.7c-0.1,0-0.9,1.2-1.1,1.9c0-1-0.1-1.9-0.1-2.9c1.2-0.3,1.4-0.6,2.2,0.3C53.8,21.1,53.2,21.7,53,21.7z"
			/>
		<path class="st9" d="M57,17.9c0,0.5,0.1,1.1,0,1.6c-0.1,0.7,0,0.5-0.6,0.7c-0.6,0.2-1.2,0.4-1.9,0.5c-0.7,0.1-0.4,0-1-0.4
			c-0.4-0.2-0.9-0.1-1.3,0.1c-0.5,0.3-0.4,0.3-0.4,1c0,0.8,0,1.6,0,2.4c-0.2,3,0,6,0,9c0,11.2,0,22.4,0,33.6c0,0.9,0.4,2.7,0,3.6
			c-0.4,1-2.8,0.8-3.7,0.6c-1.4-0.3-1.2-0.6-1.2-1.8c0-1.7,0-3.4,0-5c0-11.5,0-22.9,0-34.4c0-2.1,0-4.2,0-6.4c0-1-0.1-2,0-3
			c0.2-1.8,1.8-2.6,3.4-3.1c1.5-0.4,3.6-1,5.2-0.7C56.2,16.6,56.8,17.1,57,17.9z"/>
		<path class="st0" d="M56.3,16.8c-1.3-0.9-3.6-0.2-5,0.1c-1.8,0.4-3.9,0.9-4.4,3c-0.1,0.7,0,1.4,0,2.1c0,1.8,0,3.5,0,5.3
			c0,11.2,0,22.5,0,33.7c0,3.1,0,6.2,0,9.3c-3.1-1.6-2.5-4.3-2.5-7.2c0-5.8,0-11.7,0-17.5c0-6.3,0-12.6,0-18.9c0-2,0-4,0-5.9
			c0-1.1-0.1-2.2,0.4-3.1c1-1.9,3.8-2.4,5.8-2.7C52.8,14.6,54.8,15,56.3,16.8z"/>
		<path class="st0" d="M104.6,50.8c-0.5,2.7-3.2,0.6-4.4-0.2c-3.2-2.1-6.4-4.2-9.6-6.3c-8.7-5.7-17.5-11.5-26.2-17.2
			c-2.2-1.5-4.5-2.9-6.7-4.4c-0.2-0.1-0.5-0.4-0.7-0.5c-0.6-0.2-1.3,0.3-1.7,0.7c-0.7,0.6-1,1.5-1.1,2.4c-0.3,8.1,0,16.2,0,24.3
			c0,5.2,0,10.4,0,15.6c0,1.9,0,3.9,0,5.8c0,1,0.2,2.3,0,3.3c0,0.1,0,0.3,0,0.5c-1-0.6-2.2-1.5-2.3-2.8c-0.1-1.5,0-3.1,0-4.7
			c0-5.9,0-11.9,0-17.8c0-6.3,0-12.6,0-18.8c0-1.8,0-3.7,0-5.5c0-1,0-1.8,0.5-2.6c1.1-1.9,3.4-2,5.3-2.6c2.2-0.6,4.3-0.1,5.6,1.8
			c-1.2-0.9-2.9-0.9-4.2-0.5c4.8,3.1,9.6,6.2,14.4,9.3c8.3,5.4,16.6,10.7,24.9,16.1C100.4,48.1,102.5,49.4,104.6,50.8z"/>
		<path class="st1" d="M104.6,50.8c0,6.5,0,13,0,19.5c0,9.8,0,19.7,0,29.5c0,1.3,0,2.6,0,3.9c0,0.6,0.1,1.1-0.3,1.5
			c-0.5,0.6-2.1,1-2.4,0.2c-0.3-0.6,0-1.9,0-2.6c0-9.3,0-18.5,0-27.8c0-4.9,0-9.8,0-14.7c0-1.8,0-3.5,0-5.3c0-0.9-0.2-2.1,0-3
			c0-0.1,0-0.3,0-0.4C102.8,52.6,104.3,52,104.6,50.8z"/>
		<path class="st10" d="M57.4,22.6c0,6,0,12,0,18.1c0,9.6,0,19.2,0,28.8c0,1.5,0,2.9,0,4.4c0,0.5-0.2,1.6,0,2.1
			c0.1,0.2,0.4,0.4,0.7,0.5c0.9,0.6,1.8,1.2,2.8,1.8c7.6,5.1,15.2,10.2,22.8,15.2c3.8,2.6,7.7,5.1,11.5,7.7c1.4,0.9,2.7,1.8,4.1,2.7
			c0.7,0.4,1.5,1.3,2.3,1.5c0.1,0,0.2,0.1,0.3,0.2c0-6,0-12,0-17.9c0-9.7,0-19.3,0-29c0-1.5,0-3,0-4.5c0-0.6,0.2-1.7,0-2.3
			c-0.3-0.9-2.4-1.7-3.2-2.2c-7.6-5-15.3-10-22.9-15c-6-3.9-12.1-7.9-18.1-11.8C57.6,22.7,57.5,22.7,57.4,22.6z M72.9,73.7
			c-0.2,2-2.2,1.6-3.5,0.8c-1.4-0.9-2.5-2.4-3.1-3.9c-0.5-1.1-1-3.4,0.6-3.9c1.4-0.5,3.1,1,3.9,2C72.1,70.1,73.1,71.9,72.9,73.7z
			 M94.5,59.7c-0.3,1.9-2.2,1.6-3.5,0.8c-1.4-0.9-2.4-2.4-3.1-3.9c-0.5-1.1-1-3.3,0.6-3.9c1.4-0.5,3.1,1,3.9,2
			C93.6,56.1,94.6,57.9,94.5,59.7z"/>
		<path class="st8" d="M94.5,59.7c-0.3,2-2.2,1.7-3.4,0.8c-1.4-0.9-2.5-2.4-3.1-3.9c-0.5-1.1-1-3.3,0.6-3.9c0.2-0.1,0.4-0.1,0.5-0.1
			c1,2.5,2.8,5.6,5.4,6.2C94.5,59.1,94.5,59.4,94.5,59.7z"/>
		<path class="st8" d="M73,73.1c0,0.2,0,0.4,0,0.6c-0.2,2-2.2,1.6-3.5,0.8c-1.4-0.9-2.5-2.4-3.1-3.9c-0.5-1.1-1-3.3,0.6-3.9
			c0.2-0.1,0.5-0.1,0.7-0.1C68.6,69.1,70.4,72.3,73,73.1z"/>
	</g>
	<g>
		<g>
			<path class="st11" d="M33.2,7.7c2.9-4.3,7.1-6.6,10.8-5.4c3.2,1.1,5.1,4.6,5.3,9"/>
			<g>
				<path d="M31.7,10.5c1.2-1,3-2.1,4.4-2.6l-2.6-0.5l-1.7-2C32.1,6.9,32,9,31.7,10.5z"/>
			</g>
		</g>
	</g>
</g>
</svg>
