<?xml version="1.0" encoding="utf-8"?>
<!-- Generator: Adobe Illustrator 21.1.0, SVG Export Plug-In . SVG Version: 6.00 Build 0)  -->
<svg version="1.1" id="Layer_1" xmlns="http://www.w3.org/2000/svg" xmlns:xlink="http://www.w3.org/1999/xlink" x="0px" y="0px"
	 width="108px" height="108px" viewBox="0 0 108 108" style="enable-background:new 0 0 108 108;" xml:space="preserve">
<style type="text/css">
	.st0{fill:#FFFFFF;stroke:#000000;stroke-width:0.75;stroke-linecap:round;stroke-linejoin:round;stroke-miterlimit:10;}
	.st1{fill:#CCCCCC;stroke:#000000;stroke-width:0.75;stroke-linecap:round;stroke-linejoin:round;stroke-miterlimit:10;}
	.st2{fill:#F2F2F2;stroke:#000000;stroke-width:0.75;stroke-linecap:round;stroke-linejoin:round;stroke-miterlimit:10;}
	.st3{fill:#B3B3B3;stroke:#000000;stroke-width:0.5;stroke-linecap:round;stroke-linejoin:round;stroke-miterlimit:10;}
	.st4{fill:#E6E6E6;stroke:#000000;stroke-width:0.5;stroke-linecap:round;stroke-linejoin:round;stroke-miterlimit:10;}
	.st5{fill:#F2F2F2;stroke:#000000;stroke-width:0.5;stroke-linecap:round;stroke-linejoin:round;stroke-miterlimit:10;}
	.st6{fill:#CCCCCC;stroke:#000000;stroke-width:0.5;stroke-linecap:round;stroke-linejoin:round;stroke-miterlimit:10;}
	.st7{fill:#E6E6E6;stroke:#000000;stroke-width:0.75;stroke-linecap:round;stroke-linejoin:round;stroke-miterlimit:10;}
</style>
<g>
	<path class="st0" d="M33.5,71.5L33.5,71.5 M76.1,79.8L76.1,79.8 M89.8,84.1L89.8,84.1"/>
	<path class="st1" d="M89.8,67.4c0,5.1,0,10.1,0,15.2c0,0.4,0.2,1.3-0.1,1.5c-0.4,0.4-2.2,0.2-2.7,0.1c-2.3-0.6-4.6-1.9-6.8-2.8
		c-0.8-0.3-1.6-0.6-2.3-1c-0.4-0.2-1.2-0.3-1.5-0.6c-0.6-0.5,0-1.5,0.7-1.8c-1.8-1.2-3.5-2.5-5.3-3.7c-0.9-0.6-0.9-0.7-1.5,0.3
		c-0.4,0.7-0.7,1.5-0.7,2.4c-2.8-1.1-5.6-2.2-8.3-3.4c-1.2-0.5-3.1-0.9-4.1-1.7c-0.4-0.3-0.4,0-0.4-0.6c0-0.6,0.5-1.1,1-1.3
		c-1.8-1.2-3.6-2.5-5.4-3.7c-0.8-0.6-0.9-0.5-1.4,0.5c-0.4,0.7-0.6,1.6-0.7,2.4c-2.9-1.2-5.8-2.3-8.6-3.5c-2.1-0.8-4.1-1.7-6.2-2.5
		c-0.3-0.1-0.9-0.2-1-0.5c-0.3-0.5,0-1.8,0-2.4c0-2.1,0-4.2,0-6.3c7.1,2.7,14.2,5.4,21.3,8.1c5.1,1.9,10.1,3.9,15.2,5.8
		c1.8,0.7,3.7,1.4,5.5,2.1c0.9,0.3,1.9,1,2.9,1.1c1.2,0.1,2.9-1,4-1.4C85.4,69.1,87.6,68.3,89.8,67.4z"/>
	<path class="st2" d="M104,61.1c0,1.1-0.3,0.9-1.2,1.3c-1.4,0.5-2.8,1.1-4.2,1.6c-0.9,0.4-2.7,0.7-3.4,1.3c-0.4,0.3-0.3,0.4-0.3,1
		c0,2.8,0,5.6,0,8.3c0,1.4,0,2.8,0,4.1c0,0.5,0.2,1.4,0,1.8c-0.6,1.8-3.4,3-5.1,3.4c0-5.6,0-11.1,0-16.7c-3.5,1.3-6.9,2.7-10.4,4
		c0.4-1.6,0.3-3.1-0.4-4.6c7-2.9,14.1-5.8,21.1-8.7c1-0.4,2-0.8,3-1.2C103.7,58.2,104,59.6,104,61.1z"/>
	<path class="st0" d="M103.2,56.8c-6.7,2.8-13.5,5.6-20.2,8.4c-1.1,0.4-2.9,1.6-4.1,1.6c-1.3-0.1-3.1-1.1-4.3-1.6
		c-6.7-2.5-13.4-4.9-20.1-7.4c-11.3-4.2-22.6-8.4-33.9-12.5c1.3-0.4,2.7-0.9,4-1.3c5.3-1.8,10.6-3.5,15.9-5.3
		c1.8-0.6,3.5-1.2,5.3-1.8c1.3-0.4,2.6,0.5,3.8,0.9c2.2,0.8,4.4,1.6,6.6,2.4c9.6,3.4,19.3,6.9,28.9,10.3
		C91.2,52.6,97.2,54.7,103.2,56.8z"/>
	<g>
		<path class="st3" d="M77,78.1c-0.9,0.4-1.3,1.5-0.7,2.4c-0.8,0-1.6,0-2.4,0c-0.8,0-2.4,0.3-3.1,0c-1.2-0.5-1.3-3-1.1-4.1
			c0.1-0.7,0.4-1.7,1-2.2c0.6-0.6,0.8-0.1,1.5,0.4C73.7,75.8,75.4,77,77,78.1z"/>
		<path class="st3" d="M57.7,70.2c-0.9,0.4-1.2,1.5-0.7,2.4c-0.8,0-1.6,0-2.4,0c-0.8,0-2.4,0.3-3.1,0c-1.2-0.5-1.3-3.1-1.1-4.2
			c0.1-0.7,0.4-1.6,0.9-2.1c0.6-0.6,0.8-0.1,1.5,0.4C54.4,67.9,56,69.1,57.7,70.2z"/>
		<path class="st4" d="M74.4,57.6c-1.9-0.7-3.8-1.4-5.6-2c-0.9-0.3-0.9-0.2-0.9-1.1c0-0.7-0.3-2.1,0.1-2.7c0.9-1.4,2.1,0.3,2.6,1
			C71.9,54.4,73.1,56,74.4,57.6z"/>
		<path class="st5" d="M77.2,55.9c-0.4,0.8-1.2,1.3-2.1,1.6c-1,0.2-1.4-0.7-2-1.5c-0.9-1.2-1.8-2.4-2.8-3.6
			c-0.4-0.5-0.7-1.2-1.5-1.2c1.3-0.9,3.5-1.4,4.8-0.2c0.7,0.6,1.2,1.7,1.7,2.5C76,54.3,76.6,55.1,77.2,55.9z"/>
		<path class="st4" d="M49.3,48.2c-1.9-0.7-3.8-1.4-5.7-2.1c-0.9-0.3-0.9-0.2-0.9-1.1c0-0.7-0.3-2.1,0.1-2.7c0.9-1.3,2.1,0.3,2.6,1
			C46.8,45,48.1,46.6,49.3,48.2z"/>
		<path class="st5" d="M52.1,46.6c-0.4,0.8-1.2,1.4-2.1,1.6c-1,0.2-1.3-0.7-1.9-1.5c-0.9-1.2-1.8-2.4-2.8-3.6
			c-0.4-0.5-0.7-1.2-1.5-1.2c1.2-1,3.5-1.4,4.8-0.3c0.7,0.6,1.2,1.7,1.7,2.5C50.9,44.9,51.5,45.7,52.1,46.6z"/>
	</g>
	<path class="st6" d="M20.1,62.1C14.7,64,9.4,66,4,67.9c1.2-1.6,2.4-3.2,3.6-4.8C8,62.6,8.4,61.7,9,61.2c0.4-0.3,1.2-0.5,1.7-0.6
		c1.2-0.4,2.4-0.9,3.6-1.3c0.4-0.2,1.7-0.9,2.2-0.8c0.5,0.1,1.3,1.2,1.6,1.6C18.7,60.7,19.4,61.4,20.1,62.1z"/>
	<path class="st3" d="M16.5,58.5c-2.4,1-5,1.8-7.4,2.7c-0.3-7.1-0.6-14.2-0.9-21.4c0-0.5-0.2-1.2-0.1-1.6c0.1-0.5-0.2-0.3,0.5-0.5
		c0.9-0.2,2.8,0.2,3.2,1.1c0.2,0.4,0.1,1.2,0.1,1.6c0.1,1.1,0.1,2.1,0.2,3.2c0.1,2.2,0.2,4.5,0.4,6.7c0.1,1,0.1,2.1,0.2,3.1
		c0,0.3-0.1,0.8,0.1,1.1c0.3,0.6,1.4,1.4,1.8,1.8C15.1,57.1,15.8,57.8,16.5,58.5z"/>
	<path class="st7" d="M33.5,71.5c-1.4-0.3-3-0.4-4.4-0.8c-0.8-0.2-1.1-0.7-1.7-1.3c-2.4-2.4-4.7-4.7-7.1-7.1
		c-1.4-1.4-2.9-2.9-4.3-4.3c-0.6-0.6-1.3-1.3-1.9-1.9c-0.4-0.4-1.3-1-1.5-1.5c-0.2-0.5-0.1-1.4-0.2-1.9c-0.2-3.6-0.4-7.2-0.6-10.7
		c0-0.9,0.2-2.5-0.2-3.3c-0.3-0.7-1.8-1-2.5-1c-1.1,0-1.2,0-1.2,0.9c0.1,1.2,0.1,2.4,0.2,3.5c0.2,3.7,0.3,7.5,0.5,11.2
		c0.1,1.8,0.2,3.6,0.2,5.3c0,0.7,0.3,1.8,0.1,2.5c-0.3,1.1-1.7,2.3-2.3,3.2c-0.9,1.2-1.8,2.4-2.7,3.6c0.5-2.8,1.3-5.6,1.5-8.4
		c0.2-2.4-0.2-4.9-0.2-7.3C5.1,48.1,5,43.9,4.9,39.8c0-1.3-0.1-2.5-0.1-3.8c0-0.8-0.2-1.7,0.4-2.3C6,32.8,7,33.2,7.9,33.4
		c1.9,0.5,3.8,1,5.7,1.5c1,0.3,1.3,0.1,1.4,1c0.2,1.5,0.1,3.1,0.2,4.6c0.2,3.9,0.3,7.8,0.5,11.7c0,0.5-0.1,1.2,0.2,1.6
		c0.4,0.7,1.5,1.5,2.1,2.1C23.1,61.1,28.3,66.3,33.5,71.5z"/>
	<path class="st0" d="M47.6,25c-5.4,1.7-10.8,3.4-16.1,5.1c-3.7,1.2-7.4,2.4-11.2,3.5c-1.3,0.4-2.5,0.8-3.8,1.2
		c-0.4,0.1-1,0.4-1.4,0.5c-0.4,0-1-0.3-1.4-0.4c-1.1-0.3-2.2-0.6-3.3-0.9c-1.2-0.3-3-1.2-4.2-1c5.3-1.5,10.6-3,15.9-4.5
		c3.8-1.1,7.5-2.1,11.3-3.2c2-0.6,4.2-1.6,6.2-1.8c0.9-0.1,2,0.3,2.9,0.4C44.2,24.4,45.9,24.7,47.6,25z"/>
	<path class="st7" d="M79.7,69.4c0,0.7-0.1,1.3-0.3,2C71,68.2,62.5,65,54.1,61.7c-7.4-2.8-14.7-5.7-22.1-8.5
		c-3.1-1.2-6.2-2.4-9.3-3.6c-0.4-0.2-1.7-0.4-2-0.8c-0.2-0.3,0-1.5,0-1.8c0-0.6,0-1.2,0-1.9c7,2.8,14.1,5.2,21.2,7.9
		C52.5,57,63.2,61,74,65c1.4,0.5,2.9,1.1,4.3,1.6C79.5,67,79.6,68.2,79.7,69.4z"/>
	<path class="st2" d="M49.7,26.2c0,3.9,0,7.7,0,11.6c-1.3-0.4-2.5-1.3-3.9-0.9c-1.9,0.6-3.7,1.2-5.5,1.8c-5.3,1.8-10.7,3.5-16,5.3
		c-1.2,0.4-2.5,1.1-3.7,1.2c0,1-0.3,2.5,0.1,3.4c0.2,0.5,0.4,0.5,1,0.7c2.6,1,5.1,2,7.7,3c1.2,0.5,2.4,0.9,3.6,1.4
		c0.3,0.1,1.2,0.3,1.4,0.6c0.3,0.4,0,2.1,0,2.6c0,1.5,0,2.9,0,4.4c0,0.5-0.2,1.4,0.1,1.8c0.5,0.6,2.4,1,3.2,1.3
		c1.2,0.5,2.6,0.9,3.8,1.5c0.2,0.1,0.5,0.1,0.6,0.3c0.1,0.3-0.5,1.2-0.7,1.4c-1.4,2.4-5.9,5.9-8.4,3.3c-3.7-3.7-7.5-7.5-11.2-11.2
		c-1.7-1.7-3.3-3.3-5-5c-0.8-0.8-0.9-0.9-1-2c-0.2-5.3-0.4-10.6-0.6-15.9c0-1.1-0.3-1.3,0.7-1.7c1.7-0.5,3.5-1.1,5.2-1.6
		c5.7-1.8,11.3-3.6,17-5.4c2.3-0.7,4.6-1.5,6.9-2.2c0.9-0.3,1.9-0.8,2.8-0.9C48.5,24.9,49.3,25.4,49.7,26.2z"/>
</g>
</svg>
