<?xml version="1.0" encoding="utf-8"?>
<!-- Generator: Adobe Illustrator 21.1.0, SVG Export Plug-In . SVG Version: 6.00 Build 0)  -->
<svg version="1.1" id="Layer_1" xmlns="http://www.w3.org/2000/svg" xmlns:xlink="http://www.w3.org/1999/xlink" x="0px" y="0px"
	 width="108px" height="108px" viewBox="0 0 108 108" style="enable-background:new 0 0 108 108;" xml:space="preserve">
<style type="text/css">
	.st0{fill:none;stroke:#000000;stroke-width:0.75;stroke-linecap:round;stroke-linejoin:round;stroke-miterlimit:10;}
	.st1{fill:#B3B3B3;stroke:#000000;stroke-width:0.5;stroke-linecap:round;stroke-linejoin:round;stroke-miterlimit:10;}
	.st2{fill:#CCCCCC;stroke:#000000;stroke-width:0.5;stroke-linecap:round;stroke-linejoin:round;stroke-miterlimit:10;}
	.st3{fill:#E6E6E6;stroke:#000000;stroke-width:0.75;stroke-linecap:round;stroke-linejoin:round;stroke-miterlimit:10;}
	.st4{fill:#F2F2F2;stroke:#000000;stroke-width:0.75;stroke-linecap:round;stroke-linejoin:round;stroke-miterlimit:10;}
	.st5{fill:#B3B3B3;stroke:#000000;stroke-width:0.75;stroke-linecap:round;stroke-linejoin:round;stroke-miterlimit:10;}
	.st6{fill:#CCCCCC;stroke:#000000;stroke-width:0.75;stroke-linecap:round;stroke-linejoin:round;stroke-miterlimit:10;}
	.st7{fill:#E6E6E6;stroke:#000000;stroke-width:0.5;stroke-linecap:round;stroke-linejoin:round;stroke-miterlimit:10;}
	.st8{fill:#FFFFFF;stroke:#000000;stroke-width:0.75;stroke-linecap:round;stroke-linejoin:round;stroke-miterlimit:10;}
</style>
<g>
	<path class="st0" d="M10.8,49.7C10.8,49.7,10.8,49.7,10.8,49.7 M15.8,78.1l-0.5,0.2 M51.7,24.9c-0.1-0.3-0.3-0.6-0.5-0.9
		 M92.7,78.3C92.7,78.3,92.7,78.3,92.7,78.3 M95.4,69.8L95.4,69.8 M56.6,24.4c0,0.1-0.1,0.1-0.1,0.2 M56.4,24.7
		c0,0.1-0.1,0.1-0.1,0.2 M51.7,53.8L51.7,53.8"/>
	<path class="st1" d="M85.1,75.2v4.6l-3.5-6C82.8,74.2,83.9,74.7,85.1,75.2z"/>
	<path class="st2" d="M98.4,76.7v6.1c-0.5,2.5-3.3,3.9-5.7,2.9c1.9,0.3,3.6-1.1,3.7-3v-5.3L98.4,76.7z"/>
	<path class="st1" d="M96.5,77.4v5.3c-0.1,1.9-1.8,3.3-3.7,3L64.4,74.4c-0.8-0.4-1.2-1.3-1-2.2v-5.9c0,0,0.1,0,0.1,0
		c5,2.1,9.9,4.1,14.9,6.2c1,1.7,2,3.4,3,5.1c0.3,0.5,0.5,0.9,1,1.2c0.8,0.5,1.9,0.7,2.8,1v-4.6c2.5,1,5,2.1,7.6,3.1l0,0
		c0.4,0.1,0.8,0.2,1.1,0.1L96.5,77.4z"/>
	<path class="st3" d="M106.2,39.7v32.3c0,1.1-0.7,2.1-1.7,2.6l-6.1,2.2l-1.9,0.7l-2.7,1c-0.4,0.1-0.8,0.1-1.1-0.1
		c-0.4-0.1-0.7-0.4-0.9-0.7c-0.2-0.7-0.1-1.3,0.1-2l6-22.2c0.3-1.3,0.1-2.6-0.6-3.7c1.9,1.3,2.6,3.5,2.2,5.7
		c-0.2,0.9-0.5,1.7-0.7,2.6c-1.1,3.9-2.2,7.9-3.3,11.8c-0.6,2.2-1.2,4.3-1.8,6.5c3.2-1.3,6.3-2.5,9.5-3.8c0.5-0.2,0.6-0.2,0.7-0.3
		c0-0.1,0.1-0.2,0.1-0.5c0.1-0.9,0-1.9,0-2.9c0-3.6,0-7.2,0.1-10.7c0-5.7,0.1-11.4,0.1-17.1c0.2-1.2-0.3-2.4-1.4-2.9L58.9,23.2
		c-1-0.1-1.9,0.4-2.3,1.2c1-1.9,3.2-2.8,5.3-2.3l42.1,14.3C105.2,37,106.2,38.2,106.2,39.7z"/>
	<path class="st2" d="M85.1,79.8c-0.9-0.3-2-0.5-2.8-1c-0.5-0.3-0.6-0.7-1-1.2c-1-1.7-2-3.4-3-5.1c0.6,0.2,1.2,0.5,1.8,0.7
		c0.5,0.2,0.9,0.4,1.4,0.6L85.1,79.8z"/>
	<path class="st4" d="M91.9,75.6c-0.2,0.6-0.3,1.3-0.1,2c0.2,0.3,0.5,0.6,0.9,0.7l0,0c-2.5-1-5-2.1-7.6-3.1c-1.2-0.5-2.3-1-3.5-1.4
		c-0.5-0.2-0.9-0.4-1.4-0.6c-0.6-0.2-1.2-0.5-1.8-0.7c-5-2.1-9.9-4.1-14.9-6.2c0,0-0.1,0-0.1,0c-1.1-0.5-2.6-0.8-3.6-1.5
		c-0.9-0.6-0.4-1.6-0.2-2.5c0.3-1.2,0.7-2.5,1-3.7c1.2-4.3,2.3-8.6,3.4-12.8c0.3-1.3,0.5-2.9,1.2-4c0.8-1.4,2.6-2,4.1-1.4l27.9,9.3
		c0.7,1.1,0.9,2.4,0.6,3.7L91.9,75.6z"/>
	<path class="st5" d="M103.8,72.1c-0.1,0.1-0.2,0.2-0.7,0.3c-3.2,1.3-6.3,2.5-9.5,3.8c0.6-2.2,1.2-4.3,1.8-6.5c2,0.6,4,1.1,6,1.7
		C102,71.7,103.2,71.8,103.8,72.1z"/>
	<path class="st6" d="M104,40.9c0,5.7-0.1,11.4-0.1,17.1c0,3.6,0,7.2-0.1,10.7c0,0.9,0.1,1.9,0,2.9c0,0.2,0,0.4-0.1,0.5
		c-0.5-0.4-1.8-0.5-2.4-0.7c-2-0.6-4-1.1-6-1.7c1.1-3.9,2.2-7.9,3.3-11.8c0.2-0.9,0.5-1.7,0.7-2.6c0.4-2.2-0.3-4.4-2.2-5.7
		l-27.9-9.3c-1.5-0.6-3.3,0-4.1,1.4c-0.7,1.1-0.9,2.7-1.2,4c-1.1,4.3-2.3,8.6-3.4,12.8c-2.2-0.7-3.8-2.5-4.3-4.7
		c0-0.1-0.1-0.2-0.1-0.4V25.9c0-0.1,0-0.2,0-0.3c0-0.3,0.1-0.6,0.2-0.9c0-0.1,0-0.1,0.1-0.2c0-0.1,0.1-0.1,0.1-0.2
		c0.5-0.8,1.3-1.3,2.3-1.2L102.6,38C103.7,38.6,104.2,39.8,104,40.9z"/>
	<path class="st1" d="M51.8,53.5c0.2-1.9,0-4,0-5.9V27.2c0-0.5,0-1-0.1-1.6l0.1,0l4.4,0c0,0.1,0,0.2,0,0.3v27.5c0,0.1,0,0.2,0.1,0.4
		h-4.6C51.7,53.7,51.8,53.6,51.8,53.5z"/>
	<path class="st7" d="M15.3,85.7c-2.4,1-5-0.5-5.7-2.9v-6.1l1.9,0.7v5.3C11.6,84.6,13.4,86,15.3,85.7z"/>
	<path class="st2" d="M44,74.1c-1,1-3,1.4-4.2,1.8c-3.2,1.3-6.5,2.6-9.7,3.9c-4.9,2-9.9,3.9-14.9,5.9c-1.9,0.3-3.6-1.1-3.7-3v-5.3
		l2.7,1c0.8,0.2,1.3,0.1,1.6-0.2l7.1-2.9v4.6c0.9-0.3,2-0.5,2.8-1c0.5-0.3,0.6-0.7,0.9-1.2c1-1.7,2-3.4,3-5.1l15-6.2v5
		C44.6,72.3,44.8,73.3,44,74.1z"/>
	<polygon class="st7" points="26.4,73.8 22.9,79.8 22.9,75.2 	"/>
	<path class="st2" d="M29.6,72.5c-1,1.7-2,3.4-3,5.1c-0.3,0.5-0.5,0.9-0.9,1.2c-0.8,0.5-1.9,0.7-2.8,1l3.5-6L29.6,72.5z"/>
	<path class="st8" d="M48.3,64.7l-3.7,1.5l-15,6.2l-3.2,1.3l-3.5,1.4l-7.1,2.9c1-1.1-0.3-4.7-0.6-5.8c-1.3-4.9-2.6-9.9-4-14.8
		c-0.4-1.4-0.7-2.8-1.1-4.2c-0.3-1.2-0.1-2.6,0.6-3.7c0,0,0,0,0,0c1.4-0.7,3.2-1.1,4.7-1.6c3.2-1.1,6.4-2.1,9.5-3.2
		c4.5-1.5,9.1-3,13.6-4.6c1.8-0.7,3.8,0.2,4.4,2l4.3,16.2l1.3,4.8C48.9,63.8,48.7,64.4,48.3,64.7z"/>
	<path class="st3" d="M51.8,53.5c0,0.1,0,0.3-0.1,0.4c-0.4,2.2-2.2,4-4.3,4.7h0l-4.3-16.2c-0.7-1.7-2.7-2.7-4.4-2
		c-4.5,1.5-9.1,3-13.6,4.6c-3.2,1.1-6.4,2.1-9.5,3.2c-1.5,0.5-3.3,0.8-4.7,1.6c0,0,0,0,0,0c-1.9,1-2.6,3.7-2.2,5.7
		c0.2,0.9,0.5,1.7,0.7,2.6c1.1,3.9,2.2,7.9,3.3,11.8l-8.4,2.3c0-0.1-0.1-0.2-0.1-0.5c-0.1-0.9,0-1.9,0-2.9c0-3.6,0-7.2-0.1-10.7
		C4.1,52.4,4,46.7,4,40.9c-0.3-1.2,0.3-2.4,1.4-2.9l43.7-14.8c1-0.1,1.6,0.3,2,0.8c0.3,0.4,0.5,1,0.5,1.6c0.1,0.5,0.1,1.1,0.1,1.6
		v20.4C51.8,49.5,52,51.5,51.8,53.5z"/>
	<path class="st5" d="M14.4,76.3c-3.2-1.3-6.3-2.5-9.5-3.8c-0.4-0.2-0.6-0.2-0.7-0.3l8.4-2.3C13.2,72,13.8,74.1,14.4,76.3z"/>
	<path class="st4" d="M51.2,24L51.2,24c-0.5-0.5-1.1-0.8-2.1-0.8L5.4,38c-1.1,0.5-1.6,1.8-1.4,2.9c0,5.7,0.1,11.4,0.1,17.1
		c0,3.6,0,7.2,0.1,10.7c0,0.9-0.1,1.9,0,2.9c0,0.3,0,0.4,0.1,0.5c0.1,0.1,0.2,0.2,0.7,0.3c3.2,1.3,6.3,2.5,9.5,3.8
		c-0.6-2.2-1.2-4.3-1.8-6.5c-1.1-3.9-2.2-7.9-3.3-11.8c-0.2-0.9-0.5-1.7-0.7-2.6c-0.4-2,0.3-4.7,2.2-5.7c-0.7,1.1-0.9,2.5-0.6,3.7
		c0.4,1.4,0.7,2.8,1.1,4.2c1.3,4.9,2.6,9.9,4,14.8c0.3,1.1,1.6,4.6,0.6,5.8c-0.3,0.3-0.8,0.5-1.6,0.2l-2.7-1l-1.9-0.7l-6.1-2.2
		c-1-0.4-1.7-1.4-1.7-2.6V39.7c0.1-1.5,1-2.7,2.3-3.3l42.1-14.3C48.1,21.6,50.1,22.4,51.2,24z"/>
</g>
</svg>
