<?xml version="1.0" encoding="utf-8"?>
<!-- Generator: Adobe Illustrator 21.1.0, SVG Export Plug-In . SVG Version: 6.00 Build 0)  -->
<svg version="1.1" id="Layer_1" xmlns="http://www.w3.org/2000/svg" xmlns:xlink="http://www.w3.org/1999/xlink" x="0px" y="0px"
	 width="108px" height="108px" viewBox="0 0 108 108" style="enable-background:new 0 0 108 108;" xml:space="preserve">
<style type="text/css">
	.st0{fill:#FFFFFF;stroke:#000000;stroke-width:0.75;stroke-linecap:round;stroke-linejoin:round;stroke-miterlimit:10;}
	.st1{fill:#E6E6E6;stroke:#000000;stroke-width:0.75;stroke-linecap:round;stroke-linejoin:round;stroke-miterlimit:10;}
	.st2{fill:#F2F2F2;stroke:#000000;stroke-width:0.75;stroke-linecap:round;stroke-linejoin:round;stroke-miterlimit:10;}
	.st3{fill:#CCCCCC;stroke:#000000;stroke-width:0.75;stroke-linecap:round;stroke-linejoin:round;stroke-miterlimit:10;}
	.st4{fill:#FFFFFF;stroke:#000000;stroke-width:0.5;stroke-linecap:round;stroke-linejoin:round;stroke-miterlimit:10;}
</style>
<g>
	<path class="st0" d="M102.2,32.4l0.2-0.4c0,0-1.1-5.7-12.4-9.2c-11.2-3.6-28.2-3.9-36-3.9c-7.8,0-21,1.1-21.9,2.5
		c-0.9,1.4,2.8,33.3,4.1,40.3s2.7,15.2,5,20.7c2.3,5.5,5.2,10.3,8.3,12.1c2.6,1.5,3.8,2,6.7,2.5c0.7,0.1,1.3,0.1,1.8-0.1l0,0.1
		c-2.1,0.7-3.8,0.8-4.8,0.7c-4.3-0.4-9-2-13-7.5c-3.9-5.5-6.6-16.7-8.4-23.5c-1.2-4.6-4.7-18.4-7-27.8c0,0,0,0,0,0
		c-1.1-4.6-1.9-8.1-2.1-9.1c-0.5-3-0.9-5.6-1.6-6.4c-0.7-0.8-1.2-1.9-4.1-1.2c-1.9,0.5-5.9,3.4-7.6,5c-1.9,1.7-4,5-4,5s-1.6-1.3-2-3
		c-0.4-1.8-0.4-3.2,0.7-4.9c1.1-1.8,6.1-4.8,6.1-4.8L10,14.6l9.8-4.3v6.2c0,0,5.7-1.6,11.6-2.1c0,0,0,0,0,0
		c5.9-0.5,23.7-1.4,35.5-0.5c11.7,0.9,28.5,3.7,34.6,8.4C106.5,26.1,105,29.7,102.2,32.4z"/>
	<path class="st1" d="M102.4,32l-0.2,0.4c-0.6,0.5-1.2,1-1.8,1.5C97,36.3,87,38.1,85,38.4l-53-16.9c0-0.1,0-0.2,0.1-0.2
		c0.9-1.4,14.1-2.5,21.9-2.5c7.8,0,24.8,0.4,36,3.9C101.3,26.4,102.4,32,102.4,32z"/>
	<path class="st2" d="M32.1,21.6c-0.6,3.1,2.9,33.3,4.2,40.1c1.3,7,2.7,15.2,5,20.7c2.3,5.5,5.2,10.3,8.3,12.1
		c2.6,1.5,3.8,2,6.7,2.5c0.7,0.1,1.3,0.1,1.8-0.1l0,0.1c5.3-1.6,12.9-6.5,16.7-18.9c0.9-2.8,1.7-5.7,2.5-8.7
		c4.2-15.3,7.5-30.9,7.5-30.9s0.1,0,0.4-0.1L32.1,21.6z M42.2,65.6c0-11.7,4.9-21.5,11.5-23.8c6.1,2.9,10.5,12.3,10.5,23.5
		c0,11.7-4.9,21.5-11.4,23.8C46.7,86.2,42.2,76.7,42.2,65.6z"/>
	<path class="st3" d="M24.8,38.8C24.8,38.8,24.8,38.8,24.8,38.8c-0.5,0-7.7-0.6-11.9-2.3c-4.1-1.7-7.3-4.1-7.5-4.3h0
		c0,0,2.1-3.3,4-5c1.7-1.6,5.8-4.5,7.6-5c2.9-0.7,3.4,0.4,4.1,1.2c0.7,0.8,1.1,3.4,1.6,6.4C22.8,30.7,23.7,34.3,24.8,38.8z"/>
	<path class="st0" d="M24.8,38.8C24.8,38.8,24.8,38.8,24.8,38.8C24.8,38.8,24.8,38.8,24.8,38.8L24.8,38.8z"/>
	<path class="st3" d="M32.8,12.1l-1.3,0.4l0,1.9l0,0.1c-5.9,0.5-11.6,2.1-11.6,2.1v-6.2c0,0,10.7,0,12.1,0S32.8,12.1,32.8,12.1z"/>
	<line class="st4" x1="80" y1="37.9" x2="36.1" y2="24.7"/>
	<line class="st4" x1="77.6" y1="38.4" x2="37.8" y2="26.3"/>
	<path class="st0" d="M71.1,65.6c0,13.5-6.5,24.4-14.4,24.4c-0.2,0-0.5,0-0.7,0c-0.5,0-0.9-0.1-1.4-0.2c-0.1,0-0.3-0.1-0.4-0.1
		c-0.5-0.1-1-0.3-1.4-0.5c6.5-2.3,11.4-12.1,11.4-23.8c0-11.2-4.5-20.6-10.5-23.5c0.2-0.1,0.5-0.2,0.7-0.2c0.1,0,0.3-0.1,0.4-0.1
		c0.1,0,0.3-0.1,0.4-0.1c0.5-0.1,1-0.1,1.5-0.1C64.6,41.2,71.1,52.1,71.1,65.6z"/>
	<path class="st3" d="M71.1,65.6c0,13.5-6.5,24.4-14.4,24.4c-0.2,0-0.5,0-0.7,0c-0.5,0-0.9-0.1-1.4-0.2c-0.1,0-0.3-0.1-0.4-0.1
		c-0.5-0.1-1-0.3-1.4-0.5c6.5-2.3,11.4-12.1,11.4-23.8c0-11.2-4.5-20.6-10.5-23.5c0.2-0.1,0.5-0.2,0.7-0.2c0.1,0,0.3-0.1,0.4-0.1
		c0.1,0,0.3-0.1,0.4-0.1c0.5-0.1,1-0.1,1.5-0.1C64.6,41.2,71.1,52.1,71.1,65.6z"/>
</g>
</svg>
