<?xml version="1.0" encoding="utf-8"?>
<!-- Generator: Adobe Illustrator 21.1.0, SVG Export Plug-In . SVG Version: 6.00 Build 0)  -->
<svg version="1.1" id="Layer_1" xmlns="http://www.w3.org/2000/svg" xmlns:xlink="http://www.w3.org/1999/xlink" x="0px" y="0px"
	 width="108px" height="108px" viewBox="0 0 108 108" style="enable-background:new 0 0 108 108;" xml:space="preserve">
<style type="text/css">
	.st0{fill:#E6E6E6;}
	.st1{fill:#FFFFFF;stroke:#000000;stroke-width:0.5;stroke-linecap:round;stroke-linejoin:round;stroke-miterlimit:10;}
	.st2{fill:#B3B3B3;stroke:#000000;stroke-width:0.5;stroke-linecap:round;stroke-linejoin:round;stroke-miterlimit:10;}
	.st3{fill:#B3B3B3;}
	.st4{fill:#F2F2F2;stroke:#000000;stroke-width:0.5;stroke-miterlimit:10;}
	.st5{fill:#E6E6E6;stroke:#000000;stroke-width:0.5;stroke-linecap:round;stroke-linejoin:round;stroke-miterlimit:10;}
	.st6{fill:#CCCCCC;stroke:#000000;stroke-width:0.5;stroke-linecap:round;stroke-linejoin:round;stroke-miterlimit:10;}
	.st7{fill:#F2F2F2;stroke:#000000;stroke-width:0.5;stroke-linecap:round;stroke-linejoin:round;stroke-miterlimit:10;}
	.st8{fill:none;stroke:#000000;stroke-width:0.5;stroke-linecap:round;stroke-linejoin:round;stroke-miterlimit:10;}
</style>
<g>
	<path class="st0" d="M56.5,13.8v1.5c-1.7,0-3.6,0-5.2,0c0-0.8,0-1.4,0-1.4c0-0.2,0.1-0.3,0.2-0.5c0.4-0.5,1.4-1,2.4-1
		c1,0,2,0.5,2.4,1C56.4,13.5,56.5,13.7,56.5,13.8z"/>
	<path class="st1" d="M48,13.2c0.1,0,0.3,0.1,0.6,0.1h-0.3C48.2,13.4,48.1,13.3,48,13.2z"/>
	<path class="st1" d="M48.6,13.4h-0.3c-0.1,0-0.2,0-0.3-0.1C48.1,13.3,48.3,13.3,48.6,13.4z"/>
	<g>
		<path class="st2" d="M51.6,15.3c-1.5,0-2.7-0.1-2.8-0.1c-0.3-0.1-0.9-2-0.9-2c0,0,0,0,0.1,0c0,0,0,0,0,0c0.1,0.1,0.2,0.1,0.3,0.1
			l3.1,0"/>
		<path class="st2" d="M56.4,13.4l2,0c1.8,0,1.9-0.5,1.9-0.5s0,0,0,0.1c0,0,0,0.1,0,0.1c0,0,0,0,0,0c-0.1,0.5-0.3,1.6-0.8,2
			c-0.2,0.2-1.6,0.2-3.3,0.3"/>
	</g>
	<path class="st3" d="M56.4,13.4H56c-0.3-0.5-1.2-1-2.1-1c-1,0-1.8,0.5-2.1,1h-0.5c0.2,0,0.3-0.1,0.3-0.1c0.1-0.3,0.8-1.5,2.5-1.5
		S56.2,13,56.4,13.4C56.4,13.3,56.4,13.3,56.4,13.4z"/>
	<path class="st4" d="M56.2,15.3c0,1.5,0,3.6,0,3.6c-0.1,0.6-1.1,1-2.3,1c-1.2,0-2.2-0.5-2.3-1v-3.6C53,14.1,54.8,14.2,56.2,15.3z"
		/>
	<path class="st5" d="M55.9,18.7c0,0,0,9.2,0,9.2c-0.1,0.5-0.9,0.9-2,0.9c-1.1,0-1.9-0.4-2-0.9c0,0,0-9.2,0-9.2c0-0.5,0.9-1,2-1
		C55,17.7,55.9,18.1,55.9,18.7z"/>
	<path class="st1" d="M56.1,28c0,0,0,69,0,69c-0.1,0.6-1,6.3-2.2,6.3c-1.2,0-2.1-5.7-2.2-6.2c0,0,0-69,0-69c0-0.6,1-1.1,2.2-1.1
		C55.1,26.9,56.1,27.4,56.1,28z"/>
	<path class="st6" d="M55.9,103.4C55.9,103.4,55.9,103.4,55.9,103.4c0,0.2,0,0.4,0,0.4c-0.1,0.5-0.9,2-2,2c-1,0-1.9-1.4-2-1.9
		c0,0,0-0.1,0-0.3v0c0.1-0.5,0.9-1,2-1C54.9,102.4,55.8,102.8,55.9,103.4z"/>
	<path class="st7" d="M56.1,95.6c0,0-0.2,6.2-0.2,7.7c-0.1-0.5-1-0.9-2-0.9c-1,0-1.9,0.4-2,1c0-1.6-0.2-7.7-0.2-7.8
		c0-0.6,1-1.1,2.2-1.1C55.1,94.6,56.1,95,56.1,95.6z"/>
	<path class="st8" d="M55.9,103.5c0,0,0-0.1,0-0.1"/>
	<path class="st8" d="M51.9,103.4C51.9,103.4,51.9,103.5,51.9,103.4"/>
	<path class="st1" d="M60.3,2.9v10c0,0-0.1,0.5-1.9,0.5h-2c0,0,0,0,0-0.1c-0.1-0.3-0.7-1.6-2.4-1.6s-2.4,1.3-2.5,1.5
		c0,0-0.1,0.1-0.3,0.1h-2.6c-0.3,0-0.5-0.1-0.6-0.1c0,0,0,0,0,0c-0.1-0.1-0.2-0.2-0.2-0.4l-0.1-10c0-0.3,0.2-0.5,0.5-0.5l0.6,0
		c0.3,0,0.6,0.1,0.8,0.3l3.3,3.6c0.2,0.2,0.5,0.4,0.8,0.4h0.8c0.3,0,0.6-0.1,0.8-0.3l3.2-3.5c0.2-0.2,0.7-0.3,1.2-0.3h0.1
		C60.1,2.4,60.3,2.6,60.3,2.9z"/>
</g>
</svg>
