<?xml version="1.0" encoding="utf-8"?>
<!-- Generator: Adobe Illustrator 21.1.0, SVG Export Plug-In . SVG Version: 6.00 Build 0)  -->
<svg version="1.1" id="Layer_1" xmlns="http://www.w3.org/2000/svg" xmlns:xlink="http://www.w3.org/1999/xlink" x="0px" y="0px"
	 width="108px" height="108px" viewBox="0 0 108 108" style="enable-background:new 0 0 108 108;" xml:space="preserve">
<style type="text/css">
	.st0{fill:#FFFFFF;stroke:#000000;stroke-width:0.5;stroke-miterlimit:10;}
	.st1{fill:#FFFFFF;stroke:#000000;stroke-width:0.3;stroke-miterlimit:10;}
	.st2{fill:#FFFFFF;stroke:#000000;stroke-width:0.25;stroke-miterlimit:10;}
</style>
<g>
	<path class="st0" d="M34.6,104.5c-6,0-10.9-4.9-10.9-10.9c0-1.6,0.8-5.2,2.5-7.6c1.3-1.9,2-4.2,2-6.5V28.4c0-2.3-0.7-4.5-2-6.5
		c-1.6-2.4-2.5-5.9-2.5-7.6c0-6,4.9-10.9,10.9-10.9c4.7,0,8.8,3,10.3,7.5c0.1,0.4-0.1,0.8-0.5,0.9c-0.4,0.1-0.8-0.1-0.9-0.5
		C42.3,7.6,38.7,5,34.6,5c-5.2,0-9.4,4.2-9.4,9.4c0,1.3,0.8,4.6,2.2,6.7c1.5,2.2,2.3,4.7,2.3,7.3v51.2c0,2.6-0.8,5.1-2.3,7.3
		c-1.4,2.1-2.2,5.4-2.2,6.7c0,5.2,4.2,9.4,9.4,9.4c4.1,0,7.6-2.6,8.9-6.4c0.1-0.4,0.5-0.6,0.9-0.5s0.6,0.6,0.5,0.9
		C43.5,101.5,39.3,104.5,34.6,104.5z"/>
	<path class="st0" d="M51,93.1c-4.6,0-8.3-3.7-8.3-8.3c0-1.3,0.6-4,1.9-5.8c1-1.5,1.6-3.2,1.6-5V34.7c0-1.8-0.5-3.5-1.6-5
		c-1.3-1.8-1.9-4.6-1.9-5.8c0-4.6,3.7-8.3,8.3-8.3c3.6,0,6.8,2.3,7.9,5.7c0.1,0.3-0.1,0.6-0.4,0.7c-0.3,0.1-0.6-0.1-0.7-0.4
		c-1-3-3.7-4.9-6.8-4.9c-4,0-7.2,3.2-7.2,7.2c0,1,0.6,3.5,1.7,5.2c1.1,1.7,1.8,3.6,1.8,5.6V74c0,2-0.6,3.9-1.8,5.6
		c-1.1,1.6-1.7,4.2-1.7,5.2c0,4,3.2,7.2,7.2,7.2c3.1,0,5.9-2,6.8-4.9c0.1-0.3,0.4-0.5,0.7-0.4s0.5,0.4,0.4,0.7
		C57.8,90.8,54.6,93.1,51,93.1z"/>
	<path class="st1" d="M63.6,84.3c-3.5,0-6.4-2.9-6.4-6.4c0-1,0.5-3.1,1.5-4.5c0.8-1.1,1.2-2.5,1.2-3.8v-30c0-1.4-0.4-2.7-1.2-3.8
		c-1-1.4-1.5-3.5-1.5-4.5c0-3.5,2.9-6.4,6.4-6.4c2.8,0,5.2,1.8,6.1,4.4c0.1,0.2,0,0.5-0.3,0.6c-0.2,0.1-0.5,0-0.6-0.3
		c-0.7-2.3-2.8-3.8-5.2-3.8c-3,0-5.5,2.5-5.5,5.5c0,0.8,0.4,2.7,1.3,4c0.9,1.3,1.3,2.8,1.3,4.3v30.1c0,1.5-0.5,3-1.3,4.3
		c-0.9,1.2-1.3,3.2-1.3,4c0,3,2.5,5.5,5.5,5.5c2.4,0,4.5-1.5,5.2-3.8c0.1-0.2,0.3-0.4,0.6-0.3c0.2,0.1,0.4,0.3,0.3,0.6
		C68.8,82.5,66.4,84.3,63.6,84.3z"/>
	<path class="st2" d="M73.2,77.6c-2.7,0-4.9-2.2-4.9-4.9c0-0.7,0.4-2.3,1.1-3.4c0.6-0.9,0.9-1.9,0.9-2.9V43.3c0-1-0.3-2-0.9-2.9
		c-0.7-1.1-1.1-2.7-1.1-3.4c0-2.7,2.2-4.9,4.9-4.9c2.1,0,4,1.4,4.7,3.4c0.1,0.2,0,0.4-0.2,0.4c-0.2,0.1-0.4,0-0.4-0.2
		c-0.6-1.7-2.2-2.9-4-2.9c-2.3,0-4.2,1.9-4.2,4.2c0,0.6,0.3,2.1,1,3c0.7,1,1,2.1,1,3.3v23.1c0,1.2-0.4,2.3-1,3.3c-0.7,1-1,2.4-1,3
		c0,2.3,1.9,4.2,4.2,4.2c1.8,0,3.4-1.2,4-2.9c0.1-0.2,0.2-0.3,0.4-0.2c0.2,0.1,0.3,0.2,0.2,0.4C77.2,76.2,75.4,77.6,73.2,77.6z"/>
	<path class="st2" d="M80.6,72.4c-2.1,0-3.8-1.7-3.8-3.8c0-0.6,0.3-1.8,0.9-2.6c0.5-0.7,0.7-1.4,0.7-2.2V46.1c0-0.8-0.2-1.6-0.7-2.2
		c-0.6-0.8-0.9-2.1-0.9-2.6c0-2.1,1.7-3.8,3.8-3.8c1.6,0,3.1,1,3.6,2.6c0,0.1,0,0.3-0.2,0.3c-0.1,0-0.3,0-0.3-0.2
		C83.3,38.9,82,38,80.6,38c-1.8,0-3.2,1.5-3.2,3.2c0,0.5,0.3,1.6,0.8,2.3c0.5,0.8,0.8,1.6,0.8,2.5v17.7c0,0.9-0.3,1.8-0.8,2.5
		s-0.8,1.9-0.8,2.3c0,1.8,1.5,3.2,3.2,3.2c1.4,0,2.6-0.9,3.1-2.2c0-0.1,0.2-0.2,0.3-0.2c0.1,0,0.2,0.2,0.2,0.3
		C83.7,71.4,82.3,72.4,80.6,72.4z"/>
</g>
</svg>
