<?xml version="1.0" encoding="utf-8"?>
<!-- Generator: Adobe Illustrator 21.1.0, SVG Export Plug-In . SVG Version: 6.00 Build 0)  -->
<svg version="1.1" id="Layer_1" xmlns="http://www.w3.org/2000/svg" xmlns:xlink="http://www.w3.org/1999/xlink" x="0px" y="0px"
	 width="108px" height="108px" viewBox="0 0 108 108" style="enable-background:new 0 0 108 108;" xml:space="preserve">
<style type="text/css">
	.st0{fill:#FFFFFF;}
	.st1{fill:#F2F2F2;}
	.st2{fill:none;stroke:#000000;stroke-width:0.75;stroke-linecap:round;stroke-linejoin:round;stroke-miterlimit:10;}
	.st3{fill:#F2F2F2;stroke:#000000;stroke-width:0.75;stroke-linecap:round;stroke-linejoin:round;stroke-miterlimit:10;}
	.st4{fill:#FFFFFF;stroke:#000000;stroke-width:0.75;stroke-linecap:round;stroke-linejoin:round;stroke-miterlimit:10;}
	.st5{fill:#CCCCCC;stroke:#000000;stroke-width:0.75;stroke-linecap:round;stroke-linejoin:round;stroke-miterlimit:10;}
	.st6{fill:#FFFFFF;stroke:#000000;stroke-width:0.5;stroke-linecap:round;stroke-linejoin:round;stroke-miterlimit:10;}
</style>
<g>
	<path class="st0" d="M52.8,18.7L28,20.4c0,0,0,0.2,0.1,0.7c0.5,4.3,3,27.5,4.3,34.2c0.8,4.1,2.9,16.2,5.7,25.1
		C36,79.3,33.9,78,32,76.7c-3.2-10.1-6.8-24.1-7.9-29c-0.9-3.8-3-13.4-4.5-19.7c-0.8-3.5-1.4-5.9-1.4-5.9H6.4L7,10.3h11.2v5.2
		L29.9,15l23.5-1C53.3,15.6,53,17.2,52.8,18.7z"/>
	<path class="st1" d="M40.5,86.8c-0.9-1.7-1.7-4-2.4-6.4C36,79.3,33.9,78,32,76.7c1.1,3.6,2.2,6.7,3.1,8.7
		c4.2,9.6,10.6,12,16.3,12.3c1.1,0.1,2.3-0.1,3.7-0.4c-1.6,0-5.5-0.8-7.6-2.2C45.4,93.7,43,91.9,40.5,86.8z"/>
	<path class="st1" d="M98.1,35.4l3.5-4L53.4,14.1l0,0c-0.2,1.5-0.4,3.1-0.6,4.6l0.3,0L98.1,35.4z"/>
	<path class="st2" d="M53.1,18.7L28,20.4c0,0,0,0.2,0.1,0.7c0.5,4.3,3,27.5,4.3,34.2c1,5.2,4.2,23.5,8.2,31.5c2.5,5,4.8,6.9,6.9,8.2
		c2.1,1.4,6,2.2,7.6,2.2c-1.3,0.3-2.6,0.4-3.7,0.4c-5.8-0.3-12.1-2.7-16.3-12.3c-3.3-7.5-9.5-31.1-11-37.6c-0.9-3.8-3-13.4-4.5-19.7
		c-0.8-3.5-1.4-5.9-1.4-5.9H6.4L7,10.3h11.2v5.2l35.2-1.4l48.1,17.3l-3.5,4L53.1,18.7z"/>
	<path class="st3" d="M98.1,35.4l-15.3,3.2L28.3,21.1l-0.3,0c0-0.4-0.1-0.7-0.1-0.7l25.1-1.8L98.1,35.4z"/>
	<path class="st3" d="M28.3,21.1l-0.3,0c0.5,4.3,3,27.5,4.3,34.2c1,5.2,4.2,23.5,8.2,31.5c2.5,5,4.8,6.9,6.9,8.2
		c2.1,1.4,6,2.2,7.6,2.2c0.2,0,0.4-0.1,0.6-0.1c5.4-1.4,12-5.7,15.1-12.2c1.2-2.4,3.1-9.4,5.1-17.2c3.4-13.4,7-29.2,7-29.2
		L28.3,21.1z M51.4,89.6C51.4,89.6,51.4,89.6,51.4,89.6c-6.1-2.9-10.5-12.2-10.5-23.3c0-11.5,4.8-21.2,11.2-23.6c0,0,0.1,0,0.2-0.1
		c6,2.8,10.5,12.2,10.5,23.3C62.7,77.6,57.9,87.3,51.4,89.6z"/>
	<path class="st4" d="M55.1,97.3c0.2,0,0.4-0.1,0.6-0.1l-0.1,0.1C55.4,97.3,55.3,97.3,55.1,97.3z"/>
	<path class="st5" d="M69.5,66.3c0,13.3-6.4,24.2-14.3,24.2c-1.3,0-2.6-0.3-3.8-0.9c6.5-2.3,11.3-12,11.3-23.7
		c0-11.1-4.4-20.5-10.5-23.3c1-0.3,2-0.5,3-0.5C63.1,42.1,69.5,53,69.5,66.3z"/>
	<path class="st4" d="M51.4,89.6C51.4,89.6,51.4,89.6,51.4,89.6C51.4,89.6,51.4,89.6,51.4,89.6L51.4,89.6z"/>
	<path class="st4" d="M52.3,42.7c0,0-0.1,0-0.2,0.1v-0.1C52.1,42.6,52.2,42.6,52.3,42.7z"/>
	<path class="st5" d="M19.6,28.1L6.4,22.1h11.8C18.3,22.1,18.8,24.6,19.6,28.1z"/>
	<line class="st2" x1="19.7" y1="28.1" x2="19.6" y2="28.1"/>
	<line class="st6" x1="79.4" y1="38.8" x2="33.8" y2="24.2"/>
	<line class="st6" x1="78.2" y1="39.6" x2="34.8" y2="25.7"/>
	<polygon class="st5" points="29.9,15 18.3,15.5 18.3,10.3 	"/>
</g>
</svg>
