<?xml version="1.0" encoding="utf-8"?>
<!-- Generator: Adobe Illustrator 21.1.0, SVG Export Plug-In . SVG Version: 6.00 Build 0)  -->
<svg version="1.1" id="Layer_1" xmlns="http://www.w3.org/2000/svg" xmlns:xlink="http://www.w3.org/1999/xlink" x="0px" y="0px"
	 width="108px" height="108px" viewBox="0 0 108 108" style="enable-background:new 0 0 108 108;" xml:space="preserve">
<style type="text/css">
	.st0{fill:#FFFFFF;stroke:#000000;stroke-width:0.75;stroke-linecap:round;stroke-linejoin:round;stroke-miterlimit:10;}
</style>
<path class="st0" d="M54,104.8L54,104.8c-2.7,0-5.2-1.1-7-3.1L23.5,76c-2.3-2.6-2.5-6.5-0.3-9.2l29.3-38.5l-13-16.7
	c-0.9-1.5-0.9-3.1-0.1-4.5C40.3,5.8,41.7,5,43.3,5h21.4c0.4,0,0.8,0.3,0.8,0.8s-0.3,0.8-0.8,0.8H43.3c-1,0-1.9,0.5-2.5,1.4
	c-0.5,0.9-0.5,2,0,2.8L53.6,27L67.2,9.2c0.5-0.8,0.5-1.9-0.1-2.9c-0.5-0.9-1.4-1.4-2.4-1.4H43.3c-0.4,0-0.8-0.3-0.8-0.8
	c0-0.4,0.3-0.8,0.8-0.8h21.4c1.6,0,3,0.8,3.8,2.2s0.8,3.2,0,4.5L54.6,28.3l30.2,38.5c2.2,2.7,2.1,6.6-0.3,9.2L61,101.7
	C59.2,103.6,56.7,104.8,54,104.8z M53.6,29.6L24.5,67.8c-1.7,2.1-1.6,5.2,0.2,7.2l23.4,25.6c1.5,1.6,3.6,2.6,5.9,2.6
	s4.4-0.9,5.9-2.6L83.3,75c1.8-2,1.9-5.1,0.2-7.2L53.6,29.6z"/>
</svg>
