<?xml version="1.0" encoding="utf-8"?>
<!-- Generator: Adobe Illustrator 21.1.0, SVG Export Plug-In . SVG Version: 6.00 Build 0)  -->
<svg version="1.1" id="Layer_1" xmlns="http://www.w3.org/2000/svg" xmlns:xlink="http://www.w3.org/1999/xlink" x="0px" y="0px"
	 width="108px" height="108px" viewBox="0 0 108 108" style="enable-background:new 0 0 108 108;" xml:space="preserve">
<style type="text/css">
	.st0{fill:#FFFFFF;stroke:#000000;stroke-width:0.75;stroke-linecap:round;stroke-linejoin:round;stroke-miterlimit:10;}
	.st1{fill:#CCCCCC;}
	.st2{fill:#F2F2F2;}
	.st3{fill:#E6E6E6;}
	.st4{fill:#FFFFFF;}
	.st5{fill:none;stroke:#000000;stroke-width:3;}
	.st6{fill:#FFFFFF;stroke:#000000;stroke-width:0.5;stroke-linecap:round;stroke-linejoin:round;}
</style>
<g>
	<g>
		<path class="st0" d="M73.8,6C71.6,5,61.3,3.5,58.2,3c-0.1,0-0.2,0-0.4,0c-1.2,0-2.2,0.9-2.4,2.1c-0.2,1.3,0.7,2.6,2.1,2.8
			c6,0.9,13.3,2.1,14.4,2.6c0.4,0.2,0.5,0.3,0.5,0.3c0,0,0,0.2,0,0.6c-0.7,1-3.6,3.7-5.4,5.4c-1.8,1.7-3.6,3.3-4.6,4.4
			c-3.6,4-0.4,7.2,0.8,8.4c0.2,0.2,0.4,0.4,0.6,0.7c0.1,0.1,0.2,0.2,0.2,0.3c-0.1,0.1-0.3,0.3-0.7,0.5c-1,0.6-4.6,1.4-8.6,2
			c-0.5-0.1-1-0.2-1.5-0.3c-3.3-0.6-7.8-1.3-8.8-1.7l0,0c-0.1,0-0.1-0.1-0.2-0.1c0,0,0.1-0.1,0.1-0.1c1.8-2.7,2.2-3.7,2.3-6
			c0.2-2.5-2.3-5.2-7.8-10.5c-0.6-0.6-1.1-1.1-1.6-1.6c-1.1-1.1-1.4-1.6-1.5-1.7c0-0.2,0.2-0.5,0.4-0.9c1.5-0.8,7.7-1.8,13.8-2.1
			c1.3-0.1,2.4-1.2,2.3-2.6C52,4,50.9,3,49.6,3h-0.1C33.3,4,32.1,6.7,31.6,7.8c-1.5,3.3-1.4,5,2,8.4c0.5,0.5,1,1,1.6,1.6
			c1.7,1.7,5.7,5.5,6.3,6.9c-0.1,1.2-0.2,1.5-1.5,3.4c-0.7,1-1.5,2.4-1.1,4.1c0.4,1.7,1.8,2.5,2.8,3.1l0.1,0.1c0,0,0,0,0.1,0
			c-2.8,1.2-5,3.2-6.5,6c-0.7,1.2-2.5,4.5,1.1,33.1l0.1,0.5c0,0.2,3.2,22.3,5.7,25.8c2.6,3.7,7.8,3.7,9.8,3.7h0.8
			c2.5,0,6.8-0.1,9.9-2.8c2.8-2.4,4.1-7.4,5.2-12.3c0.3-1.1,0.6-2.2,0.8-3.2c1.4-4.9,3.6-21.7,4.9-34.9c1.4-13.2-4.8-14.9-8.2-15.8
			c-0.1,0-0.2,0-0.3-0.1c0.1-0.1,0.2-0.1,0.3-0.2c1.8-1.1,2.8-2.3,3.1-3.8c0.3-1.4-0.2-2.8-1.3-4.2c-0.3-0.4-0.6-0.7-0.9-1
			c-0.3-0.3-0.9-0.9-1-1.1c0,0,0-0.2,0.4-0.6c0.9-1,2.6-2.5,4.3-4.1c4.9-4.5,6.6-6.2,6.9-7.8C77.7,9.4,76.6,7.2,73.8,6z M68.9,50.7
			c-1.3,13-3.5,29.7-4.8,34.1c-0.3,1-0.6,2.2-0.9,3.4c-0.9,3.5-2.1,8.4-3.6,9.7c-1.9,1.6-5.2,1.6-7.1,1.6h-0.5c-1.1,0-4.7,0-5.8-1.6
			C45,95.8,42,79.2,41.4,74.4l-0.1-0.5c-3.3-26-1.9-29.8-1.7-30.2c1.6-2.8,4.1-4.4,8-4.8c0.1,0,3.2-0.3,6.9-0.9
			c3.5,0.6,7.1,1.2,8.1,1.7c0.5,0.2,1.1,0.4,1.6,0.5C67.2,40.9,69.9,41.6,68.9,50.7z"/>
		<g>
			<g>
				<path class="st1" d="M40,93.5c0.8,3.4,1.6,6.2,2.4,7.2c2.6,3.7,7.8,3.7,9.8,3.7h0.8c2.5,0,6.8-0.1,9.9-2.8
					c1.5-1.3,2.6-3.3,3.4-5.7c-1.7,1.4-3.5,2.6-5.5,3.6C52.6,103.6,45,100,40,93.5z"/>
				<path class="st2" d="M41.5,75.1c-1.9-0.9-3.6-2.1-5.3-3.5c0.1,0.9,0.2,1.8,0.3,2.8l0.1,0.5c0,0.1,0.4,3,1.1,6.8
					c1.8,1.7,3.7,3.2,5.7,4.4C42.6,81.9,41.9,77.6,41.5,75.1z"/>
				<path class="st3" d="M63.3,88.2c-0.9,3.5-2.1,8.4-3.6,9.7c-1.9,1.6-5.2,1.6-7.1,1.6h-0.5c-0.9,0-3,0-4.6-0.7
					c-0.1-0.1-0.3-0.1-0.4-0.2c-0.4-0.2-0.6-0.4-0.9-0.7c-0.7-1.1-1.9-6.4-2.9-11.8c-2-1.2-3.9-2.7-5.7-4.4c0.6,3.6,1.4,8,2.3,11.8
					c0.8,1,1.7,2,2.6,2.8c0.2,0.2,0.4,0.4,0.6,0.5c0.4,0.3,0.8,0.7,1.2,1c0.2,0.2,0.5,0.4,0.8,0.5c0.1,0.1,0.2,0.1,0.3,0.2
					c0.5,0.3,0.9,0.6,1.4,0.8c0.1,0.1,0.3,0.1,0.4,0.2c0.3,0.1,0.6,0.3,0.8,0.4c0.2,0.1,0.5,0.2,0.8,0.3c0.2,0.1,0.4,0.1,0.6,0.2
					c0.2,0.1,0.3,0.1,0.5,0.2c0.1,0,0.1,0,0.2,0c0.2,0.1,0.4,0.1,0.6,0.2c0.3,0.1,0.5,0.1,0.8,0.2c0.2,0,0.4,0.1,0.6,0.1
					c0.3,0,0.5,0.1,0.8,0.1c0.3,0,0.5,0,0.8,0c2.2,0,4.6-0.5,7-1.7c2-1,3.8-2.2,5.5-3.6c0.7-2,1.3-4.3,1.8-6.6
					c0.3-1.1,0.6-2.2,0.8-3.2c0.2-0.5,0.3-1.2,0.5-2.1c-1.9,0.7-3.7,1.5-5.6,2.2C63.6,86.9,63.5,87.6,63.3,88.2z"/>
				<path class="st2" d="M66.2,73.6c-0.8,5.2-1.5,9.4-2,11.3c-0.1,0.5-0.3,0.9-0.4,1.4c1.8-0.7,3.7-1.4,5.6-2.2
					C70,81,70.8,76,71.5,70.4C69.8,71.6,68,72.7,66.2,73.6z"/>
				<path class="st2" d="M32.4,6.7c-0.5,0.4-0.6,0.8-0.7,1.1c-1.5,3.3-1.4,5,2,8.4c0.5,0.5,1,1,1.6,1.6c1.1,1,3,2.9,4.5,4.5
					c-0.1-0.2-0.1-0.4-0.2-0.5C36.6,16.8,32,12.8,32.4,6.7z"/>
				<path class="st2" d="M49.7,7.9c1.3-0.1,2.4-1.2,2.3-2.6c0-0.3-0.1-0.6-0.2-0.9c-2.2,2-5.6,3.1-8.8,4.1C45,8.2,47.4,8,49.7,7.9z"
					/>
				<path class="st2" d="M55.4,5.1c-0.2,1.3,0.7,2.6,2.1,2.8c1.3,0.2,2.7,0.4,4.1,0.6c-2.3-1-4.5-2.2-6.1-3.7
					C55.5,4.9,55.4,5,55.4,5.1z"/>
				<path class="st4" d="M75.7,7.2c-0.5-0.5-1.2-0.9-1.9-1.2C71.6,5,61.3,3.5,58.2,3c-0.1,0-0.2,0-0.4,0c-1.1,0-2,0.7-2.3,1.8
					c1.7,1.5,3.8,2.7,6.1,3.7c4.8,0.8,9.4,1.6,10.3,2c0.4,0.2,0.5,0.3,0.5,0.3c0,0,0,0.2,0,0.6c-0.7,1-3.6,3.7-5.4,5.4
					c-1.8,1.7-3.6,3.3-4.6,4.4c-3.6,4-0.4,7.2,0.8,8.4c0.2,0.2,0.4,0.4,0.6,0.7c0.1,0.1,0.2,0.2,0.2,0.3c-0.1,0.1-0.3,0.3-0.7,0.5
					c-1,0.6-4.6,1.4-8.6,2c-0.5-0.1-1-0.2-1.5-0.3c-3.3-0.6-7.8-1.3-8.8-1.7l0,0c-0.1,0-0.1-0.1-0.2-0.1c0,0,0.1-0.1,0.1-0.1
					c1.8-2.7,2.2-3.7,2.3-6c0.2-2.5-2.3-5.2-7.8-10.5c-0.6-0.6-1.1-1.1-1.6-1.6c-1.1-1.1-1.4-1.6-1.5-1.7c0-0.2,0.2-0.5,0.4-0.9
					c0.9-0.5,3.6-1.1,7-1.5c3.3-1,6.6-2.1,8.8-4.1C51.4,3.6,50.6,3,49.6,3h-0.1c-12,0.7-15.8,2.4-17.1,3.7
					c-0.4,6.2,4.2,10.2,7.2,15.1c0.1,0.2,0.1,0.4,0.2,0.5c0.9,1,1.6,1.8,1.8,2.4c-0.1,1.2-0.2,1.5-1.5,3.4c-0.3,0.4-0.6,0.9-0.8,1.5
					c7.6,6.6,19.4,6.4,29.4,2.2c0-0.1,0.1-0.3,0.1-0.4c0.3-1.4-0.2-2.8-1.3-4.2c-0.3-0.4-0.6-0.7-0.9-1c-0.3-0.3-0.9-0.9-1-1.1
					c0,0,0-0.2,0.4-0.6c0.9-1,2.6-2.5,4.3-4.1c0,0,0,0,0,0C72.8,16,76.5,11.5,75.7,7.2z"/>
				<path class="st2" d="M75.7,7.2c0.8,4.3-2.9,8.8-5.5,13.1c4.9-4.5,6.6-6.2,6.9-7.8C77.5,10.2,77.1,8.5,75.7,7.2z"/>
				<path class="st2" d="M65.7,35.4c0,0-0.1,0-0.1,0c-0.1,0-0.2,0-0.3-0.1c0.1-0.1,0.2-0.1,0.3-0.2c1.6-1,2.6-2.1,3-3.4
					c-10,4.2-21.8,4.4-29.4-2.2c-0.3,0.8-0.5,1.6-0.3,2.5c0.4,1.6,1.6,2.4,2.5,3C49.3,38.3,57.7,37.8,65.7,35.4z"/>
				<path class="st4" d="M49.8,37.2c-2.8-0.3-5.6-1-8.3-2.1c0.1,0,0.2,0.1,0.2,0.1l0.1,0.1c0,0,0,0,0.1,0c-2.8,1.2-5,3.2-6.5,6
					c-0.7,1.2-2.4,4.3,0.8,30.4c1.7,1.4,3.5,2.5,5.3,3.5c0-0.3-0.1-0.5-0.1-0.7l-0.1-0.5c-1.8-14.5-2.2-22.1-2.1-26.1
					C36.2,40.7,43,37.9,49.8,37.2z"/>
				<path class="st4" d="M65.7,35.4c-2.8,0.8-5.6,1.4-8.4,1.7c0.4,0,0.7,0.1,1.1,0.1c3.3,0,10,0,11.1,4.5c0,3.5,1.4,7.7-0.8,10.4
					c-0.7,7.1-1.7,15-2.6,21.4c1.8-0.9,3.6-2,5.4-3.2c0.8-6.1,1.6-13,2.3-19.2C75.1,38.2,69.1,36.4,65.7,35.4z"/>
				<path class="st3" d="M39.7,43.6c1.6-2.8,4.1-4.4,8-4.8c0.1,0,3.2-0.3,6.9-0.9c3.5,0.6,7.1,1.2,8.1,1.7c0.5,0.2,1.1,0.4,1.6,0.5
					c2.9,0.8,5.6,1.5,4.6,10.6c0,0.5-0.1,1-0.2,1.4c2.2-2.7,0.8-6.9,0.8-10.4c-1.1-4.5-7.8-4.5-11.1-4.5c-0.3-0.1-0.7-0.1-1.1-0.1
					c-0.9,0.1-1.9,0.2-2.8,0.2c-1.6,0.1-3.2,0-4.8-0.2c-6.8,0.7-13.6,3.5-10.5,10.6C39.3,44.6,39.6,43.8,39.7,43.6"/>
			</g>
		</g>
	</g>
	<line class="st5" x1="43.6" y1="49.6" x2="62" y2="72.7"/>
	<line class="st6" x1="49.1" y1="31.1" x2="49.1" y2="105"/>
	<line class="st6" x1="50.1" y1="31.1" x2="50.1" y2="105.2"/>
	<line class="st6" x1="51.1" y1="31.3" x2="51.1" y2="105.4"/>
	<line class="st6" x1="52.1" y1="31.5" x2="52.1" y2="105.4"/>
	<line class="st6" x1="53.2" y1="31.7" x2="53.2" y2="105.5"/>
	<line class="st6" x1="54.2" y1="31.9" x2="54.2" y2="105.4"/>
	<line class="st6" x1="55.2" y1="31.7" x2="55.2" y2="105.4"/>
	<line class="st6" x1="56.2" y1="31.5" x2="56.2" y2="105.2"/>
	<line class="st6" x1="57.2" y1="31.3" x2="57.2" y2="105"/>
</g>
</svg>
