<?xml version="1.0" encoding="utf-8"?>
<!-- Generator: Adobe Illustrator 21.1.0, SVG Export Plug-In . SVG Version: 6.00 Build 0)  -->
<svg version="1.1" id="Layer_1" xmlns="http://www.w3.org/2000/svg" xmlns:xlink="http://www.w3.org/1999/xlink" x="0px" y="0px"
	 width="108px" height="108px" viewBox="0 0 108 108" style="enable-background:new 0 0 108 108;" xml:space="preserve">
<style type="text/css">
	.st0{fill:#E6E6E6;}
	.st1{fill:#CCCCCC;}
	.st2{fill:none;stroke:#000000;stroke-width:0.75;stroke-linecap:round;stroke-linejoin:round;stroke-miterlimit:10;}
	.st3{fill:#F2F2F2;}
	.st4{fill:#FFFFFF;}
	.st5{fill:#F2F2F2;stroke:#000000;stroke-width:0.75;stroke-linecap:round;stroke-linejoin:round;stroke-miterlimit:10;}
	.st6{fill:#FFFFFF;stroke:#000000;stroke-width:0.75;stroke-linecap:round;stroke-linejoin:round;stroke-miterlimit:10;}
	.st7{fill:#CCCCCC;stroke:#000000;stroke-width:0.75;stroke-linecap:round;stroke-linejoin:round;stroke-miterlimit:10;}
	.st8{fill:#E6E6E6;stroke:#000000;stroke-width:0.75;stroke-linecap:round;stroke-linejoin:round;stroke-miterlimit:10;}
	.st9{fill:#B3B3B3;stroke:#000000;stroke-width:0.75;stroke-linecap:round;stroke-linejoin:round;stroke-miterlimit:10;}
	.st10{fill:#666666;stroke:#000000;stroke-width:0.75;stroke-linecap:round;stroke-linejoin:round;stroke-miterlimit:10;}
	.st11{fill:#FFFFFF;stroke:#000000;stroke-linecap:round;stroke-linejoin:round;stroke-miterlimit:10;}
</style>
<g>
	<g>
		<path class="st0" d="M77.8,19c-0.1,0-0.1,0-0.2,0c-3,0-6,1-6,1s-60,14-63,15c-0.9,0.3-1.1,0.7-1.1,1.2h0v3.9
			c0-0.5,0.3-0.9,1.1-1.2c0.1,0,0.4-0.1,0.7-0.2c7.5-2,62.3-14.8,62.3-14.8s3-1,6-1c0.1,0,0.2,0,0.3,0C77.8,21.7,77.8,20.3,77.8,19z
			"/>
		<path class="st1" d="M98.6,36l-16-15c0,0-1.9-1.9-4.8-2c0,1.3,0,2.7,0.1,4c2.8,0.1,4.7,2,4.7,2l16,15c0,0,0.3,0.3,0.6,0.7
			c0.6,0.7,1.4,1.7,1.4,2.3v-4C100.6,38,98.6,36,98.6,36z"/>
		<path class="st2" d="M100.6,39v4c0-0.6-0.8-1.6-1.4-2.3c-0.3-0.4-0.6-0.7-0.6-0.7l-16-15c0,0-2-2-5-2s-6,1-6,1S16.8,36.8,9.3,38.8
			C9,38.9,8.7,39,8.6,39c-0.8,0.3-1.1,0.7-1.1,1.2v-3.9h0c0-0.5,0.3-0.9,1.1-1.2c3-1,63-15,63-15s3-1,6-1s5,2,5,2l16,15
			C98.6,36,100.6,38,100.6,39z"/>
		<g>
			<path class="st3" d="M17.1,50l7.5,7l3,0.9l11,3.1c0,0,24.3-6.3,42-11c1-0.3,2-0.5,3-0.8c8.2-2.2,14.4-3.9,15-4.2c2-1,2-1,2-2
				c0-0.6-0.8-1.6-1.4-2.3c-0.3-0.4-0.6-0.7-0.6-0.7l-13-12.2c-20.8,2.6-41.4,8.3-61.5,14.7C21,43.3,18.5,46.4,17.1,50z"/>
			<path class="st4" d="M77.6,23c-3,0-6,1-6,1S16.8,36.8,9.3,38.8C9,38.9,8.7,39,8.6,39c-0.8,0.3-1.1,0.7-1.1,1.2
				c0,1.3,2.1,2.8,2.1,2.8l7.5,7c1.4-3.7,3.9-6.8,7-7.5c20-6.4,40.7-12.2,61.5-14.7l-3-2.8C82.6,25,80.6,23,77.6,23z"/>
			<path class="st2" d="M100.6,43c0,1,0,1-2,2c-0.6,0.3-6.8,2-15,4.2c-1,0.3-2,0.5-3,0.8c-17.7,4.7-42,11-42,11l-11-3.1l-3-0.9
				l-15-14c0,0-2.1-1.6-2.1-2.8c0-0.5,0.3-0.9,1.1-1.2c0.1,0,0.4-0.1,0.7-0.2c7.5-2,62.3-14.8,62.3-14.8s3-1,6-1s5,2,5,2l16,15
				c0,0,0.3,0.3,0.6,0.7C99.8,41.4,100.6,42.4,100.6,43z"/>
		</g>
	</g>
	<g>
		<path class="st5" d="M82.8,55.1c0,0.3-0.1,0.6-0.2,0.9c-1,2-11,8-11,8s-0.1,0.1-0.3,0.2c-0.1,0.1-0.3,0.1-0.5,0l0,0
			c-0.3-0.1-0.7-0.4-1.1-1.2c-0.1-0.3-0.3-0.5-0.3-0.8c-0.7-1.7-0.9-3.1-2.7-2.2c-2,1-1,3,0,4c0.4,0.4,0.6,0.9,0.7,1.4
			c0.1,0.9-0.4,2-1.7,2.6c-2,1-10,7-14,8c-3.4,0.9-20.8-2.7-25.7-3.7C25,72.1,24.6,72,24.6,72s0,0-0.1,0l-0.4-0.2
			c-0.6-0.4-1.5-1.3-1.5-2.7c0-2,2-3,2-3V52c0,0-2-2-2-4s1-3,4-3l53-12c0,0,1.3-0.5,2.2-0.1c0.2,0.1,0.4,0.2,0.5,0.4
			c0.2,0.2,0.2,0.4,0.2,0.8c0,0.3-0.1,0.7-0.2,1c-0.5,1.6-1.8,3-1.8,3v14l0,0l0.2,0.1l0.1,0.1c0.6,0.4,1.7,1.5,1.9,2.7
			C82.8,55,82.8,55.1,82.8,55.1z"/>
		<path class="st6" d="M85.6,58c-1,2-12,8-12,8s-0.4,0.4-0.9,0.2l-1-1l-0.9-0.9c0.2,0.1,0.4,0,0.5,0c0.2-0.1,0.3-0.2,0.3-0.2
			s10-6,11-8c0.8-1.7-1.2-3.4-1.8-3.9l2.8,1.9C83.6,54,86.6,56,85.6,58z"/>
		<path class="st6" d="M71.7,65.2l1,1C72.4,66.1,72,65.8,71.7,65.2z"/>
		<path class="st7" d="M70,68.6l-2.8-3.2c-0.1-0.5-0.3-1-0.7-1.4c-1-1-2-3,0-4c1.7-0.9,2,0.5,2.7,2.2c-1.5,1-0.6,2.9,0.3,3.8
			C70.2,66.6,70.4,67.7,70,68.6z"/>
		<path class="st6" d="M70,68.6c-0.3,0.5-0.7,1-1.4,1.4c-2,1-10,7-14,8s-27-4-27-4l-0.1-0.1L27,73.6l-0.1-0.1L24.5,72
			c0.1,0,0.1,0,0.1,0s0.5,0.1,1.3,0.3c4.9,1,22.3,4.6,25.7,3.7c4-1,12-7,14-8c1.3-0.6,1.7-1.7,1.7-2.6L70,68.6z"/>
		<path class="st6" d="M27,73.6l0.5,0.3C27.4,73.9,27.2,73.8,27,73.6z"/>
		<path class="st6" d="M85.4,35.4l-0.9-0.6C84.9,34.9,85.3,35,85.4,35.4z"/>
		<line class="st6" x1="24.5" y1="71.9" x2="24.1" y2="71.7"/>
		<line class="st6" x1="70.7" y1="64.2" x2="70.7" y2="64.2"/>
		<path class="st7" d="M85.6,36c0,2-2,4-2,4v14l-2.8-1.9L80.6,52l0,0V38c0,0,1.4-1.4,1.8-3c0.1-0.3,0.2-0.7,0.2-1
			c0-0.3-0.1-0.6-0.2-0.8l2.2,1.6l0.9,0.6C85.5,35.6,85.6,35.8,85.6,36z"/>
		<line class="st6" x1="82.3" y1="33.2" x2="81.8" y2="32.9"/>
	</g>
	<g>
		<path class="st8" d="M55.6,54v15c0,0-2,5-6,5c-0.6,0-1.1-0.1-1.6-0.2C45,72.9,43.6,70,43.6,70V57c0,0,1-4,6-5
			c2.9-0.6,4.5,0.2,5.3,0.9C55.4,53.5,55.6,54,55.6,54z"/>
		<path class="st9" d="M57.6,55v15c0,0-2,5-6,5c-1.5,0-2.7-0.5-3.6-1.2c0.5,0.1,1,0.2,1.6,0.2c4,0,6-5,6-5V54c0,0-0.2-0.5-0.8-1.1
			C57,53.4,57.6,55,57.6,55z"/>
		<ellipse class="st10" cx="49.6" cy="67.5" rx="2" ry="2.5"/>
		<g>
			<line class="st11" x1="49.6" y1="69" x2="49.6" y2="86"/>
			<rect x="43.6" y="86" class="st9" width="12" height="3"/>
		</g>
	</g>
</g>
</svg>
