<?xml version="1.0" encoding="utf-8"?>
<!-- Generator: Adobe Illustrator 21.1.0, SVG Export Plug-In . SVG Version: 6.00 Build 0)  -->
<svg version="1.1" id="Layer_1" xmlns="http://www.w3.org/2000/svg" xmlns:xlink="http://www.w3.org/1999/xlink" x="0px" y="0px"
	 width="108px" height="108px" viewBox="0 0 108 108" style="enable-background:new 0 0 108 108;" xml:space="preserve">
<style type="text/css">
	.st0{fill:#FFFFFF;stroke:#000000;stroke-width:0.75;stroke-linecap:round;stroke-linejoin:round;stroke-miterlimit:10;}
	.st1{fill:none;stroke:#000000;stroke-width:0.75;stroke-linecap:round;stroke-linejoin:round;stroke-miterlimit:10;}
	.st2{fill:#E6E6E6;stroke:#000000;stroke-width:0.75;stroke-linecap:round;stroke-linejoin:round;stroke-miterlimit:10;}
</style>
<g>
	<path class="st0" d="M60.9,7.5c0.1,3.1-5.1,10.8-5.1,10.8h-1.3c0.6-0.9,5.2-8.3,5.2-10.7c0-2.4-2.2-4.8-4.6-4.9
		c-2.8-0.1-5,2.6-5,4.9c0,2.3,3.9,9.9,4.3,10.7H53c0,0-4.1-7.8-4.1-10.8c0-2.9,2.8-6.2,6.3-6.1C58.2,1.5,60.8,4.5,60.9,7.5z"/>
	<path class="st0" d="M54.5,18.3C54.5,18.3,54.4,18.3,54.5,18.3C54.4,18.3,54.4,18.3,54.5,18.3L54.5,18.3z"/>
	<line class="st1" x1="54.6" y1="25" x2="53.6" y2="82.7"/>
	<line class="st1" x1="54.6" y1="24.9" x2="53.6" y2="82.7"/>
	<rect x="52.7" y="18.4" class="st2" width="3.6" height="7.6"/>
	<path class="st0" d="M55,89.7h-2.8c0,0-5,7.7-5,10.8c-0.1,3.1,2.6,6,5.6,6.1c3.5,0.1,6.3-3.2,6.3-6.1C59,97.6,55,89.7,55,89.7z
		 M52.8,105.3c-2.4-0.1-4.5-2.2-4.5-4.7c0-2.4,5.2-10.8,5.2-10.8s4.3,8.3,4.3,10.6C57.9,102.8,55.6,105.4,52.8,105.3z"/>
	<rect x="51.7" y="82.1" class="st2" width="3.6" height="7.6"/>
</g>
</svg>
