<?xml version="1.0" encoding="utf-8"?>
<!-- Generator: Adobe Illustrator 21.1.0, SVG Export Plug-In . SVG Version: 6.00 Build 0)  -->
<svg version="1.1" id="Layer_1" xmlns="http://www.w3.org/2000/svg" xmlns:xlink="http://www.w3.org/1999/xlink" x="0px" y="0px"
	 width="108px" height="108px" viewBox="0 0 108 108" style="enable-background:new 0 0 108 108;" xml:space="preserve">
<style type="text/css">
	.st0{fill:#E6E6E6;stroke:#000000;stroke-width:0.75;stroke-linecap:round;stroke-linejoin:round;stroke-miterlimit:10;}
	.st1{fill:#FFFFFF;stroke:#000000;stroke-width:0.75;stroke-linecap:round;stroke-linejoin:round;stroke-miterlimit:10;}
	.st2{fill:#F2F2F2;}
	.st3{fill:#FFFFFF;}
	.st4{fill:none;stroke:#000000;stroke-width:0.75;stroke-linecap:round;stroke-linejoin:round;stroke-miterlimit:10;}
	.st5{fill:#999999;stroke:#000000;stroke-width:0.75;stroke-linecap:round;stroke-linejoin:round;stroke-miterlimit:10;}
	.st6{fill:#E6E6E6;}
	.st7{fill:#B3B3B3;}
	.st8{fill:#B3B3B3;stroke:#000000;stroke-width:0.5;stroke-linecap:round;stroke-linejoin:round;stroke-miterlimit:10;}
</style>
<g>
	<path class="st0" d="M63.4,100.9C63.4,100.9,63.4,100.9,63.4,100.9C63.4,100.9,63.4,100.9,63.4,100.9c-0.3-0.2-0.4-0.5-0.6-0.7
		c-0.6-1-0.8-2-0.8-3.3c-0.1-0.3-0.1-0.6-0.2-1l0.2,0.3c0.1-2.5,0.9-5.7,1.7-10.6c1.3-7.7,0.5-33.7-3.9-42.4c0-0.1,0-0.1-0.1-0.2
		c0-0.1-0.1-0.2-0.1-0.3c-0.1-0.2-0.2-0.4-0.3-0.5C54.7,35,39.2,29.9,37.5,29.4c-0.1,0-0.1,0-0.1,0c-0.1,0-0.2,0-0.3,0
		C35.8,29,25.6,26,18.7,23.8v0C19.2,23.9,28.6,34.6,30,58c0.8,13.3-3.4,23.4-3,25.9c0.5,3.1,9.3,8,16.8,11.1
		c7.1,2.9,20,6.7,21.6,7.2C64.6,101.8,63.9,101.4,63.4,100.9z M47.8,83.8c0,0.2-0.1,0.4-0.1,0.7c0,0,0,0.1,0,0.2
		c0,0.1,0,0.3-0.1,0.4c-0.1,0.5-0.2,1-0.4,1.5c-0.1,0.2-0.1,0.4-0.2,0.6c-0.1,0.3-0.2,0.6-0.3,0.8c-0.1,0.2-0.2,0.4-0.3,0.6
		c0,0,0,0.1-0.1,0.1c-0.1,0.2-0.2,0.3-0.2,0.5c0,0.1-0.1,0.1-0.1,0.2c-0.1,0.2-0.2,0.4-0.3,0.6c0,0,0,0,0,0c-0.4,0.6-0.8,1-1.2,1.3
		c-0.1,0.1-0.2,0.1-0.3,0.2c-0.2,0.1-0.5,0.2-0.7,0.3c-0.1,0-0.2,0-0.3,0c-0.1,0-0.2,0-0.2,0c-1.9-0.3-3-4.2-2.3-8.9
		c0.7-4.6,2.8-8.1,4.7-7.8c0.7,0.1,1.3,0.8,1.8,1.8v0c0,0,0,0.1,0,0.1c0.1,0.1,0.1,0.3,0.2,0.4c0.2,0.7,0.4,1.6,0.5,2.6
		c0,0.2,0,0.3,0,0.5C48,81.5,48,82.6,47.8,83.8z"/>
	<path class="st1" d="M47.2,76.8L47.2,76.8c-0.9,1.4-1.7,3.6-2.1,6.1c-0.4,2.8-0.2,5.4,0.5,7.1c-0.4,0.6-0.8,1-1.2,1.3
		c-0.1,0.1-0.2,0.1-0.3,0.2c-0.2,0.1-0.5,0.2-0.7,0.3c-0.1,0-0.2,0-0.3,0c-0.1,0-0.2,0-0.2,0c-1.9-0.3-3-4.2-2.3-8.9
		c0.7-4.6,2.8-8.1,4.7-7.8C46.2,75.1,46.8,75.8,47.2,76.8z"/>
	<path class="st1" d="M63.4,100.9c-0.2-0.2-0.4-0.4-0.5-0.7c-0.6-1-0.8-2-0.8-3.3c0.1,0.5,0.2,1,0.4,1.4c0,0,0,0.1,0,0.1
		c0,0.1,0,0.1,0.1,0.2c0,0.1,0.1,0.2,0.1,0.4c0,0,0,0.1,0.1,0.1c0.1,0.2,0.2,0.4,0.2,0.6c0.2,0.4,0.3,0.7,0.4,0.9c0,0,0,0.1,0,0.1
		c0,0,0,0,0,0C63.4,100.8,63.4,100.9,63.4,100.9z"/>
	<path class="st1" d="M63.4,100.9C63.4,100.9,63.4,100.9,63.4,100.9C63.4,100.9,63.4,100.9,63.4,100.9L63.4,100.9z"/>
	<path class="st2" d="M3.6,12.1c-0.1,1.4,0.4,2.8,0.9,3.9c1.3,2.7,4.7,4,8.7,5.7c1,0.5,3,1.2,5.5,2c6.9,2.2,17.2,5.2,18.5,5.6
		c0.1,0,0.2,0.1,0.3,0.1c0,0,0.1,0,0.1,0c0.4,0.1,0.5,0,0.5-0.1c0-0.7-3.1-3.3-1.6-5.7C25.1,20.4,14.1,16.7,3.6,12.1z"/>
	<path class="st3" d="M37.5,22.6c3.9-2.7,13.4-3,13.4-3S21.2,6.7,19,6.3S12.4,4.5,7.5,6.8c-2.9,1.3-3.9,3.4-3.9,5.4
		c10.5,4.5,21.5,8.2,32.9,11.5C36.7,23.3,37,22.9,37.5,22.6z"/>
	<path class="st4" d="M38.1,29.3c0,0.1-0.1,0.2-0.5,0.1c-0.1,0-0.1,0-0.1,0c-0.1,0-0.2,0-0.3-0.1C35.8,29,25.6,26,18.7,23.8
		c-2.4-0.8-4.4-1.5-5.5-2c-4-1.8-7.4-3.1-8.7-5.7S2.6,9,7.5,6.8S16.7,5.8,19,6.3s31.9,13.3,31.9,13.3s-9.5,0.3-13.4,3
		C33.9,25.1,38.1,28.5,38.1,29.3z"/>
	<path class="st1" d="M38.1,29.3c0,0.1-0.1,0.2-0.5,0.1c-0.1,0-0.1,0-0.1,0L38.1,29.3z"/>
	<polygon class="st1" points="102.5,22.4 100.5,22.6 100.5,22.6 91.9,22.1 98.5,21.2 	"/>
	<path class="st1" d="M63.4,100.9C63.4,100.9,63.4,100.9,63.4,100.9C63.4,100.9,63.4,100.9,63.4,100.9c-0.2-0.2-0.4-0.4-0.5-0.7
		c-0.6-1-0.8-2-0.8-3.3c0.1,0.5,0.2,1,0.4,1.4c0,0,0,0.1,0,0.1c0,0.1,0,0.1,0.1,0.2c0,0.1,0.1,0.2,0.1,0.4c0,0,0,0.1,0.1,0.1
		c0.1,0.2,0.2,0.4,0.2,0.6c0.2,0.4,0.3,0.7,0.4,0.9c0,0,0,0.1,0,0.1c0,0,0,0,0,0C63.4,100.8,63.4,100.9,63.4,100.9z"/>
	<path class="st1" d="M100.8,20.8L100.8,20.8l-2.6,0.3l-9.1,0.8l-3.7,0.3l-1.3-0.6L56,8.6l-0.2-0.1l13.3-1.3c0,0,26.6,11.1,31,13.3
		C100.3,20.6,100.5,20.7,100.8,20.8z"/>
	<path class="st1" d="M63.4,100.9C63.4,100.9,63.4,100.9,63.4,100.9C63.4,100.9,63.4,100.9,63.4,100.9L63.4,100.9z"/>
	<path class="st1" d="M47.2,76.8L47.2,76.8c-0.9,1.4-1.7,3.6-2.1,6.1c-0.4,2.8-0.2,5.4,0.5,7.1c-0.4,0.6-0.8,1-1.2,1.3
		c-0.1,0.1-0.2,0.1-0.3,0.2c-0.2,0.1-0.5,0.2-0.7,0.3c-0.1,0-0.2,0-0.3,0c-0.1,0-0.2,0-0.2,0c-1.9-0.3-3-4.2-2.3-8.9
		c0.7-4.6,2.8-8.1,4.7-7.8C46.2,75.1,46.8,75.8,47.2,76.8z"/>
	<path class="st1" d="M62,96.3c0,0.2,0,0.5,0,0.7c-0.1-0.3-0.1-0.6-0.2-1L62,96.3z"/>
	<path class="st1" d="M63.4,100.9c-0.2-0.2-0.4-0.4-0.5-0.7c-0.6-1-0.8-2-0.8-3.3c0.1,0.5,0.2,1,0.4,1.4c0,0,0,0.1,0,0.1
		c0,0.1,0,0.1,0.1,0.2c0,0.1,0.1,0.2,0.1,0.4c0,0,0,0.1,0.1,0.1c0.1,0.2,0.2,0.4,0.2,0.6c0.2,0.4,0.3,0.7,0.4,0.9c0,0,0,0.1,0,0.1
		c0,0,0,0,0,0C63.4,100.8,63.4,100.9,63.4,100.9z"/>
	<path class="st1" d="M65.5,102.1L65.5,102.1C65.5,102.1,65.5,102.1,65.5,102.1C65.5,102.1,65.5,102.1,65.5,102.1z"/>
	<path class="st5" d="M47.2,76.8L47.2,76.8c-0.9,1.4-1.7,3.6-2.1,6.1c-0.4,2.8-0.2,5.4,0.5,7.1c-0.4,0.6-0.8,1-1.2,1.3
		c-0.1,0.1-0.2,0.1-0.3,0.2c-0.2,0.1-0.5,0.2-0.7,0.3c-0.1,0-0.2,0-0.3,0c-0.1,0-0.2,0-0.2,0c-1.9-0.3-3-4.2-2.3-8.9
		c0.7-4.6,2.8-8.1,4.7-7.8C46.2,75.1,46.8,75.8,47.2,76.8z"/>
	<path class="st6" d="M101.9,23.8c-0.4-0.6-1.4-1.2-1.4-1.2h0l-15.3,1.6l-2.1-1l-4.3-2l-12.4-5.7C66,15.7,62,17.4,58.6,20
		c-0.6,0.4-1.1,0.9-1.7,1.5c11.4,5.9,23.3,9.6,35.1,13.4c1.1-0.6,2.3-1.4,3.7-2.2c3.8-2.3,5.7-3.5,6.6-5.4
		C103.4,25.4,102.2,24.4,101.9,23.8z"/>
	<path class="st6" d="M70.2,73.1c-0.3-3.4,0.3-10,0.8-13.4c0.4-2.8,1.5-6.7,2.7-9.5c-3.7-1.8-7.3-3.4-11-4.8
		c0.1,0.4,0.3,0.7,0.4,1.1c2.2,8.6,2.8,20.6,2.8,25.7c1.5,0.6,2.9,1.2,4.4,1.9C70.3,73.7,70.2,73.4,70.2,73.1z"/>
	<path class="st7" d="M70.3,74c-1.5-0.6-2.9-1.2-4.4-1.9c0,0.3,0,0.6,0,0.8c0,4.5,0,9.1-0.4,12c-0.5,3.6-1.7,9-1.8,11
		c-0.3,3.7,1.6,4.8,4,4.9c1.9,0,4.3-0.7,5-3c0.7-2.3-0.1-7.5-0.6-10.5C71.6,84.4,70.7,77.5,70.3,74z"/>
	<path class="st2" d="M56.9,21.5c-0.1,0.1-0.2,0.2-0.3,0.3c-1.7,1.7-3.3,3.8-4.6,5.6c-1.7,2.5-2.9,4.6-3,4.8l0,0
		c1.8,0.9,3.4,1.7,4.4,2.3c3.7,2.4,7.5,5.4,9.2,10.8c3.7,1.4,7.3,3,11,4.8c0.2-0.5,0.5-1,0.7-1.4c1.5-2.7,3.7-5.1,5.4-6.2
		c3-2.1,5.7-3.7,7.3-4.6c1.6-0.9,3.1-1.8,5-2.9C80.3,31.1,68.3,27.4,56.9,21.5z"/>
	<path class="st4" d="M102.4,27.3c-1,1.9-2.9,3.1-6.6,5.4c-3.7,2.3-6.2,3.7-8.7,5.1c-1.5,0.9-4.3,2.6-7.3,4.6
		c-1.7,1.2-3.8,3.5-5.4,6.2c-1.6,2.8-3,7.6-3.4,11c-0.5,3.5-1.1,10-0.8,13.4c0.3,3.1,1.3,11,1.9,14.1c0.5,3,1.3,8.2,0.6,10.5
		c-0.7,2.3-3.1,3-5,3c-2.4-0.1-4.3-1.2-4-4.9c0.1-2,1.3-7.4,1.8-11c0.4-2.9,0.4-7.5,0.4-12c0-4.5-0.6-17.4-2.9-26.5
		c-1.5-6.1-5.7-9.3-9.6-11.9c-1-0.7-2.6-1.5-4.4-2.3l0,0c0.1-0.2,1.3-2.3,3-4.8c1.3-1.9,2.9-4,4.6-5.6c0.6-0.6,1.3-1.2,2-1.7
		c3.4-2.6,7.4-4.3,7.8-4.5l12.4,5.7l4.3,2l2.1,1l15.3-1.6h0c0,0,1,0.7,1.4,1.2C102.2,24.4,103.4,25.4,102.4,27.3z"/>
	<path class="st8" d="M102.7,29.8C99.6,33.3,85.3,40.1,80,44.5c-6.1,5.1-8.1,15.1-8.3,24.8c-0.2,8,4,22.9,2.7,28.7
		c-1,4.2-5.7,5.1-8.8,4.1v0c0,0,0,0,0,0s-0.1,0-0.1,0c-0.8-0.3-1.5-0.7-2-1.2c0,0,0,0,0,0c0,0,0,0,0,0h0c0,0,0-0.1-0.1-0.1
		c0,0,0,0,0,0c0,0,0,0,0-0.1c-0.1-0.2-0.2-0.5-0.4-0.9c-0.1-0.2-0.2-0.4-0.2-0.6c0,0,0-0.1-0.1-0.1c0-0.1-0.1-0.2-0.1-0.4
		c0-0.1,0-0.1-0.1-0.2c0,0,0-0.1,0-0.1C62.2,98,62.1,97.5,62,97c0-0.2,0-0.5,0-0.7c0.1-2.5,0.9-5.7,1.7-10.7
		c1.3-7.7,0.5-33.7-3.9-42.4c0-0.1,0-0.1-0.1-0.2c0-0.1-0.1-0.2-0.1-0.3c-0.1-0.2-0.2-0.4-0.3-0.5C54.7,35,39.2,29.9,37.5,29.4
		c0.4,0.1,0.5,0,0.5-0.1c0-0.8-4.1-4.2-0.6-6.7c3.9-2.7,13.4-3,13.4-3l0.1,1.8c0,0-2.8,0.2-5.7,0.7c-2.1,0.4-4.3,0.9-5.1,1.2
		c-2.1,0.8-2.4,2.5-1.3,3.9c0.3,0.4,1.4,1,2.8,1.7c2,1,4.7,2.2,7.1,3.3c0.1,0,0.1,0.1,0.2,0.1c0,0,0,0,0,0c1.8,0.9,3.4,1.7,4.4,2.3
		c3.9,2.6,8.1,5.8,9.6,11.9c2.3,9.1,2.9,22,2.9,26.5c0,4.5,0,9.1-0.4,12c-0.5,3.6-1.7,9-1.8,11c-0.3,3.7,1.6,4.8,4,4.9
		c1.9,0,4.3-0.7,5-3c0.7-2.3-0.1-7.5-0.6-10.5c-0.5-3-1.6-11-1.9-14.1c-0.3-3.4,0.3-10,0.8-13.4c0.4-3.4,1.9-8.2,3.4-11
		c1.5-2.7,3.7-5.1,5.4-6.2c3-2.1,5.7-3.7,7.3-4.6c2.5-1.5,5-2.8,8.7-5.1c3.8-2.3,5.7-3.5,6.6-5.4c1-1.9-0.1-2.9-0.5-3.5
		c-0.2-0.2-0.8-0.7-1.4-1.2l-15.2,1.6l-2.1-1l-4.3-2l-12.4-5.7l-0.3-0.1l-10.5-4.9l-0.4-2.1L56,8.6l28.1,13l1.3,0.6l3.7-0.3l9.1-0.8
		l2.5-0.2l0.1-0.1C104.6,23.1,105.7,26.4,102.7,29.8z"/>
</g>
</svg>
