<?xml version="1.0" encoding="utf-8"?>
<!-- Generator: Adobe Illustrator 21.1.0, SVG Export Plug-In . SVG Version: 6.00 Build 0)  -->
<svg version="1.1" id="Layer_1" xmlns="http://www.w3.org/2000/svg" xmlns:xlink="http://www.w3.org/1999/xlink" x="0px" y="0px"
	 width="108px" height="108px" viewBox="0 0 108 108" style="enable-background:new 0 0 108 108;" xml:space="preserve">
<style type="text/css">
	.st0{fill:#808080;stroke:#000000;stroke-width:0.75;stroke-linecap:round;stroke-linejoin:round;stroke-miterlimit:10;}
	.st1{fill:#CCCCCC;stroke:#000000;stroke-width:0.75;stroke-linecap:round;stroke-linejoin:round;stroke-miterlimit:10;}
	.st2{fill:#F2F2F2;stroke:#000000;stroke-width:0.75;stroke-linecap:round;stroke-linejoin:round;stroke-miterlimit:10;}
	.st3{fill:#E6E6E6;stroke:#000000;stroke-width:0.75;stroke-linecap:round;stroke-linejoin:round;stroke-miterlimit:10;}
	.st4{fill:#E6E6E6;}
	.st5{fill:#CCCCCC;}
	.st6{fill:none;stroke:#000000;stroke-width:0.75;stroke-linecap:round;stroke-linejoin:round;stroke-miterlimit:10;}
	.st7{fill:#FFFFFF;}
	.st8{fill:#F2F2F2;}
	.st9{fill:#B3B3B3;stroke:#000000;stroke-width:0.75;stroke-linecap:round;stroke-linejoin:round;stroke-miterlimit:10;}
</style>
<g>
	<polygon class="st0" points="25.3,70.9 57,43.6 95.1,52.6 62.9,85 	"/>
	<path class="st1" d="M33.2,70.6c3.8,1.2,21.4,8.8,25.5,10.5c4.2,1.7,5.1-4.9,0-6.3C53.6,73.5,7.8,62.9,5.6,62.4
		c-2.3-0.5-4.2-2.3-1.9-5.4c2.3-3.1,65,15,65,15s0,10.2,0,12.2c0,2.1-1.3,5.6-7.7,3.3c-6.4-2.3-24-10.2-27-11.6
		c-3-1.3-4.6-1.1-6.1-0.2c-0.8,0.5-3.2,0.2-4.1-1.1c-0.6-0.8-0.6-2.4,1.1-3.5C28,69,30.2,69.6,33.2,70.6z"/>
	<polygon class="st2" points="3.7,57 68.6,72 105.4,33.5 47.1,19.7 	"/>
	<path class="st3" d="M67.5,87.3c0,0,32.2-31.5,35.2-34.5c3-3,2.2-5.7,2.2-8.2c0-2.6,0-10.6,0-10.6L68.6,72c0,0,0,10.9,0,12.2
		C68.6,85.6,67.5,87.3,67.5,87.3z"/>
	<path class="st4" d="M105,45.9c0-0.5,0-0.9,0-1.4c0-2.6,0-10.6,0-10.6L68.6,72c0,0,0,7,0,10.5C81.2,70.8,93.3,58.8,105,45.9z"/>
	<path class="st5" d="M68.6,82.5c0,0.9,0,1.5,0,1.8c0,1.4-1.2,3-1.2,3s32.2-31.5,35.2-34.5c2.5-2.5,2.4-4.7,2.3-6.9
		C93.3,58.8,81.2,70.8,68.6,82.5z"/>
	<path class="st6" d="M67.5,87.3c0,0,32.2-31.5,35.2-34.5c3-3,2.2-5.7,2.2-8.2c0-2.6,0-10.6,0-10.6L68.6,72c0,0,0,10.9,0,12.2
		C68.6,85.6,67.5,87.3,67.5,87.3z"/>
	<path class="st7" d="M65.1,31.6c-2.5-0.5-9.2-2.4-10-2.5c-1-0.2-2.4-0.1-3.5,0.5l-6.3,4.8c0,0,0,0,0,0l-1.3,1
		c-0.2,0.2-0.3,0.4-0.4,0.6c-0.1,0.1-0.1,0.2-0.2,0.3c0,0,0,0,0,0c-0.3,0.5-0.5,1.2-0.5,2c-0.1,3.9-0.5,8.4-0.5,10.1
		c0,0.3-0.1,0.6-0.3,0.9c0,0.1-0.1,0.2-0.1,0.2c-0.6,1-1.8,1.9-2.2,2.2l7.2,1.6c0,0-1-0.8-1-3.2c-0.1-2.4,0.2-8.2,0.2-9.3
		c0-1,0.9-3.8,3.6-3.3c2.7,0.5,4.9,1.3,6.6,1.6c0.8,0.1,1.4,0.5,1.7,1c3.3-2.3,6.1-5,9.6-7.2C67.2,32.4,66.4,31.9,65.1,31.6z"/>
	<path class="st8" d="M68.3,35.4c0-0.9-0.2-1.7-0.7-2.3c-3.4,2.1-6.3,4.8-9.6,7.2c0.3,0.5,0.4,1.2,0.4,2c0,0.6,0,2-0.1,3.5
		c3.3-2.6,7-4.7,9.9-7.3C68.4,37.2,68.3,36,68.3,35.4z"/>
	<path class="st4" d="M68.5,45.2c0-1.4,0-4.4-0.1-6.7c-2.9,2.6-6.6,4.8-9.9,7.3c-0.1,2.4-0.2,5.1-0.2,5.8c0,0.2-0.1,0.4-0.2,0.6
		c0,0.1-0.1,0.2-0.1,0.3c-0.1,0.2-0.2,0.3-0.3,0.5c-0.6,0.9-1.6,1.8-1.9,2.1c-0.1,0-0.1,0.1-0.1,0.1l7.7,1.7l0.4,0l7.6-8.5
		C71.4,48.3,68.5,47.4,68.5,45.2z"/>
	<path class="st6" d="M68.5,45.2c0-2.2-0.1-8-0.1-9.8c0-1.8-0.7-3.3-3.2-3.8c-2.5-0.5-9.2-2.4-10-2.5c-1-0.2-2.4-0.1-3.5,0.5
		l-6.3,4.8c0,0,0,0,0,0l-1.3,1c-0.2,0.2-0.3,0.4-0.4,0.6c-0.1,0.1-0.1,0.2-0.2,0.3c0,0,0,0,0,0c-0.3,0.5-0.5,1.2-0.5,2
		c-0.1,3.9-0.5,8.4-0.5,10.1c0,0.3-0.1,0.6-0.3,0.9c0,0.1-0.1,0.2-0.1,0.2c-0.6,1-1.8,1.9-2.2,2.2l7.2,1.6c0,0-1-0.8-1-3.2
		c-0.1-2.4,0.2-8.2,0.2-9.3c0-1,0.9-3.8,3.6-3.3c2.7,0.5,4.9,1.3,6.6,1.6c1.7,0.3,2.1,1.4,2.1,3s-0.2,8.2-0.2,9.3
		c0,0.2-0.1,0.4-0.2,0.6c0,0.1-0.1,0.2-0.1,0.3c-0.1,0.2-0.2,0.3-0.3,0.5c-0.6,0.9-1.6,1.8-1.9,2.1c-0.1,0-0.1,0.1-0.1,0.1l7.7,1.7
		l0.4,0l7.6-8.5C71.4,48.3,68.5,47.4,68.5,45.2z"/>
	<path class="st9" d="M49.9,37.7c-2.7-0.5-3.7,2.2-3.6,3.3c0.1,1-0.3,6.8-0.2,9.3c0.1,2.4,1,3.2,1,3.2l-7.2-1.6h0
		c-0.1,0-0.1,0.1-0.1,0.1l7.3,1.6l0.3-0.3l6.2-5.7c0,0-0.9-0.7-1-3c-0.1-1.4,0-4,0.1-6.1C53.1,38.6,51.4,38,49.9,37.7z"/>
	<path class="st1" d="M63.4,56.7L55.8,55l0,0c0,0,1.2-1,2-2.1c0.1-0.2,0.2-0.3,0.3-0.5c0.1-0.1,0.1-0.2,0.1-0.3
		c0.1-0.2,0.2-0.4,0.2-0.6c0-1.2,0.2-7.8,0.2-9.3s-0.4-2.7-2.1-3c-1.7-0.3-3.9-1-6.6-1.6c-2.7-0.5-3.7,2.2-3.6,3.3
		c0.1,1-0.3,6.8-0.2,9.3c0.1,2.4,1,3.2,1,3.2l-7.2-1.6h0l-0.1,0c0,0,1.5-1,2.3-2.2c0-0.1,0.1-0.2,0.1-0.2c0.2-0.3,0.3-0.7,0.3-1
		c0-1.7,0.4-6.3,0.4-10.1c0-0.8,0.2-1.4,0.4-1.9c0,0,0,0,0,0c0-0.1,0.1-0.2,0.2-0.3c0.4-0.7,1.1-1.3,1.8-1.6c0,0,0,0,0,0
		c1.1-0.5,2.5-0.6,3.5-0.4c0.9,0.2,7.2,1.5,9.8,2c2.6,0.5,3.4,2.1,3.4,4c0,1.9-0.1,10.2-0.1,12.5C61.9,54.7,63.4,56.7,63.4,56.7z"/>
</g>
</svg>
