<?xml version="1.0" encoding="utf-8"?>
<!-- Generator: Adobe Illustrator 21.1.0, SVG Export Plug-In . SVG Version: 6.00 Build 0)  -->
<svg version="1.1" id="Layer_1" xmlns="http://www.w3.org/2000/svg" xmlns:xlink="http://www.w3.org/1999/xlink" x="0px" y="0px"
	 width="108px" height="108px" viewBox="0 0 108 108" style="enable-background:new 0 0 108 108;" xml:space="preserve">
<style type="text/css">
	.st0{fill:#FFFFFF;stroke:#000000;stroke-width:0.75;stroke-linecap:round;stroke-linejoin:round;stroke-miterlimit:10;}
	.st1{fill:#E6E6E6;stroke:#000000;stroke-width:0.5;stroke-linecap:round;stroke-linejoin:round;stroke-miterlimit:10;}
	.st2{fill:#CCCCCC;stroke:#000000;stroke-width:0.5;stroke-linecap:round;stroke-linejoin:round;stroke-miterlimit:10;}
	.st3{fill:#B3B3B3;stroke:#000000;stroke-width:0.5;stroke-linecap:round;stroke-linejoin:round;stroke-miterlimit:10;}
	.st4{fill:#999999;stroke:#000000;stroke-width:0.5;stroke-linecap:round;stroke-linejoin:round;stroke-miterlimit:10;}
	.st5{fill:none;stroke:#000000;stroke-width:0.5;stroke-linecap:round;stroke-linejoin:round;stroke-miterlimit:10;}
</style>
<g>
	<path class="st0" d="M97.2,22.4c0.1,1.2-4.2-0.8-5.9-1.7c-1.7-0.9-13.2-4.8-13.2-4.8s2.1,1.6,3.5,2.7c1.3,1.1,5.7,6.2,7.1,9.5
		c1.5,3.4,4.1,7.8,3.5,19.3c-0.6,11.9-4,17.4-5.5,20.4c-1.5,3-10.7,22-13.6,28.2c-2.8,6.2-4.9,6.4-6.2,5.8c0,0-0.1,0-0.1-0.1
		c-1.2-0.7-1.5-2.2-1.2-3.1c0.3-0.9,6.5-13.9,7-14.8c-0.3,0.4-2.2,3.3-3.9,5.5c-0.4,0.5-0.8,1.1-1.2,1.5C65.4,93,60,97.5,58,98.5
		c-0.2,0.1-0.4,0.2-0.5,0.2c-0.1,0-0.3,0.1-0.4,0.1c-0.2,0.1-0.3,0.1-0.5,0.1c-0.1,0-0.3,0-0.4,0.1c-0.1,0-0.2,0-0.3,0
		c-2.3,0.2-4.3-0.9-5.7-1.7c-2.8-1.6-3.8-5.4-3-8.5c0.6-2.6,5.3-6.8,5.7-6.5c0,0,0.1,0.2,0.1,0.4v0c0,0.1,0,0.2,0.1,0.4
		c0,0.1,0,0.2,0,0.4c0,0.1,0,0.3,0,0.4c0,0.4,0,0.8,0,1.2c0,1.4,0,2.8,0,2.8s-1,1.2-1,1.9c0,0.8,0.7,1.7,1.9,1.7
		c1.2,0,1.7-0.9,1.7-1.8c0-0.7-1-1.8-1-1.8s0,0,0,0c0-0.1,0-0.9,0-1.8c0-0.9,0-1.9,0-2.8c0-1.1,0.1-2,0.2-2.1
		c0.2-0.1,7.6-4.1,7.6-4.1c14.4-8.8,16.5-14.5,18.4-18.9c1.6-3.7,3.3-12.8,2.5-17.7c-0.8-4.9-0.8-9-7.9-17c-5.1-5.7-14-8.3-20-9.4
		c-1.4-0.2-2.6-0.4-3.6-0.5c-0.3,0-0.6-0.1-0.9-0.1c0,0-0.1,0-0.1,0c-0.1,0-0.2,0-0.3,0c-0.4,0-0.7-0.1-0.9-0.1
		c-2.7-0.2-11,1-14.4,2.1c-3.4,1.1-12.1,5.3-13,6.3c-0.8,1-0.7,2.9-0.3,4.3c0.3,1.1-0.2,2.1-1.1,2.6c-0.1,0-0.1,0.1-0.2,0.1
		c-0.1,0-0.2,0.1-0.2,0.1c-0.1,0-0.2,0.1-0.4,0.1c0,0,0,0-0.1,0c-1.5,0.2-3.8-1.5-4.8-2.7c-1-1.3-1.3-2.6-0.6-3.8
		c0.7-1.2,3.2-4,5.3-5.4c2.2-1.5,9.9-5.3,13.5-6.3c3.2-0.9,13.3-2.8,17.3-3.5c0,0,0.1,0,0.1,0c0.2,0,0.5-0.1,0.7-0.1
		c0.4-0.1,0.7-0.1,0.8-0.1c1.4,0,5.2-0.2,5.7-0.7C58.7,6.1,58.9,6,60,6c1.1,0.1,1.5,1,1.5,1s0.4,0.6,0.7,0.6c0.3,0,3.9,0.2,5,0.2
		c1.1,0,2,0.2,2.3-0.2c0.3-0.3,0.7-0.9,1.2-0.9c0.5,0,1,0.2,1.3,0.8s0.9,1.8,2,2.1c1.1,0.3,4.3,1.2,9.9,3.3
		C89.4,14.9,97,21.2,97.2,22.4z"/>
	<path class="st1" d="M50.9,7.5L50.9,7.5c-4,0.7-14.1,2.6-17.3,3.5c-3.6,1-11.4,4.8-13.5,6.3c-2.1,1.5-4.6,4.2-5.3,5.4
		c-0.7,1.2-0.3,2.5,0.6,3.8c0.9,1.3,3.2,2.9,4.8,2.7c0,0,0,0,0.1,0v0c-0.9,0.4-3.3,0.5-4.4,0.1c-1.2-0.4-3.6-1.8-4.3-3.5
		c-0.7-1.8-2.6-4.1,7.7-11.1C29.4,7.6,50.9,7.5,50.9,7.5z"/>
	<path class="st2" d="M55.9,99c-2.5,0.3-5.4,0.6-8.7-2.2c-3.3-2.9-2.2-8.3-1.1-10.4c1.2-2.3,6-6,6.5-5.9c0.4,0.1,0.4,1.7,0.4,2.3
		c0-0.2-0.1-0.3-0.1-0.4c-0.4-0.3-5.1,3.9-5.7,6.5c-0.8,3.1,0.3,6.9,3,8.5C51.6,98.1,53.6,99.2,55.9,99z"/>
	<path class="st3" d="M80.9,58.4c-1.9,4.4-4.1,10.1-18.4,18.9c0,0-7.3,4-7.6,4.1c-0.1,0-0.1,0.9-0.2,2.1h0l0.1-4.1
		c0.9-0.5,0.5-0.3,1.3-0.6c5.7-2.6,13.2-8.4,15.3-10.8c4-4.5,5.2-5.4,7.1-9.8c1.7-4.1,3.8-12.3,0.8-24.1
		c-2.9-11.5-23.8-19.7-23.8-19.7l0,0c6,1.1,14.9,3.6,20,9.4c7.1,8,7.1,12,7.9,17C84.2,45.6,82.5,54.7,80.9,58.4z"/>
	<path class="st4" d="M66.6,101.7L66.6,101.7c0,0-2.5,0-2.8-1.6c-0.3-1.5,1.1-4.2,2.4-6.4c1.2-2,2.2-4.1,2.3-4.4l0,0
		c1.7-2.2,3.6-5.1,3.9-5.5c-0.5,1-6.7,13.9-7,14.8C65.2,99.5,65.4,101,66.6,101.7z"/>
	<line class="st0" x1="54.8" y1="83.4" x2="54.8" y2="83.4"/>
	<path class="st0" d="M53.1,82.7c0,0.1,0,0.2,0,0.2"/>
	<path class="st0" d="M68.5,89.3C68.5,89.3,68.5,89.3,68.5,89.3"/>
	<g>
		<line class="st5" x1="61.7" y1="7.2" x2="63.8" y2="94.1"/>
		<line class="st5" x1="62.7" y1="7.3" x2="64.7" y2="93.2"/>
		<line class="st5" x1="63.4" y1="7.4" x2="65.4" y2="92.8"/>
		<line class="st5" x1="64.5" y1="7.4" x2="66.5" y2="91.9"/>
		<line class="st5" x1="65.4" y1="7.4" x2="67.4" y2="91.1"/>
		<line class="st5" x1="66.1" y1="7.5" x2="68.1" y2="90.1"/>
		<line class="st5" x1="66.8" y1="7.5" x2="68.8" y2="88.7"/>
		<line class="st5" x1="68.2" y1="7.6" x2="70.1" y2="87.6"/>
		<line class="st5" x1="69.4" y1="8.1" x2="71.2" y2="86.3"/>
		<line class="st5" x1="70.2" y1="6.9" x2="71.9" y2="85"/>
		<line class="st5" x1="71.1" y1="7" x2="72.6" y2="84.1"/>
		<line class="st5" x1="60.7" y1="76.1" x2="59.6" y2="15.5"/>
		<line class="st5" x1="61.5" y1="75.9" x2="60.4" y2="15.6"/>
		<line class="st5" x1="62.7" y1="75.1" x2="61.3" y2="15.3"/>
	</g>
	<path class="st0" d="M21,28.9c-0.1,0-0.1,0.1-0.2,0.1"/>
	<path class="st0" d="M51.9,13.8c-0.3,0-0.6-0.1-0.9-0.1"/>
	<path class="st0" d="M54.8,88c0-0.1,0-0.9,0-1.8"/>
	<path class="st0" d="M53.2,85.2c0-0.4,0-0.9,0-1.2c0-0.1,0-0.3,0-0.4"/>
	<path class="st0" d="M53.1,83.1c0-0.2,0-0.3-0.1-0.4"/>
	<path class="st0" d="M57.5,98.7c-0.1,0-0.3,0.1-0.4,0.1"/>
</g>
</svg>
