<?xml version="1.0" encoding="utf-8"?>
<!-- Generator: Adobe Illustrator 21.1.0, SVG Export Plug-In . SVG Version: 6.00 Build 0)  -->
<svg version="1.1" id="Layer_1" xmlns="http://www.w3.org/2000/svg" xmlns:xlink="http://www.w3.org/1999/xlink" x="0px" y="0px"
	 width="108px" height="108px" viewBox="0 0 108 108" style="enable-background:new 0 0 108 108;" xml:space="preserve">
<style type="text/css">
	.st0{fill:#FFFFFF;stroke:#000000;stroke-width:0.75;stroke-linecap:round;stroke-linejoin:round;stroke-miterlimit:10;}
	.st1{fill:#CCCCCC;stroke:#000000;stroke-width:0.75;stroke-linecap:round;stroke-linejoin:round;stroke-miterlimit:10;}
	.st2{fill:#F2F2F2;stroke:#000000;stroke-width:0.75;stroke-linecap:round;stroke-linejoin:round;stroke-miterlimit:10;}
	.st3{fill:#E6E6E6;stroke:#000000;stroke-width:0.75;stroke-linecap:round;stroke-linejoin:round;stroke-miterlimit:10;}
	.st4{fill:none;stroke:#000000;stroke-width:0.75;stroke-linecap:round;stroke-linejoin:round;stroke-miterlimit:10;}
	.st5{fill:#999999;stroke:#000000;stroke-width:0.75;stroke-linecap:round;stroke-linejoin:round;stroke-miterlimit:10;}
	.st6{fill:#B3B3B3;stroke:#000000;stroke-width:0.75;stroke-linecap:round;stroke-linejoin:round;stroke-miterlimit:10;}
</style>
<g>
	<path class="st0" d="M28.5,46.7c-1.5,2.7-3,5.4-4.5,8.1c-0.8,0.2-1.6,0.4-2.4,0.6c-0.6,0.1-1.5,0.5-2.1,0.5
		c-1.1-0.1-2.5-0.9-3.5-1.3c-3.3-1.2-6.5-2.4-9.8-3.6c3.9-1,7.9-2,11.8-3c2.3-0.6,4.6-1.2,7-1.8c0.4-0.1,0.9-0.3,1.3-0.3
		C26.9,45.9,27.8,46.5,28.5,46.7z"/>
	<path class="st1" d="M50,66.4c0,0.5-0.1,1-0.3,1.4c-0.7,1.6-2.5,1.5-4,1.9c-1.8,0.4-3.6,0.9-5.3,1.3c1.2-1,1.9-2.4,2-3.9
		c0.1-0.6,0.6-1.1,1.1-1.3c1.6-0.5,3.2-0.8,4.8-1.1c0.4-0.1,0.7-0.1,0.9-0.1c0.4,0,0.6,0.2,0.8,0.9C50,65.7,50,66,50,66.4z"/>
	<path class="st2" d="M49.5,64.4l-0.4,0.1c-0.2,0-0.5,0.1-0.9,0.1c-1.6,0.3-3.2,0.7-4.8,1.1c-0.6,0.2-1,0.7-1.1,1.3
		c-0.1,1.6-0.8,3-2,3.9c-2.9-0.6-5.8-1.3-8.7-1.9c-2.2-0.5-4.6-0.8-6.8-1.5c-1.9-0.6-3.8-1.5-5.7-2.2c-5.2-2-10.3-4-15.5-6.1
		c-3.5-2.5-1.7-8,2.5-8.2c3.3,1.2,6.5,2.4,9.8,3.6c1,0.4,2.4,1.2,3.5,1.3c0.6,0,1.5-0.4,2.1-0.5c0.8-0.2,1.6-0.4,2.4-0.6
		c1.5-2.7,3-5.4,4.5-8.1c0,1,0.3,2.4,0,3.3c-0.1,0.3-0.3,0.7-0.5,1c-0.3,0.5-0.8,1.1-1.1,1.6c-0.7,1.1-1.3,2.3-2,3.4
		c-0.1,0.1-0.1,0.2-0.2,0.3c-0.3,0.4-0.5,0.4-1.1,0.6c-0.5,0.1-1,0.3-1.5,0.5c-1.1,0.4-2.4,0.8-3.4,0.4c-0.3-0.1-0.6-0.2-1-0.3
		c-3.8-1.3-7.5-2.6-11.3-3.9c-2.1,0-3,2.8-1.2,3.9c5.4,2,10.8,4.1,16.1,6.1c1.5,0.6,3.1,1.3,4.7,1.7c3,0.8,6.1,1.4,9.2,2
		c1.1,0.3,5.4,2,5.3-0.5c0-0.5,0.1-0.9,0.4-1.3c0.2-0.3,0.5-0.6,0.8-0.8c0.2-0.1,0.5-0.2,0.7-0.3c1.3-0.4,2.6-0.7,3.9-0.9
		c0.7-0.1,1.4-0.2,2.1-0.3c0.2,0.1,0.5,0.3,0.7,0.5C49.2,64,49.4,64.2,49.5,64.4z"/>
	<path class="st3" d="M40.8,65.6c-0.2,0.4-0.4,0.8-0.4,1.3c0,2.6-4.2,0.8-5.3,0.5c-3.1-0.7-6.2-1.3-9.2-2c-1.6-0.4-3.1-1.1-4.7-1.7
		c-5.4-2.1-10.8-4.1-16.1-6.1c-1.8-1.2-0.9-4,1.2-3.9c3.8,1.3,7.5,2.6,11.3,3.9c5.5,3.3,11.5,5.7,17.8,7.2
		C37.2,65.1,39,65.4,40.8,65.6L40.8,65.6z"/>
	<path class="st4" d="M22,57.4c0,0-0.1,0-0.1,0"/>
	<path class="st4" d="M83.4,60.7c-0.2,0.1-0.5,0.2-0.7,0.2"/>
	<line class="st4" x1="28" y1="51.1" x2="27.9" y2="51.1"/>
	<path class="st5" d="M73.6,62.1L73.6,62.1c0,3.2-1.3,6.1-3.4,8.5c-4.9,3-11.3,0.9-13.4-4.4v0c0.3,0,0.5-0.1,0.8-0.1l2.6-0.6
		c1,1.4,2.4,2.3,4,2.5c2.8,0.3,5.1-1.8,5.4-4.8L73.6,62.1z"/>
	<path class="st4" d="M53.2,60.4c-0.3,0.1-0.5,0.1-0.8,0.2"/>
	<path class="st4" d="M85.6,45.6c0,0-0.1,0-0.1,0"/>
	<path class="st2" d="M84.5,55.9c-0.6-1-2-1.7-3.1-1.9c-0.1-0.8,0.1-1.5,0.5-2.1c0,0,0,0,0,0l-18.2-6.3c-5-0.9-9.9-0.8-14.9,0.3
		L28,51.1c-0.3,0.5-0.8,1.1-1.1,1.6c-0.7,1.1-1.3,2.3-2,3.4c-0.1,0.1-0.1,0.2-0.2,0.3l0,0c5.3,2.5,10.8,4.6,16.5,6
		c1.7,0.4,3.4,0.8,5.1,1.2v0c0.7-0.1,1.4-0.2,2.1-0.3c0.2,0.1,0.5,0.3,0.7,0.5c5.8,0.7,11.4-0.6,17-1.8c2.9-0.6,5.8-1.3,8.7-2.1
		c1.5-0.4,2.9-0.8,4.3-1.3c0.6-0.2,1.5-0.7,2.2-0.7c0.6,0,1.1,0.5,1.8,0.5C84.2,58.3,85.3,57.2,84.5,55.9z M71.5,56.1
		c-1.4,0.3-2.9,0.7-4.3,1c-0.2,0-0.5,0.1-0.7,0.2c-0.9,0.2-1.8,0.4-2.6,0.6c-1.5,0.4-3.1,0.7-4.6,1.1c-0.1,0-0.1,0-0.2,0
		c-1.3,0.3-2.6,0.6-3.9,0.9c-0.6,0.2-1.3,0.3-1.9,0.5v0c-0.3,0.1-0.5,0.1-0.8,0.2c-2.5,0.5-5.3,0-7.8-0.6c-2.5-0.6-5.1-1.4-7.3-2.8
		c-0.3-0.1-0.6-0.3-0.9-0.6c-0.7-0.5-1.4-1.2-1.5-1.9c-0.1-1.1,1.2-1.4,2-1.6c6-1.6,12.1-3.3,18.1-4.9c6.6,2.3,13.2,4.6,19.8,7
		C74.3,55.9,72.3,55.9,71.5,56.1z"/>
	<path class="st6" d="M46.2,63.6L46.2,63.6c-1.3,0.3-2.6,0.5-3.9,0.9c-0.3,0.1-0.5,0.2-0.7,0.3l0,0C35,62.7,28.4,60.2,22,57.4
		c0.5-0.2,1-0.4,1.5-0.5c0.7-0.2,0.9-0.2,1.1-0.6l0,0c5.3,2.5,10.8,4.6,16.5,6C42.8,62.9,44.5,63.2,46.2,63.6z"/>
	<path class="st6" d="M74.9,55.2c-0.6,0.7-2.6,0.7-3.4,0.9c-1.4,0.3-2.9,0.7-4.3,1c-0.8-0.7-1.9-1.2-3-1.3c-2.3-0.3-4.2,1.1-5,3.2
		c-0.1,0-0.1,0-0.2,0c-1.3,0.3-2.6,0.6-3.9,0.9v-8.5c0-0.4-0.4-0.7-0.8-0.7c-3.5,0.9-7,1.9-10.5,2.8c-2.6,0.7-5.4,1.1-7.4,3l0,0
		c-0.7-0.5-1.4-1.2-1.5-1.9c-0.1-1.1,1.2-1.4,2-1.6c6-1.6,12.1-3.3,18.1-4.9C61.7,50.6,68.3,52.9,74.9,55.2z"/>
	<path class="st1" d="M86.5,57c-0.2,1.7-1.4,3.1-3,3.7c0,0,0,0,0,0l0,0l-0.7,0.2c-0.6,0.1-1.2-0.2-1.5-0.6l-7.6,1.8l-4.1,1l-0.3,0.1
		l-8,2l-1,0.3L57.6,66c-0.3,0-0.5,0.1-0.8,0.1c-2.3,0.4-4.5,0.5-6.8,0.3c0-0.3,0-0.6-0.1-1c-0.2-0.7-0.4-0.9-0.8-0.9l0.4-0.1
		c-0.1-0.2-0.3-0.5-0.5-0.6c5.8,0.7,11.4-0.6,17-1.8c2.9-0.6,5.8-1.3,8.7-2.1c1.5-0.4,2.9-0.8,4.3-1.3c0.6-0.2,1.5-0.7,2.2-0.7
		c0.6,0,1.1,0.5,1.8,0.5c1.3,0,2.4-1.1,1.6-2.4c-0.6-1-2-1.7-3.1-1.9c-0.1-0.8,0.1-1.5,0.5-2.1C84.4,52.4,86.3,54.4,86.5,57z"/>
	<path class="st0" d="M106.2,53.3c-0.4,0.9-1.2,1.6-2.2,1.9l-20.5,5.5c1.6-0.6,2.7-2,3-3.7c-0.2-2.5-2.1-4.6-4.5-5.1c0,0,0,0,0,0
		c0.4-0.7,0.8-1.4,1.3-2.2c0.3-0.5,0.6-1.1,0.9-1.6c0.2-0.4,0.4-0.7,0.6-1.1c0.2-0.4,0.4-0.9,0.7-1.4c0.2-0.3,0.4-0.6,0.6-0.8
		c0.4-0.3,1.2-0.4,1.7-0.5c1.3-0.3,2.9-1.2,4.2-0.7c2.1,0.7,4.1,1.5,6.2,2.2c1.8,0.6,3.5,1.3,5.3,1.9
		C105.4,48.8,106.5,51,106.2,53.3z"/>
	<path class="st3" d="M84.1,48c-0.3,0.5-0.6,1.1-0.9,1.6c-6.2-1.8-12.1-4.3-17.8-7.5c-1.1-1.3-1.3-3.2-0.7-4.7
		c-0.2,1.3,0.4,2.6,1.4,3.4C71.9,43.8,77.9,46.2,84.1,48z"/>
	<path class="st0" d="M85.5,45.6c-0.3,0.5-0.5,1-0.7,1.4c-0.2,0.3-0.4,0.7-0.6,1.1c-6.3-1.8-12.3-4.2-18-7.3c-1-0.8-1.5-2.1-1.4-3.4
		l4.8-1.3c-0.3,1.8,0.9,2.6,2.2,3.5c1.5,0.9,2.9,1.8,4.5,2.6C79.2,43.6,82.3,44.7,85.5,45.6z"/>
</g>
</svg>
