<?xml version="1.0" encoding="utf-8"?>
<!-- Generator: Adobe Illustrator 21.1.0, SVG Export Plug-In . SVG Version: 6.00 Build 0)  -->
<svg version="1.1" id="Layer_1" xmlns="http://www.w3.org/2000/svg" xmlns:xlink="http://www.w3.org/1999/xlink" x="0px" y="0px"
	 width="108px" height="108px" viewBox="0 0 108 108" style="enable-background:new 0 0 108 108;" xml:space="preserve">
<style type="text/css">
	.st0{fill:#FFFFFF;stroke:#000000;stroke-width:0.75;stroke-linecap:round;stroke-linejoin:round;stroke-miterlimit:10;}
</style>
<path class="st0" d="M33.9,100c-0.4,0-0.7-0.3-0.7-0.7l-7.4-44.6c-0.5-1.4-0.6-4.8,2.5-6.1c0.5-0.2,1-0.2,1.5,0
	c1.7,0.7,2.9,3.7,4,6.5c0.6,1.5,1.5,3.6,2,4c1.4-0.8,1.2-2.5,1.2-2.6l-4.5-14c-0.7-2.6-1.1-5.2-1.1-7.8C31.3,20,42.8,8,56.9,8
	s25.6,12,25.6,26.8c0,2.6-0.4,5.3-1.1,7.8c-0.1,0.4-0.5,0.6-0.9,0.5c-0.4-0.1-0.6-0.5-0.5-0.9c0.7-2.4,1.1-4.9,1.1-7.4
	C81,20.8,70.2,9.5,56.9,9.5S32.8,20.8,32.8,34.8c0,2.5,0.4,5,1.1,7.4l4.5,14.1c0,0.2,0.4,3.1-2.1,4.3c-0.3,0.2-0.7,0.2-1,0.1
	c-1-0.4-1.8-2-2.9-4.9c-0.9-2.2-2.1-5.3-3.2-5.7c-0.1-0.1-0.2-0.1-0.4,0c-2.6,1.1-1.7,4.3-1.6,4.4l7.4,44.7
	C34.7,99.6,34.4,100,33.9,100C33.9,100,33.9,100,33.9,100z"/>
</svg>
