<?xml version="1.0" encoding="utf-8"?>
<!-- Generator: Adobe Illustrator 21.1.0, SVG Export Plug-In . SVG Version: 6.00 Build 0)  -->
<svg version="1.1" id="Layer_1" xmlns="http://www.w3.org/2000/svg" xmlns:xlink="http://www.w3.org/1999/xlink" x="0px" y="0px"
	 width="108px" height="108px" viewBox="0 0 108 108" style="enable-background:new 0 0 108 108;" xml:space="preserve">
<style type="text/css">
	.st0{fill:#FFFFFF;}
	.st1{fill:#E6E6E6;}
	.st2{fill:#F2F2F2;}
	.st3{fill:#CCCCCC;}
	.st4{fill:none;stroke:#000000;stroke-width:0.75;stroke-linecap:round;stroke-linejoin:round;stroke-miterlimit:10;}
</style>
<g>
	<g>
		<g>
			<path class="st0" d="M56.8,29.4c0,0,0,0,0.1-0.1c0.7-1.1,6.2-10.5,6-14c-0.2-3.7-2.2-9.5-8.9-9.5c-8,0-9.5,6.2-9.1,10.7
				c2.3,3.5,5.6,8,9.5,12.9H56.8z M53.8,10.5c2.8,0,4.3,2.6,4.1,5c-0.2,2.4-4.1,8-4.1,8s-3.3-5-3.9-6.7
				C49.2,15.1,50.1,10.5,53.8,10.5z"/>
			<path class="st1" d="M44.9,16.5c0,0,0,0.1,0,0.1c0.3,3.5,5.2,11.7,5.8,12.7c0,0.1,0.1,0.1,0.1,0.1h3.6
				C50.5,24.4,47.2,20,44.9,16.5z"/>
		</g>
		<g>
			<path class="st0" d="M56.8,29.4c0,0,0,0,0.1-0.1c0-0.1-0.1-0.1-0.1-0.1h-2.9c0.1,0.1,0.1,0.1,0.2,0.2H56.8z"/>
			<path class="st0" d="M53.9,29.2h-3.1c0,0,0,0-0.1,0.1c0,0.1,0.1,0.1,0.1,0.1H54C54,29.3,53.9,29.3,53.9,29.2z"/>
		</g>
		<g>
			<path class="st1" d="M59.9,44.5c-0.6-0.5-1.3-1-2.1-1.4c-1-0.5-2.2-0.7-3.7-0.7c-1.8,0-3.4,0.3-4.6,0.9c0,0.7,0.1,1.4,0.3,2
				C53.1,43.9,56.7,43.3,59.9,44.5z"/>
			<path class="st0" d="M59.9,44.5c-3.3-1.2-6.8-0.6-10,0.8c0.4,1,1.1,1.9,2.1,2.4c0.5-0.3,1.2-0.5,1.9-0.5c0.6,0,1.2,0.1,1.7,0.3
				c1.7,0.7,2.5,2.6,2.5,4.4c0,0.1,0,0.2,0,0.3c-0.2,2.4-4.1,8-4.1,8s-3.3-5-3.9-6.7c-0.1-0.3-0.2-0.8-0.2-1.2l0-0.1
				c-2.1-0.9-3.4-2.5-4.2-4.3l-0.2,0.2c-0.6,1.7-0.7,3.6-0.5,5.2c0,0.4,0.2,0.9,0.3,1.5c2.1,3.1,4.9,6.9,8.2,11.1H57
				c0,0,0,0,0.1,0.1c0.7-1.1,6.2-10.5,6-14c-0.1-1.4-0.4-3-1.1-4.5C61.5,46.4,60.9,45.3,59.9,44.5z"/>
			<path class="st1" d="M45.4,54.8c1.1,3.9,4.9,10.3,5.5,11.2c0-0.1,0.1-0.1,0.1-0.1h2.6C50.3,61.7,47.5,57.9,45.4,54.8z"/>
			<path class="st0" d="M57,66.1c0,0,0,0,0.1-0.1c0-0.1-0.1-0.1-0.1-0.1h-3.5c0.1,0.1,0.1,0.1,0.2,0.2H57z"/>
			<path class="st0" d="M53.6,65.9H51c0,0,0,0-0.1,0.1c0,0.1,0.1,0.1,0.1,0.1h2.8C53.7,66,53.6,65.9,53.6,65.9z"/>
			<path class="st1" d="M56.9,29.3c0,0.1-0.1,0.1-0.1,0.1H54c2.5,3.2,5.2,6.5,7.9,10C60.6,35.5,57.4,30.1,56.9,29.3z"/>
			<path class="st2" d="M57.8,49.9c-0.4-1-1.1-1.9-2.1-2.4l0,0.1c-0.5,0.3-1.1,0.5-1.9,0.5c-0.6,0-1.2-0.1-1.7-0.4
				c-1.4-0.6-2.2-2-2.4-3.5c-1.5-0.9-3-2.4-4.2-4.5c-0.5,1.4-0.9,2.7-0.8,3.6c0,0,0,0,0,0C46.7,48,50.5,51.5,57.8,49.9z"/>
			<path class="st3" d="M44.7,43.3c0.1,1.4,0.4,3,1.1,4.6c0.8,1.8,2.1,3.4,4.2,4.3h0c1,0.4,2.2,0.7,3.6,0.7c1.8,0,3.4-0.3,4.6-0.9
				c0-0.7-0.1-1.4-0.3-2C50.5,51.5,46.7,48,44.7,43.3z"/>
			<path class="st0" d="M62.7,42c-0.1-0.7-0.3-1.6-0.7-2.6c-2.8-3.4-5.5-6.8-7.9-10h-3.3c0,0,0,0-0.1-0.1c-0.5,0.8-3.7,6.2-5.2,10.4
				c1.2,2.2,2.7,3.6,4.2,4.5c0-0.3-0.1-0.6,0-0.9c0-0.1,0-0.2,0-0.2c0.2-2.4,4.1-8,4.1-8s3.3,5,3.9,6.7c0.1,0.4,0.2,0.8,0.2,1.4
				c2,0.9,3.3,2.5,4.1,4.3l0.1-0.2C62.7,45.5,62.8,43.6,62.7,42z"/>
		</g>
		<g>
			<path class="st0" d="M53.6,65.9H51c0,0,0,0-0.1,0.1c0,0.1,0.1,0.1,0.1,0.1h2.8C53.7,66,53.6,65.9,53.6,65.9z"/>
			<path class="st0" d="M57,66.1c0,0,0,0,0.1-0.1c0-0.1-0.1-0.1-0.1-0.1h-3.5c0.1,0.1,0.1,0.1,0.2,0.2H57z"/>
			<path class="st1" d="M57.1,65.9c0,0.1-0.1,0.1-0.1,0.1h-3.3c2.7,3.5,5.7,7.3,8.8,11.1C61.4,73.2,57.6,66.8,57.1,65.9z"/>
			<path class="st3" d="M58.3,87c-7.2,1.8-11-1.2-13.2-5.6c0.2,0.9,0.4,1.9,0.8,2.9c0.8,1.9,2.1,3.6,4.3,4.6c1,0.5,2.2,0.7,3.7,0.7
				c1.8,0,3.3-0.3,4.5-0.9c0-0.1,0-0.2,0-0.2C58.4,87.9,58.4,87.4,58.3,87z"/>
			<path class="st2" d="M45.5,76.9c-0.4,1.2-0.7,2.3-0.6,3c0,0.4,0.1,0.9,0.2,1.4c2.2,4.4,6,7.4,13.2,5.6c-0.2-1.3-1-2.5-2.1-3.1
				l-0.1,0.2c-0.6,0.4-1.3,0.6-2.1,0.6c-0.7,0-1.4-0.2-1.9-0.5c-1-0.5-1.7-1.5-2-2.6C48.4,80.8,46.8,79.2,45.5,76.9z"/>
			<path class="st0" d="M62.9,78.7c0-0.4-0.2-0.9-0.3-1.5c-3.1-3.8-6.1-7.6-8.8-11.1H51c0,0,0,0-0.1-0.1c-0.5,0.9-4,6.7-5.4,10.9
				c1.3,2.3,2.9,3.8,4.6,4.7c-0.2-0.6-0.3-1.3-0.2-1.9c0-0.1,0-0.2,0-0.2c0.4-2.5,4.1-7.8,4.1-7.8s3.3,5,3.9,6.7
				c0.1,0.3,0.2,0.3,0.2,0.8l0,0.1c2.2,0.9,3.5,2.7,4.3,4.5l0.1-0.1C63,82,63,80.2,62.9,78.7z"/>
		</g>
		<g>
			<path class="st1" d="M59.7,80.3c-0.5-0.4-1-0.7-1.6-1c-1-0.4-2.2-0.7-3.6-0.7c-1.8,0-3.3,0.3-4.5,0.9c0,0.1,0,0.2,0,0.2
				c0,0.5,0,1,0.1,1.4C53.1,79.8,56.5,79.2,59.7,80.3z"/>
			<path class="st0" d="M59.7,80.3c-3.2-1.1-6.6-0.5-9.7,0.9c0.2,1.3,1,2.4,2.1,3.1l0.1-0.3c0.6-0.4,1.2-0.6,2.1-0.6
				c0.8,0,1.4,0.2,2,0.5c1.5,0.9,2.3,2.7,2.1,4.5c0,0.1,0,0.2,0,0.2c-0.4,2.5-4.1,7.8-4.1,7.8s-3.3-5-3.9-6.7
				c-0.1-0.3-0.2-0.5-0.2-0.9c-2.1-0.9-3.5-2.7-4.3-4.6l0,0c-0.6,1.7-0.6,3.6-0.5,5.2c0.1,0.6,0.2,1.3,0.5,2c2.1,3.1,4.8,6.7,8,10.8
				h3.5c0,0,6.3-10.4,6.1-14.1c-0.1-1.3-0.4-2.8-1-4.3C61.8,82.5,60.9,81.2,59.7,80.3z"/>
			<path class="st1" d="M53.8,102.3c-3.1-4-5.9-7.7-8-10.8c1.4,4.3,5.4,10.8,5.4,10.8H53.8z"/>
		</g>
	</g>
	<g>
		<g>
			<path class="st4" d="M54,5.7c-8,0-9.5,6.3-9.1,10.8c0.3,3.5,5.2,11.7,5.8,12.7c0,0.1,0.1,0.1,0.1,0.1h6.1c0,0,0,0,0.1-0.1
				c0.7-1.1,6.2-10.5,6-14C62.7,11.6,60.7,5.7,54,5.7z M57.9,15.5c-0.2,2.4-4.1,8-4.1,8s-3.3-5-3.9-6.7c-0.7-1.7,0.2-6.3,3.9-6.3
				C56.6,10.5,58.1,13.1,57.9,15.5z"/>
		</g>
		<g>
			<path class="st4" d="M56.8,29.2h-6.1c0,0,0,0-0.1,0.1c0,0.1,0.1,0.1,0.1,0.1h6.1C56.8,29.4,56.8,29.4,56.8,29.2
				C56.8,29.2,56.8,29.2,56.8,29.2z"/>
		</g>
		<g>
			<path class="st4" d="M63.1,52c0.2,3.5-5.3,12.8-6,14c0-0.1-0.1-0.1-0.1-0.1H51c0,0,0,0-0.1,0.1c-0.6-1-5.5-9.2-5.8-12.7
				c-0.2-1.6-0.1-3.5,0.5-5.2l0.2-0.2c0.8,1.8,2.1,3.4,4.2,4.3l0,0.1c0,0.5,0.1,0.9,0.2,1.2c0.7,1.7,3.9,6.7,3.9,6.7s3.9-5.6,4.1-8
				c0-0.1,0-0.2,0-0.3c0.1-1.8-0.8-3.6-2.5-4.4c-0.5-0.2-1-0.3-1.7-0.3c-0.7,0-1.4,0.2-1.9,0.5c-1.6-0.8-2.5-2.6-2.4-4.4
				c1.2-0.6,2.7-0.9,4.6-0.9c1.4,0,2.6,0.3,3.7,0.7c2,0.9,3.3,2.5,4.1,4.3C62.7,49,63,50.6,63.1,52z"/>
			<path class="st4" d="M57.1,65.9c0,0.1-0.1,0.1-0.1,0.1H51c0,0,0,0-0.1-0.1c0-0.1,0.1-0.1,0.1-0.1L57.1,65.9
				C57,65.9,57,65.9,57.1,65.9z"/>
			<path class="st4" d="M62.1,47.3L62,47.4c-0.8-1.8-2.1-3.4-4.1-4.3c0-0.5-0.1-1-0.2-1.4C57,40,53.8,35,53.8,35s-3.9,5.6-4.1,8
				c0,0.1,0,0.2,0,0.2c-0.1,1.8,0.8,3.6,2.4,4.4c0.5,0.2,1.1,0.4,1.7,0.4c0.7,0,1.3-0.2,1.9-0.5l0-0.1c1.7,0.7,2.5,2.6,2.5,4.4
				c-1.2,0.6-2.7,0.9-4.6,0.9c-1.4,0-2.6-0.2-3.6-0.7h0c-2.1-0.9-3.4-2.5-4.2-4.3c-0.7-1.6-1-3.2-1.1-4.6c-0.2-3.5,5.3-12.8,6-14
				c0,0.1,0.1,0.1,0.1,0.1h6.1c0,0,0,0,0.1-0.1c0.6,1,5.5,9.2,5.8,12.7C62.8,43.6,62.7,45.5,62.1,47.3z"/>
		</g>
		<g>
			<path class="st4" d="M57,65.9H51c0,0,0,0-0.1,0.1c0,0.1,0.1,0.1,0.1,0.1H57C57,66.1,57,66,57,65.9C57,65.9,57,65.9,57,65.9z"/>
			<path class="st4" d="M62.4,83.7l-0.1,0.1c-0.8-1.9-2.1-3.6-4.3-4.5l0-0.1c0-0.5-0.1-0.4-0.2-0.8c-0.7-1.7-3.9-6.7-3.9-6.7
				s-3.6,5.3-4.1,7.8c0,0.1,0,0.2,0,0.2c-0.2,1.8,0.6,3.6,2.2,4.5c0.6,0.3,1.2,0.5,1.9,0.5c0.9,0,1.6-0.2,2.1-0.6l0.1-0.2
				c1.5,0.9,2.3,2.7,2.1,4.5c0,0.1,0,0.2,0,0.2c-1.2,0.6-2.7,0.9-4.5,0.9c-1.4,0-2.6-0.3-3.7-0.7c-2.1-0.9-3.5-2.7-4.3-4.6
				c-0.6-1.5-0.9-3-1-4.3c-0.2-3.5,5.3-12.8,6-14c0,0.1,0.1,0.1,0.1,0.1H57c0,0,0,0,0.1-0.1c0.6,1,5.5,9.2,5.8,12.7
				C63,80.2,63,82,62.4,83.7z"/>
		</g>
		<g>
			<path class="st4" d="M51.2,102.3c0,0-5.5-9-5.9-12.8c-0.2-1.6-0.1-3.5,0.5-5.2l0,0c0.8,1.9,2.1,3.6,4.3,4.6
				c0,0.4,0.1,0.6,0.2,0.9c0.7,1.7,3.9,6.7,3.9,6.7s3.6-5.3,4.1-7.8c0-0.1,0-0.2,0-0.2c0.2-1.7-0.6-3.6-2.1-4.5
				c-0.6-0.3-1.2-0.5-2-0.5c-0.8,0-1.5,0.2-2.1,0.6L52,84.2c-1.6-0.9-2.3-2.7-2.2-4.5c0-0.1,0-0.2,0-0.2c1.2-0.6,2.7-0.9,4.5-0.9
				c1.4,0,2.6,0.2,3.6,0.7c2.2,0.9,3.5,2.7,4.3,4.5c0.6,1.5,0.9,3,1,4.3c0.2,3.7-6.1,14.1-6.1,14.1"/>
		</g>
	</g>
</g>
</svg>
