<?xml version="1.0" encoding="utf-8"?>
<!-- Generator: Adobe Illustrator 21.1.0, SVG Export Plug-In . SVG Version: 6.00 Build 0)  -->
<svg version="1.1" id="Layer_1" xmlns="http://www.w3.org/2000/svg" xmlns:xlink="http://www.w3.org/1999/xlink" x="0px" y="0px"
	 width="108px" height="108px" viewBox="0 0 108 108" style="enable-background:new 0 0 108 108;" xml:space="preserve">
<style type="text/css">
	.st0{fill:#E6E6E6;stroke:#000000;stroke-width:0.75;stroke-linecap:round;stroke-linejoin:round;stroke-miterlimit:10;}
	.st1{fill:#FFFFFF;stroke:#000000;stroke-width:0.75;stroke-linecap:round;stroke-linejoin:round;stroke-miterlimit:10;}
	.st2{fill:none;stroke:#000000;stroke-width:0.75;stroke-linecap:round;stroke-linejoin:round;stroke-miterlimit:10;}
	.st3{fill:none;stroke:#000000;stroke-width:0.25;stroke-linecap:round;stroke-linejoin:round;stroke-miterlimit:10;}
</style>
<g>
	<path class="st0" d="M44,42.8v3.8L23.3,62.4c0,0-0.4,1-0.1,2.3c0.4,1.3,2.8,2.8,4.6,1.6c1.8-1.2,2.1-4.4,2.1-4.4L40.6,54
		c0,0-0.4,8.6-0.5,10.2c-0.1,2.4-2,7.5-7.2,9.8s-9.9,2.3-13.7-0.1c-3.8-2.3-6.2-5.9-6.2-9.6c-0.1-3.6,1.3-20.1,1.3-20.1L44,42.8z"/>
	<path class="st1" d="M89,41c0,0,13.1,0.2,14.8-2c1.7-2.1,1.4-3.5,0.9-4.7c-0.5-1.2-2-1.9-5.9-2S64,32.9,64,32.9v1.5
		c0,0,13.7-0.6,14.6,0.1c0.8,0.7,1.7,2.2,1.3,3.4c-0.4,1.2-1.2,1.7-1.2,1.7H63.7v1.1L89,41z"/>
	<path class="st1" d="M44.8,35v-1.4L4.4,34c0,0-1.9,0.8-1.7,3c0.2,2.2,0.9,2.4,1.9,3.1c1,0.7,9.7,4.1,9.7,4.1l14.8-0.8
		c0,0-1.5-0.7-1.5-1.7c0-1.1,0.8-1.4,1.9-1.4c1.1,0,15.3-0.3,15.3-0.3v-1.5l-15.9,0c0,0-0.9-0.1-0.9-1.7c0-1.5,0.7-1.9,1.3-1.9
		S44.8,35,44.8,35z"/>
	<path class="st2" d="M28.2,40.5c-0.4,0-1.8-1.3-1.8-3.3c0-1.5,0.6-3.3,2.7-3.4"/>
	<path class="st0" d="M88.4,39.7v3v3.8L67.6,62.3c0,0-0.5,1-0.1,2.3s2.8,2.8,4.6,1.6c1.8-1.2,2.1-4.4,2.1-4.4L85,54
		c0,0-0.4,8.6-0.4,10.2c-0.1,2.4-2,7.5-7.2,9.8c-5.2,2.3-9.9,2.3-13.7-0.1c-3.8-2.3-6.2-5.9-6.2-9.6c-0.1-3.6,1.3-20.1,1.3-20.1
		l15.1-0.7c0,0,0.8-0.2,1-1.4c0.2-1.2,0.1-2.5,0.1-2.5L88.4,39.7z"/>
	<g>
		<line class="st3" x1="80" y1="33.5" x2="104.3" y2="33.5"/>
		<line class="st3" x1="80.7" y1="34.2" x2="104.5" y2="34.2"/>
		<line class="st3" x1="81.1" y1="34.8" x2="105" y2="34.8"/>
		<line class="st3" x1="81.6" y1="35.5" x2="105.3" y2="35.5"/>
		<line class="st3" x1="81.7" y1="36.2" x2="105.3" y2="36.2"/>
		<line class="st3" x1="81.6" y1="36.8" x2="105.3" y2="36.8"/>
		<line class="st3" x1="81.3" y1="37.5" x2="105.1" y2="37.5"/>
		<line class="st3" x1="81.1" y1="38.2" x2="104.7" y2="38.2"/>
		<line class="st3" x1="80.7" y1="38.8" x2="104.2" y2="38.8"/>
		<line class="st3" x1="9.9" y1="41.2" x2="25.5" y2="41.2"/>
		<line class="st3" x1="10.9" y1="41.7" x2="26.2" y2="41.7"/>
		<line class="st3" x1="11.6" y1="42.1" x2="26.7" y2="42.1"/>
		<line class="st3" x1="12.7" y1="42.6" x2="27.3" y2="42.6"/>
		<line class="st3" x1="13.4" y1="43.1" x2="28.5" y2="43.1"/>
	</g>
</g>
</svg>
