<?xml version="1.0" encoding="utf-8"?>
<!-- Generator: Adobe Illustrator 21.1.0, SVG Export Plug-In . SVG Version: 6.00 Build 0)  -->
<svg version="1.1" id="Layer_1" xmlns="http://www.w3.org/2000/svg" xmlns:xlink="http://www.w3.org/1999/xlink" x="0px" y="0px"
	 width="108px" height="108px" viewBox="0 0 108 108" style="enable-background:new 0 0 108 108;" xml:space="preserve">
<style type="text/css">
	.st0{fill:#CCCCCC;stroke:#000000;stroke-width:0.75;stroke-linecap:round;stroke-linejoin:round;stroke-miterlimit:10;}
	.st1{fill:#F2F2F2;stroke:#000000;stroke-width:0.75;stroke-linecap:round;stroke-linejoin:round;stroke-miterlimit:10;}
	.st2{fill:#B3B3B3;stroke:#000000;stroke-width:0.75;stroke-linecap:round;stroke-linejoin:round;stroke-miterlimit:10;}
	.st3{fill:#808080;stroke:#000000;stroke-width:0.5;stroke-linecap:round;stroke-linejoin:round;stroke-miterlimit:10;}
	.st4{fill:#E6E6E6;stroke:#000000;stroke-width:0.75;stroke-linecap:round;stroke-linejoin:round;stroke-miterlimit:10;}
	.st5{fill:#FFFFFF;stroke:#000000;stroke-width:0.75;stroke-linecap:round;stroke-linejoin:round;stroke-miterlimit:10;}
	.st6{fill:#CCCCCC;}
	.st7{fill:#E6E6E6;}
	.st8{fill:none;stroke:#000000;stroke-width:0.75;stroke-linecap:round;stroke-linejoin:round;stroke-miterlimit:10;}
</style>
<g>
	<path class="st0" d="M106,34.3c-0.2,0.7-0.4,1.4-0.6,2c-0.3,0.7-0.7,1.6-1.4,2c-0.5,0.3-1.3,0.3-1.8,0.5c-6.7,1.9-13.3,3.8-20,5.7
		c-0.9,0.3-1.8,0.5-2.6,0.7c-6.9,2-13.9,3.9-20.8,5.9c-0.7,0.2-1.5,0.4-2.2,0.6c-0.1,0-0.2,0-0.3,0.1c-3.4,1-6.8,1.9-10.2,2.9
		c-0.9,0.3-1.8,0.5-2.7,0.8c-2.7,1-5.5,1.1-8.3,0.3c-2.2-0.6-4.5-1.2-6.7-1.8c-1.6-0.4-3.2-0.9-4.8-1.3c-1.9-0.5-3.9-1-5.8-1.5
		c-3.8-1-7.6-2-11.4-3c-0.1,0-0.2,0-0.3-0.1v-3.2l31,7.7c1.3,0.4,2.8,0.3,4.1-0.3l45.7-12.6L106,34.3L106,34.3z"/>
	<path class="st0" d="M6.1,44.7v3.2c-1.1-0.3-2.1-0.6-3.2-0.9C2.5,47,2,46.9,1.8,46.6c-0.2-0.4,0-1.6,0-2.1v-0.9L6.1,44.7z"/>
	<path class="st1" d="M17.4,42.5H9.8c-0.9-2.5-3.7-2.2-3.7-2.2v4.5l-4.3-1.1v-7.4c0,0.7,0.8,0.9,1.6,1c4.6,0.7,9.3,1.4,14,2.1
		C17.4,40.5,17.4,41.5,17.4,42.5z"/>
	<path class="st2" d="M57.4,83.4c-1.5,0.5-3,0.8-4.5,0.9c-5.5,0.4-10.8-2-14.5-6.1L23.6,52.6c1.6,0.4,3.2,0.9,4.8,1.3v0l14.1,24.3
		C46.4,82.3,52,84.1,57.4,83.4L57.4,83.4z"/>
	<path class="st3" d="M66.8,65.3c-1,5.3-5.6,9.3-10.9,9.6c-2,0.1-4-0.3-5.7-1.1l0.1-0.2c7.3,1.1,14.1-4.8,13.6-12.3
		c-0.2-2-0.8-3.9-1.9-5.6c-1.5-1.8-3.3-3.1-5.4-4c0.7-0.2,1.5-0.4,2.2-0.6c2.6,1.4,4.7,3.2,6.4,5.7C66.8,59.3,67.4,62.3,66.8,65.3z"
		/>
	<path class="st4" d="M79.5,45.1L70.1,74c-1.1,2.1-2.5,4-4.4,5.6c-2.5,2.1-5.4,3.3-8.4,3.7c-5.3,0.8-10.9-1-14.9-5.1L28.4,53.9v0
		c2.2,0.6,4.5,1.2,6.7,1.8c2.8,0.8,5.6,0.7,8.3-0.3c0.9-0.3,1.8-0.5,2.7-0.8c-2.4,3.5-3.2,7.6-2.3,11.7c1,3.3,3.4,6,6.4,7.4
		c1.7,0.8,3.7,1.2,5.7,1.1c5.4-0.3,10-4.4,10.9-9.6c0.6-3,0-6-1.6-8.6c-1.7-2.4-3.8-4.3-6.4-5.7C65.7,49.1,72.6,47.1,79.5,45.1z"/>
	<line class="st5" x1="23.6" y1="52.6" x2="23.6" y2="52.6"/>
	<line class="st5" x1="39.1" y1="33.4" x2="38.6" y2="33.5"/>
	<path class="st4" d="M106,34.3L106,34.3l-19,5.2c-0.3-0.5-0.8-0.8-1.4-0.9c-1.1-0.2-2.8-0.1-3.8-0.7c-0.5-0.2-0.3-0.2-0.3-0.9v-1.8
		c-0.3-0.1-0.7-0.2-0.7-0.2c0,0-0.1,0-0.1,0c-0.1,0-0.1,0-0.2,0.1c-0.2,0.1-0.5,0.2-0.7,0.3c0,0-0.1,0-0.1,0
		c-0.2,0.1-0.4,0.2-0.6,0.2c0,0,0,0,0,0c-0.2,0.1-0.3,0.1-0.5,0.1c0,0,0,0,0,0c-0.3,0.1-0.5,0.1-0.8,0c-1.5-0.3-8.5-3.4-8.7-3.6
		c-0.4-0.6-0.1-2.6-0.1-3.4h0c0,0.2,0.1,0.3,0.3,0.4l7.5,2c3.2,1,6.5,1.4,9.9,1.4l14.7-3c1.4-0.3,2.7-1,3.8-1.8
		c0.1,0.1,0.2,0.2,0.3,0.3C106.5,29.7,106.4,32.2,106,34.3z"/>
	<path class="st5" d="M80.7,35.1c-0.2,0.1-0.5,0.2-0.9,0.4c0.3-0.1,0.5-0.2,0.7-0.3C80.6,35.1,80.6,35.1,80.7,35.1z"/>
	<path class="st5" d="M105.2,27.8c-1.2,0.8-2.5,1.4-3.8,1.8l-14.7,3c-3.4,0-6.6-0.4-9.9-1.4l-7.5-2c-0.2-0.1-0.3-0.2-0.3-0.4
		c0-0.2,0-0.3,0.2-0.5l11.2-2.6l6.3-1.5c0.6-0.2,1.3-0.4,1.9-0.5c3-0.4,5.7,0.7,8.5,1.4c1.9,0.5,3.8,1,5.8,1.5
		C103.7,27,104.5,27.2,105.2,27.8z"/>
	<path class="st5" d="M39.1,33c-7.2,2.2-14.5,4.3-21.7,6.5c-4.7-0.7-9.3-1.4-14-2.1c-0.7-0.1-1.6-0.4-1.6-1c0-0.2,0.1-0.4,0.3-0.7
		c0.7-0.9,2.1-1,3.1-1.3c4.2-1.1,8.3-2.1,12.5-3.2c3-0.8,5.9-1.2,8.9-0.6C30.8,31.3,34.9,32.2,39.1,33z"/>
	<path class="st3" d="M9.8,42.5H6.1v-2.2C6.1,40.3,8.9,40,9.8,42.5z"/>
	<path class="st6" d="M35.6,37.1c-6.1,1.8-12.1,3.5-18.2,5.3H6.1v2.3l8.6,2.1c8.5-2.7,17-5.5,25.4-8.8
		C38.6,37.9,37.1,37.5,35.6,37.1z"/>
	<path class="st6" d="M81.9,40.9l5.1-1.4c-0.3-0.5-0.8-0.8-1.4-0.9c-1.1-0.2-2.8-0.1-3.8-0.7c-0.5-0.2-0.3-0.2-0.3-0.9v-1.8
		c-0.3-0.1-0.7-0.2-0.7-0.2c0,0-0.1,0-0.1,0c-0.1,0-0.1,0-0.2,0.1c-0.2,0.1-0.5,0.2-0.7,0.3c0,0-0.1,0-0.1,0
		c-0.2,0.1-0.4,0.2-0.6,0.2c0,0,0,0,0,0c-0.2,0.1-0.3,0.1-0.5,0.1c0,0,0,0,0,0c-0.3,0.1-0.5,0.1-0.8,0c-0.9-0.2-3.9-1.4-6.1-2.4
		c-1.8,0.4-3.6,1-5.4,1.6C71.1,38.5,76.4,39.6,81.9,40.9z"/>
	<path class="st7" d="M66.2,35.1c1.8-0.6,3.6-1.2,5.4-1.6c-1.4-0.6-2.6-1.2-2.6-1.3c-0.4-0.6-0.1-2.6-0.1-3.4h0c0-0.2,0-0.3,0.2-0.5
		l11.2-2.6c-3.2-1.2-6.5-1.4-9.8-0.8l-31.5,8.4c0.1,0.8,0.3,2.3,0,2.7c-0.1,0.2-0.5,0.2-0.8,0.3c-0.9,0.3-1.8,0.5-2.7,0.8
		c0.9,0.2,1.8,0.5,2.8,0.6c0.5,0.1,0.6,0.8,0.1,1c-7.9,3-15.8,5.6-23.7,8.1l22.4,5.5c1.3,0.4,2.8,0.3,4.1-0.3l40.6-11.2
		C76.4,39.6,71.1,38.5,66.2,35.1z"/>
	<path class="st8" d="M86.9,39.5L41.3,52.1c-1.3,0.6-2.8,0.7-4.1,0.3l-31-7.7v-2.3h11.3c7-2,13.9-4.1,20.9-6.1
		c0.3-0.1,0.6-0.1,0.8-0.3c0.3-0.4,0.1-1.9,0-2.7l31.5-8.4c3.3-0.7,6.6-0.4,9.8,0.8l-11.2,2.6c-0.2,0.1-0.3,0.3-0.2,0.5h0
		c0,0.8-0.4,2.9,0.1,3.4c0.2,0.3,7.2,3.3,8.7,3.6c0.3,0.1,0.5,0,0.8,0c0,0,0,0,0,0c0.2,0,0.4-0.1,0.5-0.1c0,0,0,0,0,0
		c0.2-0.1,0.4-0.1,0.6-0.2c0,0,0.1,0,0.1,0c0.3-0.1,0.5-0.2,0.7-0.3c0.1,0,0.1,0,0.2-0.1c0,0,0.1,0,0.1,0c0,0,0.4,0.1,0.7,0.2V37
		c0,0.7-0.1,0.6,0.3,0.9c1,0.5,2.7,0.5,3.8,0.7C86.1,38.7,86.6,39.1,86.9,39.5z"/>
	<path class="st4" d="M39.1,36.1c-0.1,0.2-0.5,0.2-0.8,0.3c-7,2-13.9,4.1-20.9,6.1c0-1,0-2,0-3c7.2-2.2,14.4-4.3,21.7-6.5
		c0,0.1,0,0.2,0,0.4C39.1,34.2,39.3,35.6,39.1,36.1z"/>
</g>
</svg>
