<?xml version="1.0" encoding="utf-8"?>
<!-- Generator: Adobe Illustrator 21.1.0, SVG Export Plug-In . SVG Version: 6.00 Build 0)  -->
<svg version="1.1" id="Layer_1" xmlns="http://www.w3.org/2000/svg" xmlns:xlink="http://www.w3.org/1999/xlink" x="0px" y="0px"
	 width="108px" height="108px" viewBox="0 0 108 108" style="enable-background:new 0 0 108 108;" xml:space="preserve">
<style type="text/css">
	.st0{fill:#FFFFFF;stroke:#000000;stroke-width:0.75;stroke-linecap:round;stroke-linejoin:round;stroke-miterlimit:10;}
	.st1{fill:#CCCCCC;stroke:#000000;stroke-width:0.75;stroke-linecap:round;stroke-linejoin:round;stroke-miterlimit:10;}
	.st2{fill:#E6E6E6;stroke:#000000;stroke-width:0.75;stroke-linecap:round;stroke-linejoin:round;stroke-miterlimit:10;}
	.st3{fill:#F2F2F2;stroke:#000000;stroke-width:0.75;stroke-linecap:round;stroke-linejoin:round;stroke-miterlimit:10;}
	.st4{fill:#B3B3B3;stroke:#000000;stroke-width:0.75;stroke-linecap:round;stroke-linejoin:round;stroke-miterlimit:10;}
	.st5{fill:none;stroke:#000000;stroke-width:0.75;stroke-linecap:round;stroke-linejoin:round;stroke-miterlimit:10;}
	.st6{fill:#FFFFFF;}
	.st7{fill:#F2F2F2;}
	.st8{fill:#E6E6E6;}
</style>
<g>
	<path class="st0" d="M71.3,81.1c0,0,20.3-5.4,30,0.3c1.6-5.7-5.8-9.8-5.8-9.8L71.3,81.1z"/>
	<path class="st0" d="M63.9,53.5v0.3l0.2-0.1L63.9,53.5z M63.9,53.5v0.3l0.2-0.1L63.9,53.5z M63.9,53.5v0.3l0.2-0.1L63.9,53.5z
		 M63.9,53.5v0.3l0.2-0.1L63.9,53.5z M63.9,53.5v0.3l0.2-0.1L63.9,53.5z M63.9,53.5v0.3l0.2-0.1L63.9,53.5z M63.9,53.5v0.3l0.2-0.1
		L63.9,53.5z M63.9,53.5v0.3l0.2-0.1L63.9,53.5z M45.7,59.8l0.1-0.1L45.7,59.8L45.7,59.8z M45.6,59.7L45.6,59.7L45.6,59.7
		C45.6,59.7,45.6,59.7,45.6,59.7z M63.9,53.5v0.3l0.2-0.1L63.9,53.5z M63.9,53.5v0.3l0.2-0.1L63.9,53.5z M63.9,53.5v0.3l0.2-0.1
		L63.9,53.5z M63.9,53.5v0.3l0.2-0.1L63.9,53.5z M63.9,53.5v0.3l0.2-0.1L63.9,53.5z M63.9,53.5v0.3l0.2-0.1L63.9,53.5z M63.9,53.5
		v0.3l0.2-0.1L63.9,53.5z"/>
	<polygon class="st1" points="38,90.8 38.2,91.3 37.7,91.5 4.8,45.8 5,40.9 38.3,87.9 38.5,87.9 	"/>
	<polygon class="st2" points="102.9,66.7 102.6,71.3 38.2,91.3 38,90.8 38.5,87.9 	"/>
	<polygon class="st2" points="103.2,61.5 102.9,66.7 38.5,87.9 39.2,82.6 	"/>
	<polygon class="st1" points="39.2,82.6 38.5,87.9 38.3,87.9 5,40.9 5.4,34.4 	"/>
	<polygon class="st0" points="45.8,59.7 45.7,59.8 45.6,59.7 	"/>
	<path class="st0" d="M45.6,59.7L45.6,59.7C45.6,59.7,45.6,59.7,45.6,59.7L45.6,59.7z"/>
	<polygon class="st0" points="64.1,53.7 63.9,53.8 63.9,53.5 	"/>
	<polygon class="st3" points="103.2,61.5 39.2,82.6 5.4,34.4 65.4,16.5 	"/>
	<path class="st4" d="M64.1,44.1c0,2.7-0.1,7.6-0.2,9.3l-4.7-6.9l-1.8-2.6l0.2-0.1c0,0,0.2-3.1,0.2-4.4c0-1.5-1-2.6-1.2-2.7v-0.1
		C60.7,36.4,64.1,40.3,64.1,44.1z"/>
	<path class="st5" d="M56.6,36.7C56.6,36.7,56.6,36.7,56.6,36.7"/>
	<path class="st6" d="M67.2,39.8c-1-3.1-5.1-7.1-8.8-8.8c-0.5-0.2-4.3-1.8-4.8-1.9c-0.8-0.2-2.3-0.4-3.2-0.3c-3.4,0.3-6.1,1.7-8,3.7
		c1.9,1.5,3.9,2.9,5.9,4.4c1.7-2.2,4.3-3.8,7.8-4.4c4.7-0.8,9.6,3.8,11.2,7.8C67.3,40.1,67.3,40,67.2,39.8z"/>
	<path class="st7" d="M45.9,45.7c0-0.4,0-0.8,0-1.2c0-2.8,0.8-5.5,2.5-7.6c-2-1.5-3.9-2.9-5.9-4.4c-1.8,1.9-2.8,4.4-3.1,7
		C41.5,41.6,43.6,43.7,45.9,45.7z"/>
	<path class="st8" d="M39.4,39.4c0,0.3,0,0.6,0,0.9c0,3.1-0.1,10.5-0.1,10.5l6.4,8.8c0-0.5,0.2-8.4,0.2-14.1
		C43.6,43.7,41.5,41.6,39.4,39.4z"/>
	<path class="st5" d="M67.3,40.3c-1.5-4-6.4-8.6-11.2-7.8c-7,1.2-10.3,6.2-10.3,12c0,5.6-0.2,14.8-0.2,15.3l-6.4-8.8
		c0,0,0.1-7.4,0.1-10.5c0-5.8,4-10.9,11-11.6c0.8-0.1,2.3,0.1,3.2,0.3c0.5,0.2,4.3,1.7,4.8,1.9c3.7,1.8,7.8,5.7,8.8,8.8
		C67.3,40,67.3,40.1,67.3,40.3z"/>
	<path class="st2" d="M67.8,42.6c0,3.1-0.1,10.2-0.1,10.2l-3.8,1.3c0,0,0-0.1,0-0.3l0.2-0.1l-0.2-0.3v0c0.1-1.7,0.2-6.6,0.2-9.3
		c0-3.8-3.4-7.7-7.5-7.5h0c-0.3,0-0.6,0-0.9,0.1c-3.9,0.8-6.3,4.3-6.4,8.4c0,0.3,0,0.7,0,1c0,1,0,2.1,0,3.2c0,3.8,0,8.2,0,9
		c0,0.1,0,0.1,0,0.1l-3.6,1.2l-0.1,0l0,0c0-0.5,0.2-9.7,0.2-15.3c0-5.8,3.4-10.8,10.3-12c4.7-0.8,9.6,3.8,11.2,7.8
		C67.7,41.1,67.8,41.9,67.8,42.6z"/>
	<line class="st5" x1="57.4" y1="43.9" x2="57.3" y2="43.8"/>
</g>
</svg>
