<?xml version="1.0" encoding="utf-8"?>
<!-- Generator: Adobe Illustrator 21.1.0, SVG Export Plug-In . SVG Version: 6.00 Build 0)  -->
<svg version="1.1" id="Layer_1" xmlns="http://www.w3.org/2000/svg" xmlns:xlink="http://www.w3.org/1999/xlink" x="0px" y="0px"
	 width="108px" height="108px" viewBox="0 0 108 108" style="enable-background:new 0 0 108 108;" xml:space="preserve">
<style type="text/css">
	.st0{fill:#999999;stroke:#000000;stroke-width:0.5;stroke-linecap:round;stroke-linejoin:round;stroke-miterlimit:10;}
	.st1{fill:#E6E6E6;stroke:#000000;stroke-width:0.5;stroke-linecap:round;stroke-linejoin:round;stroke-miterlimit:10;}
	.st2{fill:#B3B3B3;stroke:#000000;stroke-width:0.5;stroke-linecap:round;stroke-linejoin:round;stroke-miterlimit:10;}
	.st3{fill:#F2F2F2;stroke:#000000;stroke-width:0.5;stroke-linecap:round;stroke-linejoin:round;stroke-miterlimit:10;}
	.st4{fill:#FFFFFF;stroke:#000000;stroke-width:0.5;stroke-linecap:round;stroke-linejoin:round;stroke-miterlimit:10;}
	.st5{fill:none;stroke:#000000;stroke-width:0.5;stroke-linecap:round;stroke-linejoin:round;stroke-miterlimit:10;}
</style>
<g>
	<path class="st0" d="M60.5,61.3c-2-0.3-4.1-0.6-6.1-0.9c-8.8-1.3-17.6-2.6-26.5-3.8c-5.5-0.8-11-1.6-16.6-2.4l4.7-1.2l43.5,6.3
		C60.1,59.7,60.5,60.5,60.5,61.3z"/>
	<path class="st1" d="M60.6,61.8v14l-49.2-6.5l-0.1-0.1c0-0.1,0-0.1,0.1-0.2c0.2-0.5,0-1.3,0-1.8V54.1c5.5,0.8,11,1.6,16.6,2.4
		c8.8,1.3,17.6,2.6,26.5,3.8c2,0.3,4.1,0.6,6.1,0.9C60.6,61.4,60.6,61.6,60.6,61.8z"/>
	<path class="st2" d="M11.4,67.3c0,0.5,0.2,1.3,0,1.8c0,0,0,0.1-0.1,0.2c-0.5,0.8-2.2,1.4-2.9,1.8V53.3c0-0.6,0.3-1.1,0.8-1.4l6.9,1
		l-4.7,1.2V67.3z"/>
	<path class="st3" d="M64.4,57.4v19.1c0,0.7-0.3,1.4-0.8,1.9c-0.1,0.1-0.2,0.2-0.4,0.3c-0.5,0-2.2,0.1-2.5-0.2
		c-0.2-0.2-0.1-0.4-0.1-0.7V61.8c0-0.2,0-0.4,0-0.5c-0.1-0.8-0.4-1.5-1-2.1L16,52.9l-6.9-1c-0.5,0.3-0.8,0.8-0.8,1.4v17.8
		C7.6,71,6.8,70.9,6,70.9c-0.3,0-2.1-0.2-2.1-0.2S3.9,58.5,4,54c0-1.2,0-2.5,0-3.7c0.2-1.4,0.9-2.1,1.7-2.4c1.5-0.5,3.6,0,5.1,0.2
		c11.1,1.6,22.2,3.2,33.3,4.7c4.7,0.7,9.5,1.4,14.2,2c1.5,0.2,3.6,0.2,4.9,1.1C63.8,56.3,64.2,56.7,64.4,57.4z"/>
	<path class="st1" d="M104.2,36.6v15.5c0,0.9,0,0.9-0.8,1.3c-1.3,0.8-2.6,1.7-4,2.5c-4.7,2.9-9.3,5.8-14,8.8
		c-7.3,4.6-14.5,9.1-21.8,13.7c0.6-0.5,0.9-1.2,0.8-1.9V57.4c-0.2-0.6-0.6-1.1-1.1-1.4l0,0L103.4,35C103.8,35.5,104,36,104.2,36.6z"
		/>
	<path class="st4" d="M103.4,35L63.3,55.9l0,0c-1.3-0.9-3.4-0.9-4.9-1.1c-4.8-0.7-9.5-1.3-14.2-2c-11.1-1.6-22.2-3.1-33.3-4.7
		c-1.5-0.2-3.6-0.8-5.1-0.2l0,0l47.8-18.1c0.9-0.4,1.8-0.5,2.8-0.4l45.6,4.6C102.5,34.2,103,34.6,103.4,35z"/>
	<path class="st3" d="M60.6,61.3C60.5,61.3,60.5,61.3,60.6,61.3"/>
	<g>
		<path class="st5" d="M76.5,59.7c-1.1-2.4-2.8,0-2.8,1.6c0.1,1.9,2,3.4,2.9,1"/>
		<path class="st5" d="M97.7,47.3c-1-2.4-2.8,0-2.8,1.6c0.1,1.8,2.1,3.5,2.9,1"/>
	</g>
	<path class="st1" d="M61.4,39.4c-1.7-0.6-3.7-0.5-5.4-0.1c-1.3,0.3-4.8,1.1-4.6,2.9c0.3,1.6,3.2,1.6,4.4,1.5
		c1.8-0.1,3.6-0.4,5.2-1.2C62.5,41.7,63.5,40.1,61.4,39.4z"/>
</g>
</svg>
