<?xml version="1.0" encoding="utf-8"?>
<!-- Generator: Adobe Illustrator 21.1.0, SVG Export Plug-In . SVG Version: 6.00 Build 0)  -->
<svg version="1.1" id="Layer_1" xmlns="http://www.w3.org/2000/svg" xmlns:xlink="http://www.w3.org/1999/xlink" x="0px" y="0px"
	 width="108px" height="108px" viewBox="0 0 108 108" style="enable-background:new 0 0 108 108;" xml:space="preserve">
<style type="text/css">
	.st0{fill:#F2F2F2;}
	.st1{fill:#E6E6E6;}
	.st2{fill:#CCCCCC;}
	.st3{fill:none;stroke:#000000;stroke-width:0.75;stroke-linecap:round;stroke-linejoin:round;stroke-miterlimit:10;}
	.st4{fill:#FFFFFF;stroke:#000000;stroke-width:0.75;stroke-linecap:round;stroke-linejoin:round;stroke-miterlimit:10;}
	.st5{fill:none;stroke:#000000;stroke-width:0.5;stroke-linecap:round;stroke-linejoin:round;stroke-miterlimit:10;}
	.st6{fill:#CCCCCC;stroke:#000000;stroke-width:0.75;stroke-linecap:round;stroke-linejoin:round;stroke-miterlimit:10;}
	.st7{fill:#F2F2F2;stroke:#000000;stroke-width:0.75;stroke-linecap:round;stroke-linejoin:round;stroke-miterlimit:10;}
	.st8{fill:#E6E6E6;stroke:#000000;stroke-width:0.75;stroke-linecap:round;stroke-linejoin:round;stroke-miterlimit:10;}
</style>
<g>
	<path class="st0" d="M95,46c-2.5-8.7-14.4-15.4-28.7-15.4c-14.5,0-27.6,7.8-28.8,15.7c-0.2,1-0.9,6.9-1.5,8.8
		c-0.1,0.3-0.3,0.6-0.5,1.1c6.6,3.4,13.9,5.8,20.5,7.7C70.5,67.9,94.3,64.3,95,46z"/>
	<path class="st1" d="M96.8,55.1c-0.3-2.3-1.5-7.8-1.8-8.9c0-0.1,0-0.1-0.1-0.2c-0.7,18.3-24.5,21.9-39,18
		c-6.6-1.9-13.8-4.3-20.5-7.7c-0.2,0.5-0.4,1-0.7,1.8c2.8,4.9,6.5,9.5,11.1,13c16.9,9.9,45.6,5.1,50.9-15.6
		C96.9,55.3,96.8,55.2,96.8,55.1z"/>
	<path class="st2" d="M96.9,55.4C91.6,76.1,62.9,80.9,46,71c-4.7-3.5-8.3-8-11.1-13c-0.2,0.5-0.3,1.2-0.4,1.9
		c-0.2,0.9-0.4,1.9-0.4,2.8c0,10.3,14.5,18.7,32.3,18.7c17.2,0,31.2-7.8,32.2-17.6c0-0.1,0.1-0.2,0.1-0.3C99,59.4,97.3,57,96.9,55.4
		z"/>
	<path class="st3" d="M96.8,55.1c-0.3-2.3-1.5-7.8-1.8-8.9c-2.3-8.8-14.3-15.6-28.8-15.6c-14.5,0-27.6,7.8-28.8,15.7
		c-0.2,1-0.9,6.9-1.5,8.8c-0.2,0.7-1.1,2-1.5,4.8c-0.2,0.9-0.4,1.9-0.4,2.8c0,10.3,14.5,18.7,32.3,18.7c17.2,0,31.2-7.8,32.2-17.6
		c0-0.1,0.1-0.2,0.1-0.3C99.1,59.1,97,56.7,96.8,55.1z"/>
	<path class="st4" d="M63.1,65c-2.7-0.3-5.3-0.8-7.7-1.6"/>
	<path class="st5" d="M93.3,54.2c-3.8,6.4-13.8,11.1-25.6,11.1"/>
	<path class="st5" d="M94.8,66.7c-3.9,4.6-9.5,8.1-16,10"/>
	<path class="st6" d="M94.3,27.8c-1.8-1.2,5-0.5-0.2,3.2c0,0-7.3,3-18.6,18.6c-15.4,21.3-12.7,34-12.7,34s-0.2,10-5.3,5
		c-5.1-5-44.2-23.4-39.8-25.7c4.4-2.3,17.4-9.7,27.1-23.6C54.4,25.4,57,11.8,59.1,10.7S94.3,27.8,94.3,27.8z"/>
	<g>
		<path class="st7" d="M13,66.2c-1.4,1.5-2.2,3.3-2.7,4.9l49.6,24.9c1-1.6,1.6-3.5,1.8-4.6c0.2-1.2,0.4-2.5,0.4-3.7L15.3,64
			C14.7,64.5,13.9,65.2,13,66.2z"/>
		<path class="st8" d="M9.4,75.5l47.3,23.6c1.4-0.6,2.4-1.7,3.2-3L10.2,71.2C9.5,73.5,9.4,75.5,9.4,75.5z"/>
		<path class="st4" d="M59.5,10.6l-0.4,0.1c0,0-2.7,13.6-13.2,29C35.5,55.2,22.1,62.2,19.5,62.6c-1.8,0.3-2.7,0.2-4.2,1.4l46.8,23.7
			c0-1.2-0.1-2.2-0.4-3.1c-0.9-2.3-0.8-17.2,10.4-33c14.2-19.9,24-23.3,24-23.3l0,0L59.5,10.6z"/>
		<polygon class="st8" points="97.8,25.1 64.3,8.9 59.5,10.6 96.2,28.4 		"/>
	</g>
	<ellipse class="st8" cx="71.1" cy="28.7" rx="8.1" ry="6.6"/>
</g>
</svg>
