<?xml version="1.0" encoding="utf-8"?>
<!-- Generator: Adobe Illustrator 21.1.0, SVG Export Plug-In . SVG Version: 6.00 Build 0)  -->
<svg version="1.1" id="Layer_1" xmlns="http://www.w3.org/2000/svg" xmlns:xlink="http://www.w3.org/1999/xlink" x="0px" y="0px"
	 width="108px" height="108px" viewBox="0 0 108 108" style="enable-background:new 0 0 108 108;" xml:space="preserve">
<style type="text/css">
	.st0{fill:#FFFFFF;}
	.st1{fill:#E6E6E6;}
	.st2{fill:none;stroke:#000000;stroke-width:0.75;stroke-linecap:round;stroke-linejoin:round;stroke-miterlimit:10;}
	.st3{fill:#FFFFFF;stroke:#000000;stroke-width:0.75;stroke-linecap:round;stroke-linejoin:round;stroke-miterlimit:10;}
	.st4{fill:#F2F2F2;}
	.st5{fill:#F2F2F2;stroke:#000000;stroke-width:0.75;stroke-linecap:round;stroke-linejoin:round;stroke-miterlimit:10;}
	.st6{fill:none;stroke:#000000;stroke-width:0.5;stroke-linecap:round;stroke-linejoin:round;stroke-miterlimit:10;}
</style>
<g>
	<path class="st0" d="M25.7,24.3c0.4,1.2,0.7,2.3,0.9,2.7c2.1,5.6,13.2,9.8,26.5,9.8c11.2,0,21.5-3.5,25.2-7.5
		C69,8.1,40.1,10.6,25.7,24.3z"/>
	<path class="st1" d="M25.7,24.3c14.4-13.6,43.3-16.1,52.6,5c0.7-0.8,1.2-1.6,1.4-2.4c0.1-0.6,0.9-4.3,1.4-5.6c0.2-0.4,1-1.3,1.4-3
		c0.2-0.6,0.4-1.2,0.4-1.8c0-6.5-13.3-11.8-29.8-11.8c-15.9,0-28.8,4.9-29.7,11.1c0,0.1,0,0.1-0.1,0.2c-0.5,2.8,1.4,4.4,1.6,5.4
		C25.1,22,25.4,23.2,25.7,24.3z"/>
	<path class="st2" d="M25,21.3c0.3,1.5,1.4,5,1.6,5.6c2.1,5.6,13.2,9.8,26.5,9.8c13.4,0,25.5-4.9,26.6-9.9c0.1-0.6,0.9-4.3,1.4-5.6
		c0.2-0.4,1-1.3,1.4-3c0.2-0.6,0.4-1.2,0.4-1.8c0-6.5-13.3-11.8-29.8-11.8c-15.9,0-28.8,4.9-29.7,11.1c0,0.1,0,0.1-0.1,0.2
		C22.9,18.8,24.8,20.3,25,21.3z"/>
	<line class="st3" x1="46.6" y1="37.5" x2="46.6" y2="26.3"/>
	<path class="st1" d="M59.9,41.2c0-0.1,0.1-0.2,0.1-0.4c0-0.1,0-14.7-0.1-14.9c-0.1-0.2-0.1-0.4-0.3-0.5c-0.9-1.3-3.7-2.2-7.1-2.2
		c-3.4,0-6.3,1-7.1,2.3c-0.1,0.1-0.2,0.3-0.2,0.4c0,0.1,0,13,0,14.6C50.4,37.5,56,36.9,59.9,41.2z"/>
	<path class="st4" d="M52.6,43.9c3.8,0,6.8-1.2,7.3-2.7c-4-4.3-9.6-3.6-14.7-0.6c0,0.1,0,0.2,0,0.2C45.3,42.5,48.6,43.9,52.6,43.9z"
		/>
	<path class="st2" d="M45.3,40.8c0-0.1,0-14.7,0-14.8c0-0.2,0.1-0.3,0.2-0.4c0.8-1.3,3.7-2.3,7.1-2.3c3.3,0,6.1,0.9,7.1,2.2
		c0.1,0.2,0.2,0.3,0.3,0.5C60,26,60,40.6,60,40.8c0,1.7-3.3,3.1-7.4,3.1C48.6,43.9,45.3,42.5,45.3,40.8z"/>
	<path class="st5" d="M56.1,70.6c3.9-0.8,7.7-3.9,10.3-8.4c0.6-1.1,0.2-2.4-0.8-3c-1.1-0.6-2.4-0.2-3,0.8c-2,3.4-4.7,5.7-7.4,6.3
		c-1.6,0.4-3.2,0.1-4.5-0.9c-1.2-0.9-1.9-1.9-2-3c-0.2-1.8,0.9-4.3,3.1-6.8c4.2-4.9,2.5-12.8,2.5-13.2c-0.3-1.2-1.4-1.9-2.6-1.7
		c-1.2,0.3-1.9,1.4-1.7,2.6c0.4,1.7,0.8,6.7-1.5,9.3c-2.1,2.5-4.6,6.2-4.1,10.2c0.3,2.4,1.6,4.4,3.8,6.1
		C50.4,70.7,53.2,71.2,56.1,70.6z"/>
	<path class="st3" d="M53.6,105.5c0.3-4.3,0.8-14.9-1.7-21.3l-1.3-3c-2-4.5-3.9-8.8-0.5-13.4c1.2-1.7,2.9-2.6,5-2.7
		c3.6-0.2,7.5,2,8.6,3.3c1.3,1.4,3.4,7.9,4.4,12c0.2,0.9,1.2,1.5,2.1,1.3c0.9-0.2,1.5-1.2,1.3-2.1c-0.5-1.8-2.9-10.9-5.3-13.5
		c-1.8-1.9-6.6-4.7-11.4-4.4c-3.1,0.2-5.8,1.6-7.6,4.1c-4.6,6.3-2,12.2,0.1,17l1.2,2.8c2.2,5.9,1.7,16.6,1.4,19.8"/>
	<path class="st3" d="M50.7,65.4"/>
	<path class="st3" d="M52.4,70.8c1.2,0.2,2.4,0.1,3.7-0.1c3.9-0.8,7.7-3.9,10.3-8.4c0.6-1.1,0.2-2.4-0.8-3c-1.1-0.6-2.4-0.2-3,0.8
		c-2,3.4-4.7,5.7-7.4,6.3c-0.7,0.1-1.4,0.2-2,0.1"/>
	<path class="st3" d="M48.1,69"/>
	<g>
		<path class="st6" d="M71.9,19.1c2.6,1.4,4.3,3.2,4.9,5c0.1,0.4,0.2,0.9,0.2,1.3"/>
		<path class="st6" d="M28.2,21.9c3.5-4.1,12.7-7,23.6-7"/>
		<path class="st6" d="M69.3,9.7c3.8,1.5,7,3.4,9.2,5.7"/>
		<path class="st6" d="M46.8,39.3c1.2-0.9,3.4-1.4,5.9-1.4c2.3,0,4.4,0.5,5.6,1.2"/>
	</g>
</g>
</svg>
