<?xml version="1.0" encoding="utf-8"?>
<!-- Generator: Adobe Illustrator 21.1.0, SVG Export Plug-In . SVG Version: 6.00 Build 0)  -->
<svg version="1.1" id="Layer_1" xmlns="http://www.w3.org/2000/svg" xmlns:xlink="http://www.w3.org/1999/xlink" x="0px" y="0px"
	 width="108px" height="108px" viewBox="0 0 108 108" style="enable-background:new 0 0 108 108;" xml:space="preserve">
<style type="text/css">
	.st0{fill:#F2F2F2;stroke:#000000;stroke-width:0.75;stroke-linecap:round;stroke-linejoin:round;stroke-miterlimit:10;}
	.st1{fill:#FFFFFF;stroke:#000000;stroke-width:0.5;stroke-linecap:round;stroke-linejoin:round;stroke-miterlimit:10;}
	.st2{fill:#E6E6E6;stroke:#000000;stroke-width:0.75;stroke-linecap:round;stroke-linejoin:round;stroke-miterlimit:10;}
	.st3{fill:#FFFFFF;stroke:#000000;stroke-width:0.75;stroke-linecap:round;stroke-linejoin:round;stroke-miterlimit:10;}
	.st4{fill:#F2F2F2;stroke:#000000;stroke-width:0.5;stroke-linecap:round;stroke-linejoin:round;stroke-miterlimit:10;}
	.st5{fill:#E6E6E6;stroke:#000000;stroke-width:0.5;stroke-linecap:round;stroke-linejoin:round;stroke-miterlimit:10;}
	.st6{fill:#CCCCCC;stroke:#000000;stroke-width:0.5;stroke-linecap:round;stroke-linejoin:round;stroke-miterlimit:10;}
	.st7{fill:none;stroke:#000000;stroke-width:0.5;stroke-linecap:round;stroke-linejoin:round;stroke-miterlimit:10;}
</style>
<g>
	<path class="st0" d="M13,92.5c-1.8-3.7-4-25.5-5-33C7.1,52.1,5.5,41,5.5,41h6.3l0.1,3.2L13,92.5z"/>
	<polygon class="st1" points="101.6,87.1 101.6,87.1 13,92.5 	"/>
	<polygon class="st2" points="101.6,87.1 13,92.5 11.9,44.2 11.8,41 12.4,41 13.2,47.2 90.5,46.9 89.6,41 96,41 	"/>
	<polygon class="st3" points="98.9,29 99.9,44.2 102.5,87 101.6,87.1 96,41 89.6,41 90.5,46.9 13.2,47.2 12.4,41 11.8,41 11.5,28.1 
			"/>
	<path class="st4" d="M50.2,28.5l-2.1,0c-1.2-3.1-1.7-7.1-0.2-11.5c0,0,0.1,0,0.1,0C50.9,17.4,50.2,28.5,50.2,28.5z"/>
	<path class="st5" d="M71.3,31.3l-2.7,4.4l-1-0.5l-17.4-0.5l-1.9,1l-5-3.5l6.6-0.5c-0.6-0.9-1.2-2-1.7-3.2l2.1,0l14,0.1
		c0.7,2.2,1.4,2.7,1.4,2.7L71.3,31.3z"/>
	<polygon class="st4" points="68.6,35.6 67.2,38 52.1,38.3 48.3,35.7 50.2,34.7 67.6,35.2 	"/>
	<path class="st4" d="M65.6,28.7l-1.3,0c-0.6-1.9-1.6-4.9-1.4-10.4L48,16.9c0,0-0.1,0-0.1,0c1.4-0.8,1.6-1.4,8.8-1.2
		c7.2,0.2,8,0.4,8.7,1.4C67.9,20.8,65.6,28.7,65.6,28.7z"/>
	<path class="st6" d="M50.2,28.5c0,0,0.6-11.1-2.2-11.6c0,0,2-2.6,15.1-0.8c-0.2,6.1,0.5,10.6,1.1,12.5L50.2,28.5z"/>
	<line class="st3" x1="102.5" y1="87" x2="101.6" y2="87.1"/>
	<g>
		<line class="st7" x1="75" y1="38.8" x2="68.6" y2="35.6"/>
		<line class="st7" x1="48.3" y1="35.7" x2="41.5" y2="39.2"/>
		<polyline class="st7" points="11.9,44.2 25.8,44.2 26.4,45.8 		"/>
		<polyline class="st7" points="88.9,45.8 89.4,44.2 99.8,44.2 		"/>
	</g>
</g>
</svg>
