<?xml version="1.0" encoding="utf-8"?>
<!-- Generator: Adobe Illustrator 21.1.0, SVG Export Plug-In . SVG Version: 6.00 Build 0)  -->
<svg version="1.1" id="Layer_1" xmlns="http://www.w3.org/2000/svg" xmlns:xlink="http://www.w3.org/1999/xlink" x="0px" y="0px"
	 width="108px" height="108px" viewBox="0 0 108 108" style="enable-background:new 0 0 108 108;" xml:space="preserve">
<style type="text/css">
	.st0{fill:#F2F2F2;}
	.st1{fill:#FFFFFF;}
	.st2{fill:none;stroke:#000000;stroke-width:0.75;stroke-linecap:round;stroke-linejoin:round;stroke-miterlimit:10;}
	.st3{fill:#CCCCCC;stroke:#000000;stroke-width:0.75;stroke-linecap:round;stroke-linejoin:round;stroke-miterlimit:10;}
	.st4{fill:#808080;stroke:#000000;stroke-width:0.75;stroke-linecap:round;stroke-linejoin:round;stroke-miterlimit:10;}
	.st5{fill:#FFFFFF;stroke:#000000;stroke-width:0.75;stroke-linecap:round;stroke-linejoin:round;stroke-miterlimit:10;}
	.st6{fill:#999999;stroke:#000000;stroke-width:0.75;stroke-linecap:round;stroke-linejoin:round;stroke-miterlimit:10;}
	.st7{fill:#E6E6E6;}
	.st8{fill:#F2F2F2;stroke:#000000;stroke-width:0.75;stroke-linecap:round;stroke-linejoin:round;stroke-miterlimit:10;}
	.st9{fill:#E6E6E6;stroke:#000000;stroke-width:0.75;stroke-linecap:round;stroke-linejoin:round;stroke-miterlimit:10;}
	.st10{fill:#FFFFFF;stroke:#000000;stroke-width:0.5;stroke-linecap:round;stroke-linejoin:round;stroke-miterlimit:10;}
</style>
<g>
	<path class="st0" d="M80,45.7L16.9,25l-0.8-0.3c0,0-1,1-1.3,1.9c0,0.1,0,0.2-0.1,0.3c21.1,9.6,43.1,15.1,65,21.3
		C80.1,46.7,80,45.7,80,45.7z"/>
	<path class="st1" d="M14.7,26.9c-0.4,2.1-1.6,13.4-2.3,17c-0.8,3.9-1.1,13.6-3,16.9c0,0,0,0,0,0c20.9,7.3,41.9,13,62.8,19.9
		c0.4-1.4,0.8-2.9,1.2-4.7c1.6-7.8,3.1-13.1,3.8-17.6c0.6-4.5,1.8-8,2.4-9.7c0.1-0.2,0.1-0.4,0.2-0.6C57.8,42,35.8,36.5,14.7,26.9z"
		/>
	<path class="st0" d="M68.5,89.9c0.5-1.8,2.2-4.4,3.6-9.1C51.2,73.9,30.3,68.2,9.4,60.9c-1.9,3.3-2.9,6.6-2.9,6.6s0,0,0,0
		c0,0.1-0.5,1.3-0.5,2.7c0,1.6,0.2,1.9,1,2.3c3.4,1.6,3.6,3.6,63.3,22.9C70.3,95.5,67.8,92.3,68.5,89.9z"/>
	<path class="st2" d="M79.5,48.8c-0.6,1.8-1.8,5.3-2.4,9.7c-0.6,4.5-2.2,9.8-3.8,17.6c-1.6,7.8-4.1,11.5-4.8,13.8
		c-0.7,2.4,1.7,5.6,1.7,5.6C10.6,76.1,10.3,74.2,7,72.5c-0.8-0.4-1-0.8-1-2.3c0-1.4,0.4-2.6,0.5-2.7c0,0,0,0,0,0s1-3.3,2.9-6.6
		c1.9-3.3,2.2-13,3-16.9c0.8-3.9,2.1-16.3,2.4-17.3c0.3-1,1.3-1.9,1.3-1.9l0.8,0.3L80,45.7C80,45.7,80.2,47.1,79.5,48.8z"/>
	<path class="st3" d="M91.5,38.2L91.5,38.2c-0.1,0-0.2-0.1-0.4-0.1c-1.9-0.2-3.4,0.6-4.6,1.4c-0.7,0.4-1.2,1.1-1.5,1.6
		c-0.3,0.4-0.4,0.8-0.4,0.8l-1.9,3.5c0,0-0.4,0.9-0.8,2.2L80,45.7c0,0,0.2,1.4-0.5,3.1c-0.6,1.8-1.8,5.3-2.4,9.7
		c-0.6,4.5-2.2,9.8-3.8,17.6c-1.6,7.8-4.1,11.5-4.8,13.8c-0.7,2.4,1.7,5.6,1.7,5.6l0.2,0c0,0,1.3,0.3,2.5-0.5c1.2-0.8,2.4-2.8,3-6.8
		c0.3-2.1,0.8-7.1,1.5-10.6c0-0.2,0.1-0.5,0.1-0.7c0.6-3.4,1.1-6.3,1.6-9.3c1-5.3,4.1-16.3,4.1-16.3s2.6,2.8,3.3,3.7
		c0.2,0.3,0.5,0.6,0.8,1L88.6,80l1.8,0.5c0,0-0.2-4.1-0.5-8.6c-0.1-2.2,0-14.2-0.3-15.7c-0.2-1-1-2.2-1.8-3.2l0,0
		c-0.5-0.6-1-1.2-1.3-1.5c-0.9-1-0.9-3.9-0.5-6.1c0.5-2.2,1.4-3.4,3.6-4.4c2.2-1,4.5,0,4.5,0l0.2,0.1C94.2,41,93.2,38.7,91.5,38.2z
		 M74.1,87.7c-0.6,1.9-1.6,5-2.6,5c-0.5,0-0.9-1.1-1-1.6c-0.1-0.4,0.6-1.3,1.1-1.9c0.7-0.8,2.9-8.3,3.9-11.5
		C75.1,80.8,74.5,86.5,74.1,87.7z"/>
	<path class="st4" d="M75.6,77.7c-0.5,3.2-1.1,8.8-1.5,10c-0.6,1.9-1.6,5-2.6,5c-0.5,0-0.9-1.1-1-1.6c-0.1-0.4,0.6-1.3,1.1-1.9
		C72.3,88.4,74.6,80.8,75.6,77.7z"/>
	<path class="st5" d="M75.6,77.5c0,0.1,0,0.1-0.1,0.2c0.1-0.6,0.2-1.2,0.2-1.8c0.1-1.1,0.3-2.1,0.4-2.9c0.5-3.3,3.3-17.3,3.8-19.5
		c0.3-1.3,1.2-4,1.9-5.9"/>
	<path class="st6" d="M88.6,80L78,76.8l-0.5,0.7c0-0.2,0.1-0.5,0.1-0.7c0.6-3.4,1.1-6.3,1.6-9.3c1-5.3,4.1-16.3,4.1-16.3
		s2.6,2.8,3.3,3.7c0.2,0.3,0.5,0.6,0.8,1L88.6,80z"/>
	<path class="st1" d="M105.3,44.5L94.2,41L94,41c0,0-2.3-1-4.5,0c-2.2,1-3.1,2.1-3.6,4.4c-0.1,0.6-0.2,1.1-0.2,1.7
		c14.4,4.7,5.2,1,19.7,5.4L105.3,44.5z"/>
	<path class="st7" d="M85.7,47.1c-0.2,1.8,0,3.6,0.7,4.4c0.3,0.4,0.8,0.9,1.3,1.5l0,0l0.3-0.2l6.5,2.1l1.2,0.4l9.7,2.8l0-5.6
		C90.9,48.1,100.1,51.7,85.7,47.1z"/>
	<path class="st2" d="M105.5,58.1l-9.7-2.8l-1.2-0.4L88,52.8L87.7,53l0,0c-0.5-0.6-1-1.2-1.3-1.5c-0.9-1-0.9-3.9-0.5-6.1
		c0.5-2.2,1.4-3.4,3.6-4.4c2.2-1,4.5,0,4.5,0l0.2,0.1l11.2,3.4"/>
	<polygon class="st3" points="96.1,72 94.9,72.8 94.6,72.8 94.7,72.4 94.5,55 94.5,54.9 95.7,55.3 	"/>
	<path class="st6" d="M94.7,72.4l-0.1,0.4l-4.7-0.9c-0.1-2.2,0-14.2-0.3-15.7c-0.2-1-1-2.2-1.8-3.2l0.3-0.2l6.5,2.1l0,0.1L94.7,72.4
		z"/>
	<path class="st5" d="M91.6,38l-0.1,0.2h0c-0.1,0-0.2-0.1-0.4-0.1c-1.9-0.2-3.4,0.6-4.6,1.4c-0.7,0.4-1.2,1.1-1.5,1.6L19.5,19.6
		c0,0,0.1-0.6,0.5-1.5c0.1-0.2,0.2-0.5,0.4-0.7c0.5-0.6,1.3-1.1,1.3-1.1L91.6,38L91.6,38z"/>
	<path class="st8" d="M85,41c-0.3,0.4-0.4,0.8-0.4,0.8l-1.9,3.5l1.5-2.8L17.5,21.2l1.9-1.6L85,41z"/>
	<path class="st9" d="M84.2,42.5l-1.5,2.8c0,0-0.4,0.9-0.8,2.2L80,45.7L16.9,25l0.7-3.8L84.2,42.5z"/>
	<path class="st1" d="M17.5,21.2l1.9-1.6c0,0,0.1-0.6,0.5-1.5c0.1-0.2,0.2-0.5,0.4-0.7c-0.3-0.1-2.8-0.9-3.9-1.3
		c-1.2-0.4-11.5-3.9-12-3.6l-1.2,6c6.8,2.4,7,3.1,13.8,5.4L17.5,21.2z"/>
	<path class="st7" d="M3.3,18.5l-0.7,3.7l12.3,4.4c0.3-1,1.3-1.9,1.3-1.9l0.8,0.3l0.2-1C10.3,21.6,10,20.9,3.3,18.5z"/>
	<path class="st2" d="M4.5,12.5c0.5-0.3,10.8,3.2,12,3.6c1.1,0.4,3.5,1.2,3.9,1.3c-0.2,0.2-0.3,0.5-0.4,0.7c-0.4,1-0.5,1.5-0.5,1.5
		l-1.9,1.6L16.9,25l-0.8-0.3c0,0-1,1-1.3,1.9L2.5,22.2"/>
	<path class="st5" d="M20.4,17.4C20.4,17.4,20.4,17.4,20.4,17.4"/>
	<line class="st5" x1="81.9" y1="47.5" x2="81.9" y2="47.5"/>
	<line class="st10" x1="13.7" y1="62.6" x2="66.2" y2="78.7"/>
</g>
</svg>
