<?xml version="1.0" encoding="utf-8"?>
<!-- Generator: Adobe Illustrator 21.1.0, SVG Export Plug-In . SVG Version: 6.00 Build 0)  -->
<svg version="1.1" id="Layer_1" xmlns="http://www.w3.org/2000/svg" xmlns:xlink="http://www.w3.org/1999/xlink" x="0px" y="0px"
	 width="108px" height="108px" viewBox="0 0 108 108" style="enable-background:new 0 0 108 108;" xml:space="preserve">
<style type="text/css">
	.st0{fill:#B3B3B3;stroke:#000000;stroke-width:0.5;stroke-linecap:round;stroke-linejoin:round;stroke-miterlimit:10;}
	.st1{fill:#808080;stroke:#000000;stroke-width:0.5;stroke-linecap:round;stroke-linejoin:round;stroke-miterlimit:10;}
	.st2{fill:#E6E6E6;stroke:#000000;stroke-width:0.75;stroke-linecap:round;stroke-linejoin:round;stroke-miterlimit:10;}
	.st3{fill:#FFFFFF;}
	.st4{fill:#F2F2F2;}
	.st5{fill:none;stroke:#000000;stroke-width:0.75;stroke-linecap:round;stroke-linejoin:round;stroke-miterlimit:10;}
	.st6{fill:#FFFFFF;stroke:#000000;stroke-width:0.75;stroke-linecap:round;stroke-linejoin:round;stroke-miterlimit:10;}
	.st7{fill:#F2F2F2;stroke:#000000;stroke-width:0.75;stroke-linecap:round;stroke-linejoin:round;}
	.st8{fill:#CCCCCC;stroke:#000000;stroke-width:0.5;stroke-linecap:round;stroke-linejoin:round;stroke-miterlimit:10;}
	.st9{fill:#CCCCCC;stroke:#000000;stroke-width:0.75;stroke-linecap:round;stroke-linejoin:round;stroke-miterlimit:10;}
</style>
<g>
	<path class="st0" d="M80,40l-4.9-2.2l5.2-2.1l-6.6-2.9c0,0,0.1,5.9,2.1,7.5C77.7,41.9,79.4,40.8,80,40z"/>
	<polygon class="st1" points="86.4,28 86.9,25 91.5,27 91.4,29.6 	"/>
	<path class="st0" d="M90.1,33c0,0-3.2-1.6-4.7-2.2c-1.2-0.5-1.5-1.6-1.1-2.5c0.3-0.7,1.1-1.4,2.4-0.9c2.9,1.1,4.3,1.8,4.3,1.8
		L90.1,33z"/>
	<path class="st1" d="M88.3,25.7l-4.8-2.2c0,0,2.8-4.1,5-2C90.7,23.6,88.3,25.7,88.3,25.7z"/>
	<path class="st2" d="M9.4,47.9l20.8-18.1l70.3,32.8c0,0,1.6,0.2,0.3,2c-1.3,1.8-19,24.4-20.2,24.9C79.4,90,9.4,47.9,9.4,47.9z"/>
	<path class="st3" d="M80.3,84L8.9,45.6c0,0-0.5,0-2,1.4c-0.6,0.6-1.1,1.3-1.2,2c24,13.2,48.7,25,72.7,38.7C79,85.7,80.3,84,80.3,84
		z"/>
	<path class="st4" d="M78.5,87.7C54.4,73.9,29.7,62.2,5.7,49c-0.2,1.1,0.1,2.3,1.5,3.2c2.2,1.3,65.8,35.3,70.8,38
		c0.2,0.1,0.3,0.2,0.3,0.2C78.1,89.4,78.2,88.5,78.5,87.7z"/>
	<path class="st5" d="M78.3,90.3c0,0-0.1-0.1-0.3-0.2c-5-2.7-68.5-36.6-70.8-38C5,50.8,5.4,48.3,7,46.9s2-1.4,2-1.4L80.3,84
		C80.3,84,77.7,87.4,78.3,90.3z"/>
	<path class="st6" d="M94.8,63.8L26.4,29.7c0,0,1.1-0.9,2.7-1.9c1.6-1,2.8-1.4,6.5,0.5s65.7,33.5,65.7,33.5s-2.2,0-3.4,1.1
		C96.7,64,94.8,63.8,94.8,63.8z"/>
	<polygon class="st2" points="95.4,65.3 26.5,31 26.4,29.7 94.7,63.6 	"/>
	<polygon class="st2" points="74.8,48.3 73.3,37.5 66.1,34.4 54.8,38.1 	"/>
	<path class="st7" d="M74.5,24.8c0,0,0.6-4.4,3.8-6.4c2.6-1.6,3.9-0.9,5.3-0.5c1.4,0.4,5.3,2.2,5.3,2.2s-4.8,1.1-6.5,3.2
		c-1.7,2.1-2.2,3.8-2.2,3.8"/>
	<path class="st7" d="M73.3,37.5c0,0-2.6-3.5,0.7-7.1c3.2-3.6,6.3-3.1,6.3-3.1l-5.5-2.4c0,0-2.5-1.4-6.3,2.5
		c-3.7,3.9-2.5,7.1-2.5,7.1L73.3,37.5z"/>
	<path class="st8" d="M76.3,49l-1.4-8.6c0,0,0.5,1.6,2.4,1.6c1.9,0,3.1-1.2,3.1-1.2L80,40c0,0-3.7,1.8-4.2-1.1
		c-0.4-2.5,3.9-1.7,3.9-1.7l0.5-1.5c0,0-1.9-0.7-4.8,0.7c-2.5-2.4,0-5.6,1.5-6.5c1.1-0.7,4.2-1,4.2-1s1.6-4.6,4.1-5.9
		c2.5-1.3,3.6-0.4,3.1,2.8c2.7,1.3,2.3,1.3,2.3,1.3l-0.4,2.1c0,0-1.6,0.5-1.7,1.8c-0.1,1.2,0.5,1.9,2.1,2.3c1.5,0.3,2.1-1.3,2.1-2.2
		s-0.7-1.5-0.7-1.5l0.2-1.9l3.8,2.4l0.3-2.5L90.5,24c0.3-2.9-1.2-4.9-4.5-3.8s-5.7,6.9-5.7,6.9S77.1,26.3,74,30
		c-3.1,3.7-0.6,7.4-0.6,7.4l1.3,10.7L76.3,49z"/>
	<path class="st9" d="M79.9,83.7c-1.6,2.1-4.3,5.2-1.7,6.5c2.6,1.3,4.3-0.8,7.6-5c3.3-4.1,13.7-17.2,15.9-20
		c2.1-2.8-1.5-5.4-4.1-3.4c-2.5,2-2.9,1.7-2.9,1.7l0.7,1.7c0,0,2.1-0.3,3.1-1.7c1-1.4,2.4-0.2,1.5,0.8c-0.9,1.1-17,21.5-18.5,23.2
		s-2.8,0.4-1.9-0.7s1.6-2.3,1.6-2.3L79.9,83.7z"/>
</g>
</svg>
