<?xml version="1.0" encoding="utf-8"?>
<!-- Generator: Adobe Illustrator 21.1.0, SVG Export Plug-In . SVG Version: 6.00 Build 0)  -->
<svg version="1.1" id="Layer_1" xmlns="http://www.w3.org/2000/svg" xmlns:xlink="http://www.w3.org/1999/xlink" x="0px" y="0px"
	 width="108px" height="108px" viewBox="0 0 108 108" style="enable-background:new 0 0 108 108;" xml:space="preserve">
<style type="text/css">
	.st0{fill:#E6E6E6;stroke:#000000;stroke-width:0.75;stroke-linecap:round;stroke-linejoin:round;stroke-miterlimit:10;}
	.st1{fill:#B3B3B3;stroke:#000000;stroke-width:0.75;stroke-linecap:round;stroke-linejoin:round;stroke-miterlimit:10;}
	.st2{fill:#FFFFFF;stroke:#000000;stroke-width:0.75;stroke-linecap:round;stroke-linejoin:round;stroke-miterlimit:10;}
	.st3{fill:#F2F2F2;}
	.st4{fill:#FFFFFF;}
	.st5{fill:#E6E6E6;}
	.st6{fill:none;stroke:#000000;stroke-width:0.75;stroke-linecap:round;stroke-linejoin:round;stroke-miterlimit:10;}
	.st7{fill:#CCCCCC;stroke:#000000;stroke-width:0.5;stroke-linecap:round;stroke-linejoin:round;stroke-miterlimit:10;}
	.st8{fill:#808080;stroke:#000000;stroke-width:0.5;stroke-linecap:round;stroke-linejoin:round;stroke-miterlimit:10;}
	.st9{fill:#666666;stroke:#000000;stroke-width:0.5;stroke-linecap:round;stroke-linejoin:round;stroke-miterlimit:10;}
	.st10{fill:#999999;stroke:#000000;stroke-width:0.75;stroke-linecap:round;stroke-linejoin:round;stroke-miterlimit:10;}
	.st11{fill:none;stroke:#000000;stroke-width:0.5;stroke-linecap:round;stroke-linejoin:round;stroke-miterlimit:10;}
</style>
<polygon class="st0" points="94.3,29.3 94.3,30.9 25,45.1 24.9,45 25.3,44.9 25,43.6 89.4,30.4 "/>
<path class="st1" d="M89.4,30.4L25,43.6L25,43.3l-5.3,1.2l0.1,1.2l3.2-0.7c0,0,0.2,1.4,0.6,3.6l-5.9-2l0.2-8.1l4.9,1.5l0.2,0.1
	l66.5-13.7v3.6L89.4,30.4z"/>
<polygon class="st0" points="94.3,24.1 94.3,25.4 89.3,26.5 22.8,40.2 22.6,40.1 22.9,38.8 23,38.8 "/>
<polygon class="st2" points="94.3,24.1 23,38.8 22.9,38.8 22.9,38.7 16.8,36.5 87.1,21.7 "/>
<path class="st3" d="M94.3,30.9L25,45.1L24.9,45l-0.4,0.1c0,0,1,6.2,2.2,13.6c23.4-5,46.2-10,69.7-14.2L94.3,30.9z"/>
<path class="st4" d="M96.4,44.5C72.9,48.7,50,53.7,26.7,58.7c1.7,10.3,3.7,22.9,4.1,25.1c0.6,3.7,0.4,4.8,2.3,6.5
	c0,0,0.1,0.1,0.1,0.1c22.5-5.5,44.6-13.4,67.3-19L96.4,44.5z"/>
<path class="st5" d="M100.5,71.7l0-0.3c-22.7,5.6-44.8,13.5-67.3,19c2.1,1.9,0.9,3.3-0.3,3.9L100.7,76v0
	C103.7,72.9,100.5,71.7,100.5,71.7z"/>
<path class="st6" d="M100.7,76L100.7,76L32.9,94.3c1.2-0.6,2.4-2,0.2-4c-1.9-1.7-1.7-2.8-2.3-6.5c-0.6-3.7-6.3-38.7-6.3-38.7
	l0.4-0.1l0.1,0.2l69.3-14.3l6.2,40.8C100.5,71.7,103.7,72.9,100.7,76z"/>
<path class="st6" d="M31.1,93c-0.6-0.5-0.6-1.5-0.9-3.1c-0.2-0.8-0.7-3.7-1.3-7.5c0-0.2-0.1-0.4-0.1-0.6l-2.6-17.4
	c1.8,11,3.8,23,4,24.3c0.4,2.5,2.2,2,2.8,3.7C33.3,93.3,31.8,93.5,31.1,93z"/>
<polygon class="st7" points="16.4,41.5 16.2,46.4 5.5,43.4 "/>
<path class="st8" d="M24.5,64.5L9.8,67.4l0-0.2l0.1,0L7,45.2l15.3,4.6l0.4,2.8l-7,1.7l-2.5,6.8l1.2,3.6l0.4,0.1l9.4-2.1
	C24.2,63.3,24.3,63.9,24.5,64.5z"/>
<line class="st6" x1="24.7" y1="62.7" x2="24.1" y2="62.8"/>
<path class="st9" d="M24.2,62.8L24.2,62.8l-9.4,2.1l-0.4-0.1l0.3-0.1l1.1-0.5L14.5,61l1.5-4.4c0,0,2.4,2.3,4.1,3.1
	c1.7,0.8,3.5,0,3.5,0S23.8,60.9,24.2,62.8z"/>
<path class="st10" d="M23.5,58.3c0,0-1.9,0.7-3.1,0.1c-1.2-0.6-4.7-4-4.7-4l7-1.7L23.5,58.3z"/>
<path class="st6" d="M94.3,25.4"/>
<line class="st6" x1="25" y1="43.6" x2="24.8" y2="43.6"/>
<path class="st6" d="M94.3,29.3"/>
<g>
	<line class="st11" x1="27.2" y1="48.3" x2="89.4" y2="35.6"/>
	<line class="st11" x1="29" y1="58.3" x2="92.1" y2="45.3"/>
	<line class="st11" x1="35.3" y1="89.6" x2="96.1" y2="72.7"/>
</g>
<path class="st6" d="M24.3,52.2l1.8,12.2c-0.7-4.4-1.5-8.7-2-12.2c-0.2-1.2-0.4-2.2-0.5-3.2c0-0.1,0-0.2,0-0.3
	c0.2,0,0.2,0.1,0.2,0.1L24.3,52.2z"/>
<path class="st6" d="M32.8,94.3c-0.3,0.1-0.5,0.2-0.7,0.2c0,0-0.1,0-0.1,0L32.8,94.3z"/>
<path class="st0" d="M33,90.3c-1.9-1.7-1.7-2.8-2.3-6.5c-0.6-3.7-6.3-38.7-6.3-38.7l0.4-0.1l0.4-0.1L25,43.6L25,43.3l-5.3,1.2
	l0.1,1.2l3.2-0.7c0,0,0.2,1.4,0.6,3.6l-5.9-2l0.2-8.1l4.9,1.5l0.3-1.3l0,0l-6.2-2.2l-0.2-0.1l-0.2,5l-0.2,4.9l-7.3-2l-3.5-1
	l2.7,23.6l1.6,0.2l0.1,0L7,45.2l15.3,4.6l0.4,2.8l0.8,5.7c0,0-1.9,0.7-3.1,0.1c-1.2-0.6-4.7-4-4.7-4l-2.5,6.8l1.2,3.6l0.3-0.1
	l1.1-0.5L14.5,61l1.5-4.4c0,0,2.4,2.3,4.1,3.1c1.7,0.8,3.5,0,3.5,0s0.2,1.2,0.5,3v0c0.1,0.5,0.2,1.1,0.3,1.7
	c1.4,8.3,4.2,24.6,4.5,26.8c0.4,2.8,1.8,3.4,3.1,3.3l0.8-0.2c0,0,0,0,0,0C34.1,93.7,35.3,92.3,33,90.3z M31.1,93
	c-0.6-0.5-0.6-1.5-0.9-3.1c-0.2-0.8-0.7-3.7-1.3-7.5c0-0.2-0.1-0.4-0.1-0.6c-1.5-9-3.7-23-4.7-29.5c-0.2-1.5-0.4-2.6-0.5-3.2
	c0-0.1,0-0.2,0-0.3c0.2,0,0.2,0.1,0.2,0.1l0.5,3.4l1.8,12.2c1.8,11,3.8,23,4,24.3c0.4,2.5,2.2,2,2.8,3.7
	C33.3,93.3,31.8,93.5,31.1,93z"/>
<path class="st6" d="M32.8,94.3c-0.3,0.1-0.5,0.2-0.7,0.2c0,0-0.1,0-0.1,0L32.8,94.3z"/>
<path class="st6" d="M24.7,62.7"/>
<path class="st6" d="M14.8,64.8"/>
<line class="st6" x1="89.3" y1="26.5" x2="89.3" y2="26.5"/>
</svg>
