<?xml version="1.0" encoding="utf-8"?>
<!-- Generator: Adobe Illustrator 21.1.0, SVG Export Plug-In . SVG Version: 6.00 Build 0)  -->
<svg version="1.1" id="Layer_1" xmlns="http://www.w3.org/2000/svg" xmlns:xlink="http://www.w3.org/1999/xlink" x="0px" y="0px"
	 width="108px" height="108px" viewBox="0 0 108 108" style="enable-background:new 0 0 108 108;" xml:space="preserve">
<style type="text/css">
	.st0{fill:#F2F2F2;}
	.st1{fill:#FFFFFF;}
	.st2{fill:none;stroke:#000000;stroke-width:0.75;stroke-linecap:round;stroke-linejoin:round;stroke-miterlimit:10;}
	.st3{fill:none;stroke:#000000;stroke-width:0.5;stroke-linecap:round;stroke-linejoin:round;stroke-miterlimit:10;}
</style>
<g>
	<g>
		<path class="st0" d="M7,62.6l64.3,37.3c0.9,0.7,2.2,0.4,2.9-0.6l22-28c0.4-1.1-0.2-2.4-1.2-2.8l-10.9-6.4
			C58.4,63.5,32.7,62.8,7,62.6z"/>
		<path class="st1" d="M100.2,31.1l5.4,3.8l-0.7-8.7l-8.4-4.5l-7.6,3.1l4,2.6L69.1,53.3v0l-16.2-9.5l22.8-26.7l5.4,3.8l-0.7-8.7
			L72,7.7l-7.6,3.1l4,2.6L44.8,39.1l-13.1-6.6c-1.3-0.8-2.4-0.7-3.5,0.6L2.9,57.4c-0.7,1-0.5,2.4,0.5,3L7,62.6
			c25.7,0.2,51.4,0.9,77.1-0.4l-6.9-4.1L100.2,31.1z"/>
		<g>
			<path class="st2" d="M100.2,31.1l-23,27L95,68.6c1.1,0.4,1.6,1.7,1.2,2.8l-22,28c-0.7,1-2,1.3-2.9,0.6L3.3,60.5
				c-0.9-0.7-1.1-2-0.5-3l25.4-24.4c1.1-1.2,2.2-1.4,3.5-0.6l13.1,6.6l23.5-25.7l-4-2.6L72,7.7l8.4,4.5l0.7,8.7l-5.4-3.8L52.9,43.8
				l16.2,9.5v0l23.7-25.9l-4-2.6l7.6-3.1l8.4,4.5l0.7,8.7L100.2,31.1z"/>
		</g>
	</g>
	<polyline class="st3" points="36.3,43.6 41.2,42.9 49.7,47.6 51.3,53.2 	"/>
	<line class="st3" x1="65.2" y1="28.7" x2="58.2" y2="24.6"/>
	<polyline class="st3" points="60.4,58.2 65.3,57.5 73.8,62.2 75.4,67.9 	"/>
	<line class="st3" x1="89.7" y1="42.8" x2="82.7" y2="38.8"/>
</g>
</svg>
