<?xml version="1.0" encoding="utf-8"?>
<!-- Generator: Adobe Illustrator 21.1.0, SVG Export Plug-In . SVG Version: 6.00 Build 0)  -->
<svg version="1.1" id="Layer_1" xmlns="http://www.w3.org/2000/svg" xmlns:xlink="http://www.w3.org/1999/xlink" x="0px" y="0px"
	 width="108px" height="108px" viewBox="0 0 108 108" style="enable-background:new 0 0 108 108;" xml:space="preserve">
<style type="text/css">
	.st0{fill:#FFFFFF;}
	.st1{fill:#F2F2F2;}
	.st2{fill:none;stroke:#000000;stroke-width:0.75;stroke-linecap:round;stroke-linejoin:round;stroke-miterlimit:10;}
	.st3{fill:#FFFFFF;stroke:#000000;stroke-width:0.75;stroke-linecap:round;stroke-linejoin:round;stroke-miterlimit:10;}
	.st4{fill:#FFFFFF;stroke:#000000;stroke-width:0.5;stroke-linecap:round;stroke-linejoin:round;stroke-miterlimit:10;}
</style>
<g>
	<path class="st0" d="M101.5,31.3c0.5-0.5,0.2-1.3-0.7-1.7L62.1,8.4C61.2,8,60.2,8,59.7,8.5L38.1,31.1c-0.5,0.5-0.2,1.3,0.7,1.8
		c0,0,12.7,10,12.7,11.4c0,0.6-1.8,2.8-4,5.1c14.5-2.2,29.2-4.2,43.7-6.5L101.5,31.3z"/>
	<path class="st1" d="M47.5,49.4c-3.2,3.4-7.1,7.3-7.1,7.3L37.1,55l-0.8,5.8L34,63.6L30.6,62l-0.8,6.6l-1.9,2l-3.7-1.9l-0.8,6.8
		l-2,2.2l-3.9-1.8l-0.2,5.4l-2,2.1l-3.4-1.7l-2.4,8l-3.2,3.5l0.9,6.6l8.5-2.8l2.8-3.5l8.2-4.4l-3.2-1.7l1.8-2.2l7.5-2l-3.9-2l1.7-2
		l8.6-3.2l-3.5-1.9l1.9-2.1l7.9-2.8l-3.5-1.9l2.7-2.5l7.1-2.4L48.6,61c0,0,10.5-11.2,12.5-11.7C63.2,48.9,79,54,79,54
		c0.8,0.4,1.9,0.4,2.4-0.2l9.8-11C76.7,45.2,62,47.2,47.5,49.4z"/>
	<path class="st2" d="M100.9,29.6c0.8,0.4,1.1,1.2,0.7,1.7L81.4,53.9c-0.5,0.5-1.5,0.6-2.4,0.2c0,0-15.8-5.2-17.8-4.7
		C59.1,49.8,48.6,61,48.6,61l3.1,1.6L44.6,65l-2.7,2.5l3.5,1.9l-7.9,2.8l-1.9,2.1l3.5,1.9l-8.6,3.2l-1.7,2l3.9,2l-7.5,2l-1.8,2.2
		l3.2,1.7l-8.2,4.4l-2.8,3.5l-8.5,2.8l-0.9-6.6l3.2-3.5l2.4-8l3.4,1.7l2-2.1l0.2-5.4l3.9,1.8l2-2.2l0.8-6.8l3.7,1.9l1.9-2l0.8-6.6
		l3.3,1.6l2.3-2.7l0.8-5.8l3.3,1.7c0,0,11.2-10.9,11.1-12.4c0-1.5-12.7-11.4-12.7-11.4c-0.9-0.5-1.2-1.3-0.7-1.8L59.7,8.5
		C60.2,8,61.2,8,62.1,8.4L100.9,29.6z"/>
	<path class="st3" d="M71.3,48.1"/>
	<polyline class="st4" points="54.1,37.4 54.4,40.8 63.4,45.6 68.7,44.8 	"/>
</g>
</svg>
