<?xml version="1.0" encoding="utf-8"?>
<!-- Generator: Adobe Illustrator 21.1.0, SVG Export Plug-In . SVG Version: 6.00 Build 0)  -->
<svg version="1.1" id="Layer_1" xmlns="http://www.w3.org/2000/svg" xmlns:xlink="http://www.w3.org/1999/xlink" x="0px" y="0px"
	 width="108px" height="108px" viewBox="0 0 108 108" style="enable-background:new 0 0 108 108;" xml:space="preserve">
<style type="text/css">
	.st0{fill:#F2F2F2;}
	.st1{fill:#FFFFFF;}
	.st2{fill:none;stroke:#000000;stroke-width:0.75;stroke-linecap:round;stroke-linejoin:round;stroke-miterlimit:10;}
	.st3{fill:none;stroke:#000000;stroke-width:0.5;stroke-linecap:round;stroke-linejoin:round;stroke-miterlimit:10;}
</style>
<g>
	<path class="st0" d="M61,96.7c1,0.7,2.4,0.5,3.2-0.6l19.2-24.7c0.7-1.1,0.5-2.6-0.5-3.3l-4.1-4.6c-20.5,2.1-40.9,4.8-61.2,7.7
		L61,96.7z"/>
	<path class="st1" d="M90.8,21.1l5.8,4.1l-0.8-9.4l-9.1-4.9l-8.3,3.4l4.4,2.8L57.3,44.9l-18.9-2.6c-2.2-0.4-3.1-0.5-3.8,0.6
		L11.8,64.8c-0.7,1.1-0.5,2.6,0.5,3.3l5.1,3c20.4-2.9,40.7-5.6,61.2-7.7L66.1,49.4L90.8,21.1z"/>
	<path class="st2" d="M11.8,64.8c-0.7,1.1-0.5,2.6,0.5,3.3L61,96.7c1,0.7,2.4,0.5,3.2-0.6l19.2-24.7c0.7-1.1,0.5-2.6-0.5-3.3
		L66.1,49.4l24.6-28.3l5.8,4.1l-0.8-9.4l-9.1-4.9l-8.3,3.4l4.4,2.8L57.3,44.9l-18.9-2.6c-2.2-0.4-3.1-0.5-3.8,0.6L11.8,64.8z"/>
	<g>
		<polyline class="st3" points="48.1,49.8 53.3,48.9 62.6,53.9 64.5,59.9 		"/>
		<line class="st3" x1="79.4" y1="33.7" x2="71.8" y2="29.3"/>
	</g>
</g>
</svg>
