<?xml version="1.0" encoding="utf-8"?>
<!-- Generator: Adobe Illustrator 21.1.0, SVG Export Plug-In . SVG Version: 6.00 Build 0)  -->
<svg version="1.1" id="Layer_1" xmlns="http://www.w3.org/2000/svg" xmlns:xlink="http://www.w3.org/1999/xlink" x="0px" y="0px"
	 width="108px" height="108px" viewBox="0 0 108 108" style="enable-background:new 0 0 108 108;" xml:space="preserve">
<style type="text/css">
	.st0{fill:#808080;}
	.st1{fill:none;stroke:#000000;stroke-width:0.5;}
	.st2{fill:#FFFFFF;stroke:#000000;stroke-width:0.75;stroke-linecap:round;stroke-linejoin:round;}
	.st3{fill:#F2F2F2;stroke:#000000;stroke-width:0.75;stroke-linecap:round;stroke-linejoin:round;}
	.st4{fill:url(#SVGID_1_);stroke:#000000;stroke-width:0.5;stroke-linecap:round;stroke-linejoin:round;}
	.st5{fill:#CCCCCC;stroke:#000000;stroke-width:0.5;stroke-linecap:round;stroke-linejoin:round;}
	.st6{clip-path:url(#SVGID_3_);fill:#F2F2F2;}
	.st7{fill:none;stroke:#000000;stroke-width:0.75;stroke-linecap:round;stroke-linejoin:round;}
</style>
<g>
	<g>
		<g>
			<path class="st0" d="M67,39.1c0.6,0,1.5,0.5,2,0.8c-0.3-0.9-1.4-1.6-2.7-1.6c-1.6,0-2.8,1-2.8,2.2c0,0.7,0.5,1.4,1.2,1.8
				c-0.1-0.2-0.5-0.8-0.5-0.9C64.1,40.1,65.4,39.1,67,39.1z"/>
		</g>
		<g>
			<path class="st1" d="M67,39.1c0.6,0,1.5,0.5,2,0.8c-0.3-0.9-1.4-1.6-2.7-1.6c-1.6,0-2.8,1-2.8,2.2c0,0.7,0.5,1.4,1.2,1.8
				c-0.1-0.2-0.5-0.8-0.5-0.9C64.1,40.1,65.4,39.1,67,39.1z"/>
		</g>
	</g>
	<path class="st2" d="M100.4,60.5c-1.9-0.9-23.8-11.7-23.8-11.7l-1.9-11.3l-8.2-4.4l-13,4.1c0,0-18.2-8.5-20-9.4
		c-1.8-0.9-3.5-1-4.7,0c-1.2,1-19.1,16.3-21.3,18.1c-2.2,1.8-2,3.8,0,5C9.8,52.2,74.9,87,77.1,88.2c2.2,1.2,4.2,0.5,5.5-1
		c1.3-1.5,17.3-20.3,18.6-22.1C102.5,63.2,102.3,61.4,100.4,60.5z M66.2,42.6c-0.6,0-1.1-0.2-1.6-0.4c-0.7-0.4-1.2-1-1.2-1.8
		c0-1.2,1.3-2.2,2.8-2.2c1.3,0,2.4,0.7,2.7,1.6c0.1,0.2,0.1,0.4,0.1,0.6C69,41.7,67.8,42.6,66.2,42.6z"/>
	<path class="st3" d="M88,27.7l5.9,1.9c0,0,1.3-2.9-0.9-5.1c-2.2-2.2-2.2-2-4.9-3c-2.7-1-9.6-1.9-4.9,0.8C87.9,25.1,88,27.7,88,27.7
		z"/>
	<path class="st3" d="M88,27.7l5.9,1.9c0,0,2.1,7.3-1.5,5.6C88.8,33.4,88,27.7,88,27.7z"/>
	<path class="st3" d="M74.7,37.5c-1.1-2.2-1.3-5.4,0.5-7.5c3.4-3.9,8-0.3,8-0.3s0-4.6,1.8-6c1.8-1.3,4.6-1.8,5.2-1.5
		c0,0-4.7-1.6-7-2.6c-2.3-1-6.7-0.6-8.1,1.9c-1.4,2.5-1.1,3.4-1.1,3.4c-1.9-0.2-6.3-0.6-7.9,2.5s0.3,5.7,0.3,5.7L74.7,37.5z"/>
	<linearGradient id="SVGID_1_" gradientUnits="userSpaceOnUse" x1="74.1541" y1="27.1192" x2="82.5392" y2="27.1192">
		<stop  offset="0" style="stop-color:#C7D4DD"/>
		<stop  offset="0.5449" style="stop-color:#FFFFFF"/>
		<stop  offset="0.6642" style="stop-color:#FCFDFD"/>
		<stop  offset="0.7584" style="stop-color:#F2F5F7"/>
		<stop  offset="0.8442" style="stop-color:#E1E8ED"/>
		<stop  offset="0.9244" style="stop-color:#CAD6DF"/>
		<stop  offset="0.9326" style="stop-color:#C7D4DD"/>
	</linearGradient>
	<line class="st4" x1="74.2" y1="25" x2="82.5" y2="29.3"/>
	<path class="st5" d="M90.1,30c0.5-0.3,1.2-0.2,1.8,0.3c0.6,0.6,0.8,1.5,0.3,2c0,0-3.2,2.5-3.3,2.6c-0.5,0.4-1.3,0.3-1.9-0.2
		c-0.6-0.6-0.8-1.5-0.3-2C86.8,32.5,90,30,90.1,30z"/>
	<ellipse transform="matrix(0.6787 -0.7344 0.7344 0.6787 3.5157 75.3138)" class="st5" cx="87.8" cy="33.6" rx="1.3" ry="1.6"/>
	<g>
		<defs>
			<path id="SVGID_2_" d="M101.2,65.1C99.8,67,83.8,85.7,82.5,87.3c-1.3,1.5-3.3,2.2-5.5,1C74.9,87,9.8,52.2,7.6,50.9
				c-2-1.2-2.2-3.3,0-5c2.2-1.8,20.1-17.1,21.3-18.1c1.2-1,3-0.9,4.7,0c1.8,0.9,20,9.4,20,9.4l13-4.1l8.2,4.4l1.9,11.3
				c0,0,21.9,10.8,23.8,11.7C102.3,61.4,102.5,63.2,101.2,65.1z"/>
		</defs>
		<clipPath id="SVGID_3_">
			<use xlink:href="#SVGID_2_"  style="overflow:visible;"/>
		</clipPath>
		<polygon class="st6" points="116.4,57.4 -16.1,50 85.7,106.8 		"/>
	</g>
	<path class="st7" d="M100.4,60.5c-1.9-0.9-23.8-11.7-23.8-11.7l-1.9-11.3l-8.2-4.4l-13,4.1c0,0-18.2-8.5-20-9.4
		c-1.8-0.9-3.5-1-4.7,0c-1.2,1-19.1,16.3-21.3,18.1c-2.2,1.8-2,3.8,0,5C9.8,52.2,74.9,87,77.1,88.2c2.2,1.2,4.2,0.5,5.5-1
		c1.3-1.5,17.3-20.3,18.6-22.1C102.5,63.2,102.3,61.4,100.4,60.5z M66.2,42.6c-0.6,0-1.1-0.2-1.6-0.4c-0.7-0.4-1.2-1-1.2-1.8
		c0-1.2,1.3-2.2,2.8-2.2c1.3,0,2.4,0.7,2.7,1.6c0.1,0.2,0.1,0.4,0.1,0.6C69,41.7,67.8,42.6,66.2,42.6z"/>
</g>
</svg>
