<?xml version="1.0" encoding="utf-8"?>
<!-- Generator: Adobe Illustrator 21.1.0, SVG Export Plug-In . SVG Version: 6.00 Build 0)  -->
<svg version="1.1" id="Layer_1" xmlns="http://www.w3.org/2000/svg" xmlns:xlink="http://www.w3.org/1999/xlink" x="0px" y="0px"
	 width="108px" height="108px" viewBox="0 0 108 108" style="enable-background:new 0 0 108 108;" xml:space="preserve">
<style type="text/css">
	.st0{fill:#CCCCCC;}
	.st1{fill:#808080;}
	.st2{fill:none;stroke:#000000;stroke-width:0.5;stroke-linecap:round;stroke-linejoin:round;}
	.st3{fill:#CCCCCC;stroke:#000000;stroke-width:0.75;stroke-linecap:round;stroke-linejoin:round;}
	.st4{fill:#B3B3B3;stroke:#000000;stroke-width:0.75;stroke-linecap:round;stroke-linejoin:round;}
	.st5{fill:#F2F2F2;stroke:#000000;stroke-width:0.75;stroke-linecap:round;stroke-linejoin:round;}
	.st6{fill:#B3B3B3;stroke:#000000;stroke-width:0.5;stroke-linecap:round;stroke-linejoin:round;}
	.st7{fill:#CCCCCC;stroke:#000000;stroke-width:0.5;stroke-linecap:round;stroke-linejoin:round;}
	.st8{fill:url(#SVGID_1_);stroke:#000000;stroke-width:0.5;stroke-linecap:round;stroke-linejoin:round;}
	.st9{fill:#FFFFFF;}
	.st10{fill:none;stroke:#000000;stroke-width:0.75;stroke-linecap:round;stroke-linejoin:round;}
	.st11{clip-path:url(#SVGID_3_);fill:#F2F2F2;}
</style>
<g>
	<g>
		<g>
			<path class="st0" d="M73.5,37.4c-0.5-0.2-1.4-0.8-1.9-0.8c-1.6,0-2.8,1-2.8,2.2c0,0.2,0.4,0.8,0.5,0.9c-0.7-0.4-1.2-1-1.2-1.8
				c0-1.2,1.3-2.2,2.8-2.2C72.1,35.8,73.2,36.5,73.5,37.4z"/>
		</g>
		<g>
			<path class="st1" d="M73.5,37.4c-0.5-0.2-1.4-0.8-1.9-0.8c-1.6,0-2.8,1-2.8,2.2c0,0.2,0.4,0.8,0.5,0.9c-0.7-0.4-1.2-1-1.2-1.8
				c0-1.2,1.3-2.2,2.8-2.2C72.1,35.8,73.2,36.5,73.5,37.4z"/>
		</g>
		<g>
			<path class="st2" d="M73.5,37.4c-0.5-0.2-1.4-0.8-1.9-0.8c-1.6,0-2.8,1-2.8,2.2c0,0.2,0.4,0.8,0.5,0.9c-0.7-0.4-1.2-1-1.2-1.8
				c0-1.2,1.3-2.2,2.8-2.2C72.1,35.8,73.2,36.5,73.5,37.4z"/>
		</g>
	</g>
	<path class="st3" d="M92.8,24.8l5.5,2.2c0,0,1.3-2.9-0.9-5.1c-2.2-2.2-3-2.2-5.7-3.3c-2.7-1-8-1.6-3.3,1.1
		C93.2,22.6,92.8,24.8,92.8,24.8z"/>
	<path class="st4" d="M92.8,24.8l5.5,2.2c0,0,2.1,7.3-1.5,5.6C93.3,30.9,92.8,24.8,92.8,24.8z"/>
	<path class="st5" d="M79.3,35c-1-2.2-1.2-5.4,0.5-7.4c3.4-3.8,8-0.3,8-0.3s0-4.6,1.8-5.9s4.6-1.8,5.2-1.5c0,0-4.7-1.6-7-2.6
		c-2.3-1-6.6-0.6-8.1,1.9s-1.1,3.3-1.1,3.3c-1.9-0.2-6.2-0.6-7.9,2.5c-1.6,3.1,0.3,5.7,0.3,5.7L79.3,35z"/>
	<path class="st6" d="M94.6,27.5c0.5-0.3,1.2-0.2,1.8,0.3c0.6,0.6,0.8,1.5,0.3,2c0,0-3.2,2.5-3.3,2.5c-0.5,0.4-1.3,0.3-1.9-0.2
		c-0.6-0.6-0.8-1.5-0.3-2C91.3,30,94.5,27.5,94.6,27.5z"/>
	<ellipse transform="matrix(0.6788 -0.7344 0.7344 0.6788 6.796 77.8246)" class="st7" cx="92.4" cy="31.1" rx="1.3" ry="1.5"/>
	<linearGradient id="SVGID_1_" gradientUnits="userSpaceOnUse" x1="78.7261" y1="24.6523" x2="87.0759" y2="24.6523">
		<stop  offset="0" style="stop-color:#C7D4DD"/>
		<stop  offset="0.5449" style="stop-color:#FFFFFF"/>
		<stop  offset="0.6642" style="stop-color:#FCFDFD"/>
		<stop  offset="0.7584" style="stop-color:#F2F5F7"/>
		<stop  offset="0.8442" style="stop-color:#E1E8ED"/>
		<stop  offset="0.9244" style="stop-color:#CAD6DF"/>
		<stop  offset="0.9326" style="stop-color:#C7D4DD"/>
	</linearGradient>
	<line class="st8" x1="78.7" y1="22.5" x2="87.1" y2="26.8"/>
	<g>
		<g>
			<path class="st9" d="M100.4,58.7c-1.1-0.5-11.3-7.1-17.8-10.1L79.3,35l-8.2-4.4l-16.2,4.4c0,0-14.3-6.5-16-7.4
				c-1.8-0.9-3.5-1-4.7,0C33,28.7,6,51.9,6,51.9l9.5,5.2l2-1.9l10.1,5.5l-2.1,1.9l31.1,17.2l1.8-2l10.4,5.9l-1.7,1.9l10.3,5.7
				c11.2-13.2,17.1-18.6,23.8-28C102.5,61.4,102.3,59.5,100.4,58.7z M70.8,40.1c-0.6,0-1.2-0.1-1.6-0.4c-0.7-0.4-1.2-1-1.2-1.8
				c0-1.2,1.3-2.2,2.8-2.2c1.3,0,2.4,0.7,2.7,1.6c0.1,0.2,0.1,0.4,0.1,0.6C73.6,39.1,72.4,40.1,70.8,40.1z"/>
		</g>
		<g>
			<path class="st10" d="M100.4,58.7c-1.1-0.5-11.3-7.1-17.8-10.1L79.3,35l-8.2-4.4l-16.2,4.4c0,0-14.3-6.5-16-7.4
				c-1.8-0.9-3.5-1-4.7,0C33,28.7,6,51.9,6,51.9l9.5,5.2l2-1.9l10.1,5.5l-2.1,1.9l31.1,17.2l1.8-2l10.4,5.9l-1.7,1.9l10.3,5.7
				c11.2-13.2,17.1-18.6,23.8-28C102.5,61.4,102.3,59.5,100.4,58.7z M70.8,40.1c-0.6,0-1.2-0.1-1.6-0.4c-0.7-0.4-1.2-1-1.2-1.8
				c0-1.2,1.3-2.2,2.8-2.2c1.3,0,2.4,0.7,2.7,1.6c0.1,0.2,0.1,0.4,0.1,0.6C73.6,39.1,72.4,40.1,70.8,40.1z"/>
		</g>
	</g>
	<g>
		<defs>
			<path id="SVGID_2_" d="M101.2,63.3c-6.7,9.5-12.5,14.9-23.8,28l-10.3-5.7l1.7-1.9l-10.4-5.9l-1.8,2L25.5,62.7l2.1-1.9l-10.1-5.5
				l-2,1.9L6,51.9c0,0,27-23.2,28.2-24.2c1.2-1,2.9-0.9,4.7,0c1.7,0.9,16,7.4,16,7.4l16.2-4.5l8.2,4.4l3.3,13.6
				c6.4,3.1,16.6,9.6,17.8,10.1C102.3,59.5,102.5,61.4,101.2,63.3z"/>
		</defs>
		<clipPath id="SVGID_3_">
			<use xlink:href="#SVGID_2_"  style="overflow:visible;"/>
		</clipPath>
		<polygon class="st11" points="117.3,58.6 -15.2,51.2 86.6,108 		"/>
	</g>
	<polyline class="st2" points="71,80.7 74.3,77 75.3,67.3 	"/>
	<polyline class="st2" points="76.2,58.9 76.4,54.1 71.1,51.2 	"/>
	<polyline class="st2" points="55.9,43.7 52.4,42.1 42.8,44.1 	"/>
	<polyline class="st2" points="26.7,48.3 22.9,49.1 19.6,52.5 	"/>
	<line class="st2" x1="39.7" y1="30.1" x2="51.9" y2="35.8"/>
	<line class="st2" x1="83.2" y1="51" x2="93.5" y2="57"/>
	<g>
		<g>
			<path class="st10" d="M100.4,58.7c-1.1-0.5-11.3-7.1-17.8-10.1L79.3,35l-8.2-4.4l-16.2,4.4c0,0-14.3-6.5-16-7.4
				c-1.8-0.9-3.5-1-4.7,0C33,28.7,6,51.9,6,51.9l9.5,5.2l2-1.9l10.1,5.5l-2.1,1.9l31.1,17.2l1.8-2l10.4,5.9l-1.7,1.9l10.3,5.7
				c11.2-13.2,17.1-18.6,23.8-28C102.5,61.4,102.3,59.5,100.4,58.7z M70.8,40.1c-0.6,0-1.2-0.1-1.6-0.4c-0.7-0.4-1.2-1-1.2-1.8
				c0-1.2,1.3-2.2,2.8-2.2c1.3,0,2.4,0.7,2.7,1.6c0.1,0.2,0.1,0.4,0.1,0.6C73.6,39.1,72.4,40.1,70.8,40.1z"/>
		</g>
	</g>
</g>
</svg>
