<?xml version="1.0" encoding="utf-8"?>
<!-- Generator: Adobe Illustrator 21.1.0, SVG Export Plug-In . SVG Version: 6.00 Build 0)  -->
<svg version="1.1" id="Layer_1" xmlns="http://www.w3.org/2000/svg" xmlns:xlink="http://www.w3.org/1999/xlink" x="0px" y="0px"
	 width="108px" height="108px" viewBox="0 0 108 108" style="enable-background:new 0 0 108 108;" xml:space="preserve">
<style type="text/css">
	.st0{fill:#F2F2F2;stroke:#000000;stroke-width:0.75;stroke-linecap:round;stroke-linejoin:round;stroke-miterlimit:10;}
	.st1{opacity:0.5;}
	.st2{fill:#FFFFFF;stroke:#000000;stroke-width:0.75;stroke-linecap:round;stroke-linejoin:round;stroke-miterlimit:10;}
	.st3{fill:#E6E6E6;stroke:#000000;stroke-width:0.5;stroke-linecap:round;stroke-linejoin:round;stroke-miterlimit:10;}
</style>
<g>
	<g>
		<path class="st0" d="M82.3,12.2c0-1.8-1.5-3.4-3.3-3.5c0,0-50.4-4.3-50.4-4.3l-2.3,0.8l-1,2.2l0.6,88.7c0,0,1,2.4,1,2.4l2.3,1.1
			l50.3,4l2.3-0.8l1-2.2C82.7,100.6,82.3,12.2,82.3,12.2z M54.6,15c-0.8-0.1-1.4-0.7-1.4-1.5c0-0.8,0.6-1.3,1.4-1.3S56,13,56,13.7
			C56,14.5,55.4,15.1,54.6,15z"/>
	</g>
	<g class="st1">
		<path class="st2" d="M80.1,12c0-0.6-0.5-1.1-1.1-1.2L54.7,8.8L28.6,6.6c-0.6,0-1.1,0.4-1.1,1l0.1,8.8l26.9,2.4l25.6,2.3L80.1,12z
			 M54.6,15c-0.8-0.1-1.4-0.7-1.4-1.5c0-0.8,0.6-1.3,1.4-1.3S56,13,56,13.7C56,14.5,55.4,15.1,54.6,15z"/>
		<path class="st2" d="M27.6,21.6l0.5,74.7c0,0.6,0.5,1.1,1.1,1.2l50.2,4c0.6,0,1.1-0.4,1.1-1l-0.4-74.3L27.6,21.6z"/>
		<polygon class="st2" points="80.1,21.1 27.5,16.3 27.6,21.6 80.1,26.2 		"/>
	</g>
	<path class="st3" d="M54.6,10.1c-2-0.2-3.6,1.3-3.6,3.2s1.6,3.7,3.6,3.8c2,0.2,3.6-1.3,3.6-3.2C58.2,12,56.6,10.3,54.6,10.1z
		 M54.6,15c-0.8-0.1-1.4-0.7-1.4-1.5c0-0.8,0.6-1.3,1.4-1.3S56,13,56,13.7C56,14.5,55.4,15.1,54.6,15z"/>
</g>
</svg>
