<?xml version="1.0" encoding="utf-8"?>
<!-- Generator: Adobe Illustrator 21.1.0, SVG Export Plug-In . SVG Version: 6.00 Build 0)  -->
<svg version="1.1" id="Layer_1" xmlns="http://www.w3.org/2000/svg" xmlns:xlink="http://www.w3.org/1999/xlink" x="0px" y="0px"
	 width="108px" height="108px" viewBox="0 0 108 108" style="enable-background:new 0 0 108 108;" xml:space="preserve">
<style type="text/css">
	.st0{fill:#F2F2F2;stroke:#000000;stroke-width:0.75;}
	.st1{opacity:0.5;fill:url(#SVGID_1_);stroke:#231F20;stroke-width:0.1;}
	.st2{fill:#FFFFFF;stroke:#000000;stroke-width:0.5;stroke-linecap:round;stroke-linejoin:round;stroke-miterlimit:10;}
	.st3{fill:#E6E6E6;stroke:#000000;stroke-width:0.25;stroke-linecap:round;stroke-linejoin:round;stroke-miterlimit:10;}
	.st4{fill:#B3B3B3;stroke:#000000;stroke-width:0.25;stroke-miterlimit:10;}
	.st5{fill:#FFFFFF;}
	.st6{fill:none;stroke:#000000;stroke-width:0.75;stroke-linecap:round;stroke-linejoin:round;}
	.st7{opacity:0.5;}
	.st8{fill:#CCCCCC;}
	.st9{fill:url(#SVGID_2_);}
	.st10{fill:#231F20;}
	.st11{fill:none;stroke:#000000;stroke-width:0.5;stroke-linecap:round;stroke-linejoin:round;stroke-miterlimit:10;}
	.st12{fill:url(#SVGID_3_);}
</style>
<g>
	<path class="st0" d="M89.8,33.8l-0.7-1.6l-1.6-0.5L3.8,40l-1.6,0.8l-0.7,1.7L2,78l0.7,1.6l1.6,0.5L87.8,72c1.3-0.1,2.3-1.3,2.3-2.5
		L89.8,33.8z M74.2,38.1c-0.5,0.6-1.4,0.7-2,0.2c-0.5-0.5-0.5-1.4,0-2c0.5-0.6,1.4-0.7,1.9-0.2C74.8,36.6,74.8,37.5,74.2,38.1z
		 M18.7,41.6c0.5-0.6,1.4-0.7,1.9-0.2c0.6,0.5,0.6,1.4,0,2c-0.5,0.6-1.4,0.7-2,0.2C18.2,43.1,18.2,42.2,18.7,41.6z"/>
	
		<linearGradient id="SVGID_1_" gradientUnits="userSpaceOnUse" x1="-112.4828" y1="468.0435" x2="-76.0665" y2="464.8575" gradientTransform="matrix(9.290000e-02 0.9957 -0.9957 9.290000e-02 551.0258 103.3618)">
		<stop  offset="0" style="stop-color:#C7D4DB"/>
		<stop  offset="0.5449" style="stop-color:#FFFFFF"/>
		<stop  offset="0.6642" style="stop-color:#FCFDFD"/>
		<stop  offset="0.7584" style="stop-color:#F2F5F7"/>
		<stop  offset="0.8442" style="stop-color:#E1E8EC"/>
		<stop  offset="0.9244" style="stop-color:#CAD6DD"/>
		<stop  offset="0.9326" style="stop-color:#C7D4DB"/>
	</linearGradient>
	<line class="st1" x1="77.9" y1="71.4" x2="77.7" y2="34.3"/>
	<g>
		<g>
			<polygon class="st2" points="95.6,67 45.5,72 45.6,43 95.6,38.6 			"/>
			<polygon class="st3" points="95.6,47.5 45.5,52.1 45.6,43 95.6,38.6 			"/>
			<g>
				<path class="st4" d="M62.4,43.8l-1.7,0.2c-0.2,0-0.7,0-0.7,0.3c0,0.2,0.2,0.3,0.3,0.5l1.4,1.3c0.5,0.5,1,0.9,1,1.6
					c0,0.6-0.4,1.7-2.1,1.9l-2.3,0.2l-0.5-1.6l1.8-0.2c0.2,0,0.7,0,0.7-0.3c0-0.2-0.2-0.3-0.3-0.5l-1.4-1.3
					c-0.5-0.5-0.9-0.9-0.9-1.7c0-0.6,0.4-1.7,2.1-1.9l2.2-0.2L62.4,43.8z"/>
				<path class="st4" d="M69.6,41.5l-1.2,0.1c-1.5,0.1-2.8,0.4-3.9,1.5c-1,1-1.4,2.3-1.4,3.6c0,1.3,0.4,2.5,1.2,3.5l1.7-1.2
					c-0.4-0.7-0.8-1.4-0.8-2.2l2.3-0.2l0,2.3l2.1-0.2L69.6,41.5z M67.5,45l-2,0.2c0.3-0.6,0.6-1.5,2.1-1.6L67.5,45z"/>
				<path class="st4" d="M72.9,46.8l2.8-0.3l-0.5,1.7l-4.4,0.4l0-7.2l2.1-0.2L72.9,46.8z"/>
				<path class="st4" d="M81.5,42.1l-3.3,0.3l0,1.1l3-0.3l-0.5,1.7L78.2,45l0,1.3l3.5-0.3l-0.5,1.7l-5.2,0.5l0-7.2l4.9-0.4
					L81.5,42.1z"/>
			</g>
			<g>
				<path class="st4" d="M47.8,69.6l0-3.4l6.1-7c0.6-0.7,0.9-1.1,0.9-1.8c0-0.9-0.5-1.4-1.5-1.4c-0.7,0.1-1.6,0.5-1.6,1.7l-3.8,0.4
					c0-3.2,2.5-5.2,5.4-5.5c3.1-0.3,5.4,1.3,5.4,4.4c0,1.7-0.7,2.7-2.1,4.2l-4,4.5l6.2-0.6l0,3.3L47.8,69.6z"/>
				<path class="st4" d="M73.9,57.6c-0.4,0-0.6-0.1-0.8-0.2c-0.2-0.1-0.2-0.3-0.2-0.5c0-0.4,0.3-0.9,1-1L73.9,57.6z M79.3,60.4
					c0-1-0.2-1.7-0.9-2.2c-0.5-0.4-1.3-0.6-2.3-0.6l-0.7,0l0-1.8c0.5,0,1.4,0,1.9,0.4l1.9-1.8c-0.9-0.7-2-1-3.4-0.9v-1.3l-2.1,0.2
					l0,1.3c-2.2,0.5-3.5,1.9-3.5,3.6c0,0.9,0.3,1.6,0.8,2c0.5,0.4,1.3,0.7,2.4,0.7l0.6,0l0,1.9c-0.9,0.1-1.9,0-2.5-0.5l-1.8,1.8
					c1.1,0.9,2.4,1.1,4,1l0,1.6l2.1-0.2l0-1.7C77.7,63.5,79.3,62.3,79.3,60.4z M76.4,60.8c0,0.5-0.3,0.8-1,1l0-1.8
					c0.3,0,0.6,0,0.8,0.2C76.3,60.3,76.4,60.5,76.4,60.8z"/>
				<path class="st4" d="M79.7,66.5l0-3.4l6.9-7.1c0.7-0.7,1-1.2,1-1.8c0-0.9-0.6-1.5-1.7-1.4c-0.8,0.1-1.8,0.5-1.8,1.8L79.7,55
					c0-3.2,2.8-5.3,6.2-5.6c3.6-0.3,6.2,1.3,6.2,4.4c0,1.7-0.9,2.7-2.4,4.2L85,62.6l7.1-0.7l0,3.4L79.7,66.5z"/>
				<path class="st4" d="M64.7,59.2c-0.1-0.1-0.2-0.1-0.3-0.1c-0.2,0-0.3,0.1-0.3,0.2c-0.1,0.1-0.1,0.2-0.1,0.8c0,0.6,0,0.7,0.1,0.7
					c0.1,0.1,0.2,0.1,0.3,0.1c0.1,0,0.3-0.1,0.3-0.2c0.1-0.1,0.1-0.2,0.1-0.8C64.8,59.3,64.8,59.3,64.7,59.2z M64.7,59.2
					c-0.1-0.1-0.2-0.1-0.3-0.1c-0.2,0-0.3,0.1-0.3,0.2c-0.1,0.1-0.1,0.2-0.1,0.8c0,0.6,0,0.7,0.1,0.7c0.1,0.1,0.2,0.1,0.3,0.1
					c0.1,0,0.3-0.1,0.3-0.2c0.1-0.1,0.1-0.2,0.1-0.8C64.8,59.3,64.8,59.3,64.7,59.2z M67.2,58.8l-0.5,0l0,0.6l0.5-0.1
					c0.2,0,0.4-0.2,0.4-0.3C67.5,59,67.4,58.8,67.2,58.8z M64.4,59.1c-0.2,0-0.3,0.1-0.3,0.2c-0.1,0.1-0.1,0.2-0.1,0.8
					c0,0.6,0,0.7,0.1,0.7c0.1,0.1,0.2,0.1,0.3,0.1c0.1,0,0.3-0.1,0.3-0.2c0.1-0.1,0.1-0.2,0.1-0.8c0-0.6,0-0.7-0.1-0.7
					C64.6,59.1,64.5,59,64.4,59.1z M64.3,55c-2.9,0.3-5.2,2.7-5.2,5.3c0,2.7,2.3,4.6,5.2,4.3c2.9-0.3,5.3-2.7,5.3-5.3
					C69.6,56.7,67.3,54.8,64.3,55z M62.9,59.2l-1.4,0.1v0.5l1.2-0.1v0.7l-1.2,0.1v1.2l-0.8,0.1v-3.1l2.3-0.2V59.2z M65.3,61.1
					c-0.2,0.2-0.5,0.4-0.9,0.4c-0.4,0-0.7-0.1-0.9-0.2c-0.4-0.3-0.3-0.7-0.3-1.2s0-0.9,0.3-1.3c0.2-0.2,0.5-0.4,0.9-0.4
					c0.4,0,0.7,0.1,0.9,0.3c0.4,0.3,0.3,0.7,0.3,1.2C65.6,60.3,65.6,60.7,65.3,61.1z M67.6,61.2L67,60.1l-0.3,0v1.1l-0.8,0.1l0-3.1
					l1.3-0.1c0.7-0.1,1.1,0.4,1.1,0.9c0,0.4-0.3,0.7-0.5,0.8l0.7,1.2L67.6,61.2z M64.7,59.2c-0.1-0.1-0.2-0.1-0.3-0.1
					c-0.2,0-0.3,0.1-0.3,0.2c-0.1,0.1-0.1,0.2-0.1,0.8c0,0.6,0,0.7,0.1,0.7c0.1,0.1,0.2,0.1,0.3,0.1c0.1,0,0.3-0.1,0.3-0.2
					c0.1-0.1,0.1-0.2,0.1-0.8C64.8,59.3,64.8,59.3,64.7,59.2z M64.7,59.2c-0.1-0.1-0.2-0.1-0.3-0.1c-0.2,0-0.3,0.1-0.3,0.2
					c-0.1,0.1-0.1,0.2-0.1,0.8c0,0.6,0,0.7,0.1,0.7c0.1,0.1,0.2,0.1,0.3,0.1c0.1,0,0.3-0.1,0.3-0.2c0.1-0.1,0.1-0.2,0.1-0.8
					C64.8,59.3,64.8,59.3,64.7,59.2z"/>
			</g>
		</g>
		<g>
			<line class="st5" x1="106.5" y1="52.3" x2="97.3" y2="53.2"/>
			<g>
				<line class="st6" x1="106.5" y1="52.3" x2="100.5" y2="52.9"/>
				<g>
					<path d="M97.3,53.2c1.4-0.7,3.2-1.8,4.2-2.9l-0.6,2.6l1.1,2.4C100.8,54.4,98.9,53.6,97.3,53.2z"/>
				</g>
			</g>
		</g>
	</g>
	<g class="st7">
		<path class="st2" d="M77.7,34.3L3.8,41.6c-0.4,0-0.8,0.4-0.8,0.8l0.5,35.5c0,0.4,0.4,0.7,0.8,0.7l73.6-7.2L77.7,34.3z M20.7,43.3
			c-0.5,0.6-1.4,0.7-2,0.2c-0.5-0.5-0.5-1.4,0-2c0.5-0.6,1.4-0.7,1.9-0.2C21.2,41.8,21.2,42.7,20.7,43.3z M74.2,38.1
			c-0.5,0.6-1.4,0.7-2,0.2c-0.5-0.5-0.5-1.4,0-2c0.5-0.6,1.4-0.7,1.9-0.2C74.8,36.6,74.8,37.5,74.2,38.1z"/>
		<path class="st2" d="M77.9,71.4l3.6-0.3l6.3-0.6c0.4,0,0.8-0.4,0.8-0.8L88.3,34c0-0.4-0.3-0.7-0.8-0.7l-6.1,0.6l-3.7,0.4
			L77.9,71.4z"/>
	</g>
	<g>
		<g>
			<g>
				<g>
					<path class="st8" d="M20.1,43.1c-0.2,0-0.4-0.1-0.5-0.2c-0.6-0.5-0.2-1.1-0.1-1.3c1.1-0.5,1.9-1.8,1.9-3.3
						c0-1.9-1.2-3.5-2.8-3.5c-1.5,0-2.8,1.6-2.8,3.5c0,0.1,0,0.1,0,0.2l0,0.1l-1.3,0.1l0-0.1c0-0.1,0-0.1,0-0.2
						c0-2.8,1.9-5.2,4.2-5.2c2.3,0,4.2,2.3,4.2,5.2c0,2-1,3.8-2.4,4.7C20.4,43,20.3,43.1,20.1,43.1z"/>
					<path class="st8" d="M18.8,33.2c2.3,0,4.2,2.3,4.2,5.1c0,2-0.9,3.8-2.4,4.6C20.4,43,20.3,43,20.1,43c-0.2,0-0.4-0.1-0.5-0.2
						c-0.5-0.4-0.2-1-0.1-1.2c1.1-0.5,1.9-1.9,1.9-3.4c0-2-1.3-3.6-2.8-3.6c-1.5,0-2.8,1.6-2.8,3.6c0,0.1,0,0.1,0,0.2c0,0,0,0,0,0
						l-1.2,0.1c0,0,0,0,0-0.1c0-0.1,0-0.1,0-0.2C14.6,35.5,16.5,33.2,18.8,33.2 M18.8,33.1c-2.3,0-4.2,2.3-4.2,5.2
						c0,0.1,0,0.2,0,0.4l1.4-0.1c0-0.1,0-0.2,0-0.3c0-1.9,1.2-3.5,2.7-3.5c1.5,0,2.7,1.6,2.7,3.5c0,1.5-0.8,2.8-1.8,3.3
						c-0.1,0.2-0.6,0.8,0.1,1.3c0.1,0.1,0.3,0.2,0.6,0.2c0.1,0,0.3,0,0.4-0.1c1.5-0.8,2.5-2.6,2.5-4.7C23,35.4,21.1,33.1,18.8,33.1
						L18.8,33.1z"/>
				</g>
			</g>
			<g>
				<g class="st7">
					<linearGradient id="SVGID_2_" gradientUnits="userSpaceOnUse" x1="14.5573" y1="38.5407" x2="22.9585" y2="37.8057">
						<stop  offset="0" style="stop-color:#C7D4DB"/>
						<stop  offset="0.5449" style="stop-color:#FFFFFF"/>
						<stop  offset="0.6642" style="stop-color:#FCFDFD"/>
						<stop  offset="0.7584" style="stop-color:#F2F5F7"/>
						<stop  offset="0.8442" style="stop-color:#E1E8EC"/>
						<stop  offset="0.9244" style="stop-color:#CAD6DD"/>
						<stop  offset="0.9326" style="stop-color:#C7D4DB"/>
					</linearGradient>
					<path class="st9" d="M20.1,43.1c-0.2,0-0.4-0.1-0.5-0.2c-0.6-0.5-0.2-1.1-0.1-1.3c1.1-0.5,1.9-1.8,1.9-3.3
						c0-1.9-1.2-3.5-2.8-3.5c-1.5,0-2.8,1.6-2.8,3.5c0,0.1,0,0.1,0,0.2l0,0.1l-1.3,0.1l0-0.1c0-0.1,0-0.1,0-0.2
						c0-2.8,1.9-5.2,4.2-5.2c2.3,0,4.2,2.3,4.2,5.2c0,2-1,3.8-2.4,4.7C20.4,43,20.3,43.1,20.1,43.1z"/>
					<path class="st10" d="M18.8,33.2c2.3,0,4.2,2.3,4.2,5.1c0,2-0.9,3.8-2.4,4.6C20.4,43,20.3,43,20.1,43c-0.2,0-0.4-0.1-0.5-0.2
						c-0.5-0.4-0.2-1-0.1-1.2c1.1-0.5,1.9-1.9,1.9-3.4c0-2-1.3-3.6-2.8-3.6c-1.5,0-2.8,1.6-2.8,3.6c0,0.1,0,0.1,0,0.2c0,0,0,0,0,0
						l-1.2,0.1c0,0,0,0,0-0.1c0-0.1,0-0.1,0-0.2C14.6,35.5,16.5,33.2,18.8,33.2 M18.8,33.1c-2.3,0-4.2,2.3-4.2,5.2
						c0,0.1,0,0.2,0,0.4l1.4-0.1c0-0.1,0-0.2,0-0.3c0-1.9,1.2-3.5,2.7-3.5c1.5,0,2.7,1.6,2.7,3.5c0,1.5-0.8,2.8-1.8,3.3
						c-0.1,0.2-0.6,0.8,0.1,1.3c0.1,0.1,0.3,0.2,0.6,0.2c0.1,0,0.3,0,0.4-0.1c1.5-0.8,2.5-2.6,2.5-4.7C23,35.4,21.1,33.1,18.8,33.1
						L18.8,33.1z"/>
				</g>
			</g>
			<g>
				<g>
					<path class="st11" d="M20.1,43.1c-0.2,0-0.4-0.1-0.5-0.2c-0.6-0.5-0.2-1.1-0.1-1.3c1.1-0.5,1.9-1.8,1.9-3.3
						c0-1.9-1.2-3.5-2.8-3.5c-1.5,0-2.8,1.6-2.8,3.5c0,0.1,0,0.1,0,0.2l0,0.1l-1.3,0.1l0-0.1c0-0.1,0-0.1,0-0.2
						c0-2.8,1.9-5.2,4.2-5.2c2.3,0,4.2,2.3,4.2,5.2c0,2-1,3.8-2.4,4.7C20.4,43,20.3,43.1,20.1,43.1z"/>
					<path class="st11" d="M18.8,33.2c2.3,0,4.2,2.3,4.2,5.1c0,2-0.9,3.8-2.4,4.6C20.4,43,20.3,43,20.1,43c-0.2,0-0.4-0.1-0.5-0.2
						c-0.5-0.4-0.2-1-0.1-1.2c1.1-0.5,1.9-1.9,1.9-3.4c0-2-1.3-3.6-2.8-3.6c-1.5,0-2.8,1.6-2.8,3.6c0,0.1,0,0.1,0,0.2c0,0,0,0,0,0
						l-1.2,0.1c0,0,0,0,0-0.1c0-0.1,0-0.1,0-0.2C14.6,35.5,16.5,33.2,18.8,33.2 M18.8,33.1c-2.3,0-4.2,2.3-4.2,5.2
						c0,0.1,0,0.2,0,0.4l1.4-0.1c0-0.1,0-0.2,0-0.3c0-1.9,1.2-3.5,2.7-3.5c1.5,0,2.7,1.6,2.7,3.5c0,1.5-0.8,2.8-1.8,3.3
						c-0.1,0.2-0.6,0.8,0.1,1.3c0.1,0.1,0.3,0.2,0.6,0.2c0.1,0,0.3,0,0.4-0.1c1.5-0.8,2.5-2.6,2.5-4.7C23,35.4,21.1,33.1,18.8,33.1
						L18.8,33.1z"/>
				</g>
			</g>
		</g>
		<g>
			<g>
				<g>
					<path class="st8" d="M73.7,37.8c-0.2,0-0.4-0.1-0.5-0.2c-0.6-0.5-0.2-1.1-0.1-1.3c1.1-0.5,1.9-1.8,1.9-3.3
						c0-1.9-1.2-3.5-2.8-3.5c-1.5,0-2.8,1.6-2.8,3.5c0,0.1,0,0.1,0,0.2l0,0.1l-1.3,0.1l0-0.1c0-0.1,0-0.1,0-0.2
						c0-2.8,1.9-5.2,4.2-5.2s4.2,2.3,4.2,5.2c0,2-1,3.8-2.4,4.7C74,37.8,73.8,37.8,73.7,37.8z"/>
					<path class="st8" d="M72.3,28c2.3,0,4.2,2.3,4.2,5.1c0,2-0.9,3.8-2.4,4.6c-0.1,0.1-0.2,0.1-0.4,0.1c-0.2,0-0.4-0.1-0.5-0.2
						c-0.5-0.4-0.2-1-0.1-1.2c1.1-0.5,1.9-1.9,1.9-3.4c0-2-1.3-3.6-2.8-3.6c-1.5,0-2.8,1.6-2.8,3.6c0,0.1,0,0.1,0,0.2c0,0,0,0,0,0
						l-1.2,0.1c0,0,0,0,0-0.1c0-0.1,0-0.1,0-0.2C68.2,30.3,70,28,72.3,28 M72.3,27.9c-2.3,0-4.2,2.3-4.2,5.2c0,0.1,0,0.2,0,0.4
						l1.4-0.1c0-0.1,0-0.2,0-0.3c0-1.9,1.2-3.5,2.7-3.5c1.5,0,2.7,1.6,2.7,3.5c0,1.5-0.8,2.8-1.8,3.3c-0.1,0.2-0.6,0.8,0.1,1.3
						c0.1,0.1,0.3,0.2,0.6,0.2c0.1,0,0.3,0,0.4-0.1c1.5-0.8,2.5-2.6,2.5-4.7C76.6,30.2,74.7,27.9,72.3,27.9L72.3,27.9z"/>
				</g>
			</g>
			<g>
				<g class="st7">
					<linearGradient id="SVGID_3_" gradientUnits="userSpaceOnUse" x1="68.1071" y1="33.3092" x2="76.5083" y2="32.5742">
						<stop  offset="0" style="stop-color:#C7D4DB"/>
						<stop  offset="0.5449" style="stop-color:#FFFFFF"/>
						<stop  offset="0.6642" style="stop-color:#FCFDFD"/>
						<stop  offset="0.7584" style="stop-color:#F2F5F7"/>
						<stop  offset="0.8442" style="stop-color:#E1E8EC"/>
						<stop  offset="0.9244" style="stop-color:#CAD6DD"/>
						<stop  offset="0.9326" style="stop-color:#C7D4DB"/>
					</linearGradient>
					<path class="st12" d="M73.7,37.8c-0.2,0-0.4-0.1-0.5-0.2c-0.6-0.5-0.2-1.1-0.1-1.3c1.1-0.5,1.9-1.8,1.9-3.3
						c0-1.9-1.2-3.5-2.8-3.5c-1.5,0-2.8,1.6-2.8,3.5c0,0.1,0,0.1,0,0.2l0,0.1l-1.3,0.1l0-0.1c0-0.1,0-0.1,0-0.2
						c0-2.8,1.9-5.2,4.2-5.2s4.2,2.3,4.2,5.2c0,2-1,3.8-2.4,4.7C74,37.8,73.8,37.8,73.7,37.8z"/>
					<path class="st10" d="M72.3,28c2.3,0,4.2,2.3,4.2,5.1c0,2-0.9,3.8-2.4,4.6c-0.1,0.1-0.2,0.1-0.4,0.1c-0.2,0-0.4-0.1-0.5-0.2
						c-0.5-0.4-0.2-1-0.1-1.2c1.1-0.5,1.9-1.9,1.9-3.4c0-2-1.3-3.6-2.8-3.6c-1.5,0-2.8,1.6-2.8,3.6c0,0.1,0,0.1,0,0.2c0,0,0,0,0,0
						l-1.2,0.1c0,0,0,0,0-0.1c0-0.1,0-0.1,0-0.2C68.2,30.3,70,28,72.3,28 M72.3,27.9c-2.3,0-4.2,2.3-4.2,5.2c0,0.1,0,0.2,0,0.4
						l1.4-0.1c0-0.1,0-0.2,0-0.3c0-1.9,1.2-3.5,2.7-3.5c1.5,0,2.7,1.6,2.7,3.5c0,1.5-0.8,2.8-1.8,3.3c-0.1,0.2-0.6,0.8,0.1,1.3
						c0.1,0.1,0.3,0.2,0.6,0.2c0.1,0,0.3,0,0.4-0.1c1.5-0.8,2.5-2.6,2.5-4.7C76.6,30.2,74.7,27.9,72.3,27.9L72.3,27.9z"/>
				</g>
			</g>
			<g>
				<g>
					<path class="st11" d="M73.7,37.8c-0.2,0-0.4-0.1-0.5-0.2c-0.6-0.5-0.2-1.1-0.1-1.3c1.1-0.5,1.9-1.8,1.9-3.3
						c0-1.9-1.2-3.5-2.8-3.5c-1.5,0-2.8,1.6-2.8,3.5c0,0.1,0,0.1,0,0.2l0,0.1l-1.3,0.1l0-0.1c0-0.1,0-0.1,0-0.2
						c0-2.8,1.9-5.2,4.2-5.2s4.2,2.3,4.2,5.2c0,2-1,3.8-2.4,4.7C74,37.8,73.8,37.8,73.7,37.8z"/>
					<path class="st11" d="M72.3,28c2.3,0,4.2,2.3,4.2,5.1c0,2-0.9,3.8-2.4,4.6c-0.1,0.1-0.2,0.1-0.4,0.1c-0.2,0-0.4-0.1-0.5-0.2
						c-0.5-0.4-0.2-1-0.1-1.2c1.1-0.5,1.9-1.9,1.9-3.4c0-2-1.3-3.6-2.8-3.6c-1.5,0-2.8,1.6-2.8,3.6c0,0.1,0,0.1,0,0.2c0,0,0,0,0,0
						l-1.2,0.1c0,0,0,0,0-0.1c0-0.1,0-0.1,0-0.2C68.2,30.3,70,28,72.3,28 M72.3,27.9c-2.3,0-4.2,2.3-4.2,5.2c0,0.1,0,0.2,0,0.4
						l1.4-0.1c0-0.1,0-0.2,0-0.3c0-1.9,1.2-3.5,2.7-3.5c1.5,0,2.7,1.6,2.7,3.5c0,1.5-0.8,2.8-1.8,3.3c-0.1,0.2-0.6,0.8,0.1,1.3
						c0.1,0.1,0.3,0.2,0.6,0.2c0.1,0,0.3,0,0.4-0.1c1.5-0.8,2.5-2.6,2.5-4.7C76.6,30.2,74.7,27.9,72.3,27.9L72.3,27.9z"/>
				</g>
			</g>
		</g>
	</g>
</g>
</svg>
