<?xml version="1.0" encoding="utf-8"?>
<!-- Generator: Adobe Illustrator 21.1.0, SVG Export Plug-In . SVG Version: 6.00 Build 0)  -->
<svg version="1.1" id="Layer_1" xmlns="http://www.w3.org/2000/svg" xmlns:xlink="http://www.w3.org/1999/xlink" x="0px" y="0px"
	 width="108px" height="108px" viewBox="0 0 108 108" style="enable-background:new 0 0 108 108;" xml:space="preserve">
<style type="text/css">
	.st0{fill:#F2F2F2;stroke:#000000;stroke-width:0.75;}
	.st1{fill:#FFFFFF;stroke:#000000;stroke-width:0.5;stroke-linecap:round;stroke-linejoin:round;stroke-miterlimit:10;}
	.st2{fill:#E6E6E6;stroke:#000000;stroke-width:0.25;stroke-linecap:round;stroke-linejoin:round;stroke-miterlimit:10;}
	.st3{fill:#B3B3B3;stroke:#000000;stroke-width:0.25;stroke-miterlimit:10;}
	.st4{fill:#FFFFFF;}
	.st5{fill:none;stroke:#000000;stroke-width:0.75;stroke-linecap:round;stroke-linejoin:round;}
	.st6{opacity:0.5;}
	.st7{fill:#FFFFFF;stroke:#000000;stroke-width:0.5;}
</style>
<g>
	<path class="st0" d="M69.5,27.7L67.6,27c0,0-60.2,5.7-60.2,5.7c0,0-1.9,1-1.9,1l-0.8,2L5,78.4l0.8,1.9L7.7,81
		c0,0,59.9-5.5,59.9-5.5c1.5-0.1,2.7-1.5,2.7-3c0,0,0-42.8,0-42.8L69.5,27.7z"/>
	<g>
		<g>
			<polygon class="st1" points="88.4,69.2 20,76 20.1,36.3 88.5,30.4 			"/>
			<polygon class="st2" points="88.4,42.5 20.1,48.7 20.1,36.3 88.5,30.4 			"/>
			<g>
				<path class="st3" d="M43.1,37.4l-2.3,0.2c-0.3,0-1,0-1,0.4c0,0.3,0.3,0.5,0.4,0.6l1.9,1.8c0.7,0.6,1.3,1.3,1.3,2.2
					c0,0.9-0.5,2.3-2.9,2.5l-3.2,0.3l-0.6-2.2l2.5-0.2c0.3,0,1,0,1-0.4c0-0.3-0.3-0.5-0.5-0.6l-1.9-1.8c-0.6-0.6-1.3-1.3-1.3-2.3
					c0-0.9,0.5-2.3,2.8-2.5l3-0.3L43.1,37.4z"/>
				<path class="st3" d="M53,34.3l-1.6,0.1c-2,0.2-3.8,0.6-5.3,2.1c-1.3,1.4-1.9,3.2-1.9,4.9c0,1.7,0.6,3.4,1.6,4.7l2.3-1.6
					c-0.6-0.9-1.1-1.9-1.1-3l3.1-0.3l0,3.1l2.8-0.3L53,34.3z M50.1,39.1l-2.8,0.3c0.4-0.9,0.8-2,2.8-2.2L50.1,39.1z"/>
				<path class="st3" d="M57.4,41.5l3.8-0.3l-0.7,2.3l-6,0.5l0-9.8l2.9-0.3L57.4,41.5z"/>
				<path class="st3" d="M69.2,35.1l-4.5,0.4l0,1.5l4.1-0.4l-0.7,2.3l-3.4,0.3l0,1.7l4.8-0.4l-0.7,2.3l-7,0.6l0-9.8l6.7-0.6
					L69.2,35.1z"/>
			</g>
			<g>
				<path class="st3" d="M23.1,72.7l0-4.6l8.3-9.5c0.8-0.9,1.2-1.5,1.2-2.5c0-1.2-0.7-2-2.1-1.8c-1,0.1-2.1,0.6-2.1,2.3l-5.2,0.5
					c0-4.4,3.4-7.1,7.4-7.4c4.3-0.4,7.4,1.8,7.4,6c0,2.3-1,3.7-2.9,5.7l-5.5,6.1l8.4-0.8l0,4.6L23.1,72.7z"/>
				<path class="st3" d="M58.8,56.3c-0.5,0-0.9-0.2-1.1-0.3c-0.2-0.2-0.3-0.5-0.3-0.6c0-0.5,0.4-1.2,1.4-1.4L58.8,56.3z M66.1,60.2
					c0-1.3-0.3-2.4-1.2-3c-0.7-0.5-1.7-0.8-3.2-0.9l-0.9,0l0-2.5c0.7,0,1.9,0,2.6,0.6l2.5-2.4c-1.2-1-2.7-1.3-4.7-1.3v-1.8l-2.9,0.3
					l0,1.8c-3,0.6-4.8,2.6-4.8,4.9c0,1.2,0.4,2.2,1.1,2.8c0.7,0.6,1.8,0.9,3.2,1l0.9,0l0,2.7c-1.3,0.1-2.6,0-3.5-0.7l-2.5,2.5
					c1.5,1.2,3.3,1.5,5.5,1.4l0,2.2l2.9-0.3l0-2.3C64,64.4,66.1,62.7,66.1,60.2z M62.2,60.6c0,0.6-0.5,1.1-1.4,1.4l0-2.5
					c0.4,0,0.8,0,1.1,0.3C62.1,60,62.2,60.3,62.2,60.6z"/>
				<path class="st3" d="M66.7,68.5l0-4.7l9.5-9.7c1-1,1.3-1.6,1.3-2.5c0-1.2-0.8-2-2.4-1.9c-1.1,0.1-2.4,0.7-2.4,2.4l-6,0.6
					c0-4.4,3.9-7.2,8.4-7.6c4.9-0.4,8.5,1.8,8.5,6c0,2.4-1.2,3.7-3.3,5.8L74,63.1l9.6-0.9l0,4.6L66.7,68.5z"/>
				<path class="st3" d="M46.2,58.4c-0.1-0.1-0.2-0.2-0.4-0.1c-0.2,0-0.4,0.1-0.5,0.2c-0.1,0.1-0.2,0.3-0.2,1c0,0.8,0.1,0.9,0.2,1
					c0.1,0.1,0.3,0.2,0.5,0.1s0.4-0.1,0.5-0.2c0.1-0.1,0.2-0.3,0.2-1C46.4,58.7,46.3,58.6,46.2,58.4z M46.2,58.4
					c-0.1-0.1-0.2-0.2-0.4-0.1c-0.2,0-0.4,0.1-0.5,0.2c-0.1,0.1-0.2,0.3-0.2,1c0,0.8,0.1,0.9,0.2,1c0.1,0.1,0.3,0.2,0.5,0.1
					s0.4-0.1,0.5-0.2c0.1-0.1,0.2-0.3,0.2-1C46.4,58.7,46.3,58.6,46.2,58.4z M49.6,58L49,58.1l0,0.8l0.6-0.1c0.3,0,0.5-0.3,0.5-0.5
					C50.1,58.1,50,58,49.6,58z M45.8,58.3c-0.2,0-0.4,0.1-0.5,0.2c-0.1,0.1-0.2,0.3-0.2,1c0,0.8,0.1,0.9,0.2,1
					c0.1,0.1,0.3,0.2,0.5,0.1s0.4-0.1,0.5-0.2c0.1-0.1,0.2-0.3,0.2-1c0-0.8-0.1-0.9-0.2-1C46.1,58.3,46,58.3,45.8,58.3z M45.8,52.8
					c-3.9,0.4-7.1,3.6-7.1,7.3c0,3.7,3.2,6.3,7.1,5.9c4-0.4,7.2-3.7,7.3-7.3C53,55.1,49.7,52.4,45.8,52.8z M43.8,58.5l-2,0.2v0.7
					l1.7-0.2v0.9l-1.7,0.2V62l-1.1,0.1v-4.2l3.1-0.3V58.5z M47.1,61.1c-0.3,0.3-0.7,0.5-1.3,0.6c-0.6,0.1-0.9-0.1-1.3-0.3
					c-0.5-0.4-0.5-1-0.5-1.6s0-1.2,0.5-1.7c0.3-0.3,0.7-0.5,1.3-0.6c0.6-0.1,1,0.1,1.3,0.3c0.5,0.4,0.5,1,0.5,1.6
					C47.5,60,47.5,60.6,47.1,61.1z M50.2,61.2l-0.8-1.5l-0.4,0v1.6l-1.1,0.1l0-4.2l1.8-0.2c1-0.1,1.6,0.5,1.6,1.2
					c0,0.6-0.4,1-0.8,1.2l1,1.6L50.2,61.2z M46.2,58.4c-0.1-0.1-0.2-0.2-0.4-0.1c-0.2,0-0.4,0.1-0.5,0.2c-0.1,0.1-0.2,0.3-0.2,1
					c0,0.8,0.1,0.9,0.2,1c0.1,0.1,0.3,0.2,0.5,0.1s0.4-0.1,0.5-0.2c0.1-0.1,0.2-0.3,0.2-1C46.4,58.7,46.3,58.6,46.2,58.4z
					 M46.2,58.4c-0.1-0.1-0.2-0.2-0.4-0.1c-0.2,0-0.4,0.1-0.5,0.2c-0.1,0.1-0.2,0.3-0.2,1c0,0.8,0.1,0.9,0.2,1
					c0.1,0.1,0.3,0.2,0.5,0.1s0.4-0.1,0.5-0.2c0.1-0.1,0.2-0.3,0.2-1C46.4,58.7,46.3,58.6,46.2,58.4z"/>
			</g>
		</g>
		<g>
			<line class="st4" x1="103.3" y1="49.1" x2="90.8" y2="50.3"/>
			<g>
				<line class="st5" x1="103.3" y1="49.1" x2="94" y2="50"/>
				<g>
					<path d="M90.8,50.3c1.4-0.7,3.2-1.8,4.2-2.9L94.4,50l1.1,2.4C94.3,51.5,92.4,50.7,90.8,50.3z"/>
				</g>
			</g>
		</g>
	</g>
	<g class="st6">
		<path class="st7" d="M55.8,30L7.4,34.6c-0.5,0-0.9,0.5-0.9,1l0.3,42.7c0,0.5,0.4,0.9,0.9,0.8l48-4.4L55.8,30z"/>
		<path class="st7" d="M60,74.3l7.6-0.7c0.5,0,0.9-0.5,0.9-1l0-42.8c0-0.5-0.4-0.9-0.9-0.8l-7.4,0.7L55.8,30l-0.1,44.7L60,74.3z"/>
	</g>
</g>
</svg>
