<?xml version="1.0" encoding="utf-8"?>
<!-- Generator: Adobe Illustrator 21.1.0, SVG Export Plug-In . SVG Version: 6.00 Build 0)  -->
<svg version="1.1" id="Layer_1" xmlns="http://www.w3.org/2000/svg" xmlns:xlink="http://www.w3.org/1999/xlink" x="0px" y="0px"
	 width="108px" height="108px" viewBox="0 0 108 108" style="enable-background:new 0 0 108 108;" xml:space="preserve">
<style type="text/css">
	.st0{fill:#F2F2F2;stroke:#000000;stroke-width:0.75;stroke-linecap:round;stroke-linejoin:round;stroke-miterlimit:10;}
	.st1{opacity:0.5;}
	.st2{fill:#FFFFFF;stroke:#000000;stroke-width:0.75;stroke-linecap:round;stroke-linejoin:round;stroke-miterlimit:10;}
</style>
<g>
	<polygon class="st0" points="105.2,89.6 2.8,83.6 2.8,18.4 105.2,24.4 	"/>
	<g class="st1">
		<path class="st2" d="M103.1,87.5c0,0.7-0.5,1.2-1.2,1.1L5.8,83c-0.7,0-1.2-0.6-1.2-1.3V21.8c0-0.7,0.5-1.2,1.2-1.1l96.1,5.6
			c0.7,0,1.2,0.6,1.2,1.3V87.5z"/>
		<path class="st2" d="M98.7,34.5c0,0.7-0.5,1.2-1.2,1.1l-86.8-5.1c-0.7,0-1.2-0.6-1.2-1.3V25c0-0.7,0.5-1.2,1.2-1.1l86.8,5.1
			c0.7,0,1.2,0.6,1.2,1.3V34.5z"/>
	</g>
</g>
</svg>
