<?xml version="1.0" encoding="utf-8"?>
<!-- Generator: Adobe Illustrator 21.1.0, SVG Export Plug-In . SVG Version: 6.00 Build 0)  -->
<svg version="1.1" id="Layer_1" xmlns="http://www.w3.org/2000/svg" xmlns:xlink="http://www.w3.org/1999/xlink" x="0px" y="0px"
	 width="108px" height="108px" viewBox="0 0 108 108" style="enable-background:new 0 0 108 108;" xml:space="preserve">
<style type="text/css">
	.st0{fill:#CCCCCC;stroke:#000000;stroke-width:0.25;stroke-linecap:round;stroke-linejoin:round;stroke-miterlimit:10;}
	.st1{fill:#E6E6E6;stroke:#000000;stroke-width:0.25;stroke-linecap:round;stroke-linejoin:round;stroke-miterlimit:10;}
	.st2{opacity:0.5;fill:#FFFFFF;}
	.st3{fill:none;stroke:#000000;stroke-width:0.75;stroke-linecap:round;stroke-linejoin:round;stroke-miterlimit:10;}
	.st4{fill:#FFFFFF;stroke:#000000;stroke-width:0.5;stroke-linecap:round;stroke-linejoin:round;stroke-miterlimit:10;}
	.st5{fill:#B3B3B3;stroke:#000000;stroke-width:0.25;stroke-miterlimit:10;}
	.st6{fill:#FFFFFF;}
	.st7{fill:none;stroke:#000000;stroke-width:0.75;stroke-linecap:round;stroke-linejoin:round;}
	.st8{opacity:0.5;}
</style>
<g>
	<g>
		<g>
			<path class="st0" d="M5.4,70.4c0,0-0.4-3.4-1-5.1c-0.6-1.8-2.2-3.8-2.2-3.8L4,61c1.1-0.3,2.2-0.5,3.3-0.6L11,60v10.1L5.4,70.4z"
				/>
			<path class="st0" d="M5.4,54.1c0,0-0.4-3.4-1-5.1c-0.6-1.8-2.2-3.8-2.2-3.8L4,44.7c1.1-0.3,2.2-0.5,3.3-0.6l3.7-0.4v10.1
				L5.4,54.1z"/>
		</g>
		<g>
			<polygon class="st1" points="5.7,60.6 5.7,70.7 93.7,61.2 93.7,51.1 			"/>
			<polygon class="st1" points="5.5,44.2 5.5,54.3 93.6,44.8 93.6,34.7 			"/>
		</g>
	</g>
	<path class="st2" d="M93,30.3l-1.6-0.5c0,0-83.7,8.3-83.7,8.3c0,0-1.6,0.8-1.6,0.8l-0.6,1.7l0.5,35.5l0.7,1.6l1.6,0.5
		c0,0,83.5-8.2,83.5-8.2c1.3-0.1,2.3-1.3,2.2-2.5c0,0-0.3-35.6-0.3-35.6L93,30.3z"/>
	<path class="st3" d="M93,30.3l-1.6-0.5c0,0-83.7,8.3-83.7,8.3c0,0-1.6,0.8-1.6,0.8l-0.6,1.7l0.5,35.5l0.7,1.6l1.6,0.5
		c0,0,83.5-8.2,83.5-8.2c1.3-0.1,2.3-1.3,2.2-2.5c0,0-0.3-35.6-0.3-35.6L93,30.3z"/>
	<g>
		<g>
			<polygon class="st4" points="95,64.2 44.9,69.2 44.9,40.2 95,35.8 			"/>
			<polygon class="st1" points="95,44.7 44.9,49.2 44.9,40.2 95,35.8 			"/>
			<g>
				<path class="st5" d="M61.7,40.9L60,41.1c-0.2,0-0.7,0-0.7,0.3c0,0.2,0.2,0.3,0.3,0.5l1.4,1.3c0.5,0.5,1,0.9,1,1.6
					c0,0.6-0.4,1.7-2.1,1.9l-2.3,0.2l-0.5-1.6l1.8-0.2c0.2,0,0.7,0,0.7-0.3c0-0.2-0.2-0.3-0.3-0.5L58,43c-0.5-0.5-0.9-0.9-0.9-1.7
					c0-0.6,0.4-1.7,2.1-1.9l2.2-0.2L61.7,40.9z"/>
				<path class="st5" d="M69,38.7l-1.2,0.1c-1.5,0.1-2.8,0.4-3.9,1.5c-1,1-1.4,2.3-1.4,3.6c0,1.3,0.4,2.5,1.2,3.5l1.7-1.2
					c-0.4-0.7-0.8-1.4-0.8-2.2l2.3-0.2l0,2.3l2.1-0.2L69,38.7z M66.9,42.1l-2,0.2c0.3-0.6,0.6-1.5,2.1-1.6L66.9,42.1z"/>
				<path class="st5" d="M72.2,43.9l2.8-0.3l-0.5,1.7l-4.4,0.4l0-7.2l2.1-0.2L72.2,43.9z"/>
				<path class="st5" d="M80.9,39.2l-3.3,0.3l0,1.1l3-0.3L80.1,42l-2.5,0.2l0,1.3l3.5-0.3l-0.5,1.7l-5.2,0.5l0-7.2l4.9-0.4
					L80.9,39.2z"/>
			</g>
			<g>
				<path class="st5" d="M47.1,66.8l0-3.4l6.1-7c0.6-0.7,0.9-1.1,0.9-1.8c0-0.9-0.5-1.4-1.5-1.4C51.9,53.4,51,53.8,51,55l-3.8,0.4
					c0-3.2,2.5-5.2,5.4-5.5c3.1-0.3,5.4,1.3,5.4,4.4c0,1.7-0.7,2.7-2.1,4.2l-4,4.5l6.2-0.6l0,3.3L47.1,66.8z"/>
				<path class="st5" d="M73.3,54.8c-0.4,0-0.6-0.1-0.8-0.2c-0.2-0.1-0.2-0.3-0.2-0.5c0-0.4,0.3-0.9,1-1L73.3,54.8z M78.6,57.6
					c0-1-0.2-1.7-0.9-2.2c-0.5-0.4-1.3-0.6-2.3-0.6l-0.7,0l0-1.8c0.5,0,1.4,0,1.9,0.4l1.9-1.8c-0.9-0.7-2-1-3.4-0.9v-1.3L73,49.5
					l0,1.3c-2.2,0.5-3.5,1.9-3.5,3.6c0,0.9,0.3,1.6,0.8,2c0.5,0.4,1.3,0.7,2.4,0.7l0.6,0l0,1.9c-0.9,0.1-1.9,0-2.5-0.5l-1.8,1.8
					c1.1,0.9,2.4,1.1,4,1l0,1.6l2.1-0.2l0-1.7C77.1,60.7,78.6,59.4,78.6,57.6z M75.7,57.9c0,0.5-0.3,0.8-1,1l0-1.8
					c0.3,0,0.6,0,0.8,0.2C75.7,57.5,75.7,57.7,75.7,57.9z"/>
				<path class="st5" d="M79,63.7l0-3.4l6.9-7.1c0.7-0.7,1-1.2,1-1.8c0-0.9-0.6-1.5-1.7-1.4c-0.8,0.1-1.8,0.5-1.8,1.8l-4.4,0.4
					c0-3.2,2.8-5.3,6.2-5.6c3.6-0.3,6.2,1.3,6.2,4.4c0,1.7-0.9,2.7-2.4,4.2l-4.6,4.6l7.1-0.7l0,3.4L79,63.7z"/>
				<path class="st5" d="M64.1,56.3c-0.1-0.1-0.2-0.1-0.3-0.1c-0.2,0-0.3,0.1-0.3,0.2c-0.1,0.1-0.1,0.2-0.1,0.8c0,0.6,0,0.7,0.1,0.7
					c0.1,0.1,0.2,0.1,0.3,0.1s0.3-0.1,0.3-0.2c0.1-0.1,0.1-0.2,0.1-0.8C64.2,56.5,64.1,56.4,64.1,56.3z M64.1,56.3
					c-0.1-0.1-0.2-0.1-0.3-0.1c-0.2,0-0.3,0.1-0.3,0.2c-0.1,0.1-0.1,0.2-0.1,0.8c0,0.6,0,0.7,0.1,0.7c0.1,0.1,0.2,0.1,0.3,0.1
					s0.3-0.1,0.3-0.2c0.1-0.1,0.1-0.2,0.1-0.8C64.2,56.5,64.1,56.4,64.1,56.3z M66.6,56l-0.5,0l0,0.6l0.5-0.1c0.2,0,0.4-0.2,0.4-0.3
					C66.9,56.1,66.8,56,66.6,56z M63.7,56.2c-0.2,0-0.3,0.1-0.3,0.2c-0.1,0.1-0.1,0.2-0.1,0.8c0,0.6,0,0.7,0.1,0.7
					c0.1,0.1,0.2,0.1,0.3,0.1s0.3-0.1,0.3-0.2c0.1-0.1,0.1-0.2,0.1-0.8c0-0.6,0-0.7-0.1-0.7C64,56.3,63.9,56.2,63.7,56.2z
					 M63.7,52.2c-2.9,0.3-5.2,2.7-5.2,5.3c0,2.7,2.3,4.6,5.2,4.3c2.9-0.3,5.3-2.7,5.3-5.3C69,53.9,66.6,51.9,63.7,52.2z M62.3,56.4
					l-1.4,0.1V57l1.2-0.1v0.7l-1.2,0.1v1.2L60,59v-3.1l2.3-0.2V56.4z M64.7,58.2c-0.2,0.2-0.5,0.4-0.9,0.4c-0.4,0-0.7-0.1-0.9-0.2
					c-0.4-0.3-0.3-0.7-0.3-1.2c0-0.5,0-0.9,0.3-1.3c0.2-0.2,0.5-0.4,0.9-0.4c0.4,0,0.7,0.1,0.9,0.3C65,56.1,65,56.5,65,57
					C65,57.4,65,57.9,64.7,58.2z M67,58.4l-0.6-1.1l-0.3,0v1.1l-0.8,0.1l0-3.1l1.3-0.1c0.7-0.1,1.1,0.4,1.1,0.9
					c0,0.4-0.3,0.7-0.5,0.8l0.7,1.2L67,58.4z M64.1,56.3c-0.1-0.1-0.2-0.1-0.3-0.1c-0.2,0-0.3,0.1-0.3,0.2c-0.1,0.1-0.1,0.2-0.1,0.8
					c0,0.6,0,0.7,0.1,0.7c0.1,0.1,0.2,0.1,0.3,0.1s0.3-0.1,0.3-0.2c0.1-0.1,0.1-0.2,0.1-0.8C64.2,56.5,64.1,56.4,64.1,56.3z
					 M64.1,56.3c-0.1-0.1-0.2-0.1-0.3-0.1c-0.2,0-0.3,0.1-0.3,0.2c-0.1,0.1-0.1,0.2-0.1,0.8c0,0.6,0,0.7,0.1,0.7
					c0.1,0.1,0.2,0.1,0.3,0.1s0.3-0.1,0.3-0.2c0.1-0.1,0.1-0.2,0.1-0.8C64.2,56.5,64.1,56.4,64.1,56.3z"/>
			</g>
		</g>
		<g>
			<line class="st6" x1="105.8" y1="49.5" x2="96.7" y2="50.4"/>
			<g>
				<line class="st7" x1="105.8" y1="49.5" x2="99.9" y2="50.1"/>
				<g>
					<path d="M96.7,50.4c1.4-0.7,3.2-1.8,4.2-2.9l-0.6,2.6l1.1,2.4C100.2,51.5,98.3,50.8,96.7,50.4z"/>
				</g>
			</g>
		</g>
	</g>
	<g class="st8">
		<path class="st4" d="M81.6,32.3L7.6,39.7c-0.4,0-0.8,0.4-0.7,0.8L7.4,76c0,0.4,0.4,0.7,0.8,0.7l73.6-7.2L81.6,32.3z"/>
		<path class="st4" d="M92.1,32c0-0.4-0.3-0.7-0.8-0.7L85.2,32l-3.7,0.4l0.2,37.1l3.6-0.3l6.3-0.6c0.4,0,0.8-0.4,0.8-0.8L92.1,32z"
			/>
	</g>
</g>
</svg>
