<?xml version="1.0" encoding="utf-8"?>
<!-- Generator: Adobe Illustrator 21.1.0, SVG Export Plug-In . SVG Version: 6.00 Build 0)  -->
<svg version="1.1" id="Layer_1" xmlns="http://www.w3.org/2000/svg" xmlns:xlink="http://www.w3.org/1999/xlink" x="0px" y="0px"
	 width="108px" height="108px" viewBox="0 0 108 108" style="enable-background:new 0 0 108 108;" xml:space="preserve">
<style type="text/css">
	.st0{fill:#F2F2F2;stroke:#000000;stroke-width:0.5;stroke-linecap:round;stroke-linejoin:round;stroke-miterlimit:10;}
	.st1{fill:#FFFFFF;stroke:#000000;stroke-width:0.75;stroke-linecap:round;stroke-linejoin:round;stroke-miterlimit:10;}
	.st2{fill:#FFFFFF;stroke:#000000;stroke-width:0.5;stroke-linecap:round;stroke-linejoin:round;stroke-miterlimit:10;}
	.st3{fill:#E6E6E6;stroke:#000000;stroke-width:0.75;stroke-linecap:round;stroke-linejoin:round;stroke-miterlimit:10;}
	.st4{fill:#CCCCCC;stroke:#000000;stroke-width:0.75;stroke-linecap:round;stroke-linejoin:round;stroke-miterlimit:10;}
	.st5{fill:#F2F2F2;stroke:#000000;stroke-width:0.75;stroke-linecap:round;stroke-linejoin:round;stroke-miterlimit:10;}
	.st6{fill:none;stroke:#000000;stroke-width:0.5;stroke-linecap:round;stroke-linejoin:round;stroke-miterlimit:10;}
</style>
<g>
	<polygon class="st0" points="77.2,28.6 77.2,30.8 76.9,79.9 45.1,87.9 44.9,43.6 44.9,36.7 	"/>
	<path class="st1" d="M76.1,10.4L59.8,4.1l-44.4,8.4l15.5,7.8h0l45.9-9.6L76.1,10.4z M45.4,10.7c-0.8,0-1.5-0.4-1.5-0.9
		s0.7-0.9,1.5-0.9c0.8,0,1.4,0.4,1.4,0.9S46.2,10.7,45.4,10.7z M50.3,13.1c-0.8,0-1.5-0.4-1.5-0.9s0.7-0.9,1.5-0.9
		c0.8,0,1.5,0.4,1.5,0.9S51.1,13.1,50.3,13.1z"/>
	<path class="st2" d="M76.9,10.7l-45.9,9.6l13.9,16.4l32.3-8.1L76.9,10.7z M57.7,28.6c-0.3,0.6-0.9,1-1.5,0.8
		c-0.5-0.2-0.7-0.9-0.5-1.6c0.3-0.6,0.9-1,1.5-0.8C57.8,27.2,58,27.9,57.7,28.6z M57.7,20.4c-0.3,0.6-0.9,1-1.5,0.8
		c-0.5-0.2-0.7-0.9-0.5-1.6c0.3-0.6,0.9-1,1.5-0.8C57.8,19.1,58,19.8,57.7,20.4z"/>
	<polygon class="st1" points="31.1,49.1 30.9,20.3 30.9,20.3 	"/>
	<polygon class="st1" points="77.3,30.8 77.2,30.8 77.2,28.6 	"/>
	<polygon class="st3" points="45.1,87.9 31.2,91.3 31.1,49.1 30.9,20.3 44.9,36.7 44.9,43.6 	"/>
	<polygon class="st4" points="45.2,103.9 31.2,91.3 45.1,87.9 	"/>
	<polygon class="st5" points="92.3,24.8 77.2,28.6 76.9,10.7 	"/>
	<polygon class="st1" points="76.9,10.7 77.2,28.6 76.9,10.7 76.9,10.7 	"/>
	<polygon class="st3" points="92.5,88.8 76.9,79.9 77.2,30.8 77.3,30.8 77.2,28.6 92.3,24.8 	"/>
	<polygon class="st1" points="77.3,30.8 77.2,30.8 77.2,28.6 	"/>
	<polygon class="st4" points="92.5,88.8 45.2,103.9 45.1,87.9 76.9,79.9 	"/>
	<path class="st1" d="M70.9,25.2"/>
	<g>
		<line class="st6" x1="74" y1="78.9" x2="62.4" y2="76.2"/>
		<polyline class="st6" points="52.3,92.9 59.6,97.3 48.8,100.5 		"/>
		<polyline class="st6" points="82.3,90.2 87.1,88.4 81.8,85.3 		"/>
		<line class="st6" x1="70.9" y1="85.5" x2="75.3" y2="87.7"/>
		<line class="st6" x1="34.5" y1="88.7" x2="42.7" y2="83.3"/>
		<line class="st6" x1="53.2" y1="72.3" x2="53.2" y2="77"/>
		<line class="st6" x1="60.1" y1="75.1" x2="60.1" y2="70.1"/>
		<line class="st6" x1="54.2" y1="78.4" x2="59.3" y2="77"/>
		<path class="st6" d="M59.9,69c-0.2,0-6.3,1.2-6.3,1.2"/>
		<polyline class="st6" points="42.7,29.9 42.7,26.6 72.2,20.4 72.2,26.2 		"/>
		<polyline class="st6" points="41.9,29.5 41.9,26.2 71.4,20 		"/>
	</g>
</g>
</svg>
