<?xml version="1.0" encoding="utf-8"?>
<!-- Generator: Adobe Illustrator 21.1.0, SVG Export Plug-In . SVG Version: 6.00 Build 0)  -->
<svg version="1.1" id="Layer_1" xmlns="http://www.w3.org/2000/svg" xmlns:xlink="http://www.w3.org/1999/xlink" x="0px" y="0px"
	 width="108px" height="108px" viewBox="0 0 108 108" style="enable-background:new 0 0 108 108;" xml:space="preserve">
<style type="text/css">
	.st0{fill:#F2F2F2;stroke:#000000;stroke-width:0.5;stroke-linecap:round;stroke-linejoin:round;stroke-miterlimit:10;}
	.st1{fill:#FFFFFF;stroke:#000000;stroke-width:0.75;stroke-linecap:round;stroke-linejoin:round;stroke-miterlimit:10;}
	.st2{fill:#FFFFFF;stroke:#000000;stroke-width:0.5;stroke-linecap:round;stroke-linejoin:round;stroke-miterlimit:10;}
	.st3{fill:#F2F2F2;stroke:#000000;stroke-width:0.75;stroke-linecap:round;stroke-linejoin:round;stroke-miterlimit:10;}
	.st4{fill:none;stroke:#000000;stroke-width:0.75;stroke-linecap:round;stroke-linejoin:round;stroke-miterlimit:10;}
	.st5{fill:#E6E6E6;stroke:#000000;stroke-width:0.75;stroke-linecap:round;stroke-linejoin:round;stroke-miterlimit:10;}
	.st6{fill:#CCCCCC;stroke:#000000;stroke-width:0.5;stroke-linecap:round;stroke-linejoin:round;stroke-miterlimit:10;}
	.st7{fill:#E6E6E6;stroke:#000000;stroke-width:0.5;stroke-linecap:round;stroke-linejoin:round;stroke-miterlimit:10;}
	.st8{fill:#B3B3B3;stroke:#000000;stroke-width:0.75;stroke-linecap:round;stroke-linejoin:round;stroke-miterlimit:10;}
	.st9{fill:#CCCCCC;stroke:#000000;stroke-width:0.75;stroke-linecap:round;stroke-linejoin:round;stroke-miterlimit:10;}
</style>
<g>
	<polygon class="st0" points="68.1,11.3 68.1,15.5 64.8,16 62.9,12.2 	"/>
	<polygon class="st1" points="68.2,11.3 68.2,23 68.1,22.9 68,22.7 68,22.7 68,18.2 68.1,15.5 68.1,15.5 68.1,11.3 	"/>
	<polygon class="st2" points="23.3,16 17.8,13.2 23.3,12.4 	"/>
	<polygon class="st1" points="23.3,16.4 23.3,16.4 17.8,13.2 23.3,16 	"/>
	<polygon class="st2" points="78.1,6.8 78,13.8 68.2,15.5 68.2,18.2 68.2,18.2 68,18.2 68.1,15.5 68.1,15.5 68.1,11.3 68.1,8 
		78.1,6.8 	"/>
	<polygon class="st1" points="80.5,13.4 78,13.8 80.4,13.4 	"/>
	<polygon class="st3" points="94.7,11 80.4,13.4 78,13.8 78,13.8 78.1,6.8 78.1,6.8 	"/>
	<polygon class="st1" points="95.3,11.1 80.5,13.4 78,13.8 80.4,13.4 94.7,11 	"/>
	<polygon class="st0" points="17.8,14.6 17.8,26.3 12.6,15.5 	"/>
	<polygon class="st1" points="17.8,14.6 17.8,26.4 17.8,26.3 17.8,26.3 17.8,14.6 	"/>
	<line class="st4" x1="17.5" y1="90.5" x2="17.5" y2="90.6"/>
	<polygon class="st0" points="78,13.8 77.9,20.1 77.8,41.2 77.5,78 67.7,71.9 68.1,22.9 68.2,18.2 68.2,15.9 68.2,15.5 	"/>
	<line class="st4" x1="23.3" y1="16" x2="23.3" y2="16.4"/>
	<polygon class="st1" points="17.8,14.6 17.8,26.4 17.8,26.3 17.8,26.3 17.8,14.6 	"/>
	<polygon class="st1" points="17.5,90.5 17.6,90.6 17.5,90.6 17.5,90.5 19.8,83.6 17.5,90.5 	"/>
	<polygon class="st1" points="19.8,83.6 17.5,90.5 17.5,90.5 17.5,90.5 	"/>
	<polygon class="st5" points="23.3,16.4 22.4,75.7 19.9,83.4 19.8,83.6 17.5,90.5 17.4,90.5 17.8,26.3 17.8,26.4 17.8,14.6 
		17.8,14.6 17.8,13.2 	"/>
	<polygon class="st1" points="17.8,14.6 17.8,26.4 17.8,26.3 17.8,26.3 17.8,14.6 	"/>
	<polygon class="st6" points="33.4,80.6 33.3,87.3 27,88.6 17.6,90.6 17.5,90.5 17.5,90.5 22.4,82.8 	"/>
	<polygon class="st1" points="19.8,83.6 17.5,90.5 17.5,90.5 17.5,90.5 	"/>
	<polygon class="st7" points="34,21.3 33.4,79.7 33.4,80.6 22.4,82.8 17.5,90.5 19.8,83.6 19.9,83.4 22.4,75.7 23.3,16.4 17.8,13.2 
		23.3,16 27.9,18.2 27.9,18.3 33.9,21.3 	"/>
	<polygon class="st8" points="33.3,87.3 33.1,101.2 33.1,101.2 17.6,90.6 27,88.6 	"/>
	<polygon class="st5" points="95.4,10.8 95,86.6 77.5,78 77.8,41.2 77.9,20.1 78,13.8 78,13.8 80.5,13.4 95.3,11.1 94.7,11 	"/>
	<polygon class="st9" points="95,86.6 33.1,101.2 33.3,87.3 77.5,78 	"/>
	<polygon class="st7" points="77.5,78 33.3,87.3 33.4,80.6 65.5,74.4 	"/>
	<polygon class="st2" points="77.5,78 65.5,74.4 33.4,80.6 33.4,79.7 34,21.3 64.8,16 68,22.7 68,22.7 67.7,71.9 	"/>
	<polygon class="st7" points="68.1,15.5 68.1,15.5 68,18.2 68,22.7 64.8,16 	"/>
	<polygon class="st1" points="80.5,13.4 78,13.8 80.4,13.4 94.7,11 95.3,11.1 	"/>
</g>
</svg>
