<?xml version="1.0" encoding="utf-8"?>
<!-- Generator: Adobe Illustrator 21.1.0, SVG Export Plug-In . SVG Version: 6.00 Build 0)  -->
<svg version="1.1" id="Layer_1" xmlns="http://www.w3.org/2000/svg" xmlns:xlink="http://www.w3.org/1999/xlink" x="0px" y="0px"
	 width="108px" height="108px" viewBox="0 0 108 108" style="enable-background:new 0 0 108 108;" xml:space="preserve">
<style type="text/css">
	.st0{fill:#FFFFFF;stroke:#000000;stroke-width:0.75;stroke-linecap:round;stroke-linejoin:round;stroke-miterlimit:10;}
	.st1{fill:#F2F2F2;stroke:#000000;stroke-width:0.75;stroke-linecap:round;stroke-linejoin:round;stroke-miterlimit:10;}
	.st2{fill:#E6E6E6;stroke:#000000;stroke-width:0.75;stroke-linecap:round;stroke-linejoin:round;stroke-miterlimit:10;}
	.st3{fill:#CCCCCC;stroke:#000000;stroke-width:0.75;stroke-linecap:round;stroke-linejoin:round;stroke-miterlimit:10;}
	.st4{fill:none;stroke:#000000;stroke-width:0.5;stroke-linecap:round;stroke-linejoin:round;stroke-miterlimit:10;}
</style>
<g>
	<polygon class="st0" points="81.5,54.7 82.9,54.4 81.5,54.9 	"/>
	<polygon class="st1" points="103.2,49.9 103,50 82.9,54.4 82.8,30.2 	"/>
	<polygon class="st0" points="82.9,54.4 81.5,54.7 22.6,67.8 5,46.7 5.1,26.6 82.7,12.2 82.8,30.2 	"/>
	<polygon class="st0" points="82.9,54.4 81.5,54.9 81.5,54.7 	"/>
	<polygon class="st2" points="22.6,67.8 22.5,73.7 22.5,73.8 22.5,75 4.6,79.4 4.9,46.5 5,46.7 	"/>
	<polygon class="st3" points="22.5,75 22.2,95.8 4.6,79.4 	"/>
	<polygon class="st3" points="102,74.1 22.2,95.8 22.5,75 82.9,59.9 	"/>
	<polygon class="st0" points="82.9,54.4 81.5,54.9 81.5,54.7 	"/>
	<polygon class="st2" points="103.4,49.9 102,74.1 82.9,59.9 82.9,54.4 103,50 	"/>
	<g>
		<polyline class="st4" points="15.2,45.1 15,48 73.4,36 73.7,33 		"/>
		<polyline class="st4" points="25.5,91.2 41.3,86.8 28,77.9 		"/>
		<line class="st4" x1="71" y1="68.1" x2="81.5" y2="75.3"/>
		<polyline class="st4" points="86.2,76 97.2,73.2 84.9,64.5 		"/>
		<line class="st4" x1="45.7" y1="52.3" x2="45.8" y2="58"/>
		<line class="st4" x1="55" y1="56.2" x2="55.1" y2="49.9"/>
		<line class="st4" x1="47.7" y1="59.9" x2="54.6" y2="58.4"/>
		<polyline class="st4" points="45.7,49.5 45.7,48 54.9,45.9 54.9,47.5 		"/>
	</g>
	<polygon class="st1" points="82.9,54.4 82.9,59.9 22.5,75 22.5,73.8 22.5,73.7 22.6,67.8 81.5,54.7 81.5,54.9 	"/>
</g>
</svg>
