<?xml version="1.0" encoding="utf-8"?>
<!-- Generator: Adobe Illustrator 21.1.0, SVG Export Plug-In . SVG Version: 6.00 Build 0)  -->
<svg version="1.1" id="Layer_1" xmlns="http://www.w3.org/2000/svg" xmlns:xlink="http://www.w3.org/1999/xlink" x="0px" y="0px"
	 width="108px" height="108px" viewBox="0 0 108 108" style="enable-background:new 0 0 108 108;" xml:space="preserve">
<style type="text/css">
	.st0{fill:#FFFFFF;stroke:#000000;stroke-width:0.75;stroke-linecap:round;stroke-linejoin:round;stroke-miterlimit:10;}
	.st1{fill:#F2F2F2;stroke:#000000;stroke-width:0.5;stroke-linecap:round;stroke-linejoin:round;stroke-miterlimit:10;}
	.st2{fill:#E6E6E6;stroke:#000000;stroke-width:0.75;stroke-linecap:round;stroke-linejoin:round;stroke-miterlimit:10;}
	.st3{fill:#CCCCCC;stroke:#000000;stroke-width:0.75;stroke-linecap:round;stroke-linejoin:round;stroke-miterlimit:10;}
	.st4{fill:#F2F2F2;stroke:#000000;stroke-width:0.75;stroke-linecap:round;stroke-linejoin:round;stroke-miterlimit:10;}
	.st5{fill:none;stroke:#000000;stroke-width:0.5;stroke-linecap:round;stroke-linejoin:round;stroke-miterlimit:10;}
</style>
<g>
	<path class="st0" d="M68.6,34.1l-0.6-29c0,0-14.1-3.5-21.4-2c-6.8,1.4-21.9,10-21.9,10l0.1,13.2l13.2,15.5L68.6,34.1z M48.4,23.9
		c-0.7,1.1-1.8,1.5-2.6,1.1c-0.8-0.5-0.9-1.8-0.3-2.8c0.7-1.1,1.8-1.5,2.6-1C48.9,21.6,49,22.8,48.4,23.9z M45.3,14.5
		c0.7-1.1,1.8-1.5,2.6-1c0.8,0.5,0.9,1.8,0.3,2.8c-0.7,1.1-1.8,1.5-2.6,1C44.7,16.9,44.6,15.6,45.3,14.5z"/>
	<polygon class="st1" points="68.7,34.1 68.7,36.2 68.7,36.4 68.7,39.4 68.4,82.6 38.3,90.2 38.1,51.5 38.1,48.3 38.1,41.7 
		68.6,34.1 	"/>
	<polygon class="st0" points="25,53.4 24.9,26.2 24.9,26.2 	"/>
	<polygon class="st0" points="68.7,36.2 68.7,36.2 68.7,34.1 	"/>
	<polygon class="st2" points="38.3,90.2 25.2,93.4 25,56.7 25,53.4 24.9,26.2 38.1,41.7 38.1,48.3 38.1,51.5 	"/>
	<polygon class="st3" points="38.4,105.3 25.2,93.4 38.3,90.2 	"/>
	<polygon class="st4" points="83,30.5 68.7,34.1 68.4,17.2 	"/>
	<polygon class="st0" points="68.4,17.2 68.7,34.1 68.4,17.2 68.4,17.2 	"/>
	<polygon class="st2" points="83.2,91 68.4,82.7 68.7,36.2 68.7,36.2 68.7,34.1 83,30.5 	"/>
	<polygon class="st0" points="68.7,36.2 68.7,36.2 68.7,34.1 	"/>
	<polygon class="st3" points="83.2,91 38.4,105.3 38.3,90.2 68.4,82.7 	"/>
	<path class="st0" d="M62.7,30.9"/>
	<g>
		<line class="st5" x1="65.6" y1="81.7" x2="54.6" y2="79.2"/>
		<polyline class="st5" points="45.1,94.9 52,99.1 41.8,102.1 		"/>
		<polyline class="st5" points="73.5,92.3 78,90.6 73,87.8 		"/>
		<line class="st5" x1="62.8" y1="87.9" x2="66.9" y2="90"/>
		<line class="st5" x1="28.2" y1="90.9" x2="36" y2="85.8"/>
		<line class="st5" x1="46" y1="75.4" x2="45.9" y2="79.9"/>
		<line class="st5" x1="52.5" y1="78.1" x2="52.5" y2="73.4"/>
		<line class="st5" x1="46.9" y1="81.2" x2="51.7" y2="79.9"/>
		<path class="st5" d="M52.3,72.4c-0.2,0-6,1.1-6,1.1"/>
		<polyline class="st5" points="32.3,28.6 32.4,30.7 64.1,23.8 64.1,21.9 		"/>
	</g>
</g>
</svg>
