<?xml version="1.0" encoding="utf-8"?>
<!-- Generator: Adobe Illustrator 21.1.0, SVG Export Plug-In . SVG Version: 6.00 Build 0)  -->
<svg version="1.1" id="Layer_1" xmlns="http://www.w3.org/2000/svg" xmlns:xlink="http://www.w3.org/1999/xlink" x="0px" y="0px"
	 width="108px" height="108px" viewBox="0 0 108 108" style="enable-background:new 0 0 108 108;" xml:space="preserve">
<style type="text/css">
	.st0{fill:#FFFFFF;stroke:#000000;stroke-width:0.75;stroke-linecap:round;stroke-linejoin:round;stroke-miterlimit:10;}
	.st1{fill:#F2F2F2;stroke:#000000;stroke-width:0.75;stroke-linecap:round;stroke-linejoin:round;stroke-miterlimit:10;}
	.st2{fill:#CCCCCC;stroke:#000000;stroke-width:0.75;stroke-linecap:round;stroke-linejoin:round;stroke-miterlimit:10;}
	.st3{fill:#E6E6E6;stroke:#000000;stroke-width:0.75;stroke-linecap:round;stroke-linejoin:round;stroke-miterlimit:10;}
	.st4{fill:none;stroke:#000000;stroke-width:0.5;stroke-linecap:round;stroke-linejoin:round;stroke-miterlimit:10;}
	.st5{fill:none;stroke:#000000;stroke-width:0.75;stroke-linecap:round;stroke-linejoin:round;stroke-miterlimit:10;}
</style>
<g>
	<polygon class="st0" points="29.5,42.7 14.6,6.9 14.6,7.9 14.4,6.9 76.7,4.5 76.7,4.7 77.1,40.1 	"/>
	<polygon class="st1" points="91.7,39 91.2,39.3 77.1,40.1 76.7,4.7 76.7,4.5 76.9,4.5 	"/>
	<polygon class="st2" points="29.9,103.5 16.5,91.2 29.8,90.2 	"/>
	<polygon class="st3" points="29.8,90.2 16.5,91.2 14.6,7.9 14.6,6.9 29.5,42.7 29.7,69 	"/>
	<polygon class="st3" points="93.6,98.7 77.8,86.8 77.7,86.8 77.7,86.8 77.2,46 77.1,40.1 91.2,39.3 92.2,39.2 	"/>
	<polygon class="st2" points="93.6,98.7 29.9,103.5 29.8,90.2 77.7,86.8 77.8,86.8 	"/>
	<polygon class="st1" points="77.7,86.8 77.7,86.8 29.8,90.2 29.7,69 29.5,42.7 77.1,40.1 77.2,46 	"/>
	<g>
		<path class="st4" d="M34.7,43.5c3.7-11.4,7-21.6,7.7-23.9c1-3.1,4.9-6,8.5-5.7c3.3,0.3,6.3,3.4,7,6.8c0.5,2.5,2.3,11.9,4.4,22.7"
			/>
		<path class="st4" d="M62.7,45.5c3.6,18.7,7.8,40.9,7.8,40.9"/>
		<path class="st4" d="M22.8,80.3c0,0,5.6-17.3,10.8-33.5"/>
		<path class="st4" d="M80.7,97.9c0,0-4.4-3.2-6.1-4.1c-1.7-1,1.2-2.7,1.2-2.7"/>
		<path class="st4" d="M41.4,99c0,0-5.4-4.1-6.2-4.7C34.4,93.8,32,93,32,93"/>
	</g>
	<line class="st5" x1="77.7" y1="87" x2="77.7" y2="86.8"/>
</g>
</svg>
