<?xml version="1.0" encoding="utf-8"?>
<!-- Generator: Adobe Illustrator 21.1.0, SVG Export Plug-In . SVG Version: 6.00 Build 0)  -->
<svg version="1.1" id="Layer_1" xmlns="http://www.w3.org/2000/svg" xmlns:xlink="http://www.w3.org/1999/xlink" x="0px" y="0px"
	 width="108px" height="108px" viewBox="0 0 108 108" style="enable-background:new 0 0 108 108;" xml:space="preserve">
<style type="text/css">
	.st0{fill:#FFFFFF;stroke:#000000;stroke-width:0.75;stroke-linecap:round;stroke-linejoin:round;stroke-miterlimit:10;}
	.st1{fill:none;stroke:#000000;stroke-width:0.75;stroke-linecap:round;stroke-linejoin:round;stroke-miterlimit:10;}
	.st2{clip-path:url(#SVGID_2_);}
	.st3{fill:#FFFFFF;}
	.st4{fill:#F2F2F2;}
	.st5{fill:none;stroke:#000000;stroke-width:0.5;stroke-linecap:round;stroke-linejoin:round;stroke-miterlimit:10;}
	
		.st6{fill:none;stroke:#000000;stroke-width:0.5;stroke-linecap:round;stroke-linejoin:round;stroke-miterlimit:10;stroke-dasharray:4;}
</style>
<g>
	<path class="st0" d="M6.1,99c0,0.3,0,0.5,0.1,0.7H6.1L6,97.6C6,98.5,6.1,99,6.1,99z"/>
	<path class="st0" d="M102.4,93.3l-0.2,6.5h-0.1c0.1-0.3,0.1-0.5,0.1-0.8C102.2,99,102.3,96.8,102.4,93.3z"/>
	<line class="st1" x1="5.1" y1="72" x2="103" y2="72"/>
	<g>
		<defs>
			<path id="SVGID_1_" d="M103.1,72.5l-0.7,20c0,0.3,0,0.6,0,0.9c-0.1,3.5-0.2,5.7-0.2,5.7c0,0.3,0,0.6-0.1,0.8l-96-0.1
				c0-0.2-0.1-0.5-0.1-0.7c0,0,0-0.5-0.1-1.5c0,0,0,0,0,0L5.1,72L103.1,72.5z"/>
		</defs>
		<use xlink:href="#SVGID_1_"  style="overflow:visible;fill:#CCCCCC;"/>
		<clipPath id="SVGID_2_">
			<use xlink:href="#SVGID_1_"  style="overflow:visible;"/>
		</clipPath>
		<g class="st2">
			<line class="st1" x1="28.8" y1="50.2" x2="-29.3" y2="108.2"/>
			<line class="st1" x1="35.8" y1="50.2" x2="-22.3" y2="108.2"/>
			<line class="st1" x1="42.8" y1="50.2" x2="-15.3" y2="108.2"/>
			<line class="st1" x1="49.8" y1="50.2" x2="-8.3" y2="108.2"/>
			<line class="st1" x1="56.8" y1="50.2" x2="-1.3" y2="108.2"/>
			<line class="st1" x1="63.8" y1="50.2" x2="5.8" y2="108.2"/>
			<line class="st1" x1="70.8" y1="50.2" x2="12.8" y2="108.2"/>
			<line class="st1" x1="77.8" y1="50.2" x2="19.8" y2="108.2"/>
			<line class="st1" x1="84.8" y1="50.2" x2="26.8" y2="108.2"/>
			<line class="st1" x1="91.8" y1="50.2" x2="33.8" y2="108.2"/>
			<line class="st1" x1="98.8" y1="50.2" x2="40.8" y2="108.2"/>
			<line class="st1" x1="105.8" y1="50.2" x2="47.8" y2="108.2"/>
			<line class="st1" x1="112.8" y1="50.2" x2="54.8" y2="108.2"/>
			<line class="st1" x1="119.8" y1="50.2" x2="61.8" y2="108.2"/>
			<line class="st1" x1="126.8" y1="50.2" x2="68.8" y2="108.2"/>
			<line class="st1" x1="133.8" y1="50.2" x2="75.8" y2="108.2"/>
			<line class="st1" x1="140.8" y1="50.2" x2="82.8" y2="108.2"/>
			<line class="st1" x1="147.8" y1="50.2" x2="89.8" y2="108.2"/>
		</g>
		
			<use xlink:href="#SVGID_1_"  style="overflow:visible;fill:none;stroke:#000000;stroke-width:0.75;stroke-linecap:round;stroke-linejoin:round;stroke-miterlimit:10;"/>
	</g>
	<path class="st0" d="M102.1,99.9c-0.4,2-2.1,3.5-4.2,3.5H10.4c-2.1,0-3.9-1.6-4.3-3.6L102.1,99.9z"/>
	<path class="st3" d="M102.7,21.5c0-0.5,0-1-0.1-1.5v0c0-0.5,0-0.9-0.1-1.4c0-0.1,0-0.1,0-0.2c0-0.5-0.1-1-0.1-1.5
		c0-0.1,0-0.2,0-0.3c0-0.4,0-0.8,0-1.3c0-0.4,0-0.9-0.1-1.3c0-0.3,0-0.7,0-1c0,0,0-0.1,0-0.1c0-0.8-0.1-1.4-0.1-2
		c-0.1-1.3-0.1-2-0.1-2c0-2.4-1.9-4.3-4.3-4.3H10.4C8,4.6,6.1,6.6,6.1,9c0,0-1.8,33.9-1.8,44.9c0,0.4,0,0.8,0,1.3
		c0.1,0,0.2-0.1,0.3-0.1c7.8-2.4,15.6-4.8,23.5-7.1c-0.6-1-1-2.2-1-3.5c0-3.7,3-6.7,6.7-6.7c3.6,0,6.6,2.9,6.7,6.4
		c8.5-2.6,17-5.2,25.5-7.8c8.2-2.5,16.4-5.1,24.7-7.7c3.9-1.3,7.9-2.5,11.8-3.8c0.2-0.1,0.3-0.1,0.5-0.2
		C102.8,23.6,102.8,22.5,102.7,21.5z M81.2,28.6h-21c-1.4,2.3-3.9,3.9-6.8,3.9c-2.9,0-5.4-1.6-6.8-3.9h-21c-1.9,0-3.5-1.8-3.5-3.9
		s1.5-3.9,3.5-3.9h21c1.4-2.3,3.9-3.9,6.8-3.9c2.9,0,5.4,1.6,6.8,3.9h21c1.9,0,3.5,1.8,3.5,3.9S83.1,28.6,81.2,28.6z"/>
	<path class="st4" d="M103.7,51.6c0-0.3,0-0.6,0-0.9c0-0.3,0-0.5,0-0.8c0-0.4,0-0.7,0-1.1c0-0.3,0-0.6,0-1c0-0.5,0-1.1,0-1.6
		c0-0.3,0-0.6,0-0.9l0-0.9c0-0.1,0-0.3,0-0.4c0-0.8,0-1.6-0.1-2.5v-0.1c-0.1-1.2-0.1-2.4-0.1-3.7c0-0.3,0-0.6,0-0.9
		c-0.1-1.9-0.1-3.8-0.2-5.7c0-0.3,0-0.6,0-1c0-1-0.1-1.9-0.1-2.9c0-0.8-0.1-1.7-0.1-2.5c-0.2,0.1-0.4,0.1-0.5,0.2
		c-3.9,1.3-7.9,2.5-11.8,3.8c-8.2,2.6-16.4,5.2-24.7,7.7c-8.5,2.6-17,5.2-25.5,7.8c0,0.1,0,0.2,0,0.2c0,3.7-3,6.7-6.7,6.7
		c-2.4,0-4.5-1.3-5.7-3.2h0c-7.8,2.4-15.6,4.8-23.5,7.1c-0.1,0-0.2,0.1-0.3,0.1c0,1.6,0.1,3.6,0.1,5.8c0,0.3,0,0.6,0,0.9
		c0,0.6,0,1.1,0,1.7c0,0.3,0,0.7,0,1c0,0.3,0,0.6,0,0.8v0.1c0,0.3,0,0.5,0,0.8c0,0.2,0,0.3,0,0.5c0,1.4,0.1,2.8,0.2,4.3
		c0,0.4,0,0.8,0.1,1.2v0.1c0,0.5,0.1,1,0.1,1.5c0,0.3,0,0.6,0,0.9c0,1.1,0.1,2.1,0.1,3.2c0,1,0.1,2,0.1,3c0,0.3,0,0.5,0,0.8
		c0,0.1,0,0.2,0,0.4c0,0.4,0,0.8,0.1,1.2c0,0.3,0,0.6,0,0.9c0,0.4,0,0.9,0.1,1.3c0,0.8,0.1,1.6,0.1,2.4c0,0.4,0,0.8,0.1,1.2
		c0,0.3,0,0.6,0,0.9c0,0.8,0.1,1.5,0.1,2.2c0,0.6,0.1,1.1,0.1,1.7c0,0.3,0,0.5,0,0.8c0,0.1,0,0.2,0,0.2c0,0.1,0,0.3,0,0.4
		c0,0.2,0,0.5,0,0.7c0,0.4,0,0.8,0.1,1.1L5.1,72l98,0.5l-0.7,20c0-0.3,0-0.7,0-1c0-0.5,0-1.1,0.1-1.7c0-0.9,0.1-1.9,0.1-2.9
		c0-0.5,0-1.1,0.1-1.7c0-0.5,0-1.1,0.1-1.7c0-0.3,0-0.5,0-0.8c0-0.4,0-0.8,0-1.2c0-0.2,0-0.3,0-0.5c0-0.8,0.1-1.5,0.1-2.3
		c0-0.5,0-0.9,0-1.4c0-0.8,0.1-1.6,0.1-2.4c0.1-2.4,0.2-4.7,0.3-7c0-0.4,0-0.7,0-1.1c0-0.2,0-0.4,0-0.5c0-0.8,0.1-1.7,0.1-2.4
		c0-0.1,0-0.2,0-0.2c0-0.6,0-1.2,0-1.8c0-0.3,0-0.7,0-1c0-0.2,0-0.5,0-0.7c0-0.4,0-0.7,0-1.1c0-0.2,0-0.3,0-0.5c0-0.5,0-1,0-1.4
		c0-0.2,0-0.3,0-0.5c0-1,0-1.9,0-2.6C103.8,53.2,103.8,52.5,103.7,51.6z M75,38.4c3.7,0,6.7,3,6.7,6.7s-3,6.7-6.7,6.7
		c-0.1,0-0.1,0-0.2,0c-3.6-0.1-6.5-3-6.5-6.7C68.3,41.4,71.3,38.4,75,38.4z"/>
	<path class="st1" d="M103.7,51.6c0-0.3,0-0.6,0-0.9c0-0.3,0-0.5,0-0.8c0-0.4,0-0.7,0-1.1c0-0.3,0-0.6,0-1c0-0.5,0-1.1,0-1.6
		c0-0.3,0-0.6,0-0.9l0-0.9c0-0.1,0-0.3,0-0.4c0-0.8,0-1.6-0.1-2.5v-0.1c-0.1-1.2-0.1-2.4-0.1-3.7c0-0.3,0-0.6,0-0.9
		c-0.1-1.9-0.1-3.8-0.2-5.7c0-0.3,0-0.6,0-1c0-1-0.1-1.9-0.1-2.9c0-0.8-0.1-1.7-0.1-2.5c0-1.1-0.1-2.1-0.1-3.1c0-0.5,0-1-0.1-1.5v0
		c0-0.5,0-0.9-0.1-1.4c0-0.1,0-0.1,0-0.2c0-0.5-0.1-1-0.1-1.5c0-0.1,0-0.2,0-0.3c0-0.4,0-0.8,0-1.3c0-0.4,0-0.9-0.1-1.3
		c0-0.3,0-0.7,0-1c0,0,0-0.1,0-0.1c0-0.8-0.1-1.4-0.1-2c-0.1-1.3-0.1-2-0.1-2c0-2.4-1.9-4.3-4.3-4.3H10.4C8,4.6,6.1,6.6,6.1,9
		c0,0-1.8,33.9-1.8,44.9c0,0.4,0,0.8,0,1.3c0,1.6,0.1,3.6,0.1,5.8c0,0.3,0,0.6,0,0.9c0,0.6,0,1.1,0,1.7c0,0.3,0,0.7,0,1
		c0,0.3,0,0.6,0,0.8v0.1c0,0.3,0,0.5,0,0.8c0,0.2,0,0.3,0,0.5c0,1.4,0.1,2.8,0.2,4.3c0,0.4,0,0.8,0.1,1.2v0.1c0,0.5,0.1,1,0.1,1.5
		c0,0.3,0,0.6,0,0.9c0,1.1,0.1,2.1,0.1,3.2c0,1,0.1,2,0.1,3c0,0.3,0,0.5,0,0.8c0,0.1,0,0.2,0,0.4c0,0.4,0,0.8,0.1,1.2
		c0,0.3,0,0.6,0,0.9c0,0.4,0,0.9,0.1,1.3c0,0.8,0.1,1.6,0.1,2.4c0,0.4,0,0.8,0.1,1.2c0,0.3,0,0.6,0,0.9c0,0.8,0.1,1.5,0.1,2.2
		c0,0.6,0.1,1.1,0.1,1.7c0,0.3,0,0.5,0,0.8c0,0.1,0,0.2,0,0.2c0,0.1,0,0.3,0,0.4c0,0.2,0,0.5,0,0.7c0,0.4,0,0.8,0.1,1.1L5.1,72
		l98,0.5l-0.7,20c0-0.3,0-0.7,0-1c0-0.5,0-1.1,0.1-1.7c0-0.9,0.1-1.9,0.1-2.9c0-0.5,0-1.1,0.1-1.7c0-0.5,0-1.1,0.1-1.7
		c0-0.3,0-0.5,0-0.8c0-0.4,0-0.8,0-1.2c0-0.2,0-0.3,0-0.5c0-0.8,0.1-1.5,0.1-2.3c0-0.5,0-0.9,0-1.4c0-0.8,0.1-1.6,0.1-2.4
		c0.1-2.4,0.2-4.7,0.3-7c0-0.4,0-0.7,0-1.1c0-0.2,0-0.4,0-0.5c0-0.8,0.1-1.7,0.1-2.4c0-0.1,0-0.2,0-0.2c0-0.6,0-1.2,0-1.8
		c0-0.3,0-0.7,0-1c0-0.2,0-0.5,0-0.7c0-0.4,0-0.7,0-1.1c0-0.2,0-0.3,0-0.5c0-0.5,0-1,0-1.4c0-0.2,0-0.3,0-0.5c0-1,0-1.9,0-2.6
		C103.8,53.2,103.8,52.5,103.7,51.6z M81.7,45.1c0,3.7-3,6.7-6.7,6.7c-0.1,0-0.1,0-0.2,0c-3.6-0.1-6.5-3-6.5-6.7
		c0-3.7,3-6.7,6.7-6.7S81.7,41.4,81.7,45.1z M40.4,44.4c0,3.7-3,6.7-6.7,6.7c-2.4,0-4.5-1.3-5.7-3.2h0c-0.6-1-1-2.2-1-3.5
		c0-3.7,3-6.7,6.7-6.7c3.6,0,6.6,2.9,6.7,6.4C40.4,44.2,40.4,44.3,40.4,44.4z M25.8,20.7h21c1.4-2.3,3.9-3.9,6.8-3.9
		c2.9,0,5.4,1.6,6.8,3.9h21c1.9,0,3.5,1.8,3.5,3.9s-1.5,3.9-3.5,3.9h-21c-1.4,2.3-3.9,3.9-6.8,3.9c-2.9,0-5.4-1.6-6.8-3.9h-21
		c-1.9,0-3.5-1.8-3.5-3.9S23.9,20.7,25.8,20.7z"/>
	<line class="st1" x1="102.2" y1="99.9" x2="102.1" y2="99.9"/>
	<line class="st1" x1="6.1" y1="99.8" x2="6.1" y2="99.8"/>
	<g>
		<path class="st5" d="M4.5,63.5l22-0.1c0,0,2.9,0.3,5.1-1.3c2.1-1.6,2.1-3.7,2.1-3.7l0-7.3"/>
		<path class="st5" d="M103.8,63.7h-22c0,0-2.9,0.3-5.1-1.3c-2.1-1.6-2.1-3.7-2.1-3.7l0.2-7.5"/>
		<line class="st6" x1="37.1" y1="63.1" x2="71" y2="63.1"/>
		<line class="st5" x1="4.5" y1="66.2" x2="103.8" y2="66.2"/>
	</g>
</g>
</svg>
