<?xml version="1.0" encoding="utf-8"?>
<!-- Generator: Adobe Illustrator 21.1.0, SVG Export Plug-In . SVG Version: 6.00 Build 0)  -->
<svg version="1.1" id="Layer_1" xmlns="http://www.w3.org/2000/svg" xmlns:xlink="http://www.w3.org/1999/xlink" x="0px" y="0px"
	 width="108px" height="108px" viewBox="0 0 108 108" style="enable-background:new 0 0 108 108;" xml:space="preserve">
<style type="text/css">
	.st0{fill:#F2F2F2;}
	.st1{fill:#FFFFFF;}
	.st2{fill:none;stroke:#000000;stroke-width:0.75;stroke-linecap:round;stroke-linejoin:round;stroke-miterlimit:10;}
	.st3{clip-path:url(#SVGID_2_);}
	.st4{fill:none;stroke:#000000;stroke-width:0.5;stroke-linecap:round;stroke-linejoin:round;stroke-miterlimit:10;}
	.st5{fill:none;stroke:#000000;stroke-width:0.5;stroke-linecap:round;stroke-linejoin:round;}
	.st6{fill:none;stroke:#000000;stroke-width:0.5;stroke-linecap:round;stroke-linejoin:round;stroke-dasharray:3.9368,3.9368;}
</style>
<g>
	<path class="st0" d="M10,83.9v18.8h87.7V45.5C69,59.3,39.4,71.5,10,83.9z"/>
	<path class="st1" d="M10,30.8v53.2c2.7-1.1,5.4-2.3,8.1-3.4c4.7-2,9.3-3.9,14-5.9c3.5-1.5,6.9-2.9,10.4-4.4c2.3-1,4.5-1.9,6.7-2.9
		c2-0.8,4-1.7,6-2.6c2-0.9,4-1.7,6-2.6c2.3-1,4.5-2,6.8-3c1.6-0.7,3.3-1.4,4.9-2.2c0.1,0,0.1-0.1,0.2-0.1c1-0.5,2.1-0.9,3.1-1.4
		c0.3-0.1,0.6-0.3,0.9-0.4c0.2-0.1,0.4-0.2,0.5-0.3c0.5-0.2,1.1-0.5,1.6-0.7c0.3-0.2,0.6-0.3,1-0.4c1.7-0.8,3.5-1.6,5.2-2.4
		c2-1,4.1-1.9,6.1-2.9c2-1,4.1-1.9,6.1-2.9V30.8H10z M35.2,40.6c3.4,0,6.2,2.8,6.2,6.2s-2.8,6.2-6.2,6.2c-0.2,0-0.3,0-0.5,0
		c-3.2-0.2-5.8-2.9-5.8-6.2C29,43.4,31.8,40.6,35.2,40.6z M73.6,53.2c-3.4,0-6.2-2.8-6.2-6.2c0-3.4,2.8-6.2,6.2-6.2
		c3.4,0,6.2,2.8,6.2,6.2C79.8,50.5,77,53.2,73.6,53.2z"/>
	<path class="st2" d="M10,30.8v71.9h87.7V30.8H10z M73.6,40.8c3.4,0,6.2,2.8,6.2,6.2c0,3.4-2.8,6.2-6.2,6.2c-3.4,0-6.2-2.8-6.2-6.2
		C67.3,43.6,70.1,40.8,73.6,40.8z M35.2,40.6c3.4,0,6.2,2.8,6.2,6.2s-2.8,6.2-6.2,6.2c-0.2,0-0.3,0-0.5,0c-3.2-0.2-5.8-2.9-5.8-6.2
		C29,43.4,31.8,40.6,35.2,40.6z"/>
	<g>
		<defs>
			<path id="SVGID_1_" d="M93.7,5.3H14c-2.2,0-4,1.8-4,4v21.5h87.7V9.3C97.7,7.1,95.9,5.3,93.7,5.3z M53.2,30.6c-4.4,0-8-3.6-8-8
				c0-4.4,3.6-8,8-8c4.4,0,8,3.6,8,8C61.1,27,57.5,30.6,53.2,30.6z"/>
		</defs>
		<use xlink:href="#SVGID_1_"  style="overflow:visible;fill:#CCCCCC;"/>
		<clipPath id="SVGID_2_">
			<use xlink:href="#SVGID_1_"  style="overflow:visible;"/>
		</clipPath>
		<g class="st3">
			<line class="st2" x1="28.8" y1="-17.8" x2="-29.3" y2="40.2"/>
			<line class="st2" x1="35.8" y1="-17.8" x2="-22.3" y2="40.2"/>
			<line class="st2" x1="42.8" y1="-17.8" x2="-15.3" y2="40.2"/>
			<line class="st2" x1="49.8" y1="-17.8" x2="-8.3" y2="40.2"/>
			<line class="st2" x1="56.8" y1="-17.8" x2="-1.3" y2="40.2"/>
			<line class="st2" x1="63.8" y1="-17.8" x2="5.8" y2="40.2"/>
			<line class="st2" x1="70.8" y1="-17.8" x2="12.8" y2="40.2"/>
			<line class="st2" x1="77.8" y1="-17.8" x2="19.8" y2="40.2"/>
			<line class="st2" x1="84.8" y1="-17.8" x2="26.8" y2="40.2"/>
			<line class="st2" x1="91.8" y1="-17.8" x2="33.8" y2="40.2"/>
			<line class="st2" x1="98.8" y1="-17.8" x2="40.8" y2="40.2"/>
			<line class="st2" x1="105.8" y1="-17.8" x2="47.8" y2="40.2"/>
			<line class="st2" x1="112.8" y1="-17.8" x2="54.8" y2="40.2"/>
			<line class="st2" x1="119.8" y1="-17.8" x2="61.8" y2="40.2"/>
			<line class="st2" x1="126.8" y1="-17.8" x2="68.8" y2="40.2"/>
			<line class="st2" x1="133.8" y1="-17.8" x2="75.8" y2="40.2"/>
			<line class="st2" x1="140.8" y1="-17.8" x2="82.8" y2="40.2"/>
			<line class="st2" x1="147.8" y1="-17.8" x2="89.8" y2="40.2"/>
		</g>
		
			<use xlink:href="#SVGID_1_"  style="overflow:visible;fill:none;stroke:#000000;stroke-width:0.75;stroke-linecap:round;stroke-linejoin:round;stroke-miterlimit:10;"/>
	</g>
	<line class="st2" x1="97.8" y1="30.8" x2="97.7" y2="30.8"/>
	<line class="st2" x1="98" y1="70.2" x2="97.7" y2="70.2"/>
	<g>
		<path class="st4" d="M10.5,67.7h17.8c0,0,2.7,0.3,4.7-1.2c2-1.5,2-3.5,2-3.5l-0.2-10"/>
		<path class="st4" d="M97.4,68H79.6c0,0-2.7,0.3-4.7-1.2c-2-1.5-2-3.5-2-3.5l0.2-10"/>
		<g>
			<g>
				<line class="st5" x1="38.1" y1="67.4" x2="40.1" y2="67.4"/>
				<line class="st6" x1="44" y1="67.4" x2="65.7" y2="67.4"/>
				<line class="st5" x1="67.6" y1="67.4" x2="69.6" y2="67.4"/>
			</g>
		</g>
		<line class="st4" x1="10" y1="70.2" x2="97.7" y2="70.2"/>
	</g>
</g>
</svg>
