<?xml version="1.0" encoding="utf-8"?>
<!-- Generator: Adobe Illustrator 21.1.0, SVG Export Plug-In . SVG Version: 6.00 Build 0)  -->
<svg version="1.1" id="Layer_1" xmlns="http://www.w3.org/2000/svg" xmlns:xlink="http://www.w3.org/1999/xlink" x="0px" y="0px"
	 width="108px" height="108px" viewBox="0 0 108 108" style="enable-background:new 0 0 108 108;" xml:space="preserve">
<style type="text/css">
	.st0{fill:#FFFFFF;stroke:#000000;stroke-width:0.75;stroke-linecap:round;stroke-linejoin:round;stroke-miterlimit:10;}
	.st1{fill:#E6E6E6;stroke:#000000;stroke-width:0.75;stroke-linecap:round;stroke-linejoin:round;stroke-miterlimit:10;}
	.st2{fill:#F2F2F2;stroke:#000000;stroke-width:0.75;stroke-linecap:round;stroke-linejoin:round;stroke-miterlimit:10;}
	.st3{fill:#CCCCCC;stroke:#000000;stroke-width:0.75;stroke-linecap:round;stroke-linejoin:round;stroke-miterlimit:10;}
	.st4{fill:none;stroke:#000000;stroke-width:0.5;stroke-linecap:round;stroke-linejoin:round;stroke-miterlimit:10;}
</style>
<g>
	<polygon class="st0" points="80.5,15 80.5,53.4 25.5,67 9.5,46.5 9.5,29 	"/>
	<polygon class="st1" points="98.5,49 98.5,73 80.5,60 80.5,53.4 	"/>
	<polygon class="st2" points="98.5,49 80.5,53.4 80.5,30.7 	"/>
	<polygon class="st1" points="25.5,73.9 25.5,93 9.5,78 	"/>
	<polygon class="st2" points="25.5,67 25.5,73.9 9.5,78 9.5,46.5 	"/>
	<polygon class="st2" points="80.5,53.4 80.5,60 25.5,73.9 25.5,67 	"/>
	<polygon class="st3" points="98.5,73 25.5,93 25.5,73.9 80.5,60 	"/>
	<g>
		<polyline class="st4" points="18.5,45 18.5,49 72.5,37 72.5,34 		"/>
		<line class="st4" x1="42.5" y1="49" x2="51.5" y2="47"/>
		<line class="st4" x1="42.5" y1="52" x2="42.5" y2="58"/>
		<line class="st4" x1="51.5" y1="50" x2="51.5" y2="55"/>
		<polyline class="st4" points="31.5,77 42.5,84 29.5,88 		"/>
		<polyline class="st4" points="70.5,67 79.5,73 90.5,70 		"/>
		<line class="st4" x1="77.5" y1="59" x2="72.5" y2="58"/>
		<line class="st4" x1="10.5" y1="76" x2="21.5" y2="69"/>
	</g>
</g>
</svg>
