<?xml version="1.0" encoding="utf-8"?>
<!-- Generator: Adobe Illustrator 21.1.0, SVG Export Plug-In . SVG Version: 6.00 Build 0)  -->
<svg version="1.1" id="Layer_1" xmlns="http://www.w3.org/2000/svg" xmlns:xlink="http://www.w3.org/1999/xlink" x="0px" y="0px"
	 width="108px" height="108px" viewBox="0 0 108 108" style="enable-background:new 0 0 108 108;" xml:space="preserve">
<style type="text/css">
	.st0{fill:#FFFFFF;stroke:#000000;stroke-width:0.75;stroke-linecap:round;stroke-linejoin:round;stroke-miterlimit:10;}
	.st1{fill:none;stroke:#000000;stroke-width:0.75;stroke-linecap:round;stroke-linejoin:round;stroke-miterlimit:10;}
	.st2{clip-path:url(#SVGID_2_);}
	.st3{fill:#F2F2F2;}
	.st4{fill:#FFFFFF;}
	.st5{fill:none;stroke:#000000;stroke-width:0.5;stroke-linecap:round;stroke-linejoin:round;stroke-miterlimit:10;}
</style>
<g>
	<path class="st0" d="M6.1,99c0,0.3,0,0.5,0.1,0.7H6.1L6,97.5C6.1,98.5,6.1,99,6.1,99z"/>
	<path class="st0" d="M102.4,94l-0.2,5.8h-0.1c0.1-0.3,0.1-0.6,0.1-0.8C102.2,99,102.2,97.1,102.4,94z"/>
	<line class="st1" x1="5.1" y1="71.9" x2="102.9" y2="72"/>
	<g>
		<defs>
			<path id="SVGID_1_" d="M103.1,72.5l-0.7,20.7c0,0.3,0,0.6,0,0.8c0,0.4,0,0.8,0,1.1c0,0.3,0,0.6,0,0.9c0,0.3,0,0.5,0,0.8
				c0,0.1,0,0.2,0,0.3c0,0.1,0,0.2,0,0.2c0,0.3,0,0.6,0,0.9c0,0.5,0,0.8,0,0.8c0,0.3,0,0.6-0.1,0.8L6.2,99.7c0-0.2-0.1-0.5-0.1-0.7
				c0,0,0-0.5-0.1-1.5v0L5.1,71.9L103.1,72.5z"/>
		</defs>
		<use xlink:href="#SVGID_1_"  style="overflow:visible;fill:#CCCCCC;"/>
		<clipPath id="SVGID_2_">
			<use xlink:href="#SVGID_1_"  style="overflow:visible;"/>
		</clipPath>
		<g class="st2">
			<line class="st1" x1="28.8" y1="50.2" x2="-29.3" y2="108.2"/>
			<line class="st1" x1="35.8" y1="50.2" x2="-22.3" y2="108.2"/>
			<line class="st1" x1="42.8" y1="50.2" x2="-15.3" y2="108.2"/>
			<line class="st1" x1="49.8" y1="50.2" x2="-8.3" y2="108.2"/>
			<line class="st1" x1="56.8" y1="50.2" x2="-1.3" y2="108.2"/>
			<line class="st1" x1="63.8" y1="50.2" x2="5.8" y2="108.2"/>
			<line class="st1" x1="70.8" y1="50.2" x2="12.8" y2="108.2"/>
			<line class="st1" x1="77.8" y1="50.2" x2="19.8" y2="108.2"/>
			<line class="st1" x1="84.8" y1="50.2" x2="26.8" y2="108.2"/>
			<line class="st1" x1="91.8" y1="50.2" x2="33.8" y2="108.2"/>
			<line class="st1" x1="98.8" y1="50.2" x2="40.8" y2="108.2"/>
			<line class="st1" x1="105.8" y1="50.2" x2="47.8" y2="108.2"/>
			<line class="st1" x1="112.8" y1="50.2" x2="54.8" y2="108.2"/>
			<line class="st1" x1="119.8" y1="50.2" x2="61.8" y2="108.2"/>
			<line class="st1" x1="126.8" y1="50.2" x2="68.8" y2="108.2"/>
			<line class="st1" x1="133.8" y1="50.2" x2="75.8" y2="108.2"/>
			<line class="st1" x1="140.8" y1="50.2" x2="82.8" y2="108.2"/>
			<line class="st1" x1="147.8" y1="50.2" x2="89.8" y2="108.2"/>
		</g>
		
			<use xlink:href="#SVGID_1_"  style="overflow:visible;fill:none;stroke:#000000;stroke-width:0.75;stroke-linecap:round;stroke-linejoin:round;stroke-miterlimit:10;"/>
	</g>
	<path class="st0" d="M102.1,99.9c-0.4,2-2.1,3.5-4.2,3.5H10.4c-2.1,0-3.9-1.6-4.3-3.6L102.1,99.9z"/>
	<path class="st3" d="M4.4,61C4.8,73.1,5.7,92,6,97.5L5.1,71.9l98,0.5l-0.7,20.7c0.4-10.6,1.3-32.7,1.3-39.3
		c0-4.6-0.4-16.3-0.8-26.6C70.3,39.6,37.2,50.1,4.4,61z"/>
	<path class="st4" d="M102.8,23.9c0-0.4,0-0.7,0-1.1c0-0.1,0-0.2,0-0.2c0-0.5,0-1-0.1-1.5c0-0.4,0-0.7,0-1.1c0-0.5,0-1.1-0.1-1.6
		c0-1.4-0.1-2.8-0.2-3.9c0-0.3,0-0.7,0-1c0-0.8-0.1-1.5-0.1-2.1c0-0.2,0-0.4,0-0.5c0,0,0-0.1,0-0.1c0-0.1,0-0.2,0-0.3
		c0-0.9-0.1-1.5-0.1-1.5c0-0.5-0.1-0.9-0.2-1.3c-0.1-0.2-0.1-0.4-0.2-0.6c-0.1-0.2-0.2-0.4-0.3-0.5c-0.2-0.2-0.3-0.4-0.5-0.6
		c-0.3-0.3-0.6-0.5-1-0.7c-0.2-0.1-0.5-0.2-0.8-0.3c0,0,0,0,0,0c-0.4-0.1-0.8-0.2-1.3-0.2H10.4c-0.5,0-0.9,0.1-1.3,0.2
		C8.9,5,8.6,5.1,8.4,5.2C8,5.4,7.7,5.6,7.4,5.9C7.2,6.1,7,6.3,6.8,6.6C6.7,6.7,6.6,6.9,6.5,7.1C6.5,7.3,6.4,7.5,6.3,7.7
		C6.2,8.1,6.1,8.5,6.1,9c0,0-0.1,1.4-0.2,3.7c0,0.5,0,1.1-0.1,1.7c0,0.6-0.1,1.3-0.1,2c0,0.5,0,0.9-0.1,1.4
		c-0.1,1.3-0.1,2.6-0.2,4.1c0,1.1-0.1,2.3-0.2,3.5v0.1c-0.2,3.2-0.3,6.6-0.5,9.9c-0.1,2.8-0.2,5.5-0.3,8c-0.2,4.2-0.2,7.9-0.2,10.4
		c0,1,0,2.2,0,3.5c0,0.2,0,0.4,0,0.6c0,0.8,0,1.7,0.1,2.5c0,0.2,0,0.3,0,0.5c5-1.6,9.9-3.3,14.9-4.9c6.8-2.3,13.6-4.5,20.4-6.8
		c0.9-0.3,1.8-0.6,2.8-0.9c2.6-0.9,5.2-1.7,7.8-2.6c3.2-1.1,6.4-2.2,9.7-3.3c4.1-1.4,8.2-2.8,12.3-4.2c3.2-1.1,6.4-2.3,9.6-3.4
		c1.9-0.7,3.8-1.4,5.8-2.1c1.6-0.6,3.2-1.2,4.8-1.7c3.5-1.3,7-2.6,10.5-3.9c0,0,0-0.1,0-0.1C102.9,26,102.8,24.9,102.8,23.9z
		 M24,24.4c-0.9,0.7-2,1-3.2,1c-3,0-5.3-2.4-5.3-5.3s2.4-5.3,5.3-5.3s5.3,2.4,5.3,5.3C26.1,21.9,25.3,23.5,24,24.4z M53.1,30.9
		c-3.9,0-7-3.2-7-7c0-3.9,3.2-7,7-7c3.9,0,7,3.1,7,7C60.2,27.8,57,30.9,53.1,30.9z M87,24.6c-1,0-2-0.3-2.8-0.8h0
		c-1.5-1-2.6-2.6-2.6-4.6c0-3,2.4-5.3,5.3-5.3c3,0,5.3,2.4,5.3,5.3S90,24.6,87,24.6z"/>
	<path class="st1" d="M103.7,50.5c0-0.3,0-0.6,0-0.9c0-0.2,0-0.3,0-0.5c0-0.2,0-0.3,0-0.5c0-0.3,0-0.5,0-0.8c0-0.3,0-0.5,0-0.8
		c0-0.2,0-0.4,0-0.7c0-0.2,0-0.5,0-0.7c0-0.1,0-0.2,0-0.3c0-0.4,0-0.9,0-1.4c0-0.1,0-0.2,0-0.4c0-0.7,0-1.5-0.1-2.3
		c0-1.5-0.1-3.1-0.2-4.6c0-0.5,0-1.1-0.1-1.6c0-0.1,0-0.2,0-0.3c0-0.5,0-1.1-0.1-1.7c0-0.1,0-0.2,0-0.3c0-1-0.1-1.9-0.1-2.9
		c0-0.3,0-0.5,0-0.8c0-0.7,0-1.3-0.1-2c0,0,0-0.1,0-0.1c0-1.1-0.1-2.2-0.1-3.3c0-0.4,0-0.7,0-1.1c0-0.1,0-0.2,0-0.2
		c0-0.5,0-1-0.1-1.5c0-0.4,0-0.7,0-1.1c0-0.5,0-1.1-0.1-1.6c0-1.4-0.1-2.8-0.2-3.9c0-0.3,0-0.7,0-1c0-0.8-0.1-1.5-0.1-2.1
		c0-0.2,0-0.4,0-0.5c0,0,0-0.1,0-0.1c0-0.1,0-0.2,0-0.3c0-0.9-0.1-1.5-0.1-1.5c0-0.5-0.1-0.9-0.2-1.3c-0.1-0.2-0.1-0.4-0.2-0.6
		c-0.1-0.2-0.2-0.4-0.3-0.5c-0.2-0.2-0.3-0.4-0.5-0.6c-0.3-0.3-0.6-0.5-1-0.7c-0.2-0.1-0.5-0.2-0.8-0.3c0,0,0,0,0,0
		c-0.4-0.1-0.8-0.2-1.3-0.2H10.4c-0.5,0-0.9,0.1-1.3,0.2C8.9,5,8.6,5.1,8.4,5.2C8,5.4,7.7,5.6,7.4,5.9C7.2,6.1,7,6.3,6.8,6.6
		C6.7,6.7,6.6,6.9,6.5,7.1C6.5,7.3,6.4,7.5,6.3,7.7C6.2,8.1,6.1,8.5,6.1,9c0,0-0.1,1.4-0.2,3.7c0,0.5,0,1.1-0.1,1.7
		c0,0.6-0.1,1.3-0.1,2c0,0.5,0,0.9-0.1,1.4c-0.1,1.3-0.1,2.6-0.2,4.1c-0.1,1.1-0.1,2.3-0.2,3.5v0.1c-0.2,3.2-0.3,6.6-0.5,9.9
		c-0.1,2.8-0.2,5.5-0.3,8c-0.2,4.2-0.3,7.9-0.3,10.4c0,1,0,2.2,0,3.5c0,0.2,0,0.4,0,0.6c0,0.8,0,1.7,0.1,2.5c0,0.2,0,0.3,0,0.5
		c0,0.4,0,0.8,0,1.2c0,0.6,0,1.2,0.1,1.8c0,0.4,0,0.9,0,1.3c0,1.3,0.1,2.6,0.2,3.9c0,0.4,0,0.8,0,1.2c0,0.2,0,0.4,0,0.6
		c0,0.9,0.1,1.8,0.1,2.7c0,0.7,0.1,1.5,0.1,2.2c0,0.3,0,0.5,0,0.8c0.1,1.7,0.1,3.4,0.2,5c0,0.4,0,0.9,0.1,1.3c0,0.9,0.1,1.7,0.1,2.5
		c0,0.4,0,0.8,0.1,1.2c0,0.8,0.1,1.6,0.1,2.3c0,0,0,0.1,0,0.1c0,0.3,0,0.7,0,1c0.1,1.2,0.1,2.4,0.2,3.4c0,0.4,0,0.7,0.1,1.1
		c0,0.5,0,1,0.1,1.4c0,0.1,0,0.3,0,0.4C6,96.7,6,97,6,97.3l-0.1-2.7L5.7,89L5.3,76.7l-0.2-4.8l98,0.5l-0.6,19.4c0-0.1,0-0.1,0-0.2
		c0-0.6,0-1.2,0.1-1.8c0-0.8,0.1-1.6,0.1-2.4c0-0.3,0-0.6,0-1c0-0.3,0-0.7,0-1c0-0.7,0.1-1.3,0.1-2c0-0.8,0.1-1.6,0.1-2.5
		c0-0.1,0-0.2,0-0.3v-0.1c0-0.9,0.1-1.8,0.1-2.8v-0.1c0-0.8,0.1-1.7,0.1-2.5c0-0.1,0-0.2,0-0.3v-0.1c0-0.9,0.1-1.9,0.1-2.8
		c0,0,0,0,0-0.1c0-0.5,0-0.9,0-1.4c0-0.2,0-0.5,0-0.7v-0.1c0-0.4,0-0.9,0-1.3v-0.1c0-0.5,0-0.9,0-1.4c0-0.2,0-0.4,0-0.7
		c0-0.2,0-0.5,0-0.7c0-0.2,0-0.4,0-0.7c0-1.1,0.1-2.2,0.1-3.2c0-0.4,0-0.8,0-1.2c0-0.4,0-0.9,0-1.3c0-0.3,0-0.7,0-1
		c0-0.1,0-0.3,0-0.4c0-0.2,0-0.4,0-0.6c0-0.3,0-0.6,0-0.9c0-1.1,0-2,0-2.7C103.7,53,103.7,51.8,103.7,50.5z M87,14
		c3,0,5.3,2.4,5.3,5.3S90,24.6,87,24.6c-1,0-2-0.3-2.8-0.8h0c-1.5-1-2.6-2.6-2.6-4.6C81.7,16.4,84.1,14,87,14z M53.1,16.8
		c3.9,0,7,3.1,7,7c0,3.9-3.1,7-7,7c-3.9,0-7-3.2-7-7C46.1,20,49.2,16.8,53.1,16.8z M20.8,14.8c3,0,5.3,2.4,5.3,5.3
		c0,1.8-0.9,3.3-2.2,4.3c-0.9,0.7-2,1-3.2,1c-3,0-5.3-2.4-5.3-5.3S17.8,14.8,20.8,14.8z"/>
	<line class="st1" x1="102.2" y1="99.9" x2="102.1" y2="99.9"/>
	<line class="st1" x1="6.2" y1="99.7" x2="6.1" y2="99.7"/>
	<g>
		<path class="st5" d="M4.8,69.2c0,0,8.6,0.7,10-1.5c1.4-2.2,11.4-31.2,12.1-33.2c0.7-2,1.1-5.1-0.2-6.9c-1.3-1.7-2.8-3.5-2.8-3.5"
			/>
		<path class="st5" d="M103.5,68.6c0,0-8.6,0.7-10-1.5c-1.4-2.2-11.4-31.2-12.1-33.2c-0.7-2-1.1-5.1,0.2-6.9
			c1.3-1.7,2.8-3.5,2.8-3.5"/>
		<polyline class="st5" points="39.7,48.3 39.7,49.8 35.3,54.5 35.4,68.5 72.5,68.5 72.5,53.9 67.6,49 67.6,47.6 		"/>
	</g>
</g>
</svg>
