<?xml version="1.0" encoding="utf-8"?>
<!-- Generator: Adobe Illustrator 21.1.0, SVG Export Plug-In . SVG Version: 6.00 Build 0)  -->
<svg version="1.1" id="Layer_1" xmlns="http://www.w3.org/2000/svg" xmlns:xlink="http://www.w3.org/1999/xlink" x="0px" y="0px"
	 width="108px" height="108px" viewBox="0 0 108 108" style="enable-background:new 0 0 108 108;" xml:space="preserve">
<style type="text/css">
	.st0{fill:#CCCCCC;stroke:#000000;stroke-width:0.75;stroke-linecap:round;stroke-linejoin:round;stroke-miterlimit:10;}
	.st1{fill:#F2F2F2;}
	.st2{fill:#FFFFFF;}
	.st3{fill:#CCCCCC;}
	.st4{fill:none;stroke:#000000;stroke-width:0.75;stroke-linecap:round;stroke-linejoin:round;stroke-miterlimit:10;}
	.st5{fill:#999999;stroke:#000000;stroke-width:0.75;stroke-linecap:round;stroke-linejoin:round;stroke-miterlimit:10;}
	.st6{fill:#F2F2F2;stroke:#000000;stroke-width:0.75;stroke-linecap:round;stroke-linejoin:round;stroke-miterlimit:10;}
	.st7{fill:#E6E6E6;stroke:#000000;stroke-width:0.75;stroke-linecap:round;stroke-linejoin:round;stroke-miterlimit:10;}
	.st8{fill:none;stroke:#000000;stroke-width:0.5;stroke-linecap:round;stroke-linejoin:round;stroke-miterlimit:10;}
</style>
<g>
	<polygon class="st0" points="21.2,11.7 46.7,6.2 50.5,10.5 50.1,90.3 47.5,95.8 19.4,101.8 17.1,96.7 17.5,16.8 	"/>
	<path class="st1" d="M46.7,6.2l-25.5,5.4l1.9,5.2l0,0.3c9-2.4,18.1-4.8,27.3-6.8L46.7,6.2z"/>
	<path class="st1" d="M28.2,48.7c-1.6,1.2-3.3,2.3-5.1,3.3l0,44.3l-0.2,0.2c9-1.8,18.1-4,27.1-6.3l0.2-38.9
		C42.9,50.4,35.6,49.3,28.2,48.7z"/>
	<path class="st2" d="M50.3,51.3l0.2-40.8l-0.1-0.1c-9.2,1.9-18.2,4.4-27.3,6.8l0,34.8c1.8-1.1,3.5-2.1,5.1-3.3
		C35.6,49.3,42.9,50.4,50.3,51.3z"/>
	<path class="st3" d="M22.9,96.5l-3.6,5.2l28.1-6l2.6-5.5l0-0.1C41,92.5,32,94.7,22.9,96.5z"/>
	<polygon class="st4" points="21.2,11.7 46.7,6.2 50.5,10.5 50.1,90.3 47.5,95.8 19.4,101.8 23.1,96.3 23.2,16.9 	"/>
	<path class="st5" d="M28.5,52.2c0,0,1.5,0.3,2,1.4c0.4,1.2,1,2.8,1,2.8S73.7,68.2,80,67.9c6.3-0.3,12.4-1.3,8.6-6
		C84.9,57.1,28.5,52.2,28.5,52.2z"/>
	<polygon class="st6" points="74.2,54 41.9,46.2 28.4,48.7 78.7,61.1 	"/>
	<path class="st7" d="M89.6,62.6c1.7-1.7,1.8-5.1-1.9-7.2c-4.6-2.5-10.8-6.9-14.1-8.8c-3.3-1.9-5.9,0.2-6.7,1
		c-0.8,0.8-2.1,3.3,1.1,5.4c3.2,2.1,8.5,6.9,8.5,6.9l-43.9-10l0-0.1l-4.2-1l0.5,9.9l0,0.1l1.6,0.3l43.3,10.6c0,0-6.3,2.3-7.7,2.8
		c-1.4,0.5-0.7,4.5,3.2,3.6c3.9-0.9,16-5.1,18.7-6C90.5,69.2,92.2,64.9,89.6,62.6z M85.4,66.4c-6.7,1.1-12-0.4-15.2-1.2
		c-2.8-0.7-28.4-7.1-37.4-9.7l-0.1-2.2c13.9,3.7,41.8,10.3,45,10.8c3.8,0.6,7.9,0.4,10.6-0.7c0.2-0.1,0.5-0.2,0.7-0.4
		C89.4,64.1,89.3,65.7,85.4,66.4z"/>
	<g>
		<line class="st8" x1="26.1" y1="15.4" x2="46.6" y2="11.5"/>
		<line class="st8" x1="46.9" y1="91.1" x2="25" y2="96.3"/>
		<path class="st8" d="M80.1,61.5c0,0,0.1-3.3-2.6-5.9c-2.7-2.6-6.4-5.1-6.4-5.1"/>
	</g>
</g>
</svg>
