<?xml version="1.0" encoding="utf-8"?>
<!-- Generator: Adobe Illustrator 21.1.0, SVG Export Plug-In . SVG Version: 6.00 Build 0)  -->
<svg version="1.1" id="Layer_1" xmlns="http://www.w3.org/2000/svg" xmlns:xlink="http://www.w3.org/1999/xlink" x="0px" y="0px"
	 width="108px" height="108px" viewBox="0 0 108 108" style="enable-background:new 0 0 108 108;" xml:space="preserve">
<style type="text/css">
	.st0{fill:#B3B3B3;stroke:#000000;stroke-width:0.75;stroke-linecap:round;stroke-linejoin:round;stroke-miterlimit:10;}
	.st1{fill:#CCCCCC;stroke:#000000;stroke-width:0.75;stroke-linecap:round;stroke-linejoin:round;stroke-miterlimit:10;}
	.st2{fill:#E6E6E6;stroke:#000000;stroke-width:0.75;stroke-linecap:round;stroke-linejoin:round;stroke-miterlimit:10;}
	.st3{fill:#FFFFFF;stroke:#000000;stroke-width:0.75;stroke-linecap:round;stroke-linejoin:round;stroke-miterlimit:10;}
	.st4{fill:#CCCCCC;}
	.st5{fill:#FFFFFF;}
	.st6{fill:#F2F2F2;}
	.st7{fill:none;stroke:#000000;stroke-width:0.75;stroke-linecap:round;stroke-linejoin:round;stroke-miterlimit:10;}
	.st8{fill:#999999;stroke:#000000;stroke-width:0.75;stroke-linecap:round;stroke-linejoin:round;stroke-miterlimit:10;}
	.st9{fill:#F2F2F2;stroke:#000000;stroke-width:0.75;stroke-linecap:round;stroke-linejoin:round;stroke-miterlimit:10;}
	.st10{fill:none;stroke:#000000;stroke-width:0.5;stroke-linecap:round;stroke-linejoin:round;stroke-miterlimit:10;}
</style>
<g>
	<polygon class="st0" points="16.3,42.7 12.4,42.1 7.4,21.9 7.6,14.5 9,11.2 11.5,15.1 11.3,22.5 	"/>
	<polygon class="st1" points="16.3,42.7 15.9,70.1 12,69.5 12.4,42.1 	"/>
	<polygon class="st2" points="10,89.4 10.4,97.8 8.1,102.4 6.4,97.9 6,89.6 12,69.5 15.9,70.1 	"/>
	<polygon class="st3" points="39.1,9.3 39.1,10.4 38.8,17.9 34,38.9 33.4,66.9 37.3,82.6 36.9,89.2 36.3,90.5 36.3,90.5 34.9,93.6 
		8.1,102.4 10.4,97.8 10,89.4 15.9,70.1 16.3,42.7 11.3,22.5 11.5,15.1 9,11.2 36.7,6.2 	"/>
	<path class="st4" d="M8.1,102.4l30.8-8.2l2-4.5l0-0.5c-9.9,3.4-20.2,6-30.4,8.5L8.1,102.4z"/>
	<path class="st5" d="M20,48.9c6,0.5,11.8,2.5,17.6,4.3l0.3-13.6l4.3-21.6L42,9.5c-9.7,2.9-20.5,3.5-30.5,5.8l-0.3,7.2l5,20.2
		l-0.2,9.9C17.3,51.3,18.5,50,20,48.9z"/>
	<path class="st6" d="M20,48.9c-1.5,1.2-2.7,2.5-3.8,3.7l-0.3,17.5L10,89.4l0.4,8.4l0,0c10.1-2.6,20.5-5.1,30.4-8.5l0.4-6.1
		l-3.9-15.7l0.3-14.3C31.7,51.4,26,49.4,20,48.9z"/>
	<path class="st6" d="M42,9.3l-3.3-3.6L9,11.2l2.5,3.9l0,0.2c10-2.4,20.8-3,30.5-5.8L42,9.3z"/>
	<polygon class="st7" points="37.3,67.4 41.2,83.2 40.8,89.7 38.8,94.2 8.1,102.4 10.4,97.8 10,89.4 15.9,70.1 16.3,42.7 11.3,22.5 
		11.5,15.1 9,11.2 38.8,5.6 42,9.3 42.2,17.9 37.9,39.5 	"/>
	<path class="st8" d="M20.2,52.2c0,0,1.6,0.3,2.1,1.5c0.5,1.2,1.1,3,1.1,3s60.6,18.2,67.1,17.9c6.6-0.2,13-1.3,9.1-6.3
		C95.7,63.3,20.2,52.2,20.2,52.2z"/>
	<polygon class="st9" points="84.5,59.9 34.4,46 20.2,48.5 89.3,67.4 	"/>
	<path class="st2" d="M100.6,69c1.8-1.8,2-5.3-2-7.6c-4.8-2.7-11.3-7.3-14.8-9.4c-3.5-2.1-6.2,0.2-7,1c-0.8,0.8-2.2,3.5,1.1,5.7
		c3.3,2.2,8.9,7.3,8.9,7.3L24.5,49.7l0-0.1l-4.4-1L20.6,59l0,0.1l1.7,0.4l61.7,17c0,0-6.7,2.4-8.1,2.9c-1.4,0.5-0.8,4.8,3.3,3.8
		c4.1-1,16.9-5.3,19.8-6.2C101.6,76.1,103.4,71.5,100.6,69z M96.3,73c-7,1.1-12.6-0.5-15.9-1.3c-3-0.7-46.1-13.2-55.5-16l-0.1-2.3
		c14.6,4,60.1,16.6,63.5,17.1c4,0.6,8.3,0.5,11.2-0.6c0.3-0.1,0.5-0.2,0.7-0.4C100.5,70.7,100.4,72.4,96.3,73z"/>
	<g>
		<line class="st10" x1="13.8" y1="15" x2="40.1" y2="10.2"/>
		<path class="st10" d="M90.7,67.8c0,0,0.2-3.5-2.7-6.2c-2.9-2.7-6.7-5.4-6.7-5.4"/>
		<line class="st10" x1="12.8" y1="96.8" x2="37.6" y2="90.1"/>
	</g>
</g>
</svg>
