<?xml version="1.0" encoding="utf-8"?>
<!-- Generator: Adobe Illustrator 21.1.0, SVG Export Plug-In . SVG Version: 6.00 Build 0)  -->
<svg version="1.1" id="Layer_1" xmlns="http://www.w3.org/2000/svg" xmlns:xlink="http://www.w3.org/1999/xlink" x="0px" y="0px"
	 width="108px" height="108px" viewBox="0 0 108 108" style="enable-background:new 0 0 108 108;" xml:space="preserve">
<style type="text/css">
	.st0{clip-path:url(#SVGID_2_);}
	.st1{fill:none;stroke:#000000;stroke-width:0.75;stroke-linecap:round;stroke-linejoin:round;stroke-miterlimit:10;}
	.st2{fill:#FFFFFF;}
	.st3{fill:#F2F2F2;}
	.st4{fill:none;stroke:#000000;stroke-width:0.5;stroke-linecap:round;stroke-linejoin:round;stroke-miterlimit:10;}
	.st5{fill:none;stroke:#000000;stroke-width:0.5;stroke-linecap:round;stroke-linejoin:round;}
	.st6{fill:none;stroke:#000000;stroke-width:0.5;stroke-linecap:round;stroke-linejoin:round;stroke-dasharray:3.9846,3.9846;}
</style>
<g>
	<g>
		<defs>
			<rect id="SVGID_1_" x="9.5" y="75.9" width="88.6" height="27.4"/>
		</defs>
		<use xlink:href="#SVGID_1_"  style="overflow:visible;fill:#CCCCCC;"/>
		<clipPath id="SVGID_2_">
			<use xlink:href="#SVGID_1_"  style="overflow:visible;"/>
		</clipPath>
		<g class="st0">
			<line class="st1" x1="28.7" y1="53.2" x2="-29.3" y2="111.2"/>
			<line class="st1" x1="35.7" y1="53.2" x2="-22.3" y2="111.2"/>
			<line class="st1" x1="42.7" y1="53.2" x2="-15.3" y2="111.2"/>
			<line class="st1" x1="49.7" y1="53.2" x2="-8.3" y2="111.2"/>
			<line class="st1" x1="56.7" y1="53.2" x2="-1.3" y2="111.2"/>
			<line class="st1" x1="63.7" y1="53.2" x2="5.7" y2="111.2"/>
			<line class="st1" x1="70.7" y1="53.2" x2="12.7" y2="111.2"/>
			<line class="st1" x1="77.7" y1="53.2" x2="19.7" y2="111.2"/>
			<line class="st1" x1="84.7" y1="53.2" x2="26.7" y2="111.2"/>
			<line class="st1" x1="91.7" y1="53.2" x2="33.7" y2="111.2"/>
			<line class="st1" x1="98.7" y1="53.2" x2="40.7" y2="111.2"/>
			<line class="st1" x1="105.7" y1="53.2" x2="47.7" y2="111.2"/>
			<line class="st1" x1="112.7" y1="53.2" x2="54.7" y2="111.2"/>
			<line class="st1" x1="119.7" y1="53.2" x2="61.7" y2="111.2"/>
			<line class="st1" x1="126.7" y1="53.2" x2="68.7" y2="111.2"/>
			<line class="st1" x1="133.7" y1="53.2" x2="75.7" y2="111.2"/>
			<line class="st1" x1="140.7" y1="53.2" x2="82.7" y2="111.2"/>
			<line class="st1" x1="147.7" y1="53.2" x2="89.7" y2="111.2"/>
		</g>
		
			<use xlink:href="#SVGID_1_"  style="overflow:visible;fill:none;stroke:#000000;stroke-width:0.75;stroke-linecap:round;stroke-linejoin:round;stroke-miterlimit:10;"/>
	</g>
	<path class="st2" d="M94.1,4.8H13.6c-2.3,0-4.1,1.8-4.1,4.1v53.9c6.8-4.1,13.6-8.1,20.6-12c-0.9-1.1-1.4-2.5-1.4-3.9
		c0-3.5,2.8-6.3,6.3-6.3c2.8,0,5.2,1.8,6,4.3c0.7-0.4,1.3-0.7,2-1.1c1.4-0.7,2.8-1.5,4.2-2.2c0.2-0.1,0.5-0.2,0.7-0.3
		c1.6-0.8,3.2-1.6,4.8-2.4c1.8-0.9,3.7-1.8,5.6-2.7c0,0,0.1,0,0.1-0.1c1.7-0.8,3.5-1.7,5.2-2.5c0.1-0.1,0.3-0.1,0.5-0.2
		c1.6-0.8,3.3-1.5,5-2.3c0.1-0.1,0.3-0.1,0.4-0.2c1.8-0.8,3.6-1.6,5.4-2.4c0.1-0.1,0.3-0.1,0.4-0.2c1.5-0.7,3-1.3,4.5-2
		c0.8-0.3,1.5-0.6,2.3-1c1.4-0.6,2.8-1.1,4.1-1.7c0.3-0.1,0.6-0.2,0.9-0.4c1.5-0.6,3-1.2,4.6-1.8c0.7-0.3,1.4-0.5,2.1-0.8
		c1.5-0.6,2.9-1.1,4.4-1.7V8.8C98.1,6.6,96.3,4.8,94.1,4.8z M53.1,30.3c-4.4,0-8-3.6-8-8c0-4.4,3.6-8,8-8c4.5,0,8,3.6,8,8
		C61.2,26.8,57.6,30.3,53.1,30.3z"/>
	<path class="st3" d="M98.1,19c-1.5,0.5-2.9,1.1-4.4,1.7c-0.7,0.3-1.4,0.5-2.1,0.8c-1.5,0.6-3,1.2-4.6,1.8c-0.3,0.1-0.6,0.2-0.9,0.4
		c-1.4,0.6-2.8,1.1-4.1,1.7c-0.8,0.3-1.5,0.6-2.3,1c-1.5,0.6-3,1.3-4.5,2c-0.2,0.1-0.3,0.1-0.4,0.2c-1.8,0.8-3.6,1.6-5.4,2.4
		c-0.1,0.1-0.3,0.1-0.4,0.2c-1.7,0.8-3.3,1.5-5,2.3c-0.2,0.1-0.3,0.1-0.5,0.2c-1.8,0.8-3.5,1.6-5.2,2.5c0,0-0.1,0-0.1,0.1
		c-1.9,0.9-3.7,1.8-5.6,2.7c-1.6,0.8-3.2,1.6-4.8,2.4c-0.2,0.1-0.5,0.2-0.7,0.3c-1.4,0.7-2.8,1.5-4.2,2.2c-0.7,0.4-1.3,0.7-2,1.1
		c0.2,0.6,0.3,1.3,0.3,2c0,3.5-2.8,6.3-6.3,6.3c-0.2,0-0.3,0-0.5,0c-1.8-0.1-3.4-1-4.4-2.3c-6.9,3.8-13.8,7.8-20.6,12v13.2h88.6
		v-5.5L98.1,19z M73.8,40.7c3.5,0,6.3,2.8,6.3,6.3c0,3.5-2.8,6.3-6.3,6.3c-3.5,0-6.3-2.8-6.3-6.3C67.5,43.5,70.3,40.7,73.8,40.7z"/>
	<path class="st1" d="M98.1,19V8.8c0-2.2-1.8-4.1-4.1-4.1H13.6c-2.3,0-4.1,1.8-4.1,4.1v67h88.6v-5.5L98.1,19z M67.5,47
		c0-3.5,2.8-6.3,6.3-6.3c3.5,0,6.3,2.8,6.3,6.3c0,3.5-2.8,6.3-6.3,6.3C70.3,53.2,67.5,50.4,67.5,47z M53.1,14.3c4.5,0,8,3.6,8,8
		c0,4.5-3.6,8-8,8c-4.4,0-8-3.6-8-8C45.1,17.9,48.7,14.3,53.1,14.3z M28.7,46.8c0-3.5,2.8-6.3,6.3-6.3c2.8,0,5.2,1.8,6,4.3
		c0.2,0.6,0.3,1.3,0.3,2c0,3.5-2.8,6.3-6.3,6.3c-0.2,0-0.3,0-0.5,0c-1.8-0.1-3.4-1-4.4-2.3C29.2,49.6,28.7,48.3,28.7,46.8z"/>
	<g>
		<line class="st4" x1="10" y1="70.4" x2="98.5" y2="70.4"/>
		<path class="st4" d="M10,67.8h17.9c0,0,2.8,0.3,4.8-1.2c2-1.5,2-3.5,2-3.5l-0.2-10.1"/>
		<path class="st4" d="M97.8,68.1H79.9c0,0-2.8,0.3-4.8-1.2c-2-1.5-2-3.5-2-3.5l0.2-10.1"/>
		<g>
			<g>
				<line class="st5" x1="37.9" y1="67.5" x2="39.9" y2="67.5"/>
				<line class="st6" x1="43.9" y1="67.5" x2="65.8" y2="67.5"/>
				<line class="st5" x1="67.8" y1="67.5" x2="69.8" y2="67.5"/>
			</g>
		</g>
	</g>
</g>
</svg>
