<?xml version="1.0" encoding="utf-8"?>
<!-- Generator: Adobe Illustrator 21.1.0, SVG Export Plug-In . SVG Version: 6.00 Build 0)  -->
<svg version="1.1" id="Layer_1" xmlns="http://www.w3.org/2000/svg" xmlns:xlink="http://www.w3.org/1999/xlink" x="0px" y="0px"
	 width="108px" height="108px" viewBox="0 0 108 108" style="enable-background:new 0 0 108 108;" xml:space="preserve">
<style type="text/css">
	.st0{fill:#999999;stroke:#000000;stroke-width:0.75;stroke-linecap:round;stroke-linejoin:round;stroke-miterlimit:10;}
	.st1{fill:#B3B3B3;stroke:#000000;stroke-width:0.75;stroke-linecap:round;stroke-linejoin:round;stroke-miterlimit:10;}
	.st2{fill:#808080;stroke:#000000;stroke-width:0.75;stroke-linecap:round;stroke-linejoin:round;stroke-miterlimit:10;}
	.st3{fill:#E6E6E6;stroke:#000000;stroke-width:0.75;stroke-linecap:round;stroke-linejoin:round;stroke-miterlimit:10;}
	.st4{fill:#E6E6E6;}
	.st5{fill:#CCCCCC;}
	.st6{fill:none;stroke:#000000;stroke-width:0.75;stroke-linecap:round;stroke-linejoin:round;stroke-miterlimit:10;}
	.st7{fill:#FFFFFF;stroke:#000000;stroke-width:0.75;stroke-linecap:round;stroke-linejoin:round;stroke-miterlimit:10;}
	.st8{fill:#F2F2F2;stroke:#000000;stroke-width:0.75;stroke-linecap:round;stroke-linejoin:round;stroke-miterlimit:10;}
</style>
<g>
	<path class="st0" d="M47.5,51.1c0,1-0.2,1.9-0.5,2.7L38,57c-3-1.7-5.2-5.2-5.2-8.9c0-4.5,3.3-7.5,7.4-6.6
		C44.2,42.3,47.5,46.6,47.5,51.1z"/>
	<path class="st1" d="M47.1,53.8c-0.8,2.3-2.7,3.9-5,4.1v5.3l-3.7,1.5H38V57L47.1,53.8z"/>
	<path class="st0" d="M33.6,83C33.6,83,33.7,83,33.6,83c-2.1-2.5-3.5-5.7-3.5-9.1c0-5.2,3.4-8.9,7.8-8.9v-0.3h0.3l3.7-1.5v2.7
		c3.9,1.8,6.9,6,7.5,10.6L33.6,83z"/>
	<path class="st2" d="M49.6,77.9c0,1-0.1,1.9-0.3,2.7c-6.8,4.5-18.4,8.3-25,10.1c2.9-1.2,6.6-3.5,9.4-7.8v0l15.9-6.5
		C49.6,77,49.6,77.4,49.6,77.9z"/>
	<polygon class="st3" points="92.5,17.7 92.5,40.9 92.3,46.5 64.1,57.1 64.1,27.7 92.2,17.7 	"/>
	<path class="st4" d="M60,100.5c0,0,28-11.5,27.4-12.9c-1.3-3.1-3.5-8.9-3.8-13.6c-9.5,3-18.9,6.3-28.4,9.8
		C55.3,90.7,60,100.5,60,100.5z"/>
	<path class="st5" d="M92.3,46.6l0-0.2L64.1,57.1v0.2l-0.3-0.1c0,0-8.7,19.5-8.7,26.4c0,0.1,0,0.2,0,0.3c9.5-3.4,18.9-6.8,28.4-9.8
		c0-0.4,0-0.7,0-1.1C83.6,66.1,92.3,46.6,92.3,46.6z"/>
	<path class="st6" d="M92.3,46.6c0,0-8.7,19.5-8.7,26.4c0,4.9,2.4,11.3,3.8,14.7C88,89,60,100.5,60,100.5s-4.8-10-4.8-16.9
		c0-6.9,8.7-26.4,8.7-26.4l0.3,0.1v-0.2l28.1-10.7L92.3,46.6z"/>
	<polygon class="st7" points="64.1,57.1 64.1,57.3 63.9,57.2 	"/>
	<polygon class="st7" points="92.5,17.1 92.5,17.7 92.2,17.7 64.1,27.7 15.5,17.7 45.8,7.5 	"/>
	<line class="st6" x1="33.6" y1="83" x2="33.4" y2="83.1"/>
	<g>
		<path class="st8" d="M64.1,27.7v29.4l-0.3,0.1c0,0-8.7,19.5-8.7,26.4c0,6.9,4.8,16.9,4.8,16.9s-8.6-4.3-13.9-15.1
			c1.5-1.1,2.6-2.7,3.1-4.8c0.2-0.8,0.3-1.7,0.3-2.7c0-0.5,0-1-0.1-1.4C49,71.9,46,67.7,42,65.9v-8c2.3-0.2,4.2-1.7,5-4.1
			c0.3-0.8,0.5-1.7,0.5-2.7c0-4.5-3.3-8.9-7.4-9.7c-4.1-0.8-7.4,2.1-7.4,6.6c0,3.7,2.2,7.2,5.2,8.9v8c-4.5,0.1-7.8,3.7-7.8,8.9
			c0,3.3,1.4,6.6,3.5,9c0,0,0,0-0.1,0.1v0c-2.8,4.3-6.5,6.6-9.4,7.8c-3,0.9-4.9,1.3-4.9,1.3s4.8-8.1,4.8-14.9
			c0-6.9-8.7-29.9-8.7-29.9V17.7L64.1,27.7z"/>
		<path class="st7" d="M19.4,92.1c0,0,1.9-0.5,4.9-1.3C21.5,91.9,19.4,92.1,19.4,92.1z"/>
		<polygon class="st7" points="64.1,57.1 64.1,57.3 63.9,57.2 		"/>
	</g>
</g>
</svg>
