<?xml version="1.0" encoding="utf-8"?>
<!-- Generator: Adobe Illustrator 21.1.0, SVG Export Plug-In . SVG Version: 6.00 Build 0)  -->
<svg version="1.1" id="Layer_1" xmlns="http://www.w3.org/2000/svg" xmlns:xlink="http://www.w3.org/1999/xlink" x="0px" y="0px"
	 width="108px" height="108px" viewBox="0 0 108 108" style="enable-background:new 0 0 108 108;" xml:space="preserve">
<style type="text/css">
	.st0{fill:#CCCCCC;}
	.st1{fill:#FFFFFF;}
	.st2{fill:#F2F2F2;}
</style>
<g>
	<g>
		<g>
			<path class="st0" d="M45.8,90.1c-3.3,0-6.1-0.8-8.3-2.4c-0.2-0.2-1.5-1-2.9-2.1c-2.1-1.5-4.7-3.4-5-3.6
				c-13.4-10.3-15.6-31.1-5-47.3C31.9,23.5,43.9,16.5,56,16.5c4.8,0,9.3,1.1,13.4,3.2c0.8,0.4,5.3,3.2,6.2,3.8
				c7,4.5,10.6,11.5,10.6,20.3c0,8-3.2,17.2-9,26C69.4,81.7,56.5,90.1,45.8,90.1C45.8,90.1,45.8,90.1,45.8,90.1z M52.9,56.7
				c-4,0-7.9,2.3-10.3,6c-3.7,5.7-2.6,12.9,2.3,16.1c1.6,1,3.3,1.5,5.2,1.5c3.8,0,7.6-2.2,10-6c1.8-2.8,2.6-5.9,2.3-8.9
				c-0.3-3.1-1.8-5.6-4.2-7.2C56.6,57.2,54.8,56.7,52.9,56.7z M43.7,39.6c-1.9,0-3.8,1.1-4.9,2.8c-0.8,1.3-1.2,2.8-1,4.3
				c0.2,1.5,1,2.7,2.1,3.4c0.8,0.5,1.6,0.7,2.5,0.7c1.8,0,3.6-1.1,4.8-2.8c0.9-1.3,1.3-2.8,1.1-4.2c-0.1-1.5-0.9-2.7-2-3.5
				C45.5,39.9,44.6,39.6,43.7,39.6z M65.7,32.6c-2.8,0-5.6,1.6-7.3,4.2c-2.6,4-1.9,9.1,1.6,11.4c1.1,0.7,2.4,1.1,3.7,1.1
				c2.7,0,5.4-1.6,7.1-4.2C73.5,41,73,36,69.5,33.7C68.4,33,67.1,32.6,65.7,32.6z"/>
			<path d="M56,16.9c4.7,0,9.2,1.1,13.2,3.1c0.8,0.4,5.3,3.2,6.1,3.7c6.9,4.5,10.5,11.4,10.4,20c0,7.9-3.2,17.1-8.9,25.8
				c-7.7,11.9-20.5,20.1-31,20.1c-3.2,0-5.9-0.8-8-2.3c-0.2-0.2-1.5-1.1-2.9-2.1c-2.1-1.5-4.7-3.4-5-3.6
				C16.7,71.5,14.5,50.9,25,34.8C32.2,23.8,44.1,16.9,56,16.9 M63.7,49.7c2.8,0,5.6-1.6,7.4-4.4c2.8-4.3,2.2-9.6-1.4-11.9
				c-1.2-0.8-2.5-1.2-4-1.2c-3,0-5.9,1.7-7.7,4.4c-2.7,4.2-1.9,9.5,1.7,11.9C61,49.3,62.4,49.7,63.7,49.7 M42.4,51.3
				c2,0,3.9-1.1,5.1-3c0.9-1.4,1.3-3,1.2-4.5c-0.2-1.6-0.9-2.9-2.2-3.7c-0.8-0.5-1.8-0.8-2.8-0.8c-2,0-4,1.2-5.3,3
				c-0.9,1.4-1.3,3-1.1,4.5c0.2,1.6,1,2.9,2.3,3.7C40.5,51,41.4,51.3,42.4,51.3 M50,80.7c3.9,0,7.8-2.3,10.3-6.1
				c1.8-2.8,2.7-6.1,2.4-9.2c-0.3-3.2-1.9-5.8-4.3-7.4c-1.6-1.1-3.5-1.6-5.5-1.6c-4.1,0-8.2,2.3-10.7,6.1
				c-3.8,5.8-2.7,13.3,2.4,16.6C46.2,80.1,48.1,80.7,50,80.7 M56,16.2c-11.8,0-24,6.6-31.6,18.3C13.6,51,15.9,71.9,29.4,82.3
				c0.6,0.4,7.3,5.3,7.9,5.7c2.3,1.7,5.2,2.5,8.5,2.5c10,0,23.2-7.5,31.7-20.5c11.3-17.3,13.3-37-1.7-46.8c-0.8-0.5-5.4-3.3-6.2-3.8
				C65.3,17.2,60.7,16.2,56,16.2L56,16.2z M63.7,49c-1.2,0-2.4-0.3-3.5-1c-3.3-2.2-4-7.1-1.5-10.9c1.7-2.6,4.4-4.1,7-4.1
				c1.3,0,2.5,0.3,3.6,1c3.3,2.2,3.7,7.1,1.2,10.9C68.8,47.5,66.3,49,63.7,49L63.7,49z M42.4,50.6c-0.8,0-1.6-0.2-2.3-0.7
				c-2.2-1.4-2.7-4.7-1-7.2C40.2,41,42,40,43.7,40c0.8,0,1.6,0.2,2.4,0.7c2.2,1.4,2.4,4.7,0.8,7.2C45.7,49.6,44,50.6,42.4,50.6
				L42.4,50.6z M50,79.9c-1.7,0-3.4-0.5-5-1.5c-4.8-3.1-5.8-10.1-2.2-15.6c2.4-3.7,6.3-5.8,10-5.8c1.8,0,3.5,0.5,5.1,1.5
				c4.8,3.1,5.3,10.1,1.7,15.6C57.3,77.8,53.6,79.9,50,79.9L50,79.9z"/>
		</g>
	</g>
	<g>
		<g>
			<g>
				<path class="st1" d="M84.2,30.5c-0.2-0.3-0.5-0.6-0.7-0.9c-0.1-0.1-0.2-0.2-0.3-0.3c-0.5-0.6-1-1.1-1.5-1.6
					c-0.3-0.2-0.5-0.5-0.8-0.7c-0.7-0.6-1.4-1.2-2.2-1.8c-0.4-0.3-0.7-0.5-1.1-0.7C62.6,14.6,41.2,20.7,30,38s-8.2,39.3,6.9,49.1
					c0.3,0.2,0.7,0.4,1,0.6c0.8,0.5,1.5,0.9,2.3,1.3c0.3,0.1,0.5,0.3,0.8,0.4c0,0,0,0,0.1,0c6-0.3,12.1-1.5,18-3.3
					C79.9,78.8,84.3,52.7,85,31.5C84.8,31.2,84.5,30.8,84.2,30.5z M43,45.1c1.6-2.5,4.8-3.4,7-2c2.2,1.4,2.5,4.7,0.8,7.2
					c-1.6,2.5-4.6,3.4-6.8,2C41.8,50.8,41.3,47.6,43,45.1z M63.6,76.5C60,82,53.7,84,49,80.8c-4.8-3.1-5.8-10.1-2.2-15.6
					c3.6-5.5,10.3-7.4,15.1-4.3C66.7,64.1,67.2,71.1,63.6,76.5z M74.4,47.3c-2.5,3.8-6.9,5.2-10.3,3c-3.3-2.2-4-7.1-1.5-10.9
					c2.5-3.9,7.2-5.2,10.6-3C76.6,38.6,76.9,43.5,74.4,47.3z"/>
			</g>
			<g>
				<path class="st2" d="M85,31.5c-0.6,21.2-5.1,47.3-25.9,54.6c-5.9,1.9-12,3-18,3.3c14.4,6.3,31.8-0.1,42-15.9
					C92.1,59.7,92.9,42.7,85,31.5z"/>
			</g>
		</g>
		<g>
			<path d="M61.6,20.5c5.7,0,11.1,1.6,15.7,4.6c0.3,0.2,0.7,0.5,1.1,0.7c0.7,0.5,1.4,1.1,2.2,1.7c0.3,0.2,0.5,0.5,0.7,0.7
				c0.5,0.4,0.9,0.9,1.5,1.6c0.1,0.1,0.1,0.2,0.2,0.3l0,0l0.1,0.1c0.2,0.3,0.4,0.5,0.6,0.8c0.3,0.3,0.5,0.6,0.7,1
				c0.2,0.2,0.3,0.5,0.5,0.8l0,0.5h0.3c0.4,0.6,0.7,1.1,0.9,1.6c0.2,0.3,0.4,0.7,0.5,1c0.2,0.4,0.3,0.7,0.5,1.1
				c0.1,0.3,0.2,0.6,0.3,0.9l0.1,0.2c0.1,0.4,0.3,0.7,0.4,1.1c0.1,0.4,0.2,0.7,0.4,1.1c0.2,0.6,0.4,1.3,0.6,2.1l0,0.2
				c0.1,0.3,0.1,0.7,0.2,1c0,0,0,0.1,0,0.1c0,0.1,0,0.1,0,0.2c0.1,0.4,0.1,0.7,0.2,1.1c0.1,0.4,0.1,0.8,0.1,1.2c0,0.3,0.1,0.6,0.1,1
				v0l0,0c0,0.2,0,0.4,0,0.6c0,0.3,0,0.6,0,0.9c0,0.4,0,0.8,0,1.2c0,0.5,0,0.9,0,1.4l0,0v0c0,0.4,0,0.9-0.1,1.3l0,0.4
				c0,0.3,0,0.5-0.1,0.8l0,0c0,0.1,0,0.1,0,0.2c0,0.2,0,0.3-0.1,0.4l0,0l0,0c0,0.3-0.1,0.6-0.1,0.9c0,0.1,0,0.2,0,0.3
				c0,0.1,0,0.2,0,0.3l0,0.1c-0.1,0.3-0.1,0.6-0.2,0.9l0,0l0,0c0,0,0,0.1,0,0.1l0,0l0,0c-0.1,0.5-0.2,1-0.3,1.4
				c-0.1,0.5-0.2,1-0.4,1.5c-0.3,1.1-0.6,2-0.9,3c-0.2,0.5-0.4,1-0.6,1.5c-0.2,0.5-0.4,0.9-0.5,1.3l0,0.1l0,0
				c-0.2,0.4-0.4,0.8-0.5,1.2l-0.1,0.2l-0.1,0.3c-0.2,0.4-0.3,0.7-0.5,1.1c-0.3,0.5-0.6,1.1-0.9,1.7c-0.2,0.3-0.4,0.7-0.6,1
				c-0.2,0.3-0.3,0.5-0.5,0.8l-0.6,0.9c-0.5,0.7-1,1.4-1.4,2.1c-0.3,0.5-0.7,0.9-1.1,1.4c-0.4,0.5-0.7,0.9-1.1,1.3
				c-0.5,0.5-0.9,1.1-1.4,1.6c-0.3,0.3-0.6,0.6-0.9,0.9c-0.2,0.2-0.4,0.4-0.7,0.7c-0.1,0.1-0.2,0.2-0.3,0.3l-0.2,0.2
				c-0.2,0.2-0.5,0.5-0.8,0.7c-0.7,0.6-1.3,1.1-1.9,1.6c-0.3,0.2-0.6,0.4-0.8,0.6c-0.3,0.3-0.7,0.5-1,0.7c-0.8,0.6-1.7,1.1-2.6,1.6
				L67.9,87c-0.3,0.2-0.7,0.4-1,0.5c-0.6,0.3-1.2,0.6-1.8,0.9c0,0-0.1,0-0.1,0l0,0l0,0c-0.3,0.1-0.6,0.3-1,0.4
				c-0.2,0.1-0.5,0.2-0.7,0.3l-0.3,0.1l-0.3,0.1c-0.2,0.1-0.5,0.2-0.7,0.2l-0.1,0c-0.3,0.1-0.7,0.2-1,0.3c-0.3,0.1-0.6,0.2-0.9,0.2
				c-0.2,0.1-0.4,0.1-0.7,0.2c-0.2,0.1-0.5,0.1-0.7,0.2c-0.3,0.1-0.6,0.1-0.9,0.2l-0.1,0c-0.3,0.1-0.6,0.1-0.9,0.1
				c-1.3,0.2-2.7,0.3-4.1,0.3c-0.4,0-0.8,0-1.2,0c0,0-0.1,0-0.1,0l0,0l-0.1,0H51L51,91c0,0-0.1,0-0.1,0c0,0,0,0,0,0
				c-0.4,0-0.7,0-1.1-0.1c-0.4,0-0.8-0.1-1.3-0.2c0,0,0,0-0.1,0l0,0l-0.1,0l0,0l0,0l-0.1,0l-0.1,0l-0.1,0l-0.1,0
				c-0.3,0-0.6-0.1-0.9-0.2l-0.1,0l-0.1,0c-0.5-0.1-0.9-0.2-1.4-0.3c-0.4-0.1-0.7-0.2-1.1-0.3l0,0l0,0c-0.1,0-0.3-0.1-0.4-0.1
				c-0.3-0.1-0.6-0.2-0.9-0.3l-0.1,0l-0.1,0c-0.1-0.1-0.3-0.1-0.5-0.2c-0.3-0.1-0.6-0.2-0.9-0.3l0,0l-0.1,0l0,0c0,0,0,0,0,0
				l-0.2-0.1c-0.2-0.1-0.4-0.2-0.6-0.3c-0.7-0.3-1.5-0.7-2.3-1.2c-0.3-0.2-0.6-0.4-1-0.6c-14.7-9.6-17.7-31.1-6.7-48.1
				C37.8,27.4,49.7,20.5,61.6,20.5 M67.7,52.1c2.8,0,5.6-1.6,7.4-4.4c2.8-4.3,2.2-9.6-1.4-11.9c-1.2-0.8-2.5-1.2-4-1.2
				c-3,0-5.9,1.7-7.6,4.4c-1.3,2-1.9,4.3-1.5,6.6c0.3,2.3,1.5,4.2,3.3,5.4C64.9,51.7,66.3,52.1,67.7,52.1 M46.3,53.7
				c2,0,3.9-1.1,5.1-3c0.9-1.4,1.3-3,1.2-4.5c-0.2-1.6-0.9-2.9-2.2-3.7c-0.8-0.5-1.8-0.8-2.8-0.8c-2,0-4,1.2-5.3,3
				c-0.9,1.4-1.3,3-1.1,4.5c0.2,1.6,1,2.9,2.3,3.7C44.4,53.4,45.3,53.7,46.3,53.7 M54,83.1c3.9,0,7.8-2.3,10.3-6.1
				c3.9-6,3.1-13.3-1.9-16.6c-1.6-1.1-3.5-1.6-5.5-1.6c-4.1,0-8.2,2.3-10.7,6.1c-3.8,5.8-2.7,13.3,2.4,16.6
				C50.2,82.5,52,83.1,54,83.1 M61.6,19.8c-11.8,0-24,6.6-31.6,18.3c-11.3,17.3-8.2,39.3,6.9,49.1c0.3,0.2,0.7,0.4,1,0.6
				c0.8,0.5,1.5,0.9,2.3,1.3c0.3,0.1,0.5,0.3,0.8,0.4c0,0,0,0,0.1,0c0,0,0.1,0,0.1,0c0.3,0.1,0.6,0.3,0.9,0.4
				c0.2,0.1,0.3,0.1,0.5,0.2c0,0,0.1,0,0.2,0.1c0.3,0.1,0.7,0.2,1,0.3c0.2,0.1,0.3,0.1,0.5,0.2c0.4,0.1,0.8,0.2,1.1,0.3
				c0.5,0.1,0.9,0.2,1.4,0.3c0.1,0,0.1,0,0.2,0c0.3,0.1,0.7,0.1,1,0.2c0.1,0,0.1,0,0.2,0c0.1,0,0.1,0,0.2,0c0,0,0,0,0,0
				c0,0,0.1,0,0.1,0c0.4,0.1,0.9,0.1,1.3,0.2c0.4,0,0.8,0.1,1.2,0.1c0.1,0,0.1,0,0.2,0c0.1,0,0.1,0,0.2,0c0,0,0.1,0,0.2,0
				c0.4,0,0.8,0,1.2,0c1.4,0,2.8-0.1,4.3-0.3c0.3,0,0.7-0.1,1-0.2c0.3,0,0.6-0.1,0.9-0.2c0.2,0,0.5-0.1,0.7-0.2
				c0.2,0,0.5-0.1,0.7-0.2c0.3-0.1,0.6-0.2,0.9-0.3c0.4-0.1,0.7-0.2,1.1-0.3c0.3-0.1,0.6-0.2,0.8-0.3c0.2-0.1,0.3-0.1,0.5-0.2
				c0.3-0.1,0.5-0.2,0.7-0.3c0.3-0.1,0.7-0.3,1-0.4c0.1,0,0.1,0,0.2-0.1c0.6-0.3,1.2-0.6,1.8-0.9c0.4-0.2,0.8-0.4,1.3-0.7
				c0.9-0.5,1.8-1.1,2.7-1.7c0.4-0.2,0.7-0.5,1.1-0.8c0.3-0.2,0.6-0.4,0.8-0.6c0.7-0.5,1.3-1,1.9-1.6c0.3-0.2,0.5-0.5,0.8-0.7
				c0.2-0.2,0.3-0.3,0.5-0.5c0.2-0.2,0.5-0.4,0.7-0.7c0.3-0.3,0.6-0.6,0.9-1c0.5-0.5,1-1,1.4-1.6c0.4-0.5,0.8-0.9,1.1-1.4
				c0.4-0.5,0.7-0.9,1.1-1.4c0.5-0.7,1-1.4,1.5-2.1c0.2-0.3,0.4-0.6,0.6-0.9c0.2-0.3,0.3-0.5,0.5-0.8c0.2-0.3,0.4-0.7,0.6-1
				c0.3-0.6,0.6-1.2,0.9-1.7c0.2-0.4,0.3-0.7,0.5-1.1c0.1-0.2,0.2-0.3,0.2-0.5c0.2-0.4,0.4-0.8,0.5-1.2c0,0,0,0,0-0.1
				c0.2-0.5,0.4-0.9,0.5-1.4c0.2-0.5,0.4-1,0.6-1.5c0.3-1,0.6-2,0.9-3c0.1-0.5,0.3-1,0.4-1.5c0.1-0.5,0.2-1,0.3-1.5
				c0-0.1,0-0.1,0-0.2c0.1-0.4,0.1-0.7,0.2-1.1c0-0.2,0.1-0.3,0.1-0.5c0-0.3,0.1-0.6,0.1-0.9c0-0.2,0-0.3,0.1-0.5c0,0,0-0.1,0-0.1
				c0-0.3,0.1-0.6,0.1-0.9c0-0.1,0-0.2,0-0.4c0-0.5,0.1-0.9,0.1-1.3v0c0-0.5,0-1,0-1.4v0c0-0.4,0-0.8,0-1.2c0-0.3,0-0.6,0-0.9
				c0-0.2,0-0.4,0-0.6v0c0-0.3,0-0.7-0.1-1c0-0.4-0.1-0.8-0.1-1.2c0-0.4-0.1-0.7-0.2-1.1c0-0.1,0-0.2-0.1-0.3
				c-0.1-0.3-0.1-0.7-0.2-1l0-0.1c-0.2-0.8-0.3-1.5-0.6-2.2c-0.1-0.4-0.2-0.8-0.4-1.2c-0.1-0.4-0.3-0.8-0.4-1.1
				c-0.1-0.4-0.3-0.8-0.4-1.1c-0.2-0.4-0.3-0.7-0.5-1.1c-0.2-0.4-0.3-0.7-0.5-1.1c-0.4-0.7-0.8-1.4-1.2-2c0,0,0,0,0,0c0,0,0,0,0-0.1
				c-0.2-0.3-0.4-0.6-0.6-0.9c-0.2-0.3-0.5-0.7-0.8-1c-0.2-0.3-0.5-0.6-0.7-0.9c-0.1-0.1-0.2-0.2-0.3-0.3c-0.5-0.6-1-1.1-1.5-1.6
				c-0.3-0.2-0.5-0.5-0.8-0.7c-0.7-0.6-1.4-1.2-2.2-1.8c-0.4-0.3-0.7-0.5-1.1-0.7C72.8,21.3,67.2,19.8,61.6,19.8L61.6,19.8z
				 M67.7,51.4c-1.2,0-2.4-0.3-3.5-1c-3.3-2.2-4-7.1-1.5-10.9c1.7-2.6,4.4-4.1,7-4.1c1.3,0,2.5,0.3,3.6,1c3.4,2.2,3.7,7.1,1.2,10.9
				C72.8,49.9,70.2,51.4,67.7,51.4L67.7,51.4z M46.3,53c-0.8,0-1.6-0.2-2.3-0.7c-2.2-1.4-2.7-4.7-1-7.2c1.1-1.7,2.9-2.7,4.6-2.7
				c0.8,0,1.6,0.2,2.4,0.7c2.2,1.4,2.5,4.7,0.8,7.2C49.6,52,48,53,46.3,53L46.3,53z M54,82.3c-1.7,0-3.4-0.5-5-1.5
				c-4.8-3.1-5.8-10.1-2.2-15.6c2.4-3.7,6.3-5.8,10-5.8c1.8,0,3.5,0.5,5.1,1.5c4.8,3.1,5.3,10.1,1.7,15.6
				C61.2,80.3,57.5,82.3,54,82.3L54,82.3z"/>
		</g>
	</g>
</g>
</svg>
