<?xml version="1.0" encoding="utf-8"?>
<!-- Generator: Adobe Illustrator 21.1.0, SVG Export Plug-In . SVG Version: 6.00 Build 0)  -->
<svg version="1.1" id="Layer_1" xmlns="http://www.w3.org/2000/svg" xmlns:xlink="http://www.w3.org/1999/xlink" x="0px" y="0px"
	 width="108px" height="108px" viewBox="0 0 108 108" style="enable-background:new 0 0 108 108;" xml:space="preserve">
<style type="text/css">
	.st0{fill:#CCCCCC;}
	.st1{fill:#FFFFFF;}
	.st2{fill:#F2F2F2;}
	.st3{fill:none;stroke:#000000;stroke-width:0.5;stroke-linecap:round;stroke-linejoin:round;stroke-miterlimit:10;}
</style>
<g>
	<g>
		<g>
			<g>
				<path class="st0" d="M55.4,90.9c-0.6,0-1.1,0-1.7,0l-0.5,0c-2.6-0.1-5.4-0.3-8-1c-6.2-1.7-12-5.8-16.1-11.8
					c-8.7-12.5-9.7-30.9-2.4-44.8c3.4-6.5,8.6-11.5,14.5-14c2.9-1.3,5.9-2,8.7-2.1c0.4,0,0.9,0,1.3,0c1,0,1.9,0,2.9,0c1,0,2,0,2.9,0
					c1.4,0,2.8,0.2,4.2,0.6c5.7,1.5,11,5.8,14.9,12.3c4.2,6.8,6.3,15.1,6.3,23.9c-0.1,14.6-6.4,31.4-20.3,36
					C60,90.5,57.8,90.9,55.4,90.9L55.4,90.9z M53.9,46.2c-4.1,0-5.9,3.5-5.9,6.8c0,3.3,1.9,6.8,5.9,6.8c1.8,0,3.4-0.7,4.5-2.2
					c0.9-1.2,1.5-2.9,1.5-4.7C59.8,49.7,57.9,46.2,53.9,46.2z"/>
			</g>
			<g>
				<path d="M51.1,17.5c1,0,1.9,0,2.9,0c1,0,2,0,2.9,0c1.4,0,2.8,0.2,4.1,0.5c7.5,2,12.4,8.4,14.7,12.1c4.1,6.7,6.3,14.9,6.2,23.7
					C82,68.3,75.7,84.9,61.9,89.5c-2,0.7-4.2,1-6.6,1c-0.5,0-1.1,0-1.7,0l-0.5,0c-2.6-0.1-5.4-0.3-7.9-1
					c-6.2-1.6-11.8-5.8-15.9-11.7c-8.6-12.4-9.6-30.7-2.4-44.4c3.4-6.4,8.5-11.3,14.3-13.9c2.9-1.3,5.8-2,8.5-2
					C50.3,17.5,50.7,17.5,51.1,17.5 M53.9,60.2c2.2,0,4.1-1.1,5.2-3c1.4-2.5,1.4-5.9,0-8.4c-1.1-2-3-3-5.2-3c-4.1,0-6.3,3.6-6.3,7.2
					C47.6,56.6,49.7,60.2,53.9,60.2 M51.1,16.7c-0.4,0-0.9,0-1.3,0c-3,0.1-6.1,0.9-8.8,2.1c-6.4,2.8-11.4,8.1-14.6,14.2
					c-7.3,13.8-6.5,32.3,2.4,45.2c3.9,5.7,9.6,10.2,16.3,12c2.8,0.7,5.7,0.9,8.5,1c0.6,0,1.2,0.1,1.7,0.1c2.3,0,4.6-0.3,6.8-1
					c14.6-4.8,20.5-22.4,20.6-36.3c0-8.4-2-16.9-6.4-24c-3.4-5.6-8.6-10.7-15.1-12.4c-1.4-0.4-2.9-0.6-4.3-0.6
					C55,16.8,53.1,16.7,51.1,16.7L51.1,16.7z M53.9,59.5c-7.4,0-7.4-12.9,0-12.9C61.3,46.5,61.3,59.5,53.9,59.5L53.9,59.5z"/>
			</g>
		</g>
	</g>
	<g>
		<g>
			<path class="st1" d="M84.8,41.7c-3.9-13.2-15-25.3-29.7-24.7c-11.7,0.5-21.1,9.2-25.7,19.5c-5.4,12.3-4.8,27.5,2.1,39.2
				c1.7,3,3.9,5.7,6.4,8c1.2,1.1,2.5,2.1,3.8,3c0.6,0.4,1.2,0.9,1.8,1.1c1,0.4,2.4,0,3.5-0.1c6.8-1,13.1-4.2,18.6-8.3
				c5.8-4.4,10.8-9.9,14.3-16.3c1.8-3.2,3.2-6.6,4.1-10.2C84.9,49.5,85.8,45.2,84.8,41.7z M57.9,60.3c-7.4,0-7.4-12.9,0-12.9
				C65.3,47.4,65.3,60.3,57.9,60.3z"/>
		</g>
		<g>
			<path class="st2" d="M85.2,43.2c0.2,16.9-11.3,32.3-25.7,40.2c-4.9,2.7-10,4.3-15.6,4.7c8.9,4.9,19.7,3.9,27.8-2
				c7.5-5.5,12.2-14.1,14-23.1C86.9,56.4,86.8,49.6,85.2,43.2z"/>
		</g>
		<g>
			<path d="M56.3,17.8c2,0,4.1,0.3,6.1,0.8C77,22.4,85.7,38.8,85.7,52.4c0.1,1.7,0,3.5-0.1,5.5c-1.2,13.8-8.8,25.8-19.5,30.5
				c-3.1,1.4-6.6,2.1-10,2.1c-3.3,0-6.5-0.6-9.5-1.9c-6-2.5-11.3-7.5-14.9-13.9c-6.9-12.4-7-28.5,0-41
				C37.1,23.8,46.5,17.8,56.3,17.8 M57.9,61c4.1,0,6.3-3.6,6.3-7.2c0-1.9-0.5-3.6-1.5-4.9c-1.2-1.5-2.8-2.3-4.8-2.3
				c-4.1,0-6.3,3.6-6.3,7.2c0,1.9,0.5,3.6,1.5,4.9C54.3,60.2,55.9,61,57.9,61 M56.3,17C45.7,17,36.2,23.9,31,33.3
				c-7,12.6-7,29.1,0,41.7c3.5,6.2,8.7,11.5,15.3,14.3c3.1,1.3,6.5,2,9.8,2c3.5,0,7-0.7,10.3-2.2C78.5,83.8,85.3,70.6,86.3,58
				c0.2-1.9,0.2-3.7,0.1-5.6c0-14.6-9.3-30.7-23.9-34.5C60.4,17.3,58.3,17,56.3,17L56.3,17z M57.9,60.3c-7.4,0-7.4-12.9,0-12.9
				C65.3,47.4,65.3,60.3,57.9,60.3L57.9,60.3z"/>
		</g>
	</g>
	<g>
		<line class="st3" x1="57.8" y1="46.8" x2="56.6" y2="35.9"/>
		<path class="st3" d="M63.8,52.6c0,0,8.8-0.2,9.5-0.1"/>
		<path class="st3" d="M57.3,60.7c0,0-0.5,8.6-0.5,9"/>
		<line class="st3" x1="52" y1="53.8" x2="41.1" y2="52.9"/>
	</g>
</g>
</svg>
