<?xml version="1.0" encoding="utf-8"?>
<!-- Generator: Adobe Illustrator 21.1.0, SVG Export Plug-In . SVG Version: 6.00 Build 0)  -->
<svg version="1.1" id="Layer_1" xmlns="http://www.w3.org/2000/svg" xmlns:xlink="http://www.w3.org/1999/xlink" x="0px" y="0px"
	 width="108px" height="108px" viewBox="0 0 108 108" style="enable-background:new 0 0 108 108;" xml:space="preserve">
<style type="text/css">
	.st0{fill:#FFFFFF;stroke:#000000;stroke-width:0.75;stroke-linecap:round;stroke-linejoin:round;stroke-miterlimit:10;}
	.st1{fill:#F2F2F2;stroke:#000000;stroke-width:0.75;stroke-linecap:round;stroke-linejoin:round;stroke-miterlimit:10;}
	.st2{fill:#B3B3B3;stroke:#000000;stroke-width:0.75;stroke-linecap:round;stroke-linejoin:round;stroke-miterlimit:10;}
	.st3{fill:#E6E6E6;stroke:#000000;stroke-width:0.75;stroke-linecap:round;stroke-linejoin:round;stroke-miterlimit:10;}
	.st4{fill:#CCCCCC;stroke:#000000;stroke-width:0.75;stroke-linecap:round;stroke-linejoin:round;stroke-miterlimit:10;}
	.st5{fill:none;stroke:#000000;stroke-width:0.75;stroke-linecap:round;stroke-linejoin:round;stroke-miterlimit:10;}
</style>
<g>
	<path class="st0" d="M59.7,30.4c-0.3-0.1-0.6-0.2-0.9,0c-1,0.3-1.9,1.7-1.9,3v15.1c-0.1,0-0.2,0-0.2,0.1l-0.1-0.2l-9.1-3.5v-15
		c0-1.4,0.8-2.7,1.9-3c0.3-0.1,0.5-0.1,0.8,0l9.4,3.7C59.7,30.3,59.7,30.4,59.7,30.4z"/>
	<path class="st1" d="M56.7,48.5c-21,6.9-28.8,16.5-29.1,17c-0.5,0.6-0.8,1.4-0.8,2.2v1.1l-9.4-3.7V64c0-0.8,0.3-1.6,0.8-2.2
		c0.3-0.4,8.1-10.1,29.3-17v0l9.1,3.5L56.7,48.5z"/>
	<path class="st0" d="M26.8,68.8l-13.5,4.1c-1,0.3-1.9,1.7-1.9,3c0,0.9,0.3,1.5,0.8,1.8l-9.4-3.7c-0.5-0.3-0.8-0.9-0.8-1.8
		c0-1.4,0.8-2.7,1.9-3l13.5-4.2L26.8,68.8z"/>
	<path class="st2" d="M27.6,81.2l-10.8-4.5l-3.5,1.1l13.5-4.1v5.8C26.8,80.3,27.1,80.9,27.6,81.2z"/>
	<path class="st2" d="M34.9,74.5c-0.1,0-0.3,0-0.4,0.1c0,0-2.3,0.7-4,1.2v-2.7L34.9,74.5z"/>
	<path class="st2" d="M87.2,49.8v6.9H87l-9.2-3.6V49C82.9,48.8,85.9,49.4,87.2,49.8z"/>
	<path class="st3" d="M87.2,56.8v0.2c-2,0.6-5.3,1.6-5.3,1.6c-1,0.3-1.9,1.7-1.9,3c0,0.9,0.4,1.5,0.9,1.8l-9.5-3.7
		c-0.5-0.3-0.8-0.9-0.8-1.8c0-1.4,0.8-2.7,1.9-3.1c0,0,3.2-1,5.3-1.6v-0.1l9.2,3.6H87.2z"/>
	<path class="st3" d="M86.6,44l-0.1,0.3c0,0,0,0,0,0c-4.2-0.7-12.3-1-25.8,3v-5.9c14.2-2.7,19.8,0.2,20,0.4
		C80.8,41.8,85.8,43.7,86.6,44C86.5,44,86.6,44,86.6,44z"/>
	<path class="st3" d="M104.4,45.1c-0.1,0-0.2,0-0.4,0.1l-13.1,4v-2c0-0.8-0.3-1.5-0.9-1.8c-0.1-0.1-1.2-0.6-3.6-1.1l0.1-0.3l8.1-2.5
		c0.4-0.1,0.7-0.1,1,0.1L104.4,45.1z"/>
	<path class="st4" d="M105.9,47c0,1.4-0.8,2.7-1.9,3l-13.1,4v4.1c0,1.4-0.8,2.7-1.9,3l-7.1,2.2c-0.4,0.1-0.7,0.1-1-0.1
		c-0.5-0.3-0.9-0.9-0.9-1.8c0-1.4,0.8-2.7,1.9-3c0,0,3.2-1,5.3-1.6v-7.1c-1.3-0.4-4.3-1.1-9.4-0.8c-0.4,0-0.7,0-1.1,0.1
		c-0.8,0.1-1.7,0.1-2.6,0.3c-0.4,0-0.7,0.1-1.1,0.1c-0.3,0-0.7,0.1-1,0.1c-0.3,0-0.7,0.1-1,0.2c-0.3,0.1-0.6,0.1-1,0.2
		c-0.4,0.1-0.9,0.2-1.4,0.3c-0.5,0.1-1,0.2-1.5,0.3c-0.5,0.1-1,0.2-1.5,0.3c-0.3,0.1-0.6,0.2-1,0.2c-0.4,0.1-0.8,0.2-1.2,0.3
		c-0.9,0.2-1.8,0.5-2.8,0.8c-0.6,0.2-1.2,0.3-1.8,0.5C41.3,58.2,33,65.5,30.6,67.9v7.9c1.7-0.5,4-1.2,4-1.2c0.1,0,0.3-0.1,0.4-0.1
		l0.8,0.3c0.2,0.1,0.3,0.3,0.4,0.6c0.1,0.1,0.1,0.2,0.1,0.3c0,0.1,0.1,0.3,0.1,0.4c0,0.1,0,0.3,0,0.4c0,1.4-0.8,2.7-1.9,3l-5.9,1.8
		c-0.1,0-0.3,0.1-0.4,0.1c-0.1,0-0.2,0-0.3,0c-0.1,0-0.1,0-0.2-0.1c-0.1,0-0.1,0-0.2-0.1c-0.5-0.3-0.8-0.9-0.8-1.8v-5.8l-13.5,4.1
		c-0.2,0-0.3,0.1-0.4,0.1c-0.1,0-0.1,0-0.2,0c0,0,0,0-0.1,0c0,0,0,0,0,0l-0.3-0.1c-0.5-0.3-0.8-0.9-0.8-1.8c0-1.4,0.8-2.7,1.9-3
		l13.5-4.1v-1.1c0-0.8,0.3-1.6,0.8-2.2c0.3-0.4,8.1-10,29.1-17c0.1,0,0.2,0,0.2-0.1V33.4c0-1.4,0.8-2.7,1.9-3c0.3-0.1,0.7-0.1,0.9,0
		c0,0,0.1,0,0.1,0c0.2,0.1,0.3,0.2,0.4,0.3c0,0.1,0.1,0.1,0.1,0.2c0,0,0,0,0,0.1c0,0.1,0.1,0.1,0.1,0.2c0,0,0,0.1,0,0.1
		c0,0.1,0.1,0.1,0.1,0.2c0.1,0.2,0.1,0.5,0.1,0.7v15.1c13.5-3.9,21.6-3.7,25.8-3c0,0,0,0,0,0c2.4,0.4,3.5,1,3.6,1.1
		c0.5,0.3,0.9,1,0.9,1.8v2l13.1-4c0.1,0,0.3-0.1,0.4-0.1l1,0.4c0.1,0.1,0.1,0.2,0.2,0.3c0,0,0,0.1,0.1,0.1c0,0.1,0.1,0.2,0.1,0.3
		c0,0,0,0,0,0.1c0,0.1,0.1,0.2,0.1,0.4C105.9,46.7,105.9,46.9,105.9,47z"/>
	<path class="st0" d="M35.7,74.8l-0.8-0.3C35.2,74.5,35.5,74.6,35.7,74.8z"/>
	<path class="st0" d="M105.4,45.5l-1-0.4C104.8,45.1,105.1,45.2,105.4,45.5z"/>
	<line class="st5" x1="77.8" y1="53.2" x2="77.6" y2="53.1"/>
</g>
</svg>
