<?xml version="1.0" encoding="utf-8"?>
<!-- Generator: Adobe Illustrator 21.1.0, SVG Export Plug-In . SVG Version: 6.00 Build 0)  -->
<svg version="1.1" id="Layer_1" xmlns="http://www.w3.org/2000/svg" xmlns:xlink="http://www.w3.org/1999/xlink" x="0px" y="0px"
	 width="108px" height="108px" viewBox="0 0 108 108" style="enable-background:new 0 0 108 108;" xml:space="preserve">
<style type="text/css">
	.st0{fill:#F2F2F2;stroke:#000000;stroke-width:0.75;stroke-linecap:round;stroke-linejoin:round;stroke-miterlimit:10;}
	.st1{fill:#FFFFFF;stroke:#000000;stroke-width:0.75;stroke-linecap:round;stroke-linejoin:round;stroke-miterlimit:10;}
	.st2{fill:#FFFFFF;}
	.st3{fill:#F2F2F2;}
	.st4{fill:none;stroke:#000000;stroke-width:0.75;stroke-linecap:round;stroke-linejoin:round;stroke-miterlimit:10;}
	.st5{fill:#808080;stroke:#000000;stroke-width:0.75;stroke-linecap:round;stroke-linejoin:round;stroke-miterlimit:10;}
	.st6{fill:#CCCCCC;stroke:#000000;stroke-width:0.75;stroke-linecap:round;stroke-linejoin:round;stroke-miterlimit:10;}
</style>
<g>
	<path class="st0" d="M77.5,22.8L66.9,36.3l-9.8-9.9l-0.6-0.2v0l-6.8-1.8l-4.9-1.3c0,0,1-1.4,2.8-2.7c1.8-1.3,4.2-2.6,4.2-2.6
		L77.5,22.8z"/>
	<polygon class="st1" points="56.5,26.2 56.5,26.2 56.5,26.2 49.7,24.4 	"/>
	<path class="st1" d="M49.7,24.4l6.8,1.8h0v0L49.7,24.4z"/>
	<path class="st2" d="M81.3,72.2c6.3-7.2,11-17,11.9-27.6c-4.5-14.3-15.7-21.7-15.7-21.7L66.9,36.3l-9.8-9.9l-0.6-0.2h0
		C55.6,26.7,35.7,39,33.8,57.7c-0.8,7.9,3.9,21.4,12.9,28.3l-0.2,0.3c0.3,0.2,0.5,0.3,0.5,0.3c1.4,0.7,2.8,1.3,4.2,1.8
		C62.6,86.5,73.1,81.6,81.3,72.2z"/>
	<path class="st3" d="M95,57.3c0.1-4.7-0.6-9-1.8-12.8c-0.8,10.7-5.5,20.4-11.9,27.6c-8.2,9.4-18.7,14.3-30.1,16.1
		c8.6,3,16.9,1.7,16.9,1.7C95.8,83.5,95,57.3,95,57.3z"/>
	<path class="st4" d="M77.5,22.8L66.9,36.3l-9.8-9.9l-0.6-0.2h0C55.6,26.7,35.7,39,33.8,57.7c-0.8,7.9,3.9,21.4,12.9,28.3l-0.2,0.3
		c0.3,0.2,0.5,0.3,0.5,0.3c9.9,5.2,21.1,3.5,21.1,3.5C95.8,83.5,95,57.3,95,57.3C95.5,34.7,77.5,22.8,77.5,22.8z"/>
	<path class="st5" d="M71.5,57.6c-0.1,2.9-2.4,5.2-5,5c-2.6-0.2-4.6-2.7-4.5-5.6c0.1-2.9,2.4-5.2,5-5C69.6,52.1,71.6,54.6,71.5,57.6
		z"/>
	<path class="st6" d="M46.7,85.9l-0.2,0.3c-3.3-1.5-20.8-9.8-21.8-10.3c-1.2-0.5-2.2-1.6-2.6-2.2C12.8,62.2,11.7,52.4,14,43.9
		c4.1-14.9,18.6-24,18.6-24l17,4.5l6.8,1.8C55.6,26.7,35.7,39,33.8,57.7C33,65.5,37.7,79.1,46.7,85.9z"/>
	<line class="st1" x1="66.8" y1="36.7" x2="66.9" y2="52"/>
</g>
</svg>
