<?xml version="1.0" encoding="utf-8"?>
<!-- Generator: Adobe Illustrator 21.1.0, SVG Export Plug-In . SVG Version: 6.00 Build 0)  -->
<svg version="1.1" id="Layer_1" xmlns="http://www.w3.org/2000/svg" xmlns:xlink="http://www.w3.org/1999/xlink" x="0px" y="0px"
	 width="108px" height="108px" viewBox="0 0 108 108" style="enable-background:new 0 0 108 108;" xml:space="preserve">
<style type="text/css">
	.st0{fill:#E6E6E6;stroke:#000000;stroke-width:0.75;stroke-linecap:round;stroke-linejoin:round;stroke-miterlimit:10;}
	.st1{fill:#FFFFFF;stroke:#000000;stroke-width:0.75;stroke-linecap:round;stroke-linejoin:round;stroke-miterlimit:10;}
	.st2{fill:#F2F2F2;stroke:#000000;stroke-width:0.75;stroke-linecap:round;stroke-linejoin:round;stroke-miterlimit:10;}
	.st3{fill:#808080;stroke:#000000;stroke-width:0.5;stroke-linecap:round;stroke-linejoin:round;stroke-miterlimit:10;}
	.st4{fill:#CCCCCC;stroke:#000000;stroke-width:0.5;stroke-linecap:round;stroke-linejoin:round;stroke-miterlimit:10;}
	.st5{fill:none;stroke:#000000;stroke-width:0.75;stroke-linecap:round;stroke-linejoin:round;stroke-miterlimit:10;}
</style>
<g>
	<path class="st0" d="M95.3,59c0-13.1-8-24.7-19.9-31l-1.2,2.5c12.3,6.4,20.6,18.4,20.6,32.1c0,1,0,2-0.1,3
		C95.1,63.4,95.3,61.2,95.3,59z"/>
	<path class="st1" d="M58.2,80.3c8.7-1.7,15.3-8.8,15.3-17.3v-0.2C73.4,71.4,66.9,78.5,58.2,80.3z"/>
	<path class="st2" d="M68,27.5l-0.1,0.3l-8.1,17.8C57.9,45,56,44.8,54,44.8c-2,0-3.9,0.3-5.7,0.8l-8.1-17.8L40,27.5l0.8-2.4
		l-0.2-0.4c4.2-1.3,8.7-1.9,13.4-1.9c4.7,0,9.2,0.7,13.4,2l-0.2,0.4L68,27.5z"/>
	<path class="st1" d="M33.8,30.4l-1.2-2.5c-11.9,6.4-19.9,17.9-19.9,31c0,2.3,0.2,4.5,0.7,6.6c-0.1-1-0.1-2-0.1-3
		C13.2,48.8,21.5,36.8,33.8,30.4z"/>
	<path class="st1" d="M34.5,62.9V63c0,8.5,6.5,15.5,15.3,17.3C41.1,78.5,34.6,71.4,34.5,62.9z"/>
	<path class="st1" d="M49.8,80.3c-8.7-1.7-15.3-8.8-15.3-17.3v-0.2C34.6,71.4,41.1,78.5,49.8,80.3z"/>
	<path class="st1" d="M53.1,74.4v6.3h0l0-5.8C53.1,74.9,53.1,74.4,53.1,74.4z"/>
	<path class="st1" d="M54.9,74.8l0,5.9h0l0-5.7C54.9,74.9,54.9,74.8,54.9,74.8z"/>
	<path class="st1" d="M73.5,62.9V63c0,8.5-6.5,15.5-15.3,17.3C66.9,78.5,73.4,71.4,73.5,62.9z"/>
	<path class="st0" d="M67.9,27.8l-8.1,17.8C57.9,45,56,44.8,54,44.8c-2,0-3.9,0.3-5.7,0.8l-8.1-17.8c4.3-1.4,9-2.2,13.8-2.2
		S63.5,26.4,67.9,27.8z"/>
	<path class="st1" d="M58.2,80.3c8.7-1.7,15.3-8.8,15.3-17.3v-0.2C73.4,71.4,66.9,78.5,58.2,80.3z"/>
	<path class="st1" d="M54.9,80.7L54.9,80.7l0-5.9c0,0.1,0,0.1,0,0.2L54.9,80.7z"/>
	<path class="st1" d="M34.5,62.9V63c0,8.5,6.5,15.5,15.3,17.3C41.1,78.5,34.6,71.4,34.5,62.9z"/>
	<path class="st1" d="M53.1,74.9l0,5.8h0v-6.3C53.1,74.4,53.1,74.9,53.1,74.9z"/>
	<path class="st0" d="M94.8,62.6c0,1,0,2-0.1,3c-1.6,17.9-17.1,32.2-36.8,33.8c-1,0.1-3-0.2-3-2.3V80.7H55c0.2,0,0.3,0,0.5,0
		c0.6,0,1.3-0.1,1.9-0.2c0.3,0,0.6-0.1,0.9-0.2c8.7-1.7,15.3-8.8,15.3-17.3v-0.3c0-6-3.2-11.3-8-14.5l8.7-17.7
		C86.5,36.8,94.8,48.8,94.8,62.6z"/>
	<path class="st0" d="M53.1,80.7V97c0,2.3-1.8,2.5-2.7,2.4c-19.8-1.6-35.5-15.9-37.1-33.9c-0.1-1-0.1-2-0.1-3
		c0-13.8,8.3-25.8,20.6-32.2l8.7,17.7c-4.9,3.3-8.1,8.6-8.1,14.6V63c0,8.5,6.5,15.5,15.3,17.3c0.3,0.1,0.6,0.1,0.9,0.2
		c0.6,0.1,1.2,0.2,1.9,0.2c0.2,0,0.3,0,0.5,0H53.1z"/>
	<g>
		<path class="st3" d="M64.6,61.9c0,4-0.8,9.6-7.9,11.3c-0.5,0.1-1.6,0.5-1.7,1.5v-3.3c0-1.2,1.2-1.6,1.8-1.7
			c3.8-0.9,6.9-6.1,7.8-9.2C64.5,61,64.6,61.5,64.6,61.9z"/>
		<path class="st3" d="M53.1,71.5v3.4c-0.1-1-1.1-1.3-1.6-1.4c-8.4-1.8-9-7.2-9-11.5c0-0.5,0-0.9,0.1-1.3c1,3.4,4.6,8.7,8.9,9.4
			C52,70.1,53.1,70.4,53.1,71.5z"/>
	</g>
	<path class="st4" d="M73.5,62.7V63c-0.1,7.9-5.9,14.6-13.7,16.9c-0.5,0.1-1.1,0.3-1.6,0.4c-0.3,0.1-0.6,0.1-0.8,0.2
		c-0.6,0.1-1.2,0.2-1.9,0.2c-0.2,0-0.3,0-0.5,0h-0.1l0-6c0.1-1.1,1.2-1.4,1.7-1.5c9.2-2.8,7.8-11.1,7.8-11.8c0-4.8-4.9-8.7-11-8.7
		c-6,0-10.9,3.9-10.9,8.7c0,0.7-0.9,8.9,9,12c0.5,0.2,1.5,0.4,1.6,1.4l0,5.8H53c-0.2,0-0.3,0-0.5,0c-0.6,0-1.2-0.1-1.9-0.2
		c-0.3,0-0.6-0.1-0.9-0.2c-0.5-0.1-1.1-0.2-1.6-0.4C40.4,77.7,34.6,71,34.5,63v-0.3c0-6,3.2-11.3,8-14.6c1.1-0.7,2.2-1.3,3.4-1.8
		c0.5-0.2,1-0.4,1.5-0.6c0.2-0.1,0.5-0.2,0.8-0.2c1.8-0.5,3.7-0.8,5.7-0.8c2,0,3.9,0.3,5.8,0.8c0.3,0.1,0.5,0.1,0.8,0.2
		c0.5,0.2,1,0.4,1.5,0.6c1.2,0.5,2.3,1.1,3.4,1.8C70.3,51.5,73.5,56.8,73.5,62.7z"/>
	<g>
		<path class="st1" d="M76.3,12.9l-0.2-0.1l-6,12.7l-1.2,2.6l-8.2,17.4l-0.1,0.3c-0.3-0.1-0.5-0.2-0.8-0.2l8.1-17.8l0.1-0.3
			l-0.8-2.4l0.2-0.4l7.1-16.1l0.1,0L76.3,12.9z"/>
		<polygon class="st1" points="91.4,18.5 76.3,12.9 76.3,12.9 74.6,8.6 90.1,14 		"/>
		<path class="st2" d="M91.4,18.5L89,24l-9.9-3.7L75.4,28l-1.2,2.5l-8.7,17.7c-1.1-0.7-2.2-1.3-3.4-1.8c-0.5-0.2-1-0.4-1.5-0.6
			l0.1-0.3l8.2-17.4l1.2-2.6l6-12.7l0.2,0.1h0L91.4,18.5z"/>
		<line class="st5" x1="74.6" y1="8.6" x2="74.6" y2="8.6"/>
		<polyline class="st5" points="76.3,12.9 76.3,12.9 76.3,12.9 		"/>
	</g>
	<g>
		<path class="st0" d="M48.3,45.6c-0.3,0.1-0.5,0.2-0.8,0.2l-0.1-0.3l-8.2-17.4l-1.2-2.6l-6-12.7l-0.2,0.1l1.6-4.3l0.1,0l7.1,16.1
			l0.2,0.4L40,27.5l0.1,0.3L48.3,45.6z"/>
		<polygon class="st1" points="33.4,8.6 31.8,12.9 16.6,18.5 17.9,14 		"/>
		<path class="st2" d="M47.5,45.8c-0.5,0.2-1,0.4-1.5,0.6c-1.2,0.5-2.3,1.1-3.4,1.8l-8.7-17.7l-1.2-2.5l-3.7-7.6L19,24l-2.4-5.5
			l15.2-5.6l0.2-0.1l6,12.7l1.2,2.6l8.2,17.4L47.5,45.8z"/>
		<line class="st5" x1="33.4" y1="8.6" x2="33.4" y2="8.6"/>
		<line class="st5" x1="31.8" y1="12.9" x2="31.8" y2="12.9"/>
	</g>
</g>
</svg>
