<?xml version="1.0" encoding="utf-8"?>
<!-- Generator: Adobe Illustrator 21.1.0, SVG Export Plug-In . SVG Version: 6.00 Build 0)  -->
<svg version="1.1" id="Layer_1" xmlns="http://www.w3.org/2000/svg" xmlns:xlink="http://www.w3.org/1999/xlink" x="0px" y="0px"
	 width="108px" height="108px" viewBox="0 0 108 108" style="enable-background:new 0 0 108 108;" xml:space="preserve">
<style type="text/css">
	.st0{fill:#E6E6E6;stroke:#000000;stroke-width:0.75;stroke-linecap:round;stroke-linejoin:round;stroke-miterlimit:10;}
	.st1{fill:#F2F2F2;stroke:#000000;stroke-width:0.75;stroke-linecap:round;stroke-linejoin:round;stroke-miterlimit:10;}
	.st2{fill:#B3B3B3;stroke:#000000;stroke-width:0.75;stroke-linecap:round;stroke-linejoin:round;stroke-miterlimit:10;}
	.st3{fill:#FFFFFF;stroke:#000000;stroke-width:0.75;stroke-linecap:round;stroke-linejoin:round;stroke-miterlimit:10;}
	.st4{fill:#CCCCCC;stroke:#000000;stroke-width:0.75;stroke-linecap:round;stroke-linejoin:round;stroke-miterlimit:10;}
	.st5{fill:#E6E6E6;}
	.st6{fill:#CCCCCC;}
	.st7{fill:none;stroke:#000000;stroke-width:0.75;stroke-linecap:round;stroke-linejoin:round;stroke-miterlimit:10;}
</style>
<g>
	<path class="st0" d="M71.1,49.5c0,24.2-14.1,43-31.5,42C22.1,90.5,8,70.1,8,45.9S22.1,3,39.5,4C56.9,5,71.1,25.4,71.1,49.5z"/>
	<path class="st1" d="M73,50.1c0,23.3-13.5,41.5-30.1,40.5c-16.6-1-30.1-20.6-30.1-44c0-23.3,13.5-41.5,30.1-40.5
		C59.6,7.1,73,26.8,73,50.1z"/>
	<path class="st2" d="M58.7,20L58.6,9.8c0,0,3.9-1.4,5.3-1.3c1.4,0.1,11.3,4.7,11.3,4.7s0.5,1.8-1.4,2.6C71.8,16.6,58.7,20,58.7,20z
		"/>
	<line class="st3" x1="64.4" y1="10.9" x2="64.5" y2="17"/>
	<path class="st4" d="M72,15.9l-16.2,5.1l22.8,69.5l5.6,2.4c6.1,2.5,12,4.9,12,4.9c0.7,0.3,1.8,0.3,2.4,0.1c0.5-0.2,0.6-0.7,0.6-0.7
		L100,27c0,0,0,0,0,0c0-0.2-0.1-0.5-0.8-0.8l-24-9.9L72,15.9z"/>
	<polyline class="st2" points="69.7,26.3 69.8,20.7 64,23.7 69.6,26.3 69.7,26.3 	"/>
	<polyline class="st2" points="78.8,30 78.7,20.4 72.1,20.9 72.1,27.1 	"/>
	<path class="st2" d="M82.2,27.7l0-2.8l6.7-0.4c0,0,0.4,66.9,0.1,69.4c-0.2,2.5-1.9,2.5-4,2.6L82.2,27.7z"/>
	<path class="st2" d="M81,99.7c1.5,0.7,4.4,2.2,4.4-2.2c0-4.4,0.4-70.6,0.4-70.6l-6,4.2"/>
	<path class="st5" d="M36.4,17.5c0,0-0.8,69.6-0.8,70.2c0.1,0.7,0.7,1.3,2,1.8c0,0,3.7,1.5,3.7,1.5l4.4,1.8c0.2,0.1,0.3,0.1,0.5,0.2
		c0.3-23.7,1.6-47.3,1.8-71.1L36.4,17.5z"/>
	<path class="st6" d="M55.1,21.5l-5.3,1L48,21.8c-0.2,23.9-1.5,47.5-1.8,71.1c1.7,0.6,4.6,0.7,8.1-0.3c0,0,0.2,0.1,0.5,0.2
		C54.6,69,54.9,45.4,55.1,21.5z"/>
	<path class="st5" d="M84,33L55.3,21.5l-0.3,0.1c-0.1,23.9-0.5,47.5-0.3,71.4c3.5,1.5,25.5,10.9,25.5,10.9c0.7,0.3,1.8,0.3,2.4,0.1
		c0.5-0.2,0.6-0.5,0.6-0.7v0c0-0.1,0-3.6,0-8.4L84,33z"/>
	<path class="st7" d="M49.8,22.5l-13.4-5c0,0-0.8,69.6-0.8,70.2c0.1,0.7,0.7,1.3,2,1.8c0,0,3.7,1.5,3.7,1.5l4.4,1.8
		c1.6,0.7,4.7,1,8.6-0.1c0.2,0.1,25.9,11.1,25.9,11.1c0.7,0.3,1.8,0.3,2.4,0.1c0.5-0.2,0.6-0.5,0.6-0.7v0c0-0.1,0-3.6,0-8.4L84,33
		L55.3,21.5L49.8,22.5z"/>
	<line class="st3" x1="47.7" y1="23.2" x2="47.4" y2="93.3"/>
	<line class="st3" x1="54.1" y1="92.4" x2="54.5" y2="23"/>
	<line class="st3" x1="63.1" y1="28.4" x2="62.5" y2="92.8"/>
	<line class="st3" x1="70.4" y1="96.2" x2="70.8" y2="31.4"/>
	<line class="st3" x1="78.4" y1="34.5" x2="77.7" y2="99"/>
	<path class="st1" d="M64,23.7c0,0,3.7,0.8,5-0.9c1.3-1.7,0.7-2.5,0.7-2.5s-1.7,0.3-3.3,1C64.8,21.9,64,23.7,64,23.7z"/>
	<path class="st1" d="M71.9,26.4c0,0,1.9-1.6,3.3-2.2c1.3-0.6,2.5-0.6,2.5-0.6s0.3,2.4-1.5,3.1C74.4,27.6,71.9,26.4,71.9,26.4z"/>
	<path class="st1" d="M80.4,30.7c0,0,1.1-2.9,2.3-3.2c1.2-0.3,3.1-0.6,3.1-0.6s-0.1,1.7-1.6,2.8C82.7,30.7,80.4,30.7,80.4,30.7z"/>
	<path class="st1" d="M82.2,25c0,0,0.3-1.7,2.3-1.9c2-0.2,4.1,1.4,4.1,1.4s-1.9,0.4-3.1,0.6C84.3,25.3,82.2,25,82.2,25z"/>
	<path class="st1" d="M72,20.8c0,0,1.3,0.8,4.1,0.8c2.9,0,2.5-1.4,2.5-1.4s-1.7-1.2-3.8-0.9C72.8,19.6,72,20.8,72,20.8z"/>
	<path class="st3" d="M81,33.6c0.7,0.3,1.8,0.3,2.4,0.1c0.5-0.2,0.6-0.5,0.6-0.7v0c0-0.2-0.1-0.5-0.7-0.8c0,0-20.5-8.8-24.8-10.7
		c1.5-0.5,13.2-4,13.4-4.1C72.1,17.5,97,27.6,97,27.6c0.7,0.3,1.8,0.3,2.4,0.1c0.5-0.2,0.6-0.5,0.6-0.7c0,0,0,0,0,0
		c0-0.2-0.1-0.5-0.8-0.8c0,0-22.7-9.3-24.1-9.9c0.1,0,0.2-0.1,0.2-0.1c1.1-0.5,2.7-1.2,2.7-2.2c0,0,0,0,0,0c0-0.6-0.6-1.2-1.8-1.8
		c-1.8-0.8-5.1-2.1-6.8-2.8c0,0-1.1-0.4-1.1-0.4c-3.2-1.3-5.2-1-6.2-0.6c0,0-2.6,0.8-2.6,0.8c-0.6,0.2-0.8,0.6-0.8,0.7
		c0,0.2,0.1,0.5,0.6,0.8c0.7,0.3,1.7,0.4,2.4,0.2l2.8-0.9c0,0,0.4-0.1,1.6,0.4c0,0,1.1,0.5,1.1,0.5c0,0,6.7,2.8,6.7,2.8
		c0.4,0.2,0.5,0.3,0.5,0.3c-0.1,0-0.4,0.3-1.6,0.8L71,15.2c0.1,0-0.5,0.1-0.5,0.1l-0.2,0.1c-4.5,1.4-14.1,4.3-17.3,5.2
		c-2.2,0.6-3.7,0.6-4.1,0.4c0,0-4.5-1.8-4.5-1.8c0,0-3.7-1.5-3.7-1.5c-0.2-0.1-0.3-0.2-0.4-0.2c0,0,0,0,0,0c1-0.4,3.4-1.5,3.4-1.6
		c0.4-0.2,0.5-0.5,0.5-0.6c0,0,0,0,0-0.1c0-0.2-0.2-0.6-0.9-0.8c-0.8-0.3-1.8-0.3-2.4,0c-0.6,0.3-2.4,1.2-3.1,1.4
		c-0.9,0.3-1.4,0.9-1.4,1.5c0.1,0.7,0.7,1.3,2,1.8c0,0,3.7,1.5,3.7,1.5l3.2,1.3l1.4,0.6c1.6,0.7,4.7,1,8.6-0.1
		C55.6,22.6,81,33.6,81,33.6z"/>
</g>
</svg>
