<?xml version="1.0" encoding="utf-8"?>
<!-- Generator: Adobe Illustrator 21.1.0, SVG Export Plug-In . SVG Version: 6.00 Build 0)  -->
<svg version="1.1" id="Layer_1" xmlns="http://www.w3.org/2000/svg" xmlns:xlink="http://www.w3.org/1999/xlink" x="0px" y="0px"
	 width="108px" height="108px" viewBox="0 0 108 108" style="enable-background:new 0 0 108 108;" xml:space="preserve">
<style type="text/css">
	.st0{fill:#E6E6E6;stroke:#000000;stroke-width:0.75;stroke-linecap:round;stroke-linejoin:round;stroke-miterlimit:10;}
	.st1{fill:#F2F2F2;stroke:#000000;stroke-width:0.75;stroke-linecap:round;stroke-linejoin:round;stroke-miterlimit:10;}
	.st2{fill:#CCCCCC;stroke:#000000;stroke-width:0.75;stroke-linecap:round;stroke-linejoin:round;stroke-miterlimit:10;}
	.st3{fill:#E6E6E6;stroke:#000000;stroke-width:0.5;stroke-linecap:round;stroke-linejoin:round;stroke-miterlimit:10;}
	.st4{fill:#808080;stroke:#000000;stroke-width:0.5;stroke-linecap:round;stroke-linejoin:round;stroke-miterlimit:10;}
	.st5{fill:none;stroke:#000000;stroke-width:0.5;stroke-linecap:round;stroke-linejoin:round;stroke-miterlimit:10;}
	.st6{fill:#FFFFFF;stroke:#000000;stroke-width:0.75;stroke-linecap:round;stroke-linejoin:round;stroke-miterlimit:10;}
</style>
<g>
	<ellipse class="st0" cx="48.6" cy="38.6" rx="26.2" ry="36.1"/>
	<path class="st1" d="M74.2,39.3c0,19.4-8.2,35.6-22.5,35.6c-14.3,0-24.8-16.2-24.8-35.6c0-19.4,11.6-35.1,25.8-35.1
		C67,4.2,74.2,19.9,74.2,39.3z"/>
	<path class="st2" d="M74.2,39c0,6.4-4.1,11.6-9.1,11.6c-0.4,0-3.9,0-4.3-0.1c-4.4-0.8-7.8-5.6-7.8-11.5c0-5.8,3.4-10.6,7.8-11.4
		c0.4-0.1,3.9-0.1,4.4-0.1C70.1,27.5,74.2,32.7,74.2,39z"/>
	<ellipse class="st0" cx="65.9" cy="39.3" rx="7.9" ry="11.6"/>
	<ellipse class="st1" cx="70.7" cy="40.1" rx="8.1" ry="11.9"/>
	<g>
		<path class="st0" d="M67,103l-2.2-0.3c0,0-1-11.8-2.9-19c-1.9-7.2-5.5-15.3-1.9-18c3.6-2.7,3.5-1.4,5.9-2C68.4,63.1,67,103,67,103
			z"/>
		<path class="st2" d="M67.3,102.9c0,0-0.3-9.1-2.6-18.9S58,65.2,64.4,63.8c6.3-1.4,8.1,2.5,8.8,13.9C73.9,89,74.6,101,74.6,101
			L67.3,102.9z"/>
	</g>
	<polygon class="st2" points="73.9,55.5 74,74.6 77.4,76.6 79.4,54.8 	"/>
	<g>
		<ellipse transform="matrix(0.9265 -0.3763 0.3763 0.9265 -23.8599 33.2754)" class="st3" cx="73.3" cy="77.7" rx="3.9" ry="5"/>
		<ellipse transform="matrix(0.9265 -0.3763 0.3763 0.9265 -24.0925 32.5175)" class="st3" cx="71.2" cy="77.9" rx="3.9" ry="5"/>
		<ellipse transform="matrix(0.9265 -0.3763 0.3763 0.9265 -24.325 31.7596)" class="st3" cx="69.1" cy="78.2" rx="3.9" ry="5"/>
		<ellipse transform="matrix(0.9265 -0.3763 0.3763 0.9265 -24.5576 31.0018)" class="st3" cx="67.1" cy="78.4" rx="3.9" ry="5"/>
		<ellipse transform="matrix(0.9265 -0.3763 0.3763 0.9265 -24.7902 30.2439)" class="st3" cx="65" cy="78.6" rx="3.9" ry="5"/>
	</g>
	<path class="st1" d="M80.9,53.7c0-2.1-3.2-3.8-11.2-2.5c-5.7,0.9-10.8-1-10.7,7.5c0.1,8.4-0.4,24.4-0.4,24.4l4.4-0.5
		c0.4,0,0.8-0.1,1.2-0.2c1.4-0.7,1.8-2.7,0.9-4.5c-0.2-0.3-0.4-0.6-0.6-0.9l0.5-18.9l12.1-1.7l0.3,20.2l3.7-2.3
		C81.1,74.3,80.9,55.7,80.9,53.7z"/>
	<path class="st0" d="M75.9,49.2c-1.7,0-9.6,1-12.6,1.1c-2.9,0.1-6.5,0.5-6.5,5.1c0,3.6-0.2,16-0.3,20.9c0,0-0.1,0-0.1,0
		C55,77,54.6,79,55.5,80.7c0.9,1.8,2.8,2.6,4.1,1.9c1.4-0.7,1.8-2.7,0.9-4.5c-0.2-0.3-0.4-0.6-0.6-0.9c0.1-4.6,0.3-16.6,0.4-19.6
		c0-1.2,0-3.9,3.9-4.1c0.6,0,1.8-0.1,2.5-0.1c1.2,0.1,2.8,0.6,3.9,0.4c2.2-0.4,1.6-1.3,1.6-1.3s2.7-0.4,4.8-0.8
		c3.7-0.6,3.9,1.7,3.9,1.7C80.9,51.6,77.6,49.2,75.9,49.2z"/>
	<ellipse transform="matrix(0.9265 -0.3762 0.3762 0.9265 -25.5831 27.6514)" class="st4" cx="58" cy="79.3" rx="1.4" ry="2"/>
	<path class="st0" d="M74.7,95.6l-4.8,9.9l-2.2-1.9c0,0,0.6-14.7,4.3-25.7c3.8-11,6.7-11.3,11-9.6c2.1,0.8,2.8,2.6,2.5,4.6
		c-0.6,4.7-6.2,4.7-6.2,4.7L74.7,95.6z"/>
	<path class="st1" d="M69.9,105.5c2.9-1,7.1-1.3,9.5-1.2c-0.3-10.8,0.7-21.2,5.1-28s-4.3-12.3-9.1-1.9S69.9,105.5,69.9,105.5z"/>
	<path class="st5" d="M67.9,47.1c2.2,3.6,5.4,3.4,8.3,1.2"/>
	<path class="st5" d="M67.1,38.7c0.1-4.1,3.4-8.6,6.3-8.4"/>
	<ellipse class="st4" cx="73" cy="40.3" rx="1.5" ry="2.4"/>
	<path class="st6" d="M66.9,53.2l0,4.4c0,0,1.1,0.9,3.2,0.8c2.2-0.1,2.4-1.6,2.4-1.6l-0.1-4.1c0,0-0.7,1.1-2.4,1.2
		C68.3,54,66.9,53.2,66.9,53.2z"/>
</g>
</svg>
