<?xml version="1.0" encoding="utf-8"?>
<!-- Generator: Adobe Illustrator 21.1.0, SVG Export Plug-In . SVG Version: 6.00 Build 0)  -->
<svg version="1.1" id="Layer_1" xmlns="http://www.w3.org/2000/svg" xmlns:xlink="http://www.w3.org/1999/xlink" x="0px" y="0px"
	 width="108px" height="108px" viewBox="0 0 108 108" style="enable-background:new 0 0 108 108;" xml:space="preserve">
<style type="text/css">
	.st0{fill:#E6E6E6;stroke:#000000;stroke-width:0.75;stroke-linecap:round;stroke-linejoin:round;stroke-miterlimit:10;}
	.st1{fill:#F2F2F2;stroke:#000000;stroke-width:0.75;stroke-linecap:round;stroke-linejoin:round;stroke-miterlimit:10;}
	.st2{fill:#B3B3B3;stroke:#000000;stroke-width:0.75;stroke-linecap:round;stroke-linejoin:round;stroke-miterlimit:10;}
	.st3{fill:#FFFFFF;}
	.st4{fill:#F2F2F2;}
	.st5{fill:none;stroke:#000000;stroke-width:0.75;stroke-linecap:round;stroke-linejoin:round;stroke-miterlimit:10;}
	.st6{fill:#FFFFFF;stroke:#000000;stroke-width:0.75;stroke-linecap:round;stroke-linejoin:round;stroke-miterlimit:10;}
	.st7{fill:#CCCCCC;stroke:#000000;stroke-width:0.75;stroke-linecap:round;stroke-linejoin:round;stroke-miterlimit:10;}
</style>
<g>
	<path class="st0" d="M60.5,54.1c0,22.6-13.2,40.1-29.4,39.2c-16.2-0.9-29.4-20-29.4-42.5c0-22.6,13.2-40.1,29.4-39.2
		C47.3,12.5,60.5,31.6,60.5,54.1z"/>
	<path class="st1" d="M58.6,54.6c0,21.9-8.4,39.1-23.8,38.2C19.3,91.9,6.8,73.5,6.8,51.6c0-21.9,12.5-38.9,27.9-38
		C50.2,14.5,58.6,32.7,58.6,54.6z"/>
	<path class="st2" d="M31.5,95.5c0,0,53.7-16,55.6-16.4c2-0.4,2.2-0.5,2.1-4.1c-0.1-3.6,0.3-31.3,0.3-31.3l-57.7,2.5l-13.4-4.7
		c0,0-1.8,5.6-0.2,5.2c1.6-0.5,6.7-1.8,6.7-1.8l5.9,2L30,59.6c0,0-13.2,3.3-14.7,4c-1.5,0.7,0.3,5,3.6,7.2c3.2,2.2,11,3.9,11,3.9
		S29.3,96.3,31.5,95.5z"/>
	<polygon class="st0" points="46.7,69.8 33.8,73 34.9,69 46.6,66 	"/>
	<polygon class="st0" points="35.8,59.1 46.6,56.5 46.6,60.1 35.4,63.4 	"/>
	<path class="st0" d="M40.3,54.1l7.2-1.7c0,0,0.2,4.6,0.2,4.9c0,0.3-0.1,1.8-0.1,1.8l-2.1,0.5L40.3,54.1z"/>
	<polygon class="st0" points="39.5,63.7 47.3,61.7 47.6,67.2 47.5,68.6 45.2,68.9 	"/>
	<polygon class="st0" points="39.7,74.1 47.1,72.8 47.6,79.2 44.8,79.8 	"/>
	<path class="st3" d="M100.7,32.5c-2.4-1-20.1-7.8-22.7-8.7c-2.7-1-3.4-1.4-6-0.3c-2.7,1-56,14.9-56,14.9l0.2,1.2
		c0,0,28.5,8,30.7,12.9c0,0,0,0,0,0c19-6.7,38.5-11.8,58.1-17.4C103.9,33.5,102.2,33.1,100.7,32.5z"/>
	<path class="st4" d="M106.3,39c-0.1-1.9-0.5-3.1-1.2-4c-19.6,5.7-39.1,10.8-58.1,17.4c2.2,5,1.4,30.1,1.4,30.1s53.3-15.5,55.2-16
		c1.9-0.5,2.4-1,2.3-4.2C105.7,59.2,106.5,43.9,106.3,39z"/>
	<path class="st5" d="M16,38.3c0,0,53.3-13.9,56-14.9c2.7-1,3.4-0.6,6,0.3c2.7,1,20.3,7.8,22.7,8.7c2.4,1,5.3,1.5,5.6,6.5
		c0.2,5-0.6,20.3-0.5,23.4c0.1,3.1-0.5,3.7-2.3,4.2c-1.9,0.5-55.2,16-55.2,16s0.8-25.2-1.4-30.1c-2.2-4.9-30.7-12.9-30.7-12.9
		L16,38.3z"/>
	<line class="st6" x1="19.1" y1="68.8" x2="28.6" y2="65.9"/>
	<path class="st7" d="M32.5,73c0,0,2.9,0.4,4.5-0.9c1.6-1.3,1.5-3.5,1.5-3.5s-2.8-0.2-4,0.5C33.3,69.8,32.5,73,32.5,73z"/>
	<path class="st7" d="M39.7,74c0,0-0.3,2.2,1.9,4.3c2.2,2.1,3.6,1.4,3.6,1.4s1.1-2.7-1.5-4.2C41,74,39.7,74,39.7,74z"/>
	<path class="st7" d="M39.5,63.7c0,0,1.3,3.2,3,4.2c1.7,1,3,1.8,3.1,0c0.1-1.8-1.7-3.4-3.2-4.1S39.5,63.7,39.5,63.7z"/>
	<path class="st7" d="M33.3,63.6c0,0,2.4,0.4,3.6-1.3c1.2-1.7,1.5-3.3,1.5-3.3s-2.2-0.2-3.8,0.8C32.9,60.7,33.3,63.6,33.3,63.6z"/>
	<path class="st7" d="M45.5,59.6c0,0-2.4,0-4.6-2.8c-2.2-2.8-0.9-3,1.3-2.3C44.5,55.2,45.7,57.1,45.5,59.6z"/>
	<path class="st0" d="M49,51.5c-0.3-0.5-0.8-0.9-1.3-1.1L16.6,38.4c-0.9-0.4-1.7,0.1-1.7,1.1v4.9c0,1,0.9,1.7,1.8,2.1
		c1,0.4,1.7,0.4,1.7-0.6c0,0,0-1.7,0-3.1c1.2,0.5,5.7,2.2,10.8,4.2l-0.3,25.7c-3-1.1-8.5-3.1-10.5-3.8c-0.1-1.5-0.1-3.3-0.1-3.3
		c0-1-1.1-1.7-2-2c-1-0.4-1.5-0.3-1.5,0.7l0.2,5.2c0,0.5,0.2,1,0.6,1.5c0.3,0.5,0.8,0.8,1.3,1l12,4.4l-0.2,17.8c0,1,0.8,1.6,1.8,2
		c1,0.4,1.8,0.5,1.8-0.5l0.6-47.3c5.9,2.3,11.8,4.6,13.2,5.1c0,3.4-0.1,28-0.1,28s0.8,0.6,1.8,1c1,0.4,1.7,0.7,1.7-0.4l0.1-29
		C49.6,52.6,49.4,52,49,51.5z"/>
	<line class="st6" x1="51.3" y1="50.5" x2="102" y2="36"/>
	<line class="st6" x1="52.1" y1="59.1" x2="103.5" y2="44.4"/>
	<line class="st6" x1="52.4" y1="69.1" x2="103.8" y2="54.5"/>
	<line class="st6" x1="51.9" y1="78.1" x2="103.5" y2="63.6"/>
</g>
</svg>
