<?xml version="1.0" encoding="utf-8"?>
<!-- Generator: Adobe Illustrator 21.1.0, SVG Export Plug-In . SVG Version: 6.00 Build 0)  -->
<svg version="1.1" id="Layer_1" xmlns="http://www.w3.org/2000/svg" xmlns:xlink="http://www.w3.org/1999/xlink" x="0px" y="0px"
	 width="108px" height="108px" viewBox="0 0 108 108" style="enable-background:new 0 0 108 108;" xml:space="preserve">
<style type="text/css">
	.st0{fill:none;stroke:#000000;stroke-width:0.75;stroke-linecap:round;stroke-linejoin:round;stroke-miterlimit:10;}
	.st1{fill:#F2F2F2;}
	.st2{fill:#E6E6E6;}
	.st3{fill:#FFFFFF;}
	.st4{fill:#F2F2F2;stroke:#000000;stroke-width:0.75;stroke-linecap:round;stroke-linejoin:round;stroke-miterlimit:10;}
	.st5{fill:none;stroke:#000000;stroke-width:0.5;stroke-linecap:round;stroke-linejoin:round;stroke-miterlimit:10;}
	.st6{fill:#CCCCCC;stroke:#000000;stroke-width:0.75;stroke-linecap:round;stroke-linejoin:round;stroke-miterlimit:10;}
</style>
<g>
	<path class="st0" d="M90,78.9l-12.4,4L4,43.9l11.3-2.5c0,0,5.3-12.2,6.7-14.4c0.4-0.7,0.8-1.2,1.1-1.5c0,0,0,0,0,0
		c0.8-0.9,1.4-1,2.7-0.9c1.9,0.1,10.7,4.6,14.2,6.1c3.4,1.5,30.9,13.1,36.8,15.8c5.9,2.7,6.1,4.1,7,6.4C84.6,55,90,78.9,90,78.9z"/>
	<path class="st1" d="M87,66c-1.4-6-2.9-12.1-3.3-13.2c-0.9-2.2-1.1-3.7-7-6.4C70.8,43.7,43.4,32.1,40,30.6
		c-3.4-1.5-12.2-5.9-14.2-6.1c-1.3-0.1-2,0.1-2.7,0.9c0,0,0,0,0,0c-0.3,0.4-0.7,0.9-1.1,1.5c-1.4,2.2-6.7,14.4-6.7,14.4l-0.2,0
		c0,0,0.1,0,0.1,0.1c4.9-0.5,9.8-2.1,14.7-2.7C48.7,47.8,67.6,57.5,87,66z"/>
	<path class="st2" d="M87,66c-19.5-8.5-38.3-18.2-57.1-27.2c-4.9,0.6-9.8,2.3-14.7,2.7C40.3,53.7,65.5,66,90,78.8
		C89.8,78.1,88.4,72.1,87,66z"/>
	<path class="st3" d="M15.1,41.4L4,43.9l73.6,39l12.4-4c0,0,0,0,0-0.1C65.4,65.9,40.3,53.7,15.1,41.4z"/>
	<path class="st0" d="M90,78.9l-12.4,4L4,43.9l11.3-2.5c0,0,5.3-12.2,6.7-14.4c0.4-0.7,0.8-1.2,1.1-1.5c0,0,0,0,0,0
		c0.8-0.9,1.4-1,2.7-0.9c1.9,0.1,10.7,4.6,14.2,6.1c3.4,1.5,30.9,13.1,36.8,15.8c5.9,2.7,6.1,4.1,7,6.4C84.6,55,90,78.9,90,78.9z"/>
	<path class="st0" d="M22.8,25.9c0,0,0.1-0.1,0.2-0.4c0,0,0,0,0,0"/>
	<path class="st4" d="M103.7,74.8l-11.4,3.5c0,0-1.3-5-2.7-10.5c0,0,0-0.1,0-0.2l0.1,0L103.7,74.8z"/>
	<path class="st5" d="M23.8,24.9l-4.9,13.8 M23.8,24.9"/>
	<path class="st5" d="M18.7,43L86,76.9 M18.7,43"/>
	<path class="st5" d="M18.6,41.1l9-2.3 M18.6,41.1"/>
	<path class="st5" d="M35.7,41.4l47.7,23.3"/>
	<path class="st6" d="M104.1,76.4l-26.9,8.3L3.9,46.1l0-2.1l73.6,39l12.4-4c0,0-5.4-23.9-6.3-26.1c-0.9-2.2-1.1-3.7-7-6.4
		C70.8,43.7,43.4,32.1,40,30.6c-3.4-1.5-12.2-5.9-14.2-6.1c-1.3-0.1-2,0.1-2.7,0.9c0.5-0.8,2-2.5,4-2.1c1.6,0.3,48,20.3,51.5,21.9
		c3.4,1.6,6.2,3.1,7.5,8.1c0.6,2.4,2.1,8.1,3.4,13.5c0.1,0.3,0.1,0.5,0.2,0.7c0,0.1,0,0.1,0,0.2c1.4,5.6,2.7,10.5,2.7,10.5l11.4-3.5
		L104.1,76.4z"/>
</g>
</svg>
