<?xml version="1.0" encoding="utf-8"?>
<!-- Generator: Adobe Illustrator 21.1.0, SVG Export Plug-In . SVG Version: 6.00 Build 0)  -->
<svg version="1.1" id="Layer_1" xmlns="http://www.w3.org/2000/svg" xmlns:xlink="http://www.w3.org/1999/xlink" x="0px" y="0px"
	 width="108px" height="108px" viewBox="0 0 108 108" style="enable-background:new 0 0 108 108;" xml:space="preserve">
<style type="text/css">
	.st0{fill:#FFFFFF;stroke:#000000;stroke-width:0.75;stroke-linecap:round;stroke-linejoin:round;stroke-miterlimit:10;}
	.st1{fill:#FFFFFF;}
	.st2{fill:#E6E6E6;}
	.st3{fill:#CCCCCC;}
	.st4{fill:none;stroke:#000000;stroke-width:0.75;stroke-linecap:round;stroke-linejoin:round;stroke-miterlimit:10;}
	.st5{fill:#F2F2F2;}
	.st6{fill:none;stroke:#000000;stroke-width:0.5;stroke-linecap:round;stroke-linejoin:round;stroke-miterlimit:10;}
</style>
<g>
	<path class="st0" d="M90.9,86.4c0,0,0.1-29.8-0.3-31.6c-0.4-1.9-0.6-5.2-7.3-7.3c-6.7-2.1-73.6-26-75.7-25.9
		c-2.1,0.1-3.1,0.1-3.9,2c-0.7,1.9-0.6,27.8-0.6,27.8L90.9,86.4L90.9,86.4z"/>
	<path class="st1" d="M90.9,75.4c0-8.7-0.1-19.5-0.3-20.6c-0.4-1.9-0.6-5.2-7.3-7.3c-6.7-2.1-73.6-26-75.7-25.9
		c-2.1,0.1-3.1,0.1-3.9,2c-0.7,1.9-0.6,27.8-0.6,27.8l0.3,0.1c4.3-2.2,9.1-3.4,13.9-4.6C42.1,56.3,66.3,65.8,90.9,75.4z"/>
	<path class="st2" d="M90.9,75.4c-24.7-9.5-48.8-19-73.5-28.5c-3,0.8-6.1,1.5-9,2.5c27.5,11.2,55,21.9,82.5,33.1
		C90.9,80.5,90.9,78.1,90.9,75.4z"/>
	<path class="st3" d="M8.4,49.4c-1.7,0.6-3.4,1.3-4.9,2.1l87.4,34.9c0,0,0-1.5,0-3.9C63.4,71.3,35.9,60.6,8.4,49.4z"/>
	<path class="st4" d="M90.9,86.4c0,0,0.1-29.8-0.3-31.6c-0.4-1.9-0.6-5.2-7.3-7.3c-6.7-2.1-73.6-26-75.7-25.9
		c-2.1,0.1-3.1,0.1-3.9,2c-0.7,1.9-0.6,27.8-0.6,27.8L90.9,86.4L90.9,86.4z"/>
	<path class="st0" d="M3.8,51.1"/>
	<polyline class="st4" points="91.1,75.4 104.8,80.8 90.9,86.4 	"/>
	<path class="st4" d="M91.1,75.4"/>
	<polyline class="st4" points="91.1,75.4 104.8,80.8 90.9,86.4 	"/>
	<path class="st2" d="M90.9,86.4l4.6-1.8c-1.5-0.7-2.9-1.4-4.5-2L90.9,86.4z"/>
	<path class="st5" d="M91.1,75.4L91,82.6c1.6,0.6,3.1,1.3,4.5,2l9.3-3.7L91.1,75.4z"/>
	<polygon class="st4" points="91.1,75.4 104.8,80.8 90.9,86.4 	"/>
	<path class="st0" d="M95.4,84.3"/>
	<g>
		<line class="st6" x1="20.9" y1="48.4" x2="87.3" y2="74"/>
		<polyline class="st6" points="3.8,51.1 8.6,49.4 12.2,48.1 		"/>
		<path class="st6" d="M87.3,80.8L10.3,50 M87.3,80.8"/>
		<line class="st6" x1="95.5" y1="84.3" x2="91.6" y2="82.7"/>
	</g>
</g>
</svg>
