<?xml version="1.0" encoding="utf-8"?>
<!-- Generator: Adobe Illustrator 21.1.0, SVG Export Plug-In . SVG Version: 6.00 Build 0)  -->
<svg version="1.1" id="Layer_1" xmlns="http://www.w3.org/2000/svg" xmlns:xlink="http://www.w3.org/1999/xlink" x="0px" y="0px"
	 width="108px" height="108px" viewBox="0 0 108 108" style="enable-background:new 0 0 108 108;" xml:space="preserve">
<style type="text/css">
	.st0{fill:#FFFFFF;stroke:#000000;stroke-width:0.75;stroke-linecap:round;stroke-linejoin:round;stroke-miterlimit:10;}
	.st1{fill:#FFFFFF;}
	.st2{fill:#E6E6E6;}
	.st3{fill:#CCCCCC;}
	.st4{fill:none;stroke:#000000;stroke-width:0.75;stroke-linecap:round;stroke-linejoin:round;stroke-miterlimit:10;}
	.st5{fill:#F2F2F2;}
	.st6{fill:none;stroke:#000000;stroke-width:0.5;stroke-linecap:round;stroke-linejoin:round;stroke-miterlimit:10;}
</style>
<g>
	<path class="st0" d="M90.9,68.3c0-0.9,0-1.7,0-2.6c0-0.4,0-0.8,0-1.2c0-2,0-3.9-0.1-5.5c0-0.3,0-0.5,0-0.8c0-0.2,0-0.5,0-0.7
		c0-0.2,0-0.5,0-0.7v-0.3c0-0.8-0.1-1.4-0.1-1.8c0-0.1,0-0.1,0-0.2c-0.4-1.9-0.6-5.2-7.3-7.3c-6.7-2.2-73.6-26-75.7-25.9
		c-2.2,0.1-3.2,0.1-3.9,2c-0.7,1.9-0.6,27.8-0.6,27.8l0.3,0.1l87.4,34.9c0,0,0-1.5,0-3.9c0-1.9,0-4.4,0-7.1
		C91,73.1,91,70.7,90.9,68.3z M16.7,48.7c1.2,0,2.2,0.3,2.2,0.7s-1,0.7-2.2,0.7c-1.2,0-2.2-0.3-2.2-0.7S15.5,48.7,16.7,48.7z"/>
	<path class="st1" d="M90.9,75.4c0-8.7-0.1-19.5-0.3-20.6c-0.4-1.9-0.6-5.2-7.3-7.3c-6.7-2.1-73.6-26-75.7-25.9
		c-2.1,0.1-3.1,0.1-3.9,2c-0.7,1.9-0.6,27.8-0.6,27.8l0.3,0.1c4.3-2.2,9.1-3.4,13.9-4.6C42.1,56.3,66.3,65.8,90.9,75.4z"/>
	<path class="st2" d="M81.7,71.8l-0.8-0.3C59.7,63.3,38.8,55,17.4,46.8c-0.4,0.1-0.8,0.2-1.1,0.3c-1.9,0.5-3.8,1-5.6,1.5l-0.2,0.1
		c-0.7,0.2-1.3,0.4-2,0.7c0,0,0,0,0.1,0c27.5,11.2,55,21.9,82.4,33.1c0-1.9,0-4.4,0-7.1C87.9,74.2,84.8,73,81.7,71.8z M16.7,50
		c-1.2,0-2.2-0.3-2.2-0.7s1-0.7,2.2-0.7c1.2,0,2.2,0.3,2.2,0.7S17.9,50,16.7,50z"/>
	<path class="st3" d="M8.4,49.4c-1.7,0.6-3.4,1.3-4.9,2.1l87.4,34.9c0,0,0-1.5,0-3.9C63.4,71.3,35.9,60.6,8.4,49.4z"/>
	<path class="st4" d="M90.9,68.3c0-0.9,0-1.7,0-2.6c0-0.4,0-0.8,0-1.2c0-2,0-3.9-0.1-5.5c0-0.3,0-0.5,0-0.8c0-0.2,0-0.5,0-0.7
		c0-0.2,0-0.5,0-0.7v-0.3c0-0.8-0.1-1.4-0.1-1.8c0-0.1,0-0.1,0-0.2c-0.4-1.9-0.6-5.2-7.3-7.3c-6.7-2.2-73.6-26-75.7-25.9
		c-2.2,0.1-3.2,0.1-3.9,2c-0.7,1.9-0.6,27.8-0.6,27.8l0.3,0.1l87.4,34.9c0,0,0-1.5,0-3.9c0-1.9,0-4.4,0-7.1
		C91,73.1,91,70.7,90.9,68.3z M16.7,48.7c1.2,0,2.2,0.3,2.2,0.7s-1,0.7-2.2,0.7c-1.2,0-2.2-0.3-2.2-0.7S15.5,48.7,16.7,48.7z"/>
	<path class="st0" d="M3.8,51.1"/>
	<polyline class="st4" points="91.1,75.4 104.8,80.8 90.9,86.4 	"/>
	<path class="st4" d="M91.1,75.4"/>
	<polyline class="st4" points="91.1,75.4 104.8,80.8 90.9,86.4 	"/>
	<path class="st2" d="M90.9,86.4l4.6-1.8c-1.5-0.7-2.9-1.4-4.5-2L90.9,86.4z"/>
	<path class="st5" d="M91.1,75.4L91,82.6c1.6,0.6,3.1,1.3,4.5,2l9.3-3.7L91.1,75.4z M96.5,81.6c-1.2,0-2.2-0.3-2.2-0.7
		c0-0.4,1-0.7,2.2-0.7c1.2,0,2.2,0.3,2.2,0.7C98.7,81.3,97.8,81.6,96.5,81.6z"/>
	<path class="st4" d="M91.1,75.4L91,82.6l0,3.8l4.6-1.8l9.3-3.7L91.1,75.4z M96.5,81.6c-1.2,0-2.2-0.3-2.2-0.7c0-0.4,1-0.7,2.2-0.7
		c1.2,0,2.2,0.3,2.2,0.7C98.7,81.3,97.8,81.6,96.5,81.6z"/>
	<path class="st0" d="M95.4,84.3"/>
	<g>
		<line class="st6" x1="20.9" y1="48.4" x2="87.3" y2="74"/>
		<polyline class="st6" points="3.8,51.1 8.6,49.4 12.2,48.1 		"/>
		<path class="st6" d="M87.3,80.8L10.3,50"/>
		<line class="st6" x1="95.5" y1="84.3" x2="91.6" y2="82.7"/>
	</g>
</g>
</svg>
