<?xml version="1.0" encoding="utf-8"?>
<!-- Generator: Adobe Illustrator 21.1.0, SVG Export Plug-In . SVG Version: 6.00 Build 0)  -->
<svg version="1.1" id="Layer_1" xmlns="http://www.w3.org/2000/svg" xmlns:xlink="http://www.w3.org/1999/xlink" x="0px" y="0px"
	 width="108px" height="108px" viewBox="0 0 108 108" style="enable-background:new 0 0 108 108;" xml:space="preserve">
<style type="text/css">
	.st0{fill:#FFFFFF;}
	.st1{fill:#E6E6E6;}
	.st2{fill:none;stroke:#000000;stroke-width:0.75;stroke-linecap:round;stroke-linejoin:round;stroke-miterlimit:10;}
	.st3{fill:#FFFFFF;stroke:#000000;stroke-width:0.5;stroke-linecap:round;stroke-linejoin:round;stroke-miterlimit:10;}
	.st4{fill:#CCCCCC;}
	.st5{fill:#F2F2F2;}
</style>
<g>
	<g>
		<path class="st0" d="M105.5,28.7c-0.8-1.2-2.8-1.3-2.8-1.3l-6.5,7.8c0,0-2.7,0.8-3.3,0.2c-0.6-0.6-3,0.6-3,0.6s-5.2,2-6.3,2
			c-1.1,0-2.3-0.3-3.2,0.6c-0.9,0.9-6.4,1.9-6.4,1.9l-2.5,0.2c0,0-5.8,2-6.8,2c-1.1,0-2.5,0.5-2.5,0.5s-7.6,2.7-8.1,2.1
			c-0.6-0.6-2.7,0-2.7,0.6c0,0.6-7.2,2.1-8,2.1c-0.8,0-3.2,0-3.8,0.5c-0.5,0.5-14.4,4-14.4,4l5.1,2.4C49.6,51.1,74.3,43.9,94.7,39
			C100.4,38.2,103.4,34,105.5,28.7z"/>
		<path class="st1" d="M94.7,39c-20.4,4.9-45.1,12.1-64.4,16.1l1.9,0.9l67.2-16.8c0,0,4.5-3.2,6.1-7.5c0.6-1.4,0.4-2.4,0-3
			C103.4,34,100.4,38.2,94.7,39z"/>
		<path class="st2" d="M29.4,54.7c-1.4-0.7-1.2-2.8,0.3-3.2c4.1-1.1,9.6-2.5,9.9-2.9c0.5-0.5,3-0.5,3.8-0.5c0.8,0,8-1.5,8-2.1
			c0-0.6,2.1-1.2,2.7-0.6c0.6,0.6,8.1-2.1,8.1-2.1s1.4-0.5,2.5-0.5c1.1,0,6.8-2,6.8-2l2.5-0.2c0,0,5.5-1,6.4-1.9
			c0.9-0.9,2.1-0.6,3.2-0.6c1.1,0,6.3-2,6.3-2s2.4-1.2,3-0.6c0.6,0.6,3.3-0.2,3.3-0.2l6.5-7.8c0,0,4.5,0,2.8,4.3
			c-1.7,4.3-6.1,7.5-6.1,7.5L33.5,55.7c-0.9,0.2-1.8,0.1-2.6-0.3L29.4,54.7z"/>
		<g>
			<path class="st3" d="M63.8,43c0,0,0.3,1.6,0.1,2"/>
			<path class="st3" d="M53.1,45.4c0,0,0.3,1.6,0.1,2"/>
			<path class="st3" d="M41.5,48.3c0,0,0.3,1.6,0.1,2"/>
			<path class="st3" d="M72.7,40.7c0,0,0.3,1.6,0.1,2"/>
			<path class="st3" d="M82.9,38.5c0,0,0.3,1.6,0.1,2"/>
			<path class="st3" d="M92,36c0,0,0.3,1.6,0.1,2"/>
		</g>
	</g>
	<g>
		<path class="st0" d="M37.6,53.8c-2.2-1-18.6-8.6-20.1-9.3c-0.7-0.3-1.4-0.6-1.9-0.6c-0.6,0.1-4,0.2-3.8,2c0.2,1.9,2.3,9.6,4,15.7
			c8.2-0.8,16.3-2.6,24.1-5.3C39.8,55.2,39.2,54.5,37.6,53.8z"/>
		<path class="st4" d="M32.1,80.3c0.7,0.4,3-0.6,4-1.5c0.4-0.3,0.7-0.9,0.9-1.9c0.1-0.5,0.2-1.4,0.4-2.4c-2.6,1.9-5.3,3-8.2,3.7
			C30.6,79.4,31.8,80.2,32.1,80.3z"/>
		<path class="st1" d="M40,56.2c-7.8,2.7-15.9,4.5-24.1,5.3c1.3,4.5,2.3,8.1,2.3,8.1c0.2,1.3,0.7,2.1,1.6,2.4
			c0.6,0.2,5.9,3.9,9.3,6.3c2.9-0.7,5.6-1.9,8.2-3.7c0.8-5.2,2.3-15.1,2.6-16.8C40,57.2,40,56.7,40,56.2z"/>
		<path class="st2" d="M18.2,69.6c0.2,1.3,0.7,2.1,1.6,2.4c0.9,0.3,11.3,7.7,12.3,8.3c0.7,0.4,3-0.6,4-1.5c0.4-0.3,0.7-0.9,0.9-1.9
			c0.6-3.3,2.6-17.1,3-19.2c0.3-2.1-0.1-3-2.3-4S19,45.1,17.5,44.5c-0.7-0.3-1.4-0.6-1.9-0.6c-0.6,0.1-4,0.2-3.8,2
			C12.2,49.1,18.2,69.6,18.2,69.6z"/>
		<path class="st0" d="M19.3,56c-2.2,1.5-3.9,1.9-5.4,0.7c0.9,6.6,2.1,14.1,2.1,14.1c0.2,1.3,0.7,2.1,1.6,2.4
			c0.9,0.3,12.1,6,13.1,6.6c1,0.6,3.5,1.7,4-1.6c0.4-2.1,1.3-8.1,2-13C29.8,65.9,21.9,62.4,19.3,56z"/>
		<path class="st5" d="M35.4,55c-2.2-1-18.6-8.6-20.1-9.3c-1.5-0.7-3-1.4-2.6,1.8c0.1,1.2,0.7,5,1.3,9.2c1.5,1.1,3.2,0.7,5.4-0.7
			c2.6,6.4,10.5,9.9,17.4,9.3c0.5-3,0.8-5.4,1-6.2C38,57,37.6,56,35.4,55z"/>
		<path class="st2" d="M16,70.9c0.2,1.3,0.7,2.1,1.6,2.4c0.9,0.3,12.1,6,13.1,6.6s3.5,1.7,4-1.6c0.6-3.3,2.6-17.1,3-19.2
			c0.3-2.1-0.1-3-2.3-4c-2.2-1-18.6-8.6-20.1-9.3c-1.5-0.7-3-1.4-2.6,1.8C13,50.8,16,70.9,16,70.9z"/>
		<g>
			<path class="st0" d="M17,51.7c0.3-0.6,0.3-1.3,0.2-2c-0.2-1.3-0.9-2.5-3.3-2.5c0,0-3.2,0.2-4.7,0.2c-1.5,0-2-1.3-2-2.4
				s0.3-8.9,0.3-13.9s-5.3-4.3-5.3-0.9c0,3.3-0.1,9.3-0.1,15.3c0,0.7,0.1,1.3,0.1,1.8C6.2,51.5,11.4,52.3,17,51.7z"/>
			<path class="st1" d="M2.3,47.3c0.7,4.5,3.7,5.9,5.6,5.9c2.2,0,4.8-0.2,6.8-0.2c1.3,0,2-0.5,2.3-1.2C11.4,52.3,6.2,51.5,2.3,47.3z
				"/>
			<path class="st2" d="M13.9,47.2c2.4,0,3.1,1.2,3.3,2.5c0.3,1.5-0.2,3.2-2.5,3.2c-2,0-4.6,0.2-6.8,0.2s-5.8-1.7-5.8-7.7
				s0.1-12,0.1-15.3c0-3.3,5.3-4.1,5.3,0.9S7.2,43.9,7.2,45s0.5,2.4,2,2.4S13.9,47.2,13.9,47.2z"/>
		</g>
		<g>
			<path class="st0" d="M36.2,60.2c0.3-0.6,0.3-1.3,0.2-2c-0.2-1.3-0.9-2.5-3.3-2.5c0,0-3.2,0.2-4.7,0.2c-1.5,0-2-1.3-2-2.4
				s0.3-8.9,0.3-13.9s-5.3-4.3-5.3-0.9c0,3.3-0.1,9.3-0.1,15.3c0,0.7,0.1,1.3,0.1,1.8C25.4,60,30.6,60.8,36.2,60.2z"/>
			<path class="st1" d="M21.5,55.8c0.7,4.5,3.7,5.9,5.6,5.9c2.2,0,4.8-0.2,6.8-0.2c1.3,0,2-0.5,2.3-1.2C30.6,60.8,25.4,60,21.5,55.8
				z"/>
			<path class="st2" d="M33.1,55.7c2.4,0,3.1,1.2,3.3,2.5c0.3,1.5-0.2,3.2-2.5,3.2c-2,0-4.6,0.2-6.8,0.2s-5.8-1.7-5.8-7.7
				s0.1-12,0.1-15.3c0-3.3,5.3-4.1,5.3,0.9s-0.3,12.8-0.3,13.9c0,1.2,0.5,2.4,2,2.4C29.8,55.9,33.1,55.7,33.1,55.7z"/>
		</g>
	</g>
</g>
</svg>
