<?xml version="1.0" encoding="utf-8"?>
<!-- Generator: Adobe Illustrator 21.1.0, SVG Export Plug-In . SVG Version: 6.00 Build 0)  -->
<svg version="1.1" id="Layer_1" xmlns="http://www.w3.org/2000/svg" xmlns:xlink="http://www.w3.org/1999/xlink" x="0px" y="0px"
	 width="108px" height="108px" viewBox="0 0 108 108" style="enable-background:new 0 0 108 108;" xml:space="preserve">
<style type="text/css">
	.st0{fill:#CCCCCC;stroke:#000000;stroke-width:0.5;stroke-linecap:round;stroke-linejoin:round;stroke-miterlimit:10;}
	.st1{fill:#F2F2F2;stroke:#000000;stroke-width:0.5;stroke-linecap:round;stroke-linejoin:round;stroke-miterlimit:10;}
	.st2{fill:#B3B3B3;stroke:#000000;stroke-width:0.5;stroke-linecap:round;stroke-linejoin:round;stroke-miterlimit:10;}
	.st3{fill:#FFFFFF;stroke:#000000;stroke-width:0.5;stroke-linecap:round;stroke-linejoin:round;stroke-miterlimit:10;}
	.st4{fill:#FFFFFF;}
	.st5{fill:#CCCCCC;}
	.st6{fill:#E6E6E6;}
	.st7{fill:none;stroke:#000000;stroke-width:0.75;stroke-linecap:round;stroke-linejoin:round;stroke-miterlimit:10;}
	.st8{fill:#F2F2F2;}
</style>
<g>
	<g>
		<path class="st0" d="M101.6,35.2c-0.6,0.4-0.9,1.1-1,2.1c-0.1,2.9,1.7,2.7,1.7,2.7s0.3,0,0.8,0C103.6,37.8,103.9,34.7,101.6,35.2z
			"/>
		<path class="st1" d="M105.5,36.6c-0.1-1.6-1.6-1.8-2.6-1.8c-0.5,0-0.9,0.2-1.3,0.4c2.3-0.6,2,2.6,1.6,4.7
			C104.2,39.8,105.6,39.2,105.5,36.6z"/>
		<path class="st2" d="M32.1,58.4c0,0,68.6-16.9,70-17.4s1.1-1.4,1.1-2c0-0.7-9.1,0.9-9.1,0.9L27.9,57.2L32.1,58.4z"/>
		<path class="st3" d="M29.3,57.6c0,0,70.9-17.3,73.2-18s0-2.8-3.2-2.1c-3.2,0.7-74.7,17.8-74.7,17.8L29.3,57.6z"/>
	</g>
	<g>
		<g>
			<g>
				<path class="st4" d="M39.1,51.2c-2.5-0.8-19.8-6.4-21.3-6.9c-0.7-0.2-1.3-0.4-1.8-0.4c-0.6,0-4,0.1-4,1.3
					c0,1.3,1.2,7.3,2.4,12.8c9.8-0.8,19.2-2.4,27.7-4.8C41.7,52.4,40.8,51.8,39.1,51.2z"/>
				<path class="st5" d="M36,80.3c1.2,0.6,3.7-0.9,5-2.1c0.5-0.5,0.8-1.3,0.9-2.6c0-0.7,0.1-1.8,0.1-3.2c-3.3,2.4-7,4-11.1,5
					C33.1,78.9,35.5,80,36,80.3z"/>
				<path class="st6" d="M42,53.3c-8.6,2.4-18,4-27.7,4.8c0.8,3.8,0.8,3.8,1.9,8.4c0.2,1.5,0.7,2.4,1.9,2.8
					c0.8,0.3,7.8,4.9,12.8,8.2c4.1-1,7.8-2.6,11.1-5c0.1-6.2,0.2-16.3,0.3-17.8C42.2,54.1,42.2,53.6,42,53.3z"/>
				<path class="st7" d="M16.2,66.4c0.2,1.5,0.7,2.4,1.9,2.8c1.2,0.4,17.1,9.6,18.7,10.5c1.2,0.6,3-0.3,4.2-1.5
					c0.5-0.5,0.8-1.3,0.9-2.6c0.1-4.3,0.3-19.1,0.3-21c0.1-1.8-0.6-2.5-3.2-3.4c-2.5-0.8-19.8-6.4-21.3-6.9
					c-0.7-0.2-1.3-0.4-1.8-0.4c-0.6,0-3.4,0.4-3.5,1.6C12.4,47.4,12.3,47.2,16.2,66.4z"/>
			</g>
			<g>
				<path class="st4" d="M18.8,53.1c-2.6,1.3-4.6,1.6-6.2,0.6c0.2,6.1-0.1,13.6-0.1,13.6c0.1,1.5,0.6,2.5,1.8,2.9
					c1.2,0.4,17.6,7.9,19.1,8.7c1.6,0.8,5.9,3.1,6.2-1.8c0.2-2.8-0.2-10.2,0-15.4C31.1,62.4,21.4,58.9,18.8,53.1z"/>
				<path class="st8" d="M36.7,52.2c-2.5-0.8-19.9-6.6-21.4-7.1c-1.4-0.5-2.9-0.9-2.9,1.3c0,0.9,0,3.8,0.1,7.2
					c1.6,1,3.5,0.6,6.2-0.6c2.6,5.8,12.2,9.3,20.8,8.6c0.1-2.9,0.2-5.3,0.3-6C40,53.9,39.3,53.1,36.7,52.2z"/>
				<path class="st7" d="M12.5,67.3c0.1,1.5,0.6,2.5,1.8,2.9c1.2,0.4,17.6,7.9,19.1,8.7c1.6,0.8,5.9,3.1,6.2-1.8
					c0.3-4.5,0.1-19.5,0.3-21.4c0.1-1.8-0.5-2.6-3.1-3.5c-2.5-0.8-19.9-6.6-21.4-7.1c-1.4-0.5-2.9-0.9-2.9,1.3
					C12.4,48.8,12.5,67.3,12.5,67.3z"/>
			</g>
		</g>
		<g>
			<path class="st4" d="M17.3,51.8c0.3-0.6,0.3-1.3,0.2-2c-0.2-1.3-0.9-2.5-3.3-2.5c0,0-3.2,0.2-4.7,0.2c-1.5,0-2-1.3-2-2.4
				s0.3-8.9,0.3-13.9s-5.3-4.3-5.3-0.9c0,3.3-0.1,9.3-0.1,15.3c0,0.7,0.1,1.3,0.1,1.8C6.5,51.6,11.7,52.4,17.3,51.8z"/>
			<path class="st6" d="M2.6,47.4c0.7,4.5,3.7,5.9,5.6,5.9c2.2,0,4.8-0.2,6.8-0.2c1.3,0,2-0.5,2.3-1.2C11.7,52.4,6.5,51.6,2.6,47.4z
				"/>
			<path class="st7" d="M14.2,47.3c2.4,0,3.1,1.2,3.3,2.5c0.3,1.5-0.2,3.2-2.5,3.2c-2,0-4.6,0.2-6.8,0.2s-5.8-1.7-5.8-7.7
				s0.1-12,0.1-15.3c0-3.3,5.3-4.1,5.3,0.9S7.5,43.9,7.5,45.1s0.5,2.4,2,2.4S14.2,47.3,14.2,47.3z"/>
		</g>
		<g>
			<path class="st4" d="M36.5,60.2c0.3-0.6,0.3-1.3,0.2-2c-0.2-1.3-0.9-2.5-3.3-2.5c0,0-3.2,0.2-4.7,0.2c-1.5,0-2-1.3-2-2.4
				S27,44.7,27,39.6s-5.3-4.3-5.3-0.9c0,3.3-0.1,9.3-0.1,15.3c0,0.7,0.1,1.3,0.1,1.8C25.7,60,30.9,60.8,36.5,60.2z"/>
			<path class="st6" d="M21.8,55.8c0.7,4.5,3.7,5.9,5.6,5.9c2.2,0,4.8-0.2,6.8-0.2c1.3,0,2-0.5,2.3-1.2C30.9,60.8,25.7,60,21.8,55.8
				z"/>
			<path class="st7" d="M33.4,55.7c2.4,0,3.1,1.2,3.3,2.5c0.3,1.5-0.2,3.2-2.5,3.2c-2,0-4.6,0.2-6.8,0.2S21.6,60,21.6,54
				s0.1-12,0.1-15.3c0-3.3,5.3-4.1,5.3,0.9s-0.3,12.8-0.3,13.9c0,1.2,0.5,2.4,2,2.4C30.1,55.9,33.4,55.7,33.4,55.7z"/>
		</g>
	</g>
</g>
</svg>
