<?xml version="1.0" encoding="utf-8"?>
<!-- Generator: Adobe Illustrator 21.1.0, SVG Export Plug-In . SVG Version: 6.00 Build 0)  -->
<svg version="1.1" id="Layer_1" xmlns="http://www.w3.org/2000/svg" xmlns:xlink="http://www.w3.org/1999/xlink" x="0px" y="0px"
	 width="108px" height="108px" viewBox="0 0 108 108" style="enable-background:new 0 0 108 108;" xml:space="preserve">
<style type="text/css">
	.st0{fill:#E6E6E6;}
	.st1{fill:#FFFFFF;}
	.st2{fill:none;stroke:#000000;stroke-width:0.75;stroke-linecap:round;stroke-linejoin:round;stroke-miterlimit:10;}
	.st3{fill:none;stroke:#000000;stroke-width:0.5;stroke-linecap:round;stroke-linejoin:round;stroke-miterlimit:10;}
	.st4{fill:#CCCCCC;}
	.st5{fill:#F2F2F2;}
</style>
<g>
	<g>
		<path class="st0" d="M88.7,36.5c0.9-0.2,1.8-0.5,2.7-0.7c1.7-0.5,2.8-2.1,4.3-3.3C71,40.2,45.6,44.1,21,50.4l1.9,1
			c0,0,41.9-9.1,59.9-13.2C85.4,37.6,87.3,37,88.7,36.5z"/>
		<path class="st1" d="M107,33.3c-0.3-1.7-1-3.3-2.2-4.7c-2.7-3.1-9.1-2.4-11.9,0.1c-1.3,1.2-2.6,2.2-3.8,2.8
			c-1.1,0.6-4.6,1.9-5,1.9c-2.1,0.3-2-0.5-3.1,0.6c-1.2,1-5.3,1.4-7,1.7s-3-0.6-3.9,0.6s-4.8,1.3-6.4,1.7c-1.6,0.5-3.2-0.3-3.8,0.5
			c-0.6,0.8-5.6,1.5-7.1,1.7c-1.5,0.2-2.4-0.7-3.4,0.3c-0.9,1-6.1,1.6-7.9,2c-1.7,0.3-2.4-0.3-3.4,0.7c-0.9,1-5.1,1.3-6.5,1.5
			c-1.4,0.2-2.1-0.3-3.2,0.7c-1.2,1-12.2,2.3-12.2,2.3l4.7,2.5c24.6-6.2,50-10.2,74.7-17.8c1-0.8,2.3-1.5,4-1.3c0.1,0,0.1,0,0.2,0
			c4.3,0.6,2.8,5.6,0.1,7.1c-1.2,0.7-2.7,1.2-4,1.7c-1.7,0.3-1.7-0.4-2.7,0.6c-1.1,1-5.1,1.4-6.6,1.8c-1.5,0.4-2.9-0.5-3.8,0.6
			c-0.9,1.1-4.5,1.3-6.1,1.8c-1.5,0.5-3.1-0.3-3.7,0.5c-0.5,0.8-5.3,1.6-6.7,1.8c-1.4,0.3-2.3-0.6-3.2,0.4c-0.9,1-5.9,1.7-7.5,2.1
			c-1.7,0.4-2.3-0.3-3.2,0.7c-0.9,1-4.9,1.3-6.2,1.6c-1.3,0.3-2-0.3-3.1,0.7c-1.1,1-11.6,2.5-11.6,2.5l4.1,2.1
			c21.8-5,43.9-10.1,65-15.8C103.8,39.5,105.1,36.8,107,33.3z"/>
		<path class="st0" d="M105.2,39.9C105.2,39.9,105.2,39.9,105.2,39.9c-0.2,0.2-1,1.2-1.8,1.8c-1.1,0.7-2.3,1.1-2.7,1.2
			c-3.3,1.4-6.8,2-6.8,2l0-0.1C76,49.2,37.9,58.4,37.9,58.4l-2.3-1.1c21.8-5,43.9-10.1,65-15.8c3.2-2,4.5-4.7,6.4-8.1
			C107.3,35.6,106.8,37.9,105.2,39.9z"/>
		<path class="st2" d="M104.8,28.6c-2.7-3.1-9.1-2.4-11.9,0.1c-1.3,1.2-2.6,2.2-3.8,2.8c-1.1,0.6-4.6,1.9-5,1.9
			c-2.1,0.3-2-0.5-3.1,0.6s-5.3,1.4-7,1.7c-1.6,0.3-3-0.6-3.9,0.6s-4.8,1.3-6.4,1.7c-1.6,0.5-3.2-0.3-3.8,0.5
			c-0.6,0.8-5.6,1.5-7.1,1.7c-1.5,0.2-2.4-0.7-3.4,0.3c-0.9,1-6.1,1.6-7.9,2c-1.7,0.3-2.4-0.3-3.4,0.7c-0.9,1-5.1,1.3-6.5,1.5
			c-1.4,0.2-2.1-0.3-3.2,0.7s-12.2,2.3-12.2,2.3l6.6,3.5c0,0,41.9-9.1,59.9-13.2c2.6-0.6,4.5-1.2,5.9-1.6c0.9-0.2,1.8-0.5,2.7-0.7
			c3-0.9,4.2-5.1,8.5-4.5c4.3,0.6,2.8,5.6,0.1,7.1c-1.2,0.7-2.7,1.2-4,1.7c-1.7,0.3-1.7-0.4-2.7,0.6c-1.1,1-5.1,1.4-6.6,1.8
			c-1.5,0.4-2.9-0.5-3.8,0.6c-0.9,1.1-4.5,1.3-6.1,1.8c-1.5,0.5-3.1-0.3-3.7,0.5c-0.5,0.8-5.3,1.6-6.7,1.8c-1.4,0.3-2.3-0.6-3.2,0.4
			c-0.9,1-5.9,1.7-7.5,2.1c-1.7,0.4-2.3-0.3-3.2,0.7c-0.9,1-4.9,1.3-6.2,1.6c-1.3,0.3-2-0.3-3.1,0.7c-1.1,1-11.6,2.5-11.6,2.5
			l6.4,3.2c0,0,38.1-9.2,55.9-13.6l0,0.1c0,0,3.5-0.6,6.8-2c0.4-0.1,1.6-0.4,2.7-1.2c0.9-0.6,1.8-1.7,1.8-1.8
			C108.1,36.4,107.5,31.8,104.8,28.6z"/>
		<g>
			<path class="st3" d="M44.7,52.2c1,0.2,1.2,1.3,1.1,1.8"/>
			<path class="st3" d="M54.4,49.8c1,0.2,1.2,1.3,1.1,1.8"/>
			<path class="st3" d="M64.8,47c1,0.2,1.2,1.3,1.1,1.8"/>
			<path class="st3" d="M74.5,44.9c1,0.2,1.2,1.3,1.1,1.8"/>
			<path class="st3" d="M84.2,42.5c1,0.2,1.2,1.3,1.1,1.8"/>
			<path class="st3" d="M94.6,40c1,0.2,1.2,1.3,1.1,1.8"/>
			<path class="st3" d="M29.7,44.9c0.9,0.4,0.9,1.5,0.7,2"/>
			<path class="st3" d="M39.7,42.8c0.9,0.4,0.9,1.5,0.7,2"/>
			<path class="st3" d="M50.9,40.5c0.9,0.4,0.9,1.5,0.7,2"/>
			<path class="st3" d="M61.4,38c0.9,0.4,0.9,1.5,0.7,2"/>
			<path class="st3" d="M71.7,35.9c0.9,0.4,0.9,1.5,0.7,2"/>
			<path class="st3" d="M81.9,33.6c0.9,0.4,0.9,1.5,0.7,2"/>
		</g>
	</g>
	<g>
		<path class="st1" d="M36.4,54.7c-2.2-1-18.6-8.6-20.1-9.3c-0.7-0.3-1.4-0.6-1.9-0.6c-0.6,0.1-4,0.2-3.8,2c0.2,1.9,2.3,9.6,4,15.7
			c8.2-0.8,16.3-2.6,24.1-5.3C38.6,56.1,37.9,55.4,36.4,54.7z"/>
		<path class="st4" d="M30.8,81.3c0.7,0.4,3-0.6,4-1.5c0.4-0.3,0.7-0.9,0.9-1.9c0.1-0.5,0.2-1.4,0.4-2.4c-2.6,1.9-5.3,3-8.2,3.7
			C29.4,80.3,30.5,81.1,30.8,81.3z"/>
		<path class="st0" d="M38.7,57.2c-7.8,2.7-15.9,4.5-24.1,5.3c1.3,4.5,2.3,8.1,2.3,8.1c0.2,1.3,0.7,2.1,1.6,2.4
			c0.6,0.2,5.9,3.9,9.3,6.3c2.9-0.7,5.6-1.9,8.2-3.7c0.8-5.2,2.3-15.1,2.6-16.8C38.8,58.1,38.8,57.6,38.7,57.2z"/>
		<path class="st2" d="M16.9,70.6c0.2,1.3,0.7,2.1,1.6,2.4c0.9,0.3,11.3,7.7,12.3,8.3c0.7,0.4,3-0.6,4-1.5c0.4-0.3,0.7-0.9,0.9-1.9
			c0.6-3.3,2.6-17.1,3-19.2c0.3-2.1-0.1-3-2.3-4c-2.2-1-18.6-8.6-20.1-9.3c-0.7-0.3-1.4-0.6-1.9-0.6c-0.6,0.1-4,0.2-3.8,2
			C10.9,50,16.9,70.6,16.9,70.6z"/>
		<path class="st1" d="M18.1,56.9c-2.2,1.5-3.9,1.9-5.4,0.7c0.9,6.6,2.1,14.1,2.1,14.1c0.2,1.3,0.7,2.1,1.6,2.4
			c0.9,0.3,12.1,6,13.1,6.6c1,0.6,3.5,1.7,4-1.6c0.4-2.1,1.3-8.1,2-13C28.5,66.9,20.6,63.3,18.1,56.9z"/>
		<path class="st5" d="M34.1,55.9c-2.2-1-18.6-8.6-20.1-9.3c-1.5-0.7-3-1.4-2.6,1.8c0.1,1.2,0.7,5,1.3,9.2c1.5,1.1,3.2,0.7,5.4-0.7
			c2.6,6.4,10.5,9.9,17.4,9.3c0.5-3,0.8-5.4,1-6.2C36.8,57.9,36.3,57,34.1,55.9z"/>
		<path class="st2" d="M14.7,71.8c0.2,1.3,0.7,2.1,1.6,2.4s12.1,6,13.1,6.6c1,0.6,3.5,1.7,4-1.6c0.6-3.3,2.6-17.1,3-19.2
			c0.3-2.1-0.1-3-2.3-4c-2.2-1-18.6-8.6-20.1-9.3c-1.5-0.7-3-1.4-2.6,1.8S14.7,71.8,14.7,71.8z"/>
		<g>
			<path class="st1" d="M15.7,52.7c0.3-0.6,0.3-1.3,0.2-2c-0.2-1.3-0.9-2.5-3.3-2.5c0,0-3.2,0.2-4.7,0.2c-1.5,0-2-1.3-2-2.4
				S6.3,37.1,6.3,32S1,27.8,1,31.1c0,3.3-0.1,9.3-0.1,15.3c0,0.7,0.1,1.3,0.1,1.8C5,52.5,10.2,53.3,15.7,52.7z"/>
			<path class="st0" d="M1,48.3c0.7,4.5,3.7,5.9,5.6,5.9c2.2,0,4.8-0.2,6.8-0.2c1.3,0,2-0.5,2.3-1.2C10.2,53.3,5,52.5,1,48.3z"/>
			<path class="st2" d="M12.6,48.2c2.4,0,3.1,1.2,3.3,2.5c0.3,1.5-0.2,3.2-2.5,3.2c-2,0-4.6,0.2-6.8,0.2s-5.8-1.7-5.8-7.7
				S1,34.5,1,31.1S6.3,27,6.3,32C6.3,37.1,6,44.8,6,46c0,1.2,0.5,2.4,2,2.4S12.6,48.2,12.6,48.2z"/>
		</g>
		<g>
			<path class="st1" d="M34.9,61.1c0.3-0.6,0.3-1.3,0.2-2c-0.2-1.3-0.9-2.5-3.3-2.5c0,0-3.2,0.2-4.7,0.2c-1.5,0-2-1.3-2-2.4
				s0.3-8.9,0.3-13.9s-5.3-4.3-5.3-0.9c0,3.3-0.1,9.3-0.1,15.3c0,0.7,0.1,1.3,0.1,1.8C24.1,60.9,29.3,61.7,34.9,61.1z"/>
			<path class="st0" d="M20.2,56.7c0.7,4.5,3.7,5.9,5.6,5.9c2.2,0,4.8-0.2,6.8-0.2c1.3,0,2-0.5,2.3-1.2
				C29.3,61.7,24.1,60.9,20.2,56.7z"/>
			<path class="st2" d="M31.8,56.6c2.4,0,3.1,1.2,3.3,2.5c0.3,1.5-0.2,3.2-2.5,3.2c-2,0-4.6,0.2-6.8,0.2s-5.8-1.7-5.8-7.7
				s0.1-12,0.1-15.3c0-3.3,5.3-4.1,5.3,0.9s-0.3,12.8-0.3,13.9c0,1.2,0.5,2.4,2,2.4C28.6,56.8,31.8,56.6,31.8,56.6z"/>
		</g>
	</g>
</g>
</svg>
