<?xml version="1.0" encoding="utf-8"?>
<!-- Generator: Adobe Illustrator 21.1.0, SVG Export Plug-In . SVG Version: 6.00 Build 0)  -->
<svg version="1.1" id="Layer_1" xmlns="http://www.w3.org/2000/svg" xmlns:xlink="http://www.w3.org/1999/xlink" x="0px" y="0px"
	 width="108px" height="108px" viewBox="0 0 108 108" style="enable-background:new 0 0 108 108;" xml:space="preserve">
<style type="text/css">
	.st0{fill:#FFFFFF;stroke:#000000;stroke-width:0.75;stroke-linecap:round;stroke-linejoin:round;stroke-miterlimit:10;}
	.st1{fill:#E6E6E6;stroke:#000000;stroke-width:0.75;stroke-linecap:round;stroke-linejoin:round;stroke-miterlimit:10;}
	.st2{fill:#FFFFFF;}
	.st3{fill:#CCCCCC;}
	.st4{fill:none;stroke:#000000;stroke-width:0.75;stroke-linecap:round;stroke-linejoin:round;stroke-miterlimit:10;}
	.st5{fill:#F2F2F2;stroke:#000000;stroke-width:0.75;stroke-linecap:round;stroke-linejoin:round;stroke-miterlimit:10;}
	.st6{fill:#CCCCCC;stroke:#000000;stroke-width:0.75;stroke-linecap:round;stroke-linejoin:round;stroke-miterlimit:10;}
</style>
<g>
	<g>
		<path class="st0" d="M21.1,67c0,0,0-4.7,4.6-5.5c4.6-0.8,66.5-15.7,69.2-16.3c2.7-0.5,3.5-2.6,4.2-4c0.7-1.5,1.1-2.6,1.3-3.6
			c0.3-1.1,1.5-2.4,0.3-2.7c-1.2-0.3-3.8-0.7-4.4,1.9c-0.5,1.7-0.3,3.6-4.8,4.7C86.8,42.5,25.2,56.9,24,57.3c-1.2,0.4-3-1.2-3.2-6
			C20,56,21.1,67,21.1,67z"/>
		<path class="st1" d="M23.1,67.6c0,0,0-4.7,4.6-5.5c4.6-0.8,66.5-15.7,69.2-16.3c2.7-0.5,3.5-2.5,4.2-4c0.7-1.5,1.1-2.6,1.3-3.6
			c0.3-1.1,0.1-3-1.1-3.2c-1.2-0.3-2.7,0.7-3.1,2.4c-0.4,1.7-0.3,3.6-4.8,4.7C88.8,43.2,27.2,57.6,26,58c-1.2,0.4-3.5,0.5-3.7-4.3
			C21.6,58.4,23.1,67.6,23.1,67.6z"/>
	</g>
	<g>
		<g>
			<path class="st2" d="M22.2,50l-13-4.1c-1.2,0-1.7,0.6-1.7,0.6s1.4,3.6,3.4,8.3c4.3-1.3,9.2-2,13.1-3.4C23.5,50.4,22.2,50,22.2,50
				z"/>
			<path class="st3" d="M24,51.5c-3.9,1.3-8.8,2.1-13.1,3.4c4,9.7,10.5,23.7,11.3,23.5c1-0.3,2.4-0.5,2.3-3.4
				c-0.1-2.9-0.3-20.8-0.3-22.5C24.2,52,24.1,51.7,24,51.5z"/>
			<path class="st4" d="M22.2,78.3c1-0.3,2.4-0.5,2.3-3.4c-0.1-2.9-0.3-20.8-0.3-22.5c0-1.8-1.9-2.4-1.9-2.4l-13-4.1
				c-1.2,0-1.7,0.6-1.7,0.6S21,78.6,22.2,78.3z"/>
			<path class="st5" d="M21.7,51.1c0.5,0.2,0.9,0.6,0.9,1.2c0,4.2,0.2,21.3,0.3,24c0.1,3.1-1.6,2-2.8,1.5S9.5,73.5,8.5,73.1
				c-0.9-0.4-1.3-1.2-1.3-2.7c0-1.5,0.1-11.3,0.1-11.3l0.1-12.6L21.7,51.1z"/>
		</g>
		<g>
			<polygon class="st0" points="19.5,50.4 17,51.5 9.4,48.9 11.4,47.8 			"/>
			<path class="st0" d="M17,68.9c-0.1,0.3-0.1,0.5-0.2,0.7c-0.1,0.2-0.2,0.4-0.3,0.6c0,0.1-0.1,0.1-0.2,0.2
				c-0.1,0.1-0.2,0.2-0.3,0.3c-0.1,0-0.1,0.1-0.2,0.1c-0.1,0-0.1,0.1-0.2,0.1c-0.2,0.1-0.4,0.2-0.6,0.3c-0.1,0-0.1,0-0.2,0
				c-0.1,0-0.1,0-0.1,0l-6.9-2.7c0,0,0.5-0.4,0.7-0.8c0.3-0.4,0.7-0.4,0.5-2.1C8.9,64,7.6,52.5,7.6,52.5l0,0l1.7,0.7l0-1.8l-0.2,0.1
				l0.2-2.6l7.6,2.6l0.2,4.6l1.3,0.6c0,0,0,0,0,0.1"/>
			<polygon class="st0" points="9.4,53.2 7.6,52.5 9.1,52.9 9.2,51.5 9.2,51.5 9.4,51.4 			"/>
			<polygon class="st0" points="14.8,72.8 8,70 7.9,68.6 8.4,68.8 14.8,71.3 			"/>
			<path class="st0" d="M15.7,71c-0.2,0.1-0.4,0.2-0.6,0.3C15.2,71.2,15.4,71.1,15.7,71z"/>
			<path class="st6" d="M18.5,56.7l1.4-0.6c0,0-1,10.3-1.6,13.7c-0.6,3.5-3.4,3-3.4,3l0-1.6c0,0,0,0,0.1,0c0.1,0,0.1,0,0.2,0
				c0.2,0,0.4-0.1,0.6-0.3c0.1,0,0.1-0.1,0.2-0.1c0.1,0,0.1-0.1,0.2-0.1c0.1-0.1,0.2-0.2,0.3-0.3c0.1-0.1,0.1-0.1,0.2-0.2
				c0.1-0.2,0.2-0.4,0.3-0.6c0.1-0.2,0.2-0.4,0.2-0.7L18.5,56.7z"/>
			<path class="st0" d="M15.7,71c-0.2,0.1-0.4,0.2-0.6,0.3C15.2,71.2,15.4,71.1,15.7,71z"/>
			<polygon class="st1" points="9.4,51.4 9.4,53.2 7.6,52.5 9.2,51.5 9.2,51.5 			"/>
			<polygon class="st1" points="19.9,56 18.5,56.7 17.2,56.1 17,51.5 19.5,50.4 19.4,53.6 18.5,53.9 18.5,55.4 			"/>
		</g>
	</g>
</g>
</svg>
