<?xml version="1.0" encoding="utf-8"?>
<!-- Generator: Adobe Illustrator 21.1.0, SVG Export Plug-In . SVG Version: 6.00 Build 0)  -->
<svg version="1.1" id="Layer_1" xmlns="http://www.w3.org/2000/svg" xmlns:xlink="http://www.w3.org/1999/xlink" x="0px" y="0px"
	 width="108px" height="108px" viewBox="0 0 108 108" style="enable-background:new 0 0 108 108;" xml:space="preserve">
<style type="text/css">
	.st0{fill:#FFFFFF;stroke:#000000;stroke-width:0.75;stroke-linecap:round;stroke-linejoin:round;stroke-miterlimit:10;}
	.st1{fill:#E6E6E6;stroke:#000000;stroke-width:0.75;stroke-linecap:round;stroke-linejoin:round;stroke-miterlimit:10;}
	.st2{fill:#F2F2F2;stroke:#000000;stroke-width:0.75;stroke-linecap:round;stroke-linejoin:round;stroke-miterlimit:10;}
	.st3{fill:#CCCCCC;stroke:#000000;stroke-width:0.75;stroke-linecap:round;stroke-linejoin:round;stroke-miterlimit:10;}
	.st4{fill:#FFFFFF;stroke:#000000;stroke-width:0.5;stroke-linecap:round;stroke-linejoin:round;stroke-miterlimit:10;}
	.st5{fill:#CCCCCC;stroke:#000000;stroke-width:0.5;stroke-linecap:round;stroke-linejoin:round;stroke-miterlimit:10;}
</style>
<g>
	<g>
		<path class="st0" d="M21.1,67c0,0,0-4.7,4.6-5.5c4.6-0.8,66.5-15.7,69.2-16.3c2.7-0.5,3.5-2.6,4.2-4c0.7-1.5,1.1-2.6,1.3-3.6
			c0.3-1.1,1.5-2.4,0.3-2.7c-1.2-0.3-3.8-0.7-4.4,1.9c-0.5,1.7-0.3,3.6-4.8,4.7C86.8,42.5,25.2,56.9,24,57.3c-1.2,0.4-3-1.2-3.2-6
			C20,56,21.1,67,21.1,67z"/>
		<path class="st1" d="M23.1,67.6c0,0,0-4.7,4.6-5.5c4.6-0.8,66.5-15.7,69.2-16.3c2.7-0.5,3.5-2.5,4.2-4c0.7-1.5,1.1-2.6,1.3-3.6
			c0.3-1.1,0.1-3-1.1-3.2c-1.2-0.3-2.7,0.7-3.1,2.4c-0.4,1.7-0.3,3.6-4.8,4.7C88.8,43.2,27.2,57.6,26,58c-1.2,0.4-3.5,0.5-3.7-4.3
			C21.6,58.4,23.1,67.6,23.1,67.6z"/>
	</g>
	<g>
		<path class="st2" d="M21.9,73.3c-1.6,0-7.7-2.6-9.3-3.4c-1.6-0.8-2.1-1.5-2.1-3.8c0-2.3-0.9-19.8-0.9-19.8
			c1.8,0.5,12.5,3.8,12.6,5C22.4,53.6,21.9,73.3,21.9,73.3z"/>
		<path class="st3" d="M20,51.6c0-1.7,2.3-1.7,2.3,0.5c0,2.3,1.2,17.6,1.2,19.5c0,1.9-2.3,2.4-2.3,0.3C21.2,69.8,20,51.6,20,51.6z"
			/>
		<polygon class="st0" points="17.6,42.5 15.8,43.3 11.5,41.8 9.6,41.1 6.6,40 8.2,39.3 		"/>
		<polygon class="st3" points="17.6,42.5 16.5,67.8 14.9,68.8 15.8,43.3 		"/>
		<polygon class="st2" points="15.8,43.3 14.9,68.8 5.6,64.8 6.6,40 9.6,41.1 11.5,41.8 		"/>
		<g>
			<polygon class="st4" points="12.9,42.3 10.6,64.8 7.4,63.5 9.6,41.1 11.5,41.8 			"/>
			<polygon class="st5" points="12.9,42.3 12,64.2 10.6,64.8 			"/>
		</g>
	</g>
</g>
</svg>
