<?xml version="1.0" encoding="utf-8"?>
<!-- Generator: Adobe Illustrator 21.1.0, SVG Export Plug-In . SVG Version: 6.00 Build 0)  -->
<svg version="1.1" id="Layer_1" xmlns="http://www.w3.org/2000/svg" xmlns:xlink="http://www.w3.org/1999/xlink" x="0px" y="0px"
	 width="108px" height="108px" viewBox="0 0 108 108" style="enable-background:new 0 0 108 108;" xml:space="preserve">
<style type="text/css">
	.st0{fill:#FFFFFF;stroke:#000000;stroke-width:0.75;stroke-linecap:round;stroke-linejoin:round;stroke-miterlimit:10;}
	.st1{fill:#E6E6E6;stroke:#000000;stroke-width:0.75;stroke-linecap:round;stroke-linejoin:round;stroke-miterlimit:10;}
	.st2{fill:#F2F2F2;}
	.st3{fill:#FFFFFF;}
	.st4{fill:none;stroke:#000000;stroke-width:0.75;stroke-linecap:round;stroke-linejoin:round;stroke-miterlimit:10;}
	.st5{fill:#CCCCCC;stroke:#000000;stroke-width:0.75;stroke-linecap:round;stroke-linejoin:round;stroke-miterlimit:10;}
	.st6{fill:#E6E6E6;}
	.st7{fill:#808080;stroke:#000000;stroke-width:0.75;stroke-linecap:round;stroke-linejoin:round;stroke-miterlimit:10;}
	.st8{fill:#F2F2F2;stroke:#000000;stroke-width:0.75;stroke-linecap:round;stroke-linejoin:round;stroke-miterlimit:10;}
</style>
<g>
	<g>
		<path class="st0" d="M22.7,64.8c0,0,0-4.7,4.6-5.5c4.6-0.8,66.5-15.7,69.2-16.3c2.7-0.5,3.5-2.6,4.2-4c0.7-1.5,1.1-2.6,1.3-3.6
			c0.3-1.1,1.5-2.4,0.3-2.7c-1.2-0.3-3.8-0.7-4.4,1.9c-0.5,1.7-0.3,3.6-4.8,4.7c-4.6,1.1-66.1,15.4-67.3,15.8c-1.2,0.4-3-1.2-3.2-6
			C21.7,53.8,22.7,64.8,22.7,64.8z"/>
		<path class="st1" d="M24.7,65.4c0,0,0-4.7,4.6-5.5c4.6-0.8,66.5-15.7,69.2-16.3c2.7-0.5,3.5-2.5,4.2-4c0.7-1.5,1.1-2.6,1.3-3.6
			c0.3-1.1,0.1-3-1.1-3.2c-1.2-0.3-2.7,0.7-3.1,2.4c-0.4,1.7-0.3,3.6-4.8,4.7C90.4,41,28.9,55.3,27.7,55.8c-1.2,0.4-3.5,0.5-3.7-4.3
			C23.2,56.1,24.7,65.4,24.7,65.4z"/>
	</g>
	<g>
		<g>
			<path class="st2" d="M18.3,65.2c5.6-3.7-0.2-10.1,2.4-15.9c0,0-0.1,0-0.1-0.1c-1.2-0.5-2.5-1-3.8-1.4c-0.6-0.3-1.3-0.5-1.9-0.7
				c-0.3-0.1-0.6-0.2-0.9-0.3c-1.4-0.5-2.6-0.9-3-1c0,0-0.1,8-0.2,14.3c0,0.5,0,0.9,0,1.3c0,0.3,0,0.5,0,0.7c0,1.1,0,2,0,2.8
				C12.8,66.6,15.9,67,18.3,65.2z"/>
			<path class="st3" d="M25.3,51.8c0-0.2-0.5-0.6-1.3-1c-0.4-0.2-0.9-0.5-1.5-0.7c-0.6-0.3-1.2-0.5-1.9-0.8
				c-2.5,5.7,3.3,12.1-2.4,15.9c-2.4,1.8-5.5,1.4-7.6-0.2c0,1.2,0,2,0,2.4c0,2.3,0.5,2.9,2.1,3.7c1.6,0.8,9.4,4.4,11,4.4v0
				C23.9,74.9,25.6,54,25.3,51.8z"/>
			<path class="st4" d="M23.9,75.5L23.9,75.5c-1.6,0-9.5-3.6-11-4.4c-1.6-0.8-2.1-1.5-2.1-3.7c0-0.6,0-2.7,0-5.2c0-0.2,0-0.5,0-0.7
				c0-0.4,0-0.9,0-1.3c0.1-6.3,0.2-14.3,0.2-14.3c0.4,0.1,1.6,0.5,3,1c0.3,0.1,0.6,0.2,0.9,0.3c0.6,0.2,1.2,0.4,1.9,0.7
				c1.3,0.5,2.6,1,3.8,1.4c0.7,0.3,1.4,0.6,2,0.9c0.6,0.3,1.1,0.5,1.5,0.7c0.8,0.4,1.2,0.7,1.3,1C25.6,54,23.9,74.9,23.9,75.5z"/>
			<path class="st5" d="M23.2,52.1c0-1.7,2.3-1.7,2.3,0.5c0,2.3,0,19.4,0,21.3c0,1.9-2.3,2.4-2.3,0.3C23.2,72,23.2,52.1,23.2,52.1z"
				/>
		</g>
		<g>
			<path class="st3" d="M18.2,44.1l4.4,2.5c0.3-2.4-2.2-3.9-4.7-4.5c-2.5-0.6-5.1-1.6-6.4-1.6c-2.6,0-4.1,1.9-4.2,4.4
				c2.7,0.8,5.3,1.7,8,2.7C15.8,44.6,18.2,44.1,18.2,44.1z"/>
			<path class="st2" d="M16,53c-0.8-2.4-0.9-4.1-0.7-5.4c-2.7-1-5.3-1.9-8-2.7c0,0.6,0,1.3,0.2,1.9c0.8,3.5,1.6,6.7,1.7,8.7
				c0,0.2,0,0.5,0,0.7c2.6,0.8,5.2,1.8,7.9,2.9C17.3,56.7,16.8,55.4,16,53z"/>
			<path class="st6" d="M9.3,56.2c0,1.7-0.6,3.2-5.1,1.2l0.1,1.9c2.8,1.5,12.1,4.3,12.6,1.1c0.1-0.4,0.1-0.9,0.2-1.2
				C14.5,58,11.9,57,9.3,56.2z"/>
			<path class="st4" d="M4.2,57.4l0.1,1.9c2.8,1.5,12.1,4.3,12.6,1.1c0.5-3.2,0-4.5-0.9-7.3c-2.6-7.8,2.1-8.9,2.1-8.9l4.4,2.5
				c0.3-2.4-2.2-3.9-4.7-4.5c-2.5-0.6-5.1-1.6-6.4-1.6c-3.2,0-4.8,2.9-4,6.4c0.8,3.5,1.6,6.7,1.7,8.7C9.4,57.5,9.2,59.7,4.2,57.4z"
				/>
			<path class="st7" d="M20.6,49.3c-1.2-0.5-2.5-1-3.8-1.4c0.2-2.2,2.2-3.2,3.8-0.9C21,47.6,20.6,49.1,20.6,49.3z"/>
			<path class="st5" d="M22.6,50.1l-2-0.8c0,0,0,0,0,0c0.1-0.2,0.5-1.6,0-2.4c-1.5-2.3-3.6-1.3-3.8,0.9c0,0.3,0,0.7,0.1,1.1
				c0.5,2.9,2.3,9.1,1.7,12.3c-0.5,3.1-5,2.4-7.8,1c-0.1,0-0.1-0.1-0.2-0.1l0.1-0.7l0.1-1.3l0.1-0.5c5.1,2.3,5.2,0.1,5.1-1.9
				c-0.1-2-0.9-5.2-1.7-8.7c-0.2-0.8-0.2-1.5-0.2-2.2c0.2-2.4,1.7-4.2,4.2-4.2c0.8,0,1.6,0.1,2.2,0.4c0,0,0,0,0,0
				C22.4,44,23.5,46.2,22.6,50.1z"/>
		</g>
		<polygon class="st8" points="3.9,57.4 10.8,59.4 10.8,61.9 3.9,59.5 		"/>
	</g>
</g>
</svg>
