<?xml version="1.0" encoding="utf-8"?>
<!-- Generator: Adobe Illustrator 22.1.0, SVG Export Plug-In . SVG Version: 6.00 Build 0)  -->
<svg version="1.1" id="Layer_1" xmlns="http://www.w3.org/2000/svg" xmlns:xlink="http://www.w3.org/1999/xlink" x="0px" y="0px"
	 width="108px" height="108px" viewBox="0 0 108 108" style="enable-background:new 0 0 108 108;" xml:space="preserve">
<style type="text/css">
	.st0{fill:#FFFFFF;stroke:#000000;stroke-width:0.75;stroke-linecap:round;stroke-linejoin:round;stroke-miterlimit:10;}
	.st1{fill:#FFFFFF;stroke:#000000;stroke-width:0.5;stroke-linecap:round;stroke-linejoin:round;stroke-miterlimit:10;}
	.st2{fill:#F2F2F2;stroke:#000000;stroke-width:0.5;stroke-linecap:round;stroke-linejoin:round;stroke-miterlimit:10;}
	.st3{fill:#E6E6E6;stroke:#000000;stroke-width:0.5;stroke-linecap:round;stroke-linejoin:round;stroke-miterlimit:10;}
	.st4{fill:#CCCCCC;stroke:#000000;stroke-width:0.75;stroke-linecap:round;stroke-linejoin:round;stroke-miterlimit:10;}
	.st5{fill:#F2F2F2;}
	.st6{fill:#FFFFFF;}
	.st7{fill:none;stroke:#000000;stroke-width:0.75;stroke-linecap:round;stroke-linejoin:round;stroke-miterlimit:10;}
	.st8{fill:#E6E6E6;}
	.st9{fill:#808080;stroke:#000000;stroke-width:0.75;stroke-linecap:round;stroke-linejoin:round;stroke-miterlimit:10;}
	.st10{fill:#F2F2F2;stroke:#000000;stroke-width:0.75;stroke-linecap:round;stroke-linejoin:round;stroke-miterlimit:10;}
</style>
<g>
	<g>
		<path class="st0" d="M20.3,58.8"/>
		<polygon class="st1" points="15,55.9 89.6,38.4 99.3,42.2 21.2,61.3 		"/>
		<path class="st2" d="M87.1,39.4c0,0,3.3-6.9,11.8-5c3.5,0.8,3.3,3.6,2,5.4c-1.2,1.6-3.5,2.3-3.5,2.3L87.1,39.4z"/>
		<polygon class="st3" points="16.4,57.5 94.3,39.3 93.8,41 17,59.2 		"/>
		<path class="st4" d="M21.4,64.5c0-1,0.6-2.3,2.5-2.7s62.3-14.4,71.5-17c9.2-2.6,7.3-7.7,5.6-9.3c1.5,2.2,0.5,5.9-6.2,7.5
			c-6.7,1.7-69.4,16.5-70.7,16.9c-1.3,0.3-2.9,0.2-2.9-1.9l-3.4,1.5l2.5,4.9L21.4,64.5z"/>
	</g>
	<g>
		<g>
			<path class="st5" d="M19.9,63.5c5.6-3.7-0.2-10.1,2.4-15.9c0,0-0.1,0-0.1-0.1c-1.2-0.5-2.5-1-3.8-1.4c-0.6-0.3-1.3-0.5-1.9-0.7
				c-0.3-0.1-0.6-0.2-0.9-0.3c-1.4-0.5-2.6-0.9-3-1c0,0-0.1,8-0.2,14.3c0,0.5,0,0.9,0,1.3c0,0.3,0,0.5,0,0.7c0,1.1,0,2,0,2.8
				C14.4,64.9,17.5,65.3,19.9,63.5z"/>
			<path class="st6" d="M26.9,50.1c0-0.2-0.5-0.6-1.3-1c-0.4-0.2-0.9-0.5-1.5-0.7c-0.6-0.3-1.2-0.5-1.9-0.8
				c-2.5,5.7,3.3,12.1-2.4,15.9c-2.4,1.8-5.5,1.4-7.6-0.2c0,1.2,0,2,0,2.4c0,2.3,0.5,2.9,2.1,3.7c1.6,0.8,9.4,4.4,11,4.4l0,0
				C25.5,73.2,27.2,52.3,26.9,50.1z"/>
			<path class="st7" d="M25.5,73.8L25.5,73.8c-1.6,0-9.5-3.6-11-4.4c-1.6-0.8-2.1-1.5-2.1-3.7c0-0.6,0-2.7,0-5.2c0-0.2,0-0.5,0-0.7
				c0-0.4,0-0.9,0-1.3c0.1-6.3,0.2-14.3,0.2-14.3c0.4,0.1,1.6,0.5,3,1c0.3,0.1,0.6,0.2,0.9,0.3c0.6,0.2,1.2,0.4,1.9,0.7
				c1.3,0.5,2.6,1,3.8,1.4c0.7,0.3,1.4,0.6,2,0.9c0.6,0.3,1.1,0.5,1.5,0.7c0.8,0.4,1.2,0.7,1.3,1C27.2,52.3,25.5,73.2,25.5,73.8z"/>
			<path class="st4" d="M24.8,50.4c0-1.7,2.3-1.7,2.3,0.5c0,2.3,0,19.4,0,21.3c0,1.9-2.3,2.4-2.3,0.3C24.8,70.3,24.8,50.4,24.8,50.4
				z"/>
		</g>
		<g>
			<path class="st6" d="M19.8,42.4l4.4,2.5c0.3-2.4-2.2-3.9-4.7-4.5s-5.1-1.6-6.4-1.6c-2.6,0-4.1,1.9-4.2,4.4c2.7,0.8,5.3,1.7,8,2.7
				C17.4,42.9,19.8,42.4,19.8,42.4z"/>
			<path class="st5" d="M17.6,51.3c-0.8-2.4-0.9-4.1-0.7-5.4c-2.7-1-5.3-1.9-8-2.7c0,0.6,0,1.3,0.2,1.9c0.8,3.5,1.6,6.7,1.7,8.7
				c0,0.2,0,0.5,0,0.7c2.6,0.8,5.2,1.8,7.9,2.9C18.9,55,18.4,53.7,17.6,51.3z"/>
			<path class="st8" d="M10.9,54.5c0,1.7-0.6,3.2-5.1,1.2l0.1,1.9c2.8,1.5,12.1,4.3,12.6,1.1c0.1-0.4,0.1-0.9,0.2-1.2
				C16.1,56.3,13.5,55.3,10.9,54.5z"/>
			<path class="st7" d="M5.8,55.7l0.1,1.9c2.8,1.5,12.1,4.3,12.6,1.1s0-4.5-0.9-7.3c-2.6-7.8,2.1-8.9,2.1-8.9l4.4,2.5
				c0.3-2.4-2.2-3.9-4.7-4.5s-5.1-1.6-6.4-1.6c-3.2,0-4.8,2.9-4,6.4s1.6,6.7,1.7,8.7C11,55.8,10.8,58,5.8,55.7z"/>
			<path class="st9" d="M22.2,47.6c-1.2-0.5-2.5-1-3.8-1.4c0.2-2.2,2.2-3.2,3.8-0.9C22.6,45.9,22.2,47.4,22.2,47.6z"/>
			<path class="st4" d="M24.2,48.4l-2-0.8l0,0c0.1-0.2,0.5-1.6,0-2.4c-1.5-2.3-3.6-1.3-3.8,0.9c0,0.3,0,0.7,0.1,1.1
				c0.5,2.9,2.3,9.1,1.7,12.3c-0.5,3.1-5,2.4-7.8,1c-0.1,0-0.1-0.1-0.2-0.1l0.1-0.7l0.1-1.3l0.1-0.5c5.1,2.3,5.2,0.1,5.1-1.9
				c-0.1-2-0.9-5.2-1.7-8.7c-0.2-0.8-0.2-1.5-0.2-2.2c0.2-2.4,1.7-4.2,4.2-4.2c0.8,0,1.6,0.1,2.2,0.4l0,0
				C24,42.3,25.1,44.5,24.2,48.4z"/>
		</g>
		<polygon class="st10" points="5.5,55.7 12.4,57.7 12.4,60.2 5.5,57.8 		"/>
	</g>
</g>
</svg>
