<?xml version="1.0" encoding="utf-8"?>
<!-- Generator: Adobe Illustrator 21.1.0, SVG Export Plug-In . SVG Version: 6.00 Build 0)  -->
<svg version="1.1" id="Layer_1" xmlns="http://www.w3.org/2000/svg" xmlns:xlink="http://www.w3.org/1999/xlink" x="0px" y="0px"
	 width="108px" height="108px" viewBox="0 0 108 108" style="enable-background:new 0 0 108 108;" xml:space="preserve">
<style type="text/css">
	.st0{fill:#FFFFFF;stroke:#000000;stroke-width:0.75;stroke-linecap:round;stroke-linejoin:round;stroke-miterlimit:10;}
	.st1{fill:#FFFFFF;stroke:#000000;stroke-width:0.5;stroke-linecap:round;stroke-linejoin:round;stroke-miterlimit:10;}
	.st2{fill:#F2F2F2;stroke:#000000;stroke-width:0.5;stroke-linecap:round;stroke-linejoin:round;stroke-miterlimit:10;}
	.st3{fill:#E6E6E6;stroke:#000000;stroke-width:0.5;stroke-linecap:round;stroke-linejoin:round;stroke-miterlimit:10;}
	.st4{fill:#CCCCCC;stroke:#000000;stroke-width:0.75;stroke-linecap:round;stroke-linejoin:round;stroke-miterlimit:10;}
	.st5{fill:#808080;stroke:#000000;stroke-width:0.75;stroke-linecap:round;stroke-linejoin:round;stroke-miterlimit:10;}
	.st6{fill:#E6E6E6;stroke:#000000;stroke-width:0.75;stroke-linecap:round;stroke-linejoin:round;stroke-miterlimit:10;}
</style>
<g>
	<g>
		<path class="st0" d="M18.7,60.5"/>
		<polygon class="st1" points="13.4,57.6 88,40.1 97.7,43.9 19.6,63 		"/>
		<path class="st2" d="M85.5,41.1c0,0,3.3-6.9,11.8-5c3.5,0.8,3.3,3.6,2,5.4c-1.2,1.6-3.5,2.3-3.5,2.3L85.5,41.1z"/>
		<polygon class="st3" points="14.8,59.2 92.7,41 92.2,42.7 15.4,60.9 		"/>
		<path class="st4" d="M19.8,66.2c0-1,0.6-2.3,2.5-2.7c1.9-0.4,62.3-14.4,71.5-17c9.2-2.6,7.3-7.7,5.6-9.3c1.5,2.2,0.5,5.9-6.2,7.5
			c-6.7,1.7-69.4,16.5-70.7,16.9c-1.3,0.3-2.9,0.2-2.9-1.9l-3.4,1.5l2.5,4.9L19.8,66.2z"/>
	</g>
	<g>
		<path class="st5" d="M14.7,50.5c1,0.4,4.7,1.9,4.7,3c0,1.8-0.7,11.8-0.7,11.8l-5-0.3L14.7,50.5z"/>
		<path class="st6" d="M18.7,72.2c0,0-8-3.9-8.7-4.2c-0.6-0.3-0.6-1.2-0.6-2.7c0-1.4,6.4-0.6,6.4-0.6l2.9,1.4V72.2z"/>
		<path class="st0" d="M8.5,64.4L9.1,66l3,1.2l0.4-1l1.5,0.5c0,0,2.1-19.4,2.1-20.3c0-1-6.3-3.3-7-3.5c-0.7-0.2-1.8,0.2-1.7,1.5
			c0,1.3-0.2,16.9-0.1,17.9C7.2,63.2,7.3,63.8,8.5,64.4z"/>
		<path class="st4" d="M19.5,59.8c0-2.1,0-5.2-0.1-6s-0.5-1.2-1.1-1.1c-0.6,0.1-0.8,0.8-0.8,1.5c0,0.7,0,7.1,0,7.9
			c0,0.8-1.5,1.9-1.5,0.2c0-1.7,0.1-13.2,0.1-14.5c0-1.3-1.7-2.3-1.7-0.1c0,2.2-0.6,19.2-0.6,19.2s1.5,1,2.5,0.1
			c1-0.9,1.3,0.9,1.3,1.7s0,1.4,0,2c0,0.6,0,1.6,1.2,1.6c0.7,0,0.8-0.6,0.8-1.6c0-1,0-3.4,0-4.4L19.5,59.8z"/>
	</g>
</g>
</svg>
