<?xml version="1.0" encoding="utf-8"?>
<!-- Generator: Adobe Illustrator 21.1.0, SVG Export Plug-In . SVG Version: 6.00 Build 0)  -->
<svg version="1.1" id="Layer_1" xmlns="http://www.w3.org/2000/svg" xmlns:xlink="http://www.w3.org/1999/xlink" x="0px" y="0px"
	 width="108px" height="108px" viewBox="0 0 108 108" style="enable-background:new 0 0 108 108;" xml:space="preserve">
<style type="text/css">
	.st0{fill:#FFFFFF;stroke:#000000;stroke-width:0.75;stroke-linecap:round;stroke-linejoin:round;stroke-miterlimit:10;}
	.st1{fill:#FFFFFF;stroke:#000000;stroke-width:0.5;stroke-linecap:round;stroke-linejoin:round;stroke-miterlimit:10;}
	.st2{fill:#F2F2F2;stroke:#000000;stroke-width:0.5;stroke-linecap:round;stroke-linejoin:round;stroke-miterlimit:10;}
	.st3{fill:#E6E6E6;stroke:#000000;stroke-width:0.5;stroke-linecap:round;stroke-linejoin:round;stroke-miterlimit:10;}
	.st4{fill:#CCCCCC;stroke:#000000;stroke-width:0.75;stroke-linecap:round;stroke-linejoin:round;stroke-miterlimit:10;}
	.st5{fill:#E6E6E6;}
	.st6{fill:#CCCCCC;}
	.st7{fill:#FFFFFF;}
	.st8{fill:none;stroke:#000000;stroke-width:0.75;stroke-linecap:round;stroke-linejoin:round;stroke-miterlimit:10;}
	.st9{fill:#F2F2F2;}
	.st10{fill:#999999;stroke:#000000;stroke-width:0.75;stroke-linecap:round;stroke-linejoin:round;stroke-miterlimit:10;}
	.st11{fill:#E6E6E6;stroke:#000000;stroke-width:0.75;stroke-linecap:round;stroke-linejoin:round;stroke-miterlimit:10;}
</style>
<g>
	<g>
		<path class="st0" d="M29.4,60"/>
		<polygon class="st1" points="24.2,57.8 92.4,35.6 101.8,38.4 30.4,62.3 		"/>
		<path class="st2" d="M90.2,36.7c0,0,2.6-6.7,10.6-5.6c3.3,0.5,3.4,3.1,2.3,4.9c-1,1.6-3.1,2.4-3.1,2.4L90.2,36.7z"/>
		<polygon class="st3" points="25.6,59.1 96.9,36.1 96.5,37.7 26.4,60.7 		"/>
		<path class="st4" d="M30.9,65.3c-0.1-0.9,0.3-2.2,2.1-2.7c1.8-0.5,57-18.3,65.3-21.5c8.4-3.2,6.2-7.8,4.5-9.1
			c1.6,2,0.9,5.4-5.2,7.5C91.5,41.6,34.2,60.4,33,60.8c-1.2,0.4-2.7,0.4-2.9-1.5l-3,1.7l2.7,4.4L30.9,65.3z"/>
	</g>
	<g>
		<g>
			<path class="st5" d="M34.8,52.9c0-0.2,0-0.5-0.1-0.8C26,55.7,17.4,59.4,8.9,63.6C8.9,64,9,64.4,9,64.5c0,1,0.3,1.5,1.3,1.8
				c0.6,0.2,7.4,3.8,13.1,6.8c3.8-1.6,7.6-3.1,11.6-4.5C34.8,62.6,34.8,53.5,34.8,52.9z"/>
			<path class="st6" d="M23.3,73.1c3.8,2,7.1,3.7,7.4,3.8c0.5,0.1,2.6-1.5,3.2-1.9c0.5-0.3,0.9-0.8,0.9-1.4c0-0.4,0-2.4,0-5
				C30.9,70,27.1,71.5,23.3,73.1z"/>
			<path class="st7" d="M32.5,50.2C30.6,49.8,12,44.2,10.7,44c-0.6-0.1-1.1,0-1.5,0.2c-0.3,0.2-2.3,1.3-2.3,1.8c0,1,1.6,13.9,2,17.5
				c8.5-4.2,17.1-7.8,25.8-11.4C34.5,51.4,34,50.6,32.5,50.2z"/>
			<path class="st8" d="M10.2,66.3c1,0.3,19.6,10.4,20.5,10.6c0.5,0.1,2.6-1.5,3.2-1.9c0.5-0.3,0.9-0.8,0.9-1.4
				c0-1.3-0.1-19.8-0.1-20.7c0-0.9-0.4-2.2-2.3-2.6C30.6,49.8,12,44.2,10.7,44c-0.6-0.1-1.1,0-1.5,0.2c-0.3,0.2-2.3,1.3-2.3,1.8
				C6.9,47.2,9,63.5,9,64.5C9,65.5,9.3,66,10.2,66.3z"/>
			<path class="st7" d="M6.9,63.7c0,1.2,0,2,0,2.2c0,1,0.3,1.5,1.2,1.8c0.9,0.3,20.7,9,21.6,9.2c0.9,0.2,2.9-0.5,2.9-1.9
				c0-0.4,0-2.4,0-5.1c-5.4-1-10.9-3.3-15.4-6.5C13.8,61,10.4,63.9,6.9,63.7z"/>
			<path class="st9" d="M30.3,51.8c-1.9-0.4-20.4-6.1-21.6-6.3c-1.2-0.2-2,0.1-2,1.3c0,0.9,0.2,12,0.2,16.9
				c3.4,0.2,6.9-2.7,10.3-0.1c4.6,3.2,10.1,5.5,15.4,6.5c0-5.9,0-15,0-15.6C32.6,53.5,32.3,52.2,30.3,51.8z"/>
			<path class="st8" d="M8.2,67.8c0.9,0.3,20.7,9,21.6,9.2c0.9,0.2,2.9-0.5,2.9-1.9s-0.1-19.8-0.1-20.7c0-0.9-0.4-2.2-2.3-2.6
				c-1.9-0.4-20.4-6.1-21.6-6.3c-1.2-0.2-2,0.1-2,1.3C6.7,48,7,65,7,65.9C7,66.9,7.3,67.4,8.2,67.8z"/>
		</g>
		<g>
			<path class="st0" d="M6.6,59c-3.2-0.6-3-0.6-3-3.8c0-3.1,0-13.7,0-15.9s5.2-2.1,5.2,0.6C8.8,42.6,7,59.1,6.6,59z"/>
			<polygon class="st10" points="10.5,54 7.9,53 9,55.3 10.2,55.6 			"/>
			<path class="st11" d="M10.5,54v4.2c0,0-4,1.3-4,0.8c0-3.7,0-16.8,0-18.4s2.3-2.4,2.3,0c0,2.4,0,13.5,0,13.5L10.5,54z"/>
		</g>
		<g>
			<path class="st0" d="M26.4,66.1c-3.4-0.6-3.1-0.6-3.1-4c0-3.3,0-14.4,0-16.6c0-2.2,5.4-2.2,5.4,0.6S26.8,66.2,26.4,66.1z"/>
			<polygon class="st10" points="30.5,60.8 27.8,59.8 28.9,62.2 30.2,62.5 			"/>
			<path class="st11" d="M30.5,60.8v4.4c0,0-4.2,1.3-4.2,0.9c0-3.8,0-17.6,0-19.3s2.4-2.6,2.4,0s0,14.2,0,14.2L30.5,60.8z"/>
		</g>
	</g>
</g>
</svg>
