<?xml version="1.0" encoding="utf-8"?>
<!-- Generator: Adobe Illustrator 21.1.0, SVG Export Plug-In . SVG Version: 6.00 Build 0)  -->
<svg version="1.1" id="Layer_1" xmlns="http://www.w3.org/2000/svg" xmlns:xlink="http://www.w3.org/1999/xlink" x="0px" y="0px"
	 width="108px" height="108px" viewBox="0 0 108 108" style="enable-background:new 0 0 108 108;" xml:space="preserve">
<style type="text/css">
	.st0{fill:#FFFFFF;}
	.st1{fill:#E6E6E6;}
	.st2{fill:#B3B3B3;}
	.st3{fill:none;stroke:#000000;stroke-width:0.75;stroke-linecap:round;stroke-linejoin:round;stroke-miterlimit:10;}
	.st4{fill:#F2F2F2;stroke:#000000;stroke-width:0.75;stroke-linecap:round;stroke-linejoin:round;stroke-miterlimit:10;}
	.st5{fill:#CCCCCC;stroke:#000000;stroke-width:0.75;stroke-linecap:round;stroke-linejoin:round;stroke-miterlimit:10;}
	.st6{fill:#B3B3B3;stroke:#000000;stroke-width:0.75;stroke-linecap:round;stroke-linejoin:round;stroke-miterlimit:10;}
	.st7{fill:#E6E6E6;stroke:#000000;stroke-width:0.75;stroke-linecap:round;stroke-linejoin:round;stroke-miterlimit:10;}
	.st8{fill:#FFFFFF;stroke:#000000;stroke-width:0.75;stroke-linecap:round;stroke-linejoin:round;stroke-miterlimit:10;}
	.st9{fill:#F2F2F2;}
	.st10{fill:#808080;stroke:#000000;stroke-width:0.75;stroke-linecap:round;stroke-linejoin:round;stroke-miterlimit:10;}
</style>
<g>
	<g>
		<g>
			<path class="st0" d="M71.9,54.6c10.7-6.7,21.5-13.1,32.9-19.1c-0.4-1-1.1-1.6-2.4-1.8c-1.8-0.3-28.2-6.1-29.7-6.3
				c-1.5-0.3-3.8,0.8-3.9,3.1c-0.1,2.2,1.5,19.9,1.6,21.6C70.6,53.3,70.9,54.1,71.9,54.6z"/>
			<path class="st1" d="M105.1,37.1c0-0.6-0.1-1.1-0.3-1.5c-11.4,5.9-22.3,12.4-32.9,19.1c0.3,0.2,0.7,0.3,1.1,0.3
				c1,0.2,8.6,2.3,15.8,4.2c5.3-2.5,10.7-4.7,16.4-6.3C105.2,46.7,105.1,38.3,105.1,37.1z"/>
			<path class="st2" d="M88.8,59.2c6.3,1.7,12.2,3.3,12.9,3.4c1.7,0.2,3.5-1,3.6-2.7c0-0.6,0-3.5,0-7C99.5,54.5,94.1,56.7,88.8,59.2
				z"/>
			<path class="st3" d="M101.7,62.6c1.7,0.2,3.5-1,3.6-2.7c0.1-1.7-0.1-20.9-0.2-22.8c-0.1-2-0.8-3.1-2.6-3.4
				c-1.8-0.3-28.2-6.1-29.7-6.3c-1.5-0.3-3.8,0.8-3.9,3.1c-0.1,2.2,1.5,19.9,1.6,21.6c0.1,1.7,0.7,2.7,2.5,2.9
				C74.8,55.2,100.2,62.4,101.7,62.6z"/>
			<path class="st4" d="M101.5,62.6c1.7,0.2,2.1-0.7,2.2-2.4c0.1-1.7-0.1-20.2-0.2-22.1c-0.1-2-0.8-3.1-2.6-3.4
				c-1.8-0.3-28.2-6.1-29.7-6.3c-1.5-0.3-2.5,0.4-2.6,2.7c-0.1,2.2,0.3,20.3,0.3,22c0.1,1.7,0.7,2.7,2.5,2.9
				C73.2,56.2,100,62.4,101.5,62.6z"/>
			<path class="st5" d="M103.4,54.3c0,0-33.5-7.5-34.9-7.6c-1.4-0.1-1.7-3.1,0.4-2.7c2.1,0.4,34.6,7.5,34.6,7.5L103.4,54.3z"/>
			<path class="st6" d="M103.8,54.3c1.8-0.6,1.1-3.1,0-2.7C102.7,52.1,102.6,54.7,103.8,54.3z"/>
		</g>
		<g>
			<path class="st7" d="M18.4,54.5c0,0,65.3-15.7,66.2-15.9c0.8-0.2,2.4-1.3,1.4-2C85,36,18.4,53.2,18.4,53.2V54.5z"/>
			<path class="st8" d="M18.4,53.2l68-16.6c0,0,0.3-3.1-1.4-2.6c-1.8,0.5-66.5,15.8-66.5,15.8V53.2z"/>
		</g>
	</g>
	<g>
		<path class="st8" d="M17.1,75.9c0,0,0-3.6,3.5-4.2c3.5-0.6,50.8-12,52.8-12.4c2.1-0.4,2.7-1.9,3.2-3.1c0.5-1.1,0.8-1.9,1-2.8
			c0.2-0.8,1.1-1.8,0.2-2.1c-0.9-0.2-2.9-0.5-3.4,1.4c-0.4,1.3-0.2,2.8-3.7,3.6c-3.5,0.8-50.5,11.8-51.4,12.1
			c-0.9,0.3-2.3-0.9-2.4-4.6C16.3,67.5,17.1,75.9,17.1,75.9z"/>
		<path class="st7" d="M18.6,76.4c0,0,0-3.6,3.5-4.2c3.5-0.6,50.8-12,52.8-12.4c2.1-0.4,2.7-1.9,3.2-3.1c0.5-1.1,0.8-1.9,1-2.8
			c0.2-0.8,0.1-2.3-0.8-2.5c-0.9-0.2-2.1,0.5-2.4,1.8c-0.3,1.3-0.2,2.8-3.7,3.6C68.8,57.8,21.8,68.7,20.9,69
			c-0.9,0.3-2.7,0.4-2.8-3.3C17.5,69.3,18.6,76.4,18.6,76.4z"/>
	</g>
	<g>
		<g>
			<path class="st9" d="M13.7,56.6c4.3-2.9-0.1-7.7,1.8-12.1c0,0-0.1,0-0.1,0c-0.9-0.4-1.9-0.8-2.9-1.1c-0.5-0.2-1-0.4-1.4-0.5
				c-0.2-0.1-0.5-0.2-0.7-0.2c-1.1-0.4-2-0.7-2.3-0.8c0,0-0.1,6.1-0.1,10.9c0,0.4,0,0.7,0,1c0,0.2,0,0.4,0,0.6c0,0.8,0,1.5,0,2.2
				C9.6,57.7,11.9,57.9,13.7,56.6z"/>
			<path class="st0" d="M19.1,46.4c0-0.2-0.4-0.4-1-0.7c-0.3-0.2-0.7-0.4-1.2-0.6c-0.4-0.2-0.9-0.4-1.4-0.6
				c-1.9,4.4,2.5,9.2-1.8,12.1c-1.8,1.4-4.2,1.1-5.8-0.2c0,0.9,0,17.7,0,18c0,1.7,0.4,2.2,1.6,2.8c1.2,0.6,7.2,3.4,8.4,3.4v0
				C18,80.2,19.3,48.1,19.1,46.4z"/>
			<path class="st3" d="M18,80.6L18,80.6c-1.2,0-7.2-2.7-8.4-3.3c-1.2-0.6-1.6-1.1-1.6-2.8c0-0.5,0-18.2,0-20.2c0-0.2,0-0.4,0-0.6
				c0-0.3,0-0.7,0-1c0.1-4.8,0.1-10.9,0.1-10.9c0.3,0.1,1.2,0.4,2.3,0.8c0.2,0.1,0.5,0.2,0.7,0.2c0.5,0.2,0.9,0.3,1.4,0.5
				c1,0.4,2,0.7,2.9,1.1c0.5,0.2,1.1,0.5,1.5,0.7c0.4,0.2,0.8,0.4,1.2,0.6c0.6,0.3,0.9,0.6,1,0.7C19.3,48.1,18,80.2,18,80.6z"/>
			<path class="st5" d="M17.5,46.6c0-1.3,1.7-1.3,1.7,0.4s0,31,0,32.4c0,1.4-1.7,1.8-1.7,0.2C17.5,78,17.5,46.6,17.5,46.6z"/>
		</g>
		<g>
			<path class="st0" d="M13.6,40.5l3.4,1.9c0.2-1.9-1.7-3-3.6-3.5c-1.9-0.5-3.9-1.2-4.9-1.2c-2,0-3.1,1.5-3.2,3.4
				c2,0.6,4.1,1.3,6.1,2.1C11.8,40.9,13.6,40.5,13.6,40.5z"/>
			<path class="st9" d="M12,47.3c-0.6-1.8-0.7-3.1-0.5-4.1c-2-0.7-4.1-1.5-6.1-2.1c0,0.5,0,1,0.2,1.5c0.6,2.6,1.2,5.1,1.3,6.6
				c0,0.2,0,0.4,0,0.5c2,0.6,4,1.4,6,2.2C13,50.1,12.6,49.1,12,47.3z"/>
			<path class="st1" d="M6.8,49.8c0,1.3-0.5,2.4-3.9,0.9l0.1,1.4c2.1,1.1,9.3,3.3,9.7,0.8c0.1-0.3,0.1-0.7,0.1-0.9
				C10.8,51.1,8.8,50.4,6.8,49.8z"/>
			<path class="st3" d="M3,50.6l0.1,1.4c2.1,1.1,9.3,3.3,9.7,0.8c0.4-2.4,0-3.4-0.7-5.6c-2-6,1.6-6.8,1.6-6.8l3.4,1.9
				c0.2-1.9-1.7-3-3.6-3.5c-1.9-0.5-3.9-1.2-4.9-1.2c-2.4,0-3.7,2.2-3,4.9c0.6,2.6,1.2,5.1,1.3,6.6C6.9,50.8,6.8,52.4,3,50.6z"/>
			<path class="st10" d="M15.5,44.4c-0.9-0.4-1.9-0.8-2.9-1.1c0.1-1.7,1.7-2.5,2.9-0.7C15.8,43.2,15.5,44.3,15.5,44.4z"/>
			<path class="st5" d="M17,45.1l-1.5-0.6c0,0,0,0,0,0c0-0.1,0.4-1.2,0-1.8c-1.2-1.8-2.8-1-2.9,0.7c0,0.3,0,0.5,0,0.8
				c0.4,2.2,1.7,6.9,1.3,9.4c-0.4,2.4-3.8,1.9-6,0.8c0,0-0.1,0-0.1-0.1l0.1-0.5l0.1-1l0-0.4c3.9,1.7,4,0.1,3.9-1.4s-0.7-4-1.3-6.6
				c-0.1-0.6-0.2-1.2-0.1-1.7c0.1-1.8,1.3-3.2,3.2-3.2c0.6,0,1.2,0.1,1.7,0.3c0,0,0,0,0,0C16.9,40.4,17.7,42.1,17,45.1z"/>
		</g>
		<polygon class="st4" points="2.8,50.6 8,52.2 8,54.1 2.8,52.3 		"/>
	</g>
</g>
</svg>
