<?xml version="1.0" encoding="utf-8"?>
<!-- Generator: Adobe Illustrator 21.1.0, SVG Export Plug-In . SVG Version: 6.00 Build 0)  -->
<svg version="1.1" id="Layer_1" xmlns="http://www.w3.org/2000/svg" xmlns:xlink="http://www.w3.org/1999/xlink" x="0px" y="0px"
	 width="108px" height="108px" viewBox="0 0 108 108" style="enable-background:new 0 0 108 108;" xml:space="preserve">
<style type="text/css">
	.st0{fill:#CCCCCC;stroke:#000000;stroke-width:0.5;stroke-linecap:round;stroke-linejoin:round;stroke-miterlimit:10;}
	.st1{fill:#999999;stroke:#000000;stroke-width:0.5;stroke-linecap:round;stroke-linejoin:round;stroke-miterlimit:10;}
	.st2{fill:#FFFFFF;}
	.st3{fill:#CCCCCC;}
	.st4{fill:#E6E6E6;}
	.st5{fill:none;stroke:#000000;stroke-width:0.5;stroke-linecap:round;stroke-linejoin:round;stroke-miterlimit:10;}
	.st6{fill:#F2F2F2;stroke:#000000;stroke-width:0.5;stroke-linecap:round;stroke-linejoin:round;stroke-miterlimit:10;}
	.st7{fill:#B3B3B3;stroke:#000000;stroke-width:0.5;stroke-linecap:round;stroke-linejoin:round;stroke-miterlimit:10;}
	.st8{fill:#E6E6E6;stroke:#000000;stroke-width:0.5;stroke-linecap:round;stroke-linejoin:round;stroke-miterlimit:10;}
	.st9{fill:#FFFFFF;stroke:#000000;stroke-width:0.5;stroke-linecap:round;stroke-linejoin:round;stroke-miterlimit:10;}
	.st10{fill:#F2F2F2;}
	.st11{fill:none;stroke:#000000;stroke-width:0.75;stroke-linecap:round;stroke-linejoin:round;stroke-miterlimit:10;}
	.st12{fill:#CCCCCC;stroke:#000000;stroke-width:0.75;stroke-linecap:round;stroke-linejoin:round;stroke-miterlimit:10;}
	.st13{fill:#808080;stroke:#000000;stroke-width:0.75;stroke-linecap:round;stroke-linejoin:round;stroke-miterlimit:10;}
	.st14{fill:#F2F2F2;stroke:#000000;stroke-width:0.75;stroke-linecap:round;stroke-linejoin:round;stroke-miterlimit:10;}
</style>
<g>
	<g>
		<g>
			<polygon class="st0" points="104.6,57.4 100.3,56.6 101.7,60.9 103.8,60.2 			"/>
			<polygon class="st1" points="103.3,57.9 100.1,57.3 102,61.3 103.3,60.9 			"/>
			<polygon class="st1" points="103.3,37.5 99.7,36.7 103.3,34.6 			"/>
			<path class="st2" d="M73.1,28l-5.4,1.6l11.8,12.3c8.2-3.9,16.9-5.2,25.1-7.6L73.1,28z"/>
			<path class="st3" d="M99.2,62.6l5.4-1.8v-3.4l-1.3,0.5v1.9l-1.3,0.5v-3.9c-2.3,0.8-4.6,1.4-6.9,1.8L99.2,62.6z"/>
			<path class="st4" d="M104.6,37v-2.8l-0.1,0c-8.2,2.4-17,3.7-25.1,7.6L95,58.2c2.4-0.4,4.7-1,6.9-1.8V36.1l1.3-0.5v1.9L104.6,37z"
				/>
			<polygon class="st5" points="67.7,29.6 73.1,28 104.6,34.3 104.6,37 103.3,37.5 103.3,35.6 101.9,36.1 101.9,60.3 103.3,59.8 
				103.3,57.9 104.6,57.4 104.6,60.8 99.2,62.6 			"/>
			<path class="st6" d="M98.4,62.6c1.6,0.2,2-0.7,2.1-2.3c0.1-1.6-0.1-19.5-0.2-21.4c-0.1-1.9-0.8-3-2.5-3.3
				c-1.7-0.3-27.3-5.9-28.7-6.1c-1.5-0.3-2.4,0.4-2.5,2.6c-0.1,2.2,0.3,19.7,0.3,21.3c0.1,1.6,0.7,2.6,2.4,2.8
				C71,56.4,97,62.4,98.4,62.6z"/>
			<g>
				<path class="st0" d="M99.2,50.9c0,0-30.4-6.8-31.6-6.9c-1.2-0.1-1.5-2.8,0.3-2.4c1.9,0.4,31.4,6.8,31.4,6.8L99.2,50.9z"/>
				<path class="st7" d="M99.5,50.9c1.6-0.5,1-2.8,0-2.4C98.5,48.8,98.4,51.2,99.5,50.9z"/>
			</g>
			<g>
				<path class="st0" d="M99.2,42c0,0-30.4-6.8-31.6-6.9c-1.2-0.1-1.5-2.8,0.3-2.4c1.9,0.4,31.4,6.8,31.4,6.8L99.2,42z"/>
				<path class="st7" d="M99.5,42c1.6-0.5,1-2.8,0-2.4C98.5,40,98.4,42.4,99.5,42z"/>
			</g>
			<g>
				<path class="st0" d="M99.1,59.7c0,0-30.4-6.8-31.6-6.9c-1.2-0.1-1.5-2.8,0.3-2.4c1.9,0.4,31.4,6.8,31.4,6.8L99.1,59.7z"/>
				<path class="st7" d="M99.5,59.7c1.6-0.5,1-2.8,0-2.4C98.5,57.7,98.4,60.1,99.5,59.7z"/>
			</g>
		</g>
		<g>
			<path class="st8" d="M17.9,54.8c0,0,63.2-15.2,64-15.4c0.8-0.2,2.3-1.3,1.4-1.9c-0.9-0.6-65.4,16.1-65.4,16.1V54.8z"/>
			<path class="st9" d="M17.9,53.6l65.8-16.1c0,0,0.3-3-1.4-2.5c-1.7,0.5-64.4,15.3-64.4,15.3V53.6z"/>
		</g>
	</g>
	<g>
		<path class="st9" d="M16.7,75.5c0,0,0-3.5,3.4-4.1c3.4-0.6,49.1-11.6,51.1-12c2-0.4,2.6-1.9,3.1-3c0.5-1.1,0.8-1.9,1-2.7
			c0.2-0.8,1.1-1.8,0.2-2c-0.9-0.2-2.8-0.5-3.3,1.4c-0.3,1.3-0.2,2.7-3.6,3.5c-3.4,0.8-48.8,11.4-49.7,11.7
			c-0.9,0.3-2.2-0.9-2.3-4.4C15.9,67.4,16.7,75.5,16.7,75.5z"/>
		<path class="st8" d="M18.2,76c0,0,0-3.5,3.4-4.1c3.4-0.6,49.1-11.6,51.1-12c2-0.4,2.6-1.9,3.1-3c0.5-1.1,0.8-1.9,1-2.7
			c0.2-0.8,0.1-2.2-0.8-2.4c-0.9-0.2-2,0.5-2.3,1.8c-0.3,1.3-0.2,2.7-3.6,3.5c-3.4,0.8-48.8,11.4-49.7,11.7
			c-0.9,0.3-2.6,0.4-2.7-3.2C17.1,69.1,18.2,76,18.2,76z"/>
	</g>
	<g>
		<g>
			<path class="st10" d="M13.9,56.9c4.1-2.7-0.1-7.4,1.7-11.6c0,0-0.1,0-0.1,0c-0.9-0.4-1.9-0.7-2.8-1.1c-0.5-0.2-0.9-0.3-1.4-0.5
				c-0.2-0.1-0.5-0.2-0.7-0.2c-1.1-0.4-1.9-0.6-2.2-0.7c0,0-0.1,5.8-0.1,10.4c0,0.3,0,0.7,0,1c0,0.2,0,0.4,0,0.5c0,0.8,0,1.5,0,2.1
				C9.9,57.9,12.2,58.2,13.9,56.9z"/>
			<path class="st2" d="M19.1,47.1c0-0.2-0.4-0.4-0.9-0.7c-0.3-0.2-0.7-0.3-1.1-0.5c-0.4-0.2-0.9-0.4-1.4-0.6
				c-1.9,4.2,2.4,8.9-1.7,11.6c-1.7,1.3-4,1.1-5.6-0.1c0,0.9,0,17,0,17.3c0,1.7,0.4,2.1,1.6,2.7c1.2,0.6,6.9,3.2,8.1,3.2v0
				C18,79.5,19.3,48.7,19.1,47.1z"/>
			<path class="st11" d="M18,80L18,80c-1.2,0-6.9-2.6-8.1-3.2c-1.2-0.6-1.6-1.1-1.6-2.7c0-0.5,0-17.5,0-19.3c0-0.2,0-0.4,0-0.5
				c0-0.3,0-0.6,0-1c0.1-4.6,0.1-10.4,0.1-10.4c0.3,0.1,1.2,0.4,2.2,0.7c0.2,0.1,0.4,0.2,0.7,0.2c0.4,0.2,0.9,0.3,1.4,0.5
				c0.9,0.3,1.9,0.7,2.8,1.1c0.5,0.2,1,0.4,1.5,0.6c0.4,0.2,0.8,0.4,1.1,0.5c0.5,0.3,0.9,0.5,0.9,0.7C19.3,48.7,18,79.5,18,80z"/>
			<path class="st12" d="M17.5,47.3c0-1.3,1.7-1.3,1.7,0.4c0,1.7,0,29.8,0,31.1c0,1.4-1.7,1.8-1.7,0.2S17.5,47.3,17.5,47.3z"/>
		</g>
		<g>
			<path class="st2" d="M13.8,41.5l3.2,1.9c0.2-1.8-1.6-2.9-3.4-3.3c-1.8-0.4-3.7-1.2-4.7-1.2c-1.9,0-3,1.4-3.1,3.3
				c2,0.6,3.9,1.3,5.9,2C12.1,41.8,13.8,41.5,13.8,41.5z"/>
			<path class="st10" d="M12.3,48c-0.6-1.7-0.7-3-0.5-3.9c-2-0.7-3.9-1.4-5.9-2c0,0.5,0,0.9,0.1,1.4c0.6,2.5,1.2,4.9,1.3,6.3
				c0,0.2,0,0.3,0,0.5c1.9,0.6,3.8,1.3,5.8,2.1C13.2,50.7,12.9,49.8,12.3,48z"/>
			<path class="st4" d="M7.3,50.3c0,1.3-0.4,2.3-3.7,0.9l0.1,1.4c2,1.1,8.9,3.1,9.3,0.8c0.1-0.3,0.1-0.6,0.1-0.9
				C11.1,51.7,9.2,50.9,7.3,50.3z"/>
			<path class="st11" d="M3.6,51.2l0.1,1.4c2,1.1,8.9,3.1,9.3,0.8c0.4-2.3,0-3.3-0.7-5.4c-1.9-5.7,1.6-6.5,1.6-6.5l3.2,1.9
				c0.2-1.8-1.6-2.9-3.4-3.3c-1.8-0.4-3.7-1.2-4.7-1.2c-2.3,0-3.5,2.1-2.9,4.7c0.6,2.5,1.2,4.9,1.3,6.3C7.4,51.3,7.3,52.9,3.6,51.2z
				"/>
			<path class="st13" d="M15.6,45.2c-0.9-0.4-1.9-0.7-2.8-1.1c0.1-1.6,1.6-2.4,2.8-0.7C15.9,44.1,15.6,45.1,15.6,45.2z"/>
			<path class="st12" d="M17,45.9l-1.5-0.6c0,0,0,0,0,0c0-0.1,0.4-1.2,0-1.7c-1.1-1.7-2.7-1-2.8,0.7c0,0.2,0,0.5,0,0.8
				c0.4,2.1,1.7,6.6,1.3,9c-0.4,2.3-3.7,1.8-5.7,0.7c0,0-0.1,0-0.1-0.1l0.1-0.5l0.1-1l0-0.4c3.7,1.7,3.8,0.1,3.7-1.4
				s-0.7-3.8-1.3-6.3c-0.1-0.6-0.2-1.1-0.1-1.6c0.1-1.8,1.2-3.1,3.1-3.1c0.6,0,1.2,0.1,1.6,0.3c0,0,0,0,0,0
				C16.9,41.4,17.7,43,17,45.9z"/>
		</g>
		<polygon class="st14" points="3.4,51.2 8.4,52.7 8.4,54.5 3.4,52.8 		"/>
	</g>
</g>
</svg>
