<?xml version="1.0" encoding="utf-8"?>
<!-- Generator: Adobe Illustrator 22.1.0, SVG Export Plug-In . SVG Version: 6.00 Build 0)  -->
<svg version="1.1" id="Layer_1" xmlns="http://www.w3.org/2000/svg" xmlns:xlink="http://www.w3.org/1999/xlink" x="0px" y="0px"
	 width="108px" height="108px" viewBox="0 0 108 108" style="enable-background:new 0 0 108 108;" xml:space="preserve">
<style type="text/css">
	.st0{fill:#FFFFFF;}
	.st1{fill:#E6E6E6;}
	.st2{fill:#B3B3B3;}
	.st3{fill:none;stroke:#000000;stroke-width:0.5;stroke-linecap:round;stroke-linejoin:round;stroke-miterlimit:10;}
	.st4{fill:#F2F2F2;stroke:#000000;stroke-width:0.5;stroke-linecap:round;stroke-linejoin:round;stroke-miterlimit:10;}
	.st5{fill:#CCCCCC;stroke:#000000;stroke-width:0.5;stroke-linecap:round;stroke-linejoin:round;stroke-miterlimit:10;}
	.st6{fill:#B3B3B3;stroke:#000000;stroke-width:0.5;stroke-linecap:round;stroke-linejoin:round;stroke-miterlimit:10;}
	.st7{fill:#E6E6E6;stroke:#000000;stroke-width:0.5;stroke-linecap:round;stroke-linejoin:round;stroke-miterlimit:10;}
	.st8{fill:#FFFFFF;stroke:#000000;stroke-width:0.5;stroke-linecap:round;stroke-linejoin:round;stroke-miterlimit:10;}
	.st9{fill:#CCCCCC;}
	.st10{fill:none;stroke:#000000;stroke-width:0.75;stroke-linecap:round;stroke-linejoin:round;stroke-miterlimit:10;}
	.st11{fill:#F2F2F2;}
	.st12{fill:#CCCCCC;stroke:#000000;stroke-width:0.75;stroke-linecap:round;stroke-linejoin:round;stroke-miterlimit:10;}
</style>
<g>
	<g>
		<g>
			<path class="st0" d="M73.2,54.4c10.3-6.5,20.7-12.6,31.7-18.4c-0.4-1-1.1-1.5-2.3-1.7c-1.7-0.3-27.2-5.9-28.6-6.1
				c-1.4-0.3-3.7,0.8-3.8,3c0.1,2.1,1.6,19.1,1.7,20.7C71.9,53.2,72.3,53.9,73.2,54.4z"/>
			<path class="st1" d="M105.2,37.5c0-0.6-0.1-1.1-0.3-1.4C94,41.8,83.5,47.9,73.2,54.4c0.3,0.2,0.7,0.3,1.1,0.3
				c1,0.2,8.3,2.2,15.2,4.1c5.1-2.4,10.3-4.5,15.8-6.1C105.4,46.8,105.3,38.7,105.2,37.5z"/>
			<path class="st2" d="M89.6,58.8c6.1,1.6,11.8,3.2,12.4,3.3c1.6,0.2,3.4-1,3.5-2.6c0-0.6,0-3.4,0-6.8
				C99.8,54.3,94.6,56.4,89.6,58.8z"/>
			<path class="st3" d="M101.9,62.1c1.6,0.2,3.4-1,3.5-2.6c0.1-1.6-0.1-20.2-0.2-22c-0.1-1.9-0.8-3-2.5-3.3
				c-1.7-0.3-27.2-5.9-28.6-6.1c-1.4-0.3-3.7,0.8-3.8,3c0,2.1,1.5,19.1,1.6,20.7s0.7,2.6,2.4,2.8C76.1,55,100.5,61.9,101.9,62.1z"/>
			<path class="st4" d="M101.8,62.1c1.6,0.2,2-0.7,2.1-2.3s-0.1-19.5-0.2-21.3c-0.1-1.9-0.8-3-2.5-3.3c-1.7-0.3-27.2-5.9-28.6-6.1
				c-1.4-0.3-2.4,0.4-2.5,2.6C70,33.9,70.4,51.3,70.4,53c0.1,1.6,0.7,2.6,2.4,2.8C74.5,56,100.4,61.9,101.8,62.1z"/>
			<g>
				<path class="st5" d="M103.7,54.1c0,0-32.3-7.2-33.7-7.3c-1.4-0.1-1.6-3,0.4-2.6c2,0.4,33.4,7.2,33.4,7.2L103.7,54.1z"/>
				<path class="st6" d="M104.1,54.1c1.7-0.6,1.1-3,0-2.6C102.9,52,102.8,54.5,104.1,54.1z"/>
			</g>
		</g>
		<g>
			<path class="st7" d="M21.6,54.3c0,0,63-15.1,63.9-15.3c0.8-0.2,2.3-1.3,1.4-1.9c-1-0.6-65.2,16-65.2,16V54.3z"/>
			<path class="st8" d="M21.6,53.1l65.6-16c0,0,0.3-3-1.4-2.5C84.1,35,21.7,49.8,21.7,49.8L21.6,53.1L21.6,53.1z"/>
		</g>
	</g>
	<g>
		<path class="st8" d="M20.4,75c0,0,0-3.5,3.4-4.1s49-11.6,50.9-12c2-0.4,2.6-1.8,3.1-3c0.5-1.1,0.8-1.8,1-2.7
			c0.2-0.8,1.1-1.7,0.2-2c-0.9-0.2-2.8-0.5-3.3,1.4c-0.4,1.3-0.2,2.7-3.6,3.5S23.4,67.4,22.5,67.7c-0.9,0.3-2.2-0.9-2.3-4.4
			C19.7,66.9,20.4,75,20.4,75z"/>
		<path class="st7" d="M21.9,75.4c0,0,0-3.5,3.4-4.1c3.4-0.6,49-11.6,50.9-12c2-0.4,2.6-1.8,3.1-3c0.5-1.1,0.8-1.8,1-2.7
			c0.2-0.8,0.1-2.2-0.8-2.4c-0.9-0.2-2,0.5-2.3,1.7c-0.3,1.3-0.2,2.7-3.6,3.5C70.3,57.5,25,68,24.1,68.3c-0.9,0.3-2.6,0.4-2.7-3.2
			C20.8,68.6,21.9,75.4,21.9,75.4z"/>
	</g>
	<g>
		<path class="st0" d="M31.5,47.4c-1.8-0.6-15.2-4.9-16.4-5.3c-0.6-0.2-1.1-0.4-1.5-0.3c-0.5,0.1-3.2,0.6-3.1,2
			c0.2,1.5,1.9,7.5,3.3,12.3c6.7-1.6,13.3-4,19.6-7.1C33.3,48.3,32.7,47.8,31.5,47.4z"/>
		<path class="st9" d="M25.7,79.8c0.5,0.2,1.8-0.9,2.4-1.7c0.2-0.3,0.4-0.8,0.5-1.6c0.1-0.5,0.1-1.2,0.2-2c-1.6,1.9-3.3,3.2-5,4.1
			C24.8,79.2,25.5,79.7,25.7,79.8z"/>
		<path class="st1" d="M33.4,49.2c-6.3,3.1-13,5.5-19.6,7.1c1,3.5,3.5,16.7,3.5,16.7c0.1,1,0.4,1.6,1,1.8c0.4,0.1,3.6,2.4,5.7,3.9
			c1.8-0.9,3.4-2.2,5-4.1c0.5-4.3,4.2-22.5,4.4-24C33.4,49.9,33.4,49.5,33.4,49.2z"/>
		<path class="st10" d="M17.2,72.9c0.1,1,0.4,1.6,1,1.8c0.6,0.2,6.9,4.8,7.5,5.1c0.5,0.2,1.8-0.9,2.4-1.7c0.2-0.3,0.4-0.8,0.5-1.6
			c0.4-2.8,4.4-24.3,4.7-26s-0.1-2.4-1.9-3c-1.8-0.6-15.2-4.9-16.4-5.3c-0.6-0.2-1.1-0.4-1.5-0.3c-0.5,0.1-3.2,0.6-3.1,2
			C10.7,46.5,17.2,72.9,17.2,72.9z"/>
		<path class="st0" d="M16.5,51.3c-1.8,1.5-3.2,2-4.4,1.2c0.8,5.3,3.7,21.6,3.7,21.6c0.1,1,0.4,1.6,1,1.8c0.6,0.2,7.4,3.3,8,3.6
			c0.6,0.3,2.1,1,2.5-1.8c0.2-1.7,2.8-16.8,3.4-20.8C25.1,58.2,18.6,56.3,16.5,51.3z"/>
		<path class="st11" d="M29.6,48.7c-1.8-0.6-15.2-4.9-16.4-5.3C12,43,10.8,42.6,11,45.2c0.1,1,0.5,4,1,7.4c1.2,0.7,2.6,0.2,4.4-1.2
			c2.1,4.9,8.5,6.9,14.2,5.6c0.4-2.5,0.7-4.5,0.8-5.2C31.8,50,31.4,49.3,29.6,48.7z"/>
		<path class="st10" d="M15.8,74.2c0.1,1,0.4,1.6,1,1.8c0.6,0.2,7.4,3.3,8,3.6c0.6,0.3,2.1,1,2.5-1.8s3.9-24.3,4.2-26
			c0.3-1.7-0.1-2.4-1.9-3s-15.2-4.9-16.4-5.3c-1.2-0.4-2.4-0.8-2.2,1.8C11.4,47.8,15.8,74.2,15.8,74.2z"/>
		<g>
			<path class="st0" d="M14.7,48.1c0.2-0.5,0.3-1.1,0.2-1.7c-0.2-1.1-0.8-1.9-2.7-1.7c0,0-2.6,0.6-3.8,0.7c-1.2,0.2-1.6-0.8-1.6-1.7
				C6.7,42.8,7,36.5,7,32.4s-4.3-2.9-4.3-0.1c0,2.7-0.1,7.6-0.1,12.5c0,0.5,0,1,0.1,1.5C5.9,49.2,10.1,49.2,14.7,48.1z"/>
			<path class="st1" d="M2.7,46.2c0.5,3.6,3,4.4,4.6,4.1c1.8-0.2,3.9-0.7,5.5-1c1-0.1,1.6-0.6,1.9-1.3C10.1,49.2,5.9,49.2,2.7,46.2z
				"/>
			<path class="st10" d="M12.1,44.8c2-0.3,2.5,0.6,2.7,1.7c0.2,1.2-0.2,2.7-2.1,2.9c-1.6,0.2-3.7,0.7-5.5,1
				c-1.8,0.2-4.7-0.8-4.7-5.6S2.6,35,2.6,32.3s4.3-4,4.3,0.1S6.7,42.8,6.7,43.8s0.4,1.9,1.6,1.7S12.1,44.8,12.1,44.8z"/>
			<path class="st12" d="M14.7,45.8c-5,1.3-7,1.5-7.5-0.6c0.3,0.3,0.6,0.4,1.2,0.3c1.2-0.2,3.8-0.7,3.8-0.7
				C13.7,44.6,14.3,45.1,14.7,45.8z"/>
		</g>
		<g>
			<path class="st0" d="M30.2,52.8c0.2-0.5,0.3-1.1,0.2-1.7c-0.2-1.1-0.8-1.9-2.7-1.7c0,0-2.6,0.6-3.8,0.7c-1.2,0.2-1.6-0.8-1.6-1.7
				s0.3-7.3,0.3-11.4s-4.3-2.9-4.3-0.1c0,2.7-0.1,7.6-0.1,12.5c0,0.5,0,1,0.1,1.5C21.4,53.9,25.7,53.9,30.2,52.8z"/>
			<path class="st1" d="M18.2,50.9c0.5,3.6,3,4.4,4.6,4.1c1.8-0.2,3.9-0.7,5.5-1c1-0.1,1.6-0.6,1.9-1.3
				C25.7,53.9,21.4,53.9,18.2,50.9z"/>
			<path class="st10" d="M27.7,49.5c2-0.3,2.5,0.6,2.7,1.7c0.2,1.2-0.2,2.7-2.1,2.9c-1.6,0.2-3.7,0.7-5.5,1
				c-1.8,0.2-4.7-0.8-4.7-5.6s0.1-9.8,0.1-12.5s4.3-4,4.3,0.1s-0.3,10.4-0.3,11.4s0.4,1.9,1.6,1.7C25.1,50,27.7,49.5,27.7,49.5z"/>
			<path class="st12" d="M30.2,50.5c-5,1.3-7,1.5-7.5-0.6c0.3,0.3,0.6,0.4,1.2,0.3c1.2-0.2,3.8-0.7,3.8-0.7
				C29.2,49.3,29.9,49.8,30.2,50.5z"/>
		</g>
	</g>
</g>
</svg>
