<?xml version="1.0" encoding="utf-8"?>
<!-- Generator: Adobe Illustrator 22.1.0, SVG Export Plug-In . SVG Version: 6.00 Build 0)  -->
<svg version="1.1" id="Layer_1" xmlns="http://www.w3.org/2000/svg" xmlns:xlink="http://www.w3.org/1999/xlink" x="0px" y="0px"
	 width="108px" height="108px" viewBox="0 0 108 108" style="enable-background:new 0 0 108 108;" xml:space="preserve">
<style type="text/css">
	.st0{fill:#CCCCCC;stroke:#000000;stroke-width:0.5;stroke-linecap:round;stroke-linejoin:round;stroke-miterlimit:10;}
	.st1{fill:#999999;stroke:#000000;stroke-width:0.5;stroke-linecap:round;stroke-linejoin:round;stroke-miterlimit:10;}
	.st2{fill:#FFFFFF;}
	.st3{fill:#CCCCCC;}
	.st4{fill:#E6E6E6;}
	.st5{fill:none;stroke:#000000;stroke-width:0.5;stroke-linecap:round;stroke-linejoin:round;stroke-miterlimit:10;}
	.st6{fill:#F2F2F2;stroke:#000000;stroke-width:0.5;stroke-linecap:round;stroke-linejoin:round;stroke-miterlimit:10;}
	.st7{fill:#B3B3B3;stroke:#000000;stroke-width:0.5;stroke-linecap:round;stroke-linejoin:round;stroke-miterlimit:10;}
	.st8{fill:#E6E6E6;stroke:#000000;stroke-width:0.5;stroke-linecap:round;stroke-linejoin:round;stroke-miterlimit:10;}
	.st9{fill:#FFFFFF;stroke:#000000;stroke-width:0.5;stroke-linecap:round;stroke-linejoin:round;stroke-miterlimit:10;}
	.st10{fill:none;stroke:#000000;stroke-width:0.75;stroke-linecap:round;stroke-linejoin:round;stroke-miterlimit:10;}
	.st11{fill:#F2F2F2;}
	.st12{fill:none;stroke:#000000;stroke-width:0.75;stroke-miterlimit:10;}
	.st13{fill:#FFFFFF;stroke:#000000;stroke-width:0.75;stroke-linecap:round;stroke-linejoin:round;stroke-miterlimit:10;}
	.st14{fill:#999999;stroke:#000000;stroke-width:0.75;stroke-linecap:round;stroke-linejoin:round;stroke-miterlimit:10;}
	.st15{fill:#E6E6E6;stroke:#000000;stroke-width:0.75;stroke-linecap:round;stroke-linejoin:round;stroke-miterlimit:10;}
</style>
<g>
	<g>
		<g>
			<polygon class="st0" points="103,57 99.1,56.2 100.3,60.2 102.3,59.6 			"/>
			<polygon class="st1" points="101.8,57.4 98.8,56.8 100.6,60.6 101.8,60.2 			"/>
			<polygon class="st1" points="101.8,38.4 98.5,37.7 101.8,35.8 			"/>
			<path class="st2" d="M73.8,29.6l-5.1,1.5l10.9,11.5c7.6-3.6,15.7-4.9,23.3-7.1L73.8,29.6z"/>
			<path class="st3" d="M98,61.8l5-1.7v-3.2l-1.3,0.5v1.8l-1.3,0.4v-3.7c-2.1,0.7-4.3,1.3-6.5,1.7L98,61.8z"/>
			<path class="st4" d="M103,38v-2.6l0,0c-7.6,2.2-15.8,3.5-23.3,7.1l14.4,15.2c2.2-0.4,4.4-0.9,6.5-1.7V37.1l1.3-0.5v1.8L103,38z"
				/>
			<polygon class="st5" points="68.7,31.1 73.8,29.6 103,35.5 103,38 101.8,38.4 101.8,36.7 100.5,37.1 100.5,59.7 101.8,59.2 
				101.8,57.4 103,57 103,60.1 98,61.8 			"/>
			<path class="st6" d="M97.3,61.8c1.5,0.1,1.9-0.6,1.9-2.1c0.1-1.5-0.1-18.1-0.2-19.9c-0.1-1.8-0.8-2.8-2.4-3
				c-1.6-0.3-25.3-5.5-26.7-5.7c-1.4-0.3-2.2,0.4-2.3,2.4c-0.1,2,0.2,18.3,0.3,19.8c0.1,1.5,0.6,2.4,2.2,2.6
				C71.8,56.1,95.9,61.6,97.3,61.8z"/>
			<g>
				<path class="st0" d="M98,50.9c0,0-28.2-6.3-29.4-6.4c-1.2-0.1-1.4-2.6,0.3-2.2c1.7,0.4,29.1,6.3,29.1,6.3V50.9z"/>
				<path class="st7" d="M98.3,50.9c1.5-0.5,0.9-2.6,0-2.2C97.3,49,97.3,51.2,98.3,50.9z"/>
			</g>
			<g>
				<path class="st0" d="M98,42.7c0,0-28.2-6.3-29.4-6.4c-1.2-0.1-1.4-2.6,0.3-2.2c1.7,0.4,29.1,6.3,29.1,6.3V42.7z"/>
				<path class="st7" d="M98.3,42.7c1.5-0.5,0.9-2.6,0-2.2C97.3,40.8,97.3,43,98.3,42.7z"/>
			</g>
			<g>
				<path class="st0" d="M98,59.1c0,0-28.2-6.3-29.4-6.4c-1.2-0.1-1.4-2.6,0.3-2.2c1.7,0.4,29.1,6.3,29.1,6.3V59.1z"/>
				<path class="st7" d="M98.3,59.1c1.5-0.5,0.9-2.6,0-2.2C97.3,57.2,97.2,59.4,98.3,59.1z"/>
			</g>
		</g>
		<g>
			<path class="st8" d="M22.5,54.5c0,0,58.8-14.2,59.5-14.3c0.7-0.1,2.1-1.2,1.3-1.8c-0.9-0.6-60.8,14.9-60.8,14.9
				S22.5,54.5,22.5,54.5z"/>
			<path class="st9" d="M22.5,53.4l61.1-14.9c0,0,0.3-2.8-1.3-2.3c-1.6,0.4-59.8,14.2-59.8,14.2S22.5,53.4,22.5,53.4z"/>
		</g>
	</g>
	<g>
		<path class="st9" d="M21.3,73.8c0,0,0-3.2,3.1-3.8c3.1-0.6,45.7-10.8,47.5-11.2s2.4-1.8,2.9-2.8s0.7-1.8,0.9-2.5
			c0.2-0.7,1-1.7,0.2-1.8c-0.8-0.2-2.6-0.5-3,1.3c-0.3,1.2-0.2,2.5-3.3,3.2c-3.1,0.7-45.4,10.6-46.2,10.9c-0.8,0.3-2.1-0.8-2.2-4.1
			C20.6,66.2,21.3,73.8,21.3,73.8z"/>
		<path class="st8" d="M22.7,74.2c0,0,0-3.2,3.1-3.8c3.1-0.6,45.7-10.8,47.5-11.2c1.8-0.4,2.4-1.8,2.9-2.8s0.7-1.8,0.9-2.5
			c0.2-0.7,0.1-2-0.7-2.2c-0.8-0.2-1.8,0.5-2.1,1.7c-0.3,1.2-0.2,2.5-3.3,3.2c-3.2,0.8-45.4,10.7-46.2,11s-2.4,0.4-2.5-3
			C21.7,67.9,22.7,74.2,22.7,74.2z"/>
	</g>
	<g>
		<g>
			<g>
				<path class="st2" d="M6,43.4c0-0.1,0-0.2-0.1-0.3c0-0.8,0-1.5,0-1.9l0,0c0-0.1,0-0.2,0-0.3v0.4l0,0C6,41.8,6,42.5,6,43.4z"/>
				<path class="st2" d="M30.6,45.8c0-0.1-0.3-0.3-0.3-0.4c-0.1-0.1-0.3-0.3-0.5-0.4c-0.1,0-0.4-0.2-0.6-0.3c-0.3-0.1-0.6-0.2-1-0.3
					c-2.1-0.6-16.6-5-17.8-5.4c-0.6-0.1-1.1-0.3-1.5-0.3H8.8c-0.7,0.1-2.7,0.5-2.8,1.4c0,0.4,0,0.7,0,1.1c0-0.1,0-0.2,0-0.3
					c0-1.9,1.2-1.5,2.4-1.1s15.8,4.9,17.9,5.5c1.3,0.4,2,0.8,2.3,1.4c0,0,0,0,0,0.1c0.7-0.2,1.4-0.4,2.1-0.6
					C30.7,46,30.6,45.8,30.6,45.8z"/>
				<path class="st4" d="M30.9,46.7c0-0.1,0-0.3-0.1-0.4c0,0,0-0.1-0.1-0.2c-0.7,0.2-1.4,0.4-2.1,0.6c0.2,0.4,0.3,0.8,0.3,1.4
					c0,0-0.4,10.6-0.5,14.7c0.7-0.1,1.3-0.2,2-0.3C30.4,62.3,30.9,46.9,30.9,46.7z"/>
				<path class="st3" d="M28.4,62.9L28.4,62.9L28.4,62.9l-5.2,14.5c-0.1,0.4-0.3,0.7-0.6,0.8c0.5-0.1,1.1-0.3,1.5-0.4
					c0.3-0.1,0.5-0.4,0.6-0.8l5.7-14.4l0,0l0,0C29.8,62.7,29.1,62.8,28.4,62.9z"/>
				<path class="st10" d="M6,40.9v0.4c0,0,0,0,0-0.1l0,0C6,41.1,6,41,6,40.9z"/>
				<path class="st10" d="M24.7,77.1c-0.1,0.4-0.3,0.6-0.6,0.8c-0.3,0.2-0.9,0.3-1.5,0.4c0.3-0.1,0.5-0.4,0.6-0.8l5.2-14.4l0,0
					c0-2.8,0.5-13.6,0.5-14.9c0-0.6,0-1.1-0.3-1.5c-0.3-0.6-1.1-1-2.3-1.4c-2.1-0.7-16.7-5.2-17.9-5.5C7.2,39.4,6,39.1,6,40.9
					c0,0.1,0,0.2,0,0.3c0-0.4,0-0.7,0-1.1c0-0.9,2.1-1.3,2.8-1.4c0.1,0,0.1,0,0.1,0c0.4,0,1,0.1,1.5,0.3c1.2,0.4,15.8,4.7,17.8,5.4
					c0.4,0.1,0.7,0.2,1,0.3c0.1,0.1,0.5,0.2,0.6,0.3c0.2,0.1,0.4,0.2,0.5,0.4c0.1,0,0.3,0.3,0.3,0.4c0.1,0.1,0.2,0.5,0.2,0.6
					s0,0.2,0.1,0.4c0,0.1-0.5,15.7-0.5,15.9l0,0L24.7,77.1z"/>
			</g>
			<g>
				<path class="st2" d="M20.9,50.3c-3.4-1.3-4.6,5.8-5.4,3.3c-2.1,2.4-7,0.1-9.5,0.1c0,3.3,0,3.5,0,3.5c0.2,0.8,5.2,16.1,5.2,16.1
					l0,0c0.1,0.6,0.4,0.9,1,1.1s7.7,3.2,8.4,3.5c0.5,0.2,1.4,0.6,2,0.3l0,0c0.3-0.1,0.5-0.4,0.6-0.8L28.4,63l0,0
					c0-1.8,0.1-3.6,0.2-6.5C24.6,57.1,25,51.3,20.9,50.3z"/>
				<path class="st11" d="M15.4,56c4.2,0.9,7.7,10.9,13.2,2.9c0.1-3.7,0.3-10.6,0.3-10.7c0-0.6,0-1.1-0.3-1.5
					c-0.3-0.6-1.1-1-2.3-1.4c-2.1-0.7-16.7-5.2-17.9-5.5C7.2,39.4,6,39.1,6,40.9v0.4l0,0c0,0.3,0,8.1,0,12.4
					C7.4,56.8,11.3,55.1,15.4,56z"/>
				<g>
					<path class="st12" d="M28.9,48.2c0,1.3-0.4,12-0.5,14.9l0,0l-5.2,14.4c-0.1,0.4-0.3,0.7-0.6,0.8l0,0c-0.6,0.3-1.5-0.1-2-0.3
						c-0.7-0.3-7.8-3.3-8.4-3.5c-0.6-0.2-0.9-0.6-1-1.1l0,0c0,0-5-15.3-5.2-16.1c0-12.8,0-12.8,0-16l0,0v-0.4c0-1.9,1.2-1.5,2.4-1.1
						s15.8,4.9,17.9,5.5c1.3,0.4,2,0.8,2.3,1.4C28.9,47.1,28.9,47.5,28.9,48.2z"/>
				</g>
			</g>
		</g>
		<g>
			<path class="st13" d="M7.5,53.5c-2.6-0.5-2.4-0.5-2.4-3s0-13.7,0-15.4c0-1.7,4.2-1.7,4.2,0.5S7.8,53.5,7.5,53.5z"/>
			<polygon class="st14" points="10.6,49.4 8.5,48.6 9.4,50.4 10.4,50.7 			"/>
			<path class="st15" d="M10.6,49.4v3.4c0,0-3.2,1-3.2,0.7c0-3,0-16.2,0-17.5s1.9-2,1.9,0s0,13.6,0,13.6L10.6,49.4z"/>
		</g>
		<g>
			<path class="st13" d="M23.5,59.2C20.8,58.7,21,58.7,21,56c0-2.6,0-14.3,0-16.1c0-1.8,4.4-1.7,4.4,0.5
				C25.3,42.6,23.8,59.3,23.5,59.2z"/>
			<polygon class="st14" points="26.8,54.9 24.6,54.1 25.5,56 26.5,56.3 			"/>
			<path class="st15" d="M26.8,54.9v3.5c0,0-3.4,1.1-3.4,0.7c0-3.1,0-16.8,0-18.2s1.9-2.1,1.9,0s0,14.1,0,14.1L26.8,54.9z"/>
		</g>
	</g>
</g>
</svg>
