<?xml version="1.0" encoding="utf-8"?>
<!-- Generator: Adobe Illustrator 21.1.0, SVG Export Plug-In . SVG Version: 6.00 Build 0)  -->
<svg version="1.1" id="Layer_1" xmlns="http://www.w3.org/2000/svg" xmlns:xlink="http://www.w3.org/1999/xlink" x="0px" y="0px"
	 width="108px" height="108px" viewBox="0 0 108 108" style="enable-background:new 0 0 108 108;" xml:space="preserve">
<style type="text/css">
	.st0{fill:#FFFFFF;}
	.st1{fill:#E6E6E6;}
	.st2{fill:#B3B3B3;}
	.st3{fill:none;stroke:#000000;stroke-width:0.75;stroke-linecap:round;stroke-linejoin:round;stroke-miterlimit:10;}
	.st4{fill:#F2F2F2;stroke:#000000;stroke-width:0.75;stroke-linecap:round;stroke-linejoin:round;stroke-miterlimit:10;}
	.st5{fill:#CCCCCC;stroke:#000000;stroke-width:0.75;stroke-linecap:round;stroke-linejoin:round;stroke-miterlimit:10;}
	.st6{fill:#B3B3B3;stroke:#000000;stroke-width:0.75;stroke-linecap:round;stroke-linejoin:round;stroke-miterlimit:10;}
	.st7{fill:#E6E6E6;stroke:#000000;stroke-width:0.75;stroke-linecap:round;stroke-linejoin:round;stroke-miterlimit:10;}
	.st8{fill:#FFFFFF;stroke:#000000;stroke-width:0.75;stroke-linecap:round;stroke-linejoin:round;stroke-miterlimit:10;}
	.st9{fill:#CCCCCC;}
	.st10{fill:#F2F2F2;}
	.st11{fill:none;stroke:#000000;stroke-width:0.75;stroke-miterlimit:10;}
	.st12{fill:#999999;stroke:#000000;stroke-width:0.75;stroke-linecap:round;stroke-linejoin:round;stroke-miterlimit:10;}
</style>
<g>
	<g>
		<g>
			<path class="st0" d="M72.1,53c10.6-6.6,21.4-13.1,32.7-18.9c-0.4-1-1.1-1.6-2.3-1.8c-1.8-0.3-28-6-29.5-6.3
				c-1.5-0.3-3.7,0.8-3.8,3.1c-0.1,2.2,1.5,19.8,1.6,21.4C70.8,51.7,71.2,52.5,72.1,53z"/>
			<path class="st1" d="M105.1,35.6c0-0.6-0.1-1.1-0.3-1.5C93.5,39.9,82.7,46.4,72.1,53c0.3,0.2,0.7,0.3,1.1,0.3
				c0.9,0.1,8.6,2.2,15.7,4.2c5.2-2.5,10.6-4.7,16.3-6.2C105.2,45.1,105.1,36.8,105.1,35.6z"/>
			<path class="st2" d="M88.9,57.5c6.2,1.7,12.1,3.3,12.8,3.4c1.7,0.2,3.5-1,3.5-2.6c0-0.6,0-3.4,0-6.9
				C99.5,52.9,94.1,55.1,88.9,57.5z"/>
			<path class="st3" d="M101.7,60.9c1.7,0.2,3.5-1,3.5-2.6c0.1-1.7-0.1-20.7-0.2-22.7c-0.1-1.9-0.8-3.1-2.6-3.3
				c-1.8-0.3-28-6-29.5-6.3c-1.5-0.3-3.7,0.8-3.8,3.1c-0.1,2.2,1.5,19.8,1.6,21.4c0.1,1.7,0.7,2.6,2.5,2.9
				C75,53.6,100.2,60.7,101.7,60.9z"/>
			<path class="st4" d="M101.6,60.9c1.7,0.2,2.1-0.7,2.2-2.4c0.1-1.7-0.1-20-0.2-22c-0.1-1.9-0.8-3.1-2.6-3.3
				c-1.8-0.3-28-6-29.5-6.3c-1.5-0.3-2.5,0.4-2.6,2.6c-0.1,2.2,0.3,20.2,0.3,21.8c0.1,1.7,0.7,2.6,2.5,2.9
				C73.5,54.6,100.1,60.7,101.6,60.9z"/>
			<path class="st5" d="M103.4,52.7c0,0-33.3-7.4-34.6-7.6c-1.4-0.1-1.7-3.1,0.4-2.6c2,0.4,34.4,7.4,34.4,7.4L103.4,52.7z"/>
			<path class="st6" d="M103.8,52.7c1.8-0.6,1.1-3.1,0-2.6C102.7,50.5,102.6,53.1,103.8,52.7z"/>
		</g>
		<g>
			<path class="st7" d="M19,52.9c0,0,64.9-15.6,65.7-15.8c0.8-0.2,2.4-1.3,1.4-2C85.1,34.5,19,51.6,19,51.6V52.9z"/>
			<path class="st8" d="M19,51.6l67.5-16.5c0,0,0.3-3-1.4-2.6C83.3,33.1,19,48.3,19,48.3V51.6z"/>
		</g>
	</g>
	<g>
		<path class="st8" d="M17.7,74.2c0,0,0-3.6,3.5-4.2c3.5-0.6,50.4-11.9,52.5-12.3c2-0.4,2.7-1.9,3.2-3.1c0.5-1.1,0.8-1.9,1-2.8
			c0.2-0.8,1.1-1.8,0.2-2c-0.9-0.2-2.9-0.5-3.4,1.4c-0.3,1.3-0.2,2.8-3.7,3.6c-3.5,0.8-50.1,11.7-51.1,12c-0.9,0.3-2.3-0.9-2.4-4.6
			C16.9,65.8,17.7,74.2,17.7,74.2z"/>
		<path class="st7" d="M19.2,74.7c0,0,0-3.6,3.5-4.2c3.5-0.6,50.4-11.9,52.5-12.3c2-0.4,2.7-1.9,3.2-3.1c0.5-1.1,0.8-1.9,1-2.8
			c0.2-0.8,0.1-2.2-0.8-2.4c-0.9-0.2-2,0.5-2.3,1.8c-0.3,1.3-0.2,2.8-3.7,3.6c-3.5,0.8-50.1,11.7-51.1,12c-0.9,0.3-2.7,0.4-2.8-3.3
			C18.1,67.6,19.2,74.7,19.2,74.7z"/>
	</g>
	<g>
		<g>
			<g>
				<path class="st0" d="M5.4,42.7c0-0.1,0-0.2-0.1-0.3c0-0.8,0-1.5,0-1.9c0,0,0,0,0,0c0-0.1,0-0.2,0-0.3v0.4c0,0,0,0,0,0
					C5.4,41.1,5.4,41.8,5.4,42.7z"/>
				<path class="st0" d="M30,45.1c0-0.1-0.3-0.3-0.3-0.4c-0.1-0.1-0.3-0.3-0.5-0.4c-0.1,0-0.4-0.2-0.6-0.3c-0.3-0.1-0.6-0.2-1-0.3
					c-2.1-0.6-16.6-5-17.8-5.4C9.2,38.2,8.7,38,8.3,38c0,0-0.1,0-0.1,0c-0.7,0.1-2.7,0.5-2.8,1.4c0,0.4,0,0.7,0,1.1
					c0-0.1,0-0.2,0-0.3c0-1.9,1.2-1.5,2.4-1.1c1.2,0.4,15.8,4.9,17.9,5.5c1.3,0.4,2,0.8,2.3,1.4c0,0,0,0,0,0.1
					c0.7-0.2,1.4-0.4,2.1-0.6C30.1,45.3,30,45.1,30,45.1z"/>
				<path class="st1" d="M30.3,46c0-0.1,0-0.3-0.1-0.4c0,0,0-0.1-0.1-0.2c-0.7,0.2-1.4,0.4-2.1,0.6c0.2,0.4,0.3,0.8,0.3,1.4
					c0,0-0.4,10.6-0.5,14.7c0.7-0.1,1.3-0.2,2-0.3C29.8,61.6,30.3,46.2,30.3,46z"/>
				<path class="st9" d="M27.8,62.2c0,0,0,0.1,0,0.1l0,0c0,0-5.2,14.4-5.2,14.4c-0.1,0.4-0.3,0.7-0.6,0.8c0.5-0.1,1.1-0.3,1.5-0.4
					c0.3-0.1,0.5-0.4,0.6-0.8l5.7-14.4v0c0,0,0,0,0,0C29.2,62,28.5,62.1,27.8,62.2z"/>
				<path class="st3" d="M5.4,40.2v0.4c0,0,0,0,0-0.1c0,0,0,0,0,0C5.4,40.4,5.4,40.3,5.4,40.2z"/>
				<path class="st3" d="M24.1,76.4c-0.1,0.4-0.3,0.6-0.6,0.8c-0.3,0.2-0.9,0.3-1.5,0.4c0.3-0.1,0.5-0.4,0.6-0.8
					c0,0,5.2-14.4,5.2-14.4l0,0c0-2.8,0.5-13.6,0.5-14.9c0-0.6,0-1.1-0.3-1.5c-0.3-0.6-1.1-1-2.3-1.4C23.6,43.9,9,39.4,7.8,39.1
					c-1.2-0.4-2.4-0.7-2.4,1.1c0,0.1,0,0.2,0,0.3c0-0.4,0-0.7,0-1.1c0-0.9,2.1-1.3,2.8-1.4c0.1,0,0.1,0,0.1,0c0.4,0,1,0.1,1.5,0.3
					c1.2,0.4,15.8,4.7,17.8,5.4c0.4,0.1,0.7,0.2,1,0.3c0.1,0.1,0.5,0.2,0.6,0.3c0.2,0.1,0.4,0.2,0.5,0.4c0.1,0,0.3,0.3,0.3,0.4
					c0.1,0.1,0.2,0.5,0.2,0.6c0,0.1,0,0.2,0.1,0.4c0,0.1-0.5,15.7-0.5,15.9v0L24.1,76.4z"/>
			</g>
			<g>
				<path class="st0" d="M20.3,49.6c-3.4-1.3-4.6,5.8-5.4,3.3c-2.1,2.4-7,0.1-9.5,0.1c0,3.3,0,3.5,0,3.5c0.2,0.8,5.2,16.1,5.2,16.1
					c0,0,0,0,0,0c0.1,0.6,0.4,0.9,1,1.1c0.6,0.2,7.7,3.2,8.4,3.5c0.5,0.2,1.4,0.6,2,0.3c0,0,0,0,0,0c0.3-0.1,0.5-0.4,0.6-0.8
					c0,0,5.2-14.4,5.2-14.4l0,0c0-1.8,0.1-3.6,0.2-6.5C24,56.4,24.4,50.6,20.3,49.6z"/>
				<path class="st10" d="M14.8,55.3c4.2,0.9,7.7,10.9,13.2,2.9c0.1-3.7,0.3-10.6,0.3-10.7c0-0.6,0-1.1-0.3-1.5
					c-0.3-0.6-1.1-1-2.3-1.4C23.6,43.9,9,39.4,7.8,39.1c-1.2-0.4-2.4-0.7-2.4,1.1v0.4c0,0,0,0,0,0c0,0.3,0,8.1,0,12.4
					C6.8,56.1,10.7,54.4,14.8,55.3z"/>
				<g>
					<path class="st11" d="M28.3,47.5c0,1.3-0.4,12-0.5,14.9l0,0c0,0-5.2,14.4-5.2,14.4c-0.1,0.4-0.3,0.7-0.6,0.8c0,0,0,0,0,0
						c-0.6,0.3-1.5-0.1-2-0.3c-0.7-0.3-7.8-3.3-8.4-3.5c-0.6-0.2-0.9-0.6-1-1.1c0,0,0,0,0,0c0,0-5-15.3-5.2-16.1
						C5.4,43.8,5.4,43.8,5.4,40.6c0,0,0,0,0,0v-0.4c0-1.9,1.2-1.5,2.4-1.1c1.2,0.4,15.8,4.9,17.9,5.5c1.3,0.4,2,0.8,2.3,1.4
						C28.3,46.4,28.3,46.8,28.3,47.5z"/>
				</g>
			</g>
		</g>
		<g>
			<path class="st8" d="M6.9,52.8c-2.6-0.5-2.4-0.5-2.4-3c0-2.5,0-13.7,0-15.4c0-1.7,4.2-1.7,4.2,0.5S7.2,52.8,6.9,52.8z"/>
			<polygon class="st12" points="10,48.7 7.9,47.9 8.8,49.7 9.8,50 			"/>
			<path class="st7" d="M10,48.7v3.4c0,0-3.2,1-3.2,0.7c0-3,0-16.2,0-17.5c0-1.3,1.9-2,1.9,0c0,2,0,13.6,0,13.6L10,48.7z"/>
		</g>
		<g>
			<path class="st8" d="M22.9,58.5c-2.7-0.5-2.5-0.5-2.5-3.2c0-2.6,0-14.3,0-16.1c0-1.8,4.4-1.7,4.4,0.5
				C24.7,41.9,23.2,58.6,22.9,58.5z"/>
			<polygon class="st12" points="26.2,54.2 24,53.4 24.9,55.3 25.9,55.6 			"/>
			<path class="st7" d="M26.2,54.2v3.5c0,0-3.4,1.1-3.4,0.7c0-3.1,0-16.8,0-18.2c0-1.4,1.9-2.1,1.9,0c0,2.1,0,14.1,0,14.1L26.2,54.2
				z"/>
		</g>
	</g>
</g>
</svg>
