<?xml version="1.0" encoding="utf-8"?>
<!-- Generator: Adobe Illustrator 21.1.0, SVG Export Plug-In . SVG Version: 6.00 Build 0)  -->
<svg version="1.1" id="Layer_1" xmlns="http://www.w3.org/2000/svg" xmlns:xlink="http://www.w3.org/1999/xlink" x="0px" y="0px"
	 width="108px" height="108px" viewBox="0 0 108 108" style="enable-background:new 0 0 108 108;" xml:space="preserve">
<style type="text/css">
	.st0{fill:#CCCCCC;stroke:#000000;stroke-width:0.5;stroke-linecap:round;stroke-linejoin:round;stroke-miterlimit:10;}
	.st1{fill:#999999;stroke:#000000;stroke-width:0.5;stroke-linecap:round;stroke-linejoin:round;stroke-miterlimit:10;}
	.st2{fill:#FFFFFF;}
	.st3{fill:#CCCCCC;}
	.st4{fill:#E6E6E6;}
	.st5{fill:none;stroke:#000000;stroke-width:0.5;stroke-linecap:round;stroke-linejoin:round;stroke-miterlimit:10;}
	.st6{fill:#F2F2F2;stroke:#000000;stroke-width:0.5;stroke-linecap:round;stroke-linejoin:round;stroke-miterlimit:10;}
	.st7{fill:#B3B3B3;stroke:#000000;stroke-width:0.5;stroke-linecap:round;stroke-linejoin:round;stroke-miterlimit:10;}
	.st8{fill:#E6E6E6;stroke:#000000;stroke-width:0.5;stroke-linecap:round;stroke-linejoin:round;stroke-miterlimit:10;}
	.st9{fill:#FFFFFF;stroke:#000000;stroke-width:0.5;stroke-linecap:round;stroke-linejoin:round;stroke-miterlimit:10;}
	.st10{fill:none;stroke:#000000;stroke-width:0.75;stroke-linecap:round;stroke-linejoin:round;stroke-miterlimit:10;}
	.st11{fill:#F2F2F2;}
	.st12{fill:#CCCCCC;stroke:#000000;stroke-width:0.75;stroke-linecap:round;stroke-linejoin:round;stroke-miterlimit:10;}
</style>
<g>
	<g>
		<g>
			<polygon class="st0" points="106.4,56.3 102.5,55.5 103.7,59.5 105.7,58.9 			"/>
			<polygon class="st1" points="105.2,56.7 102.2,56.1 104,59.9 105.2,59.5 			"/>
			<polygon class="st1" points="105.2,37.7 101.9,37 105.2,35.1 			"/>
			<path class="st2" d="M77.2,28.9l-5.1,1.5l10.9,11.5c7.6-3.6,15.7-4.9,23.3-7.1L77.2,28.9z"/>
			<path class="st3" d="M101.4,61.1l5-1.7v-3.2l-1.3,0.5v1.8l-1.3,0.4v-3.7c-2.1,0.7-4.3,1.3-6.5,1.7L101.4,61.1z"/>
			<path class="st4" d="M106.4,37.3v-2.6l0,0c-7.6,2.2-15.8,3.5-23.3,7.1L97.5,57c2.2-0.4,4.4-0.9,6.5-1.7V36.4l1.3-0.5v1.8
				L106.4,37.3z"/>
			<polygon class="st5" points="72.1,30.4 77.2,28.9 106.4,34.8 106.4,37.3 105.2,37.7 105.2,36 103.9,36.4 103.9,59 105.2,58.5 
				105.2,56.7 106.4,56.3 106.4,59.4 101.4,61.1 			"/>
			<path class="st6" d="M100.7,61.1c1.5,0.1,1.9-0.6,1.9-2.1c0.1-1.5-0.1-18.1-0.2-19.9c-0.1-1.8-0.8-2.8-2.4-3
				c-1.6-0.3-25.3-5.5-26.7-5.7c-1.4-0.3-2.2,0.4-2.3,2.4c-0.1,2,0.2,18.3,0.3,19.8c0.1,1.5,0.6,2.4,2.2,2.6
				C75.2,55.4,99.3,60.9,100.7,61.1z"/>
			<g>
				<path class="st0" d="M101.4,50.2c0,0-28.2-6.3-29.4-6.4c-1.2-0.1-1.4-2.6,0.3-2.2c1.7,0.4,29.1,6.3,29.1,6.3L101.4,50.2z"/>
				<path class="st7" d="M101.7,50.2c1.5-0.5,0.9-2.6,0-2.2C100.7,48.3,100.7,50.5,101.7,50.2z"/>
			</g>
			<g>
				<path class="st0" d="M101.4,42c0,0-28.2-6.3-29.4-6.4c-1.2-0.1-1.4-2.6,0.3-2.2c1.7,0.4,29.1,6.3,29.1,6.3L101.4,42z"/>
				<path class="st7" d="M101.7,42c1.5-0.5,0.9-2.6,0-2.2C100.7,40.1,100.7,42.3,101.7,42z"/>
			</g>
			<g>
				<path class="st0" d="M101.4,58.4c0,0-28.2-6.3-29.4-6.4c-1.2-0.1-1.4-2.6,0.3-2.2c1.7,0.4,29.1,6.3,29.1,6.3L101.4,58.4z"/>
				<path class="st7" d="M101.7,58.4c1.5-0.5,0.9-2.6,0-2.2C100.7,56.5,100.6,58.7,101.7,58.4z"/>
			</g>
		</g>
		<g>
			<path class="st8" d="M25.9,53.8c0,0,58.8-14.2,59.5-14.3c0.7-0.1,2.1-1.2,1.3-1.8c-0.9-0.6-60.8,14.9-60.8,14.9V53.8z"/>
			<path class="st9" d="M25.9,52.7L87,37.8c0,0,0.3-2.8-1.3-2.3c-1.6,0.4-59.8,14.2-59.8,14.2V52.7z"/>
		</g>
	</g>
	<g>
		<path class="st9" d="M24.7,73.1c0,0,0-3.2,3.1-3.8c3.1-0.6,45.7-10.8,47.5-11.2c1.8-0.4,2.4-1.8,2.9-2.8c0.5-1,0.7-1.8,0.9-2.5
			c0.2-0.7,1-1.7,0.2-1.8c-0.8-0.2-2.6-0.5-3,1.3c-0.3,1.2-0.2,2.5-3.3,3.2c-3.1,0.7-45.4,10.6-46.2,10.9c-0.8,0.3-2.1-0.8-2.2-4.1
			C24,65.5,24.7,73.1,24.7,73.1z"/>
		<path class="st8" d="M26.1,73.5c0,0,0-3.2,3.1-3.8c3.1-0.6,45.7-10.8,47.5-11.2c1.8-0.4,2.4-1.8,2.9-2.8c0.5-1,0.7-1.8,0.9-2.5
			c0.2-0.7,0.1-2-0.7-2.2c-0.8-0.2-1.8,0.5-2.1,1.7c-0.3,1.2-0.2,2.5-3.3,3.2C71.2,56.7,29,66.6,28.2,66.9c-0.8,0.3-2.4,0.4-2.5-3
			C25.1,67.2,26.1,73.5,26.1,73.5z"/>
	</g>
	<g>
		<path class="st2" d="M30.5,46.6c-1.8-0.6-15.2-4.9-16.4-5.3c-0.6-0.2-1.1-0.4-1.5-0.3c-0.5,0.1-3.2,0.6-3.1,2
			c0.2,1.5,1.9,7.5,3.3,12.3c6.7-1.6,13.3-4,19.6-7.1C32.3,47.5,31.7,47,30.5,46.6z"/>
		<path class="st3" d="M24.7,79c0.5,0.2,1.8-0.9,2.4-1.7c0.2-0.3,0.4-0.8,0.5-1.6c0.1-0.5,0.1-1.2,0.2-2c-1.6,1.9-3.3,3.2-5,4.1
			C23.8,78.4,24.5,78.9,24.7,79z"/>
		<path class="st4" d="M32.4,48.4c-6.3,3.1-13,5.5-19.6,7.1c1,3.5,3.5,16.7,3.5,16.7c0.1,1,0.4,1.6,1,1.8c0.4,0.1,3.6,2.4,5.7,3.9
			c1.8-0.9,3.4-2.2,5-4.1c0.5-4.3,4.2-22.5,4.4-24C32.4,49.1,32.4,48.7,32.4,48.4z"/>
		<path class="st10" d="M16.2,72.1c0.1,1,0.4,1.6,1,1.8c0.6,0.2,6.9,4.8,7.5,5.1c0.5,0.2,1.8-0.9,2.4-1.7c0.2-0.3,0.4-0.8,0.5-1.6
			c0.4-2.8,4.4-24.3,4.7-26c0.3-1.7-0.1-2.4-1.9-3c-1.8-0.6-15.2-4.9-16.4-5.3c-0.6-0.2-1.1-0.4-1.5-0.3c-0.5,0.1-3.2,0.6-3.1,2
			C9.7,45.7,16.2,72.1,16.2,72.1z"/>
		<path class="st2" d="M15.5,50.5c-1.8,1.5-3.2,2-4.4,1.2c0.8,5.3,3.7,21.6,3.7,21.6c0.1,1,0.4,1.6,1,1.8c0.6,0.2,7.4,3.3,8,3.6
			c0.6,0.3,2.1,1,2.5-1.8c0.2-1.7,2.8-16.8,3.4-20.8C24.1,57.4,17.6,55.5,15.5,50.5z"/>
		<path class="st11" d="M28.6,47.9c-1.8-0.6-15.2-4.9-16.4-5.3c-1.2-0.4-2.4-0.8-2.2,1.8c0.1,1,0.5,4,1,7.4c1.2,0.7,2.6,0.2,4.4-1.2
			c2.1,4.9,8.5,6.9,14.2,5.6c0.4-2.5,0.7-4.5,0.8-5.2C30.8,49.2,30.4,48.5,28.6,47.9z"/>
		<path class="st10" d="M14.8,73.4c0.1,1,0.4,1.6,1,1.8s7.4,3.3,8,3.6c0.6,0.3,2.1,1,2.5-1.8c0.4-2.8,3.9-24.3,4.2-26
			c0.3-1.7-0.1-2.4-1.9-3c-1.8-0.6-15.2-4.9-16.4-5.3s-2.4-0.8-2.2,1.8C10.4,47,14.8,73.4,14.8,73.4z"/>
		<g>
			<path class="st2" d="M13.7,47.3c0.2-0.5,0.3-1.1,0.2-1.7c-0.2-1.1-0.8-1.9-2.7-1.7c0,0-2.6,0.6-3.8,0.7c-1.2,0.2-1.6-0.8-1.6-1.7
				C5.7,42,6,35.7,6,31.6s-4.3-2.9-4.3-0.1c0,2.7-0.1,7.6-0.1,12.5c0,0.5,0,1,0.1,1.5C4.9,48.4,9.1,48.4,13.7,47.3z"/>
			<path class="st4" d="M1.7,45.4c0.5,3.6,3,4.4,4.6,4.1c1.8-0.2,3.9-0.7,5.5-1c1-0.1,1.6-0.6,1.9-1.3C9.1,48.4,4.9,48.4,1.7,45.4z"
				/>
			<path class="st10" d="M11.1,44c2-0.3,2.5,0.6,2.7,1.7c0.2,1.2-0.2,2.7-2.1,2.9c-1.6,0.2-3.7,0.7-5.5,1c-1.8,0.2-4.7-0.8-4.7-5.6
				s0.1-9.8,0.1-12.5s4.3-4,4.3,0.1S5.7,42,5.7,43s0.4,1.9,1.6,1.7C8.5,44.5,11.1,44,11.1,44z"/>
			<path class="st12" d="M13.7,45c-5,1.3-7,1.5-7.5-0.6c0.3,0.3,0.6,0.4,1.2,0.3c1.2-0.2,3.8-0.7,3.8-0.7
				C12.7,43.8,13.3,44.3,13.7,45z"/>
		</g>
		<g>
			<path class="st2" d="M29.2,52c0.2-0.5,0.3-1.1,0.2-1.7c-0.2-1.1-0.8-1.9-2.7-1.7c0,0-2.6,0.6-3.8,0.7c-1.2,0.2-1.6-0.8-1.6-1.7
				c0-0.9,0.3-7.3,0.3-11.4s-4.3-2.9-4.3-0.1c0,2.7-0.1,7.6-0.1,12.5c0,0.5,0,1,0.1,1.5C20.4,53.1,24.7,53.1,29.2,52z"/>
			<path class="st4" d="M17.2,50.1c0.5,3.6,3,4.4,4.6,4.1c1.8-0.2,3.9-0.7,5.5-1c1-0.1,1.6-0.6,1.9-1.3
				C24.7,53.1,20.4,53.1,17.2,50.1z"/>
			<path class="st10" d="M26.7,48.7c2-0.3,2.5,0.6,2.7,1.7c0.2,1.2-0.2,2.7-2.1,2.9c-1.6,0.2-3.7,0.7-5.5,1
				c-1.8,0.2-4.7-0.8-4.7-5.6s0.1-9.8,0.1-12.5s4.3-4,4.3,0.1s-0.3,10.4-0.3,11.4s0.4,1.9,1.6,1.7C24.1,49.2,26.7,48.7,26.7,48.7z"
				/>
			<path class="st12" d="M29.2,49.7c-5,1.3-7,1.5-7.5-0.6c0.3,0.3,0.6,0.4,1.2,0.3c1.2-0.2,3.8-0.7,3.8-0.7
				C28.2,48.5,28.9,49,29.2,49.7z"/>
		</g>
	</g>
</g>
</svg>
