<?xml version="1.0" encoding="utf-8"?>
<!-- Generator: Adobe Illustrator 21.1.0, SVG Export Plug-In . SVG Version: 6.00 Build 0)  -->
<svg version="1.1" id="Layer_1" xmlns="http://www.w3.org/2000/svg" xmlns:xlink="http://www.w3.org/1999/xlink" x="0px" y="0px"
	 width="108px" height="108px" viewBox="0 0 108 108" style="enable-background:new 0 0 108 108;" xml:space="preserve">
<style type="text/css">
	.st0{fill:#FFFFFF;}
	.st1{fill:#E6E6E6;}
	.st2{fill:#B3B3B3;}
	.st3{fill:none;stroke:#000000;stroke-width:0.5;stroke-linecap:round;stroke-linejoin:round;stroke-miterlimit:10;}
	.st4{fill:#F2F2F2;stroke:#000000;stroke-width:0.5;stroke-linecap:round;stroke-linejoin:round;stroke-miterlimit:10;}
	.st5{fill:#CCCCCC;stroke:#000000;stroke-width:0.5;stroke-linecap:round;stroke-linejoin:round;stroke-miterlimit:10;}
	.st6{fill:#B3B3B3;stroke:#000000;stroke-width:0.5;stroke-linecap:round;stroke-linejoin:round;stroke-miterlimit:10;}
	.st7{fill:#E6E6E6;stroke:#000000;stroke-width:0.5;stroke-linecap:round;stroke-linejoin:round;stroke-miterlimit:10;}
	.st8{fill:#FFFFFF;stroke:#000000;stroke-width:0.5;stroke-linecap:round;stroke-linejoin:round;stroke-miterlimit:10;}
	.st9{fill:#F2F2F2;}
	.st10{fill:none;stroke:#000000;stroke-width:0.75;stroke-linecap:round;stroke-linejoin:round;stroke-miterlimit:10;}
	.st11{fill:#CCCCCC;stroke:#000000;stroke-width:0.75;stroke-linecap:round;stroke-linejoin:round;stroke-miterlimit:10;}
	.st12{fill:#FFFFFF;stroke:#000000;stroke-width:0.75;stroke-linecap:round;stroke-linejoin:round;stroke-miterlimit:10;}
	.st13{fill:#F2F2F2;stroke:#000000;stroke-width:0.75;stroke-linecap:round;stroke-linejoin:round;stroke-miterlimit:10;}
</style>
<g>
	<g>
		<g>
			<path class="st0" d="M71,54.6c10.7-6.7,21.5-13.1,32.9-19.1c-0.4-1-1.1-1.6-2.4-1.8c-1.8-0.3-28.2-6.1-29.7-6.3
				c-1.5-0.3-3.8,0.8-3.9,3.1C68,32.7,69.6,50.3,69.7,52C69.7,53.3,70.1,54.1,71,54.6z"/>
			<path class="st1" d="M104.2,37.1c0-0.6-0.1-1.1-0.3-1.5C92.6,41.5,81.7,47.9,71,54.6c0.3,0.2,0.7,0.3,1.1,0.3
				c1,0.2,8.6,2.3,15.8,4.2c5.3-2.5,10.7-4.7,16.4-6.3C104.4,46.7,104.3,38.3,104.2,37.1z"/>
			<path class="st2" d="M88,59.2c6.3,1.7,12.2,3.3,12.9,3.4c1.7,0.2,3.5-1,3.6-2.7c0-0.6,0-3.5,0-7C98.6,54.5,93.2,56.7,88,59.2z"/>
			<path class="st3" d="M100.8,62.6c1.7,0.2,3.5-1,3.6-2.7c0.1-1.7-0.1-20.9-0.2-22.8c-0.1-2-0.8-3.1-2.6-3.4
				c-1.8-0.3-28.2-6.1-29.7-6.3c-1.5-0.3-3.8,0.8-3.9,3.1C68,32.7,69.6,50.3,69.7,52c0.1,1.7,0.7,2.7,2.5,2.9
				C74,55.2,99.3,62.4,100.8,62.6z"/>
			<path class="st4" d="M100.7,62.6c1.7,0.2,2.1-0.7,2.2-2.4c0.1-1.7-0.1-20.2-0.2-22.1c-0.1-2-0.8-3.1-2.6-3.4
				c-1.8-0.3-28.2-6.1-29.7-6.3c-1.5-0.3-2.5,0.4-2.6,2.7c-0.1,2.2,0.3,20.3,0.3,22c0.1,1.7,0.7,2.7,2.5,2.9
				C72.4,56.2,99.2,62.4,100.7,62.6z"/>
			<g>
				<path class="st5" d="M102.6,54.3c0,0-33.5-7.5-34.9-7.6c-1.4-0.1-1.7-3.1,0.4-2.7c2.1,0.4,34.6,7.5,34.6,7.5L102.6,54.3z"/>
				<path class="st6" d="M103,54.3c1.8-0.6,1.1-3.1,0-2.7C101.8,52.1,101.7,54.7,103,54.3z"/>
			</g>
		</g>
		<g>
			<path class="st7" d="M17.5,54.5c0,0,65.3-15.7,66.2-15.9c0.8-0.2,2.4-1.3,1.4-2c-1-0.6-67.6,16.6-67.6,16.6V54.5z"/>
			<path class="st8" d="M17.5,53.2l68-16.6c0,0,0.3-3.1-1.4-2.6c-1.8,0.5-66.5,15.8-66.5,15.8V53.2z"/>
		</g>
	</g>
	<g>
		<path class="st8" d="M16.3,75.9c0,0,0-3.6,3.5-4.2c3.5-0.6,50.8-12,52.8-12.4c2.1-0.4,2.7-1.9,3.2-3.1c0.5-1.1,0.8-1.9,1-2.8
			c0.2-0.8,1.1-1.8,0.2-2.1c-0.9-0.2-2.9-0.5-3.4,1.4c-0.4,1.3-0.2,2.8-3.7,3.6c-3.5,0.8-50.5,11.8-51.4,12.1
			c-0.9,0.3-2.3-0.9-2.4-4.6C15.5,67.5,16.3,75.9,16.3,75.9z"/>
		<path class="st7" d="M17.8,76.4c0,0,0-3.6,3.5-4.2c3.5-0.6,50.8-12,52.8-12.4c2.1-0.4,2.7-1.9,3.2-3.1c0.5-1.1,0.8-1.9,1-2.8
			c0.2-0.8,0.1-2.3-0.8-2.5c-0.9-0.2-2.1,0.5-2.4,1.8c-0.3,1.3-0.2,2.8-3.7,3.6C68,57.8,21,68.7,20.1,69c-0.9,0.3-2.7,0.4-2.8-3.3
			C16.7,69.3,17.8,76.4,17.8,76.4z"/>
	</g>
	<g>
		<path class="st0" d="M7.7,74c-0.1,1.9,0.3,2.5,1.6,3.3c1.3,0.8,6.3,3.2,7.6,3.3c0,0,0.2-5,0.5-11.2c-3.4-0.8-6.6-2.2-9.7-3.6
			C7.7,70.1,7.7,73.4,7.7,74z"/>
		<path class="st9" d="M18.3,46.8c-0.1-1-8.9-4.4-10.4-4.8c0,0-0.1,14.3-0.1,23.8c3,1.5,6.3,2.8,9.7,3.6
			C17.8,60.1,18.4,48,18.3,46.8z"/>
		<path class="st10" d="M16.9,80.6c-1.4-0.1-6.3-2.6-7.6-3.3C8,76.5,7.5,75.9,7.7,74c0.1-1.9,0.2-32,0.2-32
			c1.5,0.5,10.3,3.8,10.4,4.8C18.4,48.8,16.9,80.6,16.9,80.6z"/>
		<path class="st11" d="M16.5,46.9c0.1-1.5,2-1.4,1.9,0.6c-0.1,1.9,0.1,30.2,0,31.8c-0.1,1.6-2,1.9-1.9,0.1
			C16.5,77.6,16.5,46.9,16.5,46.9z"/>
		<polygon class="st12" points="14.9,39.1 13.3,39.7 9.8,38.2 8.2,37.5 5.7,36.5 7.1,36 		"/>
		<polygon class="st11" points="14.9,39.1 12.7,60.4 11.2,61.2 13.3,39.7 		"/>
		<polygon class="st13" points="13.3,39.7 11.2,61.2 3.6,57.3 5.7,36.5 8.2,37.5 9.8,38.2 		"/>
		<g>
			<polygon class="st8" points="10.9,38.7 7.8,57.6 5.2,56.3 8.2,37.5 9.8,38.2 			"/>
			<polygon class="st5" points="10.9,38.7 9,57.1 7.8,57.6 			"/>
		</g>
	</g>
</g>
</svg>
