<?xml version="1.0" encoding="utf-8"?>
<!-- Generator: Adobe Illustrator 21.1.0, SVG Export Plug-In . SVG Version: 6.00 Build 0)  -->
<svg version="1.1" id="Layer_1" xmlns="http://www.w3.org/2000/svg" xmlns:xlink="http://www.w3.org/1999/xlink" x="0px" y="0px"
	 width="108px" height="108px" viewBox="0 0 108 108" style="enable-background:new 0 0 108 108;" xml:space="preserve">
<style type="text/css">
	.st0{fill:#CCCCCC;stroke:#000000;stroke-width:0.5;stroke-linecap:round;stroke-linejoin:round;stroke-miterlimit:10;}
	.st1{fill:#999999;stroke:#000000;stroke-width:0.5;stroke-linecap:round;stroke-linejoin:round;stroke-miterlimit:10;}
	.st2{fill:#FFFFFF;}
	.st3{fill:#CCCCCC;}
	.st4{fill:#E6E6E6;}
	.st5{fill:none;stroke:#000000;stroke-width:0.5;stroke-linecap:round;stroke-linejoin:round;stroke-miterlimit:10;}
	.st6{fill:#F2F2F2;stroke:#000000;stroke-width:0.5;stroke-linecap:round;stroke-linejoin:round;stroke-miterlimit:10;}
	.st7{fill:#B3B3B3;stroke:#000000;stroke-width:0.5;stroke-linecap:round;stroke-linejoin:round;stroke-miterlimit:10;}
	.st8{fill:#E6E6E6;stroke:#000000;stroke-width:0.5;stroke-linecap:round;stroke-linejoin:round;stroke-miterlimit:10;}
	.st9{fill:#FFFFFF;stroke:#000000;stroke-width:0.5;stroke-linecap:round;stroke-linejoin:round;stroke-miterlimit:10;}
	.st10{fill:#F2F2F2;}
	.st11{fill:none;stroke:#000000;stroke-width:0.75;stroke-linecap:round;stroke-linejoin:round;stroke-miterlimit:10;}
	.st12{fill:#CCCCCC;stroke:#000000;stroke-width:0.75;stroke-linecap:round;stroke-linejoin:round;stroke-miterlimit:10;}
	.st13{fill:#FFFFFF;stroke:#000000;stroke-width:0.75;stroke-linecap:round;stroke-linejoin:round;stroke-miterlimit:10;}
	.st14{fill:#F2F2F2;stroke:#000000;stroke-width:0.75;stroke-linecap:round;stroke-linejoin:round;stroke-miterlimit:10;}
</style>
<g>
	<g>
		<g>
			<polygon class="st0" points="106.9,57.1 102.4,56.4 103.8,60.7 106,60 			"/>
			<polygon class="st1" points="105.5,57.7 102.2,57 104.1,61.2 105.5,60.7 			"/>
			<polygon class="st1" points="105.5,36.7 101.8,35.9 105.5,33.7 			"/>
			<path class="st2" d="M74.5,26.9l-5.6,1.6L81,41.2c8.4-4,17.4-5.4,25.8-7.8L74.5,26.9z"/>
			<path class="st3" d="M101.3,62.5l5.6-1.8v-3.5l-1.4,0.5v2l-1.4,0.5v-4.1c-2.3,0.8-4.7,1.4-7.1,1.9L101.3,62.5z"/>
			<path class="st4" d="M106.9,36.2v-2.8l-0.1,0c-8.4,2.5-17.4,3.8-25.8,7.8l16,16.7c2.4-0.5,4.8-1.1,7.1-1.9V35.2l1.4-0.5v2
				L106.9,36.2z"/>
			<polygon class="st5" points="68.9,28.5 74.5,26.9 106.9,33.4 106.9,36.2 105.5,36.7 105.5,34.7 104.1,35.2 104.1,60.1 
				105.5,59.7 105.5,57.7 106.9,57.1 106.9,60.6 101.3,62.5 			"/>
			<path class="st6" d="M100.5,62.5c1.7,0.2,2.1-0.7,2.2-2.4c0.1-1.7-0.1-20.1-0.2-22c-0.1-1.9-0.8-3.1-2.6-3.3
				c-1.8-0.3-28-6-29.5-6.3c-1.5-0.3-2.5,0.4-2.6,2.6c-0.1,2.2,0.3,20.2,0.3,21.9c0.1,1.7,0.7,2.6,2.5,2.9
				C72.3,56.2,99,62.3,100.5,62.5z"/>
			<g>
				<path class="st0" d="M101.2,41.4c0,0-31.2-7-32.5-7.1c-1.3-0.1-1.6-2.9,0.4-2.5c1.9,0.4,32.2,7,32.2,7L101.2,41.4z"/>
				<path class="st7" d="M101.6,41.4c1.7-0.6,1-2.9,0-2.5C100.5,39.3,100.4,41.7,101.6,41.4z"/>
			</g>
			<g>
				<path class="st0" d="M101.2,59.5c0,0-31.2-7-32.5-7.1c-1.3-0.1-1.6-2.9,0.4-2.5c1.9,0.4,32.2,7,32.2,7L101.2,59.5z"/>
				<path class="st7" d="M101.6,59.5c1.7-0.6,1-2.9,0-2.5C100.5,57.4,100.4,59.9,101.6,59.5z"/>
			</g>
		</g>
		<g>
			<path class="st8" d="M17.8,54.5c0,0,65-15.6,65.8-15.8c0.8-0.2,2.4-1.3,1.4-2c-1-0.6-67.2,16.5-67.2,16.5V54.5z"/>
			<path class="st9" d="M17.8,53.2l67.6-16.5c0,0,0.3-3-1.4-2.6c-1.8,0.5-66.2,15.7-66.2,15.7V53.2z"/>
		</g>
	</g>
	<g>
		<path class="st9" d="M16.5,75.7c0,0,0-3.6,3.5-4.2c3.5-0.6,50.5-11.9,52.5-12.3c2-0.4,2.7-1.9,3.2-3.1c0.5-1.1,0.8-1.9,1-2.8
			c0.2-0.8,1.1-1.8,0.2-2c-0.9-0.2-2.9-0.5-3.4,1.4c-0.3,1.3-0.2,2.8-3.7,3.6c-3.5,0.8-50.2,11.7-51.1,12c-0.9,0.3-2.3-0.9-2.4-4.6
			C15.7,67.4,16.5,75.7,16.5,75.7z"/>
		<path class="st8" d="M18,76.3c0,0,0-3.6,3.5-4.2C25,71.5,72,60.1,74.1,59.7c2-0.4,2.7-1.9,3.2-3.1c0.5-1.1,0.8-1.9,1-2.8
			c0.2-0.8,0.1-2.2-0.8-2.4c-0.9-0.2-2,0.5-2.3,1.8c-0.3,1.3-0.2,2.8-3.7,3.6c-3.5,0.8-50.2,11.7-51.1,12c-0.9,0.3-2.7,0.4-2.8-3.3
			C16.9,69.2,18,76.3,18,76.3z"/>
	</g>
	<g>
		<path class="st2" d="M7.7,74c-0.1,1.9,0.3,2.5,1.6,3.3c1.3,0.8,6.3,3.2,7.6,3.3c0,0,0.2-5,0.5-11.2c-3.4-0.8-6.6-2.2-9.7-3.6
			C7.7,70.1,7.7,73.4,7.7,74z"/>
		<path class="st10" d="M18.3,46.8c-0.1-1-8.9-4.4-10.4-4.8c0,0-0.1,14.3-0.1,23.8c3,1.5,6.3,2.8,9.7,3.6
			C17.8,60.1,18.4,48,18.3,46.8z"/>
		<path class="st11" d="M16.9,80.6c-1.4-0.1-6.3-2.6-7.6-3.3C8,76.5,7.5,75.9,7.7,74c0.1-1.9,0.2-32,0.2-32
			c1.5,0.5,10.3,3.8,10.4,4.8C18.4,48.8,16.9,80.6,16.9,80.6z"/>
		<path class="st12" d="M16.5,46.9c0.1-1.5,2-1.4,1.9,0.6c-0.1,1.9,0.1,30.2,0,31.8c-0.1,1.6-2,1.9-1.9,0.1
			C16.5,77.6,16.5,46.9,16.5,46.9z"/>
		<polygon class="st13" points="14.9,39.1 13.3,39.7 9.8,38.2 8.2,37.5 5.7,36.5 7.1,36 		"/>
		<polygon class="st12" points="14.9,39.1 12.7,60.4 11.2,61.2 13.3,39.7 		"/>
		<polygon class="st14" points="13.3,39.7 11.2,61.2 3.6,57.3 5.7,36.5 8.2,37.5 9.8,38.2 		"/>
		<g>
			<polygon class="st9" points="10.9,38.7 7.8,57.6 5.2,56.3 8.2,37.5 9.8,38.2 			"/>
			<polygon class="st0" points="10.9,38.7 9,57.1 7.8,57.6 			"/>
		</g>
	</g>
</g>
</svg>
