<?xml version="1.0" encoding="utf-8"?>
<!-- Generator: Adobe Illustrator 21.1.0, SVG Export Plug-In . SVG Version: 6.00 Build 0)  -->
<svg version="1.1" id="Layer_1" xmlns="http://www.w3.org/2000/svg" xmlns:xlink="http://www.w3.org/1999/xlink" x="0px" y="0px"
	 width="108px" height="108px" viewBox="0 0 108 108" style="enable-background:new 0 0 108 108;" xml:space="preserve">
<style type="text/css">
	.st0{fill:#B3B3B3;stroke:#000000;stroke-width:0.75;stroke-linecap:round;stroke-linejoin:round;stroke-miterlimit:10;}
	.st1{fill:#999999;stroke:#000000;stroke-width:0.75;stroke-linecap:round;stroke-linejoin:round;stroke-miterlimit:10;}
	.st2{fill:#FFFFFF;stroke:#000000;stroke-width:0.75;stroke-linecap:round;stroke-linejoin:round;stroke-miterlimit:10;}
	.st3{fill:#F2F2F2;stroke:#000000;stroke-width:0.75;stroke-linecap:round;stroke-linejoin:round;stroke-miterlimit:10;}
	.st4{fill:#CCCCCC;stroke:#000000;stroke-width:0.75;stroke-linecap:round;stroke-linejoin:round;stroke-miterlimit:10;}
</style>
<g>
	<path class="st0" d="M27.4,78.5c0,1.2,0.3,2.2-0.5,2.8c-1.1,0.8-3,1.1-4.3,1.6c-1,0.4-2.5,0.6-3.4,1.3c-0.5,0.4-0.6,1.1-1.2,1.3
		c0.7-1.1-0.6-2.6-1.8-2.2C19.9,81.7,23.6,80.1,27.4,78.5z"/>
	<path class="st1" d="M19.4,87.3c-2.9,1.3-5.9,2.5-8.8,3.8c2.6-2,5.2-4.1,7.9-5.9C18.5,85.9,19.1,86.6,19.4,87.3z"/>
	<path class="st2" d="M112.1,17.7c-2.7,1-5.4,2-8.1,2.9C88.2,26.3,72.5,32,56.7,37.7c-9.9,3.6-19.8,7.2-29.8,10.8
		c2,2.9,3.2,6.3,3.4,9.6c0.4,7.1,0,14.2,0,21.2c0,4.9,0,9.7,0,14.6c0,1.7,0.7,4.7-0.8,5.7c0.1,0,0.2-0.1,0.3-0.1
		c0.8-0.1,1.7-0.7,2.3-1c1.5-0.6,2.9-1.3,4.4-1.9c4.5-2,9-3.9,13.5-5.9c11.8-5.1,23.7-10.3,35.5-15.4c8.8-3.8,17.7-7.7,26.5-11.5"/>
	<path class="st3" d="M112.1,6.7c-3.3,1.2-6.7,2.4-10,3.5C83.5,16.7,65,23.3,46.5,29.8C34.9,33.9,23.3,38,11.6,42.1
		c0.9,0.1,1.8,0.4,2.7,0.7c0.5,0.2,1.5,0.9,1.9,1c0.4,0,1-0.3,1.3-0.4c2.5-0.9,5.1-1.8,7.6-2.7C43.9,34,62.7,27.4,81.4,20.8
		c8.3-2.9,16.6-5.9,25-8.8c1.9-0.7,3.8-1.3,5.7-2"/>
	<line class="st2" x1="10.5" y1="48" x2="10.5" y2="48"/>
	<path class="st4" d="M27.4,81.2c0,2.8,0,5.5,0,8.3c0,0.7,0.5,6.8-0.5,6.5c-0.5-0.2-1.2-2.2-1.4-2.6c-0.9-1.8-1.9-3.6-2.8-5.4
		c-0.6-1.1-1.6-4.5-3.4-3.8C21.9,83.2,24.7,82.2,27.4,81.2z"/>
	<path class="st3" d="M30.4,59c0,0,0,21.1,0,31.6c0,2.3,0,4.5,0,6.8c0,1.1,0,1.8-1.1,2.3c-1.6,0.8-3.3-0.3-4.2-1.9
		c-1.3-2.3-2.5-4.8-3.8-7.1c-0.6-1.2-2.8-4.1-2.7-5.4c0.1-1.2,1.5-1.4,2.3-0.5c0.6,0.7,1,2,1.4,2.7c0.9,1.6,1.7,3.2,2.6,4.9
		c0.3,0.6,1.8,4.4,2.5,3.3c0.5-0.8,0-3.5,0-4.5c0-3.1,0-6.1,0-9.2c0-6.3,0-12.7,0-19c0-1.1,0.3-2.5-0.1-3.6c-0.6-1.7-3.6-3-5.1-3.8
		c-1.9-1-4-1.8-6-2.4c-1.4-0.4-4.2-1.4-5.5-0.9c-0.9,0.3-0.7,1.3-0.7,2.1c0,2.4,0,4.8-0.1,7.2c-0.1,6.7-0.1,13.4-0.2,20
		c0,1.6-0.4,3.6-0.1,5.2c0.3,1.1,0.6,0.9,1.4,0.4c1.2-0.8,2.4-1.8,3.5-2.6c0.5-0.4,1.2-1.2,1.9-1.3c1.1-0.1,2.1,1.2,1.6,2.1
		c-0.3,0.6-1.3,1.1-1.8,1.5c-1.3,0.9-2.5,1.9-3.8,2.8c-1.5,1.1-2.6,2-4.6,0.4c-2.5-2.1-1.4-6.9-1.3-9.4c0.1-6.7,0.3-13.3,0.4-20
		c0.1-4-0.1-8.1,0.3-12c0.2-2,1-3.8,2.3-5.1c1.5-1.6,2.8-1.8,5.1-0.8c0.9,0.4,3.1,1.2,2.5,2.5c-0.6,1.3-2.6-0.4-3.6-0.5
		c-1.9-0.2-2.9,2.2-2.9,4c5.7,0.7,11.1,2.7,16.2,6.1c0-1.8-0.6-3.8-2.2-4.9c-1-0.7-3.3-1.2-2.9-2.8c0.4-1.7,2.7-0.4,3.8,0.2
		c1.9,1.1,2.9,2.9,3.7,4.9C29.9,54.5,30.3,56.8,30.4,59z"/>
	<path class="st1" d="M27.4,59.7c0,3.5,0,7,0,10.5c0,2.1,0,4.3,0,6.4c0,0.8,0.2,1.6-0.2,2.1c-0.3,0.4-1.4,0.6-1.9,0.8
		c-1,0.4-2,0.9-3,1.3c-1.9,0.8-3.8,1.5-5.6,2.4c-1,0.5-1.9,1.2-2.8,1.9c-0.7,0.6-2.5,2.6-3.6,2.6c-1.3,0-0.8-2.9-0.7-3.7
		c0-4.3,0.1-8.6,0.1-12.9c0-4.5,0.1-9.1,0.1-13.6c0-1.1-0.6-4.4,0.5-5.1c0.8-0.5,2.6,0.1,3.5,0.3c1.7,0.3,3.4,0.9,5.1,1.5
		C21.3,55,26.6,57,27.4,59.7z"/>
	<path class="st0" d="M16.6,46c-2,0.7-4,1.3-6.1,2c0.2-1.5,1.2-3.3,2.8-3.1C14.1,45,16.1,45.7,16.6,46z"/>
	<path class="st4" d="M112.1,10c-3.1,1.1-6.2,2.2-9.4,3.3c-17.7,6.2-35.3,12.4-53,18.7c-11.1,3.9-22.3,7.8-33.4,11.8
		c1.4,0.6,0.4,1.6,0.3,2.3c4.2-1.5,8.4-3,12.5-4.4c18.1-6.4,36.2-12.8,54.4-19.2c7.7-2.7,15.4-5.4,23.1-8.2c1.8-0.6,3.7-1.3,5.5-1.9
		"/>
	<path class="st3" d="M112.1,14.3c-2.9,1-5.8,2.1-8.6,3.1C87,23.3,70.5,29.2,54.1,35.1c-10.4,3.7-20.9,7.5-31.3,11.2
		c0.8,0.2,1.6,0.5,2.3,1c0.5,0.3,1.4,1.2,1.9,1.3c0.3,0,0.7-0.3,1-0.3c2.2-0.8,4.5-1.6,6.7-2.4c16.8-6.1,33.5-12.2,50.3-18.2
		c7.5-2.7,15.1-5.5,22.6-8.2c1.5-0.6,3.1-1.1,4.6-1.7"/>
	<path class="st1" d="M112.1,12.3c-3.7,1.3-7.4,2.6-11.1,3.9C81.8,23,62.7,29.7,43.5,36.5c-7.3,2.6-14.7,5.2-22,7.8
		c-1.6,0.6-3.1,1.1-4.7,1.7c-1.4,0.5-6.7,1.3-6.4,2.9c5.7,0.7,11.1,2.7,16.2,6.1c0-1.7-0.5-3.6-2-4.8c-1-0.8-3.2-1.2-3.1-2.7
		c0.1-1.1,1.8-1.3,2.7-1.7c2.4-0.9,4.8-1.7,7.3-2.6C48.7,37,66,30.8,83.2,24.7c7.7-2.8,15.4-5.5,23.1-8.3c1.9-0.7,3.8-1.4,5.7-2.1"
		/>
</g>
</svg>
