<?xml version="1.0" encoding="utf-8"?>
<!-- Generator: Adobe Illustrator 21.1.0, SVG Export Plug-In . SVG Version: 6.00 Build 0)  -->
<svg version="1.1" id="Layer_1" xmlns="http://www.w3.org/2000/svg" xmlns:xlink="http://www.w3.org/1999/xlink" x="0px" y="0px"
	 width="108px" height="108px" viewBox="0 0 108 108" style="enable-background:new 0 0 108 108;" xml:space="preserve">
<style type="text/css">
	.st0{fill:#FFFFFF;stroke:#000000;stroke-width:0.75;stroke-linecap:round;stroke-linejoin:round;stroke-miterlimit:10;}
	.st1{fill:#F2F2F2;stroke:#000000;stroke-width:0.75;stroke-linecap:round;stroke-linejoin:round;stroke-miterlimit:10;}
	.st2{fill:#999999;stroke:#000000;stroke-width:0.75;stroke-linecap:round;stroke-linejoin:round;stroke-miterlimit:10;}
	.st3{fill:#B3B3B3;stroke:#000000;stroke-width:0.75;stroke-linecap:round;stroke-linejoin:round;stroke-miterlimit:10;}
	.st4{fill:#E6E6E6;stroke:#000000;stroke-width:0.75;stroke-linecap:round;stroke-linejoin:round;stroke-miterlimit:10;}
	.st5{fill:#FFFFFF;stroke:#000000;stroke-width:0.5;stroke-linecap:round;stroke-linejoin:round;stroke-miterlimit:10;}
</style>
<g>
	<path class="st0" d="M80.2,23.1C80.2,23,80.2,23,80.2,23.1"/>
	<path class="st1" d="M113.2,63.6L17.9,99.5l-0.1-0.1c0.3-0.3,0.6-0.7,0.8-1.2c1.6-3.9,2.7-8,4.1-12c0.5-1.5,1.3-3.1,1.6-4.7
		c0-0.1,0-0.1,0-0.2l0,0l88.7-31.2"/>
	<line class="st0" x1="20.1" y1="74.6" x2="20.1" y2="74.6"/>
	<path class="st1" d="M12.7,56.7l-0.1,2.8c-1.7-0.2-3.3-0.6-5-0.7c-0.2,0-0.5,0-0.7,0.1v-0.1L12.7,56.7L12.7,56.7z"/>
	<path class="st2" d="M20.1,74.6L9.6,77.7l0,0c0-0.1,0-0.2,0-0.4c-0.2-1.7,0.2-3.7,0.2-5.4c0.1-2.6,0.3-5.2,0.4-7.8
		c2.8,0.7,5.7,1.4,8.5,2.1c0.9,0.2,0.8,0.2,0.9,1.1c0.1,1.6,0.2,3.3,0.3,4.9L20.1,74.6z"/>
	<path class="st3" d="M20.4,80.5c-0.1,0.8-0.6,1.8-0.9,2.5c-0.6,1.8-1.2,3.5-1.8,5.3c-1,2.9-2,5.8-3,8.7l-1.4,0
		c0.1-0.1,0.1-0.2,0.2-0.3c-1-4.6-1.9-9.2-2.8-13.8c-0.4-1.7-0.9-3.5-1.1-5.3l0,0l10.5-3.1c0.1,1.1,0.1,2.2,0.2,3.3
		C20.3,78.7,20.6,79.6,20.4,80.5z"/>
	<path class="st4" d="M24.4,81.4L24.4,81.4c0,0.1,0,0.1,0,0.2c-0.3,1.5-1.1,3.1-1.6,4.7c-1.4,4-2.5,8-4.1,12
		c-0.2,0.5-0.5,0.9-0.8,1.2c-1.5,1.2-3.9,0.3-3.2-1.9c0-0.1,0.1-0.3,0.2-0.4c1-2.9,2-5.8,3-8.7c0.6-1.8,1.2-3.5,1.8-5.3
		c0.3-0.8,0.8-1.7,0.9-2.5c0.1-0.8-0.1-1.8-0.2-2.6c-0.1-1.1-0.1-2.2-0.2-3.3l-0.1-2.4c-0.1-1.6-0.2-3.3-0.3-4.9
		c-0.1-1,0-0.9-0.9-1.1c-2.8-0.7-5.7-1.4-8.5-2.1c-0.1,2.6-0.3,5.2-0.4,7.8c-0.1,1.8-0.4,3.7-0.2,5.4c0,0.1,0,0.2,0,0.4
		c0.2,1.8,0.8,3.6,1.1,5.3c1,4.6,1.9,9.2,2.8,13.8c-0.1,0.1-0.1,0.2-0.2,0.3c-1,1.5-3.2,1.4-3.9,0c-1-5.3-2-10.5-3-15.8
		C5.7,76.9,6,72.5,5.9,68.1c0-2.6,0-5.2-0.1-7.8C5.8,59.5,6.3,59,7,58.8c0.2-0.1,0.4-0.1,0.7-0.1c1.7,0.1,3.3,0.5,5,0.7l0.1-2.8
		l0.4-18c0.4-0.8,1.2-1.3,2-1.4c0.9-0.1,1.8,0.3,2.2,1.3c0,0.1,0.1,0.2,0.1,0.3c0.1,4,0.2,7.9,0.2,11.9c0,2.4,0.1,4.8,0.1,7.3
		c0,0.4-0.1,1.3,0,1.9c0.1,0.3,0.2,0.5,0.4,0.6c1.9,0.8,3.8,1.4,5.6,2.3c0.3,0.1,0.4,0.2,0.4,0.2c0,0,0,0,0,0c0,0,0,0.1,0.1,0.3
		c0.1,0.7,0,1.6,0,2.3c0,4.5,0.1,9,0.1,13.5C24.4,79.9,24.5,80.7,24.4,81.4z"/>
	<path class="st0" d="M113.2,5.9L17.3,38.6l0,0c-0.3-1-1.2-1.4-2.2-1.3v0l98-33.7"/>
	<path class="st0" d="M113.2,5.9L17.3,38.6l0,0c0,0.1,0.1,0.2,0.1,0.3c0.1,4,0.2,7.9,0.2,11.9c0,2.4,0.1,4.8,0.1,7.3
		c0,0.4-0.1,1.3,0,1.9l0,0l95.4-33 M78.2,29c-0.7-0.5-1.1-1.3-1.1-2.3c0-1.9,1.5-3.4,3.1-3.7C82.2,24.8,81.1,28.5,78.2,29z"/>
	<path class="st1" d="M113.2,32.2L24.3,63.1l-0.1,0c0-0.1-0.1-0.1-0.4-0.2C22,62,20,61.4,18.2,60.6c-0.2-0.1-0.3-0.3-0.4-0.6l0,0
		l95.4-33"/>
	<path class="st0" d="M113.2,50.2L24.4,81.4l0,0v0c0.1-0.7,0-1.5,0-2.2c0-4.5-0.1-9-0.1-13.5c0-0.7,0.1-1.6,0-2.3
		c0-0.2,0-0.3-0.1-0.3c0,0,0,0,0,0l0.1,0l88.9-30.9"/>
	<path class="st0" d="M113.2,63.6"/>
	<path class="st0" d="M113.2,3.6"/>
	<path class="st0" d="M78.2,29C78.2,29,78.2,29,78.2,29"/>
	<path class="st2" d="M79.8,29.7c-0.6-0.1-1.2-0.3-1.6-0.6c2.8-0.5,4-4.3,2-6c0.9-0.2,1.9,0,2.6,0.8C84.9,26,82.8,29.7,79.8,29.7z"
		/>
	<g>
		<line class="st5" x1="84.2" y1="70.4" x2="21.9" y2="94.6"/>
		<line class="st5" x1="75.8" y1="54.6" x2="27.5" y2="71.7"/>
		<line class="st5" x1="42.4" y1="46.5" x2="20.7" y2="53.9"/>
	</g>
</g>
</svg>
