<?xml version="1.0" encoding="utf-8"?>
<!-- Generator: Adobe Illustrator 21.1.0, SVG Export Plug-In . SVG Version: 6.00 Build 0)  -->
<svg version="1.1" id="Layer_1" xmlns="http://www.w3.org/2000/svg" xmlns:xlink="http://www.w3.org/1999/xlink" x="0px" y="0px"
	 width="108px" height="108px" viewBox="0 0 108 108" style="enable-background:new 0 0 108 108;" xml:space="preserve">
<style type="text/css">
	.st0{fill:none;stroke:#000000;stroke-width:0.75;stroke-linecap:round;stroke-linejoin:round;stroke-miterlimit:10;}
	.st1{fill:#F2F2F2;stroke:#000000;stroke-width:0.75;stroke-linecap:round;stroke-linejoin:round;stroke-miterlimit:10;}
	.st2{fill:#999999;stroke:#000000;stroke-width:0.5;stroke-linecap:round;stroke-linejoin:round;stroke-miterlimit:10;}
	.st3{fill:#CCCCCC;stroke:#000000;stroke-width:0.5;stroke-linecap:round;stroke-linejoin:round;stroke-miterlimit:10;}
	.st4{fill:#808080;stroke:#000000;stroke-width:0.5;stroke-linecap:round;stroke-linejoin:round;stroke-miterlimit:10;}
	.st5{fill:#E6E6E6;stroke:#000000;stroke-width:0.75;stroke-linecap:round;stroke-linejoin:round;stroke-miterlimit:10;}
	.st6{fill:#999999;stroke:#000000;stroke-width:0.75;stroke-linecap:round;stroke-linejoin:round;stroke-miterlimit:10;}
	.st7{fill:#FFFFFF;stroke:#000000;stroke-width:0.75;stroke-linecap:round;stroke-linejoin:round;stroke-miterlimit:10;}
	.st8{fill:#B3B3B3;stroke:#000000;stroke-width:0.75;stroke-linecap:round;stroke-linejoin:round;stroke-miterlimit:10;}
</style>
<g>
	<path class="st0" d="M28,65.2L28,65.2"/>
	<path class="st1" d="M113.2,58.2L23.4,91.2l0,0c0.7-0.3,1.4-0.9,1.8-1.5c0.9-1.5,0.5-3.4,0.5-5.1V67.4c0.3-1.1,1.2-1.9,2.3-2.2
		l0.1,0l85.1-32"/>
	<path class="st2" d="M13.4,91.1L13.4,91.1c0.6-0.2,1.1-0.6,1.3-1.3c0.2-0.7-0.1-1.4-0.7-1.8c-1-0.6-2-1.5-2.1-2.8h0l10.4-3.6v6.1
		L13.4,91.1z"/>
	<path class="st3" d="M22.4,71v2.9c-1.3-0.6-2.3-1.6-3-2.8c-0.5-0.9-0.8-1.9-0.8-2.9C20.1,68.7,21.5,69.7,22.4,71z"/>
	<path class="st4" d="M22.4,67v4c-0.9-1.3-2.3-2.3-3.8-2.8L22.4,67z"/>
	<path class="st2" d="M22.4,67l-3.8,1.2c0,1,0.3,2,0.8,2.9l-4,0.4c-1.3,0.7-2.5,1.7-3.5,2.9v-8.5c0.2-0.6,0.9-1,1.6-0.8l7.7,0.7
		C21.8,65.9,22.2,66.4,22.4,67L22.4,67z"/>
	<path class="st3" d="M15.4,71.5c-0.1,2.3-1.4,4.4-3.5,5.5h0c0-0.9,0-1.7,0-2.6v0C12.9,73.2,14.1,72.2,15.4,71.5z"/>
	<path class="st4" d="M22.4,73.9L22.4,73.9l-10.4,3c2.1-1.1,3.4-3.2,3.5-5.5l3.7-1C19.8,71.7,21.1,73.3,22.4,73.9z"/>
	<path class="st2" d="M22.4,77.7L18.5,78c0,0.5,0.1,1,0.2,1.5l-3.3,0.3c-1.3,0.8-2.5,1.7-3.5,2.9h-0.1c0-1.9,0-3.9,0.1-5.8h0l10.4-3
		V77.7z"/>
	<path class="st4" d="M22.4,76.9l0,4c-1-1.4-2.3-2.4-3.9-3L22.4,76.9z"/>
	<path class="st3" d="M22.4,81v2.8c-1.8-0.8-3.1-2.4-3.6-4.3c-0.1-0.5-0.2-1-0.2-1.5C20.1,78.6,21.4,79.6,22.4,81z"/>
	<path class="st4" d="M20.9,82.7L12,85.3c2.1-1.1,3.4-3.2,3.5-5.5l3.1-1C19.1,80.7,19.5,81.5,20.9,82.7z"/>
	<path class="st3" d="M15.5,79.8c-0.1,2.3-1.4,4.5-3.5,5.5h0c0,0,0,0,0,0c0-0.9-0.1-1.7-0.1-2.6H12C13,81.5,14.1,80.6,15.5,79.8z"/>
	<path class="st5" d="M113.2,19.8L12.3,55.6c1.5-0.5,2-2.3,1.1-3.5L113.2,18"/>
	<path class="st6" d="M24.3,58.4h-0.1c-4.5,0.5-9.1,1.1-13.6,1.6c0-1.5,0-3,0-4.5c0.6,0.1,1.2,0.1,1.7,0.2l9.6-3.2
		c0.5,0.8-1.9,4-0.9,4c0.7,0,1.4,0.1,2.1,0.3c0.7,0.2,1,0.2,1.1,0.8C24.2,57.7,24.3,58.1,24.3,58.4z"/>
	<path class="st7" d="M113.2,18L13.4,52.1c-1.8-0.6-3.6-0.9-5.5-0.9l105.3-34.8"/>
	<path class="st7" d="M113.2,33.2L28,65.2v-8.7c0-1.8-1.3-3.4-3.1-3.7c-1.8-0.3-3.5-0.3-5.3-0.2l93.6-33.1"/>
	<path class="st8" d="M24.2,62.7c-3-0.4-6-0.9-9-1.3c-1.2-0.2-2.6-0.2-3.8-0.5C11,60.7,10.6,60,10.6,60l13.9-5
		C24.6,56.4,24.2,61.3,24.2,62.7z"/>
	<path class="st5" d="M28,56.5v8.7l-0.1,0c-1.1,0.3-2,1.1-2.3,2.2v17.2c0,1.7,0.3,3.6-0.5,5.1c-0.4,0.7-1,1.2-1.8,1.5
		c-1,0.5-2.3,0.5-3.3,0c-0.2-0.1-0.3-0.3-0.4-0.4c-0.6-0.9,0-2.4,1.2-2.3c0.8,0.1,1.5-0.7,1.4-1.5V67c-0.2-0.6-0.6-1.1-1.2-1.3
		L13.5,65c-0.6-0.1-1.3,0.2-1.6,0.8v8.5c0,0.9,0,1.7,0,2.6c0,1.9-0.1,3.9-0.1,5.8c0,0.9,0,1.7,0.1,2.6c0,0,0,0,0,0
		c0.1,1.2,1,2.2,2.1,2.8c0.6,0.4,0.9,1.1,0.7,1.8c-0.2,0.6-0.8,1.1-1.4,1.2c-0.6,0.2-1.3,0.1-1.8-0.4C9.8,89.4,8.8,87.3,9,85
		l0.1-19.7c-1.3-0.4-2.3-1.5-2.5-2.8v-8.9c0.1-0.9,0.6-1.8,1.4-2.3c1.9,0.1,3.7,0.3,5.5,0.9c0.9,1.2,0.4,3-1.1,3.5
		c-0.6,0-1.2-0.1-1.7-0.2c0,1.5,0,3,0,4.5c0,0.6,0.4,0.7,0.9,0.9c1.2,0.3,2.6,0.4,3.8,0.5c3,0.4,5.7,0.7,9,0.8
		c0-1.4,0.2-2.4,0.1-3.8c0-0.3-0.1-0.6-0.1-0.9c-0.1-0.6-0.4-0.6-1.1-0.8c-0.7-0.2-1.4-0.3-2.1-0.3c-1,0.1-1.9-0.4-2.4-1.3
		c-0.4-1,0-2,1-2.5c1.8-0.2,3.5-0.1,5.3,0.2C26.7,53.1,28,54.7,28,56.5z"/>
</g>
</svg>
