<?xml version="1.0" encoding="utf-8"?>
<!-- Generator: Adobe Illustrator 21.1.0, SVG Export Plug-In . SVG Version: 6.00 Build 0)  -->
<svg version="1.1" id="Layer_1" xmlns="http://www.w3.org/2000/svg" xmlns:xlink="http://www.w3.org/1999/xlink" x="0px" y="0px"
	 width="108px" height="108px" viewBox="0 0 108 108" style="enable-background:new 0 0 108 108;" xml:space="preserve">
<style type="text/css">
	.st0{fill:#FFFFFF;stroke:#000000;stroke-width:0.75;stroke-linecap:round;stroke-linejoin:round;stroke-miterlimit:10;}
	.st1{fill:#F2F2F2;stroke:#000000;stroke-width:0.75;stroke-linecap:round;stroke-linejoin:round;stroke-miterlimit:10;}
	.st2{fill:#808080;stroke:#000000;stroke-width:0.5;stroke-linecap:round;stroke-linejoin:round;stroke-miterlimit:10;}
	.st3{fill:#CCCCCC;stroke:#000000;stroke-width:0.5;stroke-linecap:round;stroke-linejoin:round;stroke-miterlimit:10;}
	.st4{fill:#FFFFFF;}
	.st5{fill:#F2F2F2;}
	.st6{fill:#CCCCCC;}
	.st7{fill:none;stroke:#000000;stroke-width:0.75;stroke-linecap:round;stroke-linejoin:round;stroke-miterlimit:10;}
	.st8{fill:#E6E6E6;stroke:#000000;stroke-width:0.75;stroke-linecap:round;stroke-linejoin:round;stroke-miterlimit:10;}
	.st9{fill:#999999;stroke:#000000;stroke-width:0.5;stroke-linecap:round;stroke-linejoin:round;stroke-miterlimit:10;}
	.st10{fill:#999999;stroke:#000000;stroke-width:0.75;stroke-linecap:round;stroke-linejoin:round;stroke-miterlimit:10;}
</style>
<g>
	<path class="st0" d="M15.2,56c-0.1,0.8-0.4,1.6-1.2,2.1c-1.3,0.7-2.7-0.1-3.8-0.4c-0.1,0-0.2-0.1-0.3-0.1L15.2,56z"/>
	<line class="st0" x1="15.3" y1="56" x2="15.2" y2="56"/>
	<path class="st0" d="M113.2,9.9L19.4,40c-0.2-1.1-1.1-1.6-2.1-1.6l0,0l95.8-31.2"/>
	<line class="st0" x1="19.5" y1="58.3" x2="19.5" y2="58.4"/>
	<path class="st1" d="M113.2,9.9L19.4,40v12.7c0,1.4,0.1,2.7-0.1,4c-0.1,0.6,0,1.2,0.2,1.6l93.6-30.9 M40.9,42.7
		c-0.5-0.8-0.3-2,0.2-3c0.7-1.2,1.9-2,3-2.3C45,39.3,43.2,42.2,40.9,42.7z"/>
	<path class="st2" d="M22.1,71.1L22.1,71.1l-10.7,3.1c2.4-1.7,3.9-4.5,4.1-7.2l3.1-0.8l0,0C19,68.4,20.2,70.1,22.1,71.1z"/>
	<path class="st3" d="M15.4,67c-0.1,2.7-1.6,5.5-4.1,7.2v-3.1C12.5,69.6,13.9,68.2,15.4,67z"/>
	<path class="st3" d="M15.5,77.3c-0.1,2.7-1.7,5.5-4.1,7.2c0-0.1,0-0.1,0-0.2c-0.2-0.8-0.1-1.8-0.1-2.8l0.1,0
		C12.6,80,13.9,78.5,15.5,77.3z"/>
	<path class="st4" d="M113.2,27.5L19.5,58.3c0.3,0.5,0.8,0.9,1.6,0.8c2.2,0,4.1,1.1,5.1,2.9C51.5,54,88,41.7,113.2,33.4V27.5z"/>
	<path class="st5" d="M113.2,33.4C88,41.7,51.5,54,26.3,62.1c0.1,0.3,0.3,0.5,0.4,0.8c0,2.9,0,5.8,0.1,8.8c0,3.5,0.1,7,0.1,10.5
		c0,1.6,0.1,3.2-0.2,4.9c25.1-9.3,61.4-21,86.5-30.8V33.4z"/>
	<path class="st6" d="M26.7,87c0,0.2,0,0.3-0.1,0.5c-0.3,1.2-1,2.2-2,2.9l0,0l88.6-31.2v-3.1C88.1,66,51.7,77.7,26.7,87z"/>
	<path class="st7" d="M113.2,59.2L24.6,90.5l0,0c1-0.7,1.8-1.8,2-2.9c0.4-1.8,0.3-3.6,0.2-5.3c0-3.5-0.1-7-0.1-10.5
		c0-2.9,0-5.8-0.1-8.8c-0.8-2.3-3-3.7-5.5-3.7c-0.8,0-1.3-0.3-1.6-0.8l93.6-30.9"/>
	<path class="st8" d="M26.6,87.5c-0.3,1.2-1,2.2-2,2.9c-1.1,0.8-2.6,1.2-3.8,0.7c-1-0.4-1-1.8-0.3-2.7c0.3-0.4,0.7-0.7,1.2-0.7
		c1-0.1,1.8-1.1,1.6-2.1V63.4l-12-1.9v18.4c0,0.5,0,1.1-0.1,1.7c-0.1,1-0.1,2,0.1,2.8c0,0.1,0,0.1,0,0.2c0,0,0,0,0,0l0,0
		c0.3,1.1,1.4,1.8,2.4,2.1c0.7,0.3,1,1.1,0.8,1.9c-0.3,0.8-0.9,1.4-1.6,1.8c-0.7,0.3-1.5,0.3-2.1,0c-2.1-1.2-3.3-3.4-3-6.1L8,59
		c0.2-0.8,1-1.5,1.8-1.4l0,0c0.1,0,0.2,0,0.3,0.1c1.1,0.3,2.5,1.1,3.8,0.4c0.8-0.5,1.2-1.2,1.2-2.1c0-0.1,0-0.1,0-0.2
		c0.2-3.9,0-7.8,0-11.7v-4.4c0.6-0.8,1.4-1.2,2.1-1.2c1-0.1,1.9,0.5,2.1,1.6v12.7c0,1.4,0.1,2.7-0.1,4c-0.1,0.6,0,1.2,0.2,1.6
		c0.3,0.5,0.8,0.9,1.6,0.8c2.5,0,4.6,1.4,5.5,3.7c0,2.9,0,5.8,0.1,8.8c0,3.5,0.1,7,0.1,10.5C26.8,84,27,85.7,26.6,87.5z"/>
	<path class="st9" d="M21.7,87.8c-0.5,0.1-0.9,0.4-1.2,0.7l0,0l-7.4,1.9l0,0c0.7-0.3,1.3-0.9,1.6-1.8c0.2-0.9-0.1-1.6-0.8-1.9
		c-1-0.3-2.1-1.1-2.4-2.1l11.9-3.5v4.7C23.5,86.7,22.7,87.7,21.7,87.8z"/>
	<path class="st2" d="M23.3,79.7v1.3l-11.9,3.5c0,0,0,0,0,0c2.4-1.7,4-4.5,4.1-7.2l4-1.2l0,0C20.1,77.9,21.5,79.2,23.3,79.7z"/>
	<path class="st3" d="M23.3,76.2v3.5c-1.9-0.5-3.2-1.9-3.8-3.6c-0.3-0.7-0.4-1.4-0.5-2.2C20.7,74.2,22.2,75,23.3,76.2z"/>
	<path class="st2" d="M23.3,72.7v3.5c-1.1-1.3-2.6-2-4.3-2.3L23.3,72.7z"/>
	<path class="st9" d="M23.3,72.7L19,73.9c0.1,0.8,0.2,1.5,0.5,2.2l0,0l-4,1.2c-1.6,1.2-2.9,2.7-4.1,4.3l-0.1,0
		c0-0.6,0.1-1.2,0.1-1.7v-5.6l10.7-3.1l0,0c0.4,0.2,0.8,0.4,1.2,0.5V72.7z"/>
	<path class="st3" d="M23.3,68.1v3.5c-0.4-0.1-0.8-0.3-1.2-0.5c-1.9-1-3.2-2.7-3.6-4.9c-0.1-0.3-0.1-0.6-0.1-0.9l0,0
		C20.4,65.5,22.1,66.6,23.3,68.1z"/>
	<path class="st2" d="M23.3,63.7v4.4c-1.2-1.5-2.9-2.6-4.9-2.9L23.3,63.7z"/>
	<path class="st9" d="M18.4,65.2L18.4,65.2c0,0.3,0.1,0.6,0.1,1l0,0L15.4,67c-1.5,1.2-2.9,2.6-4.1,4.2v-9.7l12,1.9v0.3L18.4,65.2
		C18.4,65.2,18.4,65.2,18.4,65.2z"/>
	<path class="st0" d="M44.2,37.4C44.2,37.4,44.1,37.3,44.2,37.4"/>
	<path class="st0" d="M40.9,42.7C40.9,42.7,40.9,42.7,40.9,42.7"/>
	<path class="st10" d="M46.6,39.4c0,2.4-3,5.2-5.1,4c-0.3-0.2-0.5-0.4-0.6-0.7c2.3-0.5,4.1-3.4,3.3-5.3
		C45.4,37.1,46.6,37.7,46.6,39.4z"/>
</g>
</svg>
