<?xml version="1.0" encoding="utf-8"?>
<!-- Generator: Adobe Illustrator 21.1.0, SVG Export Plug-In . SVG Version: 6.00 Build 0)  -->
<svg version="1.1" id="Layer_1" xmlns="http://www.w3.org/2000/svg" xmlns:xlink="http://www.w3.org/1999/xlink" x="0px" y="0px"
	 width="108px" height="108px" viewBox="0 0 108 108" style="enable-background:new 0 0 108 108;" xml:space="preserve">
<style type="text/css">
	.st0{fill:#FFFFFF;stroke:#000000;stroke-width:0.75;stroke-linecap:round;stroke-linejoin:round;stroke-miterlimit:10;}
	.st1{fill:#F2F2F2;}
	.st2{fill:#E6E6E6;}
	.st3{fill:none;stroke:#000000;stroke-width:0.75;stroke-linecap:round;stroke-linejoin:round;stroke-miterlimit:10;}
	.st4{fill:#999999;stroke:#000000;stroke-width:0.75;stroke-linecap:round;stroke-linejoin:round;stroke-miterlimit:10;}
	.st5{fill:#B3B3B3;stroke:#000000;stroke-width:0.75;stroke-linecap:round;stroke-linejoin:round;stroke-miterlimit:10;}
	.st6{fill:#E6E6E6;stroke:#000000;stroke-width:0.75;stroke-linecap:round;stroke-linejoin:round;stroke-miterlimit:10;}
	.st7{fill:#FFFFFF;stroke:#000000;stroke-width:0.5;stroke-linecap:round;stroke-linejoin:round;stroke-miterlimit:10;}
</style>
<g>
	<polyline class="st0" points="113.2,21.3 6.3,59.3 24.3,64.1 113.2,35.4 	"/>
	<path class="st1" d="M113.2,50.2L23.3,81.3l0,0v0c0.1-0.7,1.1-11,1-15.5c0-0.7,0.1-1.6,0-2.3c0-0.2,0-0.3-0.1-0.3c0,0,0,0,0,0
		l0.1,0l88.9-30.9"/>
	<g>
		<path class="st2" d="M113.2,63.6L17.9,99.5l-0.1-0.1c0.3-0.3,0.6-0.7,0.8-1.2c1.6-3.9,4.2-15.2,4.5-16.7c0-0.1,0-0.1,0-0.2l0,0
			l89.9-31.1"/>
		<path class="st3" d="M113.2,50.2"/>
		<line class="st3" x1="23.3" y1="81.3" x2="23.3" y2="81.3"/>
		<path class="st3" d="M113.2,63.6L17.9,99.5l-0.1-0.1c0.3-0.3,0.6-0.7,0.8-1.2c1.6-3.9,4.2-15.2,4.5-16.7c0-0.1,0-0.1,0-0.2"/>
	</g>
	<path class="st4" d="M9.6,77.7L9.6,77.7c0-0.1-0.1-0.2-0.1-0.4c-0.2-1.7,0.2-3.7,0.2-5.4c0.1-2.6,0.3-5.2,0.4-7.8
		c2.8,0.7,5.7,1.4,8.5,2.1c0.9,0.2,0.8,0.2,0.9,1.1c0.1,1.6,0.2,3.3,0.3,4.9l0.1,2.4"/>
	<path class="st5" d="M20.1,74.6c0.1,1.1,0.1,2.2,0.2,3.3c0,0.8,0.3,1.8,0.2,2.6c-0.1,0.8-0.6,1.8-0.9,2.5c-0.6,1.8-1.2,3.5-1.8,5.3
		c-1,2.9-2,5.8-3,8.7l-1.4,0c0.1-0.1,0.1-0.2,0.2-0.3c-1-4.6-1.9-9.2-2.8-13.8c-0.4-1.7-0.9-3.5-1.1-5.3l0,0"/>
	<path class="st6" d="M23.8,62.9c0.3,0.1,0.4,0.2,0.4,0.2c0,0,0,0,0,0c0,0,0,0.1,0.1,0.3c0.1,0.7,0,1.6,0,2.3
		c0,2.2,0.3,8.9-0.9,15.7c-1.2,7.3-3.9,14.7-4.7,16.8c-0.2,0.5-0.5,0.9-0.8,1.2c-1.5,1.2-3.9,0.3-3.2-1.9c0-0.1,0.1-0.3,0.2-0.4
		c0.5-1.5,3-8.7,4.1-15.7c1.1-6.8,0.8-13.3,0.7-14.1c-0.1-1,0-0.9-0.9-1.1c-2.8-0.7-5.7-1.4-8.5-2.1c-0.1,2.6-0.3,5.2-0.4,7.8
		c-0.1,1.8,0.3,8.2,0.9,11.1c0.9,4.6,1.9,9.2,2.8,13.8c-0.1,0.1-0.1,0.2-0.2,0.3c-1,1.5-3.2,1.4-3.9,0c-1-5.3-2.2-10.3-3.2-15.6
		c-0.8-4.3-0.9-8.7-0.9-13.1c0-2.6,0-5.1,0.5-8C6,59.5,6.3,59,7,58.8c0.2-0.1,0.4-0.1,0.7-0.1c1.7,0.1,5.3,0.8,7.3,1.4
		C17.1,60.7,22,62,23.8,62.9z"/>
	<g>
		<line class="st7" x1="84.2" y1="70.4" x2="21.9" y2="94.6"/>
		<line class="st7" x1="75.8" y1="54.6" x2="27.5" y2="71.7"/>
	</g>
</g>
</svg>
