<?xml version="1.0" encoding="utf-8"?>
<!-- Generator: Adobe Illustrator 21.1.0, SVG Export Plug-In . SVG Version: 6.00 Build 0)  -->
<svg version="1.1" id="Layer_1" xmlns="http://www.w3.org/2000/svg" xmlns:xlink="http://www.w3.org/1999/xlink" x="0px" y="0px"
	 width="108px" height="108px" viewBox="0 0 108 108" style="enable-background:new 0 0 108 108;" xml:space="preserve">
<style type="text/css">
	.st0{fill:#B3B3B3;stroke:#000000;stroke-width:0.75;stroke-linecap:round;stroke-linejoin:round;stroke-miterlimit:10;}
	.st1{fill:#FFFFFF;stroke:#000000;stroke-width:0.75;stroke-linecap:round;stroke-linejoin:round;stroke-miterlimit:10;}
	.st2{fill:#999999;stroke:#000000;stroke-width:0.75;stroke-linecap:round;stroke-linejoin:round;stroke-miterlimit:10;}
	.st3{fill:#E6E6E6;stroke:#000000;stroke-width:0.75;stroke-linecap:round;stroke-linejoin:round;stroke-miterlimit:10;}
	.st4{fill:#CCCCCC;stroke:#000000;stroke-width:0.75;stroke-linecap:round;stroke-linejoin:round;stroke-miterlimit:10;}
	.st5{fill:#F2F2F2;stroke:#000000;stroke-width:0.75;stroke-linecap:round;stroke-linejoin:round;stroke-miterlimit:10;}
</style>
<g>
	<polygon class="st0" points="62.2,42.9 69.8,38.1 62.6,38.5 	"/>
	<line class="st1" x1="74" y1="33.5" x2="87.6" y2="36.5"/>
	<path class="st2" d="M51.3,62.4c4.3,1.5,8.5,2.9,12.8,4.4c0.2,0.1,0.4,0.1,0.5,0.2c0.2,0.1,0.3,0.2,0.5,0.3
		c0.2,0.1,0.3,0.2,0.5,0.3c0.2,0.1,0.3,0.3,0.4,0.4c0.6,0.6,1,1.4,1.3,2.2c0.3,0.8,0.4,1.7,0.4,2.6c0,0.9-0.2,1.9-0.5,2.8
		c-0.3,0.9-0.8,1.9-1.4,2.7c-0.6,0.9-0.8,1.6-0.8,2.3c0,0.7,0.3,1.3,0.6,1.8c0.3,0.5,0.7,0.9,1.1,1.2c0.3,0.3,0.6,0.4,0.6,0.5
		l-12.7-4.9c0,0-0.3-0.2-0.6-0.5c-0.3-0.3-0.7-0.7-1.1-1.1c-0.3-0.5-0.6-1.1-0.6-1.7c0-0.7,0.2-1.4,0.8-2.3c0.6-0.8,1-1.7,1.3-2.6
		c0.3-0.9,0.5-1.8,0.5-2.7c0-0.9-0.1-1.8-0.4-2.5c-0.3-0.8-0.7-1.5-1.3-2.1c-0.1-0.1-0.3-0.3-0.4-0.4c-0.2-0.1-0.3-0.2-0.5-0.3
		c-0.2-0.1-0.3-0.2-0.5-0.3C51.7,62.5,51.5,62.4,51.3,62.4z"/>
	<path class="st1" d="M52.7,58c4.3,1.4,8.6,2.8,12.8,4.2c-0.1,0-0.3-0.1-0.4-0.1c-0.1,0-0.3-0.1-0.4-0.1c-0.1,0-0.3-0.1-0.4-0.1
		c-0.1,0-0.3,0-0.4-0.1l-12.8-4.2c0.1,0,0.3,0,0.4,0.1c0.1,0,0.3,0,0.4,0.1c0.1,0,0.3,0.1,0.4,0.1C52.5,57.9,52.6,58,52.7,58z"/>
	<polygon class="st0" points="55.7,86.1 43.2,81 41.8,78.6 54.4,83.7 	"/>
	<path class="st3" d="M41.8,78.6c-1-1-1.7-2.1-2.2-3.5c-0.5-1.3-0.7-2.8-0.7-4.3c0-1.5,0.3-3,0.8-4.5c0.5-1.5,1.2-2.9,2.2-4.2
		c0.4-0.5,0.8-0.9,1.2-1.3c0.4-0.4,0.8-0.8,1.3-1.1c0.4-0.3,0.9-0.6,1.4-0.9c0.5-0.3,0.9-0.5,1.4-0.6l12.7,4.3
		c-0.5,0.2-1,0.4-1.4,0.7c-0.5,0.3-0.9,0.6-1.4,0.9c-0.5,0.3-0.9,0.7-1.3,1.2c-0.4,0.4-0.8,0.9-1.2,1.4c-1,1.3-1.8,2.8-2.3,4.4
		c-0.5,1.5-0.8,3.1-0.8,4.7c0,1.5,0.2,3.1,0.7,4.4c0.5,1.4,1.2,2.6,2.2,3.6"/>
	<polygon class="st4" points="59.9,62.5 47.2,58.2 47.1,36.9 59.9,40.5 	"/>
	<polygon class="st0" points="45.9,42.3 55.9,43.9 55.9,39.7 	"/>
	<polygon class="st1" points="17.1,39.3 4.4,35.8 89.8,25.6 103.6,28.3 	"/>
	<polygon class="st3" points="17.1,46.2 4.5,42.5 4.4,35.8 17.1,39.3 	"/>
	<path class="st5" d="M103.4,34.3l0.2-6l-86.5,11l0,6.9l42.8-5.7l0,22c-0.5,0.2-1,0.4-1.4,0.7c-0.5,0.3-0.9,0.6-1.4,0.9
		c-0.5,0.3-0.9,0.7-1.3,1.2c-0.4,0.4-0.8,0.9-1.2,1.4c-1,1.3-1.8,2.8-2.3,4.4c-0.5,1.5-0.8,3.1-0.8,4.7c0,1.5,0.2,3.1,0.7,4.4
		c0.5,1.4,1.2,2.6,2.2,3.6l1.4,2.5c0,0,0.3-0.3,0.6-0.6c0.3-0.4,0.7-0.9,1-1.5c0.3-0.6,0.6-1.3,0.6-2c0-0.7-0.2-1.4-0.8-2.2
		c-0.6-0.7-1-1.5-1.3-2.4c-0.3-0.9-0.4-1.8-0.4-2.7c0-0.9,0.2-1.9,0.5-2.8c0.3-0.9,0.8-1.8,1.4-2.6c0.3-0.4,0.6-0.8,1-1.1
		c0.3-0.3,0.7-0.6,1.1-0.8c0.4-0.2,0.7-0.4,1.1-0.6c0.4-0.2,0.8-0.3,1.2-0.3c0.4-0.1,0.8-0.1,1.2-0.1c0.4,0,0.8,0.1,1.2,0.2
		c0.4,0.1,0.7,0.3,1.1,0.5c0.3,0.2,0.7,0.5,1,0.8c0.6,0.6,1,1.4,1.3,2.2c0.3,0.8,0.4,1.7,0.4,2.6c0,0.9-0.2,1.9-0.5,2.8
		c-0.3,0.9-0.8,1.9-1.4,2.7c-0.6,0.9-0.8,1.6-0.8,2.3c0,0.7,0.3,1.3,0.6,1.8c0.3,0.5,0.7,0.9,1.1,1.2c0.3,0.3,0.6,0.4,0.6,0.5
		l1.1-3.1c1-1.3,1.7-2.8,2.2-4.3c0.5-1.5,0.8-3,0.8-4.5c0-1.5-0.2-3-0.6-4.3c-0.4-1.3-1.1-2.6-2.1-3.6c-0.3-0.4-0.7-0.7-1.1-1
		c-0.4-0.3-0.8-0.5-1.2-0.7c-0.4-0.2-0.8-0.4-1.3-0.5c-0.4-0.1-0.9-0.2-1.3-0.3l0.1-22L103.4,34.3z"/>
	<path class="st3" d="M36.2,28.8c0-0.9-2.9-1.6-6.5-1.6c-3.6,0-6.5,0.7-6.5,1.6c0,0.4,0,5.8,0,6.2c0,0.9,2.9,1.6,6.5,1.6
		c3.6,0,6.5-0.7,6.5-1.6C36.2,34.5,36.2,29.2,36.2,28.8z"/>
	<ellipse class="st1" cx="29.7" cy="28.8" rx="6.5" ry="1.6"/>
	<path class="st3" d="M90,23.2c0-0.7-2.4-1.3-5.3-1.3c-2.9,0-5.3,0.6-5.3,1.3c0,0.3,0,4.7,0,5c0,0.7,2.4,1.3,5.3,1.3
		c2.9,0,5.3-0.6,5.3-1.3C90,27.8,90,23.5,90,23.2z"/>
	<ellipse class="st1" cx="84.7" cy="23.2" rx="5.3" ry="1.3"/>
</g>
</svg>
