<?xml version="1.0" encoding="utf-8"?>
<!-- Generator: Adobe Illustrator 21.1.0, SVG Export Plug-In . SVG Version: 6.00 Build 0)  -->
<svg version="1.1" id="Layer_1" xmlns="http://www.w3.org/2000/svg" xmlns:xlink="http://www.w3.org/1999/xlink" x="0px" y="0px"
	 width="108px" height="108px" viewBox="0 0 108 108" style="enable-background:new 0 0 108 108;" xml:space="preserve">
<style type="text/css">
	.st0{fill:#B3B3B3;stroke:#000000;stroke-width:0.75;stroke-linecap:round;stroke-linejoin:round;stroke-miterlimit:10;}
	.st1{fill:#999999;stroke:#000000;stroke-width:0.75;stroke-linecap:round;stroke-linejoin:round;stroke-miterlimit:10;}
	.st2{fill:#FFFFFF;stroke:#000000;stroke-width:0.75;stroke-linecap:round;stroke-linejoin:round;stroke-miterlimit:10;}
	.st3{fill:#E6E6E6;stroke:#000000;stroke-width:0.75;stroke-linecap:round;stroke-linejoin:round;stroke-miterlimit:10;}
	.st4{fill:#CCCCCC;stroke:#000000;stroke-width:0.75;stroke-linecap:round;stroke-linejoin:round;stroke-miterlimit:10;}
	.st5{fill:#F2F2F2;stroke:#000000;stroke-width:0.75;stroke-linecap:round;stroke-linejoin:round;stroke-miterlimit:10;}
</style>
<g>
	<path class="st0" d="M35.1,44.5c2.6-1.6,5.2-3.2,7.8-4.8c-2.2,0.1-4.5,0.2-6.7,0.3c-0.9,0-0.7,0.2-0.8,1.2
		C35.2,42.3,35.1,43.4,35.1,44.5z"/>
	<path class="st0" d="M89.5,37.1c2.6-1.6,5.2-3.2,7.8-4.8c-2.2,0.1-4.5,0.2-6.7,0.3c-0.9,0-0.7,0.2-0.8,1.2
		C89.7,34.9,89.6,36,89.5,37.1z"/>
	<path class="st1" d="M77.2,55.1c3.1,0.9,6.3,1.7,9.4,2.6c1.4,0.4,2.8,0.7,4.2,1.2c2.6,0.8,3.6,3.6,3.4,6.1
		c-0.1,1.1-0.3,2.1-0.7,3.1c-0.4,1-1.1,1.8-1.5,2.8c-0.6,1.7,0.2,3.5,1.6,4.5c-4-1.3-8.1-2.5-12.1-3.8c-0.5-0.2-1.1-0.2-1.5-0.5
		c-1.6-0.8-2.3-2.9-1.6-4.5c0.5-1.1,1.2-2,1.6-3.2c0.4-1.1,0.5-2.3,0.4-3.5C80.3,57.9,79.2,55.7,77.2,55.1z"/>
	<path class="st2" d="M78.2,51c4.6,1.2,9.2,2.4,13.8,3.7c-4.8-1.3-9.7-2.5-14.5-3.8C77.7,50.9,78,50.9,78.2,51z"/>
	<path class="st0" d="M83.7,77.2c-2.9-0.9-5.8-1.9-8.7-2.8c-1.4-0.5-3-0.8-4.4-1.4c-0.9-0.4-1.1-1.5-1.6-2.4
		c2.9,0.9,5.8,1.9,8.7,2.8c1.4,0.5,3,0.8,4.4,1.4C83.1,75.1,83.3,76.2,83.7,77.2z"/>
	<path class="st3" d="M69,70.5c-2.6-2.9-2.8-7.3-1.8-10.9c0.5-1.8,1.3-3.5,2.5-5c0.9-1.1,2.7-3.2,4.3-3.3c1-0.1,2.4,0.6,3.3,0.9
		c2.1,0.6,4.2,1.1,6.3,1.7c1.4,0.4,2.7,0.7,4.1,1.1c-6.9,2.8-10.2,14.1-5.2,19.8"/>
	<path class="st4" d="M87.8,55c-2.1-0.6-4.2-1.1-6.2-1.7c-1.5-0.4-3-0.8-4.5-1.2c-0.6-0.2-2.3-0.3-2.8-0.8c-0.6-0.5-0.1-3.2-0.1-4
		c0.1-3.2,0.1-6.5,0.2-9.7c0-2.1,0.1-4.2,0.1-6.3c2.2,0.5,4.4,1,6.6,1.4c1.6,0.3,3.1,0.7,4.7,1c0.5,0.1,2.2,0.2,2.6,0.6
		c0.2,0.2,0.1,0.7,0.1,1c0,1.2-0.1,2.3-0.1,3.5c-0.1,3.2-0.2,6.5-0.3,9.7C87.9,50.7,87.9,52.9,87.8,55z"/>
	<path class="st0" d="M74.7,36.2c3.5,0.5,6.9,1.1,10.4,1.6c0-1.5,0-2.9,0-4.4C81.6,34.4,78.1,35.3,74.7,36.2z"/>
	<path class="st1" d="M23.9,64.4c3.3,1.1,6.5,2.2,9.8,3.4c2.6,0.9,5.2,1.4,6.4,4.2c1.1,2.7,0.4,5.9-1.1,8.4
		c-0.7,1.1-1.3,2.2-0.9,3.6c0.3,1.1,1.2,2.1,2.2,2.7c-3-1.2-6.1-2.4-9.1-3.6c-1.2-0.5-2.6-0.9-3.8-1.5c-1-0.5-1.8-1.4-2.2-2.5
		c-0.7-1.9,0.7-3.2,1.5-4.8C28.2,71.1,28,65.8,23.9,64.4z"/>
	<path class="st2" d="M25.3,60c4.4,1.4,8.7,2.9,13.1,4.3c-1-0.3-2.1-0.5-3.1-0.9c-1.5-0.5-3-1-4.5-1.5c-2.3-0.8-4.7-1.6-7-2.3
		C24.3,59.7,24.8,59.8,25.3,60z"/>
	<path class="st0" d="M28.4,88.7c-2.8-1.1-5.6-2.3-8.4-3.4c-1.3-0.5-2.9-0.9-4.1-1.7c-0.9-0.5-1.3-1.7-1.8-2.6
		c2.8,1.1,5.6,2.3,8.5,3.4c1.3,0.5,2.9,0.9,4.1,1.6C27.6,86.6,28,87.8,28.4,88.7z"/>
	<path class="st3" d="M14.2,81c-5.8-5.7-2.7-16.5,3.8-20.2c0.7-0.4,1.3-0.8,2.1-0.6c0.7,0.1,1.4,0.5,2.1,0.7
		c2.1,0.7,4.1,1.4,6.2,2.1c1.4,0.5,2.9,1,4.3,1.4c-7.8,2.9-12,15.4-5.7,21.7"/>
	<path class="st4" d="M32.7,64.5c-2.2-0.7-4.3-1.5-6.5-2.2c-1.5-0.5-3-1-4.6-1.5c-0.4-0.1-1.7-0.3-1.9-0.7c-0.2-0.2,0-1.2,0-1.5
		c0-1.2,0-2.5,0-3.7c0-3.3,0-6.7-0.1-10c0-2.1,0-4.3,0-6.4c2.3,0.6,4.6,1.3,7,1.9c1.5,0.4,3,0.8,4.5,1.2c0.3,0.1,1.5,0.2,1.7,0.5
		c0.2,0.3,0,1.5,0,1.8c0,1.3,0,2.7,0,4c0,3.4,0,6.7,0,10.1C32.7,60.1,32.7,62.3,32.7,64.5z"/>
	<path class="st0" d="M18.4,44c3.4,0.5,6.8,1,10.2,1.6c0-1.4,0-2.9,0-4.3C25.2,42.1,21.8,43,18.4,44z"/>
	<path class="st2" d="M16.2,37.2c-4.3-1.2-8.6-2.4-12.9-3.5c3.8-0.5,7.6-0.9,11.5-1.4c8.7-1,17.5-2.1,26.2-3.1
		c9.6-1.1,19.1-2.3,28.7-3.4c6.3-0.8,12.6-1.5,18.9-2.3c1-0.1,1.8-0.3,2.8-0.1c4.1,0.8,8.2,1.6,12.3,2.4c0.4,0.1,0.7,0.1,1.1,0.2
		c-10,1.3-19.9,2.5-29.9,3.8c-15.9,2-31.7,4-47.6,6.1C23.6,36.3,19.9,36.8,16.2,37.2z"/>
	<path class="st3" d="M16.3,44.3c-3.7-1.1-7.3-2.2-11-3.2C5,41,3.8,40.9,3.5,40.6c-0.2-0.2-0.1-0.8-0.1-1.1c0-1.9,0-3.8-0.1-5.7
		c3.7,1,7.4,2,11.1,3c0.4,0.1,1.4,0.2,1.7,0.5c0.2,0.2,0.1,1,0.1,1.3C16.3,40.5,16.3,42.4,16.3,44.3z"/>
	<path class="st5" d="M104.7,26c-0.1,1.9,0,3.8-0.2,5.6c-0.1,0.7,0.1,0.4-0.4,0.6c-0.6,0.3-1.6,0.2-2.3,0.3c-2.4,0.3-4.7,0.7-7.1,1
		c-0.6,0.1-2.5,0-2.8,0.5c-0.2,0.3,0,1.1,0,1.5c0,0.9-0.1,1.8-0.1,2.8c-0.1,2.4-0.1,4.7-0.2,7.1c-0.1,2.2-0.1,4.4-0.2,6.7
		c0,0.6-0.1,1.3-0.1,1.9c0.1,0.8,0.2,0.5,1.1,0.8c4.7,1.6,5.6,7.7,4.8,11.9c-0.5,2.3-1.6,3.9-2.5,5.9c-0.4,0.9-0.7,1.9-1,2.8
		c-1.3-0.9-2.1-2.4-1.8-3.9c0.2-1,0.9-1.8,1.4-2.7c0.4-0.8,0.7-1.7,0.9-2.6c0.6-3.2-1-8.3-5.2-7.2c-3.6,0.9-5.5,5.5-5.1,8.9
		c0.1,0.8,0.3,1.7,0.7,2.4c0.4,0.9,1.2,1.7,1.3,2.7c0.1,1.6-0.9,3.2-2,4.2c-0.6-1.2-1.2-2.2-1.8-3.4c-1.4-2.3-1.7-5.1-1.4-7.7
		c0.3-2.7,1.3-5.4,3-7.6c0.8-1,1.7-1.9,2.7-2.6c0.4-0.3,1.5-0.6,1.6-1c0.2-0.5,0-1.5,0.1-2c0-1.2,0.1-2.4,0.1-3.7
		c0.1-3.1,0.2-6.1,0.2-9.2c0.1-1.9,0.1-3.8,0.2-5.7c-12.5,1.7-24.9,3.4-37.4,5.2c-3.2,0.4-6.4,0.9-9.6,1.3c-1,0.1-2,0.3-3,0.4
		c-0.2,0-1.2,0-1.4,0.2c-0.2,0.2,0,1.1,0,1.4c0,1.5,0,3.1,0,4.6c0,4,0,8,0,12c0,1.2-0.3,2.9,0,4.1c0,0.1-0.1,0.3,0,0.4
		c0.1,0.2,1.5,0.3,1.8,0.4c1.9,0.7,3.4,2.1,4.4,3.8c2.1,3.7,1.9,8.4,0.2,12.2c-0.6,1.3-1.5,2.4-2,3.7c-0.3,0.9-0.6,1.7-0.9,2.6
		c-1.4-0.8-2.6-2.4-2.3-4.1c0.2-1,0.8-1.7,1.2-2.5c0.5-0.9,0.9-1.9,1.2-3c0.9-4-1.3-9.3-6.2-8.2c-4.1,0.9-6.6,5.6-6.1,9.6
		c0.1,1.1,0.5,2.1,1.1,3c0.5,0.9,1.3,1.6,1.5,2.6c0.3,1.8-1,3.6-2.2,4.7c-0.7-1.3-1.4-2.4-2.2-3.5c-1.7-2.3-2.3-5.3-2.1-8.1
		c0.2-3.2,1.4-6.2,3.4-8.7c0.9-1.1,1.9-2,3-2.7c0.5-0.3,2-0.8,2.2-1.2c0.2-0.4,0-1.5,0-2c0-1.3,0-2.7,0-4c0-3.4,0-6.7,0-10.1
		c0-2.1,0-4.2,0-6.3c-5.5,0.8-11,1.5-16.4,2.3c0-1.7,0-3.5,0-5.2c0-0.5-0.2-1.6,0.2-1.9c0.3-0.2,1.1-0.1,1.4-0.2
		c0.9-0.1,1.7-0.2,2.6-0.3c6.6-0.8,13.2-1.7,19.8-2.5c9-1.2,18.1-2.3,27.1-3.5c8.3-1.1,16.5-2.1,24.8-3.2c4.1-0.5,8.2-1,12.4-1.6
		C104.5,26,104.6,26,104.7,26z"/>
	<path class="st3" d="M35.8,26.5c0-1.1-2.6-1.3-3.2-1.4c-2.2-0.3-4.5-0.3-6.7,0c-1,0.1-3.1,0.3-3.4,1.5c-0.2,0.8,0,2,0,2.9
		c0,1-0.2,2.3,0,3.3c0.2,1,1.6,1.2,2.5,1.4c2.1,0.4,4.4,0.5,6.6,0.3c1-0.1,3.6-0.2,4.2-1.3c0.4-0.7,0.1-2.2,0.1-3
		C35.8,28.9,35.8,27.7,35.8,26.5z"/>
	<path class="st2" d="M35.8,26.5c0,1.7-5.7,1.7-6.7,1.7c-0.9,0-6.7,0-6.7-1.7c0-1.7,5.7-1.7,6.7-1.7C30.1,24.9,35.8,24.8,35.8,26.5z
		"/>
	<path class="st3" d="M90.7,20.8c0-1.2-3.7-1.3-4.4-1.3c-1.7-0.1-4.3-0.2-5.8,0.7c-0.8,0.5-0.5,1.5-0.5,2.4c0,0.9-0.3,2.4,0,3.2
		c0.4,1.2,2.9,1.2,4,1.3c1.9,0.1,4.3,0.2,6.1-0.6c1-0.5,0.7-1.3,0.7-2.2C90.7,23.1,90.7,21.9,90.7,20.8z"/>
	<path class="st2" d="M90.7,20.8c0,1.9-10.7,2-10.8,0C79.9,18.8,90.7,18.8,90.7,20.8z"/>
</g>
</svg>
