<svg id="Layer_1" data-name="Layer 1" xmlns="http://www.w3.org/2000/svg" xmlns:xlink="http://www.w3.org/1999/xlink" viewBox="0 0 312 220.95"><defs><style>.cls-1,.cls-3,.cls-4,.cls-5{stroke:#f7e033;stroke-linejoin:round;stroke-width:3px;}.cls-1{fill:url(#linear-gradient);}.cls-2{fill:#231f20;opacity:0.4;}.cls-3{fill:#e26f29;stroke-linecap:round;}.cls-4{fill:url(#linear-gradient-2);}.cls-5{fill:url(#linear-gradient-3);}</style><linearGradient id="linear-gradient" x1="54.1" y1="187.17" x2="54.1" y2="47.94" gradientTransform="matrix(1, -0.36, 0, 1, -4.17, 34.35)" gradientUnits="userSpaceOnUse"><stop offset="0" stop-color="#4f7bcb"/><stop offset="0.02" stop-color="#4c76c9"/><stop offset="0.15" stop-color="#3d5cbf"/><stop offset="0.3" stop-color="#3048b7"/><stop offset="0.46" stop-color="#283ab1"/><stop offset="0.67" stop-color="#2332ae"/><stop offset="1" stop-color="#212fad"/></linearGradient><linearGradient id="linear-gradient-2" x1="155.83" y1="175.88" x2="155.83" y2="44.99" gradientTransform="matrix(1, 0, 0, 1, 0, 0)" xlink:href="#linear-gradient"/><linearGradient id="linear-gradient-3" x1="266.07" y1="178.83" x2="266.07" y2="39.74" gradientTransform="matrix(1, -0.36, 0, 1, -4.17, 76.02)" xlink:href="#linear-gradient"/></defs><title>agt-logo</title><polygon class="cls-1" points="98.36 175.88 1.5 219.45 1.5 88.56 98.36 44.99 98.36 175.88"/><path class="cls-2" d="M66.86,92.58l30.91,72.17a2.56,2.56,0,0,1-1.3,3.34L81.34,174.9a2.56,2.56,0,0,1-3.43-1.39l-4.13-10.39a2.56,2.56,0,0,0-3.43-1.39L40.69,175.07a2.55,2.55,0,0,0-1.42,1.67L34.37,195a2.57,2.57,0,0,1-1.43,1.67L19.5,202.72a2.56,2.56,0,0,1-3.51-3L44.1,101a2.55,2.55,0,0,1,1.41-1.63l17.94-8.07A2.57,2.57,0,0,1,66.86,92.58Zm.63,51.19L59.22,123a2.56,2.56,0,0,0-4.85.28l-7.49,27.88a2.57,2.57,0,0,0,3.53,3l15.75-7.09A2.57,2.57,0,0,0,67.49,143.77Z" transform="translate(-4.17 -2.95)"/><path class="cls-3" d="M63.31,86.67l32.93,76.87-19.86,8.93-6.11-15.36L37.06,172l-5.53,20.61L12,201.45l30-105.16Zm1.56,56.85-12-30.23L42,153.83Z" transform="translate(-4.17 -2.95)"/><rect class="cls-4" x="98.36" y="44.99" width="114.95" height="130.88"/><path class="cls-2" d="M205.26,81.36v13a3.88,3.88,0,0,1-5.37,3.78c-9.35-4.25-18.52-7.38-27.51-7.38-10.33,0-16.25.27-23.87,7.84a28,28,0,0,0-8.38,20.74q0,12.07,8.38,19.56t22,7.48a34.31,34.31,0,0,0,12.08-2.26,3.85,3.85,0,0,0,2.47-3.61v-4.25a3.85,3.85,0,0,0-3.85-3.86h-5a3.85,3.85,0,0,1-3.86-3.85v-9.09a3.86,3.86,0,0,1,3.86-3.86h27a3.86,3.86,0,0,1,3.86,3.86v32a3.87,3.87,0,0,1-1.27,2.87q-5.19,4.62-14.64,7.67a68.39,68.39,0,0,1-21.13,3.45q-23,0-37.76-13.23t-14.77-33.64q0-20.86,14.77-34t38.26-13.16A78.63,78.63,0,0,1,203,77.82,3.89,3.89,0,0,1,205.26,81.36Z" transform="translate(-4.17 -2.95)"/><path class="cls-3" d="M201.74,75.39v20q-16.81-8.47-32.88-8.47-15.5,0-23.87,8.14t-8.38,20.74q0,12.08,8.38,19.56t22,7.48a35.23,35.23,0,0,0,14.55-3.28v-10.7H168.86v-16.8h34.7v37.47q-5.22,5.46-15.9,8.9a68.72,68.72,0,0,1-21.13,3.44q-23,0-37.76-13.22T114,115q0-20.86,14.77-34T167,67.84Q186.43,67.84,201.74,75.39Z" transform="translate(-4.17 -2.95)"/><polygon class="cls-5" points="310.5 132.38 213.31 175.88 213.31 44.99 310.5 1.5 310.5 132.38"/><path class="cls-2" d="M305.81,40.28V49a3.67,3.67,0,0,1-2.18,3.36L281,62.48a3.67,3.67,0,0,0-2.18,3.36V136a3.69,3.69,0,0,1-2.18,3.37l-11.17,5a3.68,3.68,0,0,1-5.18-3.36V77.43a3.68,3.68,0,0,0-5.19-3.36l-16.57,7.42a3.69,3.69,0,0,1-5.19-3.36V69.39A3.67,3.67,0,0,1,235.56,66l65.06-29.12A3.69,3.69,0,0,1,305.81,40.28Z" transform="translate(-4.17 -2.95)"/><path class="cls-3" d="M302.29,31.07v16.8l-27,12.06v74.89l-18.54,8.29V68.22L229.86,80.28V63.48Z" transform="translate(-4.17 -2.95)"/></svg>