<svg id="Layer_1" data-name="Layer 1" xmlns="http://www.w3.org/2000/svg" xmlns:xlink="http://www.w3.org/1999/xlink" viewBox="0 0 658 466.89"><defs><style>.cls-1,.cls-6{fill:none;}.cls-2{clip-path:url(#clip-path);}.cls-3{fill:#f9f8fa;}.cls-4{fill:#2e3191;}.cls-5{fill:#ec1c24;}.cls-6{stroke:#231f20;stroke-miterlimit:10;stroke-width:8.64px;}.cls-7{fill:#231f20;}</style><clipPath id="clip-path"><path class="cls-1" d="M6.87,194.59V166.93H28.06V58.53H6.87V30.87H89l35.92,95.91L161,30.87h83.69V58.53H223.56v108.4h21.19v27.66H162.35V166.93h19.77V58.53h-3.88L127.51,194.59H109.86L58.54,58.53H54.66v108.4H76.08v27.66Zm375.67-26.25v26.25H327.81v-9q-14.71,10.65-31.07,10.65-16.95,0-29.25-9.65t-12.3-25.89q0-16.36,12.95-27.42t33.43-11.06q11.42,0,26.25,5.77V121a18.86,18.86,0,0,0-5.88-14.3q-5.88-5.59-15.77-5.59a28.19,28.19,0,0,0-21,8.95l-29.31-5.3q12.71-27,55.2-27,16.48,0,27.31,3.71t16.12,9.59A34.45,34.45,0,0,1,362,104q2.18,7,2.18,22.77v41.55Zm-54.73-15.89q-13.18-8.24-21.07-8.24a19.13,19.13,0,0,0-11.36,3.65q-5.12,3.65-5.12,10.59a15.26,15.26,0,0,0,4.12,10.71A13.75,13.75,0,0,0,305,173.64q10.12,0,22.83-11.89Zm198.53,15.89v26.25H471.26V181q-15.18,15.21-33,15.21-21.3,0-35.31-17.3T389,137q0-25,14.36-42.08t35.07-17.13q19.89,0,32.84,15.51V57.11H453.49V30.87h54.14V168.34Zm-54.73-31q0-16.36-7-23.3t-15.95-6.94q-10.71,0-16.54,8.3t-5.83,21.83q0,12.83,5.77,21.6t16.71,8.77q9.06,0,15.95-7.12T471.62,137.38ZM625,160.22l28.25,9.06q-17.77,27.89-55.55,27.89-30.13,0-47-15.89T533.74,139.5q0-26.36,17.42-44t44.37-17.65q19.54,0,33.78,9.89t19.77,24.6a92.7,92.7,0,0,1,5.53,32.84H569.75q.82,15.54,9.83,22a32,32,0,0,0,19,6.47Q611.66,173.64,625,160.22ZM618,124.91a28.93,28.93,0,0,0-7.46-16.24q-6.19-6.71-16.9-6.71-20,0-23.3,23ZM77,264.57v-36H178.69v36h-21v96.29q0,19.29,1.61,27.79a22.89,22.89,0,0,0,8.5,14q6.89,5.51,17.45,5.51,10.87,0,18.06-5.21a23.12,23.12,0,0,0,9.26-13q2.07-7.81,2.07-31.84V264.57H194v-36h84.81v36h-26V371.12q0,21.74-2.3,31.61t-10.56,19.6q-8.27,9.72-24,15.77t-36.05,6q-23.58,0-40.19-6.66T115,419.8q-8.11-11-10.41-21.89t-2.3-37V264.57Zm213.53,177V369H326.7q.61,19.9,10.41,29.32t22.35,9.42A22.35,22.35,0,0,0,376,400.9a22,22,0,0,0,6.74-16,22.49,22.49,0,0,0-6.58-16.46q-6.58-6.66-24.06-15.17-37-17.78-50.15-31.43T288.74,285q0-27.91,17.45-43.24t39.65-15.33q25.41,0,39.34,19.83V228.59h36v64.76h-36q-1.68-15-10.33-23.19A28.37,28.37,0,0,0,354.72,262a23.75,23.75,0,0,0-15,4.75,15,15,0,0,0-6.12,12.4q0,6.58,5.05,12.48t29.57,16.71q23.6,10.51,36.21,19a61.49,61.49,0,0,1,20,22.07q7.34,13.56,7.34,31.33,0,31.57-18.37,47.5t-43.48,15.93q-28,0-43.17-20.74v18.14Zm362.95-36v36H548.81v-36h27.25L566,369H510.69l-11.33,36.59h28.47v36h-94.3v-36h26.33l41.49-141H473v-36H612v36H583.41l44.7,141Zm-96.29-67.82L539.47,273.6l-19.14,64.15ZM29.06,442.88H20.12V424.62H50v-5.77h8.93v24H50V437H29.06ZM9,437.43a6.56,6.56,0,0,1-4.79-2,6.76,6.76,0,0,1,0-9.59,6.59,6.59,0,0,1,4.79-2,6.49,6.49,0,0,1,4.77,2,6.74,6.74,0,0,1,0,9.55A6.48,6.48,0,0,1,9,437.43Zm20-21H20.12v-18.3h3.6a18.83,18.83,0,0,1-4.21-11.37q0-11.74,15-11.74H50v-5.85h8.93v18.22H35.42q-3.16,0-4.33.86a3.28,3.28,0,0,0-1.16,2.82,12.31,12.31,0,0,0,2.52,7H50v-6h8.93v24.27H50v-5.93H29.06Zm0-66.31H20.12v-4.93H14L5.15,332.8h15v-7.13h8.93v7.13H45.87a5.58,5.58,0,0,0,3.07-.58q.78-.58.78-2.66a11.34,11.34,0,0,0-.8-3.89h8.57a24.41,24.41,0,0,1,2,9.33q0,10.17-10.11,10.17H29.06Zm29.84-26.87H50V317H12.11v6.25H3.18V304.65H23.25q-4.09-5.85-4.09-11,0-11.9,14.3-11.9H50v-5.69h8.93v18.06H34q-2.72,0-3.74,1a3.9,3.9,0,0,0-1,2.94q0,2.76,2.44,6.61H50v-5.53h8.93ZM47.2,242.1l3.08-9.61q9.49,6,9.49,18.9,0,10.25-5.41,16t-14.22,5.75a20.41,20.41,0,0,1-21-21,19.65,19.65,0,0,1,3.36-11.49,17.68,17.68,0,0,1,8.37-6.73A31.55,31.55,0,0,1,42.07,232v28.88q5.29-.28,7.49-3.34a10.9,10.9,0,0,0,2.2-6.47Q51.77,246.63,47.2,242.1Zm-12,2.36A9.85,9.85,0,0,0,29.66,247a7.44,7.44,0,0,0-2.28,5.75q0,6.81,7.81,7.93Z"/></clipPath></defs><title>MadeintheUSA RGB</title><g class="cls-2"><path class="cls-3" d="M486.61,453.31q-247.71,0-495.41.06c-2.07,0-2.39-.48-2.39-2.44q.08-259.65,0-519.3c0-2,.34-2.44,2.4-2.44q495.29.09,990.57,0c2.17,0,2.52.53,2.52,2.57q-.08,259.65,0,519.3c0,1.82-.35,2.31-2.26,2.31Q734.32,453.28,486.61,453.31ZM387-70.19c-.91,0-1.82-.08-2.73-.08q-196,0-391.92-.06c-2.46,0-3.09.52-3.09,3.05q.11,137.86,0,275.71c0,2.52.6,3.06,3.08,3.06q196-.1,391.92-.06c.91,0,1.82-.05,2.73-.08.58,0,1.16.08,1.74.08q296.34,0,592.68.06c2.07,0,2.37-.67,2.36-2.5-.08-11.53,0-23.06,0-34.59,0-3.28,0-3.28-3.23-3.28H387.09V130.8H500.55q240.22,0,480.43,0c2.22,0,2.86-.48,2.84-2.79-.13-11.44-.06-22.89-.06-34.33,0-3.23,0-3.23-3.27-3.23H387.09V50.18H502q239.47,0,478.94,0c2.22,0,2.86-.48,2.84-2.79-.13-11.44-.06-22.89-.06-34.33,0-3.23,0-3.23-3.27-3.23H387.09V-30.45H662.54q159.24,0,318.49.06c2.31,0,2.81-.63,2.78-2.84-.11-11.36-.16-22.73,0-34.09,0-2.63-.77-3-3.14-3q-295.47.08-590.94.06C388.84-70.27,387.93-70.22,387-70.19Zm99.51,362.24q247.21,0,494.42,0c2.16,0,2.9-.39,2.87-2.76-.14-11.44-.06-22.89-.06-34.34,0-3.26,0-3.26-3.25-3.26H207.64q-107.87,0-215.74,0c-2,0-2.64.35-2.61,2.51.12,11.53.06,23.06.06,34.59,0,3.26,0,3.26,3.25,3.26Zm0,40.32q-247.21,0-494.42-.05c-2.23,0-2.85.51-2.83,2.8.13,11.44.06,22.89.06,34.34,0,3.22,0,3.22,3.29,3.22h860.2q64.2,0,128.4,0c2,0,2.6-.45,2.57-2.55-.11-11.61-.15-23.22,0-34.83,0-2.58-.69-3-3.11-3Q733.63,332.41,486.54,332.37Zm0,120.45h8.21q243.11,0,486.22.05c2.26,0,2.84-.55,2.82-2.81-.12-11.28-.06-22.56-.06-33.84,0-3.22,0-3.22-3.29-3.22H.57c-3,0-6,.13-9,0-1.87-.11-2.33.44-2.31,2.3.09,11.53.14,23.06,0,34.59,0,2.57.68,3,3.11,3Q239.48,452.78,486.57,452.82Z"/><path class="cls-4" d="M387.09,130.8q0,20.16,0,40.31T387,211.34c-.91,0-1.82.08-2.73.08q-196,0-391.92.06c-2.48,0-3.08-.54-3.08-3.06q.11-137.86,0-275.71c0-2.53.63-3.05,3.09-3.05q196,.1,391.92.06c.91,0,1.82.05,2.73.08l.07,39.74q0,20.16,0,40.31t0,40.31q0,20.16,0,40.31T387.09,130.8ZM196.85-2l.36.08-.09-.18-.3.18c.62-.73,0-1.4-.17-2-.7-2.29-1.4-4.59-2.27-6.82-.55-1.42-.17-2.22,1-3,2.49-1.69,4.88-3.52,7.86-5.7-3.72,0-6.76-.11-9.78,0-1.59.08-2.15-.62-2.56-1.94-.88-2.88-1.85-5.73-3-9.25-1.14,3.45-2.16,6.2-2.95,9-.44,1.58-1.08,2.29-2.86,2.18-3-.18-5.95,0-9.59,0,2.81,2,4.89,3.68,7.13,5.08,1.88,1.19,2.31,2.37,1.54,4.6-.89,2.56-2.36,5-2.17,7.91l-.31-.16-.08.19L179-2c2.47-1.76,5-3.46,7.4-5.3a2.12,2.12,0,0,1,3,0C191.86-5.47,194.38-3.77,196.85-2Zm81.29,28.56c2.44-1.83,4.94-3.59,7.29-5.53,1.25-1,2.08-.76,3.22.13,2.35,1.82,4.82,3.49,7.24,5.21l.36.08-.09-.18-.3.18c.64-.84,0-1.55-.27-2.27-.72-2.37-1.38-4.78-2.29-7.08-.49-1.23-.1-1.75.83-2.4,2.55-1.78,5-3.64,8.17-5.92-3.72,0-6.73-.1-9.74,0A2.24,2.24,0,0,1,290,6.87c-.86-2.87-1.85-5.71-2.78-8.56A47.6,47.6,0,0,0,284,6.76a2.33,2.33,0,0,1-2.76,2c-3-.15-6,0-9,0a45.81,45.81,0,0,0,5.57,4.6c3.2,2.4,3.08,2.37,2,6.23-.67,2.29-2.22,4.41-1.68,7-.07-.23-.09-.53-.43-.21ZM80,26.36q3.72-2.67,7.45-5.35c.74-.53,1.39-1.2,2.4-.42,2.61,2,5.27,4,7.91,5.95,0-.14.58.08.25-.34l-.25.38c.71-.8.1-1.57-.12-2.3a58.16,58.16,0,0,0-2-6.11c-.76-1.79-.66-2.89,1.18-4,2.42-1.46,4.61-3.31,7.48-5.42-3.8,0-6.84-.09-9.87,0A2.09,2.09,0,0,1,91.95,7c-.87-3-1.86-5.87-3-9.49-1.17,3.61-2.16,6.47-3,9.36a2.24,2.24,0,0,1-2.6,1.92c-3-.13-6,0-9.06,0,0,.38,0,.49,0,.52C76.16,10.65,78,12,79.9,13.39c3.19,2.28,3.12,2.24,2,6.06-.69,2.3-2.17,4.41-1.87,7l-.31-.16-.08.19ZM97.81,196.07l.36.08-.09-.18-.3.18c.23-2.88-1.26-5.34-2.12-7.9-.74-2.19-.48-3.35,1.5-4.55,2.31-1.4,4.4-3.18,7.07-5.14H97.07c-4.44,0-4.44,0-5.83-4.14l-2.35-7c-1.15,3.55-2.17,6.33-2.93,9.17-.41,1.55-1.09,2.09-2.7,2-3-.14-6,0-9.74,0,2.76,2,4.89,3.65,7.13,5.12,1.8,1.18,2.48,2.28,1.56,4.58-1,2.5-2.4,5-2.1,7.91l-.15-.07.11.08c2.46-1.78,5-3.48,7.35-5.37a2.08,2.08,0,0,1,3,0C92.86,192.58,95.35,194.31,97.81,196.07Zm180.25,0c2.42-1.73,4.87-3.41,7.24-5.2,1.14-.85,2-1.06,3.23,0,2.3,1.88,4.81,3.51,7.23,5.24a42,42,0,0,0-2.37-8.76,2.16,2.16,0,0,1,1-3c2.52-1.73,4.94-3.59,7.9-5.75-3.77,0-6.84-.09-9.89,0a2,2,0,0,1-2.41-1.75c-.86-3-1.87-5.87-3-9.5-1.19,3.65-2.21,6.5-3,9.41-.41,1.48-1.17,1.87-2.62,1.82-3-.11-6,0-9.76,0,3,2.16,5.3,4,7.76,5.56,1.43.93,1.64,1.8,1.13,3.42-.89,2.83-2.39,5.52-2.36,8.61l-.31-.16-.08.19ZM79.93-30.46a44,44,0,0,0,7.46-5.14,2.12,2.12,0,0,1,3,0c2.48,1.74,4.68,3.89,7.47,5.18l.23.31.06-.29-.33,0c0-3.19-1.75-5.91-2.5-8.9A2.06,2.06,0,0,1,96.19-42c2.56-1.75,5-3.65,8.1-5.92-3.56,0-6.43-.13-9.27,0-1.87.11-2.75-.39-3.22-2.31C91.11-52.92,90-55.61,88.9-59c-1.12,3.4-2.14,6.09-2.87,8.86-.46,1.71-1.17,2.4-3,2.28-2.92-.18-5.87,0-9.47,0,3,2.2,5.42,4.05,7.93,5.73a2.18,2.18,0,0,1,1,3c-1,2.86-2.31,5.63-2.52,8.71l-.27.14c.05,0,.13,0,.15,0A.82.82,0,0,0,79.93-30.46Zm216,0a.83.83,0,0,0,.08.21s.1,0,.15,0l-.27-.14c-.21-2.91-1.4-5.56-2.38-8.24-.65-1.79-.34-2.78,1.27-3.81,2.43-1.54,4.68-3.36,7.51-5.42-3.73,0-6.72-.11-9.69,0-1.66.09-2.28-.54-2.71-2-.81-2.88-1.84-5.7-3-9.11-1.12,3.38-2.19,6.06-2.87,8.84-.47,1.92-1.36,2.42-3.22,2.31-2.85-.17-5.71,0-9.28,0,2.89,2.12,5.11,3.94,7.52,5.46,1.64,1,1.83,2.08,1.27,3.84-.86,2.69-2.3,5.24-2.31,8.18l-.33,0,.06.29.23-.31c2.79-1.29,5-3.44,7.47-5.18a2.12,2.12,0,0,1,3,0A44,44,0,0,0,295.95-30.46Zm66.33,226.28-.07.15.08-.11c-.9-2.74-1.7-5.53-2.74-8.22-.61-1.57-.43-2.46,1-3.49,2.41-1.71,5-3.22,7.36-5.61-3.46,0-6.52-.05-9.58,0a1.93,1.93,0,0,1-2.27-1.63c-.88-3.06-2-6.06-3.13-9.58-1.14,3.49-2.19,6.44-3,9.45a2.06,2.06,0,0,1-2.44,1.76c-3.09-.1-6.18,0-9.89,0,3,2.2,5.41,4.08,7.94,5.74,1.32.86,1.45,1.67,1,3.06-1,2.88-1.88,5.82-3,9.22,2-1.45,3.58-2.55,5.12-3.66,4.33-3.16,4.29-3.1,8.8,0C359,194,360.1,195.8,362.28,195.82Zm-348.68,0c.67.64,1.06-.11,1.45-.38a48.35,48.35,0,0,0,5.6-4.09c1.72-1.59,3-1.34,4.63,0,2.1,1.76,4.41,3.26,7.1,5.22-1.08-3.4-1.87-6.25-2.89-9-.58-1.56-.46-2.48,1.06-3.45,2.51-1.6,4.84-3.49,7.69-5.59-3.71,0-6.77-.07-9.83,0A2.06,2.06,0,0,1,26,176.81c-.85-3-1.91-5.91-3.06-9.44-1.19,3.61-2.25,6.55-3.11,9.56a1.92,1.92,0,0,1-2.27,1.63c-3.09-.08-6.19,0-10,0,3.08,2.27,5.55,4.16,8.11,5.94a1.82,1.82,0,0,1,.89,2.45c-1.06,3-2,5.94-3,8.92l.07.09ZM164.2-30.63l-.07.15.08-.11c-.92-2.83-1.76-5.69-2.81-8.47a2.15,2.15,0,0,1,1-3c2.54-1.69,4.94-3.6,7.86-5.77-3.84,0-7,0-10.13,0a1.77,1.77,0,0,1-2.08-1.53c-.9-3.08-2-6.1-3.12-9.63a68.12,68.12,0,0,0-2.64,8.14c-.51,2.64-1.8,3.24-4.24,3-2.63-.22-5.29,0-8.54,0,3,2.18,5.36,4,7.85,5.65a2.32,2.32,0,0,1,1.1,3.23c-1.06,2.86-1.92,5.8-3.05,9.3,1.55-1.16,2.53-1.93,3.54-2.64,2-1.38,3.87-3.73,5.9-3.84,2.18-.12,4,2.56,6.12,3.85C162-31.69,162.61-30.2,164.2-30.63Zm47.48,0c.79.69,1.19-.16,1.65-.48,2-1.37,4-2.73,5.8-4.25,1.29-1.06,2.22-1.2,3.61,0,2.3,1.91,4.83,3.55,7.74,5.65-1.16-3.54-2.08-6.53-3.14-9.46a2.06,2.06,0,0,1,1-2.84c2.57-1.72,5-3.61,8-5.8-3.51,0-6.39-.18-9.25.06-2.12.17-2.87-.68-3.36-2.56C223-53.12,222-55.8,221-59c-1.16,3.45-2.26,6.39-3.09,9.39a2,2,0,0,1-2.38,1.78c-3.09-.1-6.19,0-9.94,0,3.08,2.26,5.54,4.17,8.11,5.91a1.93,1.93,0,0,1,.88,2.66c-1,2.88-1.94,5.8-2.9,8.7l.07.09Zm-198.08,0c.79.69,1.19-.16,1.65-.48,2.1-1.47,4.21-2.93,6.21-4.53a1.9,1.9,0,0,1,2.79,0c2.49,1.92,5.09,3.69,8.13,5.87-1.12-3.52-2-6.44-3-9.3A2.07,2.07,0,0,1,30.28-42c2.56-1.73,5-3.64,8-5.85-3.54,0-6.42-.15-9.28.05-2,.14-2.75-.65-3.24-2.41C25-53,24-55.76,22.92-59c-1.16,3.48-2.23,6.42-3.1,9.42a2,2,0,0,1-2.43,1.75c-3.08-.11-6.18,0-9.87,0,3,2.2,5.44,4,8,5.75,1.12.77,1.53,1.46,1,2.85-1.07,2.85-1.95,5.78-2.9,8.68l.07.09Zm348.68,0-.07.15.08-.11c-1-2.9-1.83-5.82-2.9-8.68-.52-1.38-.12-2.08,1-2.85,2.53-1.73,5-3.59,7.92-5.75-3.73,0-6.79-.08-9.84,0a2,2,0,0,1-2.43-1.75c-.88-3-2-6-3.12-9.41-.86,2.63-1.54,4.75-2.23,6.86-1.41,4.26-1.41,4.26-5.8,4.26h-7.33c3.07,2.25,5.48,4.14,8,5.85a2.08,2.08,0,0,1,.89,2.89c-1,2.91-1.88,5.87-3,9.31,1.75-1.26,3-2.15,4.3-3.09,5-3.76,4.95-3.69,10-.25C359.2-32.22,360.22-30.45,362.28-30.63ZM112.63,167.44c.79.69,1.2-.16,1.66-.48,2-1.42,4.1-2.81,6-4.39a2.12,2.12,0,0,1,3.2,0c2.4,1.92,5,3.63,8,5.8-1.12-3.43-2-6.26-3-9-.57-1.56-.27-2.49,1.14-3.5,2.39-1.72,5-3.2,7.31-5.58-3.31,0-6.22-.14-9.1,0-1.87.12-2.6-.6-3.06-2.3-.76-2.84-1.76-5.61-2.83-8.92-1.12,3.38-2.18,6.24-3,9.17-.43,1.56-1.11,2.11-2.73,2-3-.14-6,0-9.69,0,3.07,2.25,5.54,4.17,8.12,5.91a1.9,1.9,0,0,1,.87,2.65c-1,2.87-1.95,5.79-2.9,8.69l.07.1Zm150.6,0v0c-.92-2.82-1.75-5.69-2.81-8.46a2.12,2.12,0,0,1,1-3c2.55-1.69,4.95-3.61,7.86-5.77-3.74,0-6.81-.09-9.87,0-1.45.06-2-.47-2.4-1.8-.87-3-1.93-5.94-3.07-9.41-1.07,3.31-2.06,6.09-2.83,8.92-.46,1.7-1.18,2.42-3.05,2.3-2.93-.19-5.88,0-9.5,0,2.53,1.84,4.41,3.46,6.52,4.67,2.54,1.46,3.13,3.14,1.9,5.84a75.71,75.71,0,0,0-2.54,7.67c1.95-1.45,3.32-2.51,4.73-3.52,4.75-3.39,4.7-3.3,9.61,0C260.16,165.86,261.18,167.63,263.24,167.45Zm47.59.16c2.85-1,4.93-3.15,7.26-4.89,1.52-1.13,2.47-1,3.83.09,2.29,1.83,4.72,3.47,7.53,5.51-1.1-3.42-1.94-6.34-3-9.18a2.32,2.32,0,0,1,1-3.25c2.51-1.65,4.87-3.51,7.81-5.66-3.4,0-6.13-.15-8.83,0-2.16.16-3.27-.41-3.79-2.67-.63-2.73-1.71-5.35-2.75-8.52-1.14,3.47-2.2,6.41-3.07,9.41a2,2,0,0,1-2.41,1.76c-3.08-.11-6.16,0-9.91,0,3.13,2.3,5.64,4.18,8.2,6a1.87,1.87,0,0,1,.8,2.46c-.84,3-2.26,5.85-2.69,9a.83.83,0,0,0-.21.08s0,.1,0,.15ZM65,167.6l.14.28c0-.05,0-.14,0-.15a.82.82,0,0,0-.21-.09c-.4-3-1.77-5.82-2.62-8.73-.4-1.38-.21-2.08.93-2.86,2.53-1.74,5-3.61,8-5.82-3.78,0-6.84-.08-9.88,0A2,2,0,0,1,59,148.51c-.88-3-2-6-3.09-9.41-1,3.18-2.11,5.8-2.73,8.52-.52,2.27-1.65,2.81-3.8,2.66-2.72-.19-5.47,0-8.85,0,3,2.2,5.37,4,7.85,5.66a2.32,2.32,0,0,1,1,3.25c-1,2.85-1.89,5.77-3,9.18,2.81-2,5.25-3.68,7.53-5.52,1.36-1.09,2.31-1.22,3.83-.09C60.11,164.45,62.19,166.62,65,167.6Zm213-28.3c2.63-1.25,4.79-3.2,7.09-4.92,1.32-1,2.25-1.13,3.62,0,2.25,1.87,4.72,3.47,7.71,5.63-1.15-3.53-2-6.35-3-9.11a2.5,2.5,0,0,1,1.18-3.44c2.44-1.6,4.74-3.4,7.72-5.57-3.84,0-6.88-.08-9.9,0a2,2,0,0,1-2.43-1.72c-.86-2.94-1.89-5.83-3.09-9.46-1.17,3.65-2.15,6.52-3,9.43a2.06,2.06,0,0,1-2.44,1.76c-3.08-.12-6.16,0-9.24,0a60.75,60.75,0,0,0,7.56,6,1.77,1.77,0,0,1,.8,2.45c-1,2.87-1.87,5.81-2.78,8.72-.22.19-.31.38,0,.6Zm-180.24,0,.27.36c.26-.22.17-.42,0-.6-.9-2.83-1.71-5.69-2.72-8.48a2,2,0,0,1,.94-2.83c2.55-1.7,5-3.58,7.47-5.39a48,48,0,0,0-9.1-.41,2.31,2.31,0,0,1-2.76-2,53.3,53.3,0,0,0-3.05-8.85c-1.09,3.34-2.11,6.2-3,9.11a2,2,0,0,1-2.43,1.73c-3.05-.12-6.11,0-9.16,0a45.33,45.33,0,0,0,7,5.57,2.5,2.5,0,0,1,1.18,3.44c-1,2.76-1.86,5.58-3,9.11,3-2.16,5.46-3.76,7.71-5.63,1.37-1.14,2.29-1,3.62,0C93,136.11,95.19,138.06,97.82,139.3Zm66.5-.17c-.15.06-.45,0-.19.34l.18-.33c-.93-2.73-1.75-5.5-2.82-8.17-.65-1.61-.34-2.51,1.11-3.46,2.49-1.63,4.83-3.48,7.73-5.61-3.79,0-6.85-.07-9.91,0a2.07,2.07,0,0,1-2.43-1.78c-.86-3-1.91-5.94-3-9.4-1.15,3.5-2.2,6.44-3.06,9.43a2.07,2.07,0,0,1-2.45,1.76c-3.08-.11-6.17,0-9.91,0,3,2.22,5.44,4.12,8,5.78,1.33.86,1.42,1.7.94,3-1,2.87-1.88,5.8-3,9.31,1.55-1.15,2.53-1.9,3.55-2.61,2-1.38,3.93-3.8,5.9-3.8s3.89,2.5,5.91,3.76C161.92,138.07,162.65,139.6,164.32,139.14Zm47.23,0c1,.7,1.51-.32,2.1-.72,2.06-1.38,4.1-2.81,6-4.36a1.75,1.75,0,0,1,2.56,0c2.54,1.91,5.14,3.72,8.17,5.89-1.07-3.38-1.87-6.23-2.9-9-.58-1.55-.47-2.48,1-3.44,2.52-1.6,4.86-3.49,7.78-5.62-3.77,0-6.83-.08-9.88,0a2.06,2.06,0,0,1-2.45-1.75c-.87-3-1.91-5.93-3.07-9.43-1.13,3.46-2.18,6.4-3,9.39a2.07,2.07,0,0,1-2.43,1.79c-3.09-.11-6.19,0-10,0,3.1,2.26,5.61,4.12,8.15,5.93.79.56,1.45,1,1,2.19-1.08,3-2.09,6.08-3.12,9.12,0,.05.12.1.12.16,0,.23.09.25.15,0C211.87,139.29,211.66,139.19,211.55,139.13ZM328.72,111c.06.2.14.45.4.27.06,0-.08-.35-.13-.54-.88-2.84-1.71-5.69-2.66-8.5a1.91,1.91,0,0,1,.84-2.64c2.63-1.77,5.13-3.71,8.27-6-3.57,0-6.37-.13-9.15,0-2.06.13-3.08-.45-3.58-2.57-.64-2.71-1.7-5.32-2.77-8.57-1,3.11-2,5.58-2.57,8.13-.55,2.29-1.58,3.26-4.06,3-2.65-.26-5.35-.06-8-.06a36.34,36.34,0,0,0,6.65,5.4c1.8,1.14,2.12,2.32,1.32,4.28-1,2.55-1.73,5.24-2.77,8.49,3.05-2.21,5.6-3.91,8-5.83a2,2,0,0,1,3,0C323.83,107.59,326.06,109.6,328.72,111ZM47.16,111c2.66-1.37,4.88-3.37,7.29-5.11a2,2,0,0,1,3,0c2.37,1.91,4.92,3.6,7.95,5.78-1-3.06-1.45-5.54-2.51-7.74-1.29-2.69-.5-4.18,1.86-5.58a28.43,28.43,0,0,0,6.22-4.81c-3.19,0-5.94-.2-8.63.06-2.32.22-3.17-.76-3.74-2.78a40.69,40.69,0,0,0-2.78-8.07c-1,3-2,5.72-2.68,8.51-.48,1.88-1.4,2.44-3.28,2.33-2.89-.17-5.79,0-8.69,0a55.44,55.44,0,0,0,7.56,6,1.91,1.91,0,0,1,.85,2.64c-1,2.81-1.78,5.66-2.66,8.5,0,.19-.19.5-.13.54C47,111.41,47.1,111.17,47.16,111ZM64.87,54.82l0-.07-.1,0c.16-3.22-1.59-5.94-2.42-8.89-.45-1.6-.19-2.36,1.11-3.23C66,41,68.32,39.19,70.72,37.43A34.87,34.87,0,0,0,62.59,37c-2.26.18-3.45-.44-4-2.8C58,31.56,56.91,29,55.9,25.95c-1.13,3.41-2.19,6.28-3,9.22-.42,1.53-1.18,1.89-2.63,1.85-3-.09-6.05,0-9.78,0,2.86,2.1,5.11,3.87,7.49,5.45,1.5,1,2.1,1.89,1.31,3.79-1.11,2.68-1.8,5.55-2.82,8.84,3-2.16,5.58-3.94,8.08-5.84a1.89,1.89,0,0,1,2.76,0C59.78,51.14,62.35,53,64.87,54.82Zm246.13,0c2.46-1.81,5-3.56,7.36-5.48a2.15,2.15,0,0,1,3.17,0c2.41,1.87,4.94,3.59,7.88,5.7-1.06-3.37-1.74-6.19-2.84-8.83-.8-1.9-.18-2.79,1.32-3.78,2.37-1.58,4.62-3.35,7.48-5.45-3.73,0-6.76-.06-9.78,0-1.45,0-2.21-.32-2.62-1.85-.8-2.93-1.87-5.79-3-9.23-1.07,3.22-2.14,5.83-2.77,8.53-.5,2.18-1.62,2.67-3.65,2.56-2.75-.16-5.52,0-9,0,2.83,2.07,4.92,3.83,7.24,5.23,1.9,1.15,2.27,2.28,1.53,4.4-.92,2.65-2.38,5.21-2.24,8.17l-.1,0ZM238.51,37c3,2.19,5.41,4,7.89,5.7a2.42,2.42,0,0,1,1,3.32c-1,2.79-1.87,5.66-3,9.11,2.78-2,5.09-3.48,7.15-5.24,1.65-1.41,2.89-1.58,4.62-.09,2.07,1.79,4.41,3.26,7.2,5.27-1.13-3.59-1.94-6.52-3-9.35a2.08,2.08,0,0,1,.94-2.88c2.47-1.73,4.89-3.55,7.32-5.34a33.49,33.49,0,0,0-8.5-.46c-2.1.17-2.93-.66-3.44-2.54-.75-2.75-1.73-5.44-2.78-8.68-1.07,3.33-2.07,6-2.79,8.83-.48,1.86-1.37,2.49-3.28,2.38C245,36.87,242.14,37,238.51,37ZM107.46,37l-.2.56c2.39,1.75,4.74,3.54,7.18,5.22a2.2,2.2,0,0,1,1,3.07c-1.07,2.82-1.86,5.74-3,9.24,2.74-2,5.06-3.43,7.09-5.21,1.8-1.58,3.1-1.36,4.81.1,2,1.74,4.34,3.19,7,5.15-1.07-3.33-1.82-6.1-2.87-8.75-.71-1.79-.37-2.84,1.21-3.9A49.14,49.14,0,0,0,137,37c-3.35,0-6.24-.11-9.11,0-1.81.1-2.66-.5-3.12-2.26C124,32,123,29.2,121.94,25.84c-1.11,3.4-2.13,6.18-2.92,9-.45,1.62-1.17,2.28-2.93,2.18C113.22,36.87,110.34,37,107.46,37Zm62.33,28.72-.18-.47c-3.11,0-6.23,0-9.34,0A1.94,1.94,0,0,1,158,63.6c-.86-3-1.93-5.92-3.1-9.42-1.07,3.31-2,6-2.79,8.78-.46,1.68-1.16,2.45-3.05,2.33-2.93-.19-5.89,0-9.61,0,3.11,2.27,5.55,4.19,8.14,5.88a2.09,2.09,0,0,1,.95,2.85c-1,2.94-2,5.9-3.15,9.48,3-2.13,5.42-3.78,7.73-5.63,1.29-1,2.2-1.18,3.57-.06,2.28,1.86,4.77,3.47,7.71,5.58-1.1-3.53-1.86-6.48-3-9.3-.61-1.56-.07-2.23,1.07-3C164.95,69.3,167.35,67.49,169.79,65.71Zm36.55-.47-.23.47a69.8,69.8,0,0,0,6.57,4.77c2.12,1.22,2.31,2.57,1.52,4.63-1,2.49-1.71,5.07-2.78,8.31,3.14-2.26,5.67-4,8.08-5.86a2,2,0,0,1,3,0c2.43,1.9,5,3.63,8.06,5.85-1.19-3.59-2.12-6.47-3.12-9.34a2.19,2.19,0,0,1,1-3.05c2.57-1.66,5-3.58,8-5.82-3.85,0-6.9-.09-9.95,0a2.22,2.22,0,0,1-2.59-1.94c-.82-2.87-1.79-5.7-2.9-9.17-1.18,3.51-2.26,6.37-3.07,9.29a2,2,0,0,1-2.41,1.81C212.45,65.19,209.39,65.25,206.34,65.25Zm-9.68-10.72.46-.35c-.88-2.73-1.69-5.48-2.67-8.16-.53-1.43-.42-2.33,1-3.25,2.51-1.65,4.87-3.53,7.92-5.77-3.65,0-6.52-.11-9.39,0-1.78.09-2.66-.44-3.13-2.23-.73-2.8-1.76-5.52-2.9-9-1.15,3.58-2.15,6.37-2.92,9.21-.43,1.58-1.23,2.06-2.81,2-2.95-.12-5.91,0-9.64,0,3,2.24,5.41,4.12,7.91,5.77,1.38.91,1.5,1.81,1,3.24a50.11,50.11,0,0,0-2.64,8.82c2.87-2.07,5.36-3.78,7.74-5.61a1.94,1.94,0,0,1,2.8,0C191.72,51.05,194.21,52.76,196.66,54.52ZM362.42,83.41c-1-3.3-1.74-6.09-2.82-8.74-.79-2-.23-3,1.38-4.05A47.58,47.58,0,0,0,368,65.25c-3.53,0-6.58-.07-9.62,0a2.08,2.08,0,0,1-2.43-1.8c-.86-3-1.91-5.87-3.05-9.29a79.14,79.14,0,0,0-2.58,8.08c-.54,2.6-1.86,3.24-4.31,3s-5.19,0-7.78,0a54.54,54.54,0,0,0,7.42,6,2,2,0,0,1,.86,2.69c-1,2.94-1.93,5.92-3.08,9.49,3-2.18,5.47-3.93,7.88-5.78a2.19,2.19,0,0,1,3.19,0C356.85,79.48,359.32,81.15,362.42,83.41Zm-349,0c2.83-2.07,5.11-3.58,7.2-5.31,1.56-1.29,2.75-1.49,4.4-.07,2.13,1.82,4.53,3.33,7.35,5.36-1.16-3.59-2-6.5-3.06-9.36a2.11,2.11,0,0,1,1-2.88c2.53-1.74,5-3.63,7.45-5.45a49.28,49.28,0,0,0-9.08-.42c-1.57.06-2.38-.38-2.82-2-.8-2.9-1.82-5.73-2.93-9.14-1.17,3.53-2.23,6.47-3.1,9.46a2,2,0,0,1-2.28,1.65c-3.1-.08-6.21,0-9.31,0a47.56,47.56,0,0,0,7,5.63c1.35.92,1.82,1.77,1.15,3.47C15.27,77.08,14.54,80,13.46,83.41Zm282.95,0c-1-3.29-1.72-6-2.78-8.56-.83-2-.42-3.08,1.37-4.19,2.37-1.48,4.54-3.26,6.8-4.92a26.32,26.32,0,0,0-7.71-.4c-2.93.37-4.08-.84-4.72-3.52a23,23,0,0,0-2.57-7.17c-1,3.2-2,6.09-2.92,9a1.94,1.94,0,0,1-2.25,1.65c-3.11-.11-6.22,0-9.33,0A39.94,39.94,0,0,0,279.43,71c1.47.92,1.5,1.79,1,3.21-1,2.85-1.88,5.76-3,9.14,3.05-2.18,5.71-4,8.26-6a1.73,1.73,0,0,1,2.54,0C290.74,79.36,293.3,81.14,296.4,83.38Zm-222-18.14-.26.5c2.52,1.83,5,3.69,7.57,5.46a1.91,1.91,0,0,1,.84,2.65c-1.07,2.91-1.92,5.91-3.06,9.52,3.1-2.24,5.66-4,8.13-5.92a1.73,1.73,0,0,1,2.54,0c2.54,2,5.2,3.77,8.24,5.94-1-3.2-1.74-6-2.77-8.64-.7-1.8-.63-2.88,1.22-4,2.43-1.45,4.61-3.32,6.9-5a51.69,51.69,0,0,0-9.47-.45A1.94,1.94,0,0,1,92,63.65c-.89-3-1.9-5.87-3.09-9.48-1.1,3.37-2.15,6-2.82,8.8-.48,2-1.45,2.42-3.31,2.32C80,65.13,77.18,65.25,74.38,65.25Zm38,46.48c3-2.17,5.47-3.82,7.76-5.7,1.37-1.13,2.29-.94,3.57.08,2.31,1.84,4.78,3.5,7.65,5.57-1-3.3-1.71-6-2.79-8.6-.84-2-.27-3.06,1.39-4.18a42.53,42.53,0,0,0,7-5.36c-3.21,0-6-.13-8.81,0-2,.12-3-.4-3.49-2.42C124,88.37,123,85.67,122,82.5c-1.13,3.35-2.25,6.28-3.08,9.28a2,2,0,0,1-2.41,1.78c-3.08-.08-6.16,0-9.24,0a43.68,43.68,0,0,0,7.06,5.72c1.47,1,1.68,1.88,1.08,3.47C114.33,105.46,113.53,108.29,112.42,111.73Zm132,0c2.93-2.13,5.46-3.83,7.82-5.75,1.28-1,2.13-1,3.38,0,2.32,1.85,4.79,3.52,7.8,5.69-1.14-3.57-1.91-6.44-3-9.18-.64-1.61-.14-2.37,1.12-3.23,2.46-1.69,4.82-3.53,7.22-5.3a51.8,51.8,0,0,0-9.11-.42c-1.53.05-2.33-.26-2.76-2-.74-2.94-1.89-5.78-3-9.08-1.11,3.38-2.14,6.3-3,9.27a2.06,2.06,0,0,1-2.43,1.77c-3.09-.11-6.19,0-10,0,3.13,2.29,5.59,4.2,8.16,5.95a2,2,0,0,1,.89,2.84C246.46,105.25,245.58,108.23,244.45,111.73ZM202.76,94l-.27-.5c-2.81,0-5.63-.12-8.44,0-1.85.11-2.77-.35-3.25-2.29-.69-2.79-1.79-5.47-2.9-8.74-1.17,3.57-2.16,6.46-3,9.39a1.9,1.9,0,0,1-2.22,1.65c-3.11-.12-6.23,0-9.34,0a48.08,48.08,0,0,0,7.31,5.94,2.05,2.05,0,0,1,.88,2.86c-1,2.93-1.94,5.92-3.07,9.39a81,81,0,0,0,7-5.11c1.94-1.77,3.33-1.59,5.2.07s4.26,3.14,6.86,5c-1.15-3.59-2-6.59-3.1-9.53a1.91,1.91,0,0,1,.86-2.64C197.77,97.76,200.25,95.87,202.76,94ZM8.35,121.9l-.21.46c2.32,1.69,4.59,3.45,7,5,1.45,1,1.91,1.91,1.23,3.65-1.06,2.69-1.81,5.5-2.92,9,2.92-2.12,5.27-3.67,7.43-5.44,1.43-1.17,2.48-1.38,4-.09,2.22,1.86,4.67,3.45,7.55,5.53-1.11-3.47-1.9-6.33-3-9.09-.62-1.64-.24-2.49,1.18-3.42,2.45-1.6,4.74-3.45,7.64-5.6-3.78,0-6.89,0-10,0A1.9,1.9,0,0,1,26,120.29c-.85-3-2-6-3.14-9.41-1.13,3.41-2.23,6.26-3,9.2-.41,1.56-1.16,1.89-2.6,1.85C14.31,121.84,11.33,121.9,8.35,121.9Zm344.59-11.12c-1,3.25-2,6-2.78,8.76-.49,1.76-1.31,2.54-3.26,2.41-2.89-.19-5.79,0-9.36,0,3,2.23,5.34,4.09,7.83,5.71a2.29,2.29,0,0,1,1.06,3.25c-1,2.83-1.87,5.73-3,9.15,3-2.21,5.63-4,8.11-5.91a1.9,1.9,0,0,1,2.78,0c2.44,1.9,5,3.65,8.1,5.88-1.12-3.5-1.9-6.36-3-9.11a2.37,2.37,0,0,1,1-3.28A57.46,57.46,0,0,0,368,121.9c-3.57,0-6.7,0-9.83,0a1.77,1.77,0,0,1-2.07-1.54C355.2,117.31,354.11,114.3,352.94,110.79ZM172.55,150.23c3.11,2.28,5.6,4.17,8.16,5.95a1.93,1.93,0,0,1,.84,2.64,55.35,55.35,0,0,0-2.76,9.21c2.63-1.89,5-3.4,7.1-5.16,1.46-1.2,2.52-1.33,4-.06,2.13,1.79,4.5,3.31,7.07,5.16a29.36,29.36,0,0,0-2.25-7.9c-.79-2.08-.75-3.36,1.37-4.6a88,88,0,0,0,7.18-5.23c-3.74,0-6.79-.1-9.82,0-1.57.08-2.14-.56-2.54-1.93-.84-2.86-1.82-5.69-2.74-8.53a50.59,50.59,0,0,0-3.27,8.7,2,2,0,0,1-2.43,1.75C179.44,150.14,176.38,150.23,172.55,150.23ZM329.46-1.49c-1.09-3.37-1.91-6.21-2.95-9-.58-1.54-.47-2.51,1-3.47,2.46-1.59,4.77-3.42,7.77-5.61-3.79,0-6.81-.08-9.82,0A2.1,2.1,0,0,1,323-21.26c-.88-3-1.89-5.94-3-9.52-1.17,3.59-2.22,6.6-3.12,9.66a1.94,1.94,0,0,1-2.28,1.62c-3.1-.09-6.21,0-10,0,3.05,2.23,5.52,4.11,8.08,5.85a1.9,1.9,0,0,1,.87,2.65c-1,2.91-1.89,5.89-3,9.52,3-2.18,5.42-3.88,7.76-5.69,1.14-.88,2-1.07,3.21-.06C323.86-5.35,326.43-3.66,329.46-1.49ZM64.74-2l.38-.38C64.2-5.24,63.37-8.16,62.33-11a1.9,1.9,0,0,1,.84-2.66c2.57-1.74,5-3.63,8.1-5.87-3.67,0-6.69-.08-9.7,0A2.18,2.18,0,0,1,59-21.34c-.84-3-1.9-5.91-3.05-9.43-1.15,3.57-2.15,6.51-3,9.49a2.1,2.1,0,0,1-2.45,1.78c-3-.12-6,0-9.82,0,3,2.23,5.41,4.09,7.91,5.75a2.21,2.21,0,0,1,.94,3.06c-1,2.87-1.91,5.8-3,9.23,3.07-2.21,5.67-4,8.14-5.9a2,2,0,0,1,2.81,0C59.8-5.51,62.28-3.75,64.74-2ZM230.51,196.67c-1-3.15-1.77-5.68-2.73-8.11-.86-2.19-.82-3.7,1.55-5a69.56,69.56,0,0,0,6.94-5c-3.8,0-6.94,0-10.08,0A1.78,1.78,0,0,1,224.1,177c-.88-3.07-2-6.08-3.15-9.58-1.08,3.21-2.19,6-2.89,8.82-.48,2-1.43,2.41-3.28,2.31-2.85-.16-5.71,0-9.22,0,3.06,2.23,5.54,4.11,8.09,5.86a1.9,1.9,0,0,1,.86,2.65c-1.06,2.9-1.88,5.89-3,9.53,2.85-2.09,5.16-3.67,7.35-5.41,1.41-1.13,2.52-1.34,4-.07C225.11,193,227.55,194.53,230.51,196.67Zm-91-18.13c3.1,2.25,5.53,4.1,8.07,5.79a2.1,2.1,0,0,1,.94,2.87c-1,2.93-2,5.9-3.15,9.42,3-2.16,5.63-3.89,8.06-5.81a2,2,0,0,1,3,0c2.4,1.84,4.9,3.56,7.93,5.74-1.11-3.55-1.88-6.48-3-9.29-.58-1.51-.14-2.22,1-3,2.48-1.7,4.88-3.52,7.86-5.68-3.7,0-6.73-.08-9.75,0a2.16,2.16,0,0,1-2.59-1.87c-.83-3-1.93-5.9-3.08-9.29-1.08,3.34-2.05,6.14-2.87,9-.45,1.55-1.11,2.3-2.91,2.18C146.17,178.4,143.21,178.54,139.52,178.54ZM238.57-19.54c3,2.14,5.25,3.9,7.64,5.5,1.36.91,1.84,1.75,1.18,3.44-1.1,2.81-1.86,5.76-2.91,9.09,2.89-2.09,5.43-3.8,7.81-5.7a2.19,2.19,0,0,1,3.21,0c2.37,1.84,4.86,3.53,7.3,5.28a47,47,0,0,0-2.37-8.72c-.52-1.4-.37-2.23.93-3.1,2.51-1.68,4.89-3.55,7.88-5.76-3.62,0-6.57-.12-9.5,0-1.77.1-2.43-.54-2.87-2.19-.78-2.91-1.86-5.74-2.95-9-1.13,3.42-2.19,6.37-3.06,9.38a2.06,2.06,0,0,1-2.42,1.79C245.4-19.62,242.35-19.54,238.57-19.54ZM121.93-30.74c-1.17,3.6-2.23,6.56-3.08,9.57a1.92,1.92,0,0,1-2.25,1.66c-3.1-.08-6.2,0-10,0,2.89,2.12,5.13,3.93,7.54,5.46,1.68,1.07,1.82,2.18,1.16,3.9-1,2.59-1.77,5.27-2.66,8,.43,0,.62.06.72,0Q116-4.05,118.58-6c3.36-2.47,3.34-2.46,6.6,0,1.91,1.42,3.86,2.78,6.24,4.49-1-3.05-1.69-5.67-2.68-8.18-.86-2.17-.61-3.58,1.55-4.84s4.33-3.1,6.94-5c-3.39,0-6.13-.18-8.84.06-2.28.2-3.2-.68-3.73-2.79C124-25,123-27.61,121.93-30.74Zm48.38,39.5c-3.76,0-6.74-.08-9.72,0A2.19,2.19,0,0,1,158,6.93c-.85-3-1.91-5.93-3-9.34C153.78,1.06,152.74,4,151.86,7a2.11,2.11,0,0,1-2.45,1.79c-3-.11-6,0-9.06,0a52,52,0,0,0,7.21,5.77,2.12,2.12,0,0,1,.93,2.89c-1,2.93-1.92,5.91-3,9.39,2.87-2.06,5.35-3.69,7.64-5.55,1.32-1.07,2.24-1.18,3.6-.07,2.27,1.84,4.73,3.46,7.69,5.58-1.13-3.59-1.95-6.51-3-9.35a2,2,0,0,1,.91-2.86C164.81,12.85,167.22,11,170.31,8.75ZM353-2.43c-1.15,3.5-2.19,6.37-3,9.3a2.18,2.18,0,0,1-2.58,1.92c-3-.13-6,0-9,0a44.12,44.12,0,0,0,6.9,5.58,2.48,2.48,0,0,1,1.12,3.49c-1,2.74-1.85,5.56-3,9,3.05-2.21,5.57-3.92,8-5.8a2.21,2.21,0,0,1,3.22.05c2.35,1.84,4.82,3.53,7.85,5.73-1.16-3.58-2-6.43-3-9.18-.6-1.56-.19-2.41,1.1-3.28,2.43-1.65,4.77-3.43,7.76-5.6-3.42,0-6.13-.2-8.79.06-2.41.24-3.35-.72-3.89-2.91C355,3.27,354,.72,353-2.43ZM211.74,26l.34.41c2.54-1.83,5.11-3.63,7.6-5.52a1.8,1.8,0,0,1,2.59,0c2.51,1.93,5.12,3.74,8.15,5.92-1-3.31-1.71-6.13-2.81-8.77-.83-2-.19-3,1.41-4,2.3-1.5,4.46-3.22,7.27-5.28-3.82,0-6.86-.05-9.9,0a2,2,0,0,1-2.3-1.65c-.9-3-2-6-3.14-9.53-1.12,3.39-2.19,6.25-3,9.18a2.3,2.3,0,0,1-2.77,2c-3-.12-6,0-9.63,0,3.14,2.29,5.58,4.14,8.11,5.86a1.91,1.91,0,0,1,.87,2.65C213.49,20.12,212.66,23.06,211.74,26Zm-180,.41.44-.3c-.83-2.49-1.53-5-2.52-7.45-.84-2.07-.68-3.45,1.41-4.69,2.29-1.36,4.34-3.12,6.49-4.71a38.84,38.84,0,0,0-8.75-.42c-1.89.13-2.62-.65-3.09-2.3C25,3.66,24,.87,22.94-2.44c-1.13,3.39-2.24,6.24-3,9.18-.43,1.61-1.13,2.11-2.73,2-3-.12-6,0-9.65,0,3,2.19,5.29,4,7.71,5.55a2.47,2.47,0,0,1,1.12,3.49c-1,2.74-1.84,5.58-3,9,3.06-2.23,5.57-4,8-5.84a2.08,2.08,0,0,1,3,0C26.8,22.85,29.31,24.58,31.78,26.37Z"/><path class="cls-5" d="M486.53,292.05H-7.4c-3.25,0-3.25,0-3.25-3.26,0-11.53.07-23.06-.06-34.59,0-2.16.62-2.51,2.61-2.51q107.87.08,215.74,0H980.5c3.25,0,3.25,0,3.25,3.26,0,11.45-.08,22.89.06,34.34,0,2.36-.71,2.76-2.87,2.76Q733.74,292,486.53,292.05Z"/><path class="cls-5" d="M486.54,332.37q247.09,0,494.18-.06c2.42,0,3.15.45,3.11,3-.17,11.61-.13,23.22,0,34.83,0,2.09-.53,2.55-2.57,2.55q-64.2-.1-128.4,0H-7.37c-3.29,0-3.29,0-3.29-3.22,0-11.45.07-22.89-.06-34.34,0-2.29.59-2.8,2.83-2.8Q239.33,332.4,486.54,332.37Z"/><path class="cls-5" d="M486.57,452.82q-247.09,0-494.18.06c-2.43,0-3.15-.46-3.11-3,.17-11.53.12-23.06,0-34.59,0-1.87.44-2.41,2.31-2.3,3,.17,6,0,9,0h979.9c3.29,0,3.29,0,3.29,3.22,0,11.28-.07,22.56.06,33.84,0,2.26-.56,2.81-2.82,2.81q-243.11-.09-486.22-.05Z"/><path class="cls-5" d="M387,211.34q0-20.11.08-40.23H980.52c3.23,0,3.23,0,3.23,3.28,0,11.53,0,23.06,0,34.59,0,1.82-.29,2.5-2.36,2.5q-296.34-.08-592.68-.06C388.17,211.42,387.59,211.37,387,211.34Z"/><path class="cls-5" d="M387.09,50.18q0-20.16,0-40.31H980.48c3.27,0,3.27,0,3.27,3.23,0,11.44-.07,22.89.06,34.33,0,2.3-.62,2.79-2.84,2.79q-239.47-.08-478.94,0Z"/><path class="cls-5" d="M387.09,130.8q0-20.16,0-40.31H980.48c3.27,0,3.27,0,3.27,3.23,0,11.44-.07,22.89.06,34.33,0,2.3-.62,2.79-2.84,2.79q-240.22-.08-480.43,0Z"/><path class="cls-3" d="M311.05,54.79c-.14-3,1.32-5.51,2.24-8.16.74-2.12.37-3.25-1.53-4.4-2.31-1.4-4.41-3.16-7.24-5.23,3.48,0,6.25-.12,9,0,2,.12,3.14-.38,3.65-2.56.63-2.71,1.7-5.31,2.77-8.53,1.14,3.44,2.21,6.3,3,9.23.42,1.53,1.18,1.89,2.62,1.85,3-.09,6.05,0,9.78,0-2.86,2.1-5.11,3.87-7.48,5.45-1.5,1-2.11,1.88-1.32,3.78,1.11,2.64,1.78,5.46,2.84,8.83-2.94-2.11-5.47-3.83-7.88-5.7a2.15,2.15,0,0,0-3.17,0C316,51.25,313.47,53,311,54.81Z"/><path class="cls-3" d="M238.51,37c3.62,0,6.5-.12,9.35,0,1.91.11,2.8-.52,3.28-2.38.72-2.79,1.72-5.5,2.79-8.83,1.06,3.25,2,5.93,2.78,8.68.51,1.88,1.35,2.71,3.44,2.54a33.49,33.49,0,0,1,8.5.46c-2.44,1.79-4.85,3.61-7.32,5.34a2.08,2.08,0,0,0-.94,2.88c1.06,2.83,1.87,5.76,3,9.35-2.79-2-5.13-3.49-7.2-5.27-1.73-1.49-3-1.32-4.62.09-2.06,1.76-4.37,3.23-7.15,5.24,1.12-3.45,1.95-6.32,3-9.11a2.42,2.42,0,0,0-1-3.32C243.92,41,241.53,39.19,238.51,37Z"/><path class="cls-3" d="M107.46,37c2.88,0,5.76-.12,8.63,0,1.76.1,2.48-.56,2.93-2.18.79-2.84,1.8-5.62,2.92-9C123,29.2,124,32,124.76,34.77c.46,1.76,1.31,2.36,3.12,2.26,2.88-.15,5.77,0,9.11,0a49.14,49.14,0,0,1-7.22,5.47c-1.58,1.06-1.92,2.11-1.21,3.9,1,2.65,1.8,5.42,2.87,8.75-2.71-2-5-3.41-7-5.15-1.71-1.45-3-1.68-4.81-.1-2,1.78-4.35,3.23-7.09,5.21,1.1-3.49,1.88-6.42,3-9.24a2.2,2.2,0,0,0-1-3.07c-2.44-1.68-4.79-3.47-7.18-5.22Z"/><path class="cls-3" d="M64.88,54.82c-2.53-1.87-5.1-3.68-7.56-5.63a1.89,1.89,0,0,0-2.76,0c-2.49,1.9-5.07,3.68-8.08,5.84,1-3.29,1.71-6.15,2.82-8.84.79-1.9.19-2.79-1.31-3.79-2.37-1.58-4.62-3.35-7.49-5.45,3.73,0,6.76-.06,9.78,0,1.44,0,2.21-.32,2.63-1.85.8-2.94,1.87-5.81,3-9.22,1,3,2.09,5.61,2.7,8.29.54,2.35,1.73,3,4,2.8a34.87,34.87,0,0,1,8.13.39C68.32,39.19,66,41,63.51,42.67c-1.3.87-1.56,1.63-1.11,3.23.83,3,2.58,5.67,2.42,8.89Z"/><path class="cls-3" d="M169.79,65.71c-2.43,1.77-4.84,3.59-7.31,5.31-1.14.8-1.68,1.47-1.07,3,1.11,2.82,1.87,5.77,3,9.3-2.94-2.1-5.43-3.71-7.71-5.58-1.37-1.12-2.27-1-3.57.06-2.31,1.85-4.77,3.5-7.73,5.63,1.19-3.58,2.14-6.54,3.15-9.48a2.09,2.09,0,0,0-.95-2.85c-2.58-1.7-5-3.61-8.14-5.88,3.72,0,6.68-.14,9.61,0,1.9.12,2.6-.65,3.05-2.33.75-2.77,1.73-5.47,2.79-8.78,1.17,3.49,2.24,6.43,3.1,9.42a1.94,1.94,0,0,0,2.27,1.67c3.11-.07,6.22,0,9.34,0Z"/><path class="cls-3" d="M206.34,65.25c3.05,0,6.11-.06,9.16,0a2,2,0,0,0,2.41-1.81c.81-2.93,1.89-5.78,3.07-9.29,1.11,3.47,2.08,6.3,2.9,9.17a2.22,2.22,0,0,0,2.59,1.94c3-.13,6.1,0,9.95,0-3.05,2.24-5.46,4.16-8,5.82a2.19,2.19,0,0,0-1,3.05c1,2.86,1.93,5.75,3.12,9.34-3.08-2.22-5.63-4-8.06-5.85a2,2,0,0,0-3,0c-2.41,1.88-4.94,3.6-8.08,5.86,1.07-3.25,1.82-5.82,2.78-8.31.79-2.05.6-3.41-1.52-4.63a69.8,69.8,0,0,1-6.57-4.77Z"/><path class="cls-3" d="M196.66,54.52c-2.45-1.76-4.93-3.47-7.32-5.31a1.94,1.94,0,0,0-2.8,0c-2.39,1.84-4.87,3.55-7.74,5.61A50.11,50.11,0,0,1,181.43,46c.53-1.44.41-2.33-1-3.24-2.51-1.65-4.87-3.53-7.91-5.77,3.73,0,6.69-.09,9.64,0,1.58.06,2.38-.41,2.81-2,.78-2.84,1.77-5.62,2.92-9.21,1.14,3.46,2.16,6.18,2.9,9,.47,1.79,1.35,2.32,3.13,2.23,2.86-.15,5.74,0,9.39,0-3,2.24-5.41,4.12-7.92,5.77-1.39.91-1.49,1.81-1,3.25,1,2.69,1.79,5.44,2.67,8.16Z"/><path class="cls-3" d="M362.42,83.41c-3.1-2.26-5.57-3.93-7.89-5.79a2.19,2.19,0,0,0-3.19,0c-2.41,1.85-4.9,3.6-7.88,5.78,1.15-3.58,2.06-6.56,3.08-9.49a2,2,0,0,0-.86-2.69,54.54,54.54,0,0,1-7.42-6c2.6,0,5.21-.17,7.78,0s3.78-.43,4.31-3a79.14,79.14,0,0,1,2.58-8.08c1.14,3.43,2.2,6.33,3.05,9.29a2.08,2.08,0,0,0,2.43,1.8c3-.1,6.1,0,9.62,0A47.58,47.58,0,0,1,361,70.62c-1.61,1.06-2.18,2.1-1.38,4.05C360.68,77.32,361.38,80.11,362.42,83.41Z"/><path class="cls-3" d="M13.46,83.41c1.08-3.46,1.82-6.33,2.9-9.07.67-1.69.2-2.55-1.15-3.47a47.56,47.56,0,0,1-7-5.63c3.1,0,6.21-.05,9.31,0a2,2,0,0,0,2.28-1.65c.87-3,1.93-5.94,3.1-9.46,1.11,3.41,2.13,6.25,2.93,9.14.44,1.59,1.25,2,2.82,2a49.28,49.28,0,0,1,9.08.42c-2.48,1.83-4.91,3.71-7.45,5.45a2.11,2.11,0,0,0-1,2.88c1,2.86,1.9,5.77,3.06,9.36-2.82-2-5.22-3.54-7.35-5.36-1.66-1.42-2.84-1.22-4.4.07C18.56,79.84,16.28,81.35,13.46,83.41Z"/><path class="cls-3" d="M296.4,83.38c-3.11-2.25-5.67-4-8.13-5.92a1.73,1.73,0,0,0-2.54,0c-2.55,2-5.21,3.77-8.26,6,1.09-3.38,2-6.29,3-9.14.5-1.42.47-2.29-1-3.21a39.94,39.94,0,0,1-7.13-5.78c3.11,0,6.22-.07,9.33,0a1.94,1.94,0,0,0,2.25-1.65c.88-2.92,1.88-5.81,2.92-9a23,23,0,0,1,2.57,7.17c.64,2.68,1.79,3.89,4.72,3.52a26.32,26.32,0,0,1,7.71.4c-2.26,1.65-4.43,3.44-6.8,4.92-1.78,1.11-2.19,2.2-1.37,4.19C294.69,77.37,295.36,80.09,296.4,83.38Z"/><path class="cls-3" d="M74.38,65.25c2.8,0,5.62-.11,8.41,0,1.85.1,2.83-.36,3.31-2.32.67-2.76,1.72-5.43,2.82-8.8,1.19,3.61,2.2,6.53,3.09,9.48a1.94,1.94,0,0,0,2.26,1.63,51.69,51.69,0,0,1,9.47.45c-2.29,1.69-4.47,3.56-6.9,5-1.84,1.1-1.92,2.18-1.22,4,1,2.66,1.76,5.43,2.77,8.64-3-2.17-5.69-4-8.24-5.94a1.73,1.73,0,0,0-2.54,0c-2.47,1.9-5,3.67-8.13,5.92,1.14-3.61,2-6.61,3.06-9.52a1.91,1.91,0,0,0-.84-2.65c-2.56-1.77-5.05-3.63-7.57-5.46Z"/><path class="cls-3" d="M112.42,111.73c1.11-3.44,1.91-6.27,2.94-9,.6-1.58.39-2.51-1.08-3.47a43.68,43.68,0,0,1-7.06-5.72c3.08,0,6.17-.06,9.24,0a2,2,0,0,0,2.41-1.78c.83-3,1.95-5.93,3.08-9.28,1,3.17,2.06,5.87,2.74,8.65.5,2,1.53,2.55,3.49,2.42,2.79-.18,5.61,0,8.81,0a42.53,42.53,0,0,1-7,5.36c-1.66,1.12-2.23,2.17-1.39,4.18,1.08,2.56,1.74,5.3,2.79,8.6-2.87-2.07-5.33-3.72-7.65-5.57-1.28-1-2.2-1.21-3.57-.08C117.9,107.91,115.42,109.55,112.42,111.73Z"/><path class="cls-3" d="M244.45,111.73c1.12-3.49,2-6.48,3.06-9.41a2,2,0,0,0-.89-2.84c-2.57-1.74-5-3.65-8.16-5.95,3.84,0,6.93-.08,10,0a2.06,2.06,0,0,0,2.43-1.77c.86-3,1.9-5.9,3-9.27,1.12,3.3,2.26,6.14,3,9.08.43,1.7,1.23,2,2.76,2a51.8,51.8,0,0,1,9.11.42c-2.4,1.78-4.76,3.61-7.22,5.3-1.26.86-1.75,1.62-1.12,3.23,1.09,2.74,1.85,5.61,3,9.18-3-2.18-5.48-3.84-7.8-5.69-1.24-1-2.1-1.06-3.38,0C249.92,107.9,247.38,109.6,244.45,111.73Z"/><path class="cls-3" d="M202.76,94c-2.51,1.84-5,3.73-7.55,5.49a1.91,1.91,0,0,0-.86,2.64c1.07,2.93,1.94,5.94,3.1,9.53-2.6-1.87-4.89-3.26-6.86-5s-3.26-1.84-5.2-.07a81,81,0,0,1-7,5.11c1.12-3.47,2-6.46,3.07-9.39a2.05,2.05,0,0,0-.88-2.86,48.08,48.08,0,0,1-7.31-5.94c3.11,0,6.23-.08,9.34,0a1.9,1.9,0,0,0,2.22-1.65c.88-2.92,1.87-5.81,3-9.39,1.11,3.28,2.21,6,2.9,8.74.48,1.94,1.4,2.4,3.25,2.29,2.8-.17,5.62,0,8.44,0Z"/><path class="cls-3" d="M46.88,110.69c.88-2.84,1.71-5.69,2.66-8.5a1.91,1.91,0,0,0-.85-2.64,55.44,55.44,0,0,1-7.56-6c2.9,0,5.8-.13,8.69,0,1.88.11,2.8-.45,3.28-2.33.71-2.79,1.71-5.51,2.68-8.51a40.69,40.69,0,0,1,2.78,8.07c.57,2,1.42,3,3.74,2.78,2.7-.26,5.44-.06,8.63-.06a28.43,28.43,0,0,1-6.22,4.81c-2.36,1.4-3.15,2.9-1.86,5.58,1.06,2.2,1.54,4.67,2.51,7.74-3-2.18-5.58-3.87-7.95-5.78a2,2,0,0,0-3,0c-2.4,1.73-4.63,3.74-7.29,5.11Z"/><path class="cls-3" d="M328.72,111c-2.66-1.37-4.88-3.37-7.29-5.11a2,2,0,0,0-3,0c-2.37,1.92-4.91,3.62-8,5.83,1-3.24,1.73-5.94,2.77-8.49.8-2,.49-3.14-1.32-4.28a36.34,36.34,0,0,1-6.65-5.4c2.68,0,5.37-.2,8,.06,2.48.24,3.51-.73,4.06-3,.61-2.55,1.57-5,2.57-8.13,1.07,3.25,2.13,5.86,2.77,8.57.5,2.12,1.53,2.7,3.58,2.57,2.78-.18,5.58,0,9.15,0-3.14,2.3-5.64,4.25-8.27,6a1.91,1.91,0,0,0-.84,2.64c1,2.81,1.78,5.66,2.66,8.5Z"/><path class="cls-3" d="M211.57,139.14c1-3,2.06-6.09,3.13-9.11.41-1.15-.25-1.63-1-2.19-2.54-1.81-5-3.67-8.15-5.93,3.76,0,6.86-.07,10,0a2.07,2.07,0,0,0,2.43-1.79c.86-3,1.91-5.94,3-9.39,1.15,3.5,2.2,6.44,3.07,9.43a2.06,2.06,0,0,0,2.45,1.75c3.05-.11,6.11,0,9.88,0-2.92,2.13-5.26,4-7.78,5.62-1.52,1-1.62,1.89-1,3.44,1,2.77,1.83,5.63,2.9,9-3-2.17-5.63-4-8.17-5.89a1.75,1.75,0,0,0-2.56,0c-1.93,1.55-4,3-6,4.36-.59.39-1.09,1.42-2.1.72Z"/><path class="cls-3" d="M164.33,139.13c-1.68.46-2.41-1.06-3.51-1.75-2-1.26-4-3.76-5.91-3.76S151,136,149,137.42c-1,.71-2,1.47-3.55,2.61,1.11-3.5,2-6.43,3-9.31.48-1.35.39-2.19-.94-3-2.55-1.66-4.95-3.56-8-5.78,3.73,0,6.82-.08,9.91,0a2.07,2.07,0,0,0,2.45-1.76c.87-3,1.91-5.93,3.06-9.43,1.14,3.46,2.19,6.4,3,9.4a2.07,2.07,0,0,0,2.43,1.78c3.05-.11,6.12,0,9.91,0-2.9,2.13-5.24,4-7.73,5.61-1.45.95-1.76,1.85-1.11,3.46,1.07,2.67,1.89,5.44,2.82,8.17Z"/><path class="cls-3" d="M8.35,121.9c3,0,6-.06,8.94,0,1.44,0,2.19-.29,2.6-1.85.78-2.94,1.87-5.8,3-9.2,1.17,3.45,2.28,6.4,3.14,9.41a1.9,1.9,0,0,0,2.26,1.63c3.11-.07,6.21,0,10,0-2.9,2.15-5.19,4-7.64,5.6-1.42.93-1.81,1.78-1.18,3.42,1.05,2.76,1.84,5.62,3,9.09-2.88-2.08-5.33-3.67-7.55-5.53-1.53-1.29-2.58-1.08-4,.09-2.16,1.77-4.51,3.33-7.43,5.44,1.11-3.45,1.86-6.27,2.92-9,.68-1.74.22-2.69-1.23-3.65-2.38-1.59-4.65-3.35-7-5Z"/><path class="cls-3" d="M352.94,110.79c1.17,3.51,2.26,6.52,3.14,9.6a1.77,1.77,0,0,0,2.07,1.54c3.13-.06,6.26,0,9.83,0a57.46,57.46,0,0,1-7.47,5.69,2.37,2.37,0,0,0-1,3.28c1.06,2.75,1.84,5.6,3,9.11-3.1-2.23-5.66-4-8.1-5.88a1.9,1.9,0,0,0-2.78,0c-2.48,1.92-5.06,3.71-8.11,5.91,1.09-3.42,1.92-6.33,3-9.15a2.29,2.29,0,0,0-1.06-3.25c-2.48-1.62-4.81-3.48-7.83-5.71,3.57,0,6.47-.14,9.36,0,2,.13,2.77-.64,3.26-2.41C350.93,116.77,351.9,114,352.94,110.79Z"/><path class="cls-3" d="M97.82,139.3c-2.63-1.25-4.79-3.2-7.09-4.92-1.32-1-2.25-1.13-3.62,0-2.25,1.87-4.72,3.47-7.71,5.63,1.15-3.53,2-6.35,3-9.11a2.5,2.5,0,0,0-1.18-3.44,45.33,45.33,0,0,1-7-5.57c3.05,0,6.11-.08,9.16,0a2,2,0,0,0,2.43-1.73c.84-2.91,1.86-5.78,3-9.11a53.3,53.3,0,0,1,3.05,8.85,2.31,2.31,0,0,0,2.76,2,48,48,0,0,1,9.1.41c-2.48,1.81-4.91,3.69-7.47,5.39a2,2,0,0,0-.94,2.83c1,2.79,1.83,5.65,2.72,8.48Z"/><path class="cls-3" d="M277.83,139.06c.92-2.91,1.75-5.85,2.79-8.72a1.77,1.77,0,0,0-.8-2.45,60.75,60.75,0,0,1-7.56-6c3.08,0,6.17-.08,9.24,0a2.06,2.06,0,0,0,2.44-1.76c.84-2.91,1.82-5.78,3-9.43,1.2,3.63,2.24,6.52,3.09,9.46a2,2,0,0,0,2.43,1.72c3-.12,6.06,0,9.9,0-3,2.16-5.28,4-7.72,5.57a2.5,2.5,0,0,0-1.18,3.44c1,2.76,1.86,5.58,3,9.11-3-2.16-5.46-3.76-7.71-5.63-1.37-1.14-2.29-1-3.62,0-2.3,1.72-4.45,3.67-7.09,4.92Z"/><path class="cls-3" d="M65,167.6c-2.85-1-4.93-3.15-7.26-4.89-1.52-1.13-2.47-1-3.83.09-2.29,1.83-4.72,3.48-7.53,5.52,1.1-3.41,1.94-6.33,3-9.18a2.32,2.32,0,0,0-1-3.25c-2.49-1.63-4.83-3.47-7.85-5.66,3.38,0,6.13-.15,8.85,0,2.15.15,3.28-.39,3.8-2.66.62-2.72,1.69-5.34,2.73-8.52,1.13,3.41,2.21,6.38,3.09,9.41a2,2,0,0,0,2.42,1.75c3-.11,6.09,0,9.88,0-3,2.21-5.45,4.08-8,5.82-1.14.78-1.33,1.48-.93,2.86.86,2.92,2.22,5.68,2.62,8.73Z"/><path class="cls-3" d="M310.88,167.64c.42-3.13,1.85-6,2.69-9a1.87,1.87,0,0,0-.8-2.46c-2.56-1.8-5.06-3.69-8.2-6,3.75,0,6.83-.08,9.91,0a2,2,0,0,0,2.41-1.76c.86-3,1.92-5.94,3.07-9.41,1,3.16,2.13,5.79,2.75,8.52.52,2.26,1.63,2.83,3.79,2.67,2.7-.2,5.42,0,8.83,0-2.94,2.15-5.3,4-7.81,5.66a2.32,2.32,0,0,0-1,3.25c1,2.85,1.89,5.77,3,9.18-2.81-2-5.25-3.68-7.53-5.51-1.36-1.09-2.31-1.22-3.83-.09-2.33,1.74-4.41,3.91-7.26,4.89Z"/><path class="cls-3" d="M263.24,167.44c-2.06.19-3.08-1.58-4.47-2.53-4.9-3.33-4.85-3.42-9.61,0-1.41,1-2.78,2.07-4.73,3.52a75.71,75.71,0,0,1,2.54-7.67c1.23-2.7.64-4.38-1.9-5.84-2.11-1.21-4-2.83-6.52-4.67,3.62,0,6.57-.14,9.5,0,1.87.12,2.6-.6,3.05-2.3.77-2.84,1.76-5.61,2.83-8.92,1.14,3.47,2.2,6.41,3.07,9.41.39,1.33,1,1.86,2.4,1.8,3.06-.12,6.13,0,9.87,0-2.91,2.16-5.31,4.07-7.86,5.77a2.12,2.12,0,0,0-1,3c1.06,2.77,1.89,5.63,2.81,8.46Z"/><path class="cls-3" d="M112.62,167.48c1-2.9,1.86-5.82,2.91-8.69a1.9,1.9,0,0,0-.87-2.65c-2.58-1.74-5-3.66-8.12-5.91,3.66,0,6.68-.1,9.69,0,1.63.07,2.31-.48,2.73-2,.8-2.93,1.86-5.79,3-9.17,1.07,3.31,2.06,6.09,2.83,8.92.46,1.7,1.19,2.42,3.06,2.3,2.89-.19,5.8,0,9.1,0-2.32,2.38-4.92,3.86-7.31,5.58-1.41,1-1.71,1.94-1.14,3.5,1,2.78,1.87,5.61,3,9-3-2.16-5.56-3.88-8-5.8a2.12,2.12,0,0,0-3.2,0c-1.91,1.58-4,3-6,4.39-.46.32-.87,1.17-1.66.48Z"/><path class="cls-3" d="M13.58,195.85c1-3,1.93-6,3-8.92a1.82,1.82,0,0,0-.89-2.45c-2.55-1.78-5-3.67-8.11-5.94,3.76,0,6.86-.05,10,0a1.92,1.92,0,0,0,2.27-1.63c.86-3,1.92-6,3.11-9.56,1.16,3.52,2.21,6.45,3.06,9.44a2.06,2.06,0,0,0,2.44,1.76c3.06-.1,6.12,0,9.83,0-2.86,2.1-5.18,4-7.69,5.59-1.52,1-1.64,1.88-1.06,3.45,1,2.77,1.82,5.62,2.89,9-2.69-2-5-3.46-7.1-5.22-1.65-1.38-2.91-1.63-4.63,0a48.35,48.35,0,0,1-5.6,4.09c-.39.27-.78,1-1.45.38Z"/><path class="cls-3" d="M362.28,195.81c-2.18,0-3.31-1.83-4.84-2.89-4.51-3.11-4.46-3.17-8.8,0-1.53,1.12-3.09,2.21-5.12,3.66,1.08-3.4,1.92-6.34,3-9.22.5-1.39.36-2.2-1-3.06-2.54-1.66-4.93-3.54-7.94-5.74,3.71,0,6.8-.07,9.89,0a2.06,2.06,0,0,0,2.44-1.76c.85-3,1.9-6,3-9.45,1.16,3.52,2.25,6.52,3.13,9.58a1.93,1.93,0,0,0,2.27,1.63c3.06-.08,6.12,0,9.58,0-2.35,2.39-5,3.9-7.36,5.61-1.45,1-1.63,1.92-1,3.49,1,2.69,1.84,5.47,2.74,8.22Z"/><path class="cls-3" d="M172.55,150.23c3.84,0,6.89-.09,9.94,0a2,2,0,0,0,2.43-1.75,50.59,50.59,0,0,1,3.27-8.7c.92,2.84,1.9,5.66,2.74,8.53.4,1.36,1,2,2.54,1.93,3-.15,6.08,0,9.82,0a88,88,0,0,1-7.18,5.23c-2.12,1.24-2.16,2.52-1.37,4.6A29.36,29.36,0,0,1,197,168c-2.57-1.85-4.93-3.37-7.07-5.16-1.52-1.27-2.57-1.14-4,.06-2.13,1.76-4.47,3.27-7.1,5.16a55.35,55.35,0,0,1,2.76-9.21,1.93,1.93,0,0,0-.84-2.64C178.14,154.4,175.66,152.51,172.55,150.23Z"/><path class="cls-3" d="M230.51,196.67c-3-2.14-5.4-3.72-7.61-5.56-1.52-1.27-2.63-1.05-4,.07-2.18,1.74-4.49,3.32-7.35,5.41,1.13-3.64,2-6.63,3-9.53a1.9,1.9,0,0,0-.86-2.65c-2.56-1.76-5-3.63-8.09-5.86,3.51,0,6.37-.12,9.22,0,1.85.1,2.8-.36,3.28-2.31.71-2.86,1.82-5.61,2.89-8.82,1.17,3.5,2.27,6.51,3.15,9.58a1.78,1.78,0,0,0,2.08,1.53c3.14-.06,6.28,0,10.08,0a69.56,69.56,0,0,1-6.94,5c-2.37,1.31-2.42,2.82-1.55,5C228.74,191,229.46,193.52,230.51,196.67Z"/><path class="cls-3" d="M139.52,178.54c3.68,0,6.65-.14,9.6.05,1.8.12,2.46-.63,2.91-2.18.82-2.85,1.79-5.66,2.87-9,1.14,3.4,2.24,6.31,3.08,9.29a2.16,2.16,0,0,0,2.59,1.87c3-.11,6.05,0,9.75,0-3,2.17-5.38,4-7.86,5.68-1.18.81-1.62,1.52-1,3,1.08,2.81,1.85,5.74,3,9.29-3-2.18-5.53-3.9-7.93-5.74a2,2,0,0,0-3,0c-2.43,1.93-5,3.65-8.06,5.81,1.17-3.52,2.11-6.49,3.15-9.42a2.1,2.1,0,0,0-.94-2.87C145.06,182.64,142.63,180.79,139.52,178.54Z"/><path class="cls-3" d="M278.09,196.14c0-3.09,1.47-5.78,2.36-8.61.51-1.62.29-2.49-1.13-3.42-2.46-1.6-4.78-3.4-7.76-5.56,3.73,0,6.75-.08,9.76,0,1.46.05,2.21-.34,2.62-1.82.81-2.91,1.83-5.76,3-9.41,1.17,3.63,2.18,6.54,3,9.5a2,2,0,0,0,2.41,1.75c3.05-.14,6.12,0,9.89,0-3,2.17-5.38,4-7.9,5.75a2.16,2.16,0,0,0-1,3,42,42,0,0,1,2.37,8.76c-2.42-1.73-4.93-3.36-7.23-5.24-1.26-1-2.09-.83-3.23,0-2.37,1.78-4.82,3.47-7.24,5.2Z"/><path class="cls-3" d="M80.13,196.15c-.31-2.89,1.09-5.41,2.09-7.91.93-2.3.24-3.41-1.56-4.58-2.25-1.47-4.37-3.12-7.13-5.12,3.71,0,6.73-.1,9.74,0,1.62.08,2.29-.47,2.7-2,.76-2.84,1.78-5.62,2.93-9.17l2.35,7c1.38,4.14,1.38,4.14,5.83,4.14h7.16c-2.67,2-4.75,3.74-7.07,5.14-2,1.2-2.24,2.36-1.5,4.55.86,2.56,2.35,5,2.12,7.9l0-.06c-2.46-1.77-5-3.49-7.38-5.31a2.08,2.08,0,0,0-3,0c-2.37,1.89-4.89,3.59-7.35,5.37Z"/><path class="cls-3" d="M170.31,8.75c-3.09,2.25-5.5,4.1-8,5.8a2,2,0,0,0-.91,2.86c1,2.84,1.86,5.77,3,9.35-3-2.12-5.41-3.74-7.69-5.58-1.37-1.11-2.28-1-3.6.07-2.29,1.86-4.77,3.49-7.64,5.55,1.12-3.48,2-6.47,3-9.39a2.12,2.12,0,0,0-.93-2.89,52,52,0,0,1-7.21-5.77c3,0,6-.07,9.06,0A2.11,2.11,0,0,0,151.86,7c.88-3,1.93-5.93,3.07-9.41,1.13,3.41,2.19,6.35,3,9.34a2.19,2.19,0,0,0,2.62,1.86C163.57,8.67,166.55,8.75,170.31,8.75Z"/><path class="cls-3" d="M353-2.43c1,3.16,2,5.7,2.67,8.33.54,2.19,1.47,3.15,3.89,2.91,2.66-.27,5.37-.06,8.79-.06-3,2.17-5.33,4-7.76,5.6-1.29.87-1.7,1.72-1.1,3.28,1.06,2.75,1.86,5.6,3,9.18-3-2.2-5.51-3.89-7.85-5.73a2.21,2.21,0,0,0-3.22-.05c-2.4,1.88-4.92,3.59-8,5.8,1.12-3.45,1.92-6.27,3-9a2.48,2.48,0,0,0-1.12-3.49,44.12,44.12,0,0,1-6.9-5.58c3,0,6-.09,9,0a2.18,2.18,0,0,0,2.58-1.92C350.77,3.94,351.81,1.06,353-2.43Z"/><path class="cls-3" d="M211.74,26c.92-2.9,1.75-5.83,2.8-8.69a1.91,1.91,0,0,0-.87-2.65c-2.52-1.72-5-3.58-8.11-5.86,3.66,0,6.65-.09,9.63,0a2.3,2.3,0,0,0,2.77-2c.79-2.93,1.86-5.79,3-9.18,1.17,3.52,2.24,6.5,3.14,9.53a2,2,0,0,0,2.3,1.65c3-.08,6.08,0,9.9,0-2.81,2.06-5,3.78-7.27,5.28-1.6,1-2.24,2-1.41,4,1.1,2.64,1.77,5.45,2.81,8.77-3-2.18-5.63-4-8.15-5.92a1.8,1.8,0,0,0-2.59,0c-2.49,1.89-5.06,3.69-7.6,5.52Z"/><path class="cls-3" d="M31.78,26.37c-2.47-1.79-5-3.52-7.39-5.39a2.08,2.08,0,0,0-3,0c-2.4,1.87-4.91,3.61-8,5.84,1.12-3.46,1.92-6.3,3-9a2.47,2.47,0,0,0-1.12-3.49c-2.42-1.57-4.69-3.36-7.71-5.55,3.69,0,6.67-.08,9.65,0,1.6.06,2.31-.43,2.73-2,.78-2.94,1.88-5.79,3-9.18C24,.87,25,3.66,25.76,6.5c.47,1.65,1.2,2.43,3.09,2.3a38.84,38.84,0,0,1,8.75.42c-2.15,1.59-4.21,3.34-6.49,4.71-2.09,1.25-2.26,2.62-1.41,4.69,1,2.42,1.69,5,2.52,7.45Z"/><path class="cls-3" d="M97.73,26.55c-2.64-2-5.29-3.95-7.9-6-1-.78-1.66-.11-2.4.42Q83.71,23.69,80,26.36l0,.06c-.3-2.57,1.18-4.67,1.87-7,1.14-3.82,1.21-3.78-2-6.06C78,12,76.16,10.65,74.3,9.27c0,0,0-.14,0-.52,3,0,6-.1,9.06,0a2.24,2.24,0,0,0,2.6-1.92c.86-2.9,1.85-5.76,3-9.36C90.09,1.13,91.08,4,91.95,7a2.09,2.09,0,0,0,2.44,1.79c3-.13,6.08,0,9.87,0-2.88,2.12-5.06,4-7.48,5.42-1.84,1.11-1.94,2.21-1.18,4a58.16,58.16,0,0,1,2,6.11c.22.73.83,1.5.12,2.3Z"/><path class="cls-3" d="M295.89,26.36c-2.42-1.73-4.89-3.39-7.24-5.22-1.14-.89-2-1.16-3.22-.13-2.35,1.94-4.85,3.69-7.29,5.53v0c-.54-2.59,1-4.71,1.67-7,1.12-3.85,1.24-3.83-2-6.23a45.81,45.81,0,0,1-5.57-4.6c3,0,6-.1,9,0a2.33,2.33,0,0,0,2.76-2,47.6,47.6,0,0,1,3.17-8.44C288.11,1.16,289.1,4,290,6.87a2.24,2.24,0,0,0,2.61,1.92c3-.13,6,0,9.74,0-3.12,2.28-5.61,4.15-8.17,5.92-.94.65-1.32,1.17-.83,2.4.91,2.3,1.57,4.7,2.29,7.08.22.73.91,1.43.27,2.27Z"/><path class="cls-3" d="M80,26.36l-.36.09.08-.19.31.16Z"/><path class="cls-3" d="M47.16,111c-.07.2-.14.45-.4.26-.06,0,.08-.35.13-.54Z"/><path class="cls-3" d="M329,110.69c0,.19.18.5.13.54-.26.18-.34-.06-.4-.27Z"/><path class="cls-3" d="M98,139.06c.21.19.31.38,0,.6l-.27-.36Z"/><path class="cls-3" d="M164.3,139.15l-.18.33c-.26-.3,0-.28.2-.34Z"/><path class="cls-3" d="M211.55,139.13c.11.07.32.16.31.2-.06.22-.12.21-.15,0,0-.06-.08-.11-.13-.16Z"/><path class="cls-3" d="M65,167.64a.82.82,0,0,1,.21.09s0,.1,0,.15L65,167.6Z"/><polygon class="cls-3" points="112.64 167.44 112.69 167.58 112.62 167.48 112.64 167.44"/><path class="cls-3" d="M263.25,167.49v0Z"/><path class="cls-3" d="M310.83,167.6l-.14.27c0-.05,0-.13,0-.15a.84.84,0,0,1,.21-.08Z"/><path class="cls-3" d="M97.73,26.58,98,26.2c.33.42-.2.2-.25.34A.29.29,0,0,0,97.73,26.58Z"/><polygon class="cls-3" points="311 54.81 310.96 54.77 311.05 54.79 311 54.81"/><polygon class="cls-3" points="64.82 54.79 64.92 54.75 64.88 54.82 64.82 54.79"/><polygon class="cls-3" points="13.6 195.81 13.65 195.94 13.58 195.85 13.6 195.81"/><polygon class="cls-3" points="80.08 196.16 79.97 196.08 80.13 196.15 80.08 196.16"/><path class="cls-3" d="M97.78,196.14l.3-.18.09.18-.36-.08Z"/><path class="cls-3" d="M278.06,196.07l-.36.08.08-.19.31.16Z"/><polygon class="cls-3" points="362.29 195.85 362.21 195.97 362.28 195.81 362.29 195.85"/><path class="cls-3" d="M295.87,26.43l.3-.18.09.18-.36-.08Z"/><path class="cls-3" d="M278.14,26.54l-.43-.19c.34-.32.36,0,.43.22C278.14,26.58,278.14,26.54,278.14,26.54Z"/><path class="cls-3" d="M278.06,139.3l-.27.36c-.26-.22-.17-.42,0-.6Z"/></g><polygon class="cls-6" points="6.87 194.59 6.87 166.93 28.06 166.93 28.06 58.53 6.87 58.53 6.87 30.87 88.99 30.87 124.91 126.77 161.05 30.87 244.74 30.87 244.74 58.53 223.56 58.53 223.56 166.93 244.74 166.93 244.74 194.59 162.35 194.59 162.35 166.93 182.13 166.93 182.13 58.53 178.24 58.53 127.51 194.59 109.86 194.59 58.54 58.53 54.66 58.53 54.66 166.93 76.08 166.93 76.08 194.59 6.87 194.59"/><path class="cls-6" d="M382.54,168.34v26.25H327.81v-9q-14.71,10.65-31.07,10.65-16.95,0-29.25-9.65t-12.3-25.89q0-16.36,12.95-27.42t33.43-11.06q11.42,0,26.25,5.77V121a18.86,18.86,0,0,0-5.88-14.3q-5.88-5.59-15.77-5.59a28.19,28.19,0,0,0-21,8.95l-29.31-5.3q12.71-27,55.2-27,16.48,0,27.31,3.71t16.12,9.59A34.45,34.45,0,0,1,362,104q2.18,7,2.18,22.77v41.55Z"/><path class="cls-6" d="M327.81,152.45q-13.18-8.24-21.07-8.24a19.13,19.13,0,0,0-11.36,3.65q-5.12,3.65-5.12,10.59a15.26,15.26,0,0,0,4.12,10.71A13.75,13.75,0,0,0,305,173.64q10.12,0,22.83-11.89Z"/><path class="cls-6" d="M526.35,168.34v26.25H471.26V181q-15.18,15.21-33,15.21-21.3,0-35.31-17.3T389,137q0-25,14.36-42.08t35.07-17.13q19.89,0,32.84,15.51V57.11H453.49V30.87h54.14V168.34Z"/><path class="cls-6" d="M471.62,137.38q0-16.36-7-23.3t-15.95-6.94q-10.71,0-16.54,8.3t-5.83,21.83q0,12.83,5.77,21.6t16.71,8.77q9.06,0,15.95-7.12T471.62,137.38Z"/><path class="cls-6" d="M625,160.22l28.25,9.06q-17.77,27.89-55.55,27.89-30.13,0-47-15.89T533.74,139.5q0-26.36,17.42-44t44.37-17.65q19.54,0,33.78,9.89t19.77,24.6a92.7,92.7,0,0,1,5.53,32.84H569.75q.82,15.54,9.83,22a32,32,0,0,0,19,6.47Q611.66,173.64,625,160.22Z"/><path class="cls-6" d="M618,124.91a28.93,28.93,0,0,0-7.46-16.24q-6.19-6.71-16.9-6.71-20,0-23.3,23Z"/><path class="cls-6" d="M77,264.57v-36H178.69v36h-21v96.29q0,19.29,1.61,27.79a22.89,22.89,0,0,0,8.5,14q6.89,5.51,17.45,5.51,10.87,0,18.06-5.21a23.12,23.12,0,0,0,9.26-13q2.07-7.81,2.07-31.84V264.57H194v-36h84.81v36h-26V371.12q0,21.74-2.3,31.61t-10.56,19.6q-8.27,9.72-24,15.77t-36.05,6q-23.58,0-40.19-6.66T115,419.8q-8.11-11-10.41-21.89t-2.3-37V264.57Z"/><path class="cls-6" d="M290.57,441.54V369H326.7q.61,19.9,10.41,29.32t22.35,9.42A22.35,22.35,0,0,0,376,400.9a22,22,0,0,0,6.74-16,22.49,22.49,0,0,0-6.58-16.46q-6.58-6.66-24.06-15.17-37-17.78-50.15-31.43T288.74,285q0-27.91,17.45-43.24t39.65-15.33q25.41,0,39.34,19.83V228.59h36v64.76h-36q-1.68-15-10.33-23.19A28.37,28.37,0,0,0,354.72,262a23.75,23.75,0,0,0-15,4.75,15,15,0,0,0-6.12,12.4q0,6.58,5.05,12.48t29.57,16.71q23.6,10.51,36.21,19a61.49,61.49,0,0,1,20,22.07q7.34,13.56,7.34,31.33,0,31.57-18.37,47.5t-43.48,15.93q-28,0-43.17-20.74v18.14Z"/><polygon class="cls-6" points="653.52 405.56 653.52 441.54 548.81 441.54 548.81 405.56 576.06 405.56 565.95 368.98 510.69 368.98 499.36 405.56 527.83 405.56 527.83 441.54 433.53 441.54 433.53 405.56 459.86 405.56 501.35 264.57 473.03 264.57 473.03 228.59 612.03 228.59 612.03 264.57 583.41 264.57 628.11 405.56 653.52 405.56"/><polygon class="cls-6" points="557.23 337.75 539.47 273.6 520.33 337.75 557.23 337.75"/><polygon class="cls-7" points="29.06 442.88 20.13 442.88 20.13 424.62 49.96 424.62 49.96 418.85 58.9 418.85 58.9 442.88 49.96 442.88 49.96 436.99 29.06 436.99 29.06 442.88"/><path class="cls-7" d="M9,437.43a6.56,6.56,0,0,1-4.79-2,6.76,6.76,0,0,1,0-9.59,6.59,6.59,0,0,1,4.79-2,6.49,6.49,0,0,1,4.77,2,6.74,6.74,0,0,1,0,9.55A6.48,6.48,0,0,1,9,437.43Z"/><path class="cls-7" d="M29.06,416.42H20.12v-18.3h3.6a18.83,18.83,0,0,1-4.21-11.37q0-11.74,15-11.74H50v-5.85h8.93v18.22H35.42q-3.16,0-4.33.86a3.28,3.28,0,0,0-1.16,2.82,12.31,12.31,0,0,0,2.52,7H50v-6h8.93v24.27H50v-5.93H29.06Z"/><path class="cls-7" d="M29.06,350.11H20.12v-4.93H14L5.15,332.8h15v-7.13h8.93v7.13H45.87a5.58,5.58,0,0,0,3.07-.58q.78-.58.78-2.66a11.34,11.34,0,0,0-.8-3.89h8.57a24.41,24.41,0,0,1,2,9.33q0,10.17-10.11,10.17H29.06Z"/><path class="cls-7" d="M58.89,323.24H50V317H12.11v6.25H3.18V304.65H23.25q-4.09-5.85-4.09-11,0-11.9,14.3-11.9H50v-5.69h8.93v18.06H34q-2.72,0-3.74,1a3.9,3.9,0,0,0-1,2.94q0,2.76,2.44,6.61H50v-5.53h8.93Z"/><path class="cls-7" d="M50.29,232.51l-3.05,9.64c3.05,2.93,4.52,6,4.52,8.91a10.88,10.88,0,0,1-2.2,6.47c-1.46,2.07-3.91,3.17-7.44,3.42V232a32.33,32.33,0,0,0-11.23,1.83,19.31,19.31,0,0,0-8.42,6.71,20.22,20.22,0,0,0-3.3,11.59c0,6.1,2,11.1,6,15a20.32,20.32,0,0,0,15,6c5.86,0,10.62-2,14.16-5.74s5.49-9.15,5.49-16C59.81,242.76,56.64,236.54,50.29,232.51ZM35.16,260.7c-5.13-.73-7.81-3.42-7.81-7.93A7.12,7.12,0,0,1,29.67,247a8.91,8.91,0,0,1,5.49-2.56Z"/></svg>