<svg xmlns="http://www.w3.org/2000/svg" viewBox="0 0 144 144"><defs><style>.cls-1,.cls-4,.cls-5,.cls-6{fill:#fff;}.cls-2{fill:#2130AD;}.cls-3{fill:none;}.cls-3,.cls-4,.cls-5,.cls-6{stroke:#2130AD;stroke-miterlimit:10;}.cls-3,.cls-5,.cls-6{stroke-width:3px;}.cls-4{stroke-width:6px;}.cls-5{stroke-linecap:round;}.cls-6{stroke-linecap:square;}</style></defs><title>design</title><g id="Design"><rect class="cls-1" x="56.75" y="-7.05" width="30.5" height="157.26" transform="translate(-29.53 71.88) rotate(-45)"/><path class="cls-2" d="M27.18,9.44l107,107-17.33,17.33-107-107L27.18,9.44m0-8.49L1.37,26.77,116.82,142.22l25.81-25.81L27.18,1Z"/><line class="cls-3" x1="32.11" y1="12.48" x2="28.57" y2="16.02"/><line class="cls-3" x1="39.18" y1="19.55" x2="32.11" y2="26.62"/><line class="cls-3" x1="46.25" y1="26.62" x2="42.72" y2="30.16"/><line class="cls-3" x1="53.32" y1="33.7" x2="46.25" y2="40.77"/><line class="cls-3" x1="60.39" y1="40.77" x2="56.86" y2="44.3"/><line class="cls-3" x1="67.47" y1="47.84" x2="60.39" y2="54.91"/><line class="cls-3" x1="74.54" y1="54.91" x2="71" y2="58.44"/><line class="cls-3" x1="81.61" y1="61.98" x2="74.54" y2="69.05"/><line class="cls-3" x1="88.68" y1="69.05" x2="85.14" y2="72.59"/><line class="cls-3" x1="95.75" y1="76.12" x2="88.68" y2="83.19"/><line class="cls-3" x1="102.82" y1="83.19" x2="99.29" y2="86.73"/><line class="cls-3" x1="109.89" y1="90.26" x2="102.82" y2="97.33"/><line class="cls-3" x1="116.96" y1="97.33" x2="113.43" y2="100.87"/><line class="cls-3" x1="124.03" y1="104.41" x2="116.96" y2="111.48"/><line class="cls-3" x1="131.1" y1="111.48" x2="127.57" y2="115.01"/><path class="cls-4" d="M33.1,125.45l-25,10.4,10.4-25L123.89,5.55c2.31-2.31,6.45-1.91,9.24.88l4.43,4.43c2.8,2.8,3.19,6.93.88,9.24Z"/><line class="cls-5" x1="120.5" y1="23.5" x2="28.66" y2="115.34"/><path class="cls-6" d="M131.42,23.56a19.78,19.78,0,0,1-6.68-4.74A19.78,19.78,0,0,1,120,12.15"/></g></svg>