<svg xmlns="http://www.w3.org/2000/svg" viewBox="0 0 144 144"><defs><style>.cls-1,.cls-3,.cls-5{fill:#fff;}.cls-1,.cls-4,.cls-5{stroke:#2130AD;stroke-linejoin:round;stroke-width:6px;}.cls-2{fill:#2130AD;}.cls-4{fill:none;}.cls-5{stroke-linecap:round;}</style></defs><title>inspection</title><g id="Inspection"><rect class="cls-1" x="14.37" y="12.54" width="96.57" height="116.71"/><path class="cls-1" d="M87.75,12.53v15.2H37.55V12.53H54.13a8.52,8.52,0,1,1,17,0Z"/><path class="cls-2" d="M133.41,142.28a8.14,8.14,0,0,1-5.54-2.08l-41.3-37.47c-2.47-2.24-2.52-6.32-.09-9.1a6.91,6.91,0,0,1,5.16-2.43,5.77,5.77,0,0,1,3.34,1l45.51,32.22a8.23,8.23,0,0,1,3.34,5.48,11,11,0,0,1-10.42,12.34Z"/><path class="cls-3" d="M91.64,94.2a2.79,2.79,0,0,1,1.61.49l45.5,32.22c2.67,1.89,2.94,6,.62,9.13a7.62,7.62,0,0,1-6,3.24,5.25,5.25,0,0,1-3.07-.95,5.12,5.12,0,0,1-.46-.37L88.58,100.51c-1.27-1.15-1.2-3.35.15-4.9a3.93,3.93,0,0,1,2.9-1.41m0-6h0a9.9,9.9,0,0,0-7.42,3.46c-3.49,4-3.34,10,.33,13.29l41.29,37.46a11.11,11.11,0,0,0,7.56,2.87,14,14,0,0,0,13.38-15.82,11.21,11.21,0,0,0-4.57-7.45L96.72,89.8a8.78,8.78,0,0,0-5.08-1.59Z"/><circle class="cls-4" cx="62.99" cy="75.18" r="36.16" transform="translate(-35.07 77.24) rotate(-51.24)"/><path class="cls-2" d="M77.89,56.61a38.71,38.71,0,0,0-8.68-2.78,29.27,29.27,0,0,0-16.92,1.86,39,39,0,0,0-7.87,4.59,17.65,17.65,0,0,1,6.36-7.35,21.14,21.14,0,0,1,19.31-2.11A17.7,17.7,0,0,1,77.89,56.61Z"/><polyline class="cls-5" points="44.42 78.36 59.01 92.95 84.2 67.76"/></g></svg>