<svg xmlns="http://www.w3.org/2000/svg" viewBox="0 0 144 144"><defs><style>.cls-1,.cls-2{fill:#fff;stroke:#2130AD;stroke-linejoin:round;}.cls-1{stroke-width:6px;}.cls-2{stroke-width:4px;}</style></defs><title>manufacture</title><g id="Manufacture"><path class="cls-1" d="M97.44,36.13l-3-7.21L81.07,31.41A35.71,35.71,0,0,0,70.71,21.26L73.18,8,66,5,58.26,16.25a35.61,35.61,0,0,0-14.5.15L36.13,5.29l-7.21,3,2.49,13.38A35.71,35.71,0,0,0,21.26,32L8,29.55,5,36.76l11.22,7.71A35.61,35.61,0,0,0,16.4,59L5.29,66.6l3,7.21,13.38-2.49A35.71,35.71,0,0,0,32,81.47L29.55,94.73l7.21,3,7.71-11.22A35.61,35.61,0,0,0,59,86.33L66.6,97.44l7.21-3L71.32,81.07A35.71,35.71,0,0,0,81.47,70.71l13.25,2.47,3-7.21L86.48,58.26a35.61,35.61,0,0,0-.15-14.5ZM51.37,73.39A21.33,21.33,0,1,1,72.7,52.05,21.34,21.34,0,0,1,51.37,73.39Z"/><path class="cls-2" d="M131,84.12l-3.78-3.78-7.81,5.08a24.45,24.45,0,0,0-9.22-3.71l-1.91-9h-5.34L101,81.81a24.38,24.38,0,0,0-9.13,3.89l-7.74-5-3.78,3.78,5.08,7.81a24.45,24.45,0,0,0-3.7,9.22l-9,1.91v5.34l9.12,1.94a24.38,24.38,0,0,0,3.89,9.13l-5,7.74,3.78,3.78,7.81-5.08a24.45,24.45,0,0,0,9.22,3.71l1.91,9h5.34l1.94-9.12a24.38,24.38,0,0,0,9.13-3.89l7.74,5,3.78-3.78-5.08-7.81a24.45,24.45,0,0,0,3.7-9.22l9-1.91v-5.34L129.85,101A24.38,24.38,0,0,0,126,91.86ZM111.6,119.76a14.61,14.61,0,1,1,7.91-19.08A14.61,14.61,0,0,1,111.6,119.76Z"/></g></svg>