<svg xmlns="http://www.w3.org/2000/svg" viewBox="0 0 144 144"><defs><style>.cls-1{fill:#fff;}.cls-2{fill:#2130AD;}</style></defs><title>mold-construction</title><g id="Mold_Construction" data-name="Mold Construction"><path class="cls-1" d="M3,141V3H141V57.9H125.83l-4-26.53a8.8,8.8,0,0,0-8.79-8.54H30.93a8.8,8.8,0,0,0-8.79,8.79v82.14a8.8,8.8,0,0,0,8.79,8.79h82.13a8.8,8.8,0,0,0,8.79-8.58l4.05-31.72H141V141Z"/><path class="cls-2" d="M138,6V54.9h-9.59L124.84,31.1a11.8,11.8,0,0,0-11.78-11.27H30.93A11.8,11.8,0,0,0,19.15,31.62v82.14a11.8,11.8,0,0,0,11.79,11.79h82.13a11.8,11.8,0,0,0,11.78-11.34l3.7-29H138V138H6V6H138m6-6H0V144H144V79.25H123.26l-4.41,34.51a5.79,5.79,0,0,1-5.79,5.79H30.93a5.79,5.79,0,0,1-5.79-5.79V31.62a5.79,5.79,0,0,1,5.79-5.79h82.13a5.79,5.79,0,0,1,5.79,5.79l4.39,29.29H144V0Z"/><path class="cls-2" d="M116.08,65.49l-4.44-27.33a4.87,4.87,0,0,0-4.87-4.87H85.56l-35.21,78.8h56.41a4.87,4.87,0,0,0,4.87-4.87l4.44-32.41,27.92.12V65.22Z"/><circle class="cls-2" cx="129.7" cy="14.3" r="3.18"/><circle class="cls-2" cx="129.7" cy="129.7" r="3.18"/><circle class="cls-2" cx="14.3" cy="129.7" r="3.18"/><circle class="cls-2" cx="14.3" cy="15.75" r="3.18"/></g></svg>