<svg id="Packaging_Shipping" data-name="Packaging/Shipping" xmlns="http://www.w3.org/2000/svg" viewBox="0 0 144 144"><defs><style>.cls-1,.cls-2,.cls-3,.cls-6{fill:#fff;}.cls-1,.cls-2,.cls-3,.cls-4{stroke:#2130AD;}.cls-1,.cls-2,.cls-4{stroke-miterlimit:10;}.cls-1,.cls-3,.cls-4{stroke-width:6px;}.cls-2{stroke-width:5px;}.cls-3{stroke-linejoin:bevel;}.cls-4{fill:none;}.cls-5{fill:#2130AD;}</style></defs><title>packaging-and-shipping</title><polygon class="cls-1" points="113.24 41.38 113.24 102.16 71.24 124.59 29.21 102.14 29.21 41.36 113.24 41.38"/><polygon class="cls-2" points="71.2 18.92 29.21 41.36 5.92 28.91 47.92 6.48 71.2 18.92"/><polygon class="cls-2" points="137.26 28.54 113.24 41.38 71.2 18.92 95.23 6.08 137.26 28.54"/><polygon class="cls-2" points="71.24 63.81 47.65 76.42 5.63 53.96 29.21 41.36 71.24 63.81"/><polygon class="cls-3" points="113.24 41.38 71.24 63.81 29.21 41.36 71.2 18.92 113.24 41.38"/><polygon class="cls-2" points="136.74 53.93 94.75 76.38 71.24 63.81 113.24 41.38 136.74 53.93"/><line class="cls-4" x1="71.24" y1="63.81" x2="71.24" y2="124.59"/><polygon class="cls-1" points="83.17 97.04 83.17 122.24 110.34 135.27 138.38 121.37 138.38 107.73 125 89.75 111.2 83.14 83.17 97.04"/><path class="cls-5" d="M115.88,113.11a1,1,0,0,1-.8-.4l-6.19-8.33a1,1,0,0,1,.36-1.49l13.05-6.46a1,1,0,0,1,1.25.3l6.19,8.33a1,1,0,0,1-.36,1.49L116.32,113A1,1,0,0,1,115.88,113.11Z"/><path class="cls-6" d="M122.74,97.31l6.19,8.33-13.05,6.46-6.19-8.33,13.05-6.46m0-2a2,2,0,0,0-.89.21L108.79,102a2,2,0,0,0-.72,3l6.19,8.33a2,2,0,0,0,2.49.6l13.05-6.46a2,2,0,0,0,.72-3l-6.19-8.33a2,2,0,0,0-1.61-.81Z"/><path class="cls-5" d="M48,125a6.67,6.67,0,0,1-2.64-.55c-4.17-1.79-6.63-7.47-5.61-12.93.86-4.57,3.92-7.64,7.61-7.64a6.68,6.68,0,0,1,2.64.55c4.17,1.79,6.63,7.47,5.61,12.93C54.78,122,51.72,125,48,125Z"/><path class="cls-6" d="M47.39,105.9a4.68,4.68,0,0,1,1.85.39c3.29,1.41,5.28,6.21,4.43,10.72-.69,3.66-3,6-5.65,6a4.68,4.68,0,0,1-1.85-.39c-3.29-1.41-5.28-6.21-4.43-10.72.69-3.66,3-6,5.65-6m0-4h0c-4.61,0-8.55,3.81-9.58,9.27-1.19,6.35,1.79,13,6.78,15.14A8.66,8.66,0,0,0,48,127c4.61,0,8.55-3.81,9.58-9.27,1.19-6.35-1.79-13-6.78-15.14a8.66,8.66,0,0,0-3.43-.72Z"/><path class="cls-5" d="M96.09,139.91a6.67,6.67,0,0,1-2.64-.55c-4.17-1.79-6.63-7.47-5.61-12.93.86-4.57,3.92-7.64,7.61-7.64a6.68,6.68,0,0,1,2.64.55c4.17,1.79,6.63,7.47,5.61,12.93C102.84,136.85,99.78,139.91,96.09,139.91Z"/><path class="cls-6" d="M95.46,120.79a4.68,4.68,0,0,1,1.85.39c3.29,1.41,5.28,6.21,4.43,10.72-.69,3.66-3,6-5.65,6a4.68,4.68,0,0,1-1.85-.39c-3.29-1.41-5.28-6.21-4.43-10.72.69-3.66,3-6,5.65-6m0-4h0c-4.61,0-8.55,3.81-9.58,9.27-1.19,6.35,1.79,13,6.78,15.14a8.66,8.66,0,0,0,3.43.72c4.61,0,8.55-3.81,9.58-9.27,1.19-6.35-1.79-13-6.78-15.14a8.66,8.66,0,0,0-3.43-.72Z"/></svg>