<svg xmlns="http://www.w3.org/2000/svg" viewBox="0 0 144 144"><defs><style>.cls-1{fill:#2130AD;}</style></defs><title>perforation</title><g id="Perforation"><path class="cls-1" d="M114.5,20.28c4.29.93,7.75,5.9,7.74,11.1L122,134.33c0,5.2-3.49,8.67-7.78,7.74L29.5,123.72c-4.29-.93-7.75-5.9-7.74-11.1L22,9.67c0-5.2,3.49-8.67,7.78-7.74ZM98.2,65.19c-2.67-.58-4.85,1.59-4.85,4.83s2.16,6.34,4.83,6.92S103,75.36,103,72.12s-2.16-6.35-4.83-6.93m0,26.4c-2.67-.58-4.85,1.58-4.85,4.82s2.16,6.35,4.83,6.93,4.85-1.59,4.85-4.83-2.16-6.34-4.83-6.92m-.07,38.14c2.67.58,4.85-1.58,4.85-4.83s-2.16-6.34-4.83-6.92-4.85,1.58-4.85,4.82,2.16,6.35,4.83,6.93m5-84c0-3.24-2.16-6.34-4.83-6.92s-4.85,1.58-4.85,4.82,2.16,6.35,4.83,6.93,4.85-1.58,4.85-4.83m8.14,60.45c2.67.58,4.84-1.59,4.84-4.83s-2.15-6.34-4.82-6.92-4.85,1.58-4.85,4.82,2.15,6.35,4.83,6.93M32.7,77.42C30,76.84,27.86,79,27.86,82.24s2.15,6.35,4.82,6.93,4.85-1.59,4.85-4.83S35.38,78,32.7,77.42m31.06-13.8c0-3.24-2.15-6.35-4.82-6.93s-4.85,1.59-4.85,4.83,2.16,6.34,4.83,6.92,4.84-1.58,4.84-4.82m47.52,16.16c2.67.58,4.84-1.58,4.84-4.82S114,68.61,111.29,68s-4.85,1.59-4.85,4.83,2.15,6.34,4.83,6.92m-26.21,9c-2.67-.58-4.84,1.58-4.84,4.82s2.15,6.35,4.82,6.93,4.85-1.59,4.85-4.83-2.15-6.34-4.83-6.92M32.75,51c-2.67-.58-4.84,1.59-4.84,4.83s2.15,6.34,4.82,6.92,4.85-1.58,4.85-4.82S35.43,51.6,32.75,51M89.94,69.29c0-3.24-2.15-6.35-4.83-6.93s-4.84,1.59-4.84,4.83,2.15,6.34,4.82,6.92,4.85-1.58,4.85-4.82M58.89,83.09C56.22,82.51,54,84.67,54,87.91s2.16,6.35,4.83,6.93S63.7,93.25,63.71,90s-2.15-6.34-4.82-6.92m-.07,38.14c2.67.58,4.84-1.58,4.84-4.83s-2.15-6.34-4.82-6.92S54,111.05,54,114.3s2.16,6.35,4.83,6.93M85,126.89c2.68.58,4.85-1.58,4.85-4.83s-2.15-6.34-4.83-6.92-4.84,1.58-4.84,4.82,2.15,6.35,4.82,6.93M78.64,21.36c-2.67-.58-4.85,1.58-4.85,4.82s2.16,6.35,4.83,6.93,4.84-1.58,4.84-4.83-2.15-6.34-4.82-6.92M72,85.92c-2.68-.58-4.85,1.58-4.85,4.82s2.15,6.35,4.83,6.93,4.84-1.59,4.84-4.83S74.65,86.5,72,85.92M78.57,59.5c2.67.58,4.84-1.58,4.84-4.82s-2.15-6.35-4.82-6.93-4.85,1.58-4.85,4.83,2.16,6.34,4.83,6.92m-1.72,7c0-3.24-2.15-6.35-4.82-6.93s-4.85,1.59-4.85,4.83S69.33,70.7,72,71.28s4.84-1.58,4.84-4.82m-44.22,49.1c2.68.58,4.85-1.58,4.85-4.83s-2.15-6.34-4.83-6.92-4.84,1.58-4.84,4.82S30,115,32.63,115.55m78.54,17c2.67.58,4.84-1.58,4.84-4.83s-2.15-6.34-4.82-6.92-4.85,1.58-4.85,4.82,2.15,6.35,4.83,6.93m-45.62-114c-2.67-.58-4.84,1.58-4.84,4.82s2.15,6.35,4.82,6.93,4.85-1.58,4.85-4.83-2.15-6.34-4.83-6.92m-.07,38.14c2.68.58,4.85-1.58,4.85-4.82s-2.15-6.35-4.83-6.93-4.84,1.58-4.84,4.83,2.15,6.34,4.82,6.92M73.69,79c0,3.24,2.16,6.34,4.83,6.92s4.84-1.58,4.84-4.82-2.15-6.35-4.82-6.93S73.7,75.72,73.69,79M32.8,24.63C30.13,24.06,28,26.22,28,29.46s2.15,6.35,4.82,6.93,4.85-1.58,4.85-4.83-2.15-6.34-4.83-6.92M90,42.89c0-3.24-2.15-6.34-4.83-6.92s-4.84,1.58-4.84,4.82,2.15,6.35,4.82,6.93S90,46.14,90,42.89M60.61,76.13c0,3.24,2.15,6.34,4.82,6.92s4.85-1.58,4.85-4.82-2.15-6.35-4.83-6.93-4.84,1.59-4.84,4.83m3.2-38.91c0-3.24-2.15-6.34-4.82-6.92s-4.85,1.58-4.85,4.82,2.16,6.35,4.83,6.93,4.84-1.58,4.84-4.83m-18,43c-2.67-.58-4.84,1.58-4.84,4.82S43.1,91.42,45.77,92s4.85-1.59,4.85-4.83-2.16-6.34-4.83-6.92m4.88-19.47c0-3.24-2.16-6.35-4.83-6.93S41,55.45,41,58.69s2.15,6.34,4.82,6.92,4.85-1.58,4.85-4.82m60.65-7.39c2.67.58,4.84-1.58,4.84-4.83s-2.15-6.34-4.82-6.92-4.85,1.58-4.85,4.82,2.15,6.35,4.83,6.93M60.56,102.52c0,3.25,2.15,6.35,4.82,6.93s4.85-1.58,4.85-4.83-2.15-6.34-4.83-6.92-4.84,1.58-4.84,4.82m13.08,2.83c0,3.25,2.16,6.35,4.83,6.93s4.84-1.58,4.84-4.83-2.15-6.34-4.82-6.92-4.85,1.58-4.85,4.82M104.82,27c-2.67-.58-4.84,1.58-4.84,4.82s2.15,6.35,4.82,6.93,4.85-1.58,4.85-4.83-2.15-6.34-4.83-6.92M99.93,58.25c0,3.24,2.15,6.34,4.82,6.92s4.85-1.58,4.85-4.82-2.15-6.35-4.83-6.93S99.93,55,99.93,58.25M52.47,15.69c-2.68-.58-4.85,1.58-4.85,4.82s2.15,6.35,4.83,6.93,4.84-1.58,4.84-4.83-2.15-6.34-4.82-6.92M39.3,51c2.67.58,4.84-1.58,4.84-4.82S42,39.82,39.32,39.25s-4.85,1.58-4.85,4.83S36.63,50.42,39.3,51m13.09,2.83c2.67.58,4.84-1.58,4.84-4.82s-2.15-6.35-4.82-6.93-4.85,1.58-4.85,4.83,2.15,6.34,4.83,6.92m-13-41c-2.68-.58-4.85,1.58-4.85,4.82s2.15,6.35,4.83,6.93S44.19,23,44.2,19.78,42,13.44,39.37,12.86m32.53,111.2c2.67.58,4.84-1.58,4.84-4.83s-2.15-6.34-4.82-6.92-4.85,1.58-4.85,4.82,2.15,6.35,4.83,6.93M47.52,73.3c0,3.24,2.15,6.34,4.83,6.92s4.84-1.58,4.84-4.82S55,69,52.37,68.47s-4.85,1.59-4.85,4.83M99.88,84.64c0,3.24,2.15,6.34,4.82,6.92s4.85-1.58,4.85-4.82-2.15-6.35-4.83-6.93-4.84,1.59-4.84,4.83M44.1,72.56c0-3.24-2.15-6.35-4.82-6.93s-4.85,1.59-4.85,4.83,2.15,6.34,4.83,6.92,4.84-1.58,4.84-4.82m1.62,45.83c2.67.58,4.85-1.58,4.85-4.83s-2.16-6.34-4.83-6.92-4.84,1.58-4.84,4.82,2.15,6.35,4.82,6.93M76.9,40.06c0-3.24-2.15-6.34-4.82-6.92S67.23,34.72,67.22,38s2.15,6.35,4.83,6.93,4.84-1.58,4.84-4.83M50.72,34.39c0-3.24-2.16-6.34-4.83-6.92S41.05,29.05,41,32.29s2.15,6.35,4.82,6.93,4.85-1.58,4.85-4.83M91.66,62.33c2.67.58,4.84-1.58,4.84-4.82s-2.15-6.35-4.82-6.93-4.85,1.58-4.85,4.83,2.15,6.34,4.83,6.92M99.83,111c0,3.25,2.15,6.35,4.82,6.93s4.85-1.58,4.85-4.83-2.15-6.34-4.83-6.92-4.84,1.58-4.84,4.82M91.73,24.2c-2.68-.58-4.85,1.58-4.85,4.82s2.15,6.35,4.83,6.93,4.84-1.58,4.84-4.83-2.15-6.34-4.82-6.92M34.37,96.85c0,3.25,2.15,6.35,4.83,6.93S44,102.2,44,98.95,41.9,92.61,39.23,92s-4.85,1.58-4.85,4.82m13.09,2.83c0,3.25,2.15,6.35,4.83,6.93s4.84-1.58,4.84-4.83S55,95.44,52.32,94.86s-4.85,1.58-4.85,4.82M86.78,81.8c0,3.24,2.15,6.34,4.83,6.92s4.84-1.58,4.84-4.82S94.31,77.55,91.64,77s-4.85,1.59-4.85,4.83m0,26.39c0,3.25,2.15,6.35,4.83,6.93s4.84-1.58,4.84-4.83-2.15-6.34-4.82-6.92-4.85,1.58-4.85,4.82"/></g></svg>