<svg xmlns="http://www.w3.org/2000/svg" viewBox="0 0 144 144"><defs><style>.cls-1,.cls-2{fill:#fff;}.cls-1{stroke:#2130AD;stroke-linejoin:round;stroke-width:6px;}.cls-3{fill:#2130AD;}</style></defs><title>prototype</title><g id="Prototype"><path class="cls-1" d="M136.85,50.91l-3.77-9.1L116.18,45a45.09,45.09,0,0,0-13.09-12.82l3.11-16.73-9.1-3.76L87.37,25.81A45,45,0,0,0,69.06,26L59.43,12l-9.1,3.77,3.14,16.9A45.09,45.09,0,0,0,40.65,45.72L23.92,42.61l-3.76,9.1,14.17,9.73a45,45,0,0,0,.19,18.31l-14,9.63,3.77,9.1,16.9-3.14a45.09,45.09,0,0,0,13.09,12.82L51.13,124.9l9.1,3.76L70,114.49a45,45,0,0,0,18.31-.19l9.63,14,9.1-3.77-3.14-16.9a45.09,45.09,0,0,0,12.82-13.09l16.73,3.11,3.76-9.1L123,78.85a45,45,0,0,0-.19-18.31ZM78.67,98A26.94,26.94,0,1,1,105.61,71,26.94,26.94,0,0,1,78.67,98Z"/><path class="cls-2" d="M43.14,134.77A16.65,16.65,0,0,1,26.5,118.13V86H68.77v32.17a16.65,16.65,0,0,1-16.64,16.64Z"/><path class="cls-2" d="M66.44,88.3v29.83a14.3,14.3,0,0,1-14.3,14.3h-9a14.3,14.3,0,0,1-14.3-14.3V88.3h37.6m4.67-4.67H24.17v34.5a19,19,0,0,0,19,19h9a19,19,0,0,0,19-19V83.63Z"/><path class="cls-2" d="M31.67,106.29a5.18,5.18,0,0,1-5.16-4.63c-.25-2.3-.81-5.71-.92-6.2a24,24,0,0,0-3.39-7.66,24.79,24.79,0,0,0-3.26-3.61A39.82,39.82,0,0,1,16,81.12,41.82,41.82,0,0,1,47.6,12.54,42,42,0,0,1,89,54.35a41.68,41.68,0,0,1-9.69,26.77,39.75,39.75,0,0,1-2.93,3.07,24.82,24.82,0,0,0-3.27,3.62,24,24,0,0,0-3.4,7.68c-.11.47-.66,3.88-.91,6.18a5.19,5.19,0,0,1-5.16,4.63Z"/><path class="cls-2" d="M47.64,15.44A38.9,38.9,0,0,1,77,79.26c-2,2.43-4.55,4.26-6.36,6.9a27,27,0,0,0-3.82,8.61c-.13.51-.73,4.2-1,6.58a2.28,2.28,0,0,1-2.27,2H31.67a2.28,2.28,0,0,1-2.27-2c-.26-2.38-.86-6.07-1-6.58a27,27,0,0,0-3.82-8.61c-1.81-2.64-4.34-4.47-6.36-6.9a38.91,38.91,0,0,1,29.4-63.82m0-5.81h-.07A44.71,44.71,0,0,0,13.77,83a42.78,42.78,0,0,0,3.13,3.29,22.46,22.46,0,0,1,2.89,3.17,21.13,21.13,0,0,1,3,6.68c.13.64.63,3.75.86,5.86a8.09,8.09,0,0,0,8,7.21H63.61a8.09,8.09,0,0,0,8-7.21c.23-2.11.73-5.21.86-5.86a21.12,21.12,0,0,1,3-6.68,22.46,22.46,0,0,1,2.9-3.17A42.78,42.78,0,0,0,81.5,83,44.72,44.72,0,0,0,47.71,9.64Z"/><path class="cls-3" d="M31.14,110.26a7.78,7.78,0,0,1-7.74-6.94c-.25-2.28-.8-5.68-.9-6.13a22.26,22.26,0,0,0-3.14-7.08,23.56,23.56,0,0,0-3.06-3.37,43.34,43.34,0,0,1-3.19-3.35A45.62,45.62,0,0,1,47.57,8.57,45.84,45.84,0,0,1,92.75,54.19a45.48,45.48,0,0,1-10.57,29.2A43.24,43.24,0,0,1,79,86.73a23.74,23.74,0,0,0-3.08,3.38,22.47,22.47,0,0,0-3.16,7.17c-.08.38-.63,3.78-.88,6a7.78,7.78,0,0,1-7.74,6.94ZM47.61,20.79a33.66,33.66,0,0,0-33,33.56A33.27,33.27,0,0,0,17.4,67.87a33.61,33.61,0,0,0,5,8,33.08,33.08,0,0,0,2.32,2.42A32.11,32.11,0,0,1,29,83.14a32.23,32.23,0,0,1,4.59,10.31c.17.65.5,2.68.78,4.64l13.26,0h13.3c.26-2,.59-4,.75-4.59a29.09,29.09,0,0,1,8.9-15.18,33.05,33.05,0,0,0,2.34-2.43,33.66,33.66,0,0,0,4.95-8,33.31,33.31,0,0,0,2.83-13.52A33.69,33.69,0,0,0,47.61,20.79Z"/><path class="cls-2" d="M47.61,11.57A42.8,42.8,0,0,1,89.75,54.19a42.47,42.47,0,0,1-9.88,27.28,40.87,40.87,0,0,1-3,3.13,26,26,0,0,0-3.45,3.82,25.43,25.43,0,0,0-3.59,8.12c-.11.47-.7,4.07-1,6.46a4.78,4.78,0,0,1-4.76,4.27h-33A4.78,4.78,0,0,1,26.38,103c-.26-2.39-.85-6-1-6.48a25.37,25.37,0,0,0-3.59-8.11,26,26,0,0,0-3.45-3.82,40.78,40.78,0,0,1-3-3.12,42.62,42.62,0,0,1,32.2-69.9M31.73,101.1,47.64,101h16c.2-2.33.81-6.15,1-6.85a26.13,26.13,0,0,1,8.09-13.77,35.26,35.26,0,0,0,2.55-2.67,36.56,36.56,0,0,0-27.62-60,36.69,36.69,0,0,0-36,36.56A36.42,36.42,0,0,0,20,77.76a35.28,35.28,0,0,0,2.55,2.66,29.19,29.19,0,0,1,3.94,4.41,29.26,29.26,0,0,1,4.15,9.35c.18.7.78,4.52,1,6.9M47.61,5.57h-.08a48.81,48.81,0,0,0-48,48.62A48.48,48.48,0,0,0,10.79,85.31a46.09,46.09,0,0,0,3.41,3.58,21.66,21.66,0,0,1,2.68,2.91,19.32,19.32,0,0,1,2.7,6.07c.13.67.61,3.67.84,5.77a10.78,10.78,0,0,0,10.73,9.61h33a10.78,10.78,0,0,0,10.72-9.61c.23-2.1.72-5.09.84-5.76a19.4,19.4,0,0,1,2.7-6.09,21.65,21.65,0,0,1,2.68-2.91,46.29,46.29,0,0,0,3.41-3.59A48.62,48.62,0,0,0,47.68,5.57ZM36.94,95.08c-.17-1-.33-1.91-.44-2.36a35.25,35.25,0,0,0-5-11.27,34.44,34.44,0,0,0-4.69-5.31c-.84-.82-1.56-1.53-2.13-2.21A30.57,30.57,0,0,1,47.61,23.79a30.68,30.68,0,0,1,30.1,30.56,30.32,30.32,0,0,1-2.58,12.31,30.63,30.63,0,0,1-4.51,7.27,30.55,30.55,0,0,1-2.13,2.2,34.44,34.44,0,0,0-4.7,5.32,35.26,35.26,0,0,0-5,11.26c-.11.44-.27,1.3-.44,2.33H47.64l-10.69,0Z"/><rect class="cls-2" x="28.84" y="110.5" width="37.6" height="5.22" rx="2.45" ry="2.45"/><path class="cls-3" d="M64,110.5H31.29a2.45,2.45,0,0,0-2.45,2.45v.32a2.45,2.45,0,0,0,2.45,2.45H64a2.45,2.45,0,0,0,2.45-2.45v-.32A2.45,2.45,0,0,0,64,110.5Z"/><rect class="cls-2" x="28.84" y="118.86" width="37.6" height="5.22" rx="2.45" ry="2.45"/><path class="cls-3" d="M31.29,118.86a2.45,2.45,0,0,0-2.45,2.45v.32a2.45,2.45,0,0,0,2.45,2.45H64a2.45,2.45,0,0,0,2.45-2.45v-.32A2.45,2.45,0,0,0,64,118.86Z"/><rect class="cls-2" x="41.28" y="129.21" width="12.71" height="1.22" rx="0.45" ry="0.45"/><path class="cls-3" d="M41.73,127.21a2.45,2.45,0,0,0-2.45,2.45V130a2.45,2.45,0,0,0,2.45,2.45H53.54A2.45,2.45,0,0,0,56,130v-.32a2.45,2.45,0,0,0-2.45-2.45Z"/></g></svg>